<?xml version="1.0" encoding="UTF-8" standalone="no"?>
<svg
   width="32"
   version="1.1"
   height="32"
   viewBox="0 0 32 32"
   id="svg17"
   sodipodi:docname="certificate-server.svg"
   inkscape:version="1.1.1 (3bf5ae0d25, 2021-09-20)"
   xmlns:inkscape="http://www.inkscape.org/namespaces/inkscape"
   xmlns:sodipodi="http://sodipodi.sourceforge.net/DTD/sodipodi-0.dtd"
   xmlns:xlink="http://www.w3.org/1999/xlink"
   xmlns="http://www.w3.org/2000/svg"
   xmlns:svg="http://www.w3.org/2000/svg"
   xmlns:rdf="http://www.w3.org/1999/02/22-rdf-syntax-ns#"
   xmlns:cc="http://creativecommons.org/ns#"
   xmlns:dc="http://purl.org/dc/elements/1.1/">
  <sodipodi:namedview
     pagecolor="#ffffff"
     bordercolor="#666666"
     borderopacity="1"
     objecttolerance="10"
     gridtolerance="10"
     guidetolerance="10"
     inkscape:pageopacity="0"
     inkscape:pageshadow="2"
     inkscape:window-width="1920"
     inkscape:window-height="1007"
     id="namedview19"
     showgrid="true"
     inkscape:zoom="19.625001"
     inkscape:cx="13.248407"
     inkscape:cy="15.261146"
     inkscape:window-x="0"
     inkscape:window-y="0"
     inkscape:window-maximized="1"
     inkscape:current-layer="layer1"
     inkscape:document-rotation="0"
     inkscape:pagecheckerboard="0">
    <inkscape:grid
       type="xygrid"
       id="grid908" />
  </sodipodi:namedview>
  <defs
     id="defs5455">
    <linearGradient
       inkscape:collect="always"
       xlink:href="#linearGradient2230"
       id="linearGradient2232"
       x1="384.57144"
       y1="515.79797"
       x2="448.57144"
       y2="515.79797"
       gradientUnits="userSpaceOnUse"
       gradientTransform="matrix(0.46874984,0,0,0.46153837,205.30356,293.73743)" />
    <linearGradient
       inkscape:collect="always"
       id="linearGradient2230">
      <stop
         style="stop-color:#4e99ca;stop-opacity:0.80000001"
         offset="0"
         id="stop2226" />
      <stop
         style="stop-color:#20ffff;stop-opacity:0.80000001"
         offset="0.50507295"
         id="stop2332" />
      <stop
         style="stop-color:#ffaeff;stop-opacity:0.69"
         offset="1"
         id="stop2228" />
    </linearGradient>
    <linearGradient
       inkscape:collect="always"
       xlink:href="#linearGradient2230"
       id="linearGradient1228"
       gradientUnits="userSpaceOnUse"
       gradientTransform="matrix(0.46874984,0,0,0.46153837,212.73324,296.04512)"
       x1="404.72144"
       y1="520.79797"
       x2="428.72144"
       y2="520.79797" />
  </defs>
  <metadata
     id="metadata5458">
    <rdf:RDF>
      <cc:Work
         rdf:about="">
        <dc:format>image/svg+xml</dc:format>
        <dc:type
           rdf:resource="http://purl.org/dc/dcmitype/StillImage" />
      </cc:Work>
    </rdf:RDF>
  </metadata>
  <g
     inkscape:label="Capa 1"
     inkscape:groupmode="layer"
     id="layer1"
     transform="translate(-384.57143,-515.798)">
    <rect
       style="fill:#3b445f;fill-opacity:1;stroke:none;stroke-width:0.5869"
       id="center-3"
       width="28.218748"
       height="19.384611"
       x="386.46201"
       y="523.49005"
       ry="1.8461516"
       rx="1.8812553" />
    <path
       d="m 412.83719,522.5717 h -13.74692 c -0.30383,0 -0.56952,-0.15398 -0.75942,-0.42377 l -1.02541,-1.5408 c -0.34172,-0.53931 -0.91143,-0.80913 -1.51885,-0.80913 h -7.02535 c -1.74697,0 -3.18981,1.46396 -3.18981,3.2359 v 17.99041 c 0,1.50242 1.21533,2.77369 2.73418,2.77369 h 11.81019 v 0 0 0 0 0 0 0 h 0.91126 v 0 0 0 0 0 0 0 0 0 h 11.81019 c 1.481,0 2.73418,-1.23289 2.73418,-2.77369 V 525.3453 c 0,-1.5408 -1.21506,-2.77341 -2.73418,-2.77341 z m -11.81013,21.2263 v 0 h -0.91126 v 0 0 z m 13.63289,-2.7736 c 0,1.00153 -0.79761,1.84905 -1.8227,1.84905 h -24.53178 c -0.98727,0 -1.8227,-0.84752 -1.8227,-1.84905 l -2.7e-4,-6.20226 v -3.5057 c 0,-1.00155 0.83543,-1.84905 1.8227,-1.84905 h 13.74692 c 0.60764,0 1.17714,-0.30823 1.51885,-0.80914 l 0.98728,-1.54079 c 0.18991,-0.2311 0.45561,-0.42378 0.75943,-0.42378 h 7.06333 c 1.25314,0 2.2786,1.04021 2.2786,2.31155 v 5.04649 z m -2.2786,-15.21674 h -7.06334 c -0.60764,0 -1.17714,0.30822 -1.51885,0.80913 l -0.98728,1.5408 c -0.1518,0.26979 -0.45562,0.42377 -0.75943,0.42377 h -13.74682 c -0.68338,0 -1.32808,0.0783 -1.82294,0.78572 v -4.03062 c 0,-0.92308 0.96374,-1.84615 1.90122,-1.84615 h 7.50005 l 0.0203,0.0214 1.38615,-0.0214 1.83801,0.006 h 13.74689 c 0.98727,0 1.82274,0.84751 1.82274,1.84905 v 1.4253 c -0.60741,-0.61617 -1.40472,-0.96281 -2.31619,-0.96281 z"
       id="path64"
       sodipodi:nodetypes="csccsssssccccccccccccccccccsssccccccccccssccsssccssscccsccscccccccssscc"
       style="fill:url(#linearGradient2232);fill-opacity:1;stroke-width:0.0683002" />
    <path
       d="m 407.72007,539.8749 c 0.19377,0 0.35156,0.15481 0.35156,0.34615 0,0.19099 -0.15779,0.34615 -0.35156,0.34615 -0.19434,0 -0.35173,-0.15516 -0.35173,-0.34615 0,-0.19134 0.15741,-0.34615 0.35173,-0.34615 z m -0.35173,-2.4231 c 0,-0.19134 0.15739,-0.34615 0.35173,-0.34615 0.19377,0 0.35156,0.15481 0.35156,0.34615 v 1.38429 c 0,0.19134 -0.15779,0.3465 -0.35156,0.3465 -0.19434,0 -0.35173,-0.15516 -0.35173,-0.3465 z m 4.9218,4.50004 h -8.43763 c -0.7766,0 -1.40608,-0.62031 -1.40608,-1.38464 v -3.1154 c 0,-0.19134 0.15739,-0.34615 0.35173,-0.34615 0.1938,0 0.35154,0.15481 0.35154,0.34615 v 2.94233 c 0,0.47799 0.39349,0.86506 0.87892,0.86506 h 8.08577 c 0.48542,0 0.87928,-0.38709 0.87928,-0.86506 v -3.11575 c 0,-0.47765 -0.39386,-0.8653 -0.87928,-0.8653 h -6.32811 -0.1756 -3.5e-4 c -0.5828,0 -1.05454,-0.4648 -1.05454,-1.03814 v -0.17342 -0.86521 c 0,-1.91181 1.57384,-3.46139 3.51584,-3.46139 1.9416,0 3.51541,1.54958 3.51541,3.46139 v 0.34615 c 0,0.19134 -0.15726,0.34615 -0.35157,0.34615 -0.19398,0 -0.35158,-0.15481 -0.35158,-0.34615 v -0.34615 c 0,-1.52946 -1.25929,-2.76943 -2.81226,-2.76943 -1.55339,0 -2.81251,1.23995 -2.81251,2.76943 v 0.51906 0.13216 0.21399 c 0,0.28683 0.23601,0.5196 0.52716,0.5196 h 0.21735 0.13421 4.57028 0.17577 0.70315 0.17613 0.52697 c 0.77695,0 1.40629,0.61963 1.40629,1.38453 v 3.46155 c 0,0.76433 -0.62934,1.38464 -1.40629,1.38464 z m -8.78918,-5.53876 c -0.19382,0 -0.35126,-0.15482 -0.35126,-0.34616 0,-0.19081 0.15744,-0.3458 0.35126,-0.3458 0.19429,0 0.35155,0.15499 0.35155,0.3458 0,0.19134 -0.15726,0.34616 -0.35155,0.34616 z"
       id="path2-7"
       style="fill:url(#linearGradient1228);fill-opacity:1;stroke-width:0.0218029" />
  </g>
</svg>
