<?xml version="1.0" encoding="UTF-8" standalone="no"?>
<svg
   width="32"
   version="1.1"
   height="32"
   viewBox="0 0 32 32"
   id="svg17"
   sodipodi:docname="folder-text.svg"
   inkscape:version="1.1.1 (3bf5ae0d25, 2021-09-20)"
   xmlns:inkscape="http://www.inkscape.org/namespaces/inkscape"
   xmlns:sodipodi="http://sodipodi.sourceforge.net/DTD/sodipodi-0.dtd"
   xmlns:xlink="http://www.w3.org/1999/xlink"
   xmlns="http://www.w3.org/2000/svg"
   xmlns:svg="http://www.w3.org/2000/svg"
   xmlns:rdf="http://www.w3.org/1999/02/22-rdf-syntax-ns#"
   xmlns:cc="http://creativecommons.org/ns#"
   xmlns:dc="http://purl.org/dc/elements/1.1/">
  <sodipodi:namedview
     pagecolor="#ffffff"
     bordercolor="#666666"
     borderopacity="1"
     objecttolerance="10"
     gridtolerance="10"
     guidetolerance="10"
     inkscape:pageopacity="0"
     inkscape:pageshadow="2"
     inkscape:window-width="1920"
     inkscape:window-height="1007"
     id="namedview19"
     showgrid="false"
     inkscape:zoom="9.8125"
     inkscape:cx="-11.617834"
     inkscape:cy="4.8407643"
     inkscape:window-x="0"
     inkscape:window-y="0"
     inkscape:window-maximized="1"
     inkscape:current-layer="layer1"
     inkscape:document-rotation="0"
     inkscape:pagecheckerboard="0" />
  <defs
     id="defs5455">
    <linearGradient
       inkscape:collect="always"
       xlink:href="#linearGradient936"
       id="linearGradient2232"
       x1="384.57144"
       y1="515.79797"
       x2="448.57144"
       y2="515.79797"
       gradientUnits="userSpaceOnUse"
       gradientTransform="matrix(0.46875,0,0,0.46153837,205.30357,293.73742)" />
    <linearGradient
       inkscape:collect="always"
       id="linearGradient936">
      <stop
         style="stop-color:#b5e8e0;stop-opacity:0.80000001"
         offset="0"
         id="stop930" />
      <stop
         style="stop-color:#20ffff;stop-opacity:0.80000001"
         offset="0.50507295"
         id="stop932" />
      <stop
         style="stop-color:#ffaeff;stop-opacity:0.69"
         offset="1"
         id="stop934" />
    </linearGradient>
    <linearGradient
       inkscape:collect="always"
       xlink:href="#linearGradient936"
       id="linearGradient964"
       gradientUnits="userSpaceOnUse"
       gradientTransform="matrix(0.52084045,0,0,0.46153837,192.02214,296.04511)"
       x1="407.60944"
       y1="520.79803"
       x2="425.60953"
       y2="520.79803" />
    <linearGradient
       inkscape:collect="always"
       xlink:href="#linearGradient2230"
       id="linearGradient966"
       gradientUnits="userSpaceOnUse"
       gradientTransform="matrix(0.05120797,0,0,0.03692298,389.44065,530.13646)"
       x1="320"
       y1="187.5"
       x2="439"
       y2="187.5" />
    <linearGradient
       inkscape:collect="always"
       id="linearGradient2230">
      <stop
         style="stop-color:#4e99ca;stop-opacity:0.80000001"
         offset="0"
         id="stop2226" />
      <stop
         style="stop-color:#20ffff;stop-opacity:0.80000001"
         offset="0.50507295"
         id="stop2332" />
      <stop
         style="stop-color:#ffaeff;stop-opacity:0.69"
         offset="1"
         id="stop2228" />
    </linearGradient>
    <linearGradient
       inkscape:collect="always"
       xlink:href="#linearGradient2230"
       id="linearGradient968"
       gradientUnits="userSpaceOnUse"
       gradientTransform="matrix(0.05120797,0,0,0.03692298,389.44064,532.44417)"
       x1="320"
       y1="187.5"
       x2="439"
       y2="187.5" />
  </defs>
  <metadata
     id="metadata5458">
    <rdf:RDF>
      <cc:Work
         rdf:about="">
        <dc:format>image/svg+xml</dc:format>
        <dc:type
           rdf:resource="http://purl.org/dc/dcmitype/StillImage" />
      </cc:Work>
    </rdf:RDF>
  </metadata>
  <g
     inkscape:label="Capa 1"
     inkscape:groupmode="layer"
     id="layer1"
     transform="translate(-384.57143,-515.798)">
    <rect
       style="fill:#3b445f;fill-opacity:1;stroke:none;stroke-width:0.586413"
       id="center-3"
       width="28.171875"
       height="19.384611"
       x="386.50894"
       y="523.4903"
       ry="1.8461516"
       rx="1.8781303" />
    <path
       d="m 412.83717,522.57169 h -13.7469 c -0.30383,0 -0.56951,-0.15398 -0.75942,-0.42377 l -1.02539,-1.54079 c -0.34172,-0.53931 -0.91147,-0.80913 -1.51886,-0.80913 h -7.02535 c -1.74698,0 -3.18982,1.46396 -3.18982,3.2359 v 17.99041 c 0,1.50242 1.21533,2.77369 2.73419,2.77369 h 11.81018 v 0 0 0 0 0 0 0 h 0.91126 v 0 0 0 0 0 0 0 0 0 h 11.81018 c 1.48102,0 2.73419,-1.23289 2.73419,-2.77369 v -15.67902 c 0,-1.5408 -1.21506,-2.77341 -2.73419,-2.77341 z M 401.02706,543.798 v 0 h -0.91126 v 0 0 z m 13.6329,-2.7736 c 0,1.00153 -0.7976,1.84905 -1.82272,1.84905 h -24.53176 c -0.98728,0 -1.82272,-0.84752 -1.82272,-1.84905 l -2.7e-4,-6.20226 v -3.5057 c 0,-1.00155 0.83545,-1.84905 1.82272,-1.84905 h 13.7469 c 0.60766,0 1.17715,-0.30823 1.51886,-0.80914 l 0.98728,-1.54079 c 0.18993,-0.23111 0.45561,-0.42379 0.75943,-0.42379 h 7.06332 c 1.25317,0 2.27863,1.04021 2.27863,2.31156 v 5.04649 z m -2.27862,-15.21675 h -7.06332 c -0.60766,0 -1.17716,0.30822 -1.51886,0.80913 l -0.98728,1.5408 c -0.15178,0.26979 -0.45562,0.42377 -0.75943,0.42377 h -13.7468 c -0.68341,0 -1.32812,0.0783 -1.82297,0.78573 v -4.03062 c 0,-0.92309 0.96375,-1.84616 1.90125,-1.84616 h 7.50001 l 0.0201,0.0214 1.38614,-0.0214 1.838,0.006 h 13.7469 c 0.98728,0 1.82273,0.84751 1.82273,1.84905 v 1.4253 c -0.6074,-0.61617 -1.40474,-0.96281 -2.3162,-0.96281 z"
       id="path64"
       sodipodi:nodetypes="csccsssssccccccccccccccccccsssccccccccccssccsssccssscccsccscccccccssscc"
       style="fill:url(#linearGradient2232);fill-opacity:1;stroke-width:0.0683002" />
    <path
       d="m 412.1338,534.68277 c 0,0.19115 -0.17473,0.34615 -0.39065,0.34615 -0.21514,0 -0.39021,-0.15499 -0.39021,-0.34615 0,-0.19132 0.17509,-0.34631 0.39021,-0.34631 0.21592,0 0.39065,0.15499 0.39065,0.34631 z m 0,7.26901 h -6.24954 c -0.8631,0 -1.56269,-0.62011 -1.56269,-1.3844 v -8.3076 c 0,-0.76481 0.69959,-1.38441 1.56269,-1.38441 h 3.12465 v -4.6e-4 l 3.6e-4,4.6e-4 c 0.43175,0 0.7812,0.30982 0.7812,0.69195 v 2.07686 c 0,0.38248 0.3494,0.69228 0.78123,0.69228 0.21591,0 0.39065,0.15499 0.39065,0.34631 0,0.19114 -0.17474,0.34614 -0.39065,0.34614 -0.8629,0 -1.56277,-0.6201 -1.56277,-1.38473 v -1.38441 -0.69244 h -0.78087 -2.34378 c -0.43166,0 -0.87505,0.31032 -0.87505,0.69246 v 8.30762 c 0,0.38212 0.44341,0.69193 0.87503,0.69193 h 6.24957 c 0.43182,0 0.88353,-0.30989 0.87555,-0.69193 v -4.50022 -1.03824 -0.54895 l -2.48956,-2.12301 c -0.153,-0.13505 -0.153,-0.35428 0,-0.48932 0.15257,-0.13505 0.39981,-0.13505 0.55238,0 l 2.50549,2.22001 c 3.9e-4,3.5e-4 9.4e-4,9.3e-4 10e-4,10e-4 0.0721,0.0629 0.11746,0.15058 0.11746,0.24743 v 0.69246 1.03827 4.50022 c 0,0.76428 -0.69959,1.3844 -1.56289,1.3844 z"
       id="path2-7"
       style="fill:url(#linearGradient964);fill-opacity:1;stroke-width:0.0229825"
       sodipodi:nodetypes="ssssscsssscccsssssscccssssssccccccccsccscc" />
    <path
       d="m 411.53688,536.7826 h -5.32562 c -0.2121,0 -0.38406,0.12395 -0.38406,0.27693 0,0.15297 0.17196,0.27693 0.38406,0.27693 h 5.32562 c 0.2121,0 0.38407,-0.12396 0.38407,-0.27693 0,-0.15298 -0.17197,-0.27693 -0.38407,-0.27693 z"
       id="path4-3-53"
       style="fill:url(#linearGradient966);fill-opacity:1;stroke-width:0.0434825" />
    <path
       d="m 411.53688,539.09029 h -5.32562 c -0.2121,0 -0.38406,0.12396 -0.38406,0.27693 0,0.15297 0.17196,0.27692 0.38406,0.27692 h 5.32562 c 0.2121,0 0.38407,-0.12394 0.38407,-0.27692 0,-0.15297 -0.17197,-0.27693 -0.38407,-0.27693 z"
       id="path4-3-5-5"
       style="fill:url(#linearGradient968);fill-opacity:1;stroke-width:0.0434825" />
  </g>
</svg>
