<?xml version="1.0" encoding="UTF-8" standalone="no"?>
<svg
   width="32"
   version="1.1"
   height="32"
   viewBox="0 0 32 32"
   id="svg15"
   sodipodi:docname="folder-Github.svg"
   inkscape:version="1.1.1 (3bf5ae0d25, 2021-09-20)"
   xmlns:inkscape="http://www.inkscape.org/namespaces/inkscape"
   xmlns:sodipodi="http://sodipodi.sourceforge.net/DTD/sodipodi-0.dtd"
   xmlns:xlink="http://www.w3.org/1999/xlink"
   xmlns="http://www.w3.org/2000/svg"
   xmlns:svg="http://www.w3.org/2000/svg"
   xmlns:rdf="http://www.w3.org/1999/02/22-rdf-syntax-ns#"
   xmlns:cc="http://creativecommons.org/ns#"
   xmlns:dc="http://purl.org/dc/elements/1.1/">
  <sodipodi:namedview
     pagecolor="#ffffff"
     bordercolor="#666666"
     borderopacity="1"
     objecttolerance="10"
     gridtolerance="10"
     guidetolerance="10"
     inkscape:pageopacity="0"
     inkscape:pageshadow="2"
     inkscape:window-width="1920"
     inkscape:window-height="1007"
     id="namedview17"
     showgrid="false"
     inkscape:zoom="9.8125"
     inkscape:cx="-13.044586"
     inkscape:cy="8.3057325"
     inkscape:window-x="0"
     inkscape:window-y="0"
     inkscape:window-maximized="1"
     inkscape:current-layer="layer1"
     inkscape:document-rotation="0"
     inkscape:pagecheckerboard="0" />
  <defs
     id="defs5455">
    <linearGradient
       inkscape:collect="always"
       xlink:href="#linearGradient2230"
       id="linearGradient2232"
       x1="384.57144"
       y1="515.79797"
       x2="448.57144"
       y2="515.79797"
       gradientUnits="userSpaceOnUse"
       gradientTransform="matrix(0.46875,0,0,0.46153837,205.30357,293.73743)" />
    <linearGradient
       inkscape:collect="always"
       id="linearGradient2230">
      <stop
         style="stop-color:#4e99ca;stop-opacity:0.80000001"
         offset="0"
         id="stop2226" />
      <stop
         style="stop-color:#20ffff;stop-opacity:0.80000001"
         offset="0.50507295"
         id="stop2332" />
      <stop
         style="stop-color:#ffaeff;stop-opacity:0.69"
         offset="1"
         id="stop2228" />
    </linearGradient>
    <linearGradient
       inkscape:collect="always"
       xlink:href="#linearGradient2230"
       id="linearGradient1017"
       gradientUnits="userSpaceOnUse"
       x1="404.57144"
       y1="520.79797"
       x2="428.95215"
       y2="520.79797"
       gradientTransform="matrix(0.46875,0,0,0.46153837,212.56919,296.04512)" />
  </defs>
  <metadata
     id="metadata5458">
    <rdf:RDF>
      <cc:Work
         rdf:about="">
        <dc:format>image/svg+xml</dc:format>
        <dc:type
           rdf:resource="http://purl.org/dc/dcmitype/StillImage" />
      </cc:Work>
    </rdf:RDF>
  </metadata>
  <g
     inkscape:label="Capa 1"
     inkscape:groupmode="layer"
     id="layer1"
     transform="translate(-384.57143,-515.798)">
    <rect
       style="fill:#3b445f;fill-opacity:1;stroke:none;stroke-width:0.586413"
       id="center-3"
       width="28.171875"
       height="19.384611"
       x="386.50891"
       y="523.49042"
       ry="1.8461516"
       rx="1.8781303" />
    <path
       d="m 412.83717,522.5717 h -13.7469 c -0.30383,0 -0.56951,-0.15398 -0.75942,-0.42377 l -1.02539,-1.5408 c -0.34172,-0.53931 -0.91147,-0.80913 -1.51886,-0.80913 h -7.02535 c -1.74698,0 -3.18982,1.46396 -3.18982,3.2359 v 17.99041 c 0,1.50242 1.21533,2.77369 2.73419,2.77369 h 11.81018 v 0 0 0 0 0 0 0 h 0.91126 v 0 0 0 0 0 0 0 0 0 h 11.81018 c 1.48102,0 2.73419,-1.23289 2.73419,-2.77369 V 525.3453 c 0,-1.5408 -1.21506,-2.77341 -2.73419,-2.77341 z m -11.81011,21.2263 v 0 h -0.91126 v 0 0 z m 13.6329,-2.7736 c 0,1.00153 -0.7976,1.84905 -1.82272,1.84905 h -24.53176 c -0.98728,0 -1.82272,-0.84752 -1.82272,-1.84905 l -2.7e-4,-6.20226 v -3.5057 c 0,-1.00155 0.83545,-1.84905 1.82272,-1.84905 h 13.7469 c 0.60766,0 1.17715,-0.30823 1.51886,-0.80914 l 0.98728,-1.54079 c 0.18993,-0.2311 0.45561,-0.42378 0.75943,-0.42378 h 7.06332 c 1.25317,0 2.27863,1.04021 2.27863,2.31155 v 5.04649 z m -2.27862,-15.21674 h -7.06332 c -0.60766,0 -1.17716,0.30822 -1.51886,0.80913 l -0.98728,1.5408 c -0.15178,0.26979 -0.45562,0.42377 -0.75943,0.42377 h -13.7468 c -0.68341,0 -1.32812,0.0783 -1.82297,0.78572 v -4.03062 c 0,-0.92308 0.96375,-1.84615 1.90125,-1.84615 h 7.50001 l 0.0201,0.0214 1.38614,-0.0214 1.838,0.006 h 13.7469 c 0.98728,0 1.82273,0.84751 1.82273,1.84905 v 1.4253 c -0.6074,-0.61617 -1.40474,-0.96281 -2.3162,-0.96281 z"
       id="path64"
       sodipodi:nodetypes="csccsssssccccccccccccccccccsssccccccccccssccsssccssscccsccscccccccssscc"
       style="fill:url(#linearGradient2232);fill-opacity:1;stroke-width:0.0683002" />
    <path
       clip-rule="evenodd"
       d="m 406.49766,538.96322 c 0,-0.19437 0.15973,-0.35164 0.35714,-0.35164 0.19741,0 0.35714,0.15727 0.35714,0.35164 0,0.19438 -0.15973,0.35165 -0.35714,0.35165 -0.19741,0 -0.35714,-0.15727 -0.35714,-0.35165 z m 3.51175,2.77264 c -0.0952,0.0268 -0.19357,0.046 -0.2975,0.046 -0.59186,0 -1.07141,-0.47217 -1.07141,-1.05493 v -1.27885 c 0,-0.44162 0.28789,-0.8166 0.68742,-0.95467 0.76712,-0.25375 1.45541,-0.89111 1.45541,-1.64007 v -0.70338 c 0,-0.33327 -0.13812,-0.64361 -0.35713,-0.90915 v -0.79412 c 0,-0.38831 -0.31982,-0.5213 -0.71429,-0.29662 l -0.54722,0.31156 c -0.17525,-0.0447 -0.35225,-0.0699 -0.52419,-0.0699 h -1.42856 c -0.17185,0 -0.34895,0.0251 -0.52419,0.0699 l -0.54723,-0.31156 c -0.39437,-0.22468 -0.71428,-0.0917 -0.71428,0.29662 v 0.79412 c -0.21901,0.26554 -0.35714,0.57588 -0.35714,0.90916 v 0.70337 c 0,0.51167 0.3234,0.97116 0.77183,1.29256 l -4.5e-4,4.6e-4 c 0.0931,0.0628 0.15502,0.16897 0.15502,0.28914 0,0.19402 -0.16018,0.35165 -0.35714,0.35165 -0.10089,0 -0.19138,-0.0416 -0.25625,-0.10782 -0.60309,-0.44985 -1.02729,-1.10026 -1.02729,-1.8262 v -0.70338 c 0,-0.4071 0.1342,-0.7907 0.35714,-1.12911 v -1.04688 c 0,-0.77661 0.63939,-1.04258 1.42856,-0.59331 l 0.61296,0.34915 c 0.15286,-0.0256 0.30605,-0.0414 0.45846,-0.0414 h 1.42856 c 0.15241,0 0.30553,0.0158 0.45845,0.0414 l 0.61296,-0.34915 c 0.78926,-0.44925 1.42856,-0.1833 1.42856,0.59331 v 1.04686 c 0.22286,0.33842 0.35714,0.72202 0.35714,1.12912 v 0.70337 c 0,1.04635 -0.8761,1.93715 -1.90915,2.29358 -10e-4,9.3e-4 -0.002,0.004 -0.004,0.004 -0.13429,0.0508 -0.22948,0.17857 -0.22948,0.32863 v 1.24724 c 0,0.19437 0.15973,0.35165 0.35713,0.35165 0.0298,0 0.0572,-0.008 0.0848,-0.0151 1.83418,-0.7287 3.1295,-2.49448 3.1295,-4.56185 0,-2.71898 -2.2384,-4.92302 -4.99995,-4.92302 -2.76147,0 -4.99995,2.20404 -4.99995,4.92302 0,2.14086 1.38958,3.95746 3.32856,4.63502 0.01,9.2e-4 0.019,0.005 0.0294,0.005 0.11779,0 0.21343,-0.0944 0.21343,-0.21015 0,-0.11607 -0.0956,-0.21015 -0.21343,-0.21015 -0.002,0 -0.002,-0.002 -0.004,-0.003 -1.18659,-0.0312 -1.18791,-1.40349 -1.56797,-1.40349 -0.19741,0 -0.35714,-0.15727 -0.35714,-0.35164 0,-0.19437 0.15973,-0.35164 0.35714,-0.35164 0.0377,0 0.0939,0 0.1783,0 0.71472,0 0.6126,1.40658 1.60739,1.40658 0.39437,0 0.71428,0.3149 0.71428,0.70328 v 0.61538 c 3e-5,0.3396 -0.27959,0.61535 -0.62506,0.61535 -0.0377,0 -0.0731,-0.008 -0.10908,-0.0144 -2.45324,-0.63155 -4.26578,-2.82245 -4.26578,-5.43618 0,-3.10729 2.55839,-5.62632 5.71423,-5.62632 3.15583,0 5.71422,2.51903 5.71422,5.62632 0,2.38261 -1.5065,4.41419 -3.63103,5.23423 z"
       id="path2-7"
       style="fill:url(#linearGradient1017);fill-opacity:1;stroke-width:0.0221489" />
  </g>
</svg>
