<?xml version="1.0" encoding="UTF-8" standalone="no"?>
<svg
   width="32"
   version="1.1"
   height="32"
   viewBox="0 0 32 32"
   id="svg15"
   sodipodi:docname="folder-rpm.svg"
   inkscape:version="1.1.1 (3bf5ae0d25, 2021-09-20)"
   xmlns:inkscape="http://www.inkscape.org/namespaces/inkscape"
   xmlns:sodipodi="http://sodipodi.sourceforge.net/DTD/sodipodi-0.dtd"
   xmlns:xlink="http://www.w3.org/1999/xlink"
   xmlns="http://www.w3.org/2000/svg"
   xmlns:svg="http://www.w3.org/2000/svg"
   xmlns:rdf="http://www.w3.org/1999/02/22-rdf-syntax-ns#"
   xmlns:cc="http://creativecommons.org/ns#"
   xmlns:dc="http://purl.org/dc/elements/1.1/">
  <sodipodi:namedview
     pagecolor="#ffffff"
     bordercolor="#666666"
     borderopacity="1"
     objecttolerance="10"
     gridtolerance="10"
     guidetolerance="10"
     inkscape:pageopacity="0"
     inkscape:pageshadow="2"
     inkscape:window-width="1920"
     inkscape:window-height="1007"
     id="namedview17"
     showgrid="false"
     inkscape:zoom="9.8125"
     inkscape:cx="-12.942675"
     inkscape:cy="-0.45859873"
     inkscape:window-x="0"
     inkscape:window-y="0"
     inkscape:window-maximized="1"
     inkscape:current-layer="layer1"
     inkscape:document-rotation="0"
     inkscape:pagecheckerboard="0" />
  <defs
     id="defs5455">
    <linearGradient
       inkscape:collect="always"
       xlink:href="#linearGradient1129"
       id="linearGradient2232-3"
       x1="384.57144"
       y1="515.79797"
       x2="448.57144"
       y2="515.79797"
       gradientUnits="userSpaceOnUse"
       gradientTransform="matrix(0.46874986,0,0,0.46153837,205.30358,293.73742)" />
    <linearGradient
       inkscape:collect="always"
       id="linearGradient1129">
      <stop
         style="stop-color:#ff8080;stop-opacity:1"
         offset="0"
         id="stop1123" />
      <stop
         style="stop-color:#ffaaaa;stop-opacity:1"
         offset="0.50507295"
         id="stop1125" />
      <stop
         style="stop-color:#ff99ff;stop-opacity:1"
         offset="1"
         id="stop1127" />
    </linearGradient>
    <linearGradient
       inkscape:collect="always"
       xlink:href="#linearGradient1129"
       id="linearGradient963"
       x1="420.57144"
       y1="525.79828"
       x2="444.57144"
       y2="525.79828"
       gradientUnits="userSpaceOnUse"
       gradientTransform="matrix(0.46874986,0,0,0.46153837,205.30358,293.73742)" />
  </defs>
  <metadata
     id="metadata5458">
    <rdf:RDF>
      <cc:Work
         rdf:about="">
        <dc:format>image/svg+xml</dc:format>
        <dc:type
           rdf:resource="http://purl.org/dc/dcmitype/StillImage" />
      </cc:Work>
    </rdf:RDF>
  </metadata>
  <g
     inkscape:label="Capa 1"
     inkscape:groupmode="layer"
     id="layer1"
     transform="translate(-384.57143,-515.798)">
    <rect
       style="fill:#3b445f;fill-opacity:1;stroke:none;stroke-width:0.586414"
       id="center-3-6"
       width="28.171869"
       height="19.384611"
       x="386.50885"
       y="523.49048"
       ry="1.8461516"
       rx="1.87813" />
    <path
       d="m 412.83719,522.5717 h -13.74692 c -0.30383,0 -0.56952,-0.15398 -0.75942,-0.42377 l -1.02541,-1.5408 c -0.34172,-0.53931 -0.91143,-0.80913 -1.51885,-0.80913 h -7.02535 c -1.74697,0 -3.18981,1.46396 -3.18981,3.2359 v 17.99041 c 0,1.50242 1.21533,2.77369 2.73418,2.77369 h 11.81019 v 0 0 0 0 0 0 0 h 0.91126 v 0 0 0 0 0 0 0 0 0 h 11.81019 c 1.481,0 2.73418,-1.23289 2.73418,-2.77369 V 525.3453 c 0,-1.5408 -1.21506,-2.77341 -2.73418,-2.77341 z m -11.81013,21.2263 v 0 h -0.91126 v 0 0 z m 13.63289,-2.7736 c 0,1.00153 -0.79761,1.84905 -1.8227,1.84905 h -24.53178 c -0.98727,0 -1.8227,-0.84752 -1.8227,-1.84905 l -2.7e-4,-6.20226 v -3.5057 c 0,-1.00155 0.83543,-1.84905 1.8227,-1.84905 h 13.74692 c 0.60764,0 1.17714,-0.30823 1.51885,-0.80914 l 0.98728,-1.54079 c 0.18991,-0.2311 0.45561,-0.42378 0.75943,-0.42378 h 7.06333 c 1.25314,0 2.2786,1.04021 2.2786,2.31155 v 5.04649 z m -2.2786,-15.21674 h -7.06334 c -0.60764,0 -1.17714,0.30822 -1.51885,0.80913 l -0.98728,1.5408 c -0.1518,0.26979 -0.45562,0.42377 -0.75943,0.42377 h -13.74682 c -0.68338,0 -1.32808,0.0783 -1.82294,0.78572 v -4.03062 c 0,-0.92308 0.96374,-1.84615 1.90122,-1.84615 h 7.50005 l 0.0203,0.0214 1.38615,-0.0214 1.83801,0.006 h 13.74689 c 0.98727,0 1.82274,0.84751 1.82274,1.84905 v 1.4253 c -0.60741,-0.61617 -1.40472,-0.96281 -2.31619,-0.96281 z"
       id="path64-7"
       sodipodi:nodetypes="csccsssssccccccccccccccccccsssccccccccccssccsssccssscccsccscccccccssscc"
       style="opacity:0.739024;fill:url(#linearGradient2232-3);fill-opacity:1;stroke-width:0.0683002" />
    <path
       fill-rule="evenodd"
       clip-rule="evenodd"
       d="m 403.8528,536.06723 c 0,-0.19117 0.15739,-0.34616 0.35155,-0.34616 0.19417,0 0.35155,0.15499 0.35155,0.34616 0,0.19116 -0.15738,0.34615 -0.35155,0.34615 -0.19416,0 -0.35155,-0.15499 -0.35155,-0.34615 z m 1.23047,-2.42308 c 0,-0.19116 0.15738,-0.34615 0.35155,-0.34615 0.19415,0 0.35154,0.15499 0.35154,0.34615 0,0.19117 -0.15739,0.34615 -0.35154,0.34615 -0.19417,0 -0.35155,-0.15498 -0.35155,-0.34615 z m 2.63672,-1.03846 c 0,-0.19116 0.15739,-0.34615 0.35155,-0.34615 0.19416,0 0.35155,0.15499 0.35155,0.34615 0,0.19116 -0.15739,0.34615 -0.35155,0.34615 -0.19416,0 -0.35155,-0.15499 -0.35155,-0.34615 z m 3.23411,1.13701 c 0.13969,0.13742 0.13969,0.36034 0,0.49777 l -2.27487,2.24002 c -0.13973,0.13743 -0.36597,0.13743 -0.50557,0 -0.13961,-0.13742 -0.13961,-0.36034 0,-0.49777 l 2.27487,-2.24002 c 0.13974,-0.13742 0.36598,-0.13742 0.50557,0 z m 0.98462,1.97837 c 0.19417,0 0.35156,0.15499 0.35156,0.34616 0,0.19116 -0.15739,0.34615 -0.35156,0.34615 -0.19416,0 -0.35155,-0.15499 -0.35155,-0.34615 0,-0.19117 0.15739,-0.34616 0.35155,-0.34616 z m -4.92188,3.46154 h 2.10939 c 0.19414,0 0.35157,0.15499 0.35157,0.34616 0,0.19116 -0.15743,0.34615 -0.35157,0.34615 h -2.10939 c -0.19413,0 -0.35156,-0.15499 -0.35156,-0.34615 0,-0.19117 0.15743,-0.34616 0.35156,-0.34616 z m 1.0547,2.76923 c -1.55012,0 -2.95371,-0.6176 -3.97113,-1.61617 -0.0705,-0.0634 -0.11578,-0.1538 -0.11578,-0.25522 0,-0.19117 0.1574,-0.34616 0.35156,-0.34616 0.0998,0 0.18959,0.0414 0.25352,0.10733 l 10e-4,-0.001 c 0.89069,0.87705 2.12115,1.41943 3.48026,1.41943 2.71826,0 4.92186,-2.16971 4.92186,-4.84615 0,-2.67644 -2.2036,-4.84615 -4.92186,-4.84615 -2.71825,0 -4.92189,2.16971 -4.92189,4.84615 0,0.3203 0.0373,0.63113 0.0999,0.93299 0.0993,0.26351 0.35592,0.45162 0.65805,0.45162 h 2.80152 c 0.0883,0 0.16632,-0.0426 0.2142,-0.10817 0.002,-0.002 0.005,-0.004 0.008,-0.005 0.25508,-0.34971 0.66913,-0.57923 1.13983,-0.57923 0.47071,0 0.88476,0.22952 1.13985,0.57922 0.004,9.3e-4 0.006,0.002 0.008,0.005 0.0481,0.0656 0.12599,0.10817 0.21426,0.10817 h 1.80173 c 0.19417,0 0.3516,0.15499 0.3516,0.34615 0,0.19117 -0.15743,0.34616 -0.3516,0.34616 h -1.85119 c -0.29974,0 -0.56391,-0.14824 -0.72252,-0.37387 -0.12512,-0.19116 -0.34211,-0.31844 -0.59033,-0.31844 -0.24823,0 -0.4652,0.12728 -0.59034,0.31844 -0.15862,0.22563 -0.42272,0.37387 -0.72254,0.37387 h -2.85093 c -0.65852,0 -1.20723,-0.44741 -1.36018,-1.04911 -0.0639,-0.3333 -0.10099,-0.67608 -0.10099,-1.02781 0,-3.05894 2.51834,-5.53847 5.62499,-5.53847 3.10655,0 5.62501,2.47953 5.62501,5.53847 0,3.05876 -2.51846,5.53846 -5.62501,5.53846 z"
       id="path2"
       style="opacity:0.801;fill:url(#linearGradient963);fill-opacity:1;stroke-width:0.0218029" />
  </g>
</svg>
