<?xml version="1.0" encoding="UTF-8" standalone="no"?>
<svg
   width="32"
   version="1.1"
   height="32"
   viewBox="0 0 32 32"
   id="svg15"
   sodipodi:docname="folder-sign.svg"
   inkscape:version="1.1.1 (3bf5ae0d25, 2021-09-20)"
   xmlns:inkscape="http://www.inkscape.org/namespaces/inkscape"
   xmlns:sodipodi="http://sodipodi.sourceforge.net/DTD/sodipodi-0.dtd"
   xmlns:xlink="http://www.w3.org/1999/xlink"
   xmlns="http://www.w3.org/2000/svg"
   xmlns:svg="http://www.w3.org/2000/svg"
   xmlns:rdf="http://www.w3.org/1999/02/22-rdf-syntax-ns#"
   xmlns:cc="http://creativecommons.org/ns#"
   xmlns:dc="http://purl.org/dc/elements/1.1/">
  <sodipodi:namedview
     pagecolor="#ffffff"
     bordercolor="#666666"
     borderopacity="1"
     objecttolerance="10"
     gridtolerance="10"
     guidetolerance="10"
     inkscape:pageopacity="0"
     inkscape:pageshadow="2"
     inkscape:window-width="1920"
     inkscape:window-height="1007"
     id="namedview17"
     showgrid="false"
     inkscape:zoom="9.8125"
     inkscape:cx="-12.942675"
     inkscape:cy="6.5732484"
     inkscape:window-x="0"
     inkscape:window-y="0"
     inkscape:window-maximized="1"
     inkscape:current-layer="layer1"
     inkscape:document-rotation="0"
     inkscape:pagecheckerboard="0" />
  <defs
     id="defs5455">
    <linearGradient
       inkscape:collect="always"
       xlink:href="#linearGradient2230"
       id="linearGradient2232"
       x1="384.57144"
       y1="515.79797"
       x2="448.57144"
       y2="515.79797"
       gradientUnits="userSpaceOnUse"
       gradientTransform="matrix(0.46875,0,0,0.46153837,205.30357,293.73743)" />
    <linearGradient
       inkscape:collect="always"
       id="linearGradient2230">
      <stop
         style="stop-color:#4e99ca;stop-opacity:0.80000001"
         offset="0"
         id="stop2226" />
      <stop
         style="stop-color:#20ffff;stop-opacity:0.80000001"
         offset="0.50507295"
         id="stop2332" />
      <stop
         style="stop-color:#ffaeff;stop-opacity:0.69"
         offset="1"
         id="stop2228" />
    </linearGradient>
    <linearGradient
       inkscape:collect="always"
       xlink:href="#linearGradient2230"
       id="linearGradient1199"
       gradientUnits="userSpaceOnUse"
       gradientTransform="matrix(0.46875,0,0,0.46153837,213.59246,295.87835)"
       x1="406.38843"
       y1="520.85931"
       x2="426.76584"
       y2="520.85931" />
  </defs>
  <metadata
     id="metadata5458">
    <rdf:RDF>
      <cc:Work
         rdf:about="">
        <dc:format>image/svg+xml</dc:format>
        <dc:type
           rdf:resource="http://purl.org/dc/dcmitype/StillImage" />
      </cc:Work>
    </rdf:RDF>
  </metadata>
  <g
     inkscape:label="Capa 1"
     inkscape:groupmode="layer"
     id="layer1"
     transform="translate(-384.57143,-515.798)">
    <rect
       style="fill:#3b445f;fill-opacity:1;stroke:none;stroke-width:0.586901"
       id="center-3"
       width="28.21875"
       height="19.384611"
       x="386.46204"
       y="523.49036"
       ry="1.8461516"
       rx="1.8812554" />
    <path
       d="m 412.83717,522.5717 h -13.7469 c -0.30383,0 -0.56951,-0.15398 -0.75942,-0.42377 l -1.02539,-1.5408 c -0.34172,-0.53931 -0.91147,-0.80913 -1.51886,-0.80913 h -7.02535 c -1.74698,0 -3.18982,1.46396 -3.18982,3.2359 v 17.99041 c 0,1.50242 1.21533,2.77369 2.73419,2.77369 h 11.81018 v 0 0 0 0 0 0 0 h 0.91126 v 0 0 0 0 0 0 0 0 0 h 11.81018 c 1.48102,0 2.73419,-1.23289 2.73419,-2.77369 V 525.3453 c 0,-1.5408 -1.21506,-2.77341 -2.73419,-2.77341 z m -11.81011,21.2263 v 0 h -0.91126 v 0 0 z m 13.6329,-2.7736 c 0,1.00153 -0.7976,1.84905 -1.82272,1.84905 h -24.53176 c -0.98728,0 -1.82272,-0.84752 -1.82272,-1.84905 l -2.7e-4,-6.20226 v -3.5057 c 0,-1.00155 0.83545,-1.84905 1.82272,-1.84905 h 13.7469 c 0.60766,0 1.17715,-0.30823 1.51886,-0.80914 l 0.98728,-1.54079 c 0.18993,-0.2311 0.45561,-0.42378 0.75943,-0.42378 h 7.06332 c 1.25317,0 2.27863,1.04021 2.27863,2.31155 v 5.04649 z m -2.27862,-15.21674 h -7.06332 c -0.60766,0 -1.17716,0.30822 -1.51886,0.80913 l -0.98728,1.5408 c -0.15178,0.26979 -0.45562,0.42377 -0.75943,0.42377 h -13.7468 c -0.68341,0 -1.32812,0.0783 -1.82297,0.78572 v -4.03062 c 0,-0.92308 0.96375,-1.84615 1.90125,-1.84615 h 7.50001 l 0.0201,0.0214 1.38614,-0.0214 1.838,0.006 h 13.7469 c 0.98728,0 1.82273,0.84751 1.82273,1.84905 v 1.4253 c -0.6074,-0.61617 -1.40474,-0.96281 -2.3162,-0.96281 z"
       id="path64"
       sodipodi:nodetypes="csccsssssccccccccccccccccccsssccccccccccssccsssccssscccsccscccccccssscc"
       style="fill:url(#linearGradient2232);fill-opacity:1;stroke-width:0.0683002" />
    <path
       d="m 408.38345,538.50385 c 0.0163,0.0852 0.0766,0.15556 0.15913,0.18559 0.0152,0.006 1.5315,0.55705 2.22525,0.89416 0.77112,0.34658 1.31437,0.74326 1.57537,0.93391 0.0598,0.0437 0.10425,0.0759 0.1415,0.0999 l 0.69275,1.08099 c 0.0478,0.0743 0.12894,0.16095 0.21194,0.16095 0.0455,0 0.21081,0.0743 0.25219,0.0486 0.11675,-0.0725 0.0325,-0.35727 -0.0412,-0.47223 l -0.68312,-1.06584 c 9.4e-4,-0.006 10e-4,-0.0103 0.003,-0.0164 0.0559,-0.35384 0.22587,-1.43064 0.0354,-2.57095 -0.0704,-0.48837 -0.39212,-1.42486 -0.40575,-1.46437 -0.0295,-0.0859 -0.10487,-0.1488 -0.19562,-0.16381 -0.0921,-0.015 -0.18288,0.0208 -0.239,0.0926 l -0.0755,0.0965 c 0.0414,-0.92529 -0.0369,-1.03766 -0.0745,-1.09144 -0.40338,-0.57958 -0.90938,-1.07656 -1.50388,-1.47681 -0.22962,-0.15445 -0.68087,-0.42744 -0.70012,-0.43901 -0.0688,-0.0415 -0.15375,-0.0478 -0.22838,-0.0168 -0.0745,0.0312 -0.129,0.0958 -0.1465,0.17342 l -0.0214,0.095 c -0.27338,-0.72824 -0.40025,-0.78991 -0.46963,-0.82363 -0.44662,-0.21698 -1.00825,-0.44541 -1.50362,-0.64689 -0.4275,-0.17391 -0.83125,-0.33821 -1.1105,-0.47372 -0.7055,-0.31705 -1.19188,-0.60062 -1.45325,-0.75286 -0.214,-0.12456 -0.26475,-0.15422 -0.35275,-0.15422 -0.0209,0 -0.042,0.003 -0.0625,0.008 -0.0404,0.01 -0.0781,0.0292 -0.10913,0.0567 -3.7e-4,2.5e-4 -9.4e-4,4.6e-4 -9.4e-4,9.2e-4 -0.0556,0.0501 -0.0831,0.11926 -0.0812,0.18806 -0.002,0.0163 -0.006,0.0391 -0.0107,0.0683 -0.0559,0.35385 -0.22612,1.43065 -0.0354,2.57157 0.1385,0.96271 0.647,2.76369 2.49437,4.00739 0.20563,0.13833 0.4245,0.27618 0.6505,0.40984 0.0485,0.0287 0.15275,0.0903 1.24226,0.14142 l -0.0982,0.0855 c -0.0661,0.0575 -0.0965,0.14474 -0.0803,0.22979 z m -0.8255,-0.8901 c -0.211,-0.12517 -0.41487,-0.25391 -0.60662,-0.38289 -1.68925,-1.13711 -2.1545,-2.78744 -2.28238,-3.67544 -0.14725,-0.88087 -0.0637,-1.72751 -2.5e-4,-2.18511 0.28488,0.16504 0.75325,0.42868 1.39763,0.71815 0.28725,0.13957 0.6985,0.30695 1.13387,0.48406 0.49963,0.2032 1.01575,0.41317 1.4415,0.61797 0.10525,0.14819 0.35525,0.82449 0.53238,1.39298 0.0334,0.10696 0.13387,0.1765 0.249,0.17379 0.11337,-0.005 0.20962,-0.0837 0.23412,-0.19274 l 0.1405,-0.6256 c 0.13275,0.0822 0.28113,0.17576 0.38088,0.24283 0.53512,0.36025 0.99162,0.80591 1.35712,1.32505 0.0355,0.17797 0.004,0.95852 -0.047,1.60578 -0.008,0.10856 0.0563,0.20985 0.1595,0.24887 0.10338,0.0391 0.22025,0.007 0.28775,-0.0795 l 0.28388,-0.36271 c 0.0939,0.30252 0.2055,0.69182 0.241,0.93797 0.11987,0.71803 0.0865,1.41255 0.0356,1.89304 l -0.72175,-1.05513 c -0.84562,-1.32579 -1.91425,-2.48111 -3.1765,-3.43385 l -1.31212,-0.9904 c -0.10963,-0.0826 -0.2665,-0.0622 -0.3505,0.0457 -0.0841,0.10781 -0.0634,0.2624 0.0463,0.34511 l 1.31213,0.99039 c 1.21488,0.91693 2.2435,2.02893 3.06187,3.31151 l 0.38763,0.56689 c -0.22325,-0.12923 -0.47637,-0.26338 -0.76125,-0.39126 -0.495,-0.24061 -1.37,-0.57723 -1.8765,-0.76701 l 0.2535,-0.2208 c 0.0766,-0.0668 0.10425,-0.17292 0.0696,-0.26782 -0.0347,-0.0949 -0.12475,-0.15926 -0.22701,-0.16258 -0.67662,-0.022 -1.48212,-0.0686 -1.64387,-0.1072 z"
       id="path2-5-2"
       style="fill:url(#linearGradient1199);fill-opacity:1;stroke-width:0.124035"
       sodipodi:nodetypes="ccccccscccccccscccccccccccscccccccccccccccccccccccccccccccccccccccccccccc" />
  </g>
</svg>
