<?xml version="1.0" encoding="UTF-8" standalone="no"?>
<svg
   width="32"
   version="1.1"
   height="32"
   viewBox="0 0 32 32"
   id="svg17"
   sodipodi:docname="folder-script.svg"
   inkscape:version="1.1.1 (3bf5ae0d25, 2021-09-20)"
   xmlns:inkscape="http://www.inkscape.org/namespaces/inkscape"
   xmlns:sodipodi="http://sodipodi.sourceforge.net/DTD/sodipodi-0.dtd"
   xmlns:xlink="http://www.w3.org/1999/xlink"
   xmlns="http://www.w3.org/2000/svg"
   xmlns:svg="http://www.w3.org/2000/svg"
   xmlns:rdf="http://www.w3.org/1999/02/22-rdf-syntax-ns#"
   xmlns:cc="http://creativecommons.org/ns#"
   xmlns:dc="http://purl.org/dc/elements/1.1/">
  <sodipodi:namedview
     pagecolor="#ffffff"
     bordercolor="#666666"
     borderopacity="1"
     objecttolerance="10"
     gridtolerance="10"
     guidetolerance="10"
     inkscape:pageopacity="0"
     inkscape:pageshadow="2"
     inkscape:window-width="1920"
     inkscape:window-height="1007"
     id="namedview19"
     showgrid="false"
     inkscape:zoom="9.8125"
     inkscape:cx="-7.9490446"
     inkscape:cy="9.5286624"
     inkscape:window-x="0"
     inkscape:window-y="0"
     inkscape:window-maximized="1"
     inkscape:current-layer="layer1"
     inkscape:document-rotation="0"
     inkscape:pagecheckerboard="0" />
  <defs
     id="defs5455">
    <linearGradient
       inkscape:collect="always"
       xlink:href="#linearGradient2230"
       id="linearGradient2232"
       x1="384.57144"
       y1="515.79797"
       x2="448.57144"
       y2="515.79797"
       gradientUnits="userSpaceOnUse"
       gradientTransform="matrix(0.46875,0,0,0.46153837,205.30357,293.73742)" />
    <linearGradient
       inkscape:collect="always"
       id="linearGradient2230">
      <stop
         style="stop-color:#4e99ca;stop-opacity:0.80000001"
         offset="0"
         id="stop2226" />
      <stop
         style="stop-color:#20ffff;stop-opacity:0.80000001"
         offset="0.50507295"
         id="stop2332" />
      <stop
         style="stop-color:#ffaeff;stop-opacity:0.69"
         offset="1"
         id="stop2228" />
    </linearGradient>
    <linearGradient
       inkscape:collect="always"
       xlink:href="#linearGradient2230"
       id="linearGradient1013"
       gradientUnits="userSpaceOnUse"
       gradientTransform="matrix(0.46875,0,0,0.46153837,213.9806,296.0451)"
       x1="406.06042"
       y1="520.79797"
       x2="426.1261"
       y2="520.79797" />
  </defs>
  <metadata
     id="metadata5458">
    <rdf:RDF>
      <cc:Work
         rdf:about="">
        <dc:format>image/svg+xml</dc:format>
        <dc:type
           rdf:resource="http://purl.org/dc/dcmitype/StillImage" />
      </cc:Work>
    </rdf:RDF>
  </metadata>
  <g
     inkscape:label="Capa 1"
     inkscape:groupmode="layer"
     id="layer1"
     transform="translate(-384.57143,-515.798)">
    <rect
       style="fill:#3b445f;fill-opacity:1;stroke:none;stroke-width:0.586901"
       id="center-3"
       width="28.21875"
       height="19.384611"
       x="386.46207"
       y="523.4903"
       ry="1.8461516"
       rx="1.8812554" />
    <path
       d="m 412.83717,522.5717 h -13.7469 c -0.30383,0 -0.56951,-0.15398 -0.75942,-0.42377 l -1.02539,-1.5408 c -0.34172,-0.53931 -0.91147,-0.80913 -1.51886,-0.80913 h -7.02535 c -1.74698,0 -3.18982,1.46396 -3.18982,3.2359 v 17.99041 c 0,1.50242 1.21533,2.77369 2.73419,2.77369 h 11.81018 v 0 0 0 0 0 0 0 h 0.91126 v 0 0 0 0 0 0 0 0 0 h 11.81018 c 1.48102,0 2.73419,-1.23289 2.73419,-2.77369 V 525.3453 c 0,-1.5408 -1.21506,-2.77341 -2.73419,-2.77341 z m -11.81011,21.2263 v 0 h -0.91126 v 0 0 z m 13.6329,-2.7736 c 0,1.00153 -0.7976,1.84905 -1.82272,1.84905 h -24.53176 c -0.98728,0 -1.82272,-0.84752 -1.82272,-1.84905 l -2.7e-4,-6.20226 v -3.5057 c 0,-1.00155 0.83545,-1.84905 1.82272,-1.84905 h 13.7469 c 0.60766,0 1.17715,-0.30823 1.51886,-0.80914 l 0.98728,-1.54079 c 0.18993,-0.2311 0.45561,-0.42378 0.75943,-0.42378 h 7.06332 c 1.25317,0 2.27863,1.04021 2.27863,2.31155 v 5.04649 z m -2.27862,-15.21674 h -7.06332 c -0.60766,0 -1.17716,0.30822 -1.51886,0.80913 l -0.98728,1.5408 c -0.15178,0.26979 -0.45562,0.42377 -0.75943,0.42377 h -13.7468 c -0.68341,0 -1.32812,0.0783 -1.82297,0.78572 v -4.03062 c 0,-0.92308 0.96375,-1.84615 1.90125,-1.84615 h 7.50001 l 0.0201,0.0214 1.38614,-0.0214 1.838,0.006 h 13.7469 c 0.98728,0 1.82273,0.84751 1.82273,1.84905 v 1.4253 c -0.6074,-0.61617 -1.40474,-0.96281 -2.3162,-0.96281 z"
       id="path64"
       sodipodi:nodetypes="csccsssssccccccccccccccccccsssccccccccccssccsssccssscccsccscccccccssscc"
       style="fill:url(#linearGradient2232);fill-opacity:1;stroke-width:0.0683002" />
    <path
       d="m 413.7272,538.10165 c 0,0.36129 -0.16311,0.69897 -0.4475,0.92648 l -3.19317,2.55427 c -0.59829,0.49257 -1.5291,0.49257 -2.12734,0 l -3.19317,-2.55427 c -0.59284,-0.4572 -0.59275,-1.39583 0,-1.85297 l 0.95236,-0.76181 -0.95236,-0.7618 c -0.59284,-0.4572 -0.59275,-1.39583 0,-1.85296 l 3.19315,-2.55425 c 0.59829,-0.49258 1.52909,-0.49258 2.12733,-3e-5 l 3.19318,2.55428 c 0.59283,0.4572 0.59274,1.39582 0,1.85296 -0.46747,0.34439 -0.99235,-0.29251 -0.55448,-0.67198 0.16452,-0.1339 0.16476,-0.37487 0,-0.50903 l -3.19313,-2.55422 c -0.29503,-0.23602 -0.72332,-0.23602 -1.01845,0 l -3.19313,2.55425 c -0.16452,0.13389 -0.16476,0.37486 0,0.50902 l 3.19315,2.55425 c 0.29504,0.23599 0.72333,0.23604 1.01845,0 0.002,-0.001 0.003,-0.003 0.005,-0.004 l 0.51055,-0.39588 c 0.19079,-0.14792 0.46721,-0.11552 0.61744,0.0723 0.15023,0.18783 0.11736,0.46001 -0.0734,0.60793 l -0.50802,0.39394 c -0.59835,0.49051 -1.52731,0.48958 -2.12463,-0.002 l -1.54355,-1.2347 -1.09515,0.87603 c -0.16452,0.13389 -0.16476,0.37486 0,0.50902 l 3.19313,2.55423 c 0.29503,0.23599 0.72333,0.23603 1.01845,0 l 3.19313,-2.55426 c 0.16452,-0.13389 0.16476,-0.37486 0,-0.50901 l -3.19315,-2.55423 c -0.29503,-0.23602 -0.72333,-0.23602 -1.01845,0 -0.002,10e-4 -0.003,0.003 -0.005,0.004 l -0.51056,0.39589 c -0.19076,0.14794 -0.46718,0.11554 -0.61743,-0.0723 -0.15023,-0.18784 -0.11737,-0.46002 0.0734,-0.60794 l 0.50802,-0.39393 c 0.59836,-0.49052 1.52731,-0.48959 2.12463,0.002 l 3.19318,2.55428 c 0.28441,0.22751 0.44753,0.56518 0.44753,0.92648 z"
       id="path2-7"
       style="fill:url(#linearGradient1013);fill-opacity:1;stroke-width:0.0218132" />
  </g>
</svg>
