<?xml version="1.0" encoding="UTF-8" standalone="no"?>
<svg
   width="32"
   version="1.1"
   height="32"
   viewBox="0 0 32 32"
   id="svg2"
   inkscape:version="1.1.1 (3bf5ae0d25, 2021-09-20)"
   sodipodi:docname="favorites.svg"
   xmlns:inkscape="http://www.inkscape.org/namespaces/inkscape"
   xmlns:sodipodi="http://sodipodi.sourceforge.net/DTD/sodipodi-0.dtd"
   xmlns:xlink="http://www.w3.org/1999/xlink"
   xmlns="http://www.w3.org/2000/svg"
   xmlns:svg="http://www.w3.org/2000/svg"
   xmlns:rdf="http://www.w3.org/1999/02/22-rdf-syntax-ns#"
   xmlns:cc="http://creativecommons.org/ns#"
   xmlns:dc="http://purl.org/dc/elements/1.1/">
  <sodipodi:namedview
     pagecolor="#ffffff"
     bordercolor="#666666"
     borderopacity="1"
     objecttolerance="10"
     gridtolerance="10"
     guidetolerance="10"
     inkscape:pageopacity="0"
     inkscape:pageshadow="2"
     inkscape:window-width="1920"
     inkscape:window-height="1007"
     id="namedview19"
     showgrid="false"
     inkscape:zoom="7.375"
     inkscape:cx="-16.813559"
     inkscape:cy="5.220339"
     inkscape:window-x="0"
     inkscape:window-y="0"
     inkscape:window-maximized="1"
     inkscape:current-layer="layer1"
     inkscape:document-rotation="0"
     inkscape:pagecheckerboard="0" />
  <defs
     id="defs5455">
    <linearGradient
       inkscape:collect="always"
       xlink:href="#linearGradient997"
       id="linearGradient2232"
       x1="384.57144"
       y1="515.79797"
       x2="448.57144"
       y2="515.79797"
       gradientUnits="userSpaceOnUse"
       gradientTransform="matrix(0.46874986,0,0,0.46153837,205.30358,293.73742)" />
    <linearGradient
       inkscape:collect="always"
       id="linearGradient997">
      <stop
         style="stop-color:#ff74ff;stop-opacity:1"
         offset="0"
         id="stop991" />
      <stop
         style="stop-color:#f6ce76;stop-opacity:1"
         offset="0.50507295"
         id="stop993" />
      <stop
         style="stop-color:#eb5180;stop-opacity:1"
         offset="1"
         id="stop995" />
    </linearGradient>
    <linearGradient
       inkscape:collect="always"
       xlink:href="#linearGradient997"
       id="linearGradient2577"
       x1="403.27142"
       y1="520.79797"
       x2="430.27142"
       y2="520.79797"
       gradientUnits="userSpaceOnUse"
       gradientTransform="matrix(0.46874986,0,0,0.46153837,212.00665,296.04513)" />
  </defs>
  <metadata
     id="metadata5458">
    <rdf:RDF>
      <cc:Work
         rdf:about="">
        <dc:format>image/svg+xml</dc:format>
        <dc:type
           rdf:resource="http://purl.org/dc/dcmitype/StillImage" />
      </cc:Work>
    </rdf:RDF>
  </metadata>
  <g
     inkscape:label="Capa 1"
     inkscape:groupmode="layer"
     id="layer1"
     transform="translate(-384.57143,-515.798)">
    <rect
       style="fill:#3b445f;fill-opacity:1;stroke:none;stroke-width:0.5869"
       id="center-3"
       width="28.218748"
       height="19.384611"
       x="386.46204"
       y="523.49054"
       ry="1.8461516"
       rx="1.8812553" />
    <path
       d="m 412.83719,522.5717 h -13.74692 c -0.30383,0 -0.56952,-0.15398 -0.75942,-0.42377 l -1.02541,-1.5408 c -0.34172,-0.53931 -0.91143,-0.80913 -1.51885,-0.80913 h -7.02535 c -1.74697,0 -3.18981,1.46396 -3.18981,3.2359 v 17.99041 c 0,1.50242 1.21533,2.77369 2.73418,2.77369 h 11.81019 v 0 0 0 0 0 0 0 h 0.91126 v 0 0 0 0 0 0 0 0 0 h 11.81019 c 1.481,0 2.73418,-1.23289 2.73418,-2.77369 V 525.3453 c 0,-1.5408 -1.21506,-2.77341 -2.73418,-2.77341 z m -11.81013,21.2263 v 0 h -0.91126 v 0 0 z m 13.63289,-2.7736 c 0,1.00153 -0.79761,1.84905 -1.8227,1.84905 h -24.53178 c -0.98727,0 -1.8227,-0.84752 -1.8227,-1.84905 l -2.7e-4,-6.20226 v -3.5057 c 0,-1.00155 0.83543,-1.84905 1.8227,-1.84905 h 13.74692 c 0.60764,0 1.17714,-0.30823 1.51885,-0.80914 l 0.98728,-1.54079 c 0.18991,-0.2311 0.45561,-0.42378 0.75943,-0.42378 h 7.06333 c 1.25314,0 2.2786,1.04021 2.2786,2.31155 v 5.04649 z m -2.2786,-15.21674 h -7.06334 c -0.60764,0 -1.17714,0.30822 -1.51885,0.80913 l -0.98728,1.5408 c -0.1518,0.26979 -0.45562,0.42377 -0.75943,0.42377 h -13.74682 c -0.68338,0 -1.32808,0.0783 -1.82294,0.78572 v -4.03062 c 0,-0.92308 0.96374,-1.84615 1.90122,-1.84615 h 7.50005 l 0.0203,0.0214 1.38615,-0.0214 1.83801,0.006 h 13.74689 c 0.98727,0 1.82274,0.84751 1.82274,1.84905 v 1.4253 c -0.60741,-0.61617 -1.40472,-0.96281 -2.31619,-0.96281 z"
       id="path64"
       sodipodi:nodetypes="csccsssssccccccccccccccccccsssccccccccccssccsssccssscccsccscccccccssscc"
       style="opacity:0.699722;fill:url(#linearGradient2232);fill-opacity:1;stroke-width:0.0683002" />
    <path
       d="m 403.9689,535.99544 c -0.13765,0.13537 -0.34864,0.14325 -0.5024,0.0375 l -0.01,0.01 -0.28016,-0.2761 c -0.77327,-0.7619 -0.77327,-1.99739 0,-2.7594 0.15458,-0.15218 0.40536,-0.15218 0.55995,0 0.15501,0.1524 0.15501,0.39955 0,0.55171 -0.46372,0.45742 -0.46372,1.19865 0,1.65564 l 0.28017,0.27605 -0.01,0.01 c 0.10756,0.15274 0.0995,0.35915 -0.0374,0.49496 z m 1.02407,-2.73178 c -0.15501,-0.15221 -0.15501,-0.39933 0,-0.55163 0.15466,-0.15272 0.40541,-0.15272 0.55991,0 0.15468,0.1523 0.15468,0.39942 0,0.55163 -0.1545,0.1524 -0.40525,0.1524 -0.55991,0 z m 7.70525,3.60722 -2.54046,2.50276 c -0.15447,0.15232 -0.40528,0.15232 -0.55981,0 -0.15512,-0.15235 -0.15512,-0.39931 0,-0.55179 l 2.26023,-2.22702 0.27988,-0.27621 c 0.98367,-0.9693 1.08268,-2.79616 0,-3.86316 -1.08255,-1.0666 -2.83781,-1.0666 -3.92039,0 l -0.27719,0.27305 v 0 c -0.14371,0.14282 -0.34288,0.2319 -0.56328,0.2319 -0.22012,0 -0.4192,-0.0891 -0.56289,-0.2319 v 0 l -0.27711,-0.27305 c -1.08247,-1.0666 -2.83794,-1.0666 -3.9204,0 -1.08294,1.067 -1.00857,2.86992 0,3.86316 l 0.84012,0.828 4.20046,4.1393 c 0.1546,0.15216 0.1546,0.3993 0,0.55179 -0.15463,0.15218 -0.40524,0.15218 -0.55994,0 l -2.24054,-2.20736 -2.8004,-2.75947 c -1.31766,-1.29836 -1.392,-3.59554 0,-4.96715 1.39193,-1.37175 3.64891,-1.37175 5.0409,0 l 0.28012,0.27607 0.27984,-0.27607 c 1.39195,-1.37175 3.6489,-1.37175 5.04083,0 1.39227,1.37161 1.26822,3.71711 3e-5,4.96715 z m -3.52455,2.92092 c 0.15451,0.15217 0.15451,0.3993 0,0.55197 -0.1544,0.15249 -0.40534,0.15249 -0.56042,0 -0.1545,-0.15267 -0.1545,-0.3998 0,-0.55197 0.15507,-0.1525 0.40599,-0.1525 0.56042,0 z"
       id="path2-3"
       style="opacity:0.701;fill:url(#linearGradient2577);fill-opacity:1;stroke-width:0.0245709" />
  </g>
</svg>
