<?xml version="1.0" encoding="UTF-8" standalone="no"?>
<svg
   width="32"
   version="1.1"
   height="32"
   viewBox="0 0 32 32"
   id="svg17"
   sodipodi:docname="folder-publicshare.svg"
   inkscape:version="1.1.1 (3bf5ae0d25, 2021-09-20)"
   xmlns:inkscape="http://www.inkscape.org/namespaces/inkscape"
   xmlns:sodipodi="http://sodipodi.sourceforge.net/DTD/sodipodi-0.dtd"
   xmlns:xlink="http://www.w3.org/1999/xlink"
   xmlns="http://www.w3.org/2000/svg"
   xmlns:svg="http://www.w3.org/2000/svg"
   xmlns:rdf="http://www.w3.org/1999/02/22-rdf-syntax-ns#"
   xmlns:cc="http://creativecommons.org/ns#"
   xmlns:dc="http://purl.org/dc/elements/1.1/"
   xmlns:serif="http://www.serif.com/">
  <sodipodi:namedview
     pagecolor="#ffffff"
     bordercolor="#666666"
     borderopacity="1"
     objecttolerance="10"
     gridtolerance="10"
     guidetolerance="10"
     inkscape:pageopacity="0"
     inkscape:pageshadow="2"
     inkscape:window-width="1920"
     inkscape:window-height="1007"
     id="namedview19"
     showgrid="false"
     inkscape:zoom="9.8125"
     inkscape:cx="-8.1528662"
     inkscape:cy="1.477707"
     inkscape:window-x="0"
     inkscape:window-y="0"
     inkscape:window-maximized="1"
     inkscape:current-layer="layer1"
     inkscape:document-rotation="0"
     inkscape:pagecheckerboard="0" />
  <defs
     id="defs5455">
    <linearGradient
       inkscape:collect="always"
       xlink:href="#linearGradient2230"
       id="linearGradient2232"
       x1="384.57144"
       y1="515.79797"
       x2="448.57144"
       y2="515.79797"
       gradientUnits="userSpaceOnUse"
       gradientTransform="matrix(0.46875,0,0,0.46153837,205.30357,293.73743)" />
    <linearGradient
       inkscape:collect="always"
       id="linearGradient2230">
      <stop
         style="stop-color:#4e99ca;stop-opacity:0.80000001"
         offset="0"
         id="stop2226" />
      <stop
         style="stop-color:#20ffff;stop-opacity:0.80000001"
         offset="0.50507295"
         id="stop2332" />
      <stop
         style="stop-color:#ffaeff;stop-opacity:0.69"
         offset="1"
         id="stop2228" />
    </linearGradient>
    <linearGradient
       inkscape:collect="always"
       xlink:href="#linearGradient2230"
       id="linearGradient1312"
       gradientUnits="userSpaceOnUse"
       x1="425.616"
       y1="529.9989"
       x2="444.57092"
       y2="529.9989"
       gradientTransform="matrix(0.46875,0,0,0.46153837,205.30359,293.73743)" />
    <linearGradient
       inkscape:collect="always"
       xlink:href="#linearGradient2230"
       id="linearGradient1314"
       gradientUnits="userSpaceOnUse"
       x1="421.55783"
       y1="528.5531"
       x2="429.25421"
       y2="528.5531"
       gradientTransform="matrix(0.46875,0,0,0.46153837,205.30359,293.73743)" />
    <linearGradient
       inkscape:collect="always"
       xlink:href="#linearGradient2230"
       id="linearGradient1320"
       gradientUnits="userSpaceOnUse"
       x1="12.000006"
       y1="20.578442"
       x2="29.156878"
       y2="20.578442" />
    <linearGradient
       inkscape:collect="always"
       xlink:href="#linearGradient2230"
       id="linearGradient933"
       gradientUnits="userSpaceOnUse"
       x1="12.000006"
       y1="20.578442"
       x2="29.156878"
       y2="20.578442" />
    <linearGradient
       inkscape:collect="always"
       xlink:href="#linearGradient2230"
       id="linearGradient935"
       gradientUnits="userSpaceOnUse"
       x1="12.000006"
       y1="20.578442"
       x2="29.156878"
       y2="20.578442" />
    <linearGradient
       inkscape:collect="always"
       xlink:href="#linearGradient2230"
       id="linearGradient937"
       gradientUnits="userSpaceOnUse"
       x1="12.000006"
       y1="20.578442"
       x2="29.156878"
       y2="20.578442" />
    <linearGradient
       inkscape:collect="always"
       xlink:href="#linearGradient2230"
       id="linearGradient939"
       gradientUnits="userSpaceOnUse"
       x1="12.000006"
       y1="20.578442"
       x2="29.156878"
       y2="20.578442" />
    <linearGradient
       inkscape:collect="always"
       xlink:href="#linearGradient2230"
       id="linearGradient941"
       gradientUnits="userSpaceOnUse"
       x1="12.000006"
       y1="20.578442"
       x2="29.156878"
       y2="20.578442" />
    <linearGradient
       inkscape:collect="always"
       xlink:href="#linearGradient2230"
       id="linearGradient943"
       gradientUnits="userSpaceOnUse"
       x1="12.000006"
       y1="20.578442"
       x2="29.156878"
       y2="20.578442" />
    <linearGradient
       inkscape:collect="always"
       xlink:href="#linearGradient2230"
       id="linearGradient945"
       gradientUnits="userSpaceOnUse"
       x1="12.000006"
       y1="20.578442"
       x2="29.156878"
       y2="20.578442" />
    <linearGradient
       inkscape:collect="always"
       xlink:href="#linearGradient2230"
       id="linearGradient947"
       gradientUnits="userSpaceOnUse"
       x1="12.000006"
       y1="20.578442"
       x2="29.156878"
       y2="20.578442" />
  </defs>
  <metadata
     id="metadata5458">
    <rdf:RDF>
      <cc:Work
         rdf:about="">
        <dc:format>image/svg+xml</dc:format>
        <dc:type
           rdf:resource="http://purl.org/dc/dcmitype/StillImage" />
      </cc:Work>
    </rdf:RDF>
  </metadata>
  <g
     inkscape:label="Capa 1"
     inkscape:groupmode="layer"
     id="layer1"
     transform="translate(-384.57143,-515.798)">
    <rect
       style="fill:#3b445f;fill-opacity:1;stroke:none;stroke-width:0.586901"
       id="center-3"
       width="28.21875"
       height="19.384611"
       x="386.46204"
       y="523.49017"
       ry="1.8461516"
       rx="1.8812554" />
    <path
       d="m 412.83717,522.5717 h -13.7469 c -0.30383,0 -0.56951,-0.15398 -0.75942,-0.42377 l -1.02539,-1.5408 c -0.34172,-0.53931 -0.91147,-0.80913 -1.51886,-0.80913 h -7.02535 c -1.74698,0 -3.18982,1.46396 -3.18982,3.2359 v 17.99041 c 0,1.50242 1.21533,2.77369 2.73419,2.77369 h 11.81018 v 0 0 0 0 0 0 0 h 0.91126 v 0 0 0 0 0 0 0 0 0 h 11.81018 c 1.48102,0 2.73419,-1.23289 2.73419,-2.77369 V 525.3453 c 0,-1.5408 -1.21506,-2.77341 -2.73419,-2.77341 z m -11.81011,21.2263 v 0 h -0.91126 v 0 0 z m 13.6329,-2.7736 c 0,1.00153 -0.7976,1.84905 -1.82272,1.84905 h -24.53176 c -0.98728,0 -1.82272,-0.84752 -1.82272,-1.84905 l -2.7e-4,-6.20226 v -3.5057 c 0,-1.00155 0.83545,-1.84905 1.82272,-1.84905 h 13.7469 c 0.60766,0 1.17715,-0.30823 1.51886,-0.80914 l 0.98728,-1.54079 c 0.18993,-0.2311 0.45561,-0.42378 0.75943,-0.42378 h 7.06332 c 1.25317,0 2.27863,1.04021 2.27863,2.31155 v 5.04649 z m -2.27862,-15.21674 h -7.06332 c -0.60766,0 -1.17716,0.30822 -1.51886,0.80913 l -0.98728,1.5408 c -0.15178,0.26979 -0.45562,0.42377 -0.75943,0.42377 h -13.7468 c -0.68341,0 -1.32812,0.0783 -1.82297,0.78572 v -4.03062 c 0,-0.92308 0.96375,-1.84615 1.90125,-1.84615 h 7.50001 l 0.0201,0.0214 1.38614,-0.0214 1.838,0.006 h 13.7469 c 0.98728,0 1.82273,0.84751 1.82273,1.84905 v 1.4253 c -0.6074,-0.61617 -1.40474,-0.96281 -2.3162,-0.96281 z"
       id="path64"
       sodipodi:nodetypes="csccsssssccccccccccccccccccsssccccccccccssccsssccssscccsccscccccccssscc"
       style="fill:url(#linearGradient2232);fill-opacity:1;stroke-width:0.0683002" />
    <path
       d="m 412.58563,540.53939 h -0.27781 c -0.15346,0 -0.27751,-0.12255 -0.27751,-0.27312 0,-0.15112 0.12405,-0.27367 0.27751,-0.27367 h 0.27781 c 0.30639,0 0.55532,-0.24455 0.55532,-0.54679 v -0.81994 c 0,-0.0219 -0.004,-0.0438 -0.0107,-0.0649 -0.002,-0.008 -0.006,-0.0157 -0.009,-0.024 -0.004,-0.009 -0.007,-0.019 -0.0125,-0.0281 -0.0633,-0.12647 -0.21842,-0.24822 -0.412,-0.2832 -0.2477,-0.0908 -0.57891,-0.14685 -0.94401,-0.14685 -0.35468,0 -0.67693,0.0565 -0.9222,0.14485 -0.12405,0.0179 -0.23318,0.0725 -0.31506,0.14111 l -0.001,-0.002 c -0.0451,0.0394 -0.10412,0.0641 -0.1692,0.0641 -0.14128,0 -0.25598,-0.11313 -0.25598,-0.2521 0,-0.0986 0.0579,-0.18316 0.14128,-0.22441 0.1505,-0.108 0.33326,-0.20105 0.54569,-0.27033 -0.22748,-0.22294 -0.37798,-0.52223 -0.40564,-0.85678 -0.004,-0.037 -0.006,-0.0742 -0.006,-0.11186 v -0.82007 c 0,-0.60393 0.49714,-1.09358 1.11077,-1.09358 h 0.55532 c 0.61321,0 1.11064,0.48967 1.11064,1.09358 v 0.82007 c 0,0.15098 -0.12447,0.27353 -0.2778,0.27353 -0.15347,0 -0.27752,-0.12255 -0.27752,-0.27353 v -0.82007 c 0,-0.3021 -0.24893,-0.54679 -0.55532,-0.54679 h -0.55532 c -0.3068,0 -0.55545,0.24469 -0.55545,0.54679 v 0.82007 c 0,0.45308 0.3731,0.82032 0.83284,0.82032 1.02603,0 1.86416,0.4472 1.9367,1.0145 0.004,0.0256 0.007,0.0521 0.007,0.0793 v 0.81994 c -2e-5,0.60418 -0.49744,1.09358 -1.11065,1.09358 z m -2.91909,-2.35025 c -0.003,0.009 -0.007,0.0194 -0.0114,0.0286 -3e-4,2.7e-4 -3e-4,10e-4 -4.7e-4,10e-4 h -3e-4 c -0.045,0.0912 -0.13867,0.15459 -0.24849,0.15459 -0.15348,0 -0.27781,-0.12255 -0.27781,-0.27353 0,-0.0391 0.009,-0.0765 0.0236,-0.10987 l -9.4e-4,-3e-4 c 0.0655,-0.13938 0.10305,-0.29396 0.10305,-0.45776 0,-0.0609 -0.007,-0.12042 -0.0162,-0.17889 0.0104,-0.0493 0.0162,-0.10066 0.0162,-0.15312 v -1.11296 c 0,-0.40982 -0.33148,-0.74223 -0.74051,-0.74223 h -0.74024 c -0.40916,0 -0.74064,0.33239 -0.74064,0.74223 v 1.11296 c 0,0.0525 0.006,0.10386 0.0162,0.15312 -0.01,0.0585 -0.0162,0.118 -0.0162,0.17889 0,0.60393 0.49742,1.09378 1.11077,1.09378 1.77036,0 3.21477,0.62341 3.3216,1.40999 0.006,0.0304 0.0104,0.0617 0.0104,0.0935 v 0.68376 c 0,0.60395 -0.49742,1.09333 -1.11077,1.09333 h -4.44268 c -0.61325,0 -1.11067,-0.4894 -1.11067,-1.09333 v -0.68376 c 0,-0.0317 0.003,-0.0617 0.008,-0.0913 0.036,-0.27554 0.23739,-0.52943 0.55599,-0.74383 0.0451,-0.0377 0.10264,-0.0617 0.16634,-0.0617 0.14196,0 0.25705,0.11295 0.25705,0.25286 0,0.0894 -0.0472,0.16713 -0.11836,0.21226 l 0.002,0.003 c -0.20051,0.13187 -0.31535,0.2782 -0.31535,0.42904 v 0.68376 c 0,0.30171 0.24892,0.54654 0.55532,0.54654 h 4.44268 c 0.30681,0 0.55532,-0.24483 0.55532,-0.54654 v -0.68376 c 0,-0.52865 -1.24324,-0.95663 -2.77659,-0.95663 -0.4459,0 -0.85006,-0.17381 -1.149,-0.45467 -0.079,-0.0742 -0.15157,-0.15673 -0.21448,-0.2451 -0.0616,-0.0862 -0.11484,-0.17882 -0.15876,-0.276 -0.002,-0.004 -0.003,-0.007 -0.005,-0.0102 -0.0183,-0.0413 -0.0344,-0.0842 -0.0494,-0.12721 -0.003,-0.01 -0.008,-0.019 -0.0107,-0.0288 -0.0126,-0.0383 -0.0222,-0.0781 -0.0319,-0.11786 -0.004,-0.0148 -0.008,-0.0292 -0.0115,-0.0445 -0.01,-0.0454 -0.016,-0.0918 -0.0221,-0.1383 -10e-4,-0.009 -0.003,-0.0174 -0.004,-0.0262 -0.006,-0.0563 -0.009,-0.11373 -0.009,-0.17181 0,-0.0303 0.003,-0.0594 0.005,-0.0894 -0.002,-0.031 -0.005,-0.0616 -0.005,-0.0929 v -1.27568 c 0,-0.70485 0.55965,-1.27594 1.24947,-1.27594 h 0.8331 c 0.69022,0 1.24947,0.57109 1.24947,1.27594 v 1.27568 c 0,0.0314 -0.002,0.0619 -0.005,0.0929 0.002,0.03 0.005,0.0591 0.005,0.0894 0,0.23414 -0.0522,0.45561 -0.14235,0.65705 z m -3.60589,0.84655 z"
       id="path2-6-5"
       style="fill:url(#linearGradient1312);fill-opacity:1;stroke-width:0.0172202"
       sodipodi:nodetypes="cssssssccccscccsscccsssssssssssssscscccccccssccscsssssscsscssssssccssccsssssssccccccccccscsssssscsccccccc" />
    <path
       d="m 405.40593,540.5557 h -0.2778 c -0.15346,0 -0.27751,-0.12255 -0.27751,-0.27313 0,-0.15112 0.12405,-0.27367 0.27751,-0.27367 h 0.2778 c 0.30639,0 0.55532,-0.24455 0.55532,-0.54679 v -0.81993 c 0,-0.0219 -0.004,-0.0438 -0.0107,-0.0649 -0.002,-0.008 -0.006,-0.0157 -0.009,-0.024 -0.004,-0.009 -0.007,-0.019 -0.0125,-0.0281 -0.0633,-0.12648 -0.21843,-0.24823 -0.41201,-0.28321 -0.2477,-0.0908 -0.5789,-0.14685 -0.944,-0.14685 -0.35469,0 -0.67694,0.0565 -0.92221,0.14485 -0.12404,0.0179 -0.23319,0.0725 -0.31506,0.14111 l -0.001,-0.002 c -0.0451,0.0394 -0.10412,0.0641 -0.16921,0.0641 -0.14128,0 -0.25597,-0.11314 -0.25597,-0.25211 0,-0.0986 0.0579,-0.18316 0.14128,-0.22441 0.1505,-0.108 0.33325,-0.20104 0.54569,-0.27033 -0.22748,-0.22294 -0.37798,-0.52222 -0.40564,-0.85677 -0.004,-0.037 -0.006,-0.0742 -0.006,-0.11187 v -0.82007 c 0,-0.60393 0.49714,-1.09358 1.11077,-1.09358 h 0.55532 c 0.61321,0 1.11063,0.48967 1.11063,1.09358 v 0.82007 c 0,0.15098 -0.12446,0.27353 -0.27778,0.27353 -0.15349,0 -0.27754,-0.12255 -0.27754,-0.27353 v -0.82007 c 0,-0.3021 -0.24892,-0.54679 -0.55531,-0.54679 h -0.55532 c -0.30681,0 -0.55545,0.24469 -0.55545,0.54679 v 0.82007 c 0,0.45308 0.37309,0.82033 0.83284,0.82033 1.02604,0 1.86416,0.4472 1.9367,1.01449 0.004,0.0256 0.007,0.0521 0.007,0.0793 v 0.81993 c -2e-5,0.60419 -0.49745,1.09359 -1.11066,1.09359 z m -2.22139,-4.64771 z m -0.27563,2.28345 z"
       id="path2-3-3-2-3"
       sodipodi:nodetypes="sssssssccccscccsscccsssssssssssssscscsccccccccccccccccccccccccccccccccccccccccccccccccccccccc"
       style="fill:url(#linearGradient1314);fill-opacity:1;stroke-width:0.0172202" />
    <g
       serif:id="new"
       id="g8-61-5"
       transform="matrix(0.03337957,0,0,0.03286603,403.38976,539.6317)"
       style="fill:url(#linearGradient937);fill-opacity:1">
      <g
         transform="matrix(0.666667,0,0,0.666667,6.66667,6.66667)"
         id="g6-8-6"
         style="fill:url(#linearGradient935);fill-opacity:1">
        <circle
           cx="20.867647"
           cy="20.867647"
           r="12.867647"
           id="circle4-7-2"
           style="fill:url(#linearGradient933);fill-opacity:1;stroke-width:0.857843" />
      </g>
    </g>
    <g
       serif:id="new"
       id="g8-3-9-9"
       transform="matrix(0.03337957,0,0,0.03286603,402.42433,539.39375)"
       style="fill:url(#linearGradient943);fill-opacity:1">
      <g
         transform="matrix(0.666667,0,0,0.666667,6.66667,6.66667)"
         id="g6-5-2-1"
         style="fill:url(#linearGradient941);fill-opacity:1">
        <circle
           cx="20.867647"
           cy="20.867647"
           r="12.867647"
           id="circle4-6-0-2"
           style="fill:url(#linearGradient939);fill-opacity:1;stroke-width:0.857843" />
      </g>
    </g>
    <g
       serif:id="new"
       id="g8-6-2-7"
       transform="matrix(0.03337957,0,0,0.03286603,402.04588,538.44557)"
       style="fill:url(#linearGradient1320);fill-opacity:1">
      <g
         transform="matrix(0.666667,0,0,0.666667,6.66667,6.66667)"
         id="g6-7-3-0"
         style="fill:url(#linearGradient947);fill-opacity:1">
        <circle
           cx="20.867647"
           cy="20.867647"
           r="12.867647"
           id="circle4-5-7-9"
           style="fill:url(#linearGradient945);fill-opacity:1;stroke-width:0.857843" />
      </g>
    </g>
  </g>
</svg>
