<?xml version="1.0" encoding="UTF-8" standalone="no"?>
<svg
   width="32"
   version="1.1"
   height="32"
   viewBox="0 0 32 32"
   id="svg15"
   sodipodi:docname="folder-database.svg"
   inkscape:version="1.1.1 (3bf5ae0d25, 2021-09-20)"
   xmlns:inkscape="http://www.inkscape.org/namespaces/inkscape"
   xmlns:sodipodi="http://sodipodi.sourceforge.net/DTD/sodipodi-0.dtd"
   xmlns:xlink="http://www.w3.org/1999/xlink"
   xmlns="http://www.w3.org/2000/svg"
   xmlns:svg="http://www.w3.org/2000/svg"
   xmlns:rdf="http://www.w3.org/1999/02/22-rdf-syntax-ns#"
   xmlns:cc="http://creativecommons.org/ns#"
   xmlns:dc="http://purl.org/dc/elements/1.1/">
  <sodipodi:namedview
     pagecolor="#ffffff"
     bordercolor="#666666"
     borderopacity="1"
     objecttolerance="10"
     gridtolerance="10"
     guidetolerance="10"
     inkscape:pageopacity="0"
     inkscape:pageshadow="2"
     inkscape:window-width="1920"
     inkscape:window-height="1007"
     id="namedview17"
     showgrid="false"
     inkscape:zoom="9.8125"
     inkscape:cx="-12.942675"
     inkscape:cy="6.5732484"
     inkscape:window-x="0"
     inkscape:window-y="0"
     inkscape:window-maximized="1"
     inkscape:current-layer="layer1"
     inkscape:document-rotation="0"
     inkscape:pagecheckerboard="0" />
  <defs
     id="defs5455">
    <linearGradient
       inkscape:collect="always"
       xlink:href="#linearGradient2230"
       id="linearGradient2232"
       x1="384.57144"
       y1="515.79797"
       x2="448.57144"
       y2="515.79797"
       gradientUnits="userSpaceOnUse"
       gradientTransform="matrix(0.46875,0,0,0.46153837,205.30357,293.73742)" />
    <linearGradient
       inkscape:collect="always"
       id="linearGradient2230">
      <stop
         style="stop-color:#4e99ca;stop-opacity:0.80000001"
         offset="0"
         id="stop2226" />
      <stop
         style="stop-color:#20ffff;stop-opacity:0.80000001"
         offset="0.50507295"
         id="stop2332" />
      <stop
         style="stop-color:#ffaeff;stop-opacity:0.69"
         offset="1"
         id="stop2228" />
    </linearGradient>
    <linearGradient
       inkscape:collect="always"
       xlink:href="#linearGradient2230"
       id="linearGradient1122"
       gradientUnits="userSpaceOnUse"
       gradientTransform="matrix(0.46875,0,0,0.46153837,212.80357,296.04465)"
       x1="404.57144"
       y1="520.79901"
       x2="428.5723"
       y2="520.79901" />
  </defs>
  <metadata
     id="metadata5458">
    <rdf:RDF>
      <cc:Work
         rdf:about="">
        <dc:format>image/svg+xml</dc:format>
        <dc:type
           rdf:resource="http://purl.org/dc/dcmitype/StillImage" />
      </cc:Work>
    </rdf:RDF>
  </metadata>
  <g
     inkscape:label="Capa 1"
     inkscape:groupmode="layer"
     id="layer1"
     transform="translate(-384.57143,-515.798)">
    <rect
       style="fill:#3b445f;fill-opacity:1;stroke:none;stroke-width:0.586901"
       id="center-3"
       width="28.21875"
       height="19.384611"
       x="386.46207"
       y="523.4903"
       ry="1.8461516"
       rx="1.8812554" />
    <path
       d="m 412.83718,522.5717 h -13.7469 c -0.30383,0 -0.56952,-0.15398 -0.75943,-0.42377 l -1.02539,-1.5408 c -0.34172,-0.53931 -0.91147,-0.80913 -1.51886,-0.80913 h -7.02535 c -1.74698,0 -3.18982,1.46396 -3.18982,3.2359 v 17.99041 c 0,1.50242 1.21533,2.77369 2.73419,2.77369 h 11.81018 v 0 0 0 0 0 0 0 h 0.91126 v 0 0 0 0 0 0 0 0 0 h 11.81018 c 1.48102,0 2.73419,-1.23289 2.73419,-2.77369 V 525.3453 c 0,-1.5408 -1.21506,-2.77341 -2.73419,-2.77341 z m -11.81012,21.2263 v 0 h -0.91126 v 0 0 z m 13.63291,-2.7736 c 0,1.00153 -0.79761,1.84905 -1.82273,1.84905 h -24.53175 c -0.98728,0 -1.82273,-0.84752 -1.82273,-1.84905 l -2.7e-4,-6.20226 v -3.5057 c 0,-1.00155 0.83545,-1.84905 1.82273,-1.84905 h 13.74689 c 0.60766,0 1.17715,-0.30823 1.51887,-0.80914 l 0.98727,-1.54079 c 0.18993,-0.2311 0.45562,-0.42378 0.75943,-0.42378 h 7.06333 c 1.25317,0 2.27862,1.04021 2.27862,2.31155 v 5.04649 z m -2.27863,-15.21674 h -7.06332 c -0.60766,0 -1.17715,0.30822 -1.51886,0.80913 l -0.98728,1.5408 c -0.15178,0.26979 -0.45561,0.42377 -0.75942,0.42377 h -13.74681 c -0.68341,0 -1.32811,0.0783 -1.82297,0.78572 v -4.03062 c 0,-0.92308 0.96376,-1.84615 1.90126,-1.84615 h 7.5 l 0.0201,0.0214 1.38614,-0.0214 1.83801,0.006 h 13.7469 c 0.98727,0 1.82272,0.84751 1.82272,1.84905 v 1.4253 c -0.6074,-0.61617 -1.40473,-0.96281 -2.3162,-0.96281 z"
       id="path64"
       sodipodi:nodetypes="csccsssssccccccccccccccccccsssccccccccccssccsssccssscccsccscccccccssscc"
       style="fill:url(#linearGradient2232);fill-opacity:1;stroke-width:0.0683002" />
    <path
       fill-rule="evenodd"
       clip-rule="evenodd"
       d="m 413.34487,539.87495 c -0.19397,0 -0.35174,-0.15516 -0.35174,-0.34615 0,-0.19134 0.15777,-0.3465 0.35174,-0.3465 0.19415,0 0.35156,0.15516 0.35156,0.3465 0,0.19099 -0.15741,0.34615 -0.35156,0.34615 z m 0.33851,-2.58873 c -0.005,0.0372 -0.011,0.074 -0.0187,0.11021 -0.004,0.0176 -0.009,0.0342 -0.0134,0.0514 -0.008,0.0301 -0.016,0.0605 -0.0257,0.0899 -0.004,0.0128 -0.009,0.0257 -0.0143,0.0385 -0.0127,0.0338 -0.0257,0.0673 -0.0405,0.0994 -0.004,0.009 -0.009,0.0176 -0.0127,0.026 -0.0165,0.0335 -0.034,0.0662 -0.0525,0.098 -0.006,0.0102 -0.012,0.0203 -0.0184,0.0301 -0.0208,0.0328 -0.0424,0.0653 -0.0656,0.096 -0.004,0.005 -0.007,0.009 -0.0108,0.0138 -0.0268,0.0352 -0.0556,0.069 -0.0862,0.10175 -9.4e-4,9.2e-4 -0.002,0.002 -0.003,0.004 -0.0326,0.0345 -0.0666,0.068 -0.10284,0.0991 -0.24754,0.21465 -0.57196,0.34615 -0.92816,0.34615 v 0.0176 c -0.057,-0.0112 -0.11539,-0.0176 -0.17581,-0.0176 h -8.08583 c -0.48547,0 -0.87925,0.38739 -0.87925,0.86538 v 1.03811 c 0,0.47802 0.39378,0.86541 0.87925,0.86541 h 8.08582 c 0.41458,0 0.76872,-0.32486 0.96647,-0.57297 l 9.4e-4,3.5e-4 c 0.0645,-0.0727 0.15759,-0.11935 0.26332,-0.11935 0.19416,0 0.35157,0.15482 0.35157,0.34615 0,0.359 -0.62947,1.03846 -1.40625,1.03846 h -8.43807 c -0.7767,0 -1.4061,-0.61996 -1.4061,-1.38461 v -1.38499 c 0,-0.76465 0.62941,-1.38428 1.4061,-1.38428 h 0.52725 7.7346 c 0.48549,0 0.87875,-0.3874 0.87875,-0.86539 v -1.03855 c 0,-0.478 -0.39326,-0.86538 -0.87875,-0.86538 h -7.7346 -0.52725 c -0.7767,0 -1.4061,-0.62014 -1.4061,-1.38447 v -1.38479 c 0,-0.76482 0.62941,-1.38446 1.4061,-1.38446 h 8.43765 c 0.77678,0 1.40625,0.61964 1.40625,1.38446 v 1.03864 c 0,0.19081 -0.15741,0.34615 -0.35156,0.34615 -0.19397,0 -0.35174,-0.15534 -0.35174,-0.34615 v -0.86535 c 0,-0.478 -0.39326,-0.86573 -0.87875,-0.86573 h -8.08582 c -0.48547,0 -0.87926,0.38773 -0.87926,0.86573 v 1.03831 c 0,0.47799 0.39379,0.86521 0.87926,0.86521 h 8.08582 c 0.0604,0 0.11879,-0.006 0.1758,-0.0176 v 0.0176 c 0.3562,0 0.68065,0.13152 0.92817,0.34633 0.0362,0.0311 0.0702,0.0646 0.10284,0.099 0.001,10e-4 0.002,0.002 0.003,0.004 0.0306,0.0326 0.0594,0.0664 0.0862,0.10175 0.004,0.005 0.007,0.009 0.0108,0.0139 0.0232,0.0309 0.0448,0.0632 0.0656,0.0958 0.006,0.01 0.0123,0.0201 0.0184,0.0301 0.0186,0.0319 0.036,0.0646 0.0525,0.098 0.004,0.008 0.009,0.0173 0.0127,0.026 0.0148,0.0323 0.0278,0.0658 0.0405,0.0996 0.005,0.0128 0.0101,0.0257 0.0143,0.0385 0.01,0.0294 0.0179,0.0598 0.0257,0.0899 0.005,0.0173 0.01,0.0338 0.0134,0.0514 0.008,0.036 0.0139,0.0732 0.0187,0.1102 10e-4,0.0103 0.003,0.0198 0.005,0.0304 0.005,0.0492 0.009,0.0996 0.009,0.15027 v 1.38453 c 0,0.0504 -0.003,0.10073 -0.009,0.1501 -9.4e-4,0.0105 -0.003,0.0203 -0.004,0.0304 z m -10.8853,-1.56505 c 0.19389,0 0.35122,0.15482 0.35122,0.34615 v 0.69188 c 0,0.19134 -0.15733,0.3465 -0.35122,0.3465 -0.19432,0 -0.35165,-0.15516 -0.35165,-0.3465 v -0.69188 c 0,-0.19133 0.15733,-0.34615 0.35165,-0.34615 z"
       id="path2-5"
       style="fill:url(#linearGradient1122);fill-opacity:1;stroke-width:0.021803" />
  </g>
</svg>
