<?xml version="1.0" encoding="UTF-8" standalone="no"?>
<svg
   width="32"
   version="1.1"
   height="32"
   viewBox="0 0 32 32"
   id="svg17"
   sodipodi:docname="folder-important.svg"
   inkscape:version="1.1.1 (3bf5ae0d25, 2021-09-20)"
   xmlns:inkscape="http://www.inkscape.org/namespaces/inkscape"
   xmlns:sodipodi="http://sodipodi.sourceforge.net/DTD/sodipodi-0.dtd"
   xmlns:xlink="http://www.w3.org/1999/xlink"
   xmlns="http://www.w3.org/2000/svg"
   xmlns:svg="http://www.w3.org/2000/svg"
   xmlns:rdf="http://www.w3.org/1999/02/22-rdf-syntax-ns#"
   xmlns:cc="http://creativecommons.org/ns#"
   xmlns:dc="http://purl.org/dc/elements/1.1/">
  <sodipodi:namedview
     pagecolor="#ffffff"
     bordercolor="#666666"
     borderopacity="1"
     objecttolerance="10"
     gridtolerance="10"
     guidetolerance="10"
     inkscape:pageopacity="0"
     inkscape:pageshadow="2"
     inkscape:window-width="1920"
     inkscape:window-height="1007"
     id="namedview19"
     showgrid="false"
     inkscape:zoom="9.8125"
     inkscape:cx="-24.56051"
     inkscape:cy="16.866242"
     inkscape:window-x="0"
     inkscape:window-y="0"
     inkscape:window-maximized="1"
     inkscape:current-layer="layer1"
     inkscape:document-rotation="0"
     inkscape:pagecheckerboard="0" />
  <defs
     id="defs5455">
    <linearGradient
       inkscape:collect="always"
       xlink:href="#linearGradient956"
       id="linearGradient2232"
       x1="384.57144"
       y1="515.79797"
       x2="448.57144"
       y2="515.79797"
       gradientUnits="userSpaceOnUse"
       gradientTransform="matrix(0.46875,0,0,0.46153837,205.30357,293.73743)" />
    <linearGradient
       inkscape:collect="always"
       id="linearGradient956">
      <stop
         style="stop-color:#4e99ca;stop-opacity:0.80000001"
         offset="0"
         id="stop950" />
      <stop
         style="stop-color:#20ffff;stop-opacity:0.80000001"
         offset="0.50507295"
         id="stop952" />
      <stop
         style="stop-color:#aa87de;stop-opacity:0.80000001"
         offset="1"
         id="stop954" />
    </linearGradient>
    <linearGradient
       inkscape:collect="always"
       xlink:href="#linearGradient956"
       id="linearGradient1005"
       gradientUnits="userSpaceOnUse"
       x1="403.76944"
       y1="520.79797"
       x2="429.47806"
       y2="520.79797"
       gradientTransform="matrix(0.43759622,0,0,0.43086389,225.75861,312.34468)" />
  </defs>
  <metadata
     id="metadata5458">
    <rdf:RDF>
      <cc:Work
         rdf:about="">
        <dc:format>image/svg+xml</dc:format>
        <dc:type
           rdf:resource="http://purl.org/dc/dcmitype/StillImage" />
      </cc:Work>
    </rdf:RDF>
  </metadata>
  <g
     inkscape:label="Capa 1"
     inkscape:groupmode="layer"
     id="layer1"
     transform="translate(-384.57143,-515.798)">
    <rect
       style="fill:#3b445f;fill-opacity:1;stroke:none;stroke-width:0.586413"
       id="center-3"
       width="28.171875"
       height="19.384611"
       x="386.50894"
       y="523.49036"
       ry="1.8461516"
       rx="1.8781303" />
    <path
       d="m 412.83717,522.5717 h -13.7469 c -0.30383,0 -0.56951,-0.15398 -0.75942,-0.42377 l -1.02539,-1.5408 c -0.34172,-0.53931 -0.91147,-0.80913 -1.51886,-0.80913 h -7.02535 c -1.74698,0 -3.18982,1.46396 -3.18982,3.2359 v 17.99041 c 0,1.50242 1.21533,2.77369 2.73419,2.77369 h 11.81018 v 0 0 0 0 0 0 0 h 0.91126 v 0 0 0 0 0 0 0 0 0 h 11.81018 c 1.48102,0 2.73419,-1.23289 2.73419,-2.77369 V 525.3453 c 0,-1.5408 -1.21506,-2.77341 -2.73419,-2.77341 z m -11.81011,21.2263 v 0 h -0.91126 v 0 0 z m 13.6329,-2.7736 c 0,1.00153 -0.7976,1.84905 -1.82272,1.84905 h -24.53176 c -0.98728,0 -1.82272,-0.84752 -1.82272,-1.84905 l -2.7e-4,-6.20226 v -3.5057 c 0,-1.00155 0.83545,-1.84905 1.82272,-1.84905 h 13.7469 c 0.60766,0 1.17715,-0.30823 1.51886,-0.80914 l 0.98728,-1.54079 c 0.18993,-0.2311 0.45561,-0.42378 0.75943,-0.42378 h 7.06332 c 1.25317,0 2.27863,1.04021 2.27863,2.31155 v 5.04649 z m -2.27862,-15.21674 h -7.06332 c -0.60766,0 -1.17716,0.30822 -1.51886,0.80913 l -0.98728,1.5408 c -0.15178,0.26979 -0.45562,0.42377 -0.75943,0.42377 h -13.7468 c -0.68341,0 -1.32812,0.0783 -1.82297,0.78572 v -4.03062 c 0,-0.92308 0.96375,-1.84615 1.90125,-1.84615 h 7.50001 l 0.0201,0.0214 1.38614,-0.0214 1.838,0.006 h 13.7469 c 0.98728,0 1.82273,0.84751 1.82273,1.84905 v 1.4253 c -0.6074,-0.61617 -1.40474,-0.96281 -2.3162,-0.96281 z"
       id="path64"
       sodipodi:nodetypes="csccsssssccccccccccccccccccsssccccccccccssccsssccssscccsccscccccccssscc"
       style="fill:url(#linearGradient2232);fill-opacity:1;stroke-width:0.0683002" />
    <path
       d="m 407.32444,537.47446 c -0.2071,0 -0.37502,-0.16534 -0.37502,-0.36927 v -2.21545 c 0,-0.61175 0.50377,-1.10775 1.12506,-1.10775 0.62124,0 1.12499,0.496 1.12499,1.10775 v 2.95399 c 0,0.073 -0.008,0.14386 -0.0221,0.21306 -0.0119,0.0572 -0.0286,0.11163 -0.0494,0.16534 -0.003,0.008 -0.005,0.0173 -0.008,0.0258 -0.0245,0.0604 -0.0542,0.1179 -0.0886,0.17253 -9.4e-4,0.002 -0.002,0.004 -0.003,0.005 -0.036,0.0559 -0.0764,0.10873 -0.121,0.15739 -0.20583,0.22485 -0.50124,0.36924 -0.83314,0.36924 -0.0169,0 -0.0306,10e-4 -0.0419,0.005 -0.18716,0.021 -0.33291,0.17544 -0.33291,0.3651 0,0.20392 0.1679,0.36925 0.37501,0.36925 0.20702,0 0.37494,-0.16533 0.37494,-0.36925 0,-0.20393 0.16795,-0.36926 0.37505,-0.36926 0.2071,0 0.375,0.16533 0.375,0.36926 0,0.61174 -0.50374,1.10774 -1.12499,1.10774 -0.62129,0 -1.12507,-0.496 -1.12507,-1.10774 0,-0.073 0.008,-0.14386 0.0221,-0.21312 0.012,-0.0571 0.0287,-0.11159 0.0494,-0.16533 0.003,-0.008 0.005,-0.0171 0.008,-0.0258 0.0245,-0.0604 0.0542,-0.11792 0.0886,-0.17257 9.4e-4,-0.002 0.002,-0.004 0.003,-0.005 0.036,-0.0559 0.0764,-0.10872 0.12107,-0.1574 0.20582,-0.22481 0.50115,-0.36927 0.83315,-0.36927 0.0296,0 0.0588,-0.005 0.0864,-0.0108 0.009,-0.003 0.0178,-0.005 0.0267,-0.008 0.15161,-0.0474 0.26204,-0.1853 0.26204,-0.3503 v -2.95396 c 0,-0.2039 -0.16794,-0.36925 -0.37494,-0.36925 -0.2071,0 -0.37502,0.16532 -0.37502,0.36925 v 2.21549 c -5e-5,0.20393 -0.16796,0.36928 -0.37506,0.36928 z m 4.1268,4.43352 c -1.1258,-0.006 -2.25141,-0.003 -3.37676,-0.003 -0.75004,0 -1.50004,-9.2e-4 -2.25012,0 -0.20707,0 -0.37499,-0.16531 -0.37499,-0.36924 0,-0.2039 0.16792,-0.36922 0.37499,-0.36922 v -0.005 c 0.72695,-3.4e-4 1.48763,0.003 2.25012,0.003 1.09167,0 2.18357,-0.006 3.17186,0 1.97616,0.0114 2.07869,-0.50304 1.08074,-2.23445 -0.99762,-1.73159 -1.86485,-3.57491 -2.84288,-5.31805 -0.978,-1.74291 -1.84151,-1.74291 -2.8195,0 -0.97802,1.74315 -1.84982,3.58648 -2.84799,5.31805 -0.38434,0.66675 -0.61744,0.99704 -0.61744,1.6831 0,0.2039 -0.16794,0.36923 -0.37507,0.36923 -0.20712,0 -0.37496,-0.16533 -0.37496,-0.36923 v 0.0528 c -4e-4,-0.0172 -0.003,-0.0349 -0.003,-0.0528 0.003,-0.43562 0.19394,-0.98138 0.57278,-1.63694 1.13782,-1.96794 2.08855,-3.94202 3.20374,-5.92292 1.11539,-1.98115 2.58205,-1.98115 3.69682,0 1.11536,1.9809 2.0661,3.95498 3.20398,5.92292 1.13789,1.96761 0.57995,2.94482 -1.67275,2.93184 z m -7.12696,-0.741 c 0.2071,0 0.37503,0.16532 0.37503,0.36922 0,0.20393 -0.1679,0.36926 -0.37503,0.36926 -0.20713,0 -0.37504,-0.16533 -0.37504,-0.36926 0,-0.2039 0.16791,-0.36922 0.37504,-0.36922 z m 1.49535,0.73848"
       id="path2-7"
       style="fill:url(#linearGradient1005);fill-opacity:1;stroke-width:0.0232615" />
  </g>
</svg>
