<?xml version="1.0" encoding="UTF-8" standalone="no"?>
<svg
   width="32"
   version="1.1"
   height="32"
   viewBox="0 0 32 32"
   id="svg15"
   sodipodi:docname="folder-presentation.svg"
   inkscape:version="1.1.1 (3bf5ae0d25, 2021-09-20)"
   xmlns:inkscape="http://www.inkscape.org/namespaces/inkscape"
   xmlns:sodipodi="http://sodipodi.sourceforge.net/DTD/sodipodi-0.dtd"
   xmlns:xlink="http://www.w3.org/1999/xlink"
   xmlns="http://www.w3.org/2000/svg"
   xmlns:svg="http://www.w3.org/2000/svg"
   xmlns:rdf="http://www.w3.org/1999/02/22-rdf-syntax-ns#"
   xmlns:cc="http://creativecommons.org/ns#"
   xmlns:dc="http://purl.org/dc/elements/1.1/">
  <sodipodi:namedview
     pagecolor="#ffffff"
     bordercolor="#666666"
     borderopacity="1"
     objecttolerance="10"
     gridtolerance="10"
     guidetolerance="10"
     inkscape:pageopacity="0"
     inkscape:pageshadow="2"
     inkscape:window-width="1920"
     inkscape:window-height="1007"
     id="namedview17"
     showgrid="false"
     inkscape:zoom="9.8125"
     inkscape:cx="-12.942675"
     inkscape:cy="6.5732484"
     inkscape:window-x="0"
     inkscape:window-y="0"
     inkscape:window-maximized="1"
     inkscape:current-layer="layer1"
     inkscape:document-rotation="0"
     inkscape:pagecheckerboard="0" />
  <defs
     id="defs5455">
    <linearGradient
       inkscape:collect="always"
       xlink:href="#linearGradient2230"
       id="linearGradient2232"
       x1="384.57144"
       y1="515.79797"
       x2="448.57144"
       y2="515.79797"
       gradientUnits="userSpaceOnUse"
       gradientTransform="matrix(0.46875,0,0,0.46153837,205.30358,293.73742)" />
    <linearGradient
       inkscape:collect="always"
       id="linearGradient2230">
      <stop
         style="stop-color:#4e99ca;stop-opacity:0.80000001"
         offset="0"
         id="stop2226" />
      <stop
         style="stop-color:#20ffff;stop-opacity:0.80000001"
         offset="0.50507295"
         id="stop2332" />
      <stop
         style="stop-color:#ffaeff;stop-opacity:0.69"
         offset="1"
         id="stop2228" />
    </linearGradient>
    <linearGradient
       inkscape:collect="always"
       xlink:href="#linearGradient2230"
       id="linearGradient1063"
       gradientUnits="userSpaceOnUse"
       gradientTransform="matrix(0.46875,0,0,0.46153837,212.79702,296.03819)"
       x1="404.58542"
       y1="520.81299"
       x2="428.58542"
       y2="520.81299" />
    <linearGradient
       inkscape:collect="always"
       xlink:href="#linearGradient2230"
       id="linearGradient1065"
       gradientUnits="userSpaceOnUse"
       gradientTransform="matrix(0.46875,0,0,0.46153837,212.79702,296.03819)"
       x1="410.23141"
       y1="520.77289"
       x2="423.03143"
       y2="520.77289" />
  </defs>
  <metadata
     id="metadata5458">
    <rdf:RDF>
      <cc:Work
         rdf:about="">
        <dc:format>image/svg+xml</dc:format>
        <dc:type
           rdf:resource="http://purl.org/dc/dcmitype/StillImage" />
      </cc:Work>
    </rdf:RDF>
  </metadata>
  <g
     inkscape:label="Capa 1"
     inkscape:groupmode="layer"
     id="layer1"
     transform="translate(-384.57143,-515.798)">
    <rect
       style="fill:#3b445f;fill-opacity:1;stroke:none;stroke-width:0.586901"
       id="center-3"
       width="28.21875"
       height="19.384611"
       x="386.46207"
       y="523.4903"
       ry="1.8461516"
       rx="1.8812554" />
    <path
       d="m 412.83717,522.5717 h -13.7469 c -0.30383,0 -0.56951,-0.15398 -0.75942,-0.42377 l -1.02539,-1.5408 c -0.34172,-0.53931 -0.91147,-0.80913 -1.51886,-0.80913 h -7.02535 c -1.74698,0 -3.18982,1.46396 -3.18982,3.2359 v 17.99041 c 0,1.50242 1.21533,2.77369 2.73419,2.77369 h 11.81018 v 0 0 0 0 0 0 0 h 0.91126 v 0 0 0 0 0 0 0 0 0 h 11.81018 c 1.48102,0 2.73419,-1.23289 2.73419,-2.77369 V 525.3453 c 0,-1.5408 -1.21506,-2.77341 -2.73419,-2.77341 z m -11.81011,21.2263 v 0 h -0.91126 v 0 0 z m 13.6329,-2.7736 c 0,1.00153 -0.7976,1.84905 -1.82272,1.84905 h -24.53176 c -0.98728,0 -1.82272,-0.84752 -1.82272,-1.84905 l -2.7e-4,-6.20226 v -3.5057 c 0,-1.00155 0.83545,-1.84905 1.82272,-1.84905 h 13.7469 c 0.60766,0 1.17715,-0.30823 1.51886,-0.80914 l 0.98728,-1.54079 c 0.18993,-0.2311 0.45561,-0.42378 0.75943,-0.42378 h 7.06332 c 1.25317,0 2.27863,1.04021 2.27863,2.31155 v 5.04649 z m -2.27862,-15.21674 h -7.06332 c -0.60766,0 -1.17716,0.30822 -1.51886,0.80913 l -0.98728,1.5408 c -0.15178,0.26979 -0.45562,0.42377 -0.75943,0.42377 h -13.7468 c -0.68341,0 -1.32812,0.0783 -1.82297,0.78572 v -4.03062 c 0,-0.92308 0.96375,-1.84615 1.90125,-1.84615 h 7.50001 l 0.0201,0.0214 1.38614,-0.0214 1.838,0.006 h 13.7469 c 0.98728,0 1.82273,0.84751 1.82273,1.84905 v 1.4253 c -0.6074,-0.61617 -1.40474,-0.96281 -2.3162,-0.96281 z"
       id="path64"
       sodipodi:nodetypes="csccsssssccccccccccccccccccsssccccccccccssccsssccssscccsccscccccccssscc"
       style="fill:url(#linearGradient2232);fill-opacity:1;stroke-width:0.0683002" />
    <path
       fill-rule="evenodd"
       clip-rule="evenodd"
       d="m 412.0897,541.95184 h -6.02719 c -0.22158,0 -0.40138,-0.17752 -0.40138,-0.3956 0,-0.21867 0.1798,-0.3958 0.40138,-0.3958 h 6.02719 c 0.44377,0 0.80357,-0.35427 0.80357,-0.79121 v -7.91209 c 0,-0.43694 -0.3598,-0.79101 -0.80357,-0.79101 h -8.03592 c -0.44367,0 -0.80367,0.35407 -0.80367,0.79101 v 7.51648 c 0,0.21867 -0.1797,0.39561 -0.40178,0.39561 -0.22169,0 -0.40189,-0.17694 -0.40189,-0.39561 v -7.51648 c 0,-0.87389 0.7199,-1.58222 1.60734,-1.58222 h 8.03592 c 0.88734,0 1.60674,0.70833 1.60674,1.58222 v 7.91209 c 0,0.87389 -0.7194,1.58261 -1.60674,1.58261 z m -7.63403,-0.7914 c 0.22158,0 0.40178,0.17713 0.40178,0.3958 0,0.21808 -0.1802,0.3956 -0.40178,0.3956 -0.22209,0 -0.40189,-0.17752 -0.40189,-0.3956 0,-0.21867 0.1798,-0.3958 0.40189,-0.3958 z"
       id="path2-5"
       style="fill:url(#linearGradient1063);fill-opacity:1;stroke-width:0.0249177" />
    <path
       fill-rule="evenodd"
       clip-rule="evenodd"
       d="m 410.9055,538.05639 c -0.10355,0 -0.1875,-0.0827 -0.1875,-0.18461 v -2.95385 c 0,-0.10195 -0.084,-0.18461 -0.1875,-0.18461 h -0.375 c -0.10355,0 -0.1875,0.0827 -0.1875,0.18461 v 3.78462 c 0,0.25493 -0.20983,0.46154 -0.46875,0.46154 h -0.1875 c -0.25891,0 -0.46875,-0.20661 -0.46875,-0.46154 v -1.93846 c 0,-0.10196 -0.084,-0.18462 -0.1875,-0.18462 h -0.375 c -0.10354,0 -0.1875,0.0827 -0.1875,0.18462 v 1.93846 c 0,0.25493 -0.20983,0.46154 -0.46875,0.46154 h -0.1875 c -0.25891,0 -0.46875,-0.20661 -0.46875,-0.46154 v -1.2 c 0,-0.10196 -0.084,-0.18462 -0.1875,-0.18462 h -0.375 c -0.10354,0 -0.1875,0.0827 -0.1875,0.18462 v 1.2923 c 0,0.20391 -0.16791,0.36924 -0.375,0.36924 -0.41419,0 -0.75,-0.33065 -0.75,-0.73847 v -3.32307 -1.29231 c 0,-0.10195 0.084,-0.18461 0.1875,-0.18461 0.10355,0 0.1875,0.0827 0.1875,0.18461 v 0.65346 0.63885 3.32307 c 0,0.20391 0.14447,0.36923 0.28125,0.36923 0.0518,0 0.0937,-0.0413 0.0937,-0.0923 v -1.29231 c 0,-0.25493 0.20984,-0.46154 0.46875,-0.46154 h 0.5625 c 0.25892,0 0.46875,0.20661 0.46875,0.46154 v 1.2 c 0,0.10195 0.084,0.18461 0.1875,0.18461 0.10355,0 0.1875,-0.0827 0.1875,-0.18461 v -1.93846 c 0,-0.25493 0.20984,-0.46154 0.46875,-0.46154 h 0.5625 c 0.25892,0 0.46875,0.20661 0.46875,0.46154 v 1.93846 c 0,0.10195 0.084,0.18461 0.1875,0.18461 0.10355,0 0.1875,-0.0827 0.1875,-0.18461 v -3.78462 c 0,-0.25493 0.20984,-0.46153 0.46875,-0.46153 h 0.5625 c 0.25892,0 0.46875,0.2066 0.46875,0.46153 v 3.04616 c 0,0.10195 -0.084,0.18461 -0.1875,0.18461 z m 0,0.36923 c 0.10355,0 0.1875,0.0827 0.1875,0.18462 0,0.10195 -0.084,0.18461 -0.1875,0.18461 -0.10355,0 -0.1875,-0.0827 -0.1875,-0.18461 0,-0.10195 0.084,-0.18462 0.1875,-0.18462 z"
       id="path2-3-3-3"
       style="fill:url(#linearGradient1065);fill-opacity:1;stroke-width:0.0116283" />
  </g>
</svg>
