<?xml version="1.0" encoding="UTF-8" standalone="no"?>
<svg
   width="32"
   version="1.1"
   height="32"
   viewBox="0 0 32 32"
   id="svg17"
   sodipodi:docname="folder-bookmark.svg"
   inkscape:version="1.1.1 (3bf5ae0d25, 2021-09-20)"
   xmlns:inkscape="http://www.inkscape.org/namespaces/inkscape"
   xmlns:sodipodi="http://sodipodi.sourceforge.net/DTD/sodipodi-0.dtd"
   xmlns:xlink="http://www.w3.org/1999/xlink"
   xmlns="http://www.w3.org/2000/svg"
   xmlns:svg="http://www.w3.org/2000/svg"
   xmlns:rdf="http://www.w3.org/1999/02/22-rdf-syntax-ns#"
   xmlns:cc="http://creativecommons.org/ns#"
   xmlns:dc="http://purl.org/dc/elements/1.1/">
  <sodipodi:namedview
     pagecolor="#ffffff"
     bordercolor="#666666"
     borderopacity="1"
     objecttolerance="10"
     gridtolerance="10"
     guidetolerance="10"
     inkscape:pageopacity="0"
     inkscape:pageshadow="2"
     inkscape:window-width="1920"
     inkscape:window-height="1007"
     id="namedview19"
     showgrid="false"
     inkscape:zoom="9.8125"
     inkscape:cx="-12.33121"
     inkscape:cy="8"
     inkscape:window-x="0"
     inkscape:window-y="0"
     inkscape:window-maximized="1"
     inkscape:current-layer="layer1"
     inkscape:document-rotation="0"
     inkscape:pagecheckerboard="0" />
  <defs
     id="defs5455">
    <linearGradient
       inkscape:collect="always"
       xlink:href="#linearGradient997"
       id="linearGradient1220"
       gradientUnits="userSpaceOnUse"
       x1="384.57144"
       y1="515.79797"
       x2="448.57144"
       y2="515.79797"
       gradientTransform="matrix(0.46875,0,0,0.46153837,205.30358,293.73743)" />
    <linearGradient
       inkscape:collect="always"
       id="linearGradient997">
      <stop
         style="stop-color:#0c8bf6;stop-opacity:0.80000001"
         offset="0"
         id="stop991" />
      <stop
         style="stop-color:#00e5e5;stop-opacity:1"
         offset="0.50507295"
         id="stop993" />
      <stop
         style="stop-color:#30b640;stop-opacity:0.6901961"
         offset="1"
         id="stop995" />
    </linearGradient>
    <linearGradient
       inkscape:collect="always"
       xlink:href="#linearGradient997"
       id="linearGradient1203"
       x1="408.65643"
       y1="520.43433"
       x2="424.54642"
       y2="520.43433"
       gradientUnits="userSpaceOnUse"
       gradientTransform="matrix(0.45496274,0,0,0.44796322,220.50736,303.27794)" />
  </defs>
  <metadata
     id="metadata5458">
    <rdf:RDF>
      <cc:Work
         rdf:about="">
        <dc:format>image/svg+xml</dc:format>
        <dc:type
           rdf:resource="http://purl.org/dc/dcmitype/StillImage" />
      </cc:Work>
    </rdf:RDF>
  </metadata>
  <g
     inkscape:label="Capa 1"
     inkscape:groupmode="layer"
     id="layer1"
     transform="translate(-384.57143,-515.798)">
    <rect
       style="fill:#3b445f;fill-opacity:1;stroke:none;stroke-width:0.58739"
       id="center-3"
       width="28.21875"
       height="19.416868"
       x="386.46204"
       y="523.49036"
       ry="1.8492234"
       rx="1.8812554" />
    <path
       d="m 412.83717,522.5717 h -13.7469 c -0.30383,0 -0.56951,-0.15398 -0.75942,-0.42377 l -1.02539,-1.5408 c -0.34172,-0.53931 -0.91147,-0.80913 -1.51886,-0.80913 h -7.02535 c -1.74698,0 -3.18982,1.46396 -3.18982,3.2359 v 17.99041 c 0,1.50242 1.21533,2.77369 2.73419,2.77369 h 11.81018 v 0 0 0 0 0 0 0 h 0.91126 v 0 0 0 0 0 0 0 0 0 h 11.81018 c 1.48102,0 2.73419,-1.23289 2.73419,-2.77369 V 525.3453 c 0,-1.5408 -1.21506,-2.77341 -2.73419,-2.77341 z m -11.81011,21.2263 v 0 h -0.91126 v 0 0 z m 13.6329,-2.7736 c 0,1.00153 -0.7976,1.84905 -1.82272,1.84905 h -24.53176 c -0.98728,0 -1.82272,-0.84752 -1.82272,-1.84905 l -2.7e-4,-6.20226 v -3.5057 c 0,-1.00155 0.83545,-1.84905 1.82272,-1.84905 h 13.7469 c 0.60766,0 1.17715,-0.30823 1.51886,-0.80914 l 0.98728,-1.54079 c 0.18993,-0.2311 0.45561,-0.42378 0.75943,-0.42378 h 7.06332 c 1.25317,0 2.27863,1.04021 2.27863,2.31155 v 5.04649 z m -2.27862,-15.21674 h -7.06332 c -0.60766,0 -1.17716,0.30822 -1.51886,0.80913 l -0.98728,1.5408 c -0.15178,0.26979 -0.45562,0.42377 -0.75943,0.42377 h -13.7468 c -0.68341,0 -1.32812,0.0783 -1.82297,0.78572 v -4.03062 c 0,-0.92308 0.96375,-1.84615 1.90125,-1.84615 h 7.50001 l 0.0201,0.0214 1.38614,-0.0214 1.838,0.006 h 13.7469 c 0.98728,0 1.82273,0.84751 1.82273,1.84905 v 1.4253 c -0.6074,-0.61617 -1.40474,-0.96281 -2.3162,-0.96281 z"
       id="path64"
       sodipodi:nodetypes="csccsssssccccccccccccccccccsssccccccccccssccsssccssscccsccscccccccssscc"
       style="fill:url(#linearGradient1220);fill-opacity:1;stroke-width:0.0683002" />
    <path
       fill-rule="evenodd"
       clip-rule="evenodd"
       d="m 410.96504,535.76333 0.68763,-0.21399 c 0.18993,-0.0592 0.39378,0.0402 0.45553,0.22224 0.0616,0.18169 -0.0423,0.3771 -0.23206,0.43626 l -0.68765,0.21396 c -0.1899,0.059 -0.39378,-0.0405 -0.45536,-0.22241 -0.0618,-0.18187 0.0421,-0.37705 0.23191,-0.43606 z m 0.0819,1.38124 0.35337,0.46549 c 0.11734,0.15482 0.0815,0.37117 -0.0799,0.48372 -0.16151,0.11225 -0.38761,0.0779 -0.50497,-0.0767 l -0.32918,-0.43369 c -0.0983,-0.13185 -0.25874,-0.21804 -0.44072,-0.21804 -0.17525,0 -0.33057,0.0799 -0.42975,0.20349 l -0.34014,0.44824 c -0.11734,0.15466 -0.34344,0.18897 -0.50496,0.0767 -0.16148,-0.11255 -0.1973,-0.3289 -0.08,-0.48372 l 0.33641,-0.44316 c 0.4116,-0.5375 1.19969,-0.65615 1.76343,-0.26402 0.10023,0.0696 0.18443,0.15228 0.25642,0.24169 z m -1.00145,-2.80811 c 0.19963,0 0.36148,0.15498 0.36148,0.34615 v 0.54086 c 0,0.66917 -0.56638,1.21153 -1.26516,1.21153 -0.13093,0 -0.2568,-0.0203 -0.37577,-0.0557 l -0.55118,-0.17139 c -0.18972,-0.0591 -0.29369,-0.25457 -0.23209,-0.43626 0.0618,-0.18183 0.26563,-0.28142 0.45556,-0.22224 l 0.54855,0.17072 c 0.0492,0.0141 0.10094,0.0227 0.15493,0.0227 0.29953,0 0.5422,-0.23256 0.5422,-0.51922 v -0.54087 c 0,-0.19117 0.16185,-0.34616 0.36148,-0.34616 z m 2.83101,7.61538 c -0.2148,0 -0.40911,-0.0828 -0.55068,-0.21701 l -1.76918,-1.69393 c -0.14121,-0.13522 -0.32615,-0.16598 -0.51115,-0.16598 -0.18499,0 -0.37012,0.0307 -0.51115,0.16598 l -1.76918,1.69393 c -0.14156,0.1342 -0.33591,0.21701 -0.5507,0.21701 -0.43278,0 -0.78365,-0.33602 -0.78365,-0.75046 v -8.94184 c 0,-0.76467 0.6474,-1.38462 1.44588,-1.38462 h 3.97613 c 0.19963,0 0.36148,0.15499 0.36148,0.34615 0,0.19117 -0.16185,0.34615 -0.36148,0.34615 h -3.97613 c -0.39923,0 -0.72296,0.30998 -0.72296,0.69232 v 8.70794 c 0,0.0957 0.0809,0.17306 0.18076,0.17306 0.0473,0 0.0895,-0.0182 0.12176,-0.0466 l 1.56682,-1.50057 c 0.28236,-0.27046 0.6523,-0.41073 1.02242,-0.41073 0.36994,0 0.74007,0.14027 1.02245,0.41071 l 1.56695,1.50057 c 0.032,0.0282 0.0743,0.0466 0.1216,0.0466 0.0999,0 0.18075,-0.0774 0.18075,-0.17306 v -6.97715 c 0,-0.19116 0.16186,-0.34615 0.36146,-0.34615 0.19963,0 0.36148,0.15499 0.36148,0.34615 v 7.21108 c 0,0.41444 -0.35088,0.75046 -0.78368,0.75046 z m 0.24147,-9.86539 c -0.19963,0 -0.36148,-0.15499 -0.36148,-0.34614 0,-0.19117 0.16185,-0.34617 0.36148,-0.34617 0.1996,0 0.36148,0.155 0.36148,0.34617 0,0.19115 -0.16188,0.34614 -0.36148,0.34614 z"
       id="path2"
       style="fill:url(#linearGradient1203);fill-opacity:1;stroke-width:0.0221081" />
  </g>
</svg>
