<?xml version="1.0" encoding="UTF-8" standalone="no"?>
<svg
   width="32"
   version="1.1"
   height="32"
   viewBox="0 0 32 32"
   id="svg17"
   sodipodi:docname="folder-development.svg"
   inkscape:version="1.1.1 (3bf5ae0d25, 2021-09-20)"
   xmlns:inkscape="http://www.inkscape.org/namespaces/inkscape"
   xmlns:sodipodi="http://sodipodi.sourceforge.net/DTD/sodipodi-0.dtd"
   xmlns:xlink="http://www.w3.org/1999/xlink"
   xmlns="http://www.w3.org/2000/svg"
   xmlns:svg="http://www.w3.org/2000/svg"
   xmlns:rdf="http://www.w3.org/1999/02/22-rdf-syntax-ns#"
   xmlns:cc="http://creativecommons.org/ns#"
   xmlns:dc="http://purl.org/dc/elements/1.1/">
  <sodipodi:namedview
     pagecolor="#ffffff"
     bordercolor="#666666"
     borderopacity="1"
     objecttolerance="10"
     gridtolerance="10"
     guidetolerance="10"
     inkscape:pageopacity="0"
     inkscape:pageshadow="2"
     inkscape:window-width="1920"
     inkscape:window-height="1007"
     id="namedview19"
     showgrid="false"
     inkscape:zoom="9.8125"
     inkscape:cx="-9.3757962"
     inkscape:cy="5.4522293"
     inkscape:window-x="0"
     inkscape:window-y="0"
     inkscape:window-maximized="1"
     inkscape:current-layer="layer1"
     inkscape:document-rotation="0"
     showguides="false"
     inkscape:guide-bbox="true"
     inkscape:pagecheckerboard="0">
    <sodipodi:guide
       position="-20.382166,30.980892"
       orientation="0,-1"
       id="guide903" />
  </sodipodi:namedview>
  <defs
     id="defs5455">
    <linearGradient
       inkscape:collect="always"
       xlink:href="#linearGradient940"
       id="linearGradient2232"
       x1="384.57144"
       y1="515.79797"
       x2="448.57144"
       y2="515.79797"
       gradientUnits="userSpaceOnUse"
       gradientTransform="matrix(0.46875,0,0,0.46153837,205.30357,293.73743)" />
    <linearGradient
       inkscape:collect="always"
       id="linearGradient940">
      <stop
         style="stop-color:#3683b5;stop-opacity:1"
         offset="0"
         id="stop934" />
      <stop
         style="stop-color:#00ecec;stop-opacity:1"
         offset="0.50507295"
         id="stop936" />
      <stop
         style="stop-color:#ff65ff;stop-opacity:1"
         offset="1"
         id="stop938" />
    </linearGradient>
    <linearGradient
       inkscape:collect="always"
       xlink:href="#linearGradient940"
       id="linearGradient1501"
       gradientUnits="userSpaceOnUse"
       gradientTransform="matrix(0.41015625,0,0,0.40384607,237.32923,326.78345)"
       x1="402.57144"
       y1="520.79797"
       x2="430"
       y2="520.79797" />
    <linearGradient
       inkscape:collect="always"
       xlink:href="#linearGradient2230"
       id="linearGradient1503"
       gradientUnits="userSpaceOnUse"
       gradientTransform="matrix(0.41015625,0,0,0.40384607,237.32923,326.78345)"
       x1="410.89111"
       y1="524.22662"
       x2="421.53799"
       y2="524.22662" />
    <linearGradient
       inkscape:collect="always"
       id="linearGradient2230">
      <stop
         style="stop-color:#4e99ca;stop-opacity:0.80000001"
         offset="0"
         id="stop2226" />
      <stop
         style="stop-color:#20ffff;stop-opacity:0.80000001"
         offset="0.50507295"
         id="stop2332" />
      <stop
         style="stop-color:#ffaeff;stop-opacity:0.69"
         offset="1"
         id="stop2228" />
    </linearGradient>
  </defs>
  <metadata
     id="metadata5458">
    <rdf:RDF>
      <cc:Work
         rdf:about="">
        <dc:format>image/svg+xml</dc:format>
        <dc:type
           rdf:resource="http://purl.org/dc/dcmitype/StillImage" />
      </cc:Work>
    </rdf:RDF>
  </metadata>
  <g
     inkscape:label="Capa 1"
     inkscape:groupmode="layer"
     id="layer1"
     transform="translate(-384.57143,-515.798)">
    <rect
       style="fill:#3b445f;fill-opacity:1;stroke:none;stroke-width:0.586901"
       id="center-3"
       width="28.21875"
       height="19.384611"
       x="386.46207"
       y="523.49036"
       ry="1.8461516"
       rx="1.8812554" />
    <path
       d="m 412.83717,522.5717 h -13.7469 c -0.30383,0 -0.56951,-0.15398 -0.75942,-0.42377 l -1.02539,-1.5408 c -0.34172,-0.53931 -0.91147,-0.80913 -1.51886,-0.80913 h -7.02535 c -1.74698,0 -3.18982,1.46396 -3.18982,3.2359 v 17.99041 c 0,1.50242 1.21533,2.77369 2.73419,2.77369 h 11.81018 v 0 0 0 0 0 0 0 h 0.91126 v 0 0 0 0 0 0 0 0 0 h 11.81018 c 1.48102,0 2.73419,-1.23289 2.73419,-2.77369 V 525.3453 c 0,-1.5408 -1.21506,-2.77341 -2.73419,-2.77341 z m -11.81011,21.2263 v 0 h -0.91126 v 0 0 z m 13.6329,-2.7736 c 0,1.00153 -0.7976,1.84905 -1.82272,1.84905 h -24.53176 c -0.98728,0 -1.82272,-0.84752 -1.82272,-1.84905 l -2.7e-4,-6.20226 v -3.5057 c 0,-1.00155 0.83545,-1.84905 1.82272,-1.84905 h 13.7469 c 0.60766,0 1.17715,-0.30823 1.51886,-0.80914 l 0.98728,-1.54079 c 0.18993,-0.2311 0.45561,-0.42378 0.75943,-0.42378 h 7.06332 c 1.25317,0 2.27863,1.04021 2.27863,2.31155 v 5.04649 z m -2.27862,-15.21674 h -7.06332 c -0.60766,0 -1.17716,0.30822 -1.51886,0.80913 l -0.98728,1.5408 c -0.15178,0.26979 -0.45562,0.42377 -0.75943,0.42377 h -13.7468 c -0.68341,0 -1.32812,0.0783 -1.82297,0.78572 v -4.03062 c 0,-0.92308 0.96375,-1.84615 1.90125,-1.84615 h 7.50001 l 0.0201,0.0214 1.38614,-0.0214 1.838,0.006 h 13.7469 c 0.98728,0 1.82273,0.84751 1.82273,1.84905 v 1.4253 c -0.6074,-0.61617 -1.40474,-0.96281 -2.3162,-0.96281 z"
       id="path64"
       sodipodi:nodetypes="csccsssssccccccccccccccccccsssccccccccccssccsssccssscccsccscccccccssscc"
       style="fill:url(#linearGradient2232);fill-opacity:1;stroke-width:0.0683002" />
    <path
       fill-rule="evenodd"
       clip-rule="evenodd"
       d="m 403.85268,533.99031 c 0,-0.19118 0.1574,-0.34616 0.35157,-0.34616 0.19415,0 0.35155,0.15498 0.35155,0.34616 0,0.19117 -0.1574,0.34615 -0.35155,0.34615 -0.19417,0 -0.35157,-0.15498 -0.35157,-0.34615 z m 1.40625,0 c 0,-0.19118 0.1574,-0.34616 0.35156,-0.34616 0.19416,0 0.35156,0.15498 0.35156,0.34616 0,0.19117 -0.1574,0.34615 -0.35156,0.34615 -0.19416,0 -0.35156,-0.15498 -0.35156,-0.34615 z m 1.40625,0 c 0,-0.19118 0.1574,-0.34616 0.35157,-0.34616 0.19415,0 0.35155,0.15498 0.35155,0.34616 0,0.19117 -0.1574,0.34615 -0.35155,0.34615 -0.19417,0 -0.35157,-0.15498 -0.35157,-0.34615 z m 7.03125,1.90388 v 4.67304 c 0,0.7647 -0.6296,1.38461 -1.40625,1.38461 h -8.4375 c -0.77665,0 -1.40625,-0.61991 -1.40625,-1.38461 v -3.80769 c 0,-0.19118 0.1574,-0.34616 0.35156,-0.34616 0.19416,0 0.35157,0.15498 0.35157,0.34616 v 3.80769 c 0,0.38235 0.3148,0.6923 0.70312,0.6923 h 8.4375 c 0.38832,0 0.70312,-0.30995 0.70312,-0.6923 v -4.50001 c 0,-0.19117 -0.15739,-0.34615 -0.35155,-0.34615 h -9.31638 c -0.48554,0 -0.87894,-0.38734 -0.87894,-0.86542 v -1.2115 c 0,-0.7647 0.6296,-1.38461 1.40625,-1.38461 h 8.4375 c 0.77665,0 1.40625,0.61991 1.40625,1.38461 v 0.34616 c 0,0.19117 -0.1574,0.34615 -0.35156,0.34615 -0.19416,0 -0.35157,-0.15498 -0.35157,-0.34615 v -0.34616 c 0,-0.38235 -0.3148,-0.6923 -0.70312,-0.6923 h -8.4375 c -0.38832,0 -0.70312,0.30995 -0.70312,0.6923 v 1.03847 c 0,0.19117 0.15739,0.34615 0.35155,0.34615 h 9.31638 c 0.48554,0 0.87894,0.38735 0.87894,0.86542 z"
       id="path2-7"
       style="fill:url(#linearGradient1501);fill-opacity:1;stroke-width:0.0218032" />
    <path
       fill-rule="evenodd"
       clip-rule="evenodd"
       d="m 409.74384,539.0212 c -3.1e-4,2.5e-4 -10e-4,9.2e-4 -0.002,9.2e-4 -0.0574,0.0187 -0.0989,0.0726 -0.0989,0.1357 v 1.4826 c 0,0.0792 -0.0651,0.14337 -0.14561,0.14337 -0.0802,0 -0.14534,-0.0642 -0.14534,-0.14337 v -1.4826 c 0,-0.18626 0.12044,-0.34511 0.28907,-0.40472 0.002,-9.2e-4 0.005,-0.002 0.006,-0.004 0.1672,-0.0604 0.28712,-0.21709 0.28712,-0.4026 0,-0.1186 -0.0486,-0.22599 -0.12748,-0.30358 -0.0271,-0.0266 -0.0429,-0.062 -0.0429,-0.10174 0,-0.0791 0.0652,-0.14331 0.14563,-0.14331 0.0423,0 0.0807,0.0178 0.10721,0.047 0.12879,0.1294 0.20883,0.30602 0.20883,0.5016 0,0.31087 -0.20078,0.57482 -0.48187,0.67425 z m -0.38935,-1.08013 c -0.002,9.3e-4 -0.005,0.002 -0.006,0.004 -0.16726,0.0602 -0.2871,0.21694 -0.2871,0.40247 0,0.1188 0.0489,0.2263 0.1279,0.3041 0.0268,0.0264 0.0423,0.0618 0.0423,0.10133 0,0.0792 -0.0651,0.14323 -0.14548,0.14323 -0.0416,0 -0.0795,-0.0172 -0.10615,-0.0457 -0.12959,-0.12954 -0.20998,-0.30674 -0.20998,-0.50301 0,-0.3106 0.20062,-0.57399 0.48145,-0.67365 9.4e-4,-3.9e-4 0.002,-0.001 0.002,-0.001 0.0574,-0.0187 0.0988,-0.0727 0.0988,-0.13594 v -0.62252 c 0,-0.079 0.0651,-0.14332 0.14545,-0.14332 0.0804,0 0.14548,0.0643 0.14548,0.14332 v 0.62254 c -1e-5,0.18665 -0.1204,0.34534 -0.28899,0.40495 z m 0.14342,-1.45746 c -0.0804,0 -0.14545,-0.0641 -0.14545,-0.14323 0,-0.0793 0.0651,-0.14339 0.14545,-0.14339 0.0805,0 0.14561,0.0641 0.14561,0.14339 0,0.0791 -0.0651,0.14323 -0.14561,0.14323 z m -1.2094,3.68404 c -9.3e-4,2.6e-4 -10e-4,9.2e-4 -0.002,9.2e-4 -0.0574,0.0186 -0.099,0.0727 -0.099,0.13571 v 0.3359 c 0,0.0793 -0.0652,0.14339 -0.14558,0.14339 -0.0804,0 -0.14546,-0.0641 -0.14546,-0.14339 v -0.3359 c 0,-0.18633 0.12048,-0.34512 0.28905,-0.40471 0.002,-9.2e-4 0.005,-0.002 0.007,-0.004 0.16704,-0.0605 0.28702,-0.21718 0.28702,-0.40261 0,-0.11859 -0.0486,-0.22598 -0.12739,-0.30357 -0.0272,-0.0266 -0.043,-0.062 -0.043,-0.10181 0,-0.0792 0.0652,-0.14323 0.14565,-0.14323 0.0423,0 0.0806,0.0178 0.10714,0.047 0.12891,0.12936 0.209,0.30602 0.209,0.50159 -10e-6,0.31065 -0.20082,0.57474 -0.48165,0.67402 z m -0.38975,-1.07996 c -0.003,9.2e-4 -0.005,0.003 -0.006,0.004 -0.16673,0.0604 -0.28659,0.21697 -0.28659,0.40231 0,0.11873 0.0489,0.2263 0.12791,0.30403 0.0269,0.0264 0.0424,0.0619 0.0424,0.1014 0,0.0791 -0.0651,0.14321 -0.14555,0.14321 -0.0404,0 -0.0778,-0.0167 -0.10433,-0.0437 -0.13083,-0.12945 -0.2118,-0.30771 -0.2118,-0.50486 0,-0.31067 0.20074,-0.57413 0.48149,-0.67372 9.4e-4,-3.6e-4 0.002,-0.001 0.002,-0.001 0.0574,-0.0186 0.0989,-0.0726 0.0989,-0.13575 v -2.34246 c 0,-0.0793 0.0651,-0.14337 0.14537,-0.14337 0.0804,0 0.14554,0.0641 0.14554,0.14337 v 2.34245 c -1e-5,0.18658 -0.12041,0.34536 -0.28897,0.40481 z m -1.0659,-0.64008 c -9.4e-4,2.4e-4 -10e-4,9.2e-4 -0.002,9.2e-4 -0.0574,0.0189 -0.099,0.0727 -0.099,0.13571 v 2.05595 c 0,0.0793 -0.0651,0.14339 -0.14535,0.14339 -0.0806,0 -0.14566,-0.0641 -0.14566,-0.14339 v -2.05595 c 0,-0.18637 0.12048,-0.34512 0.28909,-0.40472 0.002,-9.2e-4 0.005,-0.002 0.006,-0.004 0.16703,-0.0603 0.28698,-0.21694 0.28698,-0.40247 0,-0.1188 -0.0489,-0.22629 -0.12799,-0.30397 -0.027,-0.0266 -0.0423,-0.0618 -0.0423,-0.10146 0,-0.0791 0.0651,-0.14336 0.14557,-0.14336 0.0416,0 0.0795,0.0173 0.10606,0.0458 0.12964,0.12953 0.2101,0.30675 0.2101,0.503 0,0.31074 -0.201,0.57452 -0.48159,0.67389 z m -0.38979,-1.07989 c -0.003,9.2e-4 -0.005,0.002 -0.006,0.004 -0.1672,0.0605 -0.28712,0.21709 -0.28712,0.40263 0,0.11877 0.0489,0.22614 0.12796,0.30386 0.0268,0.0264 0.0423,0.0619 0.0423,0.10142 0,0.0791 -0.0651,0.14333 -0.14546,0.14333 -0.0414,0 -0.0792,-0.0174 -0.10577,-0.0453 -0.13003,-0.12919 -0.21042,-0.30705 -0.21042,-0.50331 0,-0.31073 0.20067,-0.57465 0.48161,-0.67404 9.4e-4,-2.8e-4 10e-4,-9.2e-4 0.002,-9.2e-4 0.0574,-0.0187 0.0988,-0.0728 0.0988,-0.13571 v -0.62262 c 0,-0.0793 0.0651,-0.14339 0.14552,-0.14339 0.0804,0 0.14544,0.0641 0.14544,0.14339 v 0.62262 c 1e-5,0.18629 -0.12039,0.34512 -0.28899,0.40472 z"
       id="path2-3-5"
       style="fill:url(#linearGradient1503);fill-opacity:1;stroke-width:0.00902736" />
  </g>
</svg>
