<?xml version="1.0" encoding="UTF-8" standalone="no"?>
<svg
   width="32"
   version="1.1"
   height="32"
   viewBox="0 0 32 32"
   id="svg15"
   sodipodi:docname="folder-build.svg"
   inkscape:version="1.1.1 (3bf5ae0d25, 2021-09-20)"
   xmlns:inkscape="http://www.inkscape.org/namespaces/inkscape"
   xmlns:sodipodi="http://sodipodi.sourceforge.net/DTD/sodipodi-0.dtd"
   xmlns:xlink="http://www.w3.org/1999/xlink"
   xmlns="http://www.w3.org/2000/svg"
   xmlns:svg="http://www.w3.org/2000/svg"
   xmlns:rdf="http://www.w3.org/1999/02/22-rdf-syntax-ns#"
   xmlns:cc="http://creativecommons.org/ns#"
   xmlns:dc="http://purl.org/dc/elements/1.1/">
  <sodipodi:namedview
     pagecolor="#ffffff"
     bordercolor="#666666"
     borderopacity="1"
     objecttolerance="10"
     gridtolerance="10"
     guidetolerance="10"
     inkscape:pageopacity="0"
     inkscape:pageshadow="2"
     inkscape:window-width="1920"
     inkscape:window-height="1007"
     id="namedview17"
     showgrid="false"
     inkscape:zoom="9.8125"
     inkscape:cx="-12.942675"
     inkscape:cy="6.5732484"
     inkscape:window-x="0"
     inkscape:window-y="0"
     inkscape:window-maximized="1"
     inkscape:current-layer="layer1"
     inkscape:document-rotation="0"
     inkscape:pagecheckerboard="0" />
  <defs
     id="defs5455">
    <linearGradient
       inkscape:collect="always"
       xlink:href="#linearGradient2230"
       id="linearGradient2232"
       x1="384.57144"
       y1="515.79797"
       x2="448.57144"
       y2="515.79797"
       gradientUnits="userSpaceOnUse"
       gradientTransform="matrix(0.46875,0,0,0.46153837,205.30357,293.73743)" />
    <linearGradient
       inkscape:collect="always"
       id="linearGradient2230">
      <stop
         style="stop-color:#4e99ca;stop-opacity:0.80000001"
         offset="0"
         id="stop2226" />
      <stop
         style="stop-color:#20ffff;stop-opacity:0.80000001"
         offset="0.50507295"
         id="stop2332" />
      <stop
         style="stop-color:#ffaeff;stop-opacity:0.69"
         offset="1"
         id="stop2228" />
    </linearGradient>
    <linearGradient
       inkscape:collect="always"
       xlink:href="#linearGradient2230"
       id="linearGradient1191"
       gradientUnits="userSpaceOnUse"
       gradientTransform="matrix(0.39609654,0,0,0.39000267,244.1194,333.70837)"
       x1="399.72342"
       y1="521.52008"
       x2="411.72385"
       y2="521.52008" />
    <linearGradient
       inkscape:collect="always"
       xlink:href="#linearGradient2230"
       id="linearGradient1193"
       gradientUnits="userSpaceOnUse"
       gradientTransform="matrix(0.39609654,0,0,0.39000267,244.1194,333.70837)"
       x1="416.12143"
       y1="517.82312"
       x2="428.12183"
       y2="517.82312" />
    <linearGradient
       inkscape:collect="always"
       xlink:href="#linearGradient2230"
       id="linearGradient1195"
       gradientUnits="userSpaceOnUse"
       gradientTransform="matrix(0.39609654,0,0,0.39000267,244.1194,333.70837)"
       x1="409.74146"
       y1="527.7981"
       x2="421.74188"
       y2="527.7981" />
  </defs>
  <metadata
     id="metadata5458">
    <rdf:RDF>
      <cc:Work
         rdf:about="">
        <dc:format>image/svg+xml</dc:format>
        <dc:type
           rdf:resource="http://purl.org/dc/dcmitype/StillImage" />
      </cc:Work>
    </rdf:RDF>
  </metadata>
  <g
     inkscape:label="Capa 1"
     inkscape:groupmode="layer"
     id="layer1"
     transform="translate(-384.57143,-515.798)">
    <rect
       style="fill:#3b445f;fill-opacity:1;stroke:none;stroke-width:0.586901"
       id="center-3"
       width="28.21875"
       height="19.384611"
       x="386.46207"
       y="523.49054"
       ry="1.8461516"
       rx="1.8812554" />
    <path
       d="m 412.83717,522.5717 h -13.7469 c -0.30383,0 -0.56951,-0.15398 -0.75942,-0.42377 l -1.02539,-1.5408 c -0.34172,-0.53931 -0.91147,-0.80913 -1.51886,-0.80913 h -7.02535 c -1.74698,0 -3.18982,1.46396 -3.18982,3.2359 v 17.99041 c 0,1.50242 1.21533,2.77369 2.73419,2.77369 h 11.81018 v 0 0 0 0 0 0 0 h 0.91126 v 0 0 0 0 0 0 0 0 0 h 11.81018 c 1.48102,0 2.73419,-1.23289 2.73419,-2.77369 V 525.3453 c 0,-1.5408 -1.21506,-2.77341 -2.73419,-2.77341 z m -11.81011,21.2263 v 0 h -0.91126 v 0 0 z m 13.6329,-2.7736 c 0,1.00153 -0.7976,1.84905 -1.82272,1.84905 h -24.53176 c -0.98728,0 -1.82272,-0.84752 -1.82272,-1.84905 l -2.7e-4,-6.20226 v -3.5057 c 0,-1.00155 0.83545,-1.84905 1.82272,-1.84905 h 13.7469 c 0.60766,0 1.17715,-0.30823 1.51886,-0.80914 l 0.98728,-1.54079 c 0.18993,-0.2311 0.45561,-0.42378 0.75943,-0.42378 h 7.06332 c 1.25317,0 2.27863,1.04021 2.27863,2.31155 v 5.04649 z m -2.27862,-15.21674 h -7.06332 c -0.60766,0 -1.17716,0.30822 -1.51886,0.80913 l -0.98728,1.5408 c -0.15178,0.26979 -0.45562,0.42377 -0.75943,0.42377 h -13.7468 c -0.68341,0 -1.32812,0.0783 -1.82297,0.78572 v -4.03062 c 0,-0.92308 0.96375,-1.84615 1.90125,-1.84615 h 7.50001 l 0.0201,0.0214 1.38614,-0.0214 1.838,0.006 h 13.7469 c 0.98728,0 1.82273,0.84751 1.82273,1.84905 v 1.4253 c -0.6074,-0.61617 -1.40474,-0.96281 -2.3162,-0.96281 z"
       id="path64"
       sodipodi:nodetypes="csccsssssccccccccccccccccccsssccccccccccssccsssccssscccsccscccccccssscc"
       style="fill:url(#linearGradient2232);fill-opacity:1;stroke-width:0.0683002" />
    <path
       fill-rule="evenodd"
       clip-rule="evenodd"
       d="m 406.66082,536.52247 c 0.003,0 0.005,-10e-4 0.006,-0.002 0.29991,0.0286 0.53468,0.27836 0.53468,0.58157 0,0.30383 -0.23507,0.55349 -0.53612,0.58219 -4.1e-4,0.002 -0.002,0.003 -0.002,0.005 -0.003,-1.5e-4 -0.005,-10e-4 -0.006,-10e-4 -0.0757,0 -0.16004,0.0137 -0.19137,0.0878 -0.0309,0.0747 0.0134,0.13984 0.0711,0.19681 0.002,0.002 0.005,0.003 0.006,0.005 0.18974,0.22966 0.179,0.56646 -0.0388,0.78055 -0.21724,0.21393 -0.55956,0.2248 -0.79289,0.0384 -0.004,0.002 -0.007,0.003 -0.0106,0.005 -0.002,-0.002 -0.002,-0.005 -0.005,-0.006 -0.0537,-0.0527 -0.12256,-0.10214 -0.19836,-0.071 -0.0759,0.0304 -0.091,0.10769 -0.091,0.18851 0,0.007 0.002,0.0144 0.005,0.0201 -0.038,0.28792 -0.2853,0.51101 -0.58796,0.51101 -0.3081,0 -0.56127,-0.23095 -0.59126,-0.52659 -0.004,-10e-4 -0.006,-0.004 -0.009,-0.005 1.1e-4,-0.002 9.3e-4,-0.003 9.3e-4,-0.005 0,-0.0746 -0.0138,-0.15739 -0.0891,-0.18826 -0.0758,-0.0306 -0.14202,0.0132 -0.19997,0.07 -0.004,0.004 -0.006,0.007 -0.007,0.0118 -0.23303,0.17968 -0.56942,0.16725 -0.78378,-0.0439 -0.21774,-0.21439 -0.22842,-0.55186 -0.0384,-0.78169 -0.002,-0.005 -0.004,-0.008 -0.005,-0.0128 0.0535,-0.0527 0.10348,-0.12054 0.0721,-0.19509 -0.0311,-0.0745 -0.10965,-0.0897 -0.19169,-0.0897 -0.006,0 -0.01,0.002 -0.0159,0.004 -0.29221,-0.0371 -0.5187,-0.28119 -0.5187,-0.57888 0,-0.3045 0.23617,-0.55421 0.53802,-0.58215 9.3e-4,-0.003 0.003,-0.005 0.004,-0.007 0.0746,-9.2e-4 0.15623,-0.015 0.18699,-0.0877 0.0309,-0.0744 -0.013,-0.13924 -0.0707,-0.19621 -0.19009,-0.22954 -0.17942,-0.56673 0.0388,-0.78097 0.21837,-0.21516 0.56324,-0.22509 0.79656,-0.0354 0.003,-10e-4 0.006,-0.002 0.007,-0.003 0.0531,0.0515 0.12071,0.0982 0.19491,0.068 0.0758,-0.0305 0.091,-0.10797 0.091,-0.18867 0,-3e-4 -1.6e-4,-3.9e-4 -1.6e-4,-9.3e-4 0.0294,-0.29541 0.28262,-0.52608 0.59057,-0.52608 0.30977,0 0.56371,0.23324 0.59139,0.53101 9.3e-4,2.2e-4 10e-4,9.2e-4 0.002,9.2e-4 0,0.0172 9.4e-4,0.0359 0.004,0.0531 h -0.002 c 0,0.0807 -0.0664,0.14632 -0.1485,0.14632 -0.0819,0 -0.14841,-0.0656 -0.14841,-0.14632 0,-0.16161 -0.1331,-0.2925 -0.29716,-0.2925 -0.16412,0 -0.29708,0.13089 -0.29708,0.2925 v 0.14632 l -9.3e-4,10e-4 c 0.003,0.0967 -0.0598,0.18696 -0.15833,0.2158 -0.003,9.3e-4 -0.005,9.3e-4 -0.007,0.002 l -0.002,0.003 c -0.0695,0.0232 -0.13692,0.0504 -0.20163,0.0827 l -0.005,-9.3e-4 c -0.003,0.001 -0.005,0.004 -0.006,0.005 -0.0961,0.0512 -0.2133,0.0262 -0.27929,-0.0556 l -0.0927,-0.0911 c -0.1161,-0.11425 -0.30423,-0.11425 -0.42013,0 -0.11599,0.11425 -0.11599,0.29952 0,0.41364 l 0.10501,0.10345 9.4e-4,0.005 c 0.0695,0.0668 0.0895,0.17252 0.0404,0.26078 -9.3e-4,10e-4 -0.002,0.003 -0.003,0.005 l 9.4e-4,0.005 c -0.0321,0.0638 -0.0606,0.13017 -0.0838,0.19873 l -0.005,0.004 c -9.4e-4,0.003 -9.4e-4,0.005 -0.002,0.007 -0.0311,0.1044 -0.13504,0.16753 -0.24107,0.1545 h -0.12568 c -0.16411,0 -0.29714,0.13107 -0.29714,0.29254 0,0.16141 0.13303,0.29253 0.29714,0.29253 h 0.1484 l 0.005,0.004 c 0.0961,-1.5e-4 0.18508,0.0605 0.21393,0.15581 3e-4,9.3e-4 3e-4,0.002 4.1e-4,0.003 l 0.006,0.005 c 0.0235,0.0684 0.0514,0.13483 0.084,0.19852 l -0.001,0.008 c 0.001,0.002 0.003,0.004 0.004,0.005 0.052,0.0946 0.0266,0.20996 -0.0564,0.27494 l -0.0902,0.089 c -0.11598,0.11412 -0.11598,0.29936 0,0.41362 0.11588,0.11411 0.30401,0.11411 0.42013,0 l 0.1051,-0.10339 0.005,-9.3e-4 c 0.0677,-0.0665 0.17393,-0.0853 0.26249,-0.0383 9.4e-4,2.6e-4 9.4e-4,9.2e-4 0.002,10e-4 l 0.009,-0.002 c 0.0648,0.0316 0.1322,0.0597 0.20183,0.0826 l 0.006,0.007 c 9.4e-4,2.8e-4 0.002,2.8e-4 0.004,9.2e-4 0.097,0.028 0.15861,0.11628 0.15831,0.21124 l 9.4e-4,10e-4 v 0.14627 c 0,0.16153 0.13295,0.2925 0.29707,0.2925 0.16406,0 0.29715,-0.13097 0.29715,-0.2925 v -0.1464 l 9.4e-4,-10e-4 c -2.8e-4,-0.095 0.0613,-0.18281 0.15834,-0.21123 10e-4,-3.9e-4 0.002,-3.9e-4 0.004,-9.2e-4 l 0.006,-0.007 c 0.0695,-0.0232 0.13687,-0.0504 0.20161,-0.0827 l 0.01,0.002 c 4.1e-4,-2.8e-4 9.4e-4,-9.3e-4 0.002,-10e-4 0.0885,-0.0472 0.19473,-0.028 0.26245,0.0385 l 0.005,9.2e-4 0.10509,0.10341 c 0.11589,0.11413 0.30403,0.11413 0.42015,0 0.11598,-0.11426 0.11598,-0.29951 0,-0.41362 l -0.0903,-0.089 c -0.0824,-0.065 -0.10835,-0.18039 -0.0563,-0.27494 9.4e-4,-0.002 0.002,-0.004 0.004,-0.005 l -0.002,-0.009 c 0.0321,-0.0637 0.0609,-0.12924 0.0838,-0.1975 l 0.006,-0.005 c 2.1e-4,-9.2e-4 3.7e-4,-0.002 4.1e-4,-0.003 0.0285,-0.0953 0.11769,-0.15583 0.2138,-0.15583 l 0.005,-0.004 h 0.1486 c 0.16414,0 0.29707,-0.13112 0.29707,-0.29255 0,-0.16146 -0.13293,-0.2925 -0.29707,-0.2925 h -0.12573 c -0.1062,0.0133 -0.20955,-0.0501 -0.24103,-0.15454 -9.4e-4,-0.003 -9.4e-4,-0.006 -0.002,-0.007 l -0.005,-0.004 c -0.0234,-0.0684 -0.0514,-0.13484 -0.0839,-0.19837 l 9.4e-4,-0.006 c -9.4e-4,-0.002 -0.002,-0.003 -0.003,-0.005 -0.0485,-0.0883 -0.0282,-0.19395 0.0404,-0.26078 l 9.4e-4,-0.005 0.10507,-0.10346 c 0.11599,-0.11413 0.11599,-0.29935 0,-0.41362 -0.0551,-0.0541 -0.13576,-0.0851 -0.20793,-0.0878 -0.0821,0 -0.14861,-0.0654 -0.14861,-0.14624 0,-0.0808 0.0665,-0.14626 0.14861,-0.14626 0.0106,0 0.0207,10e-4 0.0306,0.004 0.13967,0.009 0.28053,0.0655 0.38683,0.17032 0.21824,0.2148 0.22861,0.55359 0.0371,0.78331 9.4e-4,10e-4 9.4e-4,0.004 0.002,0.005 -9.4e-4,9.3e-4 -0.002,9.3e-4 -0.003,0.002 -0.0536,0.0529 -0.1037,0.1207 -0.0723,0.19547 0.0308,0.0746 0.10955,0.0896 0.1915,0.0896 z m -1.01863,-0.73613 c -0.0821,0 -0.14852,-0.0655 -0.14852,-0.1463 0,-0.0806 0.0664,-0.14611 0.14852,-0.14611 0.0819,0 0.1484,0.0655 0.1484,0.14611 0,0.0808 -0.0665,0.1463 -0.1484,0.1463 z m -1.49536,2.62185 0.0112,-2.8e-4 v 0 z m 0.21301,0.0823 v 0 l 0.009,0.008 -0.009,-0.008 v 0 0 0 0 0 l 0.009,0.008 z"
       id="path2-75"
       sodipodi:nodetypes="scsccsccccccccscsccscccccccscsccccccccscsccccsssscccccccccccccccccccccsssccccccccccccccccccccccsssccccccccccccccccccccccsssccccccccccccssccccccsssssscccccccccccccccc"
       style="fill:url(#linearGradient1191);fill-opacity:1;stroke-width:0.00921187" />
    <path
       fill-rule="evenodd"
       clip-rule="evenodd"
       d="m 413.15601,535.08061 c 0.003,0 0.005,-10e-4 0.006,-0.002 0.29993,0.0285 0.53468,0.27837 0.53468,0.58157 0,0.30383 -0.23507,0.55348 -0.5361,0.58219 -4.1e-4,0.002 -0.002,0.003 -0.002,0.005 -0.003,-1.4e-4 -0.005,-0.001 -0.006,-0.001 -0.0757,0 -0.16006,0.0137 -0.19137,0.0878 -0.0309,0.0747 0.0134,0.13983 0.0711,0.19682 0.002,0.002 0.005,0.003 0.006,0.005 0.18972,0.22965 0.17899,0.56643 -0.0388,0.78053 -0.21725,0.21394 -0.55955,0.22479 -0.7929,0.0385 -0.004,0.002 -0.007,0.003 -0.0106,0.005 -0.002,-0.002 -0.002,-0.005 -0.005,-0.006 -0.0537,-0.0527 -0.12257,-0.10211 -0.19838,-0.071 -0.0759,0.0304 -0.091,0.10767 -0.091,0.1885 0,0.007 0.002,0.0144 0.005,0.0201 -0.038,0.28792 -0.28531,0.51101 -0.58797,0.51101 -0.30809,0 -0.56128,-0.23095 -0.59124,-0.52657 -0.004,-10e-4 -0.006,-0.004 -0.009,-0.005 1.2e-4,-0.002 9.3e-4,-0.003 9.3e-4,-0.005 0,-0.0746 -0.0138,-0.15739 -0.0892,-0.18823 -0.0758,-0.0306 -0.14202,0.0132 -0.19997,0.07 -0.004,0.004 -0.006,0.007 -0.007,0.0118 -0.23306,0.17966 -0.56942,0.16724 -0.78381,-0.0439 -0.21773,-0.21439 -0.22838,-0.55188 -0.0385,-0.78169 -0.002,-0.005 -0.004,-0.008 -0.005,-0.0128 0.0535,-0.0527 0.10347,-0.12054 0.0721,-0.19509 -0.0311,-0.0745 -0.10966,-0.0897 -0.19168,-0.0897 -0.006,0 -0.01,0.002 -0.0159,0.004 -0.29222,-0.0371 -0.51871,-0.28116 -0.51871,-0.57885 0,-0.30451 0.23616,-0.55424 0.538,-0.58213 9.4e-4,-0.003 0.003,-0.006 0.004,-0.007 0.0746,-9.2e-4 0.15623,-0.015 0.18698,-0.0877 0.0309,-0.0744 -0.013,-0.13926 -0.0706,-0.19621 -0.1901,-0.22953 -0.17945,-0.56673 0.0388,-0.78099 0.21836,-0.21515 0.56322,-0.22508 0.79656,-0.0354 0.003,-10e-4 0.005,-0.002 0.007,-0.003 0.0531,0.0515 0.1207,0.0982 0.1949,0.068 0.0758,-0.0305 0.091,-0.10798 0.091,-0.18867 0,-2.7e-4 -1.3e-4,-3.8e-4 -1.3e-4,-9.3e-4 0.0294,-0.29541 0.28262,-0.52608 0.59057,-0.52608 0.30976,0 0.56368,0.23322 0.59138,0.53103 9.3e-4,1.7e-4 0.001,9.2e-4 0.002,9.2e-4 0,0.017 9.4e-4,0.0359 0.004,0.0531 h -0.002 c 0,0.0807 -0.0664,0.1463 -0.14853,0.1463 -0.0819,0 -0.14837,-0.0656 -0.14837,-0.1463 0,-0.16162 -0.13309,-0.29251 -0.29717,-0.29251 -0.16413,0 -0.29705,0.13089 -0.29705,0.29251 v 0.1463 l -9.4e-4,0.001 c 0.003,0.0967 -0.0598,0.18695 -0.15832,0.2158 -0.003,9.2e-4 -0.006,9.2e-4 -0.007,0.002 l -0.002,0.003 c -0.0695,0.0232 -0.13694,0.0504 -0.20162,0.0827 l -0.005,-9.2e-4 c -0.003,0.001 -0.005,0.004 -0.006,0.005 -0.0961,0.0512 -0.21331,0.0262 -0.27928,-0.0556 l -0.0926,-0.0912 c -0.1161,-0.11425 -0.30423,-0.11425 -0.42013,0 -0.11595,0.11426 -0.11595,0.29954 0,0.41362 l 0.10499,0.10348 9.4e-4,0.005 c 0.0695,0.0668 0.0895,0.17254 0.0404,0.26079 -9.4e-4,10e-4 -0.002,0.003 -0.003,0.005 l 9.4e-4,0.005 c -0.0321,0.0638 -0.0606,0.13016 -0.0839,0.19871 l -0.005,0.004 c -9.3e-4,0.003 -9.3e-4,0.005 -0.002,0.007 -0.0311,0.10439 -0.13503,0.16752 -0.24107,0.15454 h -0.12566 c -0.16415,0 -0.29715,0.13103 -0.29715,0.29248 0,0.16143 0.133,0.29255 0.29715,0.29255 h 0.14839 l 0.005,0.004 c 0.0961,-1.3e-4 0.18508,0.0606 0.21393,0.15584 3.2e-4,9.2e-4 3.2e-4,0.002 4.1e-4,0.003 l 0.006,0.005 c 0.0235,0.0684 0.0513,0.13484 0.084,0.19852 l -10e-4,0.008 c 10e-4,0.002 0.003,0.004 0.004,0.005 0.052,0.0945 0.0266,0.20994 -0.0564,0.27492 l -0.0902,0.089 c -0.11597,0.11412 -0.11597,0.29936 0,0.41362 0.11589,0.11414 0.30403,0.11414 0.42014,0 l 0.10512,-0.10339 0.005,-9.2e-4 c 0.0677,-0.0666 0.17391,-0.0853 0.26246,-0.0385 9.4e-4,2.8e-4 9.4e-4,9.2e-4 0.002,0.001 l 0.009,-0.002 c 0.0648,0.0316 0.13222,0.0597 0.20185,0.0825 l 0.006,0.007 c 9.3e-4,2.7e-4 0.002,2.7e-4 0.004,9.3e-4 0.0971,0.0278 0.15861,0.11626 0.15831,0.21122 l 9.3e-4,10e-4 v 0.14638 c 0,0.16154 0.13296,0.29251 0.29709,0.29251 0.16406,0 0.29714,-0.13097 0.29714,-0.29251 v -0.14639 l 9.4e-4,-10e-4 c -2.8e-4,-0.095 0.0613,-0.18284 0.15834,-0.21123 0.001,-4.2e-4 0.002,-4.2e-4 0.004,-9.3e-4 l 0.006,-0.007 c 0.0695,-0.0232 0.13685,-0.0504 0.2016,-0.0827 l 0.01,0.002 c 3.9e-4,-2.9e-4 9.3e-4,-9.2e-4 0.002,-0.001 0.0885,-0.0471 0.19474,-0.028 0.26247,0.0384 l 0.005,9.3e-4 0.10509,0.10339 c 0.11587,0.11413 0.30403,0.11413 0.42015,0 0.11596,-0.11426 0.11596,-0.2995 0,-0.41362 l -0.0903,-0.089 c -0.0824,-0.065 -0.10836,-0.1804 -0.0563,-0.27492 9.4e-4,-0.002 0.002,-0.004 0.004,-0.005 l -0.002,-0.009 c 0.0321,-0.0637 0.0609,-0.12923 0.0839,-0.1975 l 0.006,-0.005 c 2.1e-4,-9.3e-4 3.5e-4,-0.002 3.9e-4,-0.003 0.0285,-0.0953 0.11773,-0.15582 0.21381,-0.15582 l 0.005,-0.004 h 0.14859 c 0.16414,0 0.29708,-0.1311 0.29708,-0.29253 0,-0.16146 -0.13294,-0.29249 -0.29708,-0.29249 h -0.12574 c -0.1062,0.0133 -0.20954,-0.0502 -0.24102,-0.15454 -9.3e-4,-0.003 -9.3e-4,-0.006 -0.002,-0.007 l -0.005,-0.004 c -0.0234,-0.0684 -0.0514,-0.13483 -0.0839,-0.1984 l 9.3e-4,-0.006 c -9.3e-4,-0.002 -0.002,-0.003 -0.003,-0.005 -0.0485,-0.0883 -0.0283,-0.19394 0.0404,-0.26079 l 9.4e-4,-0.005 0.1051,-0.10346 c 0.11595,-0.11412 0.11595,-0.29936 0,-0.4136 -0.0551,-0.0541 -0.13578,-0.0851 -0.20795,-0.0879 -0.0821,0 -0.14861,-0.0654 -0.14861,-0.14625 0,-0.0808 0.0665,-0.14625 0.14861,-0.14625 0.0106,0 0.0207,10e-4 0.0306,0.004 0.13969,0.009 0.28054,0.0655 0.38686,0.1703 0.21823,0.21481 0.2286,0.55359 0.0371,0.78333 9.3e-4,10e-4 9.3e-4,0.004 0.002,0.005 -9.4e-4,9.3e-4 -0.002,9.3e-4 -0.003,0.002 -0.0536,0.0528 -0.10372,0.12068 -0.0723,0.19544 0.0308,0.0746 0.10955,0.0896 0.19152,0.0896 z m -1.01864,-0.73607 c -0.0821,0 -0.14854,-0.0656 -0.14854,-0.14635 0,-0.0806 0.0664,-0.14611 0.14854,-0.14611 0.0819,0 0.1484,0.0655 0.1484,0.14611 0,0.0808 -0.0665,0.14635 -0.1484,0.14635 z m -1.49532,2.62182 0.0111,-2.9e-4 v 0 z m 0.21299,0.0823 v 0 l 0.009,0.008 -0.009,-0.008 v 0 0 0 0 0 l 0.009,0.008 z"
       id="path2-36-3"
       sodipodi:nodetypes="scsccsccccccccscsccscccccccscsccccccccscsccccsssscccccccccccccccccccccsssccccccccccccccccccccccsssccccccccccccccccccccccsssccccccccccccssccccccsssssscccccccccccccccc"
       style="fill:url(#linearGradient1193);fill-opacity:1;stroke-width:0.00921187" />
    <path
       fill-rule="evenodd"
       clip-rule="evenodd"
       d="m 410.62893,538.9709 c 0.003,0 0.005,-10e-4 0.006,-0.002 0.2999,0.0285 0.53467,0.27837 0.53467,0.58156 0,0.30383 -0.23506,0.55347 -0.53613,0.58218 -3.9e-4,0.002 -0.002,0.003 -0.002,0.005 -0.003,-1.4e-4 -0.005,-10e-4 -0.006,-10e-4 -0.0757,0 -0.16004,0.0137 -0.19138,0.0878 -0.0309,0.0747 0.0134,0.13984 0.0711,0.19681 0.002,0.002 0.005,0.003 0.006,0.005 0.18972,0.22966 0.17898,0.56645 -0.0389,0.78054 -0.2172,0.21394 -0.55955,0.22479 -0.79285,0.0384 -0.004,0.002 -0.007,0.003 -0.0106,0.005 -0.002,-0.002 -0.002,-0.005 -0.005,-0.006 -0.0537,-0.0527 -0.12256,-0.10213 -0.19835,-0.071 -0.0759,0.0304 -0.091,0.10768 -0.091,0.1885 0,0.007 0.002,0.0144 0.005,0.0201 -0.038,0.2879 -0.2853,0.51101 -0.58797,0.51101 -0.30811,0 -0.56128,-0.23095 -0.59125,-0.52658 -0.004,-10e-4 -0.006,-0.004 -0.009,-0.005 1.5e-4,-0.002 9.4e-4,-0.003 9.4e-4,-0.005 0,-0.0745 -0.0138,-0.15738 -0.0891,-0.18824 -0.0758,-0.0306 -0.14201,0.0132 -0.19994,0.07 -0.004,0.004 -0.006,0.007 -0.007,0.0118 -0.23304,0.17968 -0.56942,0.16727 -0.78381,-0.0439 -0.21771,-0.21441 -0.22839,-0.5519 -0.0384,-0.78169 -0.002,-0.005 -0.004,-0.008 -0.005,-0.0128 0.0535,-0.0527 0.10349,-0.12054 0.0721,-0.19511 -0.0311,-0.0745 -0.10965,-0.0897 -0.19168,-0.0897 -0.006,0 -0.01,0.002 -0.0159,0.004 -0.29219,-0.0372 -0.5187,-0.28119 -0.5187,-0.57886 0,-0.30451 0.23616,-0.55423 0.538,-0.58215 9.4e-4,-0.003 0.003,-0.006 0.004,-0.007 0.0746,-9.2e-4 0.15623,-0.015 0.18701,-0.0877 0.0309,-0.0744 -0.013,-0.13922 -0.0707,-0.19621 -0.19011,-0.22951 -0.17942,-0.56672 0.0385,-0.78096 0.21837,-0.21514 0.56325,-0.22507 0.79656,-0.0354 0.003,-10e-4 0.005,-0.002 0.007,-0.003 0.0531,0.0515 0.12067,0.0982 0.19488,0.068 0.0758,-0.0305 0.091,-0.10796 0.091,-0.18868 0,-2.7e-4 -1.5e-4,-3.8e-4 -1.5e-4,-9.2e-4 0.0294,-0.29542 0.28261,-0.52609 0.59056,-0.52609 0.30977,0 0.56369,0.23323 0.59139,0.53103 9.4e-4,1.9e-4 10e-4,9.2e-4 0.002,9.2e-4 0,0.017 9.4e-4,0.0359 0.004,0.0531 h -0.002 c 0,0.0807 -0.0664,0.14632 -0.14852,0.14632 -0.0819,0 -0.1484,-0.0656 -0.1484,-0.14632 0,-0.16162 -0.13308,-0.29248 -0.29713,-0.29248 -0.16414,0 -0.29708,0.13086 -0.29708,0.29248 v 0.14632 l -9.4e-4,10e-4 c 0.003,0.0967 -0.0597,0.18696 -0.15831,0.2158 -0.003,9.2e-4 -0.005,9.2e-4 -0.007,0.002 l -0.002,0.003 c -0.0695,0.0232 -0.13691,0.0504 -0.20163,0.0827 l -0.005,-9.2e-4 c -0.003,10e-4 -0.005,0.004 -0.006,0.005 -0.0961,0.0512 -0.2133,0.0262 -0.2793,-0.0556 l -0.0926,-0.0911 c -0.11612,-0.11427 -0.30425,-0.11427 -0.42015,0 -0.11597,0.11426 -0.11597,0.2995 0,0.4136 l 0.10502,0.10348 9.4e-4,0.005 c 0.0695,0.0668 0.0895,0.17254 0.0405,0.2608 -9.3e-4,10e-4 -0.002,0.003 -0.003,0.005 l 9.4e-4,0.005 c -0.0321,0.0638 -0.0606,0.13019 -0.0839,0.19874 l -0.005,0.004 c -9.4e-4,0.003 -9.4e-4,0.006 -0.002,0.007 -0.0311,0.10441 -0.13503,0.16753 -0.24108,0.15452 h -0.12564 c -0.16413,0 -0.29716,0.13107 -0.29716,0.29253 0,0.16142 0.13303,0.29251 0.29716,0.29251 h 0.14839 l 0.005,0.004 c 0.0961,-1.4e-4 0.18509,0.0606 0.21395,0.15582 2.9e-4,9.3e-4 2.9e-4,0.002 4e-4,0.003 l 0.006,0.005 c 0.0235,0.0684 0.0514,0.13482 0.084,0.19852 l -10e-4,0.008 c 10e-4,0.002 0.003,0.004 0.004,0.005 0.052,0.0945 0.0266,0.20996 -0.0564,0.27493 l -0.0902,0.089 c -0.11598,0.1141 -0.11598,0.29935 0,0.4136 0.11589,0.11412 0.30403,0.11412 0.42016,0 l 0.10507,-0.10339 0.005,-9.3e-4 c 0.0677,-0.0666 0.17391,-0.0853 0.26246,-0.0384 9.4e-4,3e-4 9.4e-4,9.2e-4 0.002,0.001 l 0.009,-0.002 c 0.0648,0.0316 0.13224,0.0597 0.20186,0.0826 l 0.006,0.007 c 9.4e-4,3.1e-4 0.002,3.1e-4 0.004,9.2e-4 0.097,0.028 0.15861,0.11626 0.15833,0.21125 l 9.4e-4,10e-4 v 0.14639 c 0,0.16153 0.13296,0.29249 0.2971,0.29249 0.16405,0 0.29713,-0.13096 0.29713,-0.29249 v -0.14639 l 9.4e-4,-10e-4 c -2.8e-4,-0.095 0.0613,-0.1828 0.15834,-0.21124 10e-4,-3.6e-4 0.002,-3.6e-4 0.004,-9.3e-4 l 0.006,-0.007 c 0.0695,-0.0232 0.13687,-0.0504 0.20161,-0.0827 l 0.01,0.002 c 4e-4,-3e-4 9.4e-4,-9.2e-4 0.002,-10e-4 0.0885,-0.0471 0.19474,-0.0282 0.26246,0.0383 l 0.005,9.2e-4 0.10511,0.10339 c 0.11588,0.11412 0.30403,0.11412 0.42014,0 0.11598,-0.11426 0.11598,-0.2995 0,-0.4136 l -0.0903,-0.089 c -0.0824,-0.065 -0.10837,-0.18037 -0.0564,-0.27492 9.4e-4,-0.002 0.002,-0.004 0.004,-0.005 l -0.002,-0.009 c 0.0321,-0.0637 0.0608,-0.12925 0.0838,-0.19752 l 0.006,-0.005 c 1.9e-4,-9.2e-4 3.3e-4,-0.002 3.7e-4,-0.003 0.0286,-0.0953 0.11773,-0.15582 0.21382,-0.15582 l 0.005,-0.004 h 0.14857 c 0.16414,0 0.29709,-0.13114 0.29709,-0.29255 0,-0.16147 -0.13295,-0.29251 -0.29709,-0.29251 h -0.12572 c -0.10621,0.0133 -0.20954,-0.0502 -0.24102,-0.15453 -9.4e-4,-0.003 -9.4e-4,-0.006 -0.002,-0.007 l -0.005,-0.004 c -0.0234,-0.0684 -0.0514,-0.13484 -0.084,-0.19839 l 9.3e-4,-0.005 c -9.3e-4,-0.002 -0.002,-0.003 -0.003,-0.005 -0.0485,-0.0882 -0.0284,-0.19395 0.0404,-0.26079 l 9.4e-4,-0.005 0.10509,-0.10348 c 0.11597,-0.1141 0.11597,-0.29934 0,-0.4136 -0.0551,-0.0541 -0.13577,-0.0851 -0.20792,-0.0879 -0.0821,0 -0.14861,-0.0654 -0.14861,-0.14622 0,-0.0809 0.0665,-0.14627 0.14861,-0.14627 0.0105,0 0.0207,10e-4 0.0306,0.004 0.13968,0.009 0.28053,0.0655 0.38686,0.1703 0.21822,0.2148 0.22859,0.55358 0.0371,0.78331 9.4e-4,10e-4 9.4e-4,0.004 0.002,0.005 -9.4e-4,9.2e-4 -0.002,9.2e-4 -0.003,0.002 -0.0536,0.0528 -0.10373,0.12069 -0.0723,0.19545 0.0308,0.0746 0.10956,0.0896 0.1915,0.0896 z m -1.01864,-0.73613 c -0.0821,0 -0.14852,-0.0655 -0.14852,-0.14631 0,-0.0806 0.0664,-0.1461 0.14852,-0.1461 0.0819,0 0.14841,0.0655 0.14841,0.1461 0,0.0808 -0.0665,0.14631 -0.14841,0.14631 z m -1.49534,2.62186 0.0111,-3e-4 v 0 z m 0.21302,0.0823 v 0 l 0.009,0.008 -0.009,-0.008 v 0 0 0 0 0 l 0.009,0.008 z"
       id="path2-7-5"
       sodipodi:nodetypes="scsccsccccccccscsccscccccccscsccccccccscsccccsssscccccccccccccccccccccsssccccccccccccccccccccccsssccccccccccccccccccccccsssccccccccccccssccccccsssssscccccccccccccccc"
       style="fill:url(#linearGradient1195);fill-opacity:1;stroke-width:0.00921187" />
  </g>
</svg>
