<?xml version="1.0" encoding="UTF-8" standalone="no"?>
<svg
   width="32"
   version="1.1"
   height="32"
   viewBox="0 0 32 32"
   id="svg15"
   sodipodi:docname="folder-yellow.svg"
   inkscape:version="1.1.1 (3bf5ae0d25, 2021-09-20)"
   xmlns:inkscape="http://www.inkscape.org/namespaces/inkscape"
   xmlns:sodipodi="http://sodipodi.sourceforge.net/DTD/sodipodi-0.dtd"
   xmlns:xlink="http://www.w3.org/1999/xlink"
   xmlns="http://www.w3.org/2000/svg"
   xmlns:svg="http://www.w3.org/2000/svg"
   xmlns:rdf="http://www.w3.org/1999/02/22-rdf-syntax-ns#"
   xmlns:cc="http://creativecommons.org/ns#"
   xmlns:dc="http://purl.org/dc/elements/1.1/">
  <sodipodi:namedview
     pagecolor="#ffffff"
     bordercolor="#666666"
     borderopacity="1"
     objecttolerance="10"
     gridtolerance="10"
     guidetolerance="10"
     inkscape:pageopacity="0"
     inkscape:pageshadow="2"
     inkscape:window-width="1920"
     inkscape:window-height="1007"
     id="namedview17"
     showgrid="false"
     inkscape:zoom="9.8125"
     inkscape:cx="-13.248408"
     inkscape:cy="3.0063694"
     inkscape:window-x="0"
     inkscape:window-y="0"
     inkscape:window-maximized="1"
     inkscape:current-layer="layer1"
     inkscape:document-rotation="0"
     inkscape:pagecheckerboard="0" />
  <defs
     id="defs5455">
    <linearGradient
       id="linearGradient4172-8">
      <stop
         style="stop-color:#f2cb40"
         id="stop4174-3" />
      <stop
         offset="1"
         style="stop-color:#f5d76e"
         id="stop4176-9" />
    </linearGradient>
    <linearGradient
       inkscape:collect="always"
       xlink:href="#linearGradient2230"
       id="linearGradient2232"
       x1="384.57144"
       y1="515.79797"
       x2="448.57144"
       y2="515.79797"
       gradientUnits="userSpaceOnUse"
       gradientTransform="matrix(0.46153837,0,0,0.46153837,208.07695,293.73742)" />
    <linearGradient
       inkscape:collect="always"
       id="linearGradient2230">
      <stop
         style="stop-color:#ffd42a;stop-opacity:1"
         offset="0"
         id="stop2226" />
      <stop
         style="stop-color:#ffeeaa;stop-opacity:1"
         offset="0.50507295"
         id="stop2332" />
      <stop
         style="stop-color:#ffdd55;stop-opacity:1"
         offset="1"
         id="stop2228" />
    </linearGradient>
  </defs>
  <metadata
     id="metadata5458">
    <rdf:RDF>
      <cc:Work
         rdf:about="">
        <dc:format>image/svg+xml</dc:format>
        <dc:type
           rdf:resource="http://purl.org/dc/dcmitype/StillImage" />
      </cc:Work>
    </rdf:RDF>
  </metadata>
  <g
     inkscape:label="Capa 1"
     inkscape:groupmode="layer"
     id="layer1"
     transform="translate(-384.57143,-515.798)">
    <rect
       style="fill:#3b445f;fill-opacity:1;stroke:none;stroke-width:0.582369"
       id="center-3"
       width="27.784611"
       height="19.384611"
       x="386.44833"
       y="523.49023"
       ry="1.8461516"
       rx="1.8523126" />
    <path
       d="m 412.4177,522.5717 h -13.53541 c -0.29916,0 -0.56075,-0.15398 -0.74774,-0.42377 l -1.00962,-1.5408 c -0.33646,-0.53931 -0.89744,-0.80913 -1.49549,-0.80913 h -6.91726 c -1.72011,0 -3.14075,1.46396 -3.14075,3.2359 v 17.99041 c 0,1.50242 1.19664,2.77369 2.69213,2.77369 h 11.62848 v 0 0 0 0 0 0 0 h 0.89724 v 0 0 0 0 0 0 0 0 0 h 11.62848 c 1.45824,0 2.69213,-1.23289 2.69213,-2.77369 V 525.3453 c 0,-1.5408 -1.19637,-2.77341 -2.69213,-2.77341 z m -11.62842,21.2263 v 0 h -0.89724 v 0 0 z m 13.42316,-2.7736 c 0,1.00153 -0.78533,1.84905 -1.79468,1.84905 h -24.15434 c -0.97209,0 -1.79468,-0.84752 -1.79468,-1.84905 l -2.7e-4,-6.20226 v -3.5057 c 0,-1.00155 0.8226,-1.84905 1.79468,-1.84905 h 13.53541 c 0.59831,0 1.15904,-0.30823 1.49549,-0.80914 l 0.97209,-1.54079 c 0.187,-0.2311 0.4486,-0.42378 0.74775,-0.42378 h 6.95465 c 1.23389,0 2.24357,1.04021 2.24357,2.31155 v 5.04649 z m -2.24357,-15.21674 h -6.95465 c -0.59831,0 -1.15904,0.30822 -1.49549,0.80913 l -0.97209,1.5408 c -0.14945,0.26979 -0.44861,0.42377 -0.74775,0.42377 h -13.53531 c -0.67289,0 -1.30768,0.0783 -1.79492,0.78572 v -4.03062 c 0,-0.92308 0.94893,-1.84615 1.872,-1.84615 h 7.38462 l 0.0198,0.0214 1.36482,-0.0214 1.80972,0.006 h 13.53541 c 0.97209,0 1.79468,0.84751 1.79468,1.84905 v 1.4253 c -0.59805,-0.61617 -1.38312,-0.96281 -2.28056,-0.96281 z"
       id="path64"
       sodipodi:nodetypes="csccsssssccccccccccccccccccsssccccccccccssccsssccssscccsccscccccccssscc"
       style="fill:url(#linearGradient2232);fill-opacity:1;stroke-width:0.0677728" />
  </g>
</svg>
