<?xml version="1.0" encoding="UTF-8" standalone="no"?>
<svg
   width="32"
   version="1.1"
   height="32"
   viewBox="0 0 32 32"
   id="svg15"
   sodipodi:docname="folder-calculate.svg"
   inkscape:version="1.1.1 (3bf5ae0d25, 2021-09-20)"
   xmlns:inkscape="http://www.inkscape.org/namespaces/inkscape"
   xmlns:sodipodi="http://sodipodi.sourceforge.net/DTD/sodipodi-0.dtd"
   xmlns:xlink="http://www.w3.org/1999/xlink"
   xmlns="http://www.w3.org/2000/svg"
   xmlns:svg="http://www.w3.org/2000/svg"
   xmlns:rdf="http://www.w3.org/1999/02/22-rdf-syntax-ns#"
   xmlns:cc="http://creativecommons.org/ns#"
   xmlns:dc="http://purl.org/dc/elements/1.1/">
  <sodipodi:namedview
     pagecolor="#ffffff"
     bordercolor="#666666"
     borderopacity="1"
     objecttolerance="10"
     gridtolerance="10"
     guidetolerance="10"
     inkscape:pageopacity="0"
     inkscape:pageshadow="2"
     inkscape:window-width="1920"
     inkscape:window-height="1007"
     id="namedview17"
     showgrid="false"
     inkscape:zoom="9.8125"
     inkscape:cx="-12.025478"
     inkscape:cy="6.5732484"
     inkscape:window-x="0"
     inkscape:window-y="0"
     inkscape:window-maximized="1"
     inkscape:current-layer="layer1"
     inkscape:document-rotation="0"
     inkscape:pagecheckerboard="0" />
  <defs
     id="defs5455">
    <linearGradient
       inkscape:collect="always"
       xlink:href="#linearGradient2230"
       id="linearGradient2232"
       x1="384.57144"
       y1="515.79797"
       x2="448.57144"
       y2="515.79797"
       gradientUnits="userSpaceOnUse"
       gradientTransform="matrix(0.46875,0,0,0.46153837,205.30357,293.73743)" />
    <linearGradient
       inkscape:collect="always"
       id="linearGradient2230">
      <stop
         style="stop-color:#4e99ca;stop-opacity:0.80000001"
         offset="0"
         id="stop2226" />
      <stop
         style="stop-color:#20ffff;stop-opacity:0.80000001"
         offset="0.50507295"
         id="stop2332" />
      <stop
         style="stop-color:#ffaeff;stop-opacity:0.69"
         offset="1"
         id="stop2228" />
    </linearGradient>
    <linearGradient
       inkscape:collect="always"
       xlink:href="#linearGradient2230"
       id="linearGradient1137"
       gradientUnits="userSpaceOnUse"
       gradientTransform="matrix(0.46875,0,0,0.46153837,213.07184,296.04512)"
       x1="403.99915"
       y1="520.79797"
       x2="427.99915"
       y2="520.79797" />
    <linearGradient
       inkscape:collect="always"
       xlink:href="#linearGradient2230"
       id="linearGradient1139"
       gradientUnits="userSpaceOnUse"
       gradientTransform="matrix(0.46875,0,0,0.46153837,213.07184,296.04512)"
       x1="411.22043"
       y1="520.80884"
       x2="421.04901"
       y2="520.80884" />
    <linearGradient
       inkscape:collect="always"
       xlink:href="#linearGradient2230"
       id="linearGradient1141"
       gradientUnits="userSpaceOnUse"
       gradientTransform="matrix(0.46875,0,0,0.46153837,213.07184,296.04512)"
       x1="416.59192"
       y1="522.46368"
       x2="421.04898"
       y2="522.46368" />
    <linearGradient
       inkscape:collect="always"
       xlink:href="#linearGradient2230"
       id="linearGradient1143"
       gradientUnits="userSpaceOnUse"
       gradientTransform="matrix(0.46875,0,0,0.46153837,213.07184,296.04512)"
       x1="416.59189"
       y1="523.81573"
       x2="418.48639"
       y2="523.81573" />
  </defs>
  <metadata
     id="metadata5458">
    <rdf:RDF>
      <cc:Work
         rdf:about="">
        <dc:format>image/svg+xml</dc:format>
        <dc:type
           rdf:resource="http://purl.org/dc/dcmitype/StillImage" />
      </cc:Work>
    </rdf:RDF>
  </metadata>
  <g
     inkscape:label="Capa 1"
     inkscape:groupmode="layer"
     id="layer1"
     transform="translate(-384.57143,-515.798)">
    <rect
       style="fill:#3b445f;fill-opacity:1;stroke:none;stroke-width:0.586901"
       id="center-3"
       width="28.21875"
       height="19.384611"
       x="386.4621"
       y="523.4903"
       ry="1.8461516"
       rx="1.8812554" />
    <path
       d="m 412.83717,522.5717 h -13.7469 c -0.30383,0 -0.56951,-0.15398 -0.75942,-0.42377 l -1.02539,-1.5408 c -0.34172,-0.53931 -0.91147,-0.80913 -1.51886,-0.80913 h -7.02535 c -1.74698,0 -3.18982,1.46396 -3.18982,3.2359 v 17.99041 c 0,1.50242 1.21533,2.77369 2.73419,2.77369 h 11.81018 v 0 0 0 0 0 0 0 h 0.91126 v 0 0 0 0 0 0 0 0 0 h 11.81018 c 1.48102,0 2.73419,-1.23289 2.73419,-2.77369 V 525.3453 c 0,-1.5408 -1.21506,-2.77341 -2.73419,-2.77341 z m -11.81011,21.2263 v 0 h -0.91126 v 0 0 z m 13.6329,-2.7736 c 0,1.00153 -0.7976,1.84905 -1.82272,1.84905 h -24.53176 c -0.98728,0 -1.82272,-0.84752 -1.82272,-1.84905 l -2.7e-4,-6.20226 v -3.5057 c 0,-1.00155 0.83545,-1.84905 1.82272,-1.84905 h 13.7469 c 0.60766,0 1.17715,-0.30823 1.51886,-0.80914 l 0.98728,-1.54079 c 0.18993,-0.2311 0.45561,-0.42378 0.75943,-0.42378 h 7.06332 c 1.25317,0 2.27863,1.04021 2.27863,2.31155 v 5.04649 z m -2.27862,-15.21674 h -7.06332 c -0.60766,0 -1.17716,0.30822 -1.51886,0.80913 l -0.98728,1.5408 c -0.15178,0.26979 -0.45562,0.42377 -0.75943,0.42377 h -13.7468 c -0.68341,0 -1.32812,0.0783 -1.82297,0.78572 v -4.03062 c 0,-0.92308 0.96375,-1.84615 1.90125,-1.84615 h 7.50001 l 0.0201,0.0214 1.38614,-0.0214 1.838,0.006 h 13.7469 c 0.98728,0 1.82273,0.84751 1.82273,1.84905 v 1.4253 c -0.6074,-0.61617 -1.40474,-0.96281 -2.3162,-0.96281 z"
       id="path64"
       sodipodi:nodetypes="csccsssssccccccccccccccccccsssccccccccccssccsssccssscccsccscccccccssscc"
       style="fill:url(#linearGradient2232);fill-opacity:1;stroke-width:0.0683002" />
    <path
       fill-rule="evenodd"
       clip-rule="evenodd"
       d="m 412.08969,541.95184 h -6.02719 c -0.22158,0 -0.40138,-0.17752 -0.40138,-0.3956 0,-0.21867 0.1798,-0.3958 0.40138,-0.3958 h 6.02719 c 0.44377,0 0.80357,-0.35427 0.80357,-0.79121 v -7.91209 c 0,-0.43694 -0.3598,-0.79101 -0.80357,-0.79101 h -8.03592 c -0.44367,0 -0.80367,0.35407 -0.80367,0.79101 v 7.51648 c 0,0.21867 -0.1797,0.39561 -0.40178,0.39561 -0.22169,0 -0.40189,-0.17694 -0.40189,-0.39561 v -7.51648 c 0,-0.87389 0.7199,-1.58222 1.60734,-1.58222 h 8.03592 c 0.88734,0 1.60674,0.70833 1.60674,1.58222 v 7.91209 c 0,0.87389 -0.7194,1.58261 -1.60674,1.58261 z m -7.63403,-0.7914 c 0.22158,0 0.40179,0.17713 0.40179,0.3958 0,0.21808 -0.18021,0.3956 -0.40179,0.3956 -0.22209,0 -0.40189,-0.17752 -0.40189,-0.3956 0,-0.21867 0.1798,-0.3958 0.40189,-0.3958 z"
       id="path2-5"
       style="fill:url(#linearGradient1137);fill-opacity:1;stroke-width:0.0249177" />
    <path
       d="m 410.43856,534.59853 v 0.47473 c 0,0.0145 -0.012,0.0263 -0.0268,0.0263 h -2.0742 c -0.0111,0 -0.021,0.007 -0.025,0.0169 l -1.15961,2.97855 c -0.0848,0.21784 -0.39402,0.22797 -0.49334,0.0161 l -0.56384,-1.20291 c -0.004,-0.009 -0.0139,-0.0153 -0.0243,-0.0153 h -0.21327 c -0.0148,0 -0.0268,-0.0118 -0.0268,-0.0264 v -0.47473 c 0,-0.0145 0.012,-0.0263 0.0268,-0.0263 h 0.40178 c 0.10447,0 0.19945,0.0598 0.24322,0.15323 l 0.35995,0.76796 c 0.006,0.0134 0.0258,0.0128 0.0312,-9.3e-4 l 0.99054,-2.54421 c 0.0397,-0.10202 0.13918,-0.16938 0.25012,-0.16938 h 2.2768 c 0.0148,0 0.0268,0.0118 0.0268,0.0264 z"
       id="path2-36-3"
       style="fill:url(#linearGradient1139);fill-opacity:1;stroke-width:0.0531578" />
    <path
       d="m 410.36629,537.82056 c 0.10704,0.11262 0.0943,0.29312 -0.0327,0.38959 -0.11074,0.0841 -0.27076,0.0631 -0.36633,-0.0375 l -1.54571,-1.62689 c -0.10703,-0.11262 -0.0943,-0.29312 0.0327,-0.38959 0.11074,-0.0841 0.27075,-0.0631 0.36633,0.0375 l 0.55377,0.58286 c 0.0106,0.0111 0.0285,0.0111 0.0391,0 l 0.56165,-0.59109 c 0.10698,-0.11256 0.29068,-0.11219 0.39696,0.006 0.0926,0.10322 0.082,0.26183 -0.0136,0.36242 l -0.58066,0.61109 c -0.01,0.0101 -0.01,0.0259 0,0.036 z"
       id="path4-5"
       style="fill:url(#linearGradient1141);fill-opacity:1;stroke-width:0.0531578" />
    <path
       d="m 409.23009,537.70562 c 0.01,0.0101 0.01,0.0259 0,0.036 l -0.4095,0.43105 c -0.0956,0.10059 -0.25559,0.12159 -0.36633,0.0375 -0.12707,-0.0965 -0.13976,-0.27698 -0.0327,-0.3896 l 0.43934,-0.46238 c 0.0106,-0.0111 0.0286,-0.0111 0.0391,0 z"
       id="path6-6"
       style="fill:url(#linearGradient1143);fill-opacity:1;stroke-width:0.0531578" />
  </g>
</svg>
