<?xml version="1.0" encoding="UTF-8" standalone="no"?>
<svg
   width="32"
   version="1.1"
   height="32"
   viewBox="0 0 32 32"
   id="svg15"
   sodipodi:docname="folder-deb.svg"
   inkscape:version="1.1.1 (3bf5ae0d25, 2021-09-20)"
   xmlns:inkscape="http://www.inkscape.org/namespaces/inkscape"
   xmlns:sodipodi="http://sodipodi.sourceforge.net/DTD/sodipodi-0.dtd"
   xmlns:xlink="http://www.w3.org/1999/xlink"
   xmlns="http://www.w3.org/2000/svg"
   xmlns:svg="http://www.w3.org/2000/svg"
   xmlns:rdf="http://www.w3.org/1999/02/22-rdf-syntax-ns#"
   xmlns:cc="http://creativecommons.org/ns#"
   xmlns:dc="http://purl.org/dc/elements/1.1/">
  <sodipodi:namedview
     pagecolor="#ffffff"
     bordercolor="#666666"
     borderopacity="1"
     objecttolerance="10"
     gridtolerance="10"
     guidetolerance="10"
     inkscape:pageopacity="0"
     inkscape:pageshadow="2"
     inkscape:window-width="1920"
     inkscape:window-height="1007"
     id="namedview17"
     showgrid="false"
     inkscape:zoom="9.8125"
     inkscape:cx="-8.1528662"
     inkscape:cy="4.7388535"
     inkscape:window-x="0"
     inkscape:window-y="0"
     inkscape:window-maximized="1"
     inkscape:current-layer="layer1"
     inkscape:document-rotation="0"
     inkscape:pagecheckerboard="0" />
  <defs
     id="defs5455">
    <linearGradient
       id="linearGradient4194">
      <stop
         style="stop-color:#b5006a"
         id="stop4196" />
      <stop
         offset="1"
         style="stop-color:#c70073"
         id="stop4198" />
    </linearGradient>
    <linearGradient
       inkscape:collect="always"
       xlink:href="#linearGradient2230"
       id="linearGradient2232"
       x1="384.57144"
       y1="515.79797"
       x2="448.57144"
       y2="515.79797"
       gradientUnits="userSpaceOnUse"
       gradientTransform="matrix(0.46875,0,0,0.46153837,205.30357,292.73743)" />
    <linearGradient
       inkscape:collect="always"
       id="linearGradient2230">
      <stop
         style="stop-color:#ff0066;stop-opacity:1"
         offset="0"
         id="stop2226" />
      <stop
         style="stop-color:#ff80b2;stop-opacity:1"
         offset="0.50507295"
         id="stop2332" />
      <stop
         style="stop-color:#ff5599;stop-opacity:1"
         offset="1"
         id="stop2228" />
    </linearGradient>
    <linearGradient
       inkscape:collect="always"
       xlink:href="#linearGradient2230"
       id="linearGradient1235"
       gradientUnits="userSpaceOnUse"
       gradientTransform="matrix(0.46875,0,0,0.46153837,213.80388,295.04512)"
       x1="406.83743"
       y1="520.80609"
       x2="426.45447"
       y2="520.80609" />
  </defs>
  <metadata
     id="metadata5458">
    <rdf:RDF>
      <cc:Work
         rdf:about="">
        <dc:format>image/svg+xml</dc:format>
        <dc:type
           rdf:resource="http://purl.org/dc/dcmitype/StillImage" />
      </cc:Work>
    </rdf:RDF>
  </metadata>
  <g
     inkscape:label="Capa 1"
     inkscape:groupmode="layer"
     id="layer1"
     transform="translate(-384.57143,-515.798)">
    <rect
       style="fill:#3b445f;fill-opacity:1;stroke:none;stroke-width:0.586901"
       id="center-3"
       width="28.21875"
       height="19.384611"
       x="386.46207"
       y="522.49054"
       ry="1.8461516"
       rx="1.8812554" />
    <path
       d="m 412.83717,521.5717 h -13.7469 c -0.30383,0 -0.56951,-0.15398 -0.75942,-0.42377 l -1.02539,-1.5408 c -0.34172,-0.53931 -0.91147,-0.80913 -1.51886,-0.80913 h -7.02535 c -1.74698,0 -3.18982,1.46396 -3.18982,3.2359 v 17.99041 c 0,1.50242 1.21533,2.77369 2.73419,2.77369 h 11.81018 v 0 0 0 0 0 0 0 h 0.91126 v 0 0 0 0 0 0 0 0 0 h 11.81018 c 1.48102,0 2.73419,-1.23289 2.73419,-2.77369 V 524.3453 c 0,-1.5408 -1.21506,-2.77341 -2.73419,-2.77341 z m -11.81011,21.2263 v 0 h -0.91126 v 0 0 z m 13.6329,-2.7736 c 0,1.00153 -0.7976,1.84905 -1.82272,1.84905 h -24.53176 c -0.98728,0 -1.82272,-0.84752 -1.82272,-1.84905 l -2.7e-4,-6.20226 v -3.5057 c 0,-1.00155 0.83545,-1.84905 1.82272,-1.84905 h 13.7469 c 0.60766,0 1.17715,-0.30823 1.51886,-0.80914 l 0.98728,-1.54079 c 0.18993,-0.2311 0.45561,-0.42378 0.75943,-0.42378 h 7.06332 c 1.25317,0 2.27863,1.04021 2.27863,2.31155 v 5.04649 z m -2.27862,-15.21674 h -7.06332 c -0.60766,0 -1.17716,0.30822 -1.51886,0.80913 l -0.98728,1.5408 c -0.15178,0.26979 -0.45562,0.42377 -0.75943,0.42377 h -13.7468 c -0.68341,0 -1.32812,0.0783 -1.82297,0.78572 v -4.03062 c 0,-0.92308 0.96375,-1.84615 1.90125,-1.84615 h 7.50001 l 0.0201,0.0214 1.38614,-0.0214 1.838,0.006 h 13.7469 c 0.98728,0 1.82273,0.84751 1.82273,1.84905 v 1.4253 c -0.6074,-0.61617 -1.40474,-0.96281 -2.3162,-0.96281 z"
       id="path64"
       sodipodi:nodetypes="csccsssssccccccccccccccccccsssccccccccccssccsssccssscccsccscccccccssscc"
       style="fill:url(#linearGradient2232);fill-opacity:1;stroke-width:0.0683002" />
    <path
       style="color:#232629;fill:url(#linearGradient1235);fill-opacity:1;stroke:none;stroke-width:0.507383"
       d="m 409.87822,540.90086 c -0.61359,-0.10069 -1.48285,-0.45311 -1.99416,-0.78035 -1.17606,-0.75519 -1.9458,-1.59523 -2.42156,-2.64366 -0.1534,-0.35244 -0.24442,-0.60417 -0.51132,-1.51039 -0.0511,-0.22655 -0.13788,-0.48044 -0.16988,-0.55954 -0.054,-0.13344 -0.0564,-0.17846 -0.0329,-0.62356 0.0224,-0.40278 0.10225,-1.00692 0.15338,-1.05526 0.008,-0.0116 0.0251,-0.0142 0.0397,-0.006 0.0479,0.0282 0.0925,-0.10178 0.13618,-0.39805 0.0238,-0.16232 0.0615,-0.33253 0.0836,-0.37826 0.0221,-0.0456 0.0593,-0.14665 0.0829,-0.22427 0.0543,-0.17866 0.12823,-0.31599 0.35694,-0.66258 0.10057,-0.15241 0.20513,-0.31844 0.23234,-0.36893 0.0322,-0.0594 0.067,-0.0885 0.0991,-0.0825 0.0312,0.006 0.082,-0.0328 0.13546,-0.1022 0.23252,-0.30219 1.32773,-1.19373 1.42908,-1.16333 0.0275,0.009 0.14323,-0.0295 0.25682,-0.0832 0.20547,-0.0978 0.29598,-0.12038 0.29598,-0.0739 0,0.0132 -0.03,0.0438 -0.066,0.0676 -0.0637,0.0419 -0.0624,0.0426 0.0364,0.02 0.0564,-0.0128 0.15154,-0.0315 0.21129,-0.0412 0.0738,-0.0118 0.10385,-0.0296 0.0937,-0.0543 -0.009,-0.022 0.0122,-0.0438 0.0527,-0.054 0.10097,-0.0252 0.25829,-0.0214 0.25829,0.007 0,0.0338 -0.09,0.0681 -0.16131,0.0614 -0.0485,-0.004 -0.0512,-4.6e-4 -0.0144,0.0229 0.0361,0.0234 0.0365,0.0289 0.002,0.0293 -0.0228,2.3e-4 -0.034,0.008 -0.0247,0.0159 0.009,0.009 0.0704,-0.0102 0.13591,-0.0419 0.0655,-0.0317 0.18562,-0.0709 0.2668,-0.0874 0.0999,-0.0204 0.14762,-0.0438 0.14762,-0.0727 0,-0.037 0.0463,-0.0408 0.35929,-0.0244 0.1976,0.0102 0.4958,0.0396 0.66265,0.065 0.30334,0.0466 0.30338,0.0466 0.41643,-0.0144 0.13558,-0.0737 0.35367,-0.0833 0.41099,-0.0184 0.0211,0.0237 0.0787,0.0632 0.12823,0.0874 0.0809,0.0398 0.0862,0.0399 0.052,4.7e-4 -0.0649,-0.074 -4.4e-4,-0.0721 0.25024,0.008 0.80819,0.25574 1.46703,0.71124 1.95593,1.35222 0.11594,0.152 0.12295,0.22037 0.013,0.12784 l -0.0628,-0.0529 0.0478,0.0887 c 0.0261,0.0486 0.0478,0.1036 0.0478,0.12182 0,0.0186 0.0777,0.15292 0.17269,0.2993 0.21409,0.32994 0.27398,0.4411 0.25962,0.48182 -0.007,0.0178 -0.10101,-0.0987 -0.21076,-0.25823 -0.10977,-0.15949 -0.27218,-0.37437 -0.36094,-0.47752 -0.13255,-0.15403 -0.16726,-0.18038 -0.19431,-0.14746 -0.0185,0.0221 -0.0623,0.0441 -0.0983,0.0489 l -0.0654,0.009 0.0646,0.11977 c 0.0354,0.0659 0.0694,0.1064 0.0752,0.0901 0.0311,-0.0875 0.17458,0.0274 0.23993,0.19203 0.0213,0.0534 0.0775,0.1632 0.12522,0.24413 0.0475,0.0809 0.0807,0.15282 0.0733,0.15974 -0.008,0.007 -0.0508,-0.0149 -0.0966,-0.0492 l -0.0833,-0.0619 0.0568,0.0921 c 0.0315,0.0506 0.0835,0.1126 0.1162,0.13769 0.0411,0.0315 0.0602,0.0807 0.0621,0.1576 0.003,0.14189 0.0894,0.30952 0.13617,0.26532 0.0729,-0.0689 0.0879,-0.0255 0.0695,0.19971 -0.0133,0.16615 -0.007,0.27565 0.0255,0.39192 0.0485,0.17652 0.0378,0.22007 -0.033,0.13758 -0.0452,-0.0525 -0.0457,-0.0524 -0.0252,0.002 0.0436,0.11671 0.0759,0.2913 0.0669,0.35983 -0.0169,0.12789 -0.0677,0.0747 -0.0852,-0.0891 l -0.0169,-0.15988 -0.005,0.17015 c -0.002,0.0936 -0.0257,0.27442 -0.0517,0.40185 -0.0257,0.12871 -0.039,0.2847 -0.03,0.35092 0.0182,0.12459 0.005,0.12942 -0.10496,0.0405 -0.0449,-0.0361 -0.0526,-0.0294 -0.0834,0.0791 -0.0256,0.091 -0.0255,0.14274 9.3e-4,0.21895 0.0195,0.0549 0.0306,0.12932 0.0246,0.16542 -0.0127,0.0833 -0.0835,0.10927 -0.0835,0.0309 0,-0.0988 -0.0399,-0.0636 -0.1613,0.1426 -0.32822,0.5569 -0.84753,0.98789 -1.43531,1.19117 -0.34651,0.11987 -0.57894,0.16431 -0.96969,0.18544 l -0.35197,0.0193 0.1739,0.0507 c 0.14022,0.0412 0.22256,0.0468 0.42527,0.0317 0.26558,-0.0205 0.57738,-0.0747 0.71879,-0.12553 0.0564,-0.0204 0.0945,-0.0213 0.11403,-0.003 0.0459,0.0435 -0.36247,0.21429 -0.60494,0.253 -0.41257,0.0659 -0.96482,-0.005 -1.45232,-0.18719 -0.33076,-0.12341 -0.8216,-0.44477 -0.74638,-0.48869 0.014,-0.009 0.10762,0.0337 0.20751,0.0934 0.12767,0.0763 0.18159,0.0964 0.18159,0.0676 0,-0.0543 0.0192,-0.0517 0.12032,0.0167 0.0916,0.0617 0.37334,0.17608 0.57626,0.23408 0.2212,0.0632 0.13543,-0.0132 -0.16131,-0.14413 -0.93825,-0.41332 -1.32777,-0.82674 -1.5219,-1.61527 -0.0712,-0.28915 0.005,-0.92306 0.13492,-1.12159 0.033,-0.0503 0.0598,-0.11218 0.0598,-0.13748 0,-0.10983 0.19382,-0.4 0.39268,-0.58792 0.35045,-0.33115 0.7148,-0.46861 1.1878,-0.44815 0.22863,0.01 0.32628,0.0293 0.51657,0.10048 0.21582,0.0812 0.48758,0.25125 0.40435,0.25299 -0.0198,4.2e-4 -0.10535,-0.0264 -0.19063,-0.0603 -0.12964,-0.0511 -0.21278,-0.0613 -0.50702,-0.0624 -0.4132,-10e-4 -0.61515,0.0539 -0.90922,0.24939 -0.4169,0.27717 -0.64872,0.59642 -0.73083,1.00644 -0.0551,0.2751 -0.0568,0.35135 -0.0136,0.62424 0.0246,0.15725 0.0426,0.20339 0.0733,0.19216 0.0257,-0.01 0.0411,0.004 0.0411,0.038 0,0.0974 0.22442,0.49281 0.38008,0.66954 0.37463,0.4254 0.98062,0.69686 1.55563,0.69686 0.29843,0 0.53967,-0.0541 0.76174,-0.17091 0.0892,-0.0467 0.20173,-0.10423 0.25012,-0.12741 0.17075,-0.0818 0.27668,-0.17519 0.40052,-0.3532 0.0688,-0.0989 0.14371,-0.17989 0.16634,-0.17989 0.0335,0 0.0322,0.014 -0.008,0.0762 -0.1309,0.20415 0.17632,-0.16706 0.33543,-0.40527 l 0.17823,-0.2668 -0.0197,-0.17526 c -0.019,-0.16842 -0.0156,-0.1787 0.0693,-0.26328 0.0821,-0.0815 0.0895,-0.10558 0.099,-0.32332 0.009,-0.19488 0.002,-0.23535 -0.0337,-0.23557 -0.0338,-1.8e-4 -0.0482,-0.0515 -0.063,-0.22197 -0.0195,-0.2256 -0.21369,-0.98469 -0.25893,-1.01112 -0.0135,-0.008 -0.0516,-0.081 -0.0843,-0.16221 -0.11021,-0.27415 -0.30359,-0.53777 -0.60508,-0.82495 -0.43383,-0.41323 -0.9803,-0.73231 -1.49649,-0.87382 -0.43908,-0.12034 -1.18468,-0.0767 -1.71575,0.10055 -0.25921,0.0865 -0.51458,0.20098 -0.55769,0.25003 -0.0198,0.0222 -0.0477,0.0333 -0.063,0.0243 -0.0155,-0.009 -0.0115,-0.0341 0.0105,-0.0591 0.0978,-0.11141 -0.22681,0.0925 -0.43582,0.27369 -0.12636,0.10954 -0.23435,0.20251 -0.23998,0.20657 -0.005,0.004 0.0193,2.1e-4 0.0546,-0.009 0.0594,-0.0143 0.0619,-0.0108 0.03,0.046 -0.0208,0.0362 -0.12816,0.102 -0.25995,0.15849 -0.22145,0.0949 -0.36468,0.19923 -0.47846,0.34848 -0.0454,0.0596 -0.0479,0.0724 -0.012,0.0594 0.025,-0.009 0.0458,-0.003 0.0458,0.0126 0,0.0792 -0.0761,0.16751 -0.18884,0.21927 -0.24976,0.11464 -0.68854,0.72713 -0.92355,1.2892 -0.10474,0.25047 -0.10308,0.24177 -0.046,0.24177 0.06,0 0.0558,0.0644 -0.0262,0.41045 -0.12009,0.50402 -0.12024,0.48788 0.0106,1.19696 0.15935,0.86394 0.25245,1.15255 0.42947,1.33138 0.0418,0.0421 0.0819,0.13118 0.0999,0.22084 0.0216,0.10703 0.0575,0.17768 0.12505,0.24493 0.0616,0.0613 0.0821,0.0989 0.0584,0.10703 -0.0463,0.0158 0.0988,0.22057 0.2313,0.32591 0.0667,0.053 0.11605,0.0708 0.16957,0.0611 0.11727,-0.0213 0.23667,0.0428 0.42013,0.22456 0.19067,0.18906 0.20977,0.23989 0.0836,0.2224 -0.0814,-0.0113 -0.0832,-0.009 -0.0434,0.0484 0.023,0.0332 0.10802,0.11308 0.18884,0.17747 0.11352,0.0905 0.14276,0.12959 0.1285,0.17201 -0.0207,0.061 0.0376,0.11795 0.17018,0.16572 0.082,0.0299 0.10841,0.0935 0.0466,0.11292 -0.019,0.006 0.0968,0.1182 0.25662,0.24961 0.18007,0.14802 0.30119,0.22917 0.31846,0.21332 0.0456,-0.0421 0.10405,-0.0294 0.10509,0.0228 9.3e-4,0.0567 0.0529,0.11637 0.23914,0.27541 0.11768,0.1005 0.14705,0.11314 0.21918,0.0944 0.0661,-0.0175 0.1076,-0.006 0.20063,0.0533 0.18559,0.11855 0.29813,0.16588 0.39448,0.16588 0.0948,0 0.10832,0.0254 0.0591,0.11268 -0.0258,0.0459 -0.0207,0.0536 0.0395,0.0536 0.038,0 0.14648,0.0247 0.24025,0.0554 0.21321,0.0693 0.30215,0.074 0.24872,0.013 -0.0789,-0.0899 0.004,-0.0653 0.2868,0.0841 0.3941,0.20882 0.59348,0.23269 1.37823,0.16493 0.11618,-0.0101 0.15397,-0.004 0.15397,0.0237 0,0.0239 -0.1008,0.0602 -0.28597,0.10253 -0.24336,0.0556 -0.37328,0.0664 -0.87254,0.0723 -0.39339,0.004 -0.66213,-0.005 -0.81597,-0.0309 z m -0.40119,-4.15457 c 0,-0.006 -0.0361,-0.0317 -0.0807,-0.0571 l -0.0807,-0.0462 0.0693,0.0571 c 0.0676,0.0557 0.0921,0.068 0.0921,0.0462 z m 4.03817,-2.90448 c -0.01,-0.0221 -0.016,-0.0152 -0.018,0.017 -0.001,0.0295 0.005,0.0455 0.015,0.0361 0.01,-0.009 0.0108,-0.0331 0.002,-0.0531 z m -6.65578,-2.90662 c 0.0363,-0.044 0.0353,-0.0449 -0.0111,-0.0105 -0.0284,0.0211 -0.0513,0.0429 -0.0513,0.0483 0,0.0227 0.024,0.008 0.0624,-0.0378 z m 0.33354,-0.25634 c 0.0296,-0.0307 0.0464,-0.0554 0.038,-0.0554 -0.008,0 -0.0382,0.0247 -0.0677,0.0554 -0.0296,0.0307 -0.0464,0.0554 -0.038,0.0554 0.008,0 0.0382,-0.0247 0.0677,-0.0554 z m 0.36918,-0.19482 c 0.0967,-0.0311 0.15162,-0.0361 0.17202,-0.0174 0.0206,0.0195 0.096,0.008 0.23684,-0.0356 0.11378,-0.0351 0.20165,-0.069 0.19527,-0.0751 -0.007,-0.006 -0.10009,0.0171 -0.2082,0.051 -0.14849,0.0467 -0.20194,0.0538 -0.21849,0.0288 -0.0279,-0.0429 -0.29486,0.0418 -0.40958,0.12944 l -0.0784,0.06 0.0842,-0.0476 c 0.0462,-0.0259 0.14816,-0.0682 0.22628,-0.0932 z m 0.84556,-0.0704 c 0.0852,-0.0238 0.14977,-0.0481 0.14358,-0.0541 -0.0135,-0.0128 -0.31712,0.0692 -0.31712,0.0858 0,0.0168 0.002,0.0163 0.17354,-0.0318 z m 0.48636,-0.15107 0.11733,-0.0204 -0.10266,-0.002 c -0.0565,-10e-4 -0.13564,0.0168 -0.17597,0.0404 -0.0473,0.0276 -0.0527,0.0353 -0.0144,0.0227 0.0324,-0.0109 0.11145,-0.0293 0.17598,-0.0404 z m 0.23297,-0.0523 c 0.009,-0.0136 -0.0101,-0.0189 -0.0425,-0.0107 -0.0685,0.0171 -0.0772,0.0355 -0.0161,0.0355 0.0232,0 0.0495,-0.0113 0.0587,-0.0249 z m 0.94694,0.009 c -0.01,-0.009 -0.0349,-0.0102 -0.0562,-0.002 -0.0233,0.009 -0.0162,0.015 0.0181,0.0167 0.0312,9.3e-4 0.048,-0.005 0.0381,-0.0143 z m -0.17538,-0.0303 c -0.0284,-0.007 -0.0744,-0.007 -0.10264,0 -0.0284,0.007 -0.005,0.0126 0.0513,0.0126 0.0565,0 0.0795,-0.005 0.0513,-0.0126 z m -0.29251,-0.0291 c -0.0601,-0.006 -0.16566,-0.006 -0.23462,-1.8e-4 -0.069,0.006 -0.0201,0.0107 0.1092,0.0108 0.12904,9e-5 0.18549,-0.004 0.12542,-0.0107 z m -0.38266,-0.0241 c -0.01,-0.009 -0.0349,-0.0103 -0.0562,-0.002 -0.0233,0.009 -0.0162,0.0151 0.0181,0.017 0.0312,9.2e-4 0.048,-0.005 0.0381,-0.0143 z m -0.19853,6.66121 c -0.29876,-0.20227 -0.40944,-0.30689 -0.40944,-0.387 0,-0.0427 0.0103,-0.0773 0.0226,-0.0773 0.0425,0 0.54173,0.49261 0.53082,0.52357 -0.007,0.0183 -0.0666,-0.007 -0.14399,-0.0593 z m -0.15374,-0.51357 c -0.15516,-0.14816 -0.20486,-0.22784 -0.14216,-0.22784 0.0374,0 0.32638,0.31235 0.32638,0.35312 0,0.0194 -0.003,0.0347 -0.008,0.0347 -0.004,0 -0.0837,-0.0721 -0.17598,-0.16015 z m 1.7167,-0.60647 c -0.0819,-0.0314 -0.031,-0.0891 0.10265,-0.11616 0.0766,-0.0152 0.19838,-0.0532 0.27059,-0.0838 0.0722,-0.0308 0.13648,-0.0506 0.14285,-0.0446 0.007,0.006 -0.026,0.0676 -0.0726,0.13688 -0.0837,0.12516 -0.0852,0.12592 -0.24551,0.1238 -0.0887,-9.2e-4 -0.17781,-0.009 -0.19797,-0.0161 z m 0.87988,-0.61993 c -0.0792,-0.0303 -0.0824,-0.0812 -0.0161,-0.2555 0.0568,-0.14967 0.11566,-0.1792 0.0829,-0.0418 -0.0118,0.0495 -0.0271,0.12125 -0.0349,0.15935 l -0.0134,0.0693 0.0586,-0.0631 c 0.0346,-0.037 0.0668,-0.12493 0.0786,-0.21447 0.011,-0.0833 0.0319,-0.14456 0.0459,-0.13621 0.0361,0.0213 0.0325,0.24031 -0.007,0.38763 -0.0343,0.12869 -0.0651,0.14368 -0.19449,0.0945 z m -6.94061,-0.34783 c -0.01,-0.024 -0.0182,-0.11867 -0.0182,-0.21017 0,-0.12069 0.0102,-0.16317 0.0364,-0.15486 0.0437,0.0134 0.0691,0.40887 0.0261,0.40887 -0.0148,0 -0.0353,-0.0199 -0.0453,-0.0439 z m 7.05584,-0.64824 c -0.0455,-0.0582 -0.0596,-0.10423 -0.0466,-0.15289 0.0262,-0.0999 0.096,-0.0857 0.14719,0.0304 0.0797,0.18022 0.0106,0.26468 -0.10049,0.12275 z m -7.06186,-0.43999 c -0.002,-0.15715 -2e-5,-0.162 0.0736,-0.15936 0.0624,0.002 0.0775,0.0181 0.0847,0.0874 0.008,0.0785 -0.0822,0.2341 -0.13579,0.2341 -0.0111,0 -0.0213,-0.073 -0.0225,-0.1621 z m 7.60251,-3.40694 c 0.004,-0.24799 0.0481,-0.33203 0.0828,-0.15838 0.0239,0.12099 -0.007,0.33466 -0.0531,0.37114 -0.0251,0.02 -0.033,-0.0342 -0.03,-0.21276 z m -3.85384,-0.14863 c 0.0118,-0.0334 0.41639,-0.19 0.49103,-0.19 0.0877,0 -0.0696,0.10154 -0.25102,0.16201 -0.20228,0.0675 -0.25613,0.0738 -0.24001,0.0281 z"
       class="ColorScheme-Text"
       id="path12-7" />
  </g>
</svg>
