<?xml version="1.0" encoding="UTF-8" standalone="no"?>
<svg
   width="32"
   version="1.1"
   height="32"
   viewBox="0 0 32 32"
   id="svg15"
   sodipodi:docname="folder-podcast.svg"
   inkscape:version="1.1.1 (3bf5ae0d25, 2021-09-20)"
   xmlns:inkscape="http://www.inkscape.org/namespaces/inkscape"
   xmlns:sodipodi="http://sodipodi.sourceforge.net/DTD/sodipodi-0.dtd"
   xmlns:xlink="http://www.w3.org/1999/xlink"
   xmlns="http://www.w3.org/2000/svg"
   xmlns:svg="http://www.w3.org/2000/svg"
   xmlns:rdf="http://www.w3.org/1999/02/22-rdf-syntax-ns#"
   xmlns:cc="http://creativecommons.org/ns#"
   xmlns:dc="http://purl.org/dc/elements/1.1/">
  <sodipodi:namedview
     pagecolor="#ffffff"
     bordercolor="#666666"
     borderopacity="1"
     objecttolerance="10"
     gridtolerance="10"
     guidetolerance="10"
     inkscape:pageopacity="0"
     inkscape:pageshadow="2"
     inkscape:window-width="1920"
     inkscape:window-height="1007"
     id="namedview17"
     showgrid="false"
     inkscape:zoom="9.8125"
     inkscape:cx="-12.942675"
     inkscape:cy="6.5732484"
     inkscape:window-x="0"
     inkscape:window-y="0"
     inkscape:window-maximized="1"
     inkscape:current-layer="layer1"
     inkscape:document-rotation="0"
     inkscape:pagecheckerboard="0" />
  <defs
     id="defs5455">
    <linearGradient
       inkscape:collect="always"
       xlink:href="#linearGradient2230"
       id="linearGradient2232"
       x1="384.57144"
       y1="515.79797"
       x2="448.57144"
       y2="515.79797"
       gradientUnits="userSpaceOnUse"
       gradientTransform="matrix(0.46875,0,0,0.46153837,205.30357,293.73742)" />
    <linearGradient
       inkscape:collect="always"
       id="linearGradient2230">
      <stop
         style="stop-color:#3683b5;stop-opacity:1"
         offset="0"
         id="stop2226" />
      <stop
         style="stop-color:#00e1e1;stop-opacity:1"
         offset="0.50507295"
         id="stop2332" />
      <stop
         style="stop-color:#ff6eff;stop-opacity:1"
         offset="1"
         id="stop2228" />
    </linearGradient>
  </defs>
  <metadata
     id="metadata5458">
    <rdf:RDF>
      <cc:Work
         rdf:about="">
        <dc:format>image/svg+xml</dc:format>
        <dc:type
           rdf:resource="http://purl.org/dc/dcmitype/StillImage" />
      </cc:Work>
    </rdf:RDF>
  </metadata>
  <g
     inkscape:label="Capa 1"
     inkscape:groupmode="layer"
     id="layer1"
     transform="translate(-384.57143,-515.798)">
    <rect
       style="fill:#3b445f;fill-opacity:1;stroke:none;stroke-width:0.596181"
       id="center-3"
       width="28.641407"
       height="19.707689"
       x="386.22766"
       y="523.35187"
       ry="1.8769209"
       rx="1.9094329" />
    <path
       d="m 412.83717,522.5717 h -13.7469 c -0.30383,0 -0.56951,-0.15398 -0.75942,-0.42377 l -1.02539,-1.5408 c -0.34172,-0.53931 -0.91147,-0.80913 -1.51886,-0.80913 h -7.02535 c -1.74698,0 -3.18982,1.46396 -3.18982,3.2359 v 17.99041 c 0,1.50242 1.21533,2.77369 2.73419,2.77369 h 11.81018 v 0 0 0 0 0 0 0 h 0.91126 v 0 0 0 0 0 0 0 0 0 h 11.81018 c 1.48102,0 2.73419,-1.23289 2.73419,-2.77369 V 525.3453 c 0,-1.5408 -1.21506,-2.77341 -2.73419,-2.77341 z m -11.81011,21.2263 v 0 h -0.91126 v 0 0 z m 13.6329,-2.7736 c 0,1.00153 -0.7976,1.84905 -1.82272,1.84905 h -24.53176 c -0.98728,0 -1.82272,-0.84752 -1.82272,-1.84905 l -2.7e-4,-6.20226 v -3.5057 c 0,-1.00155 0.83545,-1.84905 1.82272,-1.84905 h 13.7469 c 0.60766,0 1.17715,-0.30823 1.51886,-0.80914 l 0.98728,-1.54079 c 0.18993,-0.2311 0.45561,-0.42378 0.75943,-0.42378 h 7.06332 c 1.25317,0 2.27863,1.04021 2.27863,2.31155 v 5.04649 z m -2.27862,-15.21674 h -7.06332 c -0.60766,0 -1.17716,0.30822 -1.51886,0.80913 l -0.98728,1.5408 c -0.15178,0.26979 -0.45562,0.42377 -0.75943,0.42377 h -13.7468 c -0.68341,0 -1.32812,0.0783 -1.82297,0.78572 v -4.03062 c 0,-0.92308 0.96375,-1.84615 1.90125,-1.84615 h 7.50001 l 0.0201,0.0214 1.38614,-0.0214 1.838,0.006 h 13.7469 c 0.98728,0 1.82273,0.84751 1.82273,1.84905 v 1.4253 c -0.6074,-0.61617 -1.40474,-0.96281 -2.3162,-0.96281 z"
       id="path64"
       sodipodi:nodetypes="csccsssssccccccccccccccccccsssccccccccccssccsssccssscccsccscccccccssscc"
       style="fill:url(#linearGradient2232);fill-opacity:1;stroke-width:0.0683002" />
    <path
       d="m 413.69575,540.79744 c 0,0.63703 -0.52465,1.15348 -1.17175,1.15348 h -0.5859 c -0.64737,0 -1.1719,-0.51645 -1.1719,-1.15348 0,-0.14167 -0.007,-0.28138 -0.0187,-0.42014 -9.4e-4,-0.0232 -0.003,-0.0467 -0.005,-0.0695 -0.0126,-0.13155 -0.0306,-0.26196 -0.0529,-0.3907 -0.004,-0.0253 -0.009,-0.0498 -0.0136,-0.0747 -0.0248,-0.12971 -0.0532,-0.25801 -0.0875,-0.38448 -0.005,-0.0185 -0.0104,-0.0359 -0.0158,-0.0541 -0.0367,-0.13029 -0.0772,-0.259 -0.12386,-0.38521 -3.9e-4,-0.002 -9.4e-4,-0.004 -0.002,-0.006 -0.047,-0.12675 -0.1004,-0.2507 -0.15734,-0.37267 -0.008,-0.0177 -0.0155,-0.0355 -0.024,-0.0529 -0.0559,-0.11648 -0.11632,-0.22999 -0.1804,-0.34152 -0.0112,-0.0197 -0.0226,-0.0392 -0.0341,-0.0589 -0.0658,-0.11084 -0.13532,-0.21958 -0.20897,-0.32505 -0.0104,-0.0144 -0.0208,-0.029 -0.0308,-0.0432 -0.0767,-0.10746 -0.1565,-0.21254 -0.24088,-0.3138 -0.002,-0.003 -0.005,-0.006 -0.007,-0.009 -0.0848,-0.10081 -0.17393,-0.19758 -0.26577,-0.29194 -0.0151,-0.0159 -0.0301,-0.0317 -0.0457,-0.0473 -0.0896,-0.0898 -0.18316,-0.17618 -0.27942,-0.25929 -0.0174,-0.0152 -0.0351,-0.0305 -0.0526,-0.0449 -0.0985,-0.0829 -0.19905,-0.16266 -0.30346,-0.23802 -0.0149,-0.0108 -0.0302,-0.0207 -0.0451,-0.0315 -0.1087,-0.077 -0.21934,-0.15111 -0.33434,-0.21998 -0.002,-9.2e-4 -0.004,-0.002 -0.006,-0.003 -0.1133,-0.0679 -0.23058,-0.13029 -0.34908,-0.19013 -0.0214,-0.0107 -0.0421,-0.0217 -0.0634,-0.032 -0.11393,-0.0553 -0.23022,-0.10578 -0.34881,-0.15309 -0.025,-0.0102 -0.0499,-0.02 -0.0752,-0.0294 -0.12051,-0.046 -0.24273,-0.0879 -0.36755,-0.12508 -0.0194,-0.006 -0.0394,-0.011 -0.0588,-0.0165 -0.46802,-0.13394 -0.96237,-0.20731 -1.47444,-0.20731 -0.32348,0 -0.58588,0.25801 -0.58588,0.57659 v 0.57703 c 0,0.31845 0.26242,0.57689 0.58588,0.57689 0.32161,0 0.63194,0.0462 0.92789,0.12576 0.0907,0.0246 0.17963,0.0524 0.26733,0.0838 0.005,0.002 0.009,0.004 0.0149,0.006 0.43391,0.15692 0.82705,0.39549 1.16139,0.69662 0.0145,0.0132 0.0296,0.0255 0.0436,0.0392 0.0526,0.0488 0.10312,0.0996 0.15241,0.15168 0.0217,0.023 0.0435,0.046 0.0644,0.0695 0.0441,0.0484 0.086,0.0976 0.12709,0.14873 0.0244,0.0305 0.0476,0.0621 0.0709,0.0935 0.0369,0.0494 0.0743,0.0984 0.10842,0.1493 0.025,0.0377 0.047,0.0763 0.0706,0.11452 0.0459,0.0751 0.0894,0.15138 0.12944,0.22998 0.0295,0.0575 0.0591,0.11509 0.0854,0.17464 0.0184,0.041 0.0339,0.0834 0.0506,0.12549 0.022,0.0559 0.0436,0.11182 0.0627,0.16915 0.0145,0.0428 0.0273,0.0856 0.0398,0.12874 0.0177,0.0611 0.0337,0.12309 0.0483,0.18519 0.009,0.0409 0.0191,0.0815 0.0269,0.12324 0.0136,0.0693 0.0233,0.13972 0.0325,0.20986 0.004,0.0373 0.0104,0.0738 0.0141,0.11126 0.006,0.068 0.008,0.13719 0.0105,0.20606 0.004,0.0395 0.006,0.0793 0.006,0.11972 0,0.63703 -0.5245,1.15348 -1.17189,1.15348 h -0.43949 -0.14647 c -0.64703,0 -1.17161,-0.51645 -1.17161,-1.15348 0,-0.31859 -0.26241,-0.57703 -0.58595,-0.57703 -0.32347,0 -0.58588,0.25844 -0.58588,0.57703 0,0.31845 0.26242,0.5766 0.58588,0.5766 0.16199,0 0.29302,0.12928 0.29302,0.28844 0,0.15944 -0.13103,0.28844 -0.29302,0.28844 -0.64707,-3e-5 -1.17157,-0.51649 -1.17157,-1.15351 0,-0.63744 0.5245,-1.1539 1.17156,-1.1539 0.6471,0 1.17197,0.51645 1.17197,1.1539 0,0.31846 0.26204,0.5766 0.58559,0.5766 h 0.14647 0.43947 c 0.32349,0 0.58596,-0.25814 0.58596,-0.5766 0,-0.43702 -0.10145,-0.84968 -0.27822,-1.22094 -0.0151,-0.0317 -0.0299,-0.0637 -0.0464,-0.0951 -0.0217,-0.0416 -0.045,-0.0829 -0.0685,-0.12352 -0.0178,-0.0306 -0.0369,-0.0608 -0.0558,-0.0906 -0.024,-0.0378 -0.0482,-0.0759 -0.0738,-0.11252 -0.0394,-0.0559 -0.0811,-0.11028 -0.12415,-0.16337 -0.0256,-0.031 -0.0525,-0.0607 -0.0792,-0.0909 -0.0315,-0.0355 -0.0637,-0.0711 -0.0969,-0.10506 -0.0272,-0.0274 -0.0545,-0.0544 -0.0827,-0.0808 -0.0358,-0.034 -0.0732,-0.0663 -0.11071,-0.0986 -0.024,-0.0204 -0.0476,-0.0414 -0.0722,-0.0611 -0.0624,-0.0495 -0.12646,-0.0977 -0.19282,-0.14238 -0.0194,-0.0131 -0.0398,-0.0239 -0.0595,-0.0365 -0.0516,-0.0327 -0.10416,-0.065 -0.15798,-0.0948 -0.0276,-0.0152 -0.0555,-0.0294 -0.0834,-0.0437 -0.0509,-0.0263 -0.10312,-0.0504 -0.15569,-0.0738 -0.0259,-0.0112 -0.0511,-0.0232 -0.0775,-0.034 -0.0779,-0.0312 -0.15704,-0.0604 -0.23815,-0.0856 -0.009,-0.003 -0.02,-0.005 -0.0302,-0.008 -0.0729,-0.0216 -0.14756,-0.0407 -0.22271,-0.0565 -0.028,-0.006 -0.0569,-0.0109 -0.0854,-0.0162 -0.061,-0.0114 -0.12316,-0.0204 -0.18559,-0.0279 -0.027,-0.003 -0.0532,-0.006 -0.0805,-0.009 -0.0897,-0.008 -0.17965,-0.0134 -0.27133,-0.0134 -0.64702,-2e-5 -1.17153,-0.51662 -1.17153,-1.15393 v -0.57703 c 0,-0.63716 0.52451,-1.15362 1.17155,-1.15362 0.0953,0 0.18954,0.003 0.28379,0.007 0.0342,0.002 0.0683,0.005 0.10282,0.007 0.0627,0.004 0.12545,0.008 0.1875,0.0139 0.0325,0.003 0.0644,0.007 0.0966,0.011 0.0621,0.007 0.12415,0.0143 0.18559,0.0232 0.0367,0.005 0.0732,0.0114 0.10971,0.0174 0.0522,0.008 0.10374,0.0175 0.15569,0.0272 0.0418,0.008 0.0828,0.0165 0.12381,0.0253 0.0539,0.0114 0.10742,0.0237 0.16027,0.0366 0.0355,0.008 0.0706,0.0174 0.10614,0.0264 0.0522,0.0139 0.10416,0.0287 0.15598,0.0437 0.0375,0.0109 0.0755,0.0217 0.11301,0.0333 0.0479,0.0148 0.0946,0.031 0.14226,0.0475 0.0412,0.014 0.0824,0.0274 0.12279,0.0426 0.0404,0.0149 0.0808,0.0314 0.12088,0.0469 0.0436,0.0172 0.088,0.0337 0.13138,0.0521 0.0375,0.0158 0.0736,0.0327 0.11072,0.0492 0.0929,0.0414 0.18459,0.085 0.27519,0.13099 0.0282,0.0143 0.0569,0.0281 0.0848,0.043 0.0476,0.0252 0.0943,0.0518 0.14089,0.0782 0.0303,0.0167 0.0611,0.0332 0.091,0.0511 0.0482,0.0285 0.0958,0.0584 0.14347,0.0883 0.0259,0.0165 0.0523,0.0323 0.0781,0.0491 0.0464,0.03 0.092,0.0611 0.13695,0.0924 0.0289,0.0201 0.0581,0.0404 0.0871,0.0611 0.0415,0.03 0.0825,0.0601 0.12288,0.0906 0.0285,0.0213 0.0566,0.0434 0.0843,0.0653 0.0431,0.0342 0.0861,0.0686 0.12844,0.10378 0.0224,0.0188 0.0444,0.0377 0.0664,0.0566 0.0454,0.0392 0.0909,0.0784 0.13531,0.11901 0.0149,0.0132 0.0286,0.0269 0.043,0.0405 0.41423,0.38648 0.77199,0.8318 1.05764,1.32277 0.003,0.006 0.007,0.012 0.0104,0.0181 0.0383,0.0661 0.075,0.13295 0.11042,0.20055 0.004,0.009 0.008,0.0172 0.0134,0.0259 0.0358,0.0689 0.0704,0.13804 0.10323,0.20859 9.3e-4,0.003 0.003,0.007 0.005,0.0107 0.0345,0.074 0.0677,0.14844 0.0988,0.22407 0,2.9e-4 0,3.9e-4 2.9e-4,9.3e-4 0.1612,0.38971 0.28049,0.8007 0.35244,1.22771 0.0519,0.30873 0.0805,0.62532 0.0805,0.94886 0,0.31844 0.26233,0.5766 0.58587,0.5766 h 0.58587 c 0.32355,0 0.58573,-0.25816 0.58573,-0.5766 0,-0.46703 -0.0454,-0.92336 -0.12845,-1.3667 -9.4e-4,-0.005 -9.4e-4,-0.0102 -0.003,-0.0149 -0.0205,-0.10834 -0.0436,-0.21606 -0.0689,-0.32268 -9.4e-4,-0.004 -0.002,-0.008 -0.002,-0.012 -0.0246,-0.10256 -0.0511,-0.2045 -0.0798,-0.30534 -0.004,-0.0132 -0.007,-0.0264 -0.0113,-0.0399 -0.0292,-0.10061 -0.0601,-0.19943 -0.0932,-0.29845 -3.9e-4,-0.002 -9.4e-4,-0.005 -0.002,-0.007 -0.25062,-0.74249 -0.61565,-1.43305 -1.07509,-2.05232 -9.3e-4,-0.002 -0.002,-0.004 -0.004,-0.006 -0.0575,-0.0773 -0.11688,-0.15297 -0.17739,-0.22803 -0.012,-0.0148 -0.0236,-0.0303 -0.0357,-0.0452 -0.056,-0.0689 -0.11428,-0.13648 -0.17307,-0.20337 -0.0169,-0.0192 -0.0337,-0.0382 -0.0506,-0.0573 -0.0587,-0.0656 -0.11957,-0.13028 -0.18051,-0.19408 -0.0169,-0.0174 -0.0339,-0.0352 -0.0509,-0.0527 -0.0595,-0.0608 -0.12028,-0.12056 -0.18165,-0.17916 -0.023,-0.0217 -0.0457,-0.0434 -0.069,-0.065 -0.0605,-0.0562 -0.12214,-0.11182 -0.18465,-0.16646 -0.0227,-0.02 -0.0459,-0.0395 -0.0691,-0.0592 -0.062,-0.0531 -0.12472,-0.10549 -0.18881,-0.15619 -0.0295,-0.0234 -0.059,-0.0458 -0.0889,-0.069 -0.0601,-0.0462 -0.12043,-0.0931 -0.18222,-0.13775 -0.0306,-0.022 -0.0618,-0.0431 -0.093,-0.0653 -0.0641,-0.0449 -0.12816,-0.0901 -0.19337,-0.13323 -0.0144,-0.009 -0.0283,-0.0179 -0.0425,-0.0272 -0.16549,-0.10732 -0.33499,-0.20858 -0.50907,-0.30324 -0.009,-0.005 -0.0183,-0.0107 -0.0276,-0.0157 -0.0519,-0.0277 -0.10506,-0.0539 -0.15761,-0.0808 -0.0542,-0.0277 -0.10807,-0.0556 -0.16291,-0.0818 -0.0516,-0.0248 -0.1045,-0.0481 -0.15672,-0.0717 -0.0532,-0.0239 -0.10569,-0.0479 -0.15962,-0.0709 -0.0568,-0.0242 -0.11393,-0.0467 -0.17145,-0.0695 -0.0545,-0.0216 -0.10835,-0.043 -0.16357,-0.0634 -0.0526,-0.0195 -0.10576,-0.038 -0.15863,-0.0559 -0.0621,-0.0213 -0.12451,-0.0424 -0.18724,-0.0623 -0.0502,-0.0159 -0.10114,-0.0314 -0.15205,-0.0464 -0.0631,-0.0188 -0.12644,-0.0361 -0.19018,-0.0529 -0.0548,-0.0146 -0.1097,-0.0289 -0.16492,-0.0421 -0.0614,-0.0148 -0.12317,-0.0284 -0.18525,-0.042 -0.0564,-0.0124 -0.11263,-0.0244 -0.16977,-0.0354 -0.0647,-0.0123 -0.13038,-0.0239 -0.19574,-0.0345 -0.0532,-0.009 -0.10614,-0.0181 -0.15998,-0.026 -0.0775,-0.0109 -0.15599,-0.02 -0.23416,-0.0291 -0.0427,-0.005 -0.0845,-0.0102 -0.12715,-0.0145 -0.088,-0.008 -0.17701,-0.0144 -0.26569,-0.02 -0.0367,-0.002 -0.0729,-0.006 -0.11001,-0.007 -0.0289,-10e-4 -0.0581,-10e-4 -0.0874,-0.002 v -0.004 c -0.0738,-3.9e-4 -0.14748,-0.0284 -0.20398,-0.0841 -0.11429,-0.11253 -0.11429,-0.29533 0,-0.40788 0.0624,-0.0614 0.14584,-0.0861 0.22729,-0.0806 4.38446,0.16208 7.88945,3.71112 7.88945,8.06802 z m -9.0814,-7.49948 c -0.16164,0 -0.29265,-0.12929 -0.29265,-0.28845 0,-0.15944 0.13101,-0.28844 0.29265,-0.28844 0.16192,0 0.293,0.129 0.293,0.28844 0,0.15916 -0.13108,0.28845 -0.293,0.28845 z"
       id="path2-36-3-3"
       style="fill:#ff9955;fill-opacity:1;stroke-width:0.0181673" />
  </g>
</svg>
