<?xml version="1.0" encoding="UTF-8" standalone="no"?>
<svg
   width="32"
   version="1.1"
   height="32"
   viewBox="0 0 32 32"
   id="svg15"
   sodipodi:docname="folder-windows.svg"
   inkscape:version="1.1.1 (3bf5ae0d25, 2021-09-20)"
   xmlns:inkscape="http://www.inkscape.org/namespaces/inkscape"
   xmlns:sodipodi="http://sodipodi.sourceforge.net/DTD/sodipodi-0.dtd"
   xmlns:xlink="http://www.w3.org/1999/xlink"
   xmlns="http://www.w3.org/2000/svg"
   xmlns:svg="http://www.w3.org/2000/svg"
   xmlns:rdf="http://www.w3.org/1999/02/22-rdf-syntax-ns#"
   xmlns:cc="http://creativecommons.org/ns#"
   xmlns:dc="http://purl.org/dc/elements/1.1/">
  <sodipodi:namedview
     pagecolor="#ffffff"
     bordercolor="#666666"
     borderopacity="1"
     objecttolerance="10"
     gridtolerance="10"
     guidetolerance="10"
     inkscape:pageopacity="0"
     inkscape:pageshadow="2"
     inkscape:window-width="1920"
     inkscape:window-height="1007"
     id="namedview17"
     showgrid="false"
     inkscape:zoom="9.8125"
     inkscape:cx="-12.942675"
     inkscape:cy="6.5732484"
     inkscape:window-x="0"
     inkscape:window-y="0"
     inkscape:window-maximized="1"
     inkscape:current-layer="layer1"
     inkscape:document-rotation="0"
     inkscape:pagecheckerboard="0" />
  <defs
     id="defs5455">
    <linearGradient
       inkscape:collect="always"
       xlink:href="#linearGradient2230"
       id="linearGradient2232"
       x1="384.57144"
       y1="515.79797"
       x2="448.57144"
       y2="515.79797"
       gradientUnits="userSpaceOnUse"
       gradientTransform="matrix(0.46875,0,0,0.46153837,205.30357,293.73743)" />
    <linearGradient
       inkscape:collect="always"
       id="linearGradient2230">
      <stop
         style="stop-color:#4e99ca;stop-opacity:0.80000001"
         offset="0"
         id="stop2226" />
      <stop
         style="stop-color:#20ffff;stop-opacity:0.80000001"
         offset="0.50507295"
         id="stop2332" />
      <stop
         style="stop-color:#ffaeff;stop-opacity:0.69"
         offset="1"
         id="stop2228" />
    </linearGradient>
    <linearGradient
       inkscape:collect="always"
       xlink:href="#linearGradient2230"
       id="linearGradient1026"
       gradientUnits="userSpaceOnUse"
       gradientTransform="matrix(0.46875,0,0,0.46153837,212.80358,296.04509)"
       x1="404.57144"
       y1="520.79755"
       x2="428.57147"
       y2="520.79755" />
  </defs>
  <metadata
     id="metadata5458">
    <rdf:RDF>
      <cc:Work
         rdf:about="">
        <dc:format>image/svg+xml</dc:format>
        <dc:type
           rdf:resource="http://purl.org/dc/dcmitype/StillImage" />
      </cc:Work>
    </rdf:RDF>
  </metadata>
  <g
     inkscape:label="Capa 1"
     inkscape:groupmode="layer"
     id="layer1"
     transform="translate(-384.57143,-515.798)">
    <rect
       style="fill:#3b445f;fill-opacity:1;stroke:none;stroke-width:0.586901"
       id="center-3"
       width="28.21875"
       height="19.384611"
       x="386.46207"
       y="523.49036"
       ry="1.8461516"
       rx="1.8812554" />
    <path
       d="m 412.83717,522.5717 h -13.7469 c -0.30383,0 -0.56951,-0.15398 -0.75942,-0.42377 l -1.02539,-1.5408 c -0.34172,-0.53931 -0.91147,-0.80913 -1.51886,-0.80913 h -7.02535 c -1.74698,0 -3.18982,1.46396 -3.18982,3.2359 v 17.99041 c 0,1.50242 1.21533,2.77369 2.73419,2.77369 h 11.81018 v 0 0 0 0 0 0 0 h 0.91126 v 0 0 0 0 0 0 0 0 0 h 11.81018 c 1.48102,0 2.73419,-1.23289 2.73419,-2.77369 V 525.3453 c 0,-1.5408 -1.21506,-2.77341 -2.73419,-2.77341 z m -11.81011,21.2263 v 0 h -0.91126 v 0 0 z m 13.6329,-2.7736 c 0,1.00153 -0.7976,1.84905 -1.82272,1.84905 h -24.53176 c -0.98728,0 -1.82272,-0.84752 -1.82272,-1.84905 l -2.7e-4,-6.20226 v -3.5057 c 0,-1.00155 0.83545,-1.84905 1.82272,-1.84905 h 13.7469 c 0.60766,0 1.17715,-0.30823 1.51886,-0.80914 l 0.98728,-1.54079 c 0.18993,-0.2311 0.45561,-0.42378 0.75943,-0.42378 h 7.06332 c 1.25317,0 2.27863,1.04021 2.27863,2.31155 v 5.04649 z m -2.27862,-15.21674 h -7.06332 c -0.60766,0 -1.17716,0.30822 -1.51886,0.80913 l -0.98728,1.5408 c -0.15178,0.26979 -0.45562,0.42377 -0.75943,0.42377 h -13.7468 c -0.68341,0 -1.32812,0.0783 -1.82297,0.78572 v -4.03062 c 0,-0.92308 0.96375,-1.84615 1.90125,-1.84615 h 7.50001 l 0.0201,0.0214 1.38614,-0.0214 1.838,0.006 h 13.7469 c 0.98728,0 1.82273,0.84751 1.82273,1.84905 v 1.4253 c -0.6074,-0.61617 -1.40474,-0.96281 -2.3162,-0.96281 z"
       id="path64"
       sodipodi:nodetypes="csccsssssccccccccccccccccccsssccccccccccssccsssccssscccsccscccccccssscc"
       style="fill:url(#linearGradient2232);fill-opacity:1;stroke-width:0.0683002" />
    <path
       fill-rule="evenodd"
       clip-rule="evenodd"
       d="m 412.29022,541.95143 h -2.46092 c -0.19397,0 -0.35174,-0.15517 -0.35174,-0.34616 0,-0.19133 0.15777,-0.34615 0.35174,-0.34615 h 2.28514 c 0.48546,0 0.8789,-0.38739 0.8789,-0.86539 v -2.24997 c 0,-0.19134 0.15724,-0.3465 0.35156,-0.3465 0.19433,0 0.35157,0.15516 0.35157,0.3465 v 2.42305 c 0,0.76466 -0.62965,1.38462 -1.40625,1.38462 z m -9.49219,-7.61523 c 0.19432,0 0.35165,0.15481 0.35165,0.34613 0,0.19081 -0.15733,0.3458 -0.35165,0.3458 -0.19424,0 -0.35156,-0.15499 -0.35156,-0.3458 0,-0.19132 0.15732,-0.34613 0.35156,-0.34613 z m 10.88538,1.56493 c -0.005,0.0372 -0.0106,0.0742 -0.0186,0.11021 -0.004,0.0176 -0.009,0.0342 -0.0134,0.0514 -0.008,0.0301 -0.0158,0.0605 -0.0257,0.0899 -0.004,0.0128 -0.009,0.0257 -0.0141,0.0385 -0.0127,0.0338 -0.0254,0.0673 -0.0408,0.0996 -0.004,0.008 -0.008,0.0166 -0.0122,0.025 -0.0172,0.0352 -0.0355,0.0701 -0.0554,0.10344 -0.004,0.007 -0.008,0.0137 -0.0127,0.0206 -0.0216,0.0345 -0.0444,0.0682 -0.069,0.10099 -0.003,0.005 -0.007,0.009 -0.0105,0.0139 -0.0266,0.0341 -0.0544,0.0676 -0.0839,0.099 -0.002,0.003 -0.005,0.006 -0.008,0.008 -0.0319,0.0341 -0.0659,0.0666 -0.10127,0.0974 -0.24787,0.21466 -0.57197,0.34616 -0.92799,0.34616 v 0.0176 c -0.0568,-0.0112 -0.11571,-0.0176 -0.17578,-0.0176 h -2.46092 c -0.48544,0 -0.87888,0.38739 -0.87888,0.86536 v 2.42305 c 0,0.0592 0.007,0.11731 0.018,0.17308 h -0.018 c 0,0.35055 -0.13337,0.66966 -0.35156,0.91372 -0.0313,0.0348 -0.0642,0.0683 -0.0989,0.0997 -0.002,0.002 -0.005,0.005 -0.008,0.007 -0.0321,0.0291 -0.0661,0.0564 -0.10077,0.0825 -0.005,0.003 -0.01,0.007 -0.0141,0.0105 -0.0333,0.024 -0.0675,0.0466 -0.10257,0.068 -0.007,0.005 -0.0138,0.008 -0.0209,0.0125 -0.0339,0.0196 -0.0693,0.0375 -0.10514,0.0544 -0.009,0.004 -0.0168,0.008 -0.0254,0.0121 -0.0328,0.0152 -0.0667,0.0277 -0.10103,0.0402 -0.013,0.005 -0.0261,0.01 -0.0391,0.0139 -0.0299,0.01 -0.0608,0.0176 -0.0913,0.0253 -0.0176,0.005 -0.0343,0.009 -0.0523,0.0131 -0.0365,0.008 -0.0741,0.0135 -0.11184,0.0183 -0.0105,0.002 -0.0201,0.003 -0.0309,0.005 -0.05,0.006 -0.10109,0.008 -0.15251,0.008 h -3.51542 c -0.77667,3e-5 -1.4064,-0.61994 -1.4064,-1.38459 v -3.4615 c 0,-0.76473 0.62973,-1.38469 1.4064,-1.38469 h 0.35165 2.28487 c 0.48555,0 0.87891,-0.3874 0.87891,-0.86539 v -2.42306 c 0,-0.47797 -0.39336,-0.86536 -0.87891,-0.86536 h -2.46091 c -0.48545,0 -0.87882,0.38739 -0.87882,0.86536 v 0.86539 c 0,0.19116 -0.15733,0.34615 -0.35165,0.34615 -0.19424,0 -0.35157,-0.15499 -0.35157,-0.34615 v -1.03829 c 3e-5,-0.7648 0.62976,-1.38477 1.40643,-1.38477 h 2.81257 c 0.0514,0 0.1018,0.002 0.15174,0.008 0.0116,0.001 0.0227,0.004 0.0343,0.006 0.0369,0.005 0.0735,0.0103 0.1096,0.0179 0.0167,0.003 0.0324,0.008 0.0492,0.0125 0.0317,0.008 0.063,0.0156 0.0936,0.0257 0.0126,0.004 0.0253,0.009 0.038,0.0137 0.0343,0.0125 0.069,0.0253 0.10212,0.0404 0.009,0.004 0.018,0.008 0.0269,0.0125 0.035,0.0164 0.0697,0.0345 0.10325,0.0539 0.007,0.005 0.0142,0.008 0.0213,0.0129 0.035,0.0213 0.0693,0.0436 0.10254,0.0679 0.005,0.003 0.01,0.007 0.0142,0.0103 0.0347,0.026 0.0686,0.0536 0.10068,0.0825 0.002,0.002 0.006,0.005 0.008,0.007 0.0347,0.0316 0.0675,0.0649 0.0988,0.0999 0.21819,0.24406 0.35165,0.56317 0.35165,0.9137 h 0.018 c -0.0116,0.0558 -0.018,0.11375 -0.018,0.1729 v 2.59596 c 0,0.76483 -0.62973,1.38479 -1.40607,1.38479 h -2.63692 c -0.48544,0 -0.87881,0.38748 -0.87881,0.86547 v 3.11534 c 0,0.478 0.39335,0.86538 0.87881,0.86538 h 3.16422 c 0.48544,0 0.87882,-0.38738 0.87882,-0.86538 v -2.59648 c 0,-0.76463 0.62967,-1.38433 1.40607,-1.38433 h 2.63685 c 0.48546,0 0.87891,-0.38722 0.87891,-0.86521 v -3.11554 c 0,-0.47797 -0.39345,-0.86536 -0.87891,-0.86536 h -2.98806 c -0.19415,0 -0.35174,-0.15482 -0.35174,-0.34616 0,-0.19133 0.15759,-0.34615 0.35174,-0.34615 h 3.16385 c 0.7766,0 1.40625,0.61996 1.40625,1.38477 v 3.46134 c 0,0.0505 -0.003,0.1009 -0.009,0.1501 -9.4e-4,0.0107 -0.003,0.0203 -0.005,0.0304 z"
       id="path2-5"
       style="fill:url(#linearGradient1026);fill-opacity:1;stroke-width:0.021803" />
  </g>
</svg>
