<?xml version="1.0" encoding="UTF-8" standalone="no"?>
<svg
   width="32"
   version="1.1"
   height="32"
   viewBox="0 0 32 32"
   id="svg15"
   sodipodi:docname="folder-book.svg"
   inkscape:version="1.1.1 (3bf5ae0d25, 2021-09-20)"
   xmlns:inkscape="http://www.inkscape.org/namespaces/inkscape"
   xmlns:sodipodi="http://sodipodi.sourceforge.net/DTD/sodipodi-0.dtd"
   xmlns:xlink="http://www.w3.org/1999/xlink"
   xmlns="http://www.w3.org/2000/svg"
   xmlns:svg="http://www.w3.org/2000/svg"
   xmlns:rdf="http://www.w3.org/1999/02/22-rdf-syntax-ns#"
   xmlns:cc="http://creativecommons.org/ns#"
   xmlns:dc="http://purl.org/dc/elements/1.1/">
  <sodipodi:namedview
     pagecolor="#ffffff"
     bordercolor="#666666"
     borderopacity="1"
     objecttolerance="10"
     gridtolerance="10"
     guidetolerance="10"
     inkscape:pageopacity="0"
     inkscape:pageshadow="2"
     inkscape:window-width="1920"
     inkscape:window-height="1007"
     id="namedview17"
     showgrid="false"
     inkscape:zoom="9.8125"
     inkscape:cx="-23.33758"
     inkscape:cy="7.6942675"
     inkscape:window-x="0"
     inkscape:window-y="0"
     inkscape:window-maximized="1"
     inkscape:current-layer="layer1"
     inkscape:document-rotation="0"
     inkscape:pagecheckerboard="0" />
  <defs
     id="defs5455">
    <linearGradient
       inkscape:collect="always"
       xlink:href="#linearGradient2230-6"
       id="linearGradient2232-3"
       x1="384.57144"
       y1="515.79797"
       x2="448.57144"
       y2="515.79797"
       gradientUnits="userSpaceOnUse"
       gradientTransform="matrix(0.46875005,0,0,0.46153837,205.30352,293.73742)" />
    <linearGradient
       inkscape:collect="always"
       id="linearGradient2230-6">
      <stop
         style="stop-color:#4e99ca;stop-opacity:0.80000001"
         offset="0"
         id="stop2226-7" />
      <stop
         style="stop-color:#20ffff;stop-opacity:0.80000001"
         offset="0.50507295"
         id="stop2332-5" />
      <stop
         style="stop-color:#ffaeff;stop-opacity:0.69"
         offset="1"
         id="stop2228-3" />
    </linearGradient>
    <linearGradient
       inkscape:collect="always"
       xlink:href="#linearGradient2230-6"
       id="linearGradient1019"
       x1="420.57144"
       y1="527.19818"
       x2="444.57144"
       y2="527.19818"
       gradientUnits="userSpaceOnUse"
       gradientTransform="matrix(0.46875005,0,0,0.46153837,205.30352,293.73742)" />
  </defs>
  <metadata
     id="metadata5458">
    <rdf:RDF>
      <cc:Work
         rdf:about="">
        <dc:format>image/svg+xml</dc:format>
        <dc:type
           rdf:resource="http://purl.org/dc/dcmitype/StillImage" />
      </cc:Work>
    </rdf:RDF>
  </metadata>
  <g
     inkscape:label="Capa 1"
     inkscape:groupmode="layer"
     id="layer1"
     transform="translate(-384.57143,-515.798)">
    <rect
       style="fill:#3b445f;fill-opacity:1;stroke:none;stroke-width:0.586414"
       id="center-3-5"
       width="28.171879"
       height="19.384611"
       x="386.50891"
       y="523.49017"
       ry="1.8461516"
       rx="1.8781306" />
    <path
       d="m 412.83719,522.5717 h -13.74692 c -0.30383,0 -0.56952,-0.15398 -0.75943,-0.42378 l -1.02539,-1.54079 c -0.34172,-0.53931 -0.91144,-0.80913 -1.51885,-0.80913 h -7.02537 c -1.74696,0 -3.1898,1.46396 -3.1898,3.23589 v 17.99042 c 0,1.50242 1.21532,2.77369 2.73418,2.77369 h 11.81019 v 0 0 0 0 0 0 0 h 0.91127 v 0 0 0 0 0 0 0 0 0 h 11.81019 c 1.481,0 2.73417,-1.23289 2.73417,-2.77369 V 525.3453 c 0,-1.5408 -1.21505,-2.77341 -2.73417,-2.77341 z m -11.81012,21.2263 v 0 h -0.91127 v 0 0 z m 13.63289,-2.7736 c 0,1.00153 -0.79762,1.84906 -1.8227,1.84906 h -24.53179 c -0.98727,0 -1.82271,-0.84753 -1.82271,-1.84906 l -2.6e-4,-6.20226 v -3.5057 c 0,-1.00155 0.83544,-1.84905 1.8227,-1.84905 h 13.74693 c 0.60763,0 1.17713,-0.30823 1.51885,-0.80913 l 0.98727,-1.5408 c 0.18991,-0.23111 0.45562,-0.42378 0.75943,-0.42378 h 7.06334 c 1.25314,0 2.2786,1.04021 2.2786,2.31155 v 5.04649 z m -2.27861,-15.21674 h -7.06333 c -0.60764,0 -1.17715,0.30822 -1.51885,0.80913 l -0.98728,1.5408 c -0.1518,0.26979 -0.45562,0.42376 -0.75943,0.42376 h -13.74683 c -0.68337,0 -1.32808,0.0783 -1.82294,0.78573 v -4.03062 c 0,-0.92308 0.96374,-1.84615 1.90122,-1.84615 h 7.50006 l 0.0203,0.0214 1.38614,-0.0214 1.83801,0.006 h 13.74689 c 0.98727,0 1.82275,0.84751 1.82275,1.84905 v 1.42529 c -0.60742,-0.61616 -1.40472,-0.9628 -2.3162,-0.9628 z"
       id="path64-6"
       sodipodi:nodetypes="csccsssssccccccccccccccccccsssccccccccccssccsssccssscccsccscccccccssscc"
       style="fill:url(#linearGradient2232-3);fill-opacity:1;stroke-width:0.0683002" />
    <path
       fill-rule="evenodd"
       clip-rule="evenodd"
       d="m 413.08304,540.16612 -3.98766,1.59498 c -0.31785,0.12259 -0.66249,0.19092 -1.02383,0.19092 -0.36437,0 -0.71208,-0.069 -1.0316,-0.1938 l -3.97791,-1.59083 c -0.36455,-0.18338 -0.61561,-0.5544 -0.61561,-0.98492 v -4.24574 -0.73865 c 0,-0.20409 0.16829,-0.36923 0.37501,-0.36923 0.20728,0 0.37515,0.16514 0.37515,0.36923 v 0.30019 0.43846 4.194 c 0,0.13322 0.0739,0.24717 0.18166,0.31206 l 3.82887,1.5952 c 0.008,0.003 0.0156,0.005 0.0241,0.008 0.25818,0.10763 0.54237,0.16709 0.84045,0.16709 0.2962,0 0.57855,-0.0587 0.83562,-0.16511 0.008,-0.004 0.0156,-0.006 0.0243,-0.008 l 3.83306,-1.59681 c 0.10766,-0.0649 0.18201,-0.17884 0.18201,-0.31207 v -2.71728 -0.43846 -0.30019 c 0,-0.20372 0.1681,-0.36886 0.37501,-0.36886 0.20728,0 0.375,0.16514 0.375,0.36886 v 0.73862 2.76902 c 2e-5,0.42984 -0.25008,0.79944 -0.61337,0.98368 z m 0.23839,-5.59862 c -0.20691,0 -0.375,-0.16569 -0.375,-0.36942 0,-0.20409 0.16809,-0.36923 0.375,-0.36923 0.20728,0 0.375,0.16514 0.375,0.36923 0,0.20373 -0.16772,0.36942 -0.375,0.36942 z m -1.81419,4.52896 -1.76877,0.72565 v -4.1e-4 c -0.0482,0.0213 -0.10103,0.0332 -0.15678,0.0332 -0.21236,0 -0.38523,-0.16966 -0.38523,-0.37915 0,-0.16225 0.10365,-0.29928 0.24902,-0.35391 l 1.80175,-0.77631 c 0.11682,-0.062 0.1992,-0.18173 0.1992,-0.32254 v -4.83438 c 0,-0.10186 -0.0839,-0.18461 -0.18748,-0.18461 -0.0272,0 -0.0531,0.006 -0.0771,0.016 v -3.7e-4 l -2.53597,1.09289 c -0.11793,0.062 -0.19924,0.18174 -0.19924,0.322 v 4.3788 0.73846 c 0,0.40782 -0.33609,0.73865 -0.75027,0.73865 -0.10385,0 -0.20214,-0.0207 -0.29223,-0.0584 l -2.77074,-1.1367 c -0.40411,-0.16858 -0.68699,-0.56178 -0.68699,-1.02004 v -5.1694 c 0,-0.40782 0.336,-0.73862 0.75,-0.73862 0.10217,0 0.19883,0.0204 0.28803,0.0571 l 1.721,0.70583 c 0.14135,0.0584 0.24096,0.19615 0.24096,0.35642 0,0.21364 -0.17581,0.3867 -0.3924,0.3867 -0.0654,0 -0.12651,-0.0175 -0.18072,-0.0453 l -1.41229,-0.60847 c -4e-4,0 0,3.6e-4 -4e-4,3.6e-4 -0.0236,-0.0102 -0.0492,-0.0161 -0.0762,-0.0161 -0.10404,0 -0.18772,0.0828 -0.18772,0.18462 v 4.8344 c 0,0.14082 0.0822,0.26052 0.19943,0.32255 l 2.53616,1.09253 c 3.6e-4,0 0,-3.7e-4 3.6e-4,-3.7e-4 0.0232,0.0102 0.0494,0.0161 0.0768,0.0161 0.10344,0 0.18747,-0.0823 0.18747,-0.18461 v -4.70151 -0.1848 c 0,-0.45902 0.28348,-0.85311 0.688,-1.02079 l 2.77369,-1.13762 c 0.0894,-0.0368 0.18603,-0.0571 0.28819,-0.0571 0.41419,0 0.75037,0.3308 0.75037,0.73861 v 5.16937 c -2e-5,0.459 -0.28493,0.85311 -0.6896,1.02131 z"
       id="path2"
       style="fill:url(#linearGradient1019);fill-opacity:1;stroke-width:0.0232566" />
  </g>
</svg>
