<?xml version="1.0" encoding="UTF-8" standalone="no"?>
<svg
   width="32"
   version="1.1"
   height="32"
   viewBox="0 0 32 32"
   id="svg15"
   sodipodi:docname="folder-android.svg"
   inkscape:version="1.1.1 (3bf5ae0d25, 2021-09-20)"
   xmlns:inkscape="http://www.inkscape.org/namespaces/inkscape"
   xmlns:sodipodi="http://sodipodi.sourceforge.net/DTD/sodipodi-0.dtd"
   xmlns:xlink="http://www.w3.org/1999/xlink"
   xmlns="http://www.w3.org/2000/svg"
   xmlns:svg="http://www.w3.org/2000/svg"
   xmlns:rdf="http://www.w3.org/1999/02/22-rdf-syntax-ns#"
   xmlns:cc="http://creativecommons.org/ns#"
   xmlns:dc="http://purl.org/dc/elements/1.1/">
  <sodipodi:namedview
     pagecolor="#ffffff"
     bordercolor="#666666"
     borderopacity="1"
     objecttolerance="10"
     gridtolerance="10"
     guidetolerance="10"
     inkscape:pageopacity="0"
     inkscape:pageshadow="2"
     inkscape:window-width="1920"
     inkscape:window-height="1007"
     id="namedview17"
     showgrid="false"
     inkscape:zoom="9.8125"
     inkscape:cx="-23.43949"
     inkscape:cy="6.5732484"
     inkscape:window-x="0"
     inkscape:window-y="0"
     inkscape:window-maximized="1"
     inkscape:current-layer="layer1"
     inkscape:document-rotation="0"
     inkscape:pagecheckerboard="0" />
  <defs
     id="defs5455">
    <linearGradient
       inkscape:collect="always"
       xlink:href="#linearGradient2230"
       id="linearGradient2232"
       x1="384.57144"
       y1="515.79797"
       x2="448.57144"
       y2="515.79797"
       gradientUnits="userSpaceOnUse"
       gradientTransform="matrix(0.46875,0,0,0.46153837,205.30358,293.73742)" />
    <linearGradient
       inkscape:collect="always"
       id="linearGradient2230">
      <stop
         style="stop-color:#4e99ca;stop-opacity:0.80000001"
         offset="0"
         id="stop2226" />
      <stop
         style="stop-color:#20ffff;stop-opacity:0.80000001"
         offset="0.50507295"
         id="stop2332" />
      <stop
         style="stop-color:#ffaeff;stop-opacity:0.69"
         offset="1"
         id="stop2228" />
    </linearGradient>
  </defs>
  <metadata
     id="metadata5458">
    <rdf:RDF>
      <cc:Work
         rdf:about="">
        <dc:format>image/svg+xml</dc:format>
        <dc:type
           rdf:resource="http://purl.org/dc/dcmitype/StillImage" />
      </cc:Work>
    </rdf:RDF>
  </metadata>
  <g
     inkscape:label="Capa 1"
     inkscape:groupmode="layer"
     id="layer1"
     transform="translate(-384.57143,-515.798)">
    <rect
       style="fill:#3b445f;fill-opacity:1;stroke:none;stroke-width:0.586904"
       id="center-3"
       width="28.218752"
       height="19.384611"
       x="386.46204"
       y="523.49036"
       ry="1.8461516"
       rx="1.8812555" />
    <path
       d="m 412.83719,522.5717 h -13.74692 c -0.30383,0 -0.56953,-0.15398 -0.75942,-0.42377 l -1.02541,-1.5408 c -0.34172,-0.53931 -0.91142,-0.80913 -1.51884,-0.80913 h -7.02537 c -1.74696,0 -3.1898,1.46396 -3.1898,3.2359 v 17.99041 c 0,1.50242 1.21533,2.77369 2.73417,2.77369 h 11.81019 v 0 0 0 0 0 0 0 h 0.91128 v 0 0 0 0 0 0 0 0 0 h 11.81019 c 1.48099,0 2.73417,-1.23289 2.73417,-2.77369 V 525.3453 c 0,-1.5408 -1.21507,-2.77341 -2.73417,-2.77341 z m -11.81012,21.2263 v 0 h -0.91128 v 0 0 z m 13.63288,-2.7736 c 0,1.00153 -0.79761,1.84905 -1.82269,1.84905 h -24.53179 c -0.98727,0 -1.8227,-0.84752 -1.8227,-1.84905 l -2.7e-4,-6.20226 v -3.5057 c 0,-1.00155 0.83542,-1.84905 1.8227,-1.84905 h 13.74692 c 0.60764,0 1.17715,-0.30823 1.51885,-0.80914 l 0.98728,-1.54079 c 0.18992,-0.2311 0.45562,-0.42378 0.75942,-0.42378 h 7.06335 c 1.25314,0 2.2786,1.04021 2.2786,2.31155 v 5.04649 z m -2.2786,-15.21674 h -7.06334 c -0.60764,0 -1.17714,0.30822 -1.51885,0.80913 l -0.98728,1.5408 c -0.1518,0.26979 -0.45562,0.42377 -0.75942,0.42377 h -13.74683 c -0.68338,0 -1.32807,0.0783 -1.82294,0.78572 v -4.03062 c 0,-0.92308 0.96374,-1.84615 1.90126,-1.84615 h 7.50001 l 0.0203,0.0214 1.38614,-0.0214 1.83802,0.006 h 13.74688 c 0.98727,0 1.82274,0.84751 1.82274,1.84905 v 1.4253 c -0.60742,-0.61617 -1.40472,-0.96281 -2.31618,-0.96281 z"
       id="path64"
       sodipodi:nodetypes="csccsssssccccccccccccccccccsssccccccccccssccsssccssscccsccscccccccssscc"
       style="fill:url(#linearGradient2232);fill-opacity:1;stroke-width:0.0683004" />
    <path
       clip-rule="evenodd"
       d="m 410.53262,533.29811 c 0,0.19133 -0.15774,0.34624 -0.35173,0.34624 -0.19434,0 -0.35155,-0.15491 -0.35155,-0.34624 0,-0.19134 0.15721,-0.34616 0.35155,-0.34616 0.19399,0 0.35173,0.15482 0.35173,0.34616 z m -2.10972,0 c 0,0.19133 -0.15722,0.34624 -0.35155,0.34624 -0.19399,0 -0.3512,-0.15491 -0.3512,-0.34624 0,-0.19134 0.15721,-0.34616 0.3512,-0.34616 0.19433,0 0.35155,0.15482 0.35155,0.34616 z m 4.96463,4.88798 -3.4e-4,-3.5e-4 c -0.0638,0.0629 -0.15212,0.1021 -0.24942,0.1021 -0.19519,0 -0.3533,-0.15567 -0.3533,-0.34784 0,-0.10277 0.0468,-0.19437 0.11915,-0.2581 0.0551,-0.0614 0.0897,-0.1413 0.0897,-0.2297 v -2.07735 c 0,-0.1909 -0.15726,-0.34615 -0.35159,-0.34615 -0.19395,0 -0.35156,0.15525 -0.35156,0.34615 v 2.07735 0.9749 0.0632 c 0,0.45264 -0.22162,0.85271 -0.56252,1.1054 -10e-4,0.001 -0.002,0.004 -0.004,0.005 -0.0832,0.0632 -0.13711,0.1626 -0.13711,0.27432 v 1.03864 c 0,0.57314 -0.47227,1.03811 -1.05436,1.03811 -0.58262,0 -1.05483,-0.46497 -1.05483,-1.03811 v -0.0174 -0.76161 c 0,-0.1435 -0.1178,-0.25961 -0.26369,-0.25961 h -0.17579 c -0.14555,0 -0.26368,0.11611 -0.26368,0.25961 v 0.76161 0.0174 c 0,0.57314 -0.47239,1.03811 -1.05448,1.03811 -0.58261,0 -1.05487,-0.46497 -1.05487,-1.03811 v -1.03864 c 0,-0.11172 -0.0537,-0.21111 -0.13717,-0.27432 -9.9e-4,-10e-4 -0.002,-0.004 -0.004,-0.005 -0.34094,-0.25269 -0.56235,-0.65276 -0.56235,-1.1054 v -0.0632 c -0.11055,0.0389 -0.22796,0.0632 -0.35159,0.0632 -0.58226,0 -1.05448,-0.46496 -1.05448,-1.03811 v -2.07735 c 0,-0.54915 0.43517,-0.99426 0.98347,-1.03119 0.0231,-0.005 0.0464,-0.007 0.0709,-0.007 h 0.35161 0.7031 1.71385 0.74707 1.40644 c 0.3881,0 0.70311,-0.31015 0.70311,-0.69239 0,-0.14714 -0.0478,-0.2826 -0.12684,-0.39434 -0.44819,-0.60001 -1.16832,-0.99045 -1.98268,-0.99045 -0.97246,0 -1.81239,0.55575 -2.21167,1.36187 l -9.2e-4,-4.2e-4 c -0.0575,0.11569 -0.17732,0.19639 -0.31709,0.19639 -0.19566,0 -0.35429,-0.15642 -0.35429,-0.34894 0,-0.0854 0.0323,-0.16261 0.0842,-0.2231 0.25956,-0.49058 0.64752,-0.90475 1.11973,-1.19894 l -0.38226,-0.652 c -0.0968,-0.16573 -0.0393,-0.37727 0.12874,-0.47309 0.16805,-0.0955 0.38313,-0.0389 0.48029,0.12685 l 0.40786,0.6955 c 0.32719,-0.11332 0.67839,-0.17621 1.04539,-0.17621 0.36651,0 0.71736,0.0648 1.04454,0.17782 l 0.40877,-0.69714 c 0.0972,-0.16572 0.31208,-0.22233 0.48048,-0.12684 0.16789,0.0958 0.22538,0.30737 0.12858,0.47309 l -0.38366,0.65395 c 0.33746,0.21 0.63426,0.47738 0.86998,0.79372 0.16445,0.22708 0.26368,0.50258 0.26368,0.80226 0,0.76456 -0.62949,1.38435 -1.40591,1.38435 h -3.51583 -0.35155 -1.0547 c -0.19395,0 -0.35173,0.15525 -0.35173,0.34615 v 2.07735 c 0,0.19082 0.15778,0.34615 0.35173,0.34615 0.19432,0 0.3516,-0.15533 0.3516,-0.34615 v -1.38487 c 0,-0.19099 0.15721,-0.34624 0.35155,-0.34624 0.19434,0 0.35155,0.15525 0.35155,0.34624 v 2.42298 c 0,0.25927 0.14626,0.48239 0.36031,0.6012 0.20583,0.12153 0.3428,0.34159 0.3428,0.59429 v 1.22793 c 0,0.19099 0.15743,0.34581 0.35177,0.34581 0.19394,0 0.3512,-0.15482 0.3512,-0.34581 v -0.86556 c 0,-0.47816 0.39379,-0.86538 0.87908,-0.86538 h 0.35156 c 0.48564,0 0.87891,0.38722 0.87891,0.86538 v 0.86556 c 0,0.19099 0.15739,0.34581 0.35173,0.34581 0.1938,0 0.35154,-0.15482 0.35154,-0.34581 v -1.22793 c 0,-0.2527 0.13685,-0.47276 0.343,-0.59429 0.21355,-0.11881 0.3598,-0.34193 0.3598,-0.6012 v -1.03811 -1.73111 -0.34624 c 0,-0.57323 0.47222,-1.03811 1.05483,-1.03811 0.58263,0 1.05488,0.4649 1.05488,1.03813 v 2.07735 c 0,0.28681 -0.11829,0.5461 -0.30914,0.73389 z"
       fill="#a4c639"
       fill-rule="evenodd"
       id="path2-3"
       style="fill:#a4c639;fill-opacity:1;stroke-width:0.0218029" />
  </g>
</svg>
