<?xml version="1.0" encoding="UTF-8" standalone="no"?>
<svg
   width="32"
   version="1.1"
   height="32"
   viewBox="0 0 32 32"
   id="svg17"
   sodipodi:docname="folder-download.svg"
   inkscape:version="1.1.1 (3bf5ae0d25, 2021-09-20)"
   xmlns:inkscape="http://www.inkscape.org/namespaces/inkscape"
   xmlns:sodipodi="http://sodipodi.sourceforge.net/DTD/sodipodi-0.dtd"
   xmlns:xlink="http://www.w3.org/1999/xlink"
   xmlns="http://www.w3.org/2000/svg"
   xmlns:svg="http://www.w3.org/2000/svg"
   xmlns:rdf="http://www.w3.org/1999/02/22-rdf-syntax-ns#"
   xmlns:cc="http://creativecommons.org/ns#"
   xmlns:dc="http://purl.org/dc/elements/1.1/">
  <sodipodi:namedview
     pagecolor="#ffffff"
     bordercolor="#666666"
     borderopacity="1"
     objecttolerance="10"
     gridtolerance="10"
     guidetolerance="10"
     inkscape:pageopacity="0"
     inkscape:pageshadow="2"
     inkscape:window-width="1920"
     inkscape:window-height="1007"
     id="namedview19"
     showgrid="false"
     inkscape:zoom="9.8125"
     inkscape:cx="-11.210191"
     inkscape:cy="5.044586"
     inkscape:window-x="0"
     inkscape:window-y="0"
     inkscape:window-maximized="1"
     inkscape:current-layer="layer1"
     inkscape:document-rotation="0"
     inkscape:pagecheckerboard="0" />
  <defs
     id="defs5455">
    <linearGradient
       inkscape:collect="always"
       xlink:href="#linearGradient1003"
       id="linearGradient2232"
       x1="384.57144"
       y1="515.79797"
       x2="448.57144"
       y2="515.79797"
       gradientUnits="userSpaceOnUse"
       gradientTransform="matrix(0.46875,0,0,0.46153837,205.30357,293.73743)" />
    <linearGradient
       inkscape:collect="always"
       id="linearGradient1003">
      <stop
         style="stop-color:#2a80ff;stop-opacity:1"
         offset="0"
         id="stop999" />
      <stop
         style="stop-color:#00cccc;stop-opacity:0.60000002"
         offset="1"
         id="stop1001" />
    </linearGradient>
    <linearGradient
       inkscape:collect="always"
       xlink:href="#linearGradient1003"
       id="linearGradient1090"
       gradientUnits="userSpaceOnUse"
       x1="405.07144"
       y1="520.79797"
       x2="429.07147"
       y2="520.79797"
       gradientTransform="matrix(0.46875,0,0,0.46153837,212.56921,296.04512)" />
  </defs>
  <metadata
     id="metadata5458">
    <rdf:RDF>
      <cc:Work
         rdf:about="">
        <dc:format>image/svg+xml</dc:format>
        <dc:type
           rdf:resource="http://purl.org/dc/dcmitype/StillImage" />
      </cc:Work>
    </rdf:RDF>
  </metadata>
  <g
     inkscape:label="Capa 1"
     inkscape:groupmode="layer"
     id="layer1"
     transform="translate(-384.57143,-515.798)">
    <rect
       style="fill:#3b445f;fill-opacity:1;stroke:none;stroke-width:0.58739"
       id="center-3"
       width="28.265625"
       height="19.384611"
       x="386.46204"
       y="523.49042"
       ry="1.8461516"
       rx="1.8843803" />
    <path
       d="m 412.83717,522.5717 h -13.7469 c -0.30383,0 -0.56951,-0.15398 -0.75942,-0.42377 l -1.02539,-1.5408 c -0.34172,-0.53931 -0.91147,-0.80913 -1.51886,-0.80913 h -7.02535 c -1.74698,0 -3.18982,1.46396 -3.18982,3.2359 v 17.99041 c 0,1.50242 1.21533,2.77369 2.73419,2.77369 h 11.81018 v 0 0 0 0 0 0 0 h 0.91126 v 0 0 0 0 0 0 0 0 0 h 11.81018 c 1.48102,0 2.73419,-1.23289 2.73419,-2.77369 V 525.3453 c 0,-1.5408 -1.21506,-2.77341 -2.73419,-2.77341 z m -11.81011,21.2263 v 0 h -0.91126 v 0 0 z m 13.6329,-2.7736 c 0,1.00153 -0.7976,1.84905 -1.82272,1.84905 h -24.53176 c -0.98728,0 -1.82272,-0.84752 -1.82272,-1.84905 l -2.7e-4,-6.20226 v -3.5057 c 0,-1.00155 0.83545,-1.84905 1.82272,-1.84905 h 13.7469 c 0.60766,0 1.17715,-0.30823 1.51886,-0.80914 l 0.98728,-1.54079 c 0.18993,-0.2311 0.45561,-0.42378 0.75943,-0.42378 h 7.06332 c 1.25317,0 2.27863,1.04021 2.27863,2.31155 v 5.04649 z m -2.27862,-15.21674 h -7.06332 c -0.60766,0 -1.17716,0.30822 -1.51886,0.80913 l -0.98728,1.5408 c -0.15178,0.26979 -0.45562,0.42377 -0.75943,0.42377 h -13.7468 c -0.68341,0 -1.32812,0.0783 -1.82297,0.78572 v -4.03062 c 0,-0.92308 0.96375,-1.84615 1.90125,-1.84615 h 7.50001 l 0.0201,0.0214 1.38614,-0.0214 1.838,0.006 h 13.7469 c 0.98728,0 1.82273,0.84751 1.82273,1.84905 v 1.4253 c -0.6074,-0.61617 -1.40474,-0.96281 -2.3162,-0.96281 z"
       id="path64"
       sodipodi:nodetypes="csccsssssccccccccccccccccccsssccccccccccssccsssccssscccsccscccccccssscc"
       style="fill:url(#linearGradient2232);fill-opacity:1;stroke-width:0.0683002" />
    <path
       fill-rule="evenodd"
       clip-rule="evenodd"
       d="m 410.17998,533.9903 c 0,-0.19116 0.15737,-0.34615 0.35143,-0.34615 0.19409,0 0.35143,0.15499 0.35143,0.34615 0,0.19117 -0.15734,0.34616 -0.35143,0.34616 -0.19406,0 -0.35143,-0.15499 -0.35143,-0.34616 z m 3.10984,3.40222 -4.22444,4.16094 c -0.27447,0.27043 -0.6342,0.39838 -0.99396,0.39838 -0.35976,0 -0.71952,-0.12795 -0.99397,-0.39838 l -4.22453,-4.16094 c -0.29393,-0.28971 -0.42522,-0.67524 -0.40435,-1.05436 v 0.0752 c 0,-0.76465 0.62932,-1.38461 1.4057,-1.38461 h 0.70287 c 0.38816,0 0.70286,-0.30999 0.70286,-0.69231 v -2.07692 c 0,-0.76466 0.62934,-1.38462 1.40572,-1.38462 h 2.81144 c 0.7763,0 1.40573,0.61996 1.40573,1.38462 v 0.34615 c 0,0.19116 -0.15735,0.34615 -0.35143,0.34615 -0.19406,0 -0.35143,-0.15499 -0.35143,-0.34615 v -0.34615 c 0,-0.38233 -0.31469,-0.69231 -0.70284,-0.69231 h -2.81149 c -0.38815,0 -0.70286,0.30998 -0.70286,0.69231 v 2.07692 c 0,0.76465 -0.62932,1.38461 -1.40573,1.38461 h -0.70284 c -0.38814,0 -0.70284,0.30998 -0.70284,0.69231 0,0 -0.003,10e-4 -0.007,0.003 4.7e-4,0.17628 0.069,0.35241 0.20556,0.48678 l 4.22444,4.16112 c 0.27455,0.27043 0.71949,0.27043 0.99406,0 l 4.22444,-4.16112 c 0.13659,-0.13455 0.20505,-0.31065 0.20556,-0.48713 -0.004,-10e-4 -0.007,-0.002 -0.007,-0.002 0,-0.38233 -0.3147,-0.69231 -0.70284,-0.69231 h -0.35143 c -0.19409,0 -0.35143,-0.15499 -0.35143,-0.34615 0,-0.19117 0.15734,-0.34616 0.35143,-0.34616 h 0.35143 c 0.77629,0 1.40572,0.61996 1.40572,1.38462 v -0.0752 c 0.0209,0.37912 -0.11054,0.76465 -0.40449,1.05436 z"
       id="path2-7"
       style="fill:url(#linearGradient1090);fill-opacity:1;stroke-width:0.021803" />
  </g>
</svg>
