<?xml version="1.0" encoding="UTF-8" standalone="no"?>
<svg
   width="32"
   version="1.1"
   height="32"
   viewBox="0 0 32 32"
   id="svg15"
   sodipodi:docname="folder-notes.svg"
   inkscape:version="1.1.1 (3bf5ae0d25, 2021-09-20)"
   xmlns:inkscape="http://www.inkscape.org/namespaces/inkscape"
   xmlns:sodipodi="http://sodipodi.sourceforge.net/DTD/sodipodi-0.dtd"
   xmlns:xlink="http://www.w3.org/1999/xlink"
   xmlns="http://www.w3.org/2000/svg"
   xmlns:svg="http://www.w3.org/2000/svg"
   xmlns:rdf="http://www.w3.org/1999/02/22-rdf-syntax-ns#"
   xmlns:cc="http://creativecommons.org/ns#"
   xmlns:dc="http://purl.org/dc/elements/1.1/">
  <sodipodi:namedview
     pagecolor="#ffffff"
     bordercolor="#666666"
     borderopacity="1"
     objecttolerance="10"
     gridtolerance="10"
     guidetolerance="10"
     inkscape:pageopacity="0"
     inkscape:pageshadow="2"
     inkscape:window-width="1920"
     inkscape:window-height="1007"
     id="namedview17"
     showgrid="false"
     inkscape:zoom="9.8125"
     inkscape:cx="-3.8726115"
     inkscape:cy="6.8789809"
     inkscape:window-x="0"
     inkscape:window-y="0"
     inkscape:window-maximized="1"
     inkscape:current-layer="layer1"
     inkscape:document-rotation="0"
     inkscape:pagecheckerboard="0" />
  <defs
     id="defs5455">
    <linearGradient
       inkscape:collect="always"
       xlink:href="#linearGradient2230"
       id="linearGradient2232"
       x1="384.57144"
       y1="515.79797"
       x2="448.57144"
       y2="515.79797"
       gradientUnits="userSpaceOnUse"
       gradientTransform="matrix(0.46875,0,0,0.46153837,205.30357,293.73743)" />
    <linearGradient
       inkscape:collect="always"
       id="linearGradient2230">
      <stop
         style="stop-color:#4e99ca;stop-opacity:0.80000001"
         offset="0"
         id="stop2226" />
      <stop
         style="stop-color:#20ffff;stop-opacity:0.80000001"
         offset="0.50507295"
         id="stop2332" />
      <stop
         style="stop-color:#ffaeff;stop-opacity:0.69"
         offset="1"
         id="stop2228" />
    </linearGradient>
    <linearGradient
       inkscape:collect="always"
       xlink:href="#linearGradient2230"
       id="linearGradient1026"
       gradientUnits="userSpaceOnUse"
       gradientTransform="matrix(0.46875,0,0,0.46153837,212.78202,296.50666)"
       x1="404.61743"
       y1="519.79797"
       x2="428.61743"
       y2="519.79797" />
  </defs>
  <metadata
     id="metadata5458">
    <rdf:RDF>
      <cc:Work
         rdf:about="">
        <dc:format>image/svg+xml</dc:format>
        <dc:type
           rdf:resource="http://purl.org/dc/dcmitype/StillImage" />
      </cc:Work>
    </rdf:RDF>
  </metadata>
  <g
     inkscape:label="Capa 1"
     inkscape:groupmode="layer"
     id="layer1"
     transform="translate(-384.57143,-515.798)">
    <rect
       style="fill:#3b445f;fill-opacity:1;stroke:none;stroke-width:0.586901"
       id="center-3"
       width="28.21875"
       height="19.384611"
       x="386.46207"
       y="523.4903"
       ry="1.8461516"
       rx="1.8812554" />
    <path
       d="m 412.83717,522.5717 h -13.7469 c -0.30383,0 -0.56951,-0.15398 -0.75942,-0.42377 l -1.02539,-1.5408 c -0.34172,-0.53931 -0.91147,-0.80913 -1.51886,-0.80913 h -7.02535 c -1.74698,0 -3.18982,1.46396 -3.18982,3.2359 v 17.99041 c 0,1.50242 1.21533,2.77369 2.73419,2.77369 h 11.81018 v 0 0 0 0 0 0 0 h 0.91126 v 0 0 0 0 0 0 0 0 0 h 11.81018 c 1.48102,0 2.73419,-1.23289 2.73419,-2.77369 V 525.3453 c 0,-1.5408 -1.21506,-2.77341 -2.73419,-2.77341 z m -11.81011,21.2263 v 0 h -0.91126 v 0 0 z m 13.6329,-2.7736 c 0,1.00153 -0.7976,1.84905 -1.82272,1.84905 h -24.53176 c -0.98728,0 -1.82272,-0.84752 -1.82272,-1.84905 l -2.7e-4,-6.20226 v -3.5057 c 0,-1.00155 0.83545,-1.84905 1.82272,-1.84905 h 13.7469 c 0.60766,0 1.17715,-0.30823 1.51886,-0.80914 l 0.98728,-1.54079 c 0.18993,-0.2311 0.45561,-0.42378 0.75943,-0.42378 h 7.06332 c 1.25317,0 2.27863,1.04021 2.27863,2.31155 v 5.04649 z m -2.27862,-15.21674 h -7.06332 c -0.60766,0 -1.17716,0.30822 -1.51886,0.80913 l -0.98728,1.5408 c -0.15178,0.26979 -0.45562,0.42377 -0.75943,0.42377 h -13.7468 c -0.68341,0 -1.32812,0.0783 -1.82297,0.78572 v -4.03062 c 0,-0.92308 0.96375,-1.84615 1.90125,-1.84615 h 7.50001 l 0.0201,0.0214 1.38614,-0.0214 1.838,0.006 h 13.7469 c 0.98728,0 1.82273,0.84751 1.82273,1.84905 v 1.4253 c -0.6074,-0.61617 -1.40474,-0.96281 -2.3162,-0.96281 z"
       id="path64"
       sodipodi:nodetypes="csccsssssccccccccccccccccccsssccccccccccssccsssccssscccsccscccccccssscc"
       style="fill:url(#linearGradient2232);fill-opacity:1;stroke-width:0.0683002" />
    <path
       fill-rule="evenodd"
       clip-rule="evenodd"
       d="m 408.24752,533.81706 c 0,-0.19134 0.15742,-0.34616 0.35174,-0.34616 0.19415,0 0.35156,0.15482 0.35156,0.34616 0,0.19082 -0.15741,0.3458 -0.35156,0.3458 -0.19432,0 -0.35174,-0.15498 -0.35174,-0.3458 z m 5.04394,0.0272 -0.14815,0.14569 c -10e-4,10e-4 -0.002,10e-4 -0.004,0.003 -0.26985,0.26587 -0.70399,0.26874 -0.9795,0.0118 l -0.90603,-0.8926 c -0.13715,-0.13504 -0.13715,-0.35427 0,-0.48931 0.13716,-0.13504 0.35981,-0.13504 0.49696,0 l 0.76562,0.75332 c 4.6e-4,9.2e-4 9.3e-4,0 0.002,9.2e-4 0.0685,0.0674 0.17974,0.0674 0.24823,0 0.002,-0.002 0.004,-4.6e-4 0.006,-10e-4 l 0.0213,-0.021 c 0.27483,-0.27025 0.27483,-0.70853 0,-0.97913 l -0.62122,-0.61168 c -0.27484,-0.27061 -0.71996,-0.27061 -0.99444,0 l -1.20626,1.1877 h -0.99477 -3.01458 -1.93377 c -0.48546,0 -0.8789,0.38773 -0.8789,0.86573 v 6.57675 c 0,0.47799 0.39344,0.86538 0.8789,0.86538 h 6.67951 c 0.48565,0 0.87891,-0.38739 0.87891,-0.86538 v -4.4515 c 0,-0.0953 -0.0786,-0.1729 -0.17561,-0.1729 -0.0484,0 -0.0925,0.0194 -0.1241,0.0507 -9.3e-4,4.6e-4 -4.7e-4,-0.002 -10e-4,-0.002 l -1.9535,1.92312 c -0.21167,0.20859 -0.47413,0.33485 -0.74828,0.3825 -0.0518,0.0121 -0.10558,0.0198 -0.16102,0.0198 h -0.0496 c -0.0232,4.6e-4 -0.0471,4.6e-4 -0.0702,0 h -1.28675 c -0.38812,0 -0.70277,-0.30981 -0.70277,-0.69196 v -1.26697 c -3.5e-4,-0.0228 -3.5e-4,-0.0463 0,-0.069 v -0.0489 c 0,-0.0548 0.008,-0.10768 0.0201,-0.15871 0.0486,-0.26976 0.17681,-0.52871 0.38865,-0.73709 l 0.74672,-0.73541 0.002,0.002 c 0.0634,-0.0629 0.15174,-0.10142 0.24873,-0.10142 0.19433,0 0.35157,0.15499 0.35157,0.34632 0,0.10497 -0.0488,0.19827 -0.12378,0.26165 l -0.72784,0.71665 c -0.1533,0.1506 -0.21766,0.3529 -0.20015,0.54999 -3.5e-4,0.01 -0.003,0.0194 -0.003,0.0294 v 0.51906 c -1e-5,0.38213 0.31517,0.69245 0.70329,0.69245 h 0.52717 c 0.0101,0 0.0197,-0.002 0.0299,-0.003 0.20032,0.0173 0.40563,-0.0463 0.55858,-0.19724 l 2.25769,-2.22297 c 0.12685,-0.12272 0.30127,-0.17325 0.49371,-0.17325 0.38848,0 0.7033,0.30981 0.7033,0.69231 v 5.01905 c 0,0.76483 -0.62947,1.38496 -1.40607,1.38496 h -7.03125 c -0.77678,0 -1.40643,-0.62013 -1.40643,-1.38496 v -6.9229 c 0,-0.76481 0.62965,-1.38444 1.40643,-1.38444 h 5.82688 l 1.00079,-0.9854 c 0.27455,-0.27043 0.63444,-0.39922 0.99435,-0.39922 0.35991,0 0.71984,0.12879 0.9945,0.39922 l 0.62159,0.61203 c 0.27494,0.27071 0.40583,0.63015 0.40546,0.985 -3.8e-4,0.35388 -0.13126,0.70319 -0.40546,0.97327 z"
       id="path2-5"
       style="fill:url(#linearGradient1026);fill-opacity:1;stroke-width:0.021803" />
  </g>
</svg>
