<?xml version="1.0" encoding="UTF-8" standalone="no"?>
<svg
   width="32"
   version="1.1"
   height="32"
   viewBox="0 0 32 32"
   id="svg15"
   sodipodi:docname="folder-table.svg"
   inkscape:version="1.1.1 (3bf5ae0d25, 2021-09-20)"
   xmlns:inkscape="http://www.inkscape.org/namespaces/inkscape"
   xmlns:sodipodi="http://sodipodi.sourceforge.net/DTD/sodipodi-0.dtd"
   xmlns:xlink="http://www.w3.org/1999/xlink"
   xmlns="http://www.w3.org/2000/svg"
   xmlns:svg="http://www.w3.org/2000/svg"
   xmlns:rdf="http://www.w3.org/1999/02/22-rdf-syntax-ns#"
   xmlns:cc="http://creativecommons.org/ns#"
   xmlns:dc="http://purl.org/dc/elements/1.1/">
  <sodipodi:namedview
     pagecolor="#ffffff"
     bordercolor="#666666"
     borderopacity="1"
     objecttolerance="10"
     gridtolerance="10"
     guidetolerance="10"
     inkscape:pageopacity="0"
     inkscape:pageshadow="2"
     inkscape:window-width="1920"
     inkscape:window-height="1007"
     id="namedview17"
     showgrid="false"
     inkscape:zoom="9.8125"
     inkscape:cx="-12.942675"
     inkscape:cy="6.5732484"
     inkscape:window-x="0"
     inkscape:window-y="0"
     inkscape:window-maximized="1"
     inkscape:current-layer="layer1"
     inkscape:document-rotation="0"
     inkscape:pagecheckerboard="0" />
  <defs
     id="defs5455">
    <linearGradient
       inkscape:collect="always"
       xlink:href="#linearGradient2230"
       id="linearGradient2232"
       x1="384.57144"
       y1="515.79797"
       x2="448.57144"
       y2="515.79797"
       gradientUnits="userSpaceOnUse"
       gradientTransform="matrix(0.46875,0,0,0.46153837,205.30357,293.73742)" />
    <linearGradient
       inkscape:collect="always"
       id="linearGradient2230">
      <stop
         style="stop-color:#4e99ca;stop-opacity:0.80000001"
         offset="0"
         id="stop2226" />
      <stop
         style="stop-color:#20ffff;stop-opacity:0.80000001"
         offset="0.50507295"
         id="stop2332" />
      <stop
         style="stop-color:#ffaeff;stop-opacity:0.69"
         offset="1"
         id="stop2228" />
    </linearGradient>
    <linearGradient
       inkscape:collect="always"
       xlink:href="#linearGradient2230"
       id="linearGradient1063"
       gradientUnits="userSpaceOnUse"
       gradientTransform="matrix(0.46875,0,0,0.46153837,212.72015,296.04362)"
       x1="404.74942"
       y1="520.80121"
       x2="428.74942"
       y2="520.80121" />
    <linearGradient
       inkscape:collect="always"
       xlink:href="#linearGradient2230"
       id="linearGradient1065"
       gradientUnits="userSpaceOnUse"
       gradientTransform="matrix(0.46875,0,0,0.46153837,212.72015,296.04362)"
       x1="408.76718"
       y1="520.82721"
       x2="424.86771"
       y2="520.82721" />
  </defs>
  <metadata
     id="metadata5458">
    <rdf:RDF>
      <cc:Work
         rdf:about="">
        <dc:format>image/svg+xml</dc:format>
        <dc:type
           rdf:resource="http://purl.org/dc/dcmitype/StillImage" />
      </cc:Work>
    </rdf:RDF>
  </metadata>
  <g
     inkscape:label="Capa 1"
     inkscape:groupmode="layer"
     id="layer1"
     transform="translate(-384.57143,-515.798)">
    <rect
       style="fill:#3b445f;fill-opacity:1;stroke:none;stroke-width:0.586901"
       id="center-3"
       width="28.21875"
       height="19.384611"
       x="386.46204"
       y="523.4903"
       ry="1.8461516"
       rx="1.8812554" />
    <path
       d="m 412.83718,522.5717 h -13.74691 c -0.30382,0 -0.56951,-0.15398 -0.75942,-0.42377 l -1.02539,-1.5408 c -0.34172,-0.53931 -0.91147,-0.80913 -1.51886,-0.80913 h -7.02535 c -1.74698,0 -3.18982,1.46396 -3.18982,3.2359 v 17.99041 c 0,1.50242 1.21533,2.77369 2.73419,2.77369 h 11.81018 v 0 0 0 0 0 0 0 h 0.91126 v 0 0 0 0 0 0 0 0 0 h 11.81018 c 1.48102,0 2.73419,-1.23289 2.73419,-2.77369 V 525.3453 c 0,-1.5408 -1.21506,-2.77341 -2.73419,-2.77341 z m -11.81012,21.2263 v 0 h -0.91126 v 0 0 z m 13.63291,-2.7736 c 0,1.00153 -0.79761,1.84905 -1.82273,1.84905 h -24.53175 c -0.98728,0 -1.82273,-0.84752 -1.82273,-1.84905 l -2.7e-4,-6.20226 v -3.5057 c 0,-1.00155 0.83545,-1.84905 1.82273,-1.84905 h 13.74689 c 0.60766,0 1.17715,-0.30823 1.51886,-0.80914 l 0.98728,-1.54079 c 0.18993,-0.2311 0.45561,-0.42378 0.75943,-0.42378 h 7.06332 c 1.25317,0 2.27863,1.04021 2.27863,2.31155 v 5.04649 z m -2.27863,-15.21674 h -7.06332 c -0.60766,0 -1.17715,0.30822 -1.51886,0.80913 l -0.98728,1.5408 c -0.15178,0.26979 -0.45561,0.42377 -0.75943,0.42377 h -13.7468 c -0.68341,0 -1.32811,0.0783 -1.82297,0.78572 v -4.03062 c 0,-0.92308 0.96376,-1.84615 1.90126,-1.84615 h 7.5 l 0.0201,0.0214 1.38615,-0.0214 1.838,0.006 h 13.7469 c 0.98728,0 1.82273,0.84751 1.82273,1.84905 v 1.4253 c -0.6074,-0.61617 -1.40474,-0.96281 -2.3162,-0.96281 z"
       id="path64"
       sodipodi:nodetypes="csccsssssccccccccccccccccccsssccccccccccssccsssccssscccsccscccccccssscc"
       style="fill:url(#linearGradient2232);fill-opacity:1;stroke-width:0.0683002" />
    <path
       fill-rule="evenodd"
       clip-rule="evenodd"
       d="m 412.0897,541.95184 h -6.02719 c -0.22158,0 -0.40138,-0.17753 -0.40138,-0.39561 0,-0.21866 0.1798,-0.3958 0.40138,-0.3958 h 6.02719 c 0.44378,0 0.80357,-0.35426 0.80357,-0.7912 v -7.91209 c 0,-0.43695 -0.35979,-0.79101 -0.80357,-0.79101 h -8.03592 c -0.44367,0 -0.80366,0.35406 -0.80366,0.79101 v 7.51648 c 0,0.21867 -0.1797,0.39561 -0.40179,0.39561 -0.22168,0 -0.40189,-0.17694 -0.40189,-0.39561 v -7.51648 c 0,-0.87389 0.7199,-1.58222 1.60734,-1.58222 h 8.03592 c 0.88734,0 1.60674,0.70833 1.60674,1.58222 v 7.91209 c 0,0.87388 -0.7194,1.58261 -1.60674,1.58261 z m -7.63403,-0.79141 c 0.22158,0 0.40178,0.17714 0.40178,0.3958 0,0.21808 -0.1802,0.39561 -0.40178,0.39561 -0.22208,0 -0.40189,-0.17753 -0.40189,-0.39561 0,-0.21866 0.17981,-0.3958 0.40189,-0.3958 z"
       id="path2-5"
       style="fill:url(#linearGradient1063);fill-opacity:1;stroke-width:0.0249177" />
    <path
       fill-rule="evenodd"
       clip-rule="evenodd"
       d="m 410.93341,540.14053 h -1.65085 c -0.13012,0 -0.23595,-0.10408 -0.23595,-0.2322 0,-0.12835 0.10583,-0.23221 0.23595,-0.23221 h 1.53293 c 0.32567,0 0.5896,-0.25987 0.5896,-0.58053 v -1.50935 c 0,-0.12835 0.10548,-0.23244 0.23584,-0.23244 0.13036,0 0.23584,0.10409 0.23584,0.23244 v 1.62546 c 0,0.51295 -0.42239,0.92883 -0.94336,0.92883 z m -6.36762,-5.10851 c 0.13036,0 0.2359,0.10386 0.2359,0.2322 0,0.128 -0.10554,0.23198 -0.2359,0.23198 -0.1303,0 -0.23584,-0.10398 -0.23584,-0.23198 0,-0.12834 0.10554,-0.2322 0.23584,-0.2322 z m 7.30222,1.04981 c -0.003,0.025 -0.007,0.0498 -0.0125,0.0739 -0.002,0.0118 -0.006,0.0229 -0.009,0.0344 -0.005,0.0202 -0.0106,0.0406 -0.0173,0.0603 -0.003,0.009 -0.006,0.0172 -0.009,0.0259 -0.009,0.0227 -0.0171,0.0451 -0.0274,0.0668 -0.002,0.006 -0.006,0.0111 -0.008,0.0168 -0.0115,0.0236 -0.0239,0.047 -0.0372,0.0694 -0.003,0.005 -0.006,0.009 -0.008,0.0138 -0.0145,0.0231 -0.0298,0.0458 -0.0463,0.0678 -0.002,0.003 -0.005,0.006 -0.007,0.009 -0.0179,0.0229 -0.0365,0.0454 -0.0563,0.0664 -0.001,0.002 -0.003,0.004 -0.005,0.006 -0.0214,0.0229 -0.0443,0.0446 -0.0679,0.0653 -0.16628,0.144 -0.38369,0.23221 -0.62252,0.23221 v 0.0118 c -0.0381,-0.007 -0.0776,-0.0118 -0.11792,-0.0118 h -1.65083 c -0.32565,0 -0.58958,0.25987 -0.58958,0.5805 v 1.62546 c 0,0.0396 0.005,0.0787 0.0121,0.1161 h -0.0121 c 0,0.23516 -0.0895,0.44923 -0.23584,0.61295 -0.021,0.0233 -0.0431,0.0458 -0.0663,0.0669 -10e-4,10e-4 -0.003,0.003 -0.006,0.005 -0.0216,0.0195 -0.0443,0.0379 -0.0676,0.0553 -0.003,0.002 -0.006,0.005 -0.009,0.007 -0.0224,0.0161 -0.0452,0.0313 -0.0688,0.0456 -0.005,0.003 -0.009,0.006 -0.014,0.008 -0.0227,0.0131 -0.0465,0.0252 -0.0705,0.0365 -0.006,0.003 -0.0113,0.006 -0.0171,0.008 -0.022,0.0102 -0.0447,0.0186 -0.0678,0.0269 -0.009,0.003 -0.0175,0.007 -0.0263,0.009 -0.0201,0.007 -0.0408,0.0118 -0.0613,0.017 -0.0118,0.003 -0.023,0.006 -0.035,0.009 -0.0244,0.005 -0.0497,0.009 -0.075,0.0122 -0.007,9.2e-4 -0.0135,0.002 -0.0207,0.003 -0.0336,0.004 -0.0678,0.006 -0.10231,0.006 h -2.35822 c -0.521,-5e-5 -0.94345,-0.41594 -0.94345,-0.92889 v -2.32207 c 0,-0.51301 0.42245,-0.9289 0.94345,-0.9289 h 0.2359 1.53276 c 0.32572,0 0.5896,-0.25987 0.5896,-0.58052 v -1.62545 c 0,-0.32064 -0.26388,-0.58051 -0.5896,-0.58051 h -1.6508 c -0.32564,0 -0.58953,0.25987 -0.58953,0.58051 v 0.58052 c 0,0.12824 -0.10554,0.23221 -0.2359,0.23221 -0.1303,0 -0.23583,-0.10397 -0.23583,-0.23221 v -0.69653 c 10e-6,-0.51304 0.42246,-0.92894 0.94346,-0.92894 h 1.88675 c 0.0345,0 0.0683,10e-4 0.1018,0.005 0.008,4.6e-4 0.0152,0.003 0.023,0.004 0.0248,0.003 0.0493,0.007 0.0735,0.012 0.0112,0.002 0.0218,0.006 0.033,0.008 0.0213,0.005 0.0423,0.0104 0.0628,0.0172 0.008,0.003 0.017,0.006 0.0255,0.009 0.023,0.008 0.0463,0.017 0.0685,0.0271 0.006,0.003 0.012,0.005 0.0181,0.008 0.0235,0.011 0.0468,0.0231 0.0693,0.0362 0.005,0.003 0.01,0.006 0.0143,0.009 0.0235,0.0143 0.0465,0.0293 0.0688,0.0455 0.003,0.002 0.007,0.005 0.01,0.007 0.0233,0.0175 0.046,0.036 0.0675,0.0553 0.001,10e-4 0.003,0.003 0.006,0.005 0.0233,0.0212 0.0452,0.0436 0.0663,0.067 0.14637,0.16372 0.2359,0.37779 0.2359,0.61293 h 0.012 c -0.008,0.0374 -0.012,0.0763 -0.012,0.11599 v 1.74145 c 0,0.51306 -0.42244,0.92895 -0.94323,0.92895 h -1.76891 c -0.32565,0 -0.58953,0.25993 -0.58953,0.58058 v 2.08986 c 0,0.32065 0.26387,0.58052 0.58953,0.58052 h 2.12265 c 0.32564,0 0.58954,-0.25987 0.58954,-0.58052 v -1.74195 c 0,-0.51293 0.4224,-0.92864 0.94323,-0.92864 h 1.76887 c 0.32567,0 0.5896,-0.25976 0.5896,-0.58041 v -2.09001 c 0,-0.32064 -0.26393,-0.58051 -0.5896,-0.58051 h -2.00449 c -0.13025,0 -0.23596,-0.10385 -0.23596,-0.23221 0,-0.12835 0.10571,-0.23221 0.23596,-0.23221 h 2.12239 c 0.52097,0 0.94335,0.41589 0.94335,0.92894 v 2.32197 c 0,0.0339 -0.002,0.0677 -0.006,0.10069 -4.7e-4,0.007 -0.002,0.0136 -0.003,0.0204 z"
       id="path2-3-3-3"
       style="fill:url(#linearGradient1065);fill-opacity:1;stroke-width:0.0146258" />
  </g>
</svg>
