<?xml version="1.0" encoding="UTF-8" standalone="no"?>
<svg
   width="32"
   version="1.1"
   height="32"
   viewBox="0 0 32 32"
   id="svg17"
   sodipodi:docname="folder-mail.svg"
   inkscape:version="1.1.1 (3bf5ae0d25, 2021-09-20)"
   xmlns:inkscape="http://www.inkscape.org/namespaces/inkscape"
   xmlns:sodipodi="http://sodipodi.sourceforge.net/DTD/sodipodi-0.dtd"
   xmlns:xlink="http://www.w3.org/1999/xlink"
   xmlns="http://www.w3.org/2000/svg"
   xmlns:svg="http://www.w3.org/2000/svg"
   xmlns:rdf="http://www.w3.org/1999/02/22-rdf-syntax-ns#"
   xmlns:cc="http://creativecommons.org/ns#"
   xmlns:dc="http://purl.org/dc/elements/1.1/">
  <sodipodi:namedview
     pagecolor="#ffffff"
     bordercolor="#666666"
     borderopacity="1"
     objecttolerance="10"
     gridtolerance="10"
     guidetolerance="10"
     inkscape:pageopacity="0"
     inkscape:pageshadow="2"
     inkscape:window-width="1920"
     inkscape:window-height="1007"
     id="namedview19"
     showgrid="false"
     inkscape:zoom="9.8125"
     inkscape:cx="-11.719745"
     inkscape:cy="1.7834395"
     inkscape:window-x="0"
     inkscape:window-y="0"
     inkscape:window-maximized="1"
     inkscape:current-layer="layer1"
     inkscape:document-rotation="0"
     inkscape:pagecheckerboard="0" />
  <defs
     id="defs5455">
    <linearGradient
       inkscape:collect="always"
       xlink:href="#linearGradient2230"
       id="linearGradient2232"
       x1="384.57144"
       y1="515.79797"
       x2="448.57144"
       y2="515.79797"
       gradientUnits="userSpaceOnUse"
       gradientTransform="matrix(0.46875,0,0,0.46153837,205.30357,293.73743)" />
    <linearGradient
       inkscape:collect="always"
       id="linearGradient2230">
      <stop
         style="stop-color:#4e99ca;stop-opacity:0.80000001"
         offset="0"
         id="stop2226" />
      <stop
         style="stop-color:#20ffff;stop-opacity:0.80000001"
         offset="0.50507295"
         id="stop2332" />
      <stop
         style="stop-color:#ffaeff;stop-opacity:0.69"
         offset="1"
         id="stop2228" />
    </linearGradient>
    <linearGradient
       inkscape:collect="always"
       xlink:href="#linearGradient2230"
       id="linearGradient961"
       gradientUnits="userSpaceOnUse"
       x1="401.97144"
       y1="520.79797"
       x2="431.50919"
       y2="520.79797"
       gradientTransform="matrix(0.38086855,0,0,0.37500896,249.3483,342.05561)" />
  </defs>
  <metadata
     id="metadata5458">
    <rdf:RDF>
      <cc:Work
         rdf:about="">
        <dc:format>image/svg+xml</dc:format>
        <dc:type
           rdf:resource="http://purl.org/dc/dcmitype/StillImage" />
      </cc:Work>
    </rdf:RDF>
  </metadata>
  <g
     inkscape:label="Capa 1"
     inkscape:groupmode="layer"
     id="layer1"
     transform="translate(-384.57143,-515.798)">
    <rect
       style="fill:#3b445f;fill-opacity:1;stroke:none;stroke-width:0.586413"
       id="center-3"
       width="28.171875"
       height="19.384611"
       x="386.50894"
       y="523.49036"
       ry="1.8461516"
       rx="1.8781303" />
    <path
       d="m 412.83717,522.5717 h -13.7469 c -0.30383,0 -0.56951,-0.15398 -0.75942,-0.42377 l -1.02539,-1.5408 c -0.34172,-0.53931 -0.91147,-0.80913 -1.51886,-0.80913 h -7.02535 c -1.74698,0 -3.18982,1.46396 -3.18982,3.2359 v 17.99041 c 0,1.50242 1.21533,2.77369 2.73419,2.77369 h 11.81018 v 0 0 0 0 0 0 0 h 0.91126 v 0 0 0 0 0 0 0 0 0 h 11.81018 c 1.48102,0 2.73419,-1.23289 2.73419,-2.77369 V 525.3453 c 0,-1.5408 -1.21506,-2.77341 -2.73419,-2.77341 z m -11.81011,21.2263 v 0 h -0.91126 v 0 0 z m 13.6329,-2.7736 c 0,1.00153 -0.7976,1.84905 -1.82272,1.84905 h -24.53176 c -0.98728,0 -1.82272,-0.84752 -1.82272,-1.84905 l -2.7e-4,-6.20226 v -3.5057 c 0,-1.00155 0.83545,-1.84905 1.82272,-1.84905 h 13.7469 c 0.60766,0 1.17715,-0.30823 1.51886,-0.80914 l 0.98728,-1.54079 c 0.18993,-0.2311 0.45561,-0.42378 0.75943,-0.42378 h 7.06332 c 1.25317,0 2.27863,1.04021 2.27863,2.31155 v 5.04649 z m -2.27862,-15.21674 h -7.06332 c -0.60766,0 -1.17716,0.30822 -1.51886,0.80913 l -0.98728,1.5408 c -0.15178,0.26979 -0.45562,0.42377 -0.75943,0.42377 h -13.7468 c -0.68341,0 -1.32812,0.0783 -1.82297,0.78572 v -4.03062 c 0,-0.92308 0.96375,-1.84615 1.90125,-1.84615 h 7.50001 l 0.0201,0.0214 1.38614,-0.0214 1.838,0.006 h 13.7469 c 0.98728,0 1.82273,0.84751 1.82273,1.84905 v 1.4253 c -0.6074,-0.61617 -1.40474,-0.96281 -2.3162,-0.96281 z"
       id="path64"
       sodipodi:nodetypes="csccsssssccccccccccccccccccsssccccccccccssccsssccssscccsccscccccccssscc"
       style="fill:url(#linearGradient2232);fill-opacity:1;stroke-width:0.0683002" />
    <path
       fill-rule="evenodd"
       clip-rule="evenodd"
       d="m 404.24719,540.08675 c -0.13717,-0.13506 -0.13717,-0.35429 0,-0.48933 l 0.99442,-0.97912 c 0.13724,-0.13554 0.35981,-0.13554 0.49705,0 0.13724,0.13504 0.13724,0.35427 0,0.48931 l -0.99442,0.97914 c -0.13726,0.13517 -0.3598,0.13517 -0.49705,0 z m 7.15182,0 -0.99441,-0.97914 c -0.13714,-0.13504 -0.13714,-0.35427 0,-0.48931 0.13733,-0.13554 0.35978,-0.13554 0.49713,0 l 0.99443,0.97912 c 0.13712,0.13504 0.13712,0.35427 0,0.48933 -0.13735,0.13517 -0.35984,0.13517 -0.49715,0 z m 1.89306,-5.20948 -4.22605,3.81489 c -0.54916,0.54071 -1.43956,0.54071 -1.98877,0 l -2.47954,-2.44147 -0.15852,-0.15598 -0.67708,-0.66678 -0.003,9.2e-4 c -0.0641,-0.0789 -0.15555,-0.1462 -0.25803,-0.1462 -0.1943,0 -0.35165,0.15501 -0.35165,0.34615 v 0.97522 0.4097 3.46117 c 0,0.38265 0.31474,0.69242 0.70321,0.69242 h 8.4372 c 0.38847,0 0.70308,-0.30977 0.70308,-0.69242 v -4.15363 c 0,-0.19133 0.15743,-0.34616 0.35176,-0.34616 0.19417,0 0.35156,0.15485 0.35156,0.34616 v 4.15363 c 0,0.76478 -0.62982,1.38492 -1.4064,1.38492 h -8.4372 c -0.77666,-3e-5 -1.4064,-0.62016 -1.4064,-1.38494 v -4.84607 c 0,-0.57332 0.47241,-1.03814 1.05484,-1.03814 0.27141,0 0.51636,0.12222 0.70319,0.29953 v -0.006 l 3.36993,3.31816 c 0.27441,0.27063 0.7196,0.27063 0.99408,0 l 4.22585,-3.81489 c 0.13771,-0.13505 0.20375,-0.31236 0.20292,-0.48931 h -0.004 c 0,-0.38248 -0.31461,-0.34616 -0.70308,-0.34616 h -7.38249 c -0.19389,0 -0.35163,-0.15499 -0.35163,-0.34632 0,-0.19115 0.15774,-0.34616 0.35163,-0.34616 h 7.3827 c 0.64492,0 1.18751,0.19015 1.35301,0.69246 v 0 c 0.11997,0.45926 0.0139,0.96595 -0.35121,1.32527 z m -9.79056,-1.32526 c -0.1943,0 -0.35165,-0.15498 -0.35165,-0.34632 0,-0.19115 0.15735,-0.34615 0.35165,-0.34615 0.19424,0 0.35156,0.15499 0.35156,0.34615 0,0.19134 -0.15732,0.34632 -0.35156,0.34632 z"
       id="path2-7"
       style="fill:url(#linearGradient961);fill-opacity:1;stroke-width:0.021803" />
  </g>
</svg>
