<?xml version="1.0" encoding="UTF-8" standalone="no"?>
<svg
   width="32"
   version="1.1"
   height="32"
   viewBox="0 0 32 32"
   id="svg15"
   sodipodi:docname="folder-Reddit.svg"
   inkscape:version="1.1.1 (3bf5ae0d25, 2021-09-20)"
   xmlns:inkscape="http://www.inkscape.org/namespaces/inkscape"
   xmlns:sodipodi="http://sodipodi.sourceforge.net/DTD/sodipodi-0.dtd"
   xmlns:xlink="http://www.w3.org/1999/xlink"
   xmlns="http://www.w3.org/2000/svg"
   xmlns:svg="http://www.w3.org/2000/svg"
   xmlns:rdf="http://www.w3.org/1999/02/22-rdf-syntax-ns#"
   xmlns:cc="http://creativecommons.org/ns#"
   xmlns:dc="http://purl.org/dc/elements/1.1/">
  <sodipodi:namedview
     pagecolor="#ffffff"
     bordercolor="#666666"
     borderopacity="1"
     objecttolerance="10"
     gridtolerance="10"
     guidetolerance="10"
     inkscape:pageopacity="0"
     inkscape:pageshadow="2"
     inkscape:window-width="1920"
     inkscape:window-height="1007"
     id="namedview17"
     showgrid="false"
     inkscape:zoom="9.8125"
     inkscape:cx="-13.044586"
     inkscape:cy="6.4713376"
     inkscape:window-x="0"
     inkscape:window-y="0"
     inkscape:window-maximized="1"
     inkscape:current-layer="layer1"
     inkscape:document-rotation="0"
     inkscape:pagecheckerboard="0" />
  <defs
     id="defs5455">
    <linearGradient
       inkscape:collect="always"
       xlink:href="#linearGradient2230"
       id="linearGradient2232"
       x1="384.57144"
       y1="515.79797"
       x2="448.57144"
       y2="515.79797"
       gradientUnits="userSpaceOnUse"
       gradientTransform="matrix(0.46875,0,0,0.46153837,205.30357,293.73743)" />
    <linearGradient
       inkscape:collect="always"
       id="linearGradient2230">
      <stop
         style="stop-color:#f28fad;stop-opacity:0.80000001"
         offset="0"
         id="stop2226" />
      <stop
         style="stop-color:#20ffff;stop-opacity:0.80000001"
         offset="0.50507295"
         id="stop2332" />
      <stop
         style="stop-color:#ffaeff;stop-opacity:0.69"
         offset="1"
         id="stop2228" />
    </linearGradient>
    <linearGradient
       inkscape:collect="always"
       xlink:href="#linearGradient1525"
       id="linearGradient1112"
       gradientUnits="userSpaceOnUse"
       gradientTransform="matrix(0.41015687,0,0,0.40384668,237.18913,326.78315)"
       x1="402.91245"
       y1="520.79797"
       x2="430.34097"
       y2="520.79797" />
    <linearGradient
       inkscape:collect="always"
       id="linearGradient1525">
      <stop
         style="stop-color:#f28fad;stop-opacity:0.2"
         offset="0"
         id="stop1519" />
      <stop
         style="stop-color:#f28fad;stop-opacity:0.80000001"
         offset="0.50507295"
         id="stop1521" />
      <stop
         style="stop-color:#ffaeff;stop-opacity:0.69"
         offset="1"
         id="stop1523" />
    </linearGradient>
  </defs>
  <metadata
     id="metadata5458">
    <rdf:RDF>
      <cc:Work
         rdf:about="">
        <dc:format>image/svg+xml</dc:format>
        <dc:type
           rdf:resource="http://purl.org/dc/dcmitype/StillImage" />
      </cc:Work>
    </rdf:RDF>
  </metadata>
  <g
     inkscape:label="Capa 1"
     inkscape:groupmode="layer"
     id="layer1"
     transform="translate(-384.57143,-515.798)">
    <rect
       style="fill:#3b445f;fill-opacity:1;stroke:none;stroke-width:0.586413"
       id="center-3"
       width="28.171875"
       height="19.384611"
       x="386.50897"
       y="523.49042"
       ry="1.8461516"
       rx="1.8781303" />
    <path
       d="m 412.83717,522.5717 h -13.7469 c -0.30383,0 -0.56951,-0.15398 -0.75942,-0.42377 l -1.02539,-1.5408 c -0.34172,-0.53931 -0.91147,-0.80913 -1.51886,-0.80913 h -7.02535 c -1.74698,0 -3.18982,1.46396 -3.18982,3.2359 v 17.99041 c 0,1.50242 1.21533,2.77369 2.73419,2.77369 h 11.81018 v 0 0 0 0 0 0 0 h 0.91126 v 0 0 0 0 0 0 0 0 0 h 11.81018 c 1.48102,0 2.73419,-1.23289 2.73419,-2.77369 V 525.3453 c 0,-1.5408 -1.21506,-2.77341 -2.73419,-2.77341 z m -11.81011,21.2263 v 0 h -0.91126 v 0 0 z m 13.6329,-2.7736 c 0,1.00153 -0.7976,1.84905 -1.82272,1.84905 h -24.53176 c -0.98728,0 -1.82272,-0.84752 -1.82272,-1.84905 l -2.7e-4,-6.20226 v -3.5057 c 0,-1.00155 0.83545,-1.84905 1.82272,-1.84905 h 13.7469 c 0.60766,0 1.17715,-0.30823 1.51886,-0.80914 l 0.98728,-1.54079 c 0.18993,-0.2311 0.45561,-0.42378 0.75943,-0.42378 h 7.06332 c 1.25317,0 2.27863,1.04021 2.27863,2.31155 v 5.04649 z m -2.27862,-15.21674 h -7.06332 c -0.60766,0 -1.17716,0.30822 -1.51886,0.80913 l -0.98728,1.5408 c -0.15178,0.26979 -0.45562,0.42377 -0.75943,0.42377 h -13.7468 c -0.68341,0 -1.32812,0.0783 -1.82297,0.78572 v -4.03062 c 0,-0.92308 0.96375,-1.84615 1.90125,-1.84615 h 7.50001 l 0.0201,0.0214 1.38614,-0.0214 1.838,0.006 h 13.7469 c 0.98728,0 1.82273,0.84751 1.82273,1.84905 v 1.4253 c -0.6074,-0.61617 -1.40474,-0.96281 -2.3162,-0.96281 z"
       id="path64"
       sodipodi:nodetypes="csccsssssccccccccccccccccccsssccccccccccssccsssccssscccsccscccccccssscc"
       style="fill:url(#linearGradient2232);fill-opacity:1;stroke-width:0.0683002" />
    <path
       clip-rule="evenodd"
       d="m 409.30172,535.14253 c 0.0379,0 0.0742,0.008 0.10815,0.0184 0.78124,0.15525 1.48212,0.44267 2.05409,0.82575 0.23228,-0.16658 0.51689,-0.26563 0.82622,-0.26563 0.77642,0 1.40625,0.61973 1.40625,1.38462 0,0.51772 -0.2889,0.96833 -0.71583,1.20579 0.004,0.0597 0.0127,0.11849 0.0127,0.17882 0,1.91162 -2.20396,3.46155 -4.92188,3.46155 -2.71826,0 -4.92188,-1.54993 -4.92188,-3.46155 0,-0.0603 0.009,-0.11916 0.0129,-0.17882 -0.4271,-0.23746 -0.716,-0.68807 -0.716,-1.20579 0,-0.76489 0.62947,-1.38462 1.40625,-1.38462 0.30898,0 0.59412,0.0991 0.82637,0.26562 0.71926,-0.48257 1.64486,-0.8102 2.67568,-0.91602 0.004,-0.003 0.007,-0.007 0.0136,-0.007 0.2702,-0.0252 0.50848,-0.20518 0.59876,-0.46953 l 0.38057,-1.39849 c 0.17817,-0.48585 0.69282,-0.76904 1.20935,-0.65994 l 0.58124,0.15356 c 4.1e-4,4.1e-4 -4.1e-4,0.002 4.1e-4,0.002 0.42817,0.10869 0.74523,0.49177 0.74523,0.94779 0,9.2e-4 4.1e-4,10e-4 4.1e-4,0.002 0,10e-4 -4.1e-4,0.002 -4.1e-4,0.003 0,0.38224 0.31447,0.6923 0.70313,0.6923 0.3883,0 0.70312,-0.31006 0.70312,-0.6923 0,-0.12711 -0.0371,-0.24467 -0.098,-0.347 l 0.002,-0.001 c -0.0294,-0.0508 -0.0477,-0.10867 -0.0477,-0.17122 0,-0.1909 0.15777,-0.34607 0.35157,-0.34607 0.12873,0 0.23945,0.0684 0.30091,0.16988 l 0.001,-9.2e-4 c 0.12137,0.20477 0.1921,0.44223 0.1921,0.69653 0,0.76489 -0.62982,1.38461 -1.40625,1.38461 -0.77678,0 -1.40625,-0.61972 -1.40625,-1.38461 0,-0.12839 -0.0826,-0.23665 -0.19775,-0.27948 l -0.56409,-0.14891 c -0.17699,-0.0399 -0.35466,0.0587 -0.4113,0.22826 l -0.36651,1.34811 c -0.16875,0.53114 -0.6336,0.89454 -1.16627,0.95994 -2.04635,0.19093 -3.62222,1.3423 -3.62222,2.73823 0,1.52931 1.88862,2.76924 4.21876,2.76924 2.32978,-3e-5 4.21875,-1.23995 4.21875,-2.76926 0,-1.26257 -1.28815,-2.32529 -3.04768,-2.65886 l 3.5e-4,-0.002 c -0.16615,-0.0273 -0.29267,-0.16909 -0.29267,-0.34031 -3e-5,-0.19127 0.15721,-0.34609 0.35154,-0.34609 z m -5.20821,1.31532 c -0.0755,-0.0272 -0.15605,-0.0445 -0.24084,-0.0445 -0.38866,0 -0.70313,0.31007 -0.70313,0.69231 0,0.17799 0.0699,0.33854 0.18249,0.4616 0.1593,-0.40498 0.41919,-0.77885 0.76148,-1.10945 z m 8.71748,1.10944 c 0.11244,-0.12305 0.18231,-0.2836 0.18231,-0.46159 0,-0.38224 -0.31482,-0.69231 -0.70312,-0.69231 -0.0851,0 -0.16566,0.0173 -0.2412,0.0444 0.34232,0.3306 0.60254,0.70447 0.76201,1.10945 z m -3.66016,0.23072 c 0,-0.36881 0.30349,-0.66797 0.67841,-0.66797 0.37457,0 0.67805,0.29916 0.67805,0.66797 0,0.3688 -0.30348,0.66796 -0.67805,0.66796 -0.3749,0 -0.67841,-0.29916 -0.67841,-0.66796 z m -3.51563,0 c 0,-0.36881 0.30349,-0.66797 0.67841,-0.66797 0.37456,0 0.67805,0.29916 0.67805,0.66797 0,0.3688 -0.30349,0.66796 -0.67805,0.66796 -0.3749,0 -0.67841,-0.29916 -0.67841,-0.66796 z m 3.73553,1.69881 9.4e-4,4e-4 c 0.064,-0.0852 0.16583,-0.14147 0.28169,-0.14147 0.19432,0 0.35156,0.15482 0.35156,0.34616 0,4e-4 0,9.2e-4 0,10e-4 0,0.004 -0.001,0.007 -0.001,0.0113 -9.4e-4,0.0204 -0.002,0.0411 -0.007,0.0603 -0.0836,0.44405 -0.91273,0.79224 -1.92536,0.79224 -0.98774,0 -1.79919,-0.33196 -1.9154,-0.75992 -0.0112,-0.0335 -0.0184,-0.0683 -0.0184,-0.10529 0,-0.19134 0.15724,-0.34616 0.35157,-0.34616 0.12787,0 0.23774,0.068 0.29955,0.16784 l 0.003,-0.001 c 0.1811,0.20468 0.68476,0.3524 1.27923,0.3524 0.61884,0 1.13915,-0.16022 1.29931,-0.37811 z m 2.21632,-6.54497 c -0.19432,0 -0.35156,-0.15482 -0.35156,-0.34616 0,-0.19134 0.15724,-0.34615 0.35156,-0.34615 0.19398,0 0.35157,0.15481 0.35157,0.34615 0,0.19134 -0.15759,0.34616 -0.35157,0.34616 z"
       fill-rule="evenodd"
       id="path2-7-5"
       style="fill:url(#linearGradient1112);fill-opacity:1;stroke-width:0.021803" />
  </g>
</svg>
