<?xml version="1.0" encoding="UTF-8" standalone="no"?>
<svg
   height="32"
   width="32"
   version="1.1"
   id="svg25"
   sodipodi:docname="folder-games.svg"
   inkscape:version="1.1.1 (3bf5ae0d25, 2021-09-20)"
   xmlns:inkscape="http://www.inkscape.org/namespaces/inkscape"
   xmlns:sodipodi="http://sodipodi.sourceforge.net/DTD/sodipodi-0.dtd"
   xmlns:xlink="http://www.w3.org/1999/xlink"
   xmlns="http://www.w3.org/2000/svg"
   xmlns:svg="http://www.w3.org/2000/svg"
   xmlns:rdf="http://www.w3.org/1999/02/22-rdf-syntax-ns#"
   xmlns:cc="http://creativecommons.org/ns#"
   xmlns:dc="http://purl.org/dc/elements/1.1/">
  <metadata
     id="metadata31">
    <rdf:RDF>
      <cc:Work
         rdf:about="">
        <dc:format>image/svg+xml</dc:format>
        <dc:type
           rdf:resource="http://purl.org/dc/dcmitype/StillImage" />
      </cc:Work>
    </rdf:RDF>
  </metadata>
  <defs
     id="defs29">
    <linearGradient
       inkscape:collect="always"
       xlink:href="#linearGradient1004"
       id="linearGradient2232"
       x1="384.57144"
       y1="515.79797"
       x2="448.57144"
       y2="515.79797"
       gradientUnits="userSpaceOnUse"
       gradientTransform="matrix(0.46875,0,0,0.46153837,-179.26786,-222.06057)" />
    <linearGradient
       inkscape:collect="always"
       id="linearGradient1004">
      <stop
         style="stop-color:#6dd97b;stop-opacity:1"
         offset="0"
         id="stop998" />
      <stop
         style="stop-color:#05ffff;stop-opacity:1"
         offset="0.50507295"
         id="stop1000" />
      <stop
         style="stop-color:#ff5eff;stop-opacity:1"
         offset="1"
         id="stop1002" />
    </linearGradient>
    <linearGradient
       inkscape:collect="always"
       xlink:href="#linearGradient1004"
       id="linearGradient1276"
       gradientUnits="userSpaceOnUse"
       gradientTransform="matrix(0.31125352,0,0,0.30646494,13.548575,11.107604)"
       x1="13.9"
       y1="37"
       x2="50.044182"
       y2="37" />
    <linearGradient
       inkscape:collect="always"
       xlink:href="#linearGradient1282"
       id="linearGradient1284"
       x1="58.0168"
       y1="52.543789"
       x2="59.48027"
       y2="52.543789"
       gradientUnits="userSpaceOnUse"
       gradientTransform="matrix(0.46875,0,0,0.46153837,1,1.23077)" />
    <linearGradient
       inkscape:collect="always"
       id="linearGradient1282">
      <stop
         style="stop-color:#55ddff;stop-opacity:1;"
         offset="0"
         id="stop1278" />
      <stop
         style="stop-color:#55ddff;stop-opacity:0;"
         offset="1"
         id="stop1280" />
    </linearGradient>
  </defs>
  <sodipodi:namedview
     pagecolor="#ffffff"
     bordercolor="#666666"
     borderopacity="1"
     objecttolerance="10"
     gridtolerance="10"
     guidetolerance="10"
     inkscape:pageopacity="0"
     inkscape:pageshadow="2"
     inkscape:window-width="1920"
     inkscape:window-height="1007"
     id="namedview27"
     showgrid="false"
     inkscape:zoom="9.8125"
     inkscape:cx="-8.5605096"
     inkscape:cy="4.3312102"
     inkscape:window-x="0"
     inkscape:window-y="0"
     inkscape:window-maximized="1"
     inkscape:current-layer="svg25"
     inkscape:document-rotation="0"
     inkscape:pagecheckerboard="0" />
  <linearGradient
     id="a"
     gradientUnits="userSpaceOnUse"
     x2="0"
     y1="29"
     y2="8">
    <stop
       offset="0"
       stop-color="#3daee9"
       id="stop2" />
    <stop
       offset="1"
       stop-color="#6cc1ef"
       id="stop4" />
  </linearGradient>
  <rect
     style="fill:#3b445f;fill-opacity:1;stroke:none;stroke-width:0.586901"
     id="center-3"
     width="28.21875"
     height="19.384611"
     x="1.8906243"
     y="7.6923079"
     ry="1.8461516"
     rx="1.8812554" />
  <path
     d="m 28.265744,6.773698 h -13.7469 c -0.30383,0 -0.569513,-0.153974 -0.759427,-0.423771 L 12.734027,4.809132 C 12.392313,4.269815 11.822561,4 11.215169,4 H 4.18982 C 2.442841,4 1,5.463963 1,7.235896 V 25.226311 C 1,26.728729 2.215333,28 3.734191,28 H 15.54437 v 0 0 0 0 0 0 0 h 0.91126 v 0 0 0 0 0 0 0 0 0 H 28.265809 C 29.74683,28 31,26.767111 31,25.226311 V 9.547299 C 31,8.006504 29.784939,6.773892 28.265809,6.773892 Z M 16.45563,28 v 0 h -0.91126 v 0 0 z m 13.632904,-2.773601 c 0,1.001533 -0.797606,1.849052 -1.822725,1.849052 H 3.734055 c -0.987282,0 -1.822725,-0.847519 -1.822725,-1.849052 l -2.72e-4,-6.202264 v -3.505698 c 0,-1.001542 0.835448,-1.849051 1.822725,-1.849051 h 13.746895 c 0.60766,0 1.177153,-0.308225 1.518863,-0.809132 l 0.987276,-1.540795 c 0.189928,-0.231102 0.455616,-0.423776 0.759431,-0.423776 h 7.063322 c 1.253171,0 2.278627,1.040206 2.278627,2.311546 v 5.046493 z M 27.809908,10.009663 h -7.063322 c -0.607659,0 -1.177153,0.30822 -1.518858,0.809128 l -0.987281,1.5408 c -0.151781,0.269792 -0.455616,0.423766 -0.759427,0.423766 H 3.734219 c -0.68341,0 -1.328114,0.07831 -1.822969,0.785718 V 9.53846 c 0,-0.923076 0.963755,-1.846153 1.901255,-1.846153 h 7.500004 l 0.02011,0.02141 1.38614,-0.02141 1.838002,0.0058 h 13.7469 c 0.987277,0 1.822725,0.847514 1.822725,1.849057 v 1.425295 c -0.607397,-0.616168 -1.404731,-0.962811 -2.316197,-0.962811 z"
     id="path64"
     sodipodi:nodetypes="csccsssssccccccccccccccccccsssccccccccccssccsssccssscccsccscccccccssscc"
     style="opacity:0.71;fill:url(#linearGradient2232);fill-opacity:1;stroke-width:0.0683002" />
  <path
     d="m 29.038811,24.512779 c -0.06677,0.229698 -0.242191,0.36272 -0.475479,0.296972 -0.233373,-0.06567 -0.232388,-0.305166 -0.165699,-0.534949 0.07502,-0.258094 0.06885,-0.529965 -0.01732,-0.786111 L 27.39087,20.550022 c -0.184278,-0.547539 -0.837513,-1.116156 -1.423392,-1.116156 h -5.07015 c -0.585965,0 -1.103206,0.568617 -1.287571,1.116156 l -1.023401,2.938669 c -0.11433,0.339729 -0.01946,0.771705 0.143969,1.094789 0.163158,0.322824 0.611613,0.695928 0.954507,0.807906 0.341865,0.111551 0.844427,0.01607 1.168695,-0.146944 0.324867,-0.163358 0.567058,-0.574388 0.681814,-0.91513 l 0.06485,-0.19328 c 0.183336,-0.544497 0.562305,-0.776851 1.144924,-0.776851 h 1.510271 c 0.582707,0 0.961373,0.232354 1.144701,0.776851 l 0.06519,0.19328 c 0.18462,0.547345 0.849527,1.130517 1.423217,1.130435 0.110122,0 0.220497,-0.0136 0.327954,-0.04012 0.235437,-0.05798 0.474048,-0.05086 0.533008,0.18087 0.05897,0.231815 -0.08411,0.399993 -0.319544,0.458054 -0.177238,0.04369 -0.359371,0.06583 -0.541331,0.06583 -0.465892,0 -0.914785,-0.144004 -1.298189,-0.416552 -0.38787,-0.275749 -0.672651,-0.658242 -0.823461,-1.106228 l -0.06506,-0.193279 c -0.06394,-0.189893 -0.243326,-0.317417 -0.446404,-0.317417 h -1.51027 c -0.20316,0 -0.382547,0.127524 -0.446491,0.317337 l -0.06506,0.193359 c -0.187884,0.558018 -0.58425,1.012593 -1.116229,1.280071 -0.53532,0.269161 -1.142231,0.315477 -1.709142,0.130398 -0.566737,-0.184993 -1.026702,-0.579147 -1.29501,-1.109868 -0.26753,-0.529118 -0.31139,-1.127787 -0.123423,-1.685805 l 0.989368,-2.938665 c 0.303756,-0.902316 1.156483,-1.508504 2.121903,-1.508504 h 4.798353 c 0.965422,0 1.81823,0.606188 2.121986,1.508506 l 0.98937,2.938665 c 0.142047,0.422043 0.151744,0.870279 0.02796,1.29638 z m -3.45133,-4.185948 c -0.242644,0 -0.439364,0.193697 -0.439364,0.43269 0,0.238912 0.19672,0.432606 0.439364,0.432606 0.242732,0 0.439451,-0.193694 0.439451,-0.432606 0,-0.238993 -0.196719,-0.43269 -0.439451,-0.43269 z m 0,2.595977 c 0.242732,0 0.439451,-0.193694 0.439451,-0.432691 0,-0.238911 -0.196719,-0.432604 -0.439451,-0.432604 -0.242644,0 -0.439364,0.193693 -0.439364,0.432604 0,0.238911 0.19672,0.432691 0.439364,0.432691 z m -0.878815,-1.730681 c -0.242644,0 -0.43937,0.193699 -0.43937,0.432696 0,0.238989 0.196726,0.43269 0.43937,0.43269 0.242725,0 0.439451,-0.193701 0.439451,-0.43269 0,-0.238997 -0.196726,-0.432696 -0.439451,-0.432696 z m 1.757717,0.865386 c 0.242644,0 0.439371,-0.193701 0.439371,-0.43269 0,-0.238997 -0.196727,-0.432696 -0.439371,-0.432696 -0.242724,0 -0.439451,0.193699 -0.439451,0.432696 0,0.238904 0.196727,0.43269 0.439451,0.43269 z m -5.053355,0.865295 c 0.242731,0 0.439456,-0.193694 0.439456,-0.432691 v -0.432604 h 0.439366 c 0.242727,0 0.439451,-0.193701 0.439451,-0.43269 0,-0.238997 -0.196724,-0.432696 -0.439451,-0.432696 h -0.439366 v -0.432606 c 0,-0.238993 -0.196725,-0.43269 -0.439456,-0.43269 -0.242638,0 -0.439364,0.193697 -0.439364,0.43269 v 0.432606 h -0.439451 c -0.242644,0 -0.439451,0.193699 -0.439451,0.432696 0,0.238989 0.196807,0.43269 0.439451,0.43269 h 0.439451 v 0.432604 c 0,0.238911 0.196726,0.432691 0.439364,0.432691 z"
     id="path2-36-7"
     style="opacity:0.7;fill:url(#linearGradient1276);fill-opacity:1;stroke-width:0.0218032"
     sodipodi:nodetypes="cccccsscccccccsscsccccscccssccsccccssccccsssssssssssssssssssssscssscssscssscss" />
  <ellipse
     cx="28.538376"
     cy="25.481745"
     id="circle4-5-5"
     style="fill:url(#linearGradient1284);fill-opacity:1;stroke-width:0.0226902"
     rx="0.34300113"
     ry="0.33772412" />
</svg>
