<?xml version="1.0" encoding="UTF-8" standalone="no"?>
<svg
   width="32"
   version="1.1"
   height="32"
   viewBox="0 0 32 32"
   id="svg18"
   sodipodi:docname="folder-image-people.svg"
   inkscape:version="1.1.1 (3bf5ae0d25, 2021-09-20)"
   xmlns:inkscape="http://www.inkscape.org/namespaces/inkscape"
   xmlns:sodipodi="http://sodipodi.sourceforge.net/DTD/sodipodi-0.dtd"
   xmlns:xlink="http://www.w3.org/1999/xlink"
   xmlns="http://www.w3.org/2000/svg"
   xmlns:svg="http://www.w3.org/2000/svg"
   xmlns:rdf="http://www.w3.org/1999/02/22-rdf-syntax-ns#"
   xmlns:cc="http://creativecommons.org/ns#"
   xmlns:dc="http://purl.org/dc/elements/1.1/">
  <sodipodi:namedview
     pagecolor="#ffffff"
     bordercolor="#666666"
     borderopacity="1"
     objecttolerance="10"
     gridtolerance="10"
     guidetolerance="10"
     inkscape:pageopacity="0"
     inkscape:pageshadow="2"
     inkscape:window-width="1920"
     inkscape:window-height="1007"
     id="namedview20"
     showgrid="false"
     inkscape:zoom="9.8125"
     inkscape:cx="-7.8471338"
     inkscape:cy="8.7133758"
     inkscape:window-x="0"
     inkscape:window-y="0"
     inkscape:window-maximized="1"
     inkscape:current-layer="layer1"
     inkscape:document-rotation="0"
     inkscape:pagecheckerboard="0" />
  <defs
     id="defs5455">
    <linearGradient
       inkscape:collect="always"
       xlink:href="#linearGradient1087"
       id="linearGradient2232"
       x1="384.57144"
       y1="515.79797"
       x2="448.57144"
       y2="515.79797"
       gradientUnits="userSpaceOnUse"
       gradientTransform="matrix(0.46875,0,0,0.46153837,205.30357,293.73743)" />
    <linearGradient
       inkscape:collect="always"
       id="linearGradient1087">
      <stop
         style="stop-color:#9c5aff;stop-opacity:1"
         offset="0"
         id="stop1081" />
      <stop
         style="stop-color:#00f2f2;stop-opacity:1"
         offset="0.50507295"
         id="stop1083" />
      <stop
         style="stop-color:#ff75ff;stop-opacity:1"
         offset="1"
         id="stop1085" />
    </linearGradient>
    <linearGradient
       inkscape:collect="always"
       xlink:href="#linearGradient1087"
       id="linearGradient1041"
       gradientUnits="userSpaceOnUse"
       x1="402.04343"
       y1="520.79852"
       x2="431.58115"
       y2="520.79852"
       gradientTransform="matrix(0.38086894,0,0,0.37500934,249.32054,342.05558)" />
  </defs>
  <metadata
     id="metadata5458">
    <rdf:RDF>
      <cc:Work
         rdf:about="">
        <dc:format>image/svg+xml</dc:format>
        <dc:type
           rdf:resource="http://purl.org/dc/dcmitype/StillImage" />
      </cc:Work>
    </rdf:RDF>
  </metadata>
  <g
     inkscape:label="Capa 1"
     inkscape:groupmode="layer"
     id="layer1"
     transform="translate(-384.57143,-515.798)">
    <rect
       style="fill:#3b445f;fill-opacity:1;stroke:none;stroke-width:0.586901"
       id="center-3"
       width="28.21875"
       height="19.384611"
       x="386.46204"
       y="523.49042"
       ry="1.8461516"
       rx="1.8812554" />
    <path
       d="m 412.83717,522.5717 h -13.7469 c -0.30383,0 -0.56951,-0.15398 -0.75942,-0.42377 l -1.02539,-1.5408 c -0.34172,-0.53931 -0.91147,-0.80913 -1.51886,-0.80913 h -7.02535 c -1.74698,0 -3.18982,1.46396 -3.18982,3.2359 v 17.99041 c 0,1.50242 1.21533,2.77369 2.73419,2.77369 h 11.81018 v 0 0 0 0 0 0 0 h 0.91126 v 0 0 0 0 0 0 0 0 0 h 11.81018 c 1.48102,0 2.73419,-1.23289 2.73419,-2.77369 V 525.3453 c 0,-1.5408 -1.21506,-2.77341 -2.73419,-2.77341 z m -11.81011,21.2263 v 0 h -0.91126 v 0 0 z m 13.6329,-2.7736 c 0,1.00153 -0.7976,1.84905 -1.82272,1.84905 h -24.53176 c -0.98728,0 -1.82272,-0.84752 -1.82272,-1.84905 l -2.7e-4,-6.20226 v -3.5057 c 0,-1.00155 0.83545,-1.84905 1.82272,-1.84905 h 13.7469 c 0.60766,0 1.17715,-0.30823 1.51886,-0.80914 l 0.98728,-1.54079 c 0.18993,-0.2311 0.45561,-0.42378 0.75943,-0.42378 h 7.06332 c 1.25317,0 2.27863,1.04021 2.27863,2.31155 v 5.04649 z m -2.27862,-15.21674 h -7.06332 c -0.60766,0 -1.17716,0.30822 -1.51886,0.80913 l -0.98728,1.5408 c -0.15178,0.26979 -0.45562,0.42377 -0.75943,0.42377 h -13.7468 c -0.68341,0 -1.32812,0.0783 -1.82297,0.78572 v -4.03062 c 0,-0.92308 0.96375,-1.84615 1.90125,-1.84615 h 7.50001 l 0.0201,0.0214 1.38614,-0.0214 1.838,0.006 h 13.7469 c 0.98728,0 1.82273,0.84751 1.82273,1.84905 v 1.4253 c -0.6074,-0.61617 -1.40474,-0.96281 -2.3162,-0.96281 z"
       id="path64"
       sodipodi:nodetypes="csccsssssccccccccccccccccccsssccccccccccssccsssccssscccsccscccccccssscc"
       style="fill:url(#linearGradient2232);fill-opacity:1;stroke-width:0.0683002" />
    <path
       d="m 412.29031,540.12902 h -0.35175 c -0.19431,0 -0.35137,-0.15517 -0.35137,-0.34582 0,-0.19134 0.15706,-0.34651 0.35137,-0.34651 h 0.35175 c 0.38793,0 0.70312,-0.30964 0.70312,-0.69232 v -1.03816 c 0,-0.0277 -0.005,-0.0554 -0.0136,-0.0822 -0.003,-0.0102 -0.008,-0.0199 -0.0119,-0.0304 -0.005,-0.0119 -0.009,-0.024 -0.0158,-0.0355 -0.0802,-0.16015 -0.27655,-0.3143 -0.52166,-0.35858 -0.31363,-0.11493 -0.73299,-0.18593 -1.19526,-0.18593 -0.44909,0 -0.85711,0.0715 -1.16766,0.18339 -0.15706,0.0227 -0.29525,0.0918 -0.39892,0.17867 l -0.002,-0.002 c -0.0572,0.0499 -0.13184,0.0812 -0.21424,0.0812 -0.17888,0 -0.3241,-0.14325 -0.3241,-0.31921 0,-0.1249 0.0733,-0.23191 0.17888,-0.28413 0.19055,-0.13676 0.42195,-0.25457 0.69093,-0.34229 -0.28803,-0.28228 -0.47858,-0.66121 -0.5136,-1.08481 -0.005,-0.0468 -0.007,-0.094 -0.007,-0.14165 v -1.03833 c 0,-0.76468 0.62946,-1.38465 1.40641,-1.38465 h 0.70313 c 0.77641,0 1.40624,0.61999 1.40624,1.38465 v 1.03833 c 0,0.19117 -0.1576,0.34634 -0.35173,0.34634 -0.19433,0 -0.3514,-0.15517 -0.3514,-0.34634 v -1.03833 c 0,-0.38251 -0.31518,-0.69233 -0.70311,-0.69233 h -0.70313 c -0.38846,0 -0.70329,0.30982 -0.70329,0.69233 v 1.03833 c 0,0.57368 0.4724,1.03866 1.05451,1.03866 1.29913,0 2.36032,0.56624 2.45217,1.28453 0.005,0.0324 0.009,0.0659 0.009,0.1004 v 1.03816 c -2e-5,0.765 -0.62984,1.38466 -1.40626,1.38466 z m -3.69603,-2.97579 c -0.004,0.012 -0.009,0.0245 -0.0144,0.0362 -3.8e-4,3.4e-4 -3.8e-4,10e-4 -9.4e-4,0.002 h -3.7e-4 c -0.057,0.11545 -0.17559,0.19574 -0.31464,0.19574 -0.19433,0 -0.35175,-0.15517 -0.35175,-0.34634 0,-0.0495 0.0108,-0.0969 0.0299,-0.13911 l -9.4e-4,-3.8e-4 c 0.0829,-0.17648 0.13048,-0.37221 0.13048,-0.57961 0,-0.0771 -0.008,-0.15246 -0.0204,-0.22649 0.0132,-0.0624 0.0204,-0.12746 0.0204,-0.19388 v -1.40918 c 0,-0.5189 -0.41971,-0.93979 -0.93759,-0.93979 h -0.93727 c -0.51806,0 -0.93777,0.42087 -0.93777,0.93979 v 1.40918 c 0,0.0664 0.007,0.1315 0.0204,0.19388 -0.0122,0.074 -0.0204,0.14941 -0.0204,0.22649 0,0.76468 0.62982,1.38491 1.40642,1.38491 2.24155,0 4.07041,0.78934 4.20567,1.78527 0.008,0.0385 0.0132,0.0781 0.0132,0.11833 v 0.86574 c 0,0.7647 -0.62982,1.38433 -1.40641,1.38433 h -5.62514 c -0.77647,-10e-6 -1.40629,-0.61966 -1.40629,-1.38433 v -0.86575 c 0,-0.0402 0.004,-0.0781 0.01,-0.11562 0.0457,-0.34887 0.30057,-0.67035 0.70398,-0.94181 0.0572,-0.0477 0.12994,-0.0781 0.21061,-0.0781 0.17974,0 0.32547,0.14302 0.32547,0.32016 0,0.11324 -0.0597,0.21161 -0.14986,0.26875 l 0.002,0.003 c -0.25388,0.16698 -0.39928,0.35224 -0.39928,0.54324 v 0.86575 c 0,0.38201 0.31516,0.692 0.70312,0.692 h 5.62515 c 0.38846,0 0.70312,-0.30999 0.70312,-0.692 v -0.86575 c 0,-0.66935 -1.57414,-1.21124 -3.51561,-1.21124 -0.56458,0 -1.07631,-0.22008 -1.45482,-0.5757 -0.10009,-0.094 -0.19191,-0.19843 -0.27156,-0.31033 -0.0779,-0.10911 -0.1454,-0.22641 -0.20102,-0.34945 -0.002,-0.005 -0.004,-0.008 -0.006,-0.0129 -0.0232,-0.0522 -0.0436,-0.10666 -0.0625,-0.16107 -0.004,-0.0123 -0.01,-0.024 -0.0135,-0.0365 -0.0159,-0.0485 -0.0281,-0.0989 -0.0404,-0.14924 -0.005,-0.0187 -0.0105,-0.037 -0.0146,-0.0563 -0.0122,-0.0575 -0.0202,-0.11629 -0.0279,-0.17511 -10e-4,-0.0112 -0.004,-0.022 -0.005,-0.0331 -0.008,-0.0713 -0.0119,-0.144 -0.0119,-0.21754 0,-0.0384 0.003,-0.0752 0.006,-0.11324 -0.003,-0.0392 -0.006,-0.0779 -0.006,-0.11765 v -1.61522 c 0,-0.89245 0.70862,-1.61554 1.58204,-1.61554 h 1.05484 c 0.87392,0 1.58203,0.72309 1.58203,1.61554 v 1.61522 c 0,0.0397 -0.003,0.0784 -0.006,0.11765 0.002,0.038 0.006,0.0749 0.006,0.11324 0,0.29647 -0.0661,0.57688 -0.18025,0.83193 z m -3.86252,1.07187 c 0,0.19099 -0.15758,0.34619 -0.35174,0.34619 -0.19431,0 -0.35138,-0.1552 -0.35138,-0.34619 0,-0.19099 0.15707,-0.34616 0.35138,-0.34616 0.19416,0 0.35174,0.15517 0.35174,0.34616 z"
       id="path2-7"
       style="fill:url(#linearGradient1041);fill-opacity:1;stroke-width:0.0218035" />
  </g>
</svg>
