<?xml version="1.0" encoding="UTF-8" standalone="no"?>
<svg
   width="32"
   version="1.1"
   height="32"
   viewBox="0 0 32 32"
   id="svg17"
   sodipodi:docname="folder-network.svg"
   inkscape:version="1.1.1 (3bf5ae0d25, 2021-09-20)"
   xmlns:inkscape="http://www.inkscape.org/namespaces/inkscape"
   xmlns:sodipodi="http://sodipodi.sourceforge.net/DTD/sodipodi-0.dtd"
   xmlns:xlink="http://www.w3.org/1999/xlink"
   xmlns="http://www.w3.org/2000/svg"
   xmlns:svg="http://www.w3.org/2000/svg"
   xmlns:rdf="http://www.w3.org/1999/02/22-rdf-syntax-ns#"
   xmlns:cc="http://creativecommons.org/ns#"
   xmlns:dc="http://purl.org/dc/elements/1.1/">
  <sodipodi:namedview
     pagecolor="#ffffff"
     bordercolor="#666666"
     borderopacity="1"
     objecttolerance="10"
     gridtolerance="10"
     guidetolerance="10"
     inkscape:pageopacity="0"
     inkscape:pageshadow="2"
     inkscape:window-width="1920"
     inkscape:window-height="1007"
     id="namedview19"
     showgrid="false"
     inkscape:zoom="9.8125"
     inkscape:cx="-11.515924"
     inkscape:cy="4.6369427"
     inkscape:window-x="0"
     inkscape:window-y="0"
     inkscape:window-maximized="1"
     inkscape:current-layer="layer1"
     inkscape:document-rotation="0"
     inkscape:pagecheckerboard="0" />
  <defs
     id="defs5455">
    <linearGradient
       inkscape:collect="always"
       xlink:href="#linearGradient2230"
       id="linearGradient2232"
       x1="384.57144"
       y1="515.79797"
       x2="448.57144"
       y2="515.79797"
       gradientUnits="userSpaceOnUse"
       gradientTransform="matrix(0.46875,0,0,0.46153837,205.30357,293.73743)" />
    <linearGradient
       inkscape:collect="always"
       id="linearGradient2230">
      <stop
         style="stop-color:#4e99ca;stop-opacity:0.80000001"
         offset="0"
         id="stop2226" />
      <stop
         style="stop-color:#20ffff;stop-opacity:0.80000001"
         offset="0.50507295"
         id="stop2332" />
      <stop
         style="stop-color:#ffaeff;stop-opacity:0.69"
         offset="1"
         id="stop2228" />
    </linearGradient>
    <linearGradient
       inkscape:collect="always"
       xlink:href="#linearGradient2230"
       id="linearGradient1013"
       gradientUnits="userSpaceOnUse"
       gradientTransform="matrix(0.38104648,0,0,0.37518415,249.31475,342.05904)"
       x1="401.87143"
       y1="520.79797"
       x2="431.39539"
       y2="520.79797" />
  </defs>
  <metadata
     id="metadata5458">
    <rdf:RDF>
      <cc:Work
         rdf:about="">
        <dc:format>image/svg+xml</dc:format>
        <dc:type
           rdf:resource="http://purl.org/dc/dcmitype/StillImage" />
      </cc:Work>
    </rdf:RDF>
  </metadata>
  <g
     inkscape:label="Capa 1"
     inkscape:groupmode="layer"
     id="layer1"
     transform="translate(-384.57143,-515.798)">
    <rect
       style="fill:#3b445f;fill-opacity:1;stroke:none;stroke-width:0.586901"
       id="center-3"
       width="28.21875"
       height="19.384611"
       x="386.46207"
       y="523.49048"
       ry="1.8461516"
       rx="1.8812554" />
    <path
       d="m 412.83717,522.5717 h -13.7469 c -0.30383,0 -0.56951,-0.15398 -0.75942,-0.42377 l -1.02539,-1.5408 c -0.34172,-0.53931 -0.91147,-0.80913 -1.51886,-0.80913 h -7.02535 c -1.74698,0 -3.18982,1.46396 -3.18982,3.2359 v 17.99041 c 0,1.50242 1.21533,2.77369 2.73419,2.77369 h 11.81018 v 0 0 0 0 0 0 0 h 0.91126 v 0 0 0 0 0 0 0 0 0 h 11.81018 c 1.48102,0 2.73419,-1.23289 2.73419,-2.77369 V 525.3453 c 0,-1.5408 -1.21506,-2.77341 -2.73419,-2.77341 z m -11.81011,21.2263 v 0 h -0.91126 v 0 0 z m 13.6329,-2.7736 c 0,1.00153 -0.7976,1.84905 -1.82272,1.84905 h -24.53176 c -0.98728,0 -1.82272,-0.84752 -1.82272,-1.84905 l -2.7e-4,-6.20226 v -3.5057 c 0,-1.00155 0.83545,-1.84905 1.82272,-1.84905 h 13.7469 c 0.60766,0 1.17715,-0.30823 1.51886,-0.80914 l 0.98728,-1.54079 c 0.18993,-0.2311 0.45561,-0.42378 0.75943,-0.42378 h 7.06332 c 1.25317,0 2.27863,1.04021 2.27863,2.31155 v 5.04649 z m -2.27862,-15.21674 h -7.06332 c -0.60766,0 -1.17716,0.30822 -1.51886,0.80913 l -0.98728,1.5408 c -0.15178,0.26979 -0.45562,0.42377 -0.75943,0.42377 h -13.7468 c -0.68341,0 -1.32812,0.0783 -1.82297,0.78572 v -4.03062 c 0,-0.92308 0.96375,-1.84615 1.90125,-1.84615 h 7.50001 l 0.0201,0.0214 1.38614,-0.0214 1.838,0.006 h 13.7469 c 0.98728,0 1.82273,0.84751 1.82273,1.84905 v 1.4253 c -0.6074,-0.61617 -1.40474,-0.96281 -2.3162,-0.96281 z"
       id="path64"
       sodipodi:nodetypes="csccsssssccccccccccccccccccsssccccccccccssccsssccssscccsccscccccccssscc"
       style="fill:url(#linearGradient2232);fill-opacity:1;stroke-width:0.0683002" />
    <path
       d="m 413.28432,537.03852 -0.2488,0.245 c -0.41177,0.40578 -1.07975,0.40578 -1.49186,0 l -0.24848,-0.245 c -1.78549,-1.75802 -4.68034,-1.75802 -6.46585,0 -0.27439,0.27069 -0.27439,0.70928 0,0.97945 l 0.24881,0.24498 c 0.13737,0.13508 0.35991,0.13508 0.49728,0 0.0223,-0.0217 0.17258,-0.17009 0.24863,-0.24498 1.23618,-1.21701 3.24036,-1.21701 4.47636,0 0.54948,0.54103 0.54948,1.24472 0,1.78558 l -0.24881,0.24498 c -0.41058,0.40426 -1.07564,0.40511 -1.4874,0.004 h -0.008 c -0.11865,-0.10651 -0.28041,-0.17347 -0.48278,-0.17347 -0.3886,0 -0.70335,0.31042 -0.70335,0.69269 0,0.0473 0.005,0.0937 0.0141,0.13846 0.001,0.005 0.003,0.0103 0.005,0.0157 0.006,0.0269 0.0154,0.0529 0.0247,0.0786 0.0343,0.0812 0.0843,0.15758 0.15146,0.22369 0.016,0.0157 0.0239,0.0357 0.0361,0.0536 0.12502,0.11242 0.28986,0.1826 0.4722,0.1826 0.19448,0 0.35194,0.15487 0.35194,0.34627 0,0.19088 -0.15746,0.34591 -0.35194,0.34591 -0.68136,0 -1.24973,-0.47745 -1.37886,-1.11045 -0.10372,-0.44889 0.0182,-0.93768 0.3733,-1.28732 0.54914,-0.54054 1.43992,-0.54054 1.98923,0 0.13738,0.1356 0.35992,0.1356 0.49764,0 l 0.2483,-0.24448 c 0.27492,-0.2707 0.27492,-0.5358 0,-0.80649 -0.96109,-0.94647 -2.51984,-0.94647 -3.48144,0 l -0.24848,0.24481 c -0.41212,0.40594 -1.08009,0.40594 -1.49186,0 l -0.24881,-0.24481 c -0.51515,-0.50688 -0.54709,-1.3093 -0.0967,-1.85356 0.0333,-0.0345 0.0623,-0.0712 0.0967,-0.105 2.0599,-2.02839 5.40017,-2.02839 7.46007,0 0.0343,0.0338 0.21567,0.21033 0.24881,0.24498 0.13738,0.13508 0.35992,0.13508 0.49729,0 l 0.24881,-0.24498 c 0.27439,-0.27069 0.27439,-0.70926 0,-0.97945 -2.48334,-2.44513 -6.43526,-2.56162 -9.05992,-0.35217 l -0.004,-0.004 c -0.062,0.0543 -0.14322,0.0884 -0.23318,0.0884 -0.19386,0 -0.35167,-0.15486 -0.35167,-0.34626 0,-0.12714 0.0706,-0.23686 0.17376,-0.29707 2.90146,-2.40691 7.23975,-2.26895 9.97192,0.42151 0.54949,0.54071 0.54949,1.41769 0,1.95855 z m -10.48621,-0.62202 c -0.19439,0 -0.35167,-0.15503 -0.35167,-0.34643 0,-0.19123 0.15728,-0.34626 0.35167,-0.34626 0.19439,0 0.35167,0.15503 0.35167,0.34626 0,0.1914 -0.15728,0.34643 -0.35167,0.34643 z"
       id="path2-7"
       style="fill:url(#linearGradient1013);fill-opacity:1;stroke-width:0.0218098" />
  </g>
</svg>
