<?xml version="1.0" encoding="UTF-8" standalone="no"?>
<svg
   width="32"
   version="1.1"
   height="32"
   viewBox="0 0 32 32"
   id="svg17"
   sodipodi:docname="folder-documents.svg"
   inkscape:version="1.1.1 (3bf5ae0d25, 2021-09-20)"
   xmlns:inkscape="http://www.inkscape.org/namespaces/inkscape"
   xmlns:sodipodi="http://sodipodi.sourceforge.net/DTD/sodipodi-0.dtd"
   xmlns:xlink="http://www.w3.org/1999/xlink"
   xmlns="http://www.w3.org/2000/svg"
   xmlns:svg="http://www.w3.org/2000/svg"
   xmlns:rdf="http://www.w3.org/1999/02/22-rdf-syntax-ns#"
   xmlns:cc="http://creativecommons.org/ns#"
   xmlns:dc="http://purl.org/dc/elements/1.1/">
  <sodipodi:namedview
     pagecolor="#ffffff"
     bordercolor="#666666"
     borderopacity="1"
     objecttolerance="10"
     gridtolerance="10"
     guidetolerance="10"
     inkscape:pageopacity="0"
     inkscape:pageshadow="2"
     inkscape:window-width="1920"
     inkscape:window-height="1007"
     id="namedview19"
     showgrid="false"
     inkscape:zoom="9.8125"
     inkscape:cx="-18.343949"
     inkscape:cy="13.197452"
     inkscape:window-x="0"
     inkscape:window-y="0"
     inkscape:window-maximized="1"
     inkscape:current-layer="layer1"
     inkscape:document-rotation="0"
     inkscape:pagecheckerboard="0" />
  <defs
     id="defs5455">
    <linearGradient
       inkscape:collect="always"
       xlink:href="#linearGradient1142"
       id="linearGradient2232"
       x1="384.57144"
       y1="515.79797"
       x2="448.57144"
       y2="515.79797"
       gradientUnits="userSpaceOnUse"
       gradientTransform="matrix(0.46875,0,0,0.46153837,205.30357,293.73743)" />
    <linearGradient
       inkscape:collect="always"
       id="linearGradient1142">
      <stop
         style="stop-color:#ff78ff;stop-opacity:1"
         offset="0"
         id="stop1136" />
      <stop
         style="stop-color:#74da81;stop-opacity:1"
         offset="0.50507295"
         id="stop1138" />
      <stop
         style="stop-color:#53adf8;stop-opacity:1"
         offset="1"
         id="stop1140" />
    </linearGradient>
    <linearGradient
       inkscape:collect="always"
       xlink:href="#linearGradient1006"
       id="linearGradient1507"
       gradientUnits="userSpaceOnUse"
       gradientTransform="matrix(0.41015626,0,0,0.40384609,237.2471,327.18729)"
       x1="402.77142"
       y1="519.79797"
       x2="430.20001"
       y2="519.79797" />
    <linearGradient
       inkscape:collect="always"
       id="linearGradient1006">
      <stop
         style="stop-color:#ff78ff;stop-opacity:1"
         offset="0"
         id="stop1000" />
      <stop
         style="stop-color:#abe9b3;stop-opacity:0.80000001"
         offset="0.50507295"
         id="stop1002" />
      <stop
         style="stop-color:#53adf8;stop-opacity:1"
         offset="1"
         id="stop1004" />
    </linearGradient>
  </defs>
  <metadata
     id="metadata5458">
    <rdf:RDF>
      <cc:Work
         rdf:about="">
        <dc:format>image/svg+xml</dc:format>
        <dc:type
           rdf:resource="http://purl.org/dc/dcmitype/StillImage" />
      </cc:Work>
    </rdf:RDF>
  </metadata>
  <g
     inkscape:label="Capa 1"
     inkscape:groupmode="layer"
     id="layer1"
     transform="translate(-384.57143,-515.798)">
    <rect
       style="fill:#3b445f;fill-opacity:1;stroke:none;stroke-width:0.586413"
       id="center-3"
       width="28.171875"
       height="19.384611"
       x="386.50897"
       y="523.4903"
       ry="1.8461516"
       rx="1.8781303" />
    <path
       d="m 412.83717,522.5717 h -13.7469 c -0.30383,0 -0.56951,-0.15398 -0.75942,-0.42377 l -1.02539,-1.5408 c -0.34172,-0.53931 -0.91147,-0.80913 -1.51886,-0.80913 h -7.02535 c -1.74698,0 -3.18982,1.46396 -3.18982,3.2359 v 17.99041 c 0,1.50242 1.21533,2.77369 2.73419,2.77369 h 11.81018 v 0 0 0 0 0 0 0 h 0.91126 v 0 0 0 0 0 0 0 0 0 h 11.81018 c 1.48102,0 2.73419,-1.23289 2.73419,-2.77369 V 525.3453 c 0,-1.5408 -1.21506,-2.77341 -2.73419,-2.77341 z m -11.81011,21.2263 v 0 h -0.91126 v 0 0 z m 13.6329,-2.7736 c 0,1.00153 -0.7976,1.84905 -1.82272,1.84905 h -24.53176 c -0.98728,0 -1.82272,-0.84752 -1.82272,-1.84905 l -2.7e-4,-6.20226 v -3.5057 c 0,-1.00155 0.83545,-1.84905 1.82272,-1.84905 h 13.7469 c 0.60766,0 1.17715,-0.30823 1.51886,-0.80914 l 0.98728,-1.54079 c 0.18993,-0.2311 0.45561,-0.42378 0.75943,-0.42378 h 7.06332 c 1.25317,0 2.27863,1.04021 2.27863,2.31155 v 5.04649 z m -2.27862,-15.21674 h -7.06332 c -0.60766,0 -1.17716,0.30822 -1.51886,0.80913 l -0.98728,1.5408 c -0.15178,0.26979 -0.45562,0.42377 -0.75943,0.42377 h -13.7468 c -0.68341,0 -1.32812,0.0783 -1.82297,0.78572 v -4.03062 c 0,-0.92308 0.96375,-1.84615 1.90125,-1.84615 h 7.50001 l 0.0201,0.0214 1.38614,-0.0214 1.838,0.006 h 13.7469 c 0.98728,0 1.82273,0.84751 1.82273,1.84905 v 1.4253 c -0.6074,-0.61617 -1.40474,-0.96281 -2.3162,-0.96281 z"
       id="path64"
       sodipodi:nodetypes="csccsssssccccccccccccccccccsssccccccccccssccsssccssscccsccscccccccssscc"
       style="opacity:0.705;fill:url(#linearGradient2232);fill-opacity:1;stroke-width:0.0683002" />
    <path
       d="m 411.93851,535.72088 h -1.40639 c -0.19384,0 -0.35124,-0.15498 -0.35124,-0.34584 0,-0.1913 0.1574,-0.34608 0.35124,-0.34608 h 1.40639 c 0.19434,0 0.35155,0.15478 0.35155,0.34608 0,0.19086 -0.15721,0.34584 -0.35155,0.34584 z m 0,1.38481 h -1.40639 c -0.19384,0 -0.35124,-0.15478 -0.35124,-0.34615 0,-0.19138 0.1574,-0.34616 0.35124,-0.34616 h 1.40639 c 0.19434,0 0.35155,0.15478 0.35155,0.34616 0,0.19137 -0.15721,0.34615 -0.35155,0.34615 z m -3.51562,2.07692 h 3.51562 c 0.19434,0 0.35155,0.15498 0.35155,0.34616 0,0.19137 -0.15721,0.34634 -0.35155,0.34634 h -3.51562 c -0.19402,0 -0.35181,-0.15497 -0.35181,-0.34634 0,-0.19118 0.15779,-0.34616 0.35181,-0.34616 z m 0,-1.38442 h 3.51562 c 0.19434,0 0.35155,0.15498 0.35155,0.34584 0,0.1913 -0.15721,0.34608 -0.35155,0.34608 h -3.51562 c -0.19402,0 -0.35181,-0.15478 -0.35181,-0.34608 0,-0.19086 0.15779,-0.34584 0.35181,-0.34584 z m -3.16396,-2.59631 c 0,-0.47807 0.39333,-0.86542 0.87886,-0.86542 h 2.46079 c 0.48555,0 0.87895,0.38735 0.87895,0.86542 v 0.519 1.03866 c 0,0.19137 -0.1572,0.34615 -0.35152,0.34615 -0.19441,0 -0.35161,-0.15478 -0.35161,-0.34615 v -1.03866 -0.34584 c 0,-0.1913 -0.1574,-0.34608 -0.35151,-0.34608 h -2.10947 c -0.19434,0 -0.35164,0.15478 -0.35164,0.34608 v 0.69206 c 0,0.1913 0.1573,0.34628 0.35164,0.34628 h 1.4064 c 0.19394,0 0.35123,0.15478 0.35123,0.34616 0,0.19137 -0.15729,0.34615 -0.35123,0.34615 h -1.58203 c -0.48553,0 -0.87886,-0.38715 -0.87886,-0.86522 z m 0.35126,3.98073 h 1.40645 c 0.19429,0 0.35159,0.15498 0.35159,0.34616 0,0.19137 -0.15733,0.34634 -0.35159,0.34634 h -1.40645 c -0.19394,0 -0.35124,-0.15497 -0.35124,-0.34634 -2e-5,-0.19118 0.1573,-0.34616 0.35124,-0.34616 z m 0,-1.38442 h 1.40645 c 0.19429,0 0.35159,0.15498 0.35159,0.34584 0,0.1913 -0.15733,0.34608 -0.35159,0.34608 h -1.40645 c -0.19394,0 -0.35124,-0.15478 -0.35124,-0.34608 -2e-5,-0.19086 0.1573,-0.34584 0.35124,-0.34584 z m 6.67987,4.15365 h -6.32828 -0.70285 -0.70323 c -1.16494,0 -2.10937,-0.92991 -2.10937,-2.07673 v -2.42314 c 0,-0.1913 0.1573,-0.34628 0.35158,-0.34628 0.19394,0 0.35124,0.15498 0.35124,0.34628 v 0.34622 0.34584 1.73108 c 0,0.76467 0.6298,1.38442 1.40655,1.38442 h 0.87885 1.23043 5.44923 c 0.48555,0 0.87876,-0.38735 0.87876,-0.86542 v -6.57665 c 0,-0.47827 -0.39321,-0.86542 -0.87876,-0.86542 h -6.67964 c -0.48554,0 -0.87884,0.38715 -0.87884,0.86542 v 2.24964 0.34628 3.11539 c 0,0.19137 -0.15741,0.34634 -0.35159,0.34634 -0.19434,0 -0.35173,-0.15497 -0.35173,-0.34634 v -2.0768 -1.02102 -0.71005 -0.17294 -1.904 c -3e-5,-0.76467 0.62979,-1.38442 1.40652,-1.38442 h 7.03113 c 0.77683,0 1.40627,0.61975 1.40627,1.38442 v 6.92307 c 0,0.7649 -0.62944,1.38481 -1.40627,1.38481 z m -9.49215,-5.53846 c -0.19428,0 -0.35158,-0.15498 -0.35158,-0.34628 0,-0.19085 0.1573,-0.34622 0.35158,-0.34622 0.19394,0 0.35124,0.15537 0.35124,0.34622 0,0.1913 -0.1573,0.34628 -0.35124,0.34628 z"
       id="path2-3-7"
       style="opacity:0.708;fill:url(#linearGradient1507);fill-opacity:1;stroke-width:0.0218032" />
  </g>
</svg>
