<?xml version="1.0" encoding="UTF-8" standalone="no"?>
<svg
   width="32"
   version="1.1"
   height="32"
   viewBox="0 0 32 32"
   id="svg15"
   sodipodi:docname="folder-Neon.svg"
   inkscape:version="1.1.1 (3bf5ae0d25, 2021-09-20)"
   xmlns:inkscape="http://www.inkscape.org/namespaces/inkscape"
   xmlns:sodipodi="http://sodipodi.sourceforge.net/DTD/sodipodi-0.dtd"
   xmlns:xlink="http://www.w3.org/1999/xlink"
   xmlns="http://www.w3.org/2000/svg"
   xmlns:svg="http://www.w3.org/2000/svg"
   xmlns:rdf="http://www.w3.org/1999/02/22-rdf-syntax-ns#"
   xmlns:cc="http://creativecommons.org/ns#"
   xmlns:dc="http://purl.org/dc/elements/1.1/">
  <sodipodi:namedview
     pagecolor="#ffffff"
     bordercolor="#666666"
     borderopacity="1"
     objecttolerance="10"
     gridtolerance="10"
     guidetolerance="10"
     inkscape:pageopacity="0"
     inkscape:pageshadow="2"
     inkscape:window-width="1920"
     inkscape:window-height="1007"
     id="namedview17"
     showgrid="false"
     inkscape:zoom="9.8125"
     inkscape:cx="-13.044586"
     inkscape:cy="6.4713376"
     inkscape:window-x="0"
     inkscape:window-y="0"
     inkscape:window-maximized="1"
     inkscape:current-layer="layer1"
     inkscape:document-rotation="0"
     inkscape:pagecheckerboard="0" />
  <defs
     id="defs5455">
    <linearGradient
       inkscape:collect="always"
       xlink:href="#linearGradient2230"
       id="linearGradient2232"
       x1="384.57144"
       y1="515.79797"
       x2="448.57144"
       y2="515.79797"
       gradientUnits="userSpaceOnUse"
       gradientTransform="matrix(0.46875,0,0,0.46153837,205.30357,293.73743)" />
    <linearGradient
       inkscape:collect="always"
       id="linearGradient2230">
      <stop
         style="stop-color:#4e99ca;stop-opacity:0.80000001"
         offset="0"
         id="stop2226" />
      <stop
         style="stop-color:#20ffff;stop-opacity:0.80000001"
         offset="0.50507295"
         id="stop2332" />
      <stop
         style="stop-color:#ffaeff;stop-opacity:0.69"
         offset="1"
         id="stop2228" />
    </linearGradient>
    <linearGradient
       inkscape:collect="always"
       xlink:href="#linearGradient971"
       id="linearGradient1009"
       gradientUnits="userSpaceOnUse"
       gradientTransform="matrix(0.1249918,0,0,0.12306842,401.92158,530.28158)"
       x1="5"
       y1="50"
       x2="95"
       y2="50" />
    <linearGradient
       inkscape:collect="always"
       id="linearGradient971">
      <stop
         style="stop-color:#4e99ca;stop-opacity:0.80000001"
         offset="0"
         id="stop965" />
      <stop
         style="stop-color:#20ffff;stop-opacity:0.80000001"
         offset="0.50507295"
         id="stop967" />
      <stop
         style="stop-color:#00ffff;stop-opacity:1"
         offset="1"
         id="stop969" />
    </linearGradient>
    <linearGradient
       inkscape:collect="always"
       xlink:href="#linearGradient971"
       id="linearGradient881"
       gradientUnits="userSpaceOnUse"
       gradientTransform="matrix(0.1249918,0,0,0.12306842,401.92158,530.28158)"
       x1="5"
       y1="50"
       x2="95"
       y2="50" />
    <linearGradient
       inkscape:collect="always"
       xlink:href="#linearGradient971"
       id="linearGradient883"
       gradientUnits="userSpaceOnUse"
       gradientTransform="matrix(0.1249918,0,0,0.12306842,401.92158,530.28158)"
       x1="5"
       y1="50"
       x2="95"
       y2="50" />
  </defs>
  <metadata
     id="metadata5458">
    <rdf:RDF>
      <cc:Work
         rdf:about="">
        <dc:format>image/svg+xml</dc:format>
        <dc:type
           rdf:resource="http://purl.org/dc/dcmitype/StillImage" />
      </cc:Work>
    </rdf:RDF>
  </metadata>
  <g
     inkscape:label="Capa 1"
     inkscape:groupmode="layer"
     id="layer1"
     transform="translate(-384.57143,-515.798)">
    <rect
       style="fill:#3b445f;fill-opacity:1;stroke:none;stroke-width:0.586901"
       id="center-3"
       width="28.21875"
       height="19.384611"
       x="386.46207"
       y="523.49042"
       ry="1.8461516"
       rx="1.8812554" />
    <path
       d="m 412.83717,522.5717 h -13.7469 c -0.30383,0 -0.56951,-0.15398 -0.75942,-0.42377 l -1.02539,-1.5408 c -0.34172,-0.53931 -0.91147,-0.80913 -1.51886,-0.80913 h -7.02535 c -1.74698,0 -3.18982,1.46396 -3.18982,3.2359 v 17.99041 c 0,1.50242 1.21533,2.77369 2.73419,2.77369 h 11.81018 v 0 0 0 0 0 0 0 h 0.91126 v 0 0 0 0 0 0 0 0 0 h 11.81018 c 1.48102,0 2.73419,-1.23289 2.73419,-2.77369 V 525.3453 c 0,-1.5408 -1.21506,-2.77341 -2.73419,-2.77341 z m -11.81011,21.2263 v 0 h -0.91126 v 0 0 z m 13.6329,-2.7736 c 0,1.00153 -0.7976,1.84905 -1.82272,1.84905 h -24.53176 c -0.98728,0 -1.82272,-0.84752 -1.82272,-1.84905 l -2.7e-4,-6.20226 v -3.5057 c 0,-1.00155 0.83545,-1.84905 1.82272,-1.84905 h 13.7469 c 0.60766,0 1.17715,-0.30823 1.51886,-0.80914 l 0.98728,-1.54079 c 0.18993,-0.2311 0.45561,-0.42378 0.75943,-0.42378 h 7.06332 c 1.25317,0 2.27863,1.04021 2.27863,2.31155 v 5.04649 z m -2.27862,-15.21674 h -7.06332 c -0.60766,0 -1.17716,0.30822 -1.51886,0.80913 l -0.98728,1.5408 c -0.15178,0.26979 -0.45562,0.42377 -0.75943,0.42377 h -13.7468 c -0.68341,0 -1.32812,0.0783 -1.82297,0.78572 v -4.03062 c 0,-0.92308 0.96375,-1.84615 1.90125,-1.84615 h 7.50001 l 0.0201,0.0214 1.38614,-0.0214 1.838,0.006 h 13.7469 c 0.98728,0 1.82273,0.84751 1.82273,1.84905 v 1.4253 c -0.6074,-0.61617 -1.40474,-0.96281 -2.3162,-0.96281 z"
       id="path64"
       sodipodi:nodetypes="csccsssssccccccccccccccccccsssccccccccccssccsssccssscccsccscccccccssscc"
       style="fill:url(#linearGradient2232);fill-opacity:1;stroke-width:0.0683002" />
    <path
       d="m 408.17118,534.99652 c -0.80682,0 -1.4609,0.64402 -1.4609,1.43844 0,0.79438 0.65408,1.43841 1.4609,1.43841 0.80681,0 1.4609,-0.64403 1.4609,-1.43841 0,-0.79442 -0.65409,-1.43844 -1.4609,-1.43844 z m -0.25349,0.46264 c -0.27385,0.0688 -0.50896,0.2488 -0.64484,0.4947 -0.0129,0.0235 -0.0377,0.0368 -0.0642,0.0368 -0.0118,0 -0.0235,-0.002 -0.0347,-0.009 -0.0351,-0.0196 -0.0482,-0.0628 -0.03,-0.0976 0.15535,-0.28058 0.42412,-0.4866 0.73721,-0.56513 0.0397,-0.0105 0.0789,0.013 0.0888,0.0521 0.0102,0.0385 -0.0133,0.0775 -0.053,0.0873 z"
       id="path2-6-7-2-1"
       style="fill:url(#linearGradient881);fill-opacity:1;stroke-width:0.124024" />
    <path
       d="m 408.6809,533.18261 c -0.009,-0.27062 -0.23263,-0.48772 -0.50972,-0.48772 -0.27712,0 -0.5011,0.2171 -0.50973,0.48772 -1.60175,0.24256 -2.83219,1.60848 -2.83219,3.25235 0,1.64381 1.23056,3.00972 2.83219,3.25228 0.009,0.27065 0.23261,0.48778 0.50973,0.48778 0.27709,0 0.50107,-0.21713 0.50972,-0.48778 1.60179,-0.24256 2.83222,-1.60847 2.83222,-3.25228 0,-1.64387 -1.23043,-3.00979 -2.83222,-3.25235 z m -0.008,6.3965 c -0.0444,-0.23383 -0.25164,-0.41104 -0.502,-0.41104 -0.25036,0 -0.45774,0.17705 -0.50197,0.41104 -1.54475,-0.23842 -2.73028,-1.55718 -2.73028,-3.14415 0,-1.58697 1.18553,-2.90577 2.73042,-3.14416 0.0444,0.23384 0.25162,0.41106 0.50193,0.41106 0.25037,0 0.45774,-0.1771 0.50202,-0.41106 1.54463,0.23839 2.73018,1.55719 2.73018,3.14416 0,1.58697 -1.18555,2.90573 -2.7303,3.14415 z"
       id="path4-5-9-2"
       style="fill:url(#linearGradient883);fill-opacity:1;stroke-width:0.124024" />
    <path
       d="m 413.79581,536.43496 c 0,-0.26817 -0.21324,-0.48515 -0.48172,-0.50052 -0.10237,-1.02813 -0.51688,-1.96726 -1.14843,-2.72451 0.18032,-0.19764 0.17582,-0.50075 -0.0179,-0.691 -0.1931,-0.19015 -0.50107,-0.19471 -0.7017,-0.0176 -0.76895,-0.62196 -1.72288,-1.02986 -2.76693,-1.13076 -0.015,-0.26406 -0.23611,-0.47431 -0.5085,-0.47431 -0.27233,0 -0.49272,0.21025 -0.50831,0.47431 -1.04408,0.1008 -1.9979,0.5088 -2.76694,1.13076 -0.20065,-0.17771 -0.50871,-0.17314 -0.70197,0.0176 -0.19309,0.19025 -0.19771,0.4936 -0.0175,0.69114 -0.63167,0.75711 -1.04595,1.69636 -1.14843,2.72437 -0.26849,0.0147 -0.48172,0.23235 -0.48172,0.50052 0,0.26815 0.21323,0.48514 0.48172,0.50052 0.10237,1.02798 0.51676,1.96701 1.14832,2.72418 -0.18051,0.19772 -0.17587,0.50106 0.0177,0.69134 0.19326,0.19008 0.50122,0.19464 0.70211,0.0171 0.76893,0.6221 1.72286,1.02986 2.76696,1.13077 0.0149,0.26405 0.23596,0.47431 0.50832,0.47431 0.27234,0 0.49274,-0.21026 0.50832,-0.47431 1.04409,-0.1008 1.9979,-0.50867 2.76693,-1.13077 0.20092,0.17771 0.50876,0.17314 0.70198,-0.0171 0.19308,-0.19028 0.19771,-0.49362 0.0177,-0.69119 0.63188,-0.75709 1.04596,-1.69635 1.14844,-2.72433 0.26854,-0.0147 0.48172,-0.23237 0.48172,-0.50052 z m -0.59123,0.49558 c -0.10097,1.00215 -0.50496,1.91779 -1.12028,2.65691 -0.19987,-0.14154 -0.47907,-0.12548 -0.6588,0.0518 -0.17979,0.17709 -0.19631,0.452 -0.0526,0.64868 -0.75055,0.60585 -1.68062,1.00361 -2.69868,1.10303 -0.0377,-0.24047 -0.24797,-0.42467 -0.50308,-0.42467 -0.25512,0 -0.46474,0.1842 -0.50312,0.42467 -1.01804,-0.0994 -1.94811,-0.49718 -2.69869,-1.10303 0.14387,-0.19693 0.12749,-0.47202 -0.0526,-0.64878 -0.17975,-0.17702 -0.45909,-0.19343 -0.65896,-0.0519 -0.61533,-0.73891 -1.01942,-1.65455 -1.12042,-2.6567 0.24424,-0.0374 0.43134,-0.24439 0.43134,-0.49558 0,-0.25121 -0.1871,-0.4576 -0.43134,-0.4956 0.101,-1.00216 0.50495,-1.91767 1.12019,-2.65683 0.19997,0.14178 0.47944,0.12556 0.65906,-0.0518 0.17975,-0.17695 0.19613,-0.45215 0.0526,-0.64895 0.75069,-0.6057 1.68051,-1.00348 2.69856,-1.10293 0.0377,0.24046 0.24799,0.42469 0.5031,0.42469 0.2551,0 0.46473,-0.18423 0.50311,-0.42469 1.01804,0.0994 1.94797,0.49723 2.69859,1.10293 -0.14379,0.19692 -0.12756,0.47185 0.0525,0.64883 0.17972,0.17696 0.45912,0.19311 0.65898,0.0518 0.61528,0.73904 1.01927,1.65478 1.12031,2.65694 -0.24424,0.0373 -0.43131,0.24439 -0.43131,0.4956 0,0.25119 0.18718,0.45756 0.43152,0.49558 z"
       id="path6-3-1-7"
       style="fill:url(#linearGradient1009);fill-opacity:1;stroke-width:0.124024" />
  </g>
</svg>
