<?xml version="1.0" encoding="UTF-8" standalone="no"?>
<svg
   width="32"
   version="1.1"
   height="32"
   viewBox="0 0 32 32"
   id="svg15"
   sodipodi:docname="folder-godot.svg"
   inkscape:version="1.1.1 (3bf5ae0d25, 2021-09-20)"
   xmlns:inkscape="http://www.inkscape.org/namespaces/inkscape"
   xmlns:sodipodi="http://sodipodi.sourceforge.net/DTD/sodipodi-0.dtd"
   xmlns:xlink="http://www.w3.org/1999/xlink"
   xmlns="http://www.w3.org/2000/svg"
   xmlns:svg="http://www.w3.org/2000/svg"
   xmlns:rdf="http://www.w3.org/1999/02/22-rdf-syntax-ns#"
   xmlns:cc="http://creativecommons.org/ns#"
   xmlns:dc="http://purl.org/dc/elements/1.1/">
  <sodipodi:namedview
     pagecolor="#ffffff"
     bordercolor="#666666"
     borderopacity="1"
     objecttolerance="10"
     gridtolerance="10"
     guidetolerance="10"
     inkscape:pageopacity="0"
     inkscape:pageshadow="2"
     inkscape:window-width="1920"
     inkscape:window-height="1007"
     id="namedview17"
     showgrid="false"
     inkscape:zoom="9.8125"
     inkscape:cx="-12.942675"
     inkscape:cy="6.5732484"
     inkscape:window-x="0"
     inkscape:window-y="0"
     inkscape:window-maximized="1"
     inkscape:current-layer="layer1"
     inkscape:document-rotation="0"
     inkscape:pagecheckerboard="0" />
  <defs
     id="defs5455">
    <linearGradient
       inkscape:collect="always"
       xlink:href="#linearGradient2230"
       id="linearGradient2232"
       x1="384.57144"
       y1="515.79797"
       x2="448.57144"
       y2="515.79797"
       gradientUnits="userSpaceOnUse"
       gradientTransform="matrix(0.46875,0,0,0.46153837,205.30357,293.73743)" />
    <linearGradient
       inkscape:collect="always"
       id="linearGradient2230">
      <stop
         style="stop-color:#4e99ca;stop-opacity:0.80000001"
         offset="0"
         id="stop2226" />
      <stop
         style="stop-color:#20ffff;stop-opacity:0.80000001"
         offset="0.50507295"
         id="stop2332" />
      <stop
         style="stop-color:#ffaeff;stop-opacity:0.69"
         offset="1"
         id="stop2228" />
    </linearGradient>
    <linearGradient
       inkscape:collect="always"
       xlink:href="#linearGradient2230"
       id="linearGradient1026"
       gradientUnits="userSpaceOnUse"
       gradientTransform="matrix(0.46875,0,0,0.46153837,212.80357,296.04512)"
       x1="404.57144"
       y1="520.79797"
       x2="428.57144"
       y2="520.79797" />
  </defs>
  <metadata
     id="metadata5458">
    <rdf:RDF>
      <cc:Work
         rdf:about="">
        <dc:format>image/svg+xml</dc:format>
        <dc:type
           rdf:resource="http://purl.org/dc/dcmitype/StillImage" />
      </cc:Work>
    </rdf:RDF>
  </metadata>
  <g
     inkscape:label="Capa 1"
     inkscape:groupmode="layer"
     id="layer1"
     transform="translate(-384.57143,-515.798)">
    <rect
       style="fill:#3b445f;fill-opacity:1;stroke:none;stroke-width:0.586901"
       id="center-3"
       width="28.21875"
       height="19.384611"
       x="386.46207"
       y="523.49036"
       ry="1.8461516"
       rx="1.8812554" />
    <path
       d="m 412.83717,522.5717 h -13.7469 c -0.30383,0 -0.56951,-0.15398 -0.75942,-0.42377 l -1.02539,-1.5408 c -0.34172,-0.53931 -0.91147,-0.80913 -1.51886,-0.80913 h -7.02535 c -1.74698,0 -3.18982,1.46396 -3.18982,3.2359 v 17.99041 c 0,1.50242 1.21533,2.77369 2.73419,2.77369 h 11.81018 v 0 0 0 0 0 0 0 h 0.91126 v 0 0 0 0 0 0 0 0 0 h 11.81018 c 1.48102,0 2.73419,-1.23289 2.73419,-2.77369 V 525.3453 c 0,-1.5408 -1.21506,-2.77341 -2.73419,-2.77341 z m -11.81011,21.2263 v 0 h -0.91126 v 0 0 z m 13.6329,-2.7736 c 0,1.00153 -0.7976,1.84905 -1.82272,1.84905 h -24.53176 c -0.98728,0 -1.82272,-0.84752 -1.82272,-1.84905 l -2.7e-4,-6.20226 v -3.5057 c 0,-1.00155 0.83545,-1.84905 1.82272,-1.84905 h 13.7469 c 0.60766,0 1.17715,-0.30823 1.51886,-0.80914 l 0.98728,-1.54079 c 0.18993,-0.2311 0.45561,-0.42378 0.75943,-0.42378 h 7.06332 c 1.25317,0 2.27863,1.04021 2.27863,2.31155 v 5.04649 z m -2.27862,-15.21674 h -7.06332 c -0.60766,0 -1.17716,0.30822 -1.51886,0.80913 l -0.98728,1.5408 c -0.15178,0.26979 -0.45562,0.42377 -0.75943,0.42377 h -13.7468 c -0.68341,0 -1.32812,0.0783 -1.82297,0.78572 v -4.03062 c 0,-0.92308 0.96375,-1.84615 1.90125,-1.84615 h 7.50001 l 0.0201,0.0214 1.38614,-0.0214 1.838,0.006 h 13.7469 c 0.98728,0 1.82273,0.84751 1.82273,1.84905 v 1.4253 c -0.6074,-0.61617 -1.40474,-0.96281 -2.3162,-0.96281 z"
       id="path64"
       sodipodi:nodetypes="csccsssssccccccccccccccccccsssccccccccccssccsssccssscccsccscccccccssscc"
       style="fill:url(#linearGradient2232);fill-opacity:1;stroke-width:0.0683002" />
    <path
       style="color:#232629;fill:url(#linearGradient1026);fill-opacity:1;stroke:none;stroke-width:0.558156"
       d="m 406.94643,530.87492 -1.6875,0.55385 v 1.38461 l -0.84375,0.83077 -0.95625,-0.72 -1.0125,1.27385 0.5625,1.10769 v 3.32308 h 2.25 v 1.10769 h 1.6875 v -1.10769 h 2.25 v 1.10769 h 1.6875 v -1.10769 h 2.25 v -3.32308 l 0.5625,-1.10769 -1.0125,-1.27385 -0.95625,0.72 -0.84375,-0.83077 v -1.38461 c 0,0 -1.18125,-0.44308 -1.6875,-0.55385 -0.225,0.33231 -0.39375,0.72 -0.5625,1.10769 h -1.125 c -0.16875,-0.38769 -0.5625,-1.10769 -0.5625,-1.10769 z m -1.40625,4.43077 a 1.40625,1.3846151 0 0 1 1.40625,1.38461 1.40625,1.3846151 0 0 1 -1.40625,1.38462 1.40625,1.3846151 0 0 1 -1.40625,-1.38462 1.40625,1.3846151 0 0 1 1.40625,-1.38461 z m 5.0625,0 a 1.40625,1.3846151 0 0 1 1.40625,1.38461 1.40625,1.3846151 0 0 1 -1.40625,1.38462 1.40625,1.3846151 0 0 1 -1.40625,-1.38462 1.40625,1.3846151 0 0 1 1.40625,-1.38461 z m -5.0625,0.55385 a 0.84375,0.83076907 0 0 0 -0.84375,0.83076 0.84375,0.83076907 0 0 0 0.84375,0.83077 0.84375,0.83076907 0 0 0 0.84375,-0.83077 0.84375,0.83076907 0 0 0 -0.84375,-0.83076 z m 2.53125,0 c 0.28125,0 0.5625,0.27692 0.5625,0.55384 v 1.10769 c 0,0.27693 -0.28125,0.55385 -0.5625,0.55385 -0.28125,0 -0.5625,-0.27692 -0.5625,-0.55385 v -1.10769 c 0,-0.27692 0.25087,-0.55384 0.5625,-0.55384 z m 2.53125,0 a 0.84375,0.83076907 0 0 0 -0.84375,0.83076 0.84375,0.83076907 0 0 0 0.84375,0.83077 0.84375,0.83076907 0 0 0 0.84375,-0.83077 0.84375,0.83076907 0 0 0 -0.84375,-0.83076 z m -7.59375,3.32307 v 0.27692 c 0,1.8277 2.30625,2.49231 5.0625,2.49231 v 0 0 c 2.75625,0 5.0625,-0.83077 5.0625,-2.65846 0,-0.0554 0,0.0554 0,-0.11077 h -1.6875 v 1.10769 h -2.8125 v -1.10769 h -1.125 v 1.10769 h -2.8125 v -1.10769 z"
       class="ColorScheme-Text"
       id="path12-5" />
  </g>
</svg>
