<?xml version="1.0" encoding="UTF-8" standalone="no"?>
<svg
   width="32"
   version="1.1"
   height="32"
   viewBox="0 0 32 32"
   id="svg15"
   sodipodi:docname="folder-library.svg"
   inkscape:version="1.1.1 (3bf5ae0d25, 2021-09-20)"
   xmlns:inkscape="http://www.inkscape.org/namespaces/inkscape"
   xmlns:sodipodi="http://sodipodi.sourceforge.net/DTD/sodipodi-0.dtd"
   xmlns:xlink="http://www.w3.org/1999/xlink"
   xmlns="http://www.w3.org/2000/svg"
   xmlns:svg="http://www.w3.org/2000/svg"
   xmlns:rdf="http://www.w3.org/1999/02/22-rdf-syntax-ns#"
   xmlns:cc="http://creativecommons.org/ns#"
   xmlns:dc="http://purl.org/dc/elements/1.1/">
  <sodipodi:namedview
     pagecolor="#ffffff"
     bordercolor="#666666"
     borderopacity="1"
     objecttolerance="10"
     gridtolerance="10"
     guidetolerance="10"
     inkscape:pageopacity="0"
     inkscape:pageshadow="2"
     inkscape:window-width="1920"
     inkscape:window-height="1007"
     id="namedview17"
     showgrid="false"
     inkscape:zoom="9.8125"
     inkscape:cx="-12.942675"
     inkscape:cy="7.6942675"
     inkscape:window-x="0"
     inkscape:window-y="0"
     inkscape:window-maximized="1"
     inkscape:current-layer="layer1"
     inkscape:document-rotation="0"
     inkscape:pagecheckerboard="0" />
  <defs
     id="defs5455">
    <linearGradient
       inkscape:collect="always"
       xlink:href="#linearGradient2230-6"
       id="linearGradient2232-3"
       x1="384.57144"
       y1="515.79797"
       x2="448.57144"
       y2="515.79797"
       gradientUnits="userSpaceOnUse"
       gradientTransform="matrix(0.46874986,0,0,0.46153837,205.30358,293.73743)" />
    <linearGradient
       inkscape:collect="always"
       id="linearGradient2230-6">
      <stop
         style="stop-color:#4e99ca;stop-opacity:0.80000001"
         offset="0"
         id="stop2226-7" />
      <stop
         style="stop-color:#20ffff;stop-opacity:0.80000001"
         offset="0.50507295"
         id="stop2332-5" />
      <stop
         style="stop-color:#ffaeff;stop-opacity:0.69"
         offset="1"
         id="stop2228-3" />
    </linearGradient>
    <linearGradient
       inkscape:collect="always"
       xlink:href="#linearGradient2230-6"
       id="linearGradient1087"
       x1="420.57144"
       y1="525.79797"
       x2="444.57138"
       y2="525.79797"
       gradientUnits="userSpaceOnUse"
       gradientTransform="matrix(0.46874986,0,0,0.46153837,205.30358,293.73743)" />
  </defs>
  <metadata
     id="metadata5458">
    <rdf:RDF>
      <cc:Work
         rdf:about="">
        <dc:format>image/svg+xml</dc:format>
        <dc:type
           rdf:resource="http://purl.org/dc/dcmitype/StillImage" />
      </cc:Work>
    </rdf:RDF>
  </metadata>
  <g
     inkscape:label="Capa 1"
     inkscape:groupmode="layer"
     id="layer1"
     transform="translate(-384.57143,-515.798)">
    <rect
       style="fill:#3b445f;fill-opacity:1;stroke:none;stroke-width:0.586414"
       id="center-3-5"
       width="28.171869"
       height="19.384611"
       x="386.50885"
       y="523.4903"
       ry="1.8461516"
       rx="1.87813" />
    <path
       d="m 412.83719,522.5717 h -13.74692 c -0.30383,0 -0.56952,-0.15398 -0.75942,-0.42377 l -1.02541,-1.5408 c -0.34172,-0.53931 -0.91143,-0.80913 -1.51885,-0.80913 h -7.02535 c -1.74697,0 -3.18981,1.46396 -3.18981,3.2359 v 17.99041 c 0,1.50242 1.21533,2.77369 2.73418,2.77369 h 11.81019 v 0 0 0 0 0 0 0 h 0.91126 v 0 0 0 0 0 0 0 0 0 h 11.81019 c 1.481,0 2.73418,-1.23289 2.73418,-2.77369 V 525.3453 c 0,-1.5408 -1.21506,-2.77341 -2.73418,-2.77341 z m -11.81013,21.2263 v 0 h -0.91126 v 0 0 z m 13.63289,-2.7736 c 0,1.00153 -0.79761,1.84905 -1.8227,1.84905 h -24.53178 c -0.98727,0 -1.8227,-0.84752 -1.8227,-1.84905 l -2.7e-4,-6.20226 v -3.5057 c 0,-1.00155 0.83543,-1.84905 1.8227,-1.84905 h 13.74692 c 0.60764,0 1.17714,-0.30823 1.51885,-0.80914 l 0.98728,-1.54079 c 0.18991,-0.2311 0.45561,-0.42378 0.75943,-0.42378 h 7.06333 c 1.25314,0 2.2786,1.04021 2.2786,2.31155 v 5.04649 z m -2.2786,-15.21674 h -7.06334 c -0.60764,0 -1.17714,0.30822 -1.51885,0.80913 l -0.98728,1.5408 c -0.1518,0.26979 -0.45562,0.42377 -0.75943,0.42377 h -13.74682 c -0.68338,0 -1.32808,0.0783 -1.82294,0.78572 v -4.03062 c 0,-0.92308 0.96374,-1.84615 1.90122,-1.84615 h 7.50005 l 0.0203,0.0214 1.38615,-0.0214 1.83801,0.006 h 13.74689 c 0.98727,0 1.82274,0.84751 1.82274,1.84905 v 1.4253 c -0.60741,-0.61617 -1.40472,-0.96281 -2.31619,-0.96281 z"
       id="path64-6"
       sodipodi:nodetypes="csccsssssccccccccccccccccccsssccccccccccssccsssccssscccsccscccccccssscc"
       style="fill:url(#linearGradient2232-3);fill-opacity:1;stroke-width:0.0683002" />
    <path
       d="m 408.07194,541.95184 c -0.0948,0 -0.19029,-0.0274 -0.27294,-0.0818 -0.003,-0.002 -0.60701,-0.38144 -1.57451,-0.38144 h -2.31073 c -0.27046,0 -0.4891,-0.21528 -0.4891,-0.48158 l -8e-5,-5.79768 c 0,-0.26631 0.21864,-0.48159 0.4891,-0.48159 h 2.525 c 0.71166,0 1.30549,0.23165 1.6332,0.39298 0.32728,-0.16134 0.92112,-0.39306 1.63332,-0.39306 h 2.52392 c 0.27046,0 0.4891,0.21528 0.4891,0.48158 v 5.79769 c 0,0.2663 -0.21864,0.48158 -0.4891,0.48158 h -2.31114 c -0.96999,0 -1.56773,0.37757 -1.57354,0.38143 -0.0818,0.0545 -0.17752,0.0819 -0.27244,0.0819 z m -3.66893,-1.42652 h 1.82208 c 0.54682,0 1.00756,0.0954 1.3578,0.20665 v -4.77412 c -0.23969,-0.11272 -0.65787,-0.2668 -1.14409,-0.2668 h -2.03579 z m 4.15819,-4.56751 v 4.77412 c 0.35025,-0.11078 0.81003,-0.20665 1.3569,-0.20665 h 1.82204 v -4.8344 h -2.03477 c -0.48623,0 -0.90396,0.1536 -1.14414,0.2668 z m 4.64581,-1.23005 c -0.0824,0 -0.16581,-0.0203 -0.24214,-0.0635 l -4.89336,-2.75343 -4.89337,2.75343 c -0.23475,0.13198 -0.53367,0.0515 -0.66724,-0.17916 -0.13402,-0.23067 -0.0524,-0.52496 0.18197,-0.65694 l 5.13592,-2.88966 c 0.15018,-0.0847 0.33557,-0.0847 0.48525,0 l 5.13592,2.88966 c 0.23428,0.13199 0.31598,0.42618 0.18192,0.65694 -0.09,0.15554 -0.25478,0.24269 -0.42503,0.24269 z"
       id="path2"
       style="fill:url(#linearGradient1087);fill-opacity:1;stroke-width:0.020801" />
  </g>
</svg>
