<?xml version="1.0" encoding="UTF-8" standalone="no"?>
<svg
   width="32"
   version="1.1"
   height="32"
   viewBox="0 0 32 32"
   id="svg17"
   sodipodi:docname="folder-videos.svg"
   inkscape:version="1.1.1 (3bf5ae0d25, 2021-09-20)"
   xmlns:inkscape="http://www.inkscape.org/namespaces/inkscape"
   xmlns:sodipodi="http://sodipodi.sourceforge.net/DTD/sodipodi-0.dtd"
   xmlns:xlink="http://www.w3.org/1999/xlink"
   xmlns="http://www.w3.org/2000/svg"
   xmlns:svg="http://www.w3.org/2000/svg"
   xmlns:rdf="http://www.w3.org/1999/02/22-rdf-syntax-ns#"
   xmlns:cc="http://creativecommons.org/ns#"
   xmlns:dc="http://purl.org/dc/elements/1.1/">
  <sodipodi:namedview
     pagecolor="#ffffff"
     bordercolor="#666666"
     borderopacity="1"
     objecttolerance="10"
     gridtolerance="10"
     guidetolerance="10"
     inkscape:pageopacity="0"
     inkscape:pageshadow="2"
     inkscape:window-width="1920"
     inkscape:window-height="1007"
     id="namedview19"
     showgrid="false"
     inkscape:zoom="9.8125"
     inkscape:cx="-8.7643312"
     inkscape:cy="4.3312102"
     inkscape:window-x="0"
     inkscape:window-y="0"
     inkscape:window-maximized="1"
     inkscape:current-layer="layer1"
     inkscape:document-rotation="0"
     inkscape:pagecheckerboard="0" />
  <defs
     id="defs5455">
    <linearGradient
       inkscape:collect="always"
       xlink:href="#linearGradient2230"
       id="linearGradient2232"
       x1="384.57144"
       y1="515.79797"
       x2="448.57144"
       y2="515.79797"
       gradientUnits="userSpaceOnUse"
       gradientTransform="matrix(0.46875,0,0,0.46153837,205.30357,293.73743)" />
    <linearGradient
       inkscape:collect="always"
       id="linearGradient2230">
      <stop
         style="stop-color:#4e99ca;stop-opacity:0.80000001"
         offset="0"
         id="stop2226" />
      <stop
         style="stop-color:#20ffff;stop-opacity:0.80000001"
         offset="0.50507295"
         id="stop2332" />
      <stop
         style="stop-color:#ffaeff;stop-opacity:0.69"
         offset="1"
         id="stop2228" />
    </linearGradient>
    <linearGradient
       inkscape:collect="always"
       xlink:href="#linearGradient2230"
       id="linearGradient1027"
       gradientUnits="userSpaceOnUse"
       gradientTransform="matrix(0.35155481,0,0,0.3461462,261.48709,358.12576)"
       x1="400.95978"
       y1="519.79797"
       x2="432.96048"
       y2="519.79797" />
  </defs>
  <metadata
     id="metadata5458">
    <rdf:RDF>
      <cc:Work
         rdf:about="">
        <dc:format>image/svg+xml</dc:format>
        <dc:type
           rdf:resource="http://purl.org/dc/dcmitype/StillImage" />
      </cc:Work>
    </rdf:RDF>
  </metadata>
  <g
     inkscape:label="Capa 1"
     inkscape:groupmode="layer"
     id="layer1"
     transform="translate(-384.57143,-515.798)">
    <rect
       style="fill:#3b445f;fill-opacity:1;stroke:none;stroke-width:0.586413"
       id="center-3"
       width="28.171875"
       height="19.384611"
       x="386.50894"
       y="523.49042"
       ry="1.8461516"
       rx="1.8781303" />
    <path
       d="m 412.83717,522.5717 h -13.7469 c -0.30383,0 -0.56951,-0.15398 -0.75942,-0.42377 l -1.02539,-1.5408 c -0.34172,-0.53931 -0.91147,-0.80913 -1.51886,-0.80913 h -7.02535 c -1.74698,0 -3.18982,1.46396 -3.18982,3.2359 v 17.99041 c 0,1.50242 1.21533,2.77369 2.73419,2.77369 h 11.81018 v 0 0 0 0 0 0 0 h 0.91126 v 0 0 0 0 0 0 0 0 0 h 11.81018 c 1.48102,0 2.73419,-1.23289 2.73419,-2.77369 V 525.3453 c 0,-1.5408 -1.21506,-2.77341 -2.73419,-2.77341 z m -11.81011,21.2263 v 0 h -0.91126 v 0 0 z m 13.6329,-2.7736 c 0,1.00153 -0.7976,1.84905 -1.82272,1.84905 h -24.53176 c -0.98728,0 -1.82272,-0.84752 -1.82272,-1.84905 l -2.7e-4,-6.20226 v -3.5057 c 0,-1.00155 0.83545,-1.84905 1.82272,-1.84905 h 13.7469 c 0.60766,0 1.17715,-0.30823 1.51886,-0.80914 l 0.98728,-1.54079 c 0.18993,-0.2311 0.45561,-0.42378 0.75943,-0.42378 h 7.06332 c 1.25317,0 2.27863,1.04021 2.27863,2.31155 v 5.04649 z m -2.27862,-15.21674 h -7.06332 c -0.60766,0 -1.17716,0.30822 -1.51886,0.80913 l -0.98728,1.5408 c -0.15178,0.26979 -0.45562,0.42377 -0.75943,0.42377 h -13.7468 c -0.68341,0 -1.32812,0.0783 -1.82297,0.78572 v -4.03062 c 0,-0.92308 0.96375,-1.84615 1.90125,-1.84615 h 7.50001 l 0.0201,0.0214 1.38614,-0.0214 1.838,0.006 h 13.7469 c 0.98728,0 1.82273,0.84751 1.82273,1.84905 v 1.4253 c -0.6074,-0.61617 -1.40474,-0.96281 -2.3162,-0.96281 z"
       id="path64"
       sodipodi:nodetypes="csccsssssccccccccccccccccccsssccccccccccssccsssccssscccsccscccccccssscc"
       style="fill:url(#linearGradient2232);fill-opacity:1;stroke-width:0.0683002" />
    <path
       d="m 404.90731,537.01335 c -0.19415,0 -0.35153,-0.15501 -0.35153,-0.34618 0,-0.19116 0.15738,-0.34611 0.35153,-0.34611 0.19415,0 0.35159,0.15495 0.35159,0.34611 0,0.19117 -0.15744,0.34618 -0.35159,0.34618 z m 2.10935,0 h -0.70312 c -0.19414,0 -0.35153,-0.15501 -0.35153,-0.34618 0,-0.19116 0.15739,-0.34611 0.35153,-0.34611 h 0.87891 c 0.48544,0 0.87885,0.38736 0.87885,0.86532 v 1.73078 c 0,0.47797 -0.39341,0.86534 -0.87885,0.86534 h -1.75782 c -0.48543,0 -0.87885,-0.38737 -0.87885,-0.86534 v -0.86539 c 0,-0.19116 0.15738,-0.34612 0.35153,-0.34612 0.19415,0 0.35159,0.15496 0.35159,0.34612 v 0.6923 c 0,0.19116 0.15738,0.34613 0.35153,0.34613 h 1.40623 c 0.19414,0 0.35153,-0.15497 0.35153,-0.34613 v -1.38459 c 0,-0.19116 -0.15739,-0.34613 -0.35153,-0.34613 z m 5.62487,4.15374 c -0.0731,0 -0.14414,-0.007 -0.21287,-0.0211 -0.26451,-0.0392 -0.51857,-0.15332 -0.72988,-0.34022 -0.0939,-0.0621 -0.15583,-0.1675 -0.15583,-0.28753 0,-0.19117 0.15739,-0.34612 0.35153,-0.34612 0.0971,0 0.18452,0.0389 0.24858,0.10142 0.11894,0.11524 0.26916,0.17779 0.42382,0.19319 0.0239,0.005 0.049,0.008 0.0746,0.008 0.19415,0 0.35159,-0.15497 0.35159,-0.34612 v -4.15382 c 0,-0.19116 -0.15744,-0.34612 -0.35159,-0.34612 v -0.004 c -0.18209,-9.2e-4 -0.36476,0.0673 -0.50378,0.20419 l -1.75368,1.72663 c -0.14983,0.14759 -0.21577,0.34467 -0.20342,0.53782 v 1.22605 1.15525 c 0,0.76464 -0.62964,1.3846 -1.40623,1.3846 h -4.92173 c -0.7766,1e-5 -1.40624,-0.61994 -1.40624,-1.38459 v -4.84603 c 0,-0.76464 0.62964,-1.3846 1.40624,-1.3846 h 4.92175 c 0.7766,0 1.40623,0.61996 1.40623,1.3846 v 0.34612 c 0,0.19116 -0.15741,0.34618 -0.35153,0.34618 -0.19414,0 -0.35158,-0.15502 -0.35158,-0.34618 v -0.34612 c 0,-0.38232 -0.31482,-0.6923 -0.70312,-0.6923 h -4.92175 c -0.3883,0 -0.70312,0.30998 -0.70312,0.6923 v 4.84604 c 0,0.38232 0.31482,0.6923 0.70312,0.6923 h 4.92175 c 0.3883,0 0.70312,-0.30998 0.70312,-0.6923 v -2.42302 h 0.001 c 0,-0.35629 0.13823,-0.71241 0.41387,-0.98421 l 1.74936,-1.72244 c 0.22182,-0.21786 0.49872,-0.3441 0.78673,-0.38736 0.0686,-0.0138 0.13972,-0.0211 0.21287,-0.0211 0.58248,0 1.05465,0.46494 1.05465,1.03842 v 4.15379 c -2e-5,0.57345 -0.4722,1.0384 -1.05467,1.0384 z m -1.58196,-1.90381 c 0.19415,0 0.35153,0.15503 0.35153,0.34619 0,0.19116 -0.15738,0.34612 -0.35153,0.34612 -0.19415,0 -0.35159,-0.15496 -0.35159,-0.34612 0,-0.19116 0.15744,-0.34619 0.35159,-0.34619 z"
       id="path2-3-7"
       style="fill:url(#linearGradient1027);fill-opacity:1;stroke-width:0.0218025" />
  </g>
</svg>
