<?xml version="1.0" encoding="UTF-8" standalone="no"?>
<svg
   width="32"
   version="1.1"
   height="32"
   viewBox="0 0 32 32"
   id="svg2"
   inkscape:version="1.1.1 (3bf5ae0d25, 2021-09-20)"
   sodipodi:docname="folder-gdrive.svg"
   xmlns:inkscape="http://www.inkscape.org/namespaces/inkscape"
   xmlns:sodipodi="http://sodipodi.sourceforge.net/DTD/sodipodi-0.dtd"
   xmlns:xlink="http://www.w3.org/1999/xlink"
   xmlns="http://www.w3.org/2000/svg"
   xmlns:svg="http://www.w3.org/2000/svg"
   xmlns:rdf="http://www.w3.org/1999/02/22-rdf-syntax-ns#"
   xmlns:cc="http://creativecommons.org/ns#"
   xmlns:dc="http://purl.org/dc/elements/1.1/">
  <sodipodi:namedview
     pagecolor="#ffffff"
     bordercolor="#666666"
     borderopacity="1"
     objecttolerance="10"
     gridtolerance="10"
     guidetolerance="10"
     inkscape:pageopacity="0"
     inkscape:pageshadow="2"
     inkscape:window-width="1920"
     inkscape:window-height="1007"
     id="namedview46"
     showgrid="false"
     inkscape:zoom="10.429825"
     inkscape:cx="-18.025231"
     inkscape:cy="3.3078216"
     inkscape:window-x="0"
     inkscape:window-y="0"
     inkscape:window-maximized="1"
     inkscape:current-layer="layer1"
     inkscape:document-rotation="0"
     inkscape:pagecheckerboard="0" />
  <defs
     id="defs5455">
    <linearGradient
       inkscape:collect="always"
       xlink:href="#linearGradient2230"
       id="linearGradient2232"
       x1="384.57144"
       y1="515.79797"
       x2="448.57144"
       y2="515.79797"
       gradientUnits="userSpaceOnUse"
       gradientTransform="matrix(0.46875,0,0,0.46153837,205.30357,293.73742)" />
    <linearGradient
       inkscape:collect="always"
       id="linearGradient2230">
      <stop
         style="stop-color:#4e99ca;stop-opacity:0.80000001"
         offset="0"
         id="stop2226" />
      <stop
         style="stop-color:#20ffff;stop-opacity:0.80000001"
         offset="0.50507295"
         id="stop2332" />
      <stop
         style="stop-color:#ffaeff;stop-opacity:0.69"
         offset="1"
         id="stop2228" />
    </linearGradient>
    <linearGradient
       inkscape:collect="always"
       xlink:href="#linearGradient2230"
       id="linearGradient1013"
       gradientUnits="userSpaceOnUse"
       gradientTransform="matrix(0.41015474,0,0,0.40384459,237.02343,326.78421)"
       x1="403.31842"
       y1="520.79797"
       x2="430.7471"
       y2="520.79797" />
  </defs>
  <metadata
     id="metadata5458">
    <rdf:RDF>
      <cc:Work
         rdf:about="">
        <dc:format>image/svg+xml</dc:format>
        <dc:type
           rdf:resource="http://purl.org/dc/dcmitype/StillImage" />
      </cc:Work>
    </rdf:RDF>
  </metadata>
  <g
     inkscape:label="Capa 1"
     inkscape:groupmode="layer"
     id="layer1"
     transform="translate(-384.57143,-515.798)">
    <rect
       style="fill:#3b445f;fill-opacity:1;stroke:none;stroke-width:0.586901"
       id="center-3"
       width="28.21875"
       height="19.384611"
       x="386.46207"
       y="523.49036"
       ry="1.8461516"
       rx="1.8812554" />
    <path
       d="m 412.83717,522.5717 h -13.7469 c -0.30383,0 -0.56951,-0.15398 -0.75942,-0.42377 l -1.02539,-1.5408 c -0.34172,-0.53931 -0.91147,-0.80913 -1.51886,-0.80913 h -7.02535 c -1.74698,0 -3.18982,1.46396 -3.18982,3.2359 v 17.99041 c 0,1.50242 1.21533,2.77369 2.73419,2.77369 h 11.81018 v 0 0 0 0 0 0 0 h 0.91126 v 0 0 0 0 0 0 0 0 0 h 11.81018 c 1.48102,0 2.73419,-1.23289 2.73419,-2.77369 V 525.3453 c 0,-1.5408 -1.21506,-2.77341 -2.73419,-2.77341 z m -11.81011,21.2263 v 0 h -0.91126 v 0 0 z m 13.6329,-2.7736 c 0,1.00153 -0.7976,1.84905 -1.82272,1.84905 h -24.53176 c -0.98728,0 -1.82272,-0.84752 -1.82272,-1.84905 l -2.7e-4,-6.20226 v -3.5057 c 0,-1.00155 0.83545,-1.84905 1.82272,-1.84905 h 13.7469 c 0.60766,0 1.17715,-0.30823 1.51886,-0.80914 l 0.98728,-1.54079 c 0.18993,-0.2311 0.45561,-0.42378 0.75943,-0.42378 h 7.06332 c 1.25317,0 2.27863,1.04021 2.27863,2.31155 v 5.04649 z m -2.27862,-15.21674 h -7.06332 c -0.60766,0 -1.17715,0.30822 -1.51886,0.80913 l -0.98728,1.5408 c -0.15178,0.26979 -0.45561,0.42377 -0.75943,0.42377 h -13.7468 c -0.68341,0 -1.32811,0.0783 -1.82297,0.78572 v -4.03062 c 0,-0.92308 0.96376,-1.84615 1.90126,-1.84615 h 7.5 l 0.0201,0.0214 1.38614,-0.0214 1.838,0.006 h 13.7469 c 0.98728,0 1.82273,0.84751 1.82273,1.84905 v 1.4253 c -0.6074,-0.61617 -1.40473,-0.96281 -2.3162,-0.96281 z"
       id="path64"
       sodipodi:nodetypes="csccsssssccccccccccccccccccsssccccccccccssccsssccssscccsccscccccccssscc"
       style="fill:url(#linearGradient2232);fill-opacity:1;stroke-width:0.0683002" />
    <path
       fill-rule="evenodd"
       clip-rule="evenodd"
       d="m 413.29549,537.70975 -4.47018,1.8533 c -0.23464,0.0884 -0.488,0.13894 -0.7537,0.13894 -0.26518,0 -0.5182,-0.0509 -0.75173,-0.13827 l -4.47287,-1.85432 c -0.0745,-0.0318 -0.14351,-0.0776 -0.20425,-0.13707 -0.26176,-0.25758 -0.26176,-0.67524 0,-0.93299 0.062,-0.0608 0.1337,-0.10716 0.20889,-0.13894 l 0.56104,-0.23239 c 0.052,-0.0308 0.1119,-0.0494 0.17645,-0.0494 0.1912,0 0.34619,0.15246 0.34619,0.34075 0,0.15263 -0.10212,0.27991 -0.24253,0.32367 l -0.17542,0.0718 c -0.0551,0.0291 -0.0928,0.0853 -0.0928,0.15095 0,0.0641 0.0359,0.11948 0.0891,0.1494 l 3.98811,1.63865 c 0.0115,0.004 0.0216,0.007 0.0331,0.0113 0.16548,0.0674 0.34637,0.10428 0.53675,0.10428 0.18845,0 0.36819,-0.0365 0.53262,-0.10276 0.0137,-0.005 0.0259,-0.009 0.0393,-0.014 l 3.98596,-1.63748 c 0.0532,-0.0299 0.0891,-0.0853 0.0891,-0.14941 0,-0.0659 -0.0379,-0.12186 -0.093,-0.15094 l -0.17576,-0.0722 c -0.14006,-0.0434 -0.24218,-0.17122 -0.24218,-0.32333 0,-0.18829 0.155,-0.34075 0.34622,-0.34075 0.0654,0 0.12614,0.0189 0.17816,0.05 l 0.56076,0.23257 c 0.075,0.0318 0.14589,0.0776 0.20735,0.1381 0.26176,0.25775 0.26176,0.67541 0,0.93299 -0.0611,0.0599 -0.13008,0.10566 -0.20459,0.13744 z m 9.4e-4,-2.25066 -4.47707,1.856 c -0.2324,0.0869 -0.48403,0.13691 -0.74768,0.13691 -0.26279,0 -0.51356,-0.0495 -0.7457,-0.13572 l -4.47975,-1.85719 c -0.0742,-0.0321 -0.14266,-0.0772 -0.2034,-0.13656 -0.26177,-0.25775 -0.26177,-0.67573 0,-0.93348 0.0611,-0.0597 0.13045,-0.10463 0.20579,-0.13726 l 4.47801,-1.85634 c 0.23199,-0.0862 0.48226,-0.13591 0.74505,-0.13591 0.2633,0 0.51442,0.0497 0.747,0.13655 l 0.41696,0.17274 c 0.14315,0.0439 0.24752,0.17391 0.24752,0.32907 0,0.191 -0.15723,0.34633 -0.35154,0.34633 -0.0596,0 -0.11433,-0.0164 -0.16357,-0.0419 l -0.33077,-0.13589 c -0.0113,-0.004 -0.0216,-0.007 -0.033,-0.0117 -0.16442,-0.0664 -0.34415,-0.10294 -0.53261,-0.10294 -0.19037,0 -0.37127,0.0373 -0.53675,0.10445 -0.009,0.004 -0.0177,0.006 -0.0273,0.009 l -3.99209,1.64018 c -0.0536,0.0295 -0.091,0.085 -0.091,0.15025 0,0.0641 0.0359,0.11916 0.0886,0.14941 l 3.99378,1.64015 c 0.009,0.004 0.018,0.006 0.028,0.01 0.16547,0.0671 0.34637,0.10446 0.53674,0.10446 0.18846,0 0.3682,-0.0365 0.53262,-0.10294 0.0117,-0.005 0.0223,-0.008 0.0338,-0.012 l 3.9918,-1.63931 c 0.0529,-0.0302 0.0887,-0.0854 0.0887,-0.14941 0,-0.0652 -0.0374,-0.12033 -0.0911,-0.15025 l -0.54169,-0.22277 c -0.13355,-0.0473 -0.22968,-0.17156 -0.22968,-0.31946 0,-0.18811 0.15484,-0.34074 0.34605,-0.34074 0.0654,0 0.12652,0.0191 0.17868,0.05 l 0.91522,0.37962 c 0.0745,0.0314 0.14331,0.0772 0.20409,0.13656 0.26175,0.25775 0.26175,0.67573 0,0.93349 -0.0608,0.0594 -0.1296,0.10451 -0.20375,0.13663 z m -2.93963,-1.6417 c -0.1943,0 -0.35169,-0.15481 -0.35169,-0.34614 0,-0.19134 0.15739,-0.34616 0.35169,-0.34616 0.19378,0 0.35154,0.15482 0.35154,0.34616 0,0.19133 -0.15776,0.34614 -0.35154,0.34614 z m -7.50508,4.93285 0.56343,-0.23324 c 0.0512,-0.0298 0.1102,-0.048 0.17405,-0.048 0.1912,0 0.3462,0.15246 0.3462,0.34075 0,0.15397 -0.10487,0.28293 -0.24767,0.32486 l -0.17028,0.0701 c -0.0551,0.0293 -0.0928,0.085 -0.0928,0.15094 0,0.0646 0.0359,0.11967 0.0891,0.14958 l 3.99396,1.64086 c 0.01,0.004 0.0179,0.005 0.0273,0.009 0.16547,0.0671 0.34637,0.10445 0.53674,0.10445 0.18846,0 0.3682,-0.0368 0.53263,-0.10293 0.0113,-0.005 0.0216,-0.007 0.033,-0.0117 l 3.9923,-1.64001 c 0.0532,-0.0299 0.0891,-0.085 0.0891,-0.14958 0,-0.0656 -0.0379,-0.1217 -0.093,-0.15094 l -0.17147,-0.0701 c -0.14263,-0.0428 -0.2465,-0.17122 -0.2465,-0.32487 0,-0.18828 0.155,-0.34074 0.34623,-0.34074 0.063,0 0.121,0.0177 0.1718,0.0465 l 0.56713,0.23528 c 0.0757,0.0321 0.14555,0.0776 0.20736,0.13841 0.26175,0.25776 0.26175,0.67541 0,0.93317 -0.0602,0.0593 -0.12924,0.10428 -0.20186,0.13623 l -4.4774,1.85635 c -0.23326,0.0875 -0.48507,0.1369 -0.74922,0.1369 -0.26365,0 -0.5151,-0.05 -0.74777,-0.13656 l -4.48008,-1.85719 c -0.0733,-0.0321 -0.14108,-0.0767 -0.20098,-0.13572 -0.26176,-0.25775 -0.26176,-0.67541 0,-0.93316 0.0619,-0.0609 0.1337,-0.10666 0.20887,-0.13893 z"
       id="path2-7"
       style="fill:url(#linearGradient1013);fill-opacity:1;stroke-width:0.0218029" />
  </g>
</svg>
