<?xml version="1.0" encoding="UTF-8" standalone="no"?>
<svg
   width="32"
   version="1.1"
   height="32"
   viewBox="0 0 32 32"
   id="svg17"
   sodipodi:docname="folder-print.svg"
   inkscape:version="1.1.1 (3bf5ae0d25, 2021-09-20)"
   xmlns:inkscape="http://www.inkscape.org/namespaces/inkscape"
   xmlns:sodipodi="http://sodipodi.sourceforge.net/DTD/sodipodi-0.dtd"
   xmlns:xlink="http://www.w3.org/1999/xlink"
   xmlns="http://www.w3.org/2000/svg"
   xmlns:svg="http://www.w3.org/2000/svg"
   xmlns:rdf="http://www.w3.org/1999/02/22-rdf-syntax-ns#"
   xmlns:cc="http://creativecommons.org/ns#"
   xmlns:dc="http://purl.org/dc/elements/1.1/">
  <sodipodi:namedview
     pagecolor="#ffffff"
     bordercolor="#666666"
     borderopacity="1"
     objecttolerance="10"
     gridtolerance="10"
     guidetolerance="10"
     inkscape:pageopacity="0"
     inkscape:pageshadow="2"
     inkscape:window-width="1920"
     inkscape:window-height="1007"
     id="namedview19"
     showgrid="false"
     inkscape:zoom="9.8125"
     inkscape:cx="-11.821656"
     inkscape:cy="3.3121019"
     inkscape:window-x="0"
     inkscape:window-y="0"
     inkscape:window-maximized="1"
     inkscape:current-layer="layer1"
     inkscape:document-rotation="0"
     inkscape:pagecheckerboard="0" />
  <defs
     id="defs5455">
    <linearGradient
       inkscape:collect="always"
       xlink:href="#linearGradient2230"
       id="linearGradient2232"
       x1="384.57144"
       y1="515.79797"
       x2="448.57144"
       y2="515.79797"
       gradientUnits="userSpaceOnUse"
       gradientTransform="matrix(0.46874984,0,0,0.46153113,205.30356,293.74092)" />
    <linearGradient
       inkscape:collect="always"
       id="linearGradient2230">
      <stop
         style="stop-color:#4e99ca;stop-opacity:0.80000001"
         offset="0"
         id="stop2226" />
      <stop
         style="stop-color:#20ffff;stop-opacity:0.80000001"
         offset="0.50507295"
         id="stop2332" />
      <stop
         style="stop-color:#ffaeff;stop-opacity:0.69"
         offset="1"
         id="stop2228" />
    </linearGradient>
    <linearGradient
       inkscape:collect="always"
       xlink:href="#linearGradient2230"
       id="linearGradient1013"
       gradientUnits="userSpaceOnUse"
       gradientTransform="matrix(0.46874984,0,0,0.46153113,213.13171,296.04859)"
       x1="403.87143"
       y1="520.79803"
       x2="427.87137"
       y2="520.79803" />
  </defs>
  <metadata
     id="metadata5458">
    <rdf:RDF>
      <cc:Work
         rdf:about="">
        <dc:format>image/svg+xml</dc:format>
        <dc:type
           rdf:resource="http://purl.org/dc/dcmitype/StillImage" />
      </cc:Work>
    </rdf:RDF>
  </metadata>
  <g
     inkscape:label="Capa 1"
     inkscape:groupmode="layer"
     id="layer1"
     transform="translate(-384.57143,-515.798)">
    <rect
       style="fill:#3b445f;fill-opacity:1;stroke:none;stroke-width:0.586896"
       id="center-3"
       width="28.218748"
       height="19.38431"
       x="386.46204"
       y="523.49017"
       ry="1.8461229"
       rx="1.8812553" />
    <path
       d="m 412.83719,522.57166 h -13.74692 c -0.30383,0 -0.56952,-0.15398 -0.75942,-0.42377 l -1.02541,-1.54077 c -0.34172,-0.5393 -0.91143,-0.80912 -1.51885,-0.80912 h -7.02535 c -1.74697,0 -3.18981,1.46393 -3.18981,3.23585 v 17.99013 c 0,1.50239 1.21533,2.77365 2.73418,2.77365 h 11.81019 v 0 0 0 0 0 0 0 h 0.91126 v 0 0 0 0 0 0 0 0 0 h 11.81019 c 1.481,0 2.73418,-1.23288 2.73418,-2.77365 v -15.67877 c 0,-1.54077 -1.21506,-2.77336 -2.73418,-2.77336 z m -11.81013,21.22597 v 0 h -0.91126 v 0 0 z m 13.63289,-2.77356 c 0,1.00151 -0.79761,1.84902 -1.8227,1.84902 h -24.53178 c -0.98727,0 -1.8227,-0.84751 -1.8227,-1.84902 l -2.7e-4,-6.20216 v -3.50564 c 0,-1.00154 0.83543,-1.84903 1.8227,-1.84903 h 13.74692 c 0.60764,0 1.17714,-0.30822 1.51885,-0.80913 l 0.98728,-1.54076 c 0.18991,-0.2311 0.45561,-0.42377 0.75943,-0.42377 h 7.06333 c 1.25314,0 2.2786,1.04018 2.2786,2.31151 v 5.04641 z m -2.2786,-15.21651 h -7.06334 c -0.60764,0 -1.17714,0.30822 -1.51885,0.80913 l -0.98728,1.54077 c -0.1518,0.26979 -0.45562,0.42376 -0.75943,0.42376 h -13.74682 c -0.68338,0 -1.32808,0.0783 -1.82294,0.78571 v -4.03056 c 0,-0.92306 0.96374,-1.84612 1.90127,-1.84612 h 7.5 l 0.0203,0.0214 1.38615,-0.0214 1.83801,0.006 h 13.74689 c 0.98727,0 1.82274,0.8475 1.82274,1.84902 v 1.42528 c -0.60741,-0.61616 -1.40472,-0.9628 -2.31619,-0.9628 z"
       id="path64"
       sodipodi:nodetypes="csccsssssccccccccccccccccccsssccccccccccssccsssccssscccsccscccccccssscc"
       style="fill:url(#linearGradient2232);fill-opacity:1;stroke-width:0.0682996" />
    <path
       d="m 408.4233,538.49 h 1.40594 c 0.19434,0 0.35155,0.15515 0.35155,0.3465 0,0.19064 -0.15721,0.34613 -0.35155,0.34613 h -1.40594 c -0.19429,0 -0.35163,-0.15549 -0.35163,-0.34613 -3e-5,-0.19135 0.15734,-0.3465 0.35163,-0.3465 z m -1.75827,0.3465 c 0,-0.19135 0.15743,-0.3465 0.35174,-0.3465 0.19415,0 0.35159,0.15515 0.35159,0.3465 0,0.19064 -0.15746,0.34613 -0.35159,0.34613 -0.19431,0 -0.35174,-0.15549 -0.35174,-0.34613 z m 2.81263,1.38424 c 0,0.19134 -0.15725,0.34615 -0.35156,0.34615 h -2.81262 c -0.19382,0 -0.35121,-0.15481 -0.35121,-0.34615 0,-0.19133 0.15739,-0.34614 0.35121,-0.34614 h 2.81262 c 0.19431,0 0.35156,0.15481 0.35156,0.34614 z m 3.1238,-0.34614 h -0.83827 c -0.48579,0 -0.8789,-0.38739 -0.8789,-0.86538 v -0.6923 c 0,-0.28667 -0.23656,-0.51924 -0.52769,-0.51924 h -4.57031 c -0.2913,0 -0.52731,0.23257 -0.52731,0.51924 v 2.42304 c 0,0.28701 0.23601,0.51959 0.52731,0.51959 h 4.57031 c 0.22932,0 0.52769,-0.20225 0.52769,-0.3465 v 0 c 0,-0.191 0.15722,-0.34616 0.3512,-0.34616 0.19431,0 0.35157,0.15516 0.35157,0.34616 0,0.024 -0.005,0.0462 -0.007,0.07 -0.037,0.5402 -0.48928,0.9685 -1.04718,0.9685 h -4.92199 c -0.58245,0 -1.05489,-0.4648 -1.05489,-1.03846 v -1.03845 -0.69197 -1.03878 c 0,-0.57333 0.47244,-1.03846 1.05489,-1.03846 h 4.92197 c 0.58231,0 1.05437,0.46513 1.05437,1.03846 v 0.69265 c 0,0.19064 0.15721,0.34613 0.35155,0.34613 h 0.17614 c 0.48511,0 0.87893,-0.38771 0.87893,-0.8657 v -2.2499 c 0,-0.19116 0.15723,-0.34616 0.35155,-0.34616 0.19365,0 0.35121,0.155 0.35121,0.34616 v 2.63568 c 2e-5,0.44314 -0.62985,1.17189 -1.09496,1.17189 z m 0.0401,-4.84622 c -0.19394,0 -0.35156,-0.15482 -0.35156,-0.34614 0,-0.19081 0.15762,-0.34581 0.35156,-0.34581 0.19433,0 0.35197,0.155 0.35197,0.34581 0,0.19132 -0.15764,0.34614 -0.35197,0.34614 z m -2.10903,0 h -0.3519 -4.57009 -1.58224 c -0.48544,0 -0.87874,0.38774 -0.87874,0.8654 v 1.9039 0.0636 0.97526 c 0,0.19064 0.15728,0.34613 0.35161,0.34613 0.19376,0 0.3512,0.15483 0.3512,0.34581 0,0.19134 -0.15744,0.34616 -0.3512,0.34616 -0.0244,0 -0.0471,-0.005 -0.0707,-0.007 -0.54915,-0.0365 -0.98397,-0.48169 -0.98397,-1.03099 0,-0.0524 0.008,-0.10175 0.0154,-0.15179 -0.009,-0.0639 -0.0154,-0.12847 -0.0154,-0.19471 v -2.76912 c 0,-0.76484 0.62983,-1.38445 1.40609,-1.38445 h 0.52771 0.17557 1.23046 0.35157 4.21874 c 0.29113,0 0.5277,-0.23273 0.5277,-0.51956 v -1.73059 c 0,-0.28666 -0.23657,-0.51905 -0.5277,-0.51905 h -4.57029 c -0.2913,0 -0.52736,0.23239 -0.52736,0.51905 v 1.21154 c 0,0.19134 -0.1572,0.34614 -0.35153,0.34614 -0.19431,0 -0.35156,-0.1548 -0.35156,-0.34614 v -1.38445 c -3e-5,-0.57382 0.47241,-1.03861 1.05486,-1.03861 h 4.92197 c 0.58226,0 1.05437,0.46479 1.05437,1.03861 v 2.07692 c 2e-5,0.57331 -0.47205,1.0381 -1.05435,1.0381 z m -6.32858,0.69249 c 0.19433,0 0.35173,0.155 0.35173,0.34615 0,0.19134 -0.1574,0.34633 -0.35173,0.34633 -0.19384,0 -0.35156,-0.15499 -0.35156,-0.34633 -2e-5,-0.19115 0.15772,-0.34615 0.35156,-0.34615 z"
       id="path2-7"
       style="fill:url(#linearGradient1013);fill-opacity:1;stroke-width:0.0218028" />
  </g>
</svg>
