<?xml version="1.0" encoding="UTF-8" standalone="no"?>
<svg
   width="32"
   version="1.1"
   height="32"
   viewBox="0 0 32 32"
   id="svg15"
   sodipodi:docname="folder-Pop_OS.svg"
   inkscape:version="1.1.1 (3bf5ae0d25, 2021-09-20)"
   xmlns:inkscape="http://www.inkscape.org/namespaces/inkscape"
   xmlns:sodipodi="http://sodipodi.sourceforge.net/DTD/sodipodi-0.dtd"
   xmlns:xlink="http://www.w3.org/1999/xlink"
   xmlns="http://www.w3.org/2000/svg"
   xmlns:svg="http://www.w3.org/2000/svg"
   xmlns:rdf="http://www.w3.org/1999/02/22-rdf-syntax-ns#"
   xmlns:cc="http://creativecommons.org/ns#"
   xmlns:dc="http://purl.org/dc/elements/1.1/">
  <sodipodi:namedview
     pagecolor="#ffffff"
     bordercolor="#666666"
     borderopacity="1"
     objecttolerance="10"
     gridtolerance="10"
     guidetolerance="10"
     inkscape:pageopacity="0"
     inkscape:pageshadow="2"
     inkscape:window-width="1920"
     inkscape:window-height="1007"
     id="namedview17"
     showgrid="false"
     inkscape:zoom="9.8125"
     inkscape:cx="-13.044586"
     inkscape:cy="6.4713376"
     inkscape:window-x="0"
     inkscape:window-y="0"
     inkscape:window-maximized="1"
     inkscape:current-layer="layer1"
     inkscape:document-rotation="0"
     inkscape:pagecheckerboard="0" />
  <defs
     id="defs5455">
    <linearGradient
       inkscape:collect="always"
       xlink:href="#linearGradient2230"
       id="linearGradient2232"
       x1="384.57144"
       y1="515.79797"
       x2="448.57144"
       y2="515.79797"
       gradientUnits="userSpaceOnUse"
       gradientTransform="matrix(0.46875,0,0,0.46153837,205.30358,293.73743)" />
    <linearGradient
       inkscape:collect="always"
       id="linearGradient2230">
      <stop
         style="stop-color:#4e99ca;stop-opacity:0.80000001"
         offset="0"
         id="stop2226" />
      <stop
         style="stop-color:#20ffff;stop-opacity:0.80000001"
         offset="0.50507295"
         id="stop2332" />
      <stop
         style="stop-color:#ffaeff;stop-opacity:0.69"
         offset="1"
         id="stop2228" />
    </linearGradient>
    <linearGradient
       inkscape:collect="always"
       xlink:href="#linearGradient2230"
       id="linearGradient1215"
       gradientUnits="userSpaceOnUse"
       gradientTransform="matrix(0.55478273,0,0,0.54625378,176.79413,254.34742)"
       x1="423.31808"
       y1="517.20392"
       x2="426.5556"
       y2="517.20392" />
    <linearGradient
       inkscape:collect="always"
       xlink:href="#linearGradient2230"
       id="linearGradient1217"
       gradientUnits="userSpaceOnUse"
       gradientTransform="matrix(0.55478273,0,0,0.54625378,176.79413,254.34742)"
       x1="413.9173"
       y1="518.79504"
       x2="417.81851"
       y2="518.79504" />
    <linearGradient
       inkscape:collect="always"
       xlink:href="#linearGradient2230"
       id="linearGradient1219"
       gradientUnits="userSpaceOnUse"
       gradientTransform="matrix(0.55478273,0,0,0.54625378,176.79413,254.34742)"
       x1="418.5582"
       y1="518.65289"
       x2="422.60925"
       y2="518.65289" />
    <linearGradient
       inkscape:collect="always"
       xlink:href="#linearGradient2230"
       id="linearGradient1221"
       gradientUnits="userSpaceOnUse"
       gradientTransform="matrix(0.55478273,0,0,0.54625378,176.79413,254.34742)"
       x1="406.31744"
       y1="517.87299"
       x2="413.16266"
       y2="517.87299" />
    <linearGradient
       inkscape:collect="always"
       xlink:href="#linearGradient2230"
       id="linearGradient1223"
       gradientUnits="userSpaceOnUse"
       gradientTransform="matrix(0.55478273,0,0,0.54625378,176.79413,254.34742)"
       x1="420.06085"
       y1="524.62439"
       x2="426.59094"
       y2="524.62439" />
    <linearGradient
       inkscape:collect="always"
       xlink:href="#linearGradient2230"
       id="linearGradient1225"
       gradientUnits="userSpaceOnUse"
       gradientTransform="matrix(0.55478273,0,0,0.54625378,176.79413,254.34742)"
       x1="415.65665"
       y1="526.09137"
       x2="419.34311"
       y2="526.09137" />
  </defs>
  <metadata
     id="metadata5458">
    <rdf:RDF>
      <cc:Work
         rdf:about="">
        <dc:format>image/svg+xml</dc:format>
        <dc:type
           rdf:resource="http://purl.org/dc/dcmitype/StillImage" />
      </cc:Work>
    </rdf:RDF>
  </metadata>
  <g
     inkscape:label="Capa 1"
     inkscape:groupmode="layer"
     id="layer1"
     transform="translate(-384.57143,-515.798)">
    <rect
       style="fill:#3b445f;fill-opacity:1;stroke:none;stroke-width:0.586901"
       id="center-3"
       width="28.21875"
       height="19.384611"
       x="386.46207"
       y="523.4903"
       ry="1.8461516"
       rx="1.8812554" />
    <path
       d="m 412.83717,522.5717 h -13.7469 c -0.30383,0 -0.56951,-0.15398 -0.75942,-0.42377 l -1.02539,-1.5408 c -0.34172,-0.53931 -0.91147,-0.80913 -1.51886,-0.80913 h -7.02535 c -1.74698,0 -3.18982,1.46396 -3.18982,3.2359 v 17.99041 c 0,1.50242 1.21533,2.77369 2.73419,2.77369 h 11.81018 v 0 0 0 0 0 0 0 h 0.91126 v 0 0 0 0 0 0 0 0 0 h 11.81018 c 1.48102,0 2.73419,-1.23289 2.73419,-2.77369 V 525.3453 c 0,-1.5408 -1.21506,-2.77341 -2.73419,-2.77341 z m -11.81011,21.2263 v 0 h -0.91126 v 0 0 z m 13.6329,-2.7736 c 0,1.00153 -0.7976,1.84905 -1.82272,1.84905 h -24.53176 c -0.98728,0 -1.82272,-0.84752 -1.82272,-1.84905 l -2.7e-4,-6.20226 v -3.5057 c 0,-1.00155 0.83545,-1.84905 1.82272,-1.84905 h 13.7469 c 0.60766,0 1.17715,-0.30823 1.51886,-0.80914 l 0.98728,-1.54079 c 0.18993,-0.2311 0.45561,-0.42378 0.75943,-0.42378 h 7.06332 c 1.25317,0 2.27863,1.04021 2.27863,2.31155 v 5.04649 z m -2.27862,-15.21674 h -7.06332 c -0.60766,0 -1.17716,0.30822 -1.51886,0.80913 l -0.98728,1.5408 c -0.15178,0.26979 -0.45562,0.42377 -0.75943,0.42377 h -13.7468 c -0.68341,0 -1.32812,0.0783 -1.82297,0.78572 v -4.03062 c 0,-0.92308 0.96375,-1.84615 1.90125,-1.84615 h 7.50001 l 0.0201,0.0214 1.38614,-0.0214 1.838,0.006 h 13.7469 c 0.98728,0 1.82273,0.84751 1.82273,1.84905 v 1.4253 c -0.6074,-0.61617 -1.40474,-0.96281 -2.3162,-0.96281 z"
       id="path64"
       sodipodi:nodetypes="csccsssssccccccccccccccccccsssccccccccccssccsssccssscccsccscccccccssscc"
       style="fill:url(#linearGradient2232);fill-opacity:1;stroke-width:0.0683002" />
    <path
       style="fill:url(#linearGradient1215);fill-opacity:1;stroke-width:0.0108822"
       id="path2-3-3-5"
       d="m 412.2623,538.57717 c -0.0215,0.0862 -0.0651,0.16258 -0.141,0.2106 -0.1194,0.0754 -0.26477,0.0535 -0.36784,-0.0382 -0.0965,-0.0851 -0.12912,-0.2291 -0.0987,-0.3536 0.0313,-0.12993 0.13128,-0.24452 0.25932,-0.28056 0.28534,-0.0796 0.40364,0.23248 0.34827,0.46177 z m -0.17467,-0.88629 c -0.17682,-0.071 -0.11611,-1.00413 0.0457,-2.13695 0.0457,-0.31655 0.12372,-0.46621 0.21161,-0.54263 0.12585,-0.10798 0.35478,-0.11242 0.50988,-0.0895 0.17797,0.0252 0.34833,0.10923 0.47743,0.23471 0.11393,0.11143 0.12694,0.22484 0.0879,0.37226 -0.064,0.23471 -0.17355,0.45955 -0.27884,0.6788 -0.0244,0.0534 -0.24306,0.46931 -0.2723,0.52059 -0.52621,0.93215 -0.63146,1.02272 -0.78115,0.96272 z" />
    <path
       style="fill:url(#linearGradient1217);fill-opacity:1;stroke-width:0.0108822"
       id="path4-3-5"
       d="m 408.51807,537.27064 c 0.10414,0.4476 0.0933,0.9387 0.003,1.2923 -0.0835,0.33398 -0.31026,0.63302 -0.67048,0.73343 -0.3158,0.0884 -0.68353,0.0236 -0.90927,-0.19426 -0.37104,-0.35801 -0.58803,-1.19844 -0.49148,-1.80856 0.0781,-0.48995 0.3407,-1.11763 0.91685,-1.14499 0.0376,-10e-4 0.0738,-9.2e-4 0.1106,10e-4 0.58702,0.0535 0.90708,0.55125 1.03948,1.11993 z m -1.06106,1.01833 c 0.032,0.006 0.065,0.006 0.0976,-0.003 0.10959,-0.0312 0.17253,-0.14629 0.2018,-0.25757 0.0448,-0.16919 0.0383,-0.35146 -0.0207,-0.51738 -0.0298,-0.0841 -0.0726,-0.16591 -0.13889,-0.22704 -0.23321,-0.21499 -0.46641,0.008 -0.50662,0.26304 -0.0313,0.19868 0.0146,0.42896 0.13775,0.58943 0.0575,0.0742 0.14006,0.13858 0.22794,0.15387 z" />
    <path
       style="fill:url(#linearGradient1219);fill-opacity:1;stroke-width:0.0108822"
       id="path6-5"
       d="m 409.78859,538.2192 c -9.4e-4,0.82613 0.0813,1.4581 -0.27997,1.53344 -0.29292,0.06 -0.28313,-0.19866 -0.30597,-0.41587 -0.0867,-0.84145 -0.16595,-2.23955 -0.19964,-3.08556 0.0237,-0.36347 0.26587,-0.58611 0.51758,-0.64058 0.38843,-0.0841 0.80285,-0.0601 1.14681,0.15383 0.6803,0.42355 0.73456,1.20062 0.32226,1.83471 -0.2257,0.346 -0.90813,0.59711 -1.20107,0.57518 z m 0.0868,-1.8522 c -0.0421,0.007 -0.11173,0.0251 -0.13129,0.0676 -0.0466,0.0971 -0.0439,0.71395 0.0383,0.97257 0.0138,0.0431 0.0416,0.0829 0.0846,0.0982 0.15408,0.0568 0.29297,-0.13318 0.3559,-0.24776 0.0879,-0.15933 0.11604,-0.34703 0.0607,-0.52174 -0.0522,-0.16257 -0.21373,-0.39839 -0.40793,-0.3688 z" />
    <path
       style="fill:url(#linearGradient1221);fill-opacity:1;stroke-width:0.0108822"
       id="path8-6-3"
       d="m 405.8978,536.7773 c -0.25497,0.54255 -0.67812,0.97358 -1.26396,1.18649 0.16826,0.44203 0.33954,0.87865 0.50665,1.31951 0.0934,0.23791 0.1823,0.49879 0.10087,0.73344 -0.0846,0.24013 -0.41431,0.30669 -0.65416,0.0514 -0.46119,-0.49338 -2.02021,-3.61924 -2.1352,-3.85395 -0.0977,-0.2019 -0.24404,-0.41805 -0.23986,-0.65158 0.008,-0.35149 0.54807,-0.70731 0.80715,-0.88949 0.3625,-0.25442 0.78124,-0.42799 1.22935,-0.42897 0.34942,0 0.64774,0.0961 0.91252,0.26625 0.40573,0.26207 0.6879,0.67994 0.79211,1.15255 0.091,0.41589 0.0716,0.84167 -0.0554,1.11448 m -1.18797,-0.59381 c -0.0912,-0.3328 -0.29735,-0.63949 -0.55669,-0.85448 -0.0563,-0.0469 -0.11721,-0.0907 -0.18754,-0.11463 -0.48611,-0.1605 -0.27562,0.65701 -0.19641,0.86336 0.10956,0.28919 0.27562,0.65479 0.49795,0.87304 0.0487,0.0479 0.10636,0.0907 0.17248,0.10372 0.10093,0.0214 0.1942,-0.0504 0.24529,-0.13312 0.0416,-0.0688 0.0584,-0.15064 0.0683,-0.23026 0.0175,-0.16913 10e-4,-0.3417 -0.044,-0.50763 z" />
    <path
       style="fill:url(#linearGradient1223);fill-opacity:1;stroke-width:0.0108822"
       id="path10-2"
       d="m 411.71047,540.93216 c -10e-4,0.47919 -0.29294,0.95831 -0.93421,0.95831 -0.64119,0 -0.93956,-0.47147 -0.93956,-0.95284 0,-0.6003 0.41554,-0.97139 0.95261,-0.97139 0.6228,0.006 0.92659,0.47041 0.92116,0.96592 z m -0.92116,-0.66357 c -0.40251,0 -0.62824,0.28162 -0.63038,0.66579 0,0.33398 0.18551,0.64722 0.62275,0.64722 0.43725,0 0.60434,-0.33941 0.60434,-0.6505 0.006,-0.3231 -0.16488,-0.65486 -0.59671,-0.66251 z m 1.1902,1.3763 c 0,0.071 10e-4,-0.33726 0,-0.39945 h 0.29512 l 0.0215,0.24997 c 0.0966,0.0557 0.24629,0.0971 0.3689,0.0971 0.22788,0 0.46548,-0.0579 0.46548,-0.28163 -0.008,-0.20301 -0.27234,-0.24447 -0.48606,-0.26634 -0.36348,-0.0375 -0.65641,-0.12654 -0.65641,-0.53697 0,-0.36565 0.41118,-0.54785 0.71714,-0.54785 0.2463,-0.006 0.42098,0.0327 0.64338,0.21276 0,0.14741 -0.001,0.23471 -0.001,0.38201 h -0.28528 l -0.0175,-0.24224 c -0.11501,-0.0557 -0.23329,-0.071 -0.3244,-0.0688 -0.19639,10e-4 -0.40579,0.0949 -0.40579,0.26083 0,0.16259 0.13562,0.20735 0.37647,0.24232 0.3928,0.0524 0.77142,0.14185 0.77142,0.56317 -0.001,0.46055 -0.43182,0.58175 -0.8007,0.58175 -0.281,9.2e-4 -0.45678,-0.0514 -0.67919,-0.24671 z"
       inkscape:connector-curvature="0" />
    <path
       style="fill:url(#linearGradient1225);fill-opacity:1;stroke-width:0.0108822"
       id="path12-9"
       d="m 409.43851,541.73334 c 0,0.084 -0.0673,0.15167 -0.15079,0.15167 h -1.7436 c -0.0836,0 -0.15076,-0.0676 -0.15076,-0.15167 v -0.0138 c 0,-0.0841 0.0672,-0.15164 0.15076,-0.15164 h 1.7436 c 0.0835,0 0.15079,0.0676 0.15079,0.15164 z"
       inkscape:connector-curvature="0" />
  </g>
</svg>
