<?xml version="1.0" encoding="UTF-8" standalone="no"?>
<svg
   height="32"
   viewBox="0 0 32 32"
   width="32"
   version="1.1"
   id="svg25"
   sodipodi:docname="folder-recent.svg"
   inkscape:version="1.1.1 (3bf5ae0d25, 2021-09-20)"
   xmlns:inkscape="http://www.inkscape.org/namespaces/inkscape"
   xmlns:sodipodi="http://sodipodi.sourceforge.net/DTD/sodipodi-0.dtd"
   xmlns:xlink="http://www.w3.org/1999/xlink"
   xmlns="http://www.w3.org/2000/svg"
   xmlns:svg="http://www.w3.org/2000/svg"
   xmlns:rdf="http://www.w3.org/1999/02/22-rdf-syntax-ns#"
   xmlns:cc="http://creativecommons.org/ns#"
   xmlns:dc="http://purl.org/dc/elements/1.1/">
  <metadata
     id="metadata31">
    <rdf:RDF>
      <cc:Work
         rdf:about="">
        <dc:format>image/svg+xml</dc:format>
        <dc:type
           rdf:resource="http://purl.org/dc/dcmitype/StillImage" />
      </cc:Work>
    </rdf:RDF>
  </metadata>
  <defs
     id="defs29">
    <linearGradient
       inkscape:collect="always"
       xlink:href="#linearGradient2230"
       id="linearGradient2232"
       x1="384.57144"
       y1="515.79797"
       x2="448.57144"
       y2="515.79797"
       gradientUnits="userSpaceOnUse"
       gradientTransform="matrix(0.46875,0,0,0.46153837,-179.26786,-222.06057)" />
    <linearGradient
       inkscape:collect="always"
       id="linearGradient2230">
      <stop
         style="stop-color:#4e99ca;stop-opacity:0.80000001"
         offset="0"
         id="stop2226" />
      <stop
         style="stop-color:#20ffff;stop-opacity:0.80000001"
         offset="0.50507295"
         id="stop2332" />
      <stop
         style="stop-color:#ffaeff;stop-opacity:0.69"
         offset="1"
         id="stop2228" />
    </linearGradient>
    <linearGradient
       inkscape:collect="always"
       xlink:href="#linearGradient2230"
       id="linearGradient1013"
       gradientUnits="userSpaceOnUse"
       gradientTransform="matrix(0.46875,0,0,0.46153837,-171.71769,-219.75288)"
       x1="404.46442"
       y1="520.79797"
       x2="428.46442"
       y2="520.79797" />
  </defs>
  <sodipodi:namedview
     pagecolor="#ffffff"
     bordercolor="#666666"
     borderopacity="1"
     objecttolerance="10"
     gridtolerance="10"
     guidetolerance="10"
     inkscape:pageopacity="0"
     inkscape:pageshadow="2"
     inkscape:window-width="1920"
     inkscape:window-height="1007"
     id="namedview27"
     showgrid="false"
     inkscape:zoom="9.8125"
     inkscape:cx="-8.5605096"
     inkscape:cy="13.910828"
     inkscape:window-x="0"
     inkscape:window-y="0"
     inkscape:window-maximized="1"
     inkscape:current-layer="svg25"
     inkscape:document-rotation="0"
     inkscape:pagecheckerboard="0" />
  <linearGradient
     id="a"
     gradientUnits="userSpaceOnUse"
     x2="0"
     y1="29"
     y2="8">
    <stop
       offset="0"
       stop-color="#3daee9"
       id="stop2" />
    <stop
       offset="1"
       stop-color="#6cc1ef"
       id="stop4" />
  </linearGradient>
  <rect
     style="fill:#3b445f;fill-opacity:1;stroke:none;stroke-width:0.586901"
     id="center-3"
     width="28.21875"
     height="19.384611"
     x="1.8906364"
     y="7.6922812"
     ry="1.8461516"
     rx="1.8812554" />
  <path
     d="m 28.265744,6.773698 h -13.7469 c -0.30383,0 -0.569513,-0.153974 -0.759427,-0.423771 L 12.734027,4.809132 C 12.392312,4.269815 11.822561,4 11.215169,4 H 4.18982 C 2.442841,4 1,5.463963 1,7.235896 V 25.226311 C 1,26.728729 2.215333,28 3.734191,28 H 15.54437 v 0 0 0 0 0 0 0 h 0.91126 v 0 0 0 0 0 0 0 0 0 H 28.265809 C 29.74683,28 31,26.767111 31,25.226311 V 9.5472989 C 31,8.006504 29.784939,6.773892 28.265809,6.773892 Z M 16.45563,28 v 0 h -0.91126 v 0 0 z m 13.632904,-2.773601 c 0,1.001533 -0.797606,1.849052 -1.822725,1.849052 H 3.734055 c -0.987282,0 -1.822725,-0.847519 -1.822725,-1.849052 l -2.72e-4,-6.202264 v -3.505697 c 0,-1.001543 0.835448,-1.849052 1.822725,-1.849052 h 13.746895 c 0.60766,0 1.177153,-0.308225 1.518863,-0.809132 l 0.987276,-1.540796 c 0.189928,-0.231101 0.455616,-0.423775 0.759431,-0.423775 h 7.063322 c 1.253171,0 2.278627,1.040206 2.278627,2.311546 v 5.046493 z M 27.809908,10.009663 h -7.063322 c -0.607659,0 -1.177153,0.30822 -1.518858,0.809128 l -0.987281,1.5408 c -0.151781,0.269792 -0.455616,0.423766 -0.759427,0.423766 H 3.734219 c -0.68341,0 -1.328114,0.07831 -1.822969,0.785718 V 9.5384605 c 0,-0.9230765 0.963755,-1.8461535 1.901255,-1.8461535 h 7.500004 l 0.02011,0.02141 1.38614,-0.02141 1.838002,0.0058 h 13.7469 c 0.987277,0 1.822725,0.847514 1.822725,1.8490568 V 10.972459 C 29.518989,10.35626 28.721655,10.009617 27.810189,10.009617 Z"
     id="path64"
     sodipodi:nodetypes="csccsssssccccccccccccccccccsssccccccccccssccsssccssscccsccscccccccssscc"
     style="fill:url(#linearGradient2232);fill-opacity:1;stroke-width:0.0683002" />
  <path
     d="m 23.500145,26.153786 h -0.351562 c -0.194325,0 -0.351539,-0.155164 -0.351539,-0.346153 0,-0.191336 0.157214,-0.346154 0.351539,-0.346154 h 0.351562 c 2.718216,0 4.921786,-2.169863 4.921786,-4.846195 0,-2.676248 -2.20357,-4.846111 -4.921786,-4.846111 -2.718037,0 -4.921809,2.169863 -4.921809,4.846111 0,1.585449 0.77678,2.989015 1.972027,3.872981 l -0.0037,0.0051 c 0.08497,0.06323 0.140934,0.162605 0.140934,0.275839 0,0.19097 -0.157238,0.346153 -0.351563,0.346153 -0.07915,0 -0.151064,-0.02705 -0.209948,-0.07031 l -9.38e-4,0.0014 c -1.366064,-1.010376 -2.250089,-2.619105 -2.250089,-4.431068 0,-3.058919 2.518219,-5.538419 5.624911,-5.538419 3.106341,0 5.625089,2.4795 5.625089,5.538419 0,3.058679 -2.518748,5.538502 -5.625089,5.538502 z M 21.74253,25.461479 c 0.1938,0 0.351211,0.154818 0.351211,0.346154 0,0.190989 -0.157411,0.346153 -0.351211,0.346153 -0.194325,0 -0.351563,-0.155164 -0.351563,-0.346153 0,-0.191336 0.157238,-0.346154 0.351563,-0.346154 z m 1.406053,-8.307866 c 0.194325,0 0.351562,0.154994 0.351562,0.346329 v 3.261461 l 1.955349,1.111846 c 0.16822,0.09563 0.2259,0.307209 0.128583,0.472869 -0.09681,0.165309 -0.312075,0.222424 -0.480146,0.126411 L 22.97298,21.261032 c -0.0023,-0.0014 -0.0052,-0.0037 -0.0079,-0.0054 -0.01219,-0.0074 -0.02353,-0.01588 -0.03469,-0.02469 -0.0074,-0.0054 -0.01439,-0.0108 -0.02128,-0.01722 -0.0099,-0.0091 -0.01922,-0.01961 -0.02831,-0.03009 -0.0059,-0.0071 -0.01148,-0.01283 -0.01664,-0.02031 -0.0079,-0.0108 -0.01458,-0.02229 -0.02128,-0.03415 -0.0042,-0.0074 -0.0089,-0.01454 -0.0127,-0.02266 -0.0052,-0.01149 -0.0093,-0.02298 -0.01336,-0.0348 -0.0033,-0.0098 -0.0067,-0.01994 -0.0093,-0.03009 -0.0028,-0.01048 -0.0042,-0.02095 -0.0057,-0.0318 -0.0019,-0.01251 -0.0033,-0.02469 -0.0037,-0.0372 0,-0.0037 -9.38e-4,-0.0074 -9.38e-4,-0.01117 v -3.461538 c 0,-0.191358 0.157215,-0.346324 0.351539,-0.346324 z"
     id="path2-7"
     style="fill:url(#linearGradient1013);fill-opacity:1;stroke-width:0.021803" />
</svg>
