<?xml version="1.0" encoding="UTF-8" standalone="no"?>
<svg
   width="32"
   version="1.1"
   height="32"
   viewBox="0 0 32 32"
   id="svg15"
   sodipodi:docname="folder-comic.svg"
   inkscape:version="1.1.1 (3bf5ae0d25, 2021-09-20)"
   xmlns:inkscape="http://www.inkscape.org/namespaces/inkscape"
   xmlns:sodipodi="http://sodipodi.sourceforge.net/DTD/sodipodi-0.dtd"
   xmlns:xlink="http://www.w3.org/1999/xlink"
   xmlns="http://www.w3.org/2000/svg"
   xmlns:svg="http://www.w3.org/2000/svg"
   xmlns:rdf="http://www.w3.org/1999/02/22-rdf-syntax-ns#"
   xmlns:cc="http://creativecommons.org/ns#"
   xmlns:dc="http://purl.org/dc/elements/1.1/">
  <sodipodi:namedview
     pagecolor="#ffffff"
     bordercolor="#666666"
     borderopacity="1"
     objecttolerance="10"
     gridtolerance="10"
     guidetolerance="10"
     inkscape:pageopacity="0"
     inkscape:pageshadow="2"
     inkscape:window-width="1920"
     inkscape:window-height="1007"
     id="namedview17"
     showgrid="false"
     inkscape:zoom="9.8125"
     inkscape:cx="-15.490446"
     inkscape:cy="7.6942675"
     inkscape:window-x="0"
     inkscape:window-y="0"
     inkscape:window-maximized="1"
     inkscape:current-layer="layer1"
     inkscape:document-rotation="0"
     inkscape:pagecheckerboard="0" />
  <defs
     id="defs5455">
    <linearGradient
       inkscape:collect="always"
       xlink:href="#linearGradient2230-6"
       id="linearGradient2232-3"
       x1="384.57144"
       y1="515.79797"
       x2="448.57144"
       y2="515.79797"
       gradientUnits="userSpaceOnUse"
       gradientTransform="matrix(0.46874995,0,0,0.46874995,205.30361,290.20523)" />
    <linearGradient
       inkscape:collect="always"
       id="linearGradient2230-6">
      <stop
         style="stop-color:#4e99ca;stop-opacity:0.80000001"
         offset="0"
         id="stop2226-7" />
      <stop
         style="stop-color:#20ffff;stop-opacity:0.80000001"
         offset="0.50507295"
         id="stop2332-5" />
      <stop
         style="stop-color:#ffaeff;stop-opacity:0.69"
         offset="1"
         id="stop2228-3" />
    </linearGradient>
    <linearGradient
       inkscape:collect="always"
       xlink:href="#linearGradient2230-6"
       id="linearGradient897"
       x1="420.57144"
       y1="527.29803"
       x2="444.57117"
       y2="527.29803"
       gradientUnits="userSpaceOnUse"
       gradientTransform="matrix(0.46874995,0,0,0.46874995,205.3036,290.20523)" />
  </defs>
  <metadata
     id="metadata5458">
    <rdf:RDF>
      <cc:Work
         rdf:about="">
        <dc:format>image/svg+xml</dc:format>
        <dc:type
           rdf:resource="http://purl.org/dc/dcmitype/StillImage" />
      </cc:Work>
    </rdf:RDF>
  </metadata>
  <g
     inkscape:label="Capa 1"
     inkscape:groupmode="layer"
     id="layer1"
     transform="translate(-384.57143,-515.798)">
    <rect
       style="fill:#3b445f;fill-opacity:1;stroke:none;stroke-width:0.590977"
       id="center-3-5"
       width="28.171869"
       height="19.687496"
       x="386.50894"
       y="523.54791"
       ry="1.8749979"
       rx="1.8781301" />
    <path
       d="m 412.83717,522.61504 h -13.7469 c -0.30383,0 -0.56951,-0.15639 -0.75942,-0.43039 l -1.0254,-1.56488 c -0.34171,-0.54773 -0.91146,-0.82177 -1.51885,-0.82177 h -7.02535 c -1.74698,0 -3.18982,1.48683 -3.18982,3.28646 v 18.27151 c 0,1.5259 1.21534,2.81703 2.73419,2.81703 h 11.81018 v 0 0 0 0 0 0 0 h 0.91126 v 0 0 0 0 0 0 0 0 0 h 11.81018 c 1.48102,0 2.73419,-1.25215 2.73419,-2.81703 v -15.92399 c 0,-1.56488 -1.21506,-2.81675 -2.73419,-2.81675 z M 401.02706,544.173 v 0 h -0.91126 v 0 0 z m 13.6329,-2.81694 c 0,1.01718 -0.7976,1.87795 -1.82272,1.87795 h -24.53176 c -0.98728,0 -1.82272,-0.86077 -1.82272,-1.87795 l -2.7e-4,-6.29917 v -3.56047 c 0,-1.0172 0.83545,-1.87795 1.82272,-1.87795 h 13.7469 c 0.60766,0 1.17715,-0.31304 1.51886,-0.82178 l 0.98728,-1.56486 c 0.18992,-0.23471 0.45561,-0.4304 0.75943,-0.4304 h 7.06332 c 1.25317,0 2.27862,1.05646 2.27862,2.34766 v 5.12535 z m -2.27863,-15.4545 h -7.06332 c -0.60765,0 -1.17715,0.31304 -1.51885,0.82177 l -0.98728,1.56488 c -0.15179,0.274 -0.45562,0.43039 -0.75944,0.43039 h -13.7468 c -0.6834,0 -1.32811,0.0795 -1.82296,0.798 v -4.0936 c 0,-0.9375 0.96376,-1.875 1.90125,-1.875 h 7.5 l 0.0201,0.0217 1.38615,-0.0217 1.838,0.006 h 13.7469 c 0.98728,0 1.82272,0.86075 1.82272,1.87794 v 1.44757 c -0.60739,-0.6258 -1.40473,-0.97786 -2.31619,-0.97786 z"
       id="path64-6"
       sodipodi:nodetypes="csccsssssccccccccccccccccccsssccccccccccssccsssccssscccsccscccccccssscc"
       style="fill:url(#linearGradient2232-3);fill-opacity:1;stroke-width:0.0688317" />
    <path
       fill-rule="evenodd"
       clip-rule="evenodd"
       d="m 408.4228,537.37628 h -2.81264 c -0.19387,0 -0.35119,-0.15777 -0.35119,-0.35156 0,-0.19432 0.15732,-0.35173 0.35119,-0.35173 h 2.81264 c 0.19415,0 0.35156,0.15741 0.35156,0.35173 0,0.19379 -0.15741,0.35156 -0.35156,0.35156 z m 1.75798,-0.35156 c 0,0.19379 -0.15776,0.35156 -0.35172,0.35156 -0.19418,0 -0.35159,-0.15777 -0.35159,-0.35156 0,-0.19432 0.15741,-0.35173 0.35159,-0.35173 0.19396,0 0.35172,0.15741 0.35172,0.35173 z m -3.51577,-1.40657 c 0,-0.1938 0.15732,-0.35156 0.35164,-0.35156 h 3.51533 c 0.19433,0 0.35173,0.15776 0.35173,0.35156 0,0.19432 -0.1574,0.35173 -0.35173,0.35173 h -3.51533 c -0.19432,0 -0.35164,-0.15741 -0.35164,-0.35173 z m 5.62493,4.57022 h -3.16403 c -0.23723,0 -0.45592,0.0783 -0.63205,0.21026 l -2.21921,1.6644 c -0.005,0.003 -0.007,0.005 -0.0123,0.009 -0.1793,0.14128 -0.40564,0.2259 -0.65214,0.2259 -0.58243,2e-5 -1.05442,-0.47238 -1.05442,-1.05483 v -0.70328 c 0,-0.19379 -0.15741,-0.35155 -0.35164,-0.35155 h -0.35165 c -0.77665,0 -1.40604,-0.62946 -1.40604,-1.40605 V 534.212 c 0,-0.19416 0.15741,-0.35156 0.35164,-0.35156 0.19389,0 0.35121,0.1574 0.35121,0.35156 v 4.39461 c 0,0.4851 0.39379,0.87889 0.87924,0.87889 h 0.35122 c 0.48546,0 0.87925,0.39326 0.87925,0.87871 v 0.87889 c 0,0.19432 0.15731,0.35155 0.35119,0.35155 0.0747,0 0.14362,-0.0231 0.20025,-0.0627 9.5e-4,-3.5e-4 9.5e-4,-3.5e-4 0.001,-9.4e-4 l 2.23756,-1.6783 c 3.5e-4,-3.6e-4 3.5e-4,0 9.5e-4,-3.6e-4 0.29708,-0.23 0.67043,-0.36716 1.0757,-0.36716 h 2.98825 c 0.48546,0 0.87873,-0.39377 0.87873,-0.87888 v -4.57055 c 0,-0.48511 -0.39327,-0.8789 -0.87873,-0.8789 h -6.50401 c -0.19389,0 -0.3512,-0.15722 -0.3512,-0.35154 0,-0.1938 0.15731,-0.35121 0.3512,-0.35121 h 6.67977 c 0.77678,0 1.40625,0.6293 1.40625,1.40604 v 4.92177 c 0,0.77659 -0.62947,1.40606 -1.40625,1.40606 z m -8.08582,-7.03111 c -0.19423,0 -0.35164,-0.15724 -0.35164,-0.35156 0,-0.19379 0.15741,-0.3512 0.35164,-0.3512 0.19421,0 0.35162,0.15741 0.35162,0.3512 0,0.19432 -0.15741,0.35156 -0.35162,0.35156 z"
       id="path2"
       style="fill:url(#linearGradient897);fill-opacity:1;stroke-width:0.0219722" />
  </g>
</svg>
