<?xml version="1.0" encoding="UTF-8" standalone="no"?>
<svg
   width="32"
   version="1.1"
   height="32"
   viewBox="0 0 32 32"
   id="svg15"
   sodipodi:docname="folder-appimage.svg"
   inkscape:version="1.1.1 (3bf5ae0d25, 2021-09-20)"
   xmlns:inkscape="http://www.inkscape.org/namespaces/inkscape"
   xmlns:sodipodi="http://sodipodi.sourceforge.net/DTD/sodipodi-0.dtd"
   xmlns:xlink="http://www.w3.org/1999/xlink"
   xmlns="http://www.w3.org/2000/svg"
   xmlns:svg="http://www.w3.org/2000/svg"
   xmlns:rdf="http://www.w3.org/1999/02/22-rdf-syntax-ns#"
   xmlns:cc="http://creativecommons.org/ns#"
   xmlns:dc="http://purl.org/dc/elements/1.1/">
  <sodipodi:namedview
     pagecolor="#ffffff"
     bordercolor="#666666"
     borderopacity="1"
     objecttolerance="10"
     gridtolerance="10"
     guidetolerance="10"
     inkscape:pageopacity="0"
     inkscape:pageshadow="2"
     inkscape:window-width="1920"
     inkscape:window-height="1007"
     id="namedview17"
     showgrid="false"
     inkscape:zoom="9.8125"
     inkscape:cx="-14.573248"
     inkscape:cy="6.5732484"
     inkscape:window-x="0"
     inkscape:window-y="0"
     inkscape:window-maximized="1"
     inkscape:current-layer="layer1"
     inkscape:document-rotation="0"
     inkscape:pagecheckerboard="0" />
  <defs
     id="defs5455">
    <linearGradient
       inkscape:collect="always"
       xlink:href="#linearGradient2230"
       id="linearGradient2232"
       x1="384.57144"
       y1="515.79797"
       x2="448.57144"
       y2="515.79797"
       gradientUnits="userSpaceOnUse"
       gradientTransform="matrix(0.46875,0,0,0.46153837,205.30357,293.73743)" />
    <linearGradient
       inkscape:collect="always"
       id="linearGradient2230">
      <stop
         style="stop-color:#4e99ca;stop-opacity:0.80000001"
         offset="0"
         id="stop2226" />
      <stop
         style="stop-color:#20ffff;stop-opacity:0.80000001"
         offset="0.50507295"
         id="stop2332" />
      <stop
         style="stop-color:#ffaeff;stop-opacity:0.69"
         offset="1"
         id="stop2228" />
    </linearGradient>
    <linearGradient
       inkscape:collect="always"
       xlink:href="#linearGradient2230"
       id="linearGradient1197"
       gradientUnits="userSpaceOnUse"
       gradientTransform="matrix(0.46875,0,0,0.46153837,212.80357,296.04513)"
       x1="404.57144"
       y1="520.79791"
       x2="428.57193"
       y2="520.79791" />
  </defs>
  <metadata
     id="metadata5458">
    <rdf:RDF>
      <cc:Work
         rdf:about="">
        <dc:format>image/svg+xml</dc:format>
        <dc:type
           rdf:resource="http://purl.org/dc/dcmitype/StillImage" />
      </cc:Work>
    </rdf:RDF>
  </metadata>
  <g
     inkscape:label="Capa 1"
     inkscape:groupmode="layer"
     id="layer1"
     transform="translate(-384.57143,-515.798)">
    <rect
       style="fill:#3b445f;fill-opacity:1;stroke:none;stroke-width:0.58739"
       id="center-3"
       width="28.265625"
       height="19.384611"
       x="386.4621"
       y="523.4903"
       ry="1.8461516"
       rx="1.8843803" />
    <path
       d="m 412.83717,522.5717 h -13.7469 c -0.30383,0 -0.56951,-0.15398 -0.75942,-0.42377 l -1.02539,-1.5408 c -0.34172,-0.53931 -0.91147,-0.80913 -1.51886,-0.80913 h -7.02535 c -1.74698,0 -3.18982,1.46396 -3.18982,3.2359 v 17.99041 c 0,1.50242 1.21533,2.77369 2.73419,2.77369 h 11.81018 v 0 0 0 0 0 0 0 h 0.91126 v 0 0 0 0 0 0 0 0 0 h 11.81018 c 1.48102,0 2.73419,-1.23289 2.73419,-2.77369 V 525.3453 c 0,-1.5408 -1.21506,-2.77341 -2.73419,-2.77341 z m -11.81011,21.2263 v 0 h -0.91126 v 0 0 z m 13.6329,-2.7736 c 0,1.00153 -0.7976,1.84905 -1.82272,1.84905 h -24.53176 c -0.98728,0 -1.82272,-0.84752 -1.82272,-1.84905 l -2.7e-4,-6.20226 v -3.5057 c 0,-1.00155 0.83545,-1.84905 1.82272,-1.84905 h 13.7469 c 0.60766,0 1.17715,-0.30823 1.51886,-0.80914 l 0.98728,-1.54079 c 0.18993,-0.2311 0.45561,-0.42378 0.75943,-0.42378 h 7.06332 c 1.25317,0 2.27863,1.04021 2.27863,2.31155 v 5.04649 z m -2.27862,-15.21674 h -7.06332 c -0.60766,0 -1.17716,0.30822 -1.51886,0.80913 l -0.98728,1.5408 c -0.15178,0.26979 -0.45562,0.42377 -0.75943,0.42377 h -13.7468 c -0.68341,0 -1.32812,0.0783 -1.82297,0.78572 v -4.03062 c 0,-0.92308 0.96375,-1.84615 1.90125,-1.84615 h 7.50001 l 0.0201,0.0214 1.38614,-0.0214 1.838,0.006 h 13.7469 c 0.98728,0 1.82273,0.84751 1.82273,1.84905 v 1.4253 c -0.6074,-0.61617 -1.40474,-0.96281 -2.3162,-0.96281 z"
       id="path64"
       sodipodi:nodetypes="csccsssssccccccccccccccccccsssccccccccccssccsssccssscccsccscccccccssscc"
       style="fill:url(#linearGradient2232);fill-opacity:1;stroke-width:0.0683002" />
    <path
       fill-rule="evenodd"
       clip-rule="evenodd"
       d="m 412.41624,535.04024 c 0.005,0 0.01,-0.003 0.0149,-0.003 0.70981,0.0691 1.26548,0.65885 1.26548,1.37649 0,0.71909 -0.55635,1.31001 -1.26893,1.37793 -9.3e-4,0.003 -0.003,0.006 -0.005,0.009 -0.005,-3.5e-4 -0.009,-0.003 -0.015,-0.003 -0.17916,0 -0.37881,0.0314 -0.45297,0.20786 -0.0741,0.1768 0.0309,0.33095 0.16823,0.46582 0.005,0.005 0.0112,0.007 0.0163,0.0108 0.44903,0.54357 0.42361,1.34068 -0.091,1.84741 -0.51412,0.50636 -1.32436,0.53206 -1.8766,0.0903 -0.008,0.005 -0.0172,0.006 -0.0254,0.01 -0.004,-0.005 -0.005,-0.009 -0.009,-0.0138 -0.1272,-0.12475 -0.29011,-0.24171 -0.46949,-0.16802 -0.1797,0.073 -0.2154,0.25488 -0.2154,0.44619 0,0.0173 0.005,0.0328 0.0105,0.0483 -0.0884,0.68148 -0.67532,1.2095 -1.39167,1.2095 -0.72921,0 -1.32847,-0.54662 -1.39938,-1.24635 -0.008,-0.003 -0.0144,-0.007 -0.0223,-0.01 3.5e-4,-0.003 0.002,-0.006 0.002,-0.01 0,-0.17643 -0.0317,-0.37251 -0.21098,-0.44553 -0.17939,-0.0734 -0.33612,0.0304 -0.47325,0.16564 -0.008,0.008 -0.0123,0.0183 -0.0182,0.0277 -0.55156,0.42522 -1.34772,0.39582 -1.85514,-0.10411 -0.51533,-0.5074 -0.54057,-1.30619 -0.0894,-1.85011 -0.005,-0.009 -0.007,-0.0196 -0.0115,-0.0297 0.12669,-0.12474 0.24495,-0.28531 0.17064,-0.46177 -0.0745,-0.17643 -0.25955,-0.21227 -0.4537,-0.21227 -0.0127,0 -0.0239,0.005 -0.0359,0.008 -0.69161,-0.0865 -1.2277,-0.66555 -1.2277,-1.37011 0,-0.72069 0.55894,-1.31175 1.27336,-1.37785 0.002,-0.006 0.006,-0.0118 0.009,-0.0179 0.17664,-10e-4 0.36976,-0.0342 0.44255,-0.20756 0.0742,-0.17613 -0.0302,-0.32958 -0.16719,-0.46446 -0.44993,-0.54322 -0.42468,-1.34135 0.0903,-1.8484 0.51684,-0.50926 1.33311,-0.53275 1.88535,-0.083 0.006,-0.003 0.0118,-0.004 0.0179,-0.007 0.12566,0.12187 0.28565,0.2324 0.46125,0.16092 0.17939,-0.0732 0.21544,-0.25554 0.21544,-0.44656 0,-4.6e-4 -3.5e-4,-9.2e-4 -3.5e-4,-0.002 0.0712,-0.69924 0.66894,-1.24517 1.3978,-1.24517 0.73316,0 1.33416,0.55203 1.39973,1.25683 10e-4,4.6e-4 0.002,0.002 0.004,0.002 0,0.0414 0.002,0.084 0.008,0.12574 h -0.005 c 0,0.19099 -0.15724,0.34633 -0.35157,0.34633 -0.1938,0 -0.35121,-0.15534 -0.35121,-0.34633 0,-0.3825 -0.315,-0.69231 -0.7033,-0.69231 -0.38848,0 -0.70313,0.30981 -0.70313,0.69231 v 0.34633 l -0.002,0.003 c 0.006,0.22885 -0.14144,0.44249 -0.37473,0.51077 -0.006,0.002 -0.0117,0.002 -0.0171,0.003 l -0.004,0.005 c -0.16446,0.0544 -0.32411,0.11934 -0.47724,0.19573 l -0.0101,-10e-4 c -0.006,0.003 -0.0108,0.008 -0.0168,0.0113 -0.22746,0.12119 -0.50485,0.0605 -0.66105,-0.1315 l -0.21922,-0.21568 c -0.27484,-0.27043 -0.72012,-0.27043 -0.99445,0 -0.27446,0.27044 -0.27446,0.70889 0,0.97897 l 0.24856,0.24491 10e-4,0.0103 c 0.16445,0.1582 0.21185,0.40836 0.097,0.61727 -0.002,0.003 -0.005,0.005 -0.006,0.009 l 0.002,0.0117 c -0.0765,0.15095 -0.1435,0.30813 -0.19843,0.47038 l -0.0106,0.008 c -0.002,0.006 -0.002,0.012 -0.004,0.0183 -0.0747,0.24711 -0.31962,0.39652 -0.57059,0.36576 h -0.29742 c -0.38848,0 -0.70328,0.31015 -0.70328,0.69231 0,0.38207 0.3148,0.6924 0.70328,0.6924 h 0.35121 l 0.0105,0.008 c 0.22746,-3.5e-4 0.43807,0.14333 0.50638,0.36881 4.7e-4,0.002 4.7e-4,0.004 9.4e-4,0.006 l 0.013,0.009 c 0.0553,0.16191 0.12154,0.31911 0.19879,0.46986 l -0.003,0.021 c 0.002,0.004 0.005,0.007 0.008,0.0112 0.12309,0.22379 0.0615,0.49693 -0.13355,0.65073 l -0.21356,0.2106 c -0.27446,0.27008 -0.27446,0.70853 0,0.97897 0.27431,0.27008 0.71961,0.27008 0.99445,0 l 0.24872,-0.24474 0.0103,-0.002 c 0.16031,-0.15752 0.41161,-0.20181 0.62121,-0.0903 10e-4,4.6e-4 0.002,0.002 0.004,0.003 l 0.0226,-0.003 c 0.1533,0.0754 0.31294,0.1413 0.47773,0.19539 l 0.0141,0.0183 c 0.002,9.3e-4 0.005,9.3e-4 0.007,0.002 0.22968,0.0669 0.3754,0.27517 0.37472,0.49996 l 0.002,0.003 v 0.34645 c 0,0.38233 0.31465,0.69232 0.70313,0.69232 0.38831,0 0.70331,-0.30999 0.70331,-0.69232 V 540.221 l 0.002,-0.003 c -4.7e-4,-0.2248 0.14507,-0.43269 0.37475,-0.49995 0.002,-9.2e-4 0.005,-9.2e-4 0.007,-0.002 l 0.0139,-0.0179 c 0.16444,-0.0544 0.32392,-0.11934 0.47717,-0.19573 l 0.0232,0.003 c 10e-4,-9.2e-4 0.002,-0.002 0.004,-0.003 0.2096,-0.11155 0.46092,-0.0673 0.62124,0.0903 l 0.0105,0.002 0.24873,0.24474 c 0.27431,0.27008 0.71961,0.27008 0.99444,0 0.27449,-0.27044 0.27449,-0.70889 0,-0.97897 l -0.21373,-0.21059 c -0.195,-0.15381 -0.25646,-0.42695 -0.13337,-0.65074 0.002,-0.004 0.005,-0.007 0.007,-0.0112 l -0.003,-0.023 c 0.0766,-0.15075 0.14404,-0.30591 0.19844,-0.46748 l 0.0137,-0.0102 c 4.6e-4,-0.002 9.3e-4,-0.004 10e-4,-0.006 0.0682,-0.22547 0.27862,-0.3688 0.50605,-0.3688 l 0.0103,-0.008 h 0.35169 c 0.38848,0 0.70313,-0.31032 0.70313,-0.69239 0,-0.38216 -0.31465,-0.69231 -0.70313,-0.69231 h -0.29762 c -0.25132,0.0307 -0.49593,-0.11865 -0.57043,-0.36576 -0.002,-0.006 -0.002,-0.0125 -0.004,-0.0187 l -0.0105,-0.008 c -0.0551,-0.16192 -0.12155,-0.31911 -0.19863,-0.46954 l 0.002,-0.0121 c -0.002,-0.003 -0.005,-0.006 -0.006,-0.009 -0.11486,-0.2089 -0.0675,-0.45907 0.0968,-0.61726 l 10e-4,-0.0103 0.24873,-0.2449 c 0.27448,-0.27009 0.27448,-0.70854 0,-0.97897 -0.13048,-0.1281 -0.32135,-0.20129 -0.49215,-0.20789 -0.19433,0 -0.35174,-0.15482 -0.35174,-0.34615 0,-0.19134 0.15741,-0.34616 0.35174,-0.34616 0.0252,0 0.0496,0.002 0.0735,0.008 0.33062,0.0213 0.66399,0.15499 0.91565,0.40312 0.51649,0.50841 0.54103,1.31023 0.0865,1.85398 0.002,0.003 0.002,0.007 0.004,0.0107 -0.002,10e-4 -0.004,0.002 -0.005,0.004 -0.12685,0.12507 -0.24548,0.28564 -0.17115,0.46261 0.0741,0.17661 0.2593,0.21211 0.45326,0.21211 z m -2.41096,-1.74227 c -0.19433,0 -0.35157,-0.15516 -0.35157,-0.34632 0,-0.19082 0.15724,-0.34582 0.35157,-0.34582 0.1938,0 0.35121,0.155 0.35121,0.34582 0,0.19116 -0.15741,0.34632 -0.35121,0.34632 z m -3.16418,3.98085 c 0.19432,0 0.35173,0.15482 0.35173,0.34616 0,0.19133 -0.15741,0.34613 -0.35173,0.34613 -0.19415,0 -0.35157,-0.1548 -0.35157,-0.34613 0,-0.19134 0.15742,-0.34616 0.35157,-0.34616 z m -0.87872,-0.86548 c 0,-1.14696 0.94446,-2.0769 2.10917,-2.0769 1.1649,0 2.10933,0.92994 2.10933,2.0769 0,1.14708 -0.94443,2.077 -2.10933,2.077 -0.19415,0 -0.35157,-0.15516 -0.35157,-0.34615 0,-0.191 0.15742,-0.34648 0.35157,-0.34648 0.77678,0 1.40608,-0.61964 1.40608,-1.38437 0,-0.76463 -0.62933,-1.38444 -1.40608,-1.38444 -0.77659,0 -1.40641,0.61979 -1.40641,1.38444 0,0.19143 -0.15741,0.34625 -0.35121,0.34625 -0.19433,0 -0.35155,-0.15482 -0.35155,-0.34625 z"
       id="path2-5"
       style="fill:url(#linearGradient1197);fill-opacity:1;stroke-width:0.0218031" />
  </g>
</svg>
