<?xml version="1.0" encoding="UTF-8" standalone="no"?>
<svg
   width="32"
   version="1.1"
   height="32"
   viewBox="0 0 32 32"
   id="svg15"
   sodipodi:docname="folder-design.svg"
   inkscape:version="1.1.1 (3bf5ae0d25, 2021-09-20)"
   xmlns:inkscape="http://www.inkscape.org/namespaces/inkscape"
   xmlns:sodipodi="http://sodipodi.sourceforge.net/DTD/sodipodi-0.dtd"
   xmlns:xlink="http://www.w3.org/1999/xlink"
   xmlns="http://www.w3.org/2000/svg"
   xmlns:svg="http://www.w3.org/2000/svg"
   xmlns:rdf="http://www.w3.org/1999/02/22-rdf-syntax-ns#"
   xmlns:cc="http://creativecommons.org/ns#"
   xmlns:dc="http://purl.org/dc/elements/1.1/">
  <sodipodi:namedview
     pagecolor="#ffffff"
     bordercolor="#666666"
     borderopacity="1"
     objecttolerance="10"
     gridtolerance="10"
     guidetolerance="10"
     inkscape:pageopacity="0"
     inkscape:pageshadow="2"
     inkscape:window-width="1920"
     inkscape:window-height="1007"
     id="namedview17"
     showgrid="false"
     inkscape:zoom="9.8125"
     inkscape:cx="-12.942675"
     inkscape:cy="6.5732484"
     inkscape:window-x="0"
     inkscape:window-y="0"
     inkscape:window-maximized="1"
     inkscape:current-layer="layer1"
     inkscape:document-rotation="0"
     inkscape:pagecheckerboard="0" />
  <defs
     id="defs5455">
    <linearGradient
       inkscape:collect="always"
       xlink:href="#linearGradient2230"
       id="linearGradient2232"
       x1="384.57144"
       y1="515.79797"
       x2="448.57144"
       y2="515.79797"
       gradientUnits="userSpaceOnUse"
       gradientTransform="matrix(0.46875,0,0,0.46153837,205.30357,293.73742)" />
    <linearGradient
       inkscape:collect="always"
       id="linearGradient2230">
      <stop
         style="stop-color:#4e99ca;stop-opacity:0.80000001"
         offset="0"
         id="stop2226" />
      <stop
         style="stop-color:#20ffff;stop-opacity:0.80000001"
         offset="0.50507295"
         id="stop2332" />
      <stop
         style="stop-color:#ffaeff;stop-opacity:0.69"
         offset="1"
         id="stop2228" />
    </linearGradient>
    <linearGradient
       inkscape:collect="always"
       xlink:href="#linearGradient836"
       id="linearGradient874-3"
       x1="7.7459998"
       y1="54.16"
       x2="25.666"
       y2="54.16"
       gradientUnits="userSpaceOnUse" />
    <linearGradient
       inkscape:collect="always"
       id="linearGradient836">
      <stop
         style="stop-color:#ffb380;stop-opacity:1"
         offset="0"
         id="stop832" />
      <stop
         style="stop-color:#20ffff;stop-opacity:1"
         offset="0.48615947"
         id="stop1390" />
      <stop
         style="stop-color:#ffaeff;stop-opacity:1"
         offset="1"
         id="stop834" />
    </linearGradient>
    <linearGradient
       inkscape:collect="always"
       xlink:href="#linearGradient836"
       id="linearGradient872-3"
       x1="23.604"
       y1="74.839996"
       x2="77.240997"
       y2="74.839996"
       gradientUnits="userSpaceOnUse" />
    <linearGradient
       inkscape:collect="always"
       xlink:href="#linearGradient836"
       id="linearGradient870-5"
       x1="75.172997"
       y1="53.737999"
       x2="92.252998"
       y2="53.737999"
       gradientUnits="userSpaceOnUse" />
    <linearGradient
       inkscape:collect="always"
       xlink:href="#linearGradient836"
       id="linearGradient1251"
       gradientUnits="userSpaceOnUse"
       gradientTransform="matrix(0.46875,0,0,0.46153837,212.7469,296.04512)"
       x1="424.37918"
       y1="526.32074"
       x2="426.59464"
       y2="526.32074" />
    <linearGradient
       inkscape:collect="always"
       xlink:href="#linearGradient836"
       id="linearGradient1253"
       gradientUnits="userSpaceOnUse"
       gradientTransform="matrix(0.46875,0,0,0.46153837,212.7469,296.04512)"
       x1="416.75659"
       y1="519.70386"
       x2="426.59555"
       y2="519.70386" />
    <linearGradient
       inkscape:collect="always"
       xlink:href="#linearGradient836"
       id="linearGradient1255"
       gradientUnits="userSpaceOnUse"
       gradientTransform="matrix(0.46875,0,0,0.46153837,212.7469,296.04512)"
       x1="415.01718"
       y1="510.59494"
       x2="418.61115"
       y2="510.59494" />
    <linearGradient
       inkscape:collect="always"
       xlink:href="#linearGradient836"
       id="linearGradient1257"
       gradientUnits="userSpaceOnUse"
       gradientTransform="matrix(0.46875,0,0,0.46153837,212.7469,296.04512)"
       x1="407.18054"
       y1="519.77393"
       x2="416.80774"
       y2="519.77393" />
  </defs>
  <metadata
     id="metadata5458">
    <rdf:RDF>
      <cc:Work
         rdf:about="">
        <dc:format>image/svg+xml</dc:format>
        <dc:type
           rdf:resource="http://purl.org/dc/dcmitype/StillImage" />
      </cc:Work>
    </rdf:RDF>
  </metadata>
  <g
     inkscape:label="Capa 1"
     inkscape:groupmode="layer"
     id="layer1"
     transform="translate(-384.57143,-515.798)">
    <rect
       style="fill:#3b445f;fill-opacity:1;stroke:none;stroke-width:0.586901"
       id="center-3"
       width="28.21875"
       height="19.384611"
       x="386.46207"
       y="523.49036"
       ry="1.8461516"
       rx="1.8812554" />
    <path
       d="m 412.83717,522.5717 h -13.7469 c -0.30383,0 -0.56951,-0.15398 -0.75942,-0.42377 l -1.02539,-1.5408 c -0.34172,-0.53931 -0.91147,-0.80913 -1.51886,-0.80913 h -7.02535 c -1.74698,0 -3.18982,1.46396 -3.18982,3.2359 v 17.99041 c 0,1.50242 1.21533,2.77369 2.73419,2.77369 h 11.81018 v 0 0 0 0 0 0 0 h 0.91126 v 0 0 0 0 0 0 0 0 0 h 11.81018 c 1.48102,0 2.73419,-1.23289 2.73419,-2.77369 V 525.3453 c 0,-1.5408 -1.21506,-2.77341 -2.73419,-2.77341 z m -11.81011,21.2263 v 0 h -0.91126 v 0 0 z m 13.6329,-2.7736 c 0,1.00153 -0.7976,1.84905 -1.82272,1.84905 h -24.53176 c -0.98728,0 -1.82272,-0.84752 -1.82272,-1.84905 l -2.7e-4,-6.20226 v -3.5057 c 0,-1.00155 0.83545,-1.84905 1.82272,-1.84905 h 13.7469 c 0.60766,0 1.17715,-0.30823 1.51886,-0.80914 l 0.98728,-1.54079 c 0.18993,-0.2311 0.45561,-0.42378 0.75943,-0.42378 h 7.06332 c 1.25317,0 2.27863,1.04021 2.27863,2.31155 v 5.04649 z m -2.27862,-15.21674 h -7.06332 c -0.60766,0 -1.17716,0.30822 -1.51886,0.80913 l -0.98728,1.5408 c -0.15178,0.26979 -0.45562,0.42377 -0.75943,0.42377 h -13.7468 c -0.68341,0 -1.32812,0.0783 -1.82297,0.78572 v -4.03062 c 0,-0.92308 0.96375,-1.84615 1.90125,-1.84615 h 7.50001 l 0.0201,0.0214 1.38614,-0.0214 1.838,0.006 h 13.7469 c 0.98728,0 1.82273,0.84751 1.82273,1.84905 v 1.4253 c -0.6074,-0.61617 -1.40474,-0.96281 -2.3162,-0.96281 z"
       id="path64"
       sodipodi:nodetypes="csccsssssccccccccccccccccccsssccccccccccssccsssccssscccsccscccccccssscc"
       style="fill:url(#linearGradient2232);fill-opacity:1;stroke-width:0.0683002" />
    <polygon
       points="20.369,59.59 18.427,61.419 21.309,64.302 25.666,55.216 14.468,44.018 7.746,50.739 11.232,54.226 13.218,52.276 13.375,52.437 11.391,54.384 14.769,57.761 17.876,54.654 18.034,54.813 14.927,57.92 18.268,61.26 20.214,59.427 "
       id="polygon2-6"
       transform="matrix(0.13112347,0,0,0.12910616,401.52451,529.946)"
       style="fill:url(#linearGradient874-3);fill-opacity:1" />
    <polygon
       points="77.241,65.751 72.862,56.688 50,79.55 27.985,57.534 23.604,66.597 25.465,68.457 27.492,66.545 27.644,66.707 25.624,68.616 29.067,72.06 32.162,68.964 32.32,69.122 29.225,72.218 32.549,75.542 34.542,73.587 34.698,73.747 32.708,75.7 36.073,79.066 39.136,76.006 39.294,76.164 36.232,79.226 39.722,82.715 41.692,80.783 41.848,80.942 39.88,82.873 43.266,86.258 46.362,83.161 46.521,83.32 43.424,86.416 46.829,89.82 48.756,87.93 48.914,88.089 46.987,89.979 50,92.992 53.463,89.529 51.654,87.753 51.811,87.594 53.621,89.371 57.028,85.964 54.012,82.949 54.17,82.79 57.187,85.806 60.57,82.422 58.675,80.563 58.832,80.402 60.729,82.263 64.219,78.771 61.175,75.728 61.333,75.568 64.378,78.613 67.763,75.229 65.838,73.34 65.995,73.181 67.922,75.07 71.233,71.758 68.161,68.687 68.32,68.527 71.392,71.6 74.832,68.16 72.872,66.309 73.026,66.146 74.991,68.002 "
       id="polygon4-2"
       transform="matrix(0.13112347,0,0,0.12910616,401.52451,529.946)"
       style="fill:url(#linearGradient872-3);fill-opacity:1" />
    <polygon
       points="85.682,57.312 89.065,53.926 87.142,52.038 87.298,51.878 89.224,53.768 92.253,50.739 85.532,44.018 75.173,54.376 79.534,63.458 82.023,60.968 80.149,59.203 80.304,59.039 82.184,60.81 85.522,57.47 82.478,54.425 82.637,54.267 "
       id="polygon6-9"
       transform="matrix(0.13112347,0,0,0.12910616,401.52451,529.946)"
       style="fill:url(#linearGradient870-5);fill-opacity:1" />
    <path
       d="m 412.11666,539.31407 c 0.22881,0 0.59648,0.45007 0.59648,0.45007 l -0.78189,-1.60363 -0.2566,0.25266 z"
       id="path8-1"
       style="fill:url(#linearGradient1251);fill-opacity:1;stroke-width:0.130111" />
    <path
       d="m 408.95226,532.05134 c -0.13729,0.3145 -0.45487,0.53527 -0.82385,0.53527 -0.009,0 -0.0178,-3.9e-4 -0.0269,-4.6e-4 l 1.1725,2.06957 c 0.007,-0.002 0.0144,-0.004 0.0217,-0.006 0.003,-4.6e-4 0.005,-9.2e-4 0.008,-10e-4 0.005,-9.3e-4 0.009,-0.002 0.0136,-0.002 0.003,-4.6e-4 0.007,-9.3e-4 0.0105,-9.3e-4 0.004,-3.8e-4 0.008,-9.2e-4 0.0113,-9.2e-4 0.004,-2.5e-4 0.007,-2.5e-4 0.0107,-3.9e-4 0.004,-1.3e-4 0.008,-2.5e-4 0.011,-2.5e-4 9.4e-4,0 0.002,0 0.003,0 0.0127,1.2e-4 0.0253,9.2e-4 0.038,0.002 4.7e-4,0 9.3e-4,0 10e-4,1.3e-4 0.0129,0.001 0.0253,0.004 0.038,0.007 9.4e-4,2.5e-4 0.002,4.6e-4 0.004,9.2e-4 0.0122,0.003 0.0245,0.007 0.0366,0.0107 0.002,4.6e-4 0.003,9.2e-4 0.005,0.002 0.012,0.004 0.0241,0.009 0.0359,0.0142 0.002,9.2e-4 0.003,10e-4 0.005,0.002 0.012,0.005 0.0239,0.0113 0.0357,0.0177 0.002,9.3e-4 0.003,0.002 0.005,0.003 0.012,0.007 0.0241,0.0134 0.036,0.0209 10e-4,9.2e-4 0.003,0.002 0.004,0.003 0.0122,0.008 0.0242,0.0159 0.0363,0.0244 9.4e-4,9.2e-4 0.002,0.001 0.003,0.002 0.0125,0.009 0.0249,0.0183 0.0374,0.0282 0,0 0,1.3e-4 1.4e-4,1.3e-4 0.013,0.0103 0.0257,0.0209 0.0385,0.032 0,1.2e-4 1.3e-4,1.2e-4 2.6e-4,2.6e-4 0.0125,0.0106 0.0244,0.0217 0.0365,0.033 9.4e-4,9.3e-4 0.002,10e-4 0.003,0.002 0.0115,0.011 0.0231,0.0223 0.0346,0.0337 9.4e-4,10e-4 0.002,0.002 0.003,0.004 0.0113,0.0114 0.0223,0.0229 0.0333,0.0347 9.4e-4,9.3e-4 0.002,0.003 0.004,0.004 0.0109,0.0116 0.0216,0.0236 0.0323,0.0358 10e-4,9.3e-4 0.002,0.003 0.004,0.004 0.0107,0.0123 0.0212,0.0246 0.0317,0.0372 9.4e-4,9.2e-4 0.002,0.002 0.003,0.003 0.0106,0.0129 0.0211,0.0256 0.0315,0.0386 4e-4,3.9e-4 9.4e-4,9.2e-4 10e-4,10e-4 0.0217,0.0271 0.0425,0.0545 0.0627,0.0815 1.3e-4,1.3e-4 1.3e-4,1.3e-4 2.6e-4,2.6e-4 0.01,0.0131 0.0193,0.0263 0.0287,0.0394 4.7e-4,9.2e-4 9.4e-4,0.002 0.002,0.002 0.009,0.0125 0.0177,0.0252 0.0263,0.0374 9.4e-4,9.2e-4 0.002,0.002 0.002,0.004 0.008,0.0121 0.0166,0.0243 0.0245,0.036 9.4e-4,9.2e-4 0.002,0.002 0.003,0.004 0.008,0.0118 0.0155,0.0235 0.0229,0.0349 9.3e-4,9.2e-4 10e-4,0.002 0.002,0.004 0.008,0.0115 0.0145,0.0227 0.0215,0.0337 4.6e-4,9.3e-4 9.3e-4,0.002 0.001,0.002 0.007,0.0112 0.014,0.0221 0.0204,0.0327 3.9e-4,2.6e-4 4.7e-4,4.6e-4 9.4e-4,9.2e-4 0.0136,0.022 0.0258,0.0425 0.0368,0.0609 1.3e-4,1.3e-4 1.3e-4,3.9e-4 2.6e-4,4.6e-4 0.005,0.009 0.0102,0.0174 0.015,0.0253 2.6e-4,9.2e-4 9.3e-4,10e-4 9.3e-4,0.002 0.005,0.008 0.008,0.0147 0.0123,0.0214 4.7e-4,9.2e-4 9.4e-4,0.002 10e-4,0.002 0.004,0.006 0.007,0.0124 0.0102,0.0178 2.6e-4,9.3e-4 9.3e-4,10e-4 9.3e-4,0.002 0.003,0.005 0.006,0.0102 0.008,0.0145 2.7e-4,4.6e-4 4.7e-4,9.2e-4 9.4e-4,0.002 0.002,0.004 0.004,0.008 0.006,0.0107 0,1.3e-4 1.3e-4,2.6e-4 2.6e-4,4.6e-4 0.001,0.003 0.003,0.005 0.004,0.007 1.3e-4,2.6e-4 1.3e-4,3.9e-4 2.6e-4,9.3e-4 4.7e-4,9.2e-4 9.4e-4,0.002 9.4e-4,0.002 l 1.85828,3.78746 c 0.22881,0 0.59648,0.45006 0.59648,0.45006 z"
       id="path10-2"
       style="fill:url(#linearGradient1253);fill-opacity:1;stroke-width:0.130111" />
    <path
       d="m 408.12841,530.87492 c -0.46444,0 -0.84221,0.37195 -0.84221,0.82925 0,0.14331 0.0372,0.27822 0.10254,0.39597 0.13139,0.23704 0.37698,0.40423 0.66349,0.42979 0.0114,9.3e-4 0.0227,0.002 0.0341,0.003 0.014,4.6e-4 0.0281,9.3e-4 0.0422,9.3e-4 0.35587,0 0.66047,-0.21845 0.78372,-0.52624 0.0378,-0.094 0.0586,-0.19611 0.0586,-0.30302 -1.3e-4,-0.4574 -0.37816,-0.82936 -0.84247,-0.82936 z m 0,1.39086 c -0.31496,0 -0.57039,-0.2515 -0.57039,-0.56161 0,-0.31012 0.2553,-0.56161 0.57039,-0.56161 0.31509,0 0.57052,0.25149 0.57052,0.56161 0,0.31011 -0.25543,0.56161 -0.57052,0.56161 z"
       id="path12-7"
       style="fill:url(#linearGradient1255);fill-opacity:1;stroke-width:0.130111" />
    <path
       d="m 407.33695,532.11731 -2.425,4.97911 -1.29917,2.66772 c 0,0 0.3678,-0.45007 0.59635,-0.45007 l 1.00571,-2.0493 0.85296,-1.73829 c 0,0 0.46182,-0.88373 0.89597,-0.88373 0.0295,0 0.059,0.004 0.0881,0.0128 l 1.07364,-1.91503 -0.0926,-0.16074 c -0.30172,-0.0317 -0.5595,-0.21006 -0.696,-0.46246 z"
       id="path14-0"
       style="fill:url(#linearGradient1257);fill-opacity:1;stroke-width:0.130111" />
  </g>
</svg>
