<?xml version="1.0" encoding="UTF-8" standalone="no"?>
<svg
   width="32"
   version="1.1"
   height="32"
   viewBox="0 0 32 32"
   id="svg15"
   sodipodi:docname="folder-chart.svg"
   inkscape:version="1.1.1 (3bf5ae0d25, 2021-09-20)"
   xmlns:inkscape="http://www.inkscape.org/namespaces/inkscape"
   xmlns:sodipodi="http://sodipodi.sourceforge.net/DTD/sodipodi-0.dtd"
   xmlns:xlink="http://www.w3.org/1999/xlink"
   xmlns="http://www.w3.org/2000/svg"
   xmlns:svg="http://www.w3.org/2000/svg"
   xmlns:rdf="http://www.w3.org/1999/02/22-rdf-syntax-ns#"
   xmlns:cc="http://creativecommons.org/ns#"
   xmlns:dc="http://purl.org/dc/elements/1.1/">
  <sodipodi:namedview
     pagecolor="#ffffff"
     bordercolor="#666666"
     borderopacity="1"
     objecttolerance="10"
     gridtolerance="10"
     guidetolerance="10"
     inkscape:pageopacity="0"
     inkscape:pageshadow="2"
     inkscape:window-width="1920"
     inkscape:window-height="1007"
     id="namedview17"
     showgrid="false"
     inkscape:zoom="9.8125"
     inkscape:cx="-12.025478"
     inkscape:cy="6.5732484"
     inkscape:window-x="0"
     inkscape:window-y="0"
     inkscape:window-maximized="1"
     inkscape:current-layer="layer1"
     inkscape:document-rotation="0"
     inkscape:pagecheckerboard="0" />
  <defs
     id="defs5455">
    <linearGradient
       inkscape:collect="always"
       xlink:href="#linearGradient2230"
       id="linearGradient2232"
       x1="384.57144"
       y1="515.79797"
       x2="448.57144"
       y2="515.79797"
       gradientUnits="userSpaceOnUse"
       gradientTransform="matrix(0.46874986,0,0,0.46153822,205.30356,293.73742)" />
    <linearGradient
       inkscape:collect="always"
       id="linearGradient2230">
      <stop
         style="stop-color:#4e99ca;stop-opacity:0.80000001"
         offset="0"
         id="stop2226" />
      <stop
         style="stop-color:#20ffff;stop-opacity:0.80000001"
         offset="0.50507295"
         id="stop2332" />
      <stop
         style="stop-color:#ffaeff;stop-opacity:0.69"
         offset="1"
         id="stop2228" />
    </linearGradient>
    <linearGradient
       inkscape:collect="always"
       xlink:href="#linearGradient2230"
       id="linearGradient1018"
       gradientUnits="userSpaceOnUse"
       gradientTransform="matrix(0.46874986,0,0,0.46153822,212.19421,296.04511)"
       x1="403.87143"
       y1="520.79797"
       x2="429.47144"
       y2="520.79797" />
  </defs>
  <metadata
     id="metadata5458">
    <rdf:RDF>
      <cc:Work
         rdf:about="">
        <dc:format>image/svg+xml</dc:format>
        <dc:type
           rdf:resource="http://purl.org/dc/dcmitype/StillImage" />
      </cc:Work>
    </rdf:RDF>
  </metadata>
  <g
     inkscape:label="Capa 1"
     inkscape:groupmode="layer"
     id="layer1"
     transform="translate(-384.57143,-515.798)">
    <rect
       style="fill:#3b445f;fill-opacity:1;stroke:none;stroke-width:0.586904"
       id="center-3"
       width="28.218748"
       height="19.384605"
       x="386.46204"
       y="523.49042"
       ry="1.8461514"
       rx="1.8812553" />
    <path
       d="m 412.83719,522.5717 h -13.74692 c -0.30383,0 -0.56952,-0.15398 -0.75942,-0.42375 l -1.02541,-1.54081 c -0.34172,-0.53932 -0.91143,-0.80914 -1.51885,-0.80914 h -7.02535 c -1.74697,0 -3.18981,1.46397 -3.18981,3.23588 v 17.99043 c 0,1.50244 1.21533,2.77369 2.73418,2.77369 h 11.81019 v 0 0 0 0 0 0 0 h 0.91126 v 0 0 0 0 0 0 0 0 0 h 11.81019 c 1.481,0 2.73418,-1.23287 2.73418,-2.77369 V 525.3453 c 0,-1.5408 -1.21506,-2.77341 -2.73418,-2.77341 z m -11.81013,21.2263 v 0 h -0.91126 v 0 0 z m 13.63289,-2.7736 c 0,1.0015 -0.79761,1.84904 -1.8227,1.84904 h -24.53178 c -0.98727,0 -1.8227,-0.84754 -1.8227,-1.84904 l -2.7e-4,-6.20228 v -3.50569 c 0,-1.00156 0.83543,-1.84907 1.8227,-1.84907 h 13.74692 c 0.60764,0 1.17714,-0.30819 1.51885,-0.8091 l 0.98728,-1.5408 c 0.18991,-0.23107 0.45561,-0.42379 0.75943,-0.42379 h 7.06333 c 1.25314,0 2.2786,1.04022 2.2786,2.31157 v 5.04646 z m -2.2786,-15.21672 h -7.06334 c -0.60764,0 -1.17714,0.30822 -1.51885,0.8091 l -0.98728,1.54081 c -0.1518,0.26976 -0.45562,0.42378 -0.75943,0.42378 h -13.74682 c -0.68338,0 -1.32808,0.0786 -1.82294,0.78574 v -4.03066 c 0,-0.92309 0.96374,-1.84613 1.90122,-1.84613 h 7.50005 l 0.0203,0.0215 1.38615,-0.0215 1.83801,0.006 h 13.74689 c 0.98727,0 1.82274,0.84751 1.82274,1.84905 v 1.42533 c -0.60741,-0.61621 -1.40472,-0.96282 -2.31619,-0.96282 z"
       id="path64"
       sodipodi:nodetypes="csccsssssccccccccccccccccccsssccccccccccssccsssccssscccsccscccccccssscc"
       style="fill:url(#linearGradient2232);fill-opacity:1;stroke-width:0.0683002" />
    <path
       d="m 413.13396,539.73645 c -0.20713,0 -0.37501,-0.16533 -0.37501,-0.36922 v -5.90768 c 0,-0.20391 -0.1679,-0.36923 -0.37504,-0.36923 h -0.74995 c -0.20713,0 -0.37501,0.16532 -0.37501,0.36923 v 7.56919 c 0,0.50986 -0.41967,0.92308 -0.93751,0.92308 h -0.37501 c -0.51784,0 -0.93747,-0.41322 -0.93747,-0.92308 v -3.87691 c 0,-0.2039 -0.16791,-0.36922 -0.375,-0.36922 h -0.75 c -0.20713,0 -0.375,0.16532 -0.375,0.36922 v 3.87691 c 0,0.50986 -0.41968,0.92308 -0.93752,0.92308 h -0.37501 c -0.51783,0 -0.93748,-0.41322 -0.93748,-0.92308 v -2.39997 c 0,-0.20391 -0.16789,-0.36924 -0.37499,-0.36924 h -0.75 c -0.20714,0 -0.375,0.16533 -0.375,0.36924 v 2.58462 c 0,0.4078 -0.33584,0.73843 -0.75,0.73843 -0.82841,0 -1.50001,-0.66126 -1.50001,-1.47689 v -6.64616 -2.58462 c 0,-0.20391 0.16788,-0.36922 0.37496,-0.36922 0.20714,0 0.37505,0.16531 0.37505,0.36922 v 1.3069 1.27772 6.64616 c 0,0.4078 0.28893,0.73846 0.56248,0.73846 0.10366,0 0.18752,-0.0829 0.18752,-0.18465 v -2.58461 c 0,-0.50984 0.41963,-0.92308 0.93747,-0.92308 h 1.12501 c 0.51784,0 0.93751,0.41324 0.93751,0.92308 v 2.40002 c 0,0.20391 0.16788,0.36924 0.37501,0.36924 0.20709,0 0.37499,-0.16533 0.37499,-0.36924 v -3.8769 c 0,-0.50986 0.41964,-0.92309 0.93748,-0.92309 h 1.125 c 0.51784,0 0.93752,0.41323 0.93752,0.92309 v 3.8769 c 0,0.20391 0.16787,0.36924 0.37501,0.36924 0.2071,0 0.37499,-0.16533 0.37499,-0.36924 v -7.5692 c 0,-0.50988 0.41965,-0.92312 0.93748,-0.92312 h 1.12501 c 0.51783,0 0.93752,0.41324 0.93752,0.92312 v 6.09228 c 0,0.20389 -0.16791,0.36922 -0.375,0.36922 z m 0,0.73848 c 0.20709,0 0.375,0.16532 0.375,0.36922 0,0.20391 -0.16791,0.36924 -0.375,0.36924 -0.20713,0 -0.37501,-0.16533 -0.37501,-0.36924 0,-0.2039 0.16788,-0.36922 0.37501,-0.36922 z"
       id="path2-7"
       style="fill:url(#linearGradient1018);fill-opacity:1;stroke-width:0.0232565" />
  </g>
</svg>
