<?xml version="1.0" encoding="UTF-8" standalone="no"?>
<svg
   width="32"
   version="1.1"
   height="32"
   viewBox="0 0 32 32"
   id="svg15"
   sodipodi:docname="folder-Peace.svg"
   inkscape:version="1.1.2 (0a00cf5339, 2022-02-04)"
   xmlns:inkscape="http://www.inkscape.org/namespaces/inkscape"
   xmlns:sodipodi="http://sodipodi.sourceforge.net/DTD/sodipodi-0.dtd"
   xmlns:xlink="http://www.w3.org/1999/xlink"
   xmlns="http://www.w3.org/2000/svg"
   xmlns:svg="http://www.w3.org/2000/svg"
   xmlns:rdf="http://www.w3.org/1999/02/22-rdf-syntax-ns#"
   xmlns:cc="http://creativecommons.org/ns#"
   xmlns:dc="http://purl.org/dc/elements/1.1/">
  <sodipodi:namedview
     pagecolor="#ffffff"
     bordercolor="#666666"
     borderopacity="1"
     objecttolerance="10"
     gridtolerance="10"
     guidetolerance="10"
     inkscape:pageopacity="0"
     inkscape:pageshadow="2"
     inkscape:window-width="1920"
     inkscape:window-height="1013"
     id="namedview17"
     showgrid="false"
     inkscape:zoom="6.9384853"
     inkscape:cx="-31.923394"
     inkscape:cy="-0.28824735"
     inkscape:window-x="0"
     inkscape:window-y="0"
     inkscape:window-maximized="1"
     inkscape:current-layer="layer1"
     inkscape:document-rotation="0"
     inkscape:pagecheckerboard="0" />
  <defs
     id="defs5455">
    <linearGradient
       inkscape:collect="always"
       id="linearGradient2230">
      <stop
         style="stop-color:#3683b5;stop-opacity:1"
         offset="0"
         id="stop2226" />
      <stop
         style="stop-color:#00e1e1;stop-opacity:1"
         offset="0.50507295"
         id="stop2332" />
      <stop
         style="stop-color:#ff6eff;stop-opacity:1"
         offset="1"
         id="stop2228" />
    </linearGradient>
    <linearGradient
       inkscape:collect="always"
       xlink:href="#linearGradient2230"
       id="linearGradient2232-3"
       x1="384.57144"
       y1="515.79797"
       x2="448.57144"
       y2="515.79797"
       gradientUnits="userSpaceOnUse"
       gradientTransform="matrix(0.46874985,0,0,0.46153837,205.30358,293.73743)" />
    <linearGradient
       inkscape:collect="always"
       xlink:href="#linearGradient836"
       id="linearGradient1111"
       x1="404.57144"
       y1="520.79797"
       x2="428.57144"
       y2="520.79797"
       gradientUnits="userSpaceOnUse"
       gradientTransform="matrix(0.46874985,0,0,0.46153837,212.80356,296.04512)" />
    <linearGradient
       inkscape:collect="always"
       id="linearGradient836">
      <stop
         style="stop-color:#ffb380;stop-opacity:1"
         offset="0"
         id="stop832" />
      <stop
         style="stop-color:#20ffff;stop-opacity:1"
         offset="0.48615947"
         id="stop1390" />
      <stop
         style="stop-color:#ffaeff;stop-opacity:1"
         offset="1"
         id="stop834" />
    </linearGradient>
  </defs>
  <metadata
     id="metadata5458">
    <rdf:RDF>
      <cc:Work
         rdf:about="">
        <dc:format>image/svg+xml</dc:format>
        <dc:type
           rdf:resource="http://purl.org/dc/dcmitype/StillImage" />
      </cc:Work>
    </rdf:RDF>
  </metadata>
  <g
     inkscape:label="Capa 1"
     inkscape:groupmode="layer"
     id="layer1"
     transform="translate(-384.57143,-515.798)">
    <rect
       style="fill:#3b445f;fill-opacity:1;stroke:none;stroke-width:0.596182"
       id="center-3-3"
       width="28.641399"
       height="19.707689"
       x="386.22775"
       y="523.35193"
       ry="1.8769209"
       rx="1.9094328" />
    <path
       d="m 412.83719,522.5717 h -13.74692 c -0.30383,0 -0.56952,-0.15398 -0.75942,-0.42377 l -1.02541,-1.5408 c -0.34172,-0.53931 -0.91143,-0.80913 -1.51885,-0.80913 h -7.02535 c -1.74697,0 -3.18981,1.46396 -3.18981,3.2359 v 17.99041 c 0,1.50242 1.21533,2.77369 2.73418,2.77369 h 11.81019 v 0 0 0 0 0 0 0 h 0.91126 v 0 0 0 0 0 0 0 0 0 h 11.81019 c 1.481,0 2.73418,-1.23289 2.73418,-2.77369 V 525.3453 c 0,-1.5408 -1.21506,-2.77341 -2.73418,-2.77341 z m -11.81013,21.2263 v 0 h -0.91126 v 0 0 z m 13.63289,-2.7736 c 0,1.00153 -0.79761,1.84905 -1.8227,1.84905 h -24.53178 c -0.98727,0 -1.8227,-0.84752 -1.8227,-1.84905 l -2.7e-4,-6.20226 v -3.5057 c 0,-1.00155 0.83543,-1.84905 1.8227,-1.84905 h 13.74692 c 0.60764,0 1.17714,-0.30823 1.51885,-0.80914 l 0.98728,-1.54079 c 0.18991,-0.2311 0.45561,-0.42378 0.75943,-0.42378 h 7.06333 c 1.25314,0 2.2786,1.04021 2.2786,2.31155 v 5.04649 z m -2.2786,-15.21674 h -7.06334 c -0.60764,0 -1.17714,0.30822 -1.51885,0.80913 l -0.98728,1.5408 c -0.1518,0.26979 -0.45562,0.42377 -0.75943,0.42377 h -13.74682 c -0.68338,0 -1.32808,0.0783 -1.82294,0.78572 v -4.03062 c 0,-0.92308 0.96374,-1.84615 1.90122,-1.84615 h 7.50005 l 0.0203,0.0214 1.38615,-0.0214 1.83801,0.006 h 13.74689 c 0.98727,0 1.82274,0.84751 1.82274,1.84905 v 1.4253 c -0.60741,-0.61617 -1.40472,-0.96281 -2.31619,-0.96281 z"
       id="path64-5"
       sodipodi:nodetypes="csccsssssccccccccccccccccccsssccccccccccssccsssccssscccsccscccccccssscc"
       style="fill:url(#linearGradient2232-3);fill-opacity:1;stroke-width:0.0683002" />
    <path
       d="m 408.07142,530.87492 c -3.09373,0 -5.62499,2.49231 -5.62499,5.53846 0,3.04615 2.53126,5.53846 5.62499,5.53846 3.09375,0 5.62501,-2.49231 5.62501,-5.53846 0,-3.04615 -2.53126,-5.53846 -5.62501,-5.53846 z m -0.40179,0.83077 v 0.75165 c 0,0.23736 0.16075,0.3956 0.40179,0.3956 0.24105,0 0.4018,-0.15824 0.4018,-0.3956 v -0.75165 c 2.4509,0.1978 4.41963,2.25494 4.41963,4.70747 0,0.98901 -0.32142,1.89889 -0.80357,2.65054 l -3.61606,-2.84835 v -2.57142 c 0,-0.23737 -0.16075,-0.39561 -0.4018,-0.39561 -0.24104,0 -0.40179,0.15824 -0.40179,0.39561 v 2.57142 l -3.61605,2.84835 c -0.52232,-0.75165 -0.80357,-1.66153 -0.80357,-2.65054 0,-2.49231 1.96873,-4.50989 4.41962,-4.70747 z m -3.09373,7.95187 3.09373,-2.45275 v 3.91649 c -1.20535,-0.0791 -2.29015,-0.63296 -3.09373,-1.46374 z m 3.89732,1.46374 v -3.91649 l 3.09373,2.45275 c -0.80357,0.83077 -1.88837,1.38461 -3.09373,1.46374 z"
       id="path47"
       style="fill:url(#linearGradient1111);fill-opacity:1;stroke-width:0.0455637" />
  </g>
</svg>
