<?xml version="1.0" encoding="UTF-8" standalone="no"?>
<svg
   width="32"
   version="1.1"
   height="32"
   viewBox="0 0 32 32"
   id="svg17"
   sodipodi:docname="folder-image.svg"
   inkscape:version="1.1.1 (3bf5ae0d25, 2021-09-20)"
   xmlns:inkscape="http://www.inkscape.org/namespaces/inkscape"
   xmlns:sodipodi="http://sodipodi.sourceforge.net/DTD/sodipodi-0.dtd"
   xmlns:xlink="http://www.w3.org/1999/xlink"
   xmlns="http://www.w3.org/2000/svg"
   xmlns:svg="http://www.w3.org/2000/svg"
   xmlns:rdf="http://www.w3.org/1999/02/22-rdf-syntax-ns#"
   xmlns:cc="http://creativecommons.org/ns#"
   xmlns:dc="http://purl.org/dc/elements/1.1/">
  <sodipodi:namedview
     pagecolor="#ffffff"
     bordercolor="#666666"
     borderopacity="1"
     objecttolerance="10"
     gridtolerance="10"
     guidetolerance="10"
     inkscape:pageopacity="0"
     inkscape:pageshadow="2"
     inkscape:window-width="1920"
     inkscape:window-height="1007"
     id="namedview19"
     showgrid="false"
     inkscape:zoom="9.8125"
     inkscape:cx="-7.6433121"
     inkscape:cy="7.388535"
     inkscape:window-x="0"
     inkscape:window-y="0"
     inkscape:window-maximized="1"
     inkscape:current-layer="layer1"
     inkscape:document-rotation="0"
     inkscape:pagecheckerboard="0" />
  <defs
     id="defs5455">
    <linearGradient
       inkscape:collect="always"
       xlink:href="#linearGradient955"
       id="linearGradient957"
       gradientUnits="userSpaceOnUse"
       x1="384.57144"
       y1="515.79797"
       x2="448.57144"
       y2="515.79797"
       gradientTransform="matrix(0.46875,0,0,0.46153837,205.30357,293.73743)" />
    <linearGradient
       inkscape:collect="always"
       id="linearGradient955">
      <stop
         style="stop-color:#fae3b0;stop-opacity:0.80000001"
         offset="0"
         id="stop949" />
      <stop
         style="stop-color:#20ffff;stop-opacity:0.80000001"
         offset="0.50507295"
         id="stop951" />
      <stop
         style="stop-color:#ffaeff;stop-opacity:0.69"
         offset="1"
         id="stop953" />
    </linearGradient>
    <linearGradient
       inkscape:collect="always"
       xlink:href="#linearGradient955"
       id="linearGradient1140"
       gradientUnits="userSpaceOnUse"
       x1="401.86566"
       y1="520.7981"
       x2="431.46234"
       y2="520.7981"
       gradientTransform="matrix(0.17817682,0,0,0.17273656,371.54365,461.28653)" />
  </defs>
  <metadata
     id="metadata5458">
    <rdf:RDF>
      <cc:Work
         rdf:about="">
        <dc:format>image/svg+xml</dc:format>
        <dc:type
           rdf:resource="http://purl.org/dc/dcmitype/StillImage" />
      </cc:Work>
    </rdf:RDF>
  </metadata>
  <g
     inkscape:label="Capa 1"
     inkscape:groupmode="layer"
     id="layer1"
     transform="translate(-384.57143,-515.798)">
    <rect
       style="fill:#3b445f;fill-opacity:1;stroke:none;stroke-width:0.586901"
       id="center-3"
       width="28.21875"
       height="19.384611"
       x="386.46207"
       y="523.4903"
       ry="1.8461516"
       rx="1.8812554" />
    <path
       d="m 412.83717,522.5717 h -13.7469 c -0.30383,0 -0.56951,-0.15398 -0.75942,-0.42377 l -1.02539,-1.5408 c -0.34172,-0.53931 -0.91147,-0.80913 -1.51886,-0.80913 h -7.02535 c -1.74698,0 -3.18982,1.46396 -3.18982,3.2359 v 17.99041 c 0,1.50242 1.21533,2.77369 2.73419,2.77369 h 11.81018 v 0 0 0 0 0 0 0 h 0.91126 v 0 0 0 0 0 0 0 0 0 h 11.81018 c 1.48102,0 2.73419,-1.23289 2.73419,-2.77369 V 525.3453 c 0,-1.5408 -1.21506,-2.77341 -2.73419,-2.77341 z m -11.81011,21.2263 v 0 h -0.91126 v 0 0 z m 13.6329,-2.7736 c 0,1.00153 -0.7976,1.84905 -1.82272,1.84905 h -24.53176 c -0.98728,0 -1.82272,-0.84752 -1.82272,-1.84905 l -2.7e-4,-6.20226 v -3.5057 c 0,-1.00155 0.83545,-1.84905 1.82272,-1.84905 h 13.7469 c 0.60766,0 1.17715,-0.30823 1.51886,-0.80914 l 0.98728,-1.54079 c 0.18993,-0.2311 0.45561,-0.42378 0.75943,-0.42378 h 7.06332 c 1.25317,0 2.27863,1.04021 2.27863,2.31155 v 5.04649 z m -2.27862,-15.21674 h -7.06332 c -0.60766,0 -1.17716,0.30822 -1.51886,0.80913 l -0.98728,1.5408 c -0.15178,0.26979 -0.45562,0.42377 -0.75943,0.42377 h -13.7468 c -0.68341,0 -1.32812,0.0783 -1.82297,0.78572 v -4.03062 c 0,-0.92308 0.96375,-1.84615 1.90125,-1.84615 h 7.50001 l 0.0201,0.0214 1.38614,-0.0214 1.838,0.006 h 13.7469 c 0.98728,0 1.82273,0.84751 1.82273,1.84905 v 1.4253 c -0.6074,-0.61617 -1.40474,-0.96281 -2.3162,-0.96281 z"
       id="path64"
       sodipodi:nodetypes="csccsssssccccccccccccccccccsssccccccccccssccsssccssscccsccscccccccssscc"
       style="fill:url(#linearGradient957);fill-opacity:1;stroke-width:0.0683002" />
    <path
       d="m 411.93092,535.63408 c -0.58148,0 -1.05279,-0.46406 -1.05279,-1.03625 0,-0.1908 0.15727,-0.34566 0.35104,-0.34566 0.19394,0 0.3507,0.15486 0.3507,0.34564 0,0.19044 0.15728,0.3453 0.35105,0.3453 0.19394,0 0.35069,0.15486 0.35069,0.3453 0,0.19081 -0.15675,0.34567 -0.35069,0.34567 z m -0.70175,4.49111 c 0,0.19096 -0.15728,0.34582 -0.35104,0.34582 -0.19342,0 -0.3507,-0.15486 -0.3507,-0.34582 0,-0.19096 0.15728,-0.34513 0.3507,-0.34513 0.19376,0 0.35104,0.15417 0.35104,0.34513 z m -1.19789,-2.9066 -0.21827,0.21441 c -0.13688,0.13487 -0.35874,0.13487 -0.49615,0 -0.13689,-0.13478 -0.13689,-0.35374 0,-0.48852 l 0.21826,-0.21458 c 0.54824,-0.53963 1.43656,-0.53963 1.98462,0 l 0.74424,0.73305 c 0.13741,0.13461 0.13741,0.35357 0,0.48852 -0.13688,0.13461 -0.35909,0.13461 -0.49615,0 l -0.74425,-0.73286 c -0.27376,-0.27009 -0.71854,-0.27009 -0.9923,-2e-5 z m 2.25033,4.63399 h -8.42073 c -0.77508,0 -1.40349,-0.61842 -1.40349,-1.38157 v -1.03677 c 0,-0.19096 0.15728,-0.34512 0.35105,-0.34512 0.19342,0 0.35069,0.15418 0.35069,0.34512 v 1.03677 c 0,0.38125 0.31404,0.69062 0.70175,0.69062 h 8.42073 c 0.38771,0 0.70175,-0.30937 0.70175,-0.69062 v -6.21884 c 0,-0.38175 -0.31404,-0.69095 -0.70175,-0.69095 h -8.42073 c -0.38771,0 -0.70175,0.3092 -0.70175,0.69095 v 3.33593 c 0,0.0955 0.0786,0.17273 0.17526,0.17273 0.0452,0 0.0845,-0.0169 0.11617,-0.0445 l 1.69867,-1.67248 c 0.54807,-0.53965 1.43656,-0.53965 1.98462,0 l 2.95431,2.90897 c 0.0706,0.0631 0.11581,0.15349 0.11581,0.25504 0,0.19027 -0.15693,0.34513 -0.35069,0.34513 -0.10673,0 -0.20114,-0.0476 -0.26522,-0.12146 l -0.003,0.003 -2.94712,-2.90186 c -0.27377,-0.26956 -0.71854,-0.26956 -0.99231,0 l -1.70091,1.67483 c -0.15814,0.1508 -0.37281,0.24459 -0.61008,0.24459 -0.48435,10e-6 -0.87702,-0.38662 -0.87702,-0.86368 v -3.33593 c 0,-0.76315 0.62841,-1.38189 1.40349,-1.38189 h 8.42073 c 0.77543,0 1.40366,0.61876 1.40366,1.38189 v 6.21882 c 0,0.76317 -0.62823,1.38159 -1.40366,1.38159 z"
       id="path2-36-7"
       style="fill:url(#linearGradient1140);fill-opacity:1;stroke:url(#linearGradient1140);stroke-width:0.0217601" />
  </g>
</svg>
