<?xml version="1.0" encoding="UTF-8" standalone="no"?>
<svg
   width="32"
   version="1.1"
   height="32"
   viewBox="0 0 32 32"
   id="svg15"
   sodipodi:docname="folder-KDE.svg"
   inkscape:version="1.1.1 (3bf5ae0d25, 2021-09-20)"
   xmlns:inkscape="http://www.inkscape.org/namespaces/inkscape"
   xmlns:sodipodi="http://sodipodi.sourceforge.net/DTD/sodipodi-0.dtd"
   xmlns:xlink="http://www.w3.org/1999/xlink"
   xmlns="http://www.w3.org/2000/svg"
   xmlns:svg="http://www.w3.org/2000/svg"
   xmlns:rdf="http://www.w3.org/1999/02/22-rdf-syntax-ns#"
   xmlns:cc="http://creativecommons.org/ns#"
   xmlns:dc="http://purl.org/dc/elements/1.1/">
  <sodipodi:namedview
     pagecolor="#ffffff"
     bordercolor="#666666"
     borderopacity="1"
     objecttolerance="10"
     gridtolerance="10"
     guidetolerance="10"
     inkscape:pageopacity="0"
     inkscape:pageshadow="2"
     inkscape:window-width="1920"
     inkscape:window-height="1007"
     id="namedview17"
     showgrid="false"
     inkscape:zoom="9.8125"
     inkscape:cx="-13.044586"
     inkscape:cy="6.4713376"
     inkscape:window-x="0"
     inkscape:window-y="0"
     inkscape:window-maximized="1"
     inkscape:current-layer="layer1"
     inkscape:document-rotation="0"
     inkscape:pagecheckerboard="0" />
  <defs
     id="defs5455">
    <linearGradient
       inkscape:collect="always"
       xlink:href="#linearGradient956"
       id="linearGradient2232"
       x1="384.57144"
       y1="515.79797"
       x2="448.57144"
       y2="515.79797"
       gradientUnits="userSpaceOnUse"
       gradientTransform="matrix(0.46875,0,0,0.46153837,205.30357,293.73743)" />
    <linearGradient
       inkscape:collect="always"
       id="linearGradient956">
      <stop
         style="stop-color:#80b3ff;stop-opacity:1"
         offset="0"
         id="stop950" />
      <stop
         style="stop-color:#20ffff;stop-opacity:0.80000001"
         offset="0.50507295"
         id="stop952" />
      <stop
         style="stop-color:#80e5ff;stop-opacity:1"
         offset="1"
         id="stop954" />
    </linearGradient>
    <linearGradient
       inkscape:collect="always"
       xlink:href="#linearGradient956"
       id="linearGradient1077"
       gradientUnits="userSpaceOnUse"
       gradientTransform="matrix(0.44644279,0,0,0.43957435,221.17373,308.47126)"
       x1="406.56262"
       y1="519.68927"
       x2="429.18661"
       y2="519.68927" />
    <linearGradient
       inkscape:collect="always"
       xlink:href="#linearGradient956"
       id="linearGradient1079"
       gradientUnits="userSpaceOnUse"
       gradientTransform="translate(15.097742)"
       x1="76.020905"
       y1="312.14481"
       x2="418.28314"
       y2="312.14481" />
    <linearGradient
       inkscape:collect="always"
       xlink:href="#linearGradient1020"
       id="linearGradient1081"
       gradientUnits="userSpaceOnUse"
       gradientTransform="matrix(0.03823386,0,0,0.03764564,412.64147,536.77793)"
       x1="12.000006"
       y1="20.578442"
       x2="29.156878"
       y2="20.578442" />
    <linearGradient
       inkscape:collect="always"
       id="linearGradient1020">
      <stop
         style="stop-color:#00ffcc;stop-opacity:0.70950371"
         offset="0"
         id="stop1014" />
      <stop
         style="stop-color:#20ffff;stop-opacity:0.80000001"
         offset="0.50507295"
         id="stop1016" />
      <stop
         style="stop-color:#ffaeff;stop-opacity:0.69"
         offset="1"
         id="stop1018" />
    </linearGradient>
  </defs>
  <metadata
     id="metadata5458">
    <rdf:RDF>
      <cc:Work
         rdf:about="">
        <dc:format>image/svg+xml</dc:format>
        <dc:type
           rdf:resource="http://purl.org/dc/dcmitype/StillImage" />
      </cc:Work>
    </rdf:RDF>
  </metadata>
  <g
     inkscape:label="Capa 1"
     inkscape:groupmode="layer"
     id="layer1"
     transform="translate(-384.57143,-515.798)">
    <rect
       style="fill:#3b445f;fill-opacity:1;stroke:none;stroke-width:0.586413"
       id="center-3"
       width="28.171875"
       height="19.384611"
       x="386.50894"
       y="523.4903"
       ry="1.8461516"
       rx="1.8781303" />
    <path
       d="m 412.83717,522.5717 h -13.7469 c -0.30383,0 -0.56951,-0.15398 -0.75942,-0.42377 l -1.02539,-1.5408 c -0.34172,-0.53931 -0.91147,-0.80913 -1.51886,-0.80913 h -7.02535 c -1.74698,0 -3.18982,1.46396 -3.18982,3.2359 v 17.99041 c 0,1.50242 1.21533,2.77369 2.73419,2.77369 h 11.81018 v 0 0 0 0 0 0 0 h 0.91126 v 0 0 0 0 0 0 0 0 0 h 11.81018 c 1.48102,0 2.73419,-1.23289 2.73419,-2.77369 V 525.3453 c 0,-1.5408 -1.21506,-2.77341 -2.73419,-2.77341 z m -11.81011,21.2263 v 0 h -0.91126 v 0 0 z m 13.6329,-2.7736 c 0,1.00153 -0.7976,1.84905 -1.82272,1.84905 h -24.53176 c -0.98728,0 -1.82272,-0.84752 -1.82272,-1.84905 l -2.7e-4,-6.20226 v -3.5057 c 0,-1.00155 0.83545,-1.84905 1.82272,-1.84905 h 13.7469 c 0.60766,0 1.17715,-0.30823 1.51886,-0.80914 l 0.98728,-1.54079 c 0.18993,-0.2311 0.45561,-0.42378 0.75943,-0.42378 h 7.06332 c 1.25317,0 2.27863,1.04021 2.27863,2.31155 v 5.04649 z m -2.27862,-15.21674 h -7.06332 c -0.60766,0 -1.17716,0.30822 -1.51886,0.80913 l -0.98728,1.5408 c -0.15178,0.26979 -0.45562,0.42377 -0.75943,0.42377 h -13.7468 c -0.68341,0 -1.32812,0.0783 -1.82297,0.78572 v -4.03062 c 0,-0.92308 0.96375,-1.84615 1.90125,-1.84615 h 7.50001 l 0.0201,0.0214 1.38614,-0.0214 1.838,0.006 h 13.7469 c 0.98728,0 1.82273,0.84751 1.82273,1.84905 v 1.4253 c -0.6074,-0.61617 -1.40474,-0.96281 -2.3162,-0.96281 z"
       id="path64"
       sodipodi:nodetypes="csccsssssccccccccccccccccccsssccccccccccssccsssccssscccsccscccccccssscc"
       style="fill:url(#linearGradient2232);fill-opacity:1;stroke-width:0.0683002" />
    <path
       d="m 412.46096,538.38536 v 0 0 0 0 0 0 0 c 0.005,0.005 0,0 0,0 0.67715,0.58757 0.43488,1.35259 -0.0918,1.86406 -0.51875,0.51093 -1.33631,0.53686 -1.89352,0.0911 -0.008,0.005 -0.0173,0.006 -0.0258,0.01 -0.004,-0.005 -0.005,-0.01 -0.009,-0.0142 -0.12834,-0.12587 -0.29273,-0.24388 -0.47372,-0.16954 -0.18131,0.0737 -0.21734,0.25718 -0.21734,0.45023 0,0.0173 0.005,0.0331 0.0106,0.0488 -0.0892,0.68764 -0.68139,1.22041 -1.40422,1.22041 -0.73578,0 -1.34044,-0.55155 -1.41198,-1.25758 -0.008,-0.003 -0.0147,-0.007 -0.0225,-0.01 3.5e-4,-0.004 0.002,-0.006 0.002,-0.01 0,-0.17801 -0.032,-0.37586 -0.21289,-0.44952 -0.18099,-0.074 -0.33915,0.0306 -0.47752,0.16711 -0.008,0.008 -0.0125,0.0182 -0.0181,0.028 -0.55653,0.42906 -1.35987,0.39939 -1.87186,-0.10505 -0.51996,-0.51197 -0.54545,-1.31796 -0.0902,-1.86679 -0.005,-0.01 -0.007,-0.0197 -0.0116,-0.0298 0.12785,-0.12585 0.24717,-0.28789 0.17218,-0.46592 -0.0752,-0.17804 -0.26187,-0.2142 -0.45778,-0.2142 -0.0129,0 -0.0241,0.005 -0.0363,0.008 -0.69786,-0.0872 -1.23877,-0.67153 -1.23877,-1.38243 0,-0.72719 0.564,-1.32359 1.28483,-1.39027 0.002,-0.006 0.006,-0.012 0.009,-0.0179 0.17821,-0.002 0.37307,-0.0345 0.44653,-0.20944 0.0748,-0.17771 -0.0303,-0.33255 -0.16869,-0.46864 -0.45401,-0.54813 -0.42851,-1.35344 0.0911,-1.86507 0.52149,-0.51386 1.34513,-0.53754 1.90234,-0.0837 0.006,-0.003 0.0119,-0.004 0.0178,-0.006 0.12679,0.12296 0.17134,0.16112 0.17134,0.16112 v 0 0 0 0 0 0 0 0 0 0 0 0 0 0 0.48464 0 0 0 0.31126 c 0,0 -0.20797,0.0386 -0.36558,-0.15513 l -0.2212,-0.2176 c -0.27731,-0.27288 -0.7266,-0.27288 -1.0034,0 -0.27694,0.27286 -0.27694,0.71526 0,0.98778 l 0.25079,0.24711 0.002,0.0104 c 0.16591,0.15962 0.21374,0.41204 0.0978,0.62283 -0.002,0.004 -0.005,0.006 -0.006,0.009 l 0.002,0.0118 c -0.0773,0.15232 -0.14482,0.31091 -0.20023,0.47463 l -0.0107,0.008 c -0.002,0.006 -0.002,0.0121 -0.004,0.0182 -0.0753,0.24934 -0.32249,0.4001 -0.57572,0.36905 h -0.30011 c -0.39197,0 -0.70962,0.31296 -0.70962,0.69856 0,0.38552 0.31765,0.69864 0.70962,0.69864 h 0.35438 l 0.0105,0.008 c 0.22951,-3.5e-4 0.44202,0.14462 0.51094,0.37212 9.3e-4,0.002 9.3e-4,0.004 9.3e-4,0.006 l 0.0133,0.01 c 0.0558,0.16339 0.12263,0.322 0.20056,0.4741 l -0.003,0.0211 c 0.003,0.004 0.006,0.007 0.007,0.0113 0.12418,0.22581 0.062,0.50141 -0.13477,0.6566 l -0.21547,0.21249 c -0.27693,0.27253 -0.27693,0.71492 0,0.9878 0.27678,0.27252 0.72609,0.27252 1.0034,0 l 0.25097,-0.24694 0.0104,-0.002 c 0.16177,-0.15896 0.41534,-0.20365 0.62682,-0.0911 0.002,9.3e-4 0.002,0.002 0.004,0.003 l 0.0229,-0.004 c 0.15468,0.0761 0.31576,0.14257 0.48204,0.19714 l 0.0144,0.0182 c 0.002,9.3e-4 0.005,9.3e-4 0.007,0.002 0.23175,0.0675 0.37879,0.27766 0.3781,0.50447 l 0.002,0.003 v 0.34959 c 0,0.38577 0.31749,0.69855 0.70947,0.69855 0.3918,0 0.70964,-0.31278 0.70964,-0.69855 v -0.34961 l 0.002,-0.003 c -9.4e-4,-0.22683 0.14637,-0.4366 0.37813,-0.50447 0.003,-9.3e-4 0.005,-9.3e-4 0.007,-0.002 l 0.0142,-0.0179 c 0.16591,-0.0549 0.32682,-0.12041 0.48148,-0.1975 l 0.0234,0.004 c 10e-4,-9.3e-4 0.002,-0.002 0.004,-0.003 0.21148,-0.11256 0.46507,-0.0679 0.62683,0.0911 l 0.0106,0.002 0.25097,0.24693 c 0.27678,0.27252 0.7261,0.27252 1.00342,0 0.27695,-0.27288 0.44222,-0.54405 0.16526,-0.81658 v 0 0 0 0 c 0.18095,-0.079 0.33736,-0.23421 0.42719,-0.55355 v 0 0 0 0 0 0 0 z"
       id="path2-7"
       sodipodi:nodetypes="ccccccccccccccscsccscccccccscsccccccccccccccccccccccccccccccccccccccccsssccccccccccccccccccccccsssccccccccccccccccccccccccccccccccccccc"
       style="fill:url(#linearGradient1077);fill-opacity:1;stroke-width:0.0219996" />
    <g
       id="g4-3-5"
       transform="matrix(0.01479663,0,0,0.01456899,405.58793,530.51849)">
      <path
         d="m 370.7276,568.14483 c -17.731,0 -34.454,-7.767 -45.88,-21.309 l -113.729,-134.789 v 96.096 c 0,33.084 -26.916,60 -60,60 -33.08397,0 -59.999951,-26.916 -59.999951,-60 v -391.998 c 0,-33.084027 26.915981,-60.000048 59.999951,-60.000048 33.084,0 60,26.916021 60,60.000048 v 96.097 L 324.8466,77.452794 c 21.335,-25.284012 59.264,-28.500012 84.55,-7.166013 12.25,10.336018 19.74,24.82204 21.094,40.792049 1.353,15.969 -3.594,31.51 -13.929,43.759 l -132.728,157.306 132.729,157.308 c 27.80759,33.25131 18.12,63.214 -7.165,84.549 -10.81,9.121 -24.543,14.144 -38.67,14.144 z m -165.398,-201.22 c 4.419,0 8.614,1.949 11.464,5.327 l 130.982,155.237 c 5.714,6.772 14.079,10.656 22.952,10.656 7.056,0 13.919,-2.512 19.324,-7.072 12.642,-10.667 14.25,-29.632 3.583,-42.275 l -140.891,-166.982 c -4.714,-5.587 -4.714,-13.759 0,-19.346 l 140.89,-166.979 c 5.168,-6.125 7.641,-13.895 6.964,-21.879 -0.676,-7.985 -4.422,-15.228005 -10.546,-20.396014 -12.643,-10.666017 -31.608,-9.059013 -42.276,3.583005 L 207.5836,262.95283 c -4.062,4.814 -10.7,6.578 -16.614,4.416 -5.916,-2.162 -9.851,-7.79 -9.851,-14.088 v -137.136 c 0,-16.542005 -13.458,-30.000022 -30,-30.000022 -16.54199,0 -29.99997,13.458017 -29.99997,30.000022 v 391.999 c 0,16.542 13.45798,30 29.99997,30 16.542,0 30,-13.458 30,-30 v -115.303 c 0,-3.541 1.252,-6.967 3.536,-9.673 l 9.21,-10.917 c 2.851,-3.377 7.045,-5.326 11.465,-5.326 z"
         id="path2-6-3"
         sodipodi:nodetypes="sccsssssscccccccsssccsccccccccccssssssssccs"
         style="fill:url(#linearGradient1079);fill-opacity:1" />
    </g>
    <ellipse
       cx="413.43927"
       cy="537.56329"
       id="circle4-5-5"
       style="fill:url(#linearGradient1081);fill-opacity:1;stroke-width:0.0325455"
       rx="0.49197996"
       ry="0.48441091" />
  </g>
</svg>
