<?xml version="1.0" encoding="UTF-8" standalone="no"?>
<svg
   width="32"
   version="1.1"
   height="32"
   viewBox="0 0 32 32"
   id="svg17"
   sodipodi:docname="network-workgroup.svg"
   inkscape:version="1.1.1 (3bf5ae0d25, 2021-09-20)"
   xmlns:inkscape="http://www.inkscape.org/namespaces/inkscape"
   xmlns:sodipodi="http://sodipodi.sourceforge.net/DTD/sodipodi-0.dtd"
   xmlns:xlink="http://www.w3.org/1999/xlink"
   xmlns="http://www.w3.org/2000/svg"
   xmlns:svg="http://www.w3.org/2000/svg"
   xmlns:rdf="http://www.w3.org/1999/02/22-rdf-syntax-ns#"
   xmlns:cc="http://creativecommons.org/ns#"
   xmlns:dc="http://purl.org/dc/elements/1.1/">
  <sodipodi:namedview
     pagecolor="#ffffff"
     bordercolor="#666666"
     borderopacity="1"
     objecttolerance="10"
     gridtolerance="10"
     guidetolerance="10"
     inkscape:pageopacity="0"
     inkscape:pageshadow="2"
     inkscape:window-width="1920"
     inkscape:window-height="1007"
     id="namedview19"
     showgrid="false"
     inkscape:zoom="9.8125"
     inkscape:cx="-12.738854"
     inkscape:cy="2.089172"
     inkscape:window-x="0"
     inkscape:window-y="0"
     inkscape:window-maximized="1"
     inkscape:current-layer="layer1"
     inkscape:document-rotation="0"
     inkscape:pagecheckerboard="0" />
  <defs
     id="defs5455">
    <linearGradient
       inkscape:collect="always"
       xlink:href="#linearGradient2230"
       id="linearGradient2232"
       x1="384.57144"
       y1="515.79797"
       x2="448.57144"
       y2="515.79797"
       gradientUnits="userSpaceOnUse"
       gradientTransform="matrix(0.46875,0,0,0.46153837,205.30357,293.73743)" />
    <linearGradient
       inkscape:collect="always"
       id="linearGradient2230">
      <stop
         style="stop-color:#4e99ca;stop-opacity:0.80000001"
         offset="0"
         id="stop2226" />
      <stop
         style="stop-color:#20ffff;stop-opacity:0.80000001"
         offset="0.50507295"
         id="stop2332" />
      <stop
         style="stop-color:#ffaeff;stop-opacity:0.69"
         offset="1"
         id="stop2228" />
    </linearGradient>
    <linearGradient
       inkscape:collect="always"
       xlink:href="#linearGradient2230"
       id="linearGradient1043"
       gradientUnits="userSpaceOnUse"
       gradientTransform="matrix(0.46875,0,0,0.46153837,213.45982,296.04512)"
       x1="406.17142"
       y1="520.79797"
       x2="427.17151"
       y2="520.79797" />
  </defs>
  <metadata
     id="metadata5458">
    <rdf:RDF>
      <cc:Work
         rdf:about="">
        <dc:format>image/svg+xml</dc:format>
        <dc:type
           rdf:resource="http://purl.org/dc/dcmitype/StillImage" />
      </cc:Work>
    </rdf:RDF>
  </metadata>
  <g
     inkscape:label="Capa 1"
     inkscape:groupmode="layer"
     id="layer1"
     transform="translate(-384.57143,-515.798)">
    <rect
       style="fill:#3b445f;fill-opacity:1;stroke:none;stroke-width:0.586901"
       id="center-3"
       width="28.21875"
       height="19.384611"
       x="386.46204"
       y="523.4903"
       ry="1.8461516"
       rx="1.8812554" />
    <path
       d="m 412.83717,522.5717 h -13.7469 c -0.30383,0 -0.56951,-0.15398 -0.75942,-0.42377 l -1.02539,-1.5408 c -0.34172,-0.53931 -0.91147,-0.80913 -1.51886,-0.80913 h -7.02535 c -1.74698,0 -3.18982,1.46396 -3.18982,3.2359 v 17.99041 c 0,1.50242 1.21533,2.77369 2.73419,2.77369 h 11.81018 v 0 0 0 0 0 0 0 h 0.91126 v 0 0 0 0 0 0 0 0 0 h 11.81018 c 1.48102,0 2.73419,-1.23289 2.73419,-2.77369 V 525.3453 c 0,-1.5408 -1.21506,-2.77341 -2.73419,-2.77341 z m -11.81011,21.2263 v 0 h -0.91126 v 0 0 z m 13.6329,-2.7736 c 0,1.00153 -0.7976,1.84905 -1.82272,1.84905 h -24.53176 c -0.98728,0 -1.82272,-0.84752 -1.82272,-1.84905 l -2.7e-4,-6.20226 v -3.5057 c 0,-1.00155 0.83545,-1.84905 1.82272,-1.84905 h 13.7469 c 0.60766,0 1.17715,-0.30823 1.51886,-0.80914 l 0.98728,-1.54079 c 0.18993,-0.2311 0.45561,-0.42378 0.75943,-0.42378 h 7.06332 c 1.25317,0 2.27863,1.04021 2.27863,2.31155 v 5.04649 z m -2.27862,-15.21674 h -7.06332 c -0.60766,0 -1.17716,0.30822 -1.51886,0.80913 l -0.98728,1.5408 c -0.15178,0.26979 -0.45562,0.42377 -0.75943,0.42377 h -13.7468 c -0.68341,0 -1.32812,0.0783 -1.82297,0.78572 v -4.03062 c 0,-0.92308 0.96375,-1.84615 1.90125,-1.84615 h 7.50001 l 0.0201,0.0214 1.38614,-0.0214 1.838,0.006 h 13.7469 c 0.98728,0 1.82273,0.84751 1.82273,1.84905 v 1.4253 c -0.6074,-0.61617 -1.40474,-0.96281 -2.3162,-0.96281 z"
       id="path64"
       sodipodi:nodetypes="csccsssssccccccccccccccccccsssccccccccccssccsssccssscccsccscccccccssscc"
       style="fill:url(#linearGradient2232);fill-opacity:1;stroke-width:0.0683002" />
    <path
       fill-rule="evenodd"
       clip-rule="evenodd"
       d="m 407.36833,539.8749 c 0,0.19134 -0.15724,0.34615 -0.35156,0.34615 -0.19398,0 -0.35166,-0.15481 -0.35166,-0.34615 0,-0.19134 0.15768,-0.34616 0.35166,-0.34616 0.19432,0 0.35156,0.15482 0.35156,0.34616 z m -1.40643,0 c 0,0.19134 -0.15723,0.34615 -0.35121,0.34615 -0.19433,0 -0.35156,-0.15481 -0.35156,-0.34615 0,-0.19134 0.15723,-0.34616 0.35156,-0.34616 0.19398,0 0.35121,0.15482 0.35121,0.34616 z m 1.40643,-6.92312 c 0,0.19133 -0.15724,0.34615 -0.35156,0.34615 -0.19398,0 -0.35166,-0.15482 -0.35166,-0.34615 0,-0.19101 0.15768,-0.34624 0.35166,-0.34624 0.19432,0 0.35156,0.15523 0.35156,0.34624 z m -1.40643,0 c 0,0.19133 -0.15723,0.34615 -0.35121,0.34615 -0.19433,0 -0.35156,-0.15482 -0.35156,-0.34615 0,-0.19101 0.15723,-0.34624 0.35156,-0.34624 0.19398,0 0.35121,0.15523 0.35121,0.34624 z m -0.70277,3.46156 c 0,-0.19134 0.15723,-0.34624 0.35156,-0.34624 0.19398,0 0.35121,0.1549 0.35121,0.34624 0,0.19134 -0.15723,0.34615 -0.35121,0.34615 -0.19433,0 -0.35156,-0.15481 -0.35156,-0.34615 z m 1.40598,0 c 0,-0.19134 0.15768,-0.34624 0.35166,-0.34624 0.19432,0 0.35156,0.1549 0.35156,0.34624 0,0.19134 -0.15724,0.34615 -0.35156,0.34615 -0.19398,0 -0.35166,-0.15481 -0.35166,-0.34615 z m 5.62492,5.5385 h -7.0309 c -0.77696,0 -1.40643,-0.61996 -1.40643,-1.38461 v -1.03849 c 0,-0.19099 0.15724,-0.34615 0.35157,-0.34615 0.19432,0 0.35165,0.15516 0.35165,0.34615 v 1.03849 c 0,0.38232 0.31456,0.69248 0.70321,0.69248 h 7.0309 c 0.38865,0 0.70312,-0.31016 0.70312,-0.69248 v -1.38464 c 0,-0.38233 -0.31447,-0.69248 -0.70312,-0.69248 h -1.40608 -5.62482 c -0.35714,0 -0.68192,-0.13201 -0.92989,-0.34767 -0.0351,-0.0304 -0.0686,-0.0629 -0.1005,-0.0967 -0.001,-0.002 -0.003,-0.003 -0.004,-0.005 -0.0304,-0.0324 -0.0591,-0.0662 -0.0864,-0.10175 -0.003,-0.005 -0.006,-0.008 -0.01,-0.0131 -0.024,-0.0318 -0.0461,-0.0651 -0.0674,-0.0989 -0.006,-0.009 -0.0115,-0.0177 -0.0165,-0.0269 -0.0178,-0.0298 -0.0343,-0.0605 -0.0497,-0.0914 -0.006,-0.012 -0.0119,-0.0245 -0.0178,-0.037 -0.0149,-0.0318 -0.028,-0.0647 -0.0402,-0.098 -0.004,-0.0113 -0.009,-0.0222 -0.0126,-0.0338 -0.0114,-0.0345 -0.0213,-0.0703 -0.03,-0.10547 -0.003,-0.0118 -0.007,-0.0227 -0.009,-0.0347 -0.009,-0.0404 -0.0157,-0.0815 -0.0209,-0.12338 -9.4e-4,-0.007 -0.002,-0.0133 -0.003,-0.0198 -0.006,-0.0497 -0.009,-0.10024 -0.009,-0.15112 v -1.3847 c 0,-0.0512 0.003,-0.10169 0.009,-0.15138 3.5e-4,-0.005 10e-4,-0.01 0.002,-0.0148 0.005,-0.043 0.0123,-0.0861 0.0213,-0.12803 0.002,-0.0121 0.006,-0.0229 0.009,-0.0346 0.009,-0.0353 0.0186,-0.071 0.03,-0.10555 0.004,-0.0113 0.009,-0.0217 0.0126,-0.033 0.0126,-0.0342 0.0256,-0.0684 0.041,-0.1009 0.005,-0.0109 0.0102,-0.0206 0.0154,-0.0311 0.0157,-0.0326 0.0327,-0.0648 0.0512,-0.0958 0.005,-0.009 0.0106,-0.0171 0.0161,-0.026 0.0221,-0.0353 0.0449,-0.0699 0.0701,-0.10285 0.002,-0.002 0.003,-0.003 0.005,-0.006 0.0579,-0.0756 0.12377,-0.14594 0.19587,-0.2084 0.24754,-0.21466 0.57197,-0.34616 0.9279,-0.34616 h 7.0309 c 0.38865,0 0.70313,-0.31015 0.70313,-0.69247 v -1.38475 c 0,-0.38224 -0.31448,-0.69198 -0.70313,-0.69198 h -7.03085 c -0.38865,0 -0.70321,0.30974 -0.70321,0.69198 v 1.03863 c 0,0.19134 -0.15733,0.34616 -0.35166,0.34616 -0.19432,0 -0.35156,-0.15482 -0.35156,-0.34616 v -1.03863 c 0,-0.76459 0.62947,-1.38438 1.40643,-1.38438 h 7.03089 c 0.77696,0 1.40643,0.61979 1.40643,1.38438 v 1.38479 c 0,0.76465 -0.62947,1.38446 -1.40643,1.38446 h -0.19001 -6.84088 c -0.38865,0 -0.70321,0.31007 -0.70321,0.69239 v 1.38471 c 0,0.38232 0.31456,0.69248 0.70321,0.69248 h 6.84088 0.19001 c 0.77694,0 1.40643,0.6198 1.40643,1.38446 v 1.38464 c 0,0.76465 -0.62947,1.38461 -1.40643,1.38461 z m 1.05486,-4.84619 c -0.19397,0 -0.35174,-0.15517 -0.35174,-0.34616 v -0.69239 c 0,-0.19091 0.15777,-0.34616 0.35174,-0.34616 0.19433,0 0.35156,0.15525 0.35156,0.34616 v 0.69239 c 0,0.19099 -0.15723,0.34616 -0.35156,0.34616 z"
       id="path2-7"
       style="fill:url(#linearGradient1043);fill-opacity:1;stroke-width:0.021803" />
  </g>
</svg>
