<?xml version="1.0" encoding="UTF-8" standalone="no"?>
<svg
   version="1.1"
   viewBox="0 0 32 32"
   id="svg69"
   sodipodi:docname="user-trash.svg"
   inkscape:version="1.1.1 (3bf5ae0d25, 2021-09-20)"
   xmlns:inkscape="http://www.inkscape.org/namespaces/inkscape"
   xmlns:sodipodi="http://sodipodi.sourceforge.net/DTD/sodipodi-0.dtd"
   xmlns:xlink="http://www.w3.org/1999/xlink"
   xmlns="http://www.w3.org/2000/svg"
   xmlns:svg="http://www.w3.org/2000/svg"
   xmlns:rdf="http://www.w3.org/1999/02/22-rdf-syntax-ns#"
   xmlns:cc="http://creativecommons.org/ns#"
   xmlns:dc="http://purl.org/dc/elements/1.1/">
  <metadata
     id="metadata73">
    <rdf:RDF>
      <cc:Work
         rdf:about="">
        <dc:format>image/svg+xml</dc:format>
        <dc:type
           rdf:resource="http://purl.org/dc/dcmitype/StillImage" />
      </cc:Work>
    </rdf:RDF>
  </metadata>
  <sodipodi:namedview
     pagecolor="#ffffff"
     bordercolor="#666666"
     borderopacity="1"
     objecttolerance="10"
     gridtolerance="10"
     guidetolerance="10"
     inkscape:pageopacity="0"
     inkscape:pageshadow="2"
     inkscape:window-width="1920"
     inkscape:window-height="1007"
     id="namedview71"
     showgrid="true"
     inkscape:zoom="9.8125003"
     inkscape:cx="1.0191082"
     inkscape:cy="6.8789807"
     inkscape:window-x="0"
     inkscape:window-y="0"
     inkscape:window-maximized="1"
     inkscape:current-layer="svg69"
     inkscape:document-rotation="0"
     inkscape:pagecheckerboard="0">
    <inkscape:grid
       type="xygrid"
       id="grid1004" />
  </sodipodi:namedview>
  <defs
     id="defs12">
    <radialGradient
       id="d"
       cx="20.571428"
       cy="8.5"
       r="4"
       gradientTransform="matrix(3.7417788,-6.8149882e-8,2.7200184e-8,1.5,-60.947427,-4.7499983)"
       gradientUnits="userSpaceOnUse">
      <stop
         stop-color="#4f575f"
         stop-opacity=".25098041"
         offset="0"
         id="stop2" />
      <stop
         stop-color="#8a939a"
         offset="1"
         id="stop4" />
    </radialGradient>
    <linearGradient
       id="l"
       x1="390.57101"
       x2="410.57101"
       y1="521.79797"
       y2="545.79797"
       gradientTransform="matrix(1 0 0 .91666666 -384.571 -471.31484)"
       gradientUnits="userSpaceOnUse">
      <stop
         stop-color="#bdc3c7"
         offset="0"
         id="stop7" />
      <stop
         stop-color="#8a9696"
         offset="1"
         id="stop9" />
    </linearGradient>
    <linearGradient
       inkscape:collect="always"
       xlink:href="#linearGradient1145"
       id="linearGradient1402-3"
       x1="10"
       y1="35"
       x2="51.750942"
       y2="35"
       gradientUnits="userSpaceOnUse"
       gradientTransform="matrix(0.50097945,0,0,0.5,-0.00587804,2e-8)" />
    <linearGradient
       inkscape:collect="always"
       id="linearGradient1145">
      <stop
         style="stop-color:#3a8ec3;stop-opacity:0.80000001"
         offset="0"
         id="stop1141" />
      <stop
         style="stop-color:#20ffff;stop-opacity:0.80000001"
         offset="0.46829623"
         id="stop1181" />
      <stop
         style="stop-color:#ff75ff;stop-opacity:0.9980126"
         offset="1"
         id="stop1143" />
    </linearGradient>
  </defs>
  <linearGradient
     id="a">
    <stop
       stop-color="#4f575f"
       stop-opacity=".4"
       offset="0"
       id="stop14" />
    <stop
       stop-color="#4f575f"
       stop-opacity=".6"
       offset=".5"
       id="stop16" />
    <stop
       stop-color="#4f575f"
       stop-opacity=".4"
       offset="1"
       id="stop18" />
  </linearGradient>
  <radialGradient
     id="t"
     cx="16"
     cy="8.5"
     r="4"
     gradientTransform="matrix(1.75,0,0,1.5,-12,-6.75)"
     gradientUnits="userSpaceOnUse">
    <stop
       stop-color="#4f575f"
       stop-opacity=".25"
       offset="0"
       id="stop21" />
    <stop
       stop-color="#9da5ab"
       offset="1"
       id="stop23" />
  </radialGradient>
  <linearGradient
     id="s"
     x1="412.571"
     x2="412.571"
     y1="522.798"
     y2="520.798"
     gradientTransform="translate(-384.571,-514.798)"
     gradientUnits="userSpaceOnUse">
    <stop
       stop-color="#9da5ab"
       offset="0"
       id="stop26" />
    <stop
       stop-color="#bdc3c7"
       offset="1"
       id="stop28" />
  </linearGradient>
  <linearGradient
     id="r"
     x1="395.571"
     x2="395.571"
     y1="520.798"
     y2="516.798"
     gradientTransform="translate(-384.571,-514.798)"
     gradientUnits="userSpaceOnUse">
    <stop
       stop-color="#afb0b3"
       offset="0"
       id="stop31" />
    <stop
       stop-color="#bdc3c7"
       offset="1"
       id="stop33" />
  </linearGradient>
  <linearGradient
     id="q"
     x1="390.57101"
     x2="406.57101"
     y1="521.79797"
     y2="537.79797"
     gradientTransform="matrix(1 0 0 .95454545 -384.571 -490.07991)"
     gradientUnits="userSpaceOnUse">
    <stop
       stop-color="#292c2f"
       offset="0"
       id="stop36" />
    <stop
       stop-opacity="0"
       offset="1"
       id="stop38" />
  </linearGradient>
  <linearGradient
     id="p"
     x1="391.571"
     x2="394.571"
     y1="534.798"
     y2="534.798"
     gradientTransform="matrix(.66667 0 0 .9 -249.047 -463.31817)"
     gradientUnits="userSpaceOnUse"
     xlink:href="#a" />
  <linearGradient
     id="o"
     x1="391.571"
     x2="394.571"
     y1="534.798"
     y2="534.798"
     gradientTransform="matrix(.66667 0 0 .89999994 -254.048 -463.31813)"
     gradientUnits="userSpaceOnUse"
     xlink:href="#a" />
  <linearGradient
     id="n"
     x1="391.571"
     x2="394.571"
     y1="534.798"
     y2="534.798"
     gradientTransform="matrix(.66667 0 0 .9 -243.048 -463.31817)"
     gradientUnits="userSpaceOnUse"
     xlink:href="#a" />
  <linearGradient
     id="m"
     x1="391.571"
     x2="394.571"
     y1="534.798"
     y2="534.798"
     gradientTransform="matrix(.66667 0 0 .9 -238.047 -463.31817)"
     gradientUnits="userSpaceOnUse"
     xlink:href="#a" />
  <rect
     style="fill:#3b445f;fill-opacity:1;stroke:none;stroke-width:0.482518"
     id="center-3"
     width="19.299999"
     height="19.157"
     x="9.6000004"
     y="-25.657"
     ry="2.616034"
     rx="2.9692307"
     transform="rotate(90)" />
  <path
     d="m 24.937477,15.999898 z m 0.812565,-4.874949 H 25.312367 22.093704 21.687064 9.906092 c -1.121971,0 -2.031058,0.909289 -2.031058,2.03125 v 0.405844 3.250558 8.5312 c 0,1.12191 0.909087,2.031199 2.031058,2.031199 h 12.187611 c 1.121974,0 2.031262,-0.909289 2.031262,-2.031199 v -6.9062 c 0,-0.449109 0.36344,-0.8125 0.812512,-0.8125 0.449075,0 0.812564,0.363391 0.812564,0.8125 V 25.75 c 0,1.794812 -1.45529,3.25 -3.250054,3.25 H 9.500266 C 7.705246,29 6.249651,27.544812 6.249651,25.75 V 16.812601 13.562043 12.750355 C 6.249651,10.955187 7.705246,9.5 9.500266,9.5 h 0.811701 12.18802 3.250054 c 0.897436,0 1.624622,-0.727594 1.624622,-1.625407 0,-0.897 -0.727186,-1.624593 -1.624622,-1.624593 h -6.093828 c -0.897485,0 -1.13347,-1.625 -2.031311,-1.625 h -3.249804 c -0.897842,0 -1.13408,1.625 -2.031057,1.625 h -6.09439 c -0.896978,0 -1.625233,0.727594 -1.625233,1.624593 0,0.448704 -0.363594,0.812907 -0.8117,0.812907 C 3.363594,8.6875 3,8.323297 3,7.874593 3,6.080188 4.454579,4.625 6.249651,4.625 h 4.469158 C 11.615836,4.625 11.85289,3 12.749865,3 h 6.500013 c 0.897485,0 1.134283,1.625 2.031312,1.625 h 4.468802 C 27.545166,4.625 29,6.080188 29,7.874543 c 5e-5,1.7952184 -1.454784,3.250406 -3.249958,3.250406 z"
     id="path2-3-6"
     style="fill:url(#linearGradient1402-3);fill-opacity:1;stroke-width:0.0508307"
     sodipodi:nodetypes="cccccccscccscccsccccccccscccssccsssssssssssccssccss" />
  <ellipse
     cx="24.89781"
     cy="15.139999"
     id="circle4-5-7"
     style="fill:#ffaeff;fill-opacity:0.690196;stroke-width:0.0501155"
     rx="0.75247109"
     ry="0.75099999" />
</svg>
