<?xml version="1.0" encoding="UTF-8" standalone="no"?>
<svg
   width="32"
   version="1.1"
   height="32"
   viewBox="0 0 32 32"
   id="svg17"
   sodipodi:docname="user-home.svg"
   inkscape:version="1.1.1 (3bf5ae0d25, 2021-09-20)"
   xmlns:inkscape="http://www.inkscape.org/namespaces/inkscape"
   xmlns:sodipodi="http://sodipodi.sourceforge.net/DTD/sodipodi-0.dtd"
   xmlns:xlink="http://www.w3.org/1999/xlink"
   xmlns="http://www.w3.org/2000/svg"
   xmlns:svg="http://www.w3.org/2000/svg"
   xmlns:rdf="http://www.w3.org/1999/02/22-rdf-syntax-ns#"
   xmlns:cc="http://creativecommons.org/ns#"
   xmlns:dc="http://purl.org/dc/elements/1.1/">
  <sodipodi:namedview
     pagecolor="#ffffff"
     bordercolor="#666666"
     borderopacity="1"
     objecttolerance="10"
     gridtolerance="10"
     guidetolerance="10"
     inkscape:pageopacity="0"
     inkscape:pageshadow="2"
     inkscape:window-width="1920"
     inkscape:window-height="1007"
     id="namedview19"
     showgrid="false"
     inkscape:zoom="8"
     inkscape:cx="-27.375"
     inkscape:cy="4.4375"
     inkscape:window-x="0"
     inkscape:window-y="0"
     inkscape:window-maximized="1"
     inkscape:current-layer="layer1"
     inkscape:document-rotation="0"
     inkscape:pagecheckerboard="0" />
  <defs
     id="defs5455">
    <linearGradient
       inkscape:collect="always"
       xlink:href="#linearGradient2230"
       id="linearGradient2232"
       x1="384.57144"
       y1="515.79797"
       x2="448.57144"
       y2="515.79797"
       gradientUnits="userSpaceOnUse"
       gradientTransform="matrix(0.46153846,0,0,0.46153846,208.07693,293.73738)" />
    <linearGradient
       inkscape:collect="always"
       id="linearGradient2230">
      <stop
         style="stop-color:#4e99ca;stop-opacity:0.80000001"
         offset="0"
         id="stop2226" />
      <stop
         style="stop-color:#20ffff;stop-opacity:0.80000001"
         offset="0.50507295"
         id="stop2332" />
      <stop
         style="stop-color:#ffaeff;stop-opacity:0.69"
         offset="1"
         id="stop2228" />
    </linearGradient>
    <linearGradient
       inkscape:collect="always"
       xlink:href="#linearGradient2230"
       id="linearGradient1016"
       gradientUnits="userSpaceOnUse"
       x1="404.08643"
       y1="520.79803"
       x2="428.08652"
       y2="520.79803"
       gradientTransform="matrix(0.46153846,0,0,0.46153846,215.68541,296.04508)" />
  </defs>
  <metadata
     id="metadata5458">
    <rdf:RDF>
      <cc:Work
         rdf:about="">
        <dc:format>image/svg+xml</dc:format>
        <dc:type
           rdf:resource="http://purl.org/dc/dcmitype/StillImage" />
      </cc:Work>
    </rdf:RDF>
  </metadata>
  <g
     inkscape:label="Capa 1"
     inkscape:groupmode="layer"
     id="layer1"
     transform="translate(-384.57143,-515.798)">
    <rect
       style="fill:#3b445f;fill-opacity:1;stroke:none;stroke-width:0.582369"
       id="center-3"
       width="27.784616"
       height="19.384615"
       x="386.44839"
       y="523.49036"
       ry="1.8461519"
       rx="1.8523129" />
    <path
       d="m 412.4177,522.5717 h -13.53541 c -0.29915,0 -0.56075,-0.15398 -0.74774,-0.42377 l -1.00962,-1.5408 c -0.33645,-0.53931 -0.89744,-0.80913 -1.49549,-0.80913 h -6.91726 c -1.72011,0 -3.14075,1.46396 -3.14075,3.23589 v 17.99042 c 0,1.50242 1.19664,2.77369 2.69213,2.77369 h 11.62848 v 0 0 0 0 0 0 0 h 0.89724 v 0 0 0 0 0 0 0 0 0 h 11.62849 c 1.45823,0 2.69212,-1.23288 2.69212,-2.77369 V 525.3453 c 0,-1.5408 -1.19637,-2.77341 -2.69212,-2.77341 z m -11.62842,21.2263 v 0 h -0.89724 v 0 0 z m 13.42317,-2.7736 c 0,1.00153 -0.78534,1.84905 -1.79468,1.84905 h -24.15435 c -0.97209,0 -1.79468,-0.84752 -1.79468,-1.84905 l -2.7e-4,-6.20226 v -3.5057 c 0,-1.00155 0.8226,-1.84906 1.79468,-1.84906 h 13.53541 c 0.59831,0 1.15904,-0.30822 1.49549,-0.80912 l 0.97209,-1.5408 c 0.18701,-0.2311 0.44861,-0.42378 0.74775,-0.42378 h 6.95466 c 1.23389,0 2.24357,1.04021 2.24357,2.31155 v 5.04649 z m -2.24357,-15.21674 h -6.95466 c -0.59831,0 -1.15904,0.30822 -1.49549,0.80913 l -0.97209,1.5408 c -0.14945,0.26979 -0.44861,0.42376 -0.74774,0.42376 h -13.53532 c -0.67289,0 -1.30768,0.0783 -1.79492,0.78572 v -4.03061 c 0,-0.92308 0.94893,-1.84616 1.87201,-1.84616 h 7.38462 l 0.0198,0.0214 1.36481,-0.0214 1.80973,0.006 h 13.5354 c 0.97209,0 1.79469,0.84752 1.79469,1.84906 v 1.42529 c -0.59805,-0.61616 -1.38312,-0.96281 -2.28057,-0.96281 z"
       id="path64"
       sodipodi:nodetypes="csccsssssccccccccccccccccccsssccccccccccssccsssccssscccsccscccccccssscc"
       style="fill:url(#linearGradient2232);fill-opacity:1;stroke-width:0.0677728" />
    <path
       d="m 413.26377,536.06837 c 0,0.19129 -0.15495,0.34607 -0.34609,0.34607 -0.19129,0 -0.34624,-0.15478 -0.34624,-0.34607 0,-0.0915 -0.57726,-0.52523 -0.71446,-0.66261 l -0.37547,-0.37549 h 0.0108 c -0.18993,-0.23707 -0.30485,-0.53771 -0.30485,-0.86553 v -1.55705 c 0,-0.19129 -0.15549,-0.34624 -0.34627,-0.34624 h -0.69232 c -0.19113,0 -0.34607,0.15497 -0.34607,0.34624 v 0.1188 c 0,0.1433 -0.11592,0.25955 -0.25955,0.25955 -0.07,0 -0.13316,-0.0282 -0.17983,-0.0733 l -1.14774,-1.14776 c -0.27002,-0.27054 -0.70849,-0.27054 -0.97859,0 l -4.16015,4.1601 c -0.13552,0.13521 -0.20304,0.31212 -0.20304,0.48939 h 0.007 c 0,0.38199 0.28995,0.69225 0.57805,0.69225 0.33002,0 0.80611,0.4647 0.80611,1.03824 v 2.4226 c 0,0.38224 0.31017,0.69218 0.69224,0.69218 h 1.03842 c 0.19086,0 0.34615,-0.15479 0.34615,-0.34611 v -2.24954 c 0,-0.4779 0.38722,-0.86554 0.86513,-0.86554 h 1.03807 c 0.47789,0 0.86519,0.38764 0.86519,0.86554 v 2.24954 c 0,0.19132 0.15512,0.34611 0.34607,0.34611 h 1.03842 c 0.38206,0 0.69233,-0.30993 0.69233,-0.69218 v -2.4226 c 0,-0.19095 0.15477,-0.34641 0.34572,-0.34641 0.19131,0 0.34609,0.15547 0.34609,0.34641 v 2.4226 c 0,0.76451 -0.61951,1.38434 -1.38416,1.38434 h -1.03842 c -0.57336,0 -1.03805,-0.46504 -1.03805,-1.03827 v -2.07649 c 0,-0.1913 -0.15495,-0.34607 -0.34609,-0.34607 h -0.69231 c -0.19121,0 -0.34609,0.15477 -0.34609,0.34607 v 2.07649 c 0,0.57323 -0.46471,1.03827 -1.03807,1.03827 h -1.03842 c -0.76457,0 -1.38416,-0.61984 -1.38416,-1.38434 v -2.4226 c 0,-0.19095 -0.16146,-0.33391 -0.34609,-0.38934 -0.004,-9.2e-4 -0.006,-0.003 -0.008,-0.005 -0.59279,-0.15613 -1.02996,-0.69455 -1.02996,-1.33641 v 0.0767 c -0.021,-0.37954 0.10824,-0.76567 0.39821,-1.05564 l 4.16027,-4.1603 c 0.27032,-0.27037 0.62353,-0.40028 0.97784,-0.40028 0.35431,0 0.70975,0.12991 0.98012,0.40028 l 0.60851,0.60869 c 0.15902,-0.19062 0.39457,-0.31465 0.66224,-0.31465 h 1.03792 c 0.47788,0 0.86519,0.3873 0.86519,0.86521 v 1.73025 c 0,0.18638 0.0745,0.3547 0.19449,0.47908 l 0.7917,0.79169 c 0.27171,0.27156 0.39829,0.40676 0.39829,0.63288 z m -1.03842,1.03831 c 0.19129,0 0.34609,0.15477 0.34609,0.34609 0,0.19097 -0.1548,0.34574 -0.34609,0.34574 -0.19129,0 -0.34607,-0.15477 -0.34607,-0.34574 0,-0.19132 0.15478,-0.34609 0.34607,-0.34609 z"
       id="path2-7"
       style="fill:url(#linearGradient1016);fill-opacity:1;stroke-width:0.0216346" />
  </g>
</svg>
