<?xml version="1.0" encoding="UTF-8" standalone="no"?>
<svg
   sodipodi:docname="suspend_primary.svg"
   inkscape:version="1.1.1 (3bf5ae0d25, 2021-09-20)"
   id="svg2343"
   version="1.1"
   viewBox="0 0 8.4666662 8.4666662"
   height="8.4666662mm"
   width="8.4666662mm"
   xmlns:inkscape="http://www.inkscape.org/namespaces/inkscape"
   xmlns:sodipodi="http://sodipodi.sourceforge.net/DTD/sodipodi-0.dtd"
   xmlns:xlink="http://www.w3.org/1999/xlink"
   xmlns="http://www.w3.org/2000/svg"
   xmlns:svg="http://www.w3.org/2000/svg"
   xmlns:rdf="http://www.w3.org/1999/02/22-rdf-syntax-ns#"
   xmlns:cc="http://creativecommons.org/ns#"
   xmlns:dc="http://purl.org/dc/elements/1.1/">
  <defs
     id="defs2337">
    <linearGradient
       id="a-3"
       x1="16"
       x2="16"
       y1="1"
       y2="31"
       gradientUnits="userSpaceOnUse">
      <stop
         stop-color="#4d83f3"
         offset="0"
         id="stop969" />
      <stop
         stop-color="#46cafa"
         offset="1"
         id="stop971" />
    </linearGradient>
    <linearGradient
       inkscape:collect="always"
       xlink:href="#linearGradient2495"
       id="linearGradient1661"
       x1="10.114435"
       y1="20.08079"
       x2="14.474239"
       y2="20.08079"
       gradientUnits="userSpaceOnUse"
       gradientTransform="matrix(0.26458337,0,0,0.26458333,95.668366,128.1694)" />
    <linearGradient
       inkscape:collect="always"
       id="linearGradient2495">
      <stop
         style="stop-color:#f5c2e7;stop-opacity:1"
         offset="0"
         id="stop2491" />
      <stop
         style="stop-color:#b5e8e0;stop-opacity:1"
         offset="1"
         id="stop2493" />
    </linearGradient>
    <linearGradient
       inkscape:collect="always"
       xlink:href="#linearGradient2495"
       id="linearGradient1645"
       x1="20.2607"
       y1="16.05501"
       x2="23.748545"
       y2="16.05501"
       gradientUnits="userSpaceOnUse"
       gradientTransform="matrix(0.26458337,0,0,0.26458333,95.668366,128.1694)" />
    <linearGradient
       inkscape:collect="always"
       xlink:href="#linearGradient2495"
       id="linearGradient1629"
       x1="14.092897"
       y1="10.7"
       x2="17.231962"
       y2="10.7"
       gradientUnits="userSpaceOnUse"
       gradientTransform="matrix(0.26458337,0,0,0.26458333,95.668366,128.1694)" />
    <linearGradient
       inkscape:collect="always"
       xlink:href="#linearGradient2495"
       id="linearGradient1653"
       x1="18.585016"
       y1="22.014229"
       x2="22.585016"
       y2="22.014229"
       gradientUnits="userSpaceOnUse"
       gradientTransform="matrix(0.26458337,0,0,0.26458333,95.668366,128.1694)" />
    <linearGradient
       inkscape:collect="always"
       xlink:href="#linearGradient2495"
       id="linearGradient1637"
       x1="8.1000004"
       y1="12.800212"
       x2="12.1"
       y2="12.800212"
       gradientUnits="userSpaceOnUse"
       gradientTransform="matrix(0.26458337,0,0,0.26458333,95.668366,128.1694)" />
    <linearGradient
       inkscape:collect="always"
       xlink:href="#linearGradient2495"
       id="linearGradient1583"
       x1="3"
       y1="16.10248"
       x2="29.005022"
       y2="16.10248"
       gradientUnits="userSpaceOnUse"
       gradientTransform="matrix(0.26458337,0,0,0.26458333,95.668366,128.14294)" />
  </defs>
  <sodipodi:namedview
     inkscape:document-rotation="0"
     inkscape:window-maximized="1"
     inkscape:window-y="0"
     inkscape:window-x="0"
     inkscape:window-height="1007"
     inkscape:window-width="1920"
     showgrid="true"
     inkscape:current-layer="layer1"
     inkscape:document-units="mm"
     inkscape:cy="12.366071"
     inkscape:cx="16.205357"
     inkscape:zoom="11.2"
     inkscape:pageshadow="2"
     inkscape:pageopacity="0.0"
     borderopacity="1.0"
     bordercolor="#666666"
     pagecolor="#ffffff"
     id="base"
     inkscape:pagecheckerboard="0">
    <inkscape:grid
       type="xygrid"
       id="grid842" />
  </sodipodi:namedview>
  <metadata
     id="metadata2340">
    <rdf:RDF>
      <cc:Work
         rdf:about="">
        <dc:format>image/svg+xml</dc:format>
        <dc:type
           rdf:resource="http://purl.org/dc/dcmitype/StillImage" />
      </cc:Work>
    </rdf:RDF>
  </metadata>
  <g
     transform="translate(-95.662116,-128.16315)"
     id="layer1"
     inkscape:groupmode="layer"
     inkscape:label="Layer 1">
    <g
       id="system-suspend"
       transform="matrix(0.26458333,0,0,0.26458333,58.355866,128.16315)">
      <g
         id="g1680">
        <circle
           style="opacity:0;fill:#000000;fill-opacity:1;stroke-width:1.06667"
           id="circle949"
           r="16"
           cy="16"
           cx="157" />
      </g>
    </g>
    <path
       d="m 99.31159,133.77106 h -0.387034 l 0.53087,-0.64537 c 0.04542,-0.0558 0.05488,-0.13248 0.0246,-0.19777 -0.03122,-0.0653 -0.09652,-0.10694 -0.168438,-0.10694 h -0.780693 c -0.103147,0 -0.186419,0.0833 -0.186419,0.18642 0,0.10315 0.08327,0.18642 0.186419,0.18642 h 0.387034 l -0.53087,0.64538 c -0.04542,0.0558 -0.05488,0.13248 -0.0246,0.19777 0.03122,0.0653 0.09652,0.10693 0.168438,0.10693 h 0.780693 c 0.103144,0 0.186419,-0.0833 0.186419,-0.18642 0,-0.10315 -0.08422,-0.18642 -0.186419,-0.18642 z"
       id="path4-1"
       style="fill:url(#linearGradient1661);fill-opacity:1;stroke-width:0.00946303" />
    <path
       d="m 101.8027,132.64818 h -0.30963 l 0.4247,-0.51629 c 0.0363,-0.0447 0.0439,-0.10599 0.0197,-0.15822 -0.025,-0.0522 -0.0772,-0.0855 -0.13475,-0.0855 h -0.62456 c -0.0825,0 -0.14913,0.0666 -0.14913,0.14914 0,0.0825 0.0666,0.14913 0.14913,0.14913 h 0.30963 l -0.42469,0.5163 c -0.0363,0.0447 -0.0439,0.10599 -0.0197,0.15822 0.025,0.0522 0.0772,0.0855 0.13474,0.0855 h 0.62456 c 0.0825,0 0.14913,-0.0666 0.14913,-0.14913 0,-0.0825 -0.0674,-0.14914 -0.14913,-0.14914 z"
       id="path4-1-8"
       style="fill:url(#linearGradient1645);fill-opacity:1;stroke-width:0.00757047" />
    <path
       d="m 100.09343,131.20825 h -0.278659 l 0.382219,-0.46467 c 0.0327,-0.0402 0.0395,-0.0954 0.0177,-0.1424 -0.0225,-0.047 -0.0695,-0.077 -0.12127,-0.077 h -0.562097 c -0.07427,0 -0.134222,0.06 -0.134222,0.13422 0,0.0743 0.05996,0.13423 0.134222,0.13423 h 0.278664 l -0.382227,0.46466 c -0.0327,0.0402 -0.03951,0.0954 -0.01771,0.1424 0.02248,0.047 0.06949,0.077 0.121275,0.077 h 0.562095 c 0.0743,0 0.13422,-0.06 0.13422,-0.13422 0,-0.0743 -0.0606,-0.13422 -0.13422,-0.13422 z"
       id="path4-1-7"
       style="fill:url(#linearGradient1629);fill-opacity:1;stroke-width:0.00681344" />
    <path
       d="m 101.04214,133.65165 c -0.0382,0.10201 -0.072,0.18872 -0.0746,0.19253 -0.002,0.003 -0.0893,0.0376 -0.19316,0.0765 -0.10392,0.0382 -0.18872,0.0714 -0.18872,0.0733 0,0.002 0.0842,0.0344 0.18679,0.0727 0.10201,0.0383 0.18936,0.0727 0.19319,0.0765 0.004,0.004 0.0382,0.0912 0.0765,0.19319 0.0382,0.10265 0.0708,0.18679 0.0727,0.18679 0.002,0 0.0344,-0.0841 0.0727,-0.18679 0.0376,-0.10201 0.072,-0.18935 0.0765,-0.19319 0.004,-0.004 0.0912,-0.0382 0.19382,-0.0765 0.10201,-0.0382 0.18616,-0.0708 0.18616,-0.0727 0,-0.002 -0.0841,-0.0344 -0.18679,-0.0727 -0.10202,-0.0382 -0.18873,-0.0714 -0.19253,-0.0739 -0.003,-0.003 -0.0376,-0.0899 -0.0765,-0.19383 -0.0382,-0.10391 -0.0714,-0.18872 -0.0733,-0.18872 -0.002,0 -0.0345,0.0842 -0.0727,0.18682 z"
       id="path4-20"
       style="fill:url(#linearGradient1653);fill-opacity:1;stroke-width:0.000275709" />
    <path
       d="m 98.267982,131.21378 c -0.03824,0.10201 -0.07204,0.18872 -0.07461,0.19252 -0.0025,0.003 -0.08925,0.0376 -0.193161,0.0765 -0.103915,0.0382 -0.188723,0.0714 -0.188723,0.0733 0,0.002 0.08415,0.0344 0.186793,0.0727 0.102012,0.0382 0.189356,0.0727 0.193189,0.0765 0.0038,0.004 0.03824,0.0912 0.07651,0.19319 0.03824,0.10264 0.07077,0.18679 0.07268,0.18679 0.0019,0 0.03444,-0.0842 0.07268,-0.18679 0.03761,-0.10201 0.07204,-0.18936 0.07651,-0.19319 0.0038,-0.004 0.09118,-0.0382 0.193823,-0.0765 0.102012,-0.0382 0.186158,-0.0708 0.186158,-0.0727 0,-0.002 -0.08415,-0.0344 -0.186793,-0.0727 -0.102012,-0.0382 -0.188722,-0.0714 -0.192527,-0.0739 -0.0032,-0.003 -0.03761,-0.0899 -0.07651,-0.19382 -0.03824,-0.10392 -0.07141,-0.18872 -0.07331,-0.18872 -0.0019,0 -0.03446,0.0842 -0.0727,0.18682 z"
       id="path4-23"
       style="fill:url(#linearGradient1637);fill-opacity:1;stroke-width:0.000275709" />
    <path
       fill-rule="evenodd"
       clip-rule="evenodd"
       d="m 102.36012,135.84232 h -3.685516 c -0.135494,0 -0.245438,0.0219 -0.245438,-0.11351 0,-0.1358 0.109944,-0.11351 0.245438,-0.11351 h 3.685516 c 0.42531,0 0.75601,-0.32929 0.75601,-0.75584 v -4.91369 c 0,-0.46321 -0.40953,-0.75586 -0.75601,-0.75587 l -4.913815,-1.1e-4 c -0.389729,-10e-6 -0.756113,0.322 -0.756113,0.75587 v 4.66811 c 0,0.1358 0.02256,0.24569 -0.113242,0.24569 -0.135556,0 -0.113505,-0.10989 -0.113505,-0.24569 v -4.668 c 0,-0.54272 0.440206,-0.98262 0.982862,-0.98262 h 4.913813 c 0.5426,0 0.98249,0.4399 0.98249,0.98262 v 4.91369 c 0,0.54271 -0.43989,0.98286 -0.98249,0.98286 z m -4.668069,-0.4915 c 0.135495,0 0.245684,0.11001 0.245684,0.24581 0,0.13544 -0.110189,0.24569 -0.245684,0.24569 -0.135802,0 -0.245746,-0.11025 -0.245746,-0.24569 0,-0.1358 0.109944,-0.24581 0.245746,-0.24581 z"
       id="path2-6-3-3-6"
       style="fill:url(#linearGradient1583);fill-opacity:1;stroke-width:0.0153555"
       sodipodi:nodetypes="sssssssssssssssssssssssss" />
    <rect
       style="fill:#5599ff;fill-opacity:0.1;stroke:none;stroke-width:0.160734"
       id="center-3-6"
       width="6.4293656"
       height="6.4293747"
       x="96.687019"
       y="129.18805"
       ry="0.70581299" />
  </g>
</svg>
