<?xml version="1.0" encoding="UTF-8" standalone="no"?>
<svg
   viewBox="0 0 256 256"
   id="svg2"
   version="1.1"
   inkscape:version="1.2.1 (9c6d41e410, 2022-07-14)"
   sodipodi:docname="org.kde.plasma.folder.svg"
   xmlns:inkscape="http://www.inkscape.org/namespaces/inkscape"
   xmlns:sodipodi="http://sodipodi.sourceforge.net/DTD/sodipodi-0.dtd"
   xmlns:xlink="http://www.w3.org/1999/xlink"
   xmlns="http://www.w3.org/2000/svg"
   xmlns:svg="http://www.w3.org/2000/svg"
   xmlns:rdf="http://www.w3.org/1999/02/22-rdf-syntax-ns#"
   xmlns:cc="http://creativecommons.org/ns#"
   xmlns:dc="http://purl.org/dc/elements/1.1/">
  <metadata
     id="metadata10">
    <rdf:RDF>
      <cc:Work
         rdf:about="">
        <dc:format>image/svg+xml</dc:format>
        <dc:type
           rdf:resource="http://purl.org/dc/dcmitype/StillImage" />
      </cc:Work>
    </rdf:RDF>
  </metadata>
  <sodipodi:namedview
     pagecolor="#ffffff"
     bordercolor="#666666"
     borderopacity="1"
     objecttolerance="10"
     gridtolerance="10"
     guidetolerance="10"
     inkscape:pageopacity="0"
     inkscape:pageshadow="2"
     inkscape:window-width="1920"
     inkscape:window-height="1002"
     id="namedview8"
     showgrid="false"
     inkscape:zoom="1.84375"
     inkscape:cx="133.15254"
     inkscape:cy="151.86441"
     inkscape:window-x="0"
     inkscape:window-y="0"
     inkscape:window-maximized="1"
     inkscape:current-layer="svg2"
     inkscape:pagecheckerboard="0"
     showguides="false"
     inkscape:showpageshadow="2"
     inkscape:deskcolor="#d1d1d1"
     inkscape:lockguides="true" />
  <defs
     id="defs4">
    <style
       id="current-color-scheme"
       type="text/css">
      .ColorScheme-Text {
        color:#4d4d4d;
      }
      .ColorScheme-Background {
        color:#eff0f1;
      }
      .ColorScheme-Highlight {
        color:#3daee9;
      }
      .ColorScheme-ViewText {
        color:#31363b;
      }
      .ColorScheme-ViewBackground {
        color:#fcfcfc;
      }
      .ColorScheme-ViewHover {
        color:#93cee9;
      }
      .ColorScheme-ViewFocus{
        color:#3daee9;
      }
      .ColorScheme-ButtonText {
        color:#31363b;
      }
      .ColorScheme-ButtonBackground {
        color:#eff0f1;
      }
      .ColorScheme-ButtonHover {
        color:#93cee9;
      }
      .ColorScheme-ButtonFocus{
        color:#3daee9;
      }
      </style>
    <linearGradient
       id="linearGradient4172-0">
      <stop
         style="stop-color:#f89406;stop-opacity:1"
         offset="0"
         id="stop4174-4-7" />
      <stop
         style="stop-color:#faa938;stop-opacity:1"
         offset="1"
         id="stop4176-5" />
    </linearGradient>
    <linearGradient
       id="linearGradient4172-8">
      <stop
         style="stop-color:#f2cb40"
         id="stop4174-3" />
      <stop
         offset="1"
         style="stop-color:#f5d76e"
         id="stop4176-9" />
    </linearGradient>
    <linearGradient
       inkscape:collect="always"
       xlink:href="#linearGradient2230"
       id="linearGradient2232"
       x1="384.57144"
       y1="515.79797"
       x2="448.57144"
       y2="515.79797"
       gradientUnits="userSpaceOnUse"
       gradientTransform="matrix(0.78125,0,0,0.76923062,-274.44643,-322.76762)" />
    <linearGradient
       inkscape:collect="always"
       id="linearGradient2230">
      <stop
         style="stop-color:#3683b5;stop-opacity:1"
         offset="0"
         id="stop2226" />
      <stop
         style="stop-color:#00e1e1;stop-opacity:1"
         offset="0.50507295"
         id="stop2332" />
      <stop
         style="stop-color:#ff6eff;stop-opacity:1"
         offset="1"
         id="stop2228" />
    </linearGradient>
    <linearGradient
       inkscape:collect="always"
       xlink:href="#linearGradient1142"
       id="linearGradient2232-3"
       x1="384.57144"
       y1="515.79797"
       x2="448.57144"
       y2="515.79797"
       gradientUnits="userSpaceOnUse"
       gradientTransform="matrix(0.78125,0,0,0.76923062,-196.44643,-322.76762)" />
    <linearGradient
       inkscape:collect="always"
       id="linearGradient1142">
      <stop
         style="stop-color:#ff78ff;stop-opacity:1"
         offset="0"
         id="stop1136" />
      <stop
         style="stop-color:#74da81;stop-opacity:1"
         offset="0.50507295"
         id="stop1138" />
      <stop
         style="stop-color:#53adf8;stop-opacity:1"
         offset="1"
         id="stop1140" />
    </linearGradient>
    <linearGradient
       inkscape:collect="always"
       xlink:href="#linearGradient1006"
       id="linearGradient1507"
       gradientUnits="userSpaceOnUse"
       gradientTransform="matrix(0.68359377,0,0,0.67307681,-143.20722,-267.01783)"
       x1="402.77142"
       y1="519.79797"
       x2="430.20001"
       y2="519.79797" />
    <linearGradient
       inkscape:collect="always"
       id="linearGradient1006">
      <stop
         style="stop-color:#ff78ff;stop-opacity:1"
         offset="0"
         id="stop1000" />
      <stop
         style="stop-color:#abe9b3;stop-opacity:0.80000001"
         offset="0.50507295"
         id="stop1002" />
      <stop
         style="stop-color:#53adf8;stop-opacity:1"
         offset="1"
         id="stop1004" />
    </linearGradient>
    <linearGradient
       inkscape:collect="always"
       xlink:href="#linearGradient1003"
       id="linearGradient2232-35"
       x1="384.57144"
       y1="515.79797"
       x2="448.57144"
       y2="515.79797"
       gradientUnits="userSpaceOnUse"
       gradientTransform="matrix(0.78125,0,0,0.76923062,-120.44643,-322.76762)" />
    <linearGradient
       inkscape:collect="always"
       id="linearGradient1003">
      <stop
         style="stop-color:#2a80ff;stop-opacity:1"
         offset="0"
         id="stop999" />
      <stop
         style="stop-color:#00cccc;stop-opacity:0.60000002"
         offset="1"
         id="stop1001" />
    </linearGradient>
    <linearGradient
       inkscape:collect="always"
       xlink:href="#linearGradient1003"
       id="linearGradient1090"
       gradientUnits="userSpaceOnUse"
       x1="405.07144"
       y1="520.79797"
       x2="429.07147"
       y2="520.79797"
       gradientTransform="matrix(0.78125,0,0,0.76923062,-108.33703,-318.92147)" />
    <linearGradient
       inkscape:collect="always"
       xlink:href="#linearGradient955"
       id="linearGradient957"
       gradientUnits="userSpaceOnUse"
       x1="384.57144"
       y1="515.79797"
       x2="448.57144"
       y2="515.79797"
       gradientTransform="matrix(0.78125,0,0,0.76923061,-274.44643,-256.76762)" />
    <linearGradient
       inkscape:collect="always"
       id="linearGradient955">
      <stop
         style="stop-color:#fae3b0;stop-opacity:0.80000001"
         offset="0"
         id="stop949" />
      <stop
         style="stop-color:#20ffff;stop-opacity:0.80000001"
         offset="0.50507295"
         id="stop951" />
      <stop
         style="stop-color:#ffaeff;stop-opacity:0.69"
         offset="1"
         id="stop953" />
    </linearGradient>
    <linearGradient
       inkscape:collect="always"
       xlink:href="#linearGradient955"
       id="linearGradient1140"
       gradientUnits="userSpaceOnUse"
       x1="401.86566"
       y1="520.7981"
       x2="431.46234"
       y2="520.7981"
       gradientTransform="matrix(0.49493562,0,0,0.47982377,-283.99092,-301.3464)" />
    <linearGradient
       inkscape:collect="always"
       xlink:href="#linearGradient2230-0"
       id="linearGradient2232-6"
       x1="384.57144"
       y1="515.79797"
       x2="448.57144"
       y2="515.79797"
       gradientUnits="userSpaceOnUse"
       gradientTransform="matrix(0.78125,0,0,0.76923058,-196.44643,-256.7676)" />
    <linearGradient
       inkscape:collect="always"
       id="linearGradient2230-0">
      <stop
         style="stop-color:#4e99ca;stop-opacity:0.80000001"
         offset="0"
         id="stop2226-6" />
      <stop
         style="stop-color:#20ffff;stop-opacity:0.80000001"
         offset="0.50507295"
         id="stop2332-2" />
      <stop
         style="stop-color:#ffaeff;stop-opacity:0.69"
         offset="1"
         id="stop2228-6" />
    </linearGradient>
    <linearGradient
       inkscape:collect="always"
       xlink:href="#linearGradient2230-0"
       id="linearGradient1022"
       gradientUnits="userSpaceOnUse"
       gradientTransform="matrix(0.78125,0,0,0.76923058,-183.94643,-253.69068)"
       x1="404.57144"
       y1="520.79803"
       x2="428.5715"
       y2="520.79803" />
    <linearGradient
       inkscape:collect="always"
       xlink:href="#linearGradient2230-0"
       id="linearGradient2232-9"
       x1="384.57144"
       y1="515.79797"
       x2="448.57144"
       y2="515.79797"
       gradientUnits="userSpaceOnUse"
       gradientTransform="matrix(0.78125,0,0,0.76923058,-120.44643,-256.7676)" />
    <linearGradient
       inkscape:collect="always"
       xlink:href="#linearGradient2230-0"
       id="linearGradient1027"
       gradientUnits="userSpaceOnUse"
       gradientTransform="matrix(0.58592468,0,0,0.57691031,-26.80723,-149.45371)"
       x1="400.95978"
       y1="519.79797"
       x2="432.96048"
       y2="519.79797" />
    <linearGradient
       inkscape:collect="always"
       xlink:href="#linearGradient2230-9"
       id="linearGradient2232-8"
       x1="384.57144"
       y1="515.79797"
       x2="448.57144"
       y2="515.79797"
       gradientUnits="userSpaceOnUse"
       gradientTransform="matrix(0.78125,0,0,0.76923058,-274.44642,-192.7676)" />
    <linearGradient
       inkscape:collect="always"
       id="linearGradient2230-9">
      <stop
         style="stop-color:#ffd42a;stop-opacity:1"
         offset="0"
         id="stop2226-7" />
      <stop
         style="stop-color:#ffeeaa;stop-opacity:1"
         offset="0.50507295"
         id="stop2332-3" />
      <stop
         style="stop-color:#ffdd55;stop-opacity:1"
         offset="1"
         id="stop2228-61" />
    </linearGradient>
    <linearGradient
       inkscape:collect="always"
       id="linearGradient1253">
      <stop
         style="stop-color:#ff5555;stop-opacity:1"
         offset="0"
         id="stop1249" />
      <stop
         style="stop-color:#20ffff;stop-opacity:0.80000001"
         offset="0.29084808"
         id="stop1067" />
      <stop
         style="stop-color:#20ffff;stop-opacity:0.80000001"
         offset="0.62775505"
         id="stop1133" />
      <stop
         style="stop-color:#ff54ff;stop-opacity:1"
         offset="1"
         id="stop1251" />
    </linearGradient>
    <linearGradient
       inkscape:collect="always"
       xlink:href="#linearGradient2230"
       id="linearGradient8130"
       gradientUnits="userSpaceOnUse"
       gradientTransform="matrix(0.78125,0,0,0.76923062,-196.44643,-192.76762)"
       x1="384.57144"
       y1="515.79797"
       x2="448.57144"
       y2="515.79797" />
    <linearGradient
       inkscape:collect="always"
       xlink:href="#linearGradient1253"
       id="linearGradient8749"
       gradientUnits="userSpaceOnUse"
       gradientTransform="matrix(0.34615388,0,0,0.34615388,128.92316,198.92316)"
       x1="15"
       y1="31.728813"
       x2="49.789181"
       y2="31.999798" />
  </defs>
  <path
     style="fill:currentColor;fill-opacity:0.5;stroke:none"
     d="m 16,10 224,0 c 3.324,0 6,2.676 6,6 l 0,224 c 0,3.324 -2.676,6 -6,6 l -224,0 c -3.324,0 -6,-2.676 -6,-6 L 10,16 c 0,-3.324 2.676,-6 6,-6 z"
     class="ColorScheme-ButtonText"
     id="rect4240" />
  <path
     style="fill:currentColor;fill-opacity:1;stroke:none"
     d="m 16,12 224,0 c 2.216,0 4,1.784 4,4 l 0,224 c 0,2.216 -1.784,4 -4,4 l -224,0 c -2.216,0 -4,-1.784 -4,-4 L 12,16 c 0,-2.216 1.784,-4 4,-4 z"
     class="ColorScheme-Background"
     id="rect4238" />
  <path
     style="fill:currentColor;fill-opacity:1.0;stroke:none"
     class="ColorScheme-Text"
     d="m 147.75781,20.638673 -1.30273,0.0957 0,9.179687 c 0,0.50252 0.0594,0.920653 0.17578,1.253907 0.11637,0.32796 0.29574,0.579346 0.53906,0.753906 0.24333,0.17456 0.51937,0.296468 0.82617,0.365234 0.3121,0.06347 0.69801,0.0957 1.15821,0.0957 l 0.62695,0 0.0703,-0.90625 -0.35742,-0.02344 c -0.22746,-0.01587 -0.4043,-0.02846 -0.53125,-0.03906 -0.12695,-0.01587 -0.264,-0.03799 -0.41211,-0.06445 -0.14283,-0.03172 -0.25212,-0.06704 -0.32617,-0.109375 -0.0688,-0.04761 -0.13884,-0.107014 -0.21289,-0.175781 -0.0741,-0.06877 -0.12842,-0.155925 -0.16016,-0.261719 -0.0265,-0.105793 -0.0492,-0.227701 -0.0703,-0.365234 -0.0159,-0.137533 -0.0234,-0.30428 -0.0234,-0.5 l 0,-9.298828 z m 10.75,0 -1.3164,0.0957 0,2.609375 0.0625,1.912109 c -0.12696,-0.232746 -0.26148,-0.42977 -0.4043,-0.59375 -0.13753,-0.169266 -0.30681,-0.325923 -0.50781,-0.46875 -0.20102,-0.148113 -0.44035,-0.259931 -0.72071,-0.333984 -0.28035,-0.07405 -0.59871,-0.109375 -0.95312,-0.109375 -1.11084,0 -1.99195,0.396 -2.64258,1.189453 -0.64535,0.79346 -0.9668,1.831788 -0.9668,3.117188 0,1.354166 0.31136,2.431722 0.93555,3.230468 0.62947,0.793454 1.52319,1.189453 2.68164,1.189453 1.20076,0 2.0743,-0.547611 2.61914,-1.642578 l 0.11914,1.484375 1.09375,0 0,-11.679687 z m -76.019529,0.0957 0,11.583984 1.394531,0 0,-5.404297 6.03125,0 0,5.404297 1.396485,0 0,-11.583984 -1.396485,0 0,5.164063 -6.03125,0 0,-5.164063 -1.394531,0 z m 46.369139,0 0,11.583984 1.41992,0 0,-5.308593 4.69727,0 0,-1.015625 -4.69727,0 0,-4.189453 5.04688,0 0.0781,-1.070313 -6.54492,0 z m -31.626951,3.015628 c -1.232504,0 -2.200766,0.401045 -2.904297,1.205078 -0.698243,0.798747 -1.048828,1.856688 -1.048828,3.173828 0,1.2854 0.355631,2.333252 1.064453,3.142578 0.708821,0.804034 1.672038,1.205078 2.888672,1.205078 1.190186,0 2.146403,-0.403563 2.871091,-1.21289 0.7247,-0.814613 1.08789,-1.859946 1.08789,-3.134766 0,-1.31714 -0.34863,-2.375081 -1.04687,-3.173828 -0.698242,-0.804033 -1.669029,-1.205078 -2.912111,-1.205078 z m 9.464841,0 c -1.07381,0 -1.9353,0.470543 -2.58593,1.412109 l -0.1504,-1.238281 -1.06445,0 0,8.394531 1.31836,0 0,-5.117187 c 0.11108,-0.735267 0.35294,-1.325191 0.72852,-1.769531 0.38086,-0.44962 0.89371,-0.675782 1.53906,-0.675782 0.58715,0 0.99015,0.22111 1.20703,0.660157 0.21688,0.433753 0.32617,1.163246 0.32617,2.189453 l 0,4.71289 1.31641,0 0,-4.308593 c 0.0159,-0.72998 0.0456,-1.165774 0.0879,-1.308594 0.14282,-0.62948 0.41187,-1.112059 0.80859,-1.445313 0.39674,-0.333246 0.84962,-0.5 1.35742,-0.5 0.22746,0 0.42448,0.03475 0.59375,0.103516 0.17456,0.06347 0.31357,0.165201 0.41407,0.302734 0.1058,0.137534 0.19044,0.277102 0.2539,0.419922 0.0635,0.137534 0.1083,0.319415 0.13477,0.546875 0.0264,0.227454 0.0415,0.421385 0.0469,0.580078 0.0106,0.1534 0.0156,0.357422 0.0156,0.611328 l 0,4.998047 1.31836,0 0,-5.412109 c 0,-2.105307 -0.8584,-3.15625 -2.57227,-3.15625 -1.21663,0 -2.1381,0.567791 -2.76758,1.705078 -0.19572,-0.53426 -0.47428,-0.952393 -0.83398,-1.253906 -0.35971,-0.301513 -0.85743,-0.451172 -1.4922,-0.451172 z m 13.16407,0 c -1.11085,0 -2.0267,0.398519 -2.7461,1.197266 -0.7194,0.798746 -1.07812,1.869304 -1.07812,3.21289 0,1.327714 0.36629,2.38061 1.10156,3.158203 0.73527,0.772294 1.69344,1.158203 2.87305,1.158203 1.05794,0 2.00154,-0.246341 2.83203,-0.738281 l -0.27735,-0.927734 c -0.44433,0.222173 -0.84537,0.38892 -1.20507,0.5 -0.35971,0.111087 -0.76018,0.166015 -1.19922,0.166015 -0.80932,0 -1.46427,-0.256424 -1.9668,-0.769531 -0.50251,-0.518386 -0.77603,-1.310379 -0.81836,-2.378906 l 5.67383,0 0.0469,-0.667969 c 0,-1.227213 -0.27661,-2.183427 -0.83203,-2.871094 -0.55016,-0.692946 -1.35167,-1.039062 -2.40432,-1.039062 z m 20.75585,0 c -1.2325,0 -2.20076,0.401045 -2.90429,1.205078 -0.69824,0.798747 -1.04688,1.856688 -1.04688,3.173828 0,1.2854 0.35564,2.333252 1.06446,3.142578 0.70882,0.804034 1.67008,1.205078 2.88671,1.205078 1.19019,0 2.14836,-0.403563 2.87305,-1.21289 0.72469,-0.814613 1.08789,-1.859946 1.08789,-3.134766 0,-1.31714 -0.35058,-2.375081 -1.04883,-3.173828 -0.69824,-0.804033 -1.66903,-1.205078 -2.91211,-1.205078 z m 23.42383,0 c -1.11084,0 -2.02669,0.398519 -2.74609,1.197266 -0.7194,0.798746 -1.07813,1.869304 -1.07813,3.21289 0,1.327714 0.3663,2.38061 1.10157,3.158203 0.73527,0.772294 1.69344,1.158203 2.87304,1.158203 1.05794,0 2.00155,-0.246341 2.83203,-0.738281 l -0.27734,-0.927734 c -0.44434,0.222173 -0.84538,0.38892 -1.20508,0.5 -0.3597,0.111087 -0.76017,0.166015 -1.19922,0.166015 -0.80932,0 -1.46427,-0.256424 -1.96679,-0.769531 -0.50251,-0.518386 -0.77603,-1.310379 -0.81836,-2.378906 l 5.67383,0 0.0469,-0.667969 c 0,-1.227213 -0.27661,-2.183427 -0.83203,-2.871094 -0.55016,-0.692946 -1.35167,-1.039062 -2.40433,-1.039062 z m 8.88672,0.08594 c -0.50781,0 -0.99292,0.144047 -1.45312,0.429687 -0.45492,0.28036 -0.84082,0.721192 -1.15821,1.324219 l -0.14257,-1.666016 -1.05469,0 0,8.394531 1.3164,0 0,-4.751953 c 0,-0.745846 0.23373,-1.378091 0.69922,-1.896484 0.47079,-0.518393 1.06576,-0.777344 1.78516,-0.777344 0.14811,0 0.32747,0.02017 0.53906,0.0625 l 0.0566,-1.078125 c -0.1534,-0.02647 -0.34986,-0.04102 -0.58789,-0.04102 z m -75.695311,0.919921 c 0.862223,0 1.512125,0.310795 1.951172,0.929688 0.439046,0.613607 0.658203,1.432778 0.658203,2.458984 0,0.65592 -0.08968,1.23071 -0.269532,1.722657 -0.17985,0.486653 -0.471028,0.877601 -0.873046,1.173828 -0.396729,0.290933 -0.884929,0.435546 -1.466797,0.435546 -0.846354,10e-7 -1.493164,-0.306315 -1.9375,-0.919921 -0.444336,-0.613607 -0.666016,-1.420162 -0.666016,-2.419922 0,-1.020914 0.22168,-1.837565 0.666016,-2.451172 0.444336,-0.618893 1.091146,-0.929688 1.9375,-0.929688 z m 22.660151,0 c 1.33303,0 2.03224,0.905764 2.09571,2.714844 l -4.57031,0 c 0.0741,-0.835773 0.33301,-1.497722 0.77734,-1.984375 0.44963,-0.486653 1.01489,-0.730469 1.69726,-0.730469 z m 20.72461,0 c 0.86222,0 1.51408,0.310795 1.95313,0.929688 0.43905,0.613607 0.6582,1.432778 0.6582,2.458984 0,0.65592 -0.0897,1.23071 -0.26953,1.722657 -0.17985,0.486653 -0.47103,0.877601 -0.87305,1.173828 -0.39672,0.290933 -0.88688,0.435546 -1.46875,0.435546 -0.84635,10e-7 -1.4912,-0.306315 -1.93554,-0.919921 -0.44434,-0.613607 -0.66602,-1.420162 -0.66602,-2.419922 0,-1.020914 0.22168,-1.837565 0.66602,-2.451172 0.44434,-0.618893 1.08919,-0.929688 1.93554,-0.929688 z m 14.24415,0 c 0.78288,0 1.3728,0.291181 1.76953,0.873047 0.40202,0.581867 0.60156,1.442792 0.60156,2.580078 -0.005,1.042074 -0.19727,1.84611 -0.57813,2.41211 -0.38086,0.566 -1.00301,0.847656 -1.86523,0.847656 -0.81991,0 -1.42497,-0.30127 -1.81641,-0.904297 -0.38614,-0.603027 -0.58008,-1.429768 -0.58008,-2.482422 10e-6,-1.05794 0.20655,-1.876545 0.61915,-2.453125 0.41259,-0.581866 1.0297,-0.873047 1.84961,-0.873047 z m 9.21093,0 c 1.33302,0 2.03224,0.905764 2.09571,2.714844 l -4.57032,0 c 0.0741,-0.835773 0.33301,-1.497722 0.77735,-1.984375 0.44962,-0.486653 1.01489,-0.730469 1.69726,-0.730469 z"
     id="path4427" />
  <rect
     style="fill:#3b445f;fill-opacity:1;stroke:none;stroke-width:0.993637"
     id="center-3"
     width="47.73568"
     height="32.846146"
     x="27.093744"
     y="59.923065"
     ry="3.1282017"
     rx="3.1823881" />
  <path
     d="m 71.44291,58.62283 h -22.9115 c -0.50639,0 -0.94919,-0.256623 -1.26571,-0.706284 L 45.55671,55.348554 C 44.98719,54.449692 44.0376,54 43.02528,54 H 31.31637 C 28.40473,54 26,56.439938 26,59.393161 V 89.377185 C 26,91.881215 28.02555,94 30.55698,94 h 19.68364 v 0 0 0 0 0 0 0 h 1.51876 v 0 0 0 0 0 0 0 0 0 H 71.44302 C 73.91138,94 76,91.945185 76,89.377185 V 63.245498 c 0,-2.567991 -2.0251,-4.622345 -4.55698,-4.622345 z M 51.75938,94 v 0 h -1.51876 v 0 0 z m 22.72151,-4.622669 c 0,1.669223 -1.32934,3.081754 -3.03787,3.081754 H 30.55676 c -1.64547,0 -3.03788,-1.412531 -3.03788,-3.081754 l -4.5e-4,-10.337106 v -5.842829 c 0,-1.669238 1.39241,-3.081753 3.03787,-3.081753 h 22.9115 c 1.01276,0 1.96192,-0.513707 2.53143,-1.348554 l 1.64547,-2.567991 c 0.31654,-0.385169 0.75935,-0.706292 1.26571,-0.706292 h 11.77221 c 2.08861,0 3.79771,1.733676 3.79771,3.852575 v 8.410822 z M 70.68318,64.016106 h -11.7722 c -1.01277,0 -1.96193,0.5137 -2.53143,1.348546 l -1.64547,2.568 c -0.25297,0.449653 -0.75936,0.706276 -1.26571,0.706276 H 30.55703 c -1.13901,0 -2.21352,0.130515 -3.03828,1.30953 v -6.71769 c 0,-1.538462 1.60626,-3.076923 3.16876,-3.076923 h 12.50001 l 0.0335,0.03569 2.31024,-0.03569 3.06333,0.0096 h 22.9115 c 1.64546,0 3.03788,1.412523 3.03788,3.081761 v 2.375492 c -1.01233,-1.026946 -2.34122,-1.604684 -3.86033,-1.604684 z"
     id="path64"
     sodipodi:nodetypes="csccsssssccccccccccccccccccsssccccccccccssccsssccssscccsccscccccccssscc"
     style="fill:url(#linearGradient2232);fill-opacity:1;stroke-width:0.113834" />
  <rect
     style="fill:#3b445f;fill-opacity:1;stroke:none;stroke-width:0.977355"
     id="center-3-6"
     width="46.953125"
     height="32.307686"
     x="105.56261"
     y="60.153824"
     ry="3.0769193"
     rx="3.1302173" />
  <path
     d="m 149.44291,58.622829 h -22.9115 c -0.50639,0 -0.94919,-0.256622 -1.26571,-0.706284 l -1.70899,-2.567991 C 122.98719,54.449692 122.0376,54 121.02528,54 H 109.31637 C 106.40473,54 104,56.439938 104,59.393161 V 89.377185 C 104,91.881215 106.02555,94 108.55698,94 h 19.68364 v 0 0 0 0 0 0 0 h 1.51876 v 0 0 0 0 0 0 0 0 0 h 19.68364 C 151.91138,94 154,91.945185 154,89.377185 V 63.245498 c 0,-2.567991 -2.0251,-4.622345 -4.55698,-4.622345 z M 129.75938,94 v 0 h -1.51876 v 0 0 z m 22.72151,-4.622669 c 0,1.669223 -1.32934,3.081754 -3.03787,3.081754 h -40.88626 c -1.64547,0 -3.03788,-1.412531 -3.03788,-3.081754 l -4.5e-4,-10.337106 v -5.842829 c 0,-1.669238 1.39241,-3.081753 3.03787,-3.081753 h 22.9115 c 1.01276,0 1.96192,-0.513707 2.53143,-1.348554 l 1.64547,-2.567991 c 0.31654,-0.38517 0.75935,-0.706292 1.26571,-0.706292 h 11.77221 c 2.08861,0 3.79771,1.733676 3.79771,3.852575 v 8.410822 z m -3.79771,-25.361226 h -11.7722 c -1.01277,0 -1.96193,0.513701 -2.53143,1.348547 l -1.64547,2.568 c -0.25297,0.449653 -0.75936,0.706276 -1.26571,0.706276 h -22.91134 c -1.13901,0 -2.21352,0.130515 -3.03828,1.30953 v -6.717691 c 0,-1.538461 1.60626,-3.076922 3.16876,-3.076922 h 12.50001 l 0.0335,0.03569 2.31024,-0.03569 3.06333,0.0096 h 22.9115 c 1.64546,0 3.03788,1.412522 3.03788,3.081761 v 2.375492 c -1.01233,-1.026946 -2.34122,-1.604685 -3.86033,-1.604685 z"
     id="path64-7"
     sodipodi:nodetypes="csccsssssccccccccccccccccccsssccccccccccssccsssccssscccsccscccccccssscc"
     style="opacity:0.705;fill:url(#linearGradient2232-3);fill-opacity:1;stroke-width:0.113834" />
  <path
     d="m 147.94514,80.538133 h -2.34399 c -0.32307,0 -0.58541,-0.258308 -0.58541,-0.576407 0,-0.318823 0.26234,-0.576785 0.58541,-0.576785 h 2.34399 c 0.3239,0 0.58591,0.257962 0.58591,0.576785 0,0.318099 -0.26201,0.576407 -0.58591,0.576407 z m 0,2.308015 h -2.34399 c -0.32307,0 -0.58541,-0.257969 -0.58541,-0.576922 0,-0.318955 0.26234,-0.576924 0.58541,-0.576924 h 2.34399 c 0.3239,0 0.58591,0.257969 0.58591,0.576924 0,0.318953 -0.26201,0.576922 -0.58591,0.576922 z m -5.85937,3.461538 h 5.85937 c 0.3239,0 0.58591,0.2583 0.58591,0.576923 0,0.318962 -0.26201,0.577246 -0.58591,0.577246 h -5.85937 c -0.32336,0 -0.58636,-0.258284 -0.58636,-0.577246 0,-0.318623 0.263,-0.576923 0.58636,-0.576923 z m 0,-2.307369 h 5.85937 c 0.3239,0 0.58591,0.2583 0.58591,0.576393 0,0.318838 -0.26201,0.576799 -0.58591,0.576799 h -5.85937 c -0.32336,0 -0.58636,-0.257961 -0.58636,-0.576799 0,-0.318093 0.263,-0.576393 0.58636,-0.576393 z m -5.27327,-4.327184 c 0,-0.796784 0.65555,-1.442369 1.46477,-1.442369 h 4.10132 c 0.80924,0 1.46491,0.645585 1.46491,1.442369 v 0.865 1.731092 c 0,0.318954 -0.26201,0.576923 -0.58586,0.576923 -0.32402,0 -0.58602,-0.257969 -0.58602,-0.576923 v -1.731092 -0.576407 c 0,-0.318823 -0.26233,-0.576785 -0.58585,-0.576785 h -3.51579 c -0.3239,0 -0.58607,0.257962 -0.58607,0.576785 v 1.153446 c 0,0.31883 0.26217,0.57713 0.58607,0.57713 h 2.344 c 0.32323,0 0.5854,0.257969 0.5854,0.576924 0,0.318953 -0.26217,0.576922 -0.5854,0.576922 h -2.63671 c -0.80922,0 -1.46477,-0.645246 -1.46477,-1.442038 z m 0.58544,6.634553 h 2.34408 c 0.32381,0 0.58597,0.2583 0.58597,0.576923 0,0.318962 -0.2622,0.577246 -0.58597,0.577246 h -2.34408 c -0.32324,0 -0.5854,-0.258284 -0.5854,-0.577246 -4e-5,-0.318623 0.26216,-0.576923 0.5854,-0.576923 z m 0,-2.307369 h 2.34408 c 0.32381,0 0.58597,0.2583 0.58597,0.576393 0,0.318838 -0.2622,0.576799 -0.58597,0.576799 h -2.34408 c -0.32324,0 -0.5854,-0.257961 -0.5854,-0.576799 -4e-5,-0.318093 0.26216,-0.576393 0.5854,-0.576393 z m 11.13311,6.922753 h -10.54714 -1.17141 -1.17205 c -1.94156,0 -3.51562,-1.549847 -3.51562,-3.461215 v -4.038577 c 0,-0.31883 0.26216,-0.57713 0.58597,-0.57713 0.32323,0 0.5854,0.2583 0.5854,0.57713 v 0.577039 0.576393 2.885145 c 0,1.274445 1.04966,2.307369 2.34425,2.307369 h 1.46475 2.05071 9.08205 c 0.80925,0 1.46461,-0.645585 1.46461,-1.442369 V 77.365772 c 0,-0.797123 -0.65536,-1.442369 -1.46461,-1.442369 h -11.13273 c -0.80923,0 -1.46474,0.645246 -1.46474,1.442369 v 3.7494 0.57713 5.192307 c 0,0.318962 -0.26233,0.577246 -0.58597,0.577246 -0.3239,0 -0.58622,-0.258284 -0.58622,-0.577246 v -3.461331 -1.701691 -1.183415 -0.288238 -3.173338 c -5e-5,-1.274447 1.04965,-2.307369 2.3442,-2.307369 h 11.71855 c 1.29472,0 2.34378,1.032922 2.34378,2.307369 v 11.538451 c 0,1.274838 -1.04906,2.308023 -2.34378,2.308023 z M 132.7108,81.692302 c -0.32381,0 -0.58597,-0.2583 -0.58597,-0.57713 0,-0.318093 0.26216,-0.577039 0.58597,-0.577039 0.32323,0 0.5854,0.258946 0.5854,0.577039 0,0.31883 -0.26217,0.57713 -0.5854,0.57713 z"
     id="path2-3-7-5"
     style="opacity:0.708;fill:url(#linearGradient1507);fill-opacity:1;stroke-width:0.0363386" />
  <rect
     style="fill:#3b445f;fill-opacity:1;stroke:none;stroke-width:0.980145"
     id="center-3-62"
     width="47.109375"
     height="32.384609"
     x="181.48451"
     y="60.076946"
     ry="3.0842452"
     rx="3.1406338" />
  <path
     d="m 225.44291,58.622829 h -22.9115 c -0.50639,0 -0.94919,-0.256622 -1.26571,-0.706284 l -1.70899,-2.567991 C 198.98719,54.449692 198.0376,54 197.02528,54 H 185.31637 C 182.40473,54 180,56.439937 180,59.393161 V 89.377185 C 180,91.881215 182.02555,94 184.55698,94 h 19.68364 v 0 0 0 0 0 0 0 h 1.51876 v 0 0 0 0 0 0 0 0 0 h 19.68364 C 227.91138,94 230,91.945185 230,89.377185 V 63.245498 c 0,-2.567991 -2.0251,-4.622345 -4.55698,-4.622345 z M 205.75938,94 v 0 h -1.51876 v 0 0 z m 22.72151,-4.622669 c 0,1.669223 -1.32934,3.081754 -3.03787,3.081754 h -40.88626 c -1.64547,0 -3.03788,-1.412531 -3.03788,-3.081754 l -4.5e-4,-10.337106 v -5.842829 c 0,-1.669238 1.39241,-3.081753 3.03787,-3.081753 h 22.9115 c 1.01276,0 1.96192,-0.513707 2.53143,-1.348554 l 1.64547,-2.567991 c 0.31654,-0.38517 0.75935,-0.706292 1.26571,-0.706292 h 11.77221 c 2.08861,0 3.79771,1.733676 3.79771,3.852575 v 8.410822 z m -3.79771,-25.361226 h -11.7722 c -1.01277,0 -1.96193,0.513701 -2.53143,1.348547 l -1.64547,2.568 c -0.25297,0.449653 -0.75936,0.706276 -1.26571,0.706276 h -22.91134 c -1.13901,0 -2.21352,0.130515 -3.03828,1.30953 v -6.717691 c 0,-1.538461 1.60626,-3.076922 3.16876,-3.076922 h 12.50001 l 0.0335,0.03569 2.31024,-0.03569 3.06333,0.0096 h 22.9115 c 1.64546,0 3.03788,1.412522 3.03788,3.081761 v 2.375492 c -1.01233,-1.026946 -2.34122,-1.604685 -3.86033,-1.604685 z"
     id="path64-9"
     sodipodi:nodetypes="csccsssssccccccccccccccccccsssccccccccccssccsssccssscccsccscccccccssscc"
     style="fill:url(#linearGradient2232-35);fill-opacity:1;stroke-width:0.113834" />
  <path
     fill-rule="evenodd"
     clip-rule="evenodd"
     d="m 221.01426,77.653841 c 0,-0.318607 0.26228,-0.576922 0.58571,-0.576922 0.32348,0 0.58572,0.258315 0.58572,0.576922 0,0.318608 -0.26224,0.576923 -0.58572,0.576923 -0.32343,0 -0.58571,-0.258315 -0.58571,-0.576923 z m 5.18305,5.67036 -7.04073,6.934899 c -0.45744,0.450724 -1.057,0.66397 -1.6566,0.66397 -0.59959,0 -1.19919,-0.213246 -1.65662,-0.66397 l -7.04088,-6.934899 c -0.48989,-0.482845 -0.7087,-1.125399 -0.67391,-1.757268 v 0.125369 c 0,-1.274423 1.04887,-2.307692 2.34284,-2.307692 h 1.17143 c 0.64695,0 1.17144,-0.516638 1.17144,-1.153846 v -3.461537 c 0,-1.274423 1.0489,-2.307692 2.34287,-2.307692 h 4.68574 c 1.29383,0 2.34288,1.033269 2.34288,2.307692 v 0.576922 c 0,0.318608 -0.26225,0.576924 -0.58572,0.576924 -0.32344,0 -0.58572,-0.258316 -0.58572,-0.576924 v -0.576922 c 0,-0.637216 -0.52449,-1.153846 -1.1714,-1.153846 h -4.68581 c -0.64692,0 -1.17144,0.51663 -1.17144,1.153846 v 3.461537 c 0,1.274423 -1.04887,2.307692 -2.34288,2.307692 h -1.17139 c -0.64691,0 -1.1714,0.516631 -1.1714,1.153846 0,0 -0.005,0.0023 -0.0117,0.0046 7.8e-4,0.2938 0.11495,0.587347 0.34259,0.8113 l 7.04074,6.935191 c 0.45758,0.450723 1.19915,0.450723 1.65677,0 l 7.04074,-6.935191 c 0.22764,-0.224246 0.34175,-0.517754 0.34259,-0.811876 -0.007,-0.0023 -0.0117,-0.0038 -0.0117,-0.0038 0,-0.637215 -0.52449,-1.153846 -1.1714,-1.153846 h -0.58572 c -0.32347,0 -0.58572,-0.258315 -0.58572,-0.576922 0,-0.318608 0.26225,-0.576924 0.58572,-0.576924 h 0.58572 c 1.29382,0 2.34287,1.033269 2.34287,2.307692 v -0.125369 c 0.0348,0.631869 -0.18424,1.274423 -0.67416,1.757269 z"
     id="path2-7"
     style="fill:url(#linearGradient1090);fill-opacity:1;stroke-width:0.0363383" />
  <rect
     style="fill:#3b445f;fill-opacity:1;stroke:none;stroke-width:0.978167"
     id="center-3-0"
     width="47.03125"
     height="32.30769"
     x="27.484392"
     y="126.15384"
     ry="3.0769193"
     rx="3.1354256" />
  <path
     d="m 71.44291,124.62283 h -22.9115 c -0.50639,0 -0.94919,-0.25663 -1.26571,-0.70629 l -1.70899,-2.56799 C 44.98719,120.44969 44.0376,120 43.02528,120 H 31.31637 C 28.40473,120 26,122.43993 26,125.39316 v 29.98402 C 26,157.88121 28.02555,160 30.55698,160 h 19.68364 v 0 0 0 0 0 0 0 h 1.51876 v 0 0 0 0 0 0 0 0 0 H 71.44302 C 73.91138,160 76,157.94518 76,155.37718 v -26.13169 c 0,-2.56799 -2.0251,-4.62234 -4.55698,-4.62234 z M 51.75938,160 v 0 h -1.51876 v 0 0 z m 22.72151,-4.62267 c 0,1.66922 -1.32934,3.08175 -3.03787,3.08175 H 30.55676 c -1.64547,0 -3.03788,-1.41253 -3.03788,-3.08175 l -4.5e-4,-10.33711 v -5.84282 c 0,-1.66924 1.39241,-3.08176 3.03787,-3.08176 h 22.9115 c 1.01276,0 1.96192,-0.51371 2.53143,-1.34856 l 1.64547,-2.56799 c 0.31654,-0.38517 0.75935,-0.70629 1.26571,-0.70629 h 11.77221 c 2.08861,0 3.79771,1.73368 3.79771,3.85258 v 8.41082 z M 70.68318,130.0161 h -11.7722 c -1.01277,0 -1.96193,0.5137 -2.53143,1.34855 l -1.64547,2.568 c -0.25297,0.44965 -0.75936,0.70628 -1.26571,0.70628 H 30.55703 c -1.13901,0 -2.21352,0.13051 -3.03828,1.30953 v -6.7177 c 0,-1.53846 1.60626,-3.07692 3.16876,-3.07692 h 12.50001 l 0.0335,0.0357 2.31024,-0.0357 3.06333,0.01 h 22.9115 c 1.64546,0 3.03788,1.41252 3.03788,3.08176 v 2.37549 c -1.01233,-1.02695 -2.34122,-1.60468 -3.86033,-1.60468 z"
     id="path64-93"
     sodipodi:nodetypes="csccsssssccccccccccccccccccsssccccccccccssccsssccssscccsccscccccccssscc"
     style="fill:url(#linearGradient957);fill-opacity:1;stroke-width:0.113834" />
  <path
     d="m 69.93248,146.39346 c -0.96914,0 -1.75464,-0.77342 -1.75464,-1.72708 0,-0.318 0.26211,-0.57611 0.58507,-0.57611 0.32323,0 0.58449,0.25811 0.58449,0.57608 0,0.31741 0.26213,0.5755 0.58508,0.5755 0.32324,0 0.58449,0.2581 0.58449,0.5755 0,0.31802 -0.26125,0.57611 -0.58449,0.57611 z m -1.16957,7.48519 c 0,0.31826 -0.26214,0.57636 -0.58507,0.57636 -0.32237,0 -0.5845,-0.2581 -0.5845,-0.57636 0,-0.31827 0.26213,-0.57522 0.5845,-0.57522 0.32293,0 0.58507,0.25695 0.58507,0.57522 z m -1.9965,-4.84434 -0.36377,0.35736 c -0.22814,0.22478 -0.59791,0.22478 -0.82692,0 -0.22815,-0.22463 -0.22815,-0.58957 0,-0.8142 l 0.36376,-0.35764 c 0.91374,-0.89938 2.39427,-0.89938 3.30771,0 l 1.2404,1.22175 c 0.22901,0.22434 0.22901,0.58929 0,0.8142 -0.22814,0.22435 -0.5985,0.22435 -0.82693,0 l -1.2404,-1.22143 c -0.45628,-0.45015 -1.19757,-0.45015 -1.65385,-4e-5 z m 3.75056,7.72332 H 56.48241 c -1.29179,0 -2.33914,-1.0307 -2.33914,-2.30262 v -1.72794 c 0,-0.31827 0.26213,-0.57521 0.58508,-0.57521 0.32236,0 0.58449,0.25698 0.58449,0.57521 v 1.72794 c 0,0.63542 0.52339,1.15104 1.16957,1.15104 h 14.03456 c 0.64619,0 1.16958,-0.51562 1.16958,-1.15104 v -10.36474 c 0,-0.63624 -0.52339,-1.15157 -1.16958,-1.15157 H 56.48241 c -0.64618,0 -1.16957,0.51533 -1.16957,1.15157 v 5.55989 c 0,0.15914 0.13107,0.28789 0.2921,0.28789 0.0754,0 0.14079,-0.0281 0.19361,-0.0742 l 2.83112,-2.78746 c 0.91344,-0.89941 2.39426,-0.89941 3.30769,0 l 4.92386,4.84829 c 0.11765,0.10515 0.19301,0.25582 0.19301,0.42508 0,0.3171 -0.26154,0.57521 -0.58449,0.57521 -0.17788,0 -0.33522,-0.0793 -0.44202,-0.20244 l -0.005,0.005 -4.91187,-4.83643 c -0.45628,-0.44927 -1.19756,-0.44927 -1.65384,0 l -2.83486,2.79138 c -0.26355,0.25133 -0.62134,0.40766 -1.0168,0.40766 -0.80724,1e-5 -1.46169,-0.64437 -1.46169,-1.43947 v -5.55988 c 0,-1.27192 1.04735,-2.30315 2.33914,-2.30315 h 14.03456 c 1.29238,0 2.33943,1.03127 2.33943,2.30315 v 10.36469 c 0,1.27195 -1.04705,2.30265 -2.33943,2.30265 z"
     id="path2-36-7"
     style="fill:url(#linearGradient1140);fill-opacity:1;stroke:url(#linearGradient1140);stroke-width:0.0362669" />
  <rect
     style="fill:#3b445f;fill-opacity:1;stroke:none;stroke-width:0.977355"
     id="center-3-1"
     width="46.953125"
     height="32.307686"
     x="105.56252"
     y="126.1538"
     ry="3.0769193"
     rx="3.1302173" />
  <path
     d="m 149.44291,124.62283 h -22.9115 c -0.50639,0 -0.94919,-0.25662 -1.26571,-0.70628 l -1.70899,-2.568 C 122.98719,120.44969 122.0376,120 121.02528,120 H 109.31637 C 106.40473,120 104,122.43994 104,125.39316 v 29.98402 c 0,2.50404 2.02555,4.62282 4.55698,4.62282 h 19.68364 v 0 0 0 0 0 0 0 h 1.51876 v 0 0 0 0 0 0 0 0 0 h 19.68364 C 151.91138,160 154,157.94519 154,155.37718 V 129.2455 c 0,-2.56799 -2.0251,-4.62235 -4.55698,-4.62235 z M 129.75938,160 v 0 h -1.51876 v 0 0 z m 22.72151,-4.62267 c 0,1.66922 -1.32934,3.08176 -3.03787,3.08176 h -40.88626 c -1.64547,0 -3.03788,-1.41254 -3.03788,-3.08176 l -4.5e-4,-10.33711 v -5.84282 c 0,-1.66924 1.39241,-3.08176 3.03787,-3.08176 h 22.9115 c 1.01276,0 1.96192,-0.5137 2.53143,-1.34855 l 1.64547,-2.56799 c 0.31654,-0.38517 0.75935,-0.70629 1.26571,-0.70629 h 11.77221 c 2.08861,0 3.79771,1.73367 3.79771,3.85257 v 8.41082 z m -3.79771,-25.36122 h -11.7722 c -1.01277,0 -1.96193,0.5137 -2.53143,1.34854 l -1.64547,2.568 c -0.25297,0.44965 -0.75936,0.70628 -1.26571,0.70628 h -22.91134 c -1.13901,0 -2.21352,0.13051 -3.03828,1.30953 v -6.71769 c 0,-1.53846 1.60626,-3.07692 3.16876,-3.07692 h 12.50001 l 0.0335,0.0357 2.31024,-0.0357 3.06333,0.01 h 22.9115 c 1.64546,0 3.03788,1.41252 3.03788,3.08176 v 2.37549 c -1.01233,-1.02695 -2.34122,-1.60469 -3.86033,-1.60469 z"
     id="path64-8"
     sodipodi:nodetypes="csccsssssccccccccccccccccccsssccccccccccssccsssccssscccsccscccccccssscc"
     style="fill:url(#linearGradient2232-6);fill-opacity:1;stroke-width:0.113834" />
  <path
     d="m 147.35909,155.00003 c -1.9415,0 -3.51504,-1.54908 -3.51504,-3.46097 0,-1.91167 1.57357,-3.46157 3.51504,-3.46157 0.32388,0 0.58653,0.25773 0.58653,0.57634 0,0.31889 -0.26265,0.5775 -0.58653,0.5775 -1.29404,0 -2.34375,1.03272 -2.34375,2.30773 0,1.27413 1.04971,2.30712 2.34375,2.30712 1.29493,0 2.34404,-1.03299 2.34404,-2.30712 v -2.57449 -1.17555 -2.59687 c 0,-0.31803 0.26236,-0.57668 0.58624,-0.57668 0.32358,0 0.58564,0.25861 0.58564,0.57668 v 6.34691 c 0,1.91189 -1.57412,3.46097 -3.51592,3.46097 z m 1.90489,-11.17497 -9.52494,1.88797 c -0.33358,0.069 -0.58249,0.35748 -0.58249,0.70511 v 6.2748 c 0,1.91185 -1.57416,3.46093 -3.51592,3.46093 -1.94151,0 -3.51563,-1.54908 -3.51563,-3.46096 0,-0.95553 0.39397,-1.82096 1.02997,-2.44746 l 0.002,0.002 c 0.10558,-0.10478 0.25291,-0.16929 0.41426,-0.16929 0.32388,0 0.58652,0.25861 0.58652,0.57721 0,0.16648 -0.0732,0.3158 -0.18882,0.42115 -0.41513,0.41553 -0.67232,0.98626 -0.67232,1.61615 0,1.27439 1.04971,2.30712 2.34375,2.30712 1.29434,0 2.34404,-1.03273 2.34404,-2.30712 v -2.57452 -0.88709 -2.75012 c 0,-0.90877 0.65633,-1.66655 1.52864,-1.83812 l 7.8e-4,-7.7e-4 0.19542,-0.0408 c 0.0114,-0.002 0.0212,-0.002 0.0326,-0.004 l 9.3753,-1.98318 c 0.32359,-0.0699 0.58564,-0.3848 0.58564,-0.7037 v -2.59586 c 0,-0.3189 -0.26205,-0.52031 -0.58564,-0.45101 l -9.3753,1.98375 c -0.32388,0.069 -0.58564,0.38423 -0.58564,0.70284 v 1.33442 c 0,0.31803 -0.26265,0.57663 -0.58653,0.57663 -0.32358,0 -0.58535,-0.2586 -0.58535,-0.57663 v -1.39893 c 0,-0.84202 0.72125,-1.66741 1.61104,-1.84431 l 9.66827,-1.91611 c 0.88949,-0.17607 1.61103,0.36338 1.61103,1.20595 v 3.04915 c 0,0.84255 -0.72154,1.66825 -1.61103,1.84431 z m -13.62335,6.56012 c -0.32359,0 -0.58623,-0.25861 -0.58623,-0.57722 0,-0.31889 0.26264,-0.57663 0.58623,-0.57663 0.32388,0 0.58564,0.25774 0.58564,0.57663 0,0.31861 -0.26176,0.57722 -0.58564,0.57722 z"
     id="path2-7-7"
     style="fill:url(#linearGradient1022);fill-opacity:1;stroke-width:0.0363383" />
  <rect
     style="fill:#3b445f;fill-opacity:1;stroke:none;stroke-width:0.977355"
     id="center-3-5"
     width="46.953125"
     height="32.307686"
     x="181.5625"
     y="126.15384"
     ry="3.0769193"
     rx="3.1302173" />
  <path
     d="m 225.44291,124.62283 h -22.9115 c -0.50639,0 -0.94919,-0.25662 -1.26571,-0.70629 l -1.70899,-2.56799 C 198.98719,120.4497 198.0376,120 197.02528,120 H 185.31637 C 182.40473,120 180,122.43994 180,125.39316 v 29.98402 c 0,2.50404 2.02555,4.62282 4.55698,4.62282 h 19.68364 v 0 0 0 0 0 0 0 h 1.51876 v 0 0 0 0 0 0 0 0 0 h 19.68364 C 227.91138,160 230,157.94519 230,155.37718 V 129.2455 c 0,-2.568 -2.0251,-4.62235 -4.55698,-4.62235 z M 205.75938,160 v 0 h -1.51876 v 0 0 z m 22.72151,-4.62267 c 0,1.66922 -1.32934,3.08176 -3.03787,3.08176 h -40.88626 c -1.64547,0 -3.03788,-1.41254 -3.03788,-3.08176 l -4.5e-4,-10.33711 v -5.84282 c 0,-1.66924 1.39241,-3.08176 3.03787,-3.08176 h 22.9115 c 1.01276,0 1.96192,-0.5137 2.53143,-1.34855 l 1.64547,-2.56799 c 0.31654,-0.38518 0.75935,-0.7063 1.26571,-0.7063 h 11.77221 c 2.08861,0 3.79771,1.73368 3.79771,3.85258 v 8.41082 z m -3.79771,-25.36122 h -11.7722 c -1.01277,0 -1.96193,0.5137 -2.53143,1.34854 l -1.64547,2.568 c -0.25297,0.44965 -0.75936,0.70627 -1.26571,0.70627 h -22.91134 c -1.13901,0 -2.21352,0.13052 -3.03828,1.30954 v -6.71769 c 0,-1.53846 1.60626,-3.07693 3.16876,-3.07693 h 12.50001 l 0.0335,0.0358 2.31024,-0.0358 3.06333,0.01 h 22.9115 c 1.64546,0 3.03788,1.41252 3.03788,3.08176 v 2.37549 c -1.01233,-1.02694 -2.34122,-1.60469 -3.86033,-1.60469 z"
     id="path64-92"
     sodipodi:nodetypes="csccsssssccccccccccccccccccsssccccccccccssccsssccssscccsccscccccccssscc"
     style="fill:url(#linearGradient2232-9);fill-opacity:1;stroke-width:0.113834" />
  <path
     d="m 212.22646,148.69226 c -0.32358,0 -0.58587,-0.25837 -0.58587,-0.57698 0,-0.31859 0.26229,-0.57685 0.58587,-0.57685 0.32359,0 0.58599,0.25826 0.58599,0.57685 0,0.31861 -0.2624,0.57698 -0.58599,0.57698 z m 3.51559,0 h -1.17186 c -0.32358,0 -0.58589,-0.25837 -0.58589,-0.57698 0,-0.31859 0.26231,-0.57685 0.58589,-0.57685 h 1.46485 c 0.80906,0 1.46475,0.6456 1.46475,1.44221 v 2.88463 c 0,0.79661 -0.65569,1.44222 -1.46475,1.44222 h -2.9297 c -0.80906,0 -1.46475,-0.64561 -1.46475,-1.44222 v -1.44232 c 0,-0.3186 0.26229,-0.57686 0.58587,-0.57686 0.32359,0 0.58599,0.25826 0.58599,0.57686 v 1.15383 c 0,0.31861 0.2623,0.57688 0.58588,0.57688 h 2.34372 c 0.32358,0 0.58589,-0.25827 0.58589,-0.57688 v -2.30766 c 0,-0.3186 -0.26231,-0.57686 -0.58589,-0.57686 z m 9.37479,6.92289 c -0.12182,0 -0.24024,-0.0124 -0.35479,-0.0352 -0.44085,-0.0654 -0.86428,-0.25554 -1.21647,-0.56705 -0.15648,-0.10343 -0.25971,-0.27915 -0.25971,-0.47922 0,-0.31861 0.26231,-0.57687 0.58589,-0.57687 0.16189,0 0.30752,0.0648 0.41429,0.16905 0.19824,0.19205 0.4486,0.29631 0.70636,0.32196 0.0399,0.008 0.0818,0.0139 0.12439,0.0139 0.32359,0 0.58599,-0.25828 0.58599,-0.57687 v -6.92302 c 0,-0.31862 -0.2624,-0.57687 -0.58599,-0.57687 v -0.007 c -0.30349,-0.002 -0.60793,0.11212 -0.83964,0.34031 l -2.92279,2.87771 c -0.24972,0.246 -0.35961,0.57446 -0.33903,0.89638 v 2.04342 1.9254 c 0,1.27441 -1.0494,2.30768 -2.34373,2.30768 h -8.20288 c -1.29432,2e-5 -2.34373,-1.03324 -2.34373,-2.30765 v -8.07672 c 0,-1.2744 1.04941,-2.30767 2.34373,-2.30767 h 8.20292 c 1.29433,0 2.34372,1.03327 2.34372,2.30767 v 0.57687 c 0,0.31859 -0.26235,0.57697 -0.58589,0.57697 -0.32357,0 -0.58596,-0.25838 -0.58596,-0.57697 v -0.57687 c 0,-0.6372 -0.52471,-1.15384 -1.17187,-1.15384 h -8.20292 c -0.64717,0 -1.17187,0.51664 -1.17187,1.15384 v 8.07672 c 0,0.63722 0.5247,1.15384 1.17187,1.15384 h 8.20292 c 0.64716,0 1.17187,-0.51662 1.17187,-1.15384 v -4.03836 h 0.002 c 0,-0.5938 0.23038,-1.18734 0.6898,-1.64033 l 2.91559,-2.87074 c 0.3697,-0.3631 0.8312,-0.57351 1.31121,-0.64561 0.11441,-0.0229 0.23288,-0.0353 0.3548,-0.0353 0.97079,0 1.75774,0.77489 1.75774,1.7307 v 6.92298 c -4e-5,0.95575 -0.787,1.73067 -1.75778,1.73067 z m -2.63661,-3.17302 c 0.32358,0 0.58588,0.25838 0.58588,0.57698 0,0.3186 -0.2623,0.57686 -0.58588,0.57686 -0.32357,0 -0.58599,-0.25826 -0.58599,-0.57686 0,-0.3186 0.26242,-0.57698 0.58599,-0.57698 z"
     id="path2-3-7-2"
     style="fill:url(#linearGradient1027);fill-opacity:1;stroke-width:0.0363375" />
  <rect
     style="fill:#3b445f;fill-opacity:1;stroke:none;stroke-width:0.978169"
     id="center-3-2"
     width="47.03125"
     height="32.307686"
     x="27.484392"
     y="190.1537"
     ry="3.0769193"
     rx="3.1354256" />
  <path
     d="m 71.442922,188.62283 h -22.9115 c -0.50639,0 -0.94919,-0.25662 -1.26571,-0.70628 l -1.70899,-2.568 C 44.987202,184.44969 44.037612,184 43.025292,184 h -11.70891 c -2.91164,0 -5.31637,2.43994 -5.31637,5.39316 v 29.98402 c 0,2.50404 2.02555,4.62282 4.55698,4.62282 h 19.68364 v 0 0 0 0 0 0 0 h 1.51876 v 0 0 0 0 0 0 0 0 0 h 19.68364 c 2.46836,0 4.55698,-2.05481 4.55698,-4.62282 V 193.2455 c 0,-2.56799 -2.0251,-4.62235 -4.55698,-4.62235 z M 51.759392,224 v 0 h -1.51876 v 0 0 z m 22.72151,-4.62267 c 0,1.66922 -1.32934,3.08176 -3.03787,3.08176 h -40.88626 c -1.64547,0 -3.03788,-1.41254 -3.03788,-3.08176 l -4.5e-4,-10.33711 v -5.84283 c 0,-1.66923 1.39241,-3.08175 3.03787,-3.08175 h 22.9115 c 1.01276,0 1.96192,-0.51371 2.53143,-1.34855 l 1.64547,-2.56799 c 0.31654,-0.38517 0.75935,-0.7063 1.26571,-0.7063 h 11.77221 c 2.08861,0 3.79771,1.73368 3.79771,3.85258 v 8.41082 z m -3.79771,-25.36123 h -11.7722 c -1.01277,0 -1.96193,0.5137 -2.53143,1.34855 l -1.64547,2.568 c -0.25297,0.44965 -0.75936,0.70628 -1.26571,0.70628 h -22.91134 c -1.13901,0 -2.21352,0.13051 -3.03828,1.30953 v -6.71769 c 0,-1.53846 1.60626,-3.07693 3.16876,-3.07693 h 12.50001 l 0.0335,0.0357 2.31024,-0.0357 3.06333,0.01 h 22.9115 c 1.64546,0 3.03788,1.41253 3.03788,3.08177 v 2.37549 c -1.01233,-1.02695 -2.34122,-1.60469 -3.86033,-1.60469 z"
     id="path64-931"
     sodipodi:nodetypes="csccsssssccccccccccccccccccsssccccccccccssccsssccssscccsccscccccccssscc"
     style="fill:url(#linearGradient2232-8);fill-opacity:1;stroke-width:0.113834" />
  <rect
     style="fill:#3b445f;fill-opacity:1;stroke:none;stroke-width:0.993637"
     id="center-3-4"
     width="47.73568"
     height="32.846146"
     x="105.09375"
     y="189.92307"
     ry="3.1282017"
     rx="3.1823881" />
  <path
     d="m 149.44291,188.62283 h -22.9115 c -0.50639,0 -0.94919,-0.25662 -1.26571,-0.70628 l -1.70899,-2.568 C 122.98719,184.44969 122.0376,184 121.02528,184 H 109.31637 C 106.40473,184 104,186.43994 104,189.39316 v 29.98402 c 0,2.50403 2.02555,4.62282 4.55698,4.62282 h 19.68364 v 0 0 0 0 0 0 0 h 1.51876 v 0 0 0 0 0 0 0 0 0 h 19.68364 C 151.91138,224 154,221.94518 154,219.37718 V 193.2455 c 0,-2.56799 -2.0251,-4.62235 -4.55698,-4.62235 z M 129.75938,224 v 0 h -1.51876 v 0 0 z m 22.72151,-4.62267 c 0,1.66922 -1.32934,3.08176 -3.03787,3.08176 h -40.88626 c -1.64547,0 -3.03788,-1.41254 -3.03788,-3.08176 l -4.5e-4,-10.33711 v -5.84282 c 0,-1.66924 1.39241,-3.08176 3.03787,-3.08176 h 22.9115 c 1.01276,0 1.96192,-0.5137 2.53143,-1.34855 l 1.64547,-2.56799 c 0.31654,-0.38517 0.75935,-0.70629 1.26571,-0.70629 h 11.77221 c 2.08861,0 3.79771,1.73367 3.79771,3.85257 v 8.41082 z m -3.79771,-25.36122 h -11.7722 c -1.01277,0 -1.96193,0.5137 -2.53143,1.34854 l -1.64547,2.568 c -0.25297,0.44965 -0.75936,0.70628 -1.26571,0.70628 h -22.91134 c -1.13901,0 -2.21352,0.13051 -3.03828,1.30953 v -6.71769 c 0,-1.53846 1.60626,-3.07693 3.16876,-3.07693 h 12.50001 l 0.0335,0.0357 2.31024,-0.0357 3.06333,0.01 h 22.9115 c 1.64546,0 3.03788,1.41253 3.03788,3.08177 v 2.37549 c -1.01233,-1.02695 -2.34122,-1.60469 -3.86033,-1.60469 z"
     id="path64-5"
     sodipodi:nodetypes="csccsssssccccccccccccccccccsssccccccccccssccsssccssscccsccscccccccssscc"
     style="fill:url(#linearGradient8130);fill-opacity:1;stroke-width:0.113834" />
  <rect
     style="fill:#3b445f;fill-opacity:1;stroke:none;stroke-width:0.3129"
     id="center-3-9-0"
     width="12.461543"
     height="12.47669"
     x="205.56914"
     y="-146.75011"
     ry="2.0645392"
     rx="1.5131432"
     transform="rotate(90)" />
  <path
     d="m 137.7367,215.0625 v -5.625 c 0,-0.31098 0.25135,-0.56259 0.56153,-0.56259 0.31021,0 0.56147,0.25161 0.56147,0.56259 v 5.625 c 0,0.31036 -0.25126,0.56255 -0.56147,0.56255 -0.31018,0 -0.56153,-0.25219 -0.56153,-0.56255 z m 3.92977,-1.68745 c -0.31017,0 -0.56135,-0.25219 -0.56135,-0.56255 v -3.375 c 0,-0.31098 0.25118,-0.56259 0.56135,-0.56259 0.31038,0 0.56148,0.25161 0.56148,0.56259 v 3.375 c 0,0.31036 -0.2511,0.56255 -0.56148,0.56255 z m 0,2.25 c -0.31017,0 -0.56135,-0.25219 -0.56135,-0.56255 0,-0.31095 0.25118,-0.56245 0.56135,-0.56245 0.31038,0 0.56148,0.2515 0.56148,0.56245 0,0.31036 -0.2511,0.56255 -0.56148,0.56255 z m 4.49133,-5.62514 c -0.31035,0 -0.56135,-0.25146 -0.56135,-0.56241 0,-0.31098 0.251,-0.56259 0.56135,-0.56259 0.31034,0 0.56139,0.25161 0.56139,0.56259 0,0.31095 -0.25105,0.56241 -0.56139,0.56241 z m 0.56139,-3.37495 h -0.30242 -2.22384 -0.28102 -8.14012 c -0.77521,0 -1.40333,0.62951 -1.40333,1.40629 v 0.28096 2.25029 5.90625 c 0,0.77673 0.62812,1.40624 1.40333,1.40624 h 8.42114 c 0.77522,0 1.40352,-0.62951 1.40352,-1.40624 v -4.78125 c 0,-0.31095 0.251,-0.56241 0.56135,-0.56241 0.31034,0 0.56139,0.25146 0.56139,0.56241 v 5.06249 c 0,1.24259 -1.00549,2.25001 -2.24555,2.25001 h -8.98219 c -1.24026,0 -2.24601,-1.00742 -2.24601,-2.25001 v -6.18749 -2.25029 -0.56189 c 0,-1.2429 1.00575,-2.25032 2.24601,-2.25032 h 0.5607 8.42149 2.24555 c 0.62021,0 1.12251,-0.50364 1.12251,-1.12535 0,-0.621 -0.5023,-1.12465 -1.12251,-1.12465 h -4.21051 c -0.62003,0 -0.78324,-1.125 -1.40356,-1.125 h -2.24542 c -0.62047,0 -0.78355,1.125 -1.40347,1.125 h -4.21079 c -0.61978,0 -1.12314,0.50365 -1.12314,1.12465 0,0.3108 -0.25114,0.56285 -0.56077,0.56285 -0.31039,0 -0.56153,-0.25205 -0.56153,-0.56285 0,-1.24223 1.00509,-2.24965 2.24544,-2.24965 h 3.08789 c 0.61983,0 0.78362,-1.125 1.40333,-1.125 h 4.49127 c 0.62012,0 0.78381,1.125 1.40357,1.125 h 3.08764 c 1.24045,0 2.24576,1.00742 2.24576,2.2496 0,1.24294 -1.00527,2.25036 -2.24571,2.25036 z"
     id="path2-3-6"
     style="fill:url(#linearGradient8749);fill-opacity:1;stroke-width:0.0351568" />
</svg>
