<?xml version="1.0" encoding="UTF-8" standalone="no"?>
<svg
   width="64"
   version="1.1"
   height="64"
   id="svg15"
   sodipodi:docname="folder-podcast.svg"
   inkscape:version="1.1.1 (3bf5ae0d25, 2021-09-20)"
   xmlns:inkscape="http://www.inkscape.org/namespaces/inkscape"
   xmlns:sodipodi="http://sodipodi.sourceforge.net/DTD/sodipodi-0.dtd"
   xmlns:xlink="http://www.w3.org/1999/xlink"
   xmlns="http://www.w3.org/2000/svg"
   xmlns:svg="http://www.w3.org/2000/svg"
   xmlns:rdf="http://www.w3.org/1999/02/22-rdf-syntax-ns#"
   xmlns:cc="http://creativecommons.org/ns#"
   xmlns:dc="http://purl.org/dc/elements/1.1/">
  <sodipodi:namedview
     pagecolor="#ffffff"
     bordercolor="#666666"
     borderopacity="1"
     objecttolerance="10"
     gridtolerance="10"
     guidetolerance="10"
     inkscape:pageopacity="0"
     inkscape:pageshadow="2"
     inkscape:window-width="1920"
     inkscape:window-height="1007"
     id="namedview17"
     showgrid="true"
     inkscape:zoom="9.8124999"
     inkscape:cx="20.687898"
     inkscape:cy="37.45223"
     inkscape:window-x="0"
     inkscape:window-y="0"
     inkscape:window-maximized="1"
     inkscape:current-layer="layer1"
     inkscape:pagecheckerboard="0">
    <inkscape:grid
       type="xygrid"
       id="grid840" />
  </sodipodi:namedview>
  <defs
     id="defs5455">
    <linearGradient
       id="linearGradient4194">
      <stop
         style="stop-color:#b5006a"
         id="stop4196" />
      <stop
         offset="1"
         style="stop-color:#c70073"
         id="stop4198" />
    </linearGradient>
    <linearGradient
       inkscape:collect="always"
       xlink:href="#linearGradient2230"
       id="linearGradient2232"
       x1="384.57144"
       y1="515.79797"
       x2="448.57144"
       y2="515.79797"
       gradientUnits="userSpaceOnUse"
       gradientTransform="translate(1.8600002e-6)" />
    <linearGradient
       inkscape:collect="always"
       id="linearGradient2230">
      <stop
         style="stop-color:#3683b5;stop-opacity:1"
         offset="0"
         id="stop2226" />
      <stop
         style="stop-color:#00e1e1;stop-opacity:1"
         offset="0.50507295"
         id="stop2332" />
      <stop
         style="stop-color:#ff6eff;stop-opacity:1"
         offset="1"
         id="stop2228" />
    </linearGradient>
  </defs>
  <metadata
     id="metadata5458">
    <rdf:RDF>
      <cc:Work
         rdf:about="">
        <dc:format>image/svg+xml</dc:format>
        <dc:type
           rdf:resource="http://purl.org/dc/dcmitype/StillImage" />
      </cc:Work>
    </rdf:RDF>
  </metadata>
  <g
     inkscape:label="Capa 1"
     inkscape:groupmode="layer"
     id="layer1"
     transform="translate(-384.57143,-483.798)">
    <rect
       style="fill:#3b445f;fill-opacity:1;stroke:none;stroke-width:1.28175"
       id="center-3"
       width="61.101669"
       height="42.700001"
       x="385.97144"
       y="497.49799"
       ry="4.0666628"
       rx="4.0734568" />
    <path
       d="m 442.73835,495.80768 h -29.32672 c -0.64817,0 -1.21496,-0.33361 -1.62011,-0.91817 l -2.1875,-3.33839 c -0.72899,-1.16852 -1.94446,-1.75312 -3.24023,-1.75312 h -14.98741 c -3.72689,0 -6.80495,3.17192 -6.80495,7.01111 v 38.97924 c 0,3.25524 2.59271,6.00966 5.83294,6.00966 h 25.19505 v 0 0 0 0 0 0 0 h 1.94402 v 0 0 0 0 0 0 0 0 0 h 25.19505 c 3.15951,0 5.83294,-2.67126 5.83294,-6.00966 v -33.9712 c 0,-3.33839 -2.59213,-6.00905 -5.83294,-6.00905 z m -25.19491,45.99033 v 0 h -1.94402 v 0 0 z m 29.08353,-6.00947 c 0,2.16999 -1.70156,4.00628 -3.88848,4.00628 h -52.33441 c -2.1062,0 -3.88848,-1.83629 -3.88848,-4.00628 l -5.8e-4,-13.43824 v -7.59568 c 0,-2.17001 1.78229,-4.00628 3.88848,-4.00628 h 29.32671 c 1.29634,0 2.51126,-0.66782 3.24024,-1.75312 l 2.10619,-3.33839 c 0.40518,-0.50072 0.97198,-0.91818 1.62012,-0.91818 h 15.06842 c 2.67343,0 4.86107,2.25378 4.86107,5.00835 v 10.93407 z m -4.86107,-32.9696 h -15.06842 c -1.29634,0 -2.51126,0.66781 -3.24023,1.75311 l -2.1062,3.3384 c -0.3238,0.58455 -0.97198,0.91816 -1.62011,0.91816 h -29.32651 c -1.45794,0 -2.83331,0.16967 -3.889,1.70239 v -8.733 c 0,-2 2.05601,-4 4.05601,-4 h 16.00001 l 0.0429,0.0464 2.9571,-0.0464 3.92107,0.0125 h 29.32672 c 2.10619,0 3.88848,1.83628 3.88848,4.00629 v 3.08814 c -1.29578,-1.33503 -2.99676,-2.08609 -4.94122,-2.08609 z"
       id="path64"
       sodipodi:nodetypes="csccsssssccccccccccccccccccsssccccccccccssccsssccssscccsccscccccccssscc"
       style="opacity:1;fill:url(#linearGradient2232);fill-opacity:1;stroke-width:0.146841" />
    <path
       d="m 444.56998,535.29679 c 0,1.38023 -1.11925,2.49922 -2.49974,2.49922 h -1.24992 c -1.38106,0 -2.50005,-1.11899 -2.50005,-2.49922 0,-0.30695 -0.0156,-0.60965 -0.04,-0.9103 -0.002,-0.0503 -0.007,-0.10111 -0.0111,-0.15066 -0.0269,-0.28504 -0.0653,-0.56758 -0.11289,-0.84653 -0.009,-0.0547 -0.02,-0.10778 -0.0291,-0.16178 -0.0529,-0.28103 -0.11355,-0.55902 -0.18666,-0.83305 -0.0111,-0.04 -0.0222,-0.0777 -0.0337,-0.1171 -0.0782,-0.2823 -0.16466,-0.56117 -0.26425,-0.83461 -8.3e-4,-0.004 -0.002,-0.009 -0.004,-0.0133 -0.10021,-0.27461 -0.2142,-0.54317 -0.33566,-0.80745 -0.0178,-0.0384 -0.0331,-0.0769 -0.0511,-0.11466 -0.11933,-0.25236 -0.24815,-0.49831 -0.38485,-0.73996 -0.0238,-0.0427 -0.0482,-0.0849 -0.0727,-0.12754 -0.14044,-0.24015 -0.28868,-0.47576 -0.4458,-0.70429 -0.0222,-0.0313 -0.0443,-0.0629 -0.0657,-0.0935 -0.16354,-0.23283 -0.33385,-0.46051 -0.51386,-0.6799 -0.004,-0.007 -0.0111,-0.0133 -0.0156,-0.02 -0.18089,-0.21843 -0.37105,-0.4281 -0.56698,-0.63254 -0.0322,-0.0344 -0.0643,-0.0687 -0.0976,-0.10244 -0.1911,-0.19466 -0.39073,-0.38173 -0.5961,-0.56179 -0.0371,-0.0329 -0.0749,-0.066 -0.11221,-0.0973 -0.21022,-0.17955 -0.42463,-0.35243 -0.64737,-0.51571 -0.0317,-0.0233 -0.0644,-0.0449 -0.0962,-0.0683 -0.2319,-0.16689 -0.46793,-0.32741 -0.71325,-0.47663 -0.004,-0.002 -0.009,-0.004 -0.0133,-0.007 -0.2417,-0.1471 -0.4919,-0.28228 -0.7447,-0.41195 -0.0457,-0.0231 -0.0898,-0.0471 -0.13532,-0.0693 -0.24305,-0.11977 -0.49113,-0.22919 -0.74412,-0.33171 -0.0533,-0.0222 -0.10644,-0.0433 -0.16043,-0.0637 -0.2571,-0.0996 -0.51784,-0.19044 -0.78412,-0.27099 -0.0413,-0.0133 -0.084,-0.0238 -0.12533,-0.0358 -0.99844,-0.29021 -2.05305,-0.44918 -3.14546,-0.44918 -0.6901,0 -1.24989,0.55904 -1.24989,1.24929 v 1.25023 c 0,0.68997 0.55983,1.24992 1.24989,1.24992 0.6861,0 1.34813,0.10022 1.97948,0.27249 0.19354,0.0533 0.38322,0.11355 0.57032,0.18155 0.0111,0.004 0.02,0.009 0.0317,0.0133 0.92567,0.33999 1.76436,0.8569 2.47763,1.50935 0.0309,0.0287 0.0631,0.0553 0.0931,0.0849 0.11222,0.10577 0.21999,0.21576 0.32514,0.32865 0.0462,0.0498 0.0927,0.0996 0.13733,0.15065 0.094,0.10489 0.18355,0.21155 0.27111,0.32224 0.052,0.066 0.10156,0.13466 0.15134,0.20265 0.0787,0.10711 0.15843,0.2131 0.2313,0.32347 0.0533,0.0816 0.10021,0.16533 0.15066,0.24813 0.098,0.16266 0.19065,0.328 0.27614,0.4983 0.0629,0.12466 0.12599,0.24935 0.18221,0.37839 0.0393,0.0889 0.0722,0.18065 0.108,0.27189 0.0469,0.12111 0.0931,0.24228 0.13376,0.36649 0.0309,0.0927 0.0582,0.18555 0.0849,0.27893 0.0378,0.13243 0.072,0.26671 0.1031,0.40126 0.02,0.0887 0.0407,0.17666 0.0573,0.26701 0.0289,0.15022 0.0497,0.30272 0.0693,0.45469 0.009,0.0809 0.0222,0.15999 0.03,0.24108 0.0133,0.14732 0.0178,0.29723 0.0224,0.44646 0.009,0.0856 0.0133,0.17178 0.0133,0.25939 0,1.38022 -1.11894,2.49921 -2.50005,2.49921 h -0.93756 -0.31247 c -1.38033,0 -2.49945,-1.11899 -2.49945,-2.49921 0,-0.69028 -0.55981,-1.25023 -1.25001,-1.25023 -0.69009,0 -1.24989,0.55995 -1.24989,1.25023 0,0.68997 0.55984,1.24929 1.24989,1.24929 0.34556,0 0.62509,0.28012 0.62509,0.62497 0,0.34545 -0.27953,0.62495 -0.62509,0.62495 -1.38042,-7e-5 -2.49936,-1.11906 -2.49936,-2.49927 0,-1.38112 1.11894,-2.50013 2.49932,-2.50013 1.38049,0 2.50021,1.11899 2.50021,2.50013 0,0.68998 0.55902,1.24929 1.24925,1.24929 h 0.31247 0.93755 c 0.6901,0 1.25005,-0.55931 1.25005,-1.24929 0,-0.94689 -0.21643,-1.84098 -0.59355,-2.64538 -0.0323,-0.0687 -0.0638,-0.138 -0.0989,-0.206 -0.0462,-0.0902 -0.096,-0.17955 -0.14621,-0.26763 -0.038,-0.0664 -0.0787,-0.13177 -0.11911,-0.19621 -0.0511,-0.0818 -0.10288,-0.16444 -0.15755,-0.2438 -0.084,-0.12111 -0.1731,-0.23893 -0.26485,-0.35397 -0.0547,-0.0671 -0.112,-0.13155 -0.16888,-0.19688 -0.0671,-0.0769 -0.13599,-0.15399 -0.20666,-0.22763 -0.058,-0.0593 -0.11622,-0.11777 -0.17643,-0.17511 -0.0764,-0.0736 -0.15622,-0.14376 -0.23619,-0.21354 -0.0511,-0.0443 -0.10155,-0.0898 -0.154,-0.13244 -0.1331,-0.10733 -0.26978,-0.21177 -0.41135,-0.30849 -0.0413,-0.0283 -0.0849,-0.0518 -0.12689,-0.0791 -0.10999,-0.0709 -0.2222,-0.14088 -0.33702,-0.20532 -0.0589,-0.0329 -0.11844,-0.0637 -0.17799,-0.0947 -0.10866,-0.0569 -0.21999,-0.10911 -0.33214,-0.15999 -0.0553,-0.0242 -0.1091,-0.0503 -0.16533,-0.0736 -0.16621,-0.0677 -0.33502,-0.13089 -0.50806,-0.18555 -0.02,-0.007 -0.0427,-0.0111 -0.0644,-0.0177 -0.15555,-0.0469 -0.31479,-0.0882 -0.47511,-0.12244 -0.0598,-0.0133 -0.12133,-0.0237 -0.18222,-0.0351 -0.13021,-0.0247 -0.26274,-0.0443 -0.39591,-0.0604 -0.0576,-0.007 -0.11355,-0.0133 -0.17177,-0.02 -0.19133,-0.0177 -0.38325,-0.0291 -0.57884,-0.0291 -1.38031,-4e-5 -2.49925,-1.11934 -2.49925,-2.50019 v -1.25022 c 0,-1.38053 1.11894,-2.49952 2.49931,-2.49952 0.20333,0 0.40435,0.007 0.60542,0.0156 0.0729,0.004 0.14578,0.0111 0.21933,0.0156 0.13376,0.009 0.26763,0.0177 0.40002,0.0302 0.0693,0.007 0.13733,0.0156 0.20599,0.0238 0.13243,0.0156 0.26485,0.0309 0.39593,0.0503 0.0782,0.0111 0.15622,0.0247 0.23404,0.0377 0.11132,0.0177 0.22132,0.038 0.33214,0.0589 0.0891,0.0177 0.17666,0.0358 0.26412,0.0547 0.11488,0.0247 0.22916,0.0513 0.34191,0.0793 0.0757,0.0178 0.15066,0.0378 0.22644,0.0573 0.11132,0.0302 0.2222,0.0622 0.33275,0.0947 0.08,0.0237 0.16111,0.0469 0.24109,0.0722 0.10221,0.032 0.20176,0.0671 0.30349,0.10288 0.0878,0.0303 0.17577,0.0593 0.26196,0.0924 0.0862,0.0322 0.17244,0.068 0.25786,0.10155 0.0931,0.0373 0.18777,0.0729 0.28029,0.11288 0.08,0.0343 0.15711,0.0709 0.2362,0.10667 0.1982,0.0898 0.39378,0.1842 0.58708,0.2838 0.0602,0.0309 0.12132,0.0609 0.18087,0.0931 0.10155,0.0547 0.20111,0.11222 0.30057,0.16954 0.0647,0.0362 0.13043,0.072 0.19421,0.11067 0.10289,0.0618 0.20444,0.12666 0.30607,0.19133 0.0553,0.0358 0.11155,0.07 0.16666,0.10643 0.0989,0.0649 0.19622,0.13244 0.29217,0.20022 0.0617,0.0436 0.12399,0.0875 0.18576,0.13243 0.0885,0.0649 0.17599,0.13022 0.26214,0.19622 0.0609,0.0462 0.12067,0.094 0.17978,0.14155 0.092,0.074 0.18377,0.14865 0.27402,0.22487 0.0477,0.0407 0.0947,0.0816 0.14155,0.12266 0.0969,0.0849 0.194,0.16977 0.28868,0.25786 0.0317,0.0287 0.0609,0.0583 0.0918,0.0878 0.88371,0.83736 1.64692,1.80224 2.25631,2.86601 0.007,0.0133 0.0156,0.026 0.0222,0.0391 0.0816,0.1431 0.15999,0.28805 0.23557,0.43453 0.009,0.02 0.0178,0.0373 0.0287,0.0562 0.0763,0.14933 0.15021,0.29908 0.22021,0.45194 0.002,0.007 0.007,0.0156 0.0111,0.0231 0.0736,0.16022 0.14444,0.32161 0.21088,0.48549 0,6.2e-4 0,8.3e-4 6.1e-4,0.002 0.3439,0.84438 0.59838,1.73485 0.75188,2.66005 0.11067,0.66892 0.17177,1.35486 0.17177,2.05586 0,0.68996 0.55964,1.24929 1.24987,1.24929 h 1.24985 c 0.69023,0 1.24956,-0.55933 1.24956,-1.24929 0,-1.01189 -0.0969,-2.00062 -0.27403,-2.96119 -0.002,-0.0111 -0.002,-0.0222 -0.007,-0.0322 -0.0438,-0.23473 -0.0931,-0.46812 -0.1471,-0.69913 -0.002,-0.009 -0.004,-0.0177 -0.004,-0.026 -0.0524,-0.22221 -0.1091,-0.44309 -0.17021,-0.66156 -0.009,-0.0287 -0.0156,-0.0573 -0.0242,-0.0864 -0.0623,-0.21799 -0.12822,-0.43209 -0.19887,-0.64663 -8.4e-4,-0.004 -0.002,-0.0111 -0.004,-0.0156 -0.53464,-1.60874 -1.31338,-3.10496 -2.29351,-4.44671 -0.002,-0.004 -0.004,-0.009 -0.009,-0.0133 -0.12266,-0.16755 -0.24936,-0.33143 -0.37845,-0.49407 -0.0256,-0.032 -0.0503,-0.0656 -0.0762,-0.098 -0.11955,-0.14932 -0.2438,-0.29571 -0.36922,-0.44064 -0.036,-0.0416 -0.072,-0.0827 -0.10799,-0.12421 -0.12511,-0.14222 -0.25508,-0.28228 -0.38508,-0.42051 -0.036,-0.0377 -0.0724,-0.0762 -0.10866,-0.11422 -0.12688,-0.13177 -0.2566,-0.26121 -0.38753,-0.38818 -0.0491,-0.0469 -0.0975,-0.094 -0.14711,-0.14088 -0.1291,-0.12178 -0.26058,-0.24228 -0.39393,-0.36068 -0.0484,-0.0433 -0.098,-0.0856 -0.14732,-0.12822 -0.13222,-0.1151 -0.26608,-0.22856 -0.40279,-0.3384 -0.0629,-0.0507 -0.12599,-0.0993 -0.18976,-0.14955 -0.12822,-0.10021 -0.25693,-0.20176 -0.38875,-0.29845 -0.0653,-0.0477 -0.13176,-0.0935 -0.19843,-0.14155 -0.13666,-0.0973 -0.27341,-0.19532 -0.41253,-0.28867 -0.0307,-0.02 -0.0604,-0.0389 -0.0907,-0.0589 -0.35305,-0.23252 -0.71466,-0.45191 -1.08602,-0.65701 -0.02,-0.0111 -0.0391,-0.0231 -0.0589,-0.034 -0.11067,-0.06 -0.22413,-0.11689 -0.33625,-0.1751 -0.11555,-0.06 -0.23053,-0.12044 -0.34754,-0.17733 -0.10999,-0.0538 -0.22293,-0.10421 -0.33432,-0.15532 -0.11355,-0.0517 -0.22547,-0.10378 -0.34054,-0.15355 -0.1211,-0.0524 -0.24305,-0.10111 -0.36576,-0.15066 -0.11622,-0.0469 -0.23114,-0.0931 -0.34894,-0.13733 -0.11222,-0.0423 -0.22563,-0.0823 -0.3384,-0.1211 -0.13244,-0.0462 -0.26563,-0.0918 -0.39945,-0.1351 -0.10711,-0.0344 -0.21577,-0.068 -0.32438,-0.10044 -0.13466,-0.0407 -0.26974,-0.0782 -0.40572,-0.11466 -0.11688,-0.0317 -0.23403,-0.0627 -0.35182,-0.0913 -0.13089,-0.032 -0.26277,-0.0616 -0.3952,-0.0909 -0.12044,-0.0269 -0.24028,-0.0529 -0.36219,-0.0767 -0.13799,-0.0267 -0.27814,-0.0518 -0.41758,-0.0747 -0.11355,-0.02 -0.22643,-0.0393 -0.34129,-0.0563 -0.16533,-0.0237 -0.33278,-0.0433 -0.49953,-0.0631 -0.0911,-0.0111 -0.18021,-0.0222 -0.27125,-0.0313 -0.18777,-0.0177 -0.37763,-0.0313 -0.56682,-0.0433 -0.0784,-0.004 -0.15555,-0.0133 -0.23467,-0.0156 -0.0616,-0.003 -0.124,-0.003 -0.18645,-0.004 v -0.009 c -0.15754,-8.3e-4 -0.31462,-0.0616 -0.43515,-0.18222 -0.24381,-0.24383 -0.24381,-0.6399 0,-0.88375 0.1331,-0.1331 0.31112,-0.18644 0.48489,-0.17466 9.35351,0.35118 16.83083,8.04076 16.83083,17.48071 z m -19.37366,-16.24887 c -0.34482,0 -0.62432,-0.28012 -0.62432,-0.62497 0,-0.34545 0.2795,-0.62495 0.62432,-0.62495 0.34543,0 0.62508,0.2795 0.62508,0.62495 0,0.34485 -0.27965,0.62497 -0.62508,0.62497 z"
       id="path2-36-3"
       style="fill:#ff9955;fill-opacity:1;stroke-width:0.0390585" />
  </g>
</svg>
