<?xml version="1.0" encoding="UTF-8" standalone="no"?>
<svg
   width="64"
   version="1.1"
   height="64"
   id="svg15"
   sodipodi:docname="folder-Peace.svg"
   inkscape:version="1.1.2 (0a00cf5339, 2022-02-04)"
   xmlns:inkscape="http://www.inkscape.org/namespaces/inkscape"
   xmlns:sodipodi="http://sodipodi.sourceforge.net/DTD/sodipodi-0.dtd"
   xmlns:xlink="http://www.w3.org/1999/xlink"
   xmlns="http://www.w3.org/2000/svg"
   xmlns:svg="http://www.w3.org/2000/svg"
   xmlns:rdf="http://www.w3.org/1999/02/22-rdf-syntax-ns#"
   xmlns:cc="http://creativecommons.org/ns#"
   xmlns:dc="http://purl.org/dc/elements/1.1/">
  <sodipodi:namedview
     pagecolor="#ffffff"
     bordercolor="#666666"
     borderopacity="1"
     objecttolerance="10"
     gridtolerance="10"
     guidetolerance="10"
     inkscape:pageopacity="0"
     inkscape:pageshadow="2"
     inkscape:window-width="1920"
     inkscape:window-height="1013"
     id="namedview17"
     showgrid="false"
     inkscape:zoom="6.9384852"
     inkscape:cx="11.601956"
     inkscape:cy="12.827007"
     inkscape:window-x="0"
     inkscape:window-y="0"
     inkscape:window-maximized="1"
     inkscape:current-layer="layer1"
     inkscape:pagecheckerboard="0" />
  <defs
     id="defs5455">
    <linearGradient
       id="linearGradient4194">
      <stop
         style="stop-color:#b5006a"
         id="stop4196" />
      <stop
         offset="1"
         style="stop-color:#c70073"
         id="stop4198" />
    </linearGradient>
    <linearGradient
       inkscape:collect="always"
       xlink:href="#linearGradient2230"
       id="linearGradient2232"
       x1="384.57144"
       y1="515.79797"
       x2="448.57144"
       y2="515.79797"
       gradientUnits="userSpaceOnUse"
       gradientTransform="translate(1.8600002e-6)" />
    <linearGradient
       inkscape:collect="always"
       id="linearGradient2230">
      <stop
         style="stop-color:#3683b5;stop-opacity:1"
         offset="0"
         id="stop2226" />
      <stop
         style="stop-color:#00e1e1;stop-opacity:1"
         offset="0.50507295"
         id="stop2332" />
      <stop
         style="stop-color:#ff6eff;stop-opacity:1"
         offset="1"
         id="stop2228" />
    </linearGradient>
    <linearGradient
       inkscape:collect="always"
       xlink:href="#linearGradient836"
       id="linearGradient1111"
       x1="404.57144"
       y1="520.79797"
       x2="428.57144"
       y2="520.79797"
       gradientUnits="userSpaceOnUse"
       gradientTransform="translate(16.000009,4.9999953)" />
    <linearGradient
       inkscape:collect="always"
       id="linearGradient836">
      <stop
         style="stop-color:#ffb380;stop-opacity:1"
         offset="0"
         id="stop832" />
      <stop
         style="stop-color:#20ffff;stop-opacity:1"
         offset="0.48615947"
         id="stop1390" />
      <stop
         style="stop-color:#ffaeff;stop-opacity:1"
         offset="1"
         id="stop834" />
    </linearGradient>
  </defs>
  <metadata
     id="metadata5458">
    <rdf:RDF>
      <cc:Work
         rdf:about="">
        <dc:format>image/svg+xml</dc:format>
        <dc:type
           rdf:resource="http://purl.org/dc/dcmitype/StillImage" />
      </cc:Work>
    </rdf:RDF>
  </metadata>
  <g
     inkscape:label="Capa 1"
     inkscape:groupmode="layer"
     id="layer1"
     transform="translate(-384.57143,-483.798)">
    <rect
       style="fill:#3b445f;fill-opacity:1;stroke:none;stroke-width:1.28175"
       id="center-3"
       width="61.101669"
       height="42.700001"
       x="385.97144"
       y="497.49799"
       ry="4.0666628"
       rx="4.0734568" />
    <path
       d="m 442.73835,495.80768 h -29.32672 c -0.64817,0 -1.21496,-0.33361 -1.62011,-0.91817 l -2.1875,-3.33839 c -0.72899,-1.16852 -1.94446,-1.75312 -3.24023,-1.75312 h -14.98741 c -3.72689,0 -6.80495,3.17192 -6.80495,7.01111 v 38.97924 c 0,3.25524 2.59271,6.00966 5.83294,6.00966 h 25.19505 v 0 0 0 0 0 0 0 h 1.94402 v 0 0 0 0 0 0 0 0 0 h 25.19505 c 3.15951,0 5.83294,-2.67126 5.83294,-6.00966 v -33.9712 c 0,-3.33839 -2.59213,-6.00905 -5.83294,-6.00905 z m -25.19491,45.99033 v 0 h -1.94402 v 0 0 z m 29.08353,-6.00947 c 0,2.16999 -1.70156,4.00628 -3.88848,4.00628 h -52.33441 c -2.1062,0 -3.88848,-1.83629 -3.88848,-4.00628 l -5.8e-4,-13.43824 v -7.59568 c 0,-2.17001 1.78229,-4.00628 3.88848,-4.00628 h 29.32671 c 1.29634,0 2.51126,-0.66782 3.24024,-1.75312 l 2.10619,-3.33839 c 0.40518,-0.50072 0.97198,-0.91818 1.62012,-0.91818 h 15.06842 c 2.67343,0 4.86107,2.25378 4.86107,5.00835 v 10.93407 z m -4.86107,-32.9696 h -15.06842 c -1.29634,0 -2.51126,0.66781 -3.24023,1.75311 l -2.1062,3.3384 c -0.3238,0.58455 -0.97198,0.91816 -1.62011,0.91816 h -29.32651 c -1.45794,0 -2.83331,0.16967 -3.889,1.70239 v -8.733 c 0,-2 2.05601,-4 4.05601,-4 h 16.00001 l 0.0429,0.0464 2.9571,-0.0464 3.92107,0.0125 h 29.32672 c 2.10619,0 3.88848,1.83628 3.88848,4.00629 v 3.08814 c -1.29578,-1.33503 -2.99676,-2.08609 -4.94122,-2.08609 z"
       id="path64"
       sodipodi:nodetypes="csccsssssccccccccccccccccccsssccccccccccssccsssccssscccsccscccccccssscc"
       style="fill:url(#linearGradient2232);fill-opacity:1;stroke-width:0.146841;opacity:1" />
    <path
       d="m 432.57143,513.798 c -6.6,0 -12,5.4 -12,12 0,6.6 5.4,12 12,12 6.6,0 12,-5.4 12,-12 0,-6.6 -5.4,-12 -12,-12 z m -0.85715,1.8 v 1.62857 c 0,0.51428 0.34287,0.85714 0.85715,0.85714 0.51428,0 0.85715,-0.34286 0.85715,-0.85714 V 515.598 c 5.22857,0.42857 9.42857,4.88571 9.42857,10.19951 0,2.14286 -0.68572,4.11428 -1.71429,5.74285 l -7.71428,-6.17143 v -5.57142 c 0,-0.5143 -0.34287,-0.85714 -0.85715,-0.85714 -0.51428,0 -0.85715,0.34284 -0.85715,0.85714 v 5.57142 L 424,531.54036 c -1.11429,-1.62857 -1.71429,-3.59999 -1.71429,-5.74285 0,-5.4 4.2,-9.77143 9.42857,-10.19951 z m -6.6,17.22905 6.6,-5.31428 v 8.48572 c -2.57142,-0.17142 -4.8857,-1.37142 -6.6,-3.17144 z m 8.3143,3.17144 v -8.48572 l 6.6,5.31428 c -1.7143,1.8 -4.02858,3 -6.6,3.17144 z"
       id="path47"
       style="fill:url(#linearGradient1111);fill-opacity:1;stroke-width:0.0979592" />
  </g>
</svg>
