<?xml version="1.0" encoding="UTF-8" standalone="no"?>
<svg
   inkscape:version="1.1.1 (3bf5ae0d25, 2021-09-20)"
   sodipodi:docname="desktop.svg"
   id="svg40"
   height="64"
   version="1.1"
   width="64"
   xmlns:inkscape="http://www.inkscape.org/namespaces/inkscape"
   xmlns:sodipodi="http://sodipodi.sourceforge.net/DTD/sodipodi-0.dtd"
   xmlns:xlink="http://www.w3.org/1999/xlink"
   xmlns="http://www.w3.org/2000/svg"
   xmlns:svg="http://www.w3.org/2000/svg"
   xmlns:rdf="http://www.w3.org/1999/02/22-rdf-syntax-ns#"
   xmlns:cc="http://creativecommons.org/ns#"
   xmlns:dc="http://purl.org/dc/elements/1.1/">
  <metadata
     id="metadata44">
    <rdf:RDF>
      <cc:Work
         rdf:about="">
        <dc:format>image/svg+xml</dc:format>
        <dc:type
           rdf:resource="http://purl.org/dc/dcmitype/StillImage" />
      </cc:Work>
    </rdf:RDF>
  </metadata>
  <sodipodi:namedview
     inkscape:document-rotation="0"
     inkscape:current-layer="layer1"
     inkscape:window-maximized="1"
     inkscape:window-y="0"
     inkscape:window-x="0"
     inkscape:cy="51.254237"
     inkscape:cx="16.460386"
     inkscape:zoom="8.8090278"
     showgrid="true"
     id="namedview42"
     inkscape:window-height="1007"
     inkscape:window-width="1920"
     inkscape:pageshadow="2"
     inkscape:pageopacity="0"
     guidetolerance="10"
     gridtolerance="10"
     objecttolerance="10"
     borderopacity="1"
     bordercolor="#666666"
     pagecolor="#ffffff"
     inkscape:pagecheckerboard="0">
    <inkscape:grid
       type="xygrid"
       id="grid989" />
  </sodipodi:namedview>
  <defs
     id="defs5455">
    <linearGradient
       inkscape:collect="always"
       id="linearGradient950">
      <stop
         style="stop-color:#3786b9;stop-opacity:1"
         offset="0"
         id="stop944" />
      <stop
         style="stop-color:#20ffff;stop-opacity:1"
         offset="0.45747522"
         id="stop946" />
      <stop
         style="stop-color:#ff63ff;stop-opacity:1"
         offset="1"
         id="stop948" />
    </linearGradient>
    <linearGradient
       inkscape:collect="always"
       xlink:href="#linearGradient950"
       id="linearGradient848"
       gradientUnits="userSpaceOnUse"
       x1="3.088882"
       y1="201.97086"
       x2="508.20764"
       y2="198.9987"
       gradientTransform="matrix(0.10937479,0,0,0.13247294,388.48437,489.07109)" />
    <linearGradient
       inkscape:collect="always"
       xlink:href="#linearGradient950"
       id="linearGradient1814"
       gradientUnits="userSpaceOnUse"
       gradientTransform="matrix(0.1268922,0,0,0.12422359,384.19931,491.59148)"
       x1="0"
       y1="213.3335"
       x2="512.00098"
       y2="213.3335" />
    <linearGradient
       inkscape:collect="always"
       xlink:href="#linearGradient950"
       id="linearGradient1816"
       gradientUnits="userSpaceOnUse"
       gradientTransform="matrix(0.10937479,0,0,0.12420296,388.53803,489.0504)"
       x1="396.66171"
       y1="203.32387"
       x2="414.32068"
       y2="204.86937" />
    <linearGradient
       inkscape:collect="always"
       xlink:href="#linearGradient950"
       id="linearGradient1818"
       gradientUnits="userSpaceOnUse"
       gradientTransform="matrix(0.10937479,0,0,0.12420296,388.53803,489.0504)"
       x1="341.1564"
       y1="209.97891"
       x2="393.84497"
       y2="210.4854" />
    <linearGradient
       inkscape:collect="always"
       xlink:href="#linearGradient950"
       id="linearGradient1820"
       gradientUnits="userSpaceOnUse"
       gradientTransform="matrix(0.10937479,0,0,0.12420296,388.53803,491.04481)"
       x1="36.821049"
       y1="192.62901"
       x2="479.63538"
       y2="194.37762" />
  </defs>
  <g
     transform="translate(-384.57143,-483.798)"
     id="layer1"
     inkscape:groupmode="layer"
     inkscape:label="Capa 1">
    <path
       style="fill:url(#linearGradient848);fill-opacity:1;stroke-width:0.120372;opacity:0.699"
       id="path10"
       d="m 439.81757,491.332 h -46.66651 c -2.39869,0 -4.66669,2.74696 -4.66669,5.65209 v 40.69569 c 0,2.90526 2.268,5.65222 4.66669,5.65222 h 46.66662 c 2.3987,0 4.66669,-2.74696 4.66669,-5.65222 v -40.69569 c -1.1e-4,-2.90513 -2.2681,-5.65209 -4.6668,-5.65209 z m 2.79999,46.34778 c 0,1.64823 -1.43915,3.39131 -2.79999,3.39131 h -46.66651 c -1.36084,0 -2.79999,-1.74308 -2.79999,-3.39131 v -40.69569 c 0,-1.64823 1.43915,-3.3913 2.79999,-3.3913 h 46.66662 c 1.36084,0 2.79999,1.74307 2.79999,3.3913 v 40.69569 z" />
    <rect
       style="fill:#3b445f;fill-opacity:1;stroke:none;stroke-width:1.25132"
       id="center-3"
       width="52.238998"
       height="47.599998"
       x="390.37143"
       y="493.59799"
       ry="3.3000143"
       rx="3.0448418" />
    <path
       style="fill:url(#linearGradient1814);fill-opacity:1;stroke-width:0.12555"
       id="path4-5-2"
       d="m 416.7162,536.11321 h -0.0108 c -0.59766,0 -1.07744,0.47491 -1.07744,1.06 0,0.58509 0.49057,1.06 1.08823,1.06 0.5988,0 1.08277,-0.47491 1.08277,-1.06 0,-0.58509 -0.48397,-1.06 -1.08277,-1.06 z" />
    <path
       style="fill:url(#linearGradient1816);fill-opacity:1;stroke-width:0.116553;opacity:0.705"
       id="path6-3-7"
       d="m 433.61138,505.6977 c 0.182,0.20667 0.42098,0.3105 0.65986,0.3105 0.23898,0 0.47786,-0.10383 0.65986,-0.3105 0.36487,-0.41447 0.36487,-1.0843 0,-1.49864 l -1.86659,-2.11977 c -0.36488,-0.41446 -0.95484,-0.41446 -1.31972,0 -0.36498,0.41447 -0.36498,1.08429 0,1.49863 z" />
    <path
       style="fill:url(#linearGradient1818);fill-opacity:1;stroke-width:0.116553;opacity:0.703"
       id="path8-5-0"
       d="m 433.61138,512.05689 c 0.182,0.20667 0.42098,0.3105 0.65986,0.3105 0.23898,0 0.47786,-0.10383 0.65986,-0.3105 0.36487,-0.41447 0.36487,-1.08429 0,-1.49864 l -7.46658,-8.47896 c -0.36499,-0.41446 -0.95484,-0.41446 -1.31972,0 -0.36498,0.41447 -0.36498,1.08429 0,1.49863 z" />
    <path
       style="fill:url(#linearGradient1820);fill-opacity:1;stroke-width:0.116553;opacity:0.702"
       id="path12-6-9"
       d="m 439.87123,497.404 h -46.66651 c -0.51515,0 -0.93329,0.47483 -0.93329,1.05983 v 33.91573 c 0,0.58499 0.41814,1.05982 0.93329,1.05982 h 46.66662 c 0.51515,0 0.93329,-0.47483 0.93329,-1.05982 v -33.91573 c 0,-0.585 -0.41814,-1.05983 -0.9334,-1.05983 z m -0.9333,33.91573 h -44.79991 v -31.79596 h 44.79991 z" />
  </g>
</svg>
