<?xml version="1.0" encoding="UTF-8" standalone="no"?>
<svg
   inkscape:version="1.1.1 (3bf5ae0d25, 2021-09-20)"
   sodipodi:docname="system-suspend-hibernate.svg"
   id="svg5"
   version="1.1"
   viewBox="0 0 32 32"
   xmlns:inkscape="http://www.inkscape.org/namespaces/inkscape"
   xmlns:sodipodi="http://sodipodi.sourceforge.net/DTD/sodipodi-0.dtd"
   xmlns:xlink="http://www.w3.org/1999/xlink"
   xmlns="http://www.w3.org/2000/svg"
   xmlns:svg="http://www.w3.org/2000/svg"
   xmlns:rdf="http://www.w3.org/1999/02/22-rdf-syntax-ns#"
   xmlns:cc="http://creativecommons.org/ns#"
   xmlns:dc="http://purl.org/dc/elements/1.1/">
  <metadata
     id="metadata9">
    <rdf:RDF>
      <cc:Work
         rdf:about="">
        <dc:format>image/svg+xml</dc:format>
        <dc:type
           rdf:resource="http://purl.org/dc/dcmitype/StillImage" />
      </cc:Work>
    </rdf:RDF>
  </metadata>
  <sodipodi:namedview
     inkscape:document-rotation="0"
     inkscape:current-layer="svg5"
     inkscape:window-maximized="1"
     inkscape:window-y="0"
     inkscape:window-x="0"
     inkscape:cy="5.0103705"
     inkscape:cx="-6.4780547"
     inkscape:zoom="9.879509"
     showgrid="false"
     id="namedview7"
     inkscape:window-height="1007"
     inkscape:window-width="1920"
     inkscape:pageshadow="2"
     inkscape:pageopacity="0"
     guidetolerance="10"
     gridtolerance="10"
     objecttolerance="10"
     borderopacity="1"
     bordercolor="#666666"
     pagecolor="#ffffff"
     inkscape:pagecheckerboard="0" />
  <defs
     id="defs3051">
    <style
       id="current-color-scheme"
       type="text/css">
      .ColorScheme-Text {
        color:#eff0f1;
      }
      </style>
    <linearGradient
       inkscape:collect="always"
       xlink:href="#linearGradient4135"
       id="linearGradient1823"
       x1="7.3000002"
       y1="13.420045"
       x2="18.847115"
       y2="13.420045"
       gradientUnits="userSpaceOnUse"
       gradientTransform="matrix(0.92290088,0,0,0.92290089,1.231298,1.231297)" />
    <linearGradient
       inkscape:collect="always"
       id="linearGradient4135">
      <stop
         style="stop-color:#fae3b0;stop-opacity:0.96323252"
         offset="0"
         id="stop4131" />
      <stop
         style="stop-color:#e8a2af;stop-opacity:1"
         offset="1"
         id="stop4133" />
    </linearGradient>
    <linearGradient
       inkscape:collect="always"
       xlink:href="#linearGradient4135"
       id="linearGradient1831"
       x1="17.612005"
       y1="21.350149"
       x2="24.330618"
       y2="21.350149"
       gradientUnits="userSpaceOnUse"
       gradientTransform="matrix(0.92290088,0,0,0.92290089,1.231298,1.231297)" />
    <linearGradient
       inkscape:collect="always"
       xlink:href="#linearGradient4135"
       id="linearGradient1815"
       x1="3"
       y1="15.90248"
       x2="29.005022"
       y2="15.90248"
       gradientUnits="userSpaceOnUse"
       gradientTransform="matrix(0.92290088,0,0,0.92290089,1.231298,1.323587)" />
  </defs>
  <path
     d="M 12.99487,7.8512375 C 12.751787,7.9687099 12.682791,8.1187288 12.67059,8.5645477 L 12.65435,8.9617165 12.399067,8.7145667 C 12.103258,8.4348704 11.916795,8.3377395 11.730333,8.3741848 c -0.153913,0.032377 -0.348516,0.2188411 -0.37683,0.3647917 -0.04051,0.2269778 0.04052,0.3485185 0.680768,0.9887692 l 0.62821,0.6321133 -0.0083,1.05776 -0.01218,1.061829 -0.915896,-0.526846 -0.911641,-0.530914 -0.222908,-0.834852 C 10.401023,9.849286 10.356447,9.7318137 10.243041,9.6141713 10.141669,9.5087345 10.085058,9.4844945 9.9472417,9.4844945 c -0.2188388,0 -0.3849698,0.1013687 -0.4741308,0.2837642 -0.06479,0.1378143 -0.06479,0.1579863 0.03645,0.5349833 0.05676,0.218841 0.09323,0.397168 0.08103,0.397168 -0.0083,0 -0.150018,-0.07289 -0.3120699,-0.162055 -0.46193,-0.255285 -0.774,-0.206635 -1.025389,0.162055 -0.07697,0.113404 -0.09323,0.182396 -0.08103,0.348519 0.02427,0.275627 0.137817,0.425477 0.482262,0.628214 0.157992,0.08916 0.275634,0.174259 0.267494,0.186465 -0.01218,0.0081 -0.162052,0.05679 -0.336314,0.101368 -0.393101,0.0973 -0.445817,0.125609 -0.543118,0.287664 -0.137817,0.218841 -0.07697,0.506505 0.129676,0.652455 0.145948,0.105437 0.37683,0.07696 1.1671009,-0.137814 0.413441,-0.109506 0.7739911,-0.202568 0.8024711,-0.202568 0.08103,0 1.831756,1.021315 1.811581,1.053692 -0.01218,0.02034 -0.417336,0.263423 -0.903668,0.54312 L 10.166085,14.66786 9.3434389,14.449019 C 8.889482,14.327477 8.476207,14.226109 8.419421,14.226109 c -0.259353,0 -0.486332,0.287833 -0.441746,0.559223 0.03645,0.235115 0.198497,0.356655 0.603799,0.461922 0.194602,0.05272 0.352585,0.105268 0.352585,0.117473 0,0.0122 -0.09323,0.07289 -0.206629,0.137814 -0.433791,0.235114 -0.587703,0.449887 -0.555328,0.770097 0.02833,0.239013 0.186463,0.441751 0.413275,0.526846 0.235109,0.08916 0.380891,0.06086 0.729415,-0.141882 0.1540879,-0.08916 0.2837639,-0.158156 0.2876589,-0.154088 0.0083,0.0081 -0.03239,0.186465 -0.08915,0.39717 -0.09323,0.364791 -0.0973,0.397168 -0.04051,0.53905 0.06885,0.162054 0.275624,0.312074 0.425475,0.312074 0.1378171,0 0.3688651,-0.117473 0.4214151,-0.218841 0.02833,-0.04459 0.150018,-0.457855 0.275625,-0.911811 l 0.222908,-0.830782 0.891642,-0.518709 c 0.490402,-0.283765 0.903668,-0.514642 0.924008,-0.51871 0.01624,0 0.02833,0.470059 0.02833,1.045555 v 1.041487 l -0.627878,0.628215 c -0.445816,0.44582 -0.640244,0.668729 -0.668724,0.761961 -0.105433,0.380895 0.316139,0.745687 0.660594,0.571428 0.04864,-0.02423 0.210707,-0.166123 0.364795,-0.312073 l 0.271554,-0.267492 V 18.607 c 0,0.462092 0.06885,0.607873 0.364795,0.757893 0.226978,0.113404 0.348515,0.113404 0.567353,-0.0041 0.259363,-0.137814 0.364795,-0.356655 0.364795,-0.766028 0,-0.17426 0.01624,-0.316142 0.03645,-0.316142 0.01624,0 0.117476,0.08916 0.218838,0.1946 0.271564,0.2958 0.38904,0.372929 0.543127,0.372929 0.295799,0 0.498533,-0.210705 0.498533,-0.510743 0,-0.141882 -0.04458,-0.194431 -0.648384,-0.806372 l -0.64839,-0.652464 v -1.061829 c 0,-0.583634 0.0083,-1.061829 0.01624,-1.061829 0.01218,0 1.771065,1.00911 1.79938,1.033351 0.0083,0.0041 0.109502,0.376827 0.231048,0.826714 0.121537,0.449887 0.243074,0.855192 0.263424,0.899774 0.06082,0.105438 0.279694,0.239183 0.397161,0.239183 0.150027,0 0.348524,-0.113404 0.425485,-0.239183 0.08915,-0.153918 0.08509,-0.303936 -0.01624,-0.676865 -0.04458,-0.166122 -0.07697,-0.312073 -0.06885,-0.32021 0.0083,-0.0122 0.125607,0.04865 0.255284,0.129678 0.133572,0.07696 0.299869,0.162054 0.364786,0.182396 0.445826,0.129677 0.911817,-0.324279 0.790271,-0.773996 -0.06082,-0.22291 -0.166122,-0.340382 -0.465991,-0.510573 -0.145948,-0.08103 -0.263424,-0.157986 -0.263424,-0.178328 0,-0.01627 0.133747,-0.06086 0.295808,-0.105437 0.352585,-0.08916 0.490393,-0.153917 0.571423,-0.271559 0.08509,-0.117473 0.08509,-0.433614 0,-0.551087 -0.07309,-0.105437 -0.263423,-0.210704 -0.380899,-0.210704 -0.04864,0 -0.458017,0.101368 -0.911808,0.22291 l -0.82739,0.218841 -0.883502,-0.506505 c -0.486332,-0.283764 -0.895537,-0.522778 -0.911808,-0.539051 -0.02833,-0.02441 1.681904,-1.029282 1.79124,-1.049624 0.03646,-0.0081 0.413275,0.08103 0.834856,0.194601 0.421572,0.117472 0.826707,0.210705 0.899598,0.210705 0.389206,0 0.603974,-0.47006 0.348524,-0.773997 -0.07697,-0.08916 -0.178332,-0.14595 -0.3931,-0.206635 -0.547022,-0.157987 -0.522777,-0.129678 -0.226978,-0.291732 0.324279,-0.182397 0.478192,-0.344451 0.522777,-0.54312 0.07291,-0.312073 -0.109511,-0.656523 -0.3931,-0.745686 -0.214778,-0.07289 -0.449887,-0.0283 -0.733485,0.141881 -0.141878,0.08103 -0.267494,0.141882 -0.279694,0.129678 -0.0083,-0.01221 0.0203,-0.162054 0.06903,-0.336314 0.113407,-0.401236 0.09323,-0.6038053 -0.08103,-0.7578917 -0.198673,-0.1783278 -0.567363,-0.137814 -0.70924,0.076961 -0.03258,0.048655 -0.154088,0.4417507 -0.267494,0.8753647 -0.113406,0.429545 -0.222908,0.806542 -0.239013,0.838918 -0.01624,0.0283 -0.429546,0.287664 -0.915877,0.571428 l -0.887573,0.510574 -0.01218,-1.053693 -0.0083,-1.053691 0.603808,-0.6119423 C 14.895063,9.4158434 15.186968,9.0997018 15.211203,9.0510516 15.385465,8.7066014 15.02067,8.2851923 14.64385,8.3904599 c -0.08103,0.02441 -0.251223,0.1539177 -0.409381,0.3120732 l -0.27507,0.2713886 V 8.6496435 c 0,-0.3849638 -0.101363,-0.6322831 -0.32021,-0.7739959 -0.166122,-0.1135736 -0.445817,-0.1217103 -0.644314,-0.02441 z"
     id="path4-7"
     style="fill:url(#linearGradient1823);fill-opacity:1;stroke-width:0.00169513" />
  <path
     d="m 20.415131,17.512794 c -0.162061,0.04865 -0.291738,0.206637 -0.320043,0.405306 l -0.02446,0.157986 -0.105266,-0.08103 c -0.186472,-0.150019 -0.45379,-0.08916 -0.526847,0.113404 -0.05676,0.170191 0.0203,0.308005 0.352585,0.636351 l 0.287659,0.279527 v 0.539051 0.534983 L 19.616672,19.830884 19.15882,19.563393 19.045414,19.121642 c -0.08915,-0.340382 -0.137816,-0.457854 -0.214777,-0.518709 -0.251214,-0.202568 -0.587694,0.04459 -0.494463,0.360723 0.04052,0.141882 0.02427,0.150019 -0.121546,0.06493 -0.299869,-0.170191 -0.688899,0.07289 -0.688899,0.425477 0,0.166123 0.06082,0.279528 0.218847,0.413442 0.121537,0.105437 0.121537,0.109336 0.03239,0.113405 -0.251223,0 -0.38497,0.384964 -0.198507,0.559222 0.121546,0.113404 0.190533,0.113404 0.6889,-0.02017 l 0.413441,-0.105437 0.453956,0.259355 c 0.522778,0.299869 0.530918,0.239183 -0.06885,0.583633 l -0.38903,0.222909 -0.437686,-0.117472 c -0.571424,-0.153918 -0.753816,-0.101369 -0.753816,0.218841 0,0.162055 0.06479,0.251218 0.222908,0.303937 l 0.137817,0.04458 -0.157992,0.154088 c -0.145947,0.137814 -0.162052,0.174258 -0.162052,0.344449 0,0.166123 0.0203,0.214773 0.137817,0.332246 0.07697,0.07696 0.182393,0.137814 0.235109,0.141882 0.166122,0.0081 0.295799,-0.0081 0.33242,-0.04865 0.07697,-0.06882 0.105266,-0.03645 0.09713,0.117472 -0.012,0.2958 0.190532,0.457854 0.445816,0.352587 0.129677,-0.05679 0.157992,-0.117472 0.340384,-0.806542 0.0527,-0.194601 0.05676,-0.1985 0.498542,-0.453956 l 0.445817,-0.255286 0.012,0.530914 0.01218,0.534983 -0.328682,0.328177 c -0.267494,0.271559 -0.328184,0.356655 -0.33242,0.461922 -0.0083,0.291732 0.32428,0.429546 0.539048,0.22291 l 0.105442,-0.101369 0.02852,0.170191 c 0.0203,0.117473 0.06885,0.210704 0.170192,0.312073 0.129677,0.129677 0.154088,0.137814 0.348515,0.121541 0.275634,-0.0283 0.437686,-0.190533 0.437686,-0.441751 v -0.166123 l 0.125607,0.105437 c 0.158157,0.133746 0.332244,0.137814 0.462096,0.0041 0.190358,-0.186463 0.145948,-0.312073 -0.243082,-0.705173 l -0.344453,-0.352626 v -0.514641 c 0,-0.283595 0.0083,-0.514641 0.0203,-0.514641 0.01624,0 0.806542,0.445818 0.903677,0.510573 0.0083,0.0041 0.06497,0.202567 0.129677,0.44175 0.137817,0.502606 0.194427,0.587701 0.405301,0.587701 0.218847,0 0.344454,-0.14595 0.312079,-0.364791 -0.0203,-0.145951 -0.012,-0.166123 0.04458,-0.141882 0.31207,0.129677 0.539048,0.08103 0.684829,-0.137814 0.162053,-0.239014 0.0973,-0.522778 -0.153921,-0.684832 l -0.129677,-0.08103 0.125616,-0.0283 c 0.145948,-0.0283 0.291729,-0.190533 0.291729,-0.32021 0,-0.04865 -0.02852,-0.129678 -0.06479,-0.178327 C 23.503663,21.237168 23.406362,21.2331 22.9241,21.36278 l -0.441746,0.117472 -0.449887,-0.251217 c -0.247153,-0.141883 -0.453956,-0.263424 -0.453956,-0.275628 0,-0.0122 0.202567,-0.137814 0.445816,-0.279697 l 0.449887,-0.259355 0.413275,0.109336 c 0.506506,0.129678 0.575493,0.129678 0.69703,0.0041 0.182402,-0.178328 0.08915,-0.465991 -0.162052,-0.530914 -0.05676,-0.0122 -0.101363,-0.03237 -0.101363,-0.04051 0,-0.0081 0.06885,-0.07696 0.153913,-0.153918 0.133746,-0.125609 0.150017,-0.157986 0.150017,-0.34445 0,-0.174259 -0.0203,-0.22291 -0.121537,-0.328347 -0.157991,-0.153918 -0.368689,-0.194431 -0.551091,-0.105437 -0.06894,0.03644 -0.133738,0.06493 -0.137808,0.06493 -0.0083,0 0,-0.08103 0.0083,-0.178327 0.0203,-0.153918 0.0083,-0.194601 -0.08103,-0.283764 -0.113406,-0.113405 -0.214777,-0.129678 -0.368865,-0.06086 -0.121536,0.05679 -0.125606,0.06882 -0.267484,0.583632 l -0.109511,0.405306 -0.239013,0.14595 c -0.129677,0.07696 -0.344445,0.202568 -0.470228,0.275628 l -0.234942,0.129678 v -0.535029 -0.534983 l 0.344445,-0.348518 c 0.279703,-0.287663 0.344454,-0.376828 0.344454,-0.474128 0,-0.259355 -0.37683,-0.409373 -0.547188,-0.218841 -0.105266,0.113404 -0.141887,0.101368 -0.141887,-0.05679 0,-0.166123 -0.129677,-0.340383 -0.308,-0.413442 -0.150192,-0.06458 -0.150192,-0.06458 -0.328515,-0.01187 z"
     id="path6"
     style="fill:url(#linearGradient1831);fill-opacity:1;stroke-width:0.00169513" />
  <path
     fill-rule="evenodd"
     clip-rule="evenodd"
     d="M 24.572985,27.995423 H 11.717446 c -0.472627,0 -0.85612,0.07649 -0.85612,-0.395925 0,-0.473697 0.383493,-0.395925 0.85612,-0.395925 h 12.855539 c 1.483554,0 2.637069,-1.148602 2.637069,-2.636495 V 7.4274906 c 0,-1.6157153 -1.428485,-2.6365387 -2.637069,-2.6365655 L 7.43298,4.7905449 C 6.073552,4.7905144 4.795558,5.9137291 4.795558,7.4271103 V 23.710096 c 0,0.473697 0.07869,0.856982 -0.395001,0.856982 -0.47284,0 -0.39592,-0.383285 -0.39592,-0.856982 V 7.4274906 C 4.004637,5.5344224 5.540131,4 7.43298,4 h 17.140014 c 1.892657,0 3.427063,1.5344224 3.427063,3.4274906 V 24.567078 c 0,1.893065 -1.534406,3.428345 -3.427063,3.428345 z M 8.29017,26.281035 c 0.472627,0 0.856978,0.383712 0.856978,0.857408 0,0.472412 -0.384351,0.85698 -0.856978,0.85698 -0.473688,0 -0.85719,-0.384568 -0.85719,-0.85698 0,-0.473696 0.383502,-0.857408 0.85719,-0.857408 z"
     id="path2-6-3-7"
     style="fill:url(#linearGradient1815);fill-opacity:1;stroke-width:0.0535618"
     sodipodi:nodetypes="sssssssssssssssssssssssss" />
  <rect
     style="fill:#5599ff;fill-opacity:0.1;stroke:none;stroke-width:0.599885"
     id="center-3-5"
     width="23.995384"
     height="23.995422"
     x="4"
     y="4.0000005"
     ry="3.446136" />
</svg>
