<?xml version="1.0" encoding="UTF-8" standalone="no"?>
<svg
   inkscape:version="1.1.1 (3bf5ae0d25, 2021-09-20)"
   sodipodi:docname="system-switch-user.svg"
   id="svg5"
   version="1.1"
   viewBox="0 0 32 32"
   xmlns:inkscape="http://www.inkscape.org/namespaces/inkscape"
   xmlns:sodipodi="http://sodipodi.sourceforge.net/DTD/sodipodi-0.dtd"
   xmlns:xlink="http://www.w3.org/1999/xlink"
   xmlns="http://www.w3.org/2000/svg"
   xmlns:svg="http://www.w3.org/2000/svg"
   xmlns:rdf="http://www.w3.org/1999/02/22-rdf-syntax-ns#"
   xmlns:cc="http://creativecommons.org/ns#"
   xmlns:dc="http://purl.org/dc/elements/1.1/">
  <metadata
     id="metadata9">
    <rdf:RDF>
      <cc:Work
         rdf:about="">
        <dc:format>image/svg+xml</dc:format>
        <dc:type
           rdf:resource="http://purl.org/dc/dcmitype/StillImage" />
      </cc:Work>
    </rdf:RDF>
  </metadata>
  <sodipodi:namedview
     inkscape:document-rotation="0"
     inkscape:current-layer="svg5"
     inkscape:window-maximized="1"
     inkscape:window-y="0"
     inkscape:window-x="0"
     inkscape:cy="9.7655568"
     inkscape:cx="-1.3396793"
     inkscape:zoom="14.182499"
     showgrid="true"
     id="namedview7"
     inkscape:window-height="1007"
     inkscape:window-width="1920"
     inkscape:pageshadow="2"
     inkscape:pageopacity="0"
     guidetolerance="10"
     gridtolerance="10"
     objecttolerance="10"
     borderopacity="1"
     bordercolor="#666666"
     pagecolor="#ffffff"
     inkscape:pagecheckerboard="0">
    <inkscape:grid
       type="xygrid"
       id="grid1064" />
  </sodipodi:namedview>
  <defs
     id="defs3051">
    <style
       id="current-color-scheme"
       type="text/css">
      .ColorScheme-Text {
        color:#eff0f1;
      }
      </style>
    <linearGradient
       inkscape:collect="always"
       xlink:href="#linearGradient5162"
       id="linearGradient1977"
       x1="7.1999998"
       y1="12.17723"
       x2="19.344"
       y2="12.17723"
       gradientUnits="userSpaceOnUse"
       gradientTransform="matrix(0.92290089,0,0,0.92290089,1.2312986,1.231297)" />
    <linearGradient
       inkscape:collect="always"
       id="linearGradient5162">
      <stop
         style="stop-color:#f8bd96;stop-opacity:0.95869339"
         offset="0"
         id="stop5158" />
      <stop
         style="stop-color:#96cdfb;stop-opacity:1"
         offset="1"
         id="stop5160" />
    </linearGradient>
    <linearGradient
       inkscape:collect="always"
       xlink:href="#linearGradient5162"
       id="linearGradient1985"
       x1="12.85571"
       y1="20.476763"
       x2="25"
       y2="20.476763"
       gradientUnits="userSpaceOnUse"
       gradientTransform="matrix(0.92290089,0,0,0.92290089,1.2312986,1.231297)" />
    <linearGradient
       inkscape:collect="always"
       xlink:href="#linearGradient5162"
       id="linearGradient1931"
       x1="3"
       y1="15.90248"
       x2="29.005022"
       y2="15.90248"
       gradientUnits="userSpaceOnUse"
       gradientTransform="matrix(0.92290089,0,0,0.92290089,1.2312986,1.323587)" />
  </defs>
  <path
     d="m 18.300139,14.314694 c -0.505593,0.492918 -1.177659,0.764233 -1.892593,0.764233 h -5.855012 c -0.714806,1.28e-4 -1.3868714,-0.271315 -1.8924644,-0.764233 -0.505464,-0.492789 -0.783884,-1.148009 -0.783884,-1.84502 0,-0.69701 0.27842,-1.352231 0.783884,-1.845021 0.505464,-0.492789 1.1776584,-0.7642323 1.8924644,-0.7642323 h 5.855141 c 0.714676,-1.279e-4 1.386742,0.2713163 1.892464,0.7642323 0.505334,0.49279 0.783755,1.148011 0.783755,1.845021 1.29e-4,0.697011 -0.278421,1.352231 -0.783755,1.84502 z M 9.1698526,11.12166 c -0.369262,0.360136 -0.572706,0.838739 -0.572706,1.348014 -1.3e-4,0.509147 0.203444,0.987879 0.572706,1.348014 0.3694004,0.360007 0.8603094,0.558222 1.3826814,0.55835 l 5.855012,1.27e-4 c 0.522104,0 1.013281,-0.198342 1.38281,-0.558477 0.369133,-0.360135 0.572577,-0.838867 0.572577,-1.348014 2.58e-4,-0.509148 -0.203315,-0.987751 -0.572715,-1.348014 -0.369262,-0.360135 -0.860301,-0.558222 -1.382672,-0.558349 h -5.855012 c -0.522242,0 -1.013281,0.198342 -1.3826814,0.558349 z m 2.0871314,2.183941 c -0.229138,0.223264 -0.533382,0.346205 -0.857292,0.346205 -0.32404,0 -0.628422,-0.122941 -0.85756,-0.346205 -0.2289994,-0.223263 -0.3551044,-0.520266 -0.3551044,-0.836055 0,-0.315533 0.125976,-0.612407 0.3551044,-0.835799 0.229138,-0.223263 0.53352,-0.346204 0.85756,-0.346204 0.668392,0 1.212396,0.530233 1.212526,1.182003 -1.3e-4,0.316045 -0.126235,0.612792 -0.355234,0.836055 z m -0.852428,-1.315957 0.0037,0.0045 -7.47e-4,6.04e-4 -0.0028,-0.0053 2.77e-4,7.74e-4 -0.0055,4.1e-5 z"
     id="path2"
     style="fill:url(#linearGradient1977);fill-opacity:1;stroke-width:0.12943"
     sodipodi:nodetypes="cscsssscccccccccccscsccscscsccccccccc" />
  <path
     d="m 13.879619,18.284294 c 0.505602,-0.492912 1.177686,-0.764226 1.892639,-0.764226 h 5.855151 c 0.714824,-1.3e-4 1.386908,0.271314 1.89251,0.764226 0.505472,0.492792 0.783902,1.148015 0.783902,1.845027 0,0.697002 -0.27843,1.352225 -0.783902,1.845017 -0.505473,0.492792 -1.177686,0.764236 -1.89251,0.764236 h -5.85528 c -0.714695,1.2e-4 -1.386779,-0.271324 -1.89251,-0.764236 -0.505344,-0.492792 -0.783774,-1.148015 -0.783774,-1.845017 -1.29e-4,-0.697012 0.27843,-1.352235 0.783774,-1.845027 z m 9.130498,3.193034 c 0.369281,-0.360134 0.572725,-0.838732 0.572725,-1.348007 1.29e-4,-0.509156 -0.203444,-0.987883 -0.572725,-1.348017 -0.3694,-0.360005 -0.860328,-0.558226 -1.382708,-0.558355 l -5.855151,-1.2e-4 c -0.522122,0 -1.013308,0.19834 -1.382838,0.558475 -0.369142,0.360134 -0.572595,0.838861 -0.572595,1.348017 -2.59e-4,0.509146 0.203315,0.987744 0.572724,1.348007 0.369272,0.360135 0.860329,0.558226 1.382709,0.558355 h 5.855151 c 0.522251,0 1.013308,-0.19835 1.382708,-0.558355 z m -2.087168,-2.183934 c 0.229138,-0.223268 0.533391,-0.346208 0.857311,-0.346208 0.324049,0 0.628431,0.12294 0.857568,0.346208 0.229018,0.223259 0.355124,0.520258 0.355124,0.836047 0,0.315539 -0.125976,0.612409 -0.355124,0.835806 -0.229137,0.223259 -0.533519,0.346199 -0.857568,0.346199 -0.66842,0 -1.212434,-0.530234 -1.212563,-1.182005 1.29e-4,-0.316039 0.126244,-0.612788 0.355252,-0.836047 z m 0.864371,0.355786 -3.42e-4,3.6e-4 0.0018,-0.0037 -0.0083,0.0042 0.0074,2.27e-4 -0.0037,-0.0019 z"
     id="path2-2"
     style="fill:url(#linearGradient1985);fill-opacity:1;stroke-width:0.129432"
     sodipodi:nodetypes="cscsssscccccccccccscsccscscsccccccccc" />
  <path
     fill-rule="evenodd"
     clip-rule="evenodd"
     d="M 24.572985,27.995424 H 11.717447 c -0.472627,0 -0.85612,0.07649 -0.85612,-0.395925 0,-0.473697 0.383493,-0.395926 0.85612,-0.395926 h 12.855538 c 1.483545,0 2.63707,-1.148601 2.63707,-2.636494 V 7.4274906 c 0,-1.6157153 -1.428494,-2.6365386 -2.63707,-2.6365656 L 7.4329806,4.790545 c -1.359424,-3.1e-5 -2.63742,1.1231841 -2.63742,2.6365653 V 23.710097 c 0,0.473696 0.07872,0.856982 -0.395002,0.856982 -0.472839,0 -0.395924,-0.383286 -0.395924,-0.856982 V 7.4274906 C 4.0046346,5.5344224 5.5401296,4 7.4329806,4 H 24.572995 c 1.892657,0 3.427063,1.5344224 3.427063,3.4274906 V 24.567079 c 0,1.893065 -1.534406,3.428345 -3.427063,3.428345 z M 8.2901706,26.281035 c 0.472627,0 0.856978,0.383712 0.856978,0.857408 0,0.472413 -0.384351,0.85698 -0.856978,0.85698 -0.473697,0 -0.85719,-0.384567 -0.85719,-0.85698 0,-0.473696 0.383493,-0.857408 0.85719,-0.857408 z"
     id="path2-6-3-7-5-3-5-6"
     style="fill:url(#linearGradient1931);fill-opacity:1;stroke-width:0.0535618"
     sodipodi:nodetypes="sssssssssssssssssssssssss" />
  <rect
     style="fill:#5599ff;fill-opacity:0.1;stroke:none;stroke-width:0.599885"
     id="center-3-7"
     width="23.995384"
     height="23.995422"
     x="4.0046768"
     y="4"
     ry="3.446136" />
</svg>
