<?xml version="1.0" encoding="UTF-8" standalone="no"?>
<svg
   inkscape:version="1.1.1 (3bf5ae0d25, 2021-09-20)"
   sodipodi:docname="system-shutdown.svg"
   id="svg6"
   version="1.1"
   viewBox="0 0 32 32"
   xmlns:inkscape="http://www.inkscape.org/namespaces/inkscape"
   xmlns:sodipodi="http://sodipodi.sourceforge.net/DTD/sodipodi-0.dtd"
   xmlns:xlink="http://www.w3.org/1999/xlink"
   xmlns="http://www.w3.org/2000/svg"
   xmlns:svg="http://www.w3.org/2000/svg"
   xmlns:rdf="http://www.w3.org/1999/02/22-rdf-syntax-ns#"
   xmlns:cc="http://creativecommons.org/ns#"
   xmlns:dc="http://purl.org/dc/elements/1.1/">
  <metadata
     id="metadata10">
    <rdf:RDF>
      <cc:Work
         rdf:about="">
        <dc:format>image/svg+xml</dc:format>
        <dc:type
           rdf:resource="http://purl.org/dc/dcmitype/StillImage" />
      </cc:Work>
    </rdf:RDF>
  </metadata>
  <sodipodi:namedview
     inkscape:document-rotation="0"
     inkscape:lockguides="true"
     inkscape:current-layer="svg6"
     inkscape:window-maximized="1"
     inkscape:window-y="0"
     inkscape:window-x="0"
     inkscape:cy="21.681651"
     inkscape:cx="35.325227"
     inkscape:zoom="14.182499"
     showgrid="false"
     id="namedview8"
     inkscape:window-height="1007"
     inkscape:window-width="1920"
     inkscape:pageshadow="2"
     inkscape:pageopacity="0"
     guidetolerance="10"
     gridtolerance="10"
     objecttolerance="10"
     borderopacity="1"
     bordercolor="#666666"
     pagecolor="#ffffff"
     inkscape:pagecheckerboard="0" />
  <defs
     id="defs3051">
    <style
       id="current-color-scheme"
       type="text/css">
      .ColorScheme-Text {
        color:#eff0f1;
      }
      </style>
    <linearGradient
       inkscape:collect="always"
       xlink:href="#linearGradient3735"
       id="linearGradient1807"
       x1="14.2"
       y1="14.523096"
       x2="18.485722"
       y2="14.523096"
       gradientUnits="userSpaceOnUse"
       gradientTransform="matrix(0.9229009,0,0,0.9229009,1.2312964,1.1390072)" />
    <linearGradient
       inkscape:collect="always"
       id="linearGradient3735">
      <stop
         style="stop-color:#96cdfb;stop-opacity:0.99219722"
         offset="0"
         id="stop3731" />
      <stop
         style="stop-color:#f28fad;stop-opacity:1"
         offset="1"
         id="stop3733" />
    </linearGradient>
    <linearGradient
       inkscape:collect="always"
       xlink:href="#linearGradient3735"
       id="linearGradient1761"
       x1="3"
       y1="16.10248"
       x2="29.005022"
       y2="16.10248"
       gradientUnits="userSpaceOnUse"
       gradientTransform="matrix(0.9229009,0,0,0.9229009,1.2312964,1.1390072)" />
  </defs>
  <path
     d="m 18.291786,10.19156 v 8.701651 c 0,0.66449 -0.727775,1.186589 -1.661225,1.186589 h -0.632847 c -0.93345,0 -1.661225,-0.522099 -1.661225,-1.186589 v -6.328474 c 0,-0.527372 0.791059,-0.527372 0.791059,0 v 6.328474 c 0,0.138436 0.332245,0.39553 0.870166,0.39553 h 0.632847 c 0.537921,0 0.870166,-0.257094 0.870166,-0.39553 V 10.19156 c 0,-0.138435 -0.332245,-0.395531 -0.870166,-0.395531 h -0.632847 c -0.537921,0 -0.870166,0.257096 -0.870166,0.395531 v 0.791059 c 0,0.527373 -0.791059,0.527373 -0.791059,0 V 10.19156 c 0,-0.6644901 0.727775,-1.1865899 1.661225,-1.1865899 h 0.632847 c 0.93345,0 1.661225,0.5220998 1.661225,1.1865899 z m 0,0 z"
     id="path4-6"
     sodipodi:nodetypes="ssssssssssssssssssssscccccccccccccccccc"
     style="fill:url(#linearGradient1807);fill-opacity:1;stroke-width:0.395529" />
  <path
     fill-rule="evenodd"
     clip-rule="evenodd"
     d="M 24.572987,27.995424 H 11.717442 c -0.472621,0 -0.85612,0.07649 -0.85612,-0.395926 0,-0.473696 0.383499,-0.395924 0.85612,-0.395924 h 12.855545 c 1.483546,0 2.637063,-1.148603 2.637063,-2.636496 V 7.4274906 c 0,-1.6157152 -1.428486,-2.6365387 -2.637063,-2.6365654 L 7.4329774,4.7905449 c -1.359426,-3.04e-5 -2.637421,1.1231843 -2.637421,2.6365655 V 23.710097 c 0,0.473696 0.07869,0.856981 -0.395001,0.856981 -0.47284,0 -0.39592,-0.383285 -0.39592,-0.856981 V 7.4274906 C 4.0046354,5.5344224 5.5401294,4 7.4329824,4 H 24.572991 c 1.89266,0 3.427067,1.5344224 3.427067,3.4274906 V 24.567078 c 0,1.893066 -1.534407,3.428346 -3.427067,3.428346 z M 8.2901704,26.281035 c 0.472622,0 0.856978,0.383712 0.856978,0.857409 0,0.472411 -0.384356,0.85698 -0.856978,0.85698 -0.473694,0 -0.857193,-0.384569 -0.857193,-0.85698 0,-0.473697 0.383499,-0.857409 0.857193,-0.857409 z"
     id="path2-6-3"
     style="fill:url(#linearGradient1761);fill-opacity:1;stroke-width:0.0535618"
     sodipodi:nodetypes="sssssssssssssssssssssssss" />
  <rect
     style="fill:#5599ff;fill-opacity:0.1;stroke:none;stroke-width:0.599885"
     id="center-3"
     width="23.995384"
     height="23.995424"
     x="4.0046773"
     y="4.0000005"
     ry="3.446136" />
</svg>
