<?xml version="1.0" encoding="UTF-8" standalone="no"?>
<svg
   inkscape:version="1.1.1 (3bf5ae0d25, 2021-09-20)"
   sodipodi:docname="system-suspend.svg"
   id="svg5"
   version="1.1"
   viewBox="0 0 32 32"
   xmlns:inkscape="http://www.inkscape.org/namespaces/inkscape"
   xmlns:sodipodi="http://sodipodi.sourceforge.net/DTD/sodipodi-0.dtd"
   xmlns:xlink="http://www.w3.org/1999/xlink"
   xmlns="http://www.w3.org/2000/svg"
   xmlns:svg="http://www.w3.org/2000/svg"
   xmlns:rdf="http://www.w3.org/1999/02/22-rdf-syntax-ns#"
   xmlns:cc="http://creativecommons.org/ns#"
   xmlns:dc="http://purl.org/dc/elements/1.1/">
  <metadata
     id="metadata9">
    <rdf:RDF>
      <cc:Work
         rdf:about="">
        <dc:format>image/svg+xml</dc:format>
        <dc:type
           rdf:resource="http://purl.org/dc/dcmitype/StillImage" />
      </cc:Work>
    </rdf:RDF>
  </metadata>
  <sodipodi:namedview
     inkscape:document-rotation="0"
     inkscape:current-layer="svg5"
     inkscape:window-maximized="1"
     inkscape:window-y="0"
     inkscape:window-x="0"
     inkscape:cy="15.194783"
     inkscape:cx="-7.1919624"
     inkscape:zoom="14.182499"
     showgrid="true"
     id="namedview7"
     inkscape:window-height="1007"
     inkscape:window-width="1920"
     inkscape:pageshadow="2"
     inkscape:pageopacity="0"
     guidetolerance="10"
     gridtolerance="10"
     objecttolerance="10"
     borderopacity="1"
     bordercolor="#666666"
     pagecolor="#ffffff"
     inkscape:pagecheckerboard="0">
    <inkscape:grid
       type="xygrid"
       id="grid1065" />
  </sodipodi:namedview>
  <defs
     id="defs3051">
    <style
       id="current-color-scheme"
       type="text/css">
      .ColorScheme-Text {
        color:#eff0f1;
      }
      </style>
    <linearGradient
       inkscape:collect="always"
       xlink:href="#linearGradient2495"
       id="linearGradient1661"
       x1="10.114435"
       y1="20.08079"
       x2="14.474239"
       y2="20.08079"
       gradientUnits="userSpaceOnUse"
       gradientTransform="matrix(0.92290089,0,0,0.92290089,1.2312963,1.231297)" />
    <linearGradient
       inkscape:collect="always"
       id="linearGradient2495">
      <stop
         style="stop-color:#f5c2e7;stop-opacity:1"
         offset="0"
         id="stop2491" />
      <stop
         style="stop-color:#b5e8e0;stop-opacity:1"
         offset="1"
         id="stop2493" />
    </linearGradient>
    <linearGradient
       inkscape:collect="always"
       xlink:href="#linearGradient2495"
       id="linearGradient1645"
       x1="20.2607"
       y1="16.05501"
       x2="23.748545"
       y2="16.05501"
       gradientUnits="userSpaceOnUse"
       gradientTransform="matrix(0.92290089,0,0,0.92290089,1.2312963,1.231297)" />
    <linearGradient
       inkscape:collect="always"
       xlink:href="#linearGradient2495"
       id="linearGradient1629"
       x1="14.092897"
       y1="10.7"
       x2="17.231962"
       y2="10.7"
       gradientUnits="userSpaceOnUse"
       gradientTransform="matrix(0.92290089,0,0,0.92290089,1.2312963,1.231297)" />
    <linearGradient
       inkscape:collect="always"
       xlink:href="#linearGradient2495"
       id="linearGradient1653"
       x1="18.585016"
       y1="22.014229"
       x2="22.585016"
       y2="22.014229"
       gradientUnits="userSpaceOnUse"
       gradientTransform="matrix(0.92290089,0,0,0.92290089,1.2312963,1.231297)" />
    <linearGradient
       inkscape:collect="always"
       xlink:href="#linearGradient2495"
       id="linearGradient1637"
       x1="8.1000004"
       y1="12.800212"
       x2="12.1"
       y2="12.800212"
       gradientUnits="userSpaceOnUse"
       gradientTransform="matrix(0.92290089,0,0,0.92290089,1.2312963,1.231297)" />
    <linearGradient
       inkscape:collect="always"
       xlink:href="#linearGradient2495"
       id="linearGradient1583"
       x1="3"
       y1="16.10248"
       x2="29.005022"
       y2="16.10248"
       gradientUnits="userSpaceOnUse"
       gradientTransform="matrix(0.92290089,0,0,0.92290089,1.2312963,1.139007)" />
  </defs>
  <path
     d="m 13.939332,20.770615 h -1.350024 l 1.851743,-2.251139 c 0.158432,-0.194748 0.191441,-0.462113 0.08581,-0.689861 -0.108918,-0.227753 -0.336678,-0.372991 -0.587534,-0.372991 h -2.723158 c -0.359789,0 -0.650253,0.290464 -0.650253,0.650253 0,0.359793 0.290464,0.65026 0.650253,0.65026 h 1.350023 l -1.851742,2.25114 c -0.158432,0.194747 -0.191441,0.46211 -0.08581,0.689861 0.108918,0.227754 0.336678,0.372991 0.587534,0.372991 h 2.723158 c 0.35978,0 0.650252,-0.290465 0.650252,-0.650254 0,-0.35979 -0.293771,-0.65026 -0.650252,-0.65026 z"
     id="path4-1"
     style="fill:url(#linearGradient1661);fill-opacity:1;stroke-width:0.0330083" />
  <path
     d="m 22.628643,16.85387 h -1.080016 l 1.481396,-1.800912 c 0.126741,-0.155796 0.15315,-0.369688 0.06865,-0.551887 -0.08713,-0.182199 -0.269343,-0.298392 -0.470026,-0.298392 h -2.178526 c -0.287835,0 -0.520203,0.232368 -0.520203,0.520202 0,0.287834 0.232368,0.52021 0.520203,0.52021 h 1.080015 l -1.481392,1.800912 c -0.126744,0.155796 -0.15315,0.369688 -0.06865,0.551887 0.08713,0.182199 0.269343,0.298392 0.470023,0.298392 h 2.178526 c 0.28783,0 0.520206,-0.232368 0.520206,-0.520202 0,-0.287834 -0.23502,-0.52021 -0.520206,-0.52021 z"
     id="path4-1-8"
     style="fill:url(#linearGradient1645);fill-opacity:1;stroke-width:0.0264068" />
  <path
     d="m 16.666506,11.831189 h -0.972014 l 1.333251,-1.620821 c 0.114071,-0.140218 0.137838,-0.33272 0.06178,-0.4967 -0.07842,-0.163981 -0.242406,-0.268552 -0.423021,-0.268552 h -1.960674 c -0.25905,0 -0.468183,0.209133 -0.468183,0.468181 0,0.259051 0.209133,0.468188 0.468183,0.468188 h 0.972014 l -1.333255,1.620821 c -0.114071,0.140217 -0.137834,0.332719 -0.06178,0.496699 0.07842,0.163982 0.242409,0.268554 0.423025,0.268554 h 1.960674 c 0.259046,0 0.468183,-0.209135 0.468183,-0.468183 0,-0.25905 -0.211518,-0.468187 -0.468183,-0.468187 z"
     id="path4-1-7"
     style="fill:url(#linearGradient1629);fill-opacity:1;stroke-width:0.0237662" />
  <path
     d="m 19.975722,20.354098 c -0.133389,0.355834 -0.251294,0.658287 -0.260238,0.671558 -0.0089,0.01116 -0.311305,0.131181 -0.673771,0.266876 -0.362467,0.133386 -0.658288,0.249081 -0.658288,0.255717 0,0.0066 0.293513,0.120115 0.651556,0.253502 0.355831,0.133396 0.660499,0.253512 0.673867,0.266876 0.01336,0.01337 0.133388,0.31804 0.266874,0.673865 0.133387,0.358049 0.246869,0.651559 0.253505,0.651559 0.0066,0 0.120117,-0.29351 0.253505,-0.651559 0.131178,-0.355825 0.251294,-0.660493 0.266873,-0.673865 0.01337,-0.01336 0.318037,-0.133387 0.67608,-0.266876 0.355831,-0.133387 0.649344,-0.246866 0.649344,-0.253502 0,-0.0066 -0.293513,-0.120116 -0.651556,-0.253502 -0.355831,-0.133397 -0.658287,-0.249082 -0.671559,-0.257933 -0.01116,-0.01116 -0.131177,-0.313518 -0.266874,-0.67608 -0.133388,-0.362469 -0.249081,-0.658287 -0.255717,-0.658287 -0.0066,0 -0.120214,0.293704 -0.253601,0.651651 z"
     id="path4-20"
     style="fill:url(#linearGradient1653);fill-opacity:1;stroke-width:0.000961709" />
  <path
     d="m 10.29909,11.850474 c -0.133389,0.355833 -0.251294,0.658286 -0.260238,0.671558 -0.0089,0.01116 -0.3113036,0.131181 -0.6737706,0.266875 -0.362466,0.133387 -0.658287,0.249082 -0.658287,0.255717 0,0.0066 0.293513,0.120116 0.651556,0.253503 0.355831,0.133396 0.6604986,0.253512 0.6738666,0.266875 0.01336,0.01337 0.133388,0.318041 0.266873,0.673865 0.133388,0.358049 0.24687,0.651559 0.253505,0.651559 0.0066,0 0.120118,-0.29351 0.253506,-0.651559 0.131177,-0.355824 0.251293,-0.660492 0.266873,-0.673865 0.01337,-0.01336 0.318036,-0.133387 0.676079,-0.266875 0.355831,-0.133387 0.649344,-0.246867 0.649344,-0.253503 0,-0.0066 -0.293513,-0.120115 -0.651556,-0.253502 -0.355831,-0.133396 -0.658287,-0.249082 -0.671559,-0.257932 -0.01116,-0.01116 -0.131176,-0.313519 -0.266873,-0.676081 -0.133388,-0.362469 -0.249082,-0.658286 -0.255718,-0.658286 -0.0066,0 -0.120213,0.293704 -0.253601,0.651651 z"
     id="path4-23"
     style="fill:url(#linearGradient1637);fill-opacity:1;stroke-width:0.000961709" />
  <path
     fill-rule="evenodd"
     clip-rule="evenodd"
     d="M 24.572986,27.995424 H 11.717442 c -0.472621,0 -0.85612,0.07649 -0.85612,-0.395926 0,-0.473696 0.383499,-0.395925 0.85612,-0.395925 h 12.855544 c 1.483547,0 2.637064,-1.148602 2.637064,-2.636494 V 7.427491 c 0,-1.615716 -1.428486,-2.636539 -2.637064,-2.636566 L 7.4329774,4.790545 c -1.359426,-3.1e-5 -2.637421,1.123184 -2.637421,2.636566 v 16.282985 c 0,0.473697 0.07869,0.856982 -0.395001,0.856982 -0.47284,0 -0.39592,-0.383285 -0.39592,-0.856982 V 7.427491 C 4.0046354,5.534422 5.5401294,4 7.4329824,4 H 24.572991 c 1.892659,0 3.427067,1.534422 3.427067,3.427491 v 17.139588 c 0,1.893065 -1.534408,3.428345 -3.427067,3.428345 z M 8.2901704,26.281036 c 0.472622,0 0.856978,0.383711 0.856978,0.857408 0,0.472411 -0.384356,0.85698 -0.856978,0.85698 -0.473694,0 -0.857193,-0.384569 -0.857193,-0.85698 0,-0.473697 0.383499,-0.857408 0.857193,-0.857408 z"
     id="path2-6-3-3-6"
     style="fill:url(#linearGradient1583);fill-opacity:1;stroke-width:0.0535618"
     sodipodi:nodetypes="sssssssssssssssssssssssss" />
  <rect
     style="fill:#5599ff;fill-opacity:0.1;stroke:none;stroke-width:0.560661"
     id="center-3-6"
     width="22.426456"
     height="22.426491"
     x="4.7844667"
     y="4.7844667"
     ry="2.461967" />
</svg>
