<?xml version="1.0" encoding="UTF-8" standalone="no"?>
<svg
   viewBox="0 0 32 32"
   version="1.1"
   id="svg9"
   sodipodi:docname="xfsm-hibernate.svg"
   inkscape:version="1.1.1 (3bf5ae0d25, 2021-09-20)"
   xmlns:inkscape="http://www.inkscape.org/namespaces/inkscape"
   xmlns:sodipodi="http://sodipodi.sourceforge.net/DTD/sodipodi-0.dtd"
   xmlns:xlink="http://www.w3.org/1999/xlink"
   xmlns="http://www.w3.org/2000/svg"
   xmlns:svg="http://www.w3.org/2000/svg">
  <defs
     id="defs13">
    <linearGradient
       inkscape:collect="always"
       xlink:href="#linearGradient4135"
       id="linearGradient1823"
       x1="7.3000002"
       y1="13.420045"
       x2="18.847115"
       y2="13.420045"
       gradientUnits="userSpaceOnUse" />
    <linearGradient
       inkscape:collect="always"
       id="linearGradient4135">
      <stop
         style="stop-color:#fae3b0;stop-opacity:0.96323252"
         offset="0"
         id="stop4131" />
      <stop
         style="stop-color:#e8a2af;stop-opacity:1"
         offset="1"
         id="stop4133" />
    </linearGradient>
    <linearGradient
       inkscape:collect="always"
       xlink:href="#linearGradient4135"
       id="linearGradient1831"
       x1="17.612005"
       y1="21.350149"
       x2="24.330618"
       y2="21.350149"
       gradientUnits="userSpaceOnUse" />
    <linearGradient
       inkscape:collect="always"
       xlink:href="#linearGradient4135"
       id="linearGradient1815"
       x1="3"
       y1="15.90248"
       x2="29.005022"
       y2="15.90248"
       gradientUnits="userSpaceOnUse"
       gradientTransform="translate(-3.246376e-7,0.10000028)" />
  </defs>
  <sodipodi:namedview
     id="namedview11"
     pagecolor="#ffffff"
     bordercolor="#666666"
     borderopacity="1.0"
     inkscape:pageshadow="2"
     inkscape:pageopacity="0.0"
     inkscape:pagecheckerboard="0"
     showgrid="false"
     inkscape:zoom="9.71875"
     inkscape:cx="-8.3344051"
     inkscape:cy="7.0482315"
     inkscape:window-width="1920"
     inkscape:window-height="1007"
     inkscape:window-x="0"
     inkscape:window-y="0"
     inkscape:window-maximized="1"
     inkscape:current-layer="svg9" />
  <style
     type="text/css"
     id="current-color-scheme">
        .ColorScheme-Text {
            color:#eff0f1;
        }
    </style>
  <path
     d="m 12.746299,7.1729701 c -0.26339,0.1272861 -0.33815,0.2898376 -0.35137,0.7729002 l -0.0176,0.4303482 -0.27661,-0.2677967 c -0.32052,-0.3030621 -0.52256,-0.4083073 -0.7246,-0.3688174 -0.16677,0.035082 -0.37763,0.2371231 -0.40831,0.3952664 -0.0439,0.2459395 0.0439,0.3776338 0.73764,1.0713704 l 0.68069,0.6849198 -0.009,1.146125 -0.0132,1.150534 -0.99241,-0.570858 -0.9878,-0.575267 -0.24153,-0.904595 C 9.9357493,9.3379351 9.8874496,9.2106492 9.7645696,9.0831792 c -0.10984,-0.1142449 -0.17118,-0.1405099 -0.32051,-0.1405099 -0.23712,0 -0.41713,0.1098369 -0.51374,0.3074698 -0.0702,0.149327 -0.0702,0.171184 0.0395,0.5796749 0.0615,0.237123 0.10102,0.430348 0.0878,0.430348 -0.009,0 -0.16255,-0.07898 -0.33814,-0.175593 -0.50052,-0.276612 -0.83866,-0.223898 -1.11105,0.175593 -0.0834,0.122878 -0.10102,0.197633 -0.0878,0.377634 0.0263,0.298653 0.14933,0.461021 0.52255,0.680695 0.17119,0.09661 0.29866,0.188817 0.28984,0.202042 -0.0132,0.0088 -0.17559,0.06153 -0.36441,0.109837 -0.42594,0.105429 -0.48306,0.136102 -0.58849,0.311695 -0.14933,0.237123 -0.0834,0.548818 0.14051,0.706961 0.15814,0.114245 0.40831,0.08339 1.2646,-0.149327 0.44798,-0.118654 0.83865,-0.219491 0.86951,-0.219491 0.0878,0 1.9847794,1.106636 1.9629194,1.141718 -0.0132,0.02204 -0.4522,0.285429 -0.97916,0.588492 l -0.9573094,0.548634 -0.89137,-0.237123 c -0.49188,-0.131695 -0.93968,-0.241532 -1.00121,-0.241532 -0.28102,0 -0.52696,0.311879 -0.47865,0.605941 0.0395,0.254756 0.21508,0.38645 0.65424,0.500511 0.21086,0.05712 0.38204,0.114062 0.38204,0.127287 0,0.01322 -0.10102,0.07898 -0.22389,0.149327 -0.47003,0.254755 -0.6368,0.48747 -0.60172,0.83443 0.0307,0.258981 0.20204,0.478655 0.4478,0.570859 0.25475,0.09661 0.41271,0.06594 0.79035,-0.153735 0.16696,-0.09661 0.30747,-0.171368 0.31169,-0.16696 0.009,0.0088 -0.0351,0.202042 -0.0966,0.430349 -0.10102,0.395266 -0.10543,0.430348 -0.0439,0.584083 0.0746,0.175592 0.29865,0.338144 0.46102,0.338144 0.14933,0 0.39968,-0.127286 0.45662,-0.237123 0.0307,-0.04831 0.1625494,-0.496104 0.2986494,-0.987983 l 0.24153,-0.900186 0.96613,-0.562042 c 0.53137,-0.307471 0.97916,-0.557635 1.0012,-0.562043 0.0176,0 0.0307,0.509328 0.0307,1.132901 v 1.128493 l -0.68033,0.680696 c -0.48306,0.483063 -0.69373,0.724594 -0.72459,0.825615 -0.11424,0.412715 0.34255,0.807982 0.71578,0.619165 0.0527,-0.02626 0.22831,-0.180001 0.39527,-0.338144 l 0.29424,-0.289838 v 0.417124 c 0,0.500695 0.0746,0.658655 0.39527,0.821207 0.24594,0.122878 0.37763,0.122878 0.61475,-0.0044 0.28103,-0.149327 0.39527,-0.38645 0.39527,-0.830022 0,-0.188817 0.0176,-0.342552 0.0395,-0.342552 0.0176,0 0.12729,0.09661 0.23712,0.210857 0.29425,0.320511 0.42154,0.404083 0.5885,0.404083 0.32051,0 0.54018,-0.228307 0.54018,-0.55341 0,-0.153735 -0.0483,-0.210674 -0.70255,-0.873737 l -0.70255,-0.70697 V 15.80179 c 0,-0.63239 0.009,-1.150534 0.0176,-1.150534 0.0132,0 1.91902,1.093411 1.9497,1.119677 0.009,0.0044 0.11865,0.408307 0.25035,0.895778 0.13169,0.487471 0.26338,0.926635 0.28543,0.974941 0.0659,0.114246 0.30306,0.259164 0.43034,0.259164 0.16256,0 0.37764,-0.122877 0.46103,-0.259164 0.0966,-0.166776 0.0922,-0.329327 -0.0176,-0.73341 -0.0483,-0.18 -0.0834,-0.338144 -0.0746,-0.34696 0.009,-0.01322 0.1361,0.05271 0.27661,0.140511 0.14473,0.08339 0.32492,0.175592 0.39526,0.197633 0.48307,0.14051 0.98799,-0.351369 0.85629,-0.838656 -0.0659,-0.241531 -0.18,-0.368817 -0.50492,-0.553226 -0.15814,-0.0878 -0.28543,-0.171184 -0.28543,-0.193225 0,-0.01763 0.14492,-0.06594 0.32052,-0.114245 0.38204,-0.09661 0.53136,-0.166776 0.61916,-0.294246 0.0922,-0.127286 0.0922,-0.469838 0,-0.597124 -0.0792,-0.114245 -0.28543,-0.228307 -0.41272,-0.228307 -0.0527,0 -0.49628,0.109837 -0.98798,0.241532 l -0.89651,0.237123 -0.95731,-0.548818 c -0.52696,-0.30747 -0.97035,-0.566451 -0.98798,-0.584083 -0.0307,-0.02645 1.82241,-1.115269 1.94088,-1.13731 0.0395,-0.0088 0.4478,0.0878 0.9046,0.210858 0.45679,0.127286 0.89577,0.228307 0.97475,0.228307 0.42172,0 0.65443,-0.509328 0.37764,-0.838656 -0.0834,-0.09661 -0.19323,-0.158143 -0.42594,-0.223898 -0.59272,-0.171185 -0.56645,-0.140511 -0.24594,-0.316103 0.35137,-0.197634 0.51814,-0.373226 0.56645,-0.588492 0.079,-0.338144 -0.11866,-0.711369 -0.42594,-0.8079809 -0.23272,-0.07898 -0.48747,-0.03067 -0.79476,0.1537339 -0.15373,0.0878 -0.28984,0.153735 -0.30306,0.140511 -0.009,-0.01323 0.022,-0.175592 0.0748,-0.364409 0.12288,-0.4347558 0.10102,-0.6542468 -0.0878,-0.8212058 -0.21527,-0.1932251 -0.61476,-0.1493268 -0.76849,0.08339 -0.0353,0.05272 -0.16696,0.4786539 -0.28984,0.9484918 -0.12288,0.46543 -0.24153,0.873921 -0.25898,0.909002 -0.0176,0.03067 -0.46543,0.311695 -0.99239,0.619165 l -0.96172,0.553227 -0.0132,-1.141718 -0.009,-1.141717 0.65425,-0.6630628 c 0.36,-0.3600014 0.67629,-0.7025534 0.70255,-0.7552678 0.18882,-0.3732256 -0.20645,-0.8298392 -0.61475,-0.7157776 -0.0878,0.026449 -0.27221,0.166776 -0.44358,0.3381438 L 13.791399,8.389443 V 8.0380746 c 0,-0.4171236 -0.10983,-0.685104 -0.34696,-0.8386555 -0.18,-0.1230615 -0.48306,-0.1318779 -0.69814,-0.026449 z"
     id="path4-7"
     style="fill:url(#linearGradient1823);fill-opacity:1;stroke-width:0.00183674" />
  <path
     d="m 20.786449,17.641652 c -0.1756,0.05271 -0.31611,0.223899 -0.34678,0.439165 l -0.0265,0.171184 -0.11406,-0.0878 c -0.20205,-0.162551 -0.4917,-0.09661 -0.57086,0.122878 -0.0615,0.184409 0.022,0.333736 0.38204,0.689512 l 0.31169,0.302879 v 0.584083 0.579675 l -0.50069,-0.289834 -0.4961,-0.289837 -0.12288,-0.478655 c -0.0966,-0.368817 -0.14933,-0.496103 -0.23272,-0.562042 -0.2722,-0.21949 -0.63679,0.04831 -0.53577,0.390858 0.0439,0.153735 0.0263,0.162552 -0.1317,0.07035 -0.32492,-0.184408 -0.74645,0.07898 -0.74645,0.461022 0,0.180001 0.0659,0.302879 0.23713,0.447981 0.13169,0.114245 0.13169,0.11847 0.0351,0.122878 -0.27221,0 -0.41713,0.417124 -0.21509,0.60594 0.1317,0.122878 0.20645,0.122878 0.74645,-0.02186 l 0.44798,-0.114245 0.49188,0.281021 c 0.56645,0.32492 0.57527,0.259164 -0.0746,0.63239 l -0.42153,0.241531 -0.47425,-0.127286 c -0.61916,-0.166776 -0.81679,-0.109837 -0.81679,0.237123 0,0.175593 0.0702,0.272205 0.24153,0.329328 l 0.14933,0.04831 -0.17119,0.16696 c -0.15814,0.149327 -0.17559,0.188816 -0.17559,0.373225 0,0.180001 0.022,0.232715 0.14933,0.360001 0.0834,0.08339 0.19763,0.149327 0.25475,0.153735 0.18,0.0088 0.32051,-0.0088 0.36019,-0.05271 0.0834,-0.07457 0.11406,-0.03949 0.10524,0.127286 -0.013,0.320511 0.20645,0.496103 0.48306,0.382042 0.14051,-0.06153 0.17119,-0.127286 0.36882,-0.873921 0.0571,-0.210858 0.0615,-0.215082 0.54019,-0.491879 l 0.48306,-0.276613 0.013,0.575267 0.0132,0.579675 -0.35614,0.355593 c -0.28984,0.294246 -0.3556,0.38645 -0.36019,0.500512 -0.009,0.316103 0.35137,0.46543 0.58408,0.241531 l 0.11425,-0.109837 0.0309,0.184409 c 0.022,0.127286 0.0746,0.228306 0.18441,0.338143 0.14051,0.140511 0.16696,0.149327 0.37763,0.131695 0.29866,-0.03067 0.47425,-0.20645 0.47425,-0.478655 v -0.18 l 0.1361,0.114245 c 0.17137,0.144919 0.36,0.149327 0.5007,0.0044 0.20626,-0.202041 0.15814,-0.338144 -0.26339,-0.764084 l -0.37323,-0.382042 v -0.557634 c 0,-0.307287 0.009,-0.557634 0.022,-0.557634 0.0176,0 0.87392,0.483062 0.97917,0.553226 0.009,0.0044 0.0704,0.21949 0.14051,0.478654 0.14933,0.544594 0.21067,0.636798 0.43916,0.636798 0.23713,0 0.37323,-0.158143 0.33815,-0.395266 -0.022,-0.158144 -0.013,-0.180001 0.0483,-0.153735 0.33814,0.14051 0.58408,0.0878 0.74204,-0.149327 0.17559,-0.258981 0.10543,-0.566451 -0.16678,-0.742043 l -0.14051,-0.0878 0.13611,-0.03067 c 0.15814,-0.03067 0.3161,-0.20645 0.3161,-0.34696 0,-0.05271 -0.0309,-0.140511 -0.0702,-0.193225 -0.12729,-0.184409 -0.23272,-0.188817 -0.75527,-0.04831 l -0.47865,0.127286 -0.48747,-0.272204 c -0.2678,-0.153736 -0.49188,-0.28543 -0.49188,-0.298654 0,-0.01322 0.21949,-0.149327 0.48306,-0.303062 l 0.48747,-0.281022 0.4478,0.11847 c 0.54882,0.140511 0.62357,0.140511 0.75526,0.0044 0.19764,-0.193225 0.0966,-0.50492 -0.17559,-0.575267 -0.0615,-0.01322 -0.10983,-0.03508 -0.10983,-0.0439 0,-0.0088 0.0746,-0.08339 0.16677,-0.166776 0.14492,-0.136102 0.16255,-0.171184 0.16255,-0.373225 0,-0.188817 -0.022,-0.241532 -0.13169,-0.355777 -0.17119,-0.166776 -0.39949,-0.210674 -0.59713,-0.114245 -0.0747,0.03949 -0.14491,0.07035 -0.14932,0.07035 -0.009,0 0,-0.0878 0.009,-0.193225 0.022,-0.166776 0.009,-0.210858 -0.0878,-0.30747 -0.12288,-0.122878 -0.23272,-0.140511 -0.39968,-0.06594 -0.13169,0.06153 -0.1361,0.07457 -0.28983,0.632389 l -0.11866,0.439165 -0.25898,0.158143 c -0.14051,0.08339 -0.37322,0.219491 -0.50951,0.298654 l -0.25457,0.140511 V 19.87219 19.292514 l 0.37322,-0.377633 c 0.30307,-0.311695 0.37323,-0.408308 0.37323,-0.513737 0,-0.281021 -0.40831,-0.443572 -0.5929,-0.237123 -0.11406,0.122878 -0.15374,0.109837 -0.15374,-0.06153 0,-0.180001 -0.14051,-0.368818 -0.33373,-0.447981 -0.16274,-0.06998 -0.16274,-0.06998 -0.35596,-0.01286 z"
     id="path6"
     style="fill:url(#linearGradient1831);fill-opacity:1;stroke-width:0.00183674" />
  <path
     fill-rule="evenodd"
     clip-rule="evenodd"
     d="m 25.291649,29 h -13.92949 c -0.51211,0 -0.92764,0.08288 -0.92764,-0.429001 0,-0.513269 0.41553,-0.429 0.92764,-0.429 h 13.92949 c 1.60749,0 2.85737,-1.244557 2.85737,-2.856748 V 6.7138234 c 0,-1.750692 -1.54782,-2.856795 -2.85737,-2.856824 L 6.7197696,3.8565874 c -1.472994,-3.3e-5 -2.857752,1.217015 -2.857752,2.856824 V 24.356677 c 0,0.513269 0.08526,0.928574 -0.428,0.928574 -0.512341,0 -0.428995,-0.415305 -0.428995,-0.928574 V 6.7138234 c 0,-2.051215 1.663769,-3.713823 3.714747,-3.713823 H 25.291659 c 2.05077,0 3.71336,1.662608 3.71336,3.713823 V 25.285251 C 29.005019,27.336463 27.342429,29 25.291659,29 Z M 7.6485696,27.142392 c 0.51211,0 0.92857,0.415767 0.92857,0.929036 0,0.511877 -0.41646,0.928572 -0.92857,0.928572 -0.51326,0 -0.9288,-0.416695 -0.9288,-0.928572 0,-0.513269 0.41554,-0.929036 0.9288,-0.929036 z"
     id="path2-6-3-7"
     style="fill:url(#linearGradient1815);fill-opacity:1;stroke-width:0.0580364"
     sodipodi:nodetypes="sssssssssssssssssssssssss" />
  <rect
     style="fill:#5599ff;fill-opacity:0.1;stroke:none;stroke-width:0.649999"
     id="center-3-5"
     width="25.999958"
     height="26"
     x="3.0000014"
     y="3"
     ry="3.734026" />
</svg>
