<?xml version="1.0" encoding="UTF-8" standalone="no"?>
<svg
   viewBox="0 0 22 22"
   version="1.1"
   id="svg6"
   sodipodi:docname="bookmarks.svg"
   inkscape:version="1.1.1 (3bf5ae0d25, 2021-09-20)"
   xmlns:inkscape="http://www.inkscape.org/namespaces/inkscape"
   xmlns:sodipodi="http://sodipodi.sourceforge.net/DTD/sodipodi-0.dtd"
   xmlns:xlink="http://www.w3.org/1999/xlink"
   xmlns="http://www.w3.org/2000/svg"
   xmlns:svg="http://www.w3.org/2000/svg">
  <sodipodi:namedview
     id="namedview8"
     pagecolor="#ffffff"
     bordercolor="#666666"
     borderopacity="1.0"
     inkscape:pageshadow="2"
     inkscape:pageopacity="0.0"
     inkscape:pagecheckerboard="0"
     showgrid="true"
     inkscape:zoom="9.9959185"
     inkscape:cx="11.304614"
     inkscape:cy="13.155369"
     inkscape:window-width="1920"
     inkscape:window-height="1007"
     inkscape:window-x="0"
     inkscape:window-y="0"
     inkscape:window-maximized="1"
     inkscape:current-layer="svg6"
     inkscape:lockguides="true">
    <inkscape:grid
       type="xygrid"
       id="grid940" />
  </sodipodi:namedview>
  <defs
     id="defs3051">
    <style
       type="text/css"
       id="current-color-scheme">
      .ColorScheme-Text {
        color:#eff0f1;
      }
      </style>
    <linearGradient
       inkscape:collect="always"
       id="linearGradient1015">
      <stop
         style="stop-color:#f28fad;stop-opacity:1"
         offset="0"
         id="stop1011" />
      <stop
         style="stop-color:#fae3b0;stop-opacity:1"
         offset="1"
         id="stop1013" />
    </linearGradient>
    <linearGradient
       inkscape:collect="always"
       xlink:href="#linearGradient1015"
       id="linearGradient1660"
       gradientUnits="userSpaceOnUse"
       gradientTransform="matrix(0.98568567,0,0,0.98568567,-5.1606984,-5.3432005)"
       x1="12.337299"
       y1="18.102324"
       x2="21.920532"
       y2="18.102324" />
    <linearGradient
       inkscape:collect="always"
       xlink:href="#linearGradient1015"
       id="linearGradient1662"
       gradientUnits="userSpaceOnUse"
       gradientTransform="matrix(0.61538462,0,0,0.61538462,1.153846,1.153846)"
       x1="3"
       y1="16"
       x2="29.058193"
       y2="16" />
  </defs>
  <rect
     style="fill:#5599ff;fill-opacity:0.15;stroke:none;stroke-width:0.399999"
     id="center-3"
     width="15.999974"
     height="16"
     x="3.0000257"
     y="3"
     ry="1.0116853"
     rx="1.0263171" />
  <path
     d="m 13.928571,8.5 c -0.672497,0 -1.304701,0.261904 -1.780168,0.73737 L 11.723029,9.66269 11.297708,9.237425 C 10.822187,8.761904 10.190037,8.5000545 9.51754,8.5000545 8.845098,8.5000545 8.2128385,8.761904 7.7373702,9.237425 7.2618491,9.712947 7,10.345151 7,11.017594 c 0,0.672443 0.2619036,1.3047 0.7373702,1.780169 l 3.5017588,3.501759 c 0.129197,0.12926 0.301103,0.200478 0.4839,0.200478 0.182795,0 0.354696,-0.07116 0.483897,-0.200424 l 3.501704,-3.501759 c 0.475577,-0.475523 0.737425,-1.107672 0.737425,-1.780168 0,-0.672442 -0.261848,-1.304647 -0.73737,-1.780168 C 15.233218,8.761849 14.601013,8.5 13.928571,8.5 Z m 1.199426,3.717074 -3.404915,3.404968 -3.404968,-3.404968 c -0.3203715,-0.320428 -0.4968719,-0.746405 -0.4968719,-1.19948 0,-0.453132 0.176446,-0.879108 0.4968719,-1.199536 0.320427,-0.320426 0.746404,-0.496872 1.199535,-0.496872 0.45313,0 0.879108,0.176446 1.199534,0.496872 l 0.522057,0.522002 c 0.129196,0.129261 0.301101,0.200479 0.483898,0.200479 0.182795,0 0.354697,-0.07116 0.483842,-0.200424 l 0.522166,-0.52211 c 0.320371,-0.320427 0.746349,-0.496873 1.199425,-0.496873 0.45313,5.4e-5 0.879108,0.1765 1.199534,0.496873 0.320428,0.320427 0.496818,0.746403 0.496818,1.199479 -5.4e-5,0.453185 -0.176444,0.879162 -0.496926,1.19959 z"
     id="path4-3-5"
     style="fill:url(#linearGradient1660);fill-opacity:1;stroke-width:0.0547458" />
  <path
     d="m 17.924995,18.986593 c 0.612521,-5.91e-4 1.110816,-0.498329 1.110816,-1.110816 V 4.110816 C 19.035811,3.498329 18.537516,3 17.924995,3 H 4.268923 C 4.127354,3 4.012308,3.114773 4.012308,3.256342 c 0,0.141569 0.115046,0.256342 0.256615,0.256342 h 13.656072 c 0.329793,0 0.598132,0.268339 0.598132,0.598132 V 4.624082 C 18.350318,4.513171 18.145142,4.448573 17.924995,4.448573 H 4.110816 C 3.498329,4.448573 3,4.946902 3,5.559389 V 8.75666 c 0,0.141569 0.114773,0.256342 0.256342,0.256342 0.141569,0 0.256342,-0.114773 0.256342,-0.256342 V 5.559389 c 0,-0.329793 0.268339,-0.598132 0.598132,-0.598132 h 13.814179 c 0.329793,0 0.598132,0.268339 0.598132,0.598132 V 5.847176 C 18.350318,5.736265 18.145142,5.671667 17.924995,5.671667 H 5.464508 c -0.612487,0 -1.110816,0.498329 -1.110816,1.110816 v 7.801279 c 0,0.141569 0.114773,0.256342 0.256342,0.256342 0.141569,0 0.256343,-0.114773 0.256343,-0.256342 V 6.782449 c 0,-0.329793 0.268338,-0.598132 0.598131,-0.598132 h 12.460487 c 0.329793,0 0.598132,0.268339 0.598132,0.598132 v 11.093328 c 0,0.329792 -0.268339,0.598132 -0.598132,0.598132 H 5.464508 c -0.329793,0 -0.598131,-0.26834 -0.598131,-0.598132 v -2.174876 c 0,-0.141569 -0.114774,-0.256342 -0.256343,-0.256342 -0.141569,0 -0.256342,0.114773 -0.256342,0.256342 v 2.174876 c 0,0.220146 0.06463,0.425323 0.175543,0.598132 H 4.110816 c -0.329793,0 -0.598132,-0.26834 -0.598132,-0.598132 V 9.873833 C 3.512684,9.732264 3.397911,9.617491 3.256342,9.617491 3.114773,9.617491 3,9.732264 3,9.873833 v 8.001944 c 0,0.220146 0.06463,0.425323 0.175543,0.598132 v 0 0 0 0 0 0 0 0 0 l 0.268944,-0.272525 -0.268944,0.272525 0.268944,-0.272525 -0.268944,0.272525 v 0 0 0 0 0 c 0.221037,0.330123 0.469957,0.447995 0.877909,0.52609 z"
     id="path6-3-3"
     sodipodi:nodetypes="ssssssssscsssssssssscsssssssssssssssssscssssssccccccccccccccccccccs"
     style="fill:url(#linearGradient1662);fill-opacity:1;stroke-width:0.034179" />
</svg>
