<?xml version="1.0" encoding="UTF-8" standalone="no"?>
<svg
   sodipodi:docname="switch_primary.svg"
   inkscape:version="1.1.1 (3bf5ae0d25, 2021-09-20)"
   id="svg1699"
   version="1.1"
   viewBox="0 0 8.4666662 8.4666662"
   height="8.4666662mm"
   width="8.4666662mm"
   xmlns:inkscape="http://www.inkscape.org/namespaces/inkscape"
   xmlns:sodipodi="http://sodipodi.sourceforge.net/DTD/sodipodi-0.dtd"
   xmlns:xlink="http://www.w3.org/1999/xlink"
   xmlns="http://www.w3.org/2000/svg"
   xmlns:svg="http://www.w3.org/2000/svg"
   xmlns:rdf="http://www.w3.org/1999/02/22-rdf-syntax-ns#"
   xmlns:cc="http://creativecommons.org/ns#"
   xmlns:dc="http://purl.org/dc/elements/1.1/">
  <defs
     id="defs1693">
    <linearGradient
       id="linearGradient1028"
       x1="16"
       x2="16"
       y1="1091.5"
       y2="1121.5"
       gradientUnits="userSpaceOnUse">
      <stop
         stop-color="#9575cd"
         offset="0"
         id="stop1024"
         style="stop-color:#7d56c3;stop-opacity:1" />
      <stop
         stop-color="#cd75bc"
         offset="1"
         id="stop1026"
         style="stop-color:#963683;stop-opacity:1" />
    </linearGradient>
    <linearGradient
       id="a-9"
       x1="16"
       x2="16"
       y1="1091.5"
       y2="1121.5"
       gradientUnits="userSpaceOnUse">
      <stop
         stop-color="#9575cd"
         offset="0"
         id="stop1052" />
      <stop
         stop-color="#cd75bc"
         offset="1"
         id="stop1054" />
    </linearGradient>
    <linearGradient
       inkscape:collect="always"
       xlink:href="#linearGradient5162"
       id="linearGradient1977"
       x1="7.1999998"
       y1="12.17723"
       x2="19.344"
       y2="12.17723"
       gradientUnits="userSpaceOnUse"
       gradientTransform="matrix(0.26458321,0,0,0.26458333,98.735395,81.925237)" />
    <linearGradient
       inkscape:collect="always"
       id="linearGradient5162">
      <stop
         style="stop-color:#f8bd96;stop-opacity:0.95869339"
         offset="0"
         id="stop5158" />
      <stop
         style="stop-color:#96cdfb;stop-opacity:1"
         offset="1"
         id="stop5160" />
    </linearGradient>
    <linearGradient
       inkscape:collect="always"
       xlink:href="#linearGradient5162"
       id="linearGradient1985"
       x1="12.85571"
       y1="20.476763"
       x2="25"
       y2="20.476763"
       gradientUnits="userSpaceOnUse"
       gradientTransform="matrix(0.26458321,0,0,0.26458333,98.735395,81.925237)" />
    <linearGradient
       inkscape:collect="always"
       xlink:href="#linearGradient5162"
       id="linearGradient1931"
       x1="3"
       y1="15.90248"
       x2="29.005022"
       y2="15.90248"
       gradientUnits="userSpaceOnUse"
       gradientTransform="matrix(0.26458321,0,0,0.26458333,98.735395,81.951695)" />
  </defs>
  <sodipodi:namedview
     inkscape:document-rotation="0"
     inkscape:window-maximized="1"
     inkscape:window-y="0"
     inkscape:window-x="0"
     inkscape:window-height="1007"
     inkscape:window-width="1920"
     showgrid="true"
     inkscape:current-layer="layer1"
     inkscape:document-units="mm"
     inkscape:cy="17.987028"
     inkscape:cx="7.6455917"
     inkscape:zoom="11.313709"
     inkscape:pageshadow="2"
     inkscape:pageopacity="0.0"
     borderopacity="1.0"
     bordercolor="#666666"
     pagecolor="#ffffff"
     id="base"
     inkscape:pagecheckerboard="0">
    <inkscape:grid
       type="xygrid"
       id="grid844" />
  </sodipodi:namedview>
  <metadata
     id="metadata1696">
    <rdf:RDF>
      <cc:Work
         rdf:about="">
        <dc:format>image/svg+xml</dc:format>
        <dc:type
           rdf:resource="http://purl.org/dc/dcmitype/StillImage" />
      </cc:Work>
    </rdf:RDF>
  </metadata>
  <g
     transform="translate(-98.729144,-81.918987)"
     id="layer1"
     inkscape:groupmode="layer"
     inkscape:label="Layer 1">
    <g
       id="system-switch-user"
       transform="matrix(0.26458333,0,0,0.26458333,23.852062,81.918987)">
      <g
         id="g1729">
        <circle
           style="opacity:0;fill:none;fill-opacity:1;stroke-width:1.06667"
           id="circle955"
           r="16"
           cy="-16"
           cx="299"
           transform="scale(1,-1)" />
      </g>
    </g>
    <path
       d="m 103.62881,85.676072 c -0.14495,0.141313 -0.33762,0.219095 -0.54259,0.219095 h -1.67855 c -0.20492,3.7e-5 -0.3976,-0.07778 -0.54254,-0.219095 -0.14491,-0.141276 -0.22473,-0.329119 -0.22473,-0.528943 0,-0.199824 0.0798,-0.387667 0.22473,-0.528943 0.14491,-0.141276 0.33762,-0.219095 0.54254,-0.219095 h 1.67859 c 0.20489,-3.7e-5 0.39756,0.07778 0.54255,0.219095 0.14487,0.141276 0.22469,0.329119 0.22469,0.528943 3e-5,0.199824 -0.0798,0.387667 -0.22469,0.528943 z m -2.61754,-0.9154 c -0.10586,0.103245 -0.16418,0.240455 -0.16418,0.386457 -4e-5,0.145966 0.0583,0.283212 0.16418,0.386458 0.10591,0.103209 0.24664,0.160034 0.3964,0.160071 l 1.67855,3.6e-5 c 0.14968,0 0.2905,-0.05686 0.39644,-0.160107 0.10582,-0.103246 0.16415,-0.240492 0.16415,-0.386458 7e-5,-0.145966 -0.0583,-0.283175 -0.16419,-0.386457 -0.10586,-0.103246 -0.24664,-0.160035 -0.3964,-0.160072 h -1.67855 c -0.14972,0 -0.29049,0.05686 -0.3964,0.160072 z m 0.59836,0.626106 c -0.0657,0.06401 -0.15292,0.09925 -0.24578,0.09925 -0.0929,0 -0.18016,-0.03525 -0.24585,-0.09925 -0.0657,-0.06401 -0.1018,-0.149153 -0.1018,-0.239686 0,-0.09046 0.0361,-0.175569 0.1018,-0.239612 0.0657,-0.06401 0.15295,-0.09925 0.24585,-0.09925 0.19162,0 0.34758,0.152011 0.34762,0.338864 -4e-5,0.09061 -0.0362,0.17568 -0.10184,0.239686 z m -0.24438,-0.377267 10e-4,0.0013 -2.2e-4,1.73e-4 -7.9e-4,-0.0015 8e-5,2.22e-4 -0.002,1.2e-5 z"
       id="path2"
       style="fill:url(#linearGradient1977);fill-opacity:1;stroke-width:0.037106"
       sodipodi:nodetypes="cscsssscccccccccccscsccscscsccccccccc" />
    <path
       d="m 102.3615,86.814103 c 0.14495,-0.141312 0.33763,-0.219094 0.5426,-0.219094 h 1.67859 c 0.20493,-3.7e-5 0.39761,0.07778 0.54256,0.219094 0.14491,0.141277 0.22473,0.32912 0.22473,0.528944 0,0.199821 -0.0798,0.387665 -0.22473,0.528942 -0.14492,0.141277 -0.33763,0.219096 -0.54256,0.219096 h -1.67863 c -0.20489,3.4e-5 -0.39757,-0.07779 -0.54256,-0.219096 -0.14487,-0.141277 -0.2247,-0.329121 -0.2247,-0.528942 -3e-5,-0.199824 0.0798,-0.387667 0.2247,-0.528944 z m 2.61759,0.9154 c 0.10587,-0.103246 0.1642,-0.240453 0.1642,-0.386456 3e-5,-0.145968 -0.0583,-0.283213 -0.1642,-0.386458 -0.1059,-0.103209 -0.24664,-0.160036 -0.3964,-0.160073 l -1.67859,-3.5e-5 c -0.14969,0 -0.29051,0.05686 -0.39645,0.160108 -0.10582,0.103245 -0.16415,0.24049 -0.16415,0.386458 -7e-5,0.145965 0.0583,0.283173 0.16419,0.386456 0.10587,0.103246 0.24665,0.160036 0.39641,0.160073 h 1.67859 c 0.14972,0 0.2905,-0.05686 0.3964,-0.160073 z m -0.59836,-0.626105 c 0.0657,-0.06401 0.15292,-0.09925 0.24578,-0.09925 0.0929,0 0.18016,0.03525 0.24585,0.09925 0.0657,0.064 0.10181,0.149151 0.10181,0.239684 0,0.09046 -0.0361,0.175569 -0.10181,0.239614 -0.0657,0.064 -0.15295,0.09925 -0.24585,0.09925 -0.19163,0 -0.34759,-0.152011 -0.34763,-0.338865 4e-5,-0.0906 0.0362,-0.175679 0.10185,-0.239683 z m 0.2478,0.101999 -9e-5,1.03e-4 5.2e-4,-0.0011 -0.002,0.0012 0.002,6.5e-5 -0.001,-5.55e-4 z"
       id="path2-2"
       style="fill:url(#linearGradient1985);fill-opacity:1;stroke-width:0.0371065"
       sodipodi:nodetypes="cscsssscccccccccccscsccscscsccccccccc" />
    <path
       fill-rule="evenodd"
       clip-rule="evenodd"
       d="m 105.42715,89.598154 h -3.68551 c -0.1355,0 -0.24544,0.02193 -0.24544,-0.113507 0,-0.135802 0.10994,-0.113506 0.24544,-0.113506 h 3.68551 c 0.42531,0 0.75601,-0.329289 0.75601,-0.755848 v -4.91369 c 0,-0.463204 -0.40953,-0.755861 -0.75601,-0.755868 l -4.91381,-1.09e-4 c -0.38973,-9e-6 -0.756119,0.322002 -0.756119,0.755868 v 4.668114 c 0,0.135802 0.02257,0.245685 -0.113242,0.245685 -0.135556,0 -0.113506,-0.109883 -0.113506,-0.245685 v -4.668005 c 0,-0.542718 0.440205,-0.982616 0.982867,-0.982616 h 4.91381 c 0.5426,0 0.98249,0.439898 0.98249,0.982616 v 4.91369 c 0,0.542716 -0.43989,0.982861 -0.98249,0.982861 z m -4.66807,-0.491493 c 0.1355,0 0.24569,0.110005 0.24569,0.245808 0,0.135434 -0.11019,0.245685 -0.24569,0.245685 -0.1358,0 -0.24574,-0.110251 -0.24574,-0.245685 0,-0.135803 0.10994,-0.245808 0.24574,-0.245808 z"
       id="path2-6-3-7-5-3-5-6"
       style="fill:url(#linearGradient1931);fill-opacity:1;stroke-width:0.0153555"
       sodipodi:nodetypes="sssssssssssssssssssssssss" />
    <rect
       style="fill:#5599ff;fill-opacity:0.1;stroke:none;stroke-width:0.171979"
       id="center-3-7"
       width="6.8791523"
       height="6.8791666"
       x="99.530487"
       y="82.718987"
       ry="0.98796099" />
  </g>
</svg>
