<?xml version="1.0" encoding="UTF-8" standalone="no"?>
<svg
   width="282.85004"
   height="205.54784"
   id="svg2"
   sodipodi:version="0.32"
   inkscape:version="1.2.1 (9c6d41e410, 2022-07-14)"
   version="1.0"
   sodipodi:docname="containment-controls.svg"
   inkscape:output_extension="org.inkscape.output.svg.inkscape"
   inkscape:export-filename="arrow-up.png"
   inkscape:export-xdpi="11.25"
   inkscape:export-ydpi="11.25"
   viewBox="0 0 265.1719 192.70109"
   xmlns:inkscape="http://www.inkscape.org/namespaces/inkscape"
   xmlns:sodipodi="http://sodipodi.sourceforge.net/DTD/sodipodi-0.dtd"
   xmlns="http://www.w3.org/2000/svg"
   xmlns:svg="http://www.w3.org/2000/svg"
   xmlns:rdf="http://www.w3.org/1999/02/22-rdf-syntax-ns#"
   xmlns:cc="http://creativecommons.org/ns#"
   xmlns:dc="http://purl.org/dc/elements/1.1/">
  <sodipodi:namedview
     id="base"
     pagecolor="#ffffff"
     bordercolor="#000000"
     borderopacity="1"
     gridtolerance="10000"
     guidetolerance="10"
     objecttolerance="10"
     inkscape:pageopacity="1"
     inkscape:pageshadow="2"
     inkscape:zoom="1.9209576"
     inkscape:cx="169.96731"
     inkscape:cy="135.86973"
     inkscape:document-units="px"
     inkscape:current-layer="layer1"
     width="128px"
     height="128px"
     showgrid="false"
     inkscape:window-width="1920"
     inkscape:window-height="1002"
     inkscape:window-x="0"
     inkscape:window-y="0"
     inkscape:snap-nodes="true"
     inkscape:snap-global="true"
     inkscape:window-maximized="1"
     showguides="false"
     inkscape:guide-bbox="true"
     inkscape:snap-page="true"
     inkscape:document-rotation="0"
     inkscape:showpageshadow="2"
     inkscape:pagecheckerboard="0"
     inkscape:deskcolor="#d1d1d1"
     inkscape:lockguides="true">
    <inkscape:grid
       enabled="true"
       visible="true"
       empspacing="2"
       empopacity="0.03921569"
       opacity="0.01960784"
       empcolor="#0000ff"
       color="#0000ff"
       spacingy="0.99999995"
       spacingx="0.99999995"
       originy="2.9146873"
       originx="73.01418"
       type="xygrid"
       id="GridFromPre046Settings"
       snapvisiblegridlinesonly="true" />
    <sodipodi:guide
       orientation="0,1"
       position="73.01418,61.786407"
       id="guide5546"
       inkscape:locked="true" />
  </sodipodi:namedview>
  <defs
     id="defs4">
    <linearGradient
       id="linearGradient3937">
      <stop
         style="stop-color:#888888;stop-opacity:1;"
         offset="0"
         id="stop3939" />
      <stop
         style="stop-color:#232323;stop-opacity:1;"
         offset="1"
         id="stop3941" />
    </linearGradient>
    <linearGradient
       id="linearGradient3488">
      <stop
         id="stop3490"
         offset="0"
         style="stop-color:#ffffff;stop-opacity:0.78431374;" />
      <stop
         id="stop3492"
         offset="1"
         style="stop-color:#ffffff;stop-opacity:0.19607843;" />
    </linearGradient>
    <linearGradient
       id="linearGradient4157">
      <stop
         style="stop-color:#ffffff;stop-opacity:1;"
         offset="0"
         id="stop4159" />
      <stop
         style="stop-color:#b4b4b4;stop-opacity:1;"
         offset="1"
         id="stop4161" />
    </linearGradient>
    <linearGradient
       id="linearGradient6476"
       inkscape:swatch="solid">
      <stop
         id="stop6478"
         offset="0"
         style="stop-color:#ffffff;stop-opacity:1;" />
    </linearGradient>
    <linearGradient
       id="linearGradient6476-1"
       inkscape:swatch="solid">
      <stop
         id="stop6478-5"
         offset="0"
         style="stop-color:#ffffff;stop-opacity:1;" />
    </linearGradient>
    <linearGradient
       id="linearGradient3852-7">
      <stop
         id="stop3854-7"
         offset="0"
         style="stop-color:#000000;stop-opacity:0.07843138;" />
      <stop
         id="stop3856-1"
         offset="1"
         style="stop-color:#000000;stop-opacity:0.3137255;" />
    </linearGradient>
    <linearGradient
       id="linearGradient3765-0">
      <stop
         id="stop3767-9"
         offset="0"
         style="stop-color:#fafafa;stop-opacity:1;" />
      <stop
         id="stop3769-1"
         offset="1"
         style="stop-color:#e2e2e2;stop-opacity:0.70588237;" />
    </linearGradient>
    <style
       id="current-color-scheme"
       type="text/css" />
  </defs>
  <metadata
     id="metadata7">
    <rdf:RDF>
      <cc:Work
         rdf:about="">
        <dc:format>image/svg+xml</dc:format>
        <dc:type
           rdf:resource="http://purl.org/dc/dcmitype/StillImage" />
      </cc:Work>
    </rdf:RDF>
  </metadata>
  <g
     id="layer1"
     inkscape:groupmode="layer"
     inkscape:label="Layer 1"
     transform="translate(73.014178,2.9146873)">
    <rect
       y="0"
       x="-10"
       height="5.4025974"
       width="5.2207794"
       id="hint-stretch-borders"
       style="opacity:0.01;fill:#00adcf;fill-opacity:1;fill-rule:nonzero;stroke:none;stroke-width:1;stroke-linecap:round;stroke-linejoin:round;stroke-miterlimit:4;stroke-dasharray:none;stroke-dashoffset:0;stroke-opacity:1" />
    <g
       id="g4025"
       style="fill:#ffffff;fill-opacity:1"
       transform="rotate(-90,85.72097,51.27903)" />
    <g
       id="vertical-centerindicator"
       transform="translate(1,15)">
      <rect
         style="color:#31363b;opacity:1;fill:#0094b2;fill-opacity:1;fill-rule:nonzero;stroke:none"
         id="rect4223-8"
         width="42"
         height="1"
         x="11"
         y="32"
         class="ColorScheme-Text" />
    </g>
    <g
       id="horizontal-centerindicator"
       transform="translate(-4,17)">
      <path
         transform="rotate(-90)"
         style="color:#31363b;opacity:1;fill:#0094b2;fill-opacity:1;fill-rule:nonzero;stroke:none"
         d="M -31,8 H 11 V 9 H -31 Z"
         id="rect4227-2" />
    </g>
    <g
       inkscape:label="#g5481"
       transform="matrix(0.73968509,0,0,0.73968509,79.526486,134.70676)"
       id="south-maxslider">
      <rect
         class="ColorScheme-ButtonBackground"
         ry="3"
         rx="3"
         y="-106.40577"
         x="-98.726456"
         height="21.630827"
         width="54.077068"
         id="rect5483"
         style="color:#eff0f1;fill:currentColor" />
      <rect
         style="color:#31363b;opacity:0.1;fill:none;stroke:currentColor;stroke-width:1.35193"
         id="rect5485"
         width="54.077068"
         height="21.630827"
         x="-98.726456"
         y="-106.40577"
         rx="3"
         ry="3"
         class="ColorScheme-Text" />
      <path
         class="ColorScheme-Text"
         inkscape:connector-curvature="0"
         id="path5487"
         transform="matrix(1.3519267,0,0,1.3519267,-50.733058,12.563782)"
         d="m -22.28125,-84 v 3 H -29.5 v 2 h 7.21875 v 3 l 5.53125,-4 z"
         style="color:#31363b;opacity:1;fill:#1f252f;fill-opacity:1;stroke:none" />
      <rect
         class="ColorScheme-Text"
         y="-100.99806"
         x="-73.039833"
         height="10.815413"
         width="2.7038534"
         id="rect5489"
         style="color:#31363b;opacity:1;fill:#1f252f;fill-opacity:1;stroke:none" />
    </g>
    <g
       inkscape:label="#g5494"
       transform="matrix(0.73968509,0,0,0.73968509,27.498342,134.13766)"
       id="south-offsetslider">
      <path
         sodipodi:nodetypes="sssscccsssss"
         inkscape:connector-curvature="0"
         id="rect5496"
         transform="matrix(1.3519267,0,0,1.3519267,84.497651,43.07555)"
         d="m -133.8125,-110.5625 c -1.22936,0 -2.21875,0.98939 -2.21875,2.21875 v 10.562752 c 0,1.229357 0.98942,2.209581 2.21875,2.21875 h 11.40625 l 6.6875,6.53125 6.71875,-6.53125 h 10.75 c 1.229357,0 2.21875,-0.989393 2.21875,-2.21875 v -10.562752 c 0,-1.22936 -0.989393,-2.21875 -2.21875,-2.21875 z"
         style="color:#eff0f1;fill:currentColor" />
      <path
         class="ColorScheme-Text"
         style="color:#31363b;opacity:0.1;fill:none;stroke:currentColor;stroke-opacity:1"
         d="m -133.8125,-110.5625 c -1.22936,0 -2.21875,0.98939 -2.21875,2.21875 v 10.662752 c 0,1.229357 0.98942,2.22792 2.21875,2.21875 h 11.40625 l 6.6875,6.53125 6.71875,-6.53125 h 10.75 c 1.229357,0 2.21875,-0.989393 2.21875,-2.21875 v -10.662752 c 0,-1.22936 -0.989393,-2.21875 -2.21875,-2.21875 z"
         transform="matrix(1.3519267,0,0,1.3519267,84.497651,43.07555)"
         id="path5505"
         inkscape:connector-curvature="0"
         sodipodi:nodetypes="sssscccsssss" />
      <path
         class="ColorScheme-Text"
         sodipodi:type="star"
         style="color:#31363b;opacity:1;fill:#1f252f;fill-opacity:1;stroke:none"
         id="path5500"
         sodipodi:sides="3"
         sodipodi:cx="-140"
         sodipodi:cy="-20"
         sodipodi:r1="8.4753637"
         sodipodi:r2="10"
         sodipodi:arg1="-1.5707963"
         sodipodi:arg2="-0.52359878"
         inkscape:flatsided="true"
         inkscape:rounded="0"
         inkscape:randomized="0"
         d="m -140,-28.475364 7.33988,12.713046 -14.67976,0 z"
         inkscape:transform-center-y="5.1199474"
         transform="matrix(0.94725807,0,0,-0.75742921,60.676177,-111.02575)" />
    </g>
    <g
       inkscape:label="#g5640"
       id="south-minslider"
       transform="matrix(-0.73968509,0,0,0.73968509,-26.526487,156.70675)">
      <rect
         style="color:#eff0f1;fill:currentColor"
         id="rect5642"
         width="54.077068"
         height="21.630827"
         x="-98.726456"
         y="-106.40577"
         rx="3"
         ry="3"
         class="ColorScheme-ButtonBackground" />
      <rect
         class="ColorScheme-Text"
         ry="3"
         rx="3"
         y="-106.40577"
         x="-98.726456"
         height="21.630827"
         width="54.077068"
         id="rect5644"
         style="color:#31363b;opacity:0.1;fill:none;stroke:currentColor;stroke-width:1.35193" />
      <path
         style="color:#31363b;opacity:1;fill:#1f252f;fill-opacity:1;stroke:none"
         d="m -22.28125,-84 v 3 H -29.5 v 2 h 7.21875 v 3 l 5.53125,-4 z"
         transform="matrix(1.3519267,0,0,1.3519267,-50.733058,12.563782)"
         id="path5646"
         inkscape:connector-curvature="0"
         class="ColorScheme-Text" />
      <rect
         style="color:#31363b;opacity:1;fill:#1f252f;fill-opacity:1;stroke:none"
         id="rect5648"
         width="2.7038534"
         height="10.815413"
         x="-73.039833"
         y="-100.99806"
         class="ColorScheme-Text" />
    </g>
    <rect
       style="color:#31363b;opacity:0.7;fill:#eff0f1;fill-opacity:1;stroke:none"
       id="south-center"
       width="10"
       height="12"
       x="-30"
       y="82"
       class="ColorScheme-Text"
       inkscape:label="#rect5507" />
    <rect
       class="ColorScheme-Text"
       y="94"
       x="-30"
       height="1"
       width="10"
       id="south-bottom"
       style="color:#31363b;opacity:0.7;fill:#eff0f1;fill-opacity:1;stroke:none"
       inkscape:label="#rect5509" />
    <rect
       style="color:#31363b;opacity:0.7;fill:#eff0f1;fill-opacity:1;stroke:none"
       id="south-top"
       width="10"
       height="1"
       x="-30"
       y="81"
       class="ColorScheme-Text"
       inkscape:label="#rect5511" />
    <g
       inkscape:label="#g5481"
       transform="matrix(0.73968509,0,0,0.73968509,203.52648,134.70675)"
       id="north-maxslider">
      <rect
         class="ColorScheme-ButtonBackground"
         ry="3"
         rx="3"
         y="-106.40577"
         x="-98.726456"
         height="21.630827"
         width="54.077068"
         id="rect5483-0"
         style="color:#eff0f1;fill:currentColor" />
      <rect
         style="color:#31363b;opacity:0.1;fill:none;stroke:currentColor;stroke-width:1.35193"
         id="rect5485-7"
         width="54.077068"
         height="21.630827"
         x="-98.726456"
         y="-106.40577"
         rx="3"
         ry="3"
         class="ColorScheme-Text" />
      <path
         class="ColorScheme-Text"
         inkscape:connector-curvature="0"
         id="path5487-0"
         transform="matrix(1.3519267,0,0,1.3519267,-50.733058,12.563782)"
         d="m -22.28125,-84 v 3 H -29.5 v 2 h 7.21875 v 3 l 5.53125,-4 z"
         style="color:#31363b;opacity:1;fill:#1f252f;fill-opacity:1;stroke:none" />
      <rect
         class="ColorScheme-Text"
         y="-100.99806"
         x="-73.039833"
         height="10.815413"
         width="2.7038534"
         id="rect5489-7"
         style="color:#31363b;opacity:1;fill:#1f252f;fill-opacity:1;stroke:none" />
    </g>
    <g
       inkscape:label="#g5494"
       transform="matrix(0.73968509,0,0,-0.73968509,151.49834,-1.63116)"
       id="north-offsetslider">
      <path
         sodipodi:nodetypes="sssscccsssss"
         inkscape:connector-curvature="0"
         id="rect5496-8"
         transform="matrix(1.3519267,0,0,1.3519267,84.497651,43.07555)"
         d="m -133.8125,-110.5625 c -1.22936,0 -2.21875,0.98939 -2.21875,2.21875 v 10.562752 c 0,1.229357 0.98942,2.209581 2.21875,2.21875 h 11.40625 l 6.6875,6.53125 6.71875,-6.53125 h 10.75 c 1.229357,0 2.21875,-0.989393 2.21875,-2.21875 v -10.562752 c 0,-1.22936 -0.989393,-2.21875 -2.21875,-2.21875 z"
         style="color:#eff0f1;fill:currentColor" />
      <path
         class="ColorScheme-Text"
         style="color:#31363b;opacity:0.1;fill:none;stroke:currentColor;stroke-opacity:1"
         d="m -133.8125,-110.5625 c -1.22936,0 -2.21875,0.98939 -2.21875,2.21875 v 10.662752 c 0,1.229357 0.98942,2.22792 2.21875,2.21875 h 11.40625 l 6.6875,6.53125 6.71875,-6.53125 h 10.75 c 1.229357,0 2.21875,-0.989393 2.21875,-2.21875 v -10.662752 c 0,-1.22936 -0.989393,-2.21875 -2.21875,-2.21875 z"
         transform="matrix(1.3519267,0,0,1.3519267,84.497651,43.07555)"
         id="path5505-5"
         inkscape:connector-curvature="0"
         sodipodi:nodetypes="sssscccsssss" />
      <path
         class="ColorScheme-Text"
         sodipodi:type="star"
         style="color:#31363b;opacity:1;fill:#1f252f;fill-opacity:1;stroke:none"
         id="path5500-0"
         sodipodi:sides="3"
         sodipodi:cx="-140"
         sodipodi:cy="-20"
         sodipodi:r1="8.4753637"
         sodipodi:r2="10"
         sodipodi:arg1="-1.5707963"
         sodipodi:arg2="-0.52359878"
         inkscape:flatsided="true"
         inkscape:rounded="0"
         inkscape:randomized="0"
         d="m -140,-28.475364 7.33988,12.713046 -14.67976,0 z"
         inkscape:transform-center-y="5.1199474"
         transform="matrix(0.94725807,0,0,-0.75742921,60.676177,-111.02575)" />
    </g>
    <g
       inkscape:label="#g5640"
       id="north-minslider"
       transform="matrix(-0.73968509,0,0,0.73968509,97.473513,156.70675)">
      <rect
         style="color:#eff0f1;fill:currentColor"
         id="rect5642-6"
         width="54.077068"
         height="21.630827"
         x="-98.726456"
         y="-106.40577"
         rx="3"
         ry="3"
         class="ColorScheme-ButtonBackground" />
      <rect
         class="ColorScheme-Text"
         ry="3"
         rx="3"
         y="-106.40577"
         x="-98.726456"
         height="21.630827"
         width="54.077068"
         id="rect5644-5"
         style="color:#31363b;opacity:0.1;fill:none;stroke:currentColor;stroke-width:1.35193" />
      <path
         style="color:#31363b;opacity:1;fill:#1f252f;fill-opacity:1;stroke:none"
         d="m -22.28125,-84 v 3 H -29.5 v 2 h 7.21875 v 3 l 5.53125,-4 z"
         transform="matrix(1.3519267,0,0,1.3519267,-50.733058,12.563782)"
         id="path5646-6"
         inkscape:connector-curvature="0"
         class="ColorScheme-Text" />
      <rect
         style="color:#31363b;opacity:1;fill:#1f252f;fill-opacity:1;stroke:none"
         id="rect5648-4"
         width="2.7038534"
         height="10.815413"
         x="-73.039833"
         y="-100.99806"
         class="ColorScheme-Text" />
    </g>
    <rect
       style="color:#31363b;opacity:0.7;fill:#eff0f1;fill-opacity:1;stroke:none"
       id="north-center"
       width="10"
       height="12"
       x="94"
       y="84"
       class="ColorScheme-Text"
       inkscape:label="#rect5507" />
    <rect
       class="ColorScheme-Text"
       y="96"
       x="94"
       height="1"
       width="10"
       id="north-bottom"
       style="color:#31363b;opacity:0.7;fill:#eff0f1;fill-opacity:1;stroke:none"
       inkscape:label="#rect5509" />
    <rect
       style="color:#31363b;opacity:0.7;fill:#eff0f1;fill-opacity:1;stroke:none"
       id="north-top"
       width="10"
       height="1"
       x="94"
       y="83"
       class="ColorScheme-Text"
       inkscape:label="#rect5511" />
    <g
       inkscape:label="#g5481"
       transform="matrix(0,0.73968509,-0.73968509,0,-51.254175,193.52649)"
       id="west-maxslider">
      <rect
         class="ColorScheme-ButtonBackground"
         ry="3"
         rx="3"
         y="-106.40577"
         x="-98.726456"
         height="21.630827"
         width="54.077068"
         id="rect5483-1"
         style="color:#eff0f1;fill:currentColor" />
      <rect
         style="color:#31363b;opacity:0.1;fill:none;stroke:currentColor;stroke-width:1.35193"
         id="rect5485-1"
         width="54.077068"
         height="21.630827"
         x="-98.726456"
         y="-106.40577"
         rx="3"
         ry="3"
         class="ColorScheme-Text" />
      <path
         class="ColorScheme-Text"
         inkscape:connector-curvature="0"
         id="path5487-8"
         transform="matrix(1.3519267,0,0,1.3519267,-50.733058,12.563782)"
         d="m -22.28125,-84 v 3 H -29.5 v 2 h 7.21875 v 3 l 5.53125,-4 z"
         style="color:#31363b;opacity:1;fill:#1f252f;fill-opacity:1;stroke:none" />
      <rect
         class="ColorScheme-Text"
         y="-100.99806"
         x="-73.039833"
         height="10.815413"
         width="2.7038534"
         id="rect5489-6"
         style="color:#31363b;opacity:1;fill:#1f252f;fill-opacity:1;stroke:none" />
    </g>
    <g
       inkscape:label="#g5494"
       transform="matrix(0,0.73968509,-0.73968509,0,-100.96308,194.0296)"
       id="west-offsetslider">
      <path
         sodipodi:nodetypes="sssscccsssss"
         inkscape:connector-curvature="0"
         id="rect5496-6"
         transform="matrix(1.3519267,0,0,1.3519267,84.497651,43.07555)"
         d="m -133.8125,-110.5625 c -1.22936,0 -2.21875,0.98939 -2.21875,2.21875 v 10.562752 c 0,1.229357 0.98942,2.209581 2.21875,2.21875 h 11.40625 l 6.6875,6.53125 6.71875,-6.53125 h 10.75 c 1.229357,0 2.21875,-0.989393 2.21875,-2.21875 v -10.562752 c 0,-1.22936 -0.989393,-2.21875 -2.21875,-2.21875 z"
         style="color:#eff0f1;fill:currentColor" />
      <path
         class="ColorScheme-Text"
         style="color:#31363b;opacity:0.1;fill:none;stroke:currentColor;stroke-opacity:1"
         d="m -133.8125,-110.5625 c -1.22936,0 -2.21875,0.98939 -2.21875,2.21875 v 10.662752 c 0,1.229357 0.98942,2.22792 2.21875,2.21875 h 11.40625 l 6.6875,6.53125 6.71875,-6.53125 h 10.75 c 1.229357,0 2.21875,-0.989393 2.21875,-2.21875 v -10.662752 c 0,-1.22936 -0.989393,-2.21875 -2.21875,-2.21875 z"
         transform="matrix(1.3519267,0,0,1.3519267,84.497651,43.07555)"
         id="path5505-0"
         inkscape:connector-curvature="0"
         sodipodi:nodetypes="sssscccsssss" />
      <path
         class="ColorScheme-Text"
         sodipodi:type="star"
         style="color:#31363b;opacity:1;fill:#1f252f;fill-opacity:1;stroke:none"
         id="path5500-7"
         sodipodi:sides="3"
         sodipodi:cx="-140"
         sodipodi:cy="-20"
         sodipodi:r1="8.4753637"
         sodipodi:r2="10"
         sodipodi:arg1="-1.5707963"
         sodipodi:arg2="-0.52359878"
         inkscape:flatsided="true"
         inkscape:rounded="0"
         inkscape:randomized="0"
         d="m -140,-28.475364 7.33988,12.713046 -14.67976,0 z"
         inkscape:transform-center-y="5.1199474"
         transform="matrix(0.94725807,0,0,-0.75742921,60.676177,-111.02575)" />
    </g>
    <g
       inkscape:label="#g5640"
       id="west-minslider"
       transform="matrix(0,-0.73968509,-0.73968509,0,-75.25417,87.47351)">
      <rect
         style="color:#eff0f1;fill:currentColor"
         id="rect5642-4"
         width="54.077068"
         height="21.630827"
         x="-98.726456"
         y="-106.40577"
         rx="3"
         ry="3"
         class="ColorScheme-ButtonBackground" />
      <rect
         class="ColorScheme-Text"
         ry="3"
         rx="3"
         y="-106.40577"
         x="-98.726456"
         height="21.630827"
         width="54.077068"
         id="rect5644-2"
         style="color:#31363b;opacity:0.1;fill:none;stroke:currentColor;stroke-width:1.35193" />
      <path
         style="color:#31363b;opacity:1;fill:#1f252f;fill-opacity:1;stroke:none"
         d="m -22.28125,-84 v 3 H -29.5 v 2 h 7.21875 v 3 l 5.53125,-4 z"
         transform="matrix(1.3519267,0,0,1.3519267,-50.733058,12.563782)"
         id="path5646-4"
         inkscape:connector-curvature="0"
         class="ColorScheme-Text" />
      <rect
         style="color:#31363b;opacity:1;fill:#1f252f;fill-opacity:1;stroke:none"
         id="rect5648-5"
         width="2.7038534"
         height="10.815413"
         x="-73.039833"
         y="-100.99806"
         class="ColorScheme-Text" />
    </g>
    <rect
       style="color:#31363b;opacity:0.7;fill:#eff0f1;fill-opacity:1;stroke:none"
       id="west-center"
       width="10"
       height="12"
       x="169"
       y="-2.0000038"
       class="ColorScheme-Text"
       inkscape:label="#rect5507"
       transform="rotate(90)" />
    <rect
       class="ColorScheme-Text"
       y="9.9999962"
       x="169"
       height="1"
       width="10"
       id="west-left"
       style="color:#31363b;opacity:0.7;fill:#eff0f1;fill-opacity:1;stroke:none"
       inkscape:label="#rect5509"
       transform="rotate(90)" />
    <rect
       style="color:#31363b;opacity:0.7;fill:#eff0f1;fill-opacity:1;stroke:none"
       id="west-right"
       width="10"
       height="1"
       x="169"
       y="-3.0000038"
       class="ColorScheme-Text"
       inkscape:label="#rect5511"
       transform="rotate(90)" />
    <g
       inkscape:label="#g5481"
       transform="matrix(0,0.73968509,-0.73968509,0,76.745825,193.52649)"
       id="east-maxslider">
      <rect
         class="ColorScheme-ButtonBackground"
         ry="3"
         rx="3"
         y="-106.40577"
         x="-98.726456"
         height="21.630827"
         width="54.077068"
         id="rect5483-1-4"
         style="color:#eff0f1;fill:currentColor" />
      <rect
         style="color:#31363b;opacity:0.1;fill:none;stroke:currentColor;stroke-width:1.35193"
         id="rect5485-1-2"
         width="54.077068"
         height="21.630827"
         x="-98.726456"
         y="-106.40577"
         rx="3"
         ry="3"
         class="ColorScheme-Text" />
      <path
         class="ColorScheme-Text"
         inkscape:connector-curvature="0"
         id="path5487-8-8"
         transform="matrix(1.3519267,0,0,1.3519267,-50.733058,12.563782)"
         d="m -22.28125,-84 v 3 H -29.5 v 2 h 7.21875 v 3 l 5.53125,-4 z"
         style="color:#31363b;opacity:1;fill:#1f252f;fill-opacity:1;stroke:none" />
      <rect
         class="ColorScheme-Text"
         y="-100.99806"
         x="-73.039833"
         height="10.815413"
         width="2.7038534"
         id="rect5489-6-9"
         style="color:#31363b;opacity:1;fill:#1f252f;fill-opacity:1;stroke:none" />
    </g>
    <g
       inkscape:label="#g5494"
       transform="matrix(0,0.73968509,0.73968509,0,162.80574,194.0296)"
       id="east-offsetslider">
      <path
         sodipodi:nodetypes="sssscccsssss"
         inkscape:connector-curvature="0"
         id="rect5496-6-8"
         transform="matrix(1.3519267,0,0,1.3519267,84.497651,43.07555)"
         d="m -133.8125,-110.5625 c -1.22936,0 -2.21875,0.98939 -2.21875,2.21875 v 10.562752 c 0,1.229357 0.98942,2.209581 2.21875,2.21875 h 11.40625 l 6.6875,6.53125 6.71875,-6.53125 h 10.75 c 1.229357,0 2.21875,-0.989393 2.21875,-2.21875 v -10.562752 c 0,-1.22936 -0.989393,-2.21875 -2.21875,-2.21875 z"
         style="color:#eff0f1;fill:currentColor" />
      <path
         class="ColorScheme-Text"
         style="color:#31363b;opacity:0.1;fill:none;stroke:currentColor;stroke-opacity:1"
         d="m -133.8125,-110.5625 c -1.22936,0 -2.21875,0.98939 -2.21875,2.21875 v 10.662752 c 0,1.229357 0.98942,2.22792 2.21875,2.21875 h 11.40625 l 6.6875,6.53125 6.71875,-6.53125 h 10.75 c 1.229357,0 2.21875,-0.989393 2.21875,-2.21875 v -10.662752 c 0,-1.22936 -0.989393,-2.21875 -2.21875,-2.21875 z"
         transform="matrix(1.3519267,0,0,1.3519267,84.497651,43.07555)"
         id="path5505-0-7"
         inkscape:connector-curvature="0"
         sodipodi:nodetypes="sssscccsssss" />
      <path
         class="ColorScheme-Text"
         sodipodi:type="star"
         style="color:#31363b;opacity:1;fill:#1f252f;fill-opacity:1;stroke:none"
         id="path5500-7-9"
         sodipodi:sides="3"
         sodipodi:cx="-140"
         sodipodi:cy="-20"
         sodipodi:r1="8.4753637"
         sodipodi:r2="10"
         sodipodi:arg1="-1.5707963"
         sodipodi:arg2="-0.52359878"
         inkscape:flatsided="true"
         inkscape:rounded="0"
         inkscape:randomized="0"
         d="m -140,-28.475364 7.33988,12.713046 -14.67976,0 z"
         inkscape:transform-center-y="5.1199474"
         transform="matrix(0.94725807,0,0,-0.75742921,60.676177,-111.02575)" />
    </g>
    <g
       inkscape:label="#g5640"
       id="east-minslider"
       transform="matrix(0,-0.73968509,-0.73968509,0,52.74583,87.47351)">
      <rect
         style="color:#eff0f1;fill:currentColor"
         id="rect5642-4-1"
         width="54.077068"
         height="21.630827"
         x="-98.726456"
         y="-106.40577"
         rx="3"
         ry="3"
         class="ColorScheme-ButtonBackground" />
      <rect
         class="ColorScheme-Text"
         ry="3"
         rx="3"
         y="-106.40577"
         x="-98.726456"
         height="21.630827"
         width="54.077068"
         id="rect5644-2-7"
         style="color:#31363b;opacity:0.1;fill:none;stroke:currentColor;stroke-width:1.35193" />
      <path
         style="color:#31363b;opacity:1;fill:#1f252f;fill-opacity:1;stroke:none"
         d="m -22.28125,-84 v 3 H -29.5 v 2 h 7.21875 v 3 l 5.53125,-4 z"
         transform="matrix(1.3519267,0,0,1.3519267,-50.733058,12.563782)"
         id="path5646-4-9"
         inkscape:connector-curvature="0"
         class="ColorScheme-Text" />
      <rect
         style="color:#31363b;opacity:1;fill:#1f252f;fill-opacity:1;stroke:none"
         id="rect5648-5-2"
         width="2.7038534"
         height="10.815413"
         x="-73.039833"
         y="-100.99806"
         class="ColorScheme-Text" />
    </g>
    <rect
       style="color:#31363b;opacity:0.7;fill:#eff0f1;fill-opacity:1;stroke:none"
       id="east-center"
       width="10"
       height="12"
       x="169"
       y="-130"
       class="ColorScheme-Text"
       inkscape:label="#rect5507"
       transform="rotate(90)" />
    <rect
       class="ColorScheme-Text"
       y="-118"
       x="169"
       height="1"
       width="10"
       id="east-left"
       style="color:#31363b;opacity:0.7;fill:#eff0f1;fill-opacity:1;stroke:none"
       inkscape:label="#rect5509"
       transform="rotate(90)" />
    <rect
       style="color:#31363b;opacity:0.7;fill:#eff0f1;fill-opacity:1;stroke:none"
       id="east-right"
       width="10"
       height="1"
       x="169"
       y="-131"
       class="ColorScheme-Text"
       inkscape:label="#rect5511"
       transform="rotate(90)" />
  </g>
</svg>
