<?xml version="1.0" encoding="UTF-8" standalone="no"?>
<svg
   width="240"
   height="80"
   viewBox="0 0 240 80"
   id="svg2"
   version="1.1"
   inkscape:version="1.1.1 (3bf5ae0d25, 2021-09-20)"
   sodipodi:docname="panel-background.svg"
   xmlns:inkscape="http://www.inkscape.org/namespaces/inkscape"
   xmlns:sodipodi="http://sodipodi.sourceforge.net/DTD/sodipodi-0.dtd"
   xmlns:xlink="http://www.w3.org/1999/xlink"
   xmlns="http://www.w3.org/2000/svg"
   xmlns:svg="http://www.w3.org/2000/svg"
   xmlns:rdf="http://www.w3.org/1999/02/22-rdf-syntax-ns#"
   xmlns:cc="http://creativecommons.org/ns#"
   xmlns:dc="http://purl.org/dc/elements/1.1/">
  <defs
     id="defs4">
    <style
       type="text/css"
       id="style2" />
    <linearGradient
       inkscape:collect="always"
       xlink:href="#linearGradient4270"
       id="linearGradient4950"
       gradientUnits="userSpaceOnUse"
       x1="51"
       y1="932.36218"
       x2="69"
       y2="932.36218" />
    <linearGradient
       id="linearGradient4270"
       inkscape:collect="always">
      <stop
         id="stop4272"
         offset="0"
         style="stop-color:#000000;stop-opacity:0.66663194" />
      <stop
         id="stop4274"
         offset="1"
         style="stop-color:#000000;stop-opacity:0;" />
    </linearGradient>
    <linearGradient
       inkscape:collect="always"
       xlink:href="#linearGradient4270"
       id="linearGradient4948"
       gradientUnits="userSpaceOnUse"
       x1="-15.571429"
       y1="932.36218"
       x2="-7.8571448"
       y2="932.36218"
       gradientTransform="matrix(2.3333338,0,0,1,17.333342,0)" />
    <linearGradient
       inkscape:collect="always"
       xlink:href="#linearGradient4270"
       id="linearGradient4934"
       gradientUnits="userSpaceOnUse"
       x1="951.79071"
       y1="-35"
       x2="960.36218"
       y2="-35"
       gradientTransform="matrix(2.3333296,0,0,1,-1272.4793,0)" />
    <linearGradient
       inkscape:collect="always"
       xlink:href="#linearGradient4270"
       id="linearGradient4920"
       gradientUnits="userSpaceOnUse"
       x1="-912.93359"
       y1="-35"
       x2="-905.21936"
       y2="-35"
       gradientTransform="matrix(2.3333371,0,0,1,1213.8197,0)" />
    <radialGradient
       inkscape:collect="always"
       xlink:href="#linearGradient4270"
       id="radialGradient1805"
       gradientUnits="userSpaceOnUse"
       gradientTransform="matrix(0,-1.8,1.8,0,84.40004,1066.9622)"
       cx="77"
       cy="11.99998"
       fx="77"
       fy="11.99998"
       r="10" />
    <radialGradient
       inkscape:collect="always"
       xlink:href="#linearGradient4270"
       id="radialGradient2248"
       gradientUnits="userSpaceOnUse"
       gradientTransform="matrix(1.8,0,0,1.8,-210.59996,954.76224)"
       cx="77"
       cy="11.99998"
       fx="77"
       fy="11.99998"
       r="10" />
    <radialGradient
       inkscape:collect="always"
       xlink:href="#linearGradient4270"
       id="radialGradient2262"
       gradientUnits="userSpaceOnUse"
       gradientTransform="matrix(0,1.8,-1.8,0,-50.400024,869.76222)"
       cx="77"
       cy="11.99998"
       fx="77"
       fy="11.99998"
       r="10" />
    <radialGradient
       inkscape:collect="always"
       xlink:href="#linearGradient4270"
       id="radialGradient2276"
       gradientUnits="userSpaceOnUse"
       gradientTransform="matrix(-1.8,0,0,-1.8,34.59999,1029.9622)"
       cx="77"
       cy="11.99998"
       fx="77"
       fy="11.99998"
       r="10" />
  </defs>
  <sodipodi:namedview
     id="base"
     pagecolor="#ffffff"
     bordercolor="#000000"
     borderopacity="1"
     inkscape:pageopacity="0"
     inkscape:pageshadow="2"
     inkscape:zoom="2.5198472"
     inkscape:cx="93.656473"
     inkscape:cy="21.231446"
     inkscape:document-units="px"
     inkscape:current-layer="shadow-topright"
     showgrid="false"
     inkscape:showpageshadow="false"
     borderlayer="false"
     units="px"
     inkscape:window-width="1920"
     inkscape:window-height="1007"
     inkscape:window-x="0"
     inkscape:window-y="0"
     inkscape:window-maximized="1"
     showguides="false"
     fit-margin-top="0"
     fit-margin-left="0"
     fit-margin-right="0"
     fit-margin-bottom="0"
     inkscape:guide-bbox="true"
     inkscape:snap-bbox="true"
     inkscape:bbox-nodes="true"
     inkscape:snap-bbox-edge-midpoints="true"
     inkscape:document-rotation="0"
     inkscape:lockguides="false"
     inkscape:pagecheckerboard="0">
    <inkscape:grid
       type="xygrid"
       id="grid3336"
       empspacing="2"
       originx="0"
       originy="-91.999979" />
    <sodipodi:guide
       position="93,196.00002"
       orientation="0,1"
       id="guide1808"
       inkscape:locked="false" />
  </sodipodi:namedview>
  <metadata
     id="metadata7">
    <rdf:RDF>
      <cc:Work
         rdf:about="">
        <dc:format>image/svg+xml</dc:format>
        <dc:type
           rdf:resource="http://purl.org/dc/dcmitype/StillImage" />
      </cc:Work>
    </rdf:RDF>
  </metadata>
  <g
     inkscape:label="Layer 1"
     inkscape:groupmode="layer"
     id="layer1"
     transform="translate(0,-904.36218)">
    <rect
       style="opacity:0.01;fill:#007aa5;fill-opacity:1;stroke:none"
       id="hint-tile-center"
       width="5"
       height="5"
       x="0"
       y="904.36218" />
    <g
       id="top"
       transform="translate(7.0000015,13)">
      <rect
         y="-50.999985"
         x="-916.36218"
         height="32"
         width="6"
         id="rect4152"
         style="opacity:0.7;fill:#1d212f;fill-opacity:1;stroke:none"
         transform="matrix(0,-1,-1,0,0,0)"
         class="ColorScheme-Background" />
    </g>
    <g
       id="topleft"
       transform="translate(7.0000015,13)">
      <path
         style="opacity:0.7;fill:#1d212f;fill-opacity:1"
         d="m 18,6 c -2.769987,0 -5,2.2300127 -5,5 v 1 h 4 1 1 V 11 7 6 Z"
         transform="translate(0,904.36218)"
         id="rect4159" />
    </g>
    <g
       id="topright"
       transform="translate(7.0000015,13)">
      <path
         style="opacity:0.7;fill:#1d212f;fill-opacity:1"
         d="m 51,6 v 1 4 1 h 1 1 3 1 V 11 C 57,8.2300127 54.769987,6 52,6 Z"
         transform="translate(0,904.36218)"
         id="rect4177" />
    </g>
    <g
       id="bottom"
       transform="translate(7.0000015,13)">
      <rect
         transform="rotate(90)"
         style="opacity:0.7;fill:#1d212f;fill-opacity:1;stroke:none"
         id="rect4148"
         width="6"
         height="32"
         x="948.36218"
         y="-50.999985"
         class="ColorScheme-Background" />
    </g>
    <g
       id="bottomleft"
       transform="translate(7.0000015,13)">
      <path
         style="opacity:0.7;fill:#1d212f;fill-opacity:1"
         d="m 13,44 v 1 c 0,2.769987 2.230013,5 5,5 h 1 v -1 -4 -1 h -1 -1 -3 z"
         transform="translate(0,904.36218)"
         id="path5048" />
    </g>
    <g
       id="bottomright"
       transform="translate(7.0000015,13)">
      <path
         style="opacity:0.7;fill:#1d212f;fill-opacity:1"
         d="m 51,948.3622 v 1 4 1 h 1 c 2.76999,0 5,-2.23001 5,-5 v -1 h -1 -3 -1 z"
         id="rect4177-6" />
    </g>
    <g
       id="left"
       transform="translate(7.0000015,13)">
      <rect
         transform="scale(-1,1)"
         style="opacity:0.7;fill:#1d212f;fill-opacity:1;stroke:none"
         id="rect4144"
         width="5.9999995"
         height="32"
         x="-19.000004"
         y="916.36218"
         class="ColorScheme-Background" />
    </g>
    <g
       id="right"
       transform="translate(7.0000015,13)">
      <rect
         y="916.36218"
         x="50.999985"
         height="32"
         width="5.9999995"
         id="rect4140"
         style="opacity:0.7;fill:#1d212f;fill-opacity:1;stroke:none"
         class="ColorScheme-Background" />
    </g>
    <g
       id="center"
       transform="translate(7.0000015,13)">
      <rect
         y="916.36218"
         x="19.000004"
         height="32"
         width="32"
         id="rect4401"
         style="opacity:1;fill:none;fill-opacity:1;stroke:none" />
      <rect
         style="opacity:0.7;fill:#1d212f;fill-opacity:1;stroke:none"
         id="rect4138"
         width="32"
         height="32"
         x="19.000004"
         y="916.36218"
         class="ColorScheme-Background" />
    </g>
    <rect
       style="opacity:0.01;fill:#007aa5;fill-opacity:1;stroke:none;stroke-width:0.707107"
       id="hint-top-margin"
       width="2"
       height="1.9999769"
       x="31.000002"
       y="923.36218" />
    <rect
       y="965.36218"
       x="51"
       height="2.0000231"
       width="2"
       id="hint-bottom-margin"
       style="opacity:0.01;fill:#007aa5;fill-opacity:1;stroke:none;stroke-width:0.707108" />
    <rect
       y="-63.999977"
       x="933.16223"
       height="1.9999847"
       width="2"
       id="hint-right-margin"
       style="opacity:0.01;fill:#007aa5;fill-opacity:1;stroke:none;stroke-width:0.70711"
       transform="rotate(90)" />
    <rect
       style="opacity:0.01;fill:#007aa5;fill-opacity:1;stroke:none;stroke-width:0.707108"
       id="hint-left-margin"
       width="2"
       height="2.0000019"
       x="952.36218"
       y="-22.000002"
       transform="rotate(90)" />
    <g
       id="mask-top"
       transform="translate(167,13)"
       style="fill:#1d212f;fill-opacity:1">
      <rect
         transform="matrix(0,-1,-1,0,0,0)"
         style="opacity:0.97;fill:#1d212f;fill-opacity:1;stroke:none"
         id="rect4265"
         width="4.9999771"
         height="32.000015"
         x="-915.36218"
         y="-51" />
    </g>
    <g
       id="mask-topleft"
       transform="translate(167,13)"
       style="fill:#1d212f;fill-opacity:1">
      <path
         style="opacity:0.97;fill:#1d212f;fill-opacity:1"
         d="m 134,6 c -2.76999,0 -5,2.2300127 -5,5 h 5 z"
         transform="translate(-116,904.36218)"
         id="path4277" />
    </g>
    <g
       id="mask-topright"
       transform="translate(167,13)"
       style="fill:#1d212f;fill-opacity:1">
      <path
         style="opacity:0.97;fill:#1d212f;fill-opacity:1"
         d="m 168,6 v 5 h 5 c 0,-2.7699873 -2.23001,-5 -5,-5 z"
         transform="translate(-116,904.36218)"
         id="path4287" />
    </g>
    <g
       id="mask-bottom"
       transform="translate(167,13)"
       style="fill:#1d212f;fill-opacity:1">
      <rect
         y="-51"
         x="949.36218"
         height="32.000015"
         width="5.0000229"
         id="rect4291"
         style="opacity:0.97;fill:#1d212f;fill-opacity:1;stroke:none"
         transform="rotate(90)" />
    </g>
    <g
       id="mask-bottomleft"
       transform="translate(167,13)"
       style="fill:#1d212f;fill-opacity:1">
      <path
         style="opacity:0.97;fill:#1d212f;fill-opacity:1"
         d="m 129,45 c 0,2.769987 2.23001,5 5,5 v -5 z"
         transform="translate(-116,904.36218)"
         id="path4303" />
    </g>
    <g
       id="mask-bottomright"
       transform="translate(167,13)"
       style="fill:#1d212f;fill-opacity:1">
      <path
         style="opacity:0.97;fill:#1d212f;fill-opacity:1"
         d="m 168,45 v 5 c 2.76999,0 5,-2.230013 5,-5 z"
         transform="translate(-116,904.36218)"
         id="path4313" />
    </g>
    <g
       id="mask-left"
       transform="translate(167,13)"
       style="fill:#1d212f;fill-opacity:1">
      <rect
         y="916.36218"
         x="-18"
         height="32.000023"
         width="4.9999962"
         id="rect4317"
         style="opacity:0.97;fill:#1d212f;fill-opacity:1;stroke:none"
         transform="scale(-1,1)" />
    </g>
    <g
       id="mask-right"
       transform="translate(167,13)"
       style="fill:#1d212f;fill-opacity:1">
      <rect
         style="opacity:0.97;fill:#1d212f;fill-opacity:1;stroke:none"
         id="rect4323"
         width="4.9999847"
         height="32.000023"
         x="52"
         y="916.36218" />
    </g>
    <g
       id="mask-center"
       transform="translate(167,13)"
       style="fill:#1d212f;fill-opacity:1">
      <rect
         style="opacity:1;fill:#1d212f;fill-opacity:1;stroke:none"
         id="rect4329"
         width="32"
         height="32"
         x="19.000004"
         y="916.36218" />
      <rect
         y="916.36218"
         x="19.000004"
         height="32"
         width="32"
         id="rect4331"
         style="opacity:0.97;fill:#1d212f;fill-opacity:1;stroke:none" />
    </g>
    <g
       id="shadow-top"
       transform="translate(86.999999,12.00002)">
      <rect
         transform="matrix(0,-1,-1,0,0,0)"
         style="opacity:1;fill:none;fill-opacity:1;stroke:none"
         id="rect4820"
         width="6"
         height="32"
         x="-916.36218"
         y="-50.999985" />
      <rect
         transform="matrix(0,-1,-1,0,0,0)"
         style="opacity:0.35;fill:url(#linearGradient4920);fill-opacity:1;stroke:none;stroke-width:1.52753"
         id="rect4822"
         width="14.000023"
         height="32"
         x="-910.36218"
         y="-50.999985" />
      <rect
         y="-50.999985"
         x="-911.36218"
         height="32"
         width="0.99997741"
         id="rect4824"
         style="opacity:1;fill:none;fill-opacity:1;stroke:none"
         transform="matrix(0,-1,-1,0,0,0)" />
      <rect
         y="-50.999985"
         x="-910.36218"
         height="32"
         width="1.0000226"
         id="rect907"
         style="opacity:0.5;fill:#3b5a87;fill-opacity:1;stroke:none;stroke-width:0.408253"
         transform="matrix(0,-1,-1,0,0,0)" />
    </g>
    <g
       id="shadow-topleft">
      <path
         style="opacity:0.35;fill:url(#radialGradient1805);fill-opacity:1;fill-rule:evenodd;stroke:none;stroke-width:2.85714px;stroke-linecap:butt;stroke-linejoin:miter;stroke-opacity:1"
         d="m 86,908.3622 v 20 c 4.66667,10e-6 9.33333,10e-6 14,0 v -1 c 0,-2.76999 2.23001,-5 5,-5 h 1 v -14 z"
         id="path4830" />
      <rect
         ry="0.9999752"
         y="922.36218"
         x="-106"
         height="6.0000224"
         width="5.9999919"
         id="rect4834"
         style="fill:none;fill-opacity:1"
         transform="scale(-1,1)" />
      <rect
         ry="0"
         y="922.36218"
         x="-106"
         height="5.9999752"
         width="2.0000038"
         id="rect4836"
         style="fill:none;fill-opacity:1"
         transform="scale(-1,1)" />
      <rect
         y="926.36218"
         x="-105"
         height="2.0000248"
         width="4.9999924"
         id="rect4838"
         style="fill:none;fill-opacity:1"
         transform="scale(-1,1)" />
      <path
         style="opacity:0.5;fill:#3b5a87;fill-opacity:1;fill-rule:evenodd;stroke:none;stroke-width:1.71428px;stroke-linecap:butt;stroke-linejoin:miter;stroke-opacity:1"
         d="m 105,921.3622 c -3.32399,0 -6,2.67601 -6,6 v 1 h 1 v -1 c 0,-2.76999 2.23001,-5 5,-5 h 1 v -1 z"
         id="path898" />
    </g>
    <g
       id="shadow-bottom"
       transform="translate(86.999999,12.00002)">
      <rect
         y="-50.999985"
         x="948.36218"
         height="32"
         width="6"
         id="rect4856"
         style="opacity:1;fill:none;fill-opacity:1;stroke:none"
         transform="rotate(90)" />
      <rect
         y="-50.999985"
         x="954.36218"
         height="32"
         width="13.999977"
         id="rect4858"
         style="opacity:0.35;fill:url(#linearGradient4934);fill-opacity:1;stroke:none;stroke-width:1.52752"
         transform="rotate(90)" />
      <rect
         transform="rotate(90)"
         style="opacity:1;fill:none;fill-opacity:1;stroke:none"
         id="rect4860"
         width="1.0000226"
         height="31.999971"
         x="953.36218"
         y="-50.999985" />
      <rect
         transform="rotate(90)"
         style="opacity:0.5;fill:#3b5a87;fill-opacity:1;stroke:none;stroke-width:0.408244"
         id="rect915"
         width="0.99997741"
         height="32"
         x="954.36218"
         y="-50.999985" />
    </g>
    <g
       id="shadow-left"
       transform="translate(86.999999,12.00002)">
      <rect
         y="916.36218"
         x="-19.000004"
         height="32"
         width="5.9999995"
         id="rect4892"
         style="opacity:1;fill:none;fill-opacity:1;stroke:none"
         transform="scale(-1,1)" />
      <rect
         y="916.36218"
         x="-13.000002"
         height="32"
         width="14.000002"
         id="rect4894"
         style="opacity:0.35;fill:url(#linearGradient4948);fill-opacity:1;stroke:none;stroke-width:1.52753"
         transform="scale(-1,1)" />
      <rect
         transform="scale(-1,1)"
         style="opacity:1;fill:none;fill-opacity:1;stroke:none"
         id="rect4896"
         width="1.0000019"
         height="32.000023"
         x="-14.000002"
         y="916.36218" />
      <rect
         transform="scale(-1,1)"
         style="opacity:0.5;fill:#3b5a87;fill-opacity:1;stroke:none;stroke-width:0.408249"
         id="rect903"
         width="1.0000019"
         height="32"
         x="-13.000002"
         y="916.36218" />
    </g>
    <g
       id="shadow-right"
       transform="translate(86.999999,12.00002)">
      <rect
         style="opacity:1;fill:none;fill-opacity:1;stroke:none"
         id="rect4900"
         width="5.9999995"
         height="32"
         x="50.999985"
         y="916.36218" />
      <rect
         style="opacity:0.35;fill:url(#linearGradient4950);fill-opacity:1;stroke:none"
         id="rect4902"
         width="14.000015"
         height="31.999977"
         x="56.999985"
         y="916.36218" />
      <rect
         y="916.36218"
         x="55.999985"
         height="32.000023"
         width="1"
         id="rect4904"
         style="opacity:1;fill:none;fill-opacity:1;stroke:none" />
      <rect
         y="916.36218"
         x="56.999985"
         height="32"
         width="1.0000153"
         id="rect911"
         style="opacity:0.5;fill:#3b5a87;fill-opacity:1;stroke:none;stroke-width:0.408251" />
    </g>
    <g
       id="shadow-center"
       transform="translate(86.999999,12.00002)">
      <rect
         style="opacity:1;fill:none;fill-opacity:1;stroke:none"
         id="rect4908"
         width="32"
         height="32"
         x="19.000004"
         y="916.36218" />
      <rect
         y="916.36218"
         x="19.000004"
         height="32"
         width="32"
         id="rect4910"
         style="opacity:1;fill:none;fill-opacity:1;stroke:none" />
    </g>
    <rect
       y="908.36218"
       x="110.99999"
       height="14"
       width="2"
       id="shadow-hint-top-margin"
       style="opacity:0.01;fill:#007aa5;fill-opacity:1;stroke:none;stroke-width:1.08013" />
    <rect
       style="opacity:0.01;fill:#007aa5;fill-opacity:1;stroke:none;stroke-width:1.08012"
       id="shadow-hint-bottom-margin"
       width="2"
       height="13.999977"
       x="133.00002"
       y="966.36206" />
    <rect
       transform="rotate(90)"
       style="opacity:0.01;fill:#007aa5;fill-opacity:1;stroke:none;stroke-width:1.08014"
       id="shadow-hint-right-margin"
       width="2.0000215"
       height="14"
       x="932.36218"
       y="-158.00002" />
    <rect
       transform="rotate(90)"
       y="-99.999985"
       x="951.36194"
       height="14"
       width="2.0000215"
       id="shadow-hint-left-margin"
       style="opacity:0.01;fill:#007aa5;fill-opacity:1;stroke:none;stroke-width:1.08013" />
    <g
       id="shadow-topright"
       transform="translate(210,-47.999992)">
      <path
         style="opacity:0.35;fill:url(#radialGradient2248);fill-opacity:1;fill-rule:evenodd;stroke:none;stroke-width:2.85714px;stroke-linecap:butt;stroke-linejoin:miter;stroke-opacity:1"
         d="m -51.99998,956.3622 h -20 c -6e-6,4.66667 -9e-6,9.33333 0,14 h 1 c 2.769987,0 5,2.23001 5,5 v 1 h 14 z"
         id="path2236" />
      <rect
         ry="0.9999752"
         y="65.999992"
         x="-976.36218"
         height="6.0000224"
         width="5.9999919"
         id="rect2238"
         style="fill:none;fill-opacity:1"
         transform="matrix(0,-1,-1,0,0,0)" />
      <rect
         ry="0"
         y="65.999992"
         x="-976.36218"
         height="5.9999752"
         width="2.0000038"
         id="rect2240"
         style="fill:none;fill-opacity:1"
         transform="matrix(0,-1,-1,0,0,0)" />
      <rect
         y="69.999992"
         x="-975.36218"
         height="2.0000248"
         width="4.9999924"
         id="rect2242"
         style="fill:none;fill-opacity:1"
         transform="matrix(0,-1,-1,0,0,0)" />
      <path
         style="opacity:0.5;fill:#3b5a87;fill-opacity:1;fill-rule:evenodd;stroke:none;stroke-width:1.71428px;stroke-linecap:butt;stroke-linejoin:miter;stroke-opacity:1"
         d="m -64.99998,975.3622 c 0,-3.32399 -2.676013,-6 -6,-6 h -1 v 1 h 1 c 2.769987,0 5,2.23001 5,5 v 1 h 1 z"
         id="path2244" />
    </g>
    <g
       id="shadow-bottomleft"
       transform="translate(210,-47.999992)">
      <path
         style="opacity:0.35;fill:url(#radialGradient2276);fill-opacity:1;fill-rule:evenodd;stroke:none;stroke-width:2.85714px;stroke-linecap:butt;stroke-linejoin:miter;stroke-opacity:1"
         d="m -123.99999,1028.3622 h 20 c 1e-5,-4.6667 1e-5,-9.3333 0,-14 h -1 c -2.76999,0 -5,-2.23 -5,-5 v -1 h -14 z"
         id="path2264" />
      <rect
         ry="0.9999752"
         y="-110.00002"
         x="1008.3622"
         height="6.0000224"
         width="5.9999919"
         id="rect2266"
         style="fill:none;fill-opacity:1"
         transform="matrix(0,1,1,0,0,0)" />
      <rect
         ry="0"
         y="-110.00002"
         x="1008.3622"
         height="5.9999752"
         width="2.0000038"
         id="rect2268"
         style="fill:none;fill-opacity:1"
         transform="matrix(0,1,1,0,0,0)" />
      <rect
         y="-106.00002"
         x="1009.3622"
         height="2.0000248"
         width="4.9999924"
         id="rect2270"
         style="fill:none;fill-opacity:1"
         transform="matrix(0,1,1,0,0,0)" />
      <path
         style="opacity:0.5;fill:#3b5a87;fill-opacity:1;fill-rule:evenodd;stroke:none;stroke-width:1.71428px;stroke-linecap:butt;stroke-linejoin:miter;stroke-opacity:1"
         d="m -110.99999,1009.3622 c 0,3.324 2.67601,6 6,6 h 1 v -1 h -1 c -2.76999,0 -5,-2.23 -5,-5 v -1 h -1 z"
         id="path2272" />
    </g>
    <g
       id="shadow-bottomright"
       transform="translate(210,-47.999992)">
      <path
         style="opacity:0.35;fill:url(#radialGradient2262);fill-opacity:1;fill-rule:evenodd;stroke:none;stroke-width:2.85714px;stroke-linecap:butt;stroke-linejoin:miter;stroke-opacity:1"
         d="m -51.999988,1028.3622 v -20 c -4.666667,0 -9.333333,0 -14,0 v 1 c 0,2.77 -2.230013,5 -5,5 h -1 v 14 z"
         id="path2250" />
      <rect
         ry="0.9999752"
         y="-1014.3622"
         x="-71.999992"
         height="6.0000224"
         width="5.9999919"
         id="rect2252"
         style="fill:none;fill-opacity:1"
         transform="scale(1,-1)" />
      <rect
         ry="0"
         y="-1014.3622"
         x="-71.999992"
         height="5.9999752"
         width="2.0000038"
         id="rect2254"
         style="fill:none;fill-opacity:1"
         transform="scale(1,-1)" />
      <rect
         y="-1010.3622"
         x="-70.999985"
         height="2.0000248"
         width="4.9999924"
         id="rect2256"
         style="fill:none;fill-opacity:1"
         transform="scale(1,-1)" />
      <path
         style="opacity:0.5;fill:#3b5a87;fill-opacity:1;fill-rule:evenodd;stroke:none;stroke-width:1.71428px;stroke-linecap:butt;stroke-linejoin:miter;stroke-opacity:1"
         d="m -70.999988,1015.3622 c 3.323987,0 6,-2.676 6,-6 v -1 h -1 v 1 c 0,2.77 -2.230013,5 -5,5 h -1 v 1 z"
         id="path2258" />
    </g>
  </g>
</svg>
