<?xml version="1.0" encoding="UTF-8" standalone="no"?>
<!-- Created with Inkscape (http://www.inkscape.org/) -->

<svg
   width="638.90363"
   height="590.7525"
   id="svg2"
   sodipodi:version="0.32"
   inkscape:version="1.1.1 (3bf5ae0d25, 2021-09-20)"
   sodipodi:docname="timer.svg"
   inkscape:output_extension="org.inkscape.output.svg.inkscape"
   version="1.1"
   viewBox="0 0 598.97214 553.83047"
   xmlns:inkscape="http://www.inkscape.org/namespaces/inkscape"
   xmlns:sodipodi="http://sodipodi.sourceforge.net/DTD/sodipodi-0.dtd"
   xmlns:xlink="http://www.w3.org/1999/xlink"
   xmlns="http://www.w3.org/2000/svg"
   xmlns:svg="http://www.w3.org/2000/svg"
   xmlns:rdf="http://www.w3.org/1999/02/22-rdf-syntax-ns#"
   xmlns:cc="http://creativecommons.org/ns#"
   xmlns:dc="http://purl.org/dc/elements/1.1/">
  <defs
     id="defs4">
    <linearGradient
       id="linearGradient3493">
      <stop
         id="stop3495"
         offset="0"
         style="stop-color:#b40000;stop-opacity:1;" />
      <stop
         style="stop-color:#e10000;stop-opacity:1;"
         offset="0.5"
         id="stop3497" />
      <stop
         id="stop3499"
         offset="1"
         style="stop-color:#b40000;stop-opacity:1;" />
    </linearGradient>
    <linearGradient
       id="linearGradient3178">
      <stop
         style="stop-color:#000000;stop-opacity:1;"
         offset="0"
         id="stop3180" />
      <stop
         id="stop3186"
         offset="0.5"
         style="stop-color:#202020;stop-opacity:1;" />
      <stop
         style="stop-color:#000000;stop-opacity:1;"
         offset="1"
         id="stop3182" />
    </linearGradient>
    <linearGradient
       id="linearGradient3152">
      <stop
         style="stop-color:#dcdcdc;stop-opacity:0.0627451;"
         offset="0"
         id="stop3154" />
      <stop
         id="stop3176"
         offset="0.5"
         style="stop-color:#ffffff;stop-opacity:0.0627451;" />
      <stop
         style="stop-color:#dcdcdc;stop-opacity:0.0627451;"
         offset="1"
         id="stop3156" />
    </linearGradient>
    <linearGradient
       inkscape:collect="always"
       xlink:href="#linearGradient3178"
       id="linearGradient3521"
       x1="-281.2037"
       y1="495.36252"
       x2="-154.66203"
       y2="495.36252"
       gradientUnits="userSpaceOnUse" />
    <linearGradient
       inkscape:collect="always"
       xlink:href="#linearGradient3152"
       id="linearGradient3531"
       x1="-182.78241"
       y1="663.54395"
       x2="-101.66595"
       y2="663.54395"
       gradientUnits="userSpaceOnUse" />
    <linearGradient
       inkscape:collect="always"
       xlink:href="#linearGradient3152"
       id="linearGradient3553"
       x1="-199.00571"
       y1="814.96136"
       x2="-52.996094"
       y2="814.96136"
       gradientUnits="userSpaceOnUse" />
    <inkscape:perspective
       id="perspective3476"
       inkscape:persp3d-origin="0.5 : 398.16018 : 1"
       inkscape:vp_z="0.99999999 : 398.32684 : 1"
       inkscape:vp_y="0 : 1000 : 0"
       inkscape:vp_x="0 : 398.32684 : 1"
       sodipodi:type="inkscape:persp3d" />
    <linearGradient
       inkscape:collect="always"
       xlink:href="#linearGradient3928"
       id="linearGradient4597"
       gradientUnits="userSpaceOnUse"
       gradientTransform="matrix(1.0013541,0,0,0.96500541,63.043322,-2.6905971)"
       x1="-46"
       y1="-49.539398"
       x2="-46"
       y2="-69.625" />
    <linearGradient
       id="linearGradient3928">
      <stop
         style="stop-color:#d4670e;stop-opacity:1;"
         offset="0"
         id="stop3930" />
      <stop
         style="stop-color:#f07d1f;stop-opacity:1;"
         offset="1"
         id="stop3932" />
    </linearGradient>
    <linearGradient
       y2="-69.625"
       x2="-46"
       y1="-49.539398"
       x1="-46"
       gradientTransform="matrix(1.0013541,0,0,0.96500541,-432.511,-859.28212)"
       gradientUnits="userSpaceOnUse"
       id="linearGradient3485"
       xlink:href="#linearGradient3928"
       inkscape:collect="always" />
  </defs>
  <sodipodi:namedview
     id="base"
     pagecolor="#ffffff"
     bordercolor="#666666"
     borderopacity="1.0"
     inkscape:pageopacity="1"
     inkscape:pageshadow="2"
     inkscape:zoom="0.20176839"
     inkscape:cx="664.12782"
     inkscape:cy="1107.7057"
     inkscape:document-units="px"
     inkscape:current-layer="layer1"
     showgrid="false"
     showguides="false"
     inkscape:guide-bbox="true"
     inkscape:window-width="1920"
     inkscape:window-height="1005"
     inkscape:window-x="0"
     inkscape:window-y="0"
     inkscape:snap-global="false"
     inkscape:window-maximized="1"
     fit-margin-top="0"
     fit-margin-left="0"
     fit-margin-right="0"
     fit-margin-bottom="0"
     objecttolerance="10000"
     guidetolerance="10000"
     inkscape:pagecheckerboard="0"
     inkscape:lockguides="true">
    <inkscape:grid
       type="xygrid"
       id="grid3146"
       empspacing="5"
       visible="true"
       enabled="true"
       snapvisiblegridlinesonly="true"
       originx="162.77926"
       originy="592.2351"
       spacingx="1"
       spacingy="1" />
    <sodipodi:guide
       orientation="1,0"
       position="-244.95766,-50.48928"
       id="guide3150"
       inkscape:locked="true" />
    <sodipodi:guide
       orientation="0,1"
       position="-226.70645,-49.72881"
       id="guide3152"
       inkscape:locked="true" />
    <sodipodi:guide
       orientation="1,0"
       position="-160.66605,-85.85566"
       id="guide3154"
       inkscape:locked="true" />
    <sodipodi:guide
       orientation="0,1"
       position="-245.41846,-215.49343"
       id="guide3156"
       inkscape:locked="true" />
  </sodipodi:namedview>
  <metadata
     id="metadata7">
    <rdf:RDF>
      <cc:Work
         rdf:about="">
        <dc:format>image/svg+xml</dc:format>
        <dc:type
           rdf:resource="http://purl.org/dc/dcmitype/StillImage" />
      </cc:Work>
    </rdf:RDF>
  </metadata>
  <g
     inkscape:label="g1987"
     inkscape:groupmode="layer"
     id="layer1"
     transform="translate(-5.35651,579.79672)">
    <g
       id="0"
       inkscape:label="#g2388"
       style="fill:#3771c8"
       transform="translate(-168.49278,-309.9354)">
      <rect
         y="324.92047"
         x="200"
         height="162.85713"
         width="88.571442"
         id="rect2162"
         style="opacity:0;fill:#3771c8;fill-opacity:1" />
      <path
         style="font-style:normal;font-weight:normal;font-size:144px;font-family:'Bitstream Vera Sans';fill:#eff0f1;fill-opacity:1;stroke:none"
         d="m 243.55382,363.056 c -7.31254,1e-4 -12.82035,3.60947 -16.52344,10.82812 -3.65628,7.17196 -5.4844,17.97663 -5.48437,32.41407 -3e-5,14.39066 1.82809,25.19534 5.48437,32.41406 3.70309,7.17189 9.2109,10.75782 16.52344,10.75781 7.35932,1e-5 12.86713,-3.58592 16.52344,-10.75781 3.70305,-7.21872 5.55461,-18.0234 5.55468,-32.41406 -7e-5,-14.43744 -1.85163,-25.24211 -5.55468,-32.41407 -3.65631,-7.21865 -9.16412,-10.82802 -16.52344,-10.82812 m 0,-11.25 c 11.76557,1.1e-4 20.74212,4.66416 26.92969,13.99219 6.23429,9.28133 9.35148,22.78132 9.35156,40.5 -8e-5,17.67191 -3.11727,31.17189 -9.35156,40.5 -6.18757,9.28125 -15.16412,13.92187 -26.92969,13.92187 -11.76566,0 -20.76565,-4.64062 -27,-13.92187 -6.18751,-9.32811 -9.28126,-22.82809 -9.28125,-40.5 -1e-5,-17.71868 3.09374,-31.21867 9.28125,-40.5 6.23435,-9.32803 15.23434,-13.99208 27,-13.99219"
         id="text3148"
         inkscape:connector-curvature="0" />
      <rect
         y="324.51367"
         x="200.5"
         height="162.85713"
         width="88.571442"
         id="rect3160"
         style="fill:#3771c8;fill-opacity:0;stroke:none" />
    </g>
    <g
       id="1"
       inkscape:label="#g2394"
       style="fill:#3771c8"
       transform="translate(-199.97426,-311.78351)">
      <rect
         y="326.76859"
         x="380.54398"
         height="162.85713"
         width="88.571442"
         id="rect3206"
         style="opacity:0;fill:#3771c8;fill-opacity:1" />
      <path
         style="font-style:normal;font-weight:normal;font-size:144px;font-family:'Bitstream Vera Sans';fill:#eff0f1;fill-opacity:1;stroke:none"
         d="m 396.18375,448.57602 h 23.20312 v -80.08594 l -25.24219,5.0625 v -12.9375 l 25.10157,-5.0625 h 14.20312 v 93.02344 h 23.20313 v 11.95312 h -60.46875 v -11.95312"
         id="text3208"
         inkscape:connector-curvature="0" />
      <rect
         y="326.36179"
         x="381.04398"
         height="162.85713"
         width="88.571442"
         id="rect3212"
         style="fill:#3771c8;fill-opacity:0;stroke:none" />
    </g>
    <g
       id="2"
       inkscape:label="#g2400"
       style="fill:#3771c8"
       transform="translate(-199.88939,-309.59107)">
      <rect
         y="324.57614"
         x="551.55286"
         height="162.85713"
         width="88.571442"
         id="rect3218"
         style="opacity:0;fill:#3771c8;fill-opacity:1" />
      <path
         style="font-style:normal;font-weight:normal;font-size:144px;font-family:'Bitstream Vera Sans';fill:#eff0f1;fill-opacity:1;stroke:none"
         d="m 576.96606,446.38358 h 49.57032 v 11.95312 h -66.65625 v -11.95312 c 5.39061,-5.57811 12.72654,-13.05467 22.00781,-22.42969 9.32808,-9.42183 15.18745,-15.49214 17.57812,-18.21094 4.54682,-5.10932 7.71088,-9.42181 9.49219,-12.9375 1.82807,-3.56243 2.74213,-7.05461 2.74219,-10.47656 -6e-5,-5.57805 -1.96881,-10.12492 -5.90625,-13.64063 -3.89068,-3.51553 -8.97661,-5.27334 -15.25781,-5.27343 -4.45316,9e-5 -9.1641,0.77353 -14.13282,2.32031 -4.92189,1.54696 -10.19532,3.89071 -15.82031,7.03125 v -14.34375 c 5.71873,-2.29677 11.06248,-4.03115 16.03125,-5.20313 4.96872,-1.17177 9.51559,-1.7577 13.64063,-1.75781 10.87495,1.1e-4 19.54681,2.71885 26.01562,8.15625 6.46868,5.43759 9.70305,12.70321 9.70313,21.79688 -8e-5,4.31257 -0.82039,8.41413 -2.46094,12.30468 -1.59382,3.84381 -4.52351,8.39068 -8.78906,13.64063 -1.17194,1.35942 -4.8985,5.29692 -11.17969,11.8125 -6.2813,6.46878 -15.14066,15.53908 -26.57813,27.21094"
         id="text3220"
         inkscape:connector-curvature="0" />
      <rect
         y="324.16934"
         x="552.05286"
         height="162.85713"
         width="88.571442"
         id="rect3224"
         style="fill:#3771c8;fill-opacity:0;stroke:none" />
    </g>
    <g
       id="3"
       inkscape:label="#g2406"
       transform="translate(304.01315,-541.98771)"
       style="fill:#3771c8">
      <rect
         y="556.97278"
         x="205.15031"
         height="162.85713"
         width="88.571442"
         id="rect3230"
         style="opacity:0;fill:#3771c8;fill-opacity:1" />
      <path
         style="font-style:normal;font-weight:normal;font-size:144px;font-family:'Bitstream Vera Sans';fill:#eff0f1;fill-opacity:1;stroke:none"
         d="m 261.36034,634.13177 c 6.79681,1.45319 12.09368,4.47662 15.89062,9.07032 3.84367,4.59379 5.76555,10.26566 5.76563,17.01562 -8e-5,10.3594 -3.56258,18.37501 -10.6875,24.04688 -7.12507,5.67187 -17.25006,8.50781 -30.375,8.50781 -4.40629,0 -8.95316,-0.44531 -13.64063,-1.33594 -4.64064,-0.84375 -9.44533,-2.13281 -14.41406,-3.86719 v -13.71093 c 3.93748,2.29689 8.24998,4.03126 12.9375,5.20312 4.68747,1.17189 9.5859,1.75782 14.69531,1.75781 8.9062,1e-5 15.67963,-1.7578 20.32031,-5.27343 4.68744,-3.51561 7.03119,-8.62498 7.03125,-15.32813 -6e-5,-6.18746 -2.17975,-11.01558 -6.53906,-14.48437 -4.31255,-3.51558 -10.33599,-5.27339 -18.07031,-5.27344 h -12.23438 v -11.67188 h 12.79688 c 6.98432,7e-5 12.32807,-1.38274 16.03125,-4.14843 3.70306,-2.81243 5.55462,-6.84368 5.55469,-12.09375 -7e-5,-5.39054 -1.92194,-9.51554 -5.76563,-12.375 -3.79693,-2.90616 -9.25786,-4.35928 -16.38281,-4.35938 -3.89066,10e-5 -8.06253,0.42197 -12.51563,1.26563 -4.45315,0.84384 -9.35158,2.15634 -14.69531,3.9375 v -12.65625 c 5.39061,-1.4999 10.42966,-2.6249 15.11719,-3.375 4.73434,-0.7499 9.18746,-1.1249 13.35937,-1.125 10.7812,10e-5 19.31244,2.46104 25.59375,7.38281 6.28118,4.87509 9.4218,11.48446 9.42188,19.82812 -8e-5,5.81258 -1.66414,10.73445 -4.99219,14.76563 -3.32819,3.98444 -8.06256,6.75006 -14.20312,8.29687"
         id="text3232"
         inkscape:connector-curvature="0" />
      <rect
         y="556.56598"
         x="205.65031"
         height="162.85713"
         width="88.571442"
         id="rect3236"
         style="fill:#3771c8;fill-opacity:0;stroke:none" />
    </g>
    <g
       id="4"
       inkscape:label="#g2412"
       style="fill:#3771c8"
       transform="translate(-353.42162,-339.3364)">
      <rect
         y="559.16522"
         x="384.92883"
         height="162.85713"
         width="88.571442"
         id="rect3242"
         style="opacity:0;fill:#3771c8;fill-opacity:1;stroke:none" />
      <path
         style="font-style:normal;font-weight:normal;font-size:144px;font-family:'Bitstream Vera Sans';fill:#eff0f1;fill-opacity:1;stroke:none"
         d="m 437.1311,600.32416 -35.85937,56.03906 h 35.85937 v -56.03906 m -3.72656,-12.375 h 17.85938 v 68.41406 h 14.97656 v 11.8125 h -14.97656 v 24.75 H 437.1311 v -24.75 h -47.39062 v -13.71094 l 43.66406,-66.51562"
         id="text3244"
         inkscape:connector-curvature="0" />
      <rect
         y="558.75842"
         x="385.42883"
         height="162.85713"
         width="88.571442"
         id="rect3248"
         style="fill:#3771c8;fill-opacity:0;stroke:none" />
    </g>
    <g
       id="5"
       inkscape:label="#g2418"
       style="fill:#3771c8"
       transform="translate(-381.94524,-356.87583)">
      <rect
         y="576.70465"
         x="562.51495"
         height="162.85713"
         width="88.571442"
         id="rect3254"
         style="opacity:0;fill:#3771c8;fill-opacity:1;stroke:none" />
      <path
         style="font-style:normal;font-weight:normal;font-size:144px;font-family:'Bitstream Vera Sans';fill:#eff0f1;fill-opacity:1;stroke:none"
         d="m 575.83441,605.48859 h 55.75781 v 11.95312 h -42.75 v 25.73438 c 2.06247,-0.70306 4.12497,-1.21869 6.1875,-1.54688 2.06247,-0.37493 4.12497,-0.56243 6.1875,-0.5625 11.7187,7e-5 20.99994,3.21101 27.84375,9.63281 6.84368,6.42193 10.26555,15.11724 10.26563,26.08594 -8e-5,11.2969 -3.5157,20.08595 -10.54688,26.36719 -7.03131,6.23438 -16.94536,9.35156 -29.74218,9.35156 -4.40629,0 -8.90628,-0.375 -13.5,-1.125 -4.5469,-0.75 -9.25783,-1.875 -14.13282,-3.375 v -14.27344 c 4.21874,2.29689 8.57811,4.00783 13.07813,5.13282 4.49997,1.12501 9.25778,1.68751 14.27344,1.6875 8.10933,10e-6 14.53119,-2.1328 19.26562,-6.39844 4.73431,-4.26561 7.1015,-10.05466 7.10156,-17.36719 -6e-5,-7.31246 -2.36725,-13.10151 -7.10156,-17.36719 -4.73443,-4.26557 -11.15629,-6.39838 -19.26562,-6.39843 -3.79691,5e-5 -7.59378,0.42193 -11.39063,1.26562 -3.75002,0.84381 -7.59377,2.15631 -11.53125,3.9375 v -52.73437"
         id="text3256"
         inkscape:connector-curvature="0" />
      <rect
         y="576.29785"
         x="563.01495"
         height="162.85713"
         width="88.571442"
         id="rect3260"
         style="fill:#3771c8;fill-opacity:0;stroke:none" />
    </g>
    <g
       id="6"
       inkscape:label="#g2424"
       style="fill:#3771c8"
       transform="translate(137.74348,-587.07999)">
      <rect
         y="806.90881"
         x="213.91998"
         height="162.85713"
         width="88.571442"
         id="rect3266"
         style="opacity:0;fill:#3771c8;fill-opacity:1;stroke:none" />
      <path
         style="font-style:normal;font-weight:normal;font-size:144px;font-family:'Bitstream Vera Sans';fill:#eff0f1;fill-opacity:1;stroke:none"
         d="m 259.23163,882.52094 c -6.37504,5e-5 -11.43754,2.17974 -15.1875,6.53906 -3.70316,4.35942 -5.55472,10.33598 -5.55469,17.92969 -3e-5,7.5469 1.85153,13.52345 5.55469,17.92968 3.74996,4.35939 8.81246,6.53907 15.1875,6.53907 6.37494,0 11.414,-2.17968 15.11719,-6.53907 3.74993,-4.40623 5.62493,-10.38278 5.625,-17.92968 -7e-5,-7.59371 -1.87507,-13.57027 -5.625,-17.92969 -3.70319,-4.35932 -8.74225,-6.53901 -15.11719,-6.53906 m 28.19531,-44.50782 v 12.9375 c -3.56257,-1.68741 -7.17194,-2.97647 -10.82812,-3.86718 -3.60944,-0.89054 -7.19537,-1.33585 -10.75782,-1.33594 -9.37504,9e-5 -16.54691,3.16415 -21.51562,9.49219 -4.9219,6.3282 -7.7344,15.89069 -8.4375,28.6875 2.7656,-4.07807 6.23434,-7.19525 10.40625,-9.35157 4.17183,-2.20305 8.76558,-3.30462 13.78125,-3.30468 10.54681,6e-5 18.86712,3.211 24.96094,9.63281 6.14054,6.37505 9.21085,15.07035 9.21093,26.08594 -8e-5,10.78127 -3.18758,19.4297 -9.5625,25.94531 -6.37506,6.51562 -14.85943,9.77343 -25.45312,9.77344 -12.14066,-10e-6 -21.4219,-4.64063 -27.84375,-13.92188 -6.42189,-9.3281 -9.63282,-22.82809 -9.63281,-40.5 -1e-5,-16.59368 3.93748,-29.81242 11.8125,-39.65625 7.87497,-9.89052 18.44527,-14.83583 31.71093,-14.83594 3.56245,1.1e-4 7.14838,0.35167 10.75782,1.05469 3.65618,0.70323 7.45305,1.75792 11.39062,3.16406"
         id="text3268"
         inkscape:connector-curvature="0" />
      <rect
         y="806.50201"
         x="214.41998"
         height="162.85713"
         width="88.571442"
         id="rect3272"
         style="fill:#3771c8;fill-opacity:0;stroke:none" />
    </g>
    <g
       id="8"
       inkscape:label="#g2436"
       style="fill:#3771c8"
       transform="translate(-546.84471,-406.62114)">
      <rect
         y="831.2937"
         x="578.35193"
         height="162.85713"
         width="88.571442"
         id="rect3278"
         style="opacity:0;fill:#3771c8;fill-opacity:1" />
      <path
         style="font-style:normal;font-weight:normal;font-size:144px;font-family:'Bitstream Vera Sans';fill:#eff0f1;fill-opacity:1;stroke:none"
         d="m 621.90576,915.2027 c -6.75004,5e-5 -12.07034,1.80473 -15.96094,5.41406 -3.84377,3.60942 -5.76564,8.57816 -5.76562,14.90625 -2e-5,6.32815 1.92185,11.29689 5.76562,14.90625 3.8906,3.60939 9.2109,5.41407 15.96094,5.41406 6.74995,1e-5 12.07026,-1.80467 15.96094,-5.41406 3.89056,-3.65623 5.83587,-8.62498 5.83594,-14.90625 -7e-5,-6.32809 -1.94538,-11.29683 -5.83594,-14.90625 -3.84381,-3.60933 -9.16412,-5.41401 -15.96094,-5.41406 m -14.20312,-6.04688 c -6.09378,-1.49994 -10.85159,-4.33587 -14.27344,-8.50781 -3.37501,-4.17181 -5.06251,-9.25774 -5.0625,-15.25781 -1e-5,-8.39054 2.97655,-15.02335 8.92969,-19.89844 5.99997,-4.8749 14.20309,-7.31239 24.60937,-7.3125 10.45307,1.1e-4 18.65619,2.4376 24.60938,7.3125 5.95305,4.87509 8.9296,11.5079 8.92968,19.89844 -8e-5,6.00007 -1.71101,11.086 -5.13281,15.25781 -3.37507,4.17194 -8.086,7.00787 -14.13281,8.50781 6.84368,1.59381 12.16399,4.71099 15.96094,9.35157 3.84367,4.64066 5.76554,10.31253 5.76562,17.01562 -8e-5,10.17189 -3.11726,17.97657 -9.35156,23.41406 -6.18757,5.4375 -15.07037,8.15625 -26.64844,8.15625 -11.57816,0 -20.4844,-2.71875 -26.71875,-8.15625 -6.18751,-5.43749 -9.28126,-13.24217 -9.28125,-23.41406 -10e-6,-6.70309 1.92187,-12.37496 5.76563,-17.01562 3.84373,-4.64058 9.18747,-7.75776 16.03125,-9.35157 m -5.20313,-22.42968 c -2e-5,5.43757 1.68747,9.67975 5.0625,12.72656 3.42184,3.04694 8.20309,4.57037 14.34375,4.57031 6.0937,6e-5 10.85151,-1.52337 14.27344,-4.57031 3.46869,-3.04681 5.20306,-7.28899 5.20312,-12.72656 -6e-5,-5.43742 -1.73443,-9.6796 -5.20312,-12.72657 -3.42193,-3.04678 -8.17974,-4.57021 -14.27344,-4.57031 -6.14066,10e-5 -10.92191,1.52353 -14.34375,4.57031 -3.37503,3.04697 -5.06252,7.28915 -5.0625,12.72657"
         id="text3280"
         inkscape:connector-curvature="0" />
      <rect
         y="830.8869"
         x="578.85193"
         height="162.85713"
         width="88.571442"
         id="rect3284"
         style="fill:#3771c8;fill-opacity:0;stroke:none" />
    </g>
    <g
       id="9"
       inkscape:label="#g2442"
       style="fill:#3771c8"
       transform="translate(-26.108279,-598.55125)">
      <rect
         y="1023.2238"
         x="206.67799"
         height="162.85713"
         width="88.571442"
         id="rect3302"
         style="opacity:0;fill:#3771c8;fill-opacity:1" />
      <path
         style="font-style:normal;font-weight:normal;font-size:144px;font-family:'Bitstream Vera Sans';fill:#eff0f1;fill-opacity:1;stroke:none"
         d="m 220.27869,1154.8047 v -12.9375 c 3.56248,1.6875 7.17185,2.9766 10.82812,3.8672 3.65622,0.8906 7.24216,1.3359 10.75781,1.3359 9.37496,0 16.52339,-3.1406 21.44532,-9.4219 4.96868,-6.3281 7.80462,-15.914 8.50781,-28.7578 -2.71882,4.0313 -6.16412,7.1251 -10.33594,9.2813 -4.17193,2.1563 -8.78911,3.2344 -13.85156,3.2343 -10.50003,1e-4 -18.82034,-3.164 -24.96094,-9.4921 -6.09376,-6.375 -9.14063,-15.0703 -9.14062,-26.086 -1e-5,-10.7811 3.18748,-19.4296 9.5625,-25.9453 6.37497,-6.5155 14.85934,-9.7733 25.45312,-9.7734 12.14057,10e-5 21.39837,4.6641 27.77344,13.9922 6.4218,9.2813 9.63273,22.7813 9.63281,40.5 -8e-5,16.5469 -3.93758,29.7656 -11.8125,39.6562 -7.82819,9.8438 -18.37505,14.7656 -31.64062,14.7656 -3.56254,0 -7.17191,-0.3515 -10.82813,-1.0546 -3.65627,-0.7032 -7.45314,-1.7579 -11.39062,-3.1641 m 28.26562,-44.5078 c 6.37495,0 11.41401,-2.1797 15.11719,-6.5391 3.74994,-4.3593 5.62493,-10.3359 5.625,-17.9297 -7e-5,-7.5468 -1.87506,-13.4999 -5.625,-17.8593 -3.70318,-4.4062 -8.74224,-6.6093 -15.11719,-6.6094 -6.37504,10e-5 -11.43753,2.2032 -15.1875,6.6094 -3.70315,4.3594 -5.55471,10.3125 -5.55469,17.8593 -2e-5,7.5938 1.85154,13.5704 5.55469,17.9297 3.74997,4.3594 8.81246,6.5391 15.1875,6.5391"
         id="text3304"
         inkscape:connector-curvature="0" />
      <rect
         y="1022.817"
         x="207.17799"
         height="162.85713"
         width="88.571442"
         id="rect3308"
         style="fill:#3771c8;fill-opacity:0;stroke:none" />
    </g>
    <g
       id="7"
       inkscape:label="#g2430"
       style="fill:#3771c8"
       transform="translate(108.2349,-591.51164)">
      <rect
         y="811.34045"
         x="400.92856"
         height="162.85713"
         width="88.571442"
         id="rect2358"
         style="opacity:0;fill:#3771c8;fill-opacity:1" />
      <path
         style="font-style:normal;font-weight:normal;font-size:144px;font-family:'Bitstream Vera Sans';fill:#eff0f1;fill-opacity:1;stroke:none"
         d="m 410.52145,840.12445 h 67.5 v 6.04688 l -38.10937,98.92968 h -14.83594 l 35.85938,-93.02343 h -50.41407 v -11.95313"
         id="text2360"
         inkscape:connector-curvature="0" />
      <rect
         y="810.93365"
         x="401.42856"
         height="162.85713"
         width="88.571442"
         id="rect2364"
         style="fill:#3771c8;fill-opacity:0;stroke:none" />
    </g>
    <g
       id="separator"
       inkscape:label="#g3536"
       transform="translate(330.35651,99.985707)">
      <rect
         y="324.28006"
         x="200"
         height="163.08212"
         width="45"
         id="rect2559"
         style="fill:none;stroke:none" />
      <path
         style="font-style:normal;font-weight:normal;font-size:144px;font-family:'Bitstream Vera Sans';fill:#eff0f1;fill-opacity:1;stroke:none"
         d="m 215.89905,424.22943 h 14.83594 v 17.85938 h -14.83594 v -17.85938 m 0,-56.60156 h 14.83594 v 17.85937 h -14.83594 v -17.85937"
         id="text2242"
         inkscape:connector-curvature="0" />
    </g>
    <g
       id="0_1"
       inkscape:label="#g2388"
       transform="translate(-161.83099,-898.68539)"
       style="fill:#ff0066">
      <rect
         y="324.92047"
         x="200"
         height="162.85713"
         width="88.571442"
         id="rect2386"
         style="opacity:0;fill:#ff0066;fill-opacity:1" />
      <path
         style="font-style:normal;font-weight:normal;font-size:144px;font-family:'Bitstream Vera Sans';fill:#d35f5f;fill-opacity:1;stroke:none"
         d="m 243.55382,363.056 c -7.31254,1e-4 -12.82035,3.60947 -16.52344,10.82812 -3.65628,7.17196 -5.4844,17.97663 -5.48437,32.41407 -3e-5,14.39066 1.82809,25.19534 5.48437,32.41406 3.70309,7.17189 9.2109,10.75782 16.52344,10.75781 7.35932,1e-5 12.86713,-3.58592 16.52344,-10.75781 3.70305,-7.21872 5.55461,-18.0234 5.55468,-32.41406 -7e-5,-14.43744 -1.85163,-25.24211 -5.55468,-32.41407 -3.65631,-7.21865 -9.16412,-10.82802 -16.52344,-10.82812 m 0,-11.25 c 11.76557,1.1e-4 20.74212,4.66416 26.92969,13.99219 6.23429,9.28133 9.35148,22.78132 9.35156,40.5 -8e-5,17.67191 -3.11727,31.17189 -9.35156,40.5 -6.18757,9.28125 -15.16412,13.92187 -26.92969,13.92187 -11.76566,0 -20.76565,-4.64062 -27,-13.92187 -6.18751,-9.32811 -9.28126,-22.82809 -9.28125,-40.5 -1e-5,-17.71868 3.09374,-31.21867 9.28125,-40.5 6.23435,-9.32803 15.23434,-13.99208 27,-13.99219"
         id="text2388"
         inkscape:connector-curvature="0" />
      <rect
         y="324.51367"
         x="200.5"
         height="162.85713"
         width="88.571442"
         id="rect2392"
         style="fill:#ff0066;fill-opacity:0;stroke:none" />
    </g>
    <g
       id="1_1"
       inkscape:label="#g2394"
       transform="translate(-194.24997,-900.53351)"
       style="fill:#ff0066">
      <rect
         y="326.76859"
         x="380.54398"
         height="162.85713"
         width="88.571442"
         id="rect2396"
         style="opacity:0;fill:#ff0066;fill-opacity:1" />
      <path
         style="font-style:normal;font-weight:normal;font-size:144px;font-family:'Bitstream Vera Sans';fill:#d35f5f;fill-opacity:1;stroke:none"
         d="m 396.18375,448.57602 h 23.20312 v -80.08594 l -25.24219,5.0625 v -12.9375 l 25.10157,-5.0625 h 14.20312 v 93.02344 h 23.20313 v 11.95312 h -60.46875 v -11.95312"
         id="text2398"
         inkscape:connector-curvature="0" />
      <rect
         y="326.36179"
         x="381.04398"
         height="162.85713"
         width="88.571442"
         id="rect2402"
         style="fill:#ff0066;fill-opacity:0;stroke:none" />
    </g>
    <g
       id="2_1"
       inkscape:label="#g2400"
       transform="translate(-194.63385,-898.34106)"
       style="fill:#ff0066">
      <rect
         y="324.57614"
         x="551.55286"
         height="162.85713"
         width="88.571442"
         id="rect2406"
         style="opacity:0;fill:#ff0066;fill-opacity:1" />
      <path
         style="font-style:normal;font-weight:normal;font-size:144px;font-family:'Bitstream Vera Sans';fill:#d35f5f;fill-opacity:1;stroke:none"
         d="m 576.96606,446.38358 h 49.57032 v 11.95312 h -66.65625 v -11.95312 c 5.39061,-5.57811 12.72654,-13.05467 22.00781,-22.42969 9.32808,-9.42183 15.18745,-15.49214 17.57812,-18.21094 4.54682,-5.10932 7.71088,-9.42181 9.49219,-12.9375 1.82807,-3.56243 2.74213,-7.05461 2.74219,-10.47656 -6e-5,-5.57805 -1.96881,-10.12492 -5.90625,-13.64063 -3.89068,-3.51553 -8.97661,-5.27334 -15.25781,-5.27343 -4.45316,9e-5 -9.1641,0.77353 -14.13282,2.32031 -4.92189,1.54696 -10.19532,3.89071 -15.82031,7.03125 v -14.34375 c 5.71873,-2.29677 11.06248,-4.03115 16.03125,-5.20313 4.96872,-1.17177 9.51559,-1.7577 13.64063,-1.75781 10.87495,1.1e-4 19.54681,2.71885 26.01562,8.15625 6.46868,5.43759 9.70305,12.70321 9.70313,21.79688 -8e-5,4.31257 -0.82039,8.41413 -2.46094,12.30468 -1.59382,3.84381 -4.52351,8.39068 -8.78906,13.64063 -1.17194,1.35942 -4.8985,5.29692 -11.17969,11.8125 -6.2813,6.46878 -15.14066,15.53908 -26.57813,27.21094"
         id="text2408"
         inkscape:connector-curvature="0" />
      <rect
         y="324.16934"
         x="552.05286"
         height="162.85713"
         width="88.571442"
         id="rect2412"
         style="fill:#ff0066;fill-opacity:0;stroke:none" />
    </g>
    <g
       id="3_1"
       inkscape:label="#g2406"
       transform="translate(310.20619,-1130.7377)"
       style="fill:#ff0066">
      <rect
         y="556.97278"
         x="205.15031"
         height="162.85713"
         width="88.571442"
         id="rect2416"
         style="opacity:0;fill:#ff0066;fill-opacity:1" />
      <path
         style="font-style:normal;font-weight:normal;font-size:144px;font-family:'Bitstream Vera Sans';fill:#d35f5f;fill-opacity:1;stroke:none"
         d="m 261.36034,634.13177 c 6.79681,1.45319 12.09368,4.47662 15.89062,9.07032 3.84367,4.59379 5.76555,10.26566 5.76563,17.01562 -8e-5,10.3594 -3.56258,18.37501 -10.6875,24.04688 -7.12507,5.67187 -17.25006,8.50781 -30.375,8.50781 -4.40629,0 -8.95316,-0.44531 -13.64063,-1.33594 -4.64064,-0.84375 -9.44533,-2.13281 -14.41406,-3.86719 v -13.71093 c 3.93748,2.29689 8.24998,4.03126 12.9375,5.20312 4.68747,1.17189 9.5859,1.75782 14.69531,1.75781 8.9062,1e-5 15.67963,-1.7578 20.32031,-5.27343 4.68744,-3.51561 7.03119,-8.62498 7.03125,-15.32813 -6e-5,-6.18746 -2.17975,-11.01558 -6.53906,-14.48437 -4.31255,-3.51558 -10.33599,-5.27339 -18.07031,-5.27344 h -12.23438 v -11.67188 h 12.79688 c 6.98432,7e-5 12.32807,-1.38274 16.03125,-4.14843 3.70306,-2.81243 5.55462,-6.84368 5.55469,-12.09375 -7e-5,-5.39054 -1.92194,-9.51554 -5.76563,-12.375 -3.79693,-2.90616 -9.25786,-4.35928 -16.38281,-4.35938 -3.89066,10e-5 -8.06253,0.42197 -12.51563,1.26563 -4.45315,0.84384 -9.35158,2.15634 -14.69531,3.9375 v -12.65625 c 5.39061,-1.4999 10.42966,-2.6249 15.11719,-3.375 4.73434,-0.7499 9.18746,-1.1249 13.35937,-1.125 10.7812,10e-5 19.31244,2.46104 25.59375,7.38281 6.28118,4.87509 9.4218,11.48446 9.42188,19.82812 -8e-5,5.81258 -1.66414,10.73445 -4.99219,14.76563 -3.32819,3.98444 -8.06256,6.75006 -14.20312,8.29687"
         id="text2418"
         inkscape:connector-curvature="0" />
      <rect
         y="556.56598"
         x="205.65031"
         height="162.85713"
         width="88.571442"
         id="rect2422"
         style="fill:#ff0066;fill-opacity:0;stroke:none" />
    </g>
    <g
       id="4_1"
       inkscape:label="#g2412"
       transform="translate(-346.75982,-952.93014)"
       style="fill:#ff0066">
      <rect
         y="559.16522"
         x="384.92883"
         height="162.85713"
         width="88.571442"
         id="rect2426"
         style="opacity:0;fill:#ff0066;fill-opacity:1" />
      <path
         style="font-style:normal;font-weight:normal;font-size:144px;font-family:'Bitstream Vera Sans';fill:#d35f5f;fill-opacity:1;stroke:none"
         d="m 437.1311,600.32416 -35.85937,56.03906 h 35.85937 v -56.03906 m -3.72656,-12.375 h 17.85938 v 68.41406 h 14.97656 v 11.8125 h -14.97656 v 24.75 H 437.1311 v -24.75 h -47.39062 v -13.71094 l 43.66406,-66.51562"
         id="text2428"
         inkscape:connector-curvature="0" />
      <rect
         y="558.75842"
         x="385.42883"
         height="162.85713"
         width="88.571442"
         id="rect2432"
         style="fill:#ff0066;fill-opacity:0;stroke:none" />
    </g>
    <g
       id="5_1"
       inkscape:label="#g2418"
       transform="translate(-376.22095,-970.46957)"
       style="fill:#ff0066">
      <rect
         y="576.70465"
         x="562.51495"
         height="162.85713"
         width="88.571442"
         id="rect2436"
         style="opacity:0;fill:#ff0066;fill-opacity:1;stroke:none" />
      <path
         style="font-style:normal;font-weight:normal;font-size:144px;font-family:'Bitstream Vera Sans';fill:#d35f5f;fill-opacity:1;stroke:none"
         d="m 575.83441,605.48859 h 55.75781 v 11.95312 h -42.75 v 25.73438 c 2.06247,-0.70306 4.12497,-1.21869 6.1875,-1.54688 2.06247,-0.37493 4.12497,-0.56243 6.1875,-0.5625 11.7187,7e-5 20.99994,3.21101 27.84375,9.63281 6.84368,6.42193 10.26555,15.11724 10.26563,26.08594 -8e-5,11.2969 -3.5157,20.08595 -10.54688,26.36719 -7.03131,6.23438 -16.94536,9.35156 -29.74218,9.35156 -4.40629,0 -8.90628,-0.375 -13.5,-1.125 -4.5469,-0.75 -9.25783,-1.875 -14.13282,-3.375 v -14.27344 c 4.21874,2.29689 8.57811,4.00783 13.07813,5.13282 4.49997,1.12501 9.25778,1.68751 14.27344,1.6875 8.10933,10e-6 14.53119,-2.1328 19.26562,-6.39844 4.73431,-4.26561 7.1015,-10.05466 7.10156,-17.36719 -6e-5,-7.31246 -2.36725,-13.10151 -7.10156,-17.36719 -4.73443,-4.26557 -11.15629,-6.39838 -19.26562,-6.39843 -3.79691,5e-5 -7.59378,0.42193 -11.39063,1.26562 -3.75002,0.84381 -7.59377,2.15631 -11.53125,3.9375 v -52.73437"
         id="text2438"
         inkscape:connector-curvature="0" />
      <rect
         y="576.29785"
         x="563.01495"
         height="162.85713"
         width="88.571442"
         id="rect2442"
         style="fill:#ff0066;fill-opacity:0;stroke:none" />
    </g>
    <g
       id="6_1"
       inkscape:label="#g2424"
       transform="translate(142.99902,-1200.6737)"
       style="fill:#ff0066">
      <rect
         y="806.90881"
         x="213.91998"
         height="162.85713"
         width="88.571442"
         id="rect2446"
         style="opacity:0;fill:#ff0066;fill-opacity:1" />
      <path
         style="font-style:normal;font-weight:normal;font-size:144px;font-family:'Bitstream Vera Sans';fill:#d35f5f;fill-opacity:1;stroke:none"
         d="m 259.23163,882.52094 c -6.37504,5e-5 -11.43754,2.17974 -15.1875,6.53906 -3.70316,4.35942 -5.55472,10.33598 -5.55469,17.92969 -3e-5,7.5469 1.85153,13.52345 5.55469,17.92968 3.74996,4.35939 8.81246,6.53907 15.1875,6.53907 6.37494,0 11.414,-2.17968 15.11719,-6.53907 3.74993,-4.40623 5.62493,-10.38278 5.625,-17.92968 -7e-5,-7.59371 -1.87507,-13.57027 -5.625,-17.92969 -3.70319,-4.35932 -8.74225,-6.53901 -15.11719,-6.53906 m 28.19531,-44.50782 v 12.9375 c -3.56257,-1.68741 -7.17194,-2.97647 -10.82812,-3.86718 -3.60944,-0.89054 -7.19537,-1.33585 -10.75782,-1.33594 -9.37504,9e-5 -16.54691,3.16415 -21.51562,9.49219 -4.9219,6.3282 -7.7344,15.89069 -8.4375,28.6875 2.7656,-4.07807 6.23434,-7.19525 10.40625,-9.35157 4.17183,-2.20305 8.76558,-3.30462 13.78125,-3.30468 10.54681,6e-5 18.86712,3.211 24.96094,9.63281 6.14054,6.37505 9.21085,15.07035 9.21093,26.08594 -8e-5,10.78127 -3.18758,19.4297 -9.5625,25.94531 -6.37506,6.51562 -14.85943,9.77343 -25.45312,9.77344 -12.14066,-10e-6 -21.4219,-4.64063 -27.84375,-13.92188 -6.42189,-9.3281 -9.63282,-22.82809 -9.63281,-40.5 -1e-5,-16.59368 3.93748,-29.81242 11.8125,-39.65625 7.87497,-9.89052 18.44527,-14.83583 31.71093,-14.83594 3.56245,1.1e-4 7.14838,0.35167 10.75782,1.05469 3.65618,0.70323 7.45305,1.75792 11.39062,3.16406"
         id="text2448"
         inkscape:connector-curvature="0" />
      <rect
         y="806.50201"
         x="214.41998"
         height="162.85713"
         width="88.571442"
         id="rect2452"
         style="fill:#ff0066;fill-opacity:0;stroke:none" />
    </g>
    <g
       id="8_1"
       inkscape:label="#g2436"
       transform="translate(-540.18292,-1020.2149)"
       style="fill:#ff0066">
      <rect
         y="831.2937"
         x="578.35193"
         height="162.85713"
         width="88.571442"
         id="rect2456"
         style="opacity:0;fill:#ff0066;fill-opacity:1" />
      <path
         style="font-style:normal;font-weight:normal;font-size:144px;font-family:'Bitstream Vera Sans';fill:#d35f5f;fill-opacity:1;stroke:none"
         d="m 621.90576,915.2027 c -6.75004,5e-5 -12.07034,1.80473 -15.96094,5.41406 -3.84377,3.60942 -5.76564,8.57816 -5.76562,14.90625 -2e-5,6.32815 1.92185,11.29689 5.76562,14.90625 3.8906,3.60939 9.2109,5.41407 15.96094,5.41406 6.74995,1e-5 12.07026,-1.80467 15.96094,-5.41406 3.89056,-3.65623 5.83587,-8.62498 5.83594,-14.90625 -7e-5,-6.32809 -1.94538,-11.29683 -5.83594,-14.90625 -3.84381,-3.60933 -9.16412,-5.41401 -15.96094,-5.41406 m -14.20312,-6.04688 c -6.09378,-1.49994 -10.85159,-4.33587 -14.27344,-8.50781 -3.37501,-4.17181 -5.06251,-9.25774 -5.0625,-15.25781 -1e-5,-8.39054 2.97655,-15.02335 8.92969,-19.89844 5.99997,-4.8749 14.20309,-7.31239 24.60937,-7.3125 10.45307,1.1e-4 18.65619,2.4376 24.60938,7.3125 5.95305,4.87509 8.9296,11.5079 8.92968,19.89844 -8e-5,6.00007 -1.71101,11.086 -5.13281,15.25781 -3.37507,4.17194 -8.086,7.00787 -14.13281,8.50781 6.84368,1.59381 12.16399,4.71099 15.96094,9.35157 3.84367,4.64066 5.76554,10.31253 5.76562,17.01562 -8e-5,10.17189 -3.11726,17.97657 -9.35156,23.41406 -6.18757,5.4375 -15.07037,8.15625 -26.64844,8.15625 -11.57816,0 -20.4844,-2.71875 -26.71875,-8.15625 -6.18751,-5.43749 -9.28126,-13.24217 -9.28125,-23.41406 -10e-6,-6.70309 1.92187,-12.37496 5.76563,-17.01562 3.84373,-4.64058 9.18747,-7.75776 16.03125,-9.35157 m -5.20313,-22.42968 c -2e-5,5.43757 1.68747,9.67975 5.0625,12.72656 3.42184,3.04694 8.20309,4.57037 14.34375,4.57031 6.0937,6e-5 10.85151,-1.52337 14.27344,-4.57031 3.46869,-3.04681 5.20306,-7.28899 5.20312,-12.72656 -6e-5,-5.43742 -1.73443,-9.6796 -5.20312,-12.72657 -3.42193,-3.04678 -8.17974,-4.57021 -14.27344,-4.57031 -6.14066,10e-5 -10.92191,1.52353 -14.34375,4.57031 -3.37503,3.04697 -5.06252,7.28915 -5.0625,12.72657"
         id="text2458"
         inkscape:connector-curvature="0" />
      <rect
         y="830.8869"
         x="578.85193"
         height="162.85713"
         width="88.571442"
         id="rect2462"
         style="fill:#ff0066;fill-opacity:0;stroke:none" />
    </g>
    <g
       id="9_1"
       inkscape:label="#g2442"
       transform="translate(-20.383985,-1212.145)"
       style="fill:#ff0066">
      <rect
         y="1023.2238"
         x="206.67799"
         height="162.85713"
         width="88.571442"
         id="rect2466"
         style="opacity:0;fill:#ff0066;fill-opacity:1;stroke:none" />
      <path
         style="font-style:normal;font-weight:normal;font-size:144px;font-family:'Bitstream Vera Sans';fill:#d35f5f;fill-opacity:1"
         d="m 220.27869,1154.8047 v -12.9375 c 3.56248,1.6875 7.17185,2.9766 10.82812,3.8672 3.65622,0.8906 7.24216,1.3359 10.75781,1.3359 9.37496,0 16.52339,-3.1406 21.44532,-9.4219 4.96868,-6.3281 7.80462,-15.914 8.50781,-28.7578 -2.71882,4.0313 -6.16412,7.1251 -10.33594,9.2813 -4.17193,2.1563 -8.78911,3.2344 -13.85156,3.2343 -10.50003,1e-4 -18.82034,-3.164 -24.96094,-9.4921 -6.09376,-6.375 -9.14063,-15.0703 -9.14062,-26.086 -1e-5,-10.7811 3.18748,-19.4296 9.5625,-25.9453 6.37497,-6.5155 14.85934,-9.7733 25.45312,-9.7734 12.14057,10e-5 21.39837,4.6641 27.77344,13.9922 6.4218,9.2813 9.63273,22.7813 9.63281,40.5 -8e-5,16.5469 -3.93758,29.7656 -11.8125,39.6562 -7.82819,9.8438 -18.37505,14.7656 -31.64062,14.7656 -3.56254,0 -7.17191,-0.3515 -10.82813,-1.0546 -3.65627,-0.7032 -7.45314,-1.7579 -11.39062,-3.1641 m 28.26562,-44.5078 c 6.37495,0 11.41401,-2.1797 15.11719,-6.5391 3.74994,-4.3593 5.62493,-10.3359 5.625,-17.9297 -7e-5,-7.5468 -1.87506,-13.4999 -5.625,-17.8593 -3.70318,-4.4062 -8.74224,-6.6093 -15.11719,-6.6094 -6.37504,10e-5 -11.43753,2.2032 -15.1875,6.6094 -3.70315,4.3594 -5.55471,10.3125 -5.55469,17.8593 -2e-5,7.5938 1.85154,13.5704 5.55469,17.9297 3.74997,4.3594 8.81246,6.5391 15.1875,6.5391"
         id="text2468"
         inkscape:connector-curvature="0" />
      <rect
         y="1022.817"
         x="207.17799"
         height="162.85713"
         width="88.571442"
         id="rect2472"
         style="fill:#ff0066;fill-opacity:0;stroke:none" />
    </g>
    <g
       id="7_1"
       inkscape:label="#g2430"
       transform="translate(114.42795,-1205.1054)"
       style="fill:#ff0066">
      <rect
         y="811.34045"
         x="400.92856"
         height="162.85713"
         width="88.571442"
         id="rect2476"
         style="opacity:0;fill:#ff0066;fill-opacity:1" />
      <path
         style="font-style:normal;font-weight:normal;font-size:144px;font-family:'Bitstream Vera Sans';fill:#d35f5f;fill-opacity:1;stroke:none"
         d="m 410.52145,840.12445 h 67.5 v 6.04688 l -38.10937,98.92968 h -14.83594 l 35.85938,-93.02343 h -50.41407 v -11.95313"
         id="text2478"
         inkscape:connector-curvature="0" />
      <rect
         y="810.93365"
         x="401.42856"
         height="162.85713"
         width="88.571442"
         id="rect2482"
         style="fill:#ff0066;fill-opacity:0;stroke:none" />
    </g>
    <g
       id="separator_1"
       inkscape:label="#g3536"
       transform="translate(330.35651,-513.60803)">
      <rect
         y="324.28006"
         x="200"
         height="163.08212"
         width="45"
         id="rect2320"
         style="fill:none;stroke:none" />
      <text
         id="text2322"
         y="442.08881"
         x="199.02405"
         style="font-style:normal;font-weight:normal;line-height:0%;font-family:'Bitstream Vera Sans';fill:#d35f5f;fill-opacity:1;stroke:none"
         xml:space="preserve"><tspan
           id="tspan2324"
           y="442.08881"
           x="199.02405"
           sodipodi:role="line"
           style="font-size:144px;line-height:1.25;fill:#d35f5f;fill-opacity:1">:</tspan></text>
    </g>
    <g
       id="separatorB_1"
       inkscape:label="#g3536"
       transform="translate(183.16901,-513.60803)">
      <rect
         y="324.28006"
         x="200"
         height="163.08212"
         width="45"
         id="rect2561"
         style="fill:none;stroke:none" />
      <path
         style="font-style:normal;font-weight:normal;font-size:144px;font-family:'Bitstream Vera Sans';fill:#d35f5f;fill-opacity:1;stroke:none"
         d="m 214.42249,424.22943 h 14.83593 v 17.85938 h -14.83593 v -17.85938"
         id="text2563"
         inkscape:connector-curvature="0" />
    </g>
    <g
       id="separatorB"
       inkscape:label="#g3536"
       transform="translate(183.16901,99.985707)">
      <path
         style="font-style:normal;font-weight:normal;font-size:144px;font-family:'Bitstream Vera Sans';fill:#eff0f1;fill-opacity:1;stroke:none"
         d="m 214.42249,424.22943 h 14.83593 v 17.85938 h -14.83593 v -17.85938"
         id="text2571"
         inkscape:connector-curvature="0" />
      <rect
         y="324.28006"
         x="200"
         height="163.08212"
         width="45"
         id="rect2569"
         style="fill:none;stroke:none" />
    </g>
    <g
       id="separatorC"
       inkscape:label="#g3536"
       transform="translate(-193.99853,354.94902)">
      <rect
         y="324.28006"
         x="200"
         height="163.08212"
         width="45"
         id="rect2577"
         style="fill:none;stroke:none" />
      <text
         id="text2579"
         y="442.08881"
         x="199.02405"
         style="font-style:normal;font-weight:normal;line-height:0%;font-family:'Bitstream Vera Sans';fill:#ebebeb;fill-opacity:1;stroke:none"
         xml:space="preserve"><tspan
           id="tspan2581"
           y="442.08881"
           x="199.02405"
           sodipodi:role="line"
           style="font-size:144px;line-height:1.25"> </tspan></text>
    </g>
    <g
       id="separatorC_1"
       inkscape:label="#g3536"
       transform="translate(-134.80314,350.56418)">
      <rect
         y="324.28006"
         x="200"
         height="163.08212"
         width="45"
         id="rect2585"
         style="fill:none;stroke:none" />
      <text
         id="text2587"
         y="442.08881"
         x="199.02405"
         style="font-style:normal;font-weight:normal;line-height:0%;font-family:'Bitstream Vera Sans';fill:#eb0000;fill-opacity:1;stroke:none"
         xml:space="preserve"><tspan
           id="tspan2589"
           y="442.08881"
           x="199.02405"
           sodipodi:role="line"
           style="font-size:144px;line-height:1.25"> </tspan></text>
    </g>
    <path
       inkscape:connector-curvature="0"
       id="path3110"
       style="font-style:normal;font-variant:normal;font-weight:300;font-stretch:normal;font-size:144px;line-height:125%;font-family:'Open Sans';-inkscape-font-specification:'Open Sans Light';text-align:start;letter-spacing:0px;word-spacing:0px;writing-mode:lr-tb;text-anchor:start;fill:#000000;fill-opacity:1;stroke:none"
       d="m -257.55181,994.20424 c 0,18.04686 -2.7657,31.40616 -8.2968,40.07806 -5.4845,8.6719 -13.8048,13.0078 -24.961,13.0078 -10.7344,0 -18.8906,-4.4531 -24.4687,-13.3594 -5.5782,-8.9531 -8.3672,-22.1952 -8.3672,-39.72646 0,-17.9062 2.6953,-31.1719 8.0859,-39.797 5.4375,-8.62486 13.6875,-12.93736 24.75,-12.93746 10.8281,10e-5 19.0781,4.47666 24.75,13.42966 5.6718,8.9064 8.5078,22.008 8.5078,39.3048 m -58.5,0 c 0,15.93746 2.0859,27.72656 6.2578,35.36716 4.1719,7.5937 10.5,11.3906 18.9844,11.3906 8.8593,0 15.3046,-3.9375 19.336,-11.8125 4.078,-7.875 6.1171,-19.5234 6.1171,-34.94526 0,-15.1875 -2.0391,-26.7188 -6.1171,-34.5938 -4.0314,-7.87494 -10.4767,-11.81244 -19.336,-11.81254 -8.8594,10e-5 -15.2813,3.9376 -19.2656,11.81254 -3.9844,7.875 -5.9766,19.4063 -5.9766,34.5938" />
    <path
       inkscape:connector-curvature="0"
       id="path3112"
       style="font-style:normal;font-variant:normal;font-weight:300;font-stretch:normal;font-size:144px;line-height:125%;font-family:'Open Sans';-inkscape-font-specification:'Open Sans Light';text-align:start;letter-spacing:0px;word-spacing:0px;writing-mode:lr-tb;text-anchor:start;fill:#000000;fill-opacity:1;stroke:none"
       d="m -164.24709,1045.8839 h -6.89063 v -74.88286 c -4e-5,-6.7968 0.28121,-13.8515 0.84375,-21.16408 -0.70317,0.70322 -1.42973,1.38291 -2.17969,2.03907 -0.75004,0.65634 -7.99222,6.35161 -21.72656,17.08591 l -4.00781,-4.9922 27.91406,-20.88278 h 6.04688 v 102.79694" />
    <path
       inkscape:connector-curvature="0"
       id="path3114"
       style="font-style:normal;font-variant:normal;font-weight:300;font-stretch:normal;font-size:144px;line-height:125%;font-family:'Open Sans';-inkscape-font-specification:'Open Sans Light';text-align:start;letter-spacing:0px;word-spacing:0px;writing-mode:lr-tb;text-anchor:start;fill:#000000;fill-opacity:1;stroke:none"
       d="m -20.387723,1045.8839 h -64.33594 v -6.1875 l 27.35157,-28.5469 c 7.68745,-7.9687 13.07807,-14.06246 16.17187,-18.28126 3.0937,-4.2187 5.36713,-8.2499 6.82031,-12.0937 1.45307,-3.8437 2.17963,-7.875 2.17969,-12.0938 -6e-5,-6.1406 -2.01568,-11.1327 -6.04687,-14.9766 -4.0313,-3.84364 -9.25786,-5.76551 -15.67969,-5.76561 -8.57816,10e-5 -16.78127,3.11728 -24.60938,9.35161 l -3.79687,-4.85161 c 8.5781,-7.21865 18.09372,-10.82802 28.54687,-10.82813 8.95308,1.1e-4 15.98432,2.39073 21.09375,7.17188 5.15619,4.78136 7.73431,11.36726 7.73438,19.75786 -7e-5,6.7969 -1.73444,13.3829 -5.20313,19.7578 -3.42193,6.3282 -9.70317,14.15626 -18.84375,23.48436 l -26.36718,27.0703 v 0.2813 h 54.98437 v 6.75" />
    <path
       inkscape:connector-curvature="0"
       id="path3116"
       style="font-style:normal;font-variant:normal;font-weight:300;font-stretch:normal;font-size:144px;line-height:125%;font-family:'Open Sans';-inkscape-font-specification:'Open Sans Light';text-align:start;letter-spacing:0px;word-spacing:0px;writing-mode:lr-tb;text-anchor:start;fill:#000000;fill-opacity:1;stroke:none"
       d="m 95.698217,967.27444 c -7e-5,6.3751 -2.01569,11.7423 -6.04688,16.1016 -3.98443,4.3595 -9.35161,7.1485 -16.10156,8.3672 v 0.4219 c 8.24995,1.0313 14.53119,3.6563 18.84375,7.87496 4.31243,4.2188 6.46868,9.8907 6.46875,17.0156 -7e-5,9.6094 -3.28132,17.0625 -9.84375,22.3594 -6.51568,5.25 -15.91411,7.875 -28.19531,7.875 -10.45315,0 -19.57033,-1.9453 -27.35156,-5.8359 v -6.961 c 3.93749,2.0625 8.34373,3.6797 13.21875,4.8516 4.92185,1.1719 9.53903,1.7578 13.85156,1.7578 10.35933,0 18.14057,-2.0859 23.34375,-6.2578 5.20306,-4.2187 7.80462,-10.1484 7.80469,-17.7891 -7e-5,-6.7968 -2.67194,-12.0234 -8.01563,-15.6797 -5.29693,-3.65616 -13.10161,-5.48426 -23.41406,-5.48426 h -11.10938 v -6.75 h 11.25 c 8.53121,0 15.2812,-2.0156 20.25,-6.0469 5.01557,-4.0781 7.52338,-9.5859 7.52344,-16.5235 -6e-5,-5.7187 -2.03912,-10.289 -6.11719,-13.71094 -4.0313,-3.46865 -9.32817,-5.20302 -15.89062,-5.20312 -5.10941,10e-5 -9.77347,0.72666 -13.99219,2.17968 -4.21877,1.40635 -8.95314,3.84388 -14.20312,7.31248 l -3.44532,-4.71091 c 3.98437,-3.32803 8.78905,-5.95303 14.41407,-7.875 5.62497,-1.96865 11.32027,-2.95302 17.08593,-2.95313 9.4687,1.1e-4 16.7812,2.2501 21.9375,6.75 5.15619,4.45322 7.73431,10.75794 7.73438,18.91404" />
    <path
       inkscape:connector-curvature="0"
       id="path3118"
       style="font-style:normal;font-variant:normal;font-weight:300;font-stretch:normal;font-size:144px;line-height:125%;font-family:'Open Sans';-inkscape-font-specification:'Open Sans Light';text-align:start;letter-spacing:0px;word-spacing:0px;writing-mode:lr-tb;text-anchor:start;fill:#000000;fill-opacity:1;stroke:none"
       d="m 226.62009,1019.6573 h -17.71875 v 26.2266 h -6.60937 v -26.2266 h -52.875 v -4.7109 l 50.97656,-72.42194 h 8.50781 v 71.08594 h 17.71875 v 6.0469 m -24.32812,-6.0469 v -29.39056 c -6e-5,-14.1562 0.32807,-26.039 0.98437,-35.6485 h -0.5625 c -0.93755,1.73447 -3.82036,6.1407 -8.64843,13.2188 l -36.28125,51.82026 h 44.50781" />
    <path
       inkscape:connector-curvature="0"
       id="path3120"
       style="font-style:normal;font-variant:normal;font-weight:300;font-stretch:normal;font-size:144px;line-height:125%;font-family:'Open Sans';-inkscape-font-specification:'Open Sans Light';text-align:start;letter-spacing:0px;word-spacing:0px;writing-mode:lr-tb;text-anchor:start;fill:#000000;fill-opacity:1;stroke:none"
       d="m 303.68259,984.07924 c 10.9687,0 19.5937,2.6485 25.875,7.9453 6.32806,5.2969 9.49212,12.58596 9.49219,21.86716 -7e-5,10.5469 -3.28132,18.75 -9.84375,24.6093 -6.56256,5.8594 -15.60942,8.7891 -27.14062,8.7891 -5.10941,0 -9.96097,-0.4922 -14.55469,-1.4766 -4.59377,-1.0312 -8.43751,-2.4843 -11.53125,-4.3593 v -7.2422 c 5.06248,2.5781 9.56248,4.3828 13.5,5.414 3.93747,0.9844 8.13278,1.4766 12.58594,1.4766 8.99995,0 16.21869,-2.3672 21.65625,-7.1016 5.43743,-4.7812 8.15618,-11.2265 8.15625,-19.3359 -7e-5,-7.6406 -2.6485,-13.6406 -7.94532,-17.99996 -5.29692,-4.3593 -12.49223,-6.539 -21.58593,-6.5391 -6.09378,10e-5 -12.46878,0.9142 -19.125,2.7422 l -4.21875,-2.7422 4.07812,-47.03908 h 49.5 v 6.75 h -42.89062 l -3.16407,36.28128 c 7.31248,-1.3593 13.03122,-2.039 17.15625,-2.039" />
    <path
       inkscape:connector-curvature="0"
       id="path3122"
       style="font-style:normal;font-variant:normal;font-weight:300;font-stretch:normal;font-size:144px;line-height:125%;font-family:'Open Sans';-inkscape-font-specification:'Open Sans Light';text-align:start;letter-spacing:0px;word-spacing:0px;writing-mode:lr-tb;text-anchor:start;fill:#000000;fill-opacity:1;stroke:none"
       d="m 394.66697,1002.0792 c -10e-6,-13.35926 1.80467,-24.58586 5.41406,-33.67976 3.65623,-9.1405 8.81248,-15.91394 15.46875,-20.32029 6.70309,-4.40615 14.76558,-6.60927 24.1875,-6.60937 4.40619,10e-5 8.43744,0.53916 12.09375,1.61718 v 6.1875 c -3.42194,-1.26552 -7.54693,-1.89833 -12.375,-1.89843 -11.57817,10e-5 -20.6016,4.17197 -27.07031,12.51561 -6.4219,8.3438 -10.03127,20.4845 -10.82813,36.4219 h 0.91407 c 3.56248,-4.5936 7.6406,-8.0624 12.23437,-10.4062 4.59372,-2.3437 9.44527,-3.5156 14.55469,-3.5156 9.60932,0 17.10931,2.7422 22.5,8.2265 5.43743,5.4845 8.15617,13.05476 8.15625,22.71096 -8e-5,10.5 -2.85945,18.7969 -8.57813,24.8906 -5.67193,6.0469 -13.33599,9.0703 -22.99218,9.0703 -10.40629,0 -18.63284,-3.9609 -24.67969,-11.8828 -6.00001,-7.9687 -9.00001,-19.0781 -9,-33.3281 m 33.67969,39.0234 c 7.68745,0 13.664,-2.414 17.92968,-7.2422 4.26556,-4.8281 6.39837,-11.7187 6.39844,-20.6719 -7e-5,-7.8749 -2.10944,-14.01546 -6.32812,-18.42176 -4.21881,-4.4062 -9.96099,-6.6093 -17.22657,-6.6094 -4.78129,10e-5 -9.23441,1.0547 -13.35937,3.1641 -4.07815,2.1094 -7.33596,4.9219 -9.77344,8.4375 -2.43752,3.46876 -3.65627,7.03116 -3.65625,10.68746 -2e-5,5.2031 1.14842,10.2187 3.44531,15.0468 2.34373,4.7813 5.48435,8.5782 9.42188,11.3907 3.98434,2.8125 8.36715,4.2187 13.14844,4.2187" />
    <path
       inkscape:connector-curvature="0"
       id="path3124"
       style="font-style:normal;font-variant:normal;font-weight:300;font-stretch:normal;font-size:144px;line-height:125%;font-family:'Open Sans';-inkscape-font-specification:'Open Sans Light';text-align:start;letter-spacing:0px;word-spacing:0px;writing-mode:lr-tb;text-anchor:start;fill:#000000;fill-opacity:1;stroke:none"
       d="m 528.47167,1045.8839 42.3281,-96.04694 h -58.14843 v -6.75 h 66.51563 v 5.13282 l -42.4687,97.66412 h -8.2266" />
    <path
       inkscape:connector-curvature="0"
       id="path3126"
       style="font-style:normal;font-variant:normal;font-weight:300;font-stretch:normal;font-size:144px;line-height:125%;font-family:'Open Sans';-inkscape-font-specification:'Open Sans Light';text-align:start;letter-spacing:0px;word-spacing:0px;writing-mode:lr-tb;text-anchor:start;fill:#000000;fill-opacity:1;stroke:none"
       d="m 665.44037,941.32915 c 8.7187,1.1e-4 15.7265,2.22667 21.0235,6.67969 5.3437,4.45322 8.0155,10.4767 8.0156,18.0703 -10e-5,5.2501 -1.6641,9.8908 -4.9922,13.9219 -3.2813,4.0314 -8.625,7.7579 -16.0312,11.1797 8.9999,3.7032 15.328,7.7579 18.9843,12.16406 3.6562,4.4063 5.4843,9.75 5.4844,16.0312 -10e-5,8.4844 -2.9766,15.2579 -8.9297,20.3204 -5.9063,5.0625 -13.8516,7.5937 -23.8359,7.5937 -10.3594,0 -18.3047,-2.3672 -23.8359,-7.1016 -5.5313,-4.7343 -8.2969,-11.6249 -8.2969,-20.6718 0,-6.1406 1.9453,-11.5312 5.8359,-16.1719 3.8906,-4.64056 9.914,-8.60146 18.0703,-11.88276 -7.5469,-3.5625 -12.8672,-7.3125 -15.9609,-11.25 -3.0938,-3.9843 -4.6406,-8.7421 -4.6406,-14.2735 0,-4.9218 1.2421,-9.2343 3.7265,-12.93751 2.4844,-3.74991 5.9531,-6.63272 10.4063,-8.64844 4.4999,-2.01552 9.4921,-3.02333 14.9765,-3.02344 m -25.2421,79.24225 c -10e-5,6.4687 2.1796,11.4843 6.539,15.0468 4.4062,3.5625 10.5469,5.3438 18.4219,5.3438 7.6874,0 13.8749,-1.875 18.5625,-5.625 4.6874,-3.7969 7.0312,-8.9297 7.0312,-15.3985 0,-5.8124 -1.8516,-10.5234 -5.5546,-14.1328 -3.6564,-3.6562 -10.7345,-7.47646 -21.2344,-11.46086 -8.6251,3.3282 -14.7422,7.00786 -18.3516,11.03906 -3.6094,4.0312 -5.4141,9.0937 -5.414,15.1875 m 25.1015,-72.91412 c -6.6094,10e-5 -11.9297,1.64072 -15.9609,4.92187 -3.9844,3.23449 -5.9766,7.68759 -5.9766,13.35939 0,3.2813 0.7266,6.1876 2.1797,8.7188 1.5,2.4844 3.6328,4.7579 6.3984,6.8203 2.8125,2.0157 7.5,4.3829 14.0625,7.1016 7.6406,-2.9531 13.125,-6.2109 16.4532,-9.7735 3.328,-3.5624 4.9921,-7.8515 4.9922,-12.8672 -10e-5,-5.6249 -1.9923,-10.078 -5.9766,-13.35939 -3.9376,-3.28115 -9.3282,-4.92177 -16.1719,-4.92187" />
    <path
       inkscape:connector-curvature="0"
       id="path3128"
       style="font-style:normal;font-variant:normal;font-weight:300;font-stretch:normal;font-size:144px;line-height:125%;font-family:'Open Sans';-inkscape-font-specification:'Open Sans Light';text-align:start;letter-spacing:0px;word-spacing:0px;writing-mode:lr-tb;text-anchor:start;fill:#000000;fill-opacity:1;stroke:none"
       d="m 816.89357,986.68074 c -10e-5,13.50006 -1.7814,24.79686 -5.3438,33.89066 -3.5157,9.0937 -8.6719,15.8203 -15.4687,20.1796 -6.7501,4.3594 -14.9298,6.5391 -24.5391,6.5391 -4.875,0 -9.375,-0.6094 -13.5,-1.8281 v -6.0469 c 2.0156,0.6563 4.4297,1.1719 7.2422,1.5469 2.8593,0.3281 5.039,0.4922 6.5391,0.4922 11.578,0 20.6483,-4.1719 27.2109,-12.5157 6.5624,-8.3906 10.2187,-20.6015 10.9687,-36.63276 h -0.8437 c -3.4219,4.5001 -7.5001,7.96876 -12.2344,10.40626 -4.7344,2.3907 -9.6797,3.586 -14.8359,3.5859 -9.5157,10e-5 -16.9454,-2.6249 -22.2891,-7.87496 -5.2969,-5.2499 -7.9453,-12.703 -7.9453,-22.3594 0,-10.3124 2.9062,-18.6562 8.7188,-25.03126 5.8593,-6.3749 13.453,-9.5624 22.7812,-9.5625 6.75,10e-5 12.6562,1.78135 17.7188,5.34375 5.0624,3.51572 8.953,8.69541 11.6718,15.53911 2.7656,6.8438 4.1484,14.9532 4.1485,24.3281 m -33.5391,-39.02346 c -7.4063,10e-5 -13.3125,2.50791 -17.7187,7.52346 -4.4063,4.9688 -6.6094,11.7891 -6.6094,20.461 0,8.1563 2.039,14.3438 6.1172,18.5625 4.0781,4.2188 9.914,6.32806 17.5078,6.32806 4.7343,0 9.1406,-1.05456 13.2187,-3.16406 4.125,-2.1093 7.3828,-4.8983 9.7735,-8.3672 2.4374,-3.5155 3.6562,-7.078 3.6562,-10.6875 0,-5.4843 -1.1016,-10.6171 -3.3047,-15.3984 -2.1563,-4.7812 -5.2032,-8.5078 -9.1406,-11.17974 -3.8907,-2.71865 -8.3907,-4.07802 -13.5,-4.07812" />
    <path
       inkscape:connector-curvature="0"
       id="path3130"
       style="font-style:normal;font-variant:normal;font-weight:300;font-stretch:normal;font-size:144px;line-height:125%;font-family:'Open Sans';-inkscape-font-specification:'Open Sans Light';text-align:start;letter-spacing:0px;word-spacing:0px;writing-mode:lr-tb;text-anchor:start;fill:#000000;fill-opacity:1;stroke:none"
       d="m 874.97167,1040.3995 c 0,-4.5938 1.875,-6.8906 5.625,-6.8906 3.8437,0 5.7656,2.2968 5.7656,6.8906 0,4.5937 -1.9219,6.8906 -5.7656,6.8906 -3.75,0 -5.625,-2.2969 -5.625,-6.8906" />
    <path
       inkscape:connector-curvature="0"
       id="path3132"
       style="font-style:normal;font-variant:normal;font-weight:300;font-stretch:normal;font-size:144px;line-height:125%;font-family:'Open Sans';-inkscape-font-specification:'Open Sans Light';text-align:start;letter-spacing:0px;word-spacing:0px;writing-mode:lr-tb;text-anchor:start;fill:#000000;fill-opacity:1;stroke:none"
       d="m 946.69037,1040.3995 c 0,-4.5938 1.875,-6.8906 5.625,-6.8906 3.8438,0 5.7656,2.2968 5.7657,6.8906 -10e-5,4.5937 -1.9219,6.8906 -5.7657,6.8906 -3.75,0 -5.625,-2.2969 -5.625,-6.8906 m 0,-62.78906 c 0,-4.5937 1.875,-6.8905 5.625,-6.8906 3.8438,10e-5 5.7656,2.2969 5.7657,6.8906 -10e-5,2.4844 -0.5626,4.2657 -1.6875,5.3438 -1.0782,1.0782 -2.4376,1.6172 -4.0782,1.6172 -1.5937,0 -2.9297,-0.539 -4.0078,-1.6172 -1.0781,-1.0781 -1.6172,-2.8594 -1.6172,-5.3438" />
  </g>
</svg>
