<?xml version="1.0" encoding="UTF-8" standalone="no"?>
<svg
   height="32"
   width="32"
   inkscape:version="1.1.1 (3bf5ae0d25, 2021-09-20)"
   sodipodi:docname="login.svg"
   id="svg6"
   version="1.1"
   viewBox="0 0 32 32"
   xmlns:inkscape="http://www.inkscape.org/namespaces/inkscape"
   xmlns:sodipodi="http://sodipodi.sourceforge.net/DTD/sodipodi-0.dtd"
   xmlns:xlink="http://www.w3.org/1999/xlink"
   xmlns="http://www.w3.org/2000/svg"
   xmlns:svg="http://www.w3.org/2000/svg"
   xmlns:rdf="http://www.w3.org/1999/02/22-rdf-syntax-ns#"
   xmlns:cc="http://creativecommons.org/ns#"
   xmlns:dc="http://purl.org/dc/elements/1.1/">
  <metadata
     id="metadata10">
    <rdf:RDF>
      <cc:Work
         rdf:about="">
        <dc:format>image/svg+xml</dc:format>
        <dc:type
           rdf:resource="http://purl.org/dc/dcmitype/StillImage" />
      </cc:Work>
    </rdf:RDF>
  </metadata>
  <sodipodi:namedview
     inkscape:document-rotation="0"
     inkscape:lockguides="false"
     inkscape:current-layer="svg6"
     inkscape:window-maximized="1"
     inkscape:window-y="0"
     inkscape:window-x="0"
     inkscape:cy="15.136504"
     inkscape:cx="13.678096"
     inkscape:zoom="22.627418"
     showgrid="true"
     id="namedview8"
     inkscape:window-height="1007"
     inkscape:window-width="1920"
     inkscape:pageshadow="2"
     inkscape:pageopacity="0"
     guidetolerance="10"
     gridtolerance="10"
     objecttolerance="10"
     borderopacity="1"
     bordercolor="#666666"
     pagecolor="#ffffff"
     inkscape:pagecheckerboard="0"
     inkscape:showpageshadow="false">
    <inkscape:grid
       id="grid818"
       type="xygrid"
       originx="1.00161"
       originy="0.97624918" />
  </sodipodi:namedview>
  <defs
     id="defs3051">
    <style
       id="current-color-scheme"
       type="text/css">
      .ColorScheme-Text {
        color:#eff0f1;
      }
      </style>
    <linearGradient
       inkscape:collect="always"
       id="linearGradient1458">
      <stop
         style="stop-color:#f2cdcd;stop-opacity:1"
         offset="0"
         id="stop1454" />
      <stop
         style="stop-color:#c9cbff;stop-opacity:1"
         offset="1"
         id="stop1456" />
    </linearGradient>
    <linearGradient
       inkscape:collect="always"
       xlink:href="#linearGradient1458"
       id="linearGradient1836"
       gradientUnits="userSpaceOnUse"
       gradientTransform="translate(1.6029938e-6,-0.10000002)"
       x1="3"
       y1="16.10248"
       x2="29.005022"
       y2="16.10248" />
    <linearGradient
       inkscape:collect="always"
       xlink:href="#linearGradient1458"
       id="linearGradient2901"
       x1="8.979743"
       y1="16.000034"
       x2="22.974028"
       y2="16.000034"
       gradientUnits="userSpaceOnUse" />
    <linearGradient
       inkscape:collect="always"
       xlink:href="#linearGradient1458"
       id="linearGradient3150"
       x1="8.979743"
       y1="16.000034"
       x2="22.974028"
       y2="16.000034"
       gradientUnits="userSpaceOnUse" />
  </defs>
  <g
     id="system-log-out"
     transform="translate(-189)">
    <g
       id="g1698">
      <path
         style="color:#000000;overflow:visible;opacity:0;fill:none;fill-opacity:1;stroke-width:1.06667"
         id="path951"
         overflow="visible"
         d="m 205,0 c -8.82763,0 -16,7.1723733 -16,16 0,8.827627 7.17237,16 16,16 8.82763,0 16,-7.172373 16,-16 0,-8.8276267 -7.17237,-16 -16,-16 z"
         inkscape:connector-curvature="0" />
    </g>
  </g>
  <rect
     style="fill:#5599ff;fill-opacity:0.1;stroke:none;stroke-width:0.64"
     id="center-3-3"
     width="25.6"
     height="25.600039"
     x="3"
     y="3.4000001"
     ry="2.9066222"
     rx="2.9500375" />
  <path
     d="m 16.751587,20.649993 c -0.213978,0 -0.387485,-0.173501 -0.387485,-0.387488 v -1.937426 h -6.199785 c -0.3082525,0 -0.6040717,-0.122474 -0.8219965,-0.340438 C 9.1243979,17.766678 9.001885,17.47086 9.001885,17.162638 v -2.324912 c 0,-0.308264 0.1224735,-0.604079 0.3404355,-0.822004 0.2179634,-0.21792 0.5137823,-0.340437 0.8219965,-0.340437 h 6.199785 v -1.937428 c -1.8e-4,-0.14617 0.08197,-0.279891 0.212259,-0.345968 0.130421,-0.0661 0.286804,-0.05321 0.404607,0.03328 l 5.812297,4.262352 c 0.09976,0.07299 0.15862,0.189237 0.15862,0.31275 0,0.123517 -0.05879,0.239766 -0.15862,0.312764 l -5.812297,4.262353 c -0.06663,0.04856 -0.146866,0.07487 -0.229381,0.07466 z m -6.58727,-6.199779 c -0.2139737,0 -0.3874815,0.173512 -0.3874815,0.38749 v 2.324913 c 0,0.102756 0.040837,0.201359 0.1134711,0.274009 0.072623,0.07261 0.1712634,0.113473 0.2740054,0.113473 h 6.587271 c 0.102756,0 0.201355,0.04086 0.274012,0.113475 0.07261,0.07261 0.113473,0.171257 0.113473,0.274008 v 1.56 l 4.769404,-3.49743 -4.769404,-3.497433 v 1.559999 c 0,0.102716 -0.04086,0.201359 -0.113473,0.274014 -0.07261,0.07261 -0.171261,0.113471 -0.274012,0.113471 z"
     id="path49"
     style="stroke-width:0.0442844;stroke:url(#linearGradient2901);stroke-opacity:1;fill-opacity:1.0;fill:url(#linearGradient3150)" />
  <path
     fill-rule="evenodd"
     clip-rule="evenodd"
     d="m 25.291652,29 h -13.92949 c -0.51211,0 -0.92764,0.08288 -0.92764,-0.429001 0,-0.513269 0.41553,-0.429 0.92764,-0.429 h 13.92949 c 1.60749,0 2.85737,-1.244557 2.85737,-2.856748 V 6.713823 c 0,-1.750692 -1.54782,-2.856795 -2.85737,-2.856824 L 6.7197718,3.856587 c -1.47299,-3.3e-5 -2.85775,1.217015 -2.85775,2.856824 v 17.643266 c 0,0.513269 0.0853,0.928574 -0.428,0.928574 -0.51234,0 -0.429,-0.415305 -0.429,-0.928574 V 6.713823 C 3.0050218,4.662608 4.6687918,3 6.7197718,3 H 25.291662 c 2.05077,0 3.71336,1.662608 3.71336,3.713823 V 25.285251 C 29.005022,27.336463 27.342432,29 25.291662,29 Z M 7.6485718,27.142392 c 0.51211,0 0.92857,0.415767 0.92857,0.929036 0,0.511877 -0.41646,0.928572 -0.92857,0.928572 -0.51327,0 -0.9288,-0.416695 -0.9288,-0.928572 0,-0.513269 0.41553,-0.929036 0.9288,-0.929036 z"
     id="path2-6-3-7-5-7"
     style="fill:url(#linearGradient1836);fill-opacity:1;stroke-width:0.0580364"
     sodipodi:nodetypes="sssssssssssssssssssssssss" />
</svg>
