<?xml version="1.0" encoding="UTF-8" standalone="no"?>
<svg
   width="32"
   height="32"
   version="1.1"
   id="svg30"
   sodipodi:docname="accessories.svg"
   inkscape:version="1.2.2 (b0a8486541, 2022-12-01)"
   xmlns:inkscape="http://www.inkscape.org/namespaces/inkscape"
   xmlns:sodipodi="http://sodipodi.sourceforge.net/DTD/sodipodi-0.dtd"
   xmlns="http://www.w3.org/2000/svg"
   xmlns:svg="http://www.w3.org/2000/svg">
  <g
     id="22-22-accessories-calculator"
     transform="translate(32,-21.999999)">
    <rect
       style="opacity:0.00100002;fill:#d1d5e9;fill-opacity:1"
       width="22"
       height="22"
       x="0"
       y="0"
       id="rect13" />
    <rect
       style="fill:#4e5a7e;fill-opacity:0.501961;stroke:none;stroke-width:0.378957"
       id="center-3-5-5"
       width="14"
       height="14"
       x="4"
       y="4"
       ry="0"
       rx="0" />
    <path
       d="M 17.49963,3 H 4.49998 C 3.64995,3 3,3.649947 3,4.499983 V 17.500011 C 3,18.350055 3.64995,19 4.49998,19 H 17.50002 C 18.35005,19 19,18.350055 19,17.500011 L 18.99985,4.499983 C 18.99985,3.649947 18.3499,3 17.49987,3 Z M 18,5 v 5 H 12 V 4 h 5 c 0.56734,0 1,0 1,1 z M 5,4 h 5 v 6 H 4 V 5 C 4,4 4.33332,4.000002 5,4 Z M 4,17 v -5 h 6 v 6 H 5 c -0.66668,1e-6 -1,0 -1,-1 z m 13,1 h -5 v -6 h 6 v 5 c 0,1 -0.366,1.000001 -1,1 z"
       id="path1722-6-7"
       sodipodi:nodetypes="csssssccscccccscsccccscccccccccccc"
       style="fill:#d6dbf1;fill-opacity:1;stroke-width:0.0374995" />
    <path
       d="M 5.49974,7.499882 H 6.49976 V 8.49992 c 0,0.3 0.19996,0.49995 0.49996,0.49995 0.3,0 0.49994,-0.19995 0.49994,-0.49995 V 7.499882 h 1.00005 c 0.3,0 0.49994,-0.199958 0.49994,-0.499955 0,-0.299996 -0.19994,-0.499944 -0.49994,-0.499944 H 7.49966 V 5.499939 C 7.49966,5.199943 7.29972,5 6.99972,5 6.69972,5 6.49976,5.199943 6.49976,5.499939 V 6.499983 H 5.49974 c -0.3,0 -0.49996,0.199948 -0.49996,0.499944 0,0.299997 0.19996,0.499955 0.49996,0.499955 z"
       id="path1724-7-0"
       style="fill:#d6dbf1;fill-opacity:1;stroke-width:0.0374995"
       sodipodi:nodetypes="scssscssscssscsss" />
    <path
       d="m 7.71672,15.016666 0.89999,-0.899991 c 0.19995,-0.199955 0.19995,-0.499954 0,-0.700051 -0.19996,-0.199942 -0.49996,-0.199942 -0.70005,0 L 7.01667,14.316619 6.11668,13.416624 c -0.19996,-0.199942 -0.49996,-0.199942 -0.70006,0 -0.19994,0.19995 -0.19994,0.499946 0,0.700051 l 0.9,0.899991 -0.9,0.899994 c -0.19994,0.199944 -0.19994,0.499943 0,0.700044 0.10006,0.100047 0.25005,0.149998 0.34996,0.149998 0.10005,0 0.25004,-0.04996 0.34994,-0.149998 l 0.9,-0.899988 0.89999,0.899988 c 0.10005,0.100047 0.25005,0.149998 0.34995,0.149998 0.10004,0 0.25005,-0.04996 0.34994,-0.149998 0.19995,-0.199951 0.19995,-0.49995 0,-0.700044 z"
       id="path1726-5-9"
       style="fill:#d6dbf1;fill-opacity:1;stroke-width:0.0374995"
       sodipodi:nodetypes="cccccccccccscccsccc" />
    <path
       d="m 13.83328,7.499898 h 2.50003 c 0.3,0 0.49994,-0.199962 0.49994,-0.499959 C 16.83325,6.699943 16.63331,6.5 16.33331,6.5 h -2.50003 c -0.3,0 -0.49994,0.199943 -0.49994,0.499939 -1.5e-4,0.299997 0.19994,0.499959 0.49994,0.499959 z"
       id="path1728-3-3"
       style="fill:#d6dbf1;fill-opacity:1;stroke-width:0.0374995"
       sodipodi:nodetypes="ssssscs" />
    <path
       d="M 16.33337,15.5 H 13.8333 c -0.30001,0 -0.49996,0.199967 -0.49996,0.5 0,0.300032 0.19995,0.5 0.49996,0.5 h 2.50007 c 0.30001,0 0.49997,-0.199968 0.49997,-0.5 1.5e-4,-0.300033 -0.19996,-0.5 -0.49997,-0.5 z"
       id="path1730-5-6"
       style="fill:#d6dbf1;fill-opacity:1;stroke-width:0.0375018"
       sodipodi:nodetypes="ssssscs" />
    <path
       d="m 16.33331,13.5 h -2.50003 c -0.3,0 -0.49994,0.199943 -0.49994,0.49994 0,0.299997 0.19994,0.499942 0.49994,0.499942 h 2.50003 c 0.3,0 0.49994,-0.199945 0.49994,-0.499942 C 16.8334,13.699943 16.63331,13.5 16.33331,13.5 Z"
       id="path1732-6-0"
       style="fill:#d6dbf1;fill-opacity:1;stroke-width:0.0374995"
       sodipodi:nodetypes="ssssscs" />
  </g>
  <sodipodi:namedview
     id="namedview32"
     pagecolor="#ffffff"
     bordercolor="#000000"
     borderopacity="1"
     inkscape:showpageshadow="true"
     inkscape:pageopacity="0"
     inkscape:pagecheckerboard="false"
     inkscape:deskcolor="#cccccc"
     showgrid="false"
     inkscape:zoom="5.6568543"
     inkscape:cx="19.887378"
     inkscape:cy="24.660349"
     inkscape:window-width="1920"
     inkscape:window-height="1002"
     inkscape:window-x="0"
     inkscape:window-y="0"
     inkscape:window-maximized="1"
     inkscape:current-layer="svg30">
    <inkscape:grid
       type="xygrid"
       id="grid515"
       originx="0"
       originy="-21.999999" />
  </sodipodi:namedview>
  <defs
     id="defs5">
    <style
       id="current-color-scheme"
       type="text/css">
   .ColorScheme-Background {color:#181818; } .ColorScheme-ButtonBackground { color:#343434; } .ColorScheme-Highlight { color:#4285f4; } .ColorScheme-Text { color:#dfdfdf; } .ColorScheme-ViewBackground { color:#242424; } .ColorScheme-NegativeText { color:#f44336; } .ColorScheme-PositiveText { color:#4caf50; } .ColorScheme-NeutralText { color:#ff9800; }
  </style>
  </defs>
  <g
     id="accessories-dictionary">
    <rect
       style="opacity:0.00100002;fill:#d1d5e9;fill-opacity:1"
       width="32"
       height="32"
       x="0"
       y="0"
       id="rect18" />
    <rect
       style="fill:#4e5a7e;fill-opacity:0.501961;stroke:none;stroke-width:0.568436"
       id="center-3"
       width="18"
       height="20.999998"
       x="7"
       y="4.000001"
       ry="1.9999981"
       rx="2" />
    <path
       d="m 25.35477,24.30776 c 0.17108,0 0.335025,-0.06495 0.45621,-0.180283 0.120972,-0.115393 0.188798,-0.271975 0.1888,-0.435171 L 26,6 C 26,6 26,4 24,4 V 4 H 8.580482 8 C 6,4 6,6 6,6 v 19.538379 c 0,0.652947 0.271753,1.278916 0.755836,1.740666 C 7.239708,27.740594 7.896172,28 8.580482,28 H 25.354989 C 25.711194,28 26,27.724525 26,27.384529 c 0,-0.339766 -0.288806,-0.615236 -0.645011,-0.615236 -0.460971,0 -0.886948,-0.234681 -1.11743,-0.615471 -0.23049,-0.380762 -0.23049,-0.849914 0,-1.230708 0.230482,-0.38076 0.656459,-0.615452 1.11743,-0.615452 z M 17,5 V 5 5 5 5 H 13 Z M 7,6 C 7,6 7,5 8,5 v 0 h 3 v 10 c 4.5e-4,0.226858 0.292637,0.511882 0.502378,0.618639 0.20976,0.106935 0.563955,0.09499 0.761622,-0.0309 L 15,13.969227 l 2.555,1.618512 c 0.193758,0.119505 0.739586,0.130822 0.945,0.03026 0.21603,-0.102404 0.496297,-0.387825 0.5,-0.618 v -10 h 5 v 0 c 1,0 1,1 1,1 V 23 H 9 7 v 0 0 0 0 0 0 0 0 0 z"
       id="path391-36"
       style="fill:#d6dbf1;fill-opacity:1;stroke-width:0.0540078"
       sodipodi:nodetypes="ccscccsccssssssccccccccccccccccccccccccccccccccccccccc" />
  </g>
  <g
     id="22-22-accessories-dictionary"
     transform="translate(0,-21.999999)">
    <rect
       style="opacity:0.00100002;fill:#d1d5e9;fill-opacity:1"
       width="22"
       height="22"
       x="0"
       y="0"
       id="rect4" />
    <rect
       style="fill:#4e5a7e;fill-opacity:0.501961;stroke:none;stroke-width:0.378957"
       id="center-3-5"
       width="12"
       height="14"
       x="5"
       y="3"
       ry="1.1666665"
       rx="1" />
    <path
       d="m 17.548341,16.538507 c 0.119752,0 0.234516,-0.0433 0.319346,-0.120189 0.08467,-0.07693 0.132158,-0.181317 0.13216,-0.290114 L 18,4.333333 C 18,4.333333 18,3 16.6,3 V 3 H 5.806334 5.4 C 4,3 4,4.333333 4,4.333333 V 17.358919 C 4,17.794217 4.190229,18.21153 4.529085,18.519363 4.867798,18.827063 5.327321,19 5.806334,19 H 17.548493 C 17.797837,19 18,18.81635 18,18.589686 c 0,-0.226511 -0.202163,-0.410157 -0.451507,-0.410157 -0.32268,0 -0.620865,-0.156454 -0.7822,-0.410314 -0.161346,-0.253842 -0.161346,-0.56661 0,-0.820472 0.161335,-0.25384 0.45952,-0.410302 0.7822,-0.410302 z M 11.7,3.666667 v 0 0 0 0 H 8.9 Z M 5,4.333333 V 4 4 h 3 v 6 c 0,0 0,1 0.5,1 0.4,0 0.546636,-0.190911 0.685,-0.274841 L 10.5,9.6461513 11.788,10.725159 C 11.923632,10.804829 12,11 12.5,11 13,11 13,10 13,10 V 4 H 16.6 17 V 4.333333 16 H 6 5 v 0 0 0 0 0 0 0 0 0 z"
       id="path391-3-3"
       style="fill:#d6dbf1;fill-opacity:1;stroke-width:0.0368943"
       sodipodi:nodetypes="ccscccsccsssssscccccccccccccccccccccccccccsccccccccccc" />
  </g>
  <g
     id="accessories-calculator"
     transform="translate(32)">
    <rect
       style="opacity:0.00100002;fill:#d1d5e9;fill-opacity:1"
       width="32"
       height="32"
       x="0"
       y="0"
       id="rect25" />
    <rect
       style="fill:#4e5a7e;fill-opacity:0.501961;stroke:none;stroke-width:0.568436"
       id="center-3-7"
       width="22"
       height="22"
       x="5"
       y="5.000001"
       ry="1"
       rx="1" />
    <path
       d="M 25.749455,4 H 6.249982 C 4.974917,4 4,4.974917 4,6.249982 V 25.750017 C 4,27.025082 4.974917,28 6.249982,28 H 25.750017 C 27.025082,28 28,27.025082 28,25.750017 L 27.999775,6.249982 C 27.999775,4.974917 27.024857,4 25.749792,4 Z M 27,6.249982 v 8.750019 H 17 V 5.000194 l 8.849,-1.97e-4 C 26.7,4.999978 27,5.799753 27,6.249755 Z M 6.249757,5 15,5.000001 v 10 H 5 V 6.24987 C 5,5.799873 5.3,5.000003 6.3,5.000001 Z M 5,25.74968 V 17.000001 H 15 V 27 H 6.3 C 5.3,27.000001 5,26.199569 5,25.749567 Z M 25.749455,27 17,27.000001 v -10 h 10 v 8.749454 C 27.000225,26.199451 26.8,27.000001 25.849,27 Z"
       id="path1722-5"
       sodipodi:nodetypes="csssssccscccccsccccccscccccccccccccccc"
       style="fill:#d6dbf1;fill-opacity:1;stroke-width:0.0562496" />
    <path
       d="m 7.749596,10.74982 h 1.500063 v 1.500064 c 0,0.449996 0.299923,0.749919 0.749919,0.749919 0.449997,0 0.749919,-0.299923 0.749919,-0.749919 V 10.74982 h 1.500063 c 0.449997,0 0.74992,-0.299922 0.74992,-0.749919 0,-0.449996 -0.299923,-0.749919 -0.74992,-0.749919 H 10.749497 V 7.749919 C 10.749497,7.299923 10.449575,7 9.999578,7 9.549582,7 9.249659,7.299923 9.249659,7.749919 V 9.249982 H 7.749596 c -0.449997,0 -0.74992,0.299923 -0.74992,0.749919 0,0.449997 0.299923,0.749919 0.74992,0.749919 z"
       id="path1724-6"
       style="fill:#d6dbf1;fill-opacity:1;stroke-width:0.0562496" />
    <path
       d="m 11.075065,22.024998 1.349989,-1.349989 c 0.299923,-0.299923 0.299923,-0.749919 0,-1.050067 -0.299922,-0.299923 -0.749919,-0.299923 -1.050066,0 l -1.34999,1.349989 -1.349989,-1.349989 c -0.299923,-0.299923 -0.749919,-0.299923 -1.050067,0 -0.299923,0.299923 -0.299923,0.749919 0,1.050067 l 1.349989,1.349989 -1.349989,1.34999 c -0.299923,0.299922 -0.299923,0.749919 0,1.050066 0.150074,0.150074 0.375072,0.224999 0.524921,0.224999 0.150074,0 0.375072,-0.07493 0.524921,-0.224999 l 1.349989,-1.349989 1.34999,1.349989 c 0.150073,0.150074 0.375072,0.224999 0.52492,0.224999 0.150074,0 0.375073,-0.07493 0.524921,-0.224999 0.299923,-0.299922 0.299923,-0.749919 0,-1.050066 z"
       id="path1726-2"
       style="fill:#d6dbf1;fill-opacity:1;stroke-width:0.0562496" />
    <path
       d="m 20.249919,10.749838 h 3.750046 c 0.449996,0 0.749919,-0.299922 0.749919,-0.749919 C 24.749884,9.549923 24.449961,9.25 23.999965,9.25 H 20.249919 C 19.799923,9.25 19.5,9.549923 19.5,9.999919 c -2.25e-4,0.449997 0.299923,0.749919 0.749919,0.749919 z"
       id="path1728-9"
       style="fill:#d6dbf1;fill-opacity:1;stroke-width:0.0562496" />
    <path
       d="m 24.000063,22.300001 h -3.750128 c -0.450006,0 -0.749935,0.299954 -0.749935,0.75 0,0.450045 0.299929,0.75 0.749935,0.75 h 3.750128 c 0.450007,0 0.749937,-0.299955 0.749937,-0.75 2.25e-4,-0.450046 -0.29993,-0.75 -0.749937,-0.75 z"
       id="path1730-1"
       style="fill:#d6dbf1;fill-opacity:1;stroke-width:0.0562533" />
    <path
       d="m 23.999964,20.250001 h -3.750045 c -0.449997,0 -0.749919,0.299923 -0.749919,0.749919 0,0.449997 0.299922,0.74992 0.749919,0.74992 h 3.750045 c 0.449997,0 0.74992,-0.299923 0.74992,-0.74992 2.25e-4,-0.449996 -0.299923,-0.749919 -0.74992,-0.749919 z"
       id="path1732-2"
       style="fill:#d6dbf1;fill-opacity:1;stroke-width:0.0562496" />
  </g>
</svg>
