<?xml version="1.0" encoding="UTF-8" standalone="no"?>
<svg
   width="31.999998"
   height="31.999998"
   viewBox="0 0 8.466666 8.4666664"
   version="1.1"
   id="svg847"
   inkscape:version="1.1.1 (3bf5ae0d25, 2021-09-20)"
   sodipodi:docname="activities.svg"
   xmlns:inkscape="http://www.inkscape.org/namespaces/inkscape"
   xmlns:sodipodi="http://sodipodi.sourceforge.net/DTD/sodipodi-0.dtd"
   xmlns="http://www.w3.org/2000/svg"
   xmlns:svg="http://www.w3.org/2000/svg"
   xmlns:rdf="http://www.w3.org/1999/02/22-rdf-syntax-ns#"
   xmlns:cc="http://creativecommons.org/ns#"
   xmlns:dc="http://purl.org/dc/elements/1.1/">
  <defs
     id="defs841" />
  <sodipodi:namedview
     id="base"
     pagecolor="#ffffff"
     bordercolor="#666666"
     borderopacity="1.0"
     inkscape:pageopacity="0.0"
     inkscape:pageshadow="2"
     inkscape:zoom="5.6"
     inkscape:cx="26.428571"
     inkscape:cy="17.589286"
     inkscape:document-units="px"
     inkscape:current-layer="layer1"
     inkscape:document-rotation="0"
     showgrid="false"
     units="px"
     inkscape:window-width="1920"
     inkscape:window-height="1005"
     inkscape:window-x="0"
     inkscape:window-y="0"
     inkscape:window-maximized="1"
     inkscape:snap-bbox="true"
     inkscape:bbox-nodes="true"
     inkscape:pagecheckerboard="0"
     inkscape:lockguides="false">
    <inkscape:grid
       type="xygrid"
       id="grid1410"
       originx="3.9999999e-07"
       originy="0" />
  </sodipodi:namedview>
  <metadata
     id="metadata844">
    <rdf:RDF>
      <cc:Work
         rdf:about="">
        <dc:format>image/svg+xml</dc:format>
        <dc:type
           rdf:resource="http://purl.org/dc/dcmitype/StillImage" />
      </cc:Work>
    </rdf:RDF>
    <style
       id="current-color-scheme" />
  </metadata>
  <g
     inkscape:label="Layer 1"
     inkscape:groupmode="layer"
     id="layer1">
    <g
       id="activities">
      <rect
         y="0"
         x="0"
         height="8.4666662"
         width="8.4666662"
         id="rect1430"
         style="opacity:0.003;fill:#000000;stroke-width:0.529167" />
      <path
         d="M 6.891337,1.1958306 C 6.882697,1.1249856 6.797127,1.0649196 6.705244,1.0652263 H 4.0999452 c -0.097442,7.3e-6 -0.186089,0.068659 -0.1860989,0.1441151 v 2.5220158 c 9.9e-6,0.075457 0.088649,0.144108 0.1860989,0.1441151 h 2.605299 c 0.097432,-7.4e-6 0.1860849,-0.068659 0.1860934,-0.1441151 z m 0,3.5308222 C 6.8827065,4.6558078 6.797129,4.5957417 6.7052438,4.5960483 h -2.605299 c -0.097442,7.2e-6 -0.186089,0.068659 -0.1860988,0.1441151 v 2.522016 c 9.8e-6,0.075456 0.088649,0.144108 0.1860988,0.1441151 h 2.605299 c 0.097432,-7.7e-6 0.1860849,-0.068659 0.1860934,-0.1441151 z M 6.5191503,1.4062604 V 3.5343042 H 4.2860327 V 1.4062604 Z m 0,3.5308646 V 7.0651688 H 4.2860327 V 4.937125 Z M 3.0764324,1.1958306 c -0.00446,-0.075459 -0.097387,-0.1408973 -0.1948172,-0.1373602 -0.097443,0.00354 -0.1819473,0.075412 -0.1773788,0.150871 v 3.9631679 c -0.00143,0.076125 0.087791,0.146128 0.1860984,0.146128 0.098305,0 0.187457,-0.070003 0.1860976,-0.146128 z m -1.1165702,0 C 1.9553422,1.1203716 1.8624792,1.0549333 1.7650547,1.0584704 1.6676097,1.0620104 1.583108,1.1338824 1.5876771,1.2093414 v 6.052838 c -0.00143,0.076125 0.087791,0.1461281 0.1860972,0.1461281 0.09831,0 0.1874473,-0.070003 0.1860879,-0.1461281 z"
         id="path2-3"
         style="fill:#d6dbf1;fill-opacity:1;fill-rule:nonzero;stroke-width:0.0819411"
         sodipodi:nodetypes="cccccccccccccccccccccccccccccccccccccccccc" />
      <rect
         style="fill:#4e5a7e;fill-opacity:0.501961;stroke:none;stroke-width:0.0821327"
         id="center-3-35"
         width="2.2331176"
         height="2.1280437"
         x="4.2860327"
         y="1.4062604"
         ry="0.010013465"
         rx="0" />
      <rect
         style="fill:#4e5a7e;fill-opacity:0.501961;stroke:none;stroke-width:0.0821321"
         id="center-3-35-3"
         width="2.2330832"
         height="2.1280437"
         x="4.2860327"
         y="4.9371252"
         ry="0.010013466"
         rx="0" />
    </g>
    <g
       id="22-22-activities">
      <rect
         style="opacity:0.003;fill:#000000;stroke-width:0.363802"
         id="rect1430-3-7-5"
         width="5.8208323"
         height="5.8208323"
         x="8.4666681"
         y="2.6458333" />
      <path
         d="m 13.153512,3.5312487 c -0.0057,-0.04723 -0.06281,-0.087274 -0.124063,-0.08707 h -1.736873 c -0.06496,4.8e-6 -0.12406,0.045773 -0.124066,0.096077 v 1.6813507 c 6e-6,0.050305 0.0591,0.096072 0.124066,0.096077 h 1.736873 c 0.06495,-4.9e-6 0.124057,-0.045773 0.124063,-0.096077 z m 0,2.353891 c -0.0057,-0.04723 -0.06281,-0.087274 -0.124063,-0.08707 h -1.736873 c -0.06496,4.8e-6 -0.12406,0.045773 -0.124066,0.096077 v 1.6813509 c 6e-6,0.050304 0.0591,0.096072 0.124066,0.096077 h 1.736873 c 0.06495,-5.1e-6 0.124057,-0.045773 0.124063,-0.096077 z M 12.905386,3.6715358 V 5.0902374 H 11.416635 V 3.6715358 Z m 0,2.3539193 V 7.4441567 H 11.416635 V 6.0254551 Z M 10.610231,3.5312487 c -0.003,-0.050306 -0.06493,-0.093932 -0.129878,-0.091574 -0.06496,0.00236 -0.121299,0.050275 -0.118253,0.1005811 v 2.6421227 c -9.34e-4,0.05075 0.05853,0.097419 0.124066,0.097419 0.06553,0 0.124972,-0.046669 0.124065,-0.097419 z m -0.7443833,0 c -0.003,-0.050306 -0.06492,-0.093932 -0.129872,-0.091574 -0.06496,0.00236 -0.121298,0.050275 -0.118252,0.1005811 v 4.0352418 c -9.33e-4,0.05075 0.05853,0.097419 0.124065,0.097419 0.06554,0 0.124966,-0.046669 0.124059,-0.097419 z"
         id="path2-3-3"
         style="fill:#d6dbf1;fill-opacity:1;fill-rule:nonzero;stroke-width:0.0546276"
         sodipodi:nodetypes="cccccccccccccccccccccccccccccccccccccccccc" />
      <rect
         style="fill:#4e5a7e;fill-opacity:0.501961;stroke:none;stroke-width:0.0547554"
         id="center-3-35-6"
         width="1.4887512"
         height="1.4187015"
         x="11.416634"
         y="3.6715357"
         ry="0.0066756704"
         rx="0" />
      <rect
         style="fill:#4e5a7e;fill-opacity:0.501961;stroke:none;stroke-width:0.054755"
         id="center-3-35-3-7"
         width="1.4887283"
         height="1.4187015"
         x="11.416634"
         y="6.025455"
         ry="0.0066756709"
         rx="0" />
    </g>
  </g>
</svg>
