<?xml version="1.0" encoding="UTF-8" standalone="no"?>
<svg
   width="32"
   height="32"
   version="1.1"
   id="svg12"
   sodipodi:docname="akonadi.svg"
   inkscape:version="1.1.1 (3bf5ae0d25, 2021-09-20)"
   xmlns:inkscape="http://www.inkscape.org/namespaces/inkscape"
   xmlns:sodipodi="http://sodipodi.sourceforge.net/DTD/sodipodi-0.dtd"
   xmlns="http://www.w3.org/2000/svg"
   xmlns:svg="http://www.w3.org/2000/svg"
   xmlns:rdf="http://www.w3.org/1999/02/22-rdf-syntax-ns#"
   xmlns:cc="http://creativecommons.org/ns#"
   xmlns:dc="http://purl.org/dc/elements/1.1/">
  <g
     id="22-22-akonadi">
    <path
       style="opacity:0.00100002;fill:#a8aeca;fill-opacity:1"
       d="m 32.000001,10.000001 h 22 v 22 h -22 z"
       id="path2" />
    <rect
       style="fill:#4e5a7e;fill-opacity:0.501961;stroke:none;stroke-width:0.378957"
       id="center-3-5"
       width="14.666668"
       height="15.666667"
       x="35.650002"
       y="13.2"
       ry="1.958334"
       rx="2.0000007" />
    <path
       d="m 47.936575,21.581708 -4.238417,1.784667 c -0.222479,0.08512 -0.462687,0.133792 -0.714625,0.133792 -0.251437,0 -0.491333,-0.049 -0.712749,-0.133146 l -4.240959,-1.785646 c -0.07062,-0.03061 -0.136063,-0.07471 -0.193667,-0.131999 -0.248187,-0.248042 -0.248187,-0.65023 0,-0.898438 0.05875,-0.05859 0.126771,-0.103188 0.198063,-0.133792 l 0.531937,-0.223792 c 0.04931,-0.02963 0.106105,-0.04752 0.167313,-0.04752 0.181291,0 0.32825,0.146813 0.32825,0.328126 0,0.146979 -0.09683,0.269542 -0.229959,0.311688 l -0.166333,0.06917 c -0.05223,0.028 -0.08804,0.08219 -0.08804,0.145354 0,0.06169 0.03402,0.115063 0.08446,0.143875 l 3.781333,1.577959 c 0.0109,0.0041 0.0205,0.0063 0.03142,0.0109 0.156896,0.06494 0.328417,0.100416 0.508917,0.100416 0.178688,0 0.349104,-0.03517 0.505,-0.09896 0.01302,-0.0052 0.02458,-0.0086 0.03727,-0.0135 l 3.779291,-1.576834 c 0.05046,-0.02881 0.08448,-0.08219 0.08448,-0.143875 0,-0.06348 -0.03598,-0.117354 -0.08821,-0.145354 l -0.166646,-0.0695 c -0.132792,-0.04183 -0.229626,-0.164875 -0.229626,-0.311354 0,-0.181313 0.146959,-0.328125 0.328272,-0.328125 0.062,0 0.119604,0.01823 0.168916,0.04817 l 0.531688,0.223958 c 0.07112,0.03061 0.138333,0.07471 0.196604,0.132979 0.248187,0.248209 0.248187,0.650397 0,0.898438 -0.05794,0.05765 -0.123334,0.10175 -0.19398,0.132354 z m 8e-4,-2.167312 -4.244938,1.787271 C 43.472083,21.285337 43.2335,21.3335 42.98352,21.3335 c -0.249166,0 -0.486937,-0.04769 -0.707041,-0.130687 l -4.247483,-1.788417 c -0.07031,-0.03091 -0.13525,-0.07437 -0.192854,-0.1315 -0.248188,-0.248208 -0.248188,-0.650708 0,-0.898916 0.05794,-0.05746 0.123687,-0.10075 0.195124,-0.132167 L 42.2771,16.464209 c 0.219958,-0.08302 0.45725,-0.130875 0.706416,-0.130875 0.249646,0 0.487751,0.04785 0.708272,0.1315 l 0.395333,0.166333 c 0.135729,0.04231 0.234687,0.167479 0.234687,0.316896 0,0.183917 -0.149083,0.3335 -0.333312,0.3335 -0.05648,0 -0.108396,-0.01579 -0.155084,-0.04037 l -0.313624,-0.130854 c -0.01075,-0.0041 -0.0205,-0.0067 -0.03125,-0.01123 -0.155895,-0.06396 -0.326312,-0.09912 -0.504999,-0.09912 -0.180501,0 -0.352021,0.03598 -0.508917,0.100584 -0.009,0.0037 -0.01677,0.0057 -0.02587,0.009 L 38.66364,18.68901 c -0.05077,0.02848 -0.08625,0.08188 -0.08625,0.144687 0,0.06169 0.03402,0.11475 0.08398,0.143875 l 3.786708,1.579417 c 0.009,0.0037 0.01708,0.0055 0.02652,0.0093 0.156896,0.06463 0.328417,0.100583 0.508916,0.100583 0.178688,0 0.349105,-0.03517 0.505001,-0.09913 0.01107,-0.0044 0.02117,-0.0073 0.03207,-0.01156 l 3.784833,-1.578605 c 0.05013,-0.02913 0.08415,-0.08219 0.08415,-0.143874 0,-0.06283 -0.03548,-0.115876 -0.08642,-0.144688 L 46.789544,18.47447 c -0.126625,-0.04558 -0.217771,-0.165209 -0.217771,-0.307626 0,-0.181146 0.146813,-0.328125 0.328104,-0.328125 0.06202,0 0.119959,0.01839 0.169417,0.04817 l 0.86777,0.365562 c 0.07065,0.03027 0.135876,0.07437 0.1935,0.1315 0.248188,0.248209 0.248188,0.650709 0,0.898917 -0.05763,0.05719 -0.122874,0.100646 -0.193187,0.131583 z M 45.150166,17.8335 c -0.184229,0 -0.333458,-0.149083 -0.333458,-0.333333 0,-0.18425 0.149229,-0.333333 0.333458,-0.333333 0.18373,0 0.333313,0.149083 0.333313,0.333333 0,0.18425 -0.149583,0.333333 -0.333313,0.333333 z m -7.115962,4.750167 0.534229,-0.224604 c 0.0485,-0.02865 0.104479,-0.04623 0.165021,-0.04623 0.181292,0 0.32825,0.146813 0.32825,0.328125 0,0.148271 -0.09944,0.272458 -0.234833,0.312833 l -0.161459,0.06754 c -0.05223,0.02817 -0.08804,0.08187 -0.08804,0.145354 0,0.06217 0.03402,0.115229 0.08446,0.144042 l 3.786875,1.580083 c 0.0091,0.0034 0.01691,0.0052 0.02587,0.009 0.156896,0.06463 0.328417,0.100583 0.508917,0.100583 0.178688,0 0.349104,-0.03548 0.505,-0.09912 0.01075,-0.0044 0.0205,-0.007 0.03125,-0.01123 l 3.785331,-1.579271 c 0.05046,-0.02881 0.08448,-0.08188 0.08448,-0.144042 0,-0.06315 -0.03598,-0.117187 -0.08821,-0.145354 l -0.162583,-0.06754 c -0.135229,-0.04119 -0.233708,-0.164875 -0.233708,-0.312833 0,-0.181313 0.146958,-0.328125 0.328271,-0.328125 0.05971,0 0.114729,0.01709 0.162896,0.04475 l 0.537728,0.226562 c 0.07177,0.03091 0.138,0.07471 0.196605,0.133292 0.248187,0.248208 0.248187,0.650396 0,0.898604 -0.05713,0.05713 -0.122542,0.100416 -0.191396,0.131188 l -4.245253,1.7876 c -0.221166,0.08431 -0.459916,0.131833 -0.710375,0.131833 -0.249979,0 -0.488396,-0.04817 -0.708999,-0.1315 l -4.247792,-1.788452 c -0.06948,-0.03092 -0.133771,-0.0739 -0.190563,-0.130687 -0.248187,-0.248209 -0.248187,-0.650396 0,-0.898605 0.05873,-0.05861 0.126771,-0.102708 0.198042,-0.133791 z"
       id="path2-36-3-6"
       style="fill:#d6dbf1;fill-opacity:1;stroke-width:0.0208333" />
    <path
       d="M 48.820073,13.000001 H 37.146615 c -0.823129,0 -1.496614,0.6 -1.496614,1.333332 v 13.333333 c 0,0.733335 0.673485,1.333335 1.496614,1.333335 h 11.673458 c 0.82313,0 1.496595,-0.6 1.496595,-1.333335 V 14.333333 c 0,-0.733332 -0.673465,-1.333332 -1.496595,-1.333332 z m 0.748304,14.666665 c 0,0.366663 -0.336755,0.666663 -0.748304,0.666663 H 37.146615 c -0.411582,0 -0.748305,-0.3 -0.748305,-0.666663 V 14.333333 c 0,-0.366665 0.336723,-0.666665 0.748305,-0.666665 h 11.673458 c 0.411549,0 0.748304,0.3 0.748304,0.666665 z"
       id="path2-3-3-2"
       style="fill:#d6dbf1;fill-opacity:1;stroke-width:0.353151" />
  </g>
  <metadata
     id="metadata18">
    <rdf:RDF>
      <cc:Work
         rdf:about="">
        <dc:format>image/svg+xml</dc:format>
        <dc:type
           rdf:resource="http://purl.org/dc/dcmitype/StillImage" />
      </cc:Work>
    </rdf:RDF>
  </metadata>
  <defs
     id="defs16" />
  <sodipodi:namedview
     pagecolor="#ffffff"
     bordercolor="#000000"
     borderopacity="1"
     objecttolerance="10"
     gridtolerance="10"
     guidetolerance="10"
     inkscape:pageopacity="0"
     inkscape:pageshadow="2"
     inkscape:window-width="1920"
     inkscape:window-height="1007"
     id="namedview14"
     showgrid="false"
     inkscape:zoom="9.8125"
     inkscape:cx="24.356688"
     inkscape:cy="15.133758"
     inkscape:window-x="0"
     inkscape:window-y="0"
     inkscape:window-maximized="1"
     inkscape:current-layer="svg12"
     inkscape:document-rotation="0"
     inkscape:lockguides="true"
     inkscape:showpageshadow="false"
     inkscape:pagecheckerboard="0">
    <inkscape:grid
       type="xygrid"
       id="grid907"
       originx="32.000001"
       originy="10.000001" />
  </sodipodi:namedview>
  <g
     id="akonadi">
    <path
       style="opacity:0.00100002;fill:#a8aeca;fill-opacity:1"
       d="M 0,0 H 32.000001 V 32.000001 H 0 Z"
       id="path7" />
    <rect
       style="fill:#4e5a7e;fill-opacity:0.501961;stroke:none;stroke-width:0.568436"
       id="center-3"
       width="22.000002"
       height="23.5"
       x="4.999999"
       y="4.3000002"
       ry="2.937501"
       rx="3.000001" />
    <path
       d="m 23.429861,16.872562 -6.357625,2.677 c -0.333719,0.127688 -0.694031,0.200688 -1.071938,0.200688 -0.377156,0 -0.737,-0.0735 -1.069124,-0.199719 L 8.569736,16.872062 C 8.463798,16.826152 8.365642,16.76 8.279236,16.674063 c -0.372281,-0.372063 -0.372281,-0.975344 0,-1.347657 0.08812,-0.08788 0.190156,-0.154781 0.297094,-0.200687 l 0.797906,-0.335688 c 0.07397,-0.04444 0.159157,-0.07128 0.250969,-0.07128 0.271937,0 0.492375,0.220219 0.492375,0.492188 0,0.220469 -0.14525,0.404313 -0.344938,0.467532 l -0.2495,0.103749 c -0.07834,0.042 -0.132062,0.123282 -0.132062,0.218032 0,0.09253 0.05103,0.172594 0.126687,0.215812 l 5.672,2.366938 c 0.01635,0.0061 0.03075,0.0095 0.04713,0.01635 0.235344,0.09741 0.492626,0.150624 0.763376,0.150624 0.268031,0 0.523656,-0.05275 0.757499,-0.148437 0.01953,-0.0078 0.03687,-0.01294 0.05591,-0.02025 l 5.668937,-2.36525 c 0.07569,-0.04322 0.126719,-0.123281 0.126719,-0.215813 0,-0.09522 -0.05397,-0.176031 -0.132312,-0.218031 l -0.249969,-0.10425 c -0.199188,-0.06275 -0.344438,-0.247312 -0.344438,-0.467031 0,-0.271969 0.220438,-0.492188 0.492407,-0.492188 0.093,0 0.179406,0.02734 0.253375,0.07225 l 0.797531,0.335938 c 0.106687,0.04591 0.2075,0.112062 0.294906,0.199468 0.372281,0.372313 0.372281,0.975595 0,1.347657 -0.08691,0.08647 -0.185,0.152625 -0.290969,0.198531 z m 0.0012,-3.250968 -6.367407,2.680906 c -0.330531,0.1255 -0.688406,0.19775 -1.063375,0.19775 -0.37375,0 -0.730406,-0.07153 -1.060562,-0.196031 L 8.568492,13.621594 c -0.105469,-0.04637 -0.202875,-0.111563 -0.289281,-0.19725 -0.372281,-0.372313 -0.372281,-0.976063 0,-1.348375 0.08691,-0.08619 0.185531,-0.151125 0.292687,-0.19825 l 6.36875,-2.681406 C 15.270586,9.071781 15.626523,9 16.000273,9 c 0.374469,0 0.731626,0.07178 1.062407,0.19725 l 0.593,0.2495 c 0.203594,0.06347 0.352031,0.251219 0.352031,0.475344 0,0.275875 -0.223625,0.50025 -0.499969,0.50025 -0.08472,0 -0.162594,-0.02369 -0.232625,-0.06056 L 16.80468,10.165503 c -0.01612,-0.0061 -0.03075,-0.01 -0.04688,-0.01684 -0.233843,-0.09594 -0.489468,-0.148687 -0.757499,-0.148687 -0.270751,0 -0.528031,0.05397 -0.763376,0.150875 -0.01344,0.0056 -0.02515,0.0085 -0.03881,0.01344 l -5.677656,2.369156 c -0.07616,0.04272 -0.129374,0.122812 -0.129374,0.217031 0,0.09253 0.05103,0.172125 0.125968,0.215812 l 5.680063,2.369125 c 0.01344,0.0056 0.02562,0.0083 0.03978,0.01391 0.235343,0.09694 0.492625,0.150875 0.763374,0.150875 0.268032,0 0.523657,-0.05275 0.757501,-0.148687 0.0166,-0.0066 0.03175,-0.011 0.0481,-0.01734 l 5.67725,-2.367907 c 0.07519,-0.04369 0.126219,-0.123281 0.126219,-0.215812 0,-0.09425 -0.05322,-0.173813 -0.129625,-0.217031 l -0.770407,-0.321781 c -0.189937,-0.06837 -0.326656,-0.247813 -0.326656,-0.461438 0,-0.271719 0.220219,-0.492188 0.492156,-0.492188 0.09303,0 0.179938,0.02759 0.254125,0.07225 l 1.301656,0.548344 c 0.105969,0.04541 0.203813,0.111563 0.29025,0.19725 0.372282,0.372313 0.372282,0.976063 0,1.348375 -0.08644,0.08578 -0.184312,0.150969 -0.289781,0.197375 z M 19.250248,11.25025 c -0.276344,0 -0.500188,-0.223625 -0.500188,-0.5 0,-0.276375 0.223844,-0.5 0.500188,-0.5 0.275594,0 0.499969,0.223625 0.499969,0.5 0,0.276375 -0.224375,0.5 -0.499969,0.5 z M 8.576305,18.3755 9.377648,18.038594 c 0.07275,-0.04297 0.156719,-0.06934 0.247532,-0.06934 0.271937,0 0.492375,0.220219 0.492375,0.492187 0,0.222407 -0.149157,0.408688 -0.35225,0.46925 l -0.242188,0.101313 c -0.07834,0.04225 -0.132062,0.122812 -0.132062,0.218031 0,0.09325 0.05103,0.172844 0.126687,0.216063 l 5.680312,2.370124 c 0.01369,0.0051 0.02537,0.0078 0.03881,0.01344 0.235344,0.09694 0.492626,0.150875 0.763376,0.150875 0.268031,0 0.523656,-0.05322 0.757499,-0.148687 0.01612,-0.0066 0.03075,-0.0105 0.04688,-0.01684 l 5.677996,-2.368906 c 0.07569,-0.04322 0.126719,-0.122813 0.126719,-0.216063 0,-0.09472 -0.05397,-0.175781 -0.132313,-0.218031 l -0.243875,-0.101312 c -0.202844,-0.06178 -0.350562,-0.247313 -0.350562,-0.46925 0,-0.271969 0.220437,-0.492188 0.492406,-0.492188 0.08956,0 0.172094,0.02563 0.244344,0.06713 l 0.806593,0.339844 c 0.107657,0.04637 0.207,0.112062 0.294907,0.199937 0.372281,0.372313 0.372281,0.975594 0,1.347906 -0.08569,0.08569 -0.183813,0.150625 -0.287094,0.196782 l -6.367879,2.6814 c -0.33175,0.126469 -0.689875,0.19775 -1.065563,0.19775 -0.374968,0 -0.732594,-0.07225 -1.063499,-0.19725 L 8.565111,20.120134 C 8.460892,20.073754 8.364455,20.00929 8.279267,19.924103 c -0.372281,-0.372313 -0.372281,-0.975594 0,-1.347907 0.08809,-0.08791 0.190156,-0.154062 0.297063,-0.200687 z"
       id="path2-36-3"
       style="fill:#d6dbf1;fill-opacity:1;stroke-width:0.03125" />
    <path
       d="M 24.755108,4.000001 H 7.244921 C 6.010227,4.000001 5,4.900001 5,5.999999 v 19.999999 c 0,1.100003 1.010227,2.000003 2.244921,2.000003 h 17.510187 c 1.234695,0 2.244892,-0.9 2.244892,-2.000003 V 5.999999 C 27,4.900001 25.989803,4.000001 24.755108,4.000001 Z m 1.122456,21.999997 c 0,0.549995 -0.505133,0.999995 -1.122456,0.999995 H 7.244921 c -0.617373,0 -1.122457,-0.45 -1.122457,-0.999995 V 5.999999 c 0,-0.549998 0.505084,-0.999998 1.122457,-0.999998 h 17.510187 c 0.617323,0 1.122456,0.45 1.122456,0.999998 z"
       id="path2-3-3"
       style="fill:#d6dbf1;fill-opacity:1;stroke-width:0.529727" />
  </g>
</svg>
