<?xml version="1.0" encoding="UTF-8" standalone="no"?>
<svg
   width="22"
   height="22"
   version="1.1"
   id="svg12"
   sodipodi:docname="akregator.svg"
   inkscape:version="1.1.2 (0a00cf5339, 2022-02-04)"
   xmlns:inkscape="http://www.inkscape.org/namespaces/inkscape"
   xmlns:sodipodi="http://sodipodi.sourceforge.net/DTD/sodipodi-0.dtd"
   xmlns:xlink="http://www.w3.org/1999/xlink"
   xmlns="http://www.w3.org/2000/svg"
   xmlns:svg="http://www.w3.org/2000/svg"
   xmlns:rdf="http://www.w3.org/1999/02/22-rdf-syntax-ns#"
   xmlns:cc="http://creativecommons.org/ns#"
   xmlns:dc="http://purl.org/dc/elements/1.1/">
  <g
     id="akregator"
     transform="translate(-32,-10.000006)">
    <rect
       style="opacity:0.00100002"
       width="32"
       height="32"
       x="0"
       y="0"
       id="rect7" />
    <rect
       style="fill:#4e5a7e;fill-opacity:0.501961;stroke:none;stroke-width:0.524404"
       id="center-3-35"
       width="20"
       height="22"
       x="6"
       y="5"
       ry="0.9999997"
       rx="1" />
    <path
       d="m 9.8500007,7 v 2.9333453 c 6.2963713,0 11.3999963,5.2528547 11.3999963,11.7333227 H 24.1 C 24.1,13.563332 17.720271,7 9.8500007,7 m 0,5.866668 V 15.8 C 12.997825,15.8 15.55,18.4268 15.55,21.666668 h 2.850003 c 0,-4.859802 -3.828272,-8.8 -8.5500023,-8.8 m 0,5.866664 C 8.2760875,18.733332 7,20.046735 7,21.666668 7,23.2866 8.2760875,24.6 9.8500007,24.6 c 1.5739183,0 2.8499953,-1.3134 2.8499953,-2.933332 0,-1.619933 -1.276077,-2.933336 -2.8499953,-2.933336"
       id="path20-3"
       style="fill:#d6dbf1;fill-opacity:1;stroke-width:0.722851" />
    <path
       d="M 24.755108,3.9999997 H 7.244921 C 6.010227,3.9999997 5,4.8999997 5,5.9999977 V 25.999997 C 5,27.1 6.010227,28 7.244921,28 H 24.755108 C 25.989803,28 27,27.1 27,25.999997 V 5.9999977 c 0,-1.099998 -1.010197,-1.999998 -2.244892,-1.999998 z M 26,25.999997 c 0,0.549996 -0.627569,0.999995 -1.244892,0.999995 H 7.244921 C 6.627548,26.999992 6,26.549992 6,25.999997 V 5.9999977 c 0,-0.549998 0.627548,-0.999998 1.244921,-0.999998 h 17.510187 c 0.617323,0 1.244892,0.45 1.244892,0.999998 z"
       id="path2-3-3"
       style="fill:#d6dbf1;fill-opacity:1;stroke-width:0.529727"
       sodipodi:nodetypes="ssssssssssssssssss" />
  </g>
  <metadata
     id="metadata18">
    <rdf:RDF>
      <cc:Work
         rdf:about="">
        <dc:format>image/svg+xml</dc:format>
        <dc:type
           rdf:resource="http://purl.org/dc/dcmitype/StillImage" />
      </cc:Work>
    </rdf:RDF>
  </metadata>
  <defs
     id="defs16">
    <linearGradient
       inkscape:collect="always"
       xlink:href="#linearGradient855"
       id="linearGradient873"
       x1="3.0619521"
       y1="16.631489"
       x2="8.1415768"
       y2="16.631489"
       gradientUnits="userSpaceOnUse"
       gradientTransform="matrix(1.3750003,0,0,1.3750003,-31.210187,-9.3848437)" />
    <linearGradient
       inkscape:collect="always"
       id="linearGradient855">
      <stop
         style="stop-color:#00cccc;stop-opacity:1"
         offset="0"
         id="stop851" />
      <stop
         style="stop-color:#008080;stop-opacity:1"
         offset="1"
         id="stop853" />
    </linearGradient>
    <linearGradient
       id="oomox"
       x1="2"
       x2="2"
       y1="2"
       y2="14"
       gradientUnits="userSpaceOnUse"
       gradientTransform="scale(2)">
      <stop
         offset="0%"
         style="stop-color:#303b3d; stop-opacity:1"
         id="stop18" />
      <stop
         offset="100%"
         style="stop-color:#bc985d; stop-opacity:1"
         id="stop20" />
    </linearGradient>
  </defs>
  <sodipodi:namedview
     pagecolor="#ffffff"
     bordercolor="#000000"
     borderopacity="1"
     objecttolerance="10"
     gridtolerance="10"
     guidetolerance="10"
     inkscape:pageopacity="0"
     inkscape:pageshadow="2"
     inkscape:window-width="1920"
     inkscape:window-height="1009"
     id="namedview14"
     showgrid="false"
     inkscape:zoom="11.313708"
     inkscape:cx="0.48613593"
     inkscape:cy="8.6620585"
     inkscape:window-x="0"
     inkscape:window-y="0"
     inkscape:window-maximized="1"
     inkscape:current-layer="svg12"
     inkscape:document-rotation="0"
     inkscape:lockguides="false"
     inkscape:showpageshadow="false"
     inkscape:pagecheckerboard="0">
    <inkscape:grid
       type="xygrid"
       id="grid1401" />
  </sodipodi:namedview>
  <g
     id="22-22-akregator"
     transform="translate(-32,-10.000006)">
    <rect
       style="opacity:0.00100002"
       width="22"
       height="22"
       x="32"
       y="10.000006"
       id="rect2" />
    <rect
       style="fill:#4e5a7e;fill-opacity:0.501961;stroke:none;stroke-width:0.349603"
       id="center-3-35-6"
       width="13.333333"
       height="14.666667"
       x="35.817001"
       y="13.666658"
       ry="0.66666645"
       rx="0.66666669" />
    <path
       d="m 38.78333,15.400006 v 1.883339 c 3.976657,0 7.200003,3.372573 7.200003,7.53333 h 1.8 c 0,-5.202713 -4.029304,-9.416669 -9.000003,-9.416669 m 0,3.766669 v 1.883331 c 1.988103,0 3.600003,1.686525 3.600003,3.766669 h 1.8 c 0,-3.120216 -2.417853,-5.65 -5.400003,-5.65 m 0,3.766662 c -0.994047,0 -1.799997,0.843267 -1.799997,1.883338 0,1.040069 0.80595,1.883331 1.799997,1.883331 0.994057,0 1.800003,-0.843262 1.800003,-1.883331 0,-1.040071 -0.805946,-1.883338 -1.800003,-1.883338"
       id="path20-3-7"
       style="fill:#d6dbf1;fill-opacity:1;stroke-width:0.460305" />
    <path
       d="M 48.469392,12.999992 H 36.530627 c -0.841836,0 -1.530627,0.6 -1.530627,1.333332 v 13.333333 c 0,0.733335 0.688791,1.333335 1.530627,1.333335 h 11.938765 c 0.841837,0 1.530608,-0.6 1.530608,-1.333335 V 14.333324 c 0,-0.733332 -0.688771,-1.333332 -1.530608,-1.333332 z M 49,27.666657 c 0,0.366663 -0.109706,0.333349 -0.530608,0.333349 H 36.530627 C 36.109692,28.000006 36,28.03332 36,27.666657 V 14.333324 c 0,-0.366665 0.109692,-0.333318 0.530627,-0.333318 H 48.469392 C 48.890294,14.000006 49,13.966659 49,14.333324 Z"
       id="path2-3-3-5"
       style="fill:#d6dbf1;fill-opacity:1;stroke-width:0.357142"
       sodipodi:nodetypes="ssssssssssssssssss" />
  </g>
</svg>
