<?xml version="1.0" encoding="UTF-8" standalone="no"?>
<svg
   width="32"
   height="32"
   version="1"
   id="svg14"
   sodipodi:docname="antimicro.svg"
   inkscape:version="1.2.2 (b0a8486541, 2022-12-01)"
   xmlns:inkscape="http://www.inkscape.org/namespaces/inkscape"
   xmlns:sodipodi="http://sodipodi.sourceforge.net/DTD/sodipodi-0.dtd"
   xmlns="http://www.w3.org/2000/svg"
   xmlns:svg="http://www.w3.org/2000/svg">
  <g
     id="22-22-antimicro"
     transform="translate(37.999998,10)">
    <rect
       style="opacity:0.00100002"
       width="22"
       height="22"
       x="0"
       y="0"
       id="rect9" />
    <path
       inkscape:connector-curvature="0"
       id="fill-3"
       d="M 11.680005,3.7 H 2.5150037 C 1.1050039,5.1667 0.4000038,7.36675 0.4000038,10.30015 v 7.3335 c 0.40277524,0.418972 1.4099998,1.4667 3.5249997,-0.73335 0,0 2.5432821,-1.754544 2.8199991,-1.4667 1.4100003,1.4667 2.9682409,0.262516 4.2300004,0 1.409999,0.73335 3.524998,0.73335 4.935001,0 l 3.525,2.9334 h 2.115 l -2e-6,-8.06685 c 0,-2.20005 -0.705001,-5.13345 -2.115,-6.60015 z"
       style="color:#1e92ff;fill:#4e5a7e;fill-opacity:0.501961;fill-rule:nonzero;stroke:none;stroke-width:2.33516"
       class="ColorScheme-ButtonFocus"
       sodipodi:nodetypes="ccccssccccccc" />
    <path
       d="m 4.000003,3 c -2.21,0 -4,2.864049 -4,6.399043 v 7.464662 c 0,1.898699 2.154,2.851249 3.414,1.507226 l 2.414,-2.573911 h 0.676 a 2.5,2.6667125 0 0 0 1.996,1.066685 2.5,2.6667125 0 0 0 1.992,-1.066685 h 0.906 a 2.5,2.6667125 0 0 0 1.997,1.066685 2.5,2.6667125 0 0 0 1.992,-1.066685 h 0.785 l 2.414,2.573911 c 1.26,1.344023 3.414,0.391473 3.414,-1.507226 V 9.399043 c 0,-3.534994 -1.79,-6.399043 -4,-6.399043 z m 0,1.066685 h 14 c 1.657,0 3,2.387241 3,5.332358 v 7.464662 c 0,0.94935 -1.077,1.425091 -1.707,0.754146 l -2.707,-2.887516 h -1.779 a 1.5,1.6000275 0 0 1 -1.412,1.066685 1.5,1.6000275 0 0 1 -1.395,-1.018684 v -0.048 h -2.088 a 1.5,1.6000275 0 0 1 -1.412,1.066685 1.5,1.6000275 0 0 1 -1.412,-1.066685 h -1.674 l -2.707,2.887516 c -0.63,0.672012 -1.707,0.19627 -1.707,-0.754146 V 9.399043 c 0,-2.94405 1.343,-5.333425 3,-5.333425 z"
       id="path21-3-6-5"
       style="fill:#d6dbf1;fill-opacity:1;stroke-width:1.0328" />
    <path
       d="m 4.000003,5.129103 v 2.13337 h -2 v 2.13337 h 2 v 2.13337 h 2 v -2.13337 h 2 v -2.13337 h -2 v -2.13337 z m 11,8.000138 a 1.5,1.6000275 0 0 1 -1.5,1.600027 1.5,1.6000275 0 0 1 -1.5,-1.600027 1.5,1.6000275 0 0 1 1.5,-1.600028 1.5,1.6000275 0 0 1 1.5,1.600028 z m -5,0 a 1.5,1.6000275 0 0 1 -1.5,1.600027 1.5,1.6000275 0 0 1 -1.5,-1.600027 1.5,1.6000275 0 0 1 1.5,-1.600028 1.5,1.6000275 0 0 1 1.5,1.600028 z m 8,-2.666713 a 1,1.066685 0 0 1 -1,1.066685 1,1.066685 0 0 1 -1,-1.066685 1,1.066685 0 0 1 1,-1.066685 1,1.066685 0 0 1 1,1.066685 z m 2,-2.13337 a 1,1.066685 0 0 1 -1,1.066685 1,1.066685 0 0 1 -1,-1.066685 1,1.066685 0 0 1 1,-1.066685 1,1.066685 0 0 1 1,1.066685 z m -2,-2.13337 a 1,1.066685 0 0 1 -1,1.066685 1,1.066685 0 0 1 -1,-1.066685 1,1.066685 0 0 1 1,-1.066685 1,1.066685 0 0 1 1,1.066685 z m -2,2.13337 a 1,1.066685 0 0 1 -1,1.066685 1,1.066685 0 0 1 -1,-1.066685 1,1.066685 0 0 1 1,-1.066685 1,1.066685 0 0 1 1,1.066685 z"
       id="path23-2-7-6"
       style="fill:#d6dbf1;fill-opacity:1;stroke-width:1.0328" />
  </g>
  <sodipodi:namedview
     id="namedview16"
     pagecolor="#ffffff"
     bordercolor="#000000"
     borderopacity="1"
     inkscape:showpageshadow="2"
     inkscape:pageopacity="0.0"
     inkscape:pagecheckerboard="0"
     inkscape:deskcolor="#cccccc"
     showgrid="false"
     inkscape:zoom="10.429825"
     inkscape:cx="26.750209"
     inkscape:cy="19.894869"
     inkscape:window-width="1920"
     inkscape:window-height="1002"
     inkscape:window-x="0"
     inkscape:window-y="0"
     inkscape:window-maximized="1"
     inkscape:current-layer="svg14"
     showguides="false">
    <inkscape:grid
       type="xygrid"
       id="grid1266"
       originx="1e-06"
       originy="0" />
    <sodipodi:guide
       position="-61,16"
       orientation="1,0"
       id="guide823"
       inkscape:locked="false" />
  </sodipodi:namedview>
  <defs
     id="defs5">
    <style
       type="text/css"
       id="current-color-scheme" />
  </defs>
  <g
     id="antimicro">
    <rect
       style="opacity:0.00100002"
       width="32"
       height="32"
       x="0"
       y="0"
       id="rect4" />
    <path
       inkscape:connector-curvature="0"
       id="fill"
       d="M 17,6 H 4.0000005 c -2,2 -3,5 -3,9 v 10 c 0.5713126,0.571312 2,2 5,-1 0,0 3.6074928,-2.392507 3.9999995,-2 2,2 4.210271,0.357964 6,0 2,1 5,1 7,0 l 5.000001,4 h 3 L 31,15 C 31,12 30,8 28,6 Z"
       style="color:#1e92ff;fill:#4e5a7e;fill-opacity:0.501961;fill-rule:nonzero;stroke:none;stroke-width:3.24764"
       class="ColorScheme-ButtonFocus"
       sodipodi:nodetypes="ccccssccccccc" />
    <path
       d="M 5.818182,5 C 2.603636,5 0,8.938068 0,13.798685 v 10.26391 c 0,2.610711 3.133091,3.920467 4.965818,2.072435 l 3.511273,-3.539127 h 0.983272 a 3.6363638,3.6667298 0 0 0 2.903274,1.466692 3.6363638,3.6667298 0 0 0 2.897455,-1.466692 h 1.317818 a 3.6363638,3.6667298 0 0 0 2.904727,1.466692 3.6363638,3.6667298 0 0 0 2.897455,-1.466692 h 1.141818 l 3.511273,3.539127 c 1.832727,1.848032 4.965818,0.538276 4.965818,-2.072435 V 13.798685 C 32.000001,8.938068 29.396365,5 26.181819,5 Z m 0,1.466692 h 20.363637 c 2.410182,0 4.363637,3.282456 4.363637,7.331993 v 10.26391 c 0,1.305355 -1.566546,1.9595 -2.482909,1.036951 l -3.937456,-3.970335 h -2.587636 a 2.1818183,2.2000379 0 0 1 -2.053819,1.466692 2.1818183,2.2000379 0 0 1 -2.02909,-1.400691 v -0.066 h -3.037092 a 2.1818183,2.2000379 0 0 1 -2.053818,1.466692 2.1818183,2.2000379 0 0 1 -2.053818,-1.466692 H 7.874909 L 3.937454,25.099546 C 3.021091,26.023562 1.454545,25.369417 1.454545,24.062595 v -10.26391 c 0,-4.04807 1.953455,-7.33346 4.363637,-7.33346 z"
       id="path21-3-3-7"
       style="fill:#d6dbf1;fill-opacity:1;stroke-width:1.46061" />
    <path
       d="m 5.818182,7.927517 v 2.933384 H 2.909091 v 2.933384 h 2.909091 v 2.933383 h 2.909091 v -2.933383 h 2.909092 V 10.860901 H 8.727273 V 7.927517 Z m 16.000001,11.000189 a 2.1818183,2.2000379 0 0 1 -2.181818,2.200038 2.1818183,2.2000379 0 0 1 -2.181818,-2.200038 2.1818183,2.2000379 0 0 1 2.181818,-2.200038 2.1818183,2.2000379 0 0 1 2.181818,2.200038 z m -7.272728,0 a 2.1818183,2.2000379 0 0 1 -2.181818,2.200038 2.1818183,2.2000379 0 0 1 -2.181818,-2.200038 2.1818183,2.2000379 0 0 1 2.181818,-2.200038 2.1818183,2.2000379 0 0 1 2.181818,2.200038 z m 11.636364,-3.666729 a 1.4545455,1.4666919 0 0 1 -1.454545,1.466691 1.4545455,1.4666919 0 0 1 -1.454545,-1.466691 1.4545455,1.4666919 0 0 1 1.454545,-1.466692 1.4545455,1.4666919 0 0 1 1.454545,1.466692 z m 2.909092,-2.933384 a 1.4545455,1.4666919 0 0 1 -1.454546,1.466692 1.4545455,1.4666919 0 0 1 -1.454546,-1.466692 1.4545455,1.4666919 0 0 1 1.454546,-1.466692 1.4545455,1.4666919 0 0 1 1.454546,1.466692 z M 26.181819,9.394209 a 1.4545455,1.4666919 0 0 1 -1.454545,1.466692 1.4545455,1.4666919 0 0 1 -1.454545,-1.466692 1.4545455,1.4666919 0 0 1 1.454545,-1.466692 1.4545455,1.4666919 0 0 1 1.454545,1.466692 z m -2.90909,2.933384 a 1.4545455,1.4666919 0 0 1 -1.454546,1.466692 1.4545455,1.4666919 0 0 1 -1.454546,-1.466692 1.4545455,1.4666919 0 0 1 1.454546,-1.466692 1.4545455,1.4666919 0 0 1 1.454546,1.466692 z"
       id="path23-2-6-5"
       style="fill:#d6dbf1;fill-opacity:1;stroke-width:1.46061" />
  </g>
</svg>
