<?xml version="1.0" encoding="UTF-8" standalone="no"?>
<svg
   width="32"
   height="32"
   version="1.1"
   id="svg12"
   sodipodi:docname="applications.svg"
   inkscape:version="1.1.1 (3bf5ae0d25, 2021-09-20)"
   xmlns:inkscape="http://www.inkscape.org/namespaces/inkscape"
   xmlns:sodipodi="http://sodipodi.sourceforge.net/DTD/sodipodi-0.dtd"
   xmlns:xlink="http://www.w3.org/1999/xlink"
   xmlns="http://www.w3.org/2000/svg"
   xmlns:svg="http://www.w3.org/2000/svg"
   xmlns:rdf="http://www.w3.org/1999/02/22-rdf-syntax-ns#"
   xmlns:cc="http://creativecommons.org/ns#"
   xmlns:dc="http://purl.org/dc/elements/1.1/">
  <g
     id="applications-other">
    <path
       style="clip-rule:evenodd;fill:#ffffc1;fill-opacity:0;fill-rule:evenodd;stroke-width:1.00213;stroke-linejoin:round;stroke-miterlimit:1.41421"
       d="M 0,0 V 32 H 32 V 0 Z"
       id="rect817"
       inkscape:connector-curvature="0" />
    <rect
       style="fill:#5599ff;fill-opacity:0.1;stroke:none;stroke-width:0.649999"
       id="center-3"
       width="25.999958"
       height="26"
       x="3"
       y="3"
       ry="1"
       rx="0.99995804" />
    <path
       d="m 4.385246,14.614754 h 8.844262 c 0.636773,0 1.385246,-0.231389 1.385246,-1.385246 V 4.385246 C 14.614754,3.649761 14.142538,3 13.229508,3 H 3.532787 C 3.238689,3 3,3.04103 3,3.333 3,3.624967 3.238745,3.660244 3.532787,3.666 H 13.949 V 13.949 H 3.666 V 7.368853 C 3.666,7.074754 3.6271,6.836066 3.333,6.836066 3.038902,6.836066 3,7.076885 3,7.368853 v 5.860655 c 0,0.991312 0.850506,1.385246 1.385246,1.385246 z"
       id="path2-36-7"
       sodipodi:nodetypes="sssssssscccsssss"
       style="fill:url(#linearGradient1288);fill-opacity:1;stroke-width:2.13115" />
    <path
       d="m 27.614754,3 h -8.844262 c -0.636774,0 -1.385246,0.231389 -1.385246,1.385246 v 8.844262 c 0,0.735485 0.472215,1.385246 1.385246,1.385246 h 9.696721 C 28.761311,14.614754 29,14.573964 29,14.282 29,13.990033 28.761311,13.949 28.467213,13.949 H 18.051 V 3.666 h 10.283 v 6.579902 c 0,0.294098 0.0389,0.532787 0.333,0.532787 0.294098,0 0.333,-0.24082 0.333,-0.532787 V 4.385246 C 29,3.393934 28.149493,3 27.614754,3 Z"
       id="path2-3-5"
       sodipodi:nodetypes="sssssssscccsssss"
       style="fill:url(#linearGradient1290);fill-opacity:1;stroke-width:2.13115" />
    <path
       d="m 29,27.614754 v -8.844262 c 0,-0.636774 -0.231389,-1.385246 -1.385246,-1.385246 h -8.844262 c -0.735485,0 -1.385246,0.472215 -1.385246,1.385246 v 9.696721 C 17.385246,28.761311 17.426036,29 17.718,29 c 0.291967,0 0.333,-0.238689 0.333,-0.532787 V 18.051 h 10.283 v 10.283 h -6.579902 c -0.294098,0 -0.532787,0.0389 -0.532787,0.333 0,0.294098 0.24082,0.333 0.532787,0.333 h 5.860656 C 28.606066,29 29,28.149493 29,27.614754 Z"
       id="path2-3-6-3"
       sodipodi:nodetypes="sssssssscccsssss"
       style="fill:url(#linearGradient1292);fill-opacity:1;stroke-width:2.13115" />
    <path
       d="m 4.385246,29 h 8.844262 c 0.636774,0 1.385246,-0.231389 1.385246,-1.385246 v -8.844262 c 0,-0.735485 -0.472215,-1.385246 -1.385246,-1.385246 H 7.368853 c -0.294099,0 -0.532787,0.04079 -0.532787,0.332754 0,0.291967 0.238688,0.333 0.532787,0.333 H 13.949 V 28.335 L 3.666,28.334 V 17.918033 c 0,-0.294099 -0.0389,-0.532787 -0.333,-0.532787 -0.294098,0 -0.333,0.24082 -0.333,0.532787 v 9.696721 C 3,28.606066 3.850507,29 4.385246,29 Z"
       id="path2-3-7-5"
       sodipodi:nodetypes="sssssssscccsssss"
       style="fill:url(#linearGradient1294);fill-opacity:1;stroke-width:2.13115" />
  </g>
  <metadata
     id="metadata18">
    <rdf:RDF>
      <cc:Work
         rdf:about="">
        <dc:format>image/svg+xml</dc:format>
        <dc:type
           rdf:resource="http://purl.org/dc/dcmitype/StillImage" />
      </cc:Work>
    </rdf:RDF>
  </metadata>
  <defs
     id="defs16">
    <linearGradient
       inkscape:collect="always"
       id="linearGradient1366">
      <stop
         style="stop-color:#ddb6f2;stop-opacity:1"
         offset="0"
         id="stop1362" />
      <stop
         style="stop-color:#89dceb;stop-opacity:1"
         offset="1"
         id="stop1364" />
    </linearGradient>
    <linearGradient
       inkscape:collect="always"
       xlink:href="#linearGradient1366"
       id="linearGradient891"
       gradientUnits="userSpaceOnUse"
       x1="3"
       y1="8.8073769"
       x2="14.614754"
       y2="8.8073769"
       gradientTransform="matrix(0.76923077,0,0,0.76923077,-1.307693,-1.307692)" />
    <linearGradient
       inkscape:collect="always"
       xlink:href="#linearGradient1366"
       id="linearGradient893"
       gradientUnits="userSpaceOnUse"
       x1="17.385246"
       y1="8.8073769"
       x2="29"
       y2="8.8073769"
       gradientTransform="matrix(0.76923077,0,0,0.76923077,-1.307693,-1.307692)" />
    <linearGradient
       inkscape:collect="always"
       xlink:href="#linearGradient1366"
       id="linearGradient895"
       gradientUnits="userSpaceOnUse"
       x1="17.385246"
       y1="23.192623"
       x2="29"
       y2="23.192623"
       gradientTransform="matrix(0.76923077,0,0,0.76923077,-1.307693,-1.307692)" />
    <linearGradient
       inkscape:collect="always"
       xlink:href="#linearGradient1366"
       id="linearGradient898"
       gradientUnits="userSpaceOnUse"
       x1="3"
       y1="23.192623"
       x2="14.614754"
       y2="23.192623"
       gradientTransform="matrix(0.76923077,0,0,0.76923077,-1.307693,-1.307692)" />
    <linearGradient
       inkscape:collect="always"
       xlink:href="#linearGradient1366"
       id="linearGradient1288"
       gradientUnits="userSpaceOnUse"
       x1="3.1238399"
       y1="8.715167"
       x2="14.183481"
       y2="8.6430683" />
    <linearGradient
       inkscape:collect="always"
       xlink:href="#linearGradient1366"
       id="linearGradient1290"
       gradientUnits="userSpaceOnUse"
       x1="28.469168"
       y1="8.9720182"
       x2="17.740353"
       y2="9.054553" />
    <linearGradient
       inkscape:collect="always"
       xlink:href="#linearGradient1366"
       id="linearGradient1292"
       gradientUnits="userSpaceOnUse"
       x1="28.419531"
       y1="23.600266"
       x2="17.804558"
       y2="22.98612" />
    <linearGradient
       inkscape:collect="always"
       xlink:href="#linearGradient1366"
       id="linearGradient1294"
       gradientUnits="userSpaceOnUse"
       x1="3"
       y1="23.192623"
       x2="14.614754"
       y2="23.192623" />
  </defs>
  <sodipodi:namedview
     pagecolor="#ffffff"
     bordercolor="#000000"
     borderopacity="1"
     objecttolerance="10"
     gridtolerance="10"
     guidetolerance="10"
     inkscape:pageopacity="0"
     inkscape:pageshadow="2"
     inkscape:window-width="1920"
     inkscape:window-height="1007"
     id="namedview14"
     showgrid="false"
     inkscape:zoom="9.8125004"
     inkscape:cx="40.356686"
     inkscape:cy="21.961783"
     inkscape:window-x="0"
     inkscape:window-y="0"
     inkscape:window-maximized="1"
     inkscape:current-layer="svg12"
     inkscape:document-rotation="0"
     showguides="false"
     inkscape:lockguides="true"
     inkscape:showpageshadow="false"
     inkscape:pagecheckerboard="0">
    <inkscape:grid
       type="xygrid"
       id="grid942"
       originx="0"
       originy="0" />
  </sodipodi:namedview>
  <g
     id="22-22-applications-other"
     transform="translate(32,9.9999997)">
    <path
       style="clip-rule:evenodd;fill:#ffffc1;fill-opacity:0;fill-rule:evenodd;stroke-width:0.688964;stroke-linejoin:round;stroke-miterlimit:1.41421"
       d="M 0,0 V 22 H 22 V 0 Z"
       id="rect817-5"
       inkscape:connector-curvature="0" />
    <path
       d="m 2.065574,9.934426 h 6.803278 c 0.489826,0 1.065574,-0.177991 1.065574,-1.065574 V 2.065574 C 9.934426,1.499816 9.571183,1 8.868852,1 H 1.409836 C 1.183607,1 1,1.03156 1,1.256154 1,1.480744 1.18365,1.50788 1.409836,1.512308 h 8.012472 v 7.91 h -7.91 V 4.360656 C 1.512308,4.134426 1.482388,3.95082 1.256154,3.95082 1.029925,3.95082 1,4.136065 1,4.360656 V 8.868852 C 1,9.6314 1.654235,9.934426 2.065574,9.934426 Z"
       id="path2-36-5"
       sodipodi:nodetypes="sssssssscccsssss"
       style="fill:url(#linearGradient891);fill-opacity:1;stroke-width:1.63935" />
    <path
       d="m 19.934425,1 h -6.803277 c -0.489826,0 -1.065574,0.177992 -1.065574,1.065574 v 6.803278 c 0,0.565758 0.363242,1.065574 1.065574,1.065574 h 7.459016 c 0.226231,0 0.409838,-0.03138 0.409838,-0.255964 0,-0.22459 -0.183607,-0.256154 -0.409838,-0.256154 h -8.012472 v -7.91 h 7.910003 v 5.061463 c 0,0.226229 0.02992,0.409836 0.256153,0.409836 0.226224,0 0.256154,-0.185246 0.256154,-0.409836 V 2.065574 C 21.000002,1.303026 20.345764,1 19.934425,1 Z"
       id="path2-3-3"
       sodipodi:nodetypes="sssssssscccsssss"
       style="fill:url(#linearGradient893);fill-opacity:1;stroke-width:1.63935" />
    <path
       d="m 21.000002,19.934426 v -6.803278 c 0,-0.489826 -0.177992,-1.065574 -1.065577,-1.065574 h -6.803277 c -0.565758,0 -1.065574,0.363242 -1.065574,1.065574 v 7.459016 c 0,0.226229 0.03138,0.409836 0.255964,0.409836 0.22459,0 0.256154,-0.183607 0.256154,-0.409836 v -8.012472 h 7.910003 v 7.91 h -5.061466 c -0.226229,0 -0.409836,0.02992 -0.409836,0.256154 0,0.226229 0.185246,0.256154 0.409836,0.256154 h 4.508196 c 0.762547,0 1.065577,-0.654236 1.065577,-1.065574 z"
       id="path2-3-6-5"
       sodipodi:nodetypes="sssssssscccsssss"
       style="fill:url(#linearGradient895);fill-opacity:1;stroke-width:1.63935" />
    <path
       d="m 2.065574,21 h 6.803278 c 0.489826,0 1.065574,-0.177992 1.065574,-1.065574 v -6.803278 c 0,-0.565758 -0.363242,-1.065574 -1.065574,-1.065574 H 4.360656 c -0.22623,0 -0.409836,0.03138 -0.409836,0.255964 0,0.22459 0.183606,0.256154 0.409836,0.256154 h 5.061652 v 7.91077 l -7.91,-7.7e-4 V 12.47541 c 0,-0.22623 -0.02992,-0.409836 -0.256154,-0.409836 C 1.029925,12.065574 1,12.25082 1,12.47541 v 7.459016 C 1,20.696974 1.654236,21 2.065574,21 Z"
       id="path2-3-7-6"
       sodipodi:nodetypes="sssssssscccsssss"
       style="fill:url(#linearGradient898);fill-opacity:1;stroke-width:1.63935" />
    <rect
       style="fill:#5599ff;fill-opacity:0.1;stroke:none;stroke-width:0.499999"
       id="center-3-3"
       width="19.999968"
       height="20"
       x="1"
       y="1.0000004"
       ry="1.0000004"
       rx="0.99996758" />
  </g>
</svg>
