<?xml version="1.0" encoding="UTF-8" standalone="no"?>
<svg
   width="32"
   height="32"
   version="1.1"
   id="svg12"
   sodipodi:docname="apport.svg"
   inkscape:version="1.1.1 (3bf5ae0d25, 2021-09-20)"
   xmlns:inkscape="http://www.inkscape.org/namespaces/inkscape"
   xmlns:sodipodi="http://sodipodi.sourceforge.net/DTD/sodipodi-0.dtd"
   xmlns="http://www.w3.org/2000/svg"
   xmlns:svg="http://www.w3.org/2000/svg"
   xmlns:rdf="http://www.w3.org/1999/02/22-rdf-syntax-ns#"
   xmlns:cc="http://creativecommons.org/ns#"
   xmlns:dc="http://purl.org/dc/elements/1.1/">
  <metadata
     id="metadata18">
    <rdf:RDF>
      <cc:Work
         rdf:about="">
        <dc:format>image/svg+xml</dc:format>
        <dc:type
           rdf:resource="http://purl.org/dc/dcmitype/StillImage" />
      </cc:Work>
    </rdf:RDF>
  </metadata>
  <defs
     id="defs16" />
  <sodipodi:namedview
     pagecolor="#ffffff"
     bordercolor="#666666"
     borderopacity="1"
     objecttolerance="10"
     gridtolerance="10"
     guidetolerance="10"
     inkscape:pageopacity="0"
     inkscape:pageshadow="2"
     inkscape:window-width="1920"
     inkscape:window-height="1007"
     id="namedview14"
     showgrid="false"
     inkscape:zoom="9.8125"
     inkscape:cx="27.006369"
     inkscape:cy="12.789809"
     inkscape:window-x="0"
     inkscape:window-y="0"
     inkscape:window-maximized="1"
     inkscape:current-layer="svg12"
     inkscape:document-rotation="0"
     inkscape:pagecheckerboard="0"
     inkscape:lockguides="true">
    <inkscape:grid
       type="xygrid"
       id="grid844"
       originx="0"
       originy="1e-06" />
  </sodipodi:namedview>
  <g
     id="g1521"
     transform="translate(32.000001)" />
  <g
     id="apport">
    <path
       style="opacity:0.00100002;fill:#a8aeca;fill-opacity:1"
       d="M 0,0 V 32.000001 H 32.000001 V 0 Z"
       id="path7" />
    <rect
       style="fill:#4e5a7e;fill-opacity:0.501961;stroke:none;stroke-width:0.521775"
       id="center-3-35"
       width="19.799999"
       height="22"
       x="6.0999994"
       y="5"
       ry="1.000001"
       rx="0.89999962" />
    <path
       d="m 16.000039,7.000001 c -0.903844,0 -1.636445,0.7326055 -1.636445,1.636443 l 0.272803,10.636252 c 0,0.753159 0.610458,1.363616 1.363616,1.363616 0.753158,0 1.363628,-0.610457 1.363628,-1.363616 L 17.636444,8.636444 C 17.636444,7.7326065 16.903831,7.000001 16,7.000001 Z m 0,14.727111 c -0.903844,0 -1.636445,0.732613 -1.636445,1.636444 0,0.903639 0.732601,1.636445 1.636445,1.636445 0.903831,0 1.636444,-0.732601 1.636444,-1.636445 0,-0.903831 -0.732613,-1.636444 -1.636444,-1.636444 z"
       id="path67"
       style="fill:#da4453;fill-opacity:1;stroke-width:0.0487008" />
    <path
       d="M 24.755108,4.000001 H 7.244921 C 6.010227,4.000001 5,4.900001 5,5.999999 v 19.999999 c 0,1.100003 1.010227,2.000003 2.244921,2.000003 h 17.510187 c 1.234695,0 2.244892,-0.9 2.244892,-2.000003 V 5.999999 C 27,4.900001 25.989803,4.000001 24.755108,4.000001 Z m 1.122456,21.999997 c 0,0.549995 -0.505133,0.999995 -1.122456,0.999995 H 7.244921 c -0.617373,0 -1.122457,-0.45 -1.122457,-0.999995 V 5.999999 c 0,-0.549998 0.505084,-0.999998 1.122457,-0.999998 h 17.510187 c 0.617323,0 1.122456,0.45 1.122456,0.999998 z"
       id="path2-3-3"
       style="fill:#d6dbf1;fill-opacity:1;stroke-width:0.529727" />
  </g>
  <g
     id="22-22-apport"
     transform="translate(32.000001,10)">
    <path
       style="opacity:0.00100002;fill:#a8aeca;fill-opacity:1;stroke-width:0.6875"
       d="M 0,0 V 22 H 22 V 0 Z"
       id="path7-3" />
    <rect
       style="fill:#4e5a7e;fill-opacity:0.501961;stroke:none;stroke-width:0.34785"
       id="center-3-35-3"
       width="13.2"
       height="14.666667"
       x="4.3833332"
       y="3.666667"
       ry="0.66666728"
       rx="0.59999973" />
    <path
       d="M 10.98336,5 C 10.380798,5 9.892397,5.488404 9.892397,6.090962 l 0.181869,7.090835 c 0,0.502106 0.406972,0.909077 0.909077,0.909077 0.502105,0 0.909085,-0.406971 0.909085,-0.909077 L 12.074297,6.090962 C 12.074297,5.488404 11.585888,5 10.983334,5 Z m 0,9.818074 c -0.602562,0 -1.090963,0.488409 -1.090963,1.090963 0,0.602426 0.488401,1.090963 1.090963,1.090963 0.602554,0 1.090963,-0.488401 1.090963,-1.090963 0,-0.602554 -0.488409,-1.090963 -1.090963,-1.090963 z"
       id="path67-6"
       style="fill:#da4453;fill-opacity:1;stroke-width:0.0324672" />
    <path
       d="M 16.820072,3 H 5.1466139 C 4.323485,3 3.65,3.6 3.65,4.333332 V 17.666665 C 3.65,18.4 4.323485,19 5.1466139,19 H 16.820072 c 0.82313,0 1.496595,-0.6 1.496595,-1.333335 V 4.333332 C 18.316667,3.6 17.643203,3 16.820072,3 Z m 0.748304,14.666665 c 0,0.366663 -0.336756,0.666663 -0.748304,0.666663 H 5.1466139 c -0.4115819,0 -0.7483049,-0.3 -0.7483049,-0.666663 V 4.333332 c 0,-0.366665 0.336723,-0.666665 0.7483049,-0.666665 H 16.820072 c 0.411548,0 0.748304,0.3 0.748304,0.666665 z"
       id="path2-3-3-7"
       style="fill:#d6dbf1;fill-opacity:1;stroke-width:0.353151" />
  </g>
</svg>
