<?xml version="1.0" encoding="UTF-8" standalone="no"?>
<svg
   id="svg50"
   width="32"
   height="32"
   version="1.1"
   sodipodi:docname="audio.svg"
   inkscape:version="1.1.2 (0a00cf5339, 2022-02-04)"
   xmlns:inkscape="http://www.inkscape.org/namespaces/inkscape"
   xmlns:sodipodi="http://sodipodi.sourceforge.net/DTD/sodipodi-0.dtd"
   xmlns="http://www.w3.org/2000/svg"
   xmlns:svg="http://www.w3.org/2000/svg"
   xmlns:rdf="http://www.w3.org/1999/02/22-rdf-syntax-ns#"
   xmlns:cc="http://creativecommons.org/ns#"
   xmlns:dc="http://purl.org/dc/elements/1.1/">
  <g
     id="22-22-audio-volume-high"
     transform="translate(0,-22)">
    <path
       style="opacity:0.00100002;fill:#d6dbf1;fill-opacity:1"
       d="M 0,0 H 22 V 22 H 0 Z"
       id="path7" />
    <path
       inkscape:connector-curvature="0"
       id="fill-02"
       d="M 9.0988058,6.9301251 V 15.14581 L 13,18.442488 V 3.4998642 Z"
       style="color:#1e92ff;fill:#4e5a7e;fill-opacity:0.501961;fill-rule:nonzero;stroke:none;stroke-width:0.881961"
       class="ColorScheme-ButtonFocus"
       sodipodi:nodetypes="ccccc" />
    <path
       d="M 12.7288,2.203686 8.3684216,6.2484066 v 0.00558 c -0.026838,0 -0.053664,-0.00423 -0.081218,-0.00423 h -2.905709 c -0.4865801,0 -0.3664936,0.8081766 -0.8810665,0.9342063 -3.3339041,0.8165439 -3.3339041,6.8155701 0,7.5928811 0.5188536,0.120972 0.3944864,0.934206 0.8810665,0.934206 h 2.9057093 c 0.027125,1.8e-5 0.054241,-0.0014 0.081218,-0.0042 v 0.04418 L 12.7288,19.796451 C 13.206484,20.239428 14.000127,19.911899 14,19.271837 V 2.7281934 C 14.000127,2.0881305 13.206484,1.7606007 12.7288,2.203578 Z M 13,18 9.5990153,15.14581 V 6.9301251 L 13,4 Z"
       id="path8-3-3-6-9-3"
       style="fill:#d6dbf1;fill-opacity:1;stroke-width:0.0713157"
       sodipodi:nodetypes="cccsssssccccccccccccc" />
    <path
       d="m 15.183291,14.640032 a 4.5714388,4.5714388 0 0 0 0,-7.497497 0.49445602,0.49445602 0 0 0 -0.781311,0.401877 v 0.036477 a 0.50146959,0.50146959 0 0 0 0.215317,0.4074876 3.5551739,3.5551739 0 0 1 0,5.8058254 0.50146959,0.50146959 0 0 0 -0.215317,0.408189 v 0.03577 a 0.49094925,0.49094925 0 0 0 0.781311,0.401877 z"
       id="path4-367-75-1-7"
       style="fill:#d6dbf1;fill-opacity:1;stroke-width:0.0701356" />
    <path
       d="m 15.058449,3.8565675 a 0.49094925,0.49094925 0 0 0 -0.652962,0.4671027 v 0.032967 a 0.49726146,0.49726146 0 0 0 0.33595,0.4678047 6.5864348,6.5864348 0 0 1 0,12.4336401 0.49726146,0.49726146 0 0 0 -0.33595,0.467804 v 0.03297 a 0.49094925,0.49094925 0 0 0 0.652962,0.467804 7.6055055,7.6055055 0 0 0 0,-14.3700841 z"
       id="path6-5-3-27-5"
       style="fill:#d6dbf1;fill-opacity:1;stroke-width:0.0701356" />
  </g>
  <metadata
     id="metadata67">
    <rdf:RDF>
      <cc:Work
         rdf:about="">
        <dc:format>image/svg+xml</dc:format>
        <dc:type
           rdf:resource="http://purl.org/dc/dcmitype/StillImage" />
      </cc:Work>
    </rdf:RDF>
  </metadata>
  <defs
     id="defs65" />
  <sodipodi:namedview
     pagecolor="#ffffff"
     bordercolor="#000000"
     borderopacity="1"
     objecttolerance="10"
     gridtolerance="10"
     guidetolerance="10"
     inkscape:pageopacity="0"
     inkscape:pageshadow="2"
     inkscape:window-width="1920"
     inkscape:window-height="1009"
     id="namedview63"
     showgrid="false"
     inkscape:zoom="4.9062498"
     inkscape:cx="71.745226"
     inkscape:cy="9.1719749"
     inkscape:window-x="0"
     inkscape:window-y="0"
     inkscape:window-maximized="1"
     inkscape:current-layer="svg50"
     inkscape:document-rotation="0"
     inkscape:lockguides="false"
     inkscape:showpageshadow="true"
     inkscape:pagecheckerboard="0"
     showguides="false">
    <inkscape:grid
       type="xygrid"
       id="grid2054"
       originx="0"
       originy="0" />
  </sodipodi:namedview>
  <g
     id="audio-volume-high">
    <path
       style="opacity:0.00100002;fill:#d6dbf1;fill-opacity:1"
       d="M 0,0 H 32.000001 V 32.000001 H 0 Z"
       id="path2" />
    <path
       inkscape:connector-curvature="0"
       id="fill"
       d="M 13.5,10.574425 V 21.530452 L 18.000003,26 V 6 Z"
       style="color:#1e92ff;fill:#4e5a7e;fill-opacity:0.501961;fill-rule:nonzero;stroke:none;stroke-width:1.17614"
       class="ColorScheme-ButtonFocus"
       sodipodi:nodetypes="ccccc" />
    <path
       d="m 17.537772,4.271482 -5.623919,5.393837 v 0.0075 c -0.03461,0 -0.06921,-0.0056 -0.104753,-0.0056 H 8.0613789 c -0.6275812,0 -0.4726961,1.077744 -1.1363812,1.245811 -4.2999969,1.088902 -4.2999969,9.088902 0,10.125486 0.6692062,0.161323 0.5088,1.245811 1.1363812,1.245811 H 11.8091 c 0.03499,2.4e-5 0.06996,-0.0018 0.104753,-0.0056 v 0.05892 l 5.623919,5.394772 C 18.153882,28.323151 19.000163,27.886375 19,27.03282 V 4.971082 c 1.64e-4,-0.853555 -0.846118,-1.290333 -1.462228,-0.6996 z M 18.000003,26 13.501049,21.530452 V 10.574425 L 18.000003,6 Z"
       id="path8-3-3-6-9"
       style="fill:#d6dbf1;fill-opacity:1;stroke-width:0.0935293"
       sodipodi:nodetypes="cccssssscccccccccccc" />
    <path
       d="m 21.613966,20.855971 a 6.0962424,6.0962424 0 0 0 0,-9.998287 0.65938184,0.65938184 0 0 0 -1.041917,0.535923 v 0.04864 a 0.66873478,0.66873478 0 0 0 0.287135,0.543405 4.7410022,4.7410022 0 0 1 0,7.742359 0.66873478,0.66873478 0 0 0 -0.287135,0.54434 v 0.0477 a 0.65470538,0.65470538 0 0 0 1.041917,0.535924 z"
       id="path4-367-75-1"
       style="fill:#d6dbf1;fill-opacity:1;stroke-width:0.0935293" />
    <path
       d="m 21.447483,6.475682 a 0.65470538,0.65470538 0 0 0 -0.870758,0.622905 v 0.04396 a 0.66312302,0.66312302 0 0 0 0.448006,0.623841 8.7833403,8.7833403 0 0 1 0,16.580881 0.66312302,0.66312302 0 0 0 -0.448006,0.623841 v 0.04396 a 0.65470538,0.65470538 0 0 0 0.870758,0.62384 10.142322,10.142322 0 0 0 0,-19.163226 z"
       id="path6-5-3-27"
       style="fill:#d6dbf1;fill-opacity:1;stroke-width:0.0935293" />
  </g>
  <g
     id="audio-volume-medium"
     transform="translate(32.000001)">
    <path
       style="opacity:0.00100002;fill:#d6dbf1;fill-opacity:1"
       d="M 0,0 H 32.000001 V 32.000001 H 0 Z"
       id="path31" />
    <path
       inkscape:connector-curvature="0"
       id="fill-0"
       d="M 13.5,10.574425 V 21.530452 L 18.000002,26 V 6 Z"
       style="color:#1e92ff;fill:#4e5a7e;fill-opacity:0.501961;fill-rule:nonzero;stroke:none;stroke-width:1.17614"
       class="ColorScheme-ButtonFocus"
       sodipodi:nodetypes="ccccc" />
    <path
       d="m 17.537772,4.2714818 -5.623919,5.393837 v 0.0075 c -0.03461,0 -0.06921,-0.0056 -0.104753,-0.0056 H 8.0613789 c -0.6275812,0 -0.4726962,1.0777442 -1.1363811,1.2458112 -4.2999971,1.088902 -4.2999971,9.088902 0,10.125486 0.6692058,0.161323 0.5087999,1.245811 1.1363811,1.245811 H 11.8091 c 0.03499,2.4e-5 0.06996,-0.0018 0.104753,-0.0056 v 0.05892 l 5.623919,5.394772 c 0.61611,0.590732 1.46239,0.153956 1.462227,-0.699599 V 4.9710818 c 1.64e-4,-0.853555 -0.846117,-1.290333 -1.462227,-0.6996 z M 17.999999,26 13.501049,21.530452 V 10.574425 L 18.000002,6 Z"
       id="path8-3-3-6-9-9"
       style="fill:#d6dbf1;fill-opacity:1;stroke-width:0.0935293"
       sodipodi:nodetypes="cccssssscccccccccccc" />
    <path
       d="m 21.613966,20.855971 a 6.0962424,6.0962424 0 0 0 0,-9.998287 0.65938184,0.65938184 0 0 0 -1.041917,0.535923 v 0.04864 a 0.66873478,0.66873478 0 0 0 0.287135,0.543405 4.7410022,4.7410022 0 0 1 0,7.742359 0.66873478,0.66873478 0 0 0 -0.287135,0.54434 v 0.0477 a 0.65470538,0.65470538 0 0 0 1.041917,0.535924 z"
       id="path4-367-75-1-3"
       style="fill:#d6dbf1;fill-opacity:1;stroke-width:0.0935293" />
    <path
       d="m 21.447483,6.4756818 a 0.65470538,0.65470538 0 0 0 -0.870758,0.622905 v 0.04396 a 0.66312302,0.66312302 0 0 0 0.448006,0.623841 8.7833403,8.7833403 0 0 1 0,16.5808812 0.66312302,0.66312302 0 0 0 -0.448006,0.623841 v 0.04396 a 0.65470538,0.65470538 0 0 0 0.870758,0.62384 10.142322,10.142322 0 0 0 0,-19.1632262 z"
       id="path6-5-3-27-6"
       style="opacity:0.4;fill:#d6dbf1;fill-opacity:1;stroke-width:0.0935293" />
  </g>
  <g
     id="audio-volume-muted"
     transform="translate(96.000003)">
    <g
       id="g6366">
      <path
         style="opacity:0.00100002"
         d="M 0,0 H 31.999997 V 32.000001 H 0 Z"
         id="path45" />
      <path
         d="m 21.003942,11.000218 h 1.249538 c 0.01353,-1.8e-4 0.02597,-3.85e-4 0.03899,0 0.318556,0.02015 0.637077,0.16061 0.859046,0.390508 l 2.850433,2.851781 2.889494,-2.851781 c 0.331906,-0.287834 0.558109,-0.381758 0.859031,-0.390508 h 1.249513 v 1.249868 c 0,0.358139 -0.04293,0.688571 -0.312377,0.937568 l -2.850434,2.851707 2.811392,2.812377 c 0.23513,0.235005 0.351407,0.566812 0.351419,0.898213 V 21 h -1.249484 c -0.331496,-1.7e-5 -0.662986,-0.113612 -0.898099,-0.351486 l -2.85044,-2.851635 -2.850441,2.851635 C 22.916419,20.883519 22.584923,21 22.253429,21 h -1.249504 v -1.250049 c 0,-0.3314 0.11636,-0.663208 0.351453,-0.898213 l 2.850438,-2.812377 -2.850438,-2.851707 C 21.09204,12.944366 20.976569,12.601056 21.003925,12.250086 Z"
         style="fill:#da4453;fill-opacity:1;stroke-width:1.45803"
         id="path48"
         inkscape:connector-curvature="0" />
      <path
         inkscape:connector-curvature="0"
         id="fill-8"
         d="M 13.5,10.574425 V 21.530452 L 18,26 V 6 Z"
         style="color:#1e92ff;fill:#4e5a7e;fill-opacity:0.501961;fill-rule:nonzero;stroke:none;stroke-width:1.17614"
         class="ColorScheme-ButtonFocus"
         sodipodi:nodetypes="ccccc" />
      <path
         d="m 17.53777,4.2714818 -5.62392,5.393837 v 0.0075 c -0.0346,0 -0.0692,-0.0056 -0.10475,-0.0056 H 8.06138 c -0.62758,0 -0.4727,1.0777442 -1.13638,1.2458112 -4.3,1.088902 -4.3,9.088902 0,10.125486 0.6692,0.161323 0.5088,1.245811 1.13638,1.245811 h 3.74772 c 0.035,2.4e-5 0.07,-0.0018 0.10475,-0.0056 v 0.05892 l 5.62392,5.394772 c 0.61611,0.590732 1.462387,0.153956 1.462227,-0.699599 V 4.9710818 c 1.6e-4,-0.853555 -0.846117,-1.290333 -1.462227,-0.6996 z M 18,26 13.50107,21.530452 V 10.574425 L 18,6 Z"
         id="path8-3-3-6-9-7"
         style="fill:#d6dbf1;fill-opacity:1;stroke-width:0.0935293"
         sodipodi:nodetypes="cccssssscccccccccccc" />
    </g>
  </g>
  <g
     id="audio-volume-low"
     transform="translate(64.000002)">
    <path
       style="opacity:0.00100002;fill:#d6dbf1;fill-opacity:1"
       d="M 0,0 H 32.000001 V 32.000001 H 0 Z"
       id="path38" />
    <path
       inkscape:connector-curvature="0"
       id="fill-06"
       d="M 13.5,10.574425 V 21.530452 L 18.000001,26 V 6 Z"
       style="color:#1e92ff;fill:#4e5a7e;fill-opacity:0.501961;fill-rule:nonzero;stroke:none;stroke-width:1.17614"
       class="ColorScheme-ButtonFocus"
       sodipodi:nodetypes="ccccc" />
    <path
       d="m 17.53777,4.2714818 -5.62392,5.393837 v 0.0075 c -0.0346,0 -0.0692,-0.0056 -0.10475,-0.0056 H 8.0613786 c -0.627581,0 -0.472696,1.0777442 -1.136381,1.2458112 -4.2999968,1.088902 -4.2999968,9.088902 0,10.125486 0.669206,0.161323 0.5088,1.245811 1.136381,1.245811 H 11.8091 c 0.035,2.4e-5 0.07,-0.0018 0.10475,-0.0056 v 0.05892 l 5.62392,5.394772 c 0.61611,0.590732 1.462388,0.153956 1.462228,-0.699599 V 4.9710818 c 1.6e-4,-0.853555 -0.846118,-1.290333 -1.462228,-0.6996 z M 18.000001,26 13.50107,21.530452 V 10.574425 L 18.000001,6 Z"
       id="path8-3-3-6-9-2"
       style="fill:#d6dbf1;fill-opacity:1;stroke-width:0.0935293"
       sodipodi:nodetypes="cccssssscccccccccccc" />
    <path
       d="m 21.61397,20.855971 a 6.0962423,6.0962424 0 0 0 0,-9.998287 0.65938183,0.65938184 0 0 0 -1.04192,0.535923 v 0.04864 a 0.66873477,0.66873478 0 0 0 0.28713,0.543405 4.7410022,4.7410022 0 0 1 0,7.742359 0.66873477,0.66873478 0 0 0 -0.28713,0.54434 v 0.0477 a 0.65470537,0.65470538 0 0 0 1.04192,0.535924 z"
       id="path4-367-75-1-6"
       style="opacity:0.4;fill:#d6dbf1;fill-opacity:1;stroke-width:0.0935293" />
    <path
       d="m 21.44748,6.4756818 a 0.65470537,0.65470538 0 0 0 -0.87076,0.622905 v 0.04396 a 0.66312301,0.66312302 0 0 0 0.44801,0.623841 8.7833402,8.7833403 0 0 1 0,16.5808812 0.66312301,0.66312302 0 0 0 -0.44801,0.623841 v 0.04396 a 0.65470537,0.65470538 0 0 0 0.87076,0.62384 10.142322,10.142322 0 0 0 0,-19.1632262 z"
       id="path6-5-3-27-1"
       style="opacity:0.4;fill:#d6dbf1;fill-opacity:1;stroke-width:0.0935293" />
  </g>
  <g
     id="22-22-audio-volume-medium"
     transform="translate(32.000001,-22)">
    <path
       style="opacity:0.00100002;fill:#d6dbf1;fill-opacity:1"
       d="M 0,0 H 22 V 22 H 0 Z"
       id="path12" />
    <path
       inkscape:connector-curvature="0"
       id="fill-02-9"
       d="M 9.0988043,6.9301251 V 15.14581 l 3.9011947,3.402572 V 3.5605674 Z"
       style="color:#1e92ff;fill:#4e5a7e;fill-opacity:0.501961;fill-rule:nonzero;stroke:none;stroke-width:0.881961"
       class="ColorScheme-ButtonFocus"
       sodipodi:nodetypes="ccccc" />
    <path
       d="M 12.728799,2.203686 8.3684198,6.2484066 v 0.00558 c -0.026842,0 -0.053661,-0.00423 -0.081216,-0.00423 H 5.381495 c -0.4865813,0 -0.3664947,0.8081766 -0.8810667,0.9342063 -3.3339057,0.8165439 -3.3339057,6.8155701 0,7.5928811 0.5188526,0.120972 0.3944854,0.934206 0.8810667,0.934206 h 2.905709 c 0.02712,1.8e-5 0.05424,-0.0014 0.081216,-0.0042 v 0.04418 l 4.360379,4.045421 c 0.477684,0.442977 1.271327,0.115448 1.2712,-0.524614 V 2.7281934 C 14.000126,2.0881305 13.206483,1.7606007 12.728799,2.203578 Z M 12.999999,18 9.5990141,15.14581 V 6.9301251 L 12.999999,4 Z"
       id="path8-3-3-6-9-3-2"
       style="fill:#d6dbf1;fill-opacity:1;stroke-width:0.0713158"
       sodipodi:nodetypes="cccsssssccccccccccccc" />
    <path
       d="m 15.183289,14.640032 a 4.5714388,4.5714388 0 0 0 0,-7.497497 0.49445602,0.49445602 0 0 0 -0.781311,0.401877 v 0.036477 a 0.50146959,0.50146959 0 0 0 0.215317,0.4074876 3.5551739,3.5551739 0 0 1 0,5.8058254 0.50146959,0.50146959 0 0 0 -0.215317,0.408189 v 0.03577 a 0.49094925,0.49094925 0 0 0 0.781311,0.401877 z"
       id="path4-367-75-1-7-2"
       style="fill:#d6dbf1;fill-opacity:1;stroke-width:0.0701356" />
    <path
       d="m 15.058447,3.8565675 a 0.49094925,0.49094925 0 0 0 -0.652962,0.4671027 v 0.032967 a 0.49726146,0.49726146 0 0 0 0.33595,0.4678047 6.5864348,6.5864348 0 0 1 0,12.4336401 0.49726146,0.49726146 0 0 0 -0.33595,0.467804 v 0.03297 a 0.49094925,0.49094925 0 0 0 0.652962,0.467804 7.6055055,7.6055055 0 0 0 0,-14.3700841 z"
       id="path6-5-3-27-5-8"
       style="opacity:0.4;fill:#d6dbf1;fill-opacity:1;stroke-width:0.0701356" />
  </g>
  <g
     id="22-22-audio-volume-muted"
     transform="translate(96,-22)">
    <path
       style="opacity:0.00100002"
       d="M 0,0 H 21.999997 V 22 H 0 Z"
       id="path26" />
    <path
       d="m 14.003145,7.000175 h 0.999648 c 0.0095,-1.42e-4 0.02077,-3.1e-4 0.03119,0 0.254836,0.01616 0.509645,0.1285054 0.687232,0.312403 l 2.280332,2.281424 2.311601,-2.281424 c 0.26552,-0.230272 0.446509,-0.305419 0.687244,-0.312403 h 0.999605 v 0.99989 c 0,0.2865119 -0.03433,0.5508559 -0.249905,0.7500559 l -2.280339,2.2813441 2.249119,2.249915 c 0.188095,0.188004 0.281121,0.453474 0.281125,0.718594 V 15 H 21.00041 c -0.265198,-8e-6 -0.530395,-0.091 -0.718481,-0.28119 l -2.280342,-2.2813 -2.280371,2.2813 C 15.533135,14.90681 15.267936,15 15.002742,15 h -0.999605 v -1.000026 c 0,-0.26512 0.0932,-0.53059 0.281175,-0.718594 l 2.280343,-2.249915 -2.280343,-2.2813441 c -0.210651,-0.19464 -0.303049,-0.46928 -0.281175,-0.7500559 z"
       style="fill:#da4453;fill-opacity:1;stroke-width:1.16642"
       id="path48-9"
       inkscape:connector-curvature="0" />
    <path
       inkscape:connector-curvature="0"
       id="fill-02-2"
       d="m 8,6 v 10 l 4.412257,3.330474 V 2.6665158 Z"
       style="color:#1e92ff;fill:#4e5a7e;fill-opacity:0.501961;fill-rule:nonzero;stroke:none;stroke-width:0.979957"
       class="ColorScheme-ButtonFocus"
       sodipodi:nodetypes="ccccc" />
    <path
       d="m 11.728795,2.2036927 -4.3603696,4.044845 v 0.0056 c -0.026802,0 -0.053687,-0.0043 -0.081235,-0.0043 H 4.3814882 c -0.4865803,0 -0.3664937,0.8082016 -0.8810645,0.9342352 -3.33389827,0.8165692 -3.33389827,6.8157721 0,7.5931081 0.5188513,0.120975 0.3944842,0.934236 0.8810645,0.934236 h 2.9057011 c 0.027072,1.9e-5 0.054245,-0.0015 0.081235,-0.0047 v 0.04415 l 4.3603697,4.045547 C 12.206482,20.239407 13.000118,19.911869 13,19.271781 V 2.7282157 C 13.000119,2.0881328 12.206483,1.7605933 11.728795,2.2035847 Z M 12.000003,18 8.5989829,15.146216 V 6.9302772 L 12.000003,4 Z"
       id="path8-3-3-6-9-3-9"
       style="fill:#d6dbf1;fill-opacity:1;stroke-width:0.0713168"
       sodipodi:nodetypes="cccsssssccccccccccccc" />
  </g>
  <g
     id="22-22-audio-volume-low"
     transform="translate(64,-22)">
    <path
       style="opacity:0.00100002;fill:#d6dbf1;fill-opacity:1"
       d="M 0,0 H 22 V 22 H 0 Z"
       id="path19" />
    <path
       inkscape:connector-curvature="0"
       id="fill-02-97"
       d="m 8.8,7 v 8 l 4.24601,3.497427 V 3.4998642 Z"
       style="color:#1e92ff;fill:#4e5a7e;fill-opacity:0.501961;fill-rule:nonzero;stroke:none;stroke-width:0.881961"
       class="ColorScheme-ButtonFocus"
       sodipodi:nodetypes="ccccc" />
    <path
       d="M 12.728799,2.203686 8.3684223,6.2484066 v 0.00558 c -0.026834,0 -0.053667,-0.00423 -0.081216,-0.00423 h -2.905711 c -0.4865803,0 -0.3664937,0.8081766 -0.8810668,0.9342063 -3.3339047,0.8165439 -3.3339047,6.8155701 0,7.5928811 0.5188538,0.120972 0.3944865,0.934206 0.8810668,0.934206 h 2.9057091 c 0.027126,1.8e-5 0.054242,-0.0014 0.081216,-0.0042 v 0.04418 l 4.3603786,4.045421 C 13.206491,20.239428 14.000128,19.911899 14,19.271837 L 13.999875,2.7281934 C 14.000002,2.0881305 13.206491,1.7606007 12.728799,2.203578 Z M 13,18 9.5990167,15.14581 V 6.9301251 L 13,4 Z"
       id="path8-3-3-6-9-3-3"
       style="fill:#d6dbf1;fill-opacity:1;stroke-width:0.0713158"
       sodipodi:nodetypes="cccsssssccccccccccccc" />
    <path
       d="m 15.183291,14.640032 a 4.5714388,4.5714388 0 0 0 0,-7.497497 0.49445602,0.49445602 0 0 0 -0.781311,0.401877 v 0.036477 a 0.50146959,0.50146959 0 0 0 0.215317,0.4074876 3.5551739,3.5551739 0 0 1 0,5.8058254 0.50146959,0.50146959 0 0 0 -0.215317,0.408189 v 0.03577 a 0.49094925,0.49094925 0 0 0 0.781311,0.401877 z"
       id="path4-367-75-1-7-6"
       style="opacity:0.4;fill:#d6dbf1;fill-opacity:1;stroke-width:0.0701356" />
    <path
       d="m 15.058449,3.8565675 a 0.49094925,0.49094925 0 0 0 -0.652962,0.4671027 v 0.032967 a 0.49726146,0.49726146 0 0 0 0.33595,0.4678047 6.5864348,6.5864348 0 0 1 0,12.4336401 0.49726146,0.49726146 0 0 0 -0.33595,0.467804 v 0.03297 a 0.49094925,0.49094925 0 0 0 0.652962,0.467804 7.6055055,7.6055055 0 0 0 0,-14.3700841 z"
       id="path6-5-3-27-5-1"
       style="opacity:0.4;fill:#d6dbf1;fill-opacity:1;stroke-width:0.0701356" />
  </g>
</svg>
