<?xml version="1.0" encoding="UTF-8" standalone="no"?>
<svg
   width="32"
   height="32"
   version="1.1"
   id="svg12"
   sodipodi:docname="bookmarks.svg"
   inkscape:version="1.1.1 (3bf5ae0d25, 2021-09-20)"
   xmlns:inkscape="http://www.inkscape.org/namespaces/inkscape"
   xmlns:sodipodi="http://sodipodi.sourceforge.net/DTD/sodipodi-0.dtd"
   xmlns:xlink="http://www.w3.org/1999/xlink"
   xmlns="http://www.w3.org/2000/svg"
   xmlns:svg="http://www.w3.org/2000/svg"
   xmlns:rdf="http://www.w3.org/1999/02/22-rdf-syntax-ns#"
   xmlns:cc="http://creativecommons.org/ns#"
   xmlns:dc="http://purl.org/dc/elements/1.1/">
  <g
     id="22-22-bookmarks"
     transform="translate(32,10)">
    <rect
       y="0"
       x="0"
       height="22"
       width="22"
       id="rect820-6"
       style="clip-rule:evenodd;fill:#2020ff;fill-opacity:0;fill-rule:evenodd;stroke-width:0.6875;stroke-linejoin:round;stroke-miterlimit:1.41421" />
    <rect
       style="fill:#5599ff;fill-opacity:0.1;stroke:none;stroke-width:0.499999"
       id="center-3-1"
       width="19.999968"
       height="20"
       x="1"
       y="1"
       ry="1.2646065"
       rx="1.2828964" />
    <path
       d="m 14.421817,8.115778 c -0.775958,0 -1.505424,0.302197 -2.05404,0.850813 L 11.87696,9.457344 11.386205,8.966653 C 10.837527,8.417975 10.108124,8.115841 9.3321651,8.115841 c -0.775894,0 -1.505424,0.302134 -2.05404,0.850812 -0.548679,0.54868 -0.850813,1.278146 -0.850813,2.054042 0,0.775895 0.302196,1.505423 0.850813,2.05404 l 4.0404899,4.040491 c 0.149078,0.149139 0.347426,0.231322 0.558345,0.231322 0.210918,0 0.409266,-0.08212 0.558344,-0.23126 l 4.040428,-4.04049 c 0.548742,-0.54868 0.850875,-1.278082 0.850875,-2.054041 0,-0.775894 -0.302133,-1.505362 -0.850813,-2.05404 C 15.927178,8.417912 15.197712,8.115778 14.421817,8.115778 Z m 1.383952,4.288932 -3.928747,3.928809 -3.9288089,-3.928809 c -0.369661,-0.369723 -0.573314,-0.861236 -0.573314,-1.384015 0,-0.522844 0.203591,-1.014357 0.573314,-1.38408 0.369723,-0.369723 0.861235,-0.573313 1.384079,-0.573313 0.522843,0 1.0143549,0.20359 1.3840779,0.573313 l 0.602372,0.60231 c 0.149077,0.14914 0.347426,0.231321 0.558344,0.231321 0.210918,0 0.409267,-0.08211 0.55828,-0.231258 l 0.602499,-0.602435 c 0.36966,-0.369725 0.861171,-0.573315 1.383952,-0.573315 0.522843,6.4e-5 1.014355,0.203654 1.384078,0.573315 0.369723,0.369723 0.573253,0.861235 0.573253,1.384015 -6.4e-5,0.522906 -0.203592,1.014419 -0.573379,1.384142 z"
       id="path4-3-2"
       style="fill:url(#linearGradient1816);fill-opacity:1;stroke-width:0.0631682" />
    <path
       d="m 19.656244,20.983242 c 0.765651,-7.4e-4 1.38852,-0.622912 1.38852,-1.38852 V 2.38852 C 21.044764,1.622912 20.421895,1 19.656244,1 H 2.5861541 c -0.176962,0 -0.320769,0.143466 -0.320769,0.320428 0,0.176961 0.143807,0.320427 0.320769,0.320427 H 19.656244 c 0.412241,0 0.747664,0.335424 0.747664,0.747665 V 3.030102 C 20.187897,2.891464 19.931427,2.810716 19.656244,2.810716 H 2.3885201 c -0.765608,0 -1.38852,0.622912 -1.38852,1.38852 v 3.996589 c 0,0.176961 0.143466,0.320427 0.320428,0.320427 0.176961,0 0.320427,-0.143466 0.320427,-0.320427 V 4.199236 c 0,-0.412241 0.335424,-0.747664 0.747665,-0.747664 H 19.656244 c 0.412241,0 0.747664,0.335423 0.747664,0.747664 V 4.55897 C 20.187897,4.420332 19.931427,4.339584 19.656244,4.339584 H 4.0806351 c -0.765609,0 -1.38852,0.622911 -1.38852,1.38852 v 9.751599 c 0,0.176962 0.143466,0.320428 0.320427,0.320428 0.176962,0 0.320429,-0.143466 0.320429,-0.320428 V 5.728061 c 0,-0.412241 0.335423,-0.747665 0.747664,-0.747665 H 19.656244 c 0.412241,0 0.747664,0.335424 0.747664,0.747665 v 13.866661 c 0,0.41224 -0.335423,0.747664 -0.747664,0.747664 H 4.0806351 c -0.412241,0 -0.747664,-0.335424 -0.747664,-0.747664 v -2.718595 c 0,-0.176962 -0.143467,-0.320428 -0.320429,-0.320428 -0.176961,0 -0.320427,0.143466 -0.320427,0.320428 v 2.718595 c 0,0.275183 0.08079,0.531653 0.219429,0.747664 h -0.523024 c -0.412241,0 -0.747665,-0.335424 -0.747665,-0.747664 V 9.592292 c 0,-0.176962 -0.143466,-0.320428 -0.320427,-0.320428 -0.176962,0 -0.320428,0.143466 -0.320428,0.320428 v 10.00243 c 0,0.275183 0.08079,0.531653 0.219429,0.747664 v 0 0 0 0 0 0 0 0 0 l 0.33618,-0.340656 -0.33618,0.340656 0.33618,-0.340656 -0.33618,0.340656 v 0 0 0 0 0 c 0.276296,0.412655 0.587446,0.559995 1.097386,0.657613 z"
       id="path6-3-56-7"
       sodipodi:nodetypes="ssssssssscsssssssssscsssssssssssssssssscssssssccccccccccccccccccccs"
       style="fill:url(#linearGradient1818);fill-opacity:1;stroke-width:0.0427237" />
  </g>
  <metadata
     id="metadata18">
    <rdf:RDF>
      <cc:Work
         rdf:about="">
        <dc:format>image/svg+xml</dc:format>
        <dc:type
           rdf:resource="http://purl.org/dc/dcmitype/StillImage" />
      </cc:Work>
    </rdf:RDF>
  </metadata>
  <defs
     id="defs16">
    <linearGradient
       inkscape:collect="always"
       id="linearGradient1015">
      <stop
         style="stop-color:#f28fad;stop-opacity:1"
         offset="0"
         id="stop1011" />
      <stop
         style="stop-color:#fae3b0;stop-opacity:1"
         offset="1"
         id="stop1013" />
    </linearGradient>
    <linearGradient
       inkscape:collect="always"
       xlink:href="#linearGradient1015"
       id="linearGradient870-3"
       x1="12.337299"
       y1="18.102324"
       x2="21.920532"
       y2="18.102324"
       gradientUnits="userSpaceOnUse"
       gradientTransform="matrix(1.4785284,0,0,1.4785284,-8.185543,-8.514288)" />
    <linearGradient
       inkscape:collect="always"
       xlink:href="#linearGradient1015"
       id="linearGradient862-5"
       x1="3"
       y1="16"
       x2="29.058193"
       y2="16"
       gradientUnits="userSpaceOnUse" />
    <linearGradient
       inkscape:collect="always"
       xlink:href="#linearGradient1015"
       id="linearGradient1816"
       gradientUnits="userSpaceOnUse"
       gradientTransform="matrix(1.1373295,0,0,1.1373295,-7.6042629,-7.857145)"
       x1="12.337299"
       y1="18.102324"
       x2="21.920532"
       y2="18.102324" />
    <linearGradient
       inkscape:collect="always"
       xlink:href="#linearGradient1015"
       id="linearGradient1818"
       gradientUnits="userSpaceOnUse"
       x1="3"
       y1="16"
       x2="29.058193"
       y2="16"
       gradientTransform="matrix(0.76923077,0,0,0.76923077,-1.3076919,-1.307692)" />
  </defs>
  <sodipodi:namedview
     pagecolor="#ffffff"
     bordercolor="#000000"
     borderopacity="1"
     objecttolerance="10"
     gridtolerance="10"
     guidetolerance="10"
     inkscape:pageopacity="0"
     inkscape:pageshadow="2"
     inkscape:window-width="1920"
     inkscape:window-height="1007"
     id="namedview14"
     showgrid="false"
     inkscape:zoom="6.9384853"
     inkscape:cx="27.239375"
     inkscape:cy="20.105253"
     inkscape:window-x="0"
     inkscape:window-y="0"
     inkscape:window-maximized="1"
     inkscape:current-layer="svg12"
     inkscape:document-rotation="0"
     inkscape:lockguides="true"
     inkscape:showpageshadow="false"
     inkscape:pagecheckerboard="0"
     showguides="false">
    <inkscape:grid
       type="xygrid"
       id="grid857"
       originx="0"
       originy="0" />
  </sodipodi:namedview>
  <g
     id="g997" />
  <g
     id="g999"
     transform="translate(32,10)" />
  <g
     id="bookmarks">
    <rect
       y="0"
       x="0"
       height="32"
       width="32"
       id="rect820"
       style="clip-rule:evenodd;fill:#2020ff;fill-opacity:0;fill-rule:evenodd;stroke-linejoin:round;stroke-miterlimit:1.41421" />
    <rect
       style="fill:#5599ff;fill-opacity:0.1;stroke:none;stroke-width:0.649999"
       id="center-3"
       width="25.999958"
       height="26"
       x="3"
       y="3"
       ry="1.6439885"
       rx="1.6677654" />
    <path
       d="m 20.448362,12.250512 c -1.008745,0 -1.957051,0.392855 -2.670252,1.106056 l -0.638062,0.637979 -0.637981,-0.637898 c -0.713282,-0.713282 -1.661506,-1.106056 -2.670252,-1.106056 -1.008663,0 -1.957052,0.392774 -2.670253,1.106056 -0.713282,0.713284 -1.106056,1.66159 -1.106056,2.670254 0,1.008664 0.392855,1.957051 1.106056,2.670252 l 5.252638,5.252639 c 0.193801,0.193881 0.451653,0.300718 0.725848,0.300718 0.274193,0 0.532046,-0.10675 0.725847,-0.300637 l 5.252556,-5.252638 c 0.713365,-0.713283 1.106138,-1.661506 1.106138,-2.670253 0,-1.008662 -0.392773,-1.95697 -1.106057,-2.670252 -0.7132,-0.713447 -1.661506,-1.10622 -2.67017,-1.10622 z m 1.799138,5.575611 -5.107371,5.107452 -5.107452,-5.107452 c -0.480559,-0.48064 -0.745308,-1.119607 -0.745308,-1.79922 0,-0.679697 0.264668,-1.318663 0.745308,-1.799303 0.48064,-0.48064 1.119605,-0.745308 1.799303,-0.745308 0.679695,0 1.318661,0.264668 1.799301,0.745308 l 0.783083,0.783002 c 0.193801,0.193883 0.451654,0.300718 0.725848,0.300718 0.274193,0 0.532047,-0.10675 0.725764,-0.300636 l 0.783249,-0.783165 c 0.480557,-0.480642 1.119522,-0.74531 1.799137,-0.74531 0.679696,8.3e-5 1.318662,0.264751 1.799302,0.74531 0.48064,0.48064 0.745228,1.119605 0.745228,1.79922 -8.3e-5,0.679777 -0.264669,1.318744 -0.745392,1.799384 z"
       id="path4-3"
       style="fill:url(#linearGradient870-3);fill-opacity:1;stroke-width:0.0821187" />
    <path
       d="m 27.253117,28.978214 c 0.995346,-9.61e-4 1.805076,-0.809785 1.805076,-1.805076 V 4.805076 C 29.058193,3.809785 28.248463,3 27.253117,3 H 5.062 C 4.83195,3 4.645,3.186506 4.645,3.416556 c 0,0.23005 0.18695,0.416556 0.417,0.416556 h 22.191117 c 0.535913,0 0.971964,0.436051 0.971964,0.971964 V 5.639133 C 27.944266,5.458903 27.610855,5.353931 27.253117,5.353931 H 4.805076 C 3.809785,5.353931 3,6.163716 3,7.159007 v 5.195565 c 0,0.23005 0.186506,0.416556 0.416556,0.416556 0.23005,0 0.416556,-0.186506 0.416556,-0.416556 V 7.159007 c 0,-0.535913 0.436051,-0.971964 0.971964,-0.971964 h 22.448041 c 0.535913,0 0.971964,0.436051 0.971964,0.971964 V 7.626661 C 27.944266,7.446431 27.610855,7.341459 27.253117,7.341459 H 7.004826 c -0.995292,0 -1.805077,0.809785 -1.805077,1.805076 v 12.677079 c 0,0.23005 0.186506,0.416556 0.416556,0.416556 0.23005,0 0.416557,-0.186506 0.416557,-0.416556 V 9.146479 c 0,-0.535913 0.43605,-0.971964 0.971964,-0.971964 h 20.248291 c 0.535913,0 0.971964,0.436051 0.971964,0.971964 v 18.026659 c 0,0.535913 -0.436051,0.971964 -0.971964,0.971964 H 7.004826 c -0.535914,0 -0.971964,-0.436051 -0.971964,-0.971964 v -3.534173 c 0,-0.23005 -0.186507,-0.416556 -0.416557,-0.416556 -0.23005,0 -0.416556,0.186506 -0.416556,0.416556 v 3.534173 c 0,0.357738 0.105028,0.69115 0.285258,0.971964 H 4.805076 c -0.535913,0 -0.971964,-0.436051 -0.971964,-0.971964 V 14.169979 c 0,-0.23005 -0.186506,-0.416556 -0.416556,-0.416556 C 3.186506,13.753423 3,13.939929 3,14.169979 v 13.003159 c 0,0.357738 0.105028,0.69115 0.285258,0.971964 v 0 0 0 0 0 0 0 0 0 l 0.437034,-0.442853 -0.437034,0.442853 0.437034,-0.442853 -0.437034,0.442853 v 0 0 0 0 0 c 0.359184,0.536451 0.763679,0.727993 1.426601,0.854897 z"
       id="path6-3-56"
       sodipodi:nodetypes="ssssssssscsssssssssscsssssssssssssssssscssssssccccccccccccccccccccs"
       style="fill:url(#linearGradient862-5);fill-opacity:1;stroke-width:0.0555408" />
  </g>
</svg>
