<?xml version="1.0" encoding="UTF-8" standalone="no"?>
<svg
   sodipodi:docname="cantata.svg"
   inkscape:version="1.1.1 (3bf5ae0d25, 2021-09-20)"
   viewBox="0 0 32 32"
   id="svg2"
   version="1.1"
   width="32"
   height="32"
   xmlns:inkscape="http://www.inkscape.org/namespaces/inkscape"
   xmlns:sodipodi="http://sodipodi.sourceforge.net/DTD/sodipodi-0.dtd"
   xmlns="http://www.w3.org/2000/svg"
   xmlns:svg="http://www.w3.org/2000/svg"
   xmlns:rdf="http://www.w3.org/1999/02/22-rdf-syntax-ns#"
   xmlns:cc="http://creativecommons.org/ns#"
   xmlns:dc="http://purl.org/dc/elements/1.1/">
  <sodipodi:namedview
     inkscape:document-rotation="0"
     inkscape:lockguides="true"
     inkscape:current-layer="svg2"
     inkscape:window-maximized="1"
     inkscape:window-y="0"
     inkscape:window-x="0"
     inkscape:cy="15.973868"
     inkscape:cx="34.034774"
     inkscape:zoom="6.2289234"
     showgrid="false"
     id="namedview14"
     inkscape:window-height="1007"
     inkscape:window-width="1920"
     inkscape:pageshadow="2"
     inkscape:pageopacity="0"
     guidetolerance="10"
     gridtolerance="10"
     objecttolerance="10"
     borderopacity="1"
     bordercolor="#000000"
     pagecolor="#ffffff"
     inkscape:pagecheckerboard="0"
     inkscape:showpageshadow="false">
    <inkscape:grid
       type="xygrid"
       id="grid1754"
       originx="0"
       originy="0" />
  </sodipodi:namedview>
  <metadata
     id="metadata20">
    <rdf:RDF>
      <cc:Work
         rdf:about="">
        <dc:format>image/svg+xml</dc:format>
        <dc:type
           rdf:resource="http://purl.org/dc/dcmitype/StillImage" />
      </cc:Work>
    </rdf:RDF>
  </metadata>
  <defs
     id="defs3051">
    <style
       type="text/css"
       id="current-color-scheme">
      .ColorScheme-Text {
        color:#31363b;
      }
      </style>
    <linearGradient
       id="oomox"
       x1="0"
       x2="0"
       y1="0"
       y2="16"
       gradientUnits="userSpaceOnUse"
       gradientTransform="matrix(1.5000001,0,0,1.5000001,25.843999,4.0940002)">
      <stop
         offset="0%"
         style="stop-color:#303b3d; stop-opacity:1"
         id="stop18" />
      <stop
         offset="100%"
         style="stop-color:#bc985d; stop-opacity:1"
         id="stop20" />
    </linearGradient>
  </defs>
  <g
     id="cantata">
    <path
       style="fill:none"
       d="M 0,0 V 32 H 32 V 0 Z"
       id="path18" />
    <path
       style="color:#d5c289;fill:#d6dbf1;fill-opacity:1;stroke-width:1.5"
       class="ColorScheme-Text"
       d="M 16,4 C 9.364,4 4,9.364 4,15.999999 4,22.636 9.364,28 16,28 22.636,28 28,22.636 28,15.999999 28,9.364 22.636,4 16,4 Z m 0,1.4999999 c 5.80498,0 10.5,4.6950001 10.5,10.4999991 C 26.5,21.80498 21.80498,26.5 16,26.5 10.19498,26.5 5.5,21.80498 5.5,15.999999 5.5,10.195 10.19498,5.4999999 16,5.4999999 Z m 1.12498,8.5784981 v 0 0 0 0 0 c 0,0 -0.05091,0.012 0,0 z m -1.171491,6.750005 z"
       id="path58"
       sodipodi:nodetypes="ssssssssssccccccccccccccccc" />
    <rect
       style="fill:#4e5a7e;fill-opacity:0.5;stroke:none;stroke-width:0.525"
       id="center-3-35"
       width="21"
       height="21"
       x="5.4559999"
       y="5.506"
       ry="10.499983" />
    <path
       style="color:#31363b;fill:#d6dbf1;fill-opacity:1;stroke:none;stroke-width:1"
       d="m 16.358213,4.106 v 16.993872 c -1.255763,-0.541607 -3.213967,-0.82785 -4.768528,-0.183681 -2.6021254,1.077211 -3.7645634,3.471448 -3.0043824,5.307376 0.760165,1.836517 3.1584784,2.421299 5.7612034,1.343498 2.053128,-0.852293 3.045682,-3.113787 3.042522,-4.448302 l -0.03082,-13.014926 c 0,0 5.100556,0.599118 5.100556,5.397356 0,3.59867 -1.100655,4.59906 -4.100562,7.597958 C 21.358109,21.29981 23.657,19.099863 23.657,15.501193 23.657,10.702955 19.953247,8.545124 19.004682,7.596877 18.404701,6.997093 17.657035,4.706336 17.657035,4.706336 Z"
       class="ColorScheme-Text"
       id="path15-3" />
  </g>
  <g
     id="22-22-cantata"
     transform="translate(54)">
    <path
       style="fill:none"
       d="M -22,10 V 32 H 0 V 10 Z"
       id="path11" />
    <path
       style="color:#d5c289;fill:#d6dbf1;fill-opacity:1;stroke-width:0.995603"
       class="ColorScheme-Text"
       d="M -11.035178,13 C -15.439725,13 -19,16.560275 -19,20.964821 c 0,4.404548 3.560275,7.964823 7.964822,7.964823 4.404547,0 7.964822,-3.560275 7.964822,-7.964823 C -3.070356,16.560275 -6.630631,13 -11.035178,13 Z m 0,0.995603 c 3.85297,0 6.969219,3.116236 6.969219,6.969218 0,3.852971 -3.116249,6.96922 -6.969219,6.96922 -3.852996,0 -6.969219,-3.116249 -6.969219,-6.96922 0,-3.852982 3.116223,-6.969218 6.969219,-6.969218 z m 0.746689,5.693851 v 0 0 0 0 0 c 0,0 -0.03379,0.008 0,0 z m -0.77756,4.480215 z"
       id="path58-3"
       sodipodi:nodetypes="ssssssssssccccccccccccccccc" />
    <rect
       style="fill:#4e5a7e;fill-opacity:0.5;stroke:none;stroke-width:0.348461"
       id="center-3-35-6"
       width="13.938438"
       height="13.938438"
       x="-18.033602"
       y="13.999585"
       ry="6.9692078" />
    <path
       style="color:#31363b;fill:#d6dbf1;fill-opacity:1;stroke:none;stroke-width:0.663735"
       d="m -10.797419,13.070356 v 11.279431 c -0.833494,-0.359484 -2.133223,-0.549474 -3.16504,-0.121916 -1.727122,0.714983 -2.498673,2.304122 -1.994114,3.522692 0.504548,1.218961 2.096393,1.607101 3.823913,0.891727 1.362733,-0.565697 2.021526,-2.06673 2.019429,-2.952494 l -0.02046,-8.638465 c 0,0 3.385418,0.397656 3.385418,3.582415 0,2.388564 -0.730543,3.052558 -2.721687,5.043032 1.991144,-1.194286 3.516998,-2.654468 3.516998,-5.043032 0,-3.184759 -2.458311,-4.616987 -3.087907,-5.246372 -0.398228,-0.398098 -0.89448,-1.918554 -0.89448,-1.918554 z"
       class="ColorScheme-Text"
       id="path15-3-7" />
  </g>
</svg>
