<?xml version="1.0" encoding="UTF-8" standalone="no"?>
<svg
   width="32"
   height="32"
   version="1.1"
   id="svg12"
   sodipodi:docname="choqok_offline.svg"
   inkscape:version="1.1.1 (3bf5ae0d25, 2021-09-20)"
   xmlns:inkscape="http://www.inkscape.org/namespaces/inkscape"
   xmlns:sodipodi="http://sodipodi.sourceforge.net/DTD/sodipodi-0.dtd"
   xmlns="http://www.w3.org/2000/svg"
   xmlns:svg="http://www.w3.org/2000/svg"
   xmlns:rdf="http://www.w3.org/1999/02/22-rdf-syntax-ns#"
   xmlns:cc="http://creativecommons.org/ns#"
   xmlns:dc="http://purl.org/dc/elements/1.1/">
  <g
     id="22-22-choqok_offline"
     transform="translate(32,10)">
    <rect
       style="opacity:0.00100002"
       width="22"
       height="22"
       x="0"
       y="0"
       id="rect2" />
    <path
       fill="none"
       stroke-width="0.694387"
       stroke-linecap="round"
       stroke-linejoin="round"
       stroke-miterlimit="10"
       d="m 19.124752,4.4576295 v 9.2930095 c 0,0.613278 -0.49716,1.110432 -1.110436,1.110432 h -7.706678 l -4.1185975,3.791781 v -3.791781 h -2.081413 c -0.613274,0 -1.110434,-0.497154 -1.110434,-1.110432 V 4.4576295 c 0,-0.613277 0.49716,-1.110436 1.110434,-1.110436 H 18.014316 c 0.613276,0 1.110436,0.497159 1.110436,1.110436 z"
       id="path2-3-3"
       style="stroke:#da4453;stroke-opacity:1" />
    <rect
       style="fill:#4e5a7e;fill-opacity:0.501961;stroke:none;stroke-width:0.324107"
       id="center-3-35-6"
       width="10.866665"
       height="15.466665"
       x="3.6666665"
       y="-18.773336"
       ry="0.5772692"
       transform="rotate(90)" />
    <path
       inkscape:connector-curvature="0"
       style="fill:#da4453;fill-opacity:1;fill-rule:evenodd;stroke-width:0.296296"
       id="path4411-1-6-3-2-7"
       d="m 8.6499965,11.662963 c 2.3356675,2.22666 4.4985605,2.144767 5.5515605,0.874267 1.052993,-1.270493 0.265093,-2.355746 0.265093,-2.355746 z" />
    <path
       inkscape:connector-curvature="0"
       style="color:#000000;fill:#eff0f1;fill-opacity:1;stroke:#d6dbf1;stroke-width:0.888887;stroke-linecap:round;stroke-linejoin:round;stroke-opacity:1"
       id="path4170-2-6-9-5"
       d="m 6.4277765,6.0333305 c -0.50088,0 -0.961693,0.01673 -1.333333,0.2963 V 10.03073 c 0.37164,0.279594 0.832453,0.447047 1.333333,0.447047 1.227294,0 2.52778,-0.5504805 2.52778,-1.7777805 0,-1.2273 -1.300486,-2.666666 -2.52778,-2.666666 z" />
    <path
       inkscape:connector-curvature="0"
       style="color:#000000;fill:#eff0f1;fill-opacity:1;stroke:#d6dbf1;stroke-width:0.888887;stroke-linecap:round;stroke-linejoin:round;stroke-opacity:1"
       id="path4170-8-9-7-1-3"
       d="m 14.27963,5.1444435 c -0.631847,0.77232 -1.034647,1.708207 -0.73538,2.61974 0.418633,1.275113 1.862833,1.434366 3.048453,1.045106 0.12482,-0.041 0.241833,-0.09463 0.353593,-0.155673 v -3.509173 z" />
    <circle
       cx="7.0203719"
       cy="8.2555523"
       style="color:#000000;fill:#1f252f;fill-opacity:1;stroke-width:0.888887;stroke-linecap:round;stroke-linejoin:round"
       r="1.0370369"
       id="path4267-1-5-2-5" />
    <circle
       cx="14.724066"
       cy="7.0703487"
       style="color:#000000;fill:#1f252f;fill-opacity:1;stroke-width:0.888887;stroke-linecap:round;stroke-linejoin:round"
       r="1.0370369"
       id="path4267-9-2-3-7-6" />
    <path
       inkscape:connector-curvature="0"
       style="fill:#1f252f;fill-opacity:1;fill-rule:evenodd;stroke-width:0.296296"
       id="path4411-7-5-0-2"
       d="m 8.9462965,11.664937 c 1.7748605,1.82876 4.1134005,1.736433 4.9135665,0.692966 0.800167,-1.043453 0.201447,-1.934779 0.201447,-1.934779 z" />
    <path
       inkscape:connector-curvature="0"
       style="fill:#da4453;fill-opacity:1;fill-rule:evenodd;stroke:#da4453;stroke-width:0.296296;stroke-opacity:1"
       id="path4284-9-6-9-9"
       d="m 8.6499965,11.662963 c 0,0 0.424207,-1.279679 2.6461805,-1.8567995 2.22198,-0.577107 3.279093,0.3753205 3.279093,0.3753205 0.295886,0.861666 -2.567073,2.200486 -2.567073,2.200486 0,0 -3.1699805,0.170627 -3.3582005,-0.719007 z" />
    <path
       inkscape:connector-curvature="0"
       id="fill-1"
       d="m 6.5497335,14.533335 -0.01307,3.334118 3.6283415,-3.314633 v -0.01949 z"
       style="color:#1e92ff;fill:#4e5a7e;fill-opacity:0.501961;fill-rule:nonzero;stroke:none;stroke-width:0.666667"
       class="ColorScheme-ButtonFocus"
       sodipodi:nodetypes="ccccc" />
  </g>
  <metadata
     id="metadata18">
    <rdf:RDF>
      <cc:Work
         rdf:about="">
        <dc:format>image/svg+xml</dc:format>
        <dc:type
           rdf:resource="http://purl.org/dc/dcmitype/StillImage" />
      </cc:Work>
    </rdf:RDF>
  </metadata>
  <defs
     id="defs16" />
  <sodipodi:namedview
     pagecolor="#ffffff"
     bordercolor="#000000"
     borderopacity="1"
     objecttolerance="10"
     gridtolerance="10"
     guidetolerance="10"
     inkscape:pageopacity="0"
     inkscape:pageshadow="2"
     inkscape:window-width="1920"
     inkscape:window-height="1007"
     id="namedview14"
     showgrid="false"
     inkscape:zoom="9.8125"
     inkscape:cx="28.942675"
     inkscape:cy="21.044586"
     inkscape:window-x="0"
     inkscape:window-y="0"
     inkscape:window-maximized="1"
     inkscape:current-layer="svg12"
     inkscape:document-rotation="0"
     inkscape:lockguides="true"
     inkscape:showpageshadow="false"
     inkscape:pagecheckerboard="0">
    <inkscape:grid
       type="xygrid"
       id="grid941"
       originx="0"
       originy="0" />
  </sodipodi:namedview>
  <g
     id="choqok_offline">
    <rect
       style="opacity:0.00100002"
       width="32"
       height="32"
       x="0"
       y="0"
       id="rect7" />
    <path
       fill="none"
       stroke-width="1.04158"
       stroke-linecap="round"
       stroke-linejoin="round"
       stroke-miterlimit="10"
       d="m 28.062129,6.186443 v 13.939515 c 0,0.919917 -0.74574,1.665648 -1.665654,1.665648 H 14.836457 l -6.177896,5.687673 v -5.687673 h -3.12212 c -0.919911,0 -1.665651,-0.745731 -1.665651,-1.665648 V 6.186443 c 0,-0.919915 0.74574,-1.665653 1.665651,-1.665653 h 20.860034 c 0.919914,0 1.665654,0.745738 1.665654,1.665653 z"
       id="path2-3"
       style="stroke:#da4453;stroke-opacity:1" />
    <rect
       style="fill:#4e5a7e;fill-opacity:0.501961;stroke:none;stroke-width:0.48616"
       id="center-3-35"
       width="16.299999"
       height="23.200001"
       x="5"
       y="-27.535"
       ry="0.86590385"
       transform="rotate(90)" />
    <path
       inkscape:connector-curvature="0"
       style="fill:#da4453;fill-opacity:1;fill-rule:evenodd;stroke-width:0.444444"
       id="path4411-1-6-3-2"
       d="m 12.349995,16.994445 c 3.5035,3.33999 6.74784,3.21715 8.32734,1.3114 1.57949,-1.90574 0.39764,-3.53362 0.39764,-3.53362 z" />
    <path
       inkscape:connector-curvature="0"
       style="color:#000000;fill:#eff0f1;fill-opacity:1;stroke:#d6dbf1;stroke-width:1.33333;stroke-linecap:round;stroke-linejoin:round;stroke-opacity:1"
       id="path4170-2-6-9"
       d="m 9.016665,8.549995 c -0.75132,0 -1.44254,0.0251 -2,0.44445 v 5.55165 c 0.55746,0.41939 1.24868,0.67057 2,0.67057 1.84094,0 3.79167,-0.82572 3.79167,-2.66667 0,-1.84095 -1.95073,-4 -3.79167,-4 z" />
    <path
       inkscape:connector-curvature="0"
       style="color:#000000;fill:#eff0f1;fill-opacity:1;stroke:#d6dbf1;stroke-width:1.33333;stroke-linecap:round;stroke-linejoin:round;stroke-opacity:1"
       id="path4170-8-9-7-1"
       d="m 20.794445,7.216665 c -0.94777,1.15848 -1.55197,2.56231 -1.10307,3.92961 0.62795,1.91267 2.79425,2.15155 4.57268,1.56766 0.18723,-0.0615 0.36275,-0.14194 0.53039,-0.23351 v -5.26376 z" />
    <circle
       cx="9.9055586"
       cy="11.883326"
       style="color:#000000;fill:#1f252f;fill-opacity:1;stroke-width:1.33333;stroke-linecap:round;stroke-linejoin:round"
       r="1.5555556"
       id="path4267-1-5-2" />
    <circle
       cx="21.4611"
       cy="10.105524"
       style="color:#000000;fill:#1f252f;fill-opacity:1;stroke-width:1.33333;stroke-linecap:round;stroke-linejoin:round"
       r="1.5555556"
       id="path4267-9-2-3-7" />
    <path
       inkscape:connector-curvature="0"
       style="fill:#1f252f;fill-opacity:1;fill-rule:evenodd;stroke-width:0.444444"
       id="path4411-7-5-0"
       d="m 12.794445,16.997405 c 2.66229,2.74314 6.1701,2.60465 7.37035,1.03945 1.20025,-1.56518 0.30217,-2.90217 0.30217,-2.90217 z" />
    <path
       inkscape:connector-curvature="0"
       style="fill:#da4453;fill-opacity:1;fill-rule:evenodd;stroke:#da4453;stroke-width:0.444444;stroke-opacity:1"
       id="path4284-9-6-9"
       d="m 12.349995,16.994445 c 0,0 0.63631,-1.91952 3.96927,-2.7852 3.33297,-0.86566 4.91864,0.56298 4.91864,0.56298 0.44383,1.2925 -3.85061,3.30073 -3.85061,3.30073 0,0 -4.75497,0.25594 -5.0373,-1.07851 z" />
    <path
       inkscape:connector-curvature="0"
       id="fill"
       d="M 9.1996,21.300003 9.18,26.30118 14.622511,21.32923 V 21.3 Z"
       style="color:#1e92ff;fill:#4e5a7e;fill-opacity:0.501961;fill-rule:nonzero;stroke:none"
       class="ColorScheme-ButtonFocus"
       sodipodi:nodetypes="ccccc" />
  </g>
</svg>
