<?xml version="1.0" encoding="UTF-8" standalone="no"?>
<svg
   width="32"
   height="32"
   version="1.1"
   id="svg22"
   sodipodi:docname="computer.svg"
   inkscape:version="1.1.1 (3bf5ae0d25, 2021-09-20)"
   xmlns:inkscape="http://www.inkscape.org/namespaces/inkscape"
   xmlns:sodipodi="http://sodipodi.sourceforge.net/DTD/sodipodi-0.dtd"
   xmlns:xlink="http://www.w3.org/1999/xlink"
   xmlns="http://www.w3.org/2000/svg"
   xmlns:svg="http://www.w3.org/2000/svg"
   xmlns:rdf="http://www.w3.org/1999/02/22-rdf-syntax-ns#"
   xmlns:cc="http://creativecommons.org/ns#"
   xmlns:dc="http://purl.org/dc/elements/1.1/">
  <g
     id="computer">
    <rect
       style="opacity:0.00100002"
       width="32"
       height="32"
       x="0"
       y="1.8530274e-07"
       id="rect12" />
    <rect
       style="fill:#5599ff;fill-opacity:0.1;stroke:none;stroke-width:0.602761"
       id="center-3"
       width="28.4"
       height="20.468832"
       x="1.8"
       y="3"
       ry="1.9393426" />
    <path
       d="M 28.624771,3 H 3.42174 C 2.5551,3 1.85,3.70511 1.85,4.5717 v 17.38405 c 0,0.8667 0.7051,1.5718 1.57174,1.5718 h 9.840231 l -0.6493,2.75199 h -3.30858 c -0.52639,0 -0.95463,0.42825 -0.95463,0.95458 v 0.81126 c 0,0.5264 0.42824,0.95462 0.95463,0.95462 h 13.43833 c 0.5264,0 0.95462,-0.42822 0.95462,-0.95462 v -0.81126 c 0,-0.52628 -0.42816,-0.95458 -0.95462,-0.95458 h -3.30846 l -0.6493,-2.75199 h 9.84011 c 0.8667,0 1.57174,-0.7051 1.57174,-1.5718 V 4.5717 C 30.196511,3.70511 29.491531,3 28.624771,3 Z m -5.88235,24.11072 c 0.0677,0 0.12352,0.0556 0.12352,0.1234 v 0.81126 c 0,0.0677 -0.0557,0.12358 -0.12352,0.12358 H 9.304091 c -0.0677,0 -0.1234,-0.0557 -0.1234,-0.12358 v -0.81126 c 0,-0.0677 0.0557,-0.1234 0.1234,-0.1234 z m -9.27588,-0.83112 0.6493,-2.75199 h 3.81495 l 0.6493,2.75199 z m 15.2507,-3.21138 H 3.3292 c -0.40844,0 -1.0196,-0.46257 -1.0196,-1.11241 V 4.5717 c 0,-0.50265 0.56971,-1.11212 1.11244,-1.11212 h 25.295201 c 0.51209,0 1.0196,0.70385 1.0196,1.11212 v 17.38411 0 c 0.068,0.44948 -0.61122,1.11241 -1.0196,1.11241 z"
       id="path2-5"
       style="fill:url(#linearGradient892-3);fill-opacity:1;stroke-width:0.0553649"
       sodipodi:nodetypes="sssssccssssssssccssssssssssssscccccsssssssccs" />
    <path
       d="m 27.974171,13.95633 c -0.22948,0 -0.41558,0.18598 -0.41558,0.41554 v 5.04802 H 4.5311 v -5.04802 c 0,-0.2295 -0.18597,-0.41554 -0.41553,-0.41554 -0.2296,0 -0.41557,0.18598 -0.41557,0.41554 v 5.07434 c 0,0.44372 0.36104,0.80472 0.80472,0.80472 h 23.080141 c 0.44377,0 0.80484,-0.361 0.80484,-0.80472 v -5.07434 c 1.2e-4,-0.2295 -0.18598,-0.41554 -0.41553,-0.41554 z"
       id="path8-6"
       style="fill:url(#linearGradient884-5);fill-opacity:1.0;stroke-width:0.0553649" />
    <path
       d="M 27.584911,4.82846 H 4.50472 C 4.06094,4.82846 3.7,5.18946 3.7,5.6332 v 6.52251 c 0,0.22942 0.18597,0.41555 0.41553,0.41555 0.2296,0 0.41557,-0.18607 0.41557,-0.41555 V 5.65946 h 23.027601 v 6.49625 c 0,0.22942 0.18599,0.41555 0.41555,0.41555 0.22947,0 0.41557,-0.18607 0.41557,-0.41555 V 5.6332 c -6e-5,-0.44374 -0.36111,-0.80474 -0.80491,-0.80474 z"
       id="path14-29"
       style="fill:url(#linearGradient876-3);fill-opacity:1.0;stroke-width:0.0553649" />
  </g>
  <metadata
     id="metadata28">
    <rdf:RDF>
      <cc:Work
         rdf:about="">
        <dc:format>image/svg+xml</dc:format>
        <dc:type
           rdf:resource="http://purl.org/dc/dcmitype/StillImage" />
      </cc:Work>
    </rdf:RDF>
  </metadata>
  <defs
     id="defs26">
    <linearGradient
       inkscape:collect="always"
       id="linearGradient2416">
      <stop
         style="stop-color:#80b3ff;stop-opacity:1"
         offset="0"
         id="stop2412" />
      <stop
         style="stop-color:#ddb6f2;stop-opacity:1"
         offset="1"
         id="stop2414" />
    </linearGradient>
    <linearGradient
       inkscape:collect="always"
       xlink:href="#linearGradient2416"
       id="linearGradient7189"
       gradientUnits="userSpaceOnUse"
       x1="0"
       y1="16"
       x2="32"
       y2="16"
       gradientTransform="matrix(0.68749999,0,0,0.69168593,0,-22.066742)" />
    <linearGradient
       inkscape:collect="always"
       xlink:href="#linearGradient2416"
       id="linearGradient7191"
       gradientUnits="userSpaceOnUse"
       gradientTransform="matrix(0.68749999,0,0,0.69168593,-0.03437504,-21.533078)"
       x1="3.75"
       y1="8.6998596"
       x2="28.439821"
       y2="8.6998596" />
    <linearGradient
       inkscape:collect="always"
       xlink:href="#linearGradient2416"
       id="linearGradient7193"
       gradientUnits="userSpaceOnUse"
       gradientTransform="matrix(0.68749999,0,0,0.69168593,-0.03437504,-20.999006)"
       x1="3.75"
       y1="17.10363"
       x2="28.439701"
       y2="17.10363" />
    <linearGradient
       inkscape:collect="always"
       xlink:href="#linearGradient2416"
       id="linearGradient935-6"
       x1="1.9"
       y1="16"
       x2="30.246511"
       y2="16"
       gradientUnits="userSpaceOnUse"
       gradientTransform="matrix(0.77610949,0,0,0.76923063,-33.474609,-23.30769)" />
    <linearGradient
       inkscape:collect="always"
       xlink:href="#linearGradient2416"
       id="linearGradient1335-1"
       x1="3.75"
       y1="17.10363"
       x2="28.439701"
       y2="17.10363"
       gradientUnits="userSpaceOnUse"
       gradientTransform="matrix(0.77610949,0,0,0.76923063,-33.474609,-23.30769)" />
    <linearGradient
       inkscape:collect="always"
       xlink:href="#linearGradient2416"
       id="linearGradient1327-8"
       x1="3.75"
       y1="8.6998596"
       x2="28.439821"
       y2="8.6998596"
       gradientUnits="userSpaceOnUse"
       gradientTransform="matrix(0.77610949,0,0,0.76923063,-33.474609,-23.30769)" />
    <linearGradient
       inkscape:collect="always"
       xlink:href="#linearGradient2416"
       id="linearGradient900"
       x1="0"
       y1="16"
       x2="32"
       y2="16"
       gradientUnits="userSpaceOnUse" />
    <linearGradient
       inkscape:collect="always"
       xlink:href="#linearGradient2416"
       id="linearGradient908"
       x1="3.7"
       y1="18.647301"
       x2="28.389702"
       y2="18.647301"
       gradientUnits="userSpaceOnUse" />
    <linearGradient
       inkscape:collect="always"
       xlink:href="#linearGradient2416"
       id="linearGradient916"
       x1="3.7"
       y1="9.4714003"
       x2="28.38982"
       y2="9.4714003"
       gradientUnits="userSpaceOnUse" />
    <linearGradient
       inkscape:collect="always"
       xlink:href="#linearGradient2416"
       id="linearGradient892-3"
       x1="1.9"
       y1="16"
       x2="30.246511"
       y2="16"
       gradientUnits="userSpaceOnUse"
       gradientTransform="translate(-0.05)" />
    <linearGradient
       inkscape:collect="always"
       xlink:href="#linearGradient2416"
       id="linearGradient884-5"
       x1="3.75"
       y1="17.10363"
       x2="28.439701"
       y2="17.10363"
       gradientUnits="userSpaceOnUse"
       gradientTransform="translate(-0.05)" />
    <linearGradient
       inkscape:collect="always"
       xlink:href="#linearGradient2416"
       id="linearGradient876-3"
       x1="3.75"
       y1="8.6998596"
       x2="28.439821"
       y2="8.6998596"
       gradientUnits="userSpaceOnUse"
       gradientTransform="translate(-0.05)" />
  </defs>
  <sodipodi:namedview
     pagecolor="#ffffff"
     bordercolor="#000000"
     borderopacity="1"
     objecttolerance="10"
     gridtolerance="10"
     guidetolerance="10"
     inkscape:pageopacity="0"
     inkscape:pageshadow="2"
     inkscape:window-width="1920"
     inkscape:window-height="1007"
     id="namedview24"
     showgrid="false"
     inkscape:zoom="6.9384854"
     inkscape:cx="33.580816"
     inkscape:cy="4.2516483"
     inkscape:window-x="0"
     inkscape:window-y="0"
     inkscape:window-maximized="1"
     inkscape:current-layer="svg22"
     inkscape:document-rotation="0"
     inkscape:lockguides="false"
     inkscape:showpageshadow="false"
     inkscape:pagecheckerboard="0"
     showguides="false">
    <inkscape:grid
       type="xygrid"
       id="grid870"
       originx="0"
       originy="-8.3706054e-06" />
  </sodipodi:namedview>
  <g
     id="computer-laptop"
     transform="translate(32)">
    <rect
       style="opacity:0.00100002"
       width="32"
       height="32"
       x="0"
       y="0"
       id="rect17" />
    <path
       d="M 29.866719,5.33338 C 29.866719,4.57788 29.404388,4 28.79997,4 H 3.199942 C 2.5955239,4 2.1332048,4.57786 2.1332048,5.33338 v 19.555 L 0,24.88869 v 0.44456 C 0,26.79988 0.9600656,28 2.1334608,28 H 29.866819 c 0.568929,0 1.102171,-0.26661 1.528772,-0.79982 C 31.786719,26.71129 32,26.04474 32,25.33357 v -0.44456 h -2.13346 z m -27.222719,0 C 2.7,4.7999928 2.9865599,4.489 3.200102,4.489 h 25.60005 c 0.213278,0 0.555848,0.4109928 0.555848,0.84438 v 19.555 L 18.844651,24.8887 H 2.645 Z m 28.609368,20.44386 c -0.07132,0.31126 -0.177828,0.57786 -0.355647,0.79982 -0.284251,0.35559 -0.639903,0.53354 -1.031002,0.53354 H 2.1333599 c -0.6756175,0 -1.2088248,-0.57786 -1.3866667,-1.33338 H 13.155603 c 0,0.48889 0.319937,0.88879 0.711052,0.88879 h 4.266612 c 0.39109,0 0.711052,-0.39992 0.711052,-0.88879 z"
       id="path64"
       style="fill:url(#linearGradient900);fill-opacity:1.0;stroke-width:0.0709855"
       sodipodi:nodetypes="csssccssscsccccsssccccccssccsscc" />
    <path
       d="M 27.584911,5.6 H 4.50472 C 4.06094,5.6 3.7,5.961 3.7,6.40474 v 6.52251 c 0,0.22942 0.18597,0.41555 0.41553,0.41555 0.2296,0 0.41557,-0.18607 0.41557,-0.41555 V 6.431 h 23.027601 v 6.49625 c 0,0.22942 0.18599,0.41555 0.41555,0.41555 0.22947,0 0.41557,-0.18607 0.41557,-0.41555 V 6.40474 C 28.389761,5.961 28.028711,5.6 27.584911,5.6 Z"
       id="path14-2"
       style="fill:url(#linearGradient916);fill-opacity:1.0;stroke-width:0.0553649" />
    <path
       d="m 27.974171,15.5 c -0.22948,0 -0.41558,0.18598 -0.41558,0.41554 v 5.04802 H 4.5311 V 15.91554 C 4.5311,15.68604 4.34513,15.5 4.11557,15.5 3.88597,15.5 3.7,15.68598 3.7,15.91554 v 5.07434 c 0,0.44372 0.36104,0.80472 0.80472,0.80472 h 23.080141 c 0.44377,0 0.80484,-0.361 0.80484,-0.80472 V 15.91554 C 28.389821,15.68604 28.203721,15.5 27.974171,15.5 Z"
       id="path8-7"
       style="fill:url(#linearGradient908);fill-opacity:1.0;stroke-width:0.0553649" />
    <rect
       style="fill:#5599ff;fill-opacity:0.1;stroke:none;stroke-width:0.602959"
       id="center-3-3"
       width="27.700001"
       height="21"
       x="2.0999999"
       y="4"
       ry="1.9896687" />
  </g>
  <g
     id="22-22-computer-laptop"
     transform="translate(32)">
    <rect
       style="opacity:0.00100002"
       width="22"
       height="22"
       x="0"
       y="-21.999996"
       id="rect2" />
    <path
       d="m 20.533376,-18.377717 c 0,-0.522569 -0.31786,-0.922281 -0.733403,-0.922281 H 2.1999599 c -0.4155378,0 -0.7333806,0.399698 -0.7333806,0.922281 V -4.851804 L 0,-4.851584 v 0.307499 c 0,1.014447 0.66004579,1.844546 1.4667547,1.844546 H 20.533434 c 0.391147,0 0.757747,-0.184409 1.051028,-0.553218 C 21.853376,-3.590916 22,-4.051964 22,-4.543874 v -0.307484 h -1.46676 z m -18.7156255,0 c 0.038499,-0.368937 0.235509,-0.584047 0.3823204,-0.584047 H 19.800108 c 0.146625,0 0.382149,0.284278 0.382149,0.584047 v 13.525913 l -7.226556,2.27e-4 H 1.8184375 Z M 21.486691,-4.236984 c -0.04898,0.215294 -0.122256,0.399694 -0.244506,0.553219 -0.195428,0.245967 -0.439936,0.369041 -0.708809,0.369041 H 1.4666845 c -0.4644863,0 -0.83106696,-0.399691 -0.95333277,-0.922275 H 9.0444767 c 0,0.338159 0.2199572,0.61477 0.488845,0.61477 h 2.9332993 c 0.26887,0 0.488843,-0.276626 0.488843,-0.61477 z"
       id="path64-3"
       style="fill:url(#linearGradient7189);fill-opacity:1.0;stroke-width:0.0489504"
       sodipodi:nodetypes="csssccssscsccccsssccccccssccsscc" />
    <path
       d="M 18.964624,-18.1933 H 3.0969953 c -0.3050985,0 -0.5532449,0.249698 -0.5532449,0.556627 v 4.511528 c 0,0.158686 0.1278536,0.287431 0.2856759,0.287431 0.1578494,0 0.2857054,-0.128702 0.2857054,-0.287431 v -4.493364 H 18.946601 v 4.493364 c 0,0.158686 0.127866,0.287431 0.285698,0.287431 0.157764,0 0.285697,-0.128702 0.285697,-0.287431 v -4.511528 c -3e-5,-0.306929 -0.248258,-0.556627 -0.553372,-0.556627 z"
       id="path14-2-6"
       style="fill:url(#linearGradient7191);fill-opacity:1.0;stroke-width:0.0381788" />
    <path
       d="m 19.232237,-11.345612 c -0.15777,0 -0.285702,0.128645 -0.285702,0.287425 v 3.49165 H 3.1151317 v -3.49165 c 0,-0.158744 -0.127855,-0.287425 -0.2856784,-0.287425 -0.1578483,0 -0.2857029,0.128645 -0.2857029,0.287425 v 3.50985 c 0,0.306912 0.2482138,0.556613 0.5532449,0.556613 H 18.964587 c 0.305091,0 0.553335,-0.249701 0.553335,-0.556613 v -3.50985 c 7.4e-5,-0.158744 -0.127859,-0.287425 -0.285685,-0.287425 z"
       id="path8-7-0"
       style="fill:url(#linearGradient7193);fill-opacity:1.0;stroke-width:0.0381788" />
    <rect
       style="fill:#5599ff;fill-opacity:0.1;stroke:none;stroke-width:0.415013"
       id="center-3-3-5"
       width="19"
       height="14.504"
       x="1.5"
       y="-19.299999"
       ry="1.3741976" />
  </g>
  <g
     id="22-22-computer"
     transform="translate(32)">
    <rect
       style="opacity:0.00100002"
       width="22"
       height="22"
       x="-32"
       y="-22"
       id="rect7" />
    <path
       d="m -11.21984,-20.999998 h -19.560316 c -0.67261,0 -1.219844,0.542393 -1.219844,1.209 v 13.372351 c 0,0.666683 0.547234,1.209069 1.219844,1.209069 h 7.637097 l -0.503928,2.116924 h -2.56782 c -0.408537,0 -0.740899,0.329421 -0.740899,0.734283 v 0.624042 c 0,0.404931 0.332362,0.734331 0.740899,0.734331 h 10.429608 c 0.408552,0 0.740896,-0.3294 0.740896,-0.734331 v -0.624042 c 0,-0.404827 -0.332303,-0.734283 -0.740896,-0.734283 h -2.567712 l -0.503941,-2.116924 h 7.637012 c 0.672645,0 1.21984,-0.542386 1.21984,-1.209069 v -13.372351 c 0,-0.666607 -0.547133,-1.209 -1.21984,-1.209 z m -4.565359,18.546717 c 0.05254,0 0.09597,0.04269 0.09597,0.09483 v 0.624053 c 0,0.05207 -0.04319,0.09515 -0.09597,0.09515 h -10.429608 c -0.05254,0 -0.09578,-0.04277 -0.09578,-0.09515 v -0.624041 c 0,-0.05207 0.04322,-0.09483 0.09578,-0.09483 z m -7.199091,-0.639331 0.503923,-2.116924 h 2.96082 l 0.503942,2.116924 z m 11.836225,-2.470303 h -19.703914 c -0.316994,0 -0.79132,-0.355821 -0.79132,-0.85569 v -13.372393 c 0,-0.386654 0.442156,-0.855477 0.863374,-0.855477 h 19.63186 c 0.397426,0 0.79131,0.541423 0.79131,0.855477 v 13.372393 0 c 0.05275,0.345758 -0.474378,0.85569 -0.79131,0.85569 z"
       id="path2-7"
       style="fill:url(#linearGradient935-6);fill-opacity:1.0;stroke-width:0.0427774"
       sodipodi:nodetypes="sssssccssssssssccssssssssssssscccccsssssssccs" />
    <path
       d="m -11.72477,-12.57205 c -0.17811,0 -0.322548,0.143059 -0.322548,0.319645 v 3.883083 h -17.871855 v -3.883083 c 0,-0.176543 -0.144331,-0.319645 -0.322496,-0.319645 -0.178194,0 -0.322528,0.143059 -0.322528,0.319645 v 3.903344 c 0,0.341311 0.280206,0.619014 0.624551,0.619014 h 17.912715 c 0.344418,0 0.624654,-0.277703 0.624654,-0.619014 v -3.903344 c 8.3e-5,-0.176543 -0.144355,-0.319645 -0.322493,-0.319645 z"
       id="path8-9"
       style="fill:url(#linearGradient1335-1);fill-opacity:1.0;stroke-width:0.0427774" />
    <path
       d="m -12.026895,-19.593491 h -17.912751 c -0.344422,0 -0.624551,0.277693 -0.624551,0.619032 v 5.017316 c 0,0.176477 0.144334,0.319652 0.322497,0.319652 0.178196,0 0.322527,-0.14313 0.322527,-0.319652 v -4.997116 h 17.871951 v 4.997116 c 0,0.176477 0.144342,0.319652 0.322507,0.319652 0.178083,0 0.322521,-0.14313 0.322521,-0.319652 v -5.017316 c -4.1e-5,-0.341339 -0.280264,-0.619032 -0.624701,-0.619032 z"
       id="path14-20"
       style="fill:url(#linearGradient1327-8);fill-opacity:1.0;stroke-width:0.0427774" />
    <rect
       style="fill:#5599ff;fill-opacity:0.1;stroke:none;stroke-width:0.465725"
       id="center-3-3-5-6"
       width="22"
       height="15.775"
       x="-32"
       y="-21"
       ry="1.49462" />
  </g>
</svg>
