<?xml version="1.0" encoding="UTF-8" standalone="no"?>
<svg
   id="svg2"
   viewBox="0 0 32 32"
   version="1.1"
   sodipodi:docname="configure.svg"
   width="32"
   height="32"
   inkscape:version="1.1.1 (3bf5ae0d25, 2021-09-20)"
   xmlns:inkscape="http://www.inkscape.org/namespaces/inkscape"
   xmlns:sodipodi="http://sodipodi.sourceforge.net/DTD/sodipodi-0.dtd"
   xmlns="http://www.w3.org/2000/svg"
   xmlns:svg="http://www.w3.org/2000/svg">
  <defs
     id="defs15" />
  <sodipodi:namedview
     id="namedview13"
     pagecolor="#ffffff"
     bordercolor="#000000"
     borderopacity="1"
     inkscape:pageshadow="2"
     inkscape:pageopacity="0.0"
     inkscape:pagecheckerboard="0"
     showgrid="false"
     inkscape:showpageshadow="false"
     inkscape:zoom="8"
     inkscape:cx="-5.375"
     inkscape:cy="9.5625"
     inkscape:window-width="1920"
     inkscape:window-height="1007"
     inkscape:window-x="0"
     inkscape:window-y="0"
     inkscape:window-maximized="1"
     inkscape:current-layer="svg2"
     inkscape:lockguides="false">
    <inkscape:grid
       type="xygrid"
       id="grid1589" />
  </sodipodi:namedview>
  <style
     type="text/css"
     id="current-color-scheme" />
  <g
     id="configure">
    <path
       id="path11"
       d="M 18.5,6 A 3.5,3.5 0 0 0 15.041016,9 H 4 v 1 H 15.039062 A 3.5,3.5 0 0 0 18.5,13 3.5,3.5 0 0 0 21.958984,10 H 28 V 9 H 21.960938 A 3.5,3.5 0 0 0 18.5,6 Z M 7.5,19 A 3.5,3.5 0 0 0 4,22.5 3.5,3.5 0 0 0 7.5,26 3.5,3.5 0 0 0 10.960938,23 H 28 V 22 H 10.958984 A 3.5,3.5 0 0 0 7.5,19 Z m 0,1 A 2.5,2.5 0 0 1 10,22.5 2.5,2.5 0 0 1 7.5,25 2.5,2.5 0 0 1 5,22.5 2.5,2.5 0 0 1 7.5,20 Z"
       class="ColorScheme-Text"
       style="fill:#d6dbf1;fill-opacity:1" />
    <path
       id="path14"
       d="M 0,0 V 32 H 32 V 0 Z"
       fill="none" />
    <rect
       style="fill:#4e5a7e;fill-opacity:0.5;stroke:none;stroke-width:0.125"
       id="center-3-35"
       width="5"
       height="5"
       x="5"
       y="20"
       ry="2.4999957" />
  </g>
  <g
     id="22-22-configure">
    <path
       id="path7"
       d="m -10.5,13 c -1.21321,0 -2.220262,0.85686 -2.451172,2 H -19 v 1 h 6.048828 c 0.23019,1.14407 1.237312,2 2.451172,2 1.21386,0 2.219019,-0.85593 2.449219,-2 H -3 V 15 H -8.050781 C -8.281691,13.85686 -9.2868,13 -10.5,13 Z m -6,11 c -1.385,0 -2.5,1.115 -2.5,2.5 0,1.385 1.115,2.5 2.5,2.5 1.21386,0 2.219019,-0.85593 2.449219,-2 H -3 V 26 H -14.050781 C -14.281691,24.85686 -15.2868,24 -16.5,24 Z m 0,1 c 0.831,0 1.5,0.669 1.5,1.5 0,0.831 -0.669,1.5 -1.5,1.5 -0.831,0 -1.5,-0.669 -1.5,-1.5 0,-0.831 0.669,-1.5 1.5,-1.5 z"
       class="ColorScheme-Text"
       style="fill:#d6dbf1;fill-opacity:1" />
    <path
       id="path9"
       d="M -22,10 V 32 H 0 V 10 Z"
       fill="none" />
    <rect
       style="fill:#4e5a7e;fill-opacity:0.5;stroke:none;stroke-width:0.075"
       id="center-3-35-7"
       width="3"
       height="3"
       x="-18"
       y="25"
       ry="1.4999976" />
  </g>
  <g
     id="16-16-configure">
    <path
       id="path9-7"
       d="m -38,16 v 16 h 16 V 16 Z"
       fill="none"
       style="stroke-width:0.727273" />
    <path
       id="path4"
       d="m -28,18.5 c -0.93198,0 -1.715537,0.637301 -1.9375,1.5 H -36 v 1 h 6.0625 c 0.221963,0.8627 1.00552,1.5 1.9375,1.5 0.931981,0 1.715537,-0.6373 1.9375,-1.5 H -24 v -1 h -2.0625 C -26.284463,19.137301 -27.068019,18.5 -28,18.5 Z m -5,7 c -0.931981,0 -1.715537,0.637301 -1.9375,1.5 H -36 v 1 h 1.0625 c 0.221963,0.862699 1.005519,1.5 1.9375,1.5 0.931981,0 1.715537,-0.637301 1.9375,-1.5 h 7.062502 V 27 H -31.0625 C -31.284463,26.137301 -32.068019,25.5 -33,25.5 Z m 0,1 c 0.55228,0 1,0.44772 1,1 0,0.55228 -0.44772,1 -1,1 -0.55228,0 -1,-0.44772 -1,-1 0,-0.55228 0.44772,-1 1,-1 z"
       class="ColorScheme-Text"
       style="fill:#d6dbf1;fill-opacity:1;stroke-width:0.727273" />
    <rect
       style="fill:#4e5a7e;fill-opacity:0.5;stroke:none;stroke-width:0.05"
       id="center-3-35-7-5"
       width="2"
       height="2"
       x="-34"
       y="26.5"
       ry="0.99999827" />
  </g>
</svg>
