<?xml version="1.0" encoding="UTF-8" standalone="no"?>
<svg
   width="32"
   height="32"
   version="1"
   id="svg12"
   sodipodi:docname="corectrl.svg"
   inkscape:version="1.2.2 (b0a8486541, 2022-12-01)"
   xmlns:inkscape="http://www.inkscape.org/namespaces/inkscape"
   xmlns:sodipodi="http://sodipodi.sourceforge.net/DTD/sodipodi-0.dtd"
   xmlns="http://www.w3.org/2000/svg"
   xmlns:svg="http://www.w3.org/2000/svg"
   xmlns:rdf="http://www.w3.org/1999/02/22-rdf-syntax-ns#"
   xmlns:cc="http://creativecommons.org/ns#"
   xmlns:dc="http://purl.org/dc/elements/1.1/">
  <g
     id="22-22-corectrl">
    <rect
       style="opacity:0.00100002;fill:#d1d5e9;fill-opacity:1"
       width="22"
       height="22"
       x="31.923092"
       y="10.041957"
       id="rect2" />
    <rect
       width="0.61538464"
       height="16"
       x="23.503494"
       y="-50.923092"
       transform="rotate(90)"
       id="rect227-3"
       style="fill:#8e8e8e;stroke-width:0.615385" />
    <rect
       width="0.61538464"
       height="16"
       x="25.349648"
       y="-50.923092"
       transform="rotate(90)"
       id="rect229-6"
       style="fill:#8e8e8e;stroke-width:0.615385" />
    <rect
       width="0.61538464"
       height="16"
       x="27.195805"
       y="-50.923092"
       transform="rotate(90)"
       id="rect231-75"
       style="fill:#8e8e8e;stroke-width:0.615385" />
    <rect
       width="0.61538464"
       height="16"
       x="17.965031"
       y="-50.923092"
       transform="rotate(90)"
       id="rect233-35"
       style="fill:#8e8e8e;stroke-width:0.615385" />
    <rect
       width="0.61538464"
       height="16"
       x="19.811188"
       y="-50.923092"
       transform="rotate(90)"
       id="rect235-62"
       style="fill:#8e8e8e;stroke-width:0.615385" />
    <rect
       width="0.61538464"
       height="16"
       x="21.657341"
       y="-50.923092"
       transform="rotate(90)"
       id="rect237-9"
       style="fill:#8e8e8e;stroke-width:0.615385" />
    <rect
       width="0.61538464"
       height="16"
       x="16.118877"
       y="-50.923092"
       transform="rotate(90)"
       id="rect239-1"
       style="fill:#8e8e8e;stroke-width:0.615385" />
    <rect
       width="0.61538464"
       height="16"
       x="14.272723"
       y="-50.923092"
       transform="rotate(90)"
       id="rect241-2"
       style="fill:#8e8e8e;stroke-width:0.615385" />
    <rect
       width="0.61538464"
       height="16"
       x="-40.461555"
       y="-29.041958"
       transform="scale(-1)"
       id="rect245-7"
       style="fill:#8e8e8e;stroke-width:0.615385" />
    <rect
       width="0.61538464"
       height="16"
       x="-38.615402"
       y="-29.041958"
       transform="scale(-1)"
       id="rect247-0"
       style="fill:#8e8e8e;stroke-width:0.615385" />
    <rect
       width="0.61538464"
       height="16"
       x="-36.769245"
       y="-29.041958"
       transform="scale(-1)"
       id="rect249-9"
       style="fill:#8e8e8e;stroke-width:0.615385" />
    <rect
       width="0.61538464"
       height="16"
       x="-46.000015"
       y="-29.041958"
       transform="scale(-1)"
       id="rect251-3"
       style="fill:#8e8e8e;stroke-width:0.615385" />
    <rect
       width="0.61538464"
       height="16"
       x="-44.153862"
       y="-29.041958"
       transform="scale(-1)"
       id="rect253-6"
       style="fill:#8e8e8e;stroke-width:0.615385" />
    <rect
       width="0.61538464"
       height="16"
       x="-42.307709"
       y="-29.041958"
       transform="scale(-1)"
       id="rect255-0"
       style="fill:#8e8e8e;stroke-width:0.615385" />
    <rect
       width="0.61538464"
       height="16"
       x="-47.846169"
       y="-29.041958"
       transform="scale(-1)"
       id="rect257-6"
       style="fill:#8e8e8e;stroke-width:0.615385" />
    <rect
       width="0.61538464"
       height="16"
       x="-49.692322"
       y="-29.041958"
       transform="scale(-1)"
       id="rect259-2"
       style="fill:#8e8e8e;stroke-width:0.615385" />
    <rect
       style="fill:#4e5a7e;fill-opacity:0.501961;stroke-width:0.301429"
       width="14.369334"
       height="14.518001"
       x="-28.426624"
       y="-50.174423"
       rx="2.3948891"
       ry="2.4280961"
       transform="matrix(0,-1,-1,0,0,0)"
       id="rect265-61" />
    <path
       style="opacity:0.2;stroke-width:0.307692"
       d="m 43.538476,21.965034 v 4.923077 h 4.000001 V 25.34965 h -0.923078 v 0.615385 h -1.538462 v -0.923078 l -0.615385,-0.615384 v -1.538462 h 2.153847 v 0.615385 h 0.923078 v -1.538462 z m 0,-6.153846 v 4.923077 h 4.000001 v -1.538462 h -0.923078 v 0.615385 h -1.538462 v -0.923077 l -0.615385,-0.615384 v -1.538462 h 2.153847 v 0.615384 h 0.923078 v -1.538461 z"
       id="path269-8" />
    <path
       style="fill:#ffa726;stroke-width:0.307692"
       d="m 43.538476,15.503496 v 4.923077 h 4.000001 v -1.538462 h -0.923078 v 0.615385 h -1.538462 v -0.923077 l -0.615385,-0.615385 v -1.538461 h 2.153847 v 0.615384 h 0.923078 v -1.538461 z"
       id="path271-7" />
    <rect
       style="fill:#ff9955;fill-opacity:1;stroke-width:0.307692"
       width="0.92307693"
       height="5.5384617"
       x="39.230785"
       y="15.503493"
       id="rect273-9" />
    <rect
       style="fill:#dc3545;fill-opacity:1;stroke-width:0.307692"
       width="0.92307693"
       height="5.5384617"
       x="39.230785"
       y="21.041958"
       id="rect275-20" />
    <rect
       style="fill:#dc3545;fill-opacity:1;stroke-width:0.307692"
       width="2.7692308"
       height="1.2307693"
       x="38.307709"
       y="20.426571"
       id="rect277-2" />
    <path
       style="opacity:0.2;stroke-width:0.307692"
       d="m 39.230784,26.580419 h 0.923077 v 0.307692 h -0.923077 z m -0.923077,-4.923077 h 2.769231 v 0.307692 h -2.769231 z"
       id="path279-3" />
    <rect
       style="opacity:0.2;fill:#ffffff;stroke-width:0.307692"
       width="2.7692308"
       height="0.30769232"
       x="38.307709"
       y="20.426571"
       id="rect281-7" />
    <path
       style="fill:#f75f5f;stroke-width:0.307692"
       d="m 43.538476,21.657342 v 4.923077 h 4.000001 v -1.538462 h -0.923078 v 0.615385 h -1.538462 v -0.923077 l -0.615385,-0.615384 v -1.538462 h 2.153847 v 0.615384 h 0.923078 v -1.538461 z"
       id="path283-59" />
    <path
       style="fill:#ff9955;fill-opacity:1;stroke-width:0.307692"
       d="m 43.538476,15.503496 v 4.923077 h 4.000001 v -1.538462 h -0.923078 v 0.615385 h -1.538462 v -0.923077 l -0.615385,-0.615385 v -1.538461 h 2.153847 v 0.615384 h 0.923078 v -1.538461 z"
       id="path285-2" />
    <path
       style="fill:#dc3545;fill-opacity:1;stroke-width:0.307692"
       d="m 43.538476,21.657342 v 4.923077 h 4.000001 v -1.538462 h -0.923078 v 0.615385 h -1.538462 v -0.923077 l -0.615385,-0.615384 v -1.538462 h 2.153847 v 0.615384 h 0.923078 v -1.538461 z"
       id="path287-2" />
    <path
       style="opacity:0.2;fill:#ffffff;stroke-width:0.307692"
       d="m 43.538476,15.503496 v 0.307692 h 4.000001 v -0.307692 z m 0.923076,2.461538 v 0.307693 l 0.615385,0.615384 v -0.307692 z m 2.153847,0.923077 v 0.307692 h 0.923078 v -0.307692 z m -1.538462,0.615385 v 0.307692 h 1.538462 v -0.307692 z m -1.538461,2.153846 v 0.307692 h 4.000001 v -0.307692 z m 0.923076,2.461539 v 0.307692 l 0.615385,0.615384 v -0.307692 z m 2.153847,0.923076 v 0.307693 h 0.923078 v -0.307693 z m -1.538462,0.615385 v 0.307693 h 1.538462 v -0.307693 z"
       id="path289-8" />
    <path
       d="M 48.708549,13.936595 H 37.03509 c -0.823129,0 -1.496614,0.55 -1.496614,1.222222 v 12.222218 c 0,0.672228 0.673485,1.222227 1.496614,1.222227 h 11.673459 c 0.82313,0 1.496594,-0.549999 1.496594,-1.222227 V 15.158817 c 0,-0.672222 -0.673464,-1.222222 -1.496594,-1.222222 z m 0.829928,13.44444 c 0,0.336114 -0.41838,0.611114 -0.829928,0.611114 H 37.03509 c -0.411582,0 -0.829947,-0.275 -0.829947,-0.611114 V 15.158817 c 0,-0.336111 0.418365,-0.611111 0.829947,-0.611111 h 11.673459 c 0.411548,0 0.829928,0.275 0.829928,0.611111 z"
       id="path2-3-2-9"
       style="fill:#d1d5e9;fill-opacity:1;stroke-width:0.338117"
       sodipodi:nodetypes="ssssssssssssssssss" />
  </g>
  <metadata
     id="metadata18">
    <rdf:RDF>
      <cc:Work
         rdf:about="">
        <dc:format>image/svg+xml</dc:format>
        <dc:type
           rdf:resource="http://purl.org/dc/dcmitype/StillImage" />
      </cc:Work>
    </rdf:RDF>
  </metadata>
  <defs
     id="defs16">
    <linearGradient
       id="linearGradient2403"
       x1="37.452"
       x2="37.452"
       y1="9.4727001"
       y2="14.003"
       gradientTransform="matrix(0.74046,0,0,1.4809,4.9143898,5.9478024)"
       gradientUnits="userSpaceOnUse">
      <stop
         stop-color="#2e3440"
         offset="0"
         id="stop29845" />
      <stop
         stop-color="#4c566a"
         offset="1"
         id="stop29847" />
    </linearGradient>
    <linearGradient
       id="linearGradient4426"
       x1="39.580002"
       x2="39.580002"
       y1="17.903"
       y2="20.146999"
       gradientUnits="userSpaceOnUse">
      <stop
         stop-color="#2e3440"
         stop-opacity=".25"
         offset="0"
         id="stop29850" />
      <stop
         stop-color="#2e3440"
         stop-opacity="0"
         offset="1"
         id="stop29852" />
    </linearGradient>
    <linearGradient
       id="linearGradient35715"
       y1="1003.36"
       y2="1027.36"
       x1="-93"
       x2="-70"
       gradientUnits="userSpaceOnUse"
       gradientTransform="translate(188.253,-1036.7346)">
      <stop
         stop-color="#292c2f"
         id="stop35711" />
      <stop
         offset="1"
         stop-opacity="0"
         id="stop35713"
         style="stop-color:#000000;stop-opacity:0.05963883;" />
    </linearGradient>
  </defs>
  <sodipodi:namedview
     pagecolor="#d5d5d5"
     bordercolor="#000000"
     borderopacity="1"
     objecttolerance="10"
     gridtolerance="10"
     guidetolerance="10"
     inkscape:pageopacity="1"
     inkscape:pageshadow="2"
     inkscape:window-width="1920"
     inkscape:window-height="1002"
     id="namedview14"
     showgrid="false"
     inkscape:zoom="6.9384853"
     inkscape:cx="15.637419"
     inkscape:cy="32.716074"
     inkscape:window-x="0"
     inkscape:window-y="0"
     inkscape:window-maximized="1"
     inkscape:current-layer="svg12"
     inkscape:document-rotation="0"
     inkscape:showpageshadow="true"
     inkscape:lockguides="false"
     inkscape:pagecheckerboard="0"
     inkscape:deskcolor="#7f7f7f">
    <inkscape:grid
       type="xygrid"
       id="grid2747"
       originx="31.923091"
       originy="10.041957" />
  </sodipodi:namedview>
  <g
     id="corectrl"
     transform="translate(-0.0769086,0.041957)">
    <rect
       style="opacity:0.00100002;fill:#d1d5e9;fill-opacity:1"
       width="32"
       height="32"
       x="0.076908603"
       y="-0.041956998"
       id="rect7" />
    <rect
       width="0.92307693"
       height="24"
       x="19.650351"
       y="-28.076908"
       transform="rotate(90)"
       id="rect227"
       style="fill:#8e8e8e;stroke-width:0.923077" />
    <rect
       width="0.92307693"
       height="24"
       x="22.41958"
       y="-28.076908"
       transform="rotate(90)"
       id="rect229"
       style="fill:#8e8e8e;stroke-width:0.923077" />
    <rect
       width="0.92307693"
       height="24"
       x="25.188812"
       y="-28.076908"
       transform="rotate(90)"
       id="rect231"
       style="fill:#8e8e8e;stroke-width:0.923077" />
    <rect
       width="0.92307693"
       height="24"
       x="11.342658"
       y="-28.076908"
       transform="rotate(90)"
       id="rect233"
       style="fill:#8e8e8e;stroke-width:0.923077" />
    <rect
       width="0.92307693"
       height="24"
       x="14.111889"
       y="-28.076908"
       transform="rotate(90)"
       id="rect235"
       style="fill:#8e8e8e;stroke-width:0.923077" />
    <rect
       width="0.92307693"
       height="24"
       x="16.881119"
       y="-28.076908"
       transform="rotate(90)"
       id="rect237"
       style="fill:#8e8e8e;stroke-width:0.923077" />
    <rect
       width="0.92307693"
       height="24"
       x="8.5734282"
       y="-28.076908"
       transform="rotate(90)"
       id="rect239"
       style="fill:#8e8e8e;stroke-width:0.923077" />
    <rect
       width="0.92307693"
       height="24"
       x="5.8041968"
       y="-28.076908"
       transform="rotate(90)"
       id="rect241"
       style="fill:#8e8e8e;stroke-width:0.923077" />
    <rect
       width="0.92307693"
       height="24"
       x="-12.384602"
       y="-27.958042"
       transform="scale(-1)"
       id="rect245"
       style="fill:#8e8e8e;stroke-width:0.923077" />
    <rect
       width="0.92307693"
       height="24"
       x="-9.6153708"
       y="-27.958042"
       transform="scale(-1)"
       id="rect247"
       style="fill:#8e8e8e;stroke-width:0.923077" />
    <rect
       width="0.92307693"
       height="24"
       x="-6.8461394"
       y="-27.958042"
       transform="scale(-1)"
       id="rect249"
       style="fill:#8e8e8e;stroke-width:0.923077" />
    <rect
       width="0.92307693"
       height="24"
       x="-20.692293"
       y="-27.958042"
       transform="scale(-1)"
       id="rect251"
       style="fill:#8e8e8e;stroke-width:0.923077" />
    <rect
       width="0.92307693"
       height="24"
       x="-17.923061"
       y="-27.958042"
       transform="scale(-1)"
       id="rect253"
       style="fill:#8e8e8e;stroke-width:0.923077" />
    <rect
       width="0.92307693"
       height="24"
       x="-15.153832"
       y="-27.958042"
       transform="scale(-1)"
       id="rect255"
       style="fill:#8e8e8e;stroke-width:0.923077" />
    <rect
       width="0.92307693"
       height="24"
       x="-23.461523"
       y="-27.958042"
       transform="scale(-1)"
       id="rect257"
       style="fill:#8e8e8e;stroke-width:0.923077" />
    <rect
       width="0.92307693"
       height="24"
       x="-26.230755"
       y="-27.958042"
       transform="scale(-1)"
       id="rect259"
       style="fill:#8e8e8e;stroke-width:0.923077" />
    <rect
       style="fill:#4e5a7e;fill-opacity:0.501961;stroke-width:0.452144"
       width="21.554001"
       height="21.777"
       x="-27.035044"
       y="-26.953909"
       rx="3.5923336"
       ry="3.6421442"
       transform="matrix(0,-1,-1,0,0,0)"
       id="rect265" />
    <path
       style="opacity:0.2;stroke-width:0.461538"
       d="m 16.999986,17.342658 v 7.384616 h 6 v -2.307692 h -1.384615 v 0.923077 h -2.307693 v -1.384616 l -0.923077,-0.923077 v -2.307692 h 3.23077 v 0.923077 h 1.384615 v -2.307693 z m 0,-9.2307687 v 7.3846157 h 6 v -2.307693 h -1.384615 v 0.923077 H 19.307678 V 12.727274 L 18.384601,11.804197 V 9.4965053 h 3.23077 v 0.9230757 h 1.384615 V 8.1118893 Z"
       id="path269" />
    <path
       style="fill:#ffa726;stroke-width:0.461538"
       d="m 16.999986,7.6503513 v 7.3846147 h 6 v -2.307692 h -1.384615 v 0.923077 H 19.307678 V 12.265735 L 18.384601,11.342658 V 9.0349663 h 3.23077 V 9.958043 h 1.384615 V 7.6503513 Z"
       id="path271" />
    <rect
       style="fill:#ff9955;fill-opacity:1;stroke-width:0.461538"
       width="1.3846154"
       height="8.3076925"
       x="10.538447"
       y="7.6503506"
       id="rect273" />
    <rect
       style="fill:#dc3545;fill-opacity:1;stroke-width:0.461538"
       width="1.3846154"
       height="8.3076925"
       x="10.538447"
       y="15.958043"
       id="rect275" />
    <rect
       style="fill:#dc3545;fill-opacity:1;stroke-width:0.461538"
       width="4.1538463"
       height="1.8461539"
       x="9.1538305"
       y="15.034966"
       id="rect277" />
    <path
       style="opacity:0.2;stroke-width:0.461538"
       d="m 10.538447,24.265736 h 1.384616 v 0.461538 H 10.538447 Z M 9.1538313,16.88112 h 4.1538467 v 0.461538 H 9.1538313 Z"
       id="path279" />
    <rect
       style="opacity:0.2;fill:#ffffff;stroke-width:0.461538"
       width="4.1538463"
       height="0.46153846"
       x="9.1538305"
       y="15.034966"
       id="rect281" />
    <path
       style="fill:#f75f5f;stroke-width:0.461538"
       d="m 16.999986,16.88112 v 7.384616 h 6 v -2.307693 h -1.384615 v 0.923077 h -2.307693 v -1.384615 l -0.923077,-0.923077 v -2.307692 h 3.23077 v 0.923076 h 1.384615 V 16.88112 Z"
       id="path283" />
    <path
       style="fill:#ff9955;fill-opacity:1;stroke-width:0.461538"
       d="m 16.999986,7.6503513 v 7.3846147 h 6 v -2.307692 h -1.384615 v 0.923077 H 19.307678 V 12.265735 L 18.384601,11.342658 V 9.0349663 h 3.23077 V 9.958043 h 1.384615 V 7.6503513 Z"
       id="path285" />
    <path
       style="fill:#dc3545;fill-opacity:1;stroke-width:0.461538"
       d="m 16.999986,16.88112 v 7.384616 h 6 v -2.307693 h -1.384615 v 0.923077 h -2.307693 v -1.384615 l -0.923077,-0.923077 v -2.307692 h 3.23077 v 0.923076 h 1.384615 V 16.88112 Z"
       id="path287" />
    <path
       style="opacity:0.2;fill:#ffffff;stroke-width:0.461538"
       d="m 16.999986,7.6503513 v 0.461538 h 6 v -0.461538 z m 1.384615,3.6923067 v 0.461539 l 0.923077,0.923077 v -0.461539 z m 3.23077,1.384616 v 0.461538 h 1.384615 v -0.461538 z m -2.307693,0.923077 v 0.461538 h 2.307693 v -0.461538 z m -2.307692,3.230769 v 0.461538 h 6 V 16.88112 Z m 1.384615,3.692308 v 0.461538 l 0.923077,0.923077 v -0.461538 z m 3.23077,1.384615 v 0.461539 h 1.384615 v -0.461539 z m -2.307693,0.923077 v 0.461539 h 2.307693 V 22.88112 Z"
       id="path289" />
    <path
       d="M 24.755094,5.3 H 7.2449063 c -1.234694,0 -2.244921,0.825 -2.244921,1.8333318 V 25.466659 c 0,1.008342 1.010227,1.833341 2.244921,1.833341 H 24.755094 c 1.234695,0 2.244892,-0.824999 2.244892,-1.833341 V 7.1333318 C 26.999986,6.125 25.989789,5.3 24.755094,5.3 Z m 1.244892,20.16666 c 0,0.504171 -0.627569,0.916671 -1.244892,0.916671 H 7.2449063 c -0.617373,0 -1.244921,-0.4125 -1.244921,-0.916671 V 7.1333318 c 0,-0.5041656 0.627548,-0.9166656 1.244921,-0.9166656 H 24.755094 c 0.617323,0 1.244892,0.4125 1.244892,0.9166656 z"
       id="path2-3-2"
       style="fill:#d1d5e9;fill-opacity:1;stroke-width:0.507175"
       sodipodi:nodetypes="ssssssssssssssssss" />
  </g>
</svg>
