<?xml version="1.0" encoding="UTF-8" standalone="no"?>
<svg
   width="32"
   height="32"
   version="1.1"
   id="svg12"
   sodipodi:docname="desktop.svg"
   inkscape:version="1.2.2 (b0a8486541, 2022-12-01)"
   xmlns:inkscape="http://www.inkscape.org/namespaces/inkscape"
   xmlns:sodipodi="http://sodipodi.sourceforge.net/DTD/sodipodi-0.dtd"
   xmlns="http://www.w3.org/2000/svg"
   xmlns:svg="http://www.w3.org/2000/svg"
   xmlns:rdf="http://www.w3.org/1999/02/22-rdf-syntax-ns#"
   xmlns:cc="http://creativecommons.org/ns#"
   xmlns:dc="http://purl.org/dc/elements/1.1/">
  <g
     id="desktop">
    <rect
       style="opacity:0.00100002;fill:#d1d5e9;fill-opacity:1"
       width="32"
       height="32"
       x="0"
       y="0"
       id="rect7" />
    <rect
       style="fill:#4e5a7e;fill-opacity:0.501961;stroke:none;stroke-width:0.63886;enable-background:new"
       id="center-3-35"
       width="22.5"
       height="26"
       x="4.6999998"
       y="-29.1"
       ry="1"
       transform="rotate(90)"
       rx="1.2499999" />
    <path
       d="M 2,26.199996 V 5.8 C 2,4.649563 2.59098,4 3.933,4 H 27.967 C 29.30902,4 30,4.649563 30,5.8 v 20.399996 c 0,1.15043 -0.69098,1.799996 -2.033,1.799996 H 4.036 C 2.690723,28.002792 2,27.350426 2,26.199996 Z M 29,6.2056 C 29,5.2 28.72496,5 27.867,5 H 4.136 C 3.181903,5 3,5.2 3,6.0856 v 19.588796 c 0,1.1256 0.193187,1.325605 1.136,1.325605 h 23.931 c 0.62215,0 0.933,-0.200005 0.933,-1.325605 z"
       id="path2-3"
       style="color:#d6dbf1;fill:#d6dbf1;fill-opacity:1;stroke-width:0.30159;enable-background:new"
       sodipodi:nodetypes="ssssssscssssssssss"
       class="ColorScheme-Text" />
    <path
       d="m 3,25.000001 h 26 v 0 -2 H 3 v 0 z"
       id="path2653-4-6"
       style="fill:#d6dbf1;fill-opacity:1;stroke-width:0.494872"
       sodipodi:nodetypes="ccccccc" />
    <path
       d="M 9,10 C 9,11.105112 8.105102,12.000009 7.000003,12.000009 5.895835,12.00001 5.000007,11.105112 5.000007,10 5.000007,8.895831 5.895835,8.000009 7.000003,8.000009 8.105102,8.000009 9,8.895831 9,10 Z"
       id="path72-3-7"
       style="color:#e5e9ef;fill:#d6dbf1;fill-opacity:1;stroke-width:0.0238098"
       class="ColorScheme-Text" />
    <path
       d="m 9,18.000001 c 0,1.105111 -0.8949,2.000007 -1.999997,2.000007 -1.104169,0 -1.999997,-0.894896 -1.999997,-2.000007 0,-1.10417 0.895828,-1.999993 1.999997,-1.999993 C 8.1051,16.000008 9,16.895831 9,18.000001 Z"
       id="path72-3-6-5"
       style="color:#e5e9ef;fill:#d6dbf1;fill-opacity:1;stroke-width:0.0238098"
       class="ColorScheme-Text" />
  </g>
  <style
     id="current-color-scheme"
     type="text/css">.ColorScheme-Text { color:#d6dbf1; }
</style>
  <metadata
     id="metadata18">
    <rdf:RDF>
      <cc:Work
         rdf:about="">
        <dc:format>image/svg+xml</dc:format>
        <dc:type
           rdf:resource="http://purl.org/dc/dcmitype/StillImage" />
      </cc:Work>
    </rdf:RDF>
  </metadata>
  <defs
     id="defs16">
    <linearGradient
       id="oomox"
       x1="0"
       x2="0"
       y1="0"
       y2="1">
      <stop
         offset="0%"
         style="stop-color:#303b3d; stop-opacity:1"
         id="stop18" />
      <stop
         offset="100%"
         style="stop-color:#bc985d; stop-opacity:1"
         id="stop20" />
    </linearGradient>
  </defs>
  <sodipodi:namedview
     pagecolor="#cccccc"
     bordercolor="#000000"
     borderopacity="1"
     objecttolerance="10"
     gridtolerance="10"
     guidetolerance="10"
     inkscape:pageopacity="0"
     inkscape:pageshadow="2"
     inkscape:window-width="1920"
     inkscape:window-height="1002"
     id="namedview14"
     showgrid="false"
     inkscape:zoom="13.876971"
     inkscape:cx="15.853604"
     inkscape:cy="13.36747"
     inkscape:window-x="0"
     inkscape:window-y="0"
     inkscape:window-maximized="1"
     inkscape:current-layer="svg12"
     inkscape:lockguides="false"
     inkscape:document-rotation="0"
     inkscape:showpageshadow="true"
     inkscape:pagecheckerboard="false"
     inkscape:deskcolor="#808080">
    <inkscape:grid
       type="xygrid"
       id="grid863"
       originx="0"
       originy="0" />
  </sodipodi:namedview>
</svg>
