<?xml version="1.0" encoding="UTF-8" standalone="no"?>
<svg
   width="32"
   height="32"
   version="1.1"
   id="svg12"
   sodipodi:docname="device.svg"
   inkscape:version="1.1.1 (3bf5ae0d25, 2021-09-20)"
   xmlns:inkscape="http://www.inkscape.org/namespaces/inkscape"
   xmlns:sodipodi="http://sodipodi.sourceforge.net/DTD/sodipodi-0.dtd"
   xmlns="http://www.w3.org/2000/svg"
   xmlns:svg="http://www.w3.org/2000/svg"
   xmlns:rdf="http://www.w3.org/1999/02/22-rdf-syntax-ns#"
   xmlns:cc="http://creativecommons.org/ns#"
   xmlns:dc="http://purl.org/dc/elements/1.1/">
  <g
     id="22-22-device-notifier"
     transform="translate(32,9.999999)">
    <rect
       style="opacity:0.00100002"
       width="22"
       height="22"
       x="0"
       y="0"
       id="rect2" />
    <path
       d="m 8.524976,3 c -0.55695,0 -1,0.5301 -0.99997,1.003859 v 1.996199 h 1 l -3e-5,-1.000059 c 0,-1 0,-1 0.999999,-1 l 3.008127,5e-5 c 0.99187,-5e-5 0.99187,-5e-5 0.99187,0.99995 l 3e-5,1.000059 h 0.999999 l -3e-5,-2.000059 C 14.524971,3.39767 14.106842,3 13.538872,3.00005 Z m 1.000029,2.000059 v 0.999999 h 0.999999 V 5.000059 Z m 1.999998,0 v 0.999999 h 0.999999 V 5.000059 Z"
       style="solid-color:#d5c289;fill:#d6dbf1;fill-opacity:1;fill-rule:evenodd;stroke-width:0.999996"
       id="path4-2"
       sodipodi:nodetypes="ccccccccccccccccccccccc" />
    <rect
       style="fill:#4e5a7e;fill-opacity:0.501961;stroke:none;stroke-width:0.325835"
       id="center-3-35-9"
       width="9.2311382"
       height="10.333364"
       x="6.3916678"
       y="7.8666792"
       ry="1.2530152"
       rx="1.4356446" />
    <path
       style="color:#d3dae3;fill:#d6dbf1;fill-opacity:1;fill-rule:evenodd;stroke-width:0.353606;image-rendering:optimizeQuality;shape-rendering:geometricPrecision;text-rendering:geometricPrecision"
       d="m 11.412958,10.166686 -1.066349,0.185783 v 3.672811 l 1.060824,-0.136746 -0.0055,-1.65546 1.251435,1.832261 1.229335,-0.176801 -1.414424,-1.896493 1.419258,-1.591227 -1.244527,-0.229297 -1.241077,1.591233 z m -2.2425,0.937883 c -0.01026,6.65e-4 -0.01989,0.0053 -0.02764,0.0131 l -0.366037,0.370184 c -0.01591,0.016 -0.01856,0.04097 -0.0061,0.06009 l 0.442008,0.678897 c -0.08339,0.147976 -0.146384,0.310227 -0.187165,0.479993 l -0.763149,0.187164 c -0.02115,0.0052 -0.03733,0.02433 -0.03733,0.04629 v 0.241033 0.241032 c 0,0.02195 0.01614,0.04109 0.03733,0.0463 l 0.763148,0.18716 c 0.04077,0.169769 0.103779,0.332021 0.187166,0.479996 l -0.442008,0.678893 c -0.01235,0.01912 -0.0097,0.04409 0.0061,0.06009 l 0.36604,0.370183 c 0.01541,0.01561 0.0394,0.01685 0.05798,0.0055 L 9.89351,14.825735 c 0.135899,0.07917 0.348483,0.142871 0.503475,0.185091 l 0.162303,0.783867 c 0.0048,0.02262 0.02251,0.03867 0.04487,0.03867 h 0.2728 0.272803 c 0.02244,0 0.04037,-0.01601 0.04487,-0.03867 l 0.162301,-0.783867 c 0.154994,-0.04223 0.367575,-0.105923 0.503477,-0.185094 l 0.692711,0.424741 c 0.01865,0.0113 0.04255,0.01006 0.05797,-0.0055 l 0.366043,-0.370184 c 0.01591,-0.01601 0.01857,-0.04097 0.0062,-0.06009 l -0.36811,-0.565629 -0.04559,0.0067 -0.258301,-0.378471 c -0.26381,0.553026 -0.821725,0.905451 -1.434452,0.906116 -0.878811,0 -1.591229,-0.712415 -1.591229,-1.591227 6.41e-4,-0.604006 0.342946,-1.155651 0.884014,-1.424097 v -0.347359 c -0.100861,0.03361 -0.199966,0.07157 -0.276253,0.11603 l -0.69267,-0.424719 c -0.0093,-0.0057 -0.02011,-0.0084 -0.03041,-0.0075 z"
       class="ColorScheme-Text"
       id="path10-3-3-3-1" />
    <path
       d="m 8.524998,7.000009 c -0.65761,0 -1.17852,0.0599 -1.617189,0.22461 -0.43866,0.16467 -0.79038,0.46152 -0.99804,0.83789 C 5.49444,8.815257 5.53954,9.735957 5.525,10.994146 v 0.004 4.003897 0.004 c 0.0146,1.258189 -0.0306,2.178889 0.384769,2.931638 0.20765,0.37637 0.55938,0.67322 0.99804,0.83789 C 7.346468,18.94006 7.867388,19 8.524998,19 h 4.999996 c 0.657609,0 1.178519,-0.0599 1.617189,-0.224609 0.438659,-0.16466 0.788429,-0.46152 0.996089,-0.83789 0.41532,-0.752749 0.37218,-1.673439 0.38672,-2.931638 v -0.004 -4.003897 -0.004 c -0.0145,-1.258199 0.0306,-2.178889 -0.38477,-2.931637 -0.20766,-0.37637 -0.55938,-0.67323 -0.998039,-0.83789 -0.43867,-0.16449 -0.95958,-0.22443 -1.617189,-0.22443 z m 0,0.999999 h 4.999996 c 0.592389,0 1.005709,0.0626 1.265619,0.16016 0.25992,0.0976 0.37146,0.20331 0.47266,0.38672 0.201919,0.36595 0.24703,1.194599 0.26172,2.453118 v 3.994137 c -0.0146,1.263539 -0.0593,2.092169 -0.26172,2.458978 -0.10119,0.18341 -0.21275,0.28916 -0.47266,0.38672 -0.2599,0.09757 -0.67323,0.16016 -1.265619,0.16016 H 8.524998 c -0.59239,0 -1.00572,-0.0626 -1.265619,-0.16016 -0.259911,-0.0976 -0.37147,-0.20331 -0.47266,-0.38672 -0.20191,-0.365949 -0.24698,-1.194589 -0.26172,-2.453118 v -0.006 -3.988277 -0.0057 c 0.0147,-1.258519 0.0598,-2.087169 0.26172,-2.453118 0.10119,-0.18341 0.212749,-0.28916 0.47266,-0.38672 0.259899,-0.09757 0.673229,-0.16016 1.265619,-0.16016 z"
       style="solid-color:#d5c289;fill:#d6dbf1;fill-opacity:1;stroke-width:0.999996"
       id="path2-3-35-6-2" />
  </g>
  <metadata
     id="metadata18">
    <rdf:RDF>
      <cc:Work
         rdf:about="">
        <dc:format>image/svg+xml</dc:format>
        <dc:type
           rdf:resource="http://purl.org/dc/dcmitype/StillImage" />
      </cc:Work>
    </rdf:RDF>
  </metadata>
  <defs
     id="defs16" />
  <sodipodi:namedview
     pagecolor="#ffffff"
     bordercolor="#000000"
     borderopacity="1"
     objecttolerance="10"
     gridtolerance="10"
     guidetolerance="10"
     inkscape:pageopacity="0"
     inkscape:pageshadow="2"
     inkscape:window-width="1920"
     inkscape:window-height="1007"
     id="namedview14"
     showgrid="false"
     inkscape:zoom="8.0000004"
     inkscape:cx="28.874999"
     inkscape:cy="21.187499"
     inkscape:window-x="0"
     inkscape:window-y="0"
     inkscape:window-maximized="1"
     inkscape:current-layer="svg12"
     inkscape:document-rotation="0"
     inkscape:lockguides="false"
     inkscape:showpageshadow="false"
     inkscape:pagecheckerboard="0"
     showguides="false">
    <inkscape:grid
       type="xygrid"
       id="grid865"
       originx="0"
       originy="-1.5367432e-07" />
  </sodipodi:namedview>
  <g
     id="device-notifier">
    <rect
       style="opacity:0.00100002"
       width="32"
       height="32"
       x="0"
       y="-4.6325681e-08"
       id="rect7" />
    <path
       d="m 12.29995,4.000004 c -0.835422,0 -1.499995,0.795147 -1.49995,1.5057844 v 2.9942888 h 1.499995 l -4.5e-5,-1.5000844 c 0,-1.4999944 0,-1.4999944 1.499994,-1.4999944 l 4.512178,7.5e-5 c 1.4878,-7.5e-5 1.4878,-7.5e-5 1.4878,1.4999194 l 4.5e-5,1.5000844 h 1.499994 l -4.5e-5,-3.0000788 c 0,-0.9034916 -0.627192,-1.4999944 -1.479144,-1.4999194 z m 1.500039,3.0000788 v 1.4999944 h 1.499995 V 7.0000828 Z m 2.999989,0 v 1.4999944 h 1.499994 V 7.0000828 Z"
       style="solid-color:#d5c289;fill:#d6dbf1;fill-opacity:1;fill-rule:evenodd;stroke-width:1.49999"
       id="path4"
       sodipodi:nodetypes="ccccccccccccccccccccccc" />
    <rect
       style="fill:#4e5a7e;fill-opacity:0.501961;stroke:none;stroke-width:0.488751"
       id="center-3-35"
       width="13.846666"
       height="15.5"
       x="9.1000004"
       y="11.3"
       ry="1.8795171"
       rx="2.1534605" />
    <path
       style="color:#d3dae3;fill:#d6dbf1;fill-opacity:1;fill-rule:evenodd;stroke-width:0.530408;image-rendering:optimizeQuality;shape-rendering:geometricPrecision;text-rendering:geometricPrecision"
       d="m 16.63191,14.75 -1.599518,0.278674 v 5.509201 l 1.591231,-0.205119 -0.0083,-2.483183 1.877148,2.748384 1.843997,-0.265201 -2.12163,-2.844731 2.128881,-2.386833 -1.866786,-0.343945 -1.86161,2.386842 z m -3.363739,1.406821 c -0.01539,9.97e-4 -0.02984,0.008 -0.04146,0.01965 l -0.549054,0.555274 c -0.02387,0.024 -0.02784,0.06145 -0.0092,0.09014 l 0.663011,1.018342 c -0.125077,0.221964 -0.219576,0.465339 -0.280748,0.719988 L 11.906,18.84096 c -0.03172,0.0078 -0.056,0.0365 -0.056,0.06944 v 0.361548 0.361548 c 0,0.03292 0.02421,0.06163 0.056,0.06945 l 1.144719,0.280739 c 0.06115,0.254652 0.155669,0.498029 0.280748,0.719991 l -0.66301,1.018337 c -0.01853,0.02868 -0.01453,0.06613 0.0092,0.09013 l 0.549058,0.555273 c 0.02311,0.02341 0.0591,0.02528 0.08697,0.0083 l 1.03906,-0.637107 c 0.203848,0.118758 0.522723,0.214305 0.755211,0.277635 l 0.243454,1.175798 c 0.0072,0.03393 0.03376,0.058 0.0673,0.058 h 0.409199 0.409203 c 0.03366,0 0.06055,-0.02402 0.06731,-0.058 l 0.243452,-1.175798 c 0.23249,-0.06335 0.55136,-0.158884 0.755212,-0.27764 l 1.039064,0.63711 c 0.02797,0.01695 0.06383,0.01509 0.08696,-0.0083 l 0.549063,-0.555274 c 0.02387,-0.02401 0.02785,-0.06145 0.0093,-0.09013 l -0.552163,-0.848441 -0.06838,0.01011 -0.38745,-0.567705 c -0.395715,0.829537 -1.232584,1.358173 -2.151672,1.35917 -1.318213,0 -2.386837,-1.06862 -2.386837,-2.386833 9.62e-4,-0.906007 0.514418,-1.733472 1.326017,-2.136139 v -0.521038 c -0.151291,0.05041 -0.299948,0.107355 -0.414378,0.174045 l -1.039002,-0.637076 c -0.01401,-0.0085 -0.03017,-0.01267 -0.04562,-0.0113 z"
       class="ColorScheme-Text"
       id="path10-3-3-3" />
    <path
       d="M 12.299983,10 C 11.313571,10 10.532209,10.08985 9.874207,10.336913 9.216219,10.583917 8.688641,11.029191 8.377152,11.593744 7.75416,12.722864 7.82181,14.103909 7.8,15.991187 v 0.006 6.005828 0.006 c 0.0219,1.887278 -0.0459,3.268323 0.577152,4.397443 0.311474,0.564553 0.839067,1.009827 1.497055,1.256831 0.657987,0.246734 1.439364,0.336643 2.425776,0.336643 h 7.499972 c 0.986411,0 1.767773,-0.08985 2.425776,-0.336913 0.657987,-0.246989 1.18264,-0.692278 1.494129,-1.256831 0.622978,-1.12912 0.558268,-2.51015 0.580078,-4.397443 v -0.006 -6.005828 -0.006 c -0.02175,-1.887293 0.0459,-3.268323 -0.577153,-4.397443 C 23.411296,11.028921 22.883718,10.583632 22.225731,10.336643 21.567728,10.089909 20.786366,10 19.799955,10 Z m 0,1.499994 h 7.499972 c 0.888581,0 1.508559,0.0939 1.898423,0.240239 0.389878,0.1464 0.557188,0.304964 0.708987,0.580078 0.302879,0.548923 0.370544,1.791893 0.392579,3.679666 v 5.991188 c -0.0219,1.895303 -0.08895,3.138243 -0.392579,3.688456 -0.151784,0.275114 -0.319124,0.433738 -0.708987,0.580078 -0.389849,0.146354 -1.009842,0.240239 -1.898423,0.240239 h -7.499972 c -0.888582,0 -1.508575,-0.0939 -1.898423,-0.240239 C 10.011696,26.113299 9.844357,25.954735 9.692573,25.679621 9.389709,25.130698 9.322104,23.887743 9.299994,21.999955 v -0.009 -5.982398 -0.0086 c 0.02205,-1.887773 0.0897,-3.130743 0.392579,-3.679666 0.151784,-0.275114 0.319123,-0.433738 0.708987,-0.580078 0.389848,-0.146354 1.009841,-0.240239 1.898423,-0.240239 z"
       style="solid-color:#d5c289;fill:#d6dbf1;fill-opacity:1;stroke-width:1.49999"
       id="path2-3-35-6" />
  </g>
</svg>
