<?xml version="1.0" encoding="UTF-8" standalone="no"?>
<svg
   width="32"
   height="32"
   version="1.1"
   id="svg32"
   sodipodi:docname="document.svg"
   inkscape:version="1.1.1 (3bf5ae0d25, 2021-09-20)"
   xmlns:inkscape="http://www.inkscape.org/namespaces/inkscape"
   xmlns:sodipodi="http://sodipodi.sourceforge.net/DTD/sodipodi-0.dtd"
   xmlns="http://www.w3.org/2000/svg"
   xmlns:svg="http://www.w3.org/2000/svg"
   xmlns:rdf="http://www.w3.org/1999/02/22-rdf-syntax-ns#"
   xmlns:cc="http://creativecommons.org/ns#"
   xmlns:dc="http://purl.org/dc/elements/1.1/">
  <g
     id="22-22-document-open-recent"
     transform="translate(0,-22)">
    <rect
       style="opacity:0.00100002;fill:#a8aeca;fill-opacity:1"
       width="22"
       height="22"
       x="1.2623786e-15"
       y="0"
       id="rect7" />
    <path
       d="M 16.820072,3 H 5.146614 C 4.323485,3 3.65,3.6 3.65,4.333332 V 17.666665 C 3.65,18.4 4.323485,19 5.146614,19 h 11.673458 c 0.82313,0 1.496595,-0.6 1.496595,-1.333335 V 4.333332 C 18.316667,3.6 17.643202,3 16.820072,3 Z m 0.748304,14.666665 c 0,0.366663 -0.336755,0.666663 -0.748304,0.666663 H 5.146614 c -0.411582,0 -0.748305,-0.3 -0.748305,-0.666663 V 4.333332 c 0,-0.366665 0.336723,-0.666665 0.748305,-0.666665 h 11.673458 c 0.411549,0 0.748304,0.3 0.748304,0.666665 z"
       id="path2-3-3-9"
       style="fill:#d6dbf1;fill-opacity:1;stroke-width:0.353151" />
    <rect
       style="fill:#4e5a7e;fill-opacity:0.501961;stroke:none;stroke-width:0.347605"
       id="center-3-35-36"
       width="13.181415"
       height="14.666667"
       x="4.4019213"
       y="3.6666646"
       ry="0.54741049" />
    <path
       d="m 6.139209,9.923247 h 4.223503 c 0.08554,0 0.154915,-0.132566 0.154915,-0.296069 0,-0.163503 -0.06936,-0.296069 -0.154915,-0.296069 H 6.139209 c -0.08554,0 -0.154899,0.132566 -0.154899,0.296069 0,0.163503 0.06935,0.296069 0.154899,0.296069 z"
       id="path4-3-36-0"
       style="fill:#d6dbf1;fill-opacity:1;stroke-width:0.214157" />
    <path
       d="m 6.107801,6.864543 h 2.953002 c 0.06817,0 0.12349,-0.132566 0.12349,-0.296069 0,-0.163503 -0.05525,-0.296069 -0.12349,-0.296069 H 6.107801 c -0.06827,0 -0.123491,0.132566 -0.123491,0.296069 0,0.163503 0.05525,0.296069 0.123491,0.296069 z"
       id="path6-6-7-6"
       style="fill:#d6dbf1;fill-opacity:1;stroke-width:0.191213" />
    <path
       d="m 6.231397,13.189836 h 5.372476 c 0.136458,0 0.247087,-0.132566 0.247087,-0.296069 0,-0.163503 -0.110629,-0.296069 -0.247087,-0.296069 H 6.231397 c -0.136458,0 -0.247087,0.132566 -0.247087,0.296069 0,0.163503 0.110627,0.296069 0.247087,0.296069 z"
       id="path8-5-2"
       style="fill:#d6dbf1;fill-opacity:1;stroke-width:0.270472" />
    <path
       d="M 12.954957,15.86819 H 6.212653 c -0.126641,0 -0.22932,0.132567 -0.22932,0.296069 0,0.163503 0.102679,0.296069 0.22932,0.296069 h 6.742304 c 0.126641,0 0.229336,-0.132566 0.229336,-0.296069 0,-0.163502 -0.102695,-0.296069 -0.229336,-0.296069 z"
       id="path10-7-3-6"
       style="fill:#d6dbf1;fill-opacity:1;stroke-width:0.260569" />
    <path
       d="m 13.525667,10.56 a 2.777,2.777 0 1 0 -2.777,-2.777 2.7808949,2.7808949 0 0 0 2.777,2.777 z m 0,-4.997821 A 2.2208209,2.2208209 0 1 1 11.304846,7.783 2.223417,2.223417 0 0 1 13.525667,5.562179 Z"
       id="path12-6-1"
       style="fill:#d6dbf1;fill-opacity:1;stroke-width:0.185393;image-rendering:optimizeQuality;shape-rendering:geometricPrecision;text-rendering:geometricPrecision" />
    <path
       d="m 13.687941,8.313947 h 1.004098 a 0.2943425,0.2943425 0 0 0 0,-0.588685 H 13.982285 V 6.536914 a 0.29434105,0.29434105 0 1 0 -0.58868,0 v 1.482684 a 0.29433974,0.29433974 0 0 0 0.294336,0.294349 z"
       id="path14-3-7-8"
       style="fill:#d6dbf1;fill-opacity:1;stroke-width:0.196227;image-rendering:optimizeQuality;shape-rendering:geometricPrecision;text-rendering:geometricPrecision" />
  </g>
  <g
     id="document-open-recent">
    <rect
       style="opacity:0.00100002;fill:#a8aeca;fill-opacity:1"
       width="32"
       height="32"
       x="0"
       y="0"
       id="rect17" />
    <path
       d="M 24.755108,4 H 7.244921 C 6.010227,4 5,4.9 5,5.999998 V 25.999997 C 5,27.1 6.010227,28 7.244921,28 H 24.755108 C 25.989803,28 27,27.1 27,25.999997 V 5.999998 C 27,4.9 25.989803,4 24.755108,4 Z m 1.122456,21.999997 c 0,0.549995 -0.505133,0.999995 -1.122456,0.999995 H 7.244921 c -0.617373,0 -1.122457,-0.45 -1.122457,-0.999995 V 5.999998 C 6.122464,5.45 6.627548,5 7.244921,5 h 17.510187 c 0.617323,0 1.122456,0.45 1.122456,0.999998 z"
       id="path2-3-3"
       style="fill:#d6dbf1;fill-opacity:1;stroke-width:0.529727" />
    <rect
       style="fill:#4e5a7e;fill-opacity:0.501961;stroke:none;stroke-width:0.521408"
       id="center-3-35"
       width="19.772121"
       height="22"
       x="6.1278791"
       y="4.9999976"
       ry="0.82111573" />
    <path
       d="m 8.733813,14.384871 h 6.335255 c 0.128318,0 0.232372,-0.198849 0.232372,-0.444104 0,-0.245254 -0.104043,-0.444103 -0.232372,-0.444103 H 8.733813 c -0.128315,0 -0.232348,0.198849 -0.232348,0.444103 0,0.245255 0.104026,0.444104 0.232348,0.444104 z"
       id="path4-3-36"
       style="fill:#d6dbf1;fill-opacity:1;stroke-width:0.321235" />
    <path
       d="m 8.686701,9.796814 h 4.429503 c 0.102251,0 0.185236,-0.198849 0.185236,-0.444103 0,-0.245255 -0.08287,-0.444104 -0.185236,-0.444104 H 8.686701 c -0.102412,0 -0.185236,0.198849 -0.185236,0.444104 0,0.245254 0.08287,0.444103 0.185236,0.444103 z"
       id="path6-6-7"
       style="fill:#d6dbf1;fill-opacity:1;stroke-width:0.28682" />
    <path
       d="m 8.872095,19.284754 h 8.058714 c 0.204687,0 0.370631,-0.198849 0.370631,-0.444103 0,-0.245255 -0.165943,-0.444104 -0.370631,-0.444104 H 8.872095 c -0.204686,0 -0.37063,0.198849 -0.37063,0.444104 0,0.245254 0.165941,0.444103 0.37063,0.444103 z"
       id="path8-5"
       style="fill:#d6dbf1;fill-opacity:1;stroke-width:0.405708" />
    <path
       d="M 18.957435,23.302285 H 8.84398 c -0.189962,0 -0.34398,0.19885 -0.34398,0.444104 0,0.245254 0.154018,0.444103 0.34398,0.444103 h 10.113455 c 0.189962,0 0.344005,-0.198849 0.344005,-0.444103 0,-0.245254 -0.154043,-0.444104 -0.344005,-0.444104 z"
       id="path10-7-3"
       style="fill:#d6dbf1;fill-opacity:1;stroke-width:0.390854" />
    <path
       d="M 19.8135,15.34 A 4.1655,4.1655 0 1 0 15.648,11.1745 4.1713423,4.1713423 0 0 0 19.8135,15.34 Z m 0,-7.496732 A 3.3312313,3.3312313 0 1 1 16.482269,11.1745 3.3351255,3.3351255 0 0 1 19.8135,7.843268 Z"
       id="path12-6"
       style="fill:#d6dbf1;fill-opacity:1;stroke-width:0.278089;image-rendering:optimizeQuality;shape-rendering:geometricPrecision;text-rendering:geometricPrecision" />
    <path
       d="m 20.056911,11.97092 h 1.506147 a 0.4415135,0.4415135 0 0 0 0,-0.883027 H 20.498427 V 9.3053714 a 0.44151158,0.44151158 0 1 0 -0.883019,0 v 2.2240256 a 0.44150961,0.44150961 0 0 0 0.441503,0.441523 z"
       id="path14-3-7"
       style="fill:#d6dbf1;fill-opacity:1;stroke-width:0.294341;image-rendering:optimizeQuality;shape-rendering:geometricPrecision;text-rendering:geometricPrecision" />
  </g>
  <metadata
     id="metadata38">
    <rdf:RDF>
      <cc:Work
         rdf:about="">
        <dc:format>image/svg+xml</dc:format>
        <dc:type
           rdf:resource="http://purl.org/dc/dcmitype/StillImage" />
      </cc:Work>
    </rdf:RDF>
  </metadata>
  <defs
     id="defs36">
    <linearGradient
       x1="0"
       x2="0"
       y1="0"
       y2="1"
       id="linearGradient13">
      <stop
         offset="0%"
         style="stop-color:#303b3d; stop-opacity:1"
         id="stop18" />
      <stop
         offset="100%"
         style="stop-color:#bc985d; stop-opacity:1"
         id="stop20" />
    </linearGradient>
  </defs>
  <sodipodi:namedview
     pagecolor="#ffffff"
     bordercolor="#000000"
     borderopacity="1"
     objecttolerance="10"
     gridtolerance="10"
     guidetolerance="10"
     inkscape:pageopacity="0"
     inkscape:pageshadow="2"
     inkscape:window-width="1920"
     inkscape:window-height="1007"
     id="namedview34"
     showgrid="false"
     inkscape:zoom="8"
     inkscape:cx="45.5"
     inkscape:cy="9.0625"
     inkscape:window-x="0"
     inkscape:window-y="0"
     inkscape:window-maximized="1"
     inkscape:current-layer="svg32"
     inkscape:document-rotation="0"
     inkscape:lockguides="false"
     inkscape:showpageshadow="false"
     showguides="false"
     inkscape:pagecheckerboard="0">
    <inkscape:grid
       type="xygrid"
       id="grid886"
       originx="0"
       originy="0" />
  </sodipodi:namedview>
  <g
     id="document-encrypt"
     transform="translate(32,-22)">
    <rect
       style="opacity:0.00100002;fill:#a8aeca;fill-opacity:1"
       width="32"
       height="32"
       x="0"
       y="22"
       id="rect22" />
    <path
       d="M 22.022424,49.999999 H 9.977576 C 8.338131,49.999999 7,48.678579 7,47.059409 v -8.979798 c 0,-1.619171 1.337956,-2.94059 2.977576,-2.94059 H 22.022424 C 23.662031,35.139021 25,36.46044 25,38.079611 v 8.979798 c 0,1.61917 -1.337969,2.94059 -2.977576,2.94059 z M 9.977576,48.055765 h 12.044848 c 0.552822,0 1.008819,-0.450364 1.008819,-0.996356 l 1.75e-4,-8.979798 c 0,-0.545821 -0.455821,-0.996356 -1.008832,-0.996356 H 9.977751 c -0.552822,0 -1.008833,0.450364 -1.008833,0.996356 v 8.979798 c 0,0.545992 0.455836,0.996356 1.008658,0.996356 z m 12.04501,-10.97251 H 9.977751 v 0 z M 9.905404,35.15 V 28.886099 C 9.905404,27.296943 11.218413,26 12.827643,26 h 6.344376 c 1.609217,0 2.922402,1.296943 2.922402,2.886099 V 35.15 H 20.16202 l 0.05681,-6.630016 c 0.0046,-0.535883 -0.621022,-0.638536 -1.163664,-0.637126 l -6.518403,0.01693 c -0.542481,0.0014 -0.698956,0.450537 -0.698956,0.986311 L 11.8,35.15 Z"
       fill-rule="evenodd"
       id="path73"
       sodipodi:nodetypes="sssssssssssccsssssccccscccccssssccs"
       style="fill:#d6dbf1;fill-opacity:1;stroke-width:0.0432089" />
    <rect
       style="fill:#4e5a7e;fill-opacity:0.501961;stroke:none;stroke-width:0.414009"
       id="center-3-35-3"
       width="14"
       height="11"
       x="9.0000019"
       y="37.100002"
       ry="0.99999994"
       rx="1.000001" />
    <path
       d="m 16.035717,39.25 c -1.260254,0 -2.285717,1.012784 -2.285717,2.257812 0,0.696733 0.323242,1.345171 0.873728,1.772017 v 1.932529 c 0,0.200994 0.164679,0.363636 0.368188,0.363636 h 2.087243 c 0.203511,0 0.368187,-0.162642 0.368187,-0.363636 v -1.932173 c 0.550847,-0.427202 0.874089,-1.075995 0.874089,-1.772373 0,-1.245028 -1.025463,-2.257812 -2.285718,-2.257812 z m 0.842447,3.539062 c -0.104272,0.06712 -0.167196,0.181819 -0.167196,0.304688 v 1.754971 h -1.350863 v -1.755326 c 0,-0.12287 -0.06292,-0.237571 -0.167194,-0.304688 -0.442618,-0.284446 -0.706534,-0.763139 -0.706534,-1.280895 0,-0.844105 0.695027,-1.530539 1.54934,-1.530539 0.854313,0 1.549343,0.686434 1.549343,1.530539 0,0.517401 -0.264278,0.996449 -0.706896,1.28125 z"
       id="path4-3"
       style="fill:#d6dbf1;fill-opacity:1;stroke-width:0.365905" />
    <rect
       style="fill:#4e5a7e;fill-opacity:0.501961;stroke:none;stroke-width:0.260353"
       id="center-3-35-6"
       width="8.3999996"
       height="7.25"
       x="11.799997"
       y="27.9"
       ry="0.11328115"
       rx="0" />
  </g>
  <g
     id="document-decrypt"
     transform="translate(32,-22)">
    <rect
       style="opacity:0.00100002;fill:#a8aeca;fill-opacity:1"
       width="32"
       height="32"
       x="32"
       y="22"
       id="rect27" />
    <path
       d="M 54.022424,49.999999 H 41.977576 C 40.338131,49.999999 39,48.678579 39,47.059409 v -8.979798 c 0,-1.619171 1.337956,-2.94059 2.977576,-2.94059 H 54.022424 C 55.662031,35.139021 57,36.46044 57,38.079611 v 8.979798 c 0,1.61917 -1.337969,2.94059 -2.977576,2.94059 z M 41.977576,48.055765 h 12.044848 c 0.552822,0 1.008819,-0.450364 1.008819,-0.996356 l 1.75e-4,-8.979798 c 0,-0.545821 -0.455821,-0.996356 -1.008832,-0.996356 H 41.977751 c -0.552822,0 -1.008833,0.450364 -1.008833,0.996356 v 8.979798 c 0,0.545992 0.455836,0.996356 1.008658,0.996356 z m 12.04501,-10.97251 H 41.977751 v 0 z M 41.905404,35.15 V 28.886099 C 41.905404,27.296943 43.218413,26 44.827643,26 h 6.344376 c 1.609217,0 2.922402,1.296943 2.922402,2.886099 V 31.95 H 52.16202 l 0.05681,-3.430016 c 0.0089,-0.535829 -0.621022,-0.638536 -1.163664,-0.637126 l -6.518403,0.01693 c -0.542481,0.0014 -0.698956,0.450537 -0.698956,0.986311 L 43.8,35.15 Z"
       fill-rule="evenodd"
       id="path73-6"
       sodipodi:nodetypes="sssssssssssccsssssccccscccccssssccs"
       style="fill:#d6dbf1;fill-opacity:1;stroke-width:0.0432089" />
    <rect
       style="fill:#4e5a7e;fill-opacity:0.501961;stroke:none;stroke-width:0.414009"
       id="center-3-35-3-7"
       width="14"
       height="11"
       x="41.000004"
       y="37.099998"
       ry="0.99999994"
       rx="1.000001" />
    <path
       d="m 48.035717,39.25 c -1.260254,0 -2.285717,1.012784 -2.285717,2.257812 0,0.696733 0.323242,1.345171 0.873728,1.772017 v 1.932529 c 0,0.200994 0.164679,0.363636 0.368188,0.363636 h 2.087243 c 0.203511,0 0.368187,-0.162642 0.368187,-0.363636 v -1.932173 c 0.550847,-0.427202 0.874089,-1.075995 0.874089,-1.772373 0,-1.245028 -1.025463,-2.257812 -2.285718,-2.257812 z m 0.842447,3.539062 c -0.104272,0.06712 -0.167196,0.181819 -0.167196,0.304688 v 1.754971 h -1.350863 v -1.755326 c 0,-0.12287 -0.06292,-0.237571 -0.167194,-0.304688 -0.442618,-0.284446 -0.706534,-0.763139 -0.706534,-1.280895 0,-0.844105 0.695027,-1.530539 1.54934,-1.530539 0.854313,0 1.549343,0.686434 1.549343,1.530539 0,0.517401 -0.264278,0.996449 -0.706896,1.28125 z"
       id="path4-3-5"
       style="fill:#d6dbf1;fill-opacity:1;stroke-width:0.365905" />
    <rect
       style="fill:#4e5a7e;fill-opacity:0.501961;stroke:none;stroke-width:0.260353"
       id="center-3-35-6-3"
       width="8.3999996"
       height="7.25"
       x="43.799999"
       y="27.900002"
       ry="0.11328115"
       rx="0" />
  </g>
  <g
     id="22-22-document-decrypt"
     transform="translate(32,-22)">
    <rect
       style="opacity:0.00100002;fill:#a8aeca;fill-opacity:1"
       width="22"
       height="22"
       x="32"
       y="0"
       id="rect12" />
    <path
       d="M 47.01495,19 H 38.985051 C 37.892087,19 37,18.119053 37,17.039607 v -5.986533 c 0,-1.079447 0.891971,-1.960393 1.985051,-1.960393 h 8.029899 c 1.093071,0 1.985051,0.880946 1.985051,1.960393 v 5.986533 C 49.000001,18.119053 48.108021,19 47.01495,19 Z m -8.029899,-1.296156 h 8.029899 c 0.368548,0 0.672546,-0.300243 0.672546,-0.664237 l 1.16e-4,-5.986533 c 0,-0.36388 -0.30388,-0.664237 -0.672554,-0.664237 h -8.029891 c -0.368548,0 -0.672555,0.300243 -0.672555,0.664237 v 5.986533 c 0,0.363994 0.303891,0.664237 0.672439,0.664237 z m 8.030007,-7.315007 h -8.029891 v 0 z M 38.936936,9.1 V 4.924066 C 38.936936,3.864629 39.812275,3 40.885095,3 h 4.229585 c 1.072811,0 1.948268,0.864629 1.948268,1.924066 V 6.966667 H 45.77468 l 0.03787,-2.286678 c 0.0059,-0.357219 -0.414015,-0.42569 -0.775776,-0.42475 l -4.345603,0.01129 c -0.361654,9.34e-4 -0.46597,0.300358 -0.46597,0.657541 L 40.200001,9.1 Z"
       fill-rule="evenodd"
       id="path73-6-5"
       sodipodi:nodetypes="sssssssssssccsssssccccscccccssssccs"
       style="fill:#d6dbf1;fill-opacity:1;stroke-width:0.0288059" />
    <rect
       style="fill:#4e5a7e;fill-opacity:0.501961;stroke:none;stroke-width:0.276006"
       id="center-3-35-3-7-6"
       width="9.333334"
       height="7.3333335"
       x="38.333336"
       y="10.399998"
       ry="0.66666663"
       rx="0.66666734" />
    <path
       d="m 43.023812,11.833334 c -0.84017,0 -1.523812,0.675189 -1.523812,1.505208 0,0.464488 0.215495,0.89678 0.582486,1.181344 v 1.288353 c 0,0.133996 0.109786,0.242424 0.245458,0.242424 h 1.391496 c 0.135674,0 0.245458,-0.108428 0.245458,-0.242424 v -1.288115 c 0.367231,-0.284802 0.582726,-0.71733 0.582726,-1.181582 0,-0.830019 -0.683642,-1.505208 -1.523812,-1.505208 z m 0.561631,2.359374 c -0.06951,0.04475 -0.111464,0.121213 -0.111464,0.203126 v 1.169981 h -0.900575 v -1.170218 c 0,-0.08191 -0.04195,-0.158381 -0.111463,-0.203125 -0.295079,-0.189631 -0.471023,-0.50876 -0.471023,-0.85393 0,-0.562737 0.463352,-1.02036 1.032894,-1.02036 0.569542,0 1.032895,0.457623 1.032895,1.02036 0,0.344934 -0.176185,0.664299 -0.471264,0.854166 z"
       id="path4-3-5-2"
       style="fill:#d6dbf1;fill-opacity:1;stroke-width:0.243937" />
    <rect
       style="fill:#4e5a7e;fill-opacity:0.501961;stroke:none;stroke-width:0.173569"
       id="center-3-35-6-3-9"
       width="5.5999999"
       height="4.8333335"
       x="40.199997"
       y="4.2666664"
       ry="0.075520769"
       rx="0" />
  </g>
  <g
     id="22-22-document-encrypt"
     transform="translate(32,-22)">
    <rect
       style="opacity:0.00100002;fill:#a8aeca;fill-opacity:1"
       width="22"
       height="22"
       x="0"
       y="0"
       id="rect2" />
    <path
       d="M 15.01495,19 H 6.985051 C 5.892087,19 5,18.119053 5,17.039607 V 11.053074 C 5,9.973627 5.891971,9.092681 6.985051,9.092681 h 8.029899 c 1.093071,0 1.985051,0.880946 1.985051,1.960393 v 5.986533 C 17.000001,18.119053 16.108021,19 15.01495,19 Z M 6.985051,17.703844 h 8.029899 c 0.368548,0 0.672546,-0.300243 0.672546,-0.664237 l 1.16e-4,-5.986533 c 0,-0.36388 -0.30388,-0.664237 -0.672554,-0.664237 H 6.985167 c -0.368548,0 -0.672555,0.300243 -0.672555,0.664237 v 5.986533 c 0,0.363994 0.303891,0.664237 0.672439,0.664237 z m 8.030007,-7.315007 H 6.985167 v 0 z M 6.936936,9.1 V 4.924066 C 6.936936,3.864629 7.812275,3 8.885095,3 h 4.229585 c 1.072811,0 1.948268,0.864629 1.948268,1.924066 V 9.093084 H 13.77468 l 0.03787,-4.413095 c 0.0031,-0.357255 -0.414015,-0.42569 -0.775776,-0.42475 L 8.691171,4.266529 C 8.329517,4.267463 8.225201,4.566887 8.225201,4.92407 L 8.200001,9.1 Z"
       fill-rule="evenodd"
       id="path73-6-5-1"
       sodipodi:nodetypes="sssssssssssccsssssccccscccccssssccs"
       style="fill:#d6dbf1;fill-opacity:1;stroke-width:0.0288059" />
    <rect
       style="fill:#4e5a7e;fill-opacity:0.501961;stroke:none;stroke-width:0.276006"
       id="center-3-35-3-7-6-2"
       width="9.333334"
       height="7.3333335"
       x="6.3333368"
       y="10.399998"
       ry="0.66666663"
       rx="0.66666734" />
    <path
       d="m 11.023812,11.833334 c -0.84017,0 -1.523812,0.675189 -1.523812,1.505208 0,0.464488 0.215495,0.89678 0.582486,1.181344 v 1.288353 c 0,0.133996 0.109786,0.242424 0.245458,0.242424 h 1.391496 c 0.135674,0 0.245458,-0.108428 0.245458,-0.242424 v -1.288115 c 0.367231,-0.284802 0.582726,-0.71733 0.582726,-1.181582 0,-0.830019 -0.683642,-1.505208 -1.523812,-1.505208 z m 0.561631,2.359374 c -0.06951,0.04475 -0.111464,0.121213 -0.111464,0.203126 v 1.169981 h -0.900575 v -1.170218 c 0,-0.08191 -0.04195,-0.158381 -0.111463,-0.203125 -0.295079,-0.189631 -0.471023,-0.50876 -0.471023,-0.85393 0,-0.562737 0.463352,-1.02036 1.032894,-1.02036 0.569542,0 1.032895,0.457623 1.032895,1.02036 0,0.344934 -0.176185,0.664299 -0.471264,0.854166 z"
       id="path4-3-5-2-7"
       style="fill:#d6dbf1;fill-opacity:1;stroke-width:0.243937" />
    <rect
       style="fill:#4e5a7e;fill-opacity:0.501961;stroke:none;stroke-width:0.173569"
       id="center-3-35-6-3-9-0"
       width="5.5999999"
       height="4.8333335"
       x="8.1999989"
       y="4.2666669"
       ry="0.075520769"
       rx="0" />
  </g>
</svg>
