<?xml version="1.0" encoding="UTF-8" standalone="no"?>
<svg
   width="32"
   height="32"
   version="1.1"
   id="svg12"
   sodipodi:docname="drive.svg"
   inkscape:version="1.1.1 (3bf5ae0d25, 2021-09-20)"
   xmlns:inkscape="http://www.inkscape.org/namespaces/inkscape"
   xmlns:sodipodi="http://sodipodi.sourceforge.net/DTD/sodipodi-0.dtd"
   xmlns="http://www.w3.org/2000/svg"
   xmlns:svg="http://www.w3.org/2000/svg"
   xmlns:rdf="http://www.w3.org/1999/02/22-rdf-syntax-ns#"
   xmlns:cc="http://creativecommons.org/ns#"
   xmlns:dc="http://purl.org/dc/elements/1.1/">
  <g
     id="22-22-drive-harddisk"
     transform="translate(32,10.000001)">
    <rect
       style="opacity:0.00100002;fill:#a8aeca;fill-opacity:1"
       width="22"
       height="22"
       x="0"
       y="-4.6325681e-08"
       id="rect2" />
    <path
       d="M 16.820072,3 H 5.146614 C 4.323485,3 3.65,3.6 3.65,4.333332 V 17.666665 C 3.65,18.4 4.323485,19 5.146614,19 h 11.673458 c 0.82313,0 1.496595,-0.6 1.496595,-1.333335 V 4.333332 C 18.316667,3.6 17.643202,3 16.820072,3 Z m 0.748304,14.666665 c 0,0.366663 -0.336755,0.666663 -0.748304,0.666663 H 5.146614 c -0.411582,0 -0.748305,-0.3 -0.748305,-0.666663 V 4.333332 c 0,-0.366665 0.336723,-0.666665 0.748305,-0.666665 h 11.673458 c 0.411549,0 0.748304,0.3 0.748304,0.666665 z"
       id="path2-3-3-3"
       style="fill:#d6dbf1;fill-opacity:1;stroke-width:0.353151" />
    <rect
       style="fill:#4e5a7e;fill-opacity:0.501961;stroke:none;stroke-width:0.347605"
       id="center-3-35-6"
       width="13.181415"
       height="14.666667"
       x="4.4019208"
       y="3.6666653"
       ry="0.54741049" />
    <path
       d="m 10.983333,14.333333 a 4,4 0 1 0 -4,-4 4.0056102,4.0056102 0 0 0 4,4 z m 0,-7.198878 a 3.1988777,3.1988777 0 1 1 -3.198877,3.198878 3.2026172,3.2026172 0 0 1 3.198877,-3.198878 z"
       id="path12-6-7"
       style="fill:#d6dbf1;fill-opacity:1;stroke-width:0.26704;image-rendering:optimizeQuality;shape-rendering:geometricPrecision;text-rendering:geometricPrecision" />
    <path
       d="M 15.303633,15.666667 H 6.705107 C 6.39822,15.666667 6.15,15.915519 6.15,16.221246 v 0.139285 c 0,0.306123 0.248347,0.55409 0.555107,0.55409 h 8.598526 c 0.306507,0 0.554974,-0.247961 0.554974,-0.55409 v -0.139285 c 0,-0.305486 -0.248474,-0.554579 -0.554974,-0.554579 z m -4.871506,0.901649 H 6.86086 c -0.16314,0 -0.294767,-0.131889 -0.294767,-0.294387 0,-0.16352 0.131887,-0.295155 0.294767,-0.295155 h 3.571267 c 0.162753,0 0.295153,0.13189 0.295153,0.295155 0,0.162628 -0.1324,0.294387 -0.295153,0.294387 z"
       id="path79-3-5"
       style="fill:#d6dbf1;fill-opacity:1;stroke-width:0.0326531" />
    <path
       d="m 10.98658,8.666667 c -0.451693,0 -0.884885,0.179515 -1.204365,0.498878 -0.319362,0.319456 -0.498882,0.752648 -0.498882,1.204366 0,0.451719 0.179515,0.884887 0.498882,1.204368 0.319455,0.31936 0.752648,0.498877 1.204365,0.498877 0.451717,0 0.884886,-0.179515 1.204365,-0.498877 0.319362,-0.319457 0.498882,-0.75265 0.498882,-1.204368 C 12.689337,9.918385 12.509649,9.485481 12.190273,9.166217 11.870984,8.846858 11.438081,8.667244 10.98658,8.666667 Z m 0,2.985231 v 9.7e-5 c -0.340053,0 -0.666199,-0.135155 -0.906613,-0.375566 -0.240424,-0.240421 -0.375565,-0.566562 -0.375565,-0.906614 0,-0.340052 0.135151,-0.666198 0.375565,-0.906614 0.240419,-0.240421 0.56656,-0.375566 0.906613,-0.375566 0.340053,0 0.666199,0.135155 0.906613,0.375566 0.24042,0.240422 0.375565,0.566562 0.375565,0.906614 -2.8e-4,0.339956 -0.135529,0.665909 -0.375855,0.906326 -0.240418,0.240326 -0.566368,0.375565 -0.906323,0.375854 z"
       id="path74-6-3"
       style="fill:#d6dbf1;fill-opacity:1;stroke-width:0.0240609" />
    <path
       d="m 10.98658,9.585791 c -0.207997,0 -0.407447,0.08262 -0.554529,0.229708 -0.147088,0.147091 -0.22971,0.346524 -0.22971,0.55453 0,0.208007 0.08262,0.407448 0.22971,0.554532 0.147088,0.147084 0.346522,0.229706 0.554529,0.229706 0.208007,0 0.407447,-0.08261 0.55453,-0.229706 0.147083,-0.147092 0.229705,-0.346525 0.229705,-0.554532 -2.8e-4,-0.2079 -0.08299,-0.407253 -0.229985,-0.554242 -0.147,-0.146988 -0.346356,-0.229706 -0.554245,-0.229988 z m 0,1.147416 c -0.09634,0 -0.188731,-0.03825 -0.256777,-0.106395 -0.06814,-0.06805 -0.106394,-0.160438 -0.106394,-0.256778 0,-0.09634 0.03827,-0.188729 0.106394,-0.256777 0.06805,-0.06814 0.160434,-0.106395 0.256777,-0.106395 0.09634,0 0.188731,0.03825 0.256778,0.106395 0.06814,0.06805 0.106393,0.160438 0.106393,0.256777 -2.8e-4,0.09624 -0.03861,0.188445 -0.106674,0.256489 -0.06805,0.06804 -0.160252,0.106395 -0.256492,0.106676 z"
       id="path76-7-5"
       style="fill:#d6dbf1;fill-opacity:1;stroke-width:0.0240609" />
  </g>
  <g
     id="drive-harddisk">
    <rect
       style="opacity:0.00100002;fill:#a8aeca;fill-opacity:1"
       width="32"
       height="32"
       x="0"
       y="4.6325681e-08"
       id="rect7" />
    <path
       d="M 24.755108,4 H 7.244921 C 6.010227,4 5,4.9 5,5.999998 V 25.999997 C 5,27.1 6.010227,28 7.244921,28 H 24.755108 C 25.989803,28 27,27.1 27,25.999997 V 5.999998 C 27,4.9 25.989803,4 24.755108,4 Z m 1.122456,21.999997 c 0,0.549995 -0.505133,0.999995 -1.122456,0.999995 H 7.244921 c -0.617373,0 -1.122457,-0.45 -1.122457,-0.999995 V 5.999998 C 6.122464,5.45 6.627548,5 7.244921,5 h 17.510187 c 0.617323,0 1.122456,0.45 1.122456,0.999998 z"
       id="path2-3-3"
       style="fill:#d6dbf1;fill-opacity:1;stroke-width:0.529727" />
    <rect
       style="fill:#4e5a7e;fill-opacity:0.501961;stroke:none;stroke-width:0.521408"
       id="center-3-35"
       width="19.772121"
       height="22"
       x="6.1278801"
       y="4.9999971"
       ry="0.82111573" />
    <path
       d="m 16,21 a 6,6 0 1 0 -6,-6 6.0084153,6.0084153 0 0 0 6,6 z M 16,10.201682 A 4.7983166,4.7983166 0 1 1 11.201684,15 4.8039258,4.8039258 0 0 1 16,10.201682 Z"
       id="path12-6"
       style="fill:#d6dbf1;fill-opacity:1;stroke-width:0.40056;image-rendering:optimizeQuality;shape-rendering:geometricPrecision;text-rendering:geometricPrecision" />
    <path
       d="M 22.48045,23 H 9.58266 C 9.12233,23 8.75,23.373278 8.75,23.831869 v 0.208927 c 0,0.459185 0.37252,0.831135 0.83266,0.831135 h 12.89779 c 0.45976,0 0.83246,-0.371941 0.83246,-0.831135 V 23.831869 C 23.31291,23.37364 22.9402,23 22.48045,23 Z m -7.30726,1.352474 h -5.3569 c -0.24471,0 -0.44215,-0.197834 -0.44215,-0.441581 0,-0.24528 0.19783,-0.442732 0.44215,-0.442732 h 5.3569 c 0.24413,0 0.44273,0.197835 0.44273,0.442732 0,0.243942 -0.1986,0.441581 -0.44273,0.441581 z"
       id="path79-3"
       style="fill:#d6dbf1;fill-opacity:1;stroke-width:0.0489796" />
    <path
       d="m 16.00487,12.5 c -0.677539,0 -1.327328,0.269273 -1.806548,0.748317 -0.479043,0.479184 -0.748322,1.128972 -0.748322,1.80655 0,0.677578 0.269272,1.32733 0.748322,1.806551 0.479183,0.47904 1.128972,0.748316 1.806548,0.748316 0.677576,0 1.327329,-0.269273 1.806548,-0.748316 0.479043,-0.479185 0.748323,-1.128974 0.748323,-1.806552 -7.35e-4,-0.677289 -0.270267,-1.326644 -0.749332,-1.80554 C 17.331476,12.770287 16.682122,12.500866 16.00487,12.5 Z m 0,4.477847 v 1.45e-4 c -0.510079,0 -0.999298,-0.202732 -1.35992,-0.563349 -0.360636,-0.360631 -0.563347,-0.849842 -0.563347,-1.35992 0,-0.510078 0.202727,-0.999297 0.563347,-1.359921 0.360629,-0.360632 0.849841,-0.563349 1.35992,-0.563349 0.51008,0 0.999299,0.202732 1.35992,0.563349 0.360629,0.360632 0.563347,0.849843 0.563347,1.359921 -4.2e-4,0.509934 -0.203293,0.998863 -0.563782,1.359488 -0.360628,0.36049 -0.849553,0.563348 -1.359485,0.563781 z"
       id="path74-6"
       style="fill:#d6dbf1;fill-opacity:1;stroke-width:0.0360913" />
    <path
       d="m 16.00487,13.878687 c -0.311995,0 -0.61117,0.123924 -0.831794,0.344561 -0.220632,0.220637 -0.344565,0.519786 -0.344565,0.831796 0,0.31201 0.123925,0.611171 0.344565,0.831797 0.220632,0.220626 0.519784,0.34456 0.831794,0.34456 0.312011,0 0.61117,-0.123923 0.831795,-0.34456 0.220624,-0.220637 0.344557,-0.519787 0.344557,-0.831797 -4.2e-4,-0.311851 -0.124485,-0.61088 -0.344977,-0.831363 -0.2205,-0.220482 -0.519534,-0.34456 -0.831367,-0.344983 z m 0,1.721123 c -0.144506,0 -0.283096,-0.05738 -0.385166,-0.159592 -0.102211,-0.10207 -0.15959,-0.240657 -0.15959,-0.385167 0,-0.144509 0.0574,-0.283093 0.15959,-0.385166 0.10207,-0.10221 0.240652,-0.159592 0.385166,-0.159592 0.144507,0 0.283096,0.05738 0.385167,0.159592 0.10221,0.10207 0.15959,0.240657 0.15959,0.385166 -4.2e-4,0.144365 -0.05792,0.282667 -0.160011,0.384734 -0.10207,0.102066 -0.240379,0.159592 -0.384738,0.160014 z"
       id="path76-7"
       style="fill:#d6dbf1;fill-opacity:1;stroke-width:0.0360913" />
  </g>
  <metadata
     id="metadata18">
    <rdf:RDF>
      <cc:Work
         rdf:about="">
        <dc:format>image/svg+xml</dc:format>
        <dc:type
           rdf:resource="http://purl.org/dc/dcmitype/StillImage" />
      </cc:Work>
    </rdf:RDF>
  </metadata>
  <defs
     id="defs16">
    <linearGradient
       id="a"
       gradientUnits="userSpaceOnUse"
       x1="386.57101"
       x2="386.57101"
       y1="549.79797"
       y2="497.798"
       gradientTransform="matrix(0.40909069,0,0,0.46153824,-114.14259,-258.7528)">
      <stop
         offset="0"
         stop-color="#7f8c8d"
         id="stop2" />
      <stop
         offset="1"
         stop-color="#afb0b3"
         id="stop4" />
    </linearGradient>
    <linearGradient
       id="b"
       gradientUnits="userSpaceOnUse"
       x1="400.57101"
       x2="420.57101"
       y1="511.798"
       y2="531.79797"
       gradientTransform="matrix(0.40909069,0,0,0.46153824,-113.69674,-258.91205)">
      <stop
         offset="0"
         stop-color="#292c2f"
         id="stop12" />
      <stop
         offset="1"
         stop-opacity="0"
         id="stop14" />
    </linearGradient>
    <linearGradient
       id="c"
       gradientUnits="userSpaceOnUse"
       x1="12"
       x2="12"
       y1="48"
       y2="10"
       gradientTransform="matrix(0.40909069,0,0,0.46153824,40.35495,-31.928466)">
      <stop
         offset="0"
         stop-color="#eef1f2"
         id="stop7" />
      <stop
         offset="1"
         stop-color="#f9fafb"
         id="stop9" />
    </linearGradient>
  </defs>
  <sodipodi:namedview
     pagecolor="#ffffff"
     bordercolor="#666666"
     borderopacity="1"
     objecttolerance="10"
     gridtolerance="10"
     guidetolerance="10"
     inkscape:pageopacity="0"
     inkscape:pageshadow="2"
     inkscape:window-width="1920"
     inkscape:window-height="1007"
     id="namedview14"
     showgrid="false"
     inkscape:zoom="9.8125003"
     inkscape:cx="24.76433"
     inkscape:cy="23.694267"
     inkscape:window-x="0"
     inkscape:window-y="0"
     inkscape:window-maximized="1"
     inkscape:current-layer="svg12"
     inkscape:document-rotation="0"
     inkscape:lockguides="false"
     showguides="true"
     inkscape:pagecheckerboard="0">
    <inkscape:grid
       type="xygrid"
       id="grid875"
       originx="0"
       originy="-4.6325681e-08" />
  </sodipodi:namedview>
</svg>
