<?xml version="1.0" encoding="UTF-8" standalone="no"?>
<svg
   width="32"
   height="32"
   version="1.1"
   id="svg16"
   sodipodi:docname="dropbox.svg"
   inkscape:version="1.2.2 (b0a8486541, 2022-12-01)"
   xmlns:inkscape="http://www.inkscape.org/namespaces/inkscape"
   xmlns:sodipodi="http://sodipodi.sourceforge.net/DTD/sodipodi-0.dtd"
   xmlns="http://www.w3.org/2000/svg"
   xmlns:svg="http://www.w3.org/2000/svg"
   xmlns:rdf="http://www.w3.org/1999/02/22-rdf-syntax-ns#"
   xmlns:cc="http://creativecommons.org/ns#"
   xmlns:dc="http://purl.org/dc/elements/1.1/">
  <metadata
     id="metadata22">
    <rdf:RDF>
      <cc:Work
         rdf:about="">
        <dc:format>image/svg+xml</dc:format>
        <dc:type
           rdf:resource="http://purl.org/dc/dcmitype/StillImage" />
      </cc:Work>
    </rdf:RDF>
  </metadata>
  <defs
     id="defs20">
    <linearGradient
       id="oomox"
       x1="131.53468"
       x2="131.53468"
       y1="146.39674"
       y2="160.8511"
       gradientTransform="scale(1.0377491,0.96362406)"
       gradientUnits="userSpaceOnUse">
      <stop
         offset="0%"
         style="stop-color:#303b3d; stop-opacity:1"
         id="stop18" />
      <stop
         offset="100%"
         style="stop-color:#bc985d; stop-opacity:1"
         id="stop20" />
    </linearGradient>
  </defs>
  <sodipodi:namedview
     pagecolor="#cccccc"
     bordercolor="#000000"
     borderopacity="1"
     objecttolerance="10"
     gridtolerance="10"
     guidetolerance="10"
     inkscape:pageopacity="0"
     inkscape:pageshadow="2"
     inkscape:window-width="1920"
     inkscape:window-height="998"
     id="namedview18"
     showgrid="false"
     inkscape:zoom="13.876971"
     inkscape:cx="19.204479"
     inkscape:cy="19.564788"
     inkscape:window-x="0"
     inkscape:window-y="0"
     inkscape:window-maximized="1"
     inkscape:current-layer="svg16"
     inkscape:document-rotation="0"
     inkscape:showpageshadow="2"
     inkscape:pagecheckerboard="0"
     inkscape:deskcolor="#808080"
     inkscape:lockguides="true">
    <inkscape:grid
       type="xygrid"
       id="grid876"
       originx="0"
       originy="0" />
  </sodipodi:namedview>
  <g
     id="dropbox">
    <rect
       style="opacity:0.00100002"
       width="32"
       height="32"
       x="0"
       y="0"
       id="rect9" />
    <path
       d="M 24.755108,4 H 7.244921 C 6.010227,4 5,4.9 5,5.999998 v 19.999998 c 0,1.100003 1.010227,2.000003 2.244921,2.000003 h 17.510187 c 1.234695,0 2.244892,-0.9 2.244892,-2.000003 V 5.999998 C 27,4.9 25.989803,4 24.755108,4 Z m 1.122456,21.999996 c 0,0.549995 -0.505133,0.999995 -1.122456,0.999995 H 7.244921 c -0.617373,0 -1.122457,-0.45 -1.122457,-0.999995 V 5.999998 C 6.122464,5.45 6.627548,5 7.244921,5 h 17.510187 c 0.617323,0 1.122456,0.45 1.122456,0.999998 z"
       id="path2-3-3"
       style="fill:#d6dbf1;fill-opacity:1;stroke-width:0.529727" />
    <rect
       style="fill:#4e5a7e;fill-opacity:0.501961;stroke:none;stroke-width:0.521408"
       id="center-3-35"
       width="19.772121"
       height="22"
       x="6.1278806"
       y="4.9999971"
       ry="0.82111573" />
    <path
       d="M 12.142855,8 7,11.076922 l 3.857148,2.46154 5.142851,-3.076919 z m 3.857144,2.461543 5.142854,3.076919 L 25,11.076922 19.857147,8 Z m 5.142854,3.076919 -5.142854,3.076921 3.857148,2.461546 L 25,15.999992 Z M 15.999999,16.615383 10.857148,13.538462 7,15.999992 l 5.142855,3.076937 z m 0,1.478364 -3.834534,2.447117 -1.308317,-0.783655 v 0.177888 1.108172 L 16.010045,24 21.142853,21.052876 v -1.105752 -0.189915 l -1.308311,0.783655 z"
       style="fill:#d6dbf1;fill-opacity:1;stroke-width:1.17399;enable-background:new"
       class="ColorScheme-Text"
       id="path58-7-3" />
  </g>
  <g
     id="22-22-dropbox"
     transform="translate(32,10)">
    <rect
       style="opacity:0.00100002"
       width="22"
       height="22"
       x="0"
       y="0"
       id="rect2" />
    <path
       d="M 16.820072,3 H 5.146614 C 4.323485,3 3.65,3.6 3.65,4.333332 V 17.666665 C 3.65,18.4 4.323485,19 5.146614,19 h 11.673458 c 0.82313,0 1.496595,-0.6 1.496595,-1.333335 V 4.333332 C 18.316667,3.6 17.643202,3 16.820072,3 Z m 0.748304,14.666665 c 0,0.366663 -0.336755,0.666663 -0.748304,0.666663 H 5.146614 c -0.411582,0 -0.748305,-0.3 -0.748305,-0.666663 V 4.333332 c 0,-0.366665 0.336723,-0.666665 0.748305,-0.666665 h 11.673458 c 0.411549,0 0.748304,0.3 0.748304,0.666665 z"
       id="path2-3-3-3"
       style="fill:#d6dbf1;fill-opacity:1;stroke-width:0.353151" />
    <rect
       style="fill:#4e5a7e;fill-opacity:0.501961;stroke:none;stroke-width:0.347605"
       id="center-3-35-6"
       width="13.181415"
       height="14.666667"
       x="4.4019203"
       y="3.6666653"
       ry="0.54741049" />
    <path
       d="M 8.4285686,5.75 5,7.7692278 7.571432,9.3846207 10.999999,7.365384 Z M 10.999999,7.365384 14.428572,9.3846207 17,7.7692278 13.571434,5.75 Z m 3.428573,2.0192367 -3.428573,2.0192323 2.571435,1.615386 L 17,10.999999 Z M 10.999999,11.403853 7.571432,9.3846207 5,10.999999 l 3.4285686,2.01924 z m 0,0.970171 -2.556353,1.605925 -0.872214,-0.51429 v 0.116753 0.727237 L 11.006689,16.25 14.428572,14.315951 v -0.725657 -0.124637 l -0.872215,0.514292 z"
       style="fill:#d1d5e9;fill-opacity:1;stroke-width:0.77653;enable-background:new"
       class="ColorScheme-Text"
       id="path58-7-6" />
  </g>
</svg>
