<?xml version="1.0" encoding="UTF-8" standalone="no"?>
<svg
   inkscape:version="1.1.1 (3bf5ae0d25, 2021-09-20)"
   sodipodi:docname="edit.svg"
   viewBox="0 0 32 32"
   version="1.1"
   height="32"
   width="32"
   id="svg"
   xmlns:inkscape="http://www.inkscape.org/namespaces/inkscape"
   xmlns:sodipodi="http://sodipodi.sourceforge.net/DTD/sodipodi-0.dtd"
   xmlns="http://www.w3.org/2000/svg"
   xmlns:svg="http://www.w3.org/2000/svg"
   xmlns:rdf="http://www.w3.org/1999/02/22-rdf-syntax-ns#"
   xmlns:cc="http://creativecommons.org/ns#"
   xmlns:dc="http://purl.org/dc/elements/1.1/">
  <metadata
     id="metadata60">
    <rdf:RDF>
      <cc:Work
         rdf:about="">
        <dc:format>image/svg+xml</dc:format>
        <dc:type
           rdf:resource="http://purl.org/dc/dcmitype/StillImage" />
      </cc:Work>
    </rdf:RDF>
  </metadata>
  <sodipodi:namedview
     inkscape:document-rotation="0"
     inkscape:lockguides="false"
     inkscape:current-layer="svg"
     inkscape:window-maximized="1"
     inkscape:window-y="0"
     inkscape:window-x="0"
     inkscape:cy="25.599663"
     inkscape:cx="32.407063"
     inkscape:zoom="5.2149125"
     showgrid="false"
     id="namedview58"
     inkscape:window-height="1007"
     inkscape:window-width="1920"
     inkscape:pageshadow="2"
     inkscape:pageopacity="0"
     guidetolerance="10"
     gridtolerance="10"
     objecttolerance="10"
     borderopacity="1"
     bordercolor="#000000"
     pagecolor="#ffffff"
     inkscape:showpageshadow="false"
     inkscape:pagecheckerboard="0">
    <inkscape:grid
       id="grid834"
       type="xygrid"
       originx="0"
       originy="0" />
  </sodipodi:namedview>
  <defs
     id="defs4">
    <linearGradient
       id="linearGradient5606"
       inkscape:swatch="solid">
      <stop
         style="stop-color:#000000"
         offset="0"
         id="stop5608" />
    </linearGradient>
  </defs>
  <rect
     id="rect16"
     y="13.77"
     x="-38.330002"
     height="22"
     width="22"
     style="fill:#d3dae3;fill-opacity:0" />
  <g
     id="g44"
     transform="matrix(1.7493122,0,0,1.7499488,-69.71355,-1326.9605)"
     style="opacity:0.2" />
  <g
     id="edit-delete">
    <rect
       id="rect36"
       style="opacity:0.00100002;fill:#d6dbf1;fill-opacity:1"
       y="0"
       x="0"
       height="32"
       width="32" />
    <path
       inkscape:connector-curvature="0"
       id="fill"
       d="M 9.307002,6 C 8.204669,6 6,8.22222 6,9.33334 c 8.485442,4.733162 7.945061,9.202393 0.435306,13.33332 0,1.20342 1.769363,3.33334 2.871696,3.33334 4.971058,-8.963117 9.240225,-6.726547 13.228008,0 1.102333,0 3.307003,-2.22222 3.307003,-3.33334 -7.430219,-4.25286 -8.149225,-8.678769 0,-13.33332 C 25.842013,8.22222 23.637343,6 22.53501,6 18.301871,14.235197 13.920092,15.523081 9.307002,6 Z"
       style="color:#1e92ff;fill:#62709d;fill-opacity:0.501961;fill-rule:nonzero;stroke:none;stroke-width:3.3527"
       class="ColorScheme-ButtonFocus"
       sodipodi:nodetypes="ccccccccc" />
    <path
       d="m 25.175653,21.281945 -5.178509,-5.221416 5.178299,-5.221437 h 2.1e-4 c 0.52795,-0.535756 0.82434,-1.260196 0.82434,-2.015434 0,-0.755026 -0.29637,-1.479659 -0.82434,-2.015221 C 24.637573,6.2895 23.921663,6 23.177089,6 c -0.744591,0 -1.460494,0.289461 -1.9988,0.808437 l -5.178297,5.22165 -5.1783,-5.22165 C 10.283399,6.2895 9.567485,6 8.82291,6 8.078322,6 7.362419,6.289461 6.824336,6.808437 6.296378,7.343979 6.000002,8.068632 6.000002,8.823658 c 0,0.755238 0.296352,1.479678 0.824334,2.015434 l 5.178507,5.221437 -5.178507,5.221416 c -0.624972,0.735932 -0.837833,1.741083 -0.565314,2.670071 0.272529,0.92899 0.993292,1.655763 1.914606,1.930563 0.921315,0.274781 1.918179,0.06028 2.64801,-0.570017 l 5.1783,-5.221651 5.1783,5.221418 v 2.13e-4 c 0.729838,0.630177 1.726693,0.844818 2.648015,0.570037 0.9213,-0.2748 1.64207,-1.001573 1.9146,-1.930563 0.27253,-0.928988 0.0598,-1.934159 -0.5653,-2.670071 z m -1.34195,2.687123 c -0.17654,0.174607 -0.41406,0.272429 -0.661473,0.272429 -0.247208,0 -0.484722,-0.0978 -0.661482,-0.272429 l -5.839877,-5.888536 c -0.177176,-0.177522 -0.416586,-0.277113 -0.666338,-0.277113 -0.249533,0 -0.489149,0.09956 -0.666117,0.277113 l -5.849069,5.888536 c -0.177175,0.177329 -0.416575,0.277115 -0.666328,0.277115 -0.249533,0 -0.489147,-0.09974 -0.666118,-0.277115 -0.173182,-0.178105 -0.270203,-0.417517 -0.270203,-0.667002 0,-0.249465 0.09707,-0.488955 0.270203,-0.666964 l 5.839878,-5.888536 c 0.176133,-0.178689 0.274844,-0.420045 0.274844,-0.671882 0,-0.251604 -0.09873,-0.493233 -0.274844,-0.67167 L 8.156901,9.495443 C 7.980981,9.316754 7.882058,9.075398 7.882058,8.823561 c 0,-0.251623 0.09897,-0.493233 0.274843,-0.67167 0.176539,-0.174605 0.414051,-0.272466 0.66147,-0.272466 0.247427,0 0.484938,0.0978 0.661476,0.272466 l 5.839891,5.888517 c 0.177176,0.177522 0.416572,0.277134 0.666325,0.277134 0.249534,0 0.489149,-0.09956 0.666119,-0.277134 L 22.51097,8.151891 c 0.177174,-0.177327 0.41658,-0.277133 0.666333,-0.277133 0.249539,0 0.48915,0.09974 0.66612,0.277133 0.17316,0.177912 0.2702,0.417499 0.2702,0.666983 0,0.249466 -0.097,0.488956 -0.2702,0.666983 l -5.839887,5.888517 c -0.176113,0.178689 -0.274832,0.420046 -0.274832,0.671882 0,0.251624 0.09873,0.493213 0.274832,0.67167 l 5.839887,5.888516 v 2.15e-4 c 0.18055,0.180439 0.28138,0.426851 0.27969,0.683159 -0.003,0.256504 -0.10611,0.501302 -0.28919,0.67935 z"
       id="path2-3"
       style="fill:#d6dbf1;fill-opacity:1;stroke-width:0.0542223" />
  </g>
  <g
     id="22-22-edit-delete"
     transform="translate(32,9.9999999)">
    <rect
       id="rect18"
       y="0"
       x="0"
       height="22"
       width="22"
       style="opacity:0.00100002;fill:#d6dbf1;fill-opacity:1" />
    <path
       inkscape:connector-curvature="0"
       id="fill-3"
       d="M 5.645602,3 C 4.763735,3 3,4.777776 3,5.666672 9.788354,9.453202 9.356049,13.028586 3.348245,16.333328 3.348245,17.296064 4.763735,19 5.645602,19 c 3.976846,-7.170494 7.39218,-5.381238 10.582406,0 0.881866,0 2.645602,-1.777776 2.645602,-2.666672 -5.944175,-3.402288 -6.51938,-6.943015 0,-10.666656 C 18.87361,4.777776 17.109874,3 16.228008,3 12.841497,9.588158 9.336074,10.618465 5.645602,3 Z"
       style="color:#1e92ff;fill:#62709d;fill-opacity:0.501961;fill-rule:nonzero;stroke:none;stroke-width:2.68216"
       class="ColorScheme-ButtonFocus"
       sodipodi:nodetypes="ccccccccc" />
    <path
       d="m 18.340522,15.225556 -4.142807,-4.177133 4.142639,-4.177149 h 1.68e-4 c 0.42236,-0.428605 0.659472,-1.008157 0.659472,-1.612348 0,-0.60402 -0.237096,-1.183727 -0.659472,-1.612176 C 17.910058,3.2316 17.33733,3 16.741671,3 16.145998,3 15.573276,3.231569 15.142631,3.64675 L 10.999994,7.82407 6.857354,3.64675 C 6.426719,3.2316 5.853988,3 5.258328,3 4.662658,3 4.089935,3.231569 3.659469,3.64675 3.237102,4.075183 3.000002,4.654906 3.000002,5.258926 c 0,0.604191 0.237081,1.183743 0.659467,1.612348 l 4.142805,4.177149 -4.142805,4.177133 c -0.499978,0.588746 -0.670267,1.392866 -0.452251,2.136057 0.218023,0.743192 0.794633,1.32461 1.531684,1.54445 0.737052,0.219825 1.534544,0.04822 2.118408,-0.456013 l 4.14264,-4.177321 4.14264,4.177134 v 1.71e-4 c 0.583871,0.504141 1.381355,0.675854 2.118412,0.456029 0.73704,-0.21984 1.313656,-0.801258 1.53168,-1.54445 0.218024,-0.743191 0.04784,-1.547327 -0.45224,-2.136057 z m -1.07356,2.149698 c -0.141232,0.139686 -0.331248,0.217944 -0.529178,0.217944 -0.197766,0 -0.387778,-0.07824 -0.529186,-0.217944 l -4.671901,-4.710828 c -0.141741,-0.142018 -0.333269,-0.221691 -0.533071,-0.221691 -0.199626,0 -0.391319,0.07965 -0.532893,0.221691 l -4.679255,4.710828 c -0.14174,0.141864 -0.33326,0.221692 -0.533063,0.221692 -0.199626,0 -0.391317,-0.07979 -0.532894,-0.221692 -0.138546,-0.142484 -0.216163,-0.334013 -0.216163,-0.533601 0,-0.199572 0.07766,-0.391164 0.216163,-0.533571 l 4.671902,-4.710829 c 0.140907,-0.142951 0.219875,-0.336036 0.219875,-0.537506 0,-0.201283 -0.07898,-0.394586 -0.219875,-0.537336 L 4.725521,5.796354 C 4.584785,5.653403 4.505646,5.460318 4.505646,5.258849 4.505646,5.05755 4.584826,4.864262 4.725521,4.721513 4.866752,4.581829 5.056762,4.50354 5.254697,4.50354 c 0.197941,0 0.38795,0.07824 0.529181,0.217973 l 4.671912,4.710813 c 0.141741,0.142018 0.333258,0.221708 0.53306,0.221708 0.199628,0 0.39132,-0.07965 0.532896,-0.221708 l 4.68703,-4.710813 c 0.141739,-0.141862 0.333264,-0.221707 0.533066,-0.221707 0.199632,0 0.39132,0.07979 0.532896,0.221707 0.138528,0.142329 0.21616,0.333999 0.21616,0.533586 0,0.199573 -0.0776,0.391165 -0.21616,0.533587 l -4.671909,4.710813 c -0.140891,0.142951 -0.219866,0.336037 -0.219866,0.537506 0,0.201299 0.07898,0.39457 0.219866,0.537336 l 4.671909,4.710813 v 1.72e-4 c 0.14444,0.144351 0.225104,0.34148 0.223752,0.546527 -0.0024,0.205203 -0.08489,0.401041 -0.231352,0.54348 z"
       id="path2-3-6"
       style="fill:#d6dbf1;fill-opacity:1;stroke-width:0.0433778" />
  </g>
  <g
     id="16-16-edit-delete"
     transform="translate(54,15.893175)">
    <rect
       id="rect27"
       y="1.2512207e-07"
       x="0"
       height="16"
       width="16"
       style="opacity:0.00100002;fill:#d6dbf1;fill-opacity:1;stroke-width:1" />
    <path
       inkscape:connector-curvature="0"
       id="fill-7"
       d="M 3.9842,2 C 3.322802,2 2,3.333332 2,4.000004 7.091264,6.839901 6.767036,9.52144 2.261186,11.999996 2.261186,12.722048 3.322802,14 3.9842,14 c 2.982636,-5.37787 5.544138,-4.035928 7.936806,0 0.661398,0 1.9842,-1.333332 1.9842,-2.000004 -4.458132,-2.551716 -4.889532,-5.207261 0,-7.999992 C 13.905206,3.333332 12.582404,2 11.921006,2 9.381122,6.941118 6.752054,7.713849 3.9842,2 Z"
       style="color:#1e92ff;fill:#62709d;fill-opacity:0.501961;fill-rule:nonzero;stroke:none;stroke-width:2.01162"
       class="ColorScheme-ButtonFocus"
       sodipodi:nodetypes="ccccccccc" />
    <path
       d="m 13.50539,11.169167 -3.1071,-3.13285 3.106974,-3.132862 h 1.26e-4 c 0.31677,-0.321453 0.494604,-0.756117 0.494604,-1.20926 0,-0.453016 -0.177822,-0.887796 -0.494604,-1.209133 C 13.182542,2.1737 12.752996,2 12.306254,2 11.8595,2 11.42996,2.173677 11.106974,2.485062 l -3.10698,3.13299 -3.10698,-3.13299 C 4.57004,2.1737 4.140494,2 3.693746,2 3.246992,2 2.817452,2.173677 2.494604,2.485062 2.177828,2.806387 2,3.241179 2,3.694195 2,4.147338 2.17781,4.582002 2.494604,4.903455 l 3.1071,3.132862 -3.1071,3.13285 c -0.374988,0.441559 -0.502704,1.04465 -0.339192,1.602043 0.163518,0.557394 0.595974,0.993457 1.148766,1.158337 0.552786,0.164869 1.150908,0.03617 1.588806,-0.34201 l 3.10698,-3.13299 3.10698,3.13285 v 1.28e-4 c 0.437904,0.378106 1.036014,0.506891 1.588806,0.342022 0.55278,-0.16488 0.985242,-0.600943 1.14876,-1.158337 0.163518,-0.557393 0.03588,-1.160496 -0.33918,-1.602043 z m -0.80517,1.612274 c -0.105924,0.104764 -0.248436,0.163457 -0.396882,0.163457 -0.148326,0 -0.290832,-0.05868 -0.396888,-0.163457 L 8.402522,9.248319 C 8.29622,9.141806 8.152574,9.082051 8.002718,9.082051 c -0.149718,0 -0.29349,0.05974 -0.399666,0.166268 L 4.09361,12.781441 c -0.106308,0.106397 -0.249948,0.166269 -0.399798,0.166269 -0.149718,0 -0.29349,-0.05984 -0.399672,-0.166269 -0.103908,-0.106863 -0.16212,-0.25051 -0.16212,-0.400201 0,-0.149679 0.05826,-0.293373 0.16212,-0.400179 L 6.798068,8.44794 C 6.903746,8.340726 6.962972,8.195913 6.962972,8.04481 c 0,-0.150962 -0.05922,-0.295939 -0.164904,-0.403002 L 3.29414,4.097266 C 3.188588,3.990052 3.129236,3.845239 3.129236,3.694137 c 0,-0.150974 0.0594,-0.29594 0.164904,-0.403002 0.105924,-0.104763 0.24843,-0.16348 0.396882,-0.16348 0.148458,0 0.290964,0.05868 0.396888,0.16348 l 3.503934,3.53311 c 0.106308,0.106513 0.249942,0.16628 0.399792,0.16628 0.149724,0 0.29349,-0.05974 0.399672,-0.16628 l 3.515274,-3.53311 c 0.106308,-0.106397 0.249948,-0.16628 0.399798,-0.16628 0.149724,0 0.29349,0.05984 0.399672,0.16628 0.103896,0.106747 0.16212,0.250499 0.16212,0.400189 0,0.14968 -0.0582,0.293374 -0.16212,0.40019 l -3.503928,3.53311 c -0.105672,0.107214 -0.164898,0.252028 -0.164898,0.40313 0,0.150974 0.05922,0.295927 0.164898,0.403002 l 3.503928,3.533109 v 1.29e-4 c 0.10833,0.108264 0.168828,0.256111 0.167814,0.409896 -0.0018,0.153902 -0.06367,0.300781 -0.173514,0.40761 z"
       id="path2-3-5"
       style="fill:#d6dbf1;fill-opacity:1;stroke-width:0.0325334" />
  </g>
</svg>
