<?xml version="1.0" encoding="UTF-8" standalone="no"?>
<svg
   width="32"
   height="32"
   version="1.1"
   id="svg12"
   sodipodi:docname="face.svg"
   inkscape:version="1.2.1 (9c6d41e410, 2022-07-14)"
   xmlns:inkscape="http://www.inkscape.org/namespaces/inkscape"
   xmlns:sodipodi="http://sodipodi.sourceforge.net/DTD/sodipodi-0.dtd"
   xmlns="http://www.w3.org/2000/svg"
   xmlns:svg="http://www.w3.org/2000/svg">
  <defs
     id="defs16" />
  <sodipodi:namedview
     id="namedview14"
     pagecolor="#ffffff"
     bordercolor="#666666"
     borderopacity="1.0"
     inkscape:showpageshadow="2"
     inkscape:pageopacity="0.0"
     inkscape:pagecheckerboard="0"
     inkscape:deskcolor="#d1d1d1"
     showgrid="false"
     inkscape:zoom="7.375"
     inkscape:cx="48.40678"
     inkscape:cy="19.457627"
     inkscape:window-width="1920"
     inkscape:window-height="1000"
     inkscape:window-x="0"
     inkscape:window-y="0"
     inkscape:window-maximized="1"
     inkscape:current-layer="svg12">
    <inkscape:grid
       type="xygrid"
       id="grid603"
       originx="0"
       originy="0" />
  </sodipodi:namedview>
  <g
     id="face-laughing">
    <rect
       style="opacity:0.00100002"
       width="32"
       height="32"
       x="0"
       y="0"
       id="rect7" />
    <rect
       style="fill:#4e5a7e;fill-opacity:0.5;stroke:none;stroke-width:0.525"
       id="center-3-35"
       width="21"
       height="21"
       x="5.4559989"
       y="5.506001"
       ry="10.499983" />
    <path
       d="m 15.955999,3.94069 c -6.6181679,0 -11.9999999,5.3818319 -11.9999999,12 0,6.618167 5.381832,12 11.9999999,12 6.61817,0 12,-5.381833 12,-12 0,-6.6181681 -5.38183,-12 -12,-12 z m 0,1.565311 c 5.7722,0 10.43478,4.662577 10.43478,10.434782 0,5.772204 -4.66258,10.434783 -10.43478,10.434783 -5.772205,0 -10.4347829,-4.662579 -10.4347829,-10.434783 0,-5.772205 4.6625779,-10.434782 10.4347829,-10.434782 z m -4.17401,5.217391 c -1.008443,0 -1.8260369,0.817593 -1.8260369,1.82604 0,1.008447 0.8175939,1.826041 1.8260369,1.826041 1.00845,0 1.82604,-0.817594 1.82604,-1.826041 0,-1.008447 -0.81759,-1.82604 -1.82604,-1.82604 z m 8.34783,0 c -1.00845,0 -1.82604,0.817593 -1.82604,1.82604 0,1.008447 0.81759,1.826041 1.82604,1.826041 1.00845,0 1.82604,-0.817594 1.82604,-1.826041 0,-1.008447 -0.81759,-1.82604 -1.82604,-1.82604 z m -9.994565,7.565217 c -0.2514789,0.01456 -0.4809319,0.156676 -0.6196119,0.407609 -0.132107,0.252391 -0.114275,0.573539 0.04895,0.807019 1.3989599,2.092638 3.7425469,3.481071 6.3913069,3.481071 2.64876,0 4.99239,-1.388433 6.3913,-3.481071 0.22837,-0.341373 0.12956,-0.855792 -0.21199,-1.084146 -0.34155,-0.228354 -0.86399,-0.129559 -1.09235,0.211993 -1.12984,1.690109 -2.98211,2.788136 -5.08695,2.788136 -2.10485,0 -3.95707,-1.097795 -5.08696,-2.788136 -0.211812,-0.248566 -0.482236,-0.357023 -0.733695,-0.342465 z"
       id="path330"
       style="fill:#d1d5e9;fill-opacity:1;stroke-width:0.0465838" />
  </g>
  <g
     id="22-22-face-laughing"
     transform="translate(32.000001,10.000001)">
    <rect
       style="opacity:0.00100002"
       width="22"
       height="22"
       x="0"
       y="0"
       id="rect2" />
    <rect
       style="fill:#4e5a7e;fill-opacity:0.5;stroke:none;stroke-width:0.348461"
       id="center-3-35-6"
       width="13.938438"
       height="13.938438"
       x="3.9663966"
       y="3.9995844"
       ry="6.9692078" />
    <path
       d="m 10.922919,2.9687415 c -4.4121124,0 -8.0000004,3.587888 -8.0000004,8.0000005 0,4.412111 3.587888,8 8.0000004,8 4.412113,0 8,-3.587889 8,-8 0,-4.4121125 -3.587887,-8.0000005 -8,-8.0000005 z m 0,1.043541 c 3.848133,0 6.95652,3.108384 6.95652,6.9565215 0,3.848136 -3.108387,6.956522 -6.95652,6.956522 -3.8481374,0 -6.9565224,-3.108386 -6.9565224,-6.956522 0,-3.8481375 3.108385,-6.9565215 6.9565224,-6.9565215 z m -2.7826734,3.47826 c -0.672296,0 -1.217358,0.545062 -1.217358,1.21736 0,0.672298 0.545062,1.217361 1.217358,1.217361 0.6723,0 1.21736,-0.545063 1.21736,-1.217361 0,-0.672298 -0.54506,-1.21736 -1.21736,-1.21736 z m 5.5652204,0 c -0.6723,0 -1.21736,0.545062 -1.21736,1.21736 0,0.672298 0.54506,1.217361 1.21736,1.217361 0.6723,0 1.21736,-0.545063 1.21736,-1.217361 0,-0.672298 -0.54506,-1.21736 -1.21736,-1.21736 z M 7.0424216,12.534021 c -0.167652,0.0097 -0.320621,0.104451 -0.413074,0.27174 -0.08807,0.16826 -0.07618,0.382359 0.03263,0.538012 0.93264,1.395092 2.495031,2.320714 4.2608714,2.320714 1.76584,0 3.32826,-0.925622 4.260867,-2.320714 0.152247,-0.227582 0.08637,-0.570528 -0.141327,-0.722764 -0.2277,-0.152236 -0.575993,-0.08637 -0.728233,0.141329 -0.753227,1.126739 -1.988073,1.858757 -3.3913,1.858757 -1.4032334,0 -2.6380474,-0.731863 -3.3913074,-1.858757 -0.141208,-0.165711 -0.32149,-0.238015 -0.48913,-0.22831 z"
       id="path330-3"
       style="fill:#d1d5e9;fill-opacity:1;stroke-width:0.0310559" />
  </g>
</svg>
