<?xml version="1.0" encoding="UTF-8" standalone="no"?>
<svg
   viewBox="0 0 22 22"
   id="svg"
   version="1.1"
   width="100%"
   height="100%"
   sodipodi:docname="go.svg"
   inkscape:version="1.1.1 (3bf5ae0d25, 2021-09-20)"
   xmlns:inkscape="http://www.inkscape.org/namespaces/inkscape"
   xmlns:sodipodi="http://sodipodi.sourceforge.net/DTD/sodipodi-0.dtd"
   xmlns="http://www.w3.org/2000/svg"
   xmlns:svg="http://www.w3.org/2000/svg"
   xmlns:rdf="http://www.w3.org/1999/02/22-rdf-syntax-ns#"
   xmlns:cc="http://creativecommons.org/ns#"
   xmlns:dc="http://purl.org/dc/elements/1.1/">
  <sodipodi:namedview
     pagecolor="#ffffff"
     bordercolor="#666666"
     borderopacity="1"
     objecttolerance="10"
     gridtolerance="10"
     guidetolerance="10"
     inkscape:pageopacity="0"
     inkscape:pageshadow="2"
     inkscape:window-width="1920"
     inkscape:window-height="1007"
     id="namedview21"
     showgrid="false"
     inkscape:zoom="4"
     inkscape:cx="59"
     inkscape:cy="14.875"
     inkscape:window-x="0"
     inkscape:window-y="0"
     inkscape:window-maximized="1"
     inkscape:current-layer="svg"
     inkscape:document-rotation="0"
     inkscape:pagecheckerboard="0"
     inkscape:lockguides="true">
    <inkscape:grid
       type="xygrid"
       id="grid853" />
  </sodipodi:namedview>
  <defs
     id="defs81">
    <style
       id="current-color-scheme"
       type="text/css" />
  </defs>
  <metadata
     id="metadata34">
    <rdf:RDF>
      <cc:Work
         rdf:about="">
        <dc:format>image/svg+xml</dc:format>
        <dc:type
           rdf:resource="http://purl.org/dc/dcmitype/StillImage" />
      </cc:Work>
    </rdf:RDF>
  </metadata>
  <g
     id="go-down"
     transform="matrix(0.91666667,0,0,0.91666667,-30.083333,0)"
     style="fill:#d6dbf1;fill-opacity:1">
    <rect
       style="opacity:0.01;fill:#d6dbf1;fill-opacity:1;stroke:none"
       id="rect3098"
       width="24"
       height="24"
       x="155"
       y="0" />
    <path
       id="rect4176-9"
       d="M 157.88379,7.0278788 157,7.9116678 164.65625,15.567917 167,17.911667 169.34375,15.567917 177,7.9116678 176.11621,7.0278788 168.45996,14.684129 167,16.14409 165.54004,14.684129 Z"
       style="fill:#d6dbf1;fill-opacity:1;stroke:none"
       class="ColorScheme-Text" />
  </g>
  <g
     id="go-next"
     transform="matrix(0.91666667,0,0,0.91666667,-17.333333,0)"
     style="fill:#d6dbf1;fill-opacity:1">
    <rect
       style="opacity:0.01;fill:#d6dbf1;fill-opacity:1;stroke:none"
       id="rect3094"
       width="24"
       height="24"
       x="80"
       y="0" />
    <path
       id="rect4176-6"
       d="m 88.948831,1.9488962 -0.888311,0.8883112 7.695425,7.6954246 1.467431,1.467432 -1.467431,1.467431 -7.695425,7.695425 0.888311,0.888311 7.695425,-7.695425 L 99,12.000064 96.644256,9.6443212 Z"
       style="fill:#d6dbf1;fill-opacity:1;stroke:none"
       class="ColorScheme-Text" />
  </g>
  <g
     id="go-previous"
     transform="matrix(0.91666667,0,0,0.91666667,-8.6666667,0)"
     style="fill:#d6dbf1;fill-opacity:1">
    <rect
       y="0"
       x="40"
       height="24"
       width="24"
       id="rect3092"
       style="opacity:0.01;fill:#d6dbf1;fill-opacity:1;stroke:none" />
    <path
       id="rect4176-31"
       d="m 56.088371,2 -7.656261,7.6562608 -2.343753,2.3437532 2.343753,2.343754 7.656261,7.65626 0.88379,-0.883751 L 49.3159,13.460016 47.855937,12.000014 49.3159,10.540137 56.972161,2.8838762 Z"
       style="fill:#d6dbf1;fill-opacity:1;stroke:none"
       class="ColorScheme-Text" />
  </g>
  <g
     id="go-up"
     transform="matrix(0.91666667,0,0,0.91666667,-21.416667,0)"
     style="fill:#d6dbf1;fill-opacity:1">
    <rect
       y="0"
       x="115"
       height="24"
       width="24"
       id="rect3096"
       style="opacity:0.01;fill:#d6dbf1;fill-opacity:1;stroke:none" />
    <path
       id="rect4176-2"
       d="M 117.88379,16.911625 117,16.027875 124.65625,8.371625 127,6.027875 l 2.34375,2.34375 7.65625,7.65625 -0.88379,0.88375 -7.65625,-7.65625 -1.45996,-1.46 -1.45996,1.46 z"
       style="fill:#d6dbf1;fill-opacity:1;stroke:none"
       class="ColorScheme-Text" />
  </g>
  <g
     id="go-home">
    <rect
       y="0"
       x="0"
       height="22"
       width="22"
       id="rect2996"
       style="opacity:0.01;fill:#d6dbf1;fill-opacity:1;stroke:none;stroke-width:0.916667" />
    <path
       inkscape:connector-curvature="0"
       id="fill"
       d="m 4.571425,9.9714283 v 0 8.9999997 h 7 5.9 V 9.9714283 l -6.47143,-6.428571 z"
       style="color:#1e92ff;fill:#4e5a7e;fill-opacity:0.501961;fill-rule:nonzero;stroke:none;stroke-width:3.24764"
       class="ColorScheme-ButtonFocus"
       sodipodi:nodetypes="cccccccc" />
    <path
       d="m 19.807135,10.55 -8.35714,-8.3571427 c -0.25714,-0.257143 -0.64285,-0.257143 -0.89999,0 L 2.192855,10.55 c -0.25714,0.257142 -0.25714,0.642857 0,0.899999 0.25714,0.257143 0.64286,0.257143 0.9,0 l 0.19286,-0.192857 v 6.814286 C 3.285715,19.164285 4.121425,20 5.214285,20 h 11.57143 c 1.09286,0 1.92857,-0.835715 1.92857,-1.928572 v -6.814286 l 0.19286,0.192857 c 0.25714,0.257143 0.64285,0.257143 0.89999,0 0.25714,-0.257142 0.25714,-0.642857 0,-0.899999 z M 9.071425,18.714286 V 15.5 c 0,-1.092858 0.83572,-1.928573 1.92857,-1.928573 1.09286,0 1.92858,0.835715 1.92858,1.928573 v 3.214286 z m 8.35715,-0.642858 c 0,0.385714 -0.25715,0.642858 -0.64286,0.642858 h -2.57143 V 15.5 c 0,-1.8 -1.41428,-3.214286 -3.21429,-3.214286 -1.8,0 -3.21428,1.414286 -3.21428,3.214286 v 3.214286 h -2.57143 c -0.38571,0 -0.64286,-0.257144 -0.64286,-0.642858 V 9.9714283 l 6.42857,-6.428571 6.42858,6.428571 z"
       id="path2-3"
       style="fill:#d6dbf1;fill-opacity:1;stroke-width:0.0367348" />
  </g>
</svg>
