<?xml version="1.0" encoding="UTF-8" standalone="no"?>
<svg
   inkscape:version="1.3 (0e150ed6c4, 2023-07-21)"
   sodipodi:docname="image.svg"
   id="svg44"
   version="1.1"
   height="32"
   width="32"
   style="enable-background:new"
   xmlns:inkscape="http://www.inkscape.org/namespaces/inkscape"
   xmlns:sodipodi="http://sodipodi.sourceforge.net/DTD/sodipodi-0.dtd"
   xmlns:xlink="http://www.w3.org/1999/xlink"
   xmlns="http://www.w3.org/2000/svg"
   xmlns:svg="http://www.w3.org/2000/svg"
   xmlns:rdf="http://www.w3.org/1999/02/22-rdf-syntax-ns#"
   xmlns:cc="http://creativecommons.org/ns#"
   xmlns:dc="http://purl.org/dc/elements/1.1/">
  <metadata
     id="metadata48">
    <rdf:RDF>
      <cc:Work
         rdf:about="">
        <dc:format>image/svg+xml</dc:format>
        <dc:type
           rdf:resource="http://purl.org/dc/dcmitype/StillImage" />
      </cc:Work>
    </rdf:RDF>
  </metadata>
  <sodipodi:namedview
     showguides="true"
     inkscape:current-layer="svg44"
     inkscape:window-maximized="1"
     inkscape:window-y="0"
     inkscape:window-x="0"
     inkscape:cy="18.154071"
     inkscape:cx="39.825886"
     inkscape:zoom="7.9596472"
     showgrid="false"
     id="namedview46"
     inkscape:window-height="994"
     inkscape:window-width="1920"
     inkscape:pageshadow="2"
     inkscape:pageopacity="0"
     guidetolerance="10"
     gridtolerance="10"
     objecttolerance="10"
     borderopacity="1"
     bordercolor="#000000"
     pagecolor="#ffffff"
     inkscape:document-rotation="0"
     inkscape:lockguides="false"
     inkscape:showpageshadow="false"
     inkscape:pagecheckerboard="false"
     inkscape:deskcolor="#cccccc">
    <inkscape:grid
       type="xygrid"
       id="grid905"
       originx="0"
       originy="0"
       spacingy="1"
       spacingx="1"
       units="px"
       visible="false" />
  </sodipodi:namedview>
  <defs
     id="defs4">
    <linearGradient
       id="linearGradient5606"
       inkscape:swatch="solid">
      <stop
         style="stop-color:#000000"
         offset="0"
         id="stop5608" />
    </linearGradient>
    <linearGradient
       xlink:href="#1"
       id="9"
       gradientUnits="userSpaceOnUse"
       x1="252.72501"
       y1="388.505"
       x2="255.41499"
       y2="-76.616997"
       gradientTransform="matrix(0.02890894,0,0,0.02711282,8.3449777,8.8451403)" />
    <linearGradient
       id="1">
      <stop
         stop-color="#f9f9f9"
         id="stop2" />
      <stop
         offset="1"
         stop-color="#afafaf"
         id="stop4" />
    </linearGradient>
    <linearGradient
       id="oomox"
       x1="1.4797103"
       x2="1.4797103"
       y1="0.4730846"
       y2="14.665033"
       gradientTransform="matrix(0.94613118,0,0,1.0569359,7.8239662,8.0979799)"
       gradientUnits="userSpaceOnUse">
      <stop
         offset="0%"
         style="stop-color:#303b3d; stop-opacity:1"
         id="stop18" />
      <stop
         offset="100%"
         style="stop-color:#bc985d; stop-opacity:1"
         id="stop20" />
    </linearGradient>
  </defs>
  <g
     id="g34"
     transform="matrix(0,0.23269337,-0.3257329,0,32.286645,4.6684124)">
    <g
       id="g32">
      <g
         id="g30">
        <g
           id="g28">
          <g
             id="g26">
            <g
               id="g24">
              <g
                 id="g22" />
            </g>
          </g>
        </g>
      </g>
    </g>
  </g>
  <g
     id="g52"
     transform="matrix(0,0.23269337,-0.3257329,0,32.286645,4.6684124)">
    <g
       id="g50">
      <g
         id="g48">
        <g
           id="g46">
          <g
             id="g44">
            <g
               id="g42">
              <g
                 id="g40" />
            </g>
          </g>
        </g>
      </g>
    </g>
  </g>
  <g
     id="g70"
     transform="matrix(0,0.23269337,-0.3257329,0,32.286645,4.6684124)">
    <g
       id="g68">
      <g
         id="g66">
        <g
           id="g64">
          <g
             id="g62">
            <g
               id="g60">
              <g
                 id="g58" />
            </g>
          </g>
        </g>
      </g>
    </g>
  </g>
  <g
     id="g88"
     transform="matrix(0,0.23269337,-0.3257329,0,32.286645,4.6684124)">
    <g
       id="g86">
      <g
         id="g84">
        <g
           id="g82">
          <g
             id="g80">
            <g
               id="g78">
              <g
                 id="g76" />
            </g>
          </g>
        </g>
      </g>
    </g>
  </g>
  <g
     id="g106"
     transform="matrix(0,0.23269337,-0.3257329,0,32.286645,4.6684124)">
    <g
       id="g104">
      <g
         id="g102">
        <g
           id="g100">
          <g
             id="g98">
            <g
               id="g96">
              <g
                 id="g94" />
            </g>
          </g>
        </g>
      </g>
    </g>
  </g>
  <g
     id="g128"
     transform="matrix(0,0.23269337,-0.3257329,0,32.286645,4.6684123)">
    <g
       id="g126">
      <g
         id="g124">
        <g
           id="g122">
          <g
             id="g120">
            <g
               id="g118">
              <g
                 id="g116">
                <g
                   id="g114" />
              </g>
            </g>
          </g>
        </g>
      </g>
    </g>
  </g>
  <g
     id="g146"
     transform="matrix(0,0.23269337,-0.3257329,0,32.286645,4.6684123)">
    <g
       id="g144">
      <g
         id="g142">
        <g
           id="g140">
          <g
             id="g138">
            <g
               id="g136">
              <g
                 id="g134">
                <g
                   id="g132" />
              </g>
            </g>
          </g>
        </g>
      </g>
    </g>
  </g>
  <g
     id="image-x-generic">
    <rect
       id="rect11"
       style="opacity:0.00100002;fill:#d1d5e9;fill-opacity:1"
       y="0"
       x="0"
       height="32"
       width="32" />
    <rect
       style="fill:#4e5a7e;fill-opacity:0.501961;stroke:none;stroke-width:0.544864"
       id="center-3-35"
       width="19"
       height="25"
       x="6.5"
       y="-28.5"
       ry="0.8509742"
       rx="0.8509742"
       transform="rotate(90)" />
    <path
       d="M 3,24.5 V 7.5 C 3,6.541303 3.548767,6 4.794928,6 H 27.205072 C 28.451231,6 29,6.541303 29,7.5 v 17 c 0,0.958697 -0.548769,1.499995 -1.794928,1.499995 H 4.797713 C 3.548528,26.002295 3,25.458697 3,24.5 Z M 28,8.038 C 28,7 27.630321,7 26.833642,7 H 5.169142 C 4.283194,7 4,7 4,7.938 V 24.062 C 4,25 4.293674,25 5.169142,25 H 26.740577 C 27.431652,25 28,25 28,24.062 Z"
       id="path2-9"
       style="fill:#d1d5e9;fill-opacity:1;stroke-width:0.265296;enable-background:new"
       sodipodi:nodetypes="ssssssscssssssssss" />
    <path
       style="fill:#d1d5e9;fill-opacity:1;stroke:none;stroke-width:1.42983;stroke-linecap:round;stroke-miterlimit:4;stroke-dasharray:none;stroke-opacity:1;enable-background:new"
       d="m 13.730033,14.110813 c -0.420904,-0.03217 -0.8458,0.10423 -1.148095,0.436859 L 4,23.991318 c 0,1.008685 0,1.008685 0,1.008685 l 19.411972,-2.1e-5 -8.557901,-10.309833 c -0.287245,-0.346096 -0.70315,-0.547055 -1.124038,-0.579336 z"
       id="rect2428-7"
       inkscape:connector-curvature="0"
       sodipodi:nodetypes="ccccccc" />
    <path
       style="fill:#d1d5e9;fill-opacity:0.8;stroke:none;stroke-width:1.42983;stroke-linecap:round;stroke-miterlimit:4;stroke-dasharray:none;stroke-opacity:1;enable-background:new"
       d="m 20.361532,15.839443 c -0.420914,-0.03223 -0.845805,0.104132 -1.148092,0.436844 L 11.285967,24.999982 28,25.000004 v -0.668248 l -6.514439,-7.912974 c -0.287246,-0.346126 -0.70314,-0.547064 -1.124029,-0.579339 z"
       id="path2433-3"
       inkscape:connector-curvature="0"
       sodipodi:nodetypes="ccccccc" />
    <ellipse
       style="fill:#d1d5e9;fill-opacity:1;stroke:none;stroke-width:1.4979;stroke-linecap:round;stroke-miterlimit:4;stroke-dasharray:none;stroke-opacity:1;enable-background:new"
       id="path2451-6"
       cx="25.119186"
       cy="11.120847"
       rx="1.1052461"
       ry="1.1208459" />
  </g>
  <g
     id="22-22-image-x-generic">
    <path
       id="path6"
       d="m 32,10 h 22 c 0,0 0,0 0,0 v 22 c 0,0 0,0 0,0 H 32 c 0,0 0,0 0,0 z"
       style="opacity:0;fill:#d1d5e9;fill-opacity:1" />
    <rect
       style="fill:#4e5a7e;fill-opacity:0.501961;stroke:none;stroke-width:0.37165"
       id="center-3-35-6"
       width="13"
       height="17"
       x="14.5"
       y="-51.5"
       ry="0.54741049"
       rx="0.54741049"
       transform="rotate(90)" />
    <path
       d="M 34,26.78488 V 15.216753 C 34,14.545666 34.286564,14 35.192426,14 H 50.807579 C 51.713435,14 52,14.545666 52,15.216753 v 11.566491 c 0,0.671086 -0.286565,1.216752 -1.192421,1.216752 H 35.194625 C 34.286564,28.001596 34,27.455964 34,26.78488 Z M 51,15.217 C 51,14.90589 51.22753,15 50.807579,15 H 35.194625 C 34.774675,15 35,14.90564 35,15.216753 V 26.783244 C 35,27.094352 34.774675,27 35.194625,27 H 50.807579 C 51.22753,27 51,27.09437 51,26.783244 Z"
       id="path2-6-1"
       style="fill:#d1d5e9;fill-opacity:1;stroke-width:0.189246;enable-background:new"
       sodipodi:nodetypes="ssssssscssssssssss" />
    <path
       style="fill:#d1d5e9;fill-opacity:1;stroke:none;stroke-width:0.953185;stroke-linecap:round;stroke-miterlimit:4;stroke-dasharray:none;stroke-opacity:1;enable-background:new"
       d="m 41.486694,19.740548 c -0.280609,-0.02148 -0.563868,0.0695 -0.765395,0.291232 L 35,26.327543 c 0,0.672456 0,0.672456 0,0.672456 l 12.94132,-2e-5 -5.705274,-6.873215 C 42.044549,19.896039 41.76728,19.762063 41.486694,19.740548 Z"
       id="rect2428-3-2"
       inkscape:connector-curvature="0"
       sodipodi:nodetypes="ccccccc" />
    <path
       style="fill:#d1d5e9;fill-opacity:0.8;stroke:none;stroke-width:0.953185;stroke-linecap:round;stroke-miterlimit:4;stroke-dasharray:none;stroke-opacity:1;enable-background:new"
       d="m 45.907692,20.892961 c -0.280607,-0.02151 -0.563867,0.06948 -0.765392,0.291229 L 39.857311,26.999979 51,27 v -0.445499 l -4.342953,-5.275316 c -0.191502,-0.230744 -0.468763,-0.364707 -0.749355,-0.386224 z"
       id="path2433-6-9"
       inkscape:connector-curvature="0"
       sodipodi:nodetypes="ccccccc" />
    <ellipse
       style="fill:#d1d5e9;fill-opacity:1;stroke:none;stroke-width:0.99851;stroke-linecap:round;stroke-miterlimit:4;stroke-dasharray:none;stroke-opacity:1;enable-background:new"
       id="path2451-7-3"
       cx="49.07946"
       cy="17.747231"
       rx="0.73683083"
       ry="0.74723005" />
  </g>
</svg>
