<?xml version="1.0" encoding="UTF-8" standalone="no"?>
<svg
   width="32"
   height="32"
   id="svg3869"
   version="1.1"
   viewBox="0 0 32 32.000001"
   sodipodi:docname="input.svg"
   inkscape:version="1.1.1 (3bf5ae0d25, 2021-09-20)"
   xmlns:inkscape="http://www.inkscape.org/namespaces/inkscape"
   xmlns:sodipodi="http://sodipodi.sourceforge.net/DTD/sodipodi-0.dtd"
   xmlns="http://www.w3.org/2000/svg"
   xmlns:svg="http://www.w3.org/2000/svg"
   xmlns:rdf="http://www.w3.org/1999/02/22-rdf-syntax-ns#"
   xmlns:cc="http://creativecommons.org/ns#"
   xmlns:dc="http://purl.org/dc/elements/1.1/">
  <g
     id="22-22-input-num-on"
     transform="translate(-22,105.99999)">
    <rect
       style="opacity:0.00100002;fill-opacity:1;stroke:none;stroke-width:0.49066;stroke-linecap:round;stroke-linejoin:round;stroke-miterlimit:4;stroke-dasharray:none;stroke-opacity:1"
       id="rect972"
       width="22"
       height="22"
       x="0"
       y="0" />
    <rect
       style="fill:#4e5a7e;fill-opacity:0.501961;stroke:none;stroke-width:0.386955"
       id="center-3-35-3-7-9"
       width="12.374928"
       height="12.799816"
       x="4.4666595"
       y="3.5335236"
       ry="0.7999897"
       rx="0.68749601" />
    <path
       inkscape:connector-curvature="0"
       id="path896-7-7-5-1"
       d="m 4,4.33332 v 9.94864 c 0,1.38463 0.666663,2.0513 1.333326,2.36116 L 10.666628,19 15.99993,16.7036 c 0.666663,-0.37034 1.333326,-1.03701 1.333326,-2.41482 v -9.95546 0 C 17.333256,3.66666 16.666593,3 15.99993,3 l -10.671518,9e-5 C 4.666663,3 4,3.66666 4,4.33332 Z m 0.666663,0.26911 c 0,-0.67339 0.254974,-0.93577 0.927098,-0.93577 l 10.069489,9e-5 c 0.683947,-9e-5 1.003343,0.24059 1.003343,1.00713 v 8.32606 c 0,1.33333 0,1.33333 -1.355359,1.33342 h -9.32268 c -1.321891,-9e-5 -1.321891,-9e-5 -1.321891,-1.33342 z m 5.999965,1.06431 V 7.00007 H 9.333302 v 0.66666 h 1.333326 v 3.99998 H 9.333302 v 0.66666 h 3.333314 V 11.66671 H 11.333291 V 5.66674 Z m -5.999965,9.33328 h 11.99993 c 0,0.66657 -0.666663,0.66657 -1.333326,0.66657 H 5.999988 c -0.666662,0 -1.333325,0 -1.333325,-0.66657 z"
       style="fill:#d6dbf1;fill-opacity:1;stroke:none;stroke-width:0.666663"
       sodipodi:nodetypes="cccccccccccccccccccccccccccccccccccccc" />
  </g>
  <g
     id="22-22-input-keyboard-brightness"
     transform="translate(-22,9.9999982)">
    <rect
       ry="0"
       y="0"
       x="0"
       height="22"
       width="22"
       style="fill:none"
       id="rect20" />
    <rect
       style="fill:#4e5a7e;fill-opacity:0.501961;stroke:none;stroke-width:0.386955"
       id="center-3-35-3-3-2"
       width="12.374925"
       height="12.799813"
       x="4.4666538"
       y="3.5335293"
       ry="0.79998952"
       rx="0.68749583" />
    <path
       inkscape:connector-curvature="0"
       id="path880-8-6-6-9"
       d="m 4,4.333325 v 10.6666 c 0,0.666663 0.666663,1.333326 1.333325,1.666757 l 5.333301,2.333319 5.333301,-2.382752 c 0.666663,-0.283998 1.333325,-0.950661 1.333325,-1.69683 v -10.587094 0 C 17.333252,3.666663 16.66659,3 15.999927,3 L 5.324272,3.0001 C 4.666663,3 4,3.666663 4,4.333325 Z m 0.666663,0.297072 c 0,-0.685556 0.267905,-0.963734 1.0371,-0.963734 l 9.951973,9.3e-5 c 0.662076,-9.3e-5 1.010854,0.310458 1.010854,0.984007 v 0 8.349175 c 0,1.333325 0,1.333325 -1.390159,1.333411 l -9.276443,-8.6e-5 c -1.333325,0 -1.333325,0 -1.333325,-1.333325 z m 5.604132,1.036353 -2.937482,6.666625 h 0.867181 l 0.881508,-1.999989 h 3.148415 l 0.899734,1.999989 h 0.869788 L 10.999957,5.66675 Z m 0.368485,1.1302 1.291658,2.869776 H 9.374967 Z M 4.666663,15.000025 H 16.66659 c 0,0.666563 -0.666663,0.666563 -1.333326,0.666563 H 5.999988 c -0.666663,0 -1.333325,0 -1.333325,-0.666563 z"
       style="fill:#d6dbf1;fill-opacity:1;stroke:none;stroke-width:0.666663"
       sodipodi:nodetypes="ccccccccccccccccccccccccccccccccccccccc" />
    <path
       style="fill:#d6dbf1;fill-opacity:1;stroke:none;stroke-width:0.399998"
       d="m 13.91836,4.312065 c -0.1108,0 -0.199999,0.0892 -0.199999,0.199999 v 0.399998 c 0,0.110799 0.0892,0.199998 0.199999,0.199998 0.110799,0 0.199998,-0.0892 0.199998,-0.199998 V 4.512064 c 0,-0.110799 -0.0892,-0.199999 -0.199998,-0.199999 z m -1.272646,0.527337 c -0.05113,0 -0.102233,0.0194 -0.141412,0.0586 -0.07835,0.07835 -0.07835,0.204465 0,0.282811 l 0.282811,0.282812 c 0.07835,0.07835 0.204466,0.07835 0.282818,0 0.07834,-0.07835 0.07834,-0.204472 0,-0.282812 L 12.787113,4.898002 c -0.03913,-0.03913 -0.09028,-0.0586 -0.141399,-0.0586 z m 2.545291,0 c -0.05113,0 -0.102226,0.0194 -0.141406,0.0586 l -0.282811,0.282811 c -0.07834,0.07834 -0.07834,0.204466 0,0.282812 0.07835,0.07835 0.204472,0.07835 0.282811,0 l 0.282819,-0.282812 c 0.07834,-0.07835 0.07834,-0.204465 0,-0.282811 -0.03913,-0.03913 -0.09029,-0.0586 -0.141413,-0.0586 z M 13.91836,5.512058 c -0.441824,0 -0.799995,0.358171 -0.799995,0.799995 0,0.441824 0.358171,0.799995 0.799995,0.799995 0.441824,0 0.799995,-0.358171 0.799995,-0.799995 0,-0.441824 -0.358171,-0.799995 -0.799995,-0.799995 z m 0,0.399998 v 0.799995 c -0.220912,0 -0.399998,-0.179086 -0.399998,-0.399998 0,-0.220912 0.179086,-0.399997 0.399998,-0.399997 z m -1.799989,0.199998 c -0.1108,0 -0.199999,0.0892 -0.199999,0.199999 0,0.1108 0.0892,0.199999 0.199999,0.199999 h 0.399997 c 0.1108,0 0.199999,-0.0892 0.199999,-0.199999 0,-0.110799 -0.0892,-0.199999 -0.199999,-0.199999 z m 3.19998,0 c -0.110799,0 -0.199999,0.0892 -0.199999,0.199999 0,0.1108 0.0892,0.199999 0.199999,0.199999 h 0.399998 c 0.110799,0 0.199998,-0.0892 0.199998,-0.199999 0,-0.110799 -0.0892,-0.199999 -0.199998,-0.199999 z m -2.389832,0.989834 c -0.05113,0 -0.102226,0.0194 -0.141406,0.0586 l -0.282811,0.282818 c -0.07835,0.07834 -0.07835,0.204459 0,0.282812 0.07835,0.07835 0.204472,0.07835 0.282811,0 l 0.282818,-0.282812 c 0.07834,-0.07835 0.07834,-0.204465 0,-0.282818 -0.03913,-0.03913 -0.09029,-0.0586 -0.141412,-0.0586 z m 1.979681,0 c -0.05113,0 -0.102232,0.0194 -0.141412,0.0586 -0.07834,0.07835 -0.07834,0.204472 0,0.282818 l 0.282811,0.282812 c 0.07835,0.07835 0.204466,0.07835 0.282819,0 0.07834,-0.07835 0.07834,-0.204472 0,-0.282812 L 15.049599,7.160488 c -0.03913,-0.03913 -0.09028,-0.0586 -0.141399,-0.0586 z m -0.98984,0.410158 c -0.1108,0 -0.199999,0.0892 -0.199999,0.199999 v 0.399997 c 0,0.1108 0.0892,0.199999 0.199999,0.199999 0.110799,0 0.199998,-0.0892 0.199998,-0.199999 V 7.712045 c 0,-0.1108 -0.0892,-0.199999 -0.199998,-0.199999 z"
       id="path4274-9-2-3-1"
       inkscape:connector-curvature="0" />
  </g>
  <g
     id="input-caps-on"
     transform="translate(0,64.000011)">
    <rect
       y="7.3486326e-08"
       x="0"
       height="32"
       width="32"
       id="rect978"
       style="opacity:0.00100002;fill-opacity:1;stroke:none;stroke-width:0.713687;stroke-linecap:round;stroke-linejoin:round;stroke-miterlimit:4;stroke-dasharray:none;stroke-opacity:1" />
    <rect
       style="fill:#4e5a7e;fill-opacity:0.501961;stroke:none;stroke-width:0.580436"
       id="center-3-35-3"
       width="18.5625"
       height="19.199837"
       x="6.6999946"
       y="4.8003116"
       ry="1.1999916"
       rx="1.03125" />
    <path
       inkscape:connector-curvature="0"
       id="path880-8-6"
       d="m 6,6 v 16 c 0,1 1,2 2,2.50015 l 8.000002,3.5 8,-3.57415 c 1,-0.426 2,-1.426 2,-2.54526 V 6 6 c 0,-1 -1,-2 -2,-2 L 7.986416,4.00015 C 7,4 6,5 6,6 Z M 7,6.44561 C 7,5.41727 7.401856,5 8.555658,5 l 14.928054,1.4e-4 c 0.99312,-1.4e-4 1.51629,0.46569 1.51629,1.47602 v 0 V 19 c 0,2 0,2 -2.08525,2.00013 L 9,21 C 7,21 7,21 7,19 Z m 8.406252,1.55454 -4.40625,10 h 1.30078 l 1.32227,-3 h 4.72265 l 1.34961,3 h 1.30469 l -4.5,-10 z m 0.55273,1.69531 1.9375,4.30469 h -3.83398 z M 7,22.00015 h 18.000002 c 0,0.99985 -1,0.99985 -2,0.99985 H 9 C 8,23 7,23 7,22.00015 Z"
       style="fill:#d6dbf1;fill-opacity:1;stroke:none"
       sodipodi:nodetypes="ccccccccccccccccccccccccccccccccccccccc" />
  </g>
  <g
     id="input-keyboard"
     transform="translate(0,-96.00001)">
    <rect
       style="fill:none;fill-rule:evenodd;stroke:none;stroke-width:1.45455px;stroke-linecap:butt;stroke-linejoin:miter;stroke-opacity:1"
       id="rect4196"
       width="32"
       height="32"
       x="0"
       y="4.6325684e-07" />
    <path
       d="M 31,24 V 7.9 C 31,6.7775488 30.074979,6 28.7,6 H 3.3 C 1.924999,6 0.99999947,6.7775488 0.9999995,7.9 L 1,24 c 0,1.122442 0.924999,2 2.3,2 H 28.7 C 30.074979,26 31,25.122442 31,24 Z M 3.3,25.2 C 2.612509,25.2 1.85,24.561202 1.85,24 V 7.9 C 1.85,7.3387526 2.612509,6.8 3.3,6.8 h 25.4 c 0.687459,0 1.5,0.5387521 1.5,1.1 V 24 c 0,0.561201 -0.812541,1.2 -1.5,1.2 z"
       id="path2-3"
       style="fill:#d6dbf1;fill-opacity:1;stroke-width:0.564691"
       sodipodi:nodetypes="ssssssssssssssssss" />
    <rect
       style="fill:#4e5a7e;fill-opacity:0.501961;stroke:none;stroke-width:0.571414"
       id="center-3-35"
       width="18.404932"
       height="28.384844"
       x="6.7950668"
       y="-30.199999"
       ry="1.6082286"
       transform="rotate(90)"
       rx="1.2000403" />
    <path
       d="M 5.288886,10 H 3.337773 C 3.0695,10 2.85,10.258252 2.85,10.57387 v 2.008487 c 0,0.315618 0.2195,0.57387 0.487773,0.57387 h 1.951113 c 0.268274,0 0.487774,-0.258252 0.487774,-0.57387 V 10.57387 C 5.77666,10.258252 5.55716,10 5.288886,10 Z m 0,2.582357 H 3.337773 V 10.57387 h 1.951113 z"
       id="path84-3-6-9"
       style="fill:#d6dbf1;fill-opacity:1;stroke-width:0.0604643" />
    <path
       d="m 7.24,13.156541 h 1.951113 c 0.268273,0 0.487773,-0.258231 0.487773,-0.573851 v -2.008507 c 0,-0.315618 -0.2195,-0.573851 -0.487773,-0.573851 H 7.24 c -0.268274,0 -0.487774,0.258233 -0.487774,0.573851 v 2.008507 c 0,0.31562 0.2195,0.573851 0.487774,0.573851 z m 0,-2.582358 H 9.191113 V 12.58269 H 7.24 Z"
       id="path86-6-2-7"
       style="fill:#d6dbf1;fill-opacity:1;stroke-width:0.0604643" />
    <path
       d="m 11.142226,13.156541 h 1.951114 c 0.268273,0 0.487773,-0.258231 0.487773,-0.573851 v -2.008507 c 0,-0.315618 -0.2195,-0.573851 -0.487773,-0.573851 h -1.951114 c -0.268276,0 -0.487776,0.258233 -0.487776,0.573851 v 2.008507 c 0,0.31562 0.2195,0.573851 0.487776,0.573851 z m 0,-2.582358 h 1.951114 v 2.008507 h -1.951114 z"
       id="path88-7-6-3"
       style="fill:#d6dbf1;fill-opacity:1;stroke-width:0.0604643" />
    <path
       d="m 16.99555,10 h -1.9511 c -0.268289,0 -0.487789,0.258252 -0.487789,0.57387 v 2.008487 c 0,0.315618 0.2195,0.57387 0.487789,0.57387 h 1.9511 c 0.268289,0 0.487789,-0.258252 0.487789,-0.57387 V 10.57387 C 17.483339,10.258252 17.263839,10 16.99555,10 Z m 0,2.582357 h -1.9511 V 10.57387 h 1.9511 z"
       id="path90-5-1-6"
       style="fill:#d6dbf1;fill-opacity:1;stroke-width:0.0604643" />
    <path
       d="M 20.897774,10 H 18.94666 c -0.268273,0 -0.487773,0.258252 -0.487773,0.57387 v 2.008487 c 0,0.315618 0.2195,0.57387 0.487773,0.57387 h 1.951114 c 0.268276,0 0.487776,-0.258252 0.487776,-0.57387 V 10.57387 C 21.38555,10.258252 21.16605,10 20.897774,10 Z m 0,2.582357 H 18.94666 V 10.57387 h 1.951114 z"
       id="path92-3-8-1"
       style="fill:#d6dbf1;fill-opacity:1;stroke-width:0.0604643" />
    <path
       d="M 5.288886,14.304263 H 3.337773 C 3.0695,14.304263 2.85,14.562495 2.85,14.878112 V 16.8866 c 0,0.315639 0.2195,0.573871 0.487773,0.573871 h 1.951113 c 0.268274,0 0.487774,-0.258232 0.487774,-0.573871 v -2.008488 c 0,-0.315617 -0.2195,-0.573849 -0.487774,-0.573849 z m 0,2.582337 H 3.337773 v -2.008488 h 1.951113 z"
       id="path94-5-7-2"
       style="fill:#d6dbf1;fill-opacity:1;stroke-width:0.0604643" />
    <path
       d="m 7.24,17.460783 h 1.951113 c 0.268273,0 0.487773,-0.25823 0.487773,-0.573848 v -2.008487 c 0,-0.315619 -0.2195,-0.573872 -0.487773,-0.573872 H 7.24 c -0.268274,0 -0.487774,0.258253 -0.487774,0.573872 v 2.008487 c 0,0.315618 0.2195,0.573848 0.487774,0.573848 z m 0,-2.582335 h 1.951113 v 2.008487 H 7.24 Z"
       id="path96-6-9-9"
       style="fill:#d6dbf1;fill-opacity:1;stroke-width:0.0604643" />
    <path
       d="m 11.142226,17.460783 h 1.951114 c 0.268273,0 0.487773,-0.25823 0.487773,-0.573848 v -2.008487 c 0,-0.315619 -0.2195,-0.573872 -0.487773,-0.573872 h -1.951114 c -0.268276,0 -0.487776,0.258253 -0.487776,0.573872 v 2.008487 c 0,0.315618 0.2195,0.573848 0.487776,0.573848 z m 0,-2.582335 h 1.951114 v 2.008487 h -1.951114 z"
       id="path98-2-2-3"
       style="fill:#d6dbf1;fill-opacity:1;stroke-width:0.0604643" />
    <path
       d="m 16.99555,14.304263 h -1.9511 c -0.268289,0 -0.487789,0.258232 -0.487789,0.573849 V 16.8866 c 0,0.315639 0.2195,0.573871 0.487789,0.573871 h 1.9511 c 0.268289,0 0.487789,-0.258232 0.487789,-0.573871 v -2.008488 c 0,-0.315617 -0.2195,-0.573849 -0.487789,-0.573849 z m 0,2.582337 h -1.9511 v -2.008488 h 1.9511 z"
       id="path100-9-0-1"
       style="fill:#d6dbf1;fill-opacity:1;stroke-width:0.0604643" />
    <path
       d="M 20.897774,14.304263 H 18.94666 c -0.268273,0 -0.487773,0.258232 -0.487773,0.573849 V 16.8866 c 0,0.315639 0.2195,0.573871 0.487773,0.573871 h 1.951114 c 0.268276,0 0.487776,-0.258232 0.487776,-0.573871 v -2.008488 c 0,-0.315617 -0.2195,-0.573849 -0.487776,-0.573849 z m 0,2.582337 H 18.94666 v -2.008488 h 1.951114 z"
       id="path102-1-2-9"
       style="fill:#d6dbf1;fill-opacity:1;stroke-width:0.0604643" />
    <path
       d="m 24.8,14.304263 h -1.951113 c -0.268274,0 -0.487774,0.258232 -0.487774,0.573849 V 16.8866 c 0,0.315639 0.2195,0.573871 0.487774,0.573871 H 24.8 c 0.268274,0 0.487774,-0.258232 0.487774,-0.573871 v -2.008488 c 0,-0.315617 -0.2195,-0.573849 -0.487774,-0.573849 z m 0,2.582337 H 22.848887 V 14.878112 H 24.8 Z"
       id="path104-2-3-4"
       style="fill:#d6dbf1;fill-opacity:1;stroke-width:0.0604643" />
    <path
       d="m 28.702227,14.304263 h -1.951114 c -0.268274,0 -0.487774,0.258232 -0.487774,0.573849 v 6.312419 c 0,0.315617 0.2195,0.573849 0.487774,0.573849 h 1.951114 c 0.268273,0 0.487773,-0.258232 0.487773,-0.573849 v -6.312419 c 0,-0.315617 -0.2195,-0.573849 -0.487773,-0.573849 z m 0,6.886268 h -1.951114 v -6.312419 h 1.951114 z"
       id="path106-7-7-7"
       style="fill:#d6dbf1;fill-opacity:1;stroke-width:0.0604643" />
    <path
       d="M 5.288886,18.608507 H 3.337773 C 3.0695,18.608507 2.85,18.866738 2.85,19.182357 v 2.008508 c 0,0.315619 0.2195,0.573849 0.487773,0.573849 h 1.951113 c 0.268274,0 0.487774,-0.25823 0.487774,-0.573849 v -2.008508 c 0,-0.315619 -0.2195,-0.57385 -0.487774,-0.57385 z m 0,2.582358 H 3.337773 v -2.008508 h 1.951113 z"
       id="path108-0-5-8"
       style="fill:#d6dbf1;fill-opacity:1;stroke-width:0.0604643" />
    <path
       d="M 20.897774,18.608507 H 18.94666 c -0.268273,0 -0.487773,0.258231 -0.487773,0.57385 v 2.008508 c 0,0.315619 0.2195,0.573849 0.487773,0.573849 h 1.951114 c 0.268276,0 0.487776,-0.25823 0.487776,-0.573849 v -2.008508 c 0,-0.315619 -0.2195,-0.57385 -0.487776,-0.57385 z m 0,2.582358 H 18.94666 v -2.008508 h 1.951114 z"
       id="path110-9-9-4"
       style="fill:#d6dbf1;fill-opacity:1;stroke-width:0.0604643" />
    <path
       d="m 24.8,18.608507 h -1.951113 c -0.268274,0 -0.487774,0.258231 -0.487774,0.57385 v 2.008508 c 0,0.315619 0.2195,0.573849 0.487774,0.573849 H 24.8 c 0.268274,0 0.487774,-0.25823 0.487774,-0.573849 v -2.008508 c 0,-0.315619 -0.2195,-0.57385 -0.487774,-0.57385 z m 0,2.582358 H 22.848887 V 19.182357 H 24.8 Z"
       id="path112-3-2-5"
       style="fill:#d6dbf1;fill-opacity:1;stroke-width:0.0604643" />
    <path
       d="m 28.702227,10 h -5.85334 c -0.268274,0 -0.487774,0.258252 -0.487774,0.57387 v 2.008487 c 0,0.315618 0.2195,0.57387 0.487774,0.57387 h 5.85334 c 0.268273,0 0.487773,-0.258252 0.487773,-0.57387 V 10.57387 C 29.19,10.258252 28.9705,10 28.702227,10 Z m 0,2.582357 h -5.85334 V 10.57387 h 5.85334 z"
       id="path114-6-2-0"
       style="fill:#d6dbf1;fill-opacity:1;stroke-width:0.0604643" />
    <path
       d="M 16.99555,18.608507 H 7.24 c -0.268274,0 -0.487774,0.258231 -0.487774,0.57385 v 2.008508 c 0,0.315619 0.2195,0.573849 0.487774,0.573849 h 9.75555 c 0.268289,0 0.487789,-0.25823 0.487789,-0.573849 v -2.008508 c 0,-0.315619 -0.2195,-0.57385 -0.487789,-0.57385 z m 0,2.582358 H 7.24 v -2.008508 h 9.75555 z"
       id="path116-0-8-3"
       style="fill:#d6dbf1;fill-opacity:1;stroke-width:0.0604643" />
  </g>
  <sodipodi:namedview
     pagecolor="#ffffff"
     bordercolor="#000000"
     borderopacity="1"
     objecttolerance="10"
     gridtolerance="10"
     guidetolerance="10"
     inkscape:pageopacity="0"
     inkscape:pageshadow="2"
     inkscape:window-width="1920"
     inkscape:window-height="1007"
     id="namedview49"
     showgrid="false"
     inkscape:zoom="2.8284271"
     inkscape:cx="37.830213"
     inkscape:cy="23.864854"
     inkscape:window-x="0"
     inkscape:window-y="0"
     inkscape:window-maximized="1"
     inkscape:current-layer="svg3869"
     inkscape:document-rotation="0"
     inkscape:lockguides="false"
     inkscape:showpageshadow="false"
     inkscape:pagecheckerboard="0">
    <inkscape:grid
       type="xygrid"
       id="grid874"
       originx="-38"
       originy="-96.000213" />
  </sodipodi:namedview>
  <metadata
     id="metadata25">
    <rdf:RDF>
      <cc:Work
         rdf:about="">
        <dc:format>image/svg+xml</dc:format>
        <dc:type
           rdf:resource="http://purl.org/dc/dcmitype/StillImage" />
      </cc:Work>
    </rdf:RDF>
  </metadata>
  <defs
     id="defs3871">
    <style
       type="text/css"
       id="current-color-scheme" />
    <linearGradient
       id="a"
       gradientUnits="userSpaceOnUse"
       x1="41"
       x2="23"
       y1="58"
       y2="6"
       gradientTransform="matrix(0.46153841,0,0,0.46153841,1.215575,1.2307666)">
      <stop
         offset="0"
         stop-color="#848f9a"
         id="stop2" />
      <stop
         offset=".33333299"
         stop-color="#bdc2c7"
         id="stop4" />
      <stop
         offset="1"
         stop-color="#f6f6f6"
         id="stop6" />
    </linearGradient>
    <linearGradient
       id="d"
       gradientUnits="userSpaceOnUse"
       x1="32"
       x2="32"
       y1="6"
       y2="28"
       gradientTransform="matrix(0.46153841,0,0,0.46153841,1.215575,1.2307666)">
      <stop
         offset="0"
         stop-color="#68737e"
         id="stop21" />
      <stop
         offset="1"
         stop-color="#7a8692"
         id="stop23" />
    </linearGradient>
    <linearGradient
       id="c"
       gradientTransform="matrix(-0.46153841,0,0,0.46153841,-10.322886,1.2307666)"
       gradientUnits="userSpaceOnUse"
       x1="-60"
       x2="-54"
       y1="22"
       y2="12">
      <stop
         offset="0"
         stop-color="#8e98a2"
         id="stop16" />
      <stop
         offset="1"
         stop-color="#6c7884"
         id="stop18" />
    </linearGradient>
    <linearGradient
       id="e"
       gradientTransform="matrix(-0.46153846,0,0,0.46153846,-10.322887,1.2307616)"
       gradientUnits="userSpaceOnUse"
       x1="-55"
       x2="-55"
       y1="22"
       y2="12">
      <stop
         offset="0"
         stop-color="#232629"
         id="stop26" />
      <stop
         offset=".333"
         stop-color="#373d43"
         id="stop28" />
      <stop
         offset=".667"
         stop-color="#565f68"
         id="stop30" />
      <stop
         offset="1"
         stop-color="#474e55"
         id="stop32" />
    </linearGradient>
    <linearGradient
       id="b"
       gradientTransform="matrix(-0.46153846,0,0,0.46153846,-10.322887,1.2307616)"
       gradientUnits="userSpaceOnUse"
       x1="-55"
       x2="-55"
       y1="12"
       y2="22">
      <stop
         offset="0"
         stop-color="#54b5e8"
         id="stop9" />
      <stop
         offset=".333"
         stop-color="#8fd9ff"
         id="stop11" />
      <stop
         offset="1"
         stop-color="#369acf"
         id="stop13" />
    </linearGradient>
    <linearGradient
       id="f"
       gradientUnits="userSpaceOnUse"
       x1="21.005859"
       x2="21"
       y1="21.005859"
       y2="58"
       gradientTransform="matrix(0.46153846,0,0,0.46153846,1.215574,1.2307616)">
      <stop
         offset="0"
         stop-color="#565f68"
         id="stop35" />
      <stop
         offset=".5945304"
         stop-color="#68737e"
         id="stop37" />
      <stop
         offset="1"
         stop-color="#424950"
         id="stop39" />
    </linearGradient>
    <linearGradient
       id="a-3"
       gradientUnits="userSpaceOnUse"
       x1="41"
       x2="23"
       y1="58"
       y2="6"
       gradientTransform="matrix(0.30769228,0,0,0.30769228,-18.922785,11.15386)">
      <stop
         offset="0"
         stop-color="#848f9a"
         id="stop2-6" />
      <stop
         offset=".33333299"
         stop-color="#bdc2c7"
         id="stop4-7" />
      <stop
         offset="1"
         stop-color="#f6f6f6"
         id="stop6-5" />
    </linearGradient>
    <linearGradient
       id="d-3"
       gradientUnits="userSpaceOnUse"
       x1="32"
       x2="32"
       y1="6"
       y2="28"
       gradientTransform="matrix(0.30769228,0,0,0.30769228,-18.922785,11.15386)">
      <stop
         offset="0"
         stop-color="#68737e"
         id="stop21-5" />
      <stop
         offset="1"
         stop-color="#7a8692"
         id="stop23-6" />
    </linearGradient>
    <linearGradient
       id="c-2"
       gradientTransform="matrix(-0.30769228,0,0,0.30769228,-26.615092,11.15386)"
       gradientUnits="userSpaceOnUse"
       x1="-60"
       x2="-54"
       y1="22"
       y2="12">
      <stop
         offset="0"
         stop-color="#8e98a2"
         id="stop16-9" />
      <stop
         offset="1"
         stop-color="#6c7884"
         id="stop18-1" />
    </linearGradient>
    <linearGradient
       id="e-2"
       gradientTransform="matrix(-0.30769232,0,0,0.30769232,-26.615093,11.153857)"
       gradientUnits="userSpaceOnUse"
       x1="-55"
       x2="-55"
       y1="22"
       y2="12">
      <stop
         offset="0"
         stop-color="#232629"
         id="stop26-7" />
      <stop
         offset=".333"
         stop-color="#373d43"
         id="stop28-0" />
      <stop
         offset=".667"
         stop-color="#565f68"
         id="stop30-9" />
      <stop
         offset="1"
         stop-color="#474e55"
         id="stop32-3" />
    </linearGradient>
    <linearGradient
       id="b-6"
       gradientTransform="matrix(-0.30769232,0,0,0.30769232,-26.615093,11.153857)"
       gradientUnits="userSpaceOnUse"
       x1="-55"
       x2="-55"
       y1="12"
       y2="22">
      <stop
         offset="0"
         stop-color="#54b5e8"
         id="stop9-0" />
      <stop
         offset=".333"
         stop-color="#8fd9ff"
         id="stop11-6" />
      <stop
         offset="1"
         stop-color="#369acf"
         id="stop13-2" />
    </linearGradient>
    <linearGradient
       id="f-6"
       gradientUnits="userSpaceOnUse"
       x1="21.005859"
       x2="21"
       y1="21.005859"
       y2="58"
       gradientTransform="matrix(0.30769232,0,0,0.30769232,-18.922785,11.153857)">
      <stop
         offset="0"
         stop-color="#565f68"
         id="stop35-1" />
      <stop
         offset=".5945304"
         stop-color="#68737e"
         id="stop37-8" />
      <stop
         offset="1"
         stop-color="#424950"
         id="stop39-7" />
    </linearGradient>
  </defs>
  <g
     id="input-mouse-battery"
     transform="translate(0,127.99998)">
    <rect
       style="fill:none"
       id="rect4378-6"
       width="32"
       height="32"
       x="0"
       y="0"
       ry="0" />
    <path
       d="m 15.523272,4.2305936 c 0,0 -0.37368,0.017672 -0.461528,0.023431 C 11.444329,4.491131 8.600198,7.24364 8.600198,10.923076 c 0,0 0.923074,3.384617 0.923074,5.076923 0,1.692311 -0.461528,3.377642 -0.461528,5.076925 0,3.835381 2.626148,6.692325 6.461528,6.692325 h 0.923077 c 3.835394,0 6.461543,-2.856944 6.461543,-6.692325 0,-1.699282 -0.461543,-3.384614 -0.461543,-5.076925 0,-1.692306 0.923082,-3.377637 0.923082,-5.076923 0,-3.679436 -2.847823,-6.3813605 -6.461539,-6.6690507 -0.101875,-0.00815 -0.461543,-0.023432 -0.461543,-0.023432 v 2.5386422 h -0.923077 z"
       fill="url(#a)"
       fill-rule="evenodd"
       id="path42"
       style="fill:url(#a);stroke-width:0.461549" />
    <path
       d="m 15.523272,4.0000056 c 0,0 -0.37368,0.017669 -0.461528,0.023428 -3.617415,0.2371068 -6.461546,3.2202044 -6.461546,6.8996394 0,0.09297 0.0064,0.185655 0.0092,0.278546 0.09329,-3.5941323 2.89584,-6.4835203 6.452537,-6.7166467 0.08783,-0.00583 0.461532,-0.023428 0.461532,-0.023428 h 0.92308 c 0,0 0.359666,0.015321 0.461536,0.023428 3.5533,0.2828783 6.359445,3.1247314 6.452515,6.7175477 0.0034,-0.09319 0.0093,-0.186175 0.0093,-0.279447 0,-3.6794349 -2.847817,-6.6119495 -6.461536,-6.8996393 -0.101877,-0.00815 -0.461539,-0.023429 -0.461539,-0.023429 z"
       fill="#c9cdd1"
       id="path44"
       style="stroke-width:0.461549" />
    <path
       d="m 15.523272,4.0000056 v 1.8461545 l -0.923073,0.9230754 v 4.6153855 l 0.461545,0.461539 v 1.846153 c 0,0.511385 0.411686,0.923076 0.923065,0.923076 0.51139,0 0.923083,-0.411691 0.923083,-0.923076 V 11.84616 L 17.36943,11.384621 V 6.7692355 L 16.446349,5.8461601 V 4.0000056 Z"
       fill="url(#d)"
       id="path46"
       style="fill:url(#d);stroke-width:0.461549" />
    <path
       d="M 8.6092,20.791194 C 8.6058,20.886464 8.6,20.981563 8.6,21.076926 c 0,3.835382 3.087686,6.923078 6.923066,6.923078 h 0.923124 c 3.835378,0 6.923065,-3.087696 6.923065,-6.923078 0,-0.09537 -0.0062,-0.190461 -0.0093,-0.285753 -0.0936,3.752634 -3.138076,6.747283 -6.914056,6.747283 H 15.52279 c -3.775994,0 -6.820466,-2.994649 -6.914067,-6.747283 z"
       fill="#7a8692"
       fill-rule="evenodd"
       id="path48"
       style="stroke-width:0.461549" />
    <path
       d="M 17.36943,6.7692355 V 11.384621 L 16.446349,10.461544 V 7.6923131 Z m -2.769231,0 0.923073,0.9230776 v 2.7692309 l -0.923073,0.923077 z"
       fill="url(#c)"
       id="path50"
       style="fill:url(#c);stroke-width:0.461549" />
    <rect
       fill="#2a2e32"
       height="1.3846154"
       rx="0.46153846"
       width="0.92307693"
       x="15.523266"
       y="12.307685"
       id="rect52"
       style="fill:#2a2e32;fill-opacity:1;fill-rule:evenodd;stroke-width:0.461538" />
    <path
       d="m 15.984805,6.7692231 c 0.172145,0 0.323888,0.029612 0.461538,0.070313 v 4.4747599 c -0.13765,0.0407 -0.289393,0.07031 -0.461538,0.07031 -0.172146,0 -0.323888,-0.02961 -0.461539,-0.07031 V 6.8395361 c 0.137651,-0.040701 0.289393,-0.070313 0.461539,-0.070313 z"
       fill="url(#e)"
       id="path54"
       style="fill:url(#e);fill-rule:evenodd;stroke-width:0.461538" />
    <path
       d="m 16.446343,6.8395357 c 0.271261,0.080208 0.461539,0.6831448 0.461539,0.8527643 v 2.769231 c 0,0.169619 -0.190278,0.772557 -0.461539,0.852764 z m -0.923077,0 V 11.314295 C 15.252005,11.234088 15.061728,10.63115 15.061728,10.461531 V 7.6923 c 0,-0.1696195 0.190277,-0.7725567 0.461538,-0.8527643 z"
       fill="url(#b)"
       id="path56"
       style="fill:url(#b);fill-rule:evenodd;stroke-width:0.461538" />
    <path
       d="m 8.600189,10.925773 c 4.62e-4,1.698363 0.461539,3.375835 0.461539,5.074219 0,1.698385 -0.461049,3.375857 -0.461539,5.074219 v 0.0027 c 0,3.643494 2.788313,6.606289 6.355168,6.894231 -2.799586,-0.282616 -4.970552,-2.633077 -4.970552,-5.509616 v -5.538457 c 0,-1.562058 -0.518363,-4.841363 -1.384616,-5.997296 z m 14.769231,0 c -0.86625,1.155933 -1.384615,4.435238 -1.384615,5.997296 v 5.538461 c 0,2.876539 -2.170966,5.227 -4.970553,5.509616 3.566856,-0.287942 6.355168,-3.250737 6.355168,-6.894231 v -0.0027 c -5.08e-4,-1.698343 -0.461538,-3.375815 -0.461538,-5.0742 0,-1.698384 0.461049,-3.375856 0.461538,-5.074219 z"
       fill="url(#f)"
       stroke-width="0.461536"
       id="path58"
       style="fill:url(#f);fill-rule:evenodd" />
  </g>
  <g
     id="22-22-input-mouse-battery"
     transform="translate(0,127.99998)">
    <rect
       style="fill:none"
       width="22"
       height="22"
       x="-22"
       y="10.000017"
       ry="0"
       id="rect8" />
    <path
       style="fill:#da4453;fill-opacity:1;stroke:none"
       d="m -17,13.000034 -2,5 h 2 v 3 l 2,-5 h -2 z"
       id="path12"
       inkscape:connector-curvature="0" />
    <path
       d="m -9.384318,13.153735 c 0,0 -0.249119,0.01183 -0.307696,0.0156 -2.411603,0.158082 -4.307691,1.993083 -4.307691,4.446036 0,0 0.615388,2.256404 0.615388,3.384614 0,1.128213 -0.307698,2.251766 -0.307698,3.384616 0,2.556924 1.750776,4.461543 4.307697,4.461543 h 0.615381 c 2.556925,0 4.307698,-1.904619 4.307698,-4.461543 0,-1.13285 -0.307697,-2.256403 -0.307697,-3.384616 0,-1.12821 0.615388,-2.251753 0.615388,-3.384614 0,-2.452953 -1.898548,-4.254241 -4.307691,-4.446026 -0.06795,-0.0057 -0.307698,-0.01561 -0.307698,-0.01561 v 1.692436 h -0.615381 z"
       fill="url(#a)"
       fill-rule="evenodd"
       id="path42-9"
       style="fill:url(#a-3);stroke-width:0.307696" />
    <path
       d="m -9.384318,13.000014 c 0,0 -0.249119,0.01184 -0.307696,0.01565 -2.411603,0.158076 -4.307691,2.146816 -4.307691,4.59977 0,0.06195 0.0042,0.123765 0.0066,0.185688 0.06211,-2.396078 1.930562,-4.322334 4.301686,-4.477762 0.05851,-0.0038 0.307686,-0.01562 0.307686,-0.01562 h 0.615389 c 0,0 0.239782,0.01024 0.307694,0.01562 2.368862,0.188593 4.239625,2.08316 4.301683,4.478366 0.0026,-0.06205 0.0066,-0.124122 0.0066,-0.186291 0,-2.452955 -1.898544,-4.407964 -4.307694,-4.599765 -0.06792,-0.0057 -0.307683,-0.01564 -0.307683,-0.01564 z"
       fill="#c9cdd1"
       id="path44-2"
       style="stroke-width:0.307696" />
    <path
       d="m -9.384318,13.000014 v 1.23077 l -0.61539,0.615393 v 3.076916 l 0.307694,0.30769 v 1.230766 c 0,0.340932 0.274466,0.615386 0.615386,0.615386 0.34092,0 0.615389,-0.274454 0.615389,-0.615386 v -1.230766 l 0.307691,-0.30769 v -3.076916 l -0.615389,-0.615393 v -1.23077 z"
       fill="url(#d)"
       id="path46-0"
       style="fill:url(#d-3);stroke-width:0.307696" />
    <path
       d="M -13.9937,24.194135 C -13.9964,24.257665 -14,24.321051 -14,24.384622 c 0,2.556932 2.058468,4.615392 4.615395,4.615392 h 0.615372 c 2.556932,0 4.61539,-2.05846 4.61539,-4.615392 0,-0.06355 -0.0039,-0.126969 -0.0066,-0.190489 -0.0624,2.501754 -2.092049,4.498188 -4.609377,4.498188 h -0.615232 c -2.517323,0 -4.546974,-1.996434 -4.609375,-4.498188 z"
       fill="#7a8692"
       fill-rule="evenodd"
       id="path48-2"
       style="stroke-width:0.307696" />
    <path
       d="m -8.153548,14.846177 v 3.076916 l -0.615389,-0.615381 v -1.846166 z m -1.84616,0 0.61539,0.615369 v 1.846166 l -0.61539,0.615381 z"
       fill="url(#c)"
       id="path50-3"
       style="fill:url(#c-2);stroke-width:0.307696" />
    <rect
       fill="#2a2e32"
       height="0.92307699"
       rx="0.30769232"
       width="0.61538464"
       x="-9.3843231"
       y="18.538473"
       id="rect52-5"
       style="fill:#2a2e32;fill-opacity:1;fill-rule:evenodd;stroke-width:0.307692" />
    <path
       d="m -9.0766308,14.846165 c 0.1147637,0 0.2159253,0.01974 0.3076924,0.04687 v 2.983173 c -0.091767,0.02713 -0.1929287,0.04687 -0.3076924,0.04687 -0.1147637,0 -0.2159252,-0.01974 -0.3076923,-0.04687 V 14.89304 c 0.091767,-0.02713 0.1929286,-0.04687 0.3076923,-0.04687 z"
       fill="url(#e)"
       id="path54-9"
       style="fill:url(#e-2);fill-rule:evenodd;stroke-width:0.307692" />
    <path
       d="m -8.7689384,14.89304 c 0.1808406,0.05347 0.3076923,0.45543 0.3076923,0.568509 v 1.846154 c 0,0.11308 -0.1268517,0.515038 -0.3076923,0.56851 z m -0.6153847,0 v 2.983173 c -0.1808406,-0.05347 -0.3076923,-0.45543 -0.3076923,-0.56851 v -1.846154 c 0,-0.113079 0.1268517,-0.515037 0.3076923,-0.568509 z"
       fill="url(#b)"
       id="path56-2"
       style="fill:url(#b-6);fill-rule:evenodd;stroke-width:0.307692" />
    <path
       d="m -13.999708,17.617198 c 3.08e-4,1.132242 0.307692,2.250557 0.307692,3.382813 0,1.132257 -0.307366,2.250571 -0.307692,3.382813 v 0.0018 c 0,2.428996 1.858875,4.404192 4.2367791,4.596154 -1.8663911,-0.188411 -3.3137021,-1.755385 -3.3137021,-3.673077 v -3.692308 c 0,-1.041372 -0.345575,-3.227576 -0.923077,-3.998198 z m 9.8461544,0 c -0.5775001,0.770622 -0.923077,2.956826 -0.923077,3.998198 v 3.692308 c 0,1.917692 -1.4473108,3.484666 -3.313702,3.673077 2.3779041,-0.191962 4.236779,-2.167158 4.236779,-4.596154 v -0.0018 c -3.385e-4,-1.132229 -0.3076924,-2.250543 -0.3076924,-3.3828 0,-1.132256 0.3073662,-2.250571 0.3076924,-3.382813 z"
       fill="url(#f)"
       stroke-width="0.307691"
       id="path58-2"
       style="fill:url(#f-6);fill-rule:evenodd" />
  </g>
  <g
     id="input-keyboard-virtual-on"
     transform="translate(0,-64)">
    <rect
       style="fill:none;fill-rule:evenodd;stroke:none;stroke-width:1.45455px;stroke-linecap:butt;stroke-linejoin:miter;stroke-opacity:1"
       id="rect4192"
       width="32"
       height="32"
       x="0"
       y="0" />
    <path
       id="path8-9"
       d="M 5.5,4.000002 A 2.4999996,2.4999855 0 0 0 2.9999999,6.5000019 2.4999996,2.4999855 0 0 0 5.5,9.000002 2.4999996,2.4999855 0 0 0 8.0000001,6.5000019 2.4999996,2.4999855 0 0 0 5.5,4.000002 Z"
       style="fill:#00a3cc;fill-opacity:1;stroke:none;stroke-width:1.45455"
       inkscape:connector-curvature="0" />
    <path
       d="M 28.75,26.3 V 12.615 C 28.75,11.660917 27.96373,11 26.795,11 H 5.205 C 4.036249,11 3.249999,11.660917 3.25,12.615 V 26.3 c 0,0.954076 0.786249,1.7 1.955,1.7 h 21.59 c 1.16873,0 1.955,-0.745924 1.955,-1.7 z M 5.205,27.32 C 4.620633,27.32 3.9725,26.777022 3.9725,26.3 V 12.615 c 0,-0.47706 0.648133,-0.935 1.2325,-0.935 h 21.59 c 0.58434,0 1.275,0.457939 1.275,0.935 V 26.3 c 0,0.477021 -0.69066,1.02 -1.275,1.02 z"
       id="path2-3-3"
       style="fill:#d6dbf1;fill-opacity:1;stroke-width:0.479987"
       sodipodi:nodetypes="ssssssssssssssssss" />
    <rect
       style="fill:#4e5a7e;fill-opacity:0.501961;stroke:none;stroke-width:0.485702"
       id="center-3-35-6"
       width="15.644192"
       height="24.127117"
       x="11.675805"
       y="-28.07"
       ry="1.3669943"
       transform="rotate(90)"
       rx="1.0200343" />
    <path
       d="M 6.895553,14.4 H 5.237107 C 5.009075,14.4 4.8225,14.619514 4.8225,14.887789 v 1.707214 c 0,0.268276 0.186575,0.48779 0.414607,0.48779 h 1.658446 c 0.228033,0 0.414608,-0.219514 0.414608,-0.48779 V 14.887789 C 7.310161,14.619514 7.123586,14.4 6.895553,14.4 Z m 0,2.195003 H 5.237107 v -1.707214 h 1.658446 z"
       id="path84-3-6-9-7"
       style="fill:#d6dbf1;fill-opacity:1;stroke-width:0.0513947" />
    <path
       d="m 8.554,17.08306 h 1.658446 c 0.228034,0 0.414604,-0.219497 0.414604,-0.487774 v -1.70723 c 0,-0.268276 -0.18657,-0.487774 -0.414604,-0.487774 H 8.554 c -0.228033,0 -0.414608,0.219498 -0.414608,0.487774 v 1.70723 c 0,0.268277 0.186575,0.487774 0.414608,0.487774 z m 0,-2.195004 h 1.658446 v 1.70723 H 8.554 Z"
       id="path86-6-2-7-5"
       style="fill:#d6dbf1;fill-opacity:1;stroke-width:0.0513947" />
    <path
       d="m 11.87089,17.08306 h 1.65845 c 0.22803,0 0.41461,-0.219497 0.41461,-0.487774 v -1.70723 c 0,-0.268276 -0.18658,-0.487774 -0.41461,-0.487774 h -1.65845 c -0.22803,0 -0.41461,0.219498 -0.41461,0.487774 v 1.70723 c 0,0.268277 0.18658,0.487774 0.41461,0.487774 z m 0,-2.195004 h 1.65845 v 1.70723 h -1.65845 z"
       id="path88-7-6-3-3"
       style="fill:#d6dbf1;fill-opacity:1;stroke-width:0.0513947" />
    <path
       d="m 16.84622,14.4 h -1.65844 c -0.22804,0 -0.41462,0.219514 -0.41462,0.487789 v 1.707214 c 0,0.268276 0.18658,0.48779 0.41462,0.48779 h 1.65844 c 0.22804,0 0.41462,-0.219514 0.41462,-0.48779 V 14.887789 C 17.26084,14.619514 17.07426,14.4 16.84622,14.4 Z m 0,2.195003 h -1.65844 v -1.707214 h 1.65844 z"
       id="path90-5-1-6-5"
       style="fill:#d6dbf1;fill-opacity:1;stroke-width:0.0513947" />
    <path
       d="m 20.16311,14.4 h -1.65845 c -0.22803,0 -0.41461,0.219514 -0.41461,0.487789 v 1.707214 c 0,0.268276 0.18658,0.48779 0.41461,0.48779 h 1.65845 c 0.22803,0 0.41461,-0.219514 0.41461,-0.48779 V 14.887789 C 20.57772,14.619514 20.39114,14.4 20.16311,14.4 Z m 0,2.195003 h -1.65845 v -1.707214 h 1.65845 z"
       id="path92-3-8-1-6"
       style="fill:#d6dbf1;fill-opacity:1;stroke-width:0.0513947" />
    <path
       d="M 6.895553,18.058624 H 5.237107 c -0.228032,0 -0.414607,0.219497 -0.414607,0.487771 v 1.707215 c 0,0.268293 0.186575,0.48779 0.414607,0.48779 h 1.658446 c 0.228033,0 0.414608,-0.219497 0.414608,-0.48779 v -1.707215 c 0,-0.268274 -0.186575,-0.487771 -0.414608,-0.487771 z m 0,2.194986 H 5.237107 v -1.707215 h 1.658446 z"
       id="path94-5-7-2-2"
       style="fill:#d6dbf1;fill-opacity:1;stroke-width:0.0513947" />
    <path
       d="m 8.554,20.741666 h 1.658446 c 0.228034,0 0.414604,-0.219496 0.414604,-0.487771 v -1.707214 c 0,-0.268276 -0.18657,-0.487791 -0.414604,-0.487791 H 8.554 c -0.228033,0 -0.414608,0.219515 -0.414608,0.487791 v 1.707214 c 0,0.268275 0.186575,0.487771 0.414608,0.487771 z m 0,-2.194985 h 1.658446 v 1.707214 H 8.554 Z"
       id="path96-6-9-9-9"
       style="fill:#d6dbf1;fill-opacity:1;stroke-width:0.0513947" />
    <path
       d="m 11.87089,20.741666 h 1.65845 c 0.22803,0 0.41461,-0.219496 0.41461,-0.487771 v -1.707214 c 0,-0.268276 -0.18658,-0.487791 -0.41461,-0.487791 h -1.65845 c -0.22803,0 -0.41461,0.219515 -0.41461,0.487791 v 1.707214 c 0,0.268275 0.18658,0.487771 0.41461,0.487771 z m 0,-2.194985 h 1.65845 v 1.707214 h -1.65845 z"
       id="path98-2-2-3-1"
       style="fill:#d6dbf1;fill-opacity:1;stroke-width:0.0513947" />
    <path
       d="m 16.84622,18.058624 h -1.65844 c -0.22804,0 -0.41462,0.219497 -0.41462,0.487771 v 1.707215 c 0,0.268293 0.18658,0.48779 0.41462,0.48779 h 1.65844 c 0.22804,0 0.41462,-0.219497 0.41462,-0.48779 v -1.707215 c 0,-0.268274 -0.18658,-0.487771 -0.41462,-0.487771 z m 0,2.194986 h -1.65844 v -1.707215 h 1.65844 z"
       id="path100-9-0-1-2"
       style="fill:#d6dbf1;fill-opacity:1;stroke-width:0.0513947" />
    <path
       d="m 20.16311,18.058624 h -1.65845 c -0.22803,0 -0.41461,0.219497 -0.41461,0.487771 v 1.707215 c 0,0.268293 0.18658,0.48779 0.41461,0.48779 h 1.65845 c 0.22803,0 0.41461,-0.219497 0.41461,-0.48779 v -1.707215 c 0,-0.268274 -0.18658,-0.487771 -0.41461,-0.487771 z m 0,2.194986 h -1.65845 v -1.707215 h 1.65845 z"
       id="path102-1-2-9-7"
       style="fill:#d6dbf1;fill-opacity:1;stroke-width:0.0513947" />
    <path
       d="m 23.48,18.058624 h -1.65845 c -0.22803,0 -0.4146,0.219497 -0.4146,0.487771 v 1.707215 c 0,0.268293 0.18657,0.48779 0.4146,0.48779 H 23.48 c 0.22803,0 0.41461,-0.219497 0.41461,-0.48779 v -1.707215 c 0,-0.268274 -0.18658,-0.487771 -0.41461,-0.487771 z m 0,2.194986 H 21.82155 V 18.546395 H 23.48 Z"
       id="path104-2-3-4-0"
       style="fill:#d6dbf1;fill-opacity:1;stroke-width:0.0513947" />
    <path
       d="m 26.79689,18.058624 h -1.65844 c -0.22804,0 -0.41461,0.219497 -0.41461,0.487771 v 5.365556 c 0,0.268275 0.18657,0.487772 0.41461,0.487772 h 1.65844 c 0.22803,0 0.41461,-0.219497 0.41461,-0.487772 v -5.365556 c 0,-0.268274 -0.18658,-0.487771 -0.41461,-0.487771 z m 0,5.853327 h -1.65844 v -5.365556 h 1.65844 z"
       id="path106-7-7-7-9"
       style="fill:#d6dbf1;fill-opacity:1;stroke-width:0.0513947" />
    <path
       d="M 6.895553,21.717231 H 5.237107 c -0.228032,0 -0.414607,0.219496 -0.414607,0.487772 v 1.707232 c 0,0.268276 0.186575,0.487772 0.414607,0.487772 h 1.658446 c 0.228033,0 0.414608,-0.219496 0.414608,-0.487772 v -1.707232 c 0,-0.268276 -0.186575,-0.487772 -0.414608,-0.487772 z m 0,2.195004 H 5.237107 v -1.707232 h 1.658446 z"
       id="path108-0-5-8-3"
       style="fill:#d6dbf1;fill-opacity:1;stroke-width:0.0513947" />
    <path
       d="m 20.16311,21.717231 h -1.65845 c -0.22803,0 -0.41461,0.219496 -0.41461,0.487772 v 1.707232 c 0,0.268276 0.18658,0.487772 0.41461,0.487772 h 1.65845 c 0.22803,0 0.41461,-0.219496 0.41461,-0.487772 v -1.707232 c 0,-0.268276 -0.18658,-0.487772 -0.41461,-0.487772 z m 0,2.195004 h -1.65845 v -1.707232 h 1.65845 z"
       id="path110-9-9-4-6"
       style="fill:#d6dbf1;fill-opacity:1;stroke-width:0.0513947" />
    <path
       d="m 23.48,21.717231 h -1.65845 c -0.22803,0 -0.4146,0.219496 -0.4146,0.487772 v 1.707232 c 0,0.268276 0.18657,0.487772 0.4146,0.487772 H 23.48 c 0.22803,0 0.41461,-0.219496 0.41461,-0.487772 v -1.707232 c 0,-0.268276 -0.18658,-0.487772 -0.41461,-0.487772 z m 0,2.195004 H 21.82155 V 22.205003 H 23.48 Z"
       id="path112-3-2-5-0"
       style="fill:#d6dbf1;fill-opacity:1;stroke-width:0.0513947" />
    <path
       d="m 26.79689,14.4 h -4.97534 c -0.22803,0 -0.4146,0.219514 -0.4146,0.487789 v 1.707214 c 0,0.268276 0.18657,0.48779 0.4146,0.48779 h 4.97534 c 0.22803,0 0.41461,-0.219514 0.41461,-0.48779 V 14.887789 C 27.2115,14.619514 27.02492,14.4 26.79689,14.4 Z m 0,2.195003 h -4.97534 v -1.707214 h 4.97534 z"
       id="path114-6-2-0-6"
       style="fill:#d6dbf1;fill-opacity:1;stroke-width:0.0513947" />
    <path
       d="M 16.84622,21.717231 H 8.554 c -0.228033,0 -0.414608,0.219496 -0.414608,0.487772 v 1.707232 c 0,0.268276 0.186575,0.487772 0.414608,0.487772 h 8.29222 c 0.22804,0 0.41462,-0.219496 0.41462,-0.487772 v -1.707232 c 0,-0.268276 -0.18658,-0.487772 -0.41462,-0.487772 z m 0,2.195004 H 8.554 v -1.707232 h 8.29222 z"
       id="path116-0-8-3-2"
       style="fill:#d6dbf1;fill-opacity:1;stroke-width:0.0513947" />
  </g>
  <g
     id="22-22-input-keyboard"
     transform="translate(-22,-86.00001)">
    <rect
       y="0"
       x="0"
       height="22"
       width="22"
       id="rect4147"
       style="fill:none;fill-rule:evenodd;stroke:none;stroke-width:1px;stroke-linecap:butt;stroke-linejoin:miter;stroke-opacity:1" />
    <path
       d="M 19,15.1 V 6.513333 C 19,5.914693 18.506656,5.5 17.773333,5.5 H 4.226667 C 3.493333,5.5 2.999999,5.914693 3,6.513333 V 15.1 c 0,0.598636 0.493333,1.066667 1.226667,1.066667 H 17.773333 C 18.506656,16.166667 19,15.698636 19,15.1 Z M 4.226667,15.74 C 3.860005,15.74 3.453333,15.399307 3.453333,15.1 V 6.513333 c 0,-0.299331 0.406672,-0.586666 0.773334,-0.586666 h 13.546666 c 0.366645,0 0.8,0.287334 0.8,0.586666 V 15.1 c 0,0.299307 -0.433355,0.64 -0.8,0.64 z"
       id="path2-3-3-3"
       style="fill:#d6dbf1;fill-opacity:1;stroke-width:0.301168"
       sodipodi:nodetypes="ssssssssssssssssss" />
    <rect
       style="fill:#4e5a7e;fill-opacity:0.501961;stroke:none;stroke-width:0.304754"
       id="center-3-35-6-1"
       width="9.8159637"
       height="15.138583"
       x="5.9240346"
       y="-18.573332"
       ry="0.85772187"
       transform="rotate(90)"
       rx="0.6400215" />
    <path
       d="M 5.287406,7.633333 H 4.246812 c -0.143079,0 -0.260145,0.137735 -0.260145,0.306064 v 1.0711925 c 0,0.16833 0.117066,0.306064 0.260145,0.306064 h 1.040594 c 0.143079,0 0.260146,-0.137734 0.260146,-0.306064 V 7.939397 c 0,-0.168329 -0.117067,-0.306064 -0.260146,-0.306064 z m 0,1.3772565 H 4.246812 V 7.939397 h 1.040594 z"
       id="path84-3-6-9-7-9"
       style="fill:#d6dbf1;fill-opacity:1;stroke-width:0.0322477" />
    <path
       d="m 6.328,9.3168215 h 1.040594 c 0.143078,0 0.260145,-0.137724 0.260145,-0.306054 V 7.9395645 C 7.628739,7.771235 7.511672,7.63351 7.368594,7.63351 H 6.328 c -0.14308,0 -0.260146,0.137725 -0.260146,0.3060545 v 1.071203 c 0,0.16833 0.117066,0.306054 0.260146,0.306054 z m 0,-1.377257 h 1.040594 v 1.071203 H 6.328 Z"
       id="path86-6-2-7-5-4"
       style="fill:#d6dbf1;fill-opacity:1;stroke-width:0.0322477" />
    <path
       d="m 8.409187,9.3168215 h 1.040594 c 0.143079,0 0.260146,-0.137724 0.260146,-0.306054 V 7.9395645 C 9.709927,7.771235 9.59286,7.63351 9.449781,7.63351 H 8.409187 c -0.143081,0 -0.260147,0.137725 -0.260147,0.3060545 v 1.071203 c 0,0.16833 0.117066,0.306054 0.260147,0.306054 z m 0,-1.377257 h 1.040594 v 1.071203 H 8.409187 Z"
       id="path88-7-6-3-3-7"
       style="fill:#d6dbf1;fill-opacity:1;stroke-width:0.0322477" />
    <path
       d="m 11.53096,7.633333 h -1.040587 c -0.143087,0 -0.260154,0.137735 -0.260154,0.306064 v 1.0711925 c 0,0.16833 0.117067,0.306064 0.260154,0.306064 h 1.040587 c 0.143087,0 0.260154,-0.137734 0.260154,-0.306064 V 7.939397 c 0,-0.168329 -0.117067,-0.306064 -0.260154,-0.306064 z m 0,1.3772565 H 10.490373 V 7.939397 h 1.040587 z"
       id="path90-5-1-6-5-8"
       style="fill:#d6dbf1;fill-opacity:1;stroke-width:0.0322477" />
    <path
       d="m 13.612146,7.633333 h -1.040594 c -0.143079,0 -0.260146,0.137735 -0.260146,0.306064 v 1.0711925 c 0,0.16833 0.117067,0.306064 0.260146,0.306064 h 1.040594 c 0.14308,0 0.260147,-0.137734 0.260147,-0.306064 V 7.939397 c 0,-0.168329 -0.117067,-0.306064 -0.260147,-0.306064 z m 0,1.3772565 H 12.571552 V 7.939397 h 1.040594 z"
       id="path92-3-8-1-6-4"
       style="fill:#d6dbf1;fill-opacity:1;stroke-width:0.0322477" />
    <path
       d="M 5.287406,9.9289405 H 4.246812 c -0.143079,0 -0.260145,0.1377235 -0.260145,0.3060515 v 1.071194 c 0,0.168341 0.117066,0.306064 0.260145,0.306064 h 1.040594 c 0.143079,0 0.260146,-0.137724 0.260146,-0.306064 v -1.071193 c 0,-0.168329 -0.117067,-0.3060525 -0.260146,-0.3060525 z m 0,1.3772455 H 4.246812 v -1.071193 h 1.040594 z"
       id="path94-5-7-2-2-5"
       style="fill:#d6dbf1;fill-opacity:1;stroke-width:0.0322477" />
    <path
       d="m 6.328,11.612418 h 1.040594 c 0.143078,0 0.260145,-0.137723 0.260145,-0.306054 v -1.071192 c 0,-0.16833 -0.117067,-0.3060655 -0.260145,-0.3060655 H 6.328 c -0.14308,0 -0.260146,0.1377345 -0.260146,0.3060655 v 1.071192 c 0,0.16833 0.117066,0.306054 0.260146,0.306054 z m 0,-1.377246 h 1.040594 v 1.071192 H 6.328 Z"
       id="path96-6-9-9-9-0"
       style="fill:#d6dbf1;fill-opacity:1;stroke-width:0.0322477" />
    <path
       d="m 8.409187,11.612418 h 1.040594 c 0.143079,0 0.260146,-0.137723 0.260146,-0.306054 v -1.071192 c 0,-0.16833 -0.117067,-0.3060655 -0.260146,-0.3060655 H 8.409187 c -0.143081,0 -0.260147,0.1377345 -0.260147,0.3060655 v 1.071192 c 0,0.16833 0.117066,0.306054 0.260147,0.306054 z m 0,-1.377246 h 1.040594 v 1.071192 H 8.409187 Z"
       id="path98-2-2-3-1-3"
       style="fill:#d6dbf1;fill-opacity:1;stroke-width:0.0322477" />
    <path
       d="m 11.53096,9.9289405 h -1.040587 c -0.143087,0 -0.260154,0.1377235 -0.260154,0.3060515 v 1.071194 c 0,0.168341 0.117067,0.306064 0.260154,0.306064 h 1.040587 c 0.143087,0 0.260154,-0.137724 0.260154,-0.306064 v -1.071193 c 0,-0.168329 -0.117067,-0.3060525 -0.260154,-0.3060525 z m 0,1.3772455 h -1.040587 v -1.071193 h 1.040587 z"
       id="path100-9-0-1-2-6"
       style="fill:#d6dbf1;fill-opacity:1;stroke-width:0.0322477" />
    <path
       d="m 13.612146,9.9289405 h -1.040594 c -0.143079,0 -0.260146,0.1377235 -0.260146,0.3060515 v 1.071194 c 0,0.168341 0.117067,0.306064 0.260146,0.306064 h 1.040594 c 0.14308,0 0.260147,-0.137724 0.260147,-0.306064 v -1.071193 c 0,-0.168329 -0.117067,-0.3060525 -0.260147,-0.3060525 z m 0,1.3772455 h -1.040594 v -1.071193 h 1.040594 z"
       id="path102-1-2-9-7-1"
       style="fill:#d6dbf1;fill-opacity:1;stroke-width:0.0322477" />
    <path
       d="M 15.693333,9.9289405 H 14.65274 c -0.14308,0 -0.260146,0.1377235 -0.260146,0.3060515 v 1.071194 c 0,0.168341 0.117066,0.306064 0.260146,0.306064 h 1.040593 c 0.14308,0 0.260147,-0.137724 0.260147,-0.306064 v -1.071193 c 0,-0.168329 -0.117067,-0.3060525 -0.260147,-0.3060525 z m 0,1.3772455 H 14.65274 v -1.071193 h 1.040593 z"
       id="path104-2-3-4-0-0"
       style="fill:#d6dbf1;fill-opacity:1;stroke-width:0.0322477" />
    <path
       d="m 17.774521,9.9289405 h -1.040594 c -0.14308,0 -0.260146,0.1377235 -0.260146,0.3060515 v 3.366624 c 0,0.168329 0.117066,0.306053 0.260146,0.306053 h 1.040594 c 0.143079,0 0.260146,-0.137723 0.260146,-0.306053 v -3.366623 c 0,-0.168329 -0.117067,-0.3060525 -0.260146,-0.3060525 z m 0,3.6726755 h -1.040594 v -3.366623 h 1.040594 z"
       id="path106-7-7-7-9-6"
       style="fill:#d6dbf1;fill-opacity:1;stroke-width:0.0322477" />
    <path
       d="M 5.287406,12.224537 H 4.246812 c -0.143079,0 -0.260145,0.137722 -0.260145,0.306053 v 1.071204 c 0,0.16833 0.117066,0.306053 0.260145,0.306053 h 1.040594 c 0.143079,0 0.260146,-0.137722 0.260146,-0.306053 V 12.53059 c 0,-0.16833 -0.117067,-0.306053 -0.260146,-0.306053 z m 0,1.377257 H 4.246812 V 12.53059 h 1.040594 z"
       id="path108-0-5-8-3-3"
       style="fill:#d6dbf1;fill-opacity:1;stroke-width:0.0322477" />
    <path
       d="m 13.612146,12.224537 h -1.040594 c -0.143079,0 -0.260146,0.137722 -0.260146,0.306053 v 1.071204 c 0,0.16833 0.117067,0.306053 0.260146,0.306053 h 1.040594 c 0.14308,0 0.260147,-0.137722 0.260147,-0.306053 V 12.53059 c 0,-0.16833 -0.117067,-0.306053 -0.260147,-0.306053 z m 0,1.377257 H 12.571552 V 12.53059 h 1.040594 z"
       id="path110-9-9-4-6-2"
       style="fill:#d6dbf1;fill-opacity:1;stroke-width:0.0322477" />
    <path
       d="M 15.693333,12.224537 H 14.65274 c -0.14308,0 -0.260146,0.137722 -0.260146,0.306053 v 1.071204 c 0,0.16833 0.117066,0.306053 0.260146,0.306053 h 1.040593 c 0.14308,0 0.260147,-0.137722 0.260147,-0.306053 V 12.53059 c 0,-0.16833 -0.117067,-0.306053 -0.260147,-0.306053 z m 0,1.377257 H 14.65274 V 12.53059 h 1.040593 z"
       id="path112-3-2-5-0-0"
       style="fill:#d6dbf1;fill-opacity:1;stroke-width:0.0322477" />
    <path
       d="M 17.774521,7.633333 H 14.65274 c -0.14308,0 -0.260146,0.137735 -0.260146,0.306064 v 1.0711925 c 0,0.16833 0.117066,0.306064 0.260146,0.306064 h 3.121781 c 0.143079,0 0.260146,-0.137734 0.260146,-0.306064 V 7.939397 c 0,-0.168329 -0.117067,-0.306064 -0.260146,-0.306064 z m 0,1.3772565 H 14.65274 V 7.939397 h 3.121781 z"
       id="path114-6-2-0-6-6"
       style="fill:#d6dbf1;fill-opacity:1;stroke-width:0.0322477" />
    <path
       d="M 11.53096,12.224537 H 6.328 c -0.14308,0 -0.260146,0.137722 -0.260146,0.306053 v 1.071204 c 0,0.16833 0.117066,0.306053 0.260146,0.306053 h 5.20296 c 0.143087,0 0.260154,-0.137722 0.260154,-0.306053 V 12.53059 c 0,-0.16833 -0.117067,-0.306053 -0.260154,-0.306053 z m 0,1.377257 H 6.328 V 12.53059 h 5.20296 z"
       id="path116-0-8-3-2-1"
       style="fill:#d6dbf1;fill-opacity:1;stroke-width:0.0322477" />
  </g>
  <g
     id="22-22-input-keyboard-virtual-on"
     transform="translate(-22,-53.99999)">
    <path
       id="path8"
       d="m 5,2.99998 a 1.9999997,1.9999885 0 0 0 -2,2 1.9999997,1.9999885 0 0 0 2,2 1.9999997,1.9999885 0 0 0 2,-2 1.9999997,1.9999885 0 0 0 -2,-2 z"
       style="fill:#00a3cc;fill-opacity:1;stroke:none;stroke-width:0.8"
       inkscape:connector-curvature="0" />
    <rect
       y="0"
       x="0"
       height="22"
       width="22"
       id="rect4140"
       style="fill:none;fill-opacity:1;stroke:none;stroke-linejoin:bevel" />
    <path
       d="M 19,17.9 V 9.313333 C 19,8.714693 18.506656,8.3 17.773333,8.3 H 4.22667 C 3.49333,8.3 3,8.714693 3,9.313333 V 17.9 c 0,0.598636 0.49333,1.066667 1.22667,1.066667 H 17.773333 C 18.506656,18.966667 19,18.498636 19,17.9 Z M 4.22667,18.54 C 3.86,18.54 3.45333,18.199308 3.45333,17.9 V 9.313333 c 0,-0.299331 0.40667,-0.586666 0.77334,-0.586666 h 13.546663 c 0.366645,0 0.8,0.287334 0.8,0.586666 V 17.9 c 0,0.299307 -0.433355,0.64 -0.8,0.64 z"
       id="path2-3-3-3-0"
       style="fill:#d6dbf1;fill-opacity:1;stroke-width:0.301168"
       sodipodi:nodetypes="ssssssssssssssssss" />
    <rect
       style="fill:#4e5a7e;fill-opacity:0.501961;stroke:none;stroke-width:0.304754"
       id="center-3-35-6-1-7"
       width="9.8159637"
       height="15.138583"
       x="8.7240314"
       y="-18.573332"
       ry="0.85772187"
       transform="rotate(90)"
       rx="0.6400215" />
    <path
       d="m 5.28741,10.433333 h -1.0406 c -0.14308,0 -0.26014,0.137735 -0.26014,0.306064 v 1.071193 c 0,0.16833 0.11706,0.306064 0.26014,0.306064 h 1.0406 c 0.14308,0 0.26014,-0.137734 0.26014,-0.306064 v -1.071193 c 0,-0.168329 -0.11706,-0.306064 -0.26014,-0.306064 z m 0,1.377257 h -1.0406 v -1.071193 h 1.0406 z"
       id="path84-3-6-9-7-9-8"
       style="fill:#d6dbf1;fill-opacity:1;stroke-width:0.0322477" />
    <path
       d="m 6.328,12.116822 h 1.040594 c 0.143078,0 0.260145,-0.137724 0.260145,-0.306054 v -1.071203 c 0,-0.16833 -0.117067,-0.306055 -0.260145,-0.306055 H 6.328 c -0.14308,0 -0.26015,0.137725 -0.26015,0.306055 v 1.071203 c 0,0.16833 0.11707,0.306054 0.26015,0.306054 z m 0,-1.377257 h 1.040594 v 1.071203 H 6.328 Z"
       id="path86-6-2-7-5-4-6"
       style="fill:#d6dbf1;fill-opacity:1;stroke-width:0.0322477" />
    <path
       d="m 8.409187,12.116822 h 1.040594 c 0.143079,0 0.260146,-0.137724 0.260146,-0.306054 v -1.071203 c 0,-0.16833 -0.117067,-0.306055 -0.260146,-0.306055 H 8.409187 c -0.143081,0 -0.260147,0.137725 -0.260147,0.306055 v 1.071203 c 0,0.16833 0.117066,0.306054 0.260147,0.306054 z m 0,-1.377257 h 1.040594 v 1.071203 H 8.409187 Z"
       id="path88-7-6-3-3-7-8"
       style="fill:#d6dbf1;fill-opacity:1;stroke-width:0.0322477" />
    <path
       d="m 11.53096,10.433333 h -1.040587 c -0.143087,0 -0.260154,0.137735 -0.260154,0.306064 v 1.071193 c 0,0.16833 0.117067,0.306064 0.260154,0.306064 h 1.040587 c 0.143087,0 0.260154,-0.137734 0.260154,-0.306064 v -1.071193 c 0,-0.168329 -0.117067,-0.306064 -0.260154,-0.306064 z m 0,1.377257 h -1.040587 v -1.071193 h 1.040587 z"
       id="path90-5-1-6-5-8-8"
       style="fill:#d6dbf1;fill-opacity:1;stroke-width:0.0322477" />
    <path
       d="m 13.612146,10.433333 h -1.040594 c -0.143079,0 -0.260146,0.137735 -0.260146,0.306064 v 1.071193 c 0,0.16833 0.117067,0.306064 0.260146,0.306064 h 1.040594 c 0.14308,0 0.260147,-0.137734 0.260147,-0.306064 v -1.071193 c 0,-0.168329 -0.117067,-0.306064 -0.260147,-0.306064 z m 0,1.377257 h -1.040594 v -1.071193 h 1.040594 z"
       id="path92-3-8-1-6-4-4"
       style="fill:#d6dbf1;fill-opacity:1;stroke-width:0.0322477" />
    <path
       d="m 5.28741,12.728941 h -1.0406 c -0.14308,0 -0.26014,0.137723 -0.26014,0.306052 v 1.071194 c 0,0.16834 0.11706,0.306064 0.26014,0.306064 h 1.0406 c 0.14308,0 0.26014,-0.137724 0.26014,-0.306064 v -1.071194 c 0,-0.168329 -0.11706,-0.306052 -0.26014,-0.306052 z m 0,1.377246 h -1.0406 v -1.071194 h 1.0406 z"
       id="path94-5-7-2-2-5-3"
       style="fill:#d6dbf1;fill-opacity:1;stroke-width:0.0322477" />
    <path
       d="m 6.328,14.412418 h 1.040594 c 0.143078,0 0.260145,-0.137723 0.260145,-0.306053 v -1.071193 c 0,-0.16833 -0.117067,-0.306065 -0.260145,-0.306065 H 6.328 c -0.14308,0 -0.26015,0.137735 -0.26015,0.306065 v 1.071193 c 0,0.16833 0.11707,0.306053 0.26015,0.306053 z m 0,-1.377246 h 1.040594 v 1.071193 H 6.328 Z"
       id="path96-6-9-9-9-0-1"
       style="fill:#d6dbf1;fill-opacity:1;stroke-width:0.0322477" />
    <path
       d="m 8.409187,14.412418 h 1.040594 c 0.143079,0 0.260146,-0.137723 0.260146,-0.306053 v -1.071193 c 0,-0.16833 -0.117067,-0.306065 -0.260146,-0.306065 H 8.409187 c -0.143081,0 -0.260147,0.137735 -0.260147,0.306065 v 1.071193 c 0,0.16833 0.117066,0.306053 0.260147,0.306053 z m 0,-1.377246 h 1.040594 v 1.071193 H 8.409187 Z"
       id="path98-2-2-3-1-3-4"
       style="fill:#d6dbf1;fill-opacity:1;stroke-width:0.0322477" />
    <path
       d="m 11.53096,12.728941 h -1.040587 c -0.143087,0 -0.260154,0.137723 -0.260154,0.306052 v 1.071194 c 0,0.16834 0.117067,0.306064 0.260154,0.306064 h 1.040587 c 0.143087,0 0.260154,-0.137724 0.260154,-0.306064 v -1.071194 c 0,-0.168329 -0.117067,-0.306052 -0.260154,-0.306052 z m 0,1.377246 h -1.040587 v -1.071194 h 1.040587 z"
       id="path100-9-0-1-2-6-9"
       style="fill:#d6dbf1;fill-opacity:1;stroke-width:0.0322477" />
    <path
       d="m 13.612146,12.728941 h -1.040594 c -0.143079,0 -0.260146,0.137723 -0.260146,0.306052 v 1.071194 c 0,0.16834 0.117067,0.306064 0.260146,0.306064 h 1.040594 c 0.14308,0 0.260147,-0.137724 0.260147,-0.306064 v -1.071194 c 0,-0.168329 -0.117067,-0.306052 -0.260147,-0.306052 z m 0,1.377246 h -1.040594 v -1.071194 h 1.040594 z"
       id="path102-1-2-9-7-1-2"
       style="fill:#d6dbf1;fill-opacity:1;stroke-width:0.0322477" />
    <path
       d="M 15.693333,12.728941 H 14.65274 c -0.14308,0 -0.260146,0.137723 -0.260146,0.306052 v 1.071194 c 0,0.16834 0.117066,0.306064 0.260146,0.306064 h 1.040593 c 0.14308,0 0.260147,-0.137724 0.260147,-0.306064 v -1.071194 c 0,-0.168329 -0.117067,-0.306052 -0.260147,-0.306052 z m 0,1.377246 H 14.65274 v -1.071194 h 1.040593 z"
       id="path104-2-3-4-0-0-0"
       style="fill:#d6dbf1;fill-opacity:1;stroke-width:0.0322477" />
    <path
       d="m 17.774521,12.728941 h -1.040594 c -0.14308,0 -0.260146,0.137723 -0.260146,0.306052 v 3.366623 c 0,0.16833 0.117066,0.306053 0.260146,0.306053 h 1.040594 c 0.143079,0 0.260146,-0.137723 0.260146,-0.306053 v -3.366623 c 0,-0.168329 -0.117067,-0.306052 -0.260146,-0.306052 z m 0,3.672675 h -1.040594 v -3.366623 h 1.040594 z"
       id="path106-7-7-7-9-6-6"
       style="fill:#d6dbf1;fill-opacity:1;stroke-width:0.0322477" />
    <path
       d="m 5.28741,15.024537 h -1.0406 c -0.14308,0 -0.26014,0.137723 -0.26014,0.306053 v 1.071205 c 0,0.16833 0.11706,0.306053 0.26014,0.306053 h 1.0406 c 0.14308,0 0.26014,-0.137723 0.26014,-0.306053 V 15.33059 c 0,-0.16833 -0.11706,-0.306053 -0.26014,-0.306053 z m 0,1.377258 H 4.24681 V 15.33059 h 1.0406 z"
       id="path108-0-5-8-3-3-8"
       style="fill:#d6dbf1;fill-opacity:1;stroke-width:0.0322477" />
    <path
       d="m 13.612146,15.024537 h -1.040594 c -0.143079,0 -0.260146,0.137723 -0.260146,0.306053 v 1.071205 c 0,0.16833 0.117067,0.306053 0.260146,0.306053 h 1.040594 c 0.14308,0 0.260147,-0.137723 0.260147,-0.306053 V 15.33059 c 0,-0.16833 -0.117067,-0.306053 -0.260147,-0.306053 z m 0,1.377258 H 12.571552 V 15.33059 h 1.040594 z"
       id="path110-9-9-4-6-2-9"
       style="fill:#d6dbf1;fill-opacity:1;stroke-width:0.0322477" />
    <path
       d="M 15.693333,15.024537 H 14.65274 c -0.14308,0 -0.260146,0.137723 -0.260146,0.306053 v 1.071205 c 0,0.16833 0.117066,0.306053 0.260146,0.306053 h 1.040593 c 0.14308,0 0.260147,-0.137723 0.260147,-0.306053 V 15.33059 c 0,-0.16833 -0.117067,-0.306053 -0.260147,-0.306053 z m 0,1.377258 H 14.65274 V 15.33059 h 1.040593 z"
       id="path112-3-2-5-0-0-2"
       style="fill:#d6dbf1;fill-opacity:1;stroke-width:0.0322477" />
    <path
       d="M 17.774521,10.433333 H 14.65274 c -0.14308,0 -0.260146,0.137735 -0.260146,0.306064 v 1.071193 c 0,0.16833 0.117066,0.306064 0.260146,0.306064 h 3.121781 c 0.143079,0 0.260146,-0.137734 0.260146,-0.306064 v -1.071193 c 0,-0.168329 -0.117067,-0.306064 -0.260146,-0.306064 z m 0,1.377257 H 14.65274 v -1.071193 h 3.121781 z"
       id="path114-6-2-0-6-6-6"
       style="fill:#d6dbf1;fill-opacity:1;stroke-width:0.0322477" />
    <path
       d="M 11.53096,15.024537 H 6.328 c -0.14308,0 -0.26015,0.137723 -0.26015,0.306053 v 1.071205 c 0,0.16833 0.11707,0.306053 0.26015,0.306053 h 5.20296 c 0.143087,0 0.260154,-0.137723 0.260154,-0.306053 V 15.33059 c 0,-0.16833 -0.117067,-0.306053 -0.260154,-0.306053 z m 0,1.377258 H 6.328 V 15.33059 h 5.20296 z"
       id="path116-0-8-3-2-1-6"
       style="fill:#d6dbf1;fill-opacity:1;stroke-width:0.0322477" />
  </g>
  <g
     id="input-keyboard-virtual-off"
     transform="translate(0,95.999992)">
    <rect
       style="fill:none;fill-rule:evenodd;stroke:none;stroke-width:1.45455px;stroke-linecap:butt;stroke-linejoin:miter;stroke-opacity:1"
       id="rect4176"
       width="32"
       height="32"
       x="0"
       y="-127.99998" />
    <path
       d="m 28.75,-101.69998 v -13.685 c 0,-0.95408 -0.78627,-1.615 -1.955,-1.615 H 5.205 c -1.168751,0 -1.955001,0.66092 -1.955,1.615 v 13.685 c 0,0.95407 0.786249,1.7 1.955,1.7 h 21.59 c 1.16873,0 1.955,-0.74593 1.955,-1.7 z m -23.545,1.02 c -0.584367,0 -1.2325,-0.54298 -1.2325,-1.02 v -13.685 c 0,-0.47706 0.648133,-0.935 1.2325,-0.935 h 21.59 c 0.58434,0 1.275,0.45794 1.275,0.935 v 13.685 c 0,0.47702 -0.69066,1.02 -1.275,1.02 z"
       id="path2-3-6"
       style="fill:#d6dbf1;fill-opacity:1;stroke-width:0.479987"
       sodipodi:nodetypes="ssssssssssssssssss" />
    <rect
       style="fill:#4e5a7e;fill-opacity:0.501961;stroke:none;stroke-width:0.485702"
       id="center-3-35-1"
       width="15.644192"
       height="24.127117"
       x="-116.32418"
       y="-28.069998"
       ry="1.3669943"
       transform="rotate(90)"
       rx="1.0200343" />
    <path
       d="M 6.895553,-113.59998 H 5.237107 c -0.228032,0 -0.414607,0.21951 -0.414607,0.48779 v 1.70722 c 0,0.26827 0.186575,0.48779 0.414607,0.48779 h 1.658446 c 0.228033,0 0.414608,-0.21952 0.414608,-0.48779 v -1.70722 c 0,-0.26828 -0.186575,-0.48779 -0.414608,-0.48779 z m 0,2.19501 H 5.237107 v -1.70722 h 1.658446 z"
       id="path84-3-6-9-8"
       style="fill:#d6dbf1;fill-opacity:1;stroke-width:0.0513947" />
    <path
       d="m 8.554,-110.91692 h 1.658446 c 0.228032,0 0.414607,-0.2195 0.414607,-0.48777 v -1.70724 c 0,-0.26827 -0.186575,-0.48777 -0.414607,-0.48777 H 8.554 c -0.228033,0 -0.414608,0.2195 -0.414608,0.48777 v 1.70724 c 0,0.26827 0.186575,0.48777 0.414608,0.48777 z m 0,-2.19501 h 1.658446 v 1.70724 H 8.554 Z"
       id="path86-6-2-7-7"
       style="fill:#d6dbf1;fill-opacity:1;stroke-width:0.0513947" />
    <path
       d="m 11.870892,-110.91692 h 1.658447 c 0.228032,0 0.414607,-0.2195 0.414607,-0.48777 v -1.70724 c 0,-0.26827 -0.186575,-0.48777 -0.414607,-0.48777 h -1.658447 c -0.228035,0 -0.41461,0.2195 -0.41461,0.48777 v 1.70724 c 0,0.26827 0.186575,0.48777 0.41461,0.48777 z m 0,-2.19501 h 1.658447 v 1.70724 h -1.658447 z"
       id="path88-7-6-3-9"
       style="fill:#d6dbf1;fill-opacity:1;stroke-width:0.0513947" />
    <path
       d="m 16.84622,-113.59998 h -1.658438 c -0.228045,0 -0.41462,0.21951 -0.41462,0.48779 v 1.70722 c 0,0.26827 0.186575,0.48779 0.41462,0.48779 h 1.658438 c 0.22804,0 0.41462,-0.21952 0.41462,-0.48779 v -1.70722 c 0,-0.26828 -0.18658,-0.48779 -0.41462,-0.48779 z m 0,2.19501 h -1.658438 v -1.70722 h 1.658438 z"
       id="path90-5-1-6-2"
       style="fill:#d6dbf1;fill-opacity:1;stroke-width:0.0513947" />
    <path
       d="m 20.16311,-113.59998 h -1.65845 c -0.22803,0 -0.41461,0.21951 -0.41461,0.48779 v 1.70722 c 0,0.26827 0.18658,0.48779 0.41461,0.48779 h 1.65845 c 0.22803,0 0.41461,-0.21952 0.41461,-0.48779 v -1.70722 c 0,-0.26828 -0.18658,-0.48779 -0.41461,-0.48779 z m 0,2.19501 h -1.65845 v -1.70722 h 1.65845 z"
       id="path92-3-8-1-0"
       style="fill:#d6dbf1;fill-opacity:1;stroke-width:0.0513947" />
    <path
       d="M 6.895553,-109.94136 H 5.237107 c -0.228032,0 -0.414607,0.21951 -0.414607,0.48777 v 1.70722 c 0,0.26829 0.186575,0.48779 0.414607,0.48779 h 1.658446 c 0.228033,0 0.414608,-0.2195 0.414608,-0.48779 v -1.70722 c 0,-0.26827 -0.186575,-0.48777 -0.414608,-0.48777 z m 0,2.19499 H 5.237107 v -1.70722 h 1.658446 z"
       id="path94-5-7-2-23"
       style="fill:#d6dbf1;fill-opacity:1;stroke-width:0.0513947" />
    <path
       d="m 8.554,-107.25832 h 1.658446 c 0.228032,0 0.414607,-0.21949 0.414607,-0.48777 v -1.70721 c 0,-0.26827 -0.186575,-0.48779 -0.414607,-0.48779 H 8.554 c -0.228033,0 -0.414608,0.21952 -0.414608,0.48779 v 1.70721 c 0,0.26828 0.186575,0.48777 0.414608,0.48777 z m 0,-2.19498 h 1.658446 v 1.70721 H 8.554 Z"
       id="path96-6-9-9-7"
       style="fill:#d6dbf1;fill-opacity:1;stroke-width:0.0513947" />
    <path
       d="m 11.870892,-107.25832 h 1.658447 c 0.228032,0 0.414607,-0.21949 0.414607,-0.48777 v -1.70721 c 0,-0.26827 -0.186575,-0.48779 -0.414607,-0.48779 h -1.658447 c -0.228035,0 -0.41461,0.21952 -0.41461,0.48779 v 1.70721 c 0,0.26828 0.186575,0.48777 0.41461,0.48777 z m 0,-2.19498 h 1.658447 v 1.70721 h -1.658447 z"
       id="path98-2-2-3-5"
       style="fill:#d6dbf1;fill-opacity:1;stroke-width:0.0513947" />
    <path
       d="m 16.84622,-109.94136 h -1.658438 c -0.228045,0 -0.41462,0.21951 -0.41462,0.48777 v 1.70722 c 0,0.26829 0.186575,0.48779 0.41462,0.48779 h 1.658438 c 0.22804,0 0.41462,-0.2195 0.41462,-0.48779 v -1.70722 c 0,-0.26827 -0.18658,-0.48777 -0.41462,-0.48777 z m 0,2.19499 h -1.658438 v -1.70722 h 1.658438 z"
       id="path100-9-0-1-9"
       style="fill:#d6dbf1;fill-opacity:1;stroke-width:0.0513947" />
    <path
       d="m 20.16311,-109.94136 h -1.65845 c -0.22803,0 -0.41461,0.21951 -0.41461,0.48777 v 1.70722 c 0,0.26829 0.18658,0.48779 0.41461,0.48779 h 1.65845 c 0.22803,0 0.41461,-0.2195 0.41461,-0.48779 v -1.70722 c 0,-0.26827 -0.18658,-0.48777 -0.41461,-0.48777 z m 0,2.19499 h -1.65845 v -1.70722 h 1.65845 z"
       id="path102-1-2-9-2"
       style="fill:#d6dbf1;fill-opacity:1;stroke-width:0.0513947" />
    <path
       d="m 23.48,-109.94136 h -1.65845 c -0.22803,0 -0.4146,0.21951 -0.4146,0.48777 v 1.70722 c 0,0.26829 0.18657,0.48779 0.4146,0.48779 H 23.48 c 0.22803,0 0.41461,-0.2195 0.41461,-0.48779 v -1.70722 c 0,-0.26827 -0.18658,-0.48777 -0.41461,-0.48777 z m 0,2.19499 h -1.65845 v -1.70722 H 23.48 Z"
       id="path104-2-3-4-2"
       style="fill:#d6dbf1;fill-opacity:1;stroke-width:0.0513947" />
    <path
       d="m 26.79689,-109.94136 h -1.65844 c -0.22804,0 -0.41461,0.21951 -0.41461,0.48777 v 5.36556 c 0,0.26828 0.18657,0.48777 0.41461,0.48777 h 1.65844 c 0.22803,0 0.41461,-0.21949 0.41461,-0.48777 v -5.36556 c 0,-0.26827 -0.18658,-0.48777 -0.41461,-0.48777 z m 0,5.85333 h -1.65844 v -5.36556 h 1.65844 z"
       id="path106-7-7-7-8"
       style="fill:#d6dbf1;fill-opacity:1;stroke-width:0.0513947" />
    <path
       d="M 6.895553,-106.28275 H 5.237107 c -0.228032,0 -0.414607,0.2195 -0.414607,0.48778 v 1.70723 c 0,0.26827 0.186575,0.48776 0.414607,0.48776 h 1.658446 c 0.228033,0 0.414608,-0.21949 0.414608,-0.48776 v -1.70723 c 0,-0.26828 -0.186575,-0.48778 -0.414608,-0.48778 z m 0,2.19501 H 5.237107 v -1.70723 h 1.658446 z"
       id="path108-0-5-8-9"
       style="fill:#d6dbf1;fill-opacity:1;stroke-width:0.0513947" />
    <path
       d="m 20.16311,-106.28275 h -1.65845 c -0.22803,0 -0.41461,0.2195 -0.41461,0.48778 v 1.70723 c 0,0.26827 0.18658,0.48776 0.41461,0.48776 h 1.65845 c 0.22803,0 0.41461,-0.21949 0.41461,-0.48776 v -1.70723 c 0,-0.26828 -0.18658,-0.48778 -0.41461,-0.48778 z m 0,2.19501 h -1.65845 v -1.70723 h 1.65845 z"
       id="path110-9-9-4-7"
       style="fill:#d6dbf1;fill-opacity:1;stroke-width:0.0513947" />
    <path
       d="m 23.48,-106.28275 h -1.65845 c -0.22803,0 -0.4146,0.2195 -0.4146,0.48778 v 1.70723 c 0,0.26827 0.18657,0.48776 0.4146,0.48776 H 23.48 c 0.22803,0 0.41461,-0.21949 0.41461,-0.48776 v -1.70723 c 0,-0.26828 -0.18658,-0.48778 -0.41461,-0.48778 z m 0,2.19501 h -1.65845 v -1.70723 H 23.48 Z"
       id="path112-3-2-5-3"
       style="fill:#d6dbf1;fill-opacity:1;stroke-width:0.0513947" />
    <path
       d="m 26.79689,-113.59998 h -4.97534 c -0.22803,0 -0.4146,0.21951 -0.4146,0.48779 v 1.70722 c 0,0.26827 0.18657,0.48779 0.4146,0.48779 h 4.97534 c 0.22803,0 0.41461,-0.21952 0.41461,-0.48779 v -1.70722 c 0,-0.26828 -0.18658,-0.48779 -0.41461,-0.48779 z m 0,2.19501 h -4.97534 v -1.70722 h 4.97534 z"
       id="path114-6-2-0-61"
       style="fill:#d6dbf1;fill-opacity:1;stroke-width:0.0513947" />
    <path
       d="M 16.84622,-106.28275 H 8.554 c -0.228033,0 -0.414608,0.2195 -0.414608,0.48778 v 1.70723 c 0,0.26827 0.186575,0.48776 0.414608,0.48776 h 8.29222 c 0.22804,0 0.41462,-0.21949 0.41462,-0.48776 v -1.70723 c 0,-0.26828 -0.18658,-0.48778 -0.41462,-0.48778 z m 0,2.19501 H 8.554 v -1.70723 h 8.29222 z"
       id="path116-0-8-3-29"
       style="fill:#d6dbf1;fill-opacity:1;stroke-width:0.0513947" />
    <path
       id="path8-9-1"
       d="M 5.5,-124 A 2.4999996,2.4999855 0 0 0 3,-121.5 2.4999996,2.4999855 0 0 0 5.5,-119 2.4999996,2.4999855 0 0 0 8,-121.5 2.4999996,2.4999855 0 0 0 5.5,-124 Z"
       style="fill:#4e5a7e;fill-opacity:0.501961;stroke:none;stroke-width:1.45455"
       inkscape:connector-curvature="0" />
    <path
       d="m 4.001193,-122.99989 h 0.374854 c 0.0045,-1.1e-4 0.0075,-2.3e-4 0.01169,0 0.09558,0.01 0.191127,0.0484 0.257724,0.11702 l 0.855111,0.85559 0.866846,-0.85559 c 0.09957,-0.0862 0.167433,-0.11447 0.257708,-0.11702 h 0.374849 v 0.37492 c 0,0.10749 -0.01286,0.20649 -0.09372,0.28119 l -0.855119,0.85559 0.843407,0.84361 c 0.07055,0.0705 0.105421,0.17008 0.105424,0.26953 v 0.37503 H 6.625125 c -0.09945,-10e-6 -0.198894,-0.0345 -0.269427,-0.10549 l -0.855125,-0.85548 -0.855117,0.85548 c -0.07054,0.0705 -0.169977,0.10549 -0.269426,0.10549 H 4.00118 v -0.37503 c 0,-0.0995 0.03493,-0.19903 0.105423,-0.26953 l 0.855138,-0.84361 -0.855138,-0.85559 c -0.07901,-0.0732 -0.113638,-0.1759 -0.105423,-0.28119 z"
       style="fill:#da4453;fill-opacity:1;stroke-width:0.43741"
       id="path48-6-0"
       inkscape:connector-curvature="0" />
  </g>
  <g
     id="22-22-input-keyboard-virtual-off"
     transform="translate(0,95.999992)">
    <rect
       style="fill:none;fill-opacity:1;stroke:none;stroke-linejoin:bevel"
       id="rect4172"
       width="22"
       height="22"
       x="-22"
       y="-117.99998" />
    <path
       d="m -3,-100.39998 v -8.58667 c 0,-0.59864 -0.493344,-1.01333 -1.226667,-1.01333 h -13.546666 c -0.733334,0 -1.226668,0.41469 -1.226667,1.01333 v 8.58667 c 0,0.598636 0.493333,1.066667 1.226667,1.066667 h 13.546666 c 0.733323,0 1.226667,-0.468031 1.226667,-1.066667 z m -14.773333,0.64 c -0.366662,0 -0.773334,-0.34069 -0.773334,-0.64 v -8.58667 c 0,-0.29933 0.406672,-0.58666 0.773334,-0.58666 h 13.546666 c 0.366645,0 0.8,0.28733 0.8,0.58666 v 8.58667 c 0,0.29931 -0.433355,0.64 -0.8,0.64 z"
       id="path2-3-3-3-5"
       style="fill:#d6dbf1;fill-opacity:1;stroke-width:0.301168"
       sodipodi:nodetypes="ssssssssssssssssss" />
    <rect
       style="fill:#4e5a7e;fill-opacity:0.501961;stroke:none;stroke-width:0.304754"
       id="center-3-35-6-1-5"
       width="9.8159637"
       height="15.138583"
       x="-109.57594"
       y="3.4266624"
       ry="0.85772187"
       transform="rotate(90)"
       rx="0.6400215" />
    <path
       d="m -16.712594,-107.86665 h -1.040594 c -0.143079,0 -0.260145,0.13774 -0.260145,0.30607 v 1.07119 c 0,0.16833 0.117066,0.30606 0.260145,0.30606 h 1.040594 c 0.143079,0 0.260146,-0.13773 0.260146,-0.30606 v -1.07119 c 0,-0.16833 -0.117067,-0.30607 -0.260146,-0.30607 z m 0,1.37726 h -1.040594 v -1.07119 h 1.040594 z"
       id="path84-3-6-9-7-9-4"
       style="fill:#d6dbf1;fill-opacity:1;stroke-width:0.0322477" />
    <path
       d="m -15.672,-106.18316 h 1.040594 c 0.143078,0 0.260145,-0.13772 0.260145,-0.30605 v -1.0712 c 0,-0.16833 -0.117067,-0.30606 -0.260145,-0.30606 H -15.672 c -0.14308,0 -0.260146,0.13773 -0.260146,0.30606 v 1.0712 c 0,0.16833 0.117066,0.30605 0.260146,0.30605 z m 0,-1.37725 h 1.040594 v 1.0712 H -15.672 Z"
       id="path86-6-2-7-5-4-7"
       style="fill:#d6dbf1;fill-opacity:1;stroke-width:0.0322477" />
    <path
       d="m -13.590813,-106.18316 h 1.040594 c 0.143079,0 0.260146,-0.13772 0.260146,-0.30605 v -1.0712 c 0,-0.16833 -0.117067,-0.30606 -0.260146,-0.30606 h -1.040594 c -0.143081,0 -0.260147,0.13773 -0.260147,0.30606 v 1.0712 c 0,0.16833 0.117066,0.30605 0.260147,0.30605 z m 0,-1.37725 h 1.040594 v 1.0712 h -1.040594 z"
       id="path88-7-6-3-3-7-6"
       style="fill:#d6dbf1;fill-opacity:1;stroke-width:0.0322477" />
    <path
       d="m -10.46904,-107.86665 h -1.040587 c -0.143087,0 -0.260154,0.13774 -0.260154,0.30607 v 1.07119 c 0,0.16833 0.117067,0.30606 0.260154,0.30606 h 1.040587 c 0.143087,0 0.260154,-0.13773 0.260154,-0.30606 v -1.07119 c 0,-0.16833 -0.117067,-0.30607 -0.260154,-0.30607 z m 0,1.37726 h -1.040587 v -1.07119 h 1.040587 z"
       id="path90-5-1-6-5-8-5"
       style="fill:#d6dbf1;fill-opacity:1;stroke-width:0.0322477" />
    <path
       d="m -8.387854,-107.86665 h -1.040594 c -0.143079,0 -0.260146,0.13774 -0.260146,0.30607 v 1.07119 c 0,0.16833 0.117067,0.30606 0.260146,0.30606 h 1.040594 c 0.14308,0 0.260147,-0.13773 0.260147,-0.30606 v -1.07119 c 0,-0.16833 -0.117067,-0.30607 -0.260147,-0.30607 z m 0,1.37726 h -1.040594 v -1.07119 h 1.040594 z"
       id="path92-3-8-1-6-4-6"
       style="fill:#d6dbf1;fill-opacity:1;stroke-width:0.0322477" />
    <path
       d="m -16.712594,-105.57104 h -1.040594 c -0.143079,0 -0.260145,0.13772 -0.260145,0.30605 v 1.0712 c 0,0.16834 0.117066,0.30606 0.260145,0.30606 h 1.040594 c 0.143079,0 0.260146,-0.13772 0.260146,-0.30606 v -1.0712 c 0,-0.16833 -0.117067,-0.30605 -0.260146,-0.30605 z m 0,1.37725 h -1.040594 v -1.0712 h 1.040594 z"
       id="path94-5-7-2-2-5-9"
       style="fill:#d6dbf1;fill-opacity:1;stroke-width:0.0322477" />
    <path
       d="m -15.672,-103.88756 h 1.040594 c 0.143078,0 0.260145,-0.13772 0.260145,-0.30605 v -1.0712 c 0,-0.16833 -0.117067,-0.30606 -0.260145,-0.30606 H -15.672 c -0.14308,0 -0.260146,0.13773 -0.260146,0.30606 v 1.0712 c 0,0.16833 0.117066,0.30605 0.260146,0.30605 z m 0,-1.37725 h 1.040594 v 1.0712 H -15.672 Z"
       id="path96-6-9-9-9-0-3"
       style="fill:#d6dbf1;fill-opacity:1;stroke-width:0.0322477" />
    <path
       d="m -13.590813,-103.88756 h 1.040594 c 0.143079,0 0.260146,-0.13772 0.260146,-0.30605 v -1.0712 c 0,-0.16833 -0.117067,-0.30606 -0.260146,-0.30606 h -1.040594 c -0.143081,0 -0.260147,0.13773 -0.260147,0.30606 v 1.0712 c 0,0.16833 0.117066,0.30605 0.260147,0.30605 z m 0,-1.37725 h 1.040594 v 1.0712 h -1.040594 z"
       id="path98-2-2-3-1-3-7"
       style="fill:#d6dbf1;fill-opacity:1;stroke-width:0.0322477" />
    <path
       d="m -10.46904,-105.57104 h -1.040587 c -0.143087,0 -0.260154,0.13772 -0.260154,0.30605 v 1.0712 c 0,0.16834 0.117067,0.30606 0.260154,0.30606 h 1.040587 c 0.143087,0 0.260154,-0.13772 0.260154,-0.30606 v -1.0712 c 0,-0.16833 -0.117067,-0.30605 -0.260154,-0.30605 z m 0,1.37725 h -1.040587 v -1.0712 h 1.040587 z"
       id="path100-9-0-1-2-6-4"
       style="fill:#d6dbf1;fill-opacity:1;stroke-width:0.0322477" />
    <path
       d="m -8.387854,-105.57104 h -1.040594 c -0.143079,0 -0.260146,0.13772 -0.260146,0.30605 v 1.0712 c 0,0.16834 0.117067,0.30606 0.260146,0.30606 h 1.040594 c 0.14308,0 0.260147,-0.13772 0.260147,-0.30606 v -1.0712 c 0,-0.16833 -0.117067,-0.30605 -0.260147,-0.30605 z m 0,1.37725 h -1.040594 v -1.0712 h 1.040594 z"
       id="path102-1-2-9-7-1-5"
       style="fill:#d6dbf1;fill-opacity:1;stroke-width:0.0322477" />
    <path
       d="M -6.306667,-105.57104 H -7.34726 c -0.14308,0 -0.260146,0.13772 -0.260146,0.30605 v 1.0712 c 0,0.16834 0.117066,0.30606 0.260146,0.30606 h 1.040593 c 0.14308,0 0.260147,-0.13772 0.260147,-0.30606 v -1.0712 c 0,-0.16833 -0.117067,-0.30605 -0.260147,-0.30605 z m 0,1.37725 H -7.34726 v -1.0712 h 1.040593 z"
       id="path104-2-3-4-0-0-2"
       style="fill:#d6dbf1;fill-opacity:1;stroke-width:0.0322477" />
    <path
       d="m -4.225479,-105.57104 h -1.040594 c -0.14308,0 -0.260146,0.13772 -0.260146,0.30605 v 3.36663 c 0,0.16833 0.117066,0.30605 0.260146,0.30605 h 1.040594 c 0.143079,0 0.260146,-0.13772 0.260146,-0.30605 v -3.36663 c 0,-0.16833 -0.117067,-0.30605 -0.260146,-0.30605 z m 0,3.67268 h -1.040594 v -3.36663 h 1.040594 z"
       id="path106-7-7-7-9-6-5"
       style="fill:#d6dbf1;fill-opacity:1;stroke-width:0.0322477" />
    <path
       d="m -16.712594,-103.27544 h -1.040594 c -0.143079,0 -0.260145,0.13772 -0.260145,0.30605 v 1.07121 c 0,0.16833 0.117066,0.30605 0.260145,0.30605 h 1.040594 c 0.143079,0 0.260146,-0.13773 0.260146,-0.30605 v -1.07121 c 0,-0.16833 -0.117067,-0.30605 -0.260146,-0.30605 z m 0,1.37726 h -1.040594 v -1.07121 h 1.040594 z"
       id="path108-0-5-8-3-3-4"
       style="fill:#d6dbf1;fill-opacity:1;stroke-width:0.0322477" />
    <path
       d="m -8.387854,-103.27544 h -1.040594 c -0.143079,0 -0.260146,0.13772 -0.260146,0.30605 v 1.07121 c 0,0.16833 0.117067,0.30605 0.260146,0.30605 h 1.040594 c 0.14308,0 0.260147,-0.13773 0.260147,-0.30605 v -1.07121 c 0,-0.16833 -0.117067,-0.30605 -0.260147,-0.30605 z m 0,1.37726 h -1.040594 v -1.07121 h 1.040594 z"
       id="path110-9-9-4-6-2-7"
       style="fill:#d6dbf1;fill-opacity:1;stroke-width:0.0322477" />
    <path
       d="M -6.306667,-103.27544 H -7.34726 c -0.14308,0 -0.260146,0.13772 -0.260146,0.30605 v 1.07121 c 0,0.16833 0.117066,0.30605 0.260146,0.30605 h 1.040593 c 0.14308,0 0.260147,-0.13773 0.260147,-0.30605 v -1.07121 c 0,-0.16833 -0.117067,-0.30605 -0.260147,-0.30605 z m 0,1.37726 H -7.34726 v -1.07121 h 1.040593 z"
       id="path112-3-2-5-0-0-4"
       style="fill:#d6dbf1;fill-opacity:1;stroke-width:0.0322477" />
    <path
       d="M -4.225479,-107.86665 H -7.34726 c -0.14308,0 -0.260146,0.13774 -0.260146,0.30607 v 1.07119 c 0,0.16833 0.117066,0.30606 0.260146,0.30606 h 3.121781 c 0.143079,0 0.260146,-0.13773 0.260146,-0.30606 v -1.07119 c 0,-0.16833 -0.117067,-0.30607 -0.260146,-0.30607 z m 0,1.37726 H -7.34726 v -1.07119 h 3.121781 z"
       id="path114-6-2-0-6-6-4"
       style="fill:#d6dbf1;fill-opacity:1;stroke-width:0.0322477" />
    <path
       d="M -10.46904,-103.27544 H -15.672 c -0.14308,0 -0.260146,0.13772 -0.260146,0.30605 v 1.07121 c 0,0.16833 0.117066,0.30605 0.260146,0.30605 h 5.20296 c 0.143087,0 0.260154,-0.13773 0.260154,-0.30605 v -1.07121 c 0,-0.16833 -0.117067,-0.30605 -0.260154,-0.30605 z m 0,1.37726 H -15.672 v -1.07121 h 5.20296 z"
       id="path116-0-8-3-2-1-3"
       style="fill:#d6dbf1;fill-opacity:1;stroke-width:0.0322477" />
    <path
       id="path8-9-1-6"
       d="m -17,-115.4 a 1.9999996,1.9999885 0 0 0 -2,2 1.9999996,1.9999885 0 0 0 2,2 1.9999996,1.9999885 0 0 0 2,-2 1.9999996,1.9999885 0 0 0 -2,-2 z"
       style="fill:#4e5a7e;fill-opacity:0.501961;stroke:none;stroke-width:1.16365"
       inkscape:connector-curvature="0" />
    <path
       d="m -18.199047,-114.59989 h 0.299884 c 0.0035,-1.1e-4 0.006,-2.3e-4 0.0094,0 0.07648,0.01 0.1529,0.0384 0.206178,0.0937 l 0.684088,0.68446 0.693477,-0.68446 c 0.07967,-0.0692 0.133948,-0.0915 0.206166,-0.0937 h 0.299879 v 0.29992 c 0,0.0861 -0.01026,0.16519 -0.07498,0.22497 l -0.684094,0.68441 0.674727,0.67492 c 0.05645,0.0564 0.08433,0.13607 0.08433,0.21563 v 0.30002 h -0.299872 c -0.07955,0 -0.159115,-0.0276 -0.215541,-0.0844 l -0.6841,-0.68438 -0.684095,0.68438 c -0.05644,0.0564 -0.135981,0.0844 -0.21554,0.0844 h -0.299906 v -0.30002 c 0,-0.0796 0.02793,-0.15923 0.08433,-0.21563 l 0.684113,-0.67492 -0.684113,-0.68441 c -0.06321,-0.0583 -0.09092,-0.14078 -0.08433,-0.22497 z"
       style="fill:#da4453;fill-opacity:1;stroke-width:0.34993"
       id="path48-6-0-1"
       inkscape:connector-curvature="0" />
  </g>
  <g
     id="22-22-input-caps-on"
     transform="translate(-22,73.999975)">
    <rect
       style="fill:#4e5a7e;fill-opacity:0.501961;stroke:none;stroke-width:0.386955"
       id="center-3-35-3-6"
       width="12.374923"
       height="12.799811"
       x="4.4666581"
       y="3.5335412"
       ry="0.7999894"
       rx="0.68749571" />
    <path
       inkscape:connector-curvature="0"
       id="path880-8-6-2"
       d="M 4,4.3333247 V 14.999925 c 0,0.666663 0.666663,1.333325 1.333325,1.666756 L 10.666625,19 l 5.3333,-2.382752 c 0.666663,-0.283998 1.333325,-0.95066 1.333325,-1.696829 v -10.5870943 0 C 17.33325,3.6666627 16.666588,3 15.999925,3 L 5.324269,3.0001 C 4.666663,3 4,3.6666627 4,4.3333247 Z m 0.666663,0.297071 c 0,-0.685555 0.267902,-0.963733 1.037098,-0.963733 l 9.951971,9.3e-5 c 0.662076,-9.3e-5 1.010856,0.310458 1.010856,0.984007 v 0 8.3491753 c 0,1.333325 0,1.333325 -1.390158,1.333411 l -9.276442,-8.6e-5 c -1.333325,0 -1.333325,0 -1.333325,-1.333325 z m 5.604131,1.036354 -2.937481,6.6666253 h 0.867181 l 0.881508,-1.999988 h 3.148413 l 0.899735,1.999988 h 0.869788 L 10.999956,5.6667497 Z m 0.368485,1.1302 1.291658,2.869775 H 9.374966 Z M 4.666663,15.000025 h 11.999925 c 0,0.666563 -0.666663,0.666563 -1.333325,0.666563 H 5.999988 c -0.666663,0 -1.333325,0 -1.333325,-0.666563 z"
       style="fill:#d6dbf1;fill-opacity:1;stroke:none;stroke-width:0.666663"
       sodipodi:nodetypes="ccccccccccccccccccccccccccccccccccccccc" />
    <rect
       y="-2.5878907e-07"
       x="0"
       height="22"
       width="22"
       id="rect964"
       style="opacity:0.00100002;fill-opacity:1;stroke:none;stroke-width:0.49066;stroke-linecap:round;stroke-linejoin:round;stroke-miterlimit:4;stroke-dasharray:none;stroke-opacity:1" />
  </g>
  <g
     id="16-16-input-mouse-battery"
     transform="translate(-38,144.00002)">
    <rect
       style="fill:none"
       id="rect4442"
       width="16"
       height="16"
       x="0"
       y="2.6171874e-06" />
    <rect
       style="fill:#4e5a7e;fill-opacity:0.501961;stroke:none;stroke-width:0.451659"
       id="center-3-35-67"
       width="6"
       height="10"
       x="5"
       y="2.99986"
       ry="3"
       rx="3" />
    <path
       id="path4196-3-6-5"
       d="m 8,1.99986 a 4,4 0 0 0 -4,4 v 4 a 4,4 0 0 0 4,4 4,4 0 0 0 4,-4 v -4 a 4,4 0 0 0 -4,-4 z m 0,1 a 3,3 0 0 1 3,3 v 4 a 3,3 0 0 1 -3,3 3,3 0 0 1 -3,-3 v -4 a 3,3 0 0 1 3,-3 z m 0,1 -2,5 h 2 v 3 l 2,-5 H 8 Z"
       style="fill:#d6dbf1;fill-opacity:1;stroke:none"
       inkscape:connector-curvature="0" />
  </g>
  <g
     id="input-keyboard-brightness"
     transform="translate(0,31.999996)">
    <rect
       ry="0"
       y="-31.999996"
       x="0"
       height="32"
       width="32"
       id="rect4266"
       style="fill:none" />
    <rect
       style="fill:#4e5a7e;fill-opacity:0.501961;stroke:none;stroke-width:0.580436"
       id="center-3-35-3-3"
       width="18.5625"
       height="19.199837"
       x="6.6999855"
       y="-27.199699"
       ry="1.1999916"
       rx="1.03125" />
    <path
       inkscape:connector-curvature="0"
       id="path880-8-6-6"
       d="m 6,-25.999996 v 15.9999962 c 0,1 1,2 2,2.50015 l 8,3.5 8,-3.57415 c 1,-0.426 2,-1.426 2,-2.5452602 v -15.880736 0 c 0,-1 -1,-2 -2,-2 l -16.01358,1.5e-4 C 7,-27.999996 6,-26.999996 6,-25.999996 Z m 1,0.44561 c 0,-1.02834 0.40186,-1.44561 1.55566,-1.44561 l 14.92805,1.4e-4 c 0.99312,-1.4e-4 1.51629,0.46569 1.51629,1.47602 v 0 V -13 c 0,2 0,2 -2.08525,2.00013 L 9,-11 c -2,0 -2,0 -2,-2 z m 8.40625,1.55454 L 11,-13.99985 h 1.30078 l 1.32227,-3 h 4.72265 l 1.34961,3 H 21 l -4.5,-9.999996 z m 0.55273,1.695311 1.9375,4.304689 H 14.0625 Z M 7,-9.9998498 h 18 c 0,0.99985 -1,0.99985 -2,0.99985 H 9 c -1,0 -2,0 -2,-0.99985 z"
       style="fill:#d6dbf1;fill-opacity:1;stroke:none"
       sodipodi:nodetypes="ccccccccccccccccccccccccccccccccccccccc" />
    <path
       style="fill:#d6dbf1;fill-opacity:1;stroke:none;stroke-width:0.6"
       d="m 20.87763,-26.031886 c -0.1662,0 -0.3,0.1338 -0.3,0.3 v 0.6 c 0,0.1662 0.1338,0.3 0.3,0.3 0.1662,0 0.3,-0.1338 0.3,-0.3 v -0.6 c 0,-0.1662 -0.1338,-0.3 -0.3,-0.3 z m -1.90898,0.79101 c -0.0767,0 -0.15335,0.0291 -0.21212,0.0879 -0.11752,0.11752 -0.11752,0.3067 0,0.42422 l 0.42422,0.42422 c 0.11752,0.11752 0.3067,0.11752 0.42423,0 0.11751,-0.11752 0.11751,-0.30671 0,-0.42422 l -0.42423,-0.42422 c -0.0587,-0.0587 -0.13542,-0.0879 -0.2121,-0.0879 z m 3.81796,0 c -0.0767,0 -0.15334,0.0291 -0.21211,0.0879 l -0.42422,0.42422 c -0.11751,0.11751 -0.11751,0.3067 0,0.42422 0.11753,0.11752 0.30671,0.11752 0.42422,0 l 0.42423,-0.42422 c 0.11751,-0.11752 0.11751,-0.3067 0,-0.42422 -0.0587,-0.0587 -0.13543,-0.0879 -0.21212,-0.0879 z m -1.90898,1.00899 c -0.66274,0 -1.2,0.53726 -1.2,1.200001 0,0.66274 0.53726,1.199999 1.2,1.199999 0.66274,0 1.2,-0.537259 1.2,-1.199999 0,-0.662741 -0.53726,-1.200001 -1.2,-1.200001 z m 0,0.6 v 1.200001 c -0.33137,0 -0.6,-0.26863 -0.6,-0.6 0,-0.33137 0.26863,-0.600001 0.6,-0.600001 z m -2.7,0.300001 c -0.1662,0 -0.3,0.1338 -0.3,0.3 0,0.1662 0.1338,0.3 0.3,0.3 h 0.6 c 0.1662,0 0.3,-0.1338 0.3,-0.3 0,-0.1662 -0.1338,-0.3 -0.3,-0.3 z m 4.8,0 c -0.1662,0 -0.3,0.1338 -0.3,0.3 0,0.1662 0.1338,0.3 0.3,0.3 h 0.6 c 0.1662,0 0.3,-0.1338 0.3,-0.3 0,-0.1662 -0.1338,-0.3 -0.3,-0.3 z m -3.58477,1.484759 c -0.0767,0 -0.15334,0.0291 -0.21211,0.0879 l -0.42422,0.42423 c -0.11752,0.11751 -0.11752,0.30669 0,0.42422 0.11753,0.11752 0.30671,0.11752 0.42422,0 l 0.42423,-0.42422 c 0.11751,-0.11752 0.11751,-0.3067 0,-0.42423 -0.0587,-0.0587 -0.13543,-0.0879 -0.21212,-0.0879 z m 2.96954,0 c -0.0767,0 -0.15335,0.0291 -0.21212,0.0879 -0.11751,0.11753 -0.11751,0.30671 0,0.42423 l 0.42422,0.42422 c 0.11752,0.11752 0.3067,0.11752 0.42423,0 0.11751,-0.11753 0.11751,-0.30671 0,-0.42422 l -0.42423,-0.42423 c -0.0587,-0.0587 -0.13542,-0.0879 -0.2121,-0.0879 z m -1.48477,0.61524 c -0.1662,0 -0.3,0.1338 -0.3,0.3 v 0.6 c 0,0.1662 0.1338,0.3 0.3,0.3 0.1662,0 0.3,-0.1338 0.3,-0.3 v -0.6 c 0,-0.1662 -0.1338,-0.3 -0.3,-0.3 z"
       id="path4274-9-2-3"
       inkscape:connector-curvature="0" />
  </g>
  <g
     id="input-keyboard-battery"
     transform="translate(0,31.999996)">
    <rect
       style="fill:none"
       id="rect4378"
       width="32"
       height="32"
       x="0"
       y="-1.8530272e-07"
       ry="0" />
    <rect
       style="fill:#4e5a7e;fill-opacity:0.501961;stroke:none;stroke-width:0.580436"
       id="center-3-35-3-7"
       width="18.5625"
       height="19.199837"
       x="6.6999931"
       y="4.8003111"
       ry="1.1999916"
       rx="1.03125" />
    <path
       inkscape:connector-curvature="0"
       id="path880-8-6-5"
       d="m 6,6 v 16 c 0,1 1,2 2,2.50015 l 8,3.5 8,-3.57415 C 25,24 26,23 26,21.88074 V 6 6 C 26,5 25,4 24,4 L 7.98642,4.00015 C 7,4 6,5 6,6 Z M 7,6.44561 C 7,5.41727 7.40186,5 8.55566,5 l 14.92805,1.4e-4 C 24.47683,5 25,5.46583 25,6.47616 v 0 V 19 c 0,2 0,2 -2.08525,2.00013 L 9,21 C 7,21 7,21 7,19 Z m 8.40625,1.55454 -4.40625,10 h 1.30078 l 1.32227,-3 h 4.72265 l 1.34961,3 H 21 l -4.5,-10 z m 0.55273,1.69531 1.9375,4.30469 H 14.0625 Z M 7,22.00015 H 25 C 25,23 24,23 23,23 H 9 C 8,23 7,23 7,22.00015 Z"
       style="fill:#d6dbf1;fill-opacity:1;stroke:none"
       sodipodi:nodetypes="ccccccccccccccccccccccccccccccccccccccc" />
    <path
       style="fill:#da4453;fill-opacity:1;stroke:none"
       d="m 20.92789,5.53992 -2,5 h 2 v 3 l 2,-5 h -2 z"
       id="path12-2-5"
       inkscape:connector-curvature="0" />
  </g>
  <g
     id="22-22-input-keyboard-battery"
     transform="translate(-22,9.9999982)">
    <rect
       style="fill:none"
       width="22"
       height="22"
       x="0"
       y="32"
       ry="0"
       id="rect15" />
    <rect
       style="fill:#4e5a7e;fill-opacity:0.501961;stroke:none;stroke-width:0.386955"
       id="center-3-35-3-7-2"
       width="12.374923"
       height="12.799811"
       x="4.4666581"
       y="35.533539"
       ry="0.7999894"
       rx="0.68749571" />
    <path
       inkscape:connector-curvature="0"
       id="path880-8-6-5-7"
       d="m 4,36.333325 v 10.6666 c 0,0.666663 0.666663,1.333325 1.333325,1.666756 L 10.666625,51 l 5.3333,-2.382752 c 0.666663,-0.283998 1.333325,-0.95066 1.333325,-1.696829 v -10.587094 0 C 17.33325,35.666663 16.666588,35 15.999925,35 l -10.675653,1e-4 C 4.666663,35 4,35.666663 4,36.333325 Z m 0.666663,0.297071 c 0,-0.685555 0.267904,-0.963733 1.0371,-0.963733 l 9.951971,9.3e-5 c 0.662076,-9.3e-5 1.010854,0.310458 1.010854,0.984007 v 0 8.349174 c 0,1.333325 0,1.333325 -1.390158,1.333412 l -9.276442,-8.7e-5 c -1.333325,0 -1.333325,0 -1.333325,-1.333325 z m 5.604131,1.036354 -2.937481,6.666625 h 0.867181 l 0.881508,-1.999988 h 3.148413 l 0.899735,1.999988 h 0.869788 L 10.999956,37.66675 Z m 0.368485,1.1302 1.291658,2.869775 H 9.374966 Z m -5.972616,8.203075 h 11.999925 c 0,0.666563 -0.666663,0.666563 -1.333325,0.666563 H 5.999988 c -0.666663,0 -1.333325,0 -1.333325,-0.666563 z"
       style="fill:#d6dbf1;fill-opacity:1;stroke:none;stroke-width:0.666663"
       sodipodi:nodetypes="ccccccccccccccccccccccccccccccccccccccc" />
    <path
       style="fill:#da4453;fill-opacity:1;stroke:none;stroke-width:0.666663"
       d="m 13.951864,36.026607 -1.333325,3.333312 h 1.333325 v 1.999988 l 1.333325,-3.333313 h -1.333325 z"
       id="path12-2-5-0"
       inkscape:connector-curvature="0" />
  </g>
  <g
     id="input-num-on"
     transform="translate(-22,105.99999)">
    <rect
       style="opacity:0.00100002;fill-opacity:1;stroke:none;stroke-width:0.713687;stroke-linecap:round;stroke-linejoin:round;stroke-miterlimit:4;stroke-dasharray:none;stroke-opacity:1"
       id="rect984"
       width="32"
       height="32"
       x="22"
       y="-9.9999981" />
    <rect
       style="fill:#4e5a7e;fill-opacity:0.501961;stroke:none;stroke-width:0.580436"
       id="center-3-35-3-7-6"
       width="18.5625"
       height="19.199837"
       x="28.699999"
       y="-5.0997024"
       ry="1.1999916"
       rx="1.03125" />
    <path
       inkscape:connector-curvature="0"
       id="path896-7-7-5"
       d="M 28,-3.9 V 11.02304 C 28,13.1 29,14.1 30,14.5648 l 8,3.53534 8,-3.44462 C 47,14.1 48,13.1 48,11.03328 V -3.9 v 0 c 0,-1 -1,-2 -2,-2 l -16.00737,1.4e-4 C 29,-5.9 28,-4.9 28,-3.9 Z m 1,0.40366 C 29,-4.50643 29.382463,-4.9 30.390655,-4.9 l 15.104322,1.3e-4 C 46.520903,-4.9 47,-4.53898 47,-3.38916 V 9.1 c 0,2 0,2 -2.03305,2.00014 H 30.982849 C 29,11.1 29,11.1 29,9.1 Z m 9,1.59648 v 2 h -2 v 1 h 2 v 6 h -2 v 1 h 5 v -1 h -2 v -9 z m -9,14 H 47 C 47,13.1 46,13.1 45,13.1 H 31 c -1,0 -2,0 -2,-0.99986 z"
       style="fill:#d6dbf1;fill-opacity:1;stroke:none"
       sodipodi:nodetypes="cccccccccccccccccccccccccccccccccccccc" />
  </g>
</svg>
