<?xml version="1.0" encoding="UTF-8" standalone="no"?>
<svg
   width="32"
   height="32"
   version="1"
   id="svg14"
   sodipodi:docname="internet.svg"
   inkscape:version="1.2.1 (9c6d41e410, 2022-07-14)"
   xmlns:inkscape="http://www.inkscape.org/namespaces/inkscape"
   xmlns:sodipodi="http://sodipodi.sourceforge.net/DTD/sodipodi-0.dtd"
   xmlns="http://www.w3.org/2000/svg"
   xmlns:svg="http://www.w3.org/2000/svg">
  <sodipodi:namedview
     id="namedview16"
     pagecolor="#ffffff"
     bordercolor="#000000"
     borderopacity="1"
     inkscape:showpageshadow="2"
     inkscape:pageopacity="0.0"
     inkscape:pagecheckerboard="0"
     inkscape:deskcolor="#cccccc"
     showgrid="false"
     inkscape:zoom="7.375"
     inkscape:cx="16.338983"
     inkscape:cy="16.20339"
     inkscape:window-width="1920"
     inkscape:window-height="1002"
     inkscape:window-x="0"
     inkscape:window-y="0"
     inkscape:window-maximized="1"
     inkscape:current-layer="svg14" />
  <defs
     id="l4k1">
    <style
       type="text/css"
       id="current-color-scheme" />
  </defs>
  <g
     id="internet-web-browser">
    <rect
       style="opacity:0.00100002;fill:#d1d5e9;fill-opacity:1"
       width="32"
       height="32"
       x="0"
       y="0"
       id="rect9" />
    <rect
       style="fill:#4e5a7e;fill-opacity:0.499251;stroke:none;stroke-width:0.56115"
       id="center-3-35"
       width="22.391829"
       height="22.5"
       x="4.8499999"
       y="4.8499999"
       ry="11.249983" />
    <path
       style="fill:#d1d5e9;fill-opacity:1"
       d="M 15.999999,4 A 12,12 0 0 0 4,16 a 12,12 0 0 0 11.999999,12 12,12 0 0 0 12,-12 12,12 0 0 0 -12,-12 z m 0,1 a 11,11 0 0 1 4.792969,1.115234 c -0.308115,0.316509 0.49683,0.925213 -0.0098,1.265625 0.599823,0.391651 1.402297,-0.35922 0.572266,-0.75 -0.11413,-0.180173 -0.143806,-0.270784 -0.126953,-0.30664 a 11,11 0 0 1 0.345703,0.205078 c 0.439995,0.425706 1.038798,1.332344 0.220703,1.582031 -0.460388,0.418414 -1.583651,0.251066 -0.669888,1.011719 0.07371,0.738667 -1.600116,-0.149352 -1.390625,1.066406 0.08089,0.5468 0.305873,0.731734 -0.505859,1.222656 -0.640178,0.888256 -2.333657,1.625726 -2.134766,2.970703 -0.32146,1.063597 0.814521,1.610653 1.730469,1.839844 0.949422,-0.06241 3.710711,-0.678791 4.099609,0.509766 -0.403982,1.052117 1.769396,2.09384 0.851563,3.138672 -0.595699,0.977719 0.11649,1.318133 -0.07422,2.324218 0.422795,0.608545 -0.184446,1.621639 -0.925781,2.466797 A 11,11 0 0 1 15.999999,27 11,11 0 0 1 12.542968,26.431641 c -0.55563,-0.54827 0.500129,-0.982329 0.798828,-1.271485 -0.459291,-0.877134 0.25674,-0.345896 0.263672,-1.277344 0.0095,-1.40873 1.880483,-1.830681 1.748047,-3.294921 0.03914,-0.872804 1.397114,-2.061851 -0.103516,-2.416016 -1.12181,-0.213833 -2.0394,-0.142471 -2.626953,-1.113281 -1.022024,-0.135921 -1.03299,-1.211687 -2.228515,-1.017578 -0.632749,-0.376671 -1.726991,0.503087 -2.451172,0.427734 0.14481,0.09226 0.285434,0.166299 0.416016,0.191406 1.108022,-0.334174 0.108461,1.506614 -0.128907,1.970703 0.213842,1.148637 0.976791,1.660428 2.000001,2.267579 0.53342,1.219895 0.220115,3.363314 0.421875,4.710937 A 11,11 0 0 1 5,16 11,11 0 0 1 5.04492,15.117188 c 0.05656,-0.261626 0.08798,-0.603829 0.373046,-0.666016 0.620605,0.191942 1.320759,0.978488 1.966797,1.564453 -0.0035,-0.0082 -0.0083,-0.01307 -0.01172,-0.02148 C 7.566998,15.339394 7.184484,14.311586 6.615231,14.443359 6.888089,13.952778 6.885384,12.986141 6.253903,13.775391 5.227982,14.684861 5.50434,13.189714 6.02734,12.533203 c 0.658811,-0.858902 2.247063,-0.804202 2.779297,-0.03125 -0.05406,-1.25152 1.293012,-1.437052 1.878907,-2.400391 0.665776,-0.342991 1.346638,-1.130849 1.992186,-0.761718 0.449095,-0.06559 0.918762,-0.579993 0.181641,-0.316407 -0.353165,-0.172306 0.346603,-0.767038 -0.283203,-0.611328 0.52581,-0.13555 1.078207,-0.234389 1.609375,-0.255859 -1.164705,0.689293 1.315673,0.911167 0.277344,0.148437 0.310521,-0.799259 -0.290383,-1.025223 -0.496094,-1.699218 -0.566084,0.02235 -0.615133,-0.59311 -0.929688,-1.158204 -0.02106,-0.01206 -0.02229,-0.01631 -0.04101,-0.02734 a 11,11 0 0 1 0.673828,-0.15625 c 0.236527,0.008 0.452092,-0.0046 0.544922,-0.113281 a 11,11 0 0 1 1.785151,-0.15039 z M 7.384765,16.015625 C 7.513712,16.3172 7.708319,16.444294 7.943359,16.46875 7.766001,16.355757 7.57654,16.189567 7.384765,16.015625 Z m 4.865234,-10.345703 0.002,0.541015 c -0.246944,0.8496 -0.967034,1.465312 -1.535202,1.730469 -0.136229,-0.403513 -0.01104,-1.141475 -0.275391,-1.417969 a 11,11 0 0 1 1.808593,-0.853515 z m 8.140625,0.941406 c -0.901998,0.257854 0.0779,1.077357 0.271484,0.177734 0.0024,-0.136707 -0.161297,-0.193637 -0.271484,-0.177734 z M 24.05664,8.77539 c 0.239936,0.122795 0.513601,0.388441 0.777343,0.691407 a 11,11 0 0 1 0.78711,1.224609 c 0.111364,0.293241 0.147884,0.551868 0.03906,0.703125 -0.660617,-0.160772 -0.904775,0.78517 -1.638672,0.265625 -0.984045,-0.151566 -0.993507,-1.587036 -2.189453,-0.992187 -0.427899,0.300994 -2.126857,0.415644 -0.853515,-0.08594 0.557311,-0.603351 1.978869,-1.988892 2.951172,-1.232422 0.291754,0.339009 0.872897,1.012951 0.904296,0.2968752 C 24.615105,9.444287 23.65408,9.173626 24.056638,8.775388 Z"
       id="path11-3" />
  </g>
  <g
     id="22-22-internet-web-browser">
    <rect
       style="opacity:0.00100002;fill:#d1d5e9;fill-opacity:1"
       width="22"
       height="22"
       x="32"
       y="10"
       id="rect4" />
    <rect
       style="fill:#4e5a7e;fill-opacity:0.499251;stroke:none;stroke-width:0.352485"
       id="center-3-35-9"
       width="14.065383"
       height="14.133333"
       x="35.967308"
       y="13.933333"
       ry="7.0666552" />
    <path
       style="fill:#d1d5e9;fill-opacity:1"
       d="m 43.001325,13 c -2.924615,3.4e-4 -5.804895,1.693111 -7.103112,4.335929 -1.317338,2.451156 -1.16542,5.566299 0.322719,7.906165 1.767881,2.889857 5.497301,4.401956 8.774023,3.496087 2.912142,-0.698751 5.23253,-3.202809 5.821775,-6.122482 0.516443,-2.24914 -0.08333,-4.678064 -1.487322,-6.495937 -1.471807,-1.943219 -3.89548,-3.127836 -6.332144,-3.116663 m 0,0.999344 c 1.138278,0.0065 2.265193,0.306823 3.281119,0.813392 -0.514953,0.169075 0.24179,0.661183 -0.144188,0.920545 0.399882,0.261101 0.934358,-0.239377 0.381005,-0.499898 -0.488731,-0.771542 1.24912,0.228697 0.347781,0.50379 -0.306948,0.278943 -1.055162,0.167765 -0.445986,0.674867 0.04914,0.492445 -1.066826,-0.09897 -0.927166,0.711532 0.05393,0.364534 0.203838,0.487723 -0.337317,0.815004 -0.426785,0.59217 -1.223001,1.082928 -1.090407,1.97958 -0.214307,0.709065 0.54316,1.07387 1.153792,1.226664 0.632948,-0.04161 2.14076,-0.452209 2.400025,0.340161 -0.269321,0.701412 1.179458,1.396518 0.567569,2.093073 -0.397132,0.651812 0.07816,0.878122 -0.04898,1.548846 0.489629,0.70474 -1.270699,1.737658 -1.80704,2.052693 -1.619521,0.951273 -3.695961,1.075535 -5.477921,0.460568 -0.700414,-0.424546 0.157627,-0.757423 0.378815,-0.971543 -0.306194,-0.584756 0.171231,-0.230886 0.175852,-0.851852 0.0063,-0.939154 1.25298,-0.785718 1.164689,-1.761878 0.02609,-0.58187 0.93113,-1.374249 -0.06929,-1.610359 -0.747871,-0.142556 -1.358818,-0.0953 -1.75052,-0.742508 -0.681351,-0.09061 -0.689403,-0.807536 -1.486419,-0.67813 -0.562444,-0.334818 -1.328844,0.851755 -1.671988,-4.57e-4 0.129303,-0.436499 -0.125592,-1.120958 -0.505095,-1.03311 0.181906,-0.327053 0.17976,-0.972175 -0.241227,-0.446008 -0.683948,0.606314 -0.840985,-0.42059 -0.492318,-0.858264 0.439207,-0.572602 1.497494,-0.536982 1.852317,-0.02168 -0.03604,-0.834347 0.862278,-0.957751 1.252874,-1.599976 0.443852,-0.228661 0.897901,-0.754113 1.328267,-0.508026 0.299396,-0.04373 0.612024,-0.386848 0.12061,-0.211124 -0.235443,-0.114871 0.23185,-0.510503 -0.18802,-0.406696 0.350539,-0.09037 0.717999,-0.156475 1.072111,-0.170788 -0.77647,0.459529 0.877788,0.607624 0.185569,0.09914 0.207014,-0.532839 -0.193659,-0.683601 -0.330799,-1.132931 -0.37739,0.0149 -0.410942,0.137186 -0.620645,-0.239542 -0.740703,-0.424232 0.713333,0.120831 0.814011,-0.248772 0.285304,-0.316714 0.782084,-0.209098 1.162881,-0.244011 m -2.500083,0.468681 c -0.164599,0.5664 -0.644864,0.976858 -1.023641,1.153629 -0.106275,-0.314786 0.03047,-0.404857 -0.29537,-0.479018 0.365619,-0.332139 0.876989,-0.463279 1.31599,-0.674611 m 5.375187,0.749308 c -0.604893,0.171241 0.05071,0.719332 0.179907,0.118898 0.0016,-0.09114 -0.107439,-0.1286 -0.180897,-0.117998 m 2.125103,1.154107 c 0.512518,0.260945 1.379796,1.269737 1.132056,1.614083 -0.440411,-0.10718 -0.292842,0.461131 -0.782107,0.114768 -0.65603,-0.101044 -0.661634,-1.058218 -1.458932,-0.661652 -0.285266,0.200662 -1.418211,0.277921 -0.569316,-0.05647 0.371541,-0.402234 0.946867,-1.131297 1.595068,-0.626984 0.194503,0.226006 0.580808,0.675893 0.601741,0.198509 -0.146663,-0.135482 -0.79458,-0.317744 -0.51546,-0.585458 m -11.71735,3.623276 c 0.637523,0.193635 1.069719,1.336087 1.623619,1.442585 0.738681,-0.222783 0.07159,1.003674 -0.08665,1.313067 0.14256,0.765758 0.651159,1.106931 1.333299,1.511698 0.369337,0.844646 0.157576,1.831434 0.326452,2.719746 -0.871997,-0.401699 -1.647984,-1.219028 -2.23081,-2.020004 -0.903211,-1.280114 -1.334467,-2.883429 -1.229586,-4.441573 0.05383,-0.172847 0.04916,-0.477342 0.267709,-0.52502"
       id="path6-6" />
  </g>
</svg>
