<?xml version="1.0" encoding="UTF-8" standalone="no"?>
<svg
   width="32"
   height="32"
   version="1.1"
   id="svg986"
   sodipodi:docname="jami.svg"
   inkscape:version="1.2.1 (9c6d41e410, 2022-07-14)"
   xmlns:inkscape="http://www.inkscape.org/namespaces/inkscape"
   xmlns:sodipodi="http://sodipodi.sourceforge.net/DTD/sodipodi-0.dtd"
   xmlns="http://www.w3.org/2000/svg"
   xmlns:svg="http://www.w3.org/2000/svg">
  <sodipodi:namedview
     id="namedview988"
     pagecolor="#ffffff"
     bordercolor="#000000"
     borderopacity="1"
     inkscape:showpageshadow="2"
     inkscape:pageopacity="0.0"
     inkscape:pagecheckerboard="0"
     inkscape:deskcolor="#cccccc"
     showgrid="false"
     inkscape:zoom="7.375"
     inkscape:cx="36"
     inkscape:cy="20.813559"
     inkscape:window-width="1920"
     inkscape:window-height="1002"
     inkscape:window-x="0"
     inkscape:window-y="0"
     inkscape:window-maximized="1"
     inkscape:current-layer="svg986">
    <inkscape:grid
       type="xygrid"
       id="grid1519"
       originx="32"
       originy="10" />
  </sodipodi:namedview>
  <defs
     id="Dexy" />
  <g
     id="jami"
     transform="translate(32,10)">
    <rect
       style="opacity:0.00100002"
       width="32"
       height="32"
       x="-32"
       y="-10"
       id="rect976" />
    <path
       d="m -7.514702,-2.4852545 c -2.26648,-2.266553 -5.280197,-3.514746 -8.485297,-3.514746 -3.2051,0 -6.218829,1.248193 -8.485099,3.514746 -2.26669,2.266552 -3.5149,5.2800285 -3.5149,8.4852555 0,3.205227 1.24821,6.218695 3.5149,8.485253 2.26627,2.266409 5.279999,3.514747 8.485099,3.514747 3.2053,0 6.218817,-1.248338 8.485297,-3.514747 2.26634,-2.266558 3.514701,-5.280026 3.514701,-8.485253 0,-3.205227 -1.248361,-6.2188505 -3.514701,-8.4852555 z M -8.884999,13.814651 c -2.209523,1.874206 -3.991502,2.760223 -7.115,2.73735 -3.315977,-0.02428 -4.545955,-0.647314 -7.115,-2.738 -2.08741,-2.087255 -3.437,-4.862044 -3.437,-7.814 0,-2.952097 1.392416,-6.0904305 3.437,-7.8150015 2.293792,-2.015595 4.205682,-2.714962 7.115,-2.737 2.951865,-0.02236 4.927587,0.91947 7.115,2.737205 2.08737,2.0874035 3.437,4.8626995 3.437,7.8147965 0,2.951956 -1.34963,5.727395 -3.437,7.81465 z"
       id="path2-36-912-3-5"
       style="fill:#d6dbf1;fill-opacity:1;stroke-width:0.0374999"
       sodipodi:nodetypes="cscscscsccscscscsc" />
    <rect
       style="fill:#4e5a7e;fill-opacity:0.499251;stroke:none;stroke-width:0.528728"
       id="center-3-35"
       width="21.098076"
       height="21.200001"
       x="-26.549995"
       y="-4.5500002"
       ry="10.599983" />
    <path
       style="fill:#d6dbf1;fill-opacity:1;stroke-width:0.667129"
       d="m -17.404945,-3.0000165 c -0.621441,-0.0018 -1.024081,2.052601 -1.221042,4.7573145 -2.099992,-0.963922 -3.873323,-1.605774 -4.621845,-1.538057 -0.171218,0.01543 -0.289086,0.06756 -0.346164,0.160709 l -1.369781,2.233644 c -0.307993,0.502307 1.388747,1.863692 3.784821,3.384993 -2.398893,1.522639 -4.093056,2.884843 -3.784821,3.387496 l 1.369781,2.233646 c 0.307342,0.501241 2.398004,-0.198986 4.986941,-1.388651 0.209169,2.705352 0.621271,4.761017 1.242679,4.762339 l 2.769316,0.0066 c 0.621631,0.0016 1.024155,-2.053874 1.221044,-4.759829 2.580203,1.184358 4.661414,1.87989 4.968012,1.379864 l 1.369782,-2.233645 c 0.308231,-0.50269 -1.385929,-1.864889 -3.784819,-3.387536 2.396068,-1.521295 4.092816,-2.882686 3.784819,-3.384995 l -1.369782,-2.23389 c -0.05705,-0.09305 -0.174948,-0.145219 -0.34617,-0.160707 -0.750947,-0.06793 -2.533164,0.577645 -4.642122,1.546853 -0.209235,-2.7040885 -0.620115,-4.7585045 -1.241335,-4.7598365 z m 0.208238,0.642849 2.354188,0.0069 c 0.03991,0.064 0.09504,0.156751 0.15686,0.33147 0.148942,0.421044 0.294179,1.09941 0.408369,1.921007 0.08919,0.6418165 0.15774,1.3906095 0.213646,2.1771415 -0.629199,0.299782 -1.279083,0.625391 -1.936354,0.965504 -0.663351,-0.343255 -1.319354,-0.672202 -1.953945,-0.974315 0.05252,-0.788091 0.11767,-1.538107 0.204187,-2.1809105 0.110514,-0.821038 0.25204,-1.498635 0.398901,-1.918493 0.06061,-0.173397 0.115024,-0.264254 0.154148,-0.327704 z M -23.096388,0.86837 c 0.07705,4.6e-4 0.182587,0.0024 0.36916,0.03886 0.457867,0.09072 1.152567,0.313832 1.9634,0.634052 0.629333,0.248548 1.345893,0.567283 2.090514,0.914049 -0.03862,0.67268 -0.06669,1.371123 -0.08117,2.087996 -0.624242,0.356947 -1.229669,0.71426 -1.805197,1.068479 -0.700089,-0.439141 -1.358907,-0.868424 -1.907968,-1.261835 -0.699927,-0.501517 -1.252413,-0.956254 -1.565853,-1.285692 -0.13139,-0.138098 -0.189933,-0.231512 -0.228523,-0.295057 z m 14.192768,0 1.165612,1.900911 c -0.03869,0.06357 -0.09714,0.156959 -0.228532,0.295061 -0.313435,0.329436 -0.86593,0.78417 -1.565849,1.285696 -0.549061,0.393408 -1.207878,0.822682 -1.907967,1.261833 -0.577908,-0.355676 -1.186362,-0.713851 -1.813311,-1.072241 -0.01773,-0.713488 -0.04773,-1.40709 -0.08923,-2.076707 0.750681,-0.349902 1.472807,-0.671219 2.106738,-0.921582 0.810843,-0.32022 1.505534,-0.543365 1.963404,-0.634052 0.186576,-0.03692 0.292098,-0.0385 0.369156,-0.03887 z m -9.096293,1.900911 c 0.42183,0.203428 0.855588,0.41948 1.291346,0.641591 -0.450309,0.239213 -0.89924,0.48408 -1.344083,0.731998 0.0127,-0.466438 0.02971,-0.927709 0.05275,-1.373589 z m 3.984956,0.0082 c 0.02476,0.441867 0.04345,0.89893 0.05815,1.361033 -0.441806,-0.24614 -0.887466,-0.489437 -1.334621,-0.726973 0.430716,-0.219545 0.8593,-0.432737 1.276473,-0.63406 z m -1.985041,1.003173 c 0.340261,0.178235 0.680122,0.355271 1.019561,0.539891 0.350696,0.190748 0.694975,0.386478 1.039848,0.581326 0.0079,0.368027 0.01676,0.735659 0.01754,1.10615 0.0012,0.364176 -0.0056,0.725531 -0.01083,1.087311 -0.347054,0.19613 -0.693624,0.393107 -1.0466,0.585092 -0.339429,0.184621 -0.679299,0.361655 -1.019569,0.539893 -0.34026,-0.178238 -0.680122,-0.355272 -1.019565,-0.539893 -0.350693,-0.190745 -0.694974,-0.386482 -1.03984,-0.581325 -0.0079,-0.368029 -0.01677,-0.735659 -0.01753,-1.106147 -0.0012,-0.364179 0.0056,-0.725537 0.01083,-1.087315 0.34706,-0.196127 0.693625,-0.393103 1.046602,-0.585092 0.339441,-0.18462 0.679303,-0.361656 1.01957,-0.539891 z m 2.758503,1.519225 c 0.403385,0.233949 0.801936,0.468547 1.183176,0.700606 -0.37992,0.23125 -0.777205,0.464957 -1.179127,0.698094 0.0046,-0.467427 0.0027,-0.931301 -0.0046,-1.3987 z m -5.52106,0.0031 c -0.0045,0.467424 -0.0027,0.9313 0.0046,1.398699 -0.4034,-0.233951 -0.801955,-0.468546 -1.183197,-0.700607 0.379916,-0.231248 0.777202,-0.464957 1.179123,-0.698092 z m -1.797092,1.087263 c 0.579373,0.356577 1.184697,0.715487 1.813305,1.074759 0.01775,0.712192 0.04784,1.404488 0.08923,2.072933 -0.750675,0.349898 -1.472806,0.67122 -2.106742,0.921579 -0.81083,0.319865 -1.505532,0.543017 -1.963401,0.6337 -0.186571,0.03693 -0.292094,0.03848 -0.369159,0.03888 L -24.262016,9.23118 c 0.03866,-0.06357 0.09714,-0.156962 0.228523,-0.295059 0.313435,-0.329436 0.865932,-0.784175 1.565857,-1.285693 0.548892,-0.393297 1.208109,-0.821573 1.907963,-1.260581 z m 9.119291,0 c 0.699845,0.439012 1.359068,0.867285 1.907967,1.260582 0.699918,0.501521 1.252418,0.956257 1.565849,1.285694 0.131392,0.138096 0.189936,0.231517 0.228532,0.295057 l -1.165611,1.900556 c -0.07705,-4.66e-4 -0.182582,-0.0027 -0.369155,-0.03886 -0.457868,-0.09072 -1.152564,-0.313836 -1.963405,-0.634058 -0.629333,-0.248546 -1.345887,-0.567275 -2.09051,-0.914047 0.03857,-0.671899 0.06667,-1.369473 0.08116,-2.085485 0.625727,-0.357732 1.228365,-0.714722 1.805203,-1.069736 z m -2.506998,1.462717 c -0.01271,0.468191 -0.02963,0.931095 -0.05275,1.378606 -0.423579,-0.204272 -0.859174,-0.421009 -1.296766,-0.644104 0.45362,-0.240925 0.901427,-0.484745 1.3495,-0.734502 z m -4.095833,0.0053 c 0.445033,0.247976 0.889574,0.490234 1.340034,0.729483 -0.432562,0.220522 -0.862968,0.434408 -1.28189,0.636568 -0.02486,-0.443499 -0.04344,-0.902198 -0.05815,-1.366051 z m 2.043189,1.100704 c 0.664828,0.344057 1.317986,0.667814 1.953938,0.970546 -0.05253,0.788572 -0.117624,1.539019 -0.204191,2.182164 -0.110509,0.82104 -0.252034,1.498643 -0.398899,1.918497 -0.06063,0.173393 -0.115026,0.264257 -0.154144,0.327701 l -2.354201,-0.0068 c -0.03988,-0.06387 -0.09503,-0.156628 -0.156844,-0.331345 -0.148941,-0.421041 -0.294184,-1.099414 -0.408373,-1.921006 -0.08923,-0.64208 -0.157726,-1.391309 -0.213646,-2.178322 0.630301,-0.300309 1.277877,-0.62099 1.93636,-0.961755 z"
       id="path978-3" />
  </g>
  <g
     id="22-22-jami"
     transform="translate(32,10)">
    <rect
       style="opacity:0.00100002"
       width="22"
       height="22"
       x="0"
       y="0"
       id="rect981" />
    <path
       d="M 16.656866,5.343164 C 15.145879,3.832129 13.136735,3 11.000002,3 8.8632675,3 6.8541145,3.832129 5.3432685,5.343164 3.8321415,6.854199 3.0000015,8.863182 3.0000015,11 c 0,2.136818 0.83214,4.145797 2.343267,5.656835 C 6.8541145,18.167775 8.8632675,19 11.000002,19 c 2.136866,0 4.145877,-0.832225 5.656864,-2.343165 1.510893,-1.511038 2.343133,-3.520017 2.343133,-5.656835 0,-2.136818 -0.83224,-4.145899 -2.343133,-5.656836 z m -0.913531,10.866603 c -1.473016,1.249471 -2.661001,1.840148 -4.743333,1.8249 C 8.7893495,18.018477 7.9693645,17.603124 6.2566685,16.209333 4.8650615,14.81783 3.9653345,12.967971 3.9653345,11 c 0,-1.968064 0.928278,-4.060286 2.291334,-5.21 1.529193,-1.34373 2.803787,-1.809975 4.7433335,-1.824667 1.96791,-0.01491 3.285058,0.61298 4.743333,1.824804 1.391579,1.391601 2.291333,3.241799 2.291333,5.209863 0,1.967971 -0.899753,3.818264 -2.291333,5.209767 z"
       id="path2-36-912-3-5-2"
       style="fill:#d6dbf1;fill-opacity:1;stroke-width:0.0249999"
       sodipodi:nodetypes="cscscscsccscscscsc" />
    <rect
       style="fill:#4e5a7e;fill-opacity:0.499251;stroke:none;stroke-width:0.352485"
       id="center-3-35-9"
       width="14.065383"
       height="14.133333"
       x="3.9666703"
       y="3.9666681"
       ry="7.0666552" />
    <path
       style="fill:#d6dbf1;fill-opacity:1;stroke-width:0.774587"
       d="m 10.189018,5.0000007 c -0.3805404,-0.0012 -0.6164424,1.550034 -0.7218494,3.514129 -1.550182,-0.739037 -2.897352,-1.280704 -3.420249,-1.264153 -0.111151,0.0037 -0.186639,0.03196 -0.220297,0.08643 l -0.807804,1.305169 c -0.191911,0.310257 1.126019,1.282173 2.893687,2.3554443 -1.777704,1.078239 -3.08631,2.049891 -2.893687,2.361305 l 0.807804,1.305164 c 0.192733,0.311595 1.762489,-0.276128 3.651483,-1.177725 0.112788,1.960829 0.352765,3.508799 0.7327934,3.509733 l 1.599968,0.0045 c 0.380133,0.001 0.616263,-1.547201 0.721856,-3.508267 1.883542,0.898279 3.44822,1.4828 3.640553,1.171866 l 0.807793,-1.305166 c 0.192625,-0.311411 -1.115979,-1.283063 -2.893689,-2.3613 1.767669,-1.0732723 3.085602,-2.0451863 2.893689,-2.3554523 l -0.807793,-1.305218 c -0.03369,-0.05447 -0.109161,-0.08293 -0.220308,-0.08643 -0.523954,-0.01651 -1.875374,0.527105 -3.429619,1.268538 -0.112663,-1.963144 -0.354016,-3.513187 -0.734363,-3.514119 z m 0.414061,0.751462 0.771858,0.002 c 0.07621,0.255276 0.158166,0.682524 0.221869,1.211417 0.06656,0.552882 0.117355,1.213497 0.151561,1.923318 -0.248145,0.124115 -0.496002,0.256924 -0.74842,0.388149 -0.255302,-0.132714 -0.505339,-0.267106 -0.756236,-0.392579 0.03151,-0.711703 0.07911,-1.375223 0.143748,-1.929175 0.06129,-0.525285 0.140957,-0.947574 0.21562,-1.202629 z m -4.2905404,2.29392 c 0.275642,0.06622 0.716454,0.214595 1.2406,0.429192 0.552103,0.226052 1.197834,0.522281 1.881208,0.855461 -0.0085,0.26115 -0.01289,0.527197 -0.01718,0.7954023 -0.260562,0.145937 -0.502165,0.29052 -0.753109,0.436518 -0.649329,-0.386561 -1.246331,-0.7604743 -1.731211,-1.0942243 -0.459005,-0.315939 -0.814829,-0.595312 -1.014037,-0.785146 z m 9.3748074,0 0.393742,0.637203 c -0.199207,0.189834 -0.555034,0.469207 -1.014043,0.785146 -0.484877,0.33375 -1.081882,0.7076633 -1.731212,1.0942243 -0.252539,-0.146922 -0.495529,-0.292589 -0.757796,-0.439446 -0.0056,-0.2655173 -0.0108,-0.5294963 -0.02029,-0.7880753 0.68626,-0.33475 1.334833,-0.63296 1.889023,-0.85986 0.524147,-0.214597 0.964961,-0.363029 1.240601,-0.429192 z m -4.687399,2.0888483 c 0.137989,0.07298 0.271751,0.135168 0.40936,0.209466 0.130999,0.0707 0.249574,0.143746 0.379679,0.215335 0.0021,0.151806 0.0106,0.294615 0.01097,0.44677 2.89e-4,0.147767 -0.0082,0.286148 -0.0092,0.433592 -0.130728,0.07191 -0.249612,0.145727 -0.381239,0.216794 -0.137611,0.07427 -0.271377,0.136433 -0.409366,0.20947 -0.137992,-0.073 -0.271754,-0.135175 -0.409365,-0.20947 -0.130997,-0.07071 -0.249574,-0.143748 -0.379679,-0.215331 -0.0021,-0.151809 -0.0106,-0.29462 -0.01097,-0.446774 -2.88e-4,-0.147767 0.0082,-0.286149 0.0092,-0.433587 0.130728,-0.07191 0.249615,-0.145733 0.381241,-0.216799 0.137609,-0.07426 0.271375,-0.136435 0.409367,-0.209466 z m -2.3390184,1.303696 c 0.247985,0.144206 0.503552,0.286518 0.76092,0.43066 0.0056,0.268529 0.01067,0.535405 0.02029,0.796868 -0.686259,0.334745 -1.334828,0.632953 -1.889025,0.859854 -0.524146,0.214602 -0.964953,0.363035 -1.240595,0.429196 l -0.393736,-0.637201 c 0.199209,-0.189837 0.555028,-0.469207 1.014034,-0.785148 0.48434,-0.333378 1.079605,-0.70812 1.728092,-1.094229 z m 4.6780294,0 c 0.648484,0.386109 1.243747,0.760851 1.728087,1.094229 0.459009,0.315941 0.814836,0.595311 1.014043,0.785148 l -0.393742,0.637201 c -0.275642,-0.06619 -0.716453,-0.214596 -1.2406,-0.429196 -0.552103,-0.226047 -1.197832,-0.522276 -1.88121,-0.855461 0.0087,-0.264034 0.01289,-0.532969 0.01718,-0.80419 0.255689,-0.143238 0.509824,-0.284438 0.756232,-0.427731 z m -2.339011,1.281727 c 0.254214,0.132086 0.506401,0.263289 0.756232,0.38818 -0.03147,0.714914 -0.07885,1.381827 -0.143746,1.93797 -0.06129,0.525279 -0.140963,0.947568 -0.215626,1.202625 l -0.771852,-0.0018 c -0.07621,-0.25524 -0.158166,-0.68249 -0.221879,-1.211379 -0.06682,-0.554703 -0.117349,-1.218151 -0.151559,-1.930646 0.247474,-0.123761 0.496673,-0.254443 0.74843,-0.385249 z"
       id="path983-6" />
  </g>
</svg>
