<?xml version="1.0" encoding="UTF-8" standalone="no"?>
<svg
   width="32"
   height="32"
   version="1"
   id="svg12"
   sodipodi:docname="juk.svg"
   inkscape:version="1.2.1 (9c6d41e410, 2022-07-14)"
   xmlns:inkscape="http://www.inkscape.org/namespaces/inkscape"
   xmlns:sodipodi="http://sodipodi.sourceforge.net/DTD/sodipodi-0.dtd"
   xmlns="http://www.w3.org/2000/svg"
   xmlns:svg="http://www.w3.org/2000/svg"
   xmlns:rdf="http://www.w3.org/1999/02/22-rdf-syntax-ns#"
   xmlns:cc="http://creativecommons.org/ns#"
   xmlns:dc="http://purl.org/dc/elements/1.1/">
  <metadata
     id="metadata18">
    <rdf:RDF>
      <cc:Work
         rdf:about="">
        <dc:format>image/svg+xml</dc:format>
        <dc:type
           rdf:resource="http://purl.org/dc/dcmitype/StillImage" />
      </cc:Work>
    </rdf:RDF>
  </metadata>
  <defs
     id="defs16" />
  <sodipodi:namedview
     pagecolor="#ffffff"
     bordercolor="#000000"
     borderopacity="1"
     objecttolerance="10"
     gridtolerance="10"
     guidetolerance="10"
     inkscape:pageopacity="0"
     inkscape:pageshadow="2"
     inkscape:window-width="1920"
     inkscape:window-height="1000"
     id="namedview14"
     showgrid="false"
     inkscape:zoom="9.8125"
     inkscape:cx="30.573248"
     inkscape:cy="17.273885"
     inkscape:window-x="0"
     inkscape:window-y="0"
     inkscape:window-maximized="1"
     inkscape:current-layer="svg12"
     inkscape:document-rotation="0"
     inkscape:showpageshadow="false"
     inkscape:lockguides="false"
     inkscape:pagecheckerboard="0"
     inkscape:deskcolor="#d1d1d1">
    <inkscape:grid
       type="xygrid"
       id="grid865"
       originx="0"
       originy="0" />
  </sodipodi:namedview>
  <g
     id="juk">
    <rect
       style="opacity:0.00100002"
       width="32"
       height="32"
       x="0"
       y="0"
       id="rect7" />
    <path
       style="color:#d5c289;fill:#d6dbf1;fill-opacity:1;stroke-width:1.5"
       class="ColorScheme-Text"
       d="M 16,4 C 9.364,4 4,9.364 4,15.999999 4,22.636 9.364,28 16,28 22.636,28 28,22.636 28,15.999999 28,9.364 22.636,4 16,4 Z m 0,1.5 c 5.80498,0 10.5,4.695 10.5,10.499999 C 26.5,21.80498 21.80498,26.5 16,26.5 10.19498,26.5 5.5,21.80498 5.5,15.999999 5.5,10.195 10.19498,5.5 16,5.5 Z m 1.12498,8.578498 v 0 0 0 0 0 c 0,0 -0.05091,0.012 0,0 z m -1.171491,6.750005 z"
       id="path58"
       sodipodi:nodetypes="ssssssssssccccccccccccccccc" />
    <rect
       style="fill:#4e5a7e;fill-opacity:0.5;stroke:none;stroke-width:0.525"
       id="center-3-35"
       width="21"
       height="21"
       x="5.4560008"
       y="5.506"
       ry="10.499983" />
    <path
       d="m 19.078561,15.999719 c 0,-1.587645 -1.29432,-2.878952 -2.885231,-2.878952 -1.590922,0 -2.885246,1.291307 -2.885246,2.878952 0,1.587636 1.294324,2.879294 2.885246,2.879294 1.590911,0 2.885231,-1.291658 2.885231,-2.879294 z m -4.80508,0 c 0,-1.056048 0.861292,-1.915638 1.919849,-1.915638 1.058546,0 1.919837,0.859522 1.919837,1.915638 0,1.056387 -0.861291,1.915886 -1.919837,1.915886 -1.058557,0 -1.919849,-0.859519 -1.919849,-1.915886 z"
       id="path70"
       style="fill:#d3dae3;fill-opacity:1;stroke-width:0.0861061" />
    <path
       d="m 16.066017,10.992577 c 0.266669,-0.0077 0.477111,-0.228146 0.470367,-0.493938 -0.007,-0.262079 -0.221546,-0.4694 -0.482831,-0.4694 h -0.01214 c -0.717846,0.01849 -1.422575,0.164979 -2.094302,0.436481 -0.670377,0.270826 -1.277771,0.654206 -1.806416,1.139402 -0.196621,0.180105 -0.20875,0.484861 -0.02861,0.680756 0.0953,0.103483 0.225262,0.155574 0.35556,0.155574 0.116837,0 0.234348,-0.04202 0.326598,-0.127014 0.443102,-0.406905 0.952565,-0.728805 1.51516,-0.95593 0.563641,-0.227465 1.154596,-0.350786 1.756583,-0.365911 z"
       id="path72"
       style="fill:#d3dae3;fill-opacity:1;stroke-width:0.0861061" />
    <path
       d="m 16.973654,9.0064196 c 0.268351,0.02855 0.504047,-0.160952 0.533676,-0.4253863 0.02966,-0.2644463 -0.161281,-0.5030193 -0.426265,-0.5325791 -1.31311,-0.1458186 -2.663276,0.038652 -3.897343,0.5376091 -1.233983,0.4986492 -2.331001,1.3010351 -3.173392,2.3211257 -0.1697046,0.204961 -0.1403962,0.509056 0.0656,0.677726 0.08988,0.07391 0.198314,0.110209 0.306394,0.110209 0.139392,0 0.277781,-0.05984 0.372725,-0.175391 0.740405,-0.896134 1.705384,-1.602096 2.790937,-2.040614 1.085895,-0.4391751 2.271433,-0.6031467 3.42766,-0.4727748 z"
       id="path74"
       style="fill:#d3dae3;fill-opacity:1;stroke-width:0.0861061" />
    <path
       d="m 16.323738,21.006848 c -0.266669,0.007 -0.477112,0.228148 -0.470368,0.493938 0.007,0.262089 0.221546,0.469399 0.482162,0.469399 h 0.01283 c 0.717505,-0.01849 1.421193,-0.165649 2.091631,-0.436469 0.67172,-0.270818 1.280783,-0.655218 1.808729,-1.141127 0.195963,-0.18077 0.208428,-0.484858 0.02797,-0.680759 -0.180472,-0.195219 -0.485519,-0.207319 -0.682164,-0.0279 -0.442759,0.407248 -0.952547,0.729148 -1.516527,0.956957 -0.563309,0.22781 -1.153562,0.350789 -1.754257,0.365919 z"
       id="path76"
       style="fill:#d3dae3;fill-opacity:1;stroke-width:0.0861061" />
    <path
       d="m 21.63082,20.479559 c -0.740402,0.896478 -1.705388,1.602096 -2.791631,2.040615 -1.085201,0.439839 -2.270046,0.604138 -3.426976,0.472769 -0.266328,-0.0272 -0.503365,0.16128 -0.533667,0.425379 -0.02966,0.264439 0.161281,0.503008 0.426267,0.532578 C 15.597404,23.98349 15.89202,24 16.186595,24 c 1.027973,0 2.056199,-0.198589 3.014868,-0.586679 1.233988,-0.498297 2.331345,-1.301024 3.173737,-2.321113 0.169698,-0.204969 0.140409,-0.509059 -0.06564,-0.677738 -0.205724,-0.169351 -0.509778,-0.13978 -0.678795,0.0652 z"
       id="path78"
       style="fill:#d3dae3;fill-opacity:1;stroke-width:0.0861061" />
  </g>
  <g
     id="22-22-juk"
     transform="translate(32,10)">
    <rect
       style="opacity:0.00100002"
       width="22"
       height="22"
       x="0"
       y="0"
       id="rect2" />
    <path
       style="color:#d5c289;fill:#d6dbf1;fill-opacity:1;stroke-width:0.995603"
       class="ColorScheme-Text"
       d="M 10.964822,3 C 6.560275,3 3,6.560275 3,10.964821 c 0,4.404548 3.560275,7.964823 7.964822,7.964823 4.404547,0 7.964822,-3.560275 7.964822,-7.964823 C 18.929644,6.560275 15.369369,3 10.964822,3 Z m 0,0.995603 c 3.85297,0 6.969219,3.116236 6.969219,6.969218 0,3.852971 -3.116249,6.96922 -6.969219,6.96922 -3.852996,0 -6.969219,-3.116249 -6.969219,-6.96922 0,-3.852982 3.116223,-6.969218 6.969219,-6.969218 z m 0.746689,5.693851 v 0 0 0 0 0 c 0,0 -0.03379,0.008 0,0 z m -0.77756,4.480215 z"
       id="path58-3"
       sodipodi:nodetypes="ssssssssssccccccccccccccccc" />
    <rect
       style="fill:#4e5a7e;fill-opacity:0.5;stroke:none;stroke-width:0.348461"
       id="center-3-35-6"
       width="13.938438"
       height="13.938438"
       x="3.9663985"
       y="3.9995849"
       ry="6.9692078" />
    <path
       d="m 12.836633,10.999846 c 0,-0.992282 -0.808965,-1.7993579 -1.803276,-1.7993579 -0.994334,0 -1.8032978,0.8070759 -1.8032978,1.7993579 0,0.992276 0.8089638,1.79956 1.8032978,1.79956 0.994311,0 1.803276,-0.807284 1.803276,-1.79956 z m -3.0031948,0 c 0,-0.660036 0.5383158,-1.1972824 1.1999188,-1.1972824 0.661591,0 1.199901,0.5372034 1.199901,1.1972824 0,0.66024 -0.53831,1.197428 -1.199901,1.197428 -0.661603,0 -1.1999188,-0.537206 -1.1999188,-1.197428 z"
       id="path70-6"
       style="fill:#d3dae3;fill-opacity:1;stroke-width:0.0538161" />
    <path
       d="m 10.953775,7.8703634 c 0.166678,-0.0048 0.298193,-0.1425902 0.293988,-0.3087092 -0.0051,-0.1637996 -0.138473,-0.2933759 -0.301775,-0.2933759 h -0.0072 C 10.489757,7.2798366 10.049291,7.3713861 9.6294598,7.5410803 9.2104716,7.7103501 8.8308504,7.9499563 8.5004476,8.2532087 8.3775554,8.3657739 8.3699734,8.5562515 8.482606,8.6786849 c 0.059553,0.06468 0.140793,0.097236 0.2222307,0.097236 0.073029,0 0.1464645,-0.02628 0.2041234,-0.079371 C 9.1858999,8.442228 9.5043121,8.241043 9.8559401,8.0990832 10.208212,7.9569174 10.577563,7.8798426 10.953807,7.8703886 Z"
       id="path72-7"
       style="fill:#d3dae3;fill-opacity:1;stroke-width:0.0538161" />
    <path
       d="m 11.521059,6.6290163 c 0.167709,0.0178 0.315024,-0.1005961 0.333541,-0.2658678 0.01852,-0.1652854 -0.100801,-0.3143989 -0.266414,-0.3328724 -0.8207,-0.091127 -1.664551,0.024191 -2.4358488,0.3360078 -0.7712468,0.3116653 -1.4568859,0.813156 -1.9833826,1.4507117 -0.1060652,0.1281016 -0.087743,0.3181615 0.041,0.4235845 0.05622,0.04622 0.1239514,0.068856 0.1914982,0.068856 0.087128,0 0.1736163,-0.03742 0.2329592,-0.1096178 C 8.0971616,7.6397354 8.7002802,7.1985068 9.3787582,6.9244315 10.05744,6.6499412 10.7984,6.5474567 11.521054,6.6289411 Z"
       id="path74-5"
       style="fill:#d3dae3;fill-opacity:1;stroke-width:0.0538161" />
    <path
       d="m 11.114861,14.12931 c -0.166675,0.005 -0.298199,0.142596 -0.293993,0.308717 0.005,0.163808 0.138478,0.293375 0.301365,0.293375 h 0.0075 c 0.44844,-0.0115 0.888245,-0.103529 1.307274,-0.272794 0.419828,-0.169253 0.800491,-0.409517 1.130456,-0.71321 0.122485,-0.112981 0.130275,-0.303031 0.0175,-0.425475 -0.112796,-0.122014 -0.30345,-0.129566 -0.426357,-0.01746 -0.276724,0.25453 -0.595342,0.455714 -0.947833,0.5981 -0.352069,0.142389 -0.720981,0.219241 -1.096414,0.2287 z"
       id="path76-3"
       style="fill:#d3dae3;fill-opacity:1;stroke-width:0.0538161" />
    <path
       d="m 14.431795,13.799761 c -0.462745,0.560301 -1.065869,1.001316 -1.744774,1.275394 -0.678254,0.274899 -1.41878,0.377584 -2.141865,0.295474 -0.166468,-0.017 -0.314607,0.100802 -0.333551,0.265862 -0.01853,0.165282 0.100801,0.314387 0.266426,0.332869 C 10.660886,15.98979 10.845039,16 11.029146,16 c 0.642485,0 1.285122,-0.124123 1.884303,-0.366676 0.771235,-0.311439 1.457096,-0.813151 1.983591,-1.450699 0.106055,-0.128107 0.08771,-0.318171 -0.04104,-0.423584 -0.128569,-0.105851 -0.318608,-0.08742 -0.424239,0.04069 z"
       id="path78-5"
       style="fill:#d3dae3;fill-opacity:1;stroke-width:0.0538161" />
  </g>
</svg>
