<?xml version="1.0" encoding="UTF-8" standalone="no"?>
<svg
   inkscape:version="1.1.1 (3bf5ae0d25, 2021-09-20)"
   sodipodi:docname="kaffeine.svg"
   id="svg44"
   version="1.1"
   height="22"
   width="22"
   style="enable-background:new"
   xmlns:inkscape="http://www.inkscape.org/namespaces/inkscape"
   xmlns:sodipodi="http://sodipodi.sourceforge.net/DTD/sodipodi-0.dtd"
   xmlns:xlink="http://www.w3.org/1999/xlink"
   xmlns="http://www.w3.org/2000/svg"
   xmlns:svg="http://www.w3.org/2000/svg"
   xmlns:rdf="http://www.w3.org/1999/02/22-rdf-syntax-ns#"
   xmlns:cc="http://creativecommons.org/ns#"
   xmlns:dc="http://purl.org/dc/elements/1.1/">
  <g
     id="22-22-kaffeine">
    <path
       id="path6"
       d="m 0,0 h 22 c 0,0 0,0 0,0 v 22 c 0,0 0,0 0,0 H 0 c 0,0 0,0 0,0 V 0 c 0,0 0,0 0,0 z"
       style="opacity:0" />
    <path
       d="M 0.2,17.454677 V 4.6471195 C 0.2,3.90413 1.045684,3.3 2.0857495,3.3 H 20.01425 C 21.054316,3.3 21.9,3.90413 21.9,4.6471195 V 17.452876 c 0,0.74299 -0.845684,1.34712 -1.88575,1.34712 H 2.088274 C 1.045684,18.801796 0.2,18.197669 0.2,17.454677 Z M 20.890227,4.6471195 c 0,-0.344444 -0.393812,-0.625771 -0.875977,-0.625771 H 2.088274 c -0.4821665,0 -0.8759777,0.281327 -0.8759777,0.625771 V 17.452876 c 0,0.344445 0.3938112,0.625771 0.8759777,0.625771 H 20.01425 c 0.482165,0 0.875977,-0.281326 0.875977,-0.625771 z"
       id="path2-3"
       style="fill:#d6dbf1;fill-opacity:1;stroke-width:0.213364;enable-background:new" />
    <rect
       style="fill:#4e5a7e;fill-opacity:0.501961;stroke:none;stroke-width:0.439525;enable-background:new"
       id="center-3-35-6"
       width="14.066251"
       height="19.684996"
       x="4.0362515"
       y="-20.892496"
       ry="0.75711542"
       transform="rotate(90)"
       rx="0.78145838" />
    <path
       style="color:#d5c289;fill:#d6dbf1;fill-opacity:1;stroke-width:0.775;enable-background:new"
       class="ColorScheme-Text"
       d="m 6.6086124,16.914995 c -0.069062,-0.01937 -0.1478469,-0.04721 -0.1750879,-0.06176 -0.093398,-0.05 -0.2598072,-0.220351 -0.3087689,-0.316109 -0.1171091,-0.229034 -0.1122247,0.0064 -0.1122247,-5.411662 0,-5.4227675 -0.00505,-5.1823545 0.1130415,-5.413266 0.069585,-0.1360995 0.2657512,-0.305104 0.4139536,-0.3566415 0.1554455,-0.054018 0.4514588,-0.054095 0.635094,-9.3e-5 0.080359,0.023638 0.647341,0.333932 1.4386247,0.787315 l 1.3060003,0.748309 0.278085,-0.050608 c 1.887115,-0.343542 3.7965,0.578545 4.729832,2.284142 0.09811,0.1792805 0.294517,0.6412285 0.327202,0.7695635 0.01181,0.04642 0.09957,0.107381 0.40678,0.282572 0.299301,0.170678 0.422537,0.255694 0.522426,0.360422 0.190204,0.199405 0.235178,0.311894 0.235201,0.5883 1.6e-5,0.197453 -0.0077,0.24114 -0.06506,0.357462 -0.133625,0.272093 -0.151015,0.283356 -2.598783,1.683058 -1.243727,0.711195 -3.200086,1.830378 -4.347467,2.487069 -1.1571225,0.662266 -2.1430659,1.211641 -2.2139648,1.233637 -0.1881399,0.05834 -0.4352062,0.07031 -0.5848808,0.0283 z m 3.8190656,-2.40188 c 0.452123,-0.259601 0.825397,-0.475377 0.829492,-0.479498 0.0042,-0.004 -0.132826,-0.008 -0.304277,-0.0089 -0.459017,-0.0024 -0.832649,-0.09237 -1.235199,-0.297343 C 8.9512241,13.336992 8.4050817,12.605253 8.2353218,11.74112 8.1891996,11.506375 8.1957387,10.941237 8.247373,10.699258 8.3915938,10.023362 8.7644782,9.4320314 9.3009604,9.0284424 9.85934,8.6083845 10.546372,8.4098065 11.221158,8.4734415 c 0.760862,0.071765 1.413869,0.4119125 1.892002,0.9855671 0.435374,0.5223484 0.646535,1.1045844 0.647322,1.7848634 6.74e-4,0.581217 -0.156775,1.093246 -0.490558,1.595356 l -0.04526,0.06804 0.08303,-0.04439 c 0.04567,-0.0244 0.425275,-0.240659 0.843546,-0.480548 0.53311,-0.305743 0.764613,-0.450879 0.77428,-0.485412 0.0076,-0.02713 0.02649,-0.185038 0.042,-0.350992 C 15.0148,11.040217 14.94977,10.517637 14.773527,9.986519 13.979562,7.5938785 11.207473,6.5338095 8.9963475,7.777259 8.3640038,8.13286 7.7365521,8.791455 7.4104855,9.4418348 6.509551,11.238853 7.0750587,13.431085 8.7286181,14.551678 c 0.3227157,0.218699 0.7326829,0.430229 0.8383309,0.432546 0.021275,4.73e-4 0.408604,-0.211551 0.860727,-0.471147 z m 0.663386,-2.007766 c 0.129244,-0.06689 0.269209,-0.207812 0.322095,-0.324252 0.0401,-0.08832 0.04395,-0.170473 0.04439,-0.954986 l 5.2e-4,-0.858351 h 0.307824 0.307824 V 10.024412 9.681071 h -0.485412 -0.485413 v 0.840597 c 0,0.462325 -0.0041,0.840591 -0.0087,0.840591 -0.005,0 -0.05416,-0.01598 -0.109531,-0.03549 -0.165305,-0.05826 -0.326501,-0.04602 -0.493802,0.03752 -0.475761,0.237743 -0.471554,0.922159 0.0073,1.150851 0.10291,0.04912 0.146294,0.05596 0.309141,0.04821 0.13132,-0.0064 0.218485,-0.02402 0.284146,-0.05804 z"
       id="path58-3-6-7" />
  </g>
  <metadata
     id="metadata48">
    <rdf:RDF>
      <cc:Work
         rdf:about="">
        <dc:format>image/svg+xml</dc:format>
        <dc:type
           rdf:resource="http://purl.org/dc/dcmitype/StillImage" />
      </cc:Work>
    </rdf:RDF>
  </metadata>
  <sodipodi:namedview
     showguides="true"
     inkscape:current-layer="svg44"
     inkscape:window-maximized="1"
     inkscape:window-y="0"
     inkscape:window-x="0"
     inkscape:cy="7.1875"
     inkscape:cx="-3.125"
     inkscape:zoom="8"
     showgrid="false"
     id="namedview46"
     inkscape:window-height="1007"
     inkscape:window-width="1920"
     inkscape:pageshadow="2"
     inkscape:pageopacity="0"
     guidetolerance="10"
     gridtolerance="10"
     objecttolerance="10"
     borderopacity="1"
     bordercolor="#000000"
     pagecolor="#ffffff"
     inkscape:document-rotation="0"
     inkscape:lockguides="false"
     inkscape:showpageshadow="false"
     inkscape:pagecheckerboard="0">
    <inkscape:grid
       id="grid845"
       type="xygrid"
       originx="-32"
       originy="-10" />
  </sodipodi:namedview>
  <defs
     id="defs4">
    <linearGradient
       id="linearGradient5606"
       inkscape:swatch="solid">
      <stop
         style="stop-color:#000000"
         offset="0"
         id="stop5608" />
    </linearGradient>
    <linearGradient
       xlink:href="#1"
       id="9"
       gradientUnits="userSpaceOnUse"
       x1="252.72501"
       y1="388.505"
       x2="255.41499"
       y2="-76.616997"
       gradientTransform="matrix(0.02890894,0,0,0.02711282,8.3449777,8.8451403)" />
    <linearGradient
       id="1">
      <stop
         stop-color="#f9f9f9"
         id="stop2" />
      <stop
         offset="1"
         stop-color="#afafaf"
         id="stop4" />
    </linearGradient>
    <linearGradient
       id="oomox"
       x1="1.4797103"
       x2="1.4797103"
       y1="0.4730846"
       y2="14.665033"
       gradientTransform="matrix(0.94613118,0,0,1.0569359,7.8239662,8.0979799)"
       gradientUnits="userSpaceOnUse">
      <stop
         offset="0%"
         style="stop-color:#303b3d; stop-opacity:1"
         id="stop18" />
      <stop
         offset="100%"
         style="stop-color:#bc985d; stop-opacity:1"
         id="stop20" />
    </linearGradient>
  </defs>
  <g
     id="g34"
     transform="matrix(0,0.23269337,-0.3257329,0,0.286645,-5.3315876)">
    <g
       id="g32">
      <g
         id="g30">
        <g
           id="g28">
          <g
             id="g26">
            <g
               id="g24">
              <g
                 id="g22" />
            </g>
          </g>
        </g>
      </g>
    </g>
  </g>
  <g
     id="g52"
     transform="matrix(0,0.23269337,-0.3257329,0,0.286645,-5.3315876)">
    <g
       id="g50">
      <g
         id="g48">
        <g
           id="g46">
          <g
             id="g44">
            <g
               id="g42">
              <g
                 id="g40" />
            </g>
          </g>
        </g>
      </g>
    </g>
  </g>
  <g
     id="g70"
     transform="matrix(0,0.23269337,-0.3257329,0,0.286645,-5.3315876)">
    <g
       id="g68">
      <g
         id="g66">
        <g
           id="g64">
          <g
             id="g62">
            <g
               id="g60">
              <g
                 id="g58" />
            </g>
          </g>
        </g>
      </g>
    </g>
  </g>
  <g
     id="g88"
     transform="matrix(0,0.23269337,-0.3257329,0,0.286645,-5.3315876)">
    <g
       id="g86">
      <g
         id="g84">
        <g
           id="g82">
          <g
             id="g80">
            <g
               id="g78">
              <g
                 id="g76" />
            </g>
          </g>
        </g>
      </g>
    </g>
  </g>
  <g
     id="g106"
     transform="matrix(0,0.23269337,-0.3257329,0,0.286645,-5.3315876)">
    <g
       id="g104">
      <g
         id="g102">
        <g
           id="g100">
          <g
             id="g98">
            <g
               id="g96">
              <g
                 id="g94" />
            </g>
          </g>
        </g>
      </g>
    </g>
  </g>
  <g
     id="g128"
     transform="matrix(0,0.23269337,-0.3257329,0,0.286645,-5.3315877)">
    <g
       id="g126">
      <g
         id="g124">
        <g
           id="g122">
          <g
             id="g120">
            <g
               id="g118">
              <g
                 id="g116">
                <g
                   id="g114" />
              </g>
            </g>
          </g>
        </g>
      </g>
    </g>
  </g>
  <g
     id="g146"
     transform="matrix(0,0.23269337,-0.3257329,0,0.286645,-5.3315877)">
    <g
       id="g144">
      <g
         id="g142">
        <g
           id="g140">
          <g
             id="g138">
            <g
               id="g136">
              <g
                 id="g134">
                <g
                   id="g132" />
              </g>
            </g>
          </g>
        </g>
      </g>
    </g>
  </g>
  <g
     id="kaffeine"
     transform="translate(-32,-10)">
    <rect
       id="rect11"
       style="opacity:0.00100002"
       y="0"
       x="0"
       height="32"
       width="32" />
    <path
       d="M 2,24.264103 V 7.7382195 C 2,6.7795228 3.0912052,6 4.4332247,6 H 27.566775 C 28.908795,6 30,6.7795228 30,7.7382195 V 24.261776 c 0,0.958696 -1.091205,1.738219 -2.433225,1.738219 H 4.4364821 C 3.0912052,26.002322 2,25.222799 2,24.264103 Z M 28.697068,7.7382195 c 0,-0.4444444 -0.508143,-0.8074461 -1.130293,-0.8074461 H 4.4364821 c -0.6221499,0 -1.1302932,0.3630017 -1.1302932,0.8074461 V 24.261776 c 0,0.444444 0.5081433,0.807446 1.1302932,0.807446 H 27.566775 c 0.62215,0 1.130293,-0.363002 1.130293,-0.807446 z"
       id="path2"
       style="fill:#d6dbf1;fill-opacity:1;stroke-width:0.275311" />
    <rect
       style="fill:#4e5a7e;fill-opacity:0.501961;stroke:none;stroke-width:0.567131"
       id="center-3-35"
       width="18.15"
       height="25.4"
       x="6.9499998"
       y="-28.699999"
       ry="0.97692305"
       transform="rotate(90)"
       rx="1.0083333" />
    <path
       style="color:#d5c289;fill:#d6dbf1;fill-opacity:1;enable-background:new"
       class="ColorScheme-Text"
       d="m 10.269178,23.567738 c -0.08911,-0.025 -0.190771,-0.0609 -0.22592,-0.0797 -0.1205138,-0.0645 -0.3352358,-0.28432 -0.3984118,-0.40788 -0.151109,-0.29553 -0.144806,0.008 -0.144806,-6.98279 0,-6.9971205 -0.0065,-6.6869105 0.14586,-6.9848605 0.08979,-0.17561 0.3429048,-0.39368 0.5341338,-0.46018 0.200575,-0.0697 0.582527,-0.0698 0.819476,-1.2e-4 0.103684,0.0305 0.835279,0.43088 1.85629,1.01589 l 1.685162,0.9655605 0.35882,-0.0653 c 2.434987,-0.44328 4.898711,0.74651 6.103008,2.94728 0.126586,0.23133 0.380021,0.82739 0.422196,0.992981 0.01526,0.0599 0.128481,0.138559 0.524875,0.364609 0.386196,0.220231 0.545211,0.329931 0.674102,0.465061 0.245423,0.257299 0.303454,0.402449 0.303482,0.7591 2e-5,0.254779 -0.01024,0.31115 -0.08395,0.461239 -0.172424,0.35109 -0.194862,0.36562 -3.353272,2.171691 -1.604809,0.917669 -4.129145,2.361779 -5.609634,3.209119 -1.493062,0.85454 -2.765247,1.56341 -2.856729,1.59179 -0.242761,0.0753 -0.561556,0.0907 -0.754686,0.0365 z m 4.927826,-3.0992 c 0.583385,-0.33497 1.065027,-0.61339 1.070315,-0.61871 0.0053,-0.005 -0.171389,-0.0106 -0.392615,-0.0118 -0.592284,-0.003 -1.074386,-0.11909 -1.593806,-0.38356 -0.988995,-0.503559 -1.693696,-1.447739 -1.91274,-2.562749 -0.05951,-0.3029 -0.05107,-1.03211 0.01555,-1.34434 0.186091,-0.87212 0.667232,-1.63513 1.359467,-2.15589 0.720487,-0.54201 1.606984,-0.79824 2.477673,-0.71613 0.981759,0.0926 1.824348,0.5315 2.441296,1.2717 0.561774,0.674 0.834237,1.42527 0.835252,2.30305 8.68e-4,0.749959 -0.202287,1.410639 -0.632978,2.05852 l -0.05839,0.0878 0.107169,-0.0573 c 0.05894,-0.0315 0.548743,-0.31053 1.088445,-0.62006 0.687887,-0.39451 0.986597,-0.58178 0.999073,-0.62634 0.0098,-0.035 0.03417,-0.23876 0.05419,-0.45289 0.06099,-0.65253 -0.02289,-1.32683 -0.250313,-2.01214 -1.024506,-3.08726 -4.601394,-4.455091 -7.45446,-2.85064 -0.815927,0.45884 -1.625542,1.30864 -2.046273,2.14784 -1.162496,2.31873 -0.432809,5.14742 1.700816,6.593349 0.416407,0.28219 0.945397,0.55513 1.081717,0.55812 0.02745,6.1e-4 0.527231,-0.27297 1.110616,-0.60793 z m 0.855983,-2.59067 c 0.166767,-0.0863 0.347367,-0.26814 0.415606,-0.41839 0.05175,-0.11396 0.05669,-0.21996 0.0573,-1.232239 l 6.72e-4,-1.10755 h 0.397193 0.397192 v -0.44303 -0.44302 h -0.626344 -0.626341 v 1.08464 c 0,0.59655 -0.0051,1.084639 -0.01144,1.084639 -0.0063,0 -0.06989,-0.0206 -0.141331,-0.0458 -0.213295,-0.0752 -0.42129,-0.0594 -0.637164,0.0484 -0.613884,0.30676 -0.608457,1.189879 0.0091,1.484969 0.132788,0.0634 0.188766,0.0722 0.398891,0.0622 0.169444,-0.008 0.281917,-0.031 0.366639,-0.0749 z"
       id="path58-3-6" />
  </g>
</svg>
