<?xml version="1.0" encoding="UTF-8" standalone="no"?>
<svg
   width="32"
   height="32"
   version="1.1"
   id="svg32"
   sodipodi:docname="kalarm.svg"
   inkscape:version="1.1.1 (3bf5ae0d25, 2021-09-20)"
   xmlns:inkscape="http://www.inkscape.org/namespaces/inkscape"
   xmlns:sodipodi="http://sodipodi.sourceforge.net/DTD/sodipodi-0.dtd"
   xmlns="http://www.w3.org/2000/svg"
   xmlns:svg="http://www.w3.org/2000/svg"
   xmlns:rdf="http://www.w3.org/1999/02/22-rdf-syntax-ns#"
   xmlns:cc="http://creativecommons.org/ns#"
   xmlns:dc="http://purl.org/dc/elements/1.1/">
  <g
     id="kalarm-partdisabled">
    <rect
       style="opacity:0.00100002"
       width="32"
       height="32"
       x="0"
       y="0"
       id="rect27" />
    <path
       d="m 4.6781258,16.660224 a 11.367185,11.23625 0 0 0 0.489661,3.370882 0.87439917,0.8643272 0 0 0 1.171696,0.579096 v 0 a 0.87439917,0.8643272 0 0 0 0.515893,-1.028539 9.6183904,9.5075987 0 1 1 18.6247132,-0.942126 9.4959714,9.3865898 0 0 1 -4.372009,6.223157 9.7058338,9.5940348 0 0 1 -9.277364,0.458088 0.87439917,0.8643272 0 0 0 -1.10175,0.354377 v 0 A 0.87439917,0.8643272 0 0 0 11.113707,26.902502 11.367185,11.23625 0 1 0 14.471393,5.6314131 11.44588,11.314038 0 0 0 4.6781258,16.660224 Z"
       id="path6-6-36-2-9"
       style="fill:#00a3cc;fill-opacity:1;stroke-width:0.869359" />
    <path
       d="m 3.4997458,10.820443 a 0.86703223,0.86190052 0 0 0 1.135813,-0.387863 12.623982,12.549265 0 0 1 4.803356,-4.8094019 0.87378053,0.86860888 0 1 0 -0.867034,-1.508326 14.332038,14.247211 0 0 0 -5.453625,5.490306 0.86703223,0.86190052 0 0 0 0.38149,1.2152849 z"
       id="path10-75-6-2"
       style="fill:#00a3cc;fill-opacity:1;stroke-width:0.864473" />
    <path
       d="m 22.09997,4.4940071 a 0.87194421,0.85704512 0 0 0 0.392384,1.12273 12.695501,12.47857 0 0 1 4.865445,4.7480269 0.87873074,0.86371569 0 1 0 1.525902,-0.8570469 14.413234,14.166951 0 0 0 -5.554284,-5.390806 0.87194421,0.85704512 0 0 0 -1.229447,0.377096 z"
       id="path10-7-35-1-0"
       style="fill:#00a3cc;fill-opacity:1;stroke-width:0.864473" />
    <rect
       style="fill:#4e5a7e;fill-opacity:0.5;stroke:none;stroke-width:0.47776"
       id="center-3-35-6-8-2"
       width="19.221407"
       height="19"
       x="6.4396205"
       y="7.3000164"
       ry="9.4999838" />
    <path
       d="M 16.9365,17.390836 V 10.47622 c 0.003,-1.1550649 -1.751465,-1.1550649 -1.748795,0 v 6.914616 c 0.003,1.149806 1.746144,1.149806 1.748795,0 z"
       id="path4-3-6-2-7-3"
       style="fill:#00a3cc;fill-opacity:1;stroke-width:0.869359"
       sodipodi:nodetypes="ccccc" />
  </g>
  <g
     id="kalarm"
     transform="translate(-64)">
    <g
       id="g2344">
      <rect
         style="opacity:0.00100002"
         width="32"
         height="32"
         x="0"
         y="0"
         id="rect17" />
      <path
         d="m 4.6781258,16.660224 a 11.367185,11.23625 0 0 0 0.489661,3.370882 0.87439917,0.8643272 0 0 0 1.171696,0.579096 v 0 a 0.87439917,0.8643272 0 0 0 0.515893,-1.028539 9.6183904,9.5075987 0 1 1 18.6247132,-0.942126 9.4959714,9.3865898 0 0 1 -4.372009,6.223157 9.7058338,9.5940348 0 0 1 -9.277364,0.458088 0.87439917,0.8643272 0 0 0 -1.10175,0.354377 v 0 A 0.87439917,0.8643272 0 0 0 11.113707,26.902502 11.367185,11.23625 0 1 0 14.471393,5.6314131 11.44588,11.314038 0 0 0 4.6781258,16.660224 Z"
         id="path6-6-36-2"
         style="fill:#d6dbf1;fill-opacity:1;stroke-width:0.869359" />
      <path
         d="m 3.4997458,10.820443 a 0.86703223,0.86190052 0 0 0 1.135813,-0.387863 12.623982,12.549265 0 0 1 4.803356,-4.8094019 0.87378053,0.86860888 0 1 0 -0.867034,-1.508326 14.332038,14.247211 0 0 0 -5.453625,5.490306 0.86703223,0.86190052 0 0 0 0.38149,1.2152849 z"
         id="path10-75-6"
         style="fill:#d6dbf1;fill-opacity:1;stroke-width:0.864473" />
      <path
         d="m 22.09997,4.4940071 a 0.87194421,0.85704512 0 0 0 0.392384,1.12273 12.695501,12.47857 0 0 1 4.865445,4.7480269 0.87873074,0.86371569 0 1 0 1.525902,-0.8570469 14.413234,14.166951 0 0 0 -5.554284,-5.390806 0.87194421,0.85704512 0 0 0 -1.229447,0.377096 z"
         id="path10-7-35-1"
         style="fill:#d6dbf1;fill-opacity:1;stroke-width:0.864473" />
      <rect
         style="fill:#4e5a7e;fill-opacity:0.5;stroke:none;stroke-width:0.47776"
         id="center-3-35-6-8"
         width="19.221407"
         height="19"
         x="6.4396205"
         y="7.3000164"
         ry="9.4999838" />
      <path
         d="M 16.9365,17.390836 V 10.47622 c 0.003,-1.1550649 -1.751465,-1.1550649 -1.748795,0 v 6.914616 c 0.003,1.149806 1.746144,1.149806 1.748795,0 z"
         id="path4-3-6-2-7"
         style="fill:#d6dbf1;fill-opacity:1;stroke-width:0.869359"
         sodipodi:nodetypes="ccccc" />
    </g>
  </g>
  <metadata
     id="metadata38">
    <rdf:RDF>
      <cc:Work
         rdf:about="">
        <dc:format>image/svg+xml</dc:format>
        <dc:type
           rdf:resource="http://purl.org/dc/dcmitype/StillImage" />
      </cc:Work>
    </rdf:RDF>
  </metadata>
  <defs
     id="defs36" />
  <sodipodi:namedview
     pagecolor="#ffffff"
     bordercolor="#000000"
     borderopacity="1"
     objecttolerance="10"
     gridtolerance="10"
     guidetolerance="10"
     inkscape:pageopacity="0"
     inkscape:pageshadow="2"
     inkscape:window-width="1920"
     inkscape:window-height="1007"
     id="namedview34"
     showgrid="false"
     inkscape:zoom="4.9062502"
     inkscape:cx="-12.840764"
     inkscape:cy="2.3439489"
     inkscape:window-x="0"
     inkscape:window-y="0"
     inkscape:window-maximized="1"
     inkscape:current-layer="svg32"
     inkscape:document-rotation="0"
     inkscape:lockguides="false"
     inkscape:showpageshadow="false"
     inkscape:pagecheckerboard="0">
    <inkscape:grid
       type="xygrid"
       id="grid883"
       originx="-64"
       originy="0" />
  </sodipodi:namedview>
  <g
     id="kalarm-disabled"
     transform="translate(-32)">
    <rect
       style="opacity:0.00100002"
       width="32"
       height="32"
       x="0"
       y="0"
       id="rect22" />
    <path
       d="m 4.6781265,16.660207 a 11.367185,11.23625 0 0 0 0.4896603,3.370882 0.87439918,0.8643272 0 0 0 1.1716964,0.579096 v 0 a 0.87439918,0.8643272 0 0 0 0.5158926,-1.028539 9.6183905,9.5075987 0 1 1 18.6247132,-0.942126 9.4959715,9.3865898 0 0 1 -4.372009,6.223157 9.7058339,9.5940348 0 0 1 -9.277364,0.458088 0.87439918,0.8643272 0 0 0 -1.10175,0.354377 v 0 A 0.87439918,0.8643272 0 0 0 11.113707,26.902485 11.367185,11.23625 0 1 0 14.471393,5.6313957 11.44588,11.314038 0 0 0 4.6781265,16.660207 Z"
       id="path6-6-36"
       style="fill:#da4453;fill-opacity:1;stroke-width:0.869359" />
    <path
       d="M 3.499746,10.820426 A 0.86703224,0.86190052 0 0 0 4.6355592,10.432563 12.623982,12.549265 0 0 1 9.4389149,5.6231607 0.87378054,0.86860888 0 1 0 8.5718806,4.1148347 14.332038,14.247211 0 0 0 3.1182559,9.6051407 0.86703224,0.86190052 0 0 0 3.499746,10.820426 Z"
       id="path10-75"
       style="fill:#da4453;fill-opacity:1;stroke-width:0.864473" />
    <path
       d="m 22.09997,4.4939897 a 0.87194422,0.85704512 0 0 0 0.392384,1.12273 12.695501,12.47857 0 0 1 4.865445,4.7480273 0.87873075,0.86371569 0 1 0 1.525902,-0.8570473 14.413234,14.166951 0 0 0 -5.554284,-5.390806 0.87194422,0.85704512 0 0 0 -1.229447,0.377096 z"
       id="path10-7-35"
       style="fill:#da4453;fill-opacity:1;stroke-width:0.864473" />
    <rect
       style="fill:#4e5a7e;fill-opacity:0.5;stroke:none;stroke-width:0.47776"
       id="center-3-35-6"
       width="19.221407"
       height="19"
       x="6.4396191"
       y="7.3000002"
       ry="9.4999838" />
    <path
       d="m 16.9365,17.390819 v -6.914616 c 0.003,-1.1550653 -1.751465,-1.1550653 -1.748795,0 v 6.914616 c 0.003,1.149806 1.746144,1.149806 1.748795,0 z"
       id="path4-3-6-2"
       style="fill:#da4453;fill-opacity:1;stroke-width:0.869359"
       sodipodi:nodetypes="ccccc" />
  </g>
  <g
     id="22-22-kalarm"
     transform="translate(0,-22)">
    <rect
       style="opacity:0.00100002"
       width="22"
       height="22"
       x="-64"
       y="0"
       id="rect2" />
    <path
       d="m -60.489835,11.440243 a 7.5199627,7.4908336 0 0 0 0.323935,2.247255 0.57845885,0.57621815 0 0 0 0.775136,0.386064 v 0 a 0.57845885,0.57621815 0 0 0 0.341289,-0.685693 6.3630471,6.3383994 0 1 1 12.32118,-0.628084 6.2820607,6.2577268 0 0 1 -2.892303,4.148772 6.4208951,6.3960234 0 0 1 -6.137441,0.305392 0.57845885,0.57621815 0 0 0 -0.728863,0.236251 v 0 a 0.57845885,0.57621815 0 0 0 0.254526,0.818229 7.5199627,7.4908336 0 1 0 2.221277,-14.1807274 7.572023,7.5426923 0 0 0 -6.478736,7.3525414 z"
       id="path6-6-36-9"
       style="fill:#d6dbf1;fill-opacity:1;stroke-width:0.577344" />
    <path
       d="m -61.269392,7.5470556 a 0.57358525,0.57460037 0 0 0 0.751397,-0.258575 8.3513967,8.366177 0 0 1 3.17766,-3.206269 0.57804959,0.57907261 0 1 0 -0.573587,-1.00555 9.4813611,9.498141 0 0 0 -3.607846,3.660204 0.57358525,0.57460037 0 0 0 0.252376,0.81019 z"
       id="path10-75-3"
       style="fill:#d6dbf1;fill-opacity:1;stroke-width:0.574099" />
    <path
       d="m -48.964412,3.3294316 a 0.57683479,0.57136343 0 0 0 0.25958,0.748486 8.3987099,8.319047 0 0 1 3.218736,3.165352 0.58132455,0.57581063 0 1 0 1.009461,-0.571365 9.5350758,9.4446343 0 0 0 -3.674437,-3.593871 0.57683479,0.57136343 0 0 0 -0.81334,0.251398 z"
       id="path10-7-35-6"
       style="fill:#d6dbf1;fill-opacity:1;stroke-width:0.574099" />
    <rect
       style="fill:#4e5a7e;fill-opacity:0.5;stroke:none;stroke-width:0.317283"
       id="center-3-35-6-0"
       width="12.715922"
       height="12.666667"
       x="-59.324516"
       y="5.2001076"
       ry="6.3333225" />
    <path
       d="M -52.380307,11.927318 V 7.3175736 c 0.002,-0.770043 -1.158681,-0.770043 -1.156915,0 v 4.6097444 c 0.002,0.766537 1.155162,0.766537 1.156915,0 z"
       id="path4-3-6-2-6"
       style="fill:#d6dbf1;fill-opacity:1;stroke-width:0.577344"
       sodipodi:nodetypes="ccccc" />
  </g>
  <g
     id="22-22-kalarm-disabled"
     transform="translate(0,-22)">
    <rect
       style="opacity:0.00100002"
       width="22"
       height="22"
       x="-32"
       y="0"
       id="rect7" />
    <path
       d="m -28.489835,11.440225 a 7.5199627,7.4908336 0 0 0 0.323935,2.247255 0.57845885,0.57621815 0 0 0 0.775136,0.386064 v 0 a 0.57845885,0.57621815 0 0 0 0.341289,-0.685693 6.3630471,6.3383994 0 1 1 12.32118,-0.628084 6.2820607,6.2577268 0 0 1 -2.892303,4.148772 6.4208951,6.3960234 0 0 1 -6.137441,0.305392 0.57845885,0.57621815 0 0 0 -0.728863,0.236251 v 0 a 0.57845885,0.57621815 0 0 0 0.254526,0.818229 7.5199627,7.4908336 0 1 0 2.221277,-14.180727 7.572023,7.5426923 0 0 0 -6.478736,7.352541 z"
       id="path6-6-36-9-7"
       style="fill:#da4453;fill-opacity:1;stroke-width:0.577344" />
    <path
       d="m -29.269392,7.547038 a 0.57358525,0.57460037 0 0 0 0.751397,-0.258575 8.3513967,8.366177 0 0 1 3.17766,-3.206269 0.57804959,0.57907261 0 1 0 -0.573587,-1.00555 9.4813611,9.498141 0 0 0 -3.607846,3.660204 0.57358525,0.57460037 0 0 0 0.252376,0.81019 z"
       id="path10-75-3-5"
       style="fill:#da4453;fill-opacity:1;stroke-width:0.574099" />
    <path
       d="m -16.964412,3.329414 a 0.57683479,0.57136343 0 0 0 0.25958,0.748486 8.3987099,8.319047 0 0 1 3.218736,3.165352 0.58132455,0.57581063 0 1 0 1.009461,-0.571365 9.5350758,9.4446343 0 0 0 -3.674437,-3.593871 0.57683479,0.57136343 0 0 0 -0.81334,0.251398 z"
       id="path10-7-35-6-9"
       style="fill:#da4453;fill-opacity:1;stroke-width:0.574099" />
    <rect
       style="fill:#4e5a7e;fill-opacity:0.5;stroke:none;stroke-width:0.317283"
       id="center-3-35-6-0-2"
       width="12.715922"
       height="12.666667"
       x="-27.324518"
       y="5.200089"
       ry="6.3333225" />
    <path
       d="M -20.380307,11.9273 V 7.317556 c 0.002,-0.770043 -1.158681,-0.770043 -1.156915,0 V 11.9273 c 0.002,0.766537 1.155162,0.766537 1.156915,0 z"
       id="path4-3-6-2-6-2"
       style="fill:#da4453;fill-opacity:1;stroke-width:0.577344"
       sodipodi:nodetypes="ccccc" />
  </g>
  <g
     id="22-22-kalarm-partdisabled"
     transform="translate(0,-22)">
    <rect
       style="opacity:0.00100002"
       width="22"
       height="22"
       x="0"
       y="0"
       id="rect12" />
    <path
       d="m 3.5101649,11.440225 a 7.5199627,7.4908336 0 0 0 0.323935,2.247255 0.57845885,0.57621815 0 0 0 0.775136,0.386064 v 0 a 0.57845885,0.57621815 0 0 0 0.341289,-0.685693 6.3630471,6.3383994 0 1 1 12.3211801,-0.628084 6.2820607,6.2577268 0 0 1 -2.892303,4.148772 6.4208951,6.3960234 0 0 1 -6.1374411,0.305392 0.57845885,0.57621815 0 0 0 -0.728863,0.236251 v 0 A 0.57845885,0.57621815 0 0 0 7.7676239,18.268411 7.5199627,7.4908336 0 1 0 9.988901,4.087684 7.572023,7.5426923 0 0 0 3.5101649,11.440225 Z"
       id="path6-6-36-9-7-8"
       style="fill:#00a3cc;fill-opacity:1;stroke-width:0.577344" />
    <path
       d="m 2.7306079,7.547038 a 0.57358525,0.57460037 0 0 0 0.751397,-0.258575 8.3513967,8.366177 0 0 1 3.17766,-3.206269 0.57804959,0.57907261 0 1 0 -0.573587,-1.00555 9.4813611,9.498141 0 0 0 -3.607846,3.660204 0.57358525,0.57460037 0 0 0 0.252376,0.81019 z"
       id="path10-75-3-5-9"
       style="fill:#00a3cc;fill-opacity:1;stroke-width:0.574099" />
    <path
       d="m 15.035588,3.329414 a 0.57683479,0.57136343 0 0 0 0.25958,0.748486 8.3987099,8.319047 0 0 1 3.218736,3.165352 0.58132455,0.57581063 0 1 0 1.009461,-0.571365 9.5350758,9.4446343 0 0 0 -3.674437,-3.593871 0.57683479,0.57136343 0 0 0 -0.81334,0.251398 z"
       id="path10-7-35-6-9-7"
       style="fill:#00a3cc;fill-opacity:1;stroke-width:0.574099" />
    <rect
       style="fill:#4e5a7e;fill-opacity:0.5;stroke:none;stroke-width:0.317283"
       id="center-3-35-6-0-2-3"
       width="12.715922"
       height="12.666667"
       x="4.6754813"
       y="5.2000885"
       ry="6.3333225" />
    <path
       d="M 11.619693,11.9273 V 7.317556 c 0.002,-0.770043 -1.158681,-0.770043 -1.156915,0 V 11.9273 c 0.002,0.766537 1.155162,0.766537 1.156915,0 z"
       id="path4-3-6-2-6-2-6"
       style="fill:#00a3cc;fill-opacity:1;stroke-width:0.577344"
       sodipodi:nodetypes="ccccc" />
  </g>
</svg>
