<?xml version="1.0" encoding="UTF-8" standalone="no"?>
<svg
   width="32"
   height="32"
   version="1"
   id="svg12"
   sodipodi:docname="kate.svg"
   inkscape:version="1.1.1 (3bf5ae0d25, 2021-09-20)"
   xmlns:inkscape="http://www.inkscape.org/namespaces/inkscape"
   xmlns:sodipodi="http://sodipodi.sourceforge.net/DTD/sodipodi-0.dtd"
   xmlns="http://www.w3.org/2000/svg"
   xmlns:svg="http://www.w3.org/2000/svg"
   xmlns:rdf="http://www.w3.org/1999/02/22-rdf-syntax-ns#"
   xmlns:cc="http://creativecommons.org/ns#"
   xmlns:dc="http://purl.org/dc/elements/1.1/">
  <g
     id="22-22-kate"
     transform="translate(32,10)">
    <rect
       style="opacity:0.00100002;fill:#a8aeca;fill-opacity:1"
       width="22"
       height="22"
       x="0"
       y="0"
       id="rect2" />
    <path
       d="M 16.820073,3 H 5.146614 C 4.323485,3 3.65,3.6 3.65,4.333332 V 17.666665 C 3.65,18.4 4.323485,19 5.146614,19 h 11.673459 c 0.82313,0 1.496594,-0.6 1.496594,-1.333335 V 4.333332 C 18.316667,3.6 17.643203,3 16.820073,3 Z m 0.748304,14.666665 c 0,0.366663 -0.336756,0.666663 -0.748304,0.666663 H 5.146614 c -0.411582,0 -0.748305,-0.3 -0.748305,-0.666663 V 4.333332 c 0,-0.366665 0.336723,-0.666665 0.748305,-0.666665 h 11.673459 c 0.411548,0 0.748304,0.3 0.748304,0.666665 z"
       id="path2-3-3"
       style="fill:#d6dbf1;fill-opacity:1;stroke-width:0.353151" />
    <rect
       style="fill:#4e5a7e;fill-opacity:0.501961;stroke:none;stroke-width:0.347605"
       id="center-3-35-6"
       width="13.181415"
       height="14.666667"
       x="4.4019165"
       y="3.6666682"
       ry="0.54741049" />
    <path
       style="fill:#d6dbf1;fill-opacity:1;stroke:none;stroke-width:0.0398635;stroke-linecap:butt;stroke-linejoin:miter;stroke-miterlimit:4;stroke-dasharray:none;stroke-opacity:1"
       d="M 9.167452,7.895069 C 8.730698,6.128655 6.262563,6.557263 5.85,6.518913 6.313052,6.238891 6.731515,6.00806 7.686117,5.165617 9.5251,3.542673 11.472085,3.896609 12.447078,4.541121 9.781581,4.664565 10.289376,6.433714 10.681974,7.365872 10.182704,7.54255 9.394552,7.809258 9.167452,7.895069 Z"
       id="path905-3-36-7"
       inkscape:connector-curvature="0" />
    <path
       sodipodi:nodetypes="cssscccccsssc"
       inkscape:connector-curvature="0"
       id="path907-6-7-5"
       d="m 15.747021,5.464388 c -0.959846,1.54459 -2.555697,3.63142 -4.302276,3.906296 -1.746562,0.274894 -3.41163,-0.02958 -3.797327,1.55503 -0.355192,1.459351 0.894058,2.821884 2.18974,2.493494 1.384196,-0.350825 1.085243,-2.262137 0.328158,-3.563706 0.575076,-0.04026 0.468105,-0.02969 1.44333,-0.08966 1.453624,1.509512 1.935446,1.939886 4.475008,4.142239 -1.957033,-0.249717 -2.669312,-0.47897 -4.072963,-1.501842 0.363615,1.111942 1.14081,3.635602 1.309161,5.593762 C 12.510277,16.582783 12.20337,16.061963 10.948718,15.039538 9.341606,13.729868 8.040031,13.685524 7.286693,11.756003 6.534985,9.830631 7.529971,8.443732 9.31042,7.843108 c 2.54441,-0.858345 4.736738,-1.67214 6.436601,-2.37872 z"
       style="fill:#d6dbf1;fill-opacity:1;stroke:none;stroke-width:0.0398635;stroke-linecap:butt;stroke-linejoin:miter;stroke-miterlimit:4;stroke-dasharray:none;stroke-opacity:1" />
    <path
       sodipodi:nodetypes="cccc"
       inkscape:connector-curvature="0"
       id="path909-7-5-3"
       d="m 10.165316,9.855502 c 0.575076,-0.04026 0.468105,-0.02969 1.44333,-0.08966 1.453624,1.509512 1.935446,1.939886 4.475008,4.142239 -2.552607,-0.222461 -4.483978,-1.139615 -5.918338,-4.052583 z"
       style="fill:#d6dbf1;fill-opacity:1;stroke:none;stroke-width:0.0398635;stroke-linecap:butt;stroke-linejoin:miter;stroke-miterlimit:4;stroke-dasharray:none;stroke-opacity:1" />
    <path
       style="fill:#d6dbf1;fill-opacity:1;stroke:none;stroke-width:0.0398635;stroke-linecap:butt;stroke-linejoin:miter;stroke-miterlimit:4;stroke-dasharray:none;stroke-opacity:1"
       d="m 15.747021,5.464388 c -0.959846,1.54459 -2.555697,3.63142 -4.302276,3.906296 -1.746562,0.274894 -3.41163,-0.02958 -3.797327,1.55503 -0.355192,1.459351 0.894058,2.821884 2.18974,2.493494 1.384196,-0.350825 1.085243,-2.262137 0.328158,-3.563706 0.575076,-0.04026 0.468105,-0.02969 1.44333,-0.08966 1.453624,1.509512 1.935446,1.939886 4.475008,4.142239 -1.957033,-0.249717 -2.669312,-0.47897 -4.072963,-1.501842 0.363615,1.111942 1.14081,3.635602 1.309161,5.593762 C 12.510277,16.582783 12.20337,16.061963 10.948718,15.039538 9.341606,13.729868 8.040031,13.685524 7.286693,11.756003 6.534985,9.830631 7.529971,8.443732 9.31042,7.843108 c 2.54441,-0.858345 4.736738,-1.67214 6.436601,-2.37872 z"
       id="path911-53-3-5"
       inkscape:connector-curvature="0"
       sodipodi:nodetypes="cssscccccsssc" />
    <path
       style="fill:#d6dbf1;fill-opacity:1;stroke:none;stroke-width:0.0398635;stroke-linecap:butt;stroke-linejoin:miter;stroke-miterlimit:4;stroke-dasharray:none;stroke-opacity:1"
       d="m 10.165316,9.855502 c 0.575076,-0.04026 0.468105,-0.02969 1.44333,-0.08966 1.453624,1.509512 1.935446,1.939886 4.475008,4.142239 -2.552607,-0.222461 -4.483978,-1.139615 -5.918338,-4.052583 z"
       id="path913-5-5-6"
       inkscape:connector-curvature="0"
       sodipodi:nodetypes="cccc" />
    <path
       sodipodi:nodetypes="ccccc"
       inkscape:connector-curvature="0"
       id="path915-6-6-2"
       d="M 5.85,6.518913 C 6.313052,6.238891 6.731515,6.00806 7.686117,5.165617 9.5251,3.542673 11.472085,3.896609 12.447078,4.541121 9.781581,4.664565 10.125019,5.311575 10.115178,5.818806 8.344214,5.364031 7.827126,5.982806 5.85,6.518913 Z"
       style="fill:#d6dbf1;fill-opacity:1;stroke:none;stroke-width:0.0398635;stroke-linecap:butt;stroke-linejoin:miter;stroke-miterlimit:4;stroke-dasharray:none;stroke-opacity:1" />
    <path
       inkscape:connector-curvature="0"
       id="path917-2-2-9"
       d="M 12.447078,4.541121 C 9.781581,4.664565 10.289376,6.433714 10.681974,7.365872 10.370922,7.475934 10.033792,7.60134 9.617982,7.735386 7.940238,4.09343 11.077745,3.619634 12.447078,4.541121 Z"
       style="fill:#d6dbf1;fill-opacity:1;stroke:none;stroke-width:0.0398635;stroke-linecap:butt;stroke-linejoin:miter;stroke-miterlimit:4;stroke-dasharray:none;stroke-opacity:1"
       sodipodi:nodetypes="cccc" />
    <path
       sodipodi:nodetypes="cscc"
       style="fill:#d6dbf1;fill-opacity:1;stroke:none;stroke-width:0.0398635;stroke-linecap:butt;stroke-linejoin:miter;stroke-miterlimit:4;stroke-dasharray:none;stroke-opacity:1"
       d="M 7.766668,12.663314 C 6.462313,10.617208 6.703148,8.741776 9.257252,7.767365 11.777742,6.805761 14.047158,6.170969 15.747021,5.464388 11.159737,7.59376 5.415543,9.016589 7.766668,12.663314 Z"
       id="path919-9-9-1"
       inkscape:connector-curvature="0" />
    <path
       d="M 10.983334,16.866667 H 5.651173 a 0.43527865,0.41014402 0 0 0 0,0.820288 h 5.332161 a 0.43527865,0.41014402 0 0 0 0,-0.820288 z"
       id="path10-0-2"
       style="fill:#d6dbf1;fill-opacity:1;stroke-width:0.211262" />
  </g>
  <g
     id="kate">
    <rect
       style="opacity:0.00100002;fill:#a8aeca;fill-opacity:1"
       width="32"
       height="32"
       x="0"
       y="0"
       id="rect7" />
    <path
       d="M 24.755108,4 H 7.244921 C 6.010227,4 5,4.9 5,5.999998 v 19.999998 c 0,1.100003 1.010227,2.000003 2.244921,2.000003 h 17.510187 c 1.234695,0 2.244892,-0.9 2.244892,-2.000003 V 5.999998 C 27,4.9 25.989803,4 24.755108,4 Z m 1.122456,21.999997 c 0,0.549994 -0.505133,0.999994 -1.122456,0.999994 H 7.244921 c -0.617373,0 -1.122457,-0.45 -1.122457,-0.999994 V 5.999998 C 6.122464,5.45 6.627548,5 7.244921,5 h 17.510187 c 0.617323,0 1.122456,0.45 1.122456,0.999998 z"
       id="path2-3"
       style="fill:#d6dbf1;fill-opacity:1;stroke-width:0.529727" />
    <rect
       style="fill:#4e5a7e;fill-opacity:0.501961;stroke:none;stroke-width:0.521408"
       id="center-3-35"
       width="19.772121"
       height="22"
       x="6.1278772"
       y="4.9999981"
       ry="0.82111573" />
    <path
       style="fill:#d6dbf1;fill-opacity:1;stroke:none;stroke-width:0.0597952;stroke-linecap:butt;stroke-linejoin:miter;stroke-miterlimit:4;stroke-dasharray:none;stroke-opacity:1"
       d="M 13.276178,11.342603 C 12.621047,8.6929833 8.9188452,9.3358943 8.3,9.2783703 8.9945784,8.8583363 9.6222723,8.5120903 11.054175,7.2484246 13.812649,4.8140089 16.733127,5.3449142 18.195616,6.3116812 14.197371,6.496847 14.959064,9.1505713 15.54796,10.548807 c -0.748905,0.265018 -1.931132,0.665079 -2.271782,0.793796 z"
       id="path905-3-36"
       inkscape:connector-curvature="0" />
    <path
       sodipodi:nodetypes="cssscccccsssc"
       inkscape:connector-curvature="0"
       id="path907-6-7"
       d="m 23.145531,7.6965822 c -1.439769,2.3168838 -3.833545,5.4471298 -6.453414,5.8594428 -2.619843,0.412341 -5.117445,-0.04437 -5.69599,2.332546 -0.532788,2.189026 1.341086,4.232825 3.284609,3.74024 2.076294,-0.526237 1.627865,-3.393205 0.492237,-5.345558 0.862615,-0.06039 0.702158,-0.04454 2.164995,-0.13449 2.180436,2.264267 2.90317,2.909828 6.712512,6.213358 -2.935549,-0.374576 -4.003967,-0.718455 -6.109444,-2.252763 0.545422,1.667913 1.711215,5.453403 1.963742,8.390642 -1.214363,-2.125827 -1.674724,-2.907057 -3.556702,-4.440694 -2.410667,-1.964505 -4.36303,-2.031021 -5.493037,-4.925302 -1.1275618,-2.888058 0.364917,-4.968407 3.03559,-5.869343 3.816616,-1.2875167 7.105107,-2.5082094 9.654902,-3.5680806 z"
       style="fill:#d6dbf1;fill-opacity:1;stroke:none;stroke-width:0.0597952;stroke-linecap:butt;stroke-linejoin:miter;stroke-miterlimit:4;stroke-dasharray:none;stroke-opacity:1" />
    <path
       sodipodi:nodetypes="cccc"
       inkscape:connector-curvature="0"
       id="path909-7-5"
       d="m 14.772973,14.283253 c 0.862615,-0.06039 0.702158,-0.04454 2.164995,-0.13449 2.180436,2.264267 2.90317,2.909828 6.712512,6.213358 -3.82891,-0.333692 -6.725967,-1.709423 -8.877507,-6.078874 z"
       style="fill:#d6dbf1;fill-opacity:1;stroke:none;stroke-width:0.0597952;stroke-linecap:butt;stroke-linejoin:miter;stroke-miterlimit:4;stroke-dasharray:none;stroke-opacity:1" />
    <path
       style="fill:#d6dbf1;fill-opacity:1;stroke:none;stroke-width:0.0597952;stroke-linecap:butt;stroke-linejoin:miter;stroke-miterlimit:4;stroke-dasharray:none;stroke-opacity:1"
       d="m 23.145531,7.6965822 c -1.439769,2.3168838 -3.833545,5.4471298 -6.453414,5.8594428 -2.619843,0.412341 -5.117445,-0.04437 -5.69599,2.332546 -0.532788,2.189026 1.341086,4.232825 3.284609,3.74024 2.076294,-0.526237 1.627865,-3.393205 0.492237,-5.345558 0.862615,-0.06039 0.702158,-0.04454 2.164995,-0.13449 2.180436,2.264267 2.90317,2.909828 6.712512,6.213358 -2.935549,-0.374576 -4.003967,-0.718455 -6.109444,-2.252763 0.545422,1.667913 1.711215,5.453403 1.963742,8.390642 -1.214363,-2.125827 -1.674724,-2.907057 -3.556702,-4.440694 -2.410667,-1.964505 -4.36303,-2.031021 -5.493037,-4.925302 -1.1275618,-2.888058 0.364917,-4.968407 3.03559,-5.869343 3.816616,-1.2875167 7.105107,-2.5082094 9.654902,-3.5680806 z"
       id="path911-53-3"
       inkscape:connector-curvature="0"
       sodipodi:nodetypes="cssscccccsssc" />
    <path
       style="fill:#d6dbf1;fill-opacity:1;stroke:none;stroke-width:0.0597952;stroke-linecap:butt;stroke-linejoin:miter;stroke-miterlimit:4;stroke-dasharray:none;stroke-opacity:1"
       d="m 14.772973,14.283253 c 0.862615,-0.06039 0.702158,-0.04454 2.164995,-0.13449 2.180436,2.264267 2.90317,2.909828 6.712512,6.213358 -3.82891,-0.333692 -6.725967,-1.709423 -8.877507,-6.078874 z"
       id="path913-5-5"
       inkscape:connector-curvature="0"
       sodipodi:nodetypes="cccc" />
    <path
       sodipodi:nodetypes="ccccc"
       inkscape:connector-curvature="0"
       id="path915-6-6"
       d="M 8.3,9.2783703 C 8.9945784,8.8583363 9.6222723,8.5120903 11.054175,7.2484246 13.812649,4.8140089 16.733127,5.3449142 18.195616,6.3116812 14.197371,6.496847 14.712528,7.4673624 14.697766,8.2282094 12.04132,7.5460464 11.265688,8.4742091 8.3,9.2783703 Z"
       style="fill:#d6dbf1;fill-opacity:1;stroke:none;stroke-width:0.0597952;stroke-linecap:butt;stroke-linejoin:miter;stroke-miterlimit:4;stroke-dasharray:none;stroke-opacity:1" />
    <path
       inkscape:connector-curvature="0"
       id="path917-2-2"
       d="M 18.195616,6.3116812 C 14.197371,6.496847 14.959064,9.1505713 15.54796,10.548807 15.081383,10.7139 14.575688,10.90201 13.951973,11.103078 11.435357,5.6401452 16.141617,4.9294505 18.195616,6.3116812 Z"
       style="fill:#d6dbf1;fill-opacity:1;stroke:none;stroke-width:0.0597952;stroke-linecap:butt;stroke-linejoin:miter;stroke-miterlimit:4;stroke-dasharray:none;stroke-opacity:1"
       sodipodi:nodetypes="cccc" />
    <path
       sodipodi:nodetypes="cscc"
       style="fill:#d6dbf1;fill-opacity:1;stroke:none;stroke-width:0.0597952;stroke-linecap:butt;stroke-linejoin:miter;stroke-miterlimit:4;stroke-dasharray:none;stroke-opacity:1"
       d="M 11.175001,18.49497 C 9.2184687,15.425811 9.5797223,12.612663 13.410878,11.151047 17.191613,9.7086413 20.595736,8.7564533 23.145531,7.6965822 16.264605,10.89064 7.6483136,13.024883 11.175001,18.49497 Z"
       id="path919-9-9"
       inkscape:connector-curvature="0" />
    <path
       d="M 16,24.8 H 8.00176 a 0.65291795,0.615216 0 0 0 0,1.230432 H 16 A 0.65291795,0.615216 0 0 0 16,24.8 Z"
       id="path10-0"
       style="fill:#d6dbf1;fill-opacity:1;stroke-width:0.316893" />
  </g>
  <metadata
     id="metadata18">
    <rdf:RDF>
      <cc:Work
         rdf:about="">
        <dc:format>image/svg+xml</dc:format>
        <dc:type
           rdf:resource="http://purl.org/dc/dcmitype/StillImage" />
      </cc:Work>
    </rdf:RDF>
  </metadata>
  <defs
     id="defs16" />
  <sodipodi:namedview
     pagecolor="#ffffff"
     bordercolor="#000000"
     borderopacity="1"
     objecttolerance="10"
     gridtolerance="10"
     guidetolerance="10"
     inkscape:pageopacity="0"
     inkscape:pageshadow="2"
     inkscape:window-width="1920"
     inkscape:window-height="1007"
     id="namedview14"
     showgrid="false"
     inkscape:zoom="9.8125"
     inkscape:cx="31.184713"
     inkscape:cy="20.33121"
     inkscape:window-x="0"
     inkscape:window-y="0"
     inkscape:window-maximized="1"
     inkscape:current-layer="svg12"
     inkscape:document-rotation="0"
     inkscape:showpageshadow="false"
     inkscape:lockguides="true"
     inkscape:pagecheckerboard="0">
    <inkscape:grid
       type="xygrid"
       id="grid1003"
       originx="0"
       originy="0" />
  </sodipodi:namedview>
</svg>
