<?xml version="1.0" encoding="UTF-8" standalone="no"?>
<svg
   sodipodi:docname="kdeconnect.svg"
   height="31.999973"
   width="32.000015"
   inkscape:version="1.1.1 (3bf5ae0d25, 2021-09-20)"
   version="1.1"
   id="svg"
   viewBox="0 0 32.000012 31.999973"
   xmlns:inkscape="http://www.inkscape.org/namespaces/inkscape"
   xmlns:sodipodi="http://sodipodi.sourceforge.net/DTD/sodipodi-0.dtd"
   xmlns="http://www.w3.org/2000/svg"
   xmlns:svg="http://www.w3.org/2000/svg"
   xmlns:rdf="http://www.w3.org/1999/02/22-rdf-syntax-ns#"
   xmlns:cc="http://creativecommons.org/ns#"
   xmlns:dc="http://purl.org/dc/elements/1.1/">
  <g
     id="22-22-kdeconnect"
     transform="translate(34,9.9999999)">
    <rect
       style="fill:#000000;fill-opacity:0;stroke:none"
       id="rect3841"
       width="22"
       height="22"
       x="-1.607666e-08"
       y="3.334961e-07"
       ry="0" />
    <path
       d="M 14.979595,3 H 7.020419 C 6.459194,3 6,3.6 6,4.333333 V 17.666665 C 6,18.4 6.459194,19 7.020419,19 h 7.959176 C 15.540819,19 16,18.4 16,17.666665 V 4.333333 C 16,3.6 15.540819,3 14.979595,3 Z m 0.510207,14.666665 c 0,0.366663 -0.229606,0.666663 -0.510207,0.666663 H 7.020419 c -0.280625,0 -0.510208,-0.3 -0.510208,-0.666663 V 4.333333 c 0,-0.366666 0.229583,-0.666666 0.510208,-0.666666 h 7.959176 c 0.280601,0 0.510207,0.3 0.510207,0.666666 z"
       id="path2-7"
       style="fill:#d6dbf1;fill-opacity:1;stroke-width:0.291605" />
    <rect
       style="fill:#4e5a7e;fill-opacity:0.501961;stroke:none;stroke-width:0.287229"
       id="center-3-35-5"
       width="9"
       height="14.666667"
       x="6.5"
       y="3.6666565"
       ry="0.54741043" />
    <rect
       x="9.1999998"
       y="3"
       width="3.5555546"
       height="1.2222222"
       id="rect14-0-8-3-3"
       style="fill:#d6dbf1;fill-opacity:1;stroke-width:0.981307"
       ry="0.6111111"
       rx="0.71111029" />
    <path
       style="color:#000000;clip-rule:nonzero;display:inline;overflow:visible;visibility:visible;isolation:auto;mix-blend-mode:normal;color-interpolation:sRGB;color-interpolation-filters:linearRGB;solid-color:#000000;solid-opacity:1;fill:#d6dbf1;fill-opacity:1;fill-rule:nonzero;stroke:none;stroke-width:1.22627;stroke-linecap:butt;stroke-linejoin:miter;stroke-miterlimit:4;stroke-dasharray:none;stroke-dashoffset:0;stroke-opacity:1;color-rendering:auto;image-rendering:auto;shape-rendering:auto;text-rendering:auto;enable-background:accumulate"
       d="m 7.897367,9.5000001 c -0.283127,0.0033 -0.565814,0.02433 -0.84618,0.0642 L 6.72172,11.137439 c -0.108313,0.02827 -0.215567,0.0598 -0.32172,0.09513 v 2.15204 c 0.454833,-0.263326 0.971307,-0.402667 1.497367,-0.403993 1.653946,0 2.994773,1.335666 2.994773,2.983293 -0.0013,1.000707 -0.505333,1.934294 -1.34334,2.486087 h 2.661347 c 0.239413,-0.410127 0.418633,-0.852253 0.5323,-1.312953 l 1.58122,-0.330167 c 0.03933,-0.279334 0.06,-0.560907 0.06233,-0.842953 -0.0033,-0.28208 -0.02427,-0.563627 -0.06447,-0.84292 l -1.579253,-0.32826 c -0.121227,-0.498647 -0.3192,-0.975634 -0.586867,-1.413967 l 0.885167,-1.34794 c -0.345913,-0.446633 -0.74906,-0.846227 -1.199107,-1.188647 l -1.3492,0.88178 c -0.44,-0.266646 -0.918786,-0.463866 -1.41936,-0.584613 l -0.3295,-1.5770869 c -0.280406,-0.0392 -0.5631,-0.0598 -0.846226,-0.06213 z"
       id="path6302-1-6-5"
       inkscape:connector-curvature="0"
       sodipodi:nodetypes="ccccccccccccccccccccc" />
  </g>
  <defs
     id="defs81">
    <style
       type="text/css"
       id="current-color-scheme" />
    <style
       id="current-color-scheme-9"
       type="text/css" />
    <linearGradient
       id="oomox"
       x1="448.98987"
       x2="448.98987"
       y1="94.879333"
       y2="107.52991"
       gradientTransform="matrix(1.1859917,0,0,1.8971464,-523.99826,-176)"
       gradientUnits="userSpaceOnUse">
      <stop
         offset="0%"
         style="stop-color:#303b3d; stop-opacity:1"
         id="stop18" />
      <stop
         offset="100%"
         style="stop-color:#bc985d; stop-opacity:1"
         id="stop20" />
    </linearGradient>
    <linearGradient
       id="oomox-3"
       x1="0"
       x2="0"
       y1="0"
       y2="1">
      <stop
         offset="0%"
         style="stop-color:#303b3d; stop-opacity:1"
         id="stop18-6" />
      <stop
         offset="100%"
         style="stop-color:#bc985d; stop-opacity:1"
         id="stop20-7" />
    </linearGradient>
  </defs>
  <metadata
     id="metadata34">
    <rdf:RDF>
      <cc:Work
         rdf:about="">
        <dc:format>image/svg+xml</dc:format>
        <dc:type
           rdf:resource="http://purl.org/dc/dcmitype/StillImage" />
      </cc:Work>
    </rdf:RDF>
  </metadata>
  <sodipodi:namedview
     inkscape:document-rotation="0"
     fit-margin-bottom="0"
     fit-margin-right="0"
     fit-margin-left="0"
     fit-margin-top="0"
     inkscape:snap-bbox-midpoints="true"
     inkscape:snap-bbox="true"
     inkscape:guide-bbox="true"
     showguides="true"
     borderlayer="false"
     inkscape:current-layer="svg"
     inkscape:window-maximized="1"
     inkscape:window-y="0"
     inkscape:window-x="0"
     inkscape:cy="14.539882"
     inkscape:cx="24.395182"
     inkscape:zoom="11.313709"
     showgrid="false"
     id="namedview32"
     inkscape:window-height="1007"
     inkscape:window-width="1920"
     inkscape:pageshadow="2"
     inkscape:pageopacity="0.11372549"
     guidetolerance="10"
     gridtolerance="10"
     objecttolerance="10"
     borderopacity="1"
     bordercolor="#000000"
     pagecolor="#ffffff"
     inkscape:lockguides="false"
     inkscape:showpageshadow="false"
     inkscape:pagecheckerboard="0">
    <inkscape:grid
       spacingy="0.99999995"
       spacingx="0.99999995"
       originy="4.0478515e-07"
       originx="2.0000008"
       snapvisiblegridlinesonly="true"
       enabled="true"
       visible="true"
       empspacing="5"
       id="grid3046"
       type="xygrid" />
  </sodipodi:namedview>
  <g
     id="kdeconnect">
    <rect
       width="32.000015"
       height="31.999973"
       rx="0"
       ry="0"
       x="-4.4677737e-09"
       y="9.5214844e-08"
       id="rect3860"
       style="opacity:0.01;fill:#a8aeca;fill-opacity:1;stroke:none" />
    <path
       d="M 21.969392,4 H 10.030629 C 9.188791,4 8.5,4.9 8.5,5.999999 V 25.999998 C 8.5,27.1 9.188791,28 10.030629,28 H 21.969392 C 22.811229,28 23.5,27.1 23.5,25.999998 V 5.999999 C 23.5,4.9 22.811229,4 21.969392,4 Z m 0.765311,21.999998 c 0,0.549994 -0.344409,0.999994 -0.765311,0.999994 H 10.030629 c -0.420938,0 -0.765313,-0.45 -0.765313,-0.999994 V 5.999999 C 9.265316,5.45 9.609691,5 10.030629,5 h 11.938763 c 0.420902,0 0.765311,0.45 0.765311,0.999999 z"
       id="path2"
       style="fill:#d6dbf1;fill-opacity:1;stroke-width:0.437407" />
    <rect
       style="fill:#4e5a7e;fill-opacity:0.501961;stroke:none;stroke-width:0.430843"
       id="center-3-35"
       width="13.5"
       height="22"
       x="9.25"
       y="5"
       ry="0.82111549" />
    <rect
       x="13.3"
       y="4"
       width="5.3333321"
       height="1.8333333"
       id="rect14-0-8-3"
       style="fill:#d6dbf1;fill-opacity:1;stroke-width:1.47196"
       ry="0.91666663"
       rx="1.0666654" />
    <path
       style="color:#000000;clip-rule:nonzero;display:inline;overflow:visible;visibility:visible;isolation:auto;mix-blend-mode:normal;color-interpolation:sRGB;color-interpolation-filters:linearRGB;solid-color:#000000;solid-opacity:1;fill:#d6dbf1;fill-opacity:1;fill-rule:nonzero;stroke:none;stroke-width:1.8394;stroke-linecap:butt;stroke-linejoin:miter;stroke-miterlimit:4;stroke-dasharray:none;stroke-dashoffset:0;stroke-opacity:1;color-rendering:auto;image-rendering:auto;shape-rendering:auto;text-rendering:auto;enable-background:accumulate"
       d="m 11.44605,13.7 c -0.42469,0.005 -0.84872,0.0365 -1.26927,0.0963 l -0.4942,2.359859 c -0.16247,0.0424 -0.32335,0.0897 -0.48258,0.1427 v 3.228061 c 0.68225,-0.39499 1.45696,-0.604001 2.24605,-0.60599 2.48092,0 4.49216,2.003499 4.49216,4.47494 -0.002,1.50106 -0.758,2.90144 -2.01501,3.72913 h 3.99202 c 0.35912,-0.61519 0.62795,-1.27838 0.79845,-1.96943 l 2.37183,-0.49525 c 0.059,-0.419001 0.09,-0.84136 0.0935,-1.26443 -0.005,-0.42312 -0.0364,-0.84544 -0.0967,-1.26438 l -2.36888,-0.49239 c -0.18184,-0.74797 -0.4788,-1.46345 -0.8803,-2.12095 l 1.32775,-2.02191 C 18.642,16.82631 18.03728,16.22692 17.36221,15.71329 l -2.0238,1.32267 c -0.66,-0.39997 -1.37818,-0.6958 -2.12904,-0.87692 l -0.49425,-2.36563 c -0.42061,-0.0588 -0.84465,-0.0897 -1.26934,-0.0932 z"
       id="path6302-1-6"
       inkscape:connector-curvature="0"
       sodipodi:nodetypes="ccccccccccccccccccccc" />
  </g>
</svg>
