<?xml version="1.0" encoding="UTF-8" standalone="no"?>
<svg
   sodipodi:docname="kdeconnect.svg"
   height="31.999973"
   width="32.000015"
   inkscape:version="1.1.2 (0a00cf5339, 2022-02-04)"
   version="1.1"
   id="svg"
   viewBox="0 0 32.000012 31.999973"
   xmlns:inkscape="http://www.inkscape.org/namespaces/inkscape"
   xmlns:sodipodi="http://sodipodi.sourceforge.net/DTD/sodipodi-0.dtd"
   xmlns="http://www.w3.org/2000/svg"
   xmlns:svg="http://www.w3.org/2000/svg"
   xmlns:rdf="http://www.w3.org/1999/02/22-rdf-syntax-ns#"
   xmlns:cc="http://creativecommons.org/ns#"
   xmlns:dc="http://purl.org/dc/elements/1.1/">
  <defs
     id="defs81">
    <style
       type="text/css"
       id="current-color-scheme" />
    <style
       id="current-color-scheme-9"
       type="text/css" />
    <linearGradient
       id="oomox"
       x1="448.98987"
       x2="448.98987"
       y1="94.879333"
       y2="107.52991"
       gradientTransform="matrix(1.1859917,0,0,1.8971464,-523.99826,-176)"
       gradientUnits="userSpaceOnUse">
      <stop
         offset="0%"
         style="stop-color:#303b3d; stop-opacity:1"
         id="stop18" />
      <stop
         offset="100%"
         style="stop-color:#bc985d; stop-opacity:1"
         id="stop20" />
    </linearGradient>
    <linearGradient
       id="oomox-3"
       x1="0"
       x2="0"
       y1="0"
       y2="1">
      <stop
         offset="0%"
         style="stop-color:#303b3d; stop-opacity:1"
         id="stop18-6" />
      <stop
         offset="100%"
         style="stop-color:#bc985d; stop-opacity:1"
         id="stop20-7" />
    </linearGradient>
  </defs>
  <metadata
     id="metadata34">
    <rdf:RDF>
      <cc:Work
         rdf:about="">
        <dc:format>image/svg+xml</dc:format>
        <dc:type
           rdf:resource="http://purl.org/dc/dcmitype/StillImage" />
      </cc:Work>
    </rdf:RDF>
  </metadata>
  <sodipodi:namedview
     inkscape:document-rotation="0"
     fit-margin-bottom="0"
     fit-margin-right="0"
     fit-margin-left="0"
     fit-margin-top="0"
     inkscape:snap-bbox-midpoints="true"
     inkscape:snap-bbox="true"
     inkscape:guide-bbox="true"
     showguides="true"
     borderlayer="false"
     inkscape:current-layer="svg"
     inkscape:window-maximized="1"
     inkscape:window-y="0"
     inkscape:window-x="0"
     inkscape:cy="13.037281"
     inkscape:cx="21.345785"
     inkscape:zoom="11.313709"
     showgrid="false"
     id="namedview32"
     inkscape:window-height="1009"
     inkscape:window-width="1920"
     inkscape:pageshadow="2"
     inkscape:pageopacity="0.11372549"
     guidetolerance="10"
     gridtolerance="10"
     objecttolerance="10"
     borderopacity="1"
     bordercolor="#000000"
     pagecolor="#ffffff"
     inkscape:lockguides="false"
     inkscape:showpageshadow="false"
     inkscape:pagecheckerboard="0">
    <inkscape:grid
       spacingy="0.99999995"
       spacingx="0.99999995"
       originy="1.0478516e-07"
       originx="2.0000038"
       snapvisiblegridlinesonly="true"
       enabled="true"
       visible="true"
       empspacing="5"
       id="grid3046"
       type="xygrid" />
  </sodipodi:namedview>
  <g
     id="kdeconnect">
    <rect
       width="32.000015"
       height="31.999973"
       rx="0"
       ry="0"
       x="-4.4677737e-09"
       y="9.5214844e-08"
       id="rect3860"
       style="opacity:0.01;fill:#a8aeca;fill-opacity:1;stroke:none" />
    <rect
       style="fill:#4e5a7e;fill-opacity:0.501961;stroke:none;stroke-width:0.460108"
       id="center-3-35"
       width="14.727272"
       height="23"
       x="8.5"
       y="4.5"
       ry="0.85843897" />
    <rect
       x="13.3"
       y="4"
       width="5.3333321"
       height="1.8333333"
       id="rect14-0-8-3"
       style="fill:#d6dbf1;fill-opacity:1;stroke-width:1.47196"
       ry="0.91666663"
       rx="1.0666654" />
    <path
       style="color:#000000;clip-rule:nonzero;display:inline;overflow:visible;visibility:visible;isolation:auto;mix-blend-mode:normal;color-interpolation:sRGB;color-interpolation-filters:linearRGB;solid-color:#000000;solid-opacity:1;fill:#d6dbf1;fill-opacity:1;fill-rule:nonzero;stroke:none;stroke-width:1.8394;stroke-linecap:butt;stroke-linejoin:miter;stroke-miterlimit:4;stroke-dasharray:none;stroke-dashoffset:0;stroke-opacity:1;color-rendering:auto;image-rendering:auto;shape-rendering:auto;text-rendering:auto;enable-background:accumulate"
       d="m 11.24605,13.6 c -0.42469,0.005 -0.84872,0.0365 -1.26927,0.0963 l -0.4942,2.359859 c -0.16247,0.0424 -0.32335,0.0897 -0.48258,0.1427 v 3.228061 c 0.68225,-0.39499 1.45696,-0.604001 2.24605,-0.60599 2.48092,0 4.49216,2.003499 4.49216,4.47494 -0.002,1.50106 -0.758,2.90144 -2.01501,3.72913 h 3.99202 c 0.35912,-0.61519 0.62795,-1.27838 0.79845,-1.96943 l 2.37183,-0.49525 c 0.059,-0.419001 0.09,-0.84136 0.0935,-1.26443 -0.005,-0.42312 -0.0364,-0.84544 -0.0967,-1.26438 l -2.36888,-0.49239 c -0.18184,-0.74797 -0.4788,-1.46345 -0.8803,-2.12095 l 1.32775,-2.02191 C 18.442,16.72631 17.83728,16.12692 17.16221,15.61329 l -2.0238,1.32267 c -0.66,-0.39997 -1.37818,-0.6958 -2.12904,-0.87692 l -0.49425,-2.36563 c -0.42061,-0.0588 -0.84465,-0.0897 -1.26934,-0.0932 z"
       id="path6302-1-6"
       inkscape:connector-curvature="0"
       sodipodi:nodetypes="ccccccccccccccccccccc" />
    <path
       d="M 22.367352,4.0000002 H 9.632669 C 8.73471,4.0000002 8,4.9000002 8,5.9999992 V 25.999998 C 8,27.1 8.73471,28 9.632669,28 H 22.367352 C 23.265309,28 24,27.1 24,25.999998 V 5.9999992 c 0,-1.099999 -0.734691,-1.999999 -1.632648,-1.999999 z M 23,25.999998 c 0,0.549994 -0.183686,0.999994 -0.632648,0.999994 H 9.632669 C 9.18367,26.999992 9,26.549992 9,25.999998 V 5.9999992 c 0,-0.549999 0.184066,-0.999999 0.63307,-0.999999 h 12.734282 c 0.448962,0 0.632648,0.45 0.632648,0.999999 z"
       id="path2-3"
       style="fill:#d6dbf1;fill-opacity:1;stroke-width:0.451752"
       sodipodi:nodetypes="ssssssssssssssssss" />
  </g>
  <g
     id="22-22-kdeconnect"
     transform="translate(34,9.9999999)">
    <g
       id="g5438">
      <rect
         style="fill:#000000;fill-opacity:0;stroke:none"
         id="rect3841"
         width="22"
         height="22"
         x="-1.607666e-08"
         y="3.334961e-07"
         ry="0" />
      <rect
         style="fill:#4e5a7e;fill-opacity:0.501961;stroke:none;stroke-width:0.321132"
         id="center-3-35-5"
         width="11"
         height="15"
         x="5.5"
         y="3.5"
         ry="0.55985153" />
      <rect
         x="8.6999998"
         y="3"
         width="4.6999998"
         height="1.6"
         id="rect14-0-8-3-3"
         style="fill:#d6dbf1;fill-opacity:1;stroke-width:1.29089"
         ry="0.80000001"
         rx="0.93999916" />
      <path
         style="color:#000000;clip-rule:nonzero;display:inline;overflow:visible;visibility:visible;isolation:auto;mix-blend-mode:normal;color-interpolation:sRGB;color-interpolation-filters:linearRGB;solid-color:#000000;solid-opacity:1;fill:#d6dbf1;fill-opacity:1;fill-rule:nonzero;stroke:none;stroke-width:1.22627;stroke-linecap:butt;stroke-linejoin:miter;stroke-miterlimit:4;stroke-dasharray:none;stroke-dashoffset:0;stroke-opacity:1;color-rendering:auto;image-rendering:auto;shape-rendering:auto;text-rendering:auto;enable-background:accumulate"
         d="M 7.4973676,9.1 C 7.2142404,9.1033 6.9315533,9.12433 6.6511872,9.1642 l -0.329467,1.573239 C 6.2134071,10.765709 6.106153,10.797239 6,10.832569 v 2.15204 c 0.4548332,-0.263326 0.9713073,-0.402667 1.4973676,-0.403993 1.6539466,0 2.9947734,1.335666 2.9947734,2.983293 -0.0013,1.000707 -0.505333,1.934294 -1.3433398,2.486087 h 2.6613478 c 0.239413,-0.410127 0.418633,-0.852253 0.532301,-1.312953 l 1.58122,-0.330167 c 0.03933,-0.279334 0.06,-0.560907 0.06233,-0.842953 -0.0033,-0.28208 -0.02427,-0.563627 -0.06447,-0.84292 l -1.579254,-0.32826 c -0.12123,-0.498647 -0.319203,-0.975634 -0.58687,-1.413967 l 0.885168,-1.34794 C 12.29466,11.184203 11.891513,10.784609 11.441466,10.442189 l -1.3492,0.88178 C 9.652268,11.057323 9.1734822,10.860103 8.672908,10.739356 L 8.3434079,9.162269 C 8.0630017,9.123069 7.7803077,9.102469 7.4971816,9.100139 Z"
         id="path6302-1-6-5"
         inkscape:connector-curvature="0"
         sodipodi:nodetypes="ccccccccccccccccccccc" />
      <path
         d="M 15.775515,2.9999998 H 6.2245031 c -0.673471,0 -1.224503,0.6 -1.224503,1.333333 V 17.666665 C 5.0000001,18.4 5.5510321,19 6.2245031,19 H 15.775515 C 16.448979,19 17,18.4 17,17.666665 V 4.3333328 c 0,-0.733333 -0.551021,-1.333333 -1.224485,-1.333333 z m 0.224487,14.9999992 v 0 H 6.0000021 v 0 -13.9999992 0 h 9.9999999 v 0 z"
         id="path2-7-6"
         style="fill:#d6dbf1;fill-opacity:1;stroke-width:0.319438"
         sodipodi:nodetypes="sssssssssccccccccc" />
    </g>
  </g>
</svg>
