<?xml version="1.0" encoding="UTF-8" standalone="no"?>
<svg
   width="32"
   height="32"
   version="1.1"
   id="svg12"
   sodipodi:docname="kdf.svg"
   inkscape:version="1.2.1 (9c6d41e410, 2022-07-14)"
   xmlns:inkscape="http://www.inkscape.org/namespaces/inkscape"
   xmlns:sodipodi="http://sodipodi.sourceforge.net/DTD/sodipodi-0.dtd"
   xmlns="http://www.w3.org/2000/svg"
   xmlns:svg="http://www.w3.org/2000/svg"
   xmlns:rdf="http://www.w3.org/1999/02/22-rdf-syntax-ns#"
   xmlns:cc="http://creativecommons.org/ns#"
   xmlns:dc="http://purl.org/dc/elements/1.1/">
  <g
     id="22-22-kdf"
     transform="translate(32,10)">
    <rect
       style="opacity:0.00100002"
       width="22"
       height="22"
       x="-22"
       y="0"
       ry="0"
       id="rect2"
       transform="scale(-1,1)" />
    <rect
       style="fill:#4e5a7e;fill-opacity:0.501961;stroke:none;stroke-width:0.347605"
       id="center-3-35-6"
       width="13.181415"
       height="14.666667"
       x="4.4092927"
       y="3.6666665"
       ry="0.54741049" />
    <path
       d="m 11.025253,6.000014 c -2.347442,0 -4.250244,1.856594 -4.250244,4.194061 0,0.756511 0.200357,1.555684 0.54961,2.042643 h -0.0023 l 0.05014,0.12196 c 0.0086,0.01402 0.01681,0.04735 0.02533,0.06133 L 9.283263,16 11.024769,14.187676 c 0.266024,0.05197 -0.281305,0 0,0 2.347433,3e-6 4.25024,-1.619344 4.25024,-3.956698 C 15.275009,7.893496 13.372202,6 11.024769,6 Z m 0,6.232044 c -1.10927,0 -2.008248,-0.895333 -2.008248,-1.999854 0,-1.104215 0.898978,-1.999526 2.008248,-1.999526 1.109069,0 2.008228,0.895311 2.008228,1.999526 0,1.104521 -0.899159,1.999854 -2.008228,1.999854 z"
       id="path2-36-3-5"
       style="fill:#d1d5e9;fill-opacity:1;stroke-width:0.0187698"
       sodipodi:nodetypes="csccccccssccsssss" />
    <path
       d="M 16.571432,3 H 5.428586 C 4.642872,3 4,3.6 4,4.333332 V 17.666665 C 4,18.4 4.642872,19 5.428586,19 H 16.571432 C 17.357149,19 18,18.4 18,17.666665 V 4.333332 C 18,3.6 17.357149,3 16.571432,3 Z M 17,17 c 0,1 0,1 -1,1 H 6 C 5,18 5,18 5,17 V 5 C 5,4 5,4 6,4 h 10 c 1,0 1,0 1,1 z"
       id="path2-3-3-3-0-3"
       style="fill:#d1d5e9;fill-opacity:1;stroke-width:0.345031"
       sodipodi:nodetypes="ssssssssscscccsscc" />
  </g>
  <g
     id="kdf">
    <rect
       style="opacity:0.00100002"
       width="32"
       height="32"
       x="-32"
       y="0"
       ry="0"
       transform="scale(-1,1)"
       id="rect7" />
    <rect
       style="fill:#4e5a7e;fill-opacity:0.501961;stroke:none;stroke-width:0.541434"
       id="center-3-35"
       width="20.572001"
       height="22.799999"
       x="5.7140002"
       y="4.6999998"
       ry="0.8509742" />
    <path
       d="M 15.999707,8.000098 C 12.13371,8.000098 9,10.970625 9,14.710581 c 0,1.210406 0.329952,2.489093 0.90515,3.268214 h -0.0023 l 0.08247,0.19514 c 0.0146,0.02252 0.02759,0.07585 0.04175,0.09807 L 13.132153,24 16.000242,21.10027 c 0.438112,0.08312 -0.463288,0 0,0 3.86599,0 6.999714,-2.590945 6.999714,-6.330736 C 22.999728,11.029599 19.866008,8 16.000013,8 Z m 0,9.971251 c -1.826839,0 -3.30736,-1.432547 -3.30736,-3.199762 0,-1.766738 1.480521,-3.199255 3.30736,-3.199255 1.826529,0 3.307368,1.432517 3.307368,3.199255 0,1.767215 -1.480839,3.199762 -3.307368,3.199762 z"
       id="path2-36-36"
       style="fill:#d1d5e9;fill-opacity:1;stroke-width:0.0304693"
       sodipodi:nodetypes="csccccccssccsssss" />
    <path
       d="M 24.755108,4 H 7.244921 C 6.010227,4 5,4.9 5,5.999998 V 25.999997 C 5,27.1 6.010227,28 7.244921,28 H 24.755108 C 25.989803,28 27,27.1 27,25.999997 V 5.999998 C 27,4.9 25.989803,4 24.755108,4 Z M 26,25.999997 c 0,0.549995 -0.627569,0.999995 -1.244892,0.999995 H 7.244921 C 6.627548,26.999992 6,26.549992 6,25.999997 V 5.999998 C 6,5.45 6.627548,5 7.244921,5 H 24.755108 C 25.372431,5 26,5.45 26,5.999998 Z"
       id="path2-3-3-3-7"
       style="fill:#d1d5e9;fill-opacity:1;stroke-width:0.529727"
       sodipodi:nodetypes="ssssssssssssssssss" />
  </g>
  <metadata
     id="metadata18">
    <rdf:RDF>
      <cc:Work
         rdf:about="">
        <dc:format>image/svg+xml</dc:format>
        <dc:type
           rdf:resource="http://purl.org/dc/dcmitype/StillImage" />
      </cc:Work>
    </rdf:RDF>
  </metadata>
  <defs
     id="defs16" />
  <sodipodi:namedview
     pagecolor="#ffffff"
     bordercolor="#000000"
     borderopacity="1"
     objecttolerance="10"
     gridtolerance="10"
     guidetolerance="10"
     inkscape:pageopacity="0"
     inkscape:pageshadow="2"
     inkscape:window-width="1920"
     inkscape:window-height="1008"
     id="namedview14"
     showgrid="false"
     inkscape:zoom="8"
     inkscape:cx="35.25"
     inkscape:cy="21.8125"
     inkscape:window-x="0"
     inkscape:window-y="0"
     inkscape:window-maximized="1"
     inkscape:current-layer="svg12"
     inkscape:document-rotation="0"
     inkscape:showpageshadow="2"
     inkscape:pagecheckerboard="0"
     inkscape:deskcolor="#cccccc">
    <inkscape:grid
       type="xygrid"
       id="grid898"
       originx="0"
       originy="0" />
  </sodipodi:namedview>
</svg>
