<?xml version="1.0" encoding="UTF-8" standalone="no"?>
<svg
   width="32"
   height="32"
   version="1.1"
   id="svg12"
   sodipodi:docname="keyboard.svg"
   inkscape:version="1.1.1 (3bf5ae0d25, 2021-09-20)"
   xmlns:inkscape="http://www.inkscape.org/namespaces/inkscape"
   xmlns:sodipodi="http://sodipodi.sourceforge.net/DTD/sodipodi-0.dtd"
   xmlns="http://www.w3.org/2000/svg"
   xmlns:svg="http://www.w3.org/2000/svg"
   xmlns:rdf="http://www.w3.org/1999/02/22-rdf-syntax-ns#"
   xmlns:cc="http://creativecommons.org/ns#"
   xmlns:dc="http://purl.org/dc/elements/1.1/">
  <g
     id="22-22-keyboard-layout">
    <rect
       style="opacity:0.00100002;fill:#a8aeca;fill-opacity:1"
       width="22"
       height="22"
       x="32"
       y="10"
       id="rect2" />
    <path
       d="M 51.5,25.526874 V 16.506475 C 51.5,15.870419 50.9,15.35 50.166667,15.35 H 36.833335 C 36.1,15.35 35.5,15.870419 35.5,16.506475 v 9.020399 c 0,0.636054 0.6,1.156459 1.333335,1.156459 H 50.166667 C 50.9,26.683333 51.5,26.162928 51.5,25.526874 Z m -14.666665,0.578235 c -0.366663,0 -0.666663,-0.26022 -0.666663,-0.578235 v -9.020399 c 0,-0.318041 0.3,-0.578236 0.666663,-0.578236 h 13.333332 c 0.366666,0 0.666666,0.260195 0.666666,0.578236 v 9.020399 c 0,0.318015 -0.3,0.578235 -0.666666,0.578235 z"
       id="path2-36"
       style="fill:#d6dbf1;fill-opacity:1;stroke-width:0.310438" />
    <rect
       style="fill:#4e5a7e;fill-opacity:0.501961;stroke:none;stroke-width:0.338268;enable-background:new"
       id="center-3-35-7"
       width="10.2"
       height="14.666667"
       x="15.916668"
       y="-50.833336"
       ry="0.61680782"
       transform="rotate(90)"
       rx="0.56815726" />
    <path
       d="m 48.45346,18.016694 h -1.428592 1.27e-4 c -0.09865,0 -0.17862,0.07985 -0.17862,0.178499 v 1.428592 c 0,0.04733 0.0188,0.0928 0.05233,0.126306 0.03353,0.0334 0.07885,0.05233 0.126306,0.05233 h 1.428592 -1.27e-4 c 0.04747,0 0.0928,-0.01893 0.126299,-0.05233 0.03353,-0.03353 0.05233,-0.07897 0.05233,-0.126306 v -1.428592 c 0,-0.04733 -0.0188,-0.0928 -0.05233,-0.1263 -0.03353,-0.0334 -0.07885,-0.0522 -0.126299,-0.0522 z m -0.178619,1.428599 h -1.071488 v -1.071488 h 1.071488 z"
       id="path61-5"
       style="fill:#d6dbf1;fill-opacity:1;stroke-width:0.0318876" />
    <path
       d="m 46.346331,18.016694 h -1.428592 c -0.09865,0 -0.178618,0.07985 -0.178618,0.178499 v 1.428592 c 0,0.04733 0.01893,0.0928 0.05233,0.126306 0.03353,0.0334 0.07897,0.05233 0.126306,0.05233 h 1.428592 c 0.04733,0 0.0928,-0.01893 0.126299,-0.05233 0.0334,-0.03353 0.0522,-0.07897 0.0522,-0.126306 v -1.428592 c 0,-0.04733 -0.0188,-0.0928 -0.0522,-0.1263 -0.03353,-0.0334 -0.07897,-0.0522 -0.126299,-0.0522 z m -0.178618,1.428599 h -1.071488 v -1.071488 h 1.071488 z"
       id="path63-3"
       style="fill:#d6dbf1;fill-opacity:1;stroke-width:0.0318876" />
    <path
       d="m 42.810644,19.802397 h 1.428592 -1.26e-4 c 0.04747,0 0.0928,-0.01893 0.126299,-0.05233 0.03353,-0.03353 0.05233,-0.07897 0.05233,-0.126306 v -1.428592 c 0,-0.04733 -0.0188,-0.0928 -0.05233,-0.126299 -0.03353,-0.0334 -0.07885,-0.0522 -0.126299,-0.0522 h -1.428466 c -0.09865,0 -0.178619,0.07985 -0.178619,0.178499 v 1.428592 c 0,0.04733 0.0188,0.0928 0.05233,0.126299 0.03353,0.0334 0.07885,0.05233 0.126299,0.05233 z m 0.178619,-1.428592 h 1.071488 v 1.071488 l -1.071581,-1.27e-4 z"
       id="path65-56"
       style="fill:#d6dbf1;fill-opacity:1;stroke-width:0.0318876" />
    <path
       d="m 40.703516,19.802397 h 1.428593 c 0.04733,0 0.0928,-0.01893 0.126305,-0.05233 0.0334,-0.03353 0.05233,-0.07897 0.05233,-0.126306 v -1.428592 c 0,-0.04733 -0.01893,-0.0928 -0.05233,-0.126299 -0.03353,-0.0334 -0.07897,-0.0522 -0.126305,-0.0522 h -1.428593 c -0.09865,0 -0.178499,0.07985 -0.178499,0.178499 v 1.428592 c 0,0.04733 0.0188,0.0928 0.0522,0.126299 0.03353,0.0334 0.07897,0.05233 0.1263,0.05233 z m 0.178619,-1.428592 h 1.071488 v 1.071488 h -1.071488 z"
       id="path67-2"
       style="fill:#d6dbf1;fill-opacity:1;stroke-width:0.0318876" />
    <path
       d="m 40.007093,18.016694 h -1.428592 c -0.09853,0 -0.178499,0.07985 -0.178499,0.178499 v 1.428592 c 0,0.04733 0.0188,0.0928 0.05233,0.126306 0.0334,0.0334 0.07885,0.05233 0.12618,0.05233 h 1.428592 c 0.04733,0 0.0928,-0.01893 0.126306,-0.05233 0.03353,-0.03353 0.05233,-0.07897 0.05233,-0.126306 v -1.428592 c 0,-0.04733 -0.0188,-0.0928 -0.05233,-0.1263 -0.03353,-0.0334 -0.07897,-0.0522 -0.126306,-0.0522 z m -0.178619,1.428599 h -1.071487 v -1.071488 h 1.071487 z"
       id="path69-9"
       style="fill:#d6dbf1;fill-opacity:1;stroke-width:0.0318876" />
    <path
       d="m 48.45346,20.123822 h -1.428592 1.27e-4 c -0.09865,0 -0.17862,0.07997 -0.17862,0.178626 v 1.428592 -1.27e-4 c 0,0.04747 0.0188,0.0928 0.05233,0.1263 0.03353,0.03353 0.07885,0.05233 0.126306,0.05233 h 1.428592 -1.27e-4 c 0.04747,0 0.0928,-0.0188 0.126299,-0.05233 0.03353,-0.03353 0.05233,-0.07885 0.05233,-0.1263 v -1.428465 c 0,-0.04747 -0.0188,-0.0928 -0.05233,-0.126306 -0.03353,-0.03353 -0.07885,-0.05233 -0.126299,-0.05233 z m -0.178619,1.428599 h -1.071488 l 1.27e-4,-1.071488 h 1.071487 z"
       id="path71-1"
       style="fill:#d6dbf1;fill-opacity:1;stroke-width:0.0318876" />
    <path
       d="m 46.346331,20.123822 h -1.428592 c -0.09865,0 -0.178618,0.07997 -0.178618,0.178626 v 1.428592 -1.27e-4 c 0,0.04747 0.01893,0.0928 0.05233,0.1263 0.03353,0.03353 0.07897,0.05233 0.126306,0.05233 h 1.428592 c 0.04733,0 0.0928,-0.0188 0.126299,-0.05233 0.0334,-0.03353 0.0522,-0.07885 0.0522,-0.1263 v -1.428465 c 0,-0.04747 -0.0188,-0.0928 -0.0522,-0.126306 -0.03353,-0.03353 -0.07897,-0.05233 -0.126299,-0.05233 z m -0.178618,1.428599 h -1.071488 l 1.26e-4,-1.071488 h 1.071488 z"
       id="path73-27"
       style="fill:#d6dbf1;fill-opacity:1;stroke-width:0.0318876" />
    <path
       d="m 42.810644,21.909525 h 1.428592 -1.26e-4 c 0.04747,0 0.0928,-0.0188 0.126299,-0.05233 0.03353,-0.03353 0.05233,-0.07885 0.05233,-0.126306 v -1.428465 c 0,-0.04747 -0.0188,-0.0928 -0.05233,-0.1263 -0.03347,-0.03353 -0.07885,-0.05233 -0.126299,-0.05233 h -1.428466 c -0.09865,0 -0.178619,0.07997 -0.178619,0.178626 v 1.428592 -1.27e-4 c 0,0.04747 0.0188,0.0928 0.05233,0.1263 0.03353,0.03353 0.07885,0.05233 0.126299,0.05233 z m 0.178619,-1.428592 h 1.071488 v 1.071488 H 42.98917 Z"
       id="path75-0"
       style="fill:#d6dbf1;fill-opacity:1;stroke-width:0.0318876" />
    <path
       d="m 40.703516,21.909525 h 1.428593 c 0.04733,0 0.0928,-0.0188 0.126305,-0.05233 0.0334,-0.03353 0.05233,-0.07885 0.05233,-0.126306 v -1.428465 c 0,-0.04747 -0.01893,-0.0928 -0.05233,-0.1263 -0.03353,-0.03353 -0.07897,-0.05233 -0.126305,-0.05233 h -1.428593 c -0.09865,0 -0.178499,0.07997 -0.178499,0.178626 v 1.428592 -1.27e-4 c 0,0.04747 0.0188,0.0928 0.0522,0.1263 0.03353,0.03353 0.07897,0.05233 0.1263,0.05233 z m 0.178619,-1.428592 h 1.071488 v 1.071488 h -1.071488 z"
       id="path77-9"
       style="fill:#d6dbf1;fill-opacity:1;stroke-width:0.0318876" />
    <path
       d="m 40.007093,20.123822 h -1.428592 c -0.09853,0 -0.178499,0.07997 -0.178499,0.178626 v 1.428592 -1.27e-4 c 0,0.04747 0.0188,0.0928 0.05233,0.1263 0.0334,0.03353 0.07885,0.05233 0.12618,0.05233 h 1.428592 c 0.04733,0 0.0928,-0.0188 0.126306,-0.05233 0.03353,-0.03353 0.05233,-0.07885 0.05233,-0.1263 v -1.428465 c 0,-0.04747 -0.0188,-0.0928 -0.05233,-0.126306 -0.03353,-0.03353 -0.07897,-0.05233 -0.126306,-0.05233 z m -0.178619,1.428599 h -1.071487 l 1.26e-4,-1.071488 h 1.071488 z"
       id="path79-3"
       style="fill:#d6dbf1;fill-opacity:1;stroke-width:0.0318876" />
    <path
       d="m 48.45346,22.230951 h -1.428592 1.27e-4 c -0.09865,0 -0.17862,0.07997 -0.17862,0.178625 v 1.428592 c 0,0.04733 0.0188,0.0928 0.05233,0.126299 0.03353,0.0334 0.07885,0.0522 0.126306,0.0522 h 1.428592 -1.27e-4 c 0.04747,0 0.0928,-0.0188 0.126299,-0.0522 0.03353,-0.03353 0.05233,-0.07897 0.05233,-0.126299 v -1.428592 c 0,-0.04733 -0.0188,-0.0928 -0.05233,-0.126306 -0.03353,-0.0334 -0.07885,-0.05233 -0.126299,-0.05233 z m -0.178619,1.428592 h -1.071488 v -1.071481 h 1.071488 z"
       id="path81-6"
       style="fill:#d6dbf1;fill-opacity:1;stroke-width:0.0318876" />
    <path
       d="m 46.346331,22.230951 h -5.642815 c -0.09865,0 -0.178499,0.07997 -0.178499,0.178625 v 1.428592 c 0,0.04733 0.0188,0.0928 0.0522,0.126299 0.03353,0.0334 0.07897,0.0522 0.1263,0.0522 h 5.642822 c 0.04733,0 0.0928,-0.0188 0.126299,-0.0522 0.0334,-0.03353 0.0522,-0.07897 0.0522,-0.126299 v -1.428592 c 0,-0.04733 -0.0188,-0.0928 -0.0522,-0.126306 -0.03353,-0.0334 -0.07897,-0.05233 -0.126299,-0.05233 z m -0.178618,1.428592 h -5.285678 v -1.071481 l 5.285678,1.27e-4 z"
       id="path83-06"
       style="fill:#d6dbf1;fill-opacity:1;stroke-width:0.0318876" />
    <path
       d="m 40.007093,22.230951 h -1.428592 c -0.09853,0 -0.178499,0.07997 -0.178499,0.178625 v 1.428592 c 0,0.04733 0.0188,0.0928 0.05233,0.126299 0.0334,0.0334 0.07885,0.0522 0.12618,0.0522 h 1.428592 c 0.04733,0 0.0928,-0.0188 0.126306,-0.0522 0.03353,-0.03353 0.05233,-0.07897 0.05233,-0.126299 v -1.428592 c 0,-0.04733 -0.0188,-0.0928 -0.05233,-0.126306 -0.03353,-0.0334 -0.07897,-0.05233 -0.126306,-0.05233 z m -0.178619,1.428592 h -1.071487 v -1.071481 h 1.071487 z"
       id="path85-2"
       style="fill:#d6dbf1;fill-opacity:1;stroke-width:0.0318876" />
  </g>
  <metadata
     id="metadata18">
    <rdf:RDF>
      <cc:Work
         rdf:about="">
        <dc:format>image/svg+xml</dc:format>
        <dc:type
           rdf:resource="http://purl.org/dc/dcmitype/StillImage" />
      </cc:Work>
    </rdf:RDF>
  </metadata>
  <defs
     id="defs16">
    <linearGradient
       id="oomox"
       x1="0"
       x2="0"
       y1="0"
       y2="1">
      <stop
         offset="0%"
         style="stop-color:#303b3d; stop-opacity:1"
         id="stop18" />
      <stop
         offset="100%"
         style="stop-color:#bc985d; stop-opacity:1"
         id="stop20" />
    </linearGradient>
  </defs>
  <sodipodi:namedview
     pagecolor="#ffffff"
     bordercolor="#000000"
     borderopacity="1"
     objecttolerance="10"
     gridtolerance="10"
     guidetolerance="10"
     inkscape:pageopacity="0"
     inkscape:pageshadow="2"
     inkscape:window-width="1920"
     inkscape:window-height="1007"
     id="namedview14"
     showgrid="false"
     inkscape:zoom="9.8125003"
     inkscape:cx="26.496814"
     inkscape:cy="17.783439"
     inkscape:window-x="0"
     inkscape:window-y="0"
     inkscape:window-maximized="1"
     inkscape:current-layer="svg12"
     inkscape:document-rotation="0"
     inkscape:lockguides="false"
     inkscape:showpageshadow="false"
     inkscape:pagecheckerboard="0">
    <inkscape:grid
       type="xygrid"
       id="grid950"
       originx="0"
       originy="0" />
  </sodipodi:namedview>
  <g
     id="keyboard-layout">
    <rect
       style="opacity:0.00100002;fill:#a8aeca;fill-opacity:1"
       width="32"
       height="32"
       x="0"
       y="0"
       id="rect7" />
    <path
       d="M 27.999997,22.765311 V 9.234712 C 27.999997,8.2806295 27.099997,7.5 25.999998,7.5 H 6 C 4.899997,7.5 3.999997,8.2806295 3.999997,9.234712 V 22.765311 C 3.999997,23.719392 4.899997,24.5 6,24.5 h 19.999998 c 1.099999,0 1.999999,-0.780608 1.999999,-1.734689 z M 6,23.632663 c -0.549995,0 -0.999995,-0.39033 -0.999995,-0.867352 V 9.234712 c 0,-0.4770615 0.45,-0.8673535 0.999995,-0.8673535 h 19.999998 c 0.549999,0 0.999999,0.390292 0.999999,0.8673535 v 13.530599 c 0,0.477022 -0.45,0.867352 -0.999999,0.867352 z"
       id="path2"
       style="fill:#d6dbf1;fill-opacity:1;stroke-width:0.465657" />
    <rect
       style="fill:#4e5a7e;fill-opacity:0.501961;stroke:none;stroke-width:0.507402;enable-background:new"
       id="center-3-35"
       width="15.3"
       height="22"
       x="8.3500004"
       y="-27"
       ry="0.92521173"
       transform="rotate(90)"
       rx="0.85223591" />
    <path
       d="m 23.430187,11.500041 h -2.142888 1.9e-4 c -0.14798,0 -0.267929,0.119769 -0.267929,0.267748 v 2.142888 c 0,0.071 0.0282,0.139199 0.0785,0.189459 0.0503,0.0501 0.118269,0.0785 0.189459,0.0785 h 2.142888 -1.9e-4 c 0.0712,0 0.139199,-0.0284 0.189449,-0.0785 0.0503,-0.0503 0.0785,-0.118459 0.0785,-0.189459 v -2.142888 c 0,-0.071 -0.0282,-0.139199 -0.0785,-0.189449 -0.0503,-0.0501 -0.11827,-0.0783 -0.189449,-0.0783 z m -0.267929,2.142898 h -1.607231 v -1.607231 h 1.607231 z"
       id="path61"
       style="fill:#d6dbf1;fill-opacity:1;stroke-width:0.0478314" />
    <path
       d="m 20.269494,11.500041 h -2.142888 c -0.147979,0 -0.267928,0.119769 -0.267928,0.267748 v 2.142888 c 0,0.071 0.0284,0.139199 0.0785,0.189459 0.0503,0.0501 0.118459,0.0785 0.189459,0.0785 h 2.142888 c 0.071,0 0.1392,-0.0284 0.189449,-0.0785 0.0501,-0.0503 0.0783,-0.118459 0.0783,-0.189459 v -2.142888 c 0,-0.071 -0.0282,-0.139199 -0.0783,-0.189449 -0.0503,-0.0501 -0.118459,-0.0783 -0.189449,-0.0783 z m -0.267928,2.142898 h -1.607231 v -1.607231 h 1.607231 z"
       id="path63"
       style="fill:#d6dbf1;fill-opacity:1;stroke-width:0.0478314" />
    <path
       d="m 14.965963,14.178596 h 2.142888 -1.89e-4 c 0.0712,0 0.139199,-0.0284 0.189449,-0.0785 0.0503,-0.0503 0.0785,-0.11846 0.0785,-0.189459 v -2.142888 c 0,-0.071 -0.0282,-0.139199 -0.0785,-0.189449 C 17.247811,11.5282 17.179841,11.5 17.108662,11.5 h -2.142699 c -0.147978,0 -0.267928,0.11977 -0.267928,0.267749 v 2.142888 c 0,0.071 0.0282,0.139199 0.0785,0.189449 0.0503,0.0501 0.11827,0.0785 0.189449,0.0785 z m 0.267929,-2.142888 h 1.607231 v 1.607231 l -1.607371,-1.9e-4 z"
       id="path65"
       style="fill:#d6dbf1;fill-opacity:1;stroke-width:0.0478314" />
    <path
       d="m 11.805271,14.178596 h 2.142889 c 0.071,0 0.139198,-0.0284 0.189458,-0.0785 0.0501,-0.0503 0.0785,-0.11846 0.0785,-0.189459 v -2.142888 c 0,-0.071 -0.0284,-0.139199 -0.0785,-0.189449 C 14.087318,11.5282 14.019159,11.5 13.94816,11.5 h -2.142889 c -0.147979,0 -0.267748,0.11977 -0.267748,0.267749 v 2.142888 c 0,0.071 0.0282,0.139199 0.0783,0.189449 0.0503,0.0501 0.118459,0.0785 0.189449,0.0785 z M 12.0732,12.035708 h 1.607231 v 1.607231 H 12.0732 Z"
       id="path67"
       style="fill:#d6dbf1;fill-opacity:1;stroke-width:0.0478314" />
    <path
       d="M 10.760637,11.500041 H 8.617749 C 8.46996,11.500041 8.35,11.61981 8.35,11.767789 v 2.142888 c 0,0.071 0.0282,0.139199 0.0785,0.189459 0.0501,0.0501 0.118279,0.0785 0.189269,0.0785 h 2.142888 c 0.071,0 0.139199,-0.0284 0.189459,-0.0785 0.0503,-0.0503 0.0785,-0.118459 0.0785,-0.189459 v -2.142888 c 0,-0.071 -0.0282,-0.139199 -0.0785,-0.189449 -0.0503,-0.0501 -0.118459,-0.0783 -0.189459,-0.0783 z m -0.267929,2.142898 h -1.60723 v -1.607231 h 1.60723 z"
       id="path69"
       style="fill:#d6dbf1;fill-opacity:1;stroke-width:0.0478314" />
    <path
       d="m 23.430187,14.660733 h -2.142888 1.9e-4 c -0.14798,0 -0.267929,0.119959 -0.267929,0.267939 v 2.142888 -1.9e-4 c 0,0.0712 0.0282,0.139199 0.0785,0.189449 0.0503,0.0503 0.118269,0.0785 0.189459,0.0785 h 2.142888 -1.9e-4 c 0.0712,0 0.139199,-0.0282 0.189449,-0.0785 0.0503,-0.0503 0.0785,-0.11827 0.0785,-0.189449 v -2.142698 c 0,-0.0712 -0.0282,-0.1392 -0.0785,-0.189459 -0.0503,-0.0503 -0.11827,-0.0785 -0.189449,-0.0785 z m -0.267929,2.142898 h -1.607231 l 1.9e-4,-1.607231 h 1.607231 z"
       id="path71"
       style="fill:#d6dbf1;fill-opacity:1;stroke-width:0.0478314" />
    <path
       d="m 20.269494,14.660733 h -2.142888 c -0.147979,0 -0.267928,0.119959 -0.267928,0.267939 v 2.142888 -1.9e-4 c 0,0.0712 0.0284,0.139199 0.0785,0.189449 0.0503,0.0503 0.118459,0.0785 0.189459,0.0785 h 2.142888 c 0.071,0 0.1392,-0.0282 0.189449,-0.0785 0.0501,-0.0503 0.0783,-0.11827 0.0783,-0.189449 v -2.142698 c 0,-0.0712 -0.0282,-0.1392 -0.0783,-0.189459 -0.0503,-0.0503 -0.118459,-0.0785 -0.189449,-0.0785 z m -0.267928,2.142898 h -1.607231 l 1.89e-4,-1.607231 h 1.607232 z"
       id="path73"
       style="fill:#d6dbf1;fill-opacity:1;stroke-width:0.0478314" />
    <path
       d="m 14.965963,17.339288 h 2.142888 -1.89e-4 c 0.0712,0 0.139199,-0.0282 0.189449,-0.0785 0.0503,-0.0503 0.0785,-0.118269 0.0785,-0.189459 v -2.142698 c 0,-0.0712 -0.0282,-0.139199 -0.0785,-0.189449 -0.0502,-0.0503 -0.11827,-0.0785 -0.189449,-0.0785 h -2.142699 c -0.147978,0 -0.267928,0.11996 -0.267928,0.267939 v 2.142888 -1.9e-4 c 0,0.0712 0.0282,0.139199 0.0785,0.189449 0.0503,0.0503 0.11827,0.0785 0.189449,0.0785 z M 15.233892,15.1964 h 1.607231 v 1.607231 h -1.607371 z"
       id="path75"
       style="fill:#d6dbf1;fill-opacity:1;stroke-width:0.0478314" />
    <path
       d="m 11.805271,17.339288 h 2.142889 c 0.071,0 0.139198,-0.0282 0.189458,-0.0785 0.0501,-0.0503 0.0785,-0.118269 0.0785,-0.189459 v -2.142698 c 0,-0.0712 -0.0284,-0.139199 -0.0785,-0.189449 -0.0503,-0.0503 -0.118459,-0.0785 -0.189458,-0.0785 h -2.142889 c -0.147979,0 -0.267748,0.11996 -0.267748,0.267939 v 2.142888 -1.9e-4 c 0,0.0712 0.0282,0.139199 0.0783,0.189449 0.0503,0.0503 0.118459,0.0785 0.189449,0.0785 z M 12.0732,15.1964 h 1.607231 v 1.607231 H 12.0732 Z"
       id="path77"
       style="fill:#d6dbf1;fill-opacity:1;stroke-width:0.0478314" />
    <path
       d="M 10.760637,14.660733 H 8.617749 C 8.46996,14.660733 8.35,14.780692 8.35,14.928672 v 2.142888 -1.9e-4 c 0,0.0712 0.0282,0.139199 0.0785,0.189449 0.0501,0.0503 0.118279,0.0785 0.189269,0.0785 h 2.142888 c 0.071,0 0.139199,-0.0282 0.189459,-0.0785 0.0503,-0.0503 0.0785,-0.11827 0.0785,-0.189449 v -2.142698 c 0,-0.0712 -0.0282,-0.1392 -0.0785,-0.189459 -0.0503,-0.0503 -0.118459,-0.0785 -0.189459,-0.0785 z m -0.267929,2.142898 H 8.885478 L 8.885667,15.1964 h 1.607232 z"
       id="path79"
       style="fill:#d6dbf1;fill-opacity:1;stroke-width:0.0478314" />
    <path
       d="m 23.430187,17.821426 h -2.142888 1.9e-4 c -0.14798,0 -0.267929,0.119959 -0.267929,0.267938 v 2.142888 c 0,0.071 0.0282,0.139199 0.0785,0.189449 0.0503,0.0501 0.118269,0.0783 0.189459,0.0783 h 2.142888 -1.9e-4 c 0.0712,0 0.139199,-0.0282 0.189449,-0.0783 0.0503,-0.0503 0.0785,-0.118459 0.0785,-0.189449 v -2.142888 c 0,-0.071 -0.0282,-0.139199 -0.0785,-0.189459 -0.0503,-0.0501 -0.11827,-0.0785 -0.189449,-0.0785 z m -0.267929,2.142888 h -1.607231 v -1.607221 h 1.607231 z"
       id="path81"
       style="fill:#d6dbf1;fill-opacity:1;stroke-width:0.0478314" />
    <path
       d="m 20.269494,17.821426 h -8.464223 c -0.147979,0 -0.267748,0.119959 -0.267748,0.267938 v 2.142888 c 0,0.071 0.0282,0.139199 0.0783,0.189449 0.0503,0.0501 0.118459,0.0783 0.189449,0.0783 h 8.464233 c 0.071,0 0.139199,-0.0282 0.189449,-0.0783 0.0501,-0.0503 0.0783,-0.118459 0.0783,-0.189449 v -2.142888 c 0,-0.071 -0.0282,-0.139199 -0.0783,-0.189459 -0.0503,-0.0501 -0.118459,-0.0785 -0.189449,-0.0785 z m -0.267928,2.142888 H 12.07305 v -1.607221 l 7.928516,1.9e-4 z"
       id="path83"
       style="fill:#d6dbf1;fill-opacity:1;stroke-width:0.0478314" />
    <path
       d="M 10.760637,17.821426 H 8.617749 C 8.46996,17.821426 8.35,17.941385 8.35,18.089364 v 2.142888 c 0,0.071 0.0282,0.139199 0.0785,0.189449 0.0501,0.0501 0.118279,0.0783 0.189269,0.0783 h 2.142888 c 0.071,0 0.139199,-0.0282 0.189459,-0.0783 0.0503,-0.0503 0.0785,-0.118459 0.0785,-0.189449 v -2.142888 c 0,-0.071 -0.0282,-0.139199 -0.0785,-0.189459 -0.0503,-0.0501 -0.118459,-0.0785 -0.189459,-0.0785 z m -0.267929,2.142888 h -1.60723 v -1.607221 h 1.60723 z"
       id="path85"
       style="fill:#d6dbf1;fill-opacity:1;stroke-width:0.0478314" />
  </g>
</svg>
