<?xml version="1.0" encoding="UTF-8" standalone="no"?>
<svg
   width="32"
   height="32"
   version="1.1"
   id="svg12"
   sodipodi:docname="kget.svg"
   inkscape:version="1.1.1 (3bf5ae0d25, 2021-09-20)"
   xmlns:inkscape="http://www.inkscape.org/namespaces/inkscape"
   xmlns:sodipodi="http://sodipodi.sourceforge.net/DTD/sodipodi-0.dtd"
   xmlns:xlink="http://www.w3.org/1999/xlink"
   xmlns="http://www.w3.org/2000/svg"
   xmlns:svg="http://www.w3.org/2000/svg"
   xmlns:rdf="http://www.w3.org/1999/02/22-rdf-syntax-ns#"
   xmlns:cc="http://creativecommons.org/ns#"
   xmlns:dc="http://purl.org/dc/elements/1.1/">
  <g
     id="22-22-kget"
     transform="translate(32,9.9978008)">
    <rect
       style="opacity:0.00100002;fill:#a8aeca;fill-opacity:1"
       width="22"
       height="22"
       x="0"
       y="2.7026367e-08"
       id="rect2" />
    <path
       style="color:#d5c289;fill:#d6dbf1;fill-opacity:1;stroke-width:1"
       class="ColorScheme-Text"
       d="M 11,3 C 6.576,3 3,6.576 3,10.999999 3,15.424 6.576,19 11,19 15.424,19 19,15.424 19,10.999999 19,6.576 15.424,3 11,3 Z m 0,1 c 3.869987,0 7,3.13 7,6.999999 C 18,14.869987 14.869987,18 11,18 7.129987,18 4,14.869987 4,10.999999 4,7.13 7.129987,4 11,4 Z m 0.749987,5.7189988 v 0 0 0 0 0 c 0,0 -0.03394,0.008 0,0 z m -0.780994,4.5000032 z"
       id="path58-3"
       sodipodi:nodetypes="ssssssssssccccccccccccccccc" />
    <rect
       style="fill:#4e5a7e;fill-opacity:0.5;stroke:none;stroke-width:0.35"
       id="center-3-35-6"
       width="14"
       height="14"
       x="3.9706666"
       y="4.0039997"
       ry="6.9999886" />
    <path
       d="M 13.013811,5.133333 H 9.084259 c -0.186154,0 -0.336829,0.150675 -0.336829,0.336829 V 10.65926 H 7.403425 c -0.12992,0 -0.248709,0.07503 -0.304196,0.192475 -0.05591,0.117436 -0.03879,0.25653 0.04345,0.357276 l 3.645419,4.466935 c 0.06391,0.07864 0.159539,0.124054 0.260885,0.124054 0.101352,0 0.19699,-0.04541 0.260892,-0.124054 l 3.645575,-4.466935 c 0.08225,-0.1006 0.0994,-0.23984 0.04345,-0.357276 -0.05563,-0.11744 -0.174276,-0.192475 -0.304196,-0.192475 h -1.344002 l -1.57e-4,-5.188711 c 0,-0.186159 -0.150669,-0.336829 -0.33683,-0.336829 z m 0.971378,6.199586 -2.936114,3.597146 -2.936114,-3.597146 h 0.971378 c 0.18616,0 0.336829,-0.150675 0.336829,-0.33683 V 5.806991 h 3.255814 v 5.189098 c 0,0.186155 0.150669,0.33683 0.336829,0.33683 z"
       id="path49-36-7"
       style="fill:#d6dbf1;fill-opacity:1;stroke-width:0.0384948" />
    <path
       d="m 7,16.266667 c 0,0.147378 0.08946,0.266666 0.2,0.266666 h 7.6 c 0.110537,0 0.2,-0.119288 0.2,-0.266666 C 15,16.119289 14.91053,16 14.8,16 H 7.2 C 7.089462,16 7,16.119289 7,16.266667 Z"
       id="path55-6-7-5"
       style="fill:#d6dbf1;fill-opacity:1;stroke-width:0.0263932" />
  </g>
  <metadata
     id="metadata18">
    <rdf:RDF>
      <cc:Work
         rdf:about="">
        <dc:format>image/svg+xml</dc:format>
        <dc:type
           rdf:resource="http://purl.org/dc/dcmitype/StillImage" />
      </cc:Work>
    </rdf:RDF>
  </metadata>
  <defs
     id="defs16">
    <linearGradient
       id="c"
       y1="13"
       y2="33"
       x2="0"
       gradientUnits="userSpaceOnUse"
       gradientTransform="matrix(1,0,0,-1,384.57,547.8)">
      <stop
         stop-color="#197cf1"
         id="stop12" />
      <stop
         offset="1"
         stop-color="#20bcfa"
         id="stop14" />
    </linearGradient>
    <linearGradient
       xlink:href="#c"
       id="d"
       y1="14"
       y2="33"
       x2="0"
       gradientUnits="userSpaceOnUse"
       gradientTransform="matrix(1,0,0,-1,-8,37)" />
    <linearGradient
       id="linearGradient917"
       y1="13"
       y2="33"
       x2="0"
       gradientUnits="userSpaceOnUse"
       gradientTransform="matrix(1,0,0,-1,384.57,547.8)">
      <stop
         stop-color="#197cf1"
         id="stop913" />
      <stop
         offset="1"
         stop-color="#20bcfa"
         id="stop915" />
    </linearGradient>
  </defs>
  <sodipodi:namedview
     pagecolor="#ffffff"
     bordercolor="#666666"
     borderopacity="1"
     objecttolerance="10"
     gridtolerance="10"
     guidetolerance="10"
     inkscape:pageopacity="0"
     inkscape:pageshadow="2"
     inkscape:window-width="1920"
     inkscape:window-height="1007"
     id="namedview14"
     showgrid="false"
     inkscape:zoom="8.0000004"
     inkscape:cx="26.624999"
     inkscape:cy="17.062499"
     inkscape:window-x="0"
     inkscape:window-y="0"
     inkscape:window-maximized="1"
     inkscape:current-layer="svg12"
     inkscape:document-rotation="0"
     inkscape:pagecheckerboard="0"
     inkscape:lockguides="false"
     showguides="false">
    <inkscape:grid
       type="xygrid"
       id="grid849"
       originx="0"
       originy="0" />
  </sodipodi:namedview>
  <g
     id="kget">
    <rect
       style="opacity:0.00100002;fill:#a8aeca;fill-opacity:1"
       width="32"
       height="32"
       x="0"
       y="0"
       id="rect7" />
    <path
       style="color:#d5c289;fill:#d6dbf1;fill-opacity:1;stroke-width:1.5"
       class="ColorScheme-Text"
       d="M 16,4 C 9.364,4 4,9.364 4,15.999999 4,22.636 9.364,28 16,28 22.636,28 28,22.636 28,15.999999 28,9.364 22.636,4 16,4 Z m 0,1.5 c 5.80498,0 10.5,4.695 10.5,10.499999 C 26.5,21.80498 21.80498,26.5 16,26.5 10.19498,26.5 5.5,21.80498 5.5,15.999999 5.5,10.195 10.19498,5.5 16,5.5 Z m 1.12498,8.578498 v 0 0 0 0 0 c 0,0 -0.05091,0.012 0,0 z m -1.171491,6.750005 z"
       id="path58"
       sodipodi:nodetypes="ssssssssssccccccccccccccccc" />
    <rect
       style="fill:#4e5a7e;fill-opacity:0.5;stroke:none;stroke-width:0.525"
       id="center-3-35"
       width="21"
       height="21"
       x="5.4560008"
       y="5.506001"
       ry="10.499983" />
    <path
       d="m 19.020717,7.2 h -5.894328 c -0.279231,0 -0.505244,0.2260125 -0.505244,0.5052432 V 15.48889 h -2.016008 c -0.19488,0 -0.373063,0.112552 -0.456293,0.288713 -0.08387,0.176154 -0.05819,0.384794 0.06518,0.535913 l 5.468129,6.700403 C 15.778013,23.131885 15.921462,23.2 16.073481,23.2 c 0.152027,0 0.295484,-0.06812 0.391337,-0.186081 l 5.468357,-6.700403 c 0.12338,-0.1509 0.149097,-0.359759 0.06518,-0.535913 -0.08345,-0.176161 -0.261414,-0.288713 -0.456294,-0.288713 h -2.016008 l -2.35e-4,-7.7830658 c 0,-0.2792391 -0.226004,-0.505244 -0.505245,-0.505244 z m 1.457066,9.299378 -4.404171,5.39572 -4.40417,-5.39572 h 1.457066 c 0.27924,0 0.505244,-0.226012 0.505244,-0.505244 V 8.2104872 h 4.883721 v 7.7836468 c 0,0.279232 0.226004,0.505244 0.505244,0.505244 z"
       id="path49-36"
       style="fill:#d6dbf1;fill-opacity:1;stroke-width:0.0577422" />
    <path
       d="m 10,23.9 c 0,0.221067 0.134188,0.4 0.3,0.4 h 11.4 c 0.165806,0 0.3,-0.178933 0.3,-0.4 0,-0.221067 -0.134198,-0.4 -0.3,-0.4 H 10.3 c -0.165807,0 -0.3,0.178933 -0.3,0.4 z"
       id="path55-6-7"
       style="fill:#d6dbf1;fill-opacity:1;stroke-width:0.0395898" />
  </g>
</svg>
