<?xml version="1.0" encoding="UTF-8" standalone="no"?>
<svg
   id="svg4153"
   version="1.1"
   inkscape:version="1.1.2 (0a00cf5339, 2022-02-04)"
   width="32.000004"
   height="32"
   sodipodi:docname="klipper.svg"
   viewBox="0 0 32.000004 32"
   xmlns:inkscape="http://www.inkscape.org/namespaces/inkscape"
   xmlns:sodipodi="http://sodipodi.sourceforge.net/DTD/sodipodi-0.dtd"
   xmlns="http://www.w3.org/2000/svg"
   xmlns:svg="http://www.w3.org/2000/svg"
   xmlns:rdf="http://www.w3.org/1999/02/22-rdf-syntax-ns#"
   xmlns:cc="http://creativecommons.org/ns#"
   xmlns:dc="http://purl.org/dc/elements/1.1/">
  <metadata
     id="metadata4159">
    <rdf:RDF>
      <cc:Work
         rdf:about="">
        <dc:format>image/svg+xml</dc:format>
        <dc:type
           rdf:resource="http://purl.org/dc/dcmitype/StillImage" />
      </cc:Work>
    </rdf:RDF>
  </metadata>
  <defs
     id="defs4157">
    <style
       type="text/css"
       id="current-color-scheme" />
    <linearGradient
       id="oomox"
       x1="33"
       x2="33"
       y1="81"
       y2="95"
       gradientUnits="userSpaceOnUse">
      <stop
         offset="0%"
         style="stop-color:#303b3d; stop-opacity:1"
         id="stop18" />
      <stop
         offset="100%"
         style="stop-color:#bc985d; stop-opacity:1"
         id="stop20" />
    </linearGradient>
  </defs>
  <sodipodi:namedview
     pagecolor="#ffffff"
     bordercolor="#000000"
     borderopacity="1"
     objecttolerance="10"
     gridtolerance="10000"
     guidetolerance="10"
     inkscape:pageopacity="0"
     inkscape:pageshadow="2"
     inkscape:window-width="1920"
     inkscape:window-height="1009"
     id="namedview4155"
     inkscape:document-units="px"
     showgrid="false"
     inkscape:showpageshadow="false"
     borderlayer="false"
     inkscape:zoom="32.000001"
     inkscape:cx="40.687498"
     inkscape:cy="21.374999"
     inkscape:window-x="0"
     inkscape:window-y="0"
     inkscape:window-maximized="1"
     inkscape:current-layer="svg4153"
     fit-margin-top="0"
     fit-margin-left="0"
     fit-margin-right="0"
     fit-margin-bottom="0"
     inkscape:snap-bbox="true"
     inkscape:bbox-nodes="true"
     inkscape:document-rotation="0"
     showguides="false"
     inkscape:lockguides="false"
     inkscape:pagecheckerboard="0">
    <sodipodi:guide
       position="33.999853,19.999999"
       orientation="28,0"
       id="guide4186"
       inkscape:locked="false" />
    <sodipodi:guide
       position="33.999853,-8.000001"
       orientation="0,28.000004"
       id="guide4188"
       inkscape:locked="false" />
    <sodipodi:guide
       position="61.999857,-8.000001"
       orientation="-28,0"
       id="guide4190"
       inkscape:locked="false" />
    <sodipodi:guide
       position="61.999857,19.999999"
       orientation="0,-28.000004"
       id="guide4192"
       inkscape:locked="false" />
    <sodipodi:guide
       position="31.999853,21.999999"
       orientation="32,0"
       id="guide4194"
       inkscape:locked="false" />
    <sodipodi:guide
       position="31.999853,-10.000001"
       orientation="0,32.000004"
       id="guide4196"
       inkscape:locked="false" />
    <sodipodi:guide
       position="63.999857,-10.000001"
       orientation="-32,0"
       id="guide4198"
       inkscape:locked="false" />
    <sodipodi:guide
       position="63.999857,21.999999"
       orientation="0,-32.000004"
       id="guide4200"
       inkscape:locked="false" />
    <inkscape:grid
       type="xygrid"
       id="grid3041"
       originx="0"
       originy="0" />
  </sodipodi:namedview>
  <inkscape:clipboard
     style="opacity:0.01000001;fill:#00000f;fill-opacity:0;stroke-width:1;stroke-linecap:butt;stroke-linejoin:miter;stroke-miterlimit:4;stroke-dasharray:none;stroke-dashoffset:0;stroke-opacity:1;stroke:none"
     min="0,0"
     max="22,22" />
  <g
     id="klipper">
    <rect
       y="0"
       x="0"
       height="32"
       width="32.000004"
       id="rect4230"
       style="fill:none;fill-opacity:1;stroke:none" />
    <rect
       style="fill:#4e5a7e;fill-opacity:0.501961;stroke:none;stroke-width:0.524404"
       id="center-3-35"
       width="20"
       height="22"
       x="6"
       y="5"
       ry="0.82111573" />
    <path
       d="M 22.000215,8.2 C 20.897273,8.2 20,9.0237446 20,10.036175 v 1.506393 1.178386 7.788712 c 0,0.0351 0.008,0.06801 0.02351,0.09809 5.21e-4,0.0011 2.83e-4,0.0024 8.7e-4,0.0036 l 1.736149,3.44792 c 0.04316,0.08582 0.136798,0.140743 0.23969,0.140743 0.102895,0 0.196505,-0.05492 0.239688,-0.140743 l 0.892589,-1.772756 c 7.18e-4,-0.0013 0.0018,-0.0023 0.0023,-0.0036 5.8e-4,-0.0011 3.7e-4,-0.0023 9.19e-4,-0.0034 l 0.839896,-1.668088 c 5.79e-4,-0.0011 3.08e-4,-0.0024 8.72e-4,-0.0036 C 23.991153,20.577739 24,20.544834 24,20.509737 V 12.721018 11.542632 10.036239 C 24,9.0238087 23.102722,8.200064 21.999916,8.200064 Z m 1.471947,12.067242 H 22.26428 v -7.303864 h 1.207882 z m -0.711385,1.602008 c -0.488778,-0.149178 -1.037279,-0.14829 -1.521139,1.18e-4 L 20.677029,20.75209 h 2.64627 z m -2.232648,-1.602008 v -7.303864 h 1.20802 v 7.303864 z m 2.944033,-7.788712 h -2.944033 v -0.693538 h 2.944033 z m -1.471947,10.901285 -0.536481,-1.065401 c 0.343392,-0.09422 0.72531,-0.09475 1.072887,6e-5 z m 1.471947,-12.079671 h -2.944033 v -1.263969 c 0,-0.7451471 0.660416,-1.3513266 1.472086,-1.3513266 0.811668,0 1.471947,0.6061795 1.471947,1.3513266 z"
       id="path12-5-5"
       style="fill:#d6dbf1;fill-opacity:1;stroke-width:0.253015" />
    <path
       d="m 7.93017,12 h 9.552445 c 0.26525,0 0.480066,-0.223688 0.480066,-0.499893 0,-0.276206 -0.21602,-0.499894 -0.480066,-0.499894 L 7.93017,11 c -0.26525,0 -0.480065,0.223688 -0.480065,0.499893 0,0.276206 0.216015,0.500101 0.480065,0.500101 z"
       id="path4"
       style="fill:#d6dbf1;fill-opacity:1;stroke-width:0.0524945" />
    <path
       d="M 17.963605,16.499997 C 17.963605,16.223734 17.747585,16 17.483541,16 H 7.930065 C 7.664815,16 7.45,16.223734 7.45,16.499997 7.45,16.77626 7.66602,17 7.930065,17 h 9.552445 c 0.265251,0 0.481275,-0.22499 0.481275,-0.500003 z"
       id="path8"
       style="fill:#d6dbf1;fill-opacity:1;stroke-width:0.0525" />
    <path
       d="M 17.963605,21.499997 C 17.963605,21.223734 17.747585,21 17.483541,21 H 7.930065 C 7.664815,21 7.45,21.223734 7.45,21.499997 7.45,21.77626 7.66602,22 7.930065,22 h 9.552445 c 0.265251,0 0.481275,-0.22499 0.481275,-0.500003 z"
       id="path8-3"
       style="fill:#00ccff;fill-opacity:1;fill-rule:evenodd;stroke-width:0.0525" />
    <rect
       x="12"
       y="4"
       width="8"
       height="2.5"
       id="rect14-0-8-3"
       style="fill:#d6dbf1;fill-opacity:1;stroke-width:2.10519"
       ry="1.25"
       rx="1.5999986" />
    <path
       d="M 24.755108,4.000005 H 7.244921 C 6.010227,4.000005 5,4.900005 5,6.000003 v 19.999999 c 0,1.100003 1.010227,2.000003 2.244921,2.000003 h 17.510187 c 1.234695,0 2.244892,-0.9 2.244892,-2.000003 V 6.000003 C 27,4.900005 25.989803,4.000005 24.755108,4.000005 Z M 26,26.000002 c 0,0.549995 -0.627569,0.999995 -1.244892,0.999995 H 7.244921 C 6.627548,26.999997 6,26.549997 6,26.000002 V 6.000003 C 6,5.450005 6.627548,5.000005 7.244921,5.000005 h 17.510187 c 0.617323,0 1.244892,0.45 1.244892,0.999998 z"
       id="path2-3-36"
       style="fill:#d6dbf1;fill-opacity:1;stroke-width:0.529727"
       sodipodi:nodetypes="ssssssssssssssssss" />
  </g>
  <g
     id="22-22-klipper"
     transform="translate(31.999853,10)">
    <rect
       style="fill:none;fill-opacity:1;stroke:none;stroke-width:0.1;stroke-linecap:square;stroke-linejoin:miter;stroke-miterlimit:4;stroke-dasharray:none;stroke-dashoffset:0;stroke-opacity:1"
       id="rect4148"
       width="22"
       height="22"
       x="1.3415527e-07"
       y="0" />
    <rect
       style="fill:#4e5a7e;fill-opacity:0.501961;stroke:none;stroke-width:0.347605"
       id="center-3-35-6"
       width="13.181414"
       height="14.666665"
       x="4.5019188"
       y="3.6666679"
       ry="0.54741043" />
    <path
       d="m 14.500276,6 c -0.82719,0 -1.500129,0.5457292 -1.500129,1.2164626 V 8.214446 8.9951246 14.155135 c 0,0.02325 0.0061,0.04505 0.01764,0.06499 3.91e-4,7.3e-4 2.11e-4,0.0016 6.52e-4,0.0024 l 1.302085,2.284242 c 0.03237,0.05686 0.1026,0.09325 0.179763,0.09325 0.07717,0 0.147376,-0.03639 0.179763,-0.09325 l 0.669428,-1.174449 c 5.38e-4,-8.62e-4 0.0013,-0.0015 0.0018,-0.0024 4.35e-4,-7.29e-4 2.78e-4,-0.0015 6.89e-4,-0.0023 l 0.62991,-1.105105 c 4.34e-4,-7.3e-4 2.3e-4,-0.0016 6.53e-4,-0.0024 0.01099,-0.01994 0.01763,-0.04174 0.01763,-0.06499 V 8.9951673 8.2144887 7.2165054 c 0,-0.6707334 -0.672945,-1.2164636 -1.500032,-1.2164636 z m 0.198044,7.994529 v 0 -4.8387988 0 z m 0.794248,0.321211 h -1.98466 v 0 z m -1.190337,-0.321211 v -4.8387988 0 z m 1.301982,-5.6194774 h -2.207978 v 0 z m -1.103937,7.6815524 -0.402353,-0.705827 c 0.257539,-0.06243 0.543971,-0.06277 0.804649,4e-5 z M 15.604213,8.0538403 H 13.396235 V 7.2164626 c 0,-0.4936586 0.4953,-0.8952513 1.104041,-0.8952513 0.608738,0 1.103937,0.4015927 1.103937,0.8952513 z"
       id="path12-5-5-7"
       style="fill:#d6dbf1;fill-opacity:1;stroke-width:0.178347"
       sodipodi:nodetypes="csccscccsccccccsccsccccccccccccccccccccccccccccsssc" />
    <path
       d="m 5.703447,9 h 6.368296 c 0.176833,0 0.320044,-0.2236878 0.320044,-0.499893 0,-0.2762053 -0.144014,-0.499893 -0.320044,-0.499893 L 5.703447,8 C 5.526613,8 5.383403,8.2236878 5.383403,8.499893 c 0,0.2762069 0.14401,0.5001022 0.320044,0.5001022 z"
       id="path4-5"
       style="fill:#d6dbf1;fill-opacity:1;stroke-width:0.0428618" />
    <path
       d="M 12.392403,11.499998 C 12.392403,11.223733 12.248389,11 12.07236,11 H 5.703377 C 5.526543,11 5.383333,11.223733 5.383333,11.499998 5.383333,11.776261 5.527347,12 5.703377,12 h 6.368296 c 0.176834,0 0.32085,-0.224989 0.32085,-0.500002 z"
       id="path8-35"
       style="fill:#d6dbf1;fill-opacity:1;stroke-width:0.0428661" />
    <path
       d="M 12.392403,14.499999 C 12.392403,14.223733 12.248389,14 12.07236,14 H 5.703377 C 5.526543,14 5.383333,14.223733 5.383333,14.499999 5.383333,14.776261 5.527347,15 5.703377,15 h 6.368296 c 0.176834,0 0.32085,-0.224989 0.32085,-0.500001 z"
       id="path8-3-62"
       style="fill:#00ccff;fill-opacity:1;fill-rule:evenodd;stroke-width:0.0428661" />
    <rect
       x="8.4166632"
       y="3"
       width="5.333333"
       height="1.6666665"
       id="rect14-0-8-3-9"
       style="fill:#d6dbf1;fill-opacity:1;stroke-width:1.40346"
       ry="0.83333325"
       rx="1.0666656" />
    <path
       d="M 16.571433,3.000001 H 5.4285862 C 4.6428723,3.000001 4,3.600001 4,4.333333 V 17.666665 C 4,18.4 4.6428723,19 5.4285862,19 H 16.571433 C 17.357149,19 18,18.4 18,17.666665 V 4.333333 C 18,3.600001 17.357149,3.000001 16.571433,3.000001 Z M 17.000147,18 v 0 h -12 v 0 L 5,3.971515 5.000147,4 h 12 H 17 Z"
       id="path2-3-3-7"
       style="fill:#d6dbf1;fill-opacity:1;stroke-width:0.345031"
       sodipodi:nodetypes="sssssssssccccccccc" />
  </g>
</svg>
