<?xml version="1.0" encoding="UTF-8" standalone="no"?>
<svg
   id="svg4153"
   version="1.1"
   inkscape:version="1.1.1 (3bf5ae0d25, 2021-09-20)"
   width="32.000004"
   height="32"
   sodipodi:docname="klipper.svg"
   viewBox="0 0 32.000004 32"
   xmlns:inkscape="http://www.inkscape.org/namespaces/inkscape"
   xmlns:sodipodi="http://sodipodi.sourceforge.net/DTD/sodipodi-0.dtd"
   xmlns="http://www.w3.org/2000/svg"
   xmlns:svg="http://www.w3.org/2000/svg"
   xmlns:rdf="http://www.w3.org/1999/02/22-rdf-syntax-ns#"
   xmlns:cc="http://creativecommons.org/ns#"
   xmlns:dc="http://purl.org/dc/elements/1.1/">
  <g
     id="22-22-klipper"
     transform="translate(31.999853,10)">
    <rect
       style="fill:none;fill-opacity:1;stroke:none;stroke-width:0.1;stroke-linecap:square;stroke-linejoin:miter;stroke-miterlimit:4;stroke-dasharray:none;stroke-dashoffset:0;stroke-opacity:1"
       id="rect4148"
       width="22"
       height="22"
       x="1.3415527e-07"
       y="0" />
    <path
       d="M 16.920071,3.0000009 H 5.246614 c -0.823129,0 -1.496614,0.6 -1.496614,1.333332 V 17.666665 C 3.75,18.4 4.423485,19 5.246614,19 h 11.673457 c 0.82313,0 1.496594,-0.6 1.496594,-1.333335 V 4.3333329 c 0,-0.733332 -0.673464,-1.333332 -1.496594,-1.333332 z m 0.748304,14.6666641 c 0,0.366663 -0.336755,0.666663 -0.748304,0.666663 H 5.246614 c -0.411582,0 -0.748305,-0.3 -0.748305,-0.666663 V 4.3333329 c 0,-0.366665 0.336723,-0.666665 0.748305,-0.666665 h 11.673457 c 0.411549,0 0.748304,0.3 0.748304,0.666665 z"
       id="path2-3-3"
       style="fill:#d6dbf1;fill-opacity:1;stroke-width:0.353151" />
    <rect
       style="fill:#4e5a7e;fill-opacity:0.501961;stroke:none;stroke-width:0.347605"
       id="center-3-35-6"
       width="13.181414"
       height="14.666665"
       x="4.5019188"
       y="3.6666679"
       ry="0.54741043" />
    <path
       d="m 14.652977,5.7999999 c -0.754709,0 -1.368684,0.548741 -1.368684,1.223176 v 1.003491 0.784987 5.1884871 c 0,0.02338 0.0055,0.0453 0.01609,0.06535 3.57e-4,7.34e-4 1.93e-4,0.0016 5.95e-4,0.0024 l 1.187993,2.296848 c 0.02953,0.05717 0.09361,0.09376 0.164012,0.09376 0.07041,0 0.134462,-0.03659 0.164011,-0.09376 l 0.610771,-1.18093 c 4.91e-4,-8.67e-4 0.0012,-0.0015 0.0016,-0.0024 3.97e-4,-7.33e-4 2.54e-4,-0.0015 6.29e-4,-0.0023 l 0.574715,-1.111204 c 3.96e-4,-7.34e-4 2.1e-4,-0.0016 5.96e-4,-0.0024 0.01003,-0.02005 0.01609,-0.04197 0.01609,-0.06535 V 8.8116969 8.0267099 7.0232189 c 0,-0.674435 -0.61398,-1.223177 -1.368595,-1.223177 z m 1.007207,8.0386491 H 14.833668 V 8.9731459 h 0.826516 z m -0.486778,1.067185 c -0.334456,-0.09938 -0.709778,-0.09878 -1.040868,7.8e-5 l -0.384975,-0.744279 h 1.810759 z M 13.645675,13.838649 V 8.9731459 h 0.82661 v 4.8655031 z m 2.014509,-5.1884871 h -2.014509 v -0.462003 h 2.014509 z M 14.652977,15.912104 14.28588,15.202382 c 0.234972,-0.06277 0.496307,-0.06312 0.734143,4e-5 z m 1.007207,-8.0469291 h -2.014509 v -0.841999 c 0,-0.496383 0.451901,-0.900192 1.007302,-0.900192 0.555399,0 1.007207,0.403809 1.007207,0.900192 z"
       id="path12-5-5-7"
       style="fill:#d6dbf1;fill-opacity:1;stroke-width:0.170823" />
    <path
       d="m 5.703447,8.3735559 h 6.368296 c 0.176833,0 0.320044,-0.14321 0.320044,-0.320043 0,-0.176833 -0.144014,-0.320043 -0.320044,-0.320043 l -6.368296,-1.37e-4 c -0.176834,0 -0.320044,0.14321 -0.320044,0.320043 0,0.176834 0.14401,0.320177 0.320044,0.320177 z"
       id="path4-5"
       style="fill:#d6dbf1;fill-opacity:1;stroke-width:0.0342953" />
    <path
       d="m 12.392403,11.186709 c 0,-0.176833 -0.144014,-0.320043 -0.320043,-0.320043 H 5.703377 c -0.176834,0 -0.320044,0.14321 -0.320044,0.320043 0,0.176834 0.144014,0.320047 0.320044,0.320047 h 6.368296 c 0.176834,0 0.32085,-0.144013 0.32085,-0.320047 z"
       id="path8-35"
       style="fill:#d6dbf1;fill-opacity:1;stroke-width:0.0342953" />
    <path
       d="m 12.392403,14.253376 c 0,-0.176834 -0.144014,-0.320044 -0.320043,-0.320044 H 5.703377 c -0.176834,0 -0.320044,0.14321 -0.320044,0.320044 0,0.176833 0.144014,0.320046 0.320044,0.320046 h 6.368296 c 0.176834,0 0.32085,-0.144013 0.32085,-0.320046 z"
       id="path8-3-62"
       style="fill:#00ccff;fill-opacity:1;stroke-width:0.0342953;fill-rule:evenodd" />
    <rect
       x="8.4166632"
       y="3"
       width="5.333333"
       height="1.6666665"
       id="rect14-0-8-3-9"
       style="fill:#d6dbf1;fill-opacity:1;stroke-width:1.40346"
       ry="0.83333325"
       rx="1.0666656" />
  </g>
  <metadata
     id="metadata4159">
    <rdf:RDF>
      <cc:Work
         rdf:about="">
        <dc:format>image/svg+xml</dc:format>
        <dc:type
           rdf:resource="http://purl.org/dc/dcmitype/StillImage" />
      </cc:Work>
    </rdf:RDF>
  </metadata>
  <defs
     id="defs4157">
    <style
       type="text/css"
       id="current-color-scheme" />
    <linearGradient
       id="oomox"
       x1="33"
       x2="33"
       y1="81"
       y2="95"
       gradientUnits="userSpaceOnUse">
      <stop
         offset="0%"
         style="stop-color:#303b3d; stop-opacity:1"
         id="stop18" />
      <stop
         offset="100%"
         style="stop-color:#bc985d; stop-opacity:1"
         id="stop20" />
    </linearGradient>
  </defs>
  <sodipodi:namedview
     pagecolor="#ffffff"
     bordercolor="#000000"
     borderopacity="1"
     objecttolerance="10"
     gridtolerance="10000"
     guidetolerance="10"
     inkscape:pageopacity="0"
     inkscape:pageshadow="2"
     inkscape:window-width="1920"
     inkscape:window-height="1007"
     id="namedview4155"
     inkscape:document-units="px"
     showgrid="false"
     inkscape:showpageshadow="false"
     borderlayer="false"
     inkscape:zoom="8.0000004"
     inkscape:cx="21.124999"
     inkscape:cy="14.937499"
     inkscape:window-x="0"
     inkscape:window-y="0"
     inkscape:window-maximized="1"
     inkscape:current-layer="svg4153"
     fit-margin-top="0"
     fit-margin-left="0"
     fit-margin-right="0"
     fit-margin-bottom="0"
     inkscape:snap-bbox="true"
     inkscape:bbox-nodes="true"
     inkscape:document-rotation="0"
     showguides="false"
     inkscape:lockguides="true"
     inkscape:pagecheckerboard="0">
    <inkscape:grid
       type="xygrid"
       id="grid4140"
       originx="5"
       originy="5.000002" />
    <sodipodi:guide
       position="2.0000001,29.999999"
       orientation="28,0"
       id="guide4186"
       inkscape:locked="true" />
    <sodipodi:guide
       position="2.0000001,1.999999"
       orientation="0,28.000004"
       id="guide4188"
       inkscape:locked="true" />
    <sodipodi:guide
       position="30.000004,1.999999"
       orientation="-28,0"
       id="guide4190"
       inkscape:locked="true" />
    <sodipodi:guide
       position="30.000004,29.999999"
       orientation="0,-28.000004"
       id="guide4192"
       inkscape:locked="true" />
    <sodipodi:guide
       position="1.3415527e-07,31.999999"
       orientation="32,0"
       id="guide4194"
       inkscape:locked="true" />
    <sodipodi:guide
       position="1.3415527e-07,-1e-06"
       orientation="0,32.000004"
       id="guide4196"
       inkscape:locked="true" />
    <sodipodi:guide
       position="32.000004,-1e-06"
       orientation="-32,0"
       id="guide4198"
       inkscape:locked="true" />
    <sodipodi:guide
       position="32.000004,31.999999"
       orientation="0,-32.000004"
       id="guide4200"
       inkscape:locked="true" />
  </sodipodi:namedview>
  <inkscape:clipboard
     style="opacity:0.01000001;fill:#00000f;fill-opacity:0;stroke-width:1;stroke-linecap:butt;stroke-linejoin:miter;stroke-miterlimit:4;stroke-dasharray:none;stroke-dashoffset:0;stroke-opacity:1;stroke:none"
     min="0,0"
     max="22,22" />
  <g
     id="klipper">
    <rect
       y="0"
       x="0"
       height="32"
       width="32.000004"
       id="rect4230"
       style="fill:none;fill-opacity:1;stroke:none" />
    <path
       d="M 24.755108,4.000002 H 7.2449211 c -1.234694,0 -2.244921,0.9 -2.244921,1.999998 v 19.999999 c 0,1.100003 1.010227,2.000003 2.244921,2.000003 H 24.755108 c 1.234695,0 2.244892,-0.9 2.244892,-2.000003 V 6 C 27,4.900002 25.989803,4.000002 24.755108,4.000002 Z m 1.122456,21.999997 c 0,0.549995 -0.505133,0.999995 -1.122456,0.999995 H 7.2449211 c -0.617373,0 -1.122457,-0.45 -1.122457,-0.999995 V 6 c 0,-0.549998 0.505084,-0.999998 1.122457,-0.999998 H 24.755108 c 0.617323,0 1.122456,0.45 1.122456,0.999998 z"
       id="path2-3"
       style="fill:#d6dbf1;fill-opacity:1;stroke-width:0.529727" />
    <rect
       style="fill:#4e5a7e;fill-opacity:0.501961;stroke:none;stroke-width:0.521408"
       id="center-3-35"
       width="19.772121"
       height="22"
       x="6.1278782"
       y="5"
       ry="0.82111573" />
    <path
       d="m 21.354467,8.2 c -1.132063,0 -2.053027,0.823112 -2.053027,1.834765 v 1.505236 1.177481 7.782731 c 0,0.03507 0.0082,0.06795 0.02414,0.09802 5.35e-4,0.0011 2.9e-4,0.0024 8.93e-4,0.0036 l 1.781989,3.445272 c 0.04429,0.08575 0.140409,0.140635 0.246018,0.140635 0.105612,0 0.201694,-0.05488 0.246017,-0.140635 l 0.916157,-1.771395 c 7.36e-4,-0.0013 0.0018,-0.0023 0.0024,-0.0036 5.95e-4,-0.0011 3.8e-4,-0.0023 9.43e-4,-0.0034 l 0.862072,-1.666807 c 5.95e-4,-0.0011 3.16e-4,-0.0024 8.95e-4,-0.0036 0.01505,-0.03007 0.02414,-0.06295 0.02414,-0.09802 v -7.782737 -1.177481 -1.505236 c 0,-1.011653 -0.920969,-1.834765 -2.052892,-1.834765 z m 1.510811,12.057975 H 21.625504 V 12.95972 h 1.239774 z m -0.730167,1.600777 c -0.501684,-0.149063 -1.064667,-0.148176 -1.561303,1.18e-4 l -0.577463,-1.116419 h 2.716139 z M 19.843514,20.257975 V 12.95972 h 1.239915 v 7.298255 z m 3.021764,-7.782731 h -3.021764 v -0.693005 h 3.021764 z m -1.510811,10.892913 -0.550646,-1.064582 c 0.352459,-0.09415 0.744461,-0.09468 1.101215,5.9e-5 z m 1.510811,-12.070394 h -3.021764 v -1.262998 c 0,-0.744575 0.677852,-1.350289 1.510953,-1.350289 0.833099,0 1.510811,0.605714 1.510811,1.350289 z"
       id="path12-5-5"
       style="fill:#d6dbf1;fill-opacity:1;stroke-width:0.256235" />
    <path
       d="m 7.93017,12.060335 h 9.552445 c 0.26525,0 0.480066,-0.214815 0.480066,-0.480065 0,-0.26525 -0.21602,-0.480065 -0.480066,-0.480065 L 7.93017,11.1 c -0.26525,0 -0.480065,0.214815 -0.480065,0.480065 0,0.26525 0.216015,0.480265 0.480065,0.480265 z"
       id="path4"
       style="fill:#d6dbf1;fill-opacity:1;stroke-width:0.0514429" />
    <path
       d="M 17.963605,16.280065 C 17.963605,16.014815 17.747585,15.8 17.483541,15.8 H 7.930065 C 7.664815,15.8 7.45,16.014815 7.45,16.280065 c 0,0.26525 0.21602,0.48007 0.480065,0.48007 h 9.552445 c 0.265251,0 0.481275,-0.21602 0.481275,-0.48007 z"
       id="path8"
       style="fill:#d6dbf1;fill-opacity:1;stroke-width:0.0514429" />
    <path
       d="M 17.963605,20.880065 C 17.963605,20.614815 17.747585,20.4 17.483541,20.4 H 7.930065 C 7.664815,20.4 7.45,20.614815 7.45,20.880065 c 0,0.26525 0.21602,0.48007 0.480065,0.48007 h 9.552445 c 0.265251,0 0.481275,-0.21602 0.481275,-0.48007 z"
       id="path8-3"
       style="fill:#00ccff;fill-opacity:1;stroke-width:0.0514429;fill-rule:evenodd" />
    <rect
       x="12"
       y="4"
       width="8"
       height="2.5"
       id="rect14-0-8-3"
       style="fill:#d6dbf1;fill-opacity:1;stroke-width:2.10519"
       ry="1.25"
       rx="1.5999986" />
  </g>
</svg>
