<?xml version="1.0" encoding="UTF-8" standalone="no"?>
<svg
   id="svg3287"
   version="1.1"
   inkscape:version="1.2.1 (9c6d41e410, 2022-07-14)"
   width="32.000004"
   height="32"
   sodipodi:docname="knotes.svg"
   viewBox="0 0 32.000004 32"
   xmlns:inkscape="http://www.inkscape.org/namespaces/inkscape"
   xmlns:sodipodi="http://sodipodi.sourceforge.net/DTD/sodipodi-0.dtd"
   xmlns="http://www.w3.org/2000/svg"
   xmlns:svg="http://www.w3.org/2000/svg"
   xmlns:rdf="http://www.w3.org/1999/02/22-rdf-syntax-ns#"
   xmlns:cc="http://creativecommons.org/ns#"
   xmlns:dc="http://purl.org/dc/elements/1.1/">
  <g
     id="22-22-knotes"
     transform="translate(31.999853,10)">
    <rect
       style="fill:none;fill-opacity:1;stroke:none;stroke-width:0.1;stroke-linecap:square;stroke-linejoin:miter;stroke-miterlimit:4;stroke-dasharray:none;stroke-dashoffset:0;stroke-opacity:1"
       id="rect4148"
       width="22"
       height="22"
       x="1.3415527e-07"
       y="0" />
    <rect
       style="fill:#4e5a7e;fill-opacity:0.501961;stroke:none;stroke-width:0.347605"
       id="center-3-35-6"
       width="13.181415"
       height="14.666667"
       x="4.4092927"
       y="3.6666665"
       ry="0.54741049" />
    <path
       d="m 7.170845,10 h 4.658294 C 11.923489,10 12,9.776123 12,9.499998 12,9.223877 11.9235,9 11.829139,9 H 7.170845 C 7.076495,9 7,9.223877 7,9.499998 7,9.776123 7.07649,10 7.170845,10 Z"
       id="path4-3-36-7"
       style="fill:#d1d5e9;fill-opacity:1;stroke-width:0.292278" />
    <path
       d="m 7.154364,7 h 3.691272 C 10.930846,7 11,6.776122 11,6.500001 11,6.223876 10.93094,6 10.845636,6 H 7.154364 C 7.069024,6 7,6.223876 7,6.500001 7,6.776122 7.06906,7 7.154364,7 Z"
       id="path6-6-7-0"
       style="fill:#d1d5e9;fill-opacity:1;stroke-width:0.277819" />
    <path
       d="m 7.252703,12.999999 h 5.494593 C 12.886856,12.999999 13,12.776122 13,12.500001 13,12.223878 12.886856,11.999999 12.747296,11.999999 H 7.252703 C 7.113144,11.999999 7,12.223878 7,12.500001 7,12.776124 7.113142,13 7.252703,12.999999 Z"
       id="path8-5-9"
       style="fill:#d1d5e9;fill-opacity:1;stroke-width:0.355461" />
    <path
       d="M 13.777063,14.999999 H 7.22292 C 7.099813,14.999999 7,15.223878 7,15.500001 7,15.776124 7.09981,16 7.22292,16 h 6.554143 C 13.900171,15.999999 14,15.776122 14,15.500001 14,15.223878 13.90017,14.999999 13.777063,14.999999 Z"
       id="path10-7-3-3"
       style="fill:#d1d5e9;fill-opacity:1;stroke-width:0.333861" />
    <path
       d="M 15.000205,6 C 14.44868,6 14,6.549164 14,7.224117 v 1.004262 0.785591 5.192474 c 0,0.0234 0.004,0.04534 0.01174,0.06539 2.61e-4,7.33e-4 1.42e-4,0.0016 4.34e-4,0.0024 l 0.868159,2.298612 c 0.02157,0.0572 0.0684,0.09382 0.119862,0.09382 0.05147,0 0.09826,-0.03661 0.119855,-0.09383 l 0.446351,-1.181837 c 3.59e-4,-8.67e-4 9.68e-4,-0.0015 9.68e-4,-0.0024 2.91e-4,-7.33e-4 1.87e-4,-0.0015 4.6e-4,-0.0023 l 0.419988,-1.112058 c 2.91e-4,-7.34e-4 1.55e-4,-0.0016 4.36e-4,-0.0024 0.0072,-0.02006 0.01175,-0.04199 0.01175,-0.06539 V 9.013981 8.228391 7.224129 c 0,-0.674954 -0.448683,-1.224117 -1.000138,-1.224117 z m -1.09e-4,7.999999 v 0 -4.666665 0 z m 0.380427,1.112834 c -0.244414,-0.09945 -0.51869,-0.09886 -0.760644,7.8e-5 l -0.281333,-0.744852 h 1.323264 z m -0.380427,-1.112834 v -4.666665 0 z m 0.736153,-5.143332 h -1.472158 v 0 z m -0.736044,7.26321 -0.268268,-0.710267 c 0.171713,-0.06281 0.362691,-0.06317 0.536496,4e-5 z M 15.736249,8 H 14.264091 V 7.224117 c 0,-0.496765 0.330239,-0.900885 0.736114,-0.900885 0.405873,0 0.736044,0.40412 0.736044,0.900885 z"
       id="path12-5-5-6"
       style="fill:#d1d5e9;fill-opacity:1;stroke-width:0.146085"
       sodipodi:nodetypes="csccscccsccccccsccsccccccccccccccccccccccccssccss" />
    <path
       d="M 16.571432,3 H 5.428586 C 4.642872,3 4,3.600014 4,4.333362 v 13.333635 c 0,0.733352 0.642872,1.333365 1.428586,1.333365 H 16.571432 C 17.357147,19.000362 18,18.400349 18,17.666997 V 4.333362 C 18,3.600014 17.357147,3 16.571432,3 Z M 17.064,17.467 C 17.0658,17.833667 16.763838,18 16.371,18 H 5.629 C 5.236126,17.999999 5,17.83367 5,17.467 V 4.533 C 5,4.166327 5.236126,4 5.629,4 H 16.371 C 16.763842,4 16.998186,4.166331 17,4.533 Z"
       id="path2-3-6-0"
       style="fill:#d1d5e9;fill-opacity:1;stroke-width:0.345035"
       sodipodi:nodetypes="ssssssssssssssssss" />
  </g>
  <g
     id="knotes">
    <rect
       y="0"
       x="-1.3415527e-07"
       height="32"
       width="32.000004"
       id="rect4230"
       style="fill:none;fill-opacity:1;stroke:none" />
    <rect
       style="fill:#4e5a7e;fill-opacity:0.501961;stroke:none;stroke-width:0.539054"
       id="center-3-35"
       width="20.572001"
       height="22.6"
       x="5.6999998"
       y="4.6999998"
       ry="0.84350979" />
    <path
       d="m 9.239183,14 h 6.52161 C 15.892886,14 16,13.776123 16,13.499999 16,13.223877 15.892897,13 15.760793,13 H 9.239183 C 9.107093,13 9,13.223877 9,13.499999 9,13.776123 9.107086,14 9.239183,14 Z"
       id="path4-3-5"
       style="fill:#d1d5e9;fill-opacity:1;stroke-width:0.34583" />
    <path
       d="m 9.192955,10 h 4.61409 C 13.913557,10 14,9.776123 14,9.500001 14,9.223877 13.91368,9 13.807045,9 H 9.192955 C 9.086275,9 9,9.223877 9,9.500001 9,9.776123 9.08632,10 9.192955,10 Z"
       id="path6-6-6"
       style="fill:#d1d5e9;fill-opacity:1;stroke-width:0.310613" />
    <path
       d="m 9.379054,18 h 8.24189 C 17.830284,18 18,17.776123 18,17.500001 18,17.223877 17.830285,17 17.620944,17 H 9.379054 C 9.169716,17 9,17.223877 9,17.500001 9,17.776123 9.169713,18 9.379054,18 Z"
       id="path8-2"
       style="fill:#d1d5e9;fill-opacity:1;stroke-width:0.435349" />
    <path
       d="M 19.649671,22 H 9.350303 C 9.156849,22 9,22.223878 9,22.500001 9,22.776123 9.156849,23 9.350303,23 H 19.649671 C 19.843126,23 20,22.776123 20,22.500001 20,22.223878 19.843126,22 19.649671,22 Z"
       id="path10-7-9"
       style="fill:#d1d5e9;fill-opacity:1;stroke-width:0.418517" />
    <path
       d="M 22.000213,8 C 20.897272,8 20,8.823745 20,9.836175 v 1.506393 1.178386 7.788712 c 0,0.0351 0.008,0.06801 0.02351,0.09809 5.21e-4,0.0011 2.83e-4,0.0024 8.7e-4,0.0036 l 1.736147,3.44792 C 21.803687,23.945076 21.897334,24 22.000226,24 c 0.102895,0 0.196505,-0.05492 0.239688,-0.140743 l 0.892588,-1.772756 c 7.18e-4,-0.0013 0.0018,-0.0023 0.0023,-0.0036 5.8e-4,-0.0011 3.7e-4,-0.0023 9.18e-4,-0.0034 l 0.839896,-1.668088 c 5.79e-4,-0.0011 3.08e-4,-0.0024 8.72e-4,-0.0036 0.01467,-0.03009 0.02351,-0.06299 0.02351,-0.09809 V 12.521018 11.342632 9.836239 c 0,-1.01243 -0.897277,-1.836175 -2.000082,-1.836175 z M 22,20 v 0 -7 0 z m 0.760775,1.66925 c -0.488778,-0.149178 -1.037278,-0.14829 -1.521138,1.18e-4 L 20.677028,20.55209 h 2.646267 z M 22,20 v -7 0 z m 1.472159,-7.715 h -2.94403 v 0 z m -1.471946,10.894815 -0.536481,-1.065401 c 0.343392,-0.09422 0.72531,-0.09475 1.072886,6e-5 z M 23.472159,11 h -2.94403 V 9.836175 c 0,-0.745147 0.660415,-1.351327 1.472084,-1.351327 0.811668,0 1.471946,0.60618 1.471946,1.351327 z"
       id="path12-5-1"
       style="fill:#d1d5e9;fill-opacity:1;stroke-width:0.253015"
       sodipodi:nodetypes="csccscccsccccccsccsccccccccccccccccccccccccssccss" />
    <path
       d="M 24.755108,4.000002 H 7.244921 C 6.010227,4.000002 5,4.900002 5,6 v 19.999999 c 0,1.100003 1.010227,2.000003 2.244921,2.000003 h 17.510187 c 1.234695,0 2.244892,-0.9 2.244892,-2.000003 V 6 C 27,4.900002 25.989803,4.000002 24.755108,4.000002 Z M 26,25.999999 c 0,0.549995 -0.627569,0.999995 -1.244892,0.999995 H 7.244921 C 6.627548,26.999994 6,26.549994 6,25.999999 V 6 C 6,5.450002 6.627548,5.000002 7.244921,5.000002 H 24.755108 C 25.372431,5.000002 26,5.450002 26,6 Z"
       id="path2-3-2"
       style="fill:#d1d5e9;fill-opacity:1;stroke-width:0.529727"
       sodipodi:nodetypes="ssssssssssssssssss" />
  </g>
  <metadata
     id="metadata4159">
    <rdf:RDF>
      <cc:Work
         rdf:about="">
        <dc:format>image/svg+xml</dc:format>
        <dc:type
           rdf:resource="http://purl.org/dc/dcmitype/StillImage" />
      </cc:Work>
    </rdf:RDF>
  </metadata>
  <defs
     id="defs3287">
    <style
       type="text/css"
       id="current-color-scheme" />
    <linearGradient
       id="oomox"
       x1="33"
       x2="33"
       y1="81"
       y2="95"
       gradientUnits="userSpaceOnUse">
      <stop
         offset="0%"
         style="stop-color:#303b3d; stop-opacity:1"
         id="stop18" />
      <stop
         offset="100%"
         style="stop-color:#bc985d; stop-opacity:1"
         id="stop20" />
    </linearGradient>
  </defs>
  <sodipodi:namedview
     pagecolor="#ffffff"
     bordercolor="#000000"
     borderopacity="1"
     objecttolerance="10"
     gridtolerance="10000"
     guidetolerance="10"
     inkscape:pageopacity="0"
     inkscape:pageshadow="2"
     inkscape:window-width="1920"
     inkscape:window-height="1008"
     id="namedview4155"
     inkscape:document-units="px"
     showgrid="false"
     inkscape:showpageshadow="true"
     borderlayer="true"
     inkscape:zoom="8.0000004"
     inkscape:cx="20.999999"
     inkscape:cy="12.687499"
     inkscape:window-x="0"
     inkscape:window-y="0"
     inkscape:window-maximized="1"
     inkscape:current-layer="svg3287"
     fit-margin-top="0"
     fit-margin-left="0"
     fit-margin-right="0"
     fit-margin-bottom="0"
     inkscape:snap-bbox="true"
     inkscape:bbox-nodes="true"
     inkscape:document-rotation="0"
     showguides="false"
     inkscape:lockguides="false"
     inkscape:pagecheckerboard="0"
     inkscape:deskcolor="#cccccc">
    <inkscape:grid
       type="xygrid"
       id="grid4140"
       originx="1.3415527e-07"
       originy="0" />
    <sodipodi:guide
       position="2.0000001,29.999999"
       orientation="28,0"
       id="guide4186"
       inkscape:locked="false" />
    <sodipodi:guide
       position="2.0000001,1.999999"
       orientation="0,28.000004"
       id="guide4188"
       inkscape:locked="false" />
    <sodipodi:guide
       position="30.000004,1.999999"
       orientation="-28,0"
       id="guide4190"
       inkscape:locked="false" />
    <sodipodi:guide
       position="30.000004,29.999999"
       orientation="0,-28.000004"
       id="guide4192"
       inkscape:locked="false" />
    <sodipodi:guide
       position="1.3415527e-07,31.999999"
       orientation="32,0"
       id="guide4194"
       inkscape:locked="false" />
    <sodipodi:guide
       position="1.3415527e-07,-1e-06"
       orientation="0,32.000004"
       id="guide4196"
       inkscape:locked="false" />
    <sodipodi:guide
       position="32.000004,-1e-06"
       orientation="-32,0"
       id="guide4198"
       inkscape:locked="false" />
    <sodipodi:guide
       position="32.000004,31.999999"
       orientation="0,-32.000004"
       id="guide4200"
       inkscape:locked="false" />
  </sodipodi:namedview>
  <inkscape:clipboard
     style="opacity:0.01000001;fill:#00000f;fill-opacity:0;stroke-width:1;stroke-linecap:butt;stroke-linejoin:miter;stroke-miterlimit:4;stroke-dasharray:none;stroke-dashoffset:0;stroke-opacity:1;stroke:none"
     min="0,0"
     max="22,22" />
</svg>
