<?xml version="1.0" encoding="UTF-8" standalone="no"?>
<svg
   width="32"
   height="32"
   version="1.1"
   id="svg12"
   sodipodi:docname="konv_message.svg"
   inkscape:version="1.1.1 (3bf5ae0d25, 2021-09-20)"
   xmlns:inkscape="http://www.inkscape.org/namespaces/inkscape"
   xmlns:sodipodi="http://sodipodi.sourceforge.net/DTD/sodipodi-0.dtd"
   xmlns="http://www.w3.org/2000/svg"
   xmlns:svg="http://www.w3.org/2000/svg"
   xmlns:rdf="http://www.w3.org/1999/02/22-rdf-syntax-ns#"
   xmlns:cc="http://creativecommons.org/ns#"
   xmlns:dc="http://purl.org/dc/elements/1.1/">
  <g
     id="22-22-konv_message">
    <rect
       style="opacity:0.00100002"
       width="22"
       height="22"
       x="32"
       y="10"
       id="rect2" />
    <path
       d="M 35.669672,29 V 25.437956 H 34.935245 C 34.200819,25.437956 33.65,24.912408 33.65,24.211678 V 14.226277 C 33.65,13.525547 34.200819,13 34.935245,13 h 16.096178 c 0.734423,0 1.285244,0.525547 1.285244,1.226277 v 9.985401 c 0,0.70073 -0.550821,1.226278 -1.285244,1.226278 H 41.116666 Z M 34.935245,13.875913 c -0.183606,0 -0.367212,0.175182 -0.367212,0.350364 v 9.985401 c 0,0.175183 0.183606,0.350366 0.367212,0.350366 h 1.65246 v 2.744525 l 4.222953,-2.744525 H 50.97022 c 0.183601,0 0.367211,-0.175183 0.367211,-0.350366 v -9.985401 c 0,-0.175182 -0.18361,-0.350364 -0.367211,-0.350364 z"
       id="path2-367"
       style="fill:#d6dbf1;fill-opacity:1;stroke-width:0.597817" />
    <rect
       style="fill:#4e5a7e;fill-opacity:0.501961;stroke:none;stroke-width:0.380849;enable-background:new"
       id="center-3-35-5"
       width="10.709852"
       height="16.772045"
       x="13.866667"
       y="-51.343643"
       ry="0.40569213"
       transform="rotate(90)"
       rx="0.45639688" />
    <path
       d="m 47.621501,19.477767 v 0 0 0 0 0 0 0 0 0 0 0 c 0,0 -0.0013,-0.0012 0,0 z m -0.664603,3.733323 c -0.367047,0 -0.66463,-0.278599 -0.66463,-0.622225 v -0.0035 c -1.69e-4,-1.56e-4 -3.38e-4,0 -3.87e-4,-3.11e-4 -0.233328,-0.517707 -0.869901,-0.971909 -1.760231,-1.302327 l 0.0015,-0.0035 c -0.136622,-0.04573 -0.234947,-0.166637 -0.234947,-0.310196 0,-0.182603 0.158038,-0.330554 0.353085,-0.330554 0.05647,0 0.109207,0.01349 0.156583,0.03566 1.061851,0.371562 1.82383,0.896716 2.09531,1.498734 0.07186,0.159522 0.05352,-2.693785 0.05352,-2.693785 v -1.400134 c 0,0 0.01839,-2.697752 -0.05355,-2.538249 -0.531886,1.180004 -2.937121,2.070791 -5.823778,2.070791 -0.05419,0 -0.100774,3.1e-4 -0.143768,6.42e-4 H 40.64275 c -0.183521,4e-6 -0.332316,0.139304 -0.332316,0.311114 -2e-6,0.171811 -0.148797,0.31111 -0.332318,0.31111 H 39.64595 c -0.367042,0 -0.664631,0.2786 -0.664631,0.622221 0,0.343621 0.297589,0.62222 0.664631,0.62222 h 0.332315 c 0.183517,0 0.332322,0.139299 0.332322,0.31111 0,0.171811 0.148791,0.311109 0.332307,0.311109 h 0.310737 c 0.03843,3.9e-4 0.07934,6.42e-4 0.125907,6.42e-4 0.0398,0 0.07871,0.0015 0.118292,0.0017 0.465858,0.01528 0.861466,0.285443 1.031832,0.667486 l 1.008472,2.362858 c 0.164883,0.386187 -0.07332,0.699576 -0.532043,0.699576 h -0.628289 c -0.458892,0 -0.96464,-0.313389 -1.129518,-0.699997 l -0.582523,-1.364611 0.0013,-5.05e-4 c -0.01659,-0.03645 -0.02559,-0.07657 -0.02559,-0.118647 0,-0.168466 0.145866,-0.305042 0.325835,-0.305042 0.141482,0 0.260907,0.08507 0.305874,0.203096 l 0.586886,1.352384 c 0.07465,0.171813 0.2838,0.311104 0.467318,0.311104 h 0.235449 c 0.183518,0 0.271961,-0.139291 0.197312,-0.311104 L 41.65014,21.03329 c -0.07463,-0.171816 -0.283784,-0.311108 -0.467314,-0.311108 h -0.207693 -0.02779 -0.470722 c -0.31462,0 -0.587555,-0.164218 -0.72856,-0.405466 -6.66e-4,-0.0023 -0.0015,-0.0053 -0.0025,-0.0078 -0.02013,-0.0354 -0.03749,-0.07231 -0.05225,-0.110286 -0.008,-0.02117 -0.0211,-0.04102 -0.03911,-0.05789 -0.02987,-0.02808 -0.06848,-0.04313 -0.107753,-0.04527 0,0 0,-1.54e-4 -1.67e-4,-1.54e-4 -0.687332,-0.04774 -1.229608,-0.583971 -1.229608,-1.239765 0,-0.655809 0.542276,-1.192041 1.229795,-1.239737 1.66e-4,0 1.66e-4,-1.6e-4 1.66e-4,-1.6e-4 0.03927,-0.0017 0.07789,-0.01711 0.107754,-0.04527 0.01818,-0.01685 0.03115,-0.03671 0.03911,-0.05789 1.66e-4,-3.89e-4 5.44e-4,-3.89e-4 6.66e-4,-7.33e-4 0.112923,-0.303806 0.419592,-0.52271 0.782586,-0.52271 h 0.498468 0.07903 c 2.596049,0 4.759196,-0.801012 5.237544,-1.862247 1.61e-4,-1.57e-4 3.24e-4,-1.57e-4 3.89e-4,-3.11e-4 v -0.0041 c 2e-5,-0.343735 0.297616,-0.622334 0.664664,-0.622334 0.367034,0 0.66463,0.278599 0.66463,0.62222 v 2.333332 0.155545 0.622226 0.622225 0.622211 0.622225 0.155561 2.333312 c 0,0.343626 -0.297596,0.622225 -0.66463,0.622225 z m -3.821624,-2.644432 c 0,-0.171813 0.14879,-0.311106 0.332322,-0.311106 0.183516,0 0.332307,0.139293 0.332307,0.311106 0,0.171813 -0.148791,0.311105 -0.332307,0.311105 -0.183532,0 -0.332322,-0.139292 -0.332322,-0.311105 z"
       id="path2-3-3"
       style="fill:#00a3cc;fill-opacity:1;stroke-width:0.0200959"
       sodipodi:nodetypes="cccccccccccccccsccccsscccccsccsssssssscscccsscccssccssccsccsccccccscccscscsccssscccccccsccsssss" />
    <path
       inkscape:connector-curvature="0"
       id="fill-5"
       d="m 36.587705,24.562044 v 2.744525 l 4.222953,-2.744525 v 0 z"
       style="color:#1e92ff;fill:#4e5a7e;fill-opacity:0.501961;fill-rule:nonzero;stroke:none;stroke-width:0.666667"
       class="ColorScheme-ButtonFocus"
       sodipodi:nodetypes="ccccc" />
  </g>
  <metadata
     id="metadata18">
    <rdf:RDF>
      <cc:Work
         rdf:about="">
        <dc:format>image/svg+xml</dc:format>
        <dc:type
           rdf:resource="http://purl.org/dc/dcmitype/StillImage" />
      </cc:Work>
    </rdf:RDF>
  </metadata>
  <defs
     id="defs16" />
  <sodipodi:namedview
     pagecolor="#ffffff"
     bordercolor="#000000"
     borderopacity="1"
     objecttolerance="10"
     gridtolerance="10"
     guidetolerance="10"
     inkscape:pageopacity="0"
     inkscape:pageshadow="2"
     inkscape:window-width="1920"
     inkscape:window-height="1007"
     id="namedview14"
     showgrid="false"
     inkscape:zoom="9.8125003"
     inkscape:cx="28.840763"
     inkscape:cy="19.821655"
     inkscape:window-x="0"
     inkscape:window-y="0"
     inkscape:window-maximized="1"
     inkscape:current-layer="svg12"
     inkscape:document-rotation="0"
     inkscape:pagecheckerboard="false"
     inkscape:showpageshadow="false"
     inkscape:lockguides="true">
    <inkscape:grid
       type="xygrid"
       id="grid896"
       originx="0"
       originy="0" />
  </sodipodi:namedview>
  <g
     id="konv_message">
    <rect
       style="opacity:0.00100002;fill:#eff0f1;fill-opacity:1"
       width="32"
       height="32"
       x="0"
       y="0"
       id="rect7" />
    <path
       d="M 5.0295085,27.999999 V 22.656933 H 3.9278682 C 2.8262291,22.656933 2,21.868612 2,20.817517 V 5.8394161 C 2,4.7883212 2.8262291,4 3.9278682,4 H 28.072133 C 29.173768,4 30,4.7883212 30,5.8394161 V 20.817517 c 0,1.051095 -0.826232,1.839416 -1.927867,1.839416 H 13.199999 Z M 3.9278682,5.3138687 c -0.275409,0 -0.550819,0.2627737 -0.550819,0.5255474 V 20.817517 c 0,0.262774 0.27541,0.525548 0.550819,0.525548 h 2.4786894 v 4.116788 l 6.3344294,-4.116788 h 15.239342 c 0.275402,0 0.550817,-0.262774 0.550817,-0.525548 V 5.8394161 c 0,-0.2627737 -0.275415,-0.5255474 -0.550817,-0.5255474 z"
       id="path2"
       style="fill:#d6dbf1;fill-opacity:1;stroke-width:0.896726" />
    <rect
       style="fill:#4e5a7e;fill-opacity:0.501961;stroke:none;stroke-width:0.571273;enable-background:new"
       id="center-3-35"
       width="16.064777"
       height="25.158066"
       x="5.3000002"
       y="-28.54047"
       ry="0.60853815"
       transform="rotate(90)"
       rx="0.68459529" />
    <path
       d="m 22.95725,13.71665 v 0 0 0 0 0 0 0 0 0 0 0 c 0,0 -0.0019,-0.0018 0,0 z m -0.996904,5.599985 c -0.550571,0 -0.996945,-0.417899 -0.996945,-0.933338 v -0.0052 c -2.53e-4,-2.35e-4 -5.07e-4,0 -5.81e-4,-4.67e-4 -0.349992,-0.776561 -1.304851,-1.457863 -2.640346,-1.95349 l 0.0023,-0.0053 c -0.204933,-0.0686 -0.35242,-0.249956 -0.35242,-0.465294 0,-0.273904 0.237056,-0.495831 0.529627,-0.495831 0.08471,0 0.163811,0.02023 0.234874,0.05349 1.592777,0.557343 2.735745,1.345074 3.142965,2.248101 0.107795,0.239283 0.08028,-4.040678 0.08028,-4.040678 v -2.1002 c 0,0 0.02759,-4.0466276 -0.08032,-3.8073738 -0.79783,1.7700068 -4.405682,3.1061858 -8.735667,3.1061858 -0.08128,0 -0.151161,4.66e-4 -0.215652,9.63e-4 h -0.439336 c -0.275282,7e-6 -0.498474,0.208956 -0.498474,0.466672 -3e-6,0.257716 -0.223196,0.466665 -0.498477,0.466665 h -0.498249 c -0.550564,0 -0.9969469,0.417899 -0.9969469,0.933331 0,0.515432 0.4463829,0.93333 0.9969469,0.93333 h 0.498472 c 0.275275,0 0.498483,0.208949 0.498483,0.466665 0,0.257716 0.223187,0.466664 0.498461,0.466664 h 0.466105 c 0.05765,5.84e-4 0.11901,9.63e-4 0.18886,9.63e-4 0.0597,0 0.11806,0.0023 0.177438,0.0026 0.698787,0.02292 1.292199,0.428165 1.547749,1.001229 l 1.512707,3.544287 c 0.247325,0.579281 -0.10998,1.049365 -0.798064,1.049365 h -0.942433 c -0.688338,0 -1.446961,-0.470084 -1.694278,-1.049996 l -0.873784,-2.046916 0.002,-7.58e-4 c -0.02489,-0.05467 -0.03839,-0.114854 -0.03839,-0.17797 0,-0.252699 0.218799,-0.457564 0.488752,-0.457564 0.212224,0 0.391361,0.127604 0.458811,0.304645 l 0.880329,2.028575 c 0.111972,0.25772 0.4257,0.466657 0.700978,0.466657 h 0.353173 c 0.275277,0 0.407941,-0.208937 0.295968,-0.466657 l -1.215007,-2.800005 c -0.111946,-0.257724 -0.425676,-0.466661 -0.700971,-0.466661 h -0.31154 -0.04169 -0.706083 c -0.47193,0 -0.881332,-0.246327 -1.092839,-0.6082 -10e-4,-0.0034 -0.0023,-0.008 -0.0038,-0.01175 -0.03019,-0.0531 -0.05624,-0.10847 -0.07837,-0.16543 -0.01193,-0.03175 -0.03165,-0.06153 -0.05867,-0.08684 -0.0448,-0.04212 -0.102716,-0.0647 -0.161629,-0.0679 0,0 0,-2.3e-4 -2.51e-4,-2.3e-4 C 9.8134145,14.571367 9,13.767017 9,12.783326 c 0,-0.983713 0.8134145,-1.788061 1.844692,-1.859605 2.5e-4,0 2.5e-4,-2.41e-4 2.5e-4,-2.41e-4 0.05891,-0.0026 0.116831,-0.02566 0.161631,-0.0679 0.02727,-0.02527 0.04673,-0.05506 0.05867,-0.08683 2.49e-4,-5.84e-4 8.17e-4,-5.84e-4 10e-4,-0.0011 0.169384,-0.455709 0.629387,-0.7840639 1.173879,-0.7840639 h 0.747701 0.118539 c 3.894074,0 7.138794,-1.2015187 7.856316,-2.7933712 2.42e-4,-2.345e-4 4.86e-4,-2.345e-4 5.84e-4,-4.673e-4 V 7.183502 C 20.963291,6.6678989 21.409685,6.25 21.960257,6.25 c 0.550551,0 0.996946,0.4178989 0.996946,0.9333296 v 3.4999984 0.233317 0.93334 0.933337 0.933317 0.933337 0.233341 3.499969 c 0,0.515439 -0.446395,0.933337 -0.996946,0.933337 z M 16.22791,15.349986 c 0,-0.257719 0.223186,-0.466658 0.498483,-0.466658 0.275275,0 0.498461,0.208939 0.498461,0.466658 0,0.25772 -0.223186,0.466658 -0.498461,0.466658 -0.275297,0 -0.498483,-0.208938 -0.498483,-0.466658 z"
       id="path2-3"
       style="fill:#00a3cc;fill-opacity:1;stroke-width:0.0301438"
       sodipodi:nodetypes="cccccccccccccccsccccsscccccsccsssssssscscccsscccssccssccsccsccccccscccscscsccssscccccccsccsssss" />
    <path
       inkscape:connector-curvature="0"
       id="fill"
       d="m 6.4065576,21.343065 v 4.116788 l 6.3344294,-4.116788 v 0 z"
       style="color:#1e92ff;fill:#4e5a7e;fill-opacity:0.501961;fill-rule:nonzero;stroke:none"
       class="ColorScheme-ButtonFocus"
       sodipodi:nodetypes="ccccc" />
  </g>
</svg>
