<?xml version="1.0" encoding="UTF-8" standalone="no"?>
<svg
   width="32"
   height="32"
   version="1.1"
   id="svg12"
   sodipodi:docname="kopete.svg"
   inkscape:version="1.1.1 (3bf5ae0d25, 2021-09-20)"
   xmlns:inkscape="http://www.inkscape.org/namespaces/inkscape"
   xmlns:sodipodi="http://sodipodi.sourceforge.net/DTD/sodipodi-0.dtd"
   xmlns="http://www.w3.org/2000/svg"
   xmlns:svg="http://www.w3.org/2000/svg"
   xmlns:rdf="http://www.w3.org/1999/02/22-rdf-syntax-ns#"
   xmlns:cc="http://creativecommons.org/ns#"
   xmlns:dc="http://purl.org/dc/elements/1.1/">
  <g
     id="22-22-kopete">
    <rect
       style="opacity:0.00100002"
       width="22"
       height="22"
       x="32"
       y="10"
       id="rect2" />
    <path
       d="M 35.719672,29 V 25.437956 H 34.985245 C 34.250819,25.437956 33.7,24.912408 33.7,24.211678 V 14.226277 C 33.7,13.525547 34.250819,13 34.985245,13 h 16.096178 c 0.734423,0 1.285244,0.525547 1.285244,1.226277 v 9.985401 c 0,0.70073 -0.550821,1.226278 -1.285244,1.226278 H 41.166666 Z M 34.985245,13.875913 c -0.183606,0 -0.367212,0.175182 -0.367212,0.350364 v 9.985402 c 0,0.175182 0.183606,0.350365 0.367212,0.350365 h 1.65246 v 2.744525 l 4.222953,-2.744525 H 51.02022 c 0.183601,0 0.367211,-0.175183 0.367211,-0.350365 v -9.985402 c 0,-0.175182 -0.18361,-0.350364 -0.367211,-0.350364 z"
       id="path2-3"
       style="fill:#d6dbf1;fill-opacity:1;stroke-width:0.597817" />
    <rect
       style="fill:#4e5a7e;fill-opacity:0.501961;stroke:none;stroke-width:0.380849;enable-background:new"
       id="center-3-35-6"
       width="10.709852"
       height="16.772045"
       x="13.866668"
       y="-51.393639"
       ry="0.40569213"
       transform="rotate(90)"
       rx="0.45639688" />
    <path
       inkscape:connector-curvature="0"
       id="fill-7"
       d="m 36.637705,24.562044 v 2.744525 l 4.222953,-2.744525 v 0 z"
       style="color:#1e92ff;fill:#4e5a7e;fill-opacity:0.501961;fill-rule:nonzero;stroke:none;stroke-width:0.666667"
       class="ColorScheme-ButtonFocus"
       sodipodi:nodetypes="ccccc" />
    <path
       style="fill:#d6dbf1;fill-opacity:1;stroke-width:0.666667"
       d="m 43.366667,15.666667 a 3.3333335,3.6666668 0 0 0 -0.660156,0.07552 3.3333335,3.6666668 0 0 1 2.660156,3.591146 3.3333335,3.6666668 0 0 1 -2.673177,3.591146 3.3333335,3.6666668 0 0 0 0.673177,0.07552 3.3333335,3.6666668 0 0 0 3.333334,-3.666667 3.3333335,3.6666668 0 0 0 -3.333334,-3.666665 z m -3.333333,1 A 0.66666669,0.66666669 0 0 0 39.366667,17.333334 0.66666669,0.66666669 0 0 0 40.033334,18 0.66666669,0.66666669 0 0 0 40.7,17.333334 0.66666669,0.66666669 0 0 0 40.033334,16.666667 Z m 1.333333,2 C 40.997334,18.666667 40.7,18.964 40.7,19.333334 40.7,19.702667 40.997334,20 41.366667,20 h 2 c 0.369333,0 0.666667,-0.297333 0.666667,-0.666666 0,-0.369334 -0.297334,-0.666667 -0.666667,-0.666667 z m -1.333333,2 c -0.3682,0 -0.666667,0.298477 -0.666667,0.666667 0,0.36819 0.298477,0.666666 0.666667,0.666666 0.235656,0 0.333333,0.666667 0.333333,0.666667 0,0 0.333333,-1.2008 0.333333,-1.333333 0,-0.3682 -0.298476,-0.666667 -0.666666,-0.666667 z"
       id="path12-3-5" />
  </g>
  <metadata
     id="metadata18">
    <rdf:RDF>
      <cc:Work
         rdf:about="">
        <dc:format>image/svg+xml</dc:format>
        <dc:type
           rdf:resource="http://purl.org/dc/dcmitype/StillImage" />
      </cc:Work>
    </rdf:RDF>
  </metadata>
  <defs
     id="defs16" />
  <sodipodi:namedview
     pagecolor="#ffffff"
     bordercolor="#000000"
     borderopacity="1"
     objecttolerance="10"
     gridtolerance="10"
     guidetolerance="10"
     inkscape:pageopacity="0"
     inkscape:pageshadow="2"
     inkscape:window-width="1920"
     inkscape:window-height="1007"
     id="namedview14"
     showgrid="false"
     inkscape:zoom="9.8125"
     inkscape:cx="29.859873"
     inkscape:cy="12.484076"
     inkscape:window-x="0"
     inkscape:window-y="0"
     inkscape:window-maximized="1"
     inkscape:current-layer="svg12"
     inkscape:lockguides="false"
     inkscape:document-rotation="0"
     inkscape:showpageshadow="false"
     inkscape:pagecheckerboard="0">
    <inkscape:grid
       type="xygrid"
       id="grid863"
       originx="0"
       originy="0" />
  </sodipodi:namedview>
  <g
     id="kopete">
    <rect
       style="opacity:0.00100002"
       width="32"
       height="32"
       x="0"
       y="0"
       id="rect7" />
    <path
       d="M 5.0295085,27.999999 V 22.656933 H 3.9278682 C 2.8262291,22.656933 2,21.868612 2,20.817517 V 5.8394161 C 2,4.7883212 2.8262291,4 3.9278682,4 H 28.072133 C 29.173768,4 30,4.7883212 30,5.8394161 V 20.817517 c 0,1.051095 -0.826232,1.839416 -1.927867,1.839416 H 13.199999 Z M 3.9278682,5.3138687 c -0.275409,0 -0.550819,0.2627737 -0.550819,0.5255474 V 20.817517 c 0,0.262774 0.27541,0.525548 0.550819,0.525548 h 2.4786894 v 4.116788 l 6.3344294,-4.116788 h 15.239342 c 0.275402,0 0.550817,-0.262774 0.550817,-0.525548 V 5.8394161 c 0,-0.2627737 -0.275415,-0.5255474 -0.550817,-0.5255474 z"
       id="path2"
       style="fill:#d6dbf1;fill-opacity:1;stroke-width:0.896726" />
    <rect
       style="fill:#4e5a7e;fill-opacity:0.501961;stroke:none;stroke-width:0.571273;enable-background:new"
       id="center-3-35"
       width="16.064777"
       height="25.158066"
       x="5.3000002"
       y="-28.54047"
       ry="0.60853815"
       transform="rotate(90)"
       rx="0.68459529" />
    <path
       inkscape:connector-curvature="0"
       id="fill"
       d="m 6.4065576,21.343065 v 4.116788 l 6.3344294,-4.116788 v 0 z"
       style="color:#1e92ff;fill:#4e5a7e;fill-opacity:0.501961;fill-rule:nonzero;stroke:none"
       class="ColorScheme-ButtonFocus"
       sodipodi:nodetypes="ccccc" />
    <path
       style="fill:#d6dbf1;fill-opacity:1"
       d="M 16.5,8 A 5,5.5 0 0 0 15.509766,8.1132812 5,5.5 0 0 1 19.5,13.5 5,5.5 0 0 1 15.490234,18.886719 5,5.5 0 0 0 16.5,19 a 5,5.5 0 0 0 5,-5.5 5,5.5 0 0 0 -5,-5.5 z m -5,1.5 a 1,1 0 0 0 -1,1 1,1 0 0 0 1,1 1,1 0 0 0 1,-1 1,1 0 0 0 -1,-1 z m 2,3 c -0.554,0 -1,0.446 -1,1 0,0.554 0.446,1 1,1 h 3 c 0.554,0 1,-0.446 1,-1 0,-0.554 -0.446,-1 -1,-1 z m -2,3 c -0.5523,0 -1,0.447715 -1,1 0,0.552285 0.447715,1 1,1 0.353485,0 0.5,1 0.5,1 0,0 0.5,-1.8012 0.5,-2 0,-0.5523 -0.447715,-1 -1,-1 z"
       id="path12-3" />
  </g>
</svg>
