<?xml version="1.0" encoding="UTF-8" standalone="no"?>
<svg
   width="32"
   height="32"
   version="1.1"
   id="svg12"
   sodipodi:docname="korgac.svg"
   inkscape:version="1.1.1 (3bf5ae0d25, 2021-09-20)"
   xmlns:inkscape="http://www.inkscape.org/namespaces/inkscape"
   xmlns:sodipodi="http://sodipodi.sourceforge.net/DTD/sodipodi-0.dtd"
   xmlns="http://www.w3.org/2000/svg"
   xmlns:svg="http://www.w3.org/2000/svg"
   xmlns:rdf="http://www.w3.org/1999/02/22-rdf-syntax-ns#"
   xmlns:cc="http://creativecommons.org/ns#"
   xmlns:dc="http://purl.org/dc/elements/1.1/">
  <g
     id="22-22-korgac"
     transform="translate(32.000001,10.000001)">
    <rect
       style="opacity:0.00100002;fill:#a8aeca;fill-opacity:1"
       width="22"
       height="22"
       x="0"
       y="0"
       id="rect2" />
    <rect
       style="fill:#4e5a7e;fill-opacity:0.5;stroke:none;stroke-width:0.3"
       id="center-3-35-36"
       width="12"
       height="12"
       x="4.1333327"
       y="5.9333324"
       ry="5.9999905" />
    <path
       d="M 10.095913,19 C 6.192293,19 3,15.825057 3,11.904089 3,8.0004697 6.17494,4.8081767 10.095913,4.8081767 c 3.903614,0 7.095907,3.174944 7.095907,7.0959123 C 17.17455,15.825057 13.999527,19 10.095913,19 Z m 0,-13.0641113 c -3.296393,0 -5.9682,2.671749 -5.9682,5.9682003 0,3.296389 2.671747,5.968199 5.9682,5.968199 3.296387,0 5.9682,-2.671748 5.9682,-5.968199 0,-3.2790403 -2.689193,-5.9682003 -5.9682,-5.9682003 z"
       id="path70-7"
       style="fill:#d6dbf1;fill-opacity:1;stroke-width:0.0309811" />
    <path
       d="m 14.935239,12.323521 h -4.842054 c -0.208221,0 -0.364518,-0.145457 -0.364518,-0.339517 v -0.2263 c 0,-0.193942 0.15617,-0.339517 0.364518,-0.339517 h 4.842054 c 0.208227,0 0.364518,0.145456 0.364518,0.339517 v 0.242536 c 0,0.177818 -0.173596,0.323266 -0.364518,0.323266 z"
       id="path72-5"
       style="fill:#d6dbf1;fill-opacity:1;stroke-width:0.0299095" />
    <path
       d="M 9.666667,11.97622 V 7.1357327 c 0,-0.208155 0.15612,-0.3644 0.3644,-0.3644 h 0.242886 c 0.208154,0 0.3644,0.156117 0.3644,0.3644 l -1.26e-4,4.8404873 c 0,0.208156 -0.156114,0.3644 -0.3644,0.3644 h -0.24288 c -0.20816,-0.01743 -0.36428,-0.173544 -0.36428,-0.3644 z"
       id="path74-3"
       style="fill:#d6dbf1;fill-opacity:1;stroke-width:0.0309811" />
    <path
       d="M 4.14506,7.0636317 3.624547,5.7797437 c 0,0 -0.208154,-0.416417 0.41642,-1.093044 0.62458,-0.676627 2.0819,-1.370542 2.0819,-1.370542 0,0 1.44,-0.711357 1.99512,0 0.520513,0.659309 0.83274,0.971536 0.83274,1.023585 -0.01733,-0.01731 -2.949374,0.364399 -4.805787,2.72392 z"
       id="path76-5"
       style="fill:#d6dbf1;fill-opacity:1;stroke-width:0.0309811" />
    <path
       d="m 16.08146,7.0809507 0.503073,-1.301207 c 0,0 0.208154,-0.416416 -0.41642,-1.093044 -0.62458,-0.676627 -2.0819,-1.370541 -2.0819,-1.370541 0,0 -1.44,-0.711357 -1.99512,0 -0.520513,0.659308 -0.83274,0.971536 -0.83274,1.023584 0.0174,0 2.949494,0.381688 4.82314,2.741208 z"
       id="path78-6"
       style="fill:#d6dbf1;fill-opacity:1;stroke-width:0.0309811" />
  </g>
  <metadata
     id="metadata18">
    <rdf:RDF>
      <cc:Work
         rdf:about="">
        <dc:format>image/svg+xml</dc:format>
        <dc:type
           rdf:resource="http://purl.org/dc/dcmitype/StillImage" />
      </cc:Work>
    </rdf:RDF>
  </metadata>
  <defs
     id="defs16" />
  <sodipodi:namedview
     pagecolor="#ffffff"
     bordercolor="#666666"
     borderopacity="1"
     objecttolerance="10"
     gridtolerance="10"
     guidetolerance="10"
     inkscape:pageopacity="0"
     inkscape:pageshadow="2"
     inkscape:window-width="1920"
     inkscape:window-height="1007"
     id="namedview14"
     showgrid="false"
     inkscape:zoom="9.8125"
     inkscape:cx="22.420382"
     inkscape:cy="18.904459"
     inkscape:window-x="0"
     inkscape:window-y="0"
     inkscape:window-maximized="1"
     inkscape:current-layer="svg12"
     inkscape:document-rotation="0"
     inkscape:pagecheckerboard="0"
     inkscape:lockguides="false">
    <inkscape:grid
       type="xygrid"
       id="grid858"
       originx="0"
       originy="0" />
  </sodipodi:namedview>
  <g
     id="korgac">
    <rect
       style="opacity:0.00100002;fill:#a8aeca;fill-opacity:1"
       width="32"
       height="32"
       x="0"
       y="0"
       id="rect7" />
    <rect
       style="fill:#4e5a7e;fill-opacity:0.5;stroke:none;stroke-width:0.45"
       id="center-3-35"
       width="18"
       height="18"
       x="7"
       y="8.3999996"
       ry="8.9999857" />
    <path
       d="M 15.94387,28 C 10.08844,28 5.3,23.237585 5.3,17.356133 5.3,11.500705 10.06241,6.7122658 15.94387,6.7122658 c 5.85542,0 10.64386,4.7624152 10.64386,10.6438672 C 26.56183,23.237585 21.79929,28 15.94387,28 Z m 0,-19.5961661 c -4.94459,0 -8.9523,4.0076231 -8.9523,8.9522991 0,4.944584 4.00762,8.952299 8.9523,8.952299 4.94458,0 8.9523,-4.007622 8.9523,-8.952299 0,-4.918559 -4.03379,-8.9522991 -8.9523,-8.9522991 z"
       id="path70"
       style="fill:#d6dbf1;fill-opacity:1;stroke-width:0.0464717" />
    <path
       d="m 23.202858,17.985281 h -7.263081 c -0.312331,0 -0.546777,-0.218185 -0.546777,-0.509275 v -0.33945 c 0,-0.290913 0.234256,-0.509275 0.546777,-0.509275 h 7.263081 c 0.312341,0 0.546777,0.218184 0.546777,0.509275 v 0.363804 c 0,0.266727 -0.260394,0.484899 -0.546777,0.484899 z"
       id="path72"
       style="fill:#d6dbf1;fill-opacity:1;stroke-width:0.0448643" />
    <path
       d="M 15.3,17.46433 V 10.2036 c 0,-0.3122338 0.23418,-0.5466 0.5466,-0.5466 h 0.36433 c 0.31223,0 0.5466,0.2341752 0.5466,0.5466 l -1.9e-4,7.26073 c 0,0.312234 -0.23417,0.5466 -0.5466,0.5466 H 15.84642 C 15.53418,17.98479 15.3,17.750614 15.3,17.46433 Z"
       id="path74"
       style="fill:#d6dbf1;fill-opacity:1;stroke-width:0.0464717" />
    <path
       d="m 6.9307159,10.095449 -0.78077,-1.9258318 c 0,0 -0.31223,-0.624625 0.62463,-1.639566 0.93687,-1.014941 3.12285,-2.055813 3.12285,-2.055813 0,0 2.1600001,-1.067036 2.9926801,0 0.78077,0.988963 1.24911,1.457304 1.24911,1.535377 -0.026,-0.02596 -4.4240601,0.546599 -7.2086801,4.0858798 z"
       id="path76"
       style="fill:#d6dbf1;fill-opacity:1;stroke-width:0.0464717" />
    <path
       d="m 24.83466,10.121427 0.75461,-1.9518102 c 0,0 0.31223,-0.624625 -0.62463,-1.639566 -0.93687,-1.014941 -3.12285,-2.055813 -3.12285,-2.055813 0,0 -2.16,-1.067035 -2.99268,0 C 18.06834,5.4632008 17.6,5.9315428 17.6,6.0096148 c 0.0261,0 4.42424,0.572531 7.23471,4.1118122 z"
       id="path78"
       style="fill:#d6dbf1;fill-opacity:1;stroke-width:0.0464717" />
  </g>
</svg>
