<?xml version="1.0" encoding="UTF-8" standalone="no"?>
<svg
   width="32"
   height="32"
   version="1.1"
   id="svg361"
   sodipodi:docname="krfb.svg"
   inkscape:version="1.2.1 (9c6d41e410, 2022-07-14)"
   xmlns:inkscape="http://www.inkscape.org/namespaces/inkscape"
   xmlns:sodipodi="http://sodipodi.sourceforge.net/DTD/sodipodi-0.dtd"
   xmlns="http://www.w3.org/2000/svg"
   xmlns:svg="http://www.w3.org/2000/svg">
  <g
     id="22-22-krfb"
     transform="translate(32,10)">
    <rect
       style="opacity:0.00100002"
       width="22"
       height="22"
       x="0"
       y="0"
       id="rect343" />
    <path
       inkscape:connector-curvature="0"
       id="fill-2"
       d="m 1.6666662,15.666667 0.6666665,2.666667 H 19.666665 l 0.666667,-2.666667 h -3.999999 z"
       style="color:#1e92ff;fill:#4e5a7e;fill-opacity:0.501961;fill-rule:nonzero;stroke:none;stroke-width:1.1926"
       class="ColorScheme-ButtonFocus"
       sodipodi:nodetypes="cccccc" />
    <rect
       style="fill:#4e5a7e;fill-opacity:0.501961;stroke:none;stroke-width:0.34253"
       id="center-3-35-5-7"
       width="15.999985"
       height="11.733323"
       x="2.9999981"
       y="3.933332"
       ry="0" />
    <path
       d="M 20.757519,15.185197 A 1.0205632,0.99981198 0 0 0 19.96534,14.822361 H 19.625839 V 5.519687 A 2.571981,2.5196845 0 0 0 17.05385,3 H 4.9449665 A 2.571981,2.5196845 0 0 0 2.3729839,5.519687 v 9.307714 H 2.0231948 a 1.0287919,1.0078749 0 0 0 -1.0082173,1.179213 l 0.308638,1.743621 a 1.5431891,1.5118119 0 0 0 1.5226131,1.249763 H 19.152595 a 1.5431891,1.5118119 0 0 0 1.522611,-1.249763 l 0.308639,-1.743621 A 1.0143899,0.99376398 0 0 0 20.757519,15.185197 Z M 3.4017771,5.519687 A 1.5431891,1.5118119 0 0 1 4.9449665,4.007878 H 17.05385 a 1.5431891,1.5118119 0 0 1 1.543189,1.511809 v 9.307714 H 3.4017771 Z M 19.656706,17.573858 a 0.50822362,0.49788977 0 0 1 -0.504111,0.413227 H 2.8462286 A 0.50822362,0.49788977 0 0 1 2.3421199,17.573858 L 2.0231948,15.830236 H 19.96534 Z"
       id="path515-36-6-0"
       style="fill:#d1d5e9;fill-opacity:1;stroke-width:1.01839" />
    <path
       id="path1594-7-2-9"
       style="fill:#d1d5e9;fill-opacity:1;stroke:#d1d5e9;stroke-width:0.71052;stroke-linecap:round;stroke-linejoin:round;stroke-opacity:1"
       d="M 16.649999,16.933333 H 5.3490732" />
    <path
       id="path1099-5-9-3"
       style="fill:#d1d5e9;fill-opacity:1;fill-rule:evenodd;stroke:#d1d5e9;stroke-width:0.436455;stroke-linecap:round;stroke-linejoin:round;stroke-opacity:1"
       d="m 12.009624,16.933333 c 0,0.431411 -0.354025,0.78177 -0.789941,0.78177 -0.435922,0 -0.789945,-0.350359 -0.789945,-0.78177 0,-0.431637 0.354023,-0.781768 0.789945,-0.781768 0.435916,0 0.789941,0.350131 0.789941,0.781768 z" />
    <path
       style="fill:#d1d5e9;fill-opacity:1;stroke-width:0.5"
       d="M 11.000672,5.333334 C 9.538356,5.33351 8.0982118,6.179888 7.4491068,7.5012988 6.7904366,8.7268762 6.8663956,10.284445 7.6104668,11.454385 8.494408,12.899309 10.359121,13.65536 11.997478,13.202425 13.45355,12.853053 14.61373,11.601022 14.908358,10.141187 15.166595,9.0166125 14.866648,7.802152 14.164707,6.893217 13.428799,5.921606 12.216967,5.329305 10.99864,5.334884 m 0,0.499669 c 0.569127,0.0038 1.132598,0.153409 1.640542,0.406695 -0.257461,0.0845 0.120897,0.330597 -0.07212,0.460278 0.199933,0.130546 0.467184,-0.119685 0.190495,-0.249952 -0.244364,-0.385774 0.624566,0.114351 0.17389,0.2519 -0.153471,0.139464 -0.527577,0.08386 -0.222986,0.3374313 0.02458,0.2462223 -0.533414,-0.049489 -0.463588,0.3557641 0.02688,0.1822666 0.101928,0.2438625 -0.168657,0.4075028 -0.213399,0.2960829 -0.611502,0.5414627 -0.545202,0.9897878 -0.10715,0.3545333 0.27158,0.5369333 0.57689,0.6133333 0.316474,-0.02081 1.070386,-0.2261028 1.200013,0.17008 -0.134655,0.3507087 0.589735,0.6982617 0.283791,1.0465387 -0.198563,0.325906 0.03905,0.439062 -0.02445,0.774422 0.24481,0.352375 -0.635355,0.868827 -0.90352,1.026347 -0.809759,0.475636 -1.847978,0.537765 -2.7389641,0.230286 -0.3501953,-0.212275 0.07884,-0.378713 0.1894071,-0.485773 -0.1530971,-0.29238 0.0856,-0.115441 0.08793,-0.425925 0.0042,-0.469576 0.626475,-0.392859 0.582334,-0.880939 0.01313,-0.290936 0.465549,-0.687126 -0.03462,-0.805182 C 10.375878,9.9858654 10.070409,10.009544 9.8745509,9.6858955 9.5338765,9.6406155 9.5298564,9.2821242 9.131345,9.3468282 8.8501284,9.1794212 8.4669264,9.7727079 8.2953509,9.3465999 8.360022,9.128351 8.2325458,8.78612 8.0428054,8.8300442 8.1337532,8.6665185 8.1326809,8.3439575 7.9221864,8.607044 7.5801982,8.9101975 7.5016803,8.3967456 7.6760135,8.177912 7.8956164,7.8916106 8.4247562,7.9094202 8.6021708,8.167069 8.5841128,7.7498959 9.033308,7.6881943 9.2286031,7.3670824 9.4505284,7.2527514 9.6775521,6.990028 9.8927399,7.1130692 10.042444,7.0912032 10.198755,6.919646 9.9530399,7.0075083 9.8353174,6.9500793 10.068975,6.752259 9.8590369,6.804159 10.034299,6.758989 10.21802,6.725929 10.395093,6.718799 c -0.388247,0.229769 0.438888,0.3038157 0.09278,0.04956 0.103511,-0.266423 -0.09683,-0.341807 -0.165405,-0.56647 -0.188686,0.0077 -0.205461,0.06855 -0.310313,-0.119768 -0.3703534,-0.212115 0.356668,0.0604 0.40699,-0.124389 0.142667,-0.158361 0.391043,-0.104545 0.581439,-0.121998 M 9.7505568,6.070068 C 9.6682288,6.353268 9.4281162,6.558506 9.2387361,6.646885 9.1855391,6.489496 9.2539691,6.444461 9.091053,6.407376 9.2738552,6.241307 9.5295345,6.175741 9.7490377,6.070068 m 2.6876063,0.374658 c -0.302459,0.08563 0.02526,0.359662 0.08993,0.05946 0.0016,-0.04552 -0.05374,-0.06432 -0.09042,-0.05897 M 13.4987,7.0222655 c 0.256259,0.1304737 0.689898,0.6348692 0.566029,0.8070418 -0.220202,-0.05358 -0.146417,0.2305656 -0.391053,0.057385 -0.328009,-0.050519 -0.330821,-0.52911 -0.729459,-0.3308278 -0.142642,0.1003321 -0.709108,0.1389606 -0.284657,-0.028229 0.185763,-0.2011179 0.473439,-0.5656505 0.797523,-0.3134928 0.09727,0.1130027 0.290404,0.3379468 0.300878,0.099253 -0.07329,-0.067744 -0.397288,-0.1588725 -0.257734,-0.2927318 M 7.6415515,8.8323072 c 0.3187614,0.096815 0.5348569,0.668039 0.8118106,0.7212921 0.3693327,-0.1113897 0.035806,0.5018387 -0.043364,0.6565327 0.071281,0.38288 0.3255878,0.553468 0.6666562,0.755848 0.1846638,0.422324 0.078779,0.915719 0.163222,1.359874 C 8.8039146,12.124948 8.4159232,11.716281 8.1245104,11.315791 7.6729012,10.675734 7.4572733,9.8740784 7.5097144,9.0950047 7.5366304,9.0085787 7.5342884,8.8563387 7.643569,8.8325001"
       id="path6-3-1-6" />
  </g>
  <sodipodi:namedview
     id="namedview363"
     pagecolor="#ffffff"
     bordercolor="#666666"
     borderopacity="1.0"
     inkscape:showpageshadow="2"
     inkscape:pageopacity="0.0"
     inkscape:pagecheckerboard="0"
     inkscape:deskcolor="#d1d1d1"
     showgrid="false"
     inkscape:zoom="10.429825"
     inkscape:cx="21.52481"
     inkscape:cy="20.374263"
     inkscape:window-width="1920"
     inkscape:window-height="1002"
     inkscape:window-x="0"
     inkscape:window-y="0"
     inkscape:window-maximized="1"
     inkscape:current-layer="svg361">
    <inkscape:grid
       type="xygrid"
       id="grid734"
       originx="0"
       originy="0" />
  </sodipodi:namedview>
  <defs
     id="defs11">
    <style
       id="current-color-scheme"
       type="text/css" />
  </defs>
  <g
     id="krfb">
    <rect
       style="opacity:0.00100002"
       width="32"
       height="32"
       x="0"
       y="0"
       id="rect350" />
    <path
       inkscape:connector-curvature="0"
       id="fill"
       d="m 2,23 1,4 h 26 l 1,-4 h -6 z"
       style="color:#1e92ff;fill:#4e5a7e;fill-opacity:0.501961;fill-rule:nonzero;stroke:none;stroke-width:1.78885"
       class="ColorScheme-ButtonFocus"
       sodipodi:nodetypes="cccccc" />
    <rect
       style="fill:#4e5a7e;fill-opacity:0.501961;stroke:none;stroke-width:0.513808"
       id="center-3-35-5"
       width="24"
       height="17.6"
       x="4"
       y="5.4000006"
       ry="0" />
    <path
       d="m 30.636266,22.277794 a 1.5308435,1.4997164 0 0 0 -1.188258,-0.544253 h -0.50925 V 7.779527 A 3.8579726,3.7795272 0 0 0 25.080785,4 H 6.91745 A 3.8579726,3.7795272 0 0 0 3.059477,7.779527 V 21.7411 H 2.534793 a 1.5431889,1.511811 0 0 0 -1.512326,1.76882 l 0.462957,2.615433 a 2.3147837,2.2677164 0 0 0 2.28392,1.874645 H 28.22889 a 2.3147837,2.2677164 0 0 0 2.283918,-1.874645 L 30.975767,23.50992 A 1.5215844,1.4906456 0 0 0 30.636266,22.277794 Z M 4.602666,7.779527 A 2.3147837,2.2677164 0 0 1 6.91745,5.511811 h 18.163335 a 2.3147837,2.2677164 0 0 1 2.314783,2.267716 V 21.7411 H 4.602666 Z M 28.985054,25.860786 A 0.7623354,0.74683459 0 0 1 28.22889,26.480628 H 3.769344 A 0.7623354,0.74683459 0 0 1 3.013182,25.860786 L 2.534793,23.245353 h 26.913215 z"
       id="path515-36-6"
       style="fill:#d1d5e9;fill-opacity:1;stroke-width:1.52743" />
    <path
       id="path1594-7-2"
       style="fill:#d1d5e9;fill-opacity:1;stroke:#d1d5e9;stroke-width:1.06577;stroke-linecap:round;stroke-linejoin:round;stroke-opacity:1"
       d="M 24.474987,24.899999 H 7.52361" />
    <path
       id="path1099-5-9"
       style="fill:#d1d5e9;fill-opacity:1;fill-rule:evenodd;stroke:#d1d5e9;stroke-width:0.654693;stroke-linecap:round;stroke-linejoin:round;stroke-opacity:1"
       d="m 17.514426,24.899999 c 0,0.647115 -0.531026,1.172656 -1.184901,1.172656 -0.653876,0 -1.184907,-0.525541 -1.184907,-1.172656 0,-0.647455 0.531031,-1.172652 1.184907,-1.172652 0.653875,0 1.184901,0.525197 1.184901,1.172652 z" />
    <path
       style="fill:#d1d5e9;fill-opacity:1;stroke-width:0.75"
       d="m 16.000994,7.5 c -2.193458,2.55e-4 -4.353673,1.269834 -5.327334,3.251947 -0.988004,1.838368 -0.874066,4.174722 0.24204,5.929629 1.325913,2.167388 4.122972,3.301463 6.580521,2.62206 2.184103,-0.524058 3.92439,-2.402102 4.366324,-4.591857 0.387336,-1.68686 -0.06251,-3.508551 -1.115491,-4.871957 C 19.643202,8.382407 17.825449,7.493945 15.997945,7.502324 m 0,0.749509 c 0.853716,0.0049 1.698899,0.230117 2.460839,0.610044 -0.386207,0.126807 0.18135,0.495888 -0.108137,0.690409 0.299911,0.195825 0.700773,-0.179533 0.285754,-0.374923 -0.366545,-0.578657 0.93684,0.171522 0.260834,0.377842 -0.230207,0.209207 -0.791375,0.125824 -0.334485,0.506151 0.03683,0.369334 -0.800126,-0.07423 -0.695374,0.533649 0.04044,0.2734 0.152878,0.365792 -0.252989,0.611253 -0.320094,0.444125 -0.917249,0.812193 -0.817806,1.484682 -0.160731,0.531801 0.407365,0.805401 0.865343,0.920001 0.47471,-0.03121 1.605574,-0.339156 1.800017,0.25512 -0.20199,0.526061 0.8846,1.04739 0.425676,1.569808 -0.297846,0.488858 0.05859,0.658592 -0.03669,1.161632 0.367226,0.52856 -0.953022,1.303239 -1.35528,1.539518 -1.214641,0.713456 -2.771965,0.80665 -4.108442,0.34543 -0.525306,-0.318413 0.118224,-0.568068 0.284116,-0.728658 -0.229647,-0.43857 0.128419,-0.173163 0.131887,-0.638889 0.0052,-0.704363 0.939733,-0.589287 0.873515,-1.321407 0.01958,-0.436405 0.698353,-1.030689 -0.05198,-1.207774 -0.560904,-0.106916 -1.019111,-0.07142 -1.312892,-0.556879 -0.511011,-0.06792 -0.517048,-0.605656 -1.114817,-0.508599 -0.42183,-0.25111 -0.99663,0.638818 -1.253991,-3.43e-4 0.09698,-0.327373 -0.09419,-0.84072 -0.378816,-0.774834 0.136423,-0.245289 0.134815,-0.72913 -0.180922,-0.3345 -0.512985,0.45473 -0.630762,-0.315447 -0.369262,-0.643698 0.329407,-0.429452 1.123118,-0.402738 1.389239,-0.01627 -0.02705,-0.62576 0.646703,-0.718313 0.939651,-1.199981 0.332887,-0.171496 0.673427,-0.565586 0.996208,-0.38102 0.224541,-0.0328 0.45901,-0.290137 0.09047,-0.158344 C 14.25303,9.925103 14.6035,9.628376 14.2886,9.706231 14.551501,9.638461 14.827093,9.588876 15.092679,9.57814 14.510324,9.922787 15.751021,10.033859 15.231854,9.65249 15.387119,9.25286 15.08661,9.139788 14.98376,8.80279 14.700717,8.81397 14.67555,8.905681 14.518276,8.623134 c -0.555532,-0.318174 0.535,0.09062 0.610503,-0.186579 0.213978,-0.237536 0.586564,-0.156824 0.872161,-0.183008 m -1.875064,0.351515 c -0.123447,0.4248 -0.48365,0.732644 -0.76773,0.865222 -0.07972,-0.236089 0.02287,-0.303642 -0.221528,-0.359263 0.274215,-0.249105 0.657737,-0.347459 0.98699,-0.505959 m 4.031393,0.561981 c -0.453676,0.128431 0.03802,0.539499 0.134924,0.08918 0.0016,-0.06835 -0.08061,-0.09645 -0.135668,-0.0885 m 1.593823,0.865582 c 0.384393,0.19571 1.034846,0.952304 0.849043,1.210564 -0.330311,-0.08038 -0.219633,0.345847 -0.586578,0.08608 -0.49203,-0.07579 -0.496233,-0.793665 -1.094202,-0.496241 -0.213951,0.150497 -1.063661,0.208441 -0.42699,-0.04235 0.278656,-0.301676 0.710157,-0.848473 1.196303,-0.470238 0.145878,0.169504 0.435607,0.50692 0.451304,0.148882 -0.110008,-0.10161 -0.595939,-0.238307 -0.386605,-0.439092 m -8.788014,2.717459 c 0.478143,0.145221 0.802289,1.002059 1.217718,1.081938 0.554002,-0.167085 0.05369,0.752759 -0.06502,0.9848 0.10692,0.57432 0.488375,0.8302 0.999976,1.133772 0.276999,0.633485 0.118182,1.373576 0.244837,2.03981 -0.653993,-0.301271 -1.235979,-0.914272 -1.673096,-1.515004 -0.677411,-0.960087 -1.000853,-2.162569 -0.922192,-3.33118 0.04037,-0.129637 0.03687,-0.358 0.200782,-0.393758"
       id="path6-3-1" />
  </g>
</svg>
