<?xml version="1.0" encoding="UTF-8" standalone="no"?>
<svg
   width="32"
   height="32"
   version="1"
   id="svg359"
   sodipodi:docname="krusader_user.svg"
   inkscape:version="1.2.1 (9c6d41e410, 2022-07-14)"
   xmlns:inkscape="http://www.inkscape.org/namespaces/inkscape"
   xmlns:sodipodi="http://sodipodi.sourceforge.net/DTD/sodipodi-0.dtd"
   xmlns="http://www.w3.org/2000/svg"
   xmlns:svg="http://www.w3.org/2000/svg">
  <g
     id="22-22-krusader_user">
    <rect
       style="opacity:0.00100002"
       width="22"
       height="22"
       x="32"
       y="10"
       id="rect343" />
    <rect
       style="fill:#4e5a7e;fill-opacity:0.501961;stroke:none;stroke-width:0.367487"
       id="center-3-35-5"
       width="14.341"
       height="15.067"
       x="35.859001"
       y="13.466499"
       ry="0.5623523" />
    <path
       d="M 51,27.367351 V 14.63267 C 51,13.734711 50.4,13 49.666668,13 H 36.333335 C 35.6,13 35,13.734711 35,14.63267 V 27.367351 C 35,28.265313 35.6,29 36.333335,29 H 40 h 3 3 3.666668 C 50.4,29 51,28.265313 51,27.367351 Z M 37,28 c -1,0 -1,-0.142857 -1,-1.285714 V 15.285714 C 36,14.142857 36,14 37,14 h 12 c 1,0 1,0.142857 1,1.285714 V 26.714286 C 50,27.857143 50,28 49,28 Z"
       id="path2-3-3-3-0-7"
       style="fill:#d1d5e9;fill-opacity:1;stroke-width:0.368854"
       sodipodi:nodetypes="ssssssscccsscscccsscc" />
    <path
       style="fill:#d1d5e9;fill-opacity:1;stroke-width:0.509176"
       d="m 36,16 v 0 1 h 14 v -1 0 z"
       id="path349-3-62-0"
       sodipodi:nodetypes="ccccccc" />
    <path
       style="fill:#d1d5e9;fill-opacity:1;stroke-width:0.509176"
       d="m 36,25 v 0 1 h 14 v -1 0 z"
       id="path349-3-6-6-9"
       sodipodi:nodetypes="ccccccc" />
    <path
       style="fill:#d1d5e9;fill-opacity:1;stroke-width:0.384901"
       d="m 44,17 v 0 h -2 v 8 h 2 v 0 z"
       id="path349-3-7-1-3"
       sodipodi:nodetypes="ccccccc" />
    <path
       d="m 37,18 v 0 1 0 h 4 v 0 -1 0 z"
       id="path3004-6-9-1-8-6"
       style="fill:#d1d5e9;fill-opacity:1;stroke-width:0.09798"
       sodipodi:nodetypes="ccccccccc" />
    <path
       d="m 37,20 v 0 1 0 h 4 v 0 -1 0 z"
       id="path3004-6-9-1-8-7-0"
       style="fill:#d1d5e9;fill-opacity:1;stroke-width:0.09798"
       sodipodi:nodetypes="ccccccccc" />
    <path
       d="m 37,22 v 0 1 0 h 4 v 0 -1 0 z"
       id="path3004-6-9-1-8-7-9-6"
       style="fill:#d1d5e9;fill-opacity:1;stroke-width:0.09798"
       sodipodi:nodetypes="ccccccccc" />
    <path
       d="m 45,18 v 0 1 0 h 4 v 0 -1 0 z"
       id="path3004-6-9-1-8-7-9-2-2"
       style="fill:#d1d5e9;fill-opacity:1;stroke-width:0.09798"
       sodipodi:nodetypes="ccccccccc" />
    <path
       d="M 47.428555,22.42858 49.000001,21.714301 45,20 l 1.7143,4 z"
       fill-rule="evenodd"
       id="path3094-0-6"
       style="fill:#d1d5e9;fill-opacity:1;stroke-width:0.007215" />
  </g>
  <g
     id="krusader_user">
    <rect
       style="opacity:0.00100002"
       width="32"
       height="32"
       x="0"
       y="0"
       id="rect352" />
    <rect
       style="fill:#4e5a7e;fill-opacity:0.501961;stroke:none;stroke-width:0.560898"
       id="center-3-35"
       width="22.472"
       height="22.4"
       x="4.7280002"
       y="4.8000002"
       ry="0.83604521" />
    <path
       d="m 7,16 v 0 1 0 h 6 v 0 -1 0 z"
       id="path3004-6-2-3"
       style="fill:#d1d5e9;fill-opacity:1;stroke-width:0.12"
       sodipodi:nodetypes="ccccccccc" />
    <path
       d="m 7,13 v 0 1 0 h 6 v 0 -1 0 z"
       id="path3004-6-9-6"
       style="fill:#d1d5e9;fill-opacity:1;stroke-width:0.12"
       sodipodi:nodetypes="ccccccccc" />
    <path
       d="m 7,19 v 0 1 0 h 6 v 0 -1 0 z"
       id="path3004-6-7"
       style="fill:#d1d5e9;fill-opacity:1;stroke-width:0.12"
       sodipodi:nodetypes="ccccccccc" />
    <path
       d="M 28,26 V 6 C 28,4.65306 26.999997,4 25.9,4 H 6.1 C 4.999997,4 4,4.65306 4,6 v 20 c 0,1.346935 0.899999,2 2.000002,2 h 5 H 16 h 5.000002 5 C 27.1,28 28,27.346935 28,26 Z M 6.1,27 C 5.550006,27 5,26.9 5,25.9 V 6.1 C 5,5.426501 5,5 6,5 h 20 c 1,0 1,0.426501 1,1.1 v 19.8 c 0,1 -0.550002,1.1 -1.1,1.1 z"
       id="path2-3-3-3-5"
       style="fill:#d1d5e9;fill-opacity:1;stroke-width:0.553283"
       sodipodi:nodetypes="ssssssscccsssssssssss" />
    <path
       style="fill:#d1d5e9;fill-opacity:1;stroke-width:0.638286"
       d="M 5,8 V 8 9 H 27 V 8 8 Z"
       id="path349-3-3"
       sodipodi:nodetypes="ccccccc" />
    <path
       style="fill:#d1d5e9;fill-opacity:1;stroke-width:0.638286"
       d="m 5,21 v 0 1 h 22 v -1 0 z"
       id="path349-3-6-5"
       sodipodi:nodetypes="ccccccc" />
    <path
       style="fill:#d1d5e9;fill-opacity:1;stroke-width:0.471406"
       d="m 17,9 v 0 h -2 v 12 h 2 v 0 z"
       id="path349-3-7-6"
       sodipodi:nodetypes="ccccccc" />
    <path
       d="m 7,10 v 0 1 0 h 6 v 0 -1 0 z"
       id="path3004-6-9-1-2"
       style="fill:#d1d5e9;fill-opacity:1;stroke-width:0.12"
       sodipodi:nodetypes="ccccccccc" />
    <path
       d="m 23.328314,5.500335 c -0.128313,0.0063 -0.238731,0.09349 -0.275504,0.217583 -0.03679,0.12409 0.0081,0.258068 0.111963,0.334285 l 0.582244,0.438135 -0.563316,0.468667 c -0.128996,0.107497 -0.147134,0.300069 -0.04051,0.43012 0.106623,0.130052 0.297637,0.148334 0.426649,0.04084 l 0.860107,-0.71674 c 0.07171,-0.05963 0.11229,-0.149155 0.11008,-0.242842 -0.0023,-0.09369 -0.04698,-0.181159 -0.121437,-0.237276 L 23.526684,5.56293 c -0.05674,-0.0438 -0.127,-0.06597 -0.198376,-0.06259 z"
       id="path2996-2-9"
       style="fill:#d1d5e9;fill-opacity:1;stroke-width:0.0887335" />
    <path
       d="m 19,10 v 0 1 0 h 6 v 0 -1 0 z"
       id="path3004-6-9-1-9-1"
       style="fill:#d1d5e9;fill-opacity:1;stroke-width:0.12"
       sodipodi:nodetypes="ccccccccc" />
    <path
       d="M 22.857115,16.857149 26.000001,15.428608 18,12 l 3.428608,8 z"
       fill-rule="evenodd"
       id="path3094-2"
       style="fill:#d1d5e9;fill-opacity:1;stroke-width:0.0144304" />
  </g>
  <defs
     id="defs363" />
  <sodipodi:namedview
     id="namedview361"
     pagecolor="#ffffff"
     bordercolor="#000000"
     borderopacity="1"
     inkscape:showpageshadow="2"
     inkscape:pageopacity="0"
     inkscape:pagecheckerboard="0"
     inkscape:deskcolor="#cccccc"
     showgrid="false"
     inkscape:zoom="7.375"
     inkscape:cx="40"
     inkscape:cy="33.016949"
     inkscape:window-width="1920"
     inkscape:window-height="1008"
     inkscape:window-x="0"
     inkscape:window-y="0"
     inkscape:window-maximized="1"
     inkscape:current-layer="svg359">
    <inkscape:grid
       type="xygrid"
       id="grid795"
       originx="0"
       originy="0" />
  </sodipodi:namedview>
</svg>
