<?xml version="1.0" encoding="UTF-8" standalone="no"?>
<svg
   width="32"
   height="32"
   version="1.1"
   id="svg12"
   sodipodi:docname="kteatime.svg"
   inkscape:version="1.1.1 (3bf5ae0d25, 2021-09-20)"
   xmlns:inkscape="http://www.inkscape.org/namespaces/inkscape"
   xmlns:sodipodi="http://sodipodi.sourceforge.net/DTD/sodipodi-0.dtd"
   xmlns="http://www.w3.org/2000/svg"
   xmlns:svg="http://www.w3.org/2000/svg"
   xmlns:rdf="http://www.w3.org/1999/02/22-rdf-syntax-ns#"
   xmlns:cc="http://creativecommons.org/ns#"
   xmlns:dc="http://purl.org/dc/elements/1.1/">
  <metadata
     id="metadata18">
    <rdf:RDF>
      <cc:Work
         rdf:about="">
        <dc:format>image/svg+xml</dc:format>
        <dc:type
           rdf:resource="http://purl.org/dc/dcmitype/StillImage" />
      </cc:Work>
    </rdf:RDF>
  </metadata>
  <defs
     id="defs16" />
  <sodipodi:namedview
     pagecolor="#ffffff"
     bordercolor="#666666"
     borderopacity="1"
     objecttolerance="10"
     gridtolerance="10"
     guidetolerance="10"
     inkscape:pageopacity="0"
     inkscape:pageshadow="2"
     inkscape:window-width="1920"
     inkscape:window-height="1007"
     id="namedview14"
     showgrid="false"
     inkscape:zoom="11.313708"
     inkscape:cx="25.632622"
     inkscape:cy="19.224466"
     inkscape:window-x="0"
     inkscape:window-y="0"
     inkscape:window-maximized="1"
     inkscape:current-layer="svg12"
     inkscape:document-rotation="0"
     inkscape:lockguides="true"
     inkscape:pagecheckerboard="0">
    <inkscape:grid
       type="xygrid"
       id="grid864"
       originx="0"
       originy="0" />
  </sodipodi:namedview>
  <g
     id="kteatime">
    <rect
       style="opacity:0.00100002;fill:#a8aeca;fill-opacity:1"
       width="32"
       height="32"
       x="0"
       y="0"
       id="rect7" />
    <rect
       style="fill:#4e5a7e;fill-opacity:0.501961;stroke:none;stroke-width:0.306744"
       id="center-3-35"
       width="11.73775"
       height="12.825931"
       x="8.3556499"
       y="14.406657"
       ry="0.47870788" />
    <path
       d="m 12.34838,10.697691 c 0,0 -1.457776,-0.383977 -0.428819,-1.4079288 1.029159,-1.0239454 1.906306,-2.1645618 1.885992,-2.9011823 -0.0201,-0.8098161 -0.326801,-1.4008503 -0.927754,-1.9130262 -0.599332,-0.5117717 -1.5151,-0.474972 -1.5151,-0.474972 0,0 1.413893,0.042664 1.586233,1.2366644 0.171127,1.1948067 -0.600341,1.5357184 -1.24358,2.0476922 -0.642616,0.5117731 -1.372223,1.2793297 -1.200275,2.0905604 0.141842,0.6741373 0.471082,0.8530863 0.986482,1.1513303 0.514581,0.298449 0.856821,0.170862 0.856821,0.170862 z"
       id="path2-36"
       style="fill:#d6dbf1;fill-opacity:1;stroke-width:0.202718" />
    <path
       d="m 13.391797,12.30486 c 0,0 -0.358911,-0.424222 0.225585,-1.117971 0.584302,-0.69456 1.067172,-1.4526155 1.015148,-1.9106007 -0.05848,-0.5034825 -0.299971,-0.8328659 -0.684892,-1.1412253 0,0 0.134344,0.1261744 0.190627,0.6011464 0.05605,0.469713 -0.393453,0.8593531 -0.766181,1.2130034 -0.3711,0.3544582 -0.783046,0.8722992 -0.631033,1.3682982 0.127011,0.412491 0.650746,0.987349 0.650746,0.987349 z"
       id="path4-3-7"
       style="fill:#d6dbf1;fill-opacity:1;stroke-width:0.202718" />
    <path
       d="m 17.252517,12.30486 c 0,0 -1.457775,-0.383978 -0.42881,-1.407931 1.029158,-1.0239447 1.906306,-2.1645605 1.88599,-2.9011812 -0.0201,-0.8098162 -0.3268,-1.4008503 -0.927753,-1.9130264 -0.599341,-0.5117716 -1.515101,-0.4749718 -1.515101,-0.4749718 0,0 1.413887,0.042664 1.586232,1.2366643 0.171122,1.1948068 -0.600346,1.5357184 -1.243586,2.0476919 -0.642608,0.5117741 -1.372216,1.2793292 -1.200278,2.0905602 0.141853,0.674137 0.471093,0.853086 0.986484,1.151333 0.514583,0.298446 0.856822,0.170861 0.856822,0.170861 z"
       id="path2-3-5"
       style="fill:#d6dbf1;fill-opacity:1;stroke-width:0.202718" />
    <path
       d="m 21.961563,15.740458 h -0.884196 -0.08551 V 13.52692 H 7.5 V 25.843271 C 7.5,27.035174 8.469761,28 9.6677657,28 h 9.1561783 c 1.19801,0 2.167763,-0.964826 2.167763,-2.156729 v -0.113426 h 0.08548 0.884185 c 1.397726,0 2.538628,-1.135047 2.538628,-2.525705 v -4.909666 c 0,-1.418935 -1.140851,-2.553981 -2.538628,-2.553981 z m -9.698129,1.418934 1.369095,1.532349 v 2.270345 h -2.738407 v -2.270345 z m 7.872602,8.712259 c 0,0.709467 -0.599107,1.305517 -1.312205,1.305517 H 9.6676548 c -0.7130956,0 -1.3122075,-0.59605 -1.3122075,-1.305517 l 1.876e-4,-10.713208 1.31e-5,-0.751784 h 3.479924 v 1.958181 l -1.797057,2.014987 v 3.461998 h 4.44968 v -3.4622 l -1.79706,-2.014988 v -1.95818 h 7.444742 z m 0.855765,-7.633867 h 0.713098 c 0.228216,0 0.399323,0.17024 0.399323,0.397291 v 4.228474 c 0,0.227056 -0.171107,0.397291 -0.399323,0.397291 h -0.713098 z m 2.652621,4.994751 c 0,0.936498 -0.770194,1.674289 -1.682859,1.674289 h -0.884196 -0.0855 v -0.794599 h 0.713095 c 0.684629,0 1.255109,-0.567525 1.255109,-1.248716 v -4.228475 c 0,-0.681139 -0.570429,-1.248714 -1.255109,-1.248714 H 20.99186 v -0.794604 h 0.08548 0.884196 c 0.941288,0 1.682859,0.766277 1.682859,1.674294 z"
       id="path70-36"
       style="fill:#d6dbf1;fill-opacity:1;stroke-width:0.0508061"
       sodipodi:nodetypes="cccccssssccssscccccccccssccccccccccccccsssscccscccsssscccscc" />
  </g>
  <g
     id="22-22-kteatime"
     transform="translate(32,10)">
    <rect
       style="opacity:0.00100002;fill:#a8aeca;fill-opacity:1"
       width="22"
       height="22"
       x="0"
       y="0"
       id="rect2" />
    <rect
       style="fill:#4e5a7e;fill-opacity:0.501961;stroke:none;stroke-width:0.204496"
       id="center-3-35-3"
       width="7.8251667"
       height="8.5506201"
       x="5.9204345"
       y="9.9377747"
       ry="0.31913859" />
    <path
       d="m 8.582253,7.4651268 c 0,0 -0.97185,-0.255984 -0.285879,-0.938619 0.686106,-0.68263 1.270871,-1.443041 1.257328,-1.934121 -0.0134,-0.539878 -0.217867,-0.9339 -0.618503,-1.275351 -0.399554,-0.341181 -1.010066,-0.316648 -1.010066,-0.316648 0,0 0.942595,0.02844 1.057488,0.824443 0.114085,0.796538 -0.400227,1.023812 -0.829053,1.365128 -0.428411,0.341182 -0.914815,0.852886 -0.800183,1.393707 0.09456,0.449425 0.314054,0.568724 0.657654,0.767553 0.343054,0.198966 0.571214,0.113908 0.571214,0.113908 z"
       id="path2-36-6"
       style="fill:#d6dbf1;fill-opacity:1;stroke-width:0.135145" />
    <path
       d="m 9.277865,8.5365728 c 0,0 -0.239274,-0.282814 0.15039,-0.745314 0.389534,-0.46304 0.711448,-0.96841 0.676765,-1.273734 -0.03899,-0.335654 -0.199981,-0.555244 -0.456595,-0.760816 0,0 0.08956,0.08412 0.127085,0.400764 0.03737,0.313142 -0.262302,0.572902 -0.510787,0.808669 -0.2474,0.236305 -0.522031,0.581533 -0.420689,0.912199 0.08467,0.274994 0.433831,0.658232 0.433831,0.658232 z"
       id="path4-3-7-7"
       style="fill:#d6dbf1;fill-opacity:1;stroke-width:0.135145" />
    <path
       d="m 11.851678,8.5365728 c 0,0 -0.97185,-0.255985 -0.285873,-0.93862 0.686105,-0.68263 1.27087,-1.443041 1.257326,-1.934121 -0.0134,-0.539877 -0.217866,-0.933901 -0.618502,-1.275351 -0.39956,-0.341181 -1.010067,-0.316648 -1.010067,-0.316648 0,0 0.942591,0.02844 1.057488,0.824443 0.114081,0.796538 -0.400231,1.023812 -0.829057,1.365128 -0.428406,0.341183 -0.914811,0.852886 -0.800186,1.393707 0.09457,0.449424 0.314062,0.568724 0.657656,0.767555 0.343056,0.198964 0.571215,0.113907 0.571215,0.113907 z"
       id="path2-3-5-5"
       style="fill:#d6dbf1;fill-opacity:1;stroke-width:0.135145" />
    <path
       d="m 14.991042,10.826972 h -0.589464 -0.05701 V 9.3512798 H 5.35 V 17.562181 C 5.35,18.356783 5.996507,19 6.795177,19 h 6.104119 c 0.798673,0 1.445175,-0.643217 1.445175,-1.437819 v -0.07562 h 0.05699 0.589457 c 0.931817,0 1.692418,-0.756698 1.692418,-1.683804 v -3.27311 c 0,-0.945957 -0.760567,-1.702655 -1.692418,-1.702655 z m -6.465419,0.945956 0.91273,1.021566 v 1.513564 H 7.612748 v -1.513564 z m 5.248401,5.808173 c 0,0.472978 -0.399405,0.870345 -0.874803,0.870345 H 6.795103 c -0.475397,0 -0.874805,-0.397367 -0.874805,-0.870345 l 1.25e-4,-7.142139 9e-6,-0.5011892 h 2.319949 v 1.3054542 l -1.198038,1.343325 v 2.307998 h 2.966454 V 12.586417 L 8.810757,11.243091 V 9.9376378 h 4.963161 z m 0.57051,-5.089245 h 0.475399 c 0.152144,0 0.266215,0.113494 0.266215,0.264861 V 15.5757 c 0,0.15137 -0.114071,0.26486 -0.266215,0.26486 h -0.475399 z m 1.768414,3.329834 c 0,0.624332 -0.513463,1.116193 -1.121906,1.116193 h -0.589464 -0.057 V 16.40815 h 0.475397 c 0.456419,0 0.836739,-0.37835 0.836739,-0.832477 V 12.75669 c 0,-0.454093 -0.380286,-0.832476 -0.836739,-0.832476 h -0.475402 v -0.529736 h 0.05699 0.589464 c 0.627525,0 1.121906,0.510851 1.121906,1.116196 z"
       id="path70-36-3"
       style="fill:#d6dbf1;fill-opacity:1;stroke-width:0.0338707"
       sodipodi:nodetypes="cccccssssccssscccccccccssccccccccccccccsssscccscccsssscccscc" />
  </g>
</svg>
