<?xml version="1.0" encoding="UTF-8" standalone="no"?>
<svg
   width="32"
   height="32"
   version="1.1"
   id="svg12"
   sodipodi:docname="ktorrent.svg"
   inkscape:version="1.1.2 (0a00cf5339, 2022-02-04)"
   xmlns:inkscape="http://www.inkscape.org/namespaces/inkscape"
   xmlns:sodipodi="http://sodipodi.sourceforge.net/DTD/sodipodi-0.dtd"
   xmlns:xlink="http://www.w3.org/1999/xlink"
   xmlns="http://www.w3.org/2000/svg"
   xmlns:svg="http://www.w3.org/2000/svg"
   xmlns:rdf="http://www.w3.org/1999/02/22-rdf-syntax-ns#"
   xmlns:cc="http://creativecommons.org/ns#"
   xmlns:dc="http://purl.org/dc/elements/1.1/">
  <g
     id="22-22-ktorrent"
     transform="translate(32,10.000001)">
    <rect
       style="opacity:0.00100002"
       width="22"
       height="22"
       x="0"
       y="0"
       id="rect2" />
    <rect
       style="fill:#4e5a7e;fill-opacity:0.501961;stroke:none;stroke-width:0.357093"
       id="center-3-35-5"
       width="13.541207"
       height="15.067"
       x="3.8"
       y="3.533"
       ry="0.5623523" />
    <path
       d="M 16.469393,3 H 4.530629 C 3.688791,3 3,3.6 3,4.333332 V 17.666665 C 3,18.4 3.688791,19 4.530629,19 H 16.469393 C 17.31123,19 18,18.4 18,17.666665 V 4.333332 C 18,3.6 17.31123,3 16.469393,3 Z M 17,17.666665 C 17,18.033328 16.890286,18 16.469393,18 H 4.530629 C 4.1097,18 4.022728,18.03333 4.022728,17.666665 V 4.333332 C 4.022728,3.966667 4.109698,3.997638 4.530629,4 L 16.469393,4.067 C 16.890287,4.0694 17,3.966667 17,4.333332 Z"
       id="path2-3-3-2"
       style="fill:#d6dbf1;fill-opacity:1;stroke-width:0.357142"
       sodipodi:nodetypes="ssssssssssssssssss" />
    <path
       d="m 13.383439,16 h -5.33216 a 0.43527865,0.50000002 0 0 0 0,1 h 5.33216 a 0.43527865,0.50000002 0 0 0 0,-1 z"
       id="path10-0-6-9"
       style="fill:#d6dbf1;fill-opacity:1;stroke-width:0.233259" />
    <path
       style="color:#d5c289;isolation:isolate;fill:#d6dbf1;fill-opacity:1;stroke-width:0.683327"
       class="ColorScheme-Text"
       d="m 6.983334,11.4 3.732991,4.266667 3.732992,-4.266667 -2.13265,6.67e-4 V 9.799642 c 0,0.533674 -0.533675,0.533674 -0.533675,0.533674 0,0 -0.533675,0 -0.533675,-0.533674 0,-0.532992 -0.532992,-0.532992 -0.532992,-0.532992 0,0 -0.532991,0 -0.532991,0.532992 0,0.533674 -0.533675,0.533674 -0.533675,0.533674 0,0 -0.533675,0 -0.533675,-0.533674 v 1.600341 z"
       id="path58-3-0-2-1" />
    <path
       style="isolation:isolate;fill:url(#linearGradient4477);stroke-width:0.683327"
       class="ColorScheme-Text"
       d="m 10.716325,5 c 0,0 -0.532991,0 -0.532991,0.532991 0,0.533676 -0.533675,0.533676 -0.533675,0.533676 0,0 -0.533675,6.66e-4 -0.533675,-0.533676 v 7.466668 h 3.200683 V 5.532991 c 0,0.533676 -0.533675,0.533676 -0.533675,0.533676 0,0 -0.533675,0 -0.533675,-0.533676 C 11.249317,5 10.716325,5 10.716325,5 Z"
       id="path60-5-9-9-2" />
    <path
       style="isolation:isolate;fill:url(#linearGradient4479);fill-opacity:1;stroke-width:0.683327"
       class="ColorScheme-Text"
       d="m 9.649659,7.133334 c 0,0 -0.533675,-6.67e-4 -0.533675,0.532992 v 3.199999 h 3.200683 V 7.666326 c 0,-0.532992 -0.533675,-0.532992 -0.533675,-0.532992 0,0 -0.533675,0 -0.533675,0.532992 C 11.249317,8.2 10.716325,8.2 10.716325,8.2 c 0,0 -0.532991,0 -0.532991,-0.533674 0,-0.532992 -0.533675,-0.532992 -0.533675,-0.532992 z"
       id="path64-6-3-1-7" />
  </g>
  <metadata
     id="metadata18">
    <rdf:RDF>
      <cc:Work
         rdf:about="">
        <dc:format>image/svg+xml</dc:format>
        <dc:type
           rdf:resource="http://purl.org/dc/dcmitype/StillImage" />
      </cc:Work>
    </rdf:RDF>
  </metadata>
  <defs
     id="defs16">
    <linearGradient
       id="linearGradient861"
       x1="0"
       x2="0"
       y1="0"
       y2="1">
      <stop
         offset="0%"
         style="stop-color:#cce0ff;stop-opacity:1"
         id="stop857" />
      <stop
         offset="100%"
         style="stop-color:#00ffff;stop-opacity:0"
         id="stop859" />
    </linearGradient>
    <linearGradient
       id="linearGradient924"
       x1="0"
       x2="0"
       y1="0"
       y2="1">
      <stop
         offset="0%"
         style="stop-color:#0062f7;stop-opacity:1"
         id="stop920" />
      <stop
         offset="100%"
         style="stop-color:#00ffff;stop-opacity:1"
         id="stop922" />
    </linearGradient>
    <linearGradient
       id="linearGradient900"
       x1="0"
       x2="0"
       y1="0"
       y2="1">
      <stop
         offset="0%"
         style="stop-color:#00ffff;stop-opacity:1"
         id="stop896" />
      <stop
         offset="100%"
         style="stop-color:#00ffff;stop-opacity:0.4678033"
         id="stop898" />
    </linearGradient>
    <linearGradient
       id="oomox"
       x1="0"
       x2="0"
       y1="0"
       y2="1">
      <stop
         offset="0%"
         style="stop-color:#303b3d; stop-opacity:1"
         id="stop18" />
      <stop
         offset="100%"
         style="stop-color:#bc985d; stop-opacity:1"
         id="stop20" />
    </linearGradient>
    <linearGradient
       inkscape:collect="always"
       xlink:href="#linearGradient861"
       id="linearGradient2204"
       gradientUnits="userSpaceOnUse"
       gradientTransform="matrix(0.64833986,0,0,1.6204344,7.399615,7)"
       x1="8.9449377"
       y1="0"
       x2="8.9449377"
       y2="7.4051056" />
    <linearGradient
       inkscape:collect="always"
       xlink:href="#linearGradient924"
       id="linearGradient2206"
       gradientUnits="userSpaceOnUse"
       gradientTransform="matrix(0.94909554,0,0,1.1069404,7.399615,7)"
       x1="6.1104064"
       y1="2.8908513"
       x2="6.1104064"
       y2="7.949378" />
    <linearGradient
       inkscape:collect="always"
       xlink:href="#linearGradient861"
       id="linearGradient4477"
       gradientUnits="userSpaceOnUse"
       gradientTransform="matrix(0.43222659,0,0,1.0802896,5.249744,5)"
       x1="8.9449377"
       y1="0"
       x2="8.9449377"
       y2="7.4051056" />
    <linearGradient
       inkscape:collect="always"
       xlink:href="#linearGradient924"
       id="linearGradient4479"
       gradientUnits="userSpaceOnUse"
       gradientTransform="matrix(0.63273038,0,0,0.73796029,5.249744,5)"
       x1="6.1104064"
       y1="2.8908513"
       x2="6.1104064"
       y2="7.949378" />
  </defs>
  <sodipodi:namedview
     pagecolor="#ffffff"
     bordercolor="#000000"
     borderopacity="1"
     objecttolerance="10"
     gridtolerance="10"
     guidetolerance="10"
     inkscape:pageopacity="0"
     inkscape:pageshadow="2"
     inkscape:window-width="1920"
     inkscape:window-height="1009"
     id="namedview14"
     showgrid="false"
     inkscape:zoom="9.8125"
     inkscape:cx="17.732484"
     inkscape:cy="22.828025"
     inkscape:window-x="0"
     inkscape:window-y="0"
     inkscape:window-maximized="1"
     inkscape:current-layer="svg12"
     inkscape:document-rotation="0"
     inkscape:lockguides="false"
     inkscape:showpageshadow="false"
     inkscape:pagecheckerboard="0">
    <inkscape:grid
       type="xygrid"
       id="grid2211"
       originx="32"
       originy="10.000001" />
  </sodipodi:namedview>
  <g
     id="ktorrent">
    <rect
       style="opacity:0.00100002"
       width="32"
       height="32"
       x="0"
       y="0"
       id="rect7" />
    <rect
       style="fill:#4e5a7e;fill-opacity:0.501961;stroke:none;stroke-width:0.535357"
       id="center-3-35"
       width="20.472"
       height="22.4"
       x="5.7280002"
       y="4.8000002"
       ry="0.83604521" />
    <path
       d="m 19.600158,24 h -7.99824 a 0.65291795,0.5 0 0 0 0,1 h 7.99824 a 0.65291795,0.5 0 0 0 0,-1 z"
       id="path10-0"
       style="fill:#d6dbf1;fill-opacity:1;stroke-width:0.285682" />
    <path
       style="color:#d5c289;isolation:isolate;fill:#d6dbf1;fill-opacity:1;stroke-width:1.02499"
       class="ColorScheme-Text"
       d="M 10,16.6 15.599487,23 21.198975,16.6 18,16.601 v -2.401538 c 0,0.800512 -0.800513,0.800512 -0.800513,0.800512 0,0 -0.800512,0 -0.800512,-0.800512 0,-0.799487 -0.799488,-0.799487 -0.799488,-0.799487 0,0 -0.799487,0 -0.799487,0.799487 0,0.800512 -0.800513,0.800512 -0.800513,0.800512 0,0 -0.800512,0 -0.800512,-0.800512 v 2.400512 z"
       id="path58-3-0" />
    <path
       style="isolation:isolate;fill:url(#linearGradient2204);stroke-width:1.02499"
       class="ColorScheme-Text"
       d="M 15.599487,7 C 15.599487,7 14.8,7 14.8,7.799487 14.8,8.6 13.999487,8.6 13.999487,8.6 c 0,0 -0.800512,0.001 -0.800512,-0.800513 V 18.999488 H 18 V 7.799487 C 18,8.6 17.199487,8.6 17.199487,8.6 c 0,0 -0.800512,0 -0.800512,-0.800513 C 16.398975,7 15.599487,7 15.599487,7 Z"
       id="path60-5-9" />
    <path
       style="isolation:isolate;fill:url(#linearGradient2206);fill-opacity:1;stroke-width:1.02499"
       class="ColorScheme-Text"
       d="m 13.999487,10.2 c 0,0 -0.800512,-10e-4 -0.800512,0.799488 v 4.799999 H 18 V 10.999488 C 18,10.2 17.199487,10.2 17.199487,10.2 c 0,0 -0.800512,0 -0.800512,0.799488 C 16.398975,11.8 15.599487,11.8 15.599487,11.8 15.599487,11.8 14.8,11.8 14.8,10.999488 14.8,10.2 13.999487,10.2 13.999487,10.2 Z"
       id="path64-6-3" />
    <path
       d="M 24.755108,4 H 7.244921 C 6.010227,4 5,4.9 5,5.999998 v 19.999998 c 0,1.100003 1.010227,2.000003 2.244921,2.000003 h 17.510187 c 1.234695,0 2.244892,-0.9 2.244892,-2.000003 V 5.999998 C 27,4.9 25.989803,4 24.755108,4 Z M 26,25.999997 c 0,0.549994 -0.627569,0.999994 -1.244892,0.999994 H 7.244921 C 6.627548,26.999991 6,26.549991 6,25.999997 V 5.999998 C 6,5.45 6.627548,5 7.244921,5 H 24.755108 C 25.372431,5 26,5.45 26,5.999998 Z"
       id="path2-3-36-7"
       style="fill:#d6dbf1;fill-opacity:1;stroke-width:0.529727"
       sodipodi:nodetypes="ssssssssssssssssss" />
  </g>
</svg>
