<?xml version="1.0" encoding="UTF-8" standalone="no"?>
<svg
   width="150.29298"
   height="100.29299"
   id="svg7229"
   sodipodi:version="0.32"
   inkscape:version="1.1.1 (3bf5ae0d25, 2021-09-20)"
   version="1.0"
   sodipodi:docname="list.svg"
   inkscape:output_extension="org.inkscape.output.svgz.inkscape"
   xmlns:inkscape="http://www.inkscape.org/namespaces/inkscape"
   xmlns:sodipodi="http://sodipodi.sourceforge.net/DTD/sodipodi-0.dtd"
   xmlns="http://www.w3.org/2000/svg"
   xmlns:svg="http://www.w3.org/2000/svg"
   xmlns:rdf="http://www.w3.org/1999/02/22-rdf-syntax-ns#"
   xmlns:cc="http://creativecommons.org/ns#"
   xmlns:dc="http://purl.org/dc/elements/1.1/">
  <defs
     id="defs7231">
    <linearGradient
       id="linearGradient4158">
      <stop
         id="stop4160"
         offset="0"
         style="stop-color:#888888;stop-opacity:1;" />
      <stop
         id="stop4162"
         offset="1"
         style="stop-color:#232323;stop-opacity:1;" />
    </linearGradient>
  </defs>
  <sodipodi:namedview
     id="base"
     pagecolor="#ffffff"
     bordercolor="#000000"
     borderopacity="1"
     inkscape:pageopacity="1"
     inkscape:pageshadow="2"
     inkscape:zoom="2.8284271"
     inkscape:cx="101.82338"
     inkscape:cy="36.239222"
     inkscape:document-units="px"
     inkscape:current-layer="layer1"
     showgrid="false"
     inkscape:window-width="1920"
     inkscape:window-height="1007"
     inkscape:window-x="0"
     inkscape:window-y="0"
     showguides="false"
     inkscape:guide-bbox="true"
     gridtolerance="6"
     inkscape:window-maximized="1"
     inkscape:snap-to-guides="true"
     inkscape:snap-grids="true"
     inkscape:snap-nodes="true"
     inkscape:document-rotation="0"
     inkscape:pagecheckerboard="0"
     inkscape:lockguides="false">
    <inkscape:grid
       type="xygrid"
       id="grid7245"
       visible="true"
       enabled="true"
       empspacing="5"
       snapvisiblegridlinesonly="true"
       originx="0.14650738"
       originy="0.14654161" />
  </sodipodi:namedview>
  <metadata
     id="metadata7234">
    <rdf:RDF>
      <cc:Work
         rdf:about="">
        <dc:format>image/svg+xml</dc:format>
        <dc:type
           rdf:resource="http://purl.org/dc/dcmitype/StillImage" />
      </cc:Work>
    </rdf:RDF>
  </metadata>
  <g
     inkscape:label="Camada 1"
     inkscape:groupmode="layer"
     id="layer1"
     transform="translate(-214.38922,-326.35854)">
    <g
       id="list-add"
       transform="translate(12.353514,6.3534741)">
      <rect
         style="fill:#ffffff;fill-opacity:0;fill-rule:nonzero;stroke:none"
         id="rect3117"
         width="31.99999"
         height="31.99999"
         x="301.53571"
         y="326.50507" />
      <path
         inkscape:connector-curvature="0"
         id="fill-1"
         d="m 315.12614,340.16019 -6.0928,0.33845 v 4.00653 0 l 5.97891,0.51155 0.82536,6.48832 h 3.35134 l 0.87021,-6.48832 5.94737,-0.51168 -0.0978,-4 -5.88125,-0.54316 -0.96038,-6.45681 h -2.83804 z"
         style="color:#1e92ff;fill:#4e5a7e;fill-opacity:0.501961;fill-rule:nonzero;stroke:none;stroke-width:0.776846"
         class="ColorScheme-ButtonFocus"
         sodipodi:nodetypes="cccccccccccccc" />
      <path
         d="m 326.75629,340.71076 c -0.46718,-0.46792 -1.09041,-0.74888 -1.77575,-0.74888 h -4.95309 v -4.96068 c 0,-0.68642 -0.24923,-1.31044 -0.74769,-1.77856 -0.46719,-0.46793 -1.0902,-0.71757 -1.77554,-0.71757 -0.68534,0 -1.30837,0.24964 -1.77576,0.74888 -0.46719,0.46793 -0.7477,1.09215 -0.7477,1.77857 v 4.9609 h -4.95308 c -0.68533,0 -1.30837,0.24963 -1.77576,0.74888 -0.46696,0.43658 -0.71621,1.06055 -0.71621,1.74697 0,0.68643 0.24925,1.31045 0.7477,1.77857 0.46719,0.46793 1.09043,0.74888 1.77576,0.74888 h 4.95308 v 4.9609 c 0,0.68642 0.24923,1.31044 0.7477,1.77857 0.46718,0.46793 1.09041,0.74888 1.77576,0.74888 0.68535,0 1.30837,-0.24964 1.77575,-0.74888 0.4672,-0.46793 0.7477,-1.09215 0.7477,-1.77857 v -4.9609 h 4.95308 c 0.68534,0 1.30838,-0.24963 1.77576,-0.74888 0.4672,-0.46792 0.74771,-1.09214 0.74771,-1.77857 -0.063,-0.68642 -0.31226,-1.31044 -0.77946,-1.77856 z m -1.18382,2.37139 c -0.15579,0.15605 -0.37375,0.24963 -0.59193,0.24963 h -5.79423 c -0.46719,0 -0.84116,0.37435 -0.84116,0.84249 l 2.2e-4,5.80338 c 0,0.21851 -0.0935,0.4368 -0.24924,0.59288 -0.15579,0.15604 -0.37375,0.24963 -0.59194,0.24963 -0.43611,0 -0.84115,-0.40568 -0.84115,-0.84248 v -5.80339 c 0,-0.21851 -0.0935,-0.4368 -0.24925,-0.59287 -0.1558,-0.15605 -0.37375,-0.24964 -0.59193,-0.24964 h -5.79423 c -0.43612,0 -0.84116,-0.40567 -0.84116,-0.84248 0,-0.21851 0.0935,-0.4368 0.24925,-0.59287 0.1558,-0.15607 0.37375,-0.24964 0.59193,-0.24964 h 5.79424 c 0.46718,0 0.84115,-0.37434 0.84115,-0.84248 v -5.80283 c 0,-0.21851 0.0934,-0.4368 0.24925,-0.59287 0.1558,-0.15605 0.37374,-0.24964 0.59193,-0.24964 0.43612,0 0.84115,0.40568 0.84115,0.84249 v 5.80338 c 0,0.46792 0.37377,0.84248 0.84115,0.84248 h 5.79424 c 0.43611,0 0.84115,0.40568 0.84115,0.84248 -2.1e-4,0.2183 -0.0937,0.43659 -0.24945,0.59266 z"
         id="path76-6"
         style="fill:#d6dbf1;fill-opacity:1;stroke-width:0.055672" />
    </g>
    <g
       id="22-22-list-add"
       transform="translate(12.353514,6.3534741)">
      <rect
         style="fill:#ffffff;fill-opacity:0;fill-rule:nonzero;stroke:none"
         id="rect3141"
         width="22"
         height="22"
         x="254.53572"
         y="336.50504" />
      <path
         inkscape:connector-curvature="0"
         id="fill-1-6"
         d="m 263.90926,345.92225 -4.11264,0.22845 v 2.70441 0 l 4.03576,0.34529 0.55712,4.37962 h 2.26216 l 0.58739,-4.37962 4.01447,-0.34538 -0.066,-2.7 -3.96985,-0.36663 -0.64825,-4.35835 h -1.91568 z"
         style="color:#1e92ff;fill:#4e5a7e;fill-opacity:0.501961;fill-rule:nonzero;stroke:none;stroke-width:0.524371"
         class="ColorScheme-ButtonFocus"
         sodipodi:nodetypes="cccccccccccccc" />
      <path
         d="m 271.75961,346.29388 c -0.31534,-0.31585 -0.73603,-0.50549 -1.19863,-0.50549 h -3.34334 v -3.34846 c 0,-0.46334 -0.16823,-0.88455 -0.50469,-1.20053 -0.31535,-0.31585 -0.73588,-0.48436 -1.19849,-0.48436 -0.4626,0 -0.88315,0.16851 -1.19863,0.50549 -0.31536,0.31586 -0.5047,0.73721 -0.5047,1.20054 v 3.34861 h -3.34333 c -0.4626,0 -0.88315,0.1685 -1.19864,0.50549 -0.3152,0.29469 -0.48344,0.71587 -0.48344,1.1792 0,0.46335 0.16824,0.88456 0.5047,1.20054 0.31535,0.31585 0.73604,0.50549 1.19864,0.50549 h 3.34332 v 3.34861 c 0,0.46333 0.16823,0.88455 0.5047,1.20054 0.31535,0.31585 0.73603,0.50549 1.19864,0.50549 0.46261,0 0.88315,-0.16851 1.19863,-0.50549 0.31536,-0.31586 0.5047,-0.73721 0.5047,-1.20054 v -3.34861 h 3.34333 c 0.4626,0 0.88315,-0.1685 1.19864,-0.50549 0.31536,-0.31585 0.5047,-0.73719 0.5047,-1.20054 -0.0425,-0.46333 -0.21078,-0.88454 -0.52614,-1.20052 z m -0.79908,1.60069 c -0.10516,0.10533 -0.25228,0.1685 -0.39955,0.1685 h -3.9111 c -0.31536,0 -0.56779,0.25269 -0.56779,0.56868 l 1.5e-4,3.91728 c 0,0.1475 -0.0631,0.29484 -0.16824,0.4002 -0.10515,0.10532 -0.25228,0.1685 -0.39956,0.1685 -0.29437,0 -0.56777,-0.27384 -0.56777,-0.56868 v -3.91729 c 0,-0.14749 -0.0631,-0.29484 -0.16825,-0.40018 -0.10516,-0.10534 -0.25228,-0.16851 -0.39955,-0.16851 h -3.9111 c -0.29439,0 -0.56779,-0.27383 -0.56779,-0.56867 0,-0.1475 0.0631,-0.29484 0.16825,-0.40019 0.10516,-0.10535 0.25228,-0.16851 0.39955,-0.16851 h 3.91111 c 0.31535,0 0.56778,-0.25268 0.56778,-0.56867 v -3.91691 c 0,-0.1475 0.063,-0.29484 0.16824,-0.40019 0.10517,-0.10533 0.25228,-0.16851 0.39955,-0.16851 0.29439,0 0.56778,0.27384 0.56778,0.56868 v 3.91728 c 0,0.31585 0.2523,0.56868 0.56778,0.56868 h 3.91111 c 0.29437,0 0.56778,0.27383 0.56778,0.56867 -1.5e-4,0.14736 -0.0632,0.2947 -0.16838,0.40005 z"
         id="path76-6-2"
         style="fill:#d6dbf1;fill-opacity:1;stroke-width:0.0375786" />
    </g>
    <g
       id="16-16-list-add"
       transform="translate(12.353514,6.3534741)">
      <rect
         y="342.50504"
         x="220.53571"
         height="16"
         width="16"
         id="rect3816"
         style="fill:#ffffff;fill-opacity:0;fill-rule:nonzero;stroke:none" />
      <path
         inkscape:connector-curvature="0"
         id="fill-1-6-9"
         d="m 227.33093,349.33259 -3.04641,0.16923 v 2.00327 0 l 2.98947,0.25577 0.41267,3.24416 h 1.67566 l 0.43511,-3.24416 2.9737,-0.25584 -0.0488,-2 -2.94062,-0.27156 -0.48019,-3.22842 h -1.41902 z"
         style="color:#1e92ff;fill:#4e5a7e;fill-opacity:0.501961;fill-rule:nonzero;stroke:none;stroke-width:0.388424"
         class="ColorScheme-ButtonFocus"
         sodipodi:nodetypes="cccccccccccccc" />
      <path
         d="m 233.14601,349.60788 c -0.23361,-0.23396 -0.54522,-0.37442 -0.88787,-0.37442 h -2.47657 v -2.48035 c 0,-0.34322 -0.1246,-0.65523 -0.37384,-0.88929 -0.23357,-0.23396 -0.5451,-0.35878 -0.88776,-0.35878 -0.34269,0 -0.65419,0.12482 -0.88787,0.37445 -0.23362,0.23397 -0.37388,0.54605 -0.37388,0.88927 v 2.48046 h -2.47653 c -0.34265,0 -0.65419,0.12481 -0.88787,0.37442 -0.2335,0.2183 -0.35811,0.53028 -0.35811,0.8735 0,0.34323 0.12461,0.65524 0.37385,0.8893 0.23361,0.23396 0.54522,0.37442 0.88787,0.37442 h 2.47656 v 2.48046 c 0,0.34322 0.1246,0.65522 0.37384,0.88927 0.23358,0.23396 0.54522,0.37445 0.88788,0.37445 0.34266,0 0.65419,-0.12482 0.88787,-0.37445 0.23362,-0.23397 0.37385,-0.54605 0.37385,-0.88927 v -2.48046 h 2.47656 c 0.34265,0 0.65419,-0.12481 0.88787,-0.37442 0.23359,-0.23396 0.37385,-0.54607 0.37385,-0.8893 -0.0315,-0.34322 -0.15614,-0.65522 -0.38972,-0.88928 z m -0.59191,1.18568 c -0.0779,0.078 -0.18689,0.12485 -0.29596,0.12485 h -2.89711 c -0.23363,0 -0.42061,0.18715 -0.42061,0.42121 l 1.1e-4,2.90172 c 0,0.10923 -0.0466,0.21838 -0.1246,0.29642 -0.0779,0.078 -0.18687,0.12481 -0.29597,0.12481 -0.21806,0 -0.4206,-0.20284 -0.4206,-0.42121 v -2.90173 c 0,-0.10922 -0.0466,-0.21837 -0.12461,-0.29641 -0.0779,-0.078 -0.18687,-0.12481 -0.29596,-0.12481 h -2.89712 c -0.21807,0 -0.42057,-0.20287 -0.42057,-0.42125 0,-0.10927 0.0466,-0.21841 0.12462,-0.29645 0.0779,-0.078 0.18687,-0.12482 0.29596,-0.12482 h 2.89712 c 0.23358,0 0.42056,-0.18717 0.42056,-0.42124 v -2.90139 c 0,-0.10927 0.0465,-0.21842 0.12465,-0.29646 0.0779,-0.078 0.18687,-0.12481 0.29596,-0.12481 0.21807,0 0.42056,0.20283 0.42056,0.42125 v 2.90168 c 0,0.23396 0.18689,0.42125 0.4206,0.42125 h 2.89709 c 0.21805,0 0.4206,0.20283 0.4206,0.42125 -1.2e-4,0.10912 -0.0467,0.21827 -0.12472,0.2963 z"
         id="path76-6-2-1"
         style="fill:#d6dbf1;fill-opacity:1;stroke-width:0.0278358" />
    </g>
    <g
       id="list-remove"
       transform="translate(12.353514,6.3534741)">
      <rect
         y="381.50507"
         x="301.53571"
         height="31.99999"
         width="31.99999"
         id="rect3127"
         style="fill:#ffffff;fill-opacity:0;fill-rule:nonzero;stroke:none" />
      <rect
         style="opacity:0;fill:#000000;fill-opacity:0;fill-rule:nonzero;stroke:none"
         id="rect3812-9"
         width="20"
         height="2.0000095"
         x="308.53571"
         y="398.50504" />
      <rect
         style="fill:#4e5a7e;fill-opacity:0.501961;stroke:none;stroke-width:0.48616"
         id="center-3-35"
         width="3.2360439"
         height="18.66502"
         x="395.50507"
         y="-326.83728"
         ry="1.4445099"
         transform="rotate(90)"
         rx="1.2999967" />
      <path
         d="m 326.75631,395.25274 c -0.46718,-0.46719 -1.09042,-0.7477 -1.77576,-0.7477 h -4.95308 v 0 0 0 l -5.0467,0.0315 v 0 0 h -4.95307 c -0.68534,0 -1.30838,0.24924 -1.77577,0.74769 -0.46697,0.4359 -0.71621,1.05889 -0.71621,1.74423 0,0.68533 0.24924,1.30837 0.7477,1.77576 0.46719,0.46719 1.09042,0.7477 1.77576,0.7477 h 4.95308 v 0 0 h 5.04692 v 0 0 0 h 4.95308 c 0.68534,0 1.30837,-0.24925 1.77576,-0.7477 0.46719,-0.46719 0.7477,-1.09043 0.7477,-1.77576 -0.063,-0.68534 -0.31226,-1.30838 -0.77946,-1.77578 z m -1.18382,2.36765 c -0.1558,0.1558 -0.37375,0.24924 -0.59194,0.24924 h -5.79423 c -0.46719,0 0,0 0,0 v 0 0 0 0 l -3.38763,-7.5e-4 0.0232,7.5e-4 v 0 h -5.79423 c -0.43611,0 -0.84115,-0.40505 -0.84115,-0.84116 0,-0.21816 0.0934,-0.43611 0.24924,-0.59194 0.1558,-0.15582 0.37375,-0.24924 0.59194,-0.24924 h 5.79423 l 0.0126,0.0187 -0.0126,-0.0187 h 1.49821 v 0 l 1.86643,5.5e-4 -0.048,0.002 0.048,-0.002 h 5.79423 c 0.43612,0 0.84116,0.40505 0.84116,0.84116 -2.3e-4,0.21795 -0.0937,0.4359 -0.24946,0.59172 z"
         id="path76"
         sodipodi:nodetypes="cscccccccscscscccccccscccccsscccccsccsssscsccccscsccc"
         style="fill:#d6dbf1;fill-opacity:1;stroke-width:0.0556282" />
    </g>
    <g
       id="22-22-list-remove"
       transform="translate(12.353514,6.3534741)">
      <rect
         y="391.50504"
         x="254.53572"
         height="22"
         width="22"
         id="rect3151"
         style="fill:#ffffff;fill-opacity:0;fill-rule:nonzero;stroke:none" />
      <rect
         style="fill:#4e5a7e;fill-opacity:0.501961;stroke:none;stroke-width:0.328158"
         id="center-3-35-6"
         width="2.1843297"
         height="12.598888"
         x="401.48007"
         y="-271.8143"
         ry="0.97504413"
         transform="rotate(90)"
         rx="0.87749779" />
      <path
         d="m 271.75962,401.30974 c -0.31535,-0.31536 -0.73604,-0.5047 -1.19864,-0.5047 h -3.34333 v 0 0 0 l -3.40652,0.0213 v 0 0 h -3.34332 c -0.46261,0 -0.88316,0.16824 -1.19865,0.50469 -0.3152,0.29424 -0.48344,0.71475 -0.48344,1.17736 0,0.4626 0.16824,0.88315 0.5047,1.19864 0.31535,0.31535 0.73603,0.50469 1.19864,0.50469 h 3.34332 v 0 0 h 3.40668 v 0 0 0 h 3.34332 c 0.46261,0 0.88315,-0.16824 1.19864,-0.50469 0.31536,-0.31536 0.5047,-0.73604 0.5047,-1.19864 -0.0425,-0.46261 -0.21078,-0.88316 -0.52614,-1.19865 z m -0.79908,1.59816 c -0.10517,0.10517 -0.25228,0.16824 -0.39956,0.16824 h -3.91111 c -0.31535,0 0,0 0,0 v 0 0 0 0 l -2.28665,-5.1e-4 0.0157,5.1e-4 v 0 h -3.9111 c -0.29437,0 -0.56778,-0.27341 -0.56778,-0.56778 0,-0.14726 0.0631,-0.29438 0.16824,-0.39956 0.10517,-0.10518 0.25228,-0.16824 0.39956,-0.16824 h 3.9111 l 0.009,0.0126 -0.009,-0.0126 h 1.0113 v 0 l 1.25984,3.7e-4 -0.0324,0.001 0.0324,-0.001 h 3.9111 c 0.29438,0 0.56779,0.27341 0.56779,0.56778 -1.6e-4,0.14712 -0.0633,0.29424 -0.16839,0.39941 z"
         id="path76-0"
         sodipodi:nodetypes="cscccccccscscscccccccscccccsscccccsccsssscsccccscsccc"
         style="fill:#d6dbf1;fill-opacity:1;stroke-width:0.037549" />
    </g>
    <g
       id="16-16-list-remove"
       transform="translate(12.353514,6.3534741)">
      <rect
         style="fill:#ffffff;fill-opacity:0;fill-rule:nonzero;stroke:none"
         id="rect3818"
         width="16"
         height="16"
         x="220.53572"
         y="397.50504" />
      <rect
         style="fill:#4e5a7e;fill-opacity:0.501961;stroke:none;stroke-width:0.24308"
         id="center-3-35-6-6"
         width="1.6180221"
         height="9.33251"
         x="404.75504"
         y="-233.18651"
         ry="0.72225493"
         transform="rotate(90)"
         rx="0.64999837" />
      <path
         d="m 233.14602,404.62889 c -0.2336,-0.2336 -0.54522,-0.37385 -0.88789,-0.37385 h -2.47654 v 0 0 0 l -2.52334,0.0158 v 0 0 h -2.47654 c -0.34267,0 -0.65419,0.12462 -0.88789,0.37384 -0.23348,0.21796 -0.3581,0.52945 -0.3581,0.87212 0,0.34267 0.12462,0.65419 0.37385,0.88788 0.23359,0.23359 0.54521,0.37385 0.88788,0.37385 h 2.47654 v 0 0 h 2.52346 v 0 0 0 h 2.47654 c 0.34267,0 0.65418,-0.12463 0.88788,-0.37385 0.2336,-0.2336 0.37385,-0.54521 0.37385,-0.88788 -0.0315,-0.34267 -0.15613,-0.65419 -0.38973,-0.88789 z m -0.59191,1.18382 c -0.0779,0.0779 -0.18688,0.12463 -0.29598,0.12463 h -2.89711 c -0.2336,0 0,0 0,0 v 0 0 0 0 l -1.69382,-3.8e-4 0.0116,3.8e-4 v 0 h -2.89711 c -0.21805,0 -0.42058,-0.20253 -0.42058,-0.42058 0,-0.10908 0.0467,-0.21806 0.12462,-0.29597 0.0779,-0.0779 0.18688,-0.12462 0.29597,-0.12462 h 2.89712 l 0.007,0.009 -0.007,-0.009 h 0.74911 v 0 l 0.93321,2.7e-4 -0.024,7.4e-4 0.024,-7.4e-4 h 2.89711 c 0.21806,0 0.42059,0.20253 0.42059,0.42058 -1.2e-4,0.10898 -0.0469,0.21795 -0.12474,0.29586 z"
         id="path76-0-2"
         sodipodi:nodetypes="cscccccccscscscccccccscccccsscccccsccsssscsccccscsccc"
         style="fill:#d6dbf1;fill-opacity:1;stroke-width:0.0278141" />
    </g>
  </g>
</svg>
