<?xml version="1.0" encoding="UTF-8" standalone="no"?>
<svg
   width="32"
   height="32"
   version="1.1"
   id="svg22"
   sodipodi:docname="mail.svg"
   inkscape:version="1.1.1 (3bf5ae0d25, 2021-09-20)"
   xmlns:inkscape="http://www.inkscape.org/namespaces/inkscape"
   xmlns:sodipodi="http://sodipodi.sourceforge.net/DTD/sodipodi-0.dtd"
   xmlns="http://www.w3.org/2000/svg"
   xmlns:svg="http://www.w3.org/2000/svg"
   xmlns:rdf="http://www.w3.org/1999/02/22-rdf-syntax-ns#"
   xmlns:cc="http://creativecommons.org/ns#"
   xmlns:dc="http://purl.org/dc/elements/1.1/">
  <g
     id="22-22-mail-unread-new"
     transform="translate(32,-22)">
    <rect
       style="opacity:0.00100002"
       width="22"
       height="22"
       x="0"
       y="4.7683716e-07"
       id="rect2" />
    <path
       d="M 21,17.114757 V 4.869875 C 21,4.006452 20.249992,3.3 19.333328,3.3 H 2.666669 C 1.75,3.3 1,4.006452 1,4.869875 v 12.244882 c 0,0.863421 0.75,1.569854 1.666669,1.569854 H 19.333328 C 20.249992,18.684611 21,17.978177 21,17.114757 Z M 2.666669,17.89969 c -0.458329,0 -0.833329,-0.353238 -0.833329,-0.784933 V 4.869875 c 0,-0.43173 0.375,-0.784935 0.833329,-0.784935 h 16.666659 c 0.458338,0 0.833338,0.353205 0.833338,0.784935 v 12.244882 c 0,0.431696 -0.375,0.784933 -0.833338,0.784933 z"
       id="path2-36-7-3-3-3-2"
       style="fill:#00a3cc;fill-opacity:1;stroke-width:0.404384" />
    <rect
       style="fill:#4e5a7e;fill-opacity:0.501961;stroke:none;stroke-width:0.439549;enable-background:new"
       id="center-3-35-5-6-5-6-7"
       width="13.809825"
       height="18.291025"
       x="4.0971169"
       y="-20.14954"
       ry="0.7692306"
       transform="rotate(90)"
       rx="0.7692306" />
    <path
       id="Mailbox-3-7-6-7-0"
       class="st0"
       d="m 6.499998,7.475824 c -1.480768,0 -2.692306,1.186812 -2.692306,2.637361 v 4.395603 h 4.935897 l 0.448717,0.879121 h 0.897436 l 0.448718,-0.879121 h 6.28205 c 0.740383,0 1.346154,-0.593406 1.346154,-1.318681 v -2.637361 c 0,-1.692307 -1.413463,-3.076922 -3.141026,-3.076922 h -1.346154 v 0.87912 H 12.782049 V 7.475824 H 8.878204 c 0.695514,0.593406 1.144231,1.450549 1.211538,2.41758 v 0 4.615384 H 9.192306 v -4.395603 c 0,-1.450549 -1.211537,-2.637361 -2.692308,-2.637361 z"
       style="fill:#d6dbf1;fill-opacity:1;stroke-width:0.222058" />
    <path
       id="Mailbox-s-5-5-2-5-9"
       class="st1"
       d="M 12.782049,10.113185 H 11.884613 V 6.596702 c 0,-0.967032 0.807692,-1.758241 1.794871,-1.758241 h 0.897436 v 0.879121 h -0.897436 c -0.493589,0 -0.897435,0.395604 -0.897435,0.87912 z m 5.384615,0 c 0,-1.450549 -1.211539,-2.637361 -2.692308,-2.637361 h -1.794872 v 0.87912 h 1.794872 c 0.987179,0 1.794872,0.791209 1.794872,1.758241 v 3.516484 c 0,0.483515 -0.403846,0.87912 -0.897436,0.87912 h -6.28205 v 2.637362 h 0.897435 V 15.38791 h 5.384615 c 0.987179,0 1.794872,-0.791209 1.794872,-1.758241 z M 8.29487,12.310987 H 4.705128 v 0.87912 H 8.29487 Z m 0.897436,2.197801 H 4.705128 v 0.879121 h 4.487178 z"
       style="fill:#d6dbf1;fill-opacity:1;stroke-width:0.222058" />
  </g>
  <g
     id="mail-unread-new"
     transform="translate(0,-32)">
    <rect
       style="opacity:0.00100002"
       width="32"
       height="32"
       x="0"
       y="0"
       id="rect7-5" />
    <path
       d="M 29.000005,23.959189 V 8.040838 C 29.000005,6.918388 28.024995,6 26.833331,6 H 5.16667 C 3.975,6 3,6.918388 3,8.040838 V 23.959189 C 3,25.081635 3.975,26 5.16667,26 h 21.666661 c 1.191664,0 2.166674,-0.918365 2.166674,-2.040811 z M 5.16667,24.979602 c -0.595828,0 -1.083328,-0.45921 -1.083328,-1.020413 V 8.040838 c 0,-0.561249 0.4875,-1.020416 1.083328,-1.020416 h 21.666661 c 0.595839,0 1.083339,0.459167 1.083339,1.020416 v 15.918351 c 0,0.561203 -0.4875,1.020413 -1.083339,1.020413 z"
       id="path2-36-7-3-3-3-3"
       style="fill:#00a3cc;fill-opacity:1;stroke-width:0.525699" />
    <rect
       style="fill:#4e5a7e;fill-opacity:0.501961;stroke:none;stroke-width:0.571414;enable-background:new"
       id="center-3-35-5-6-5-6-6"
       width="17.952776"
       height="23.778337"
       x="7.036253"
       y="-27.894402"
       ry="1"
       transform="rotate(90)"
       rx="1" />
    <path
       id="Mailbox-3-7-6-7-06"
       class="st0"
       d="M 10.149999,11.428572 C 8.225,11.428572 6.65,12.971428 6.65,14.857142 v 5.714286 h 6.416667 L 13.65,21.714286 h 1.166667 L 15.4,20.571428 h 8.166667 c 0.962498,0 1.75,-0.771428 1.75,-1.714286 v -3.42857 c 0,-2.2 -1.837502,-4 -4.083334,-4 h -1.75 v 1.142856 h -1.166666 v -1.142856 h -5.075 c 0.904168,0.771428 1.487501,1.885714 1.575,3.142856 v 0 6 H 13.65 v -5.714286 c 0,-1.885714 -1.574999,-3.42857 -3.500001,-3.42857 z"
       style="fill:#d6dbf1;fill-opacity:1;stroke-width:0.288676" />
    <path
       id="Mailbox-s-5-5-2-5-2"
       class="st1"
       d="M 18.316667,14.857142 H 17.15 V 10.285713 C 17.15,9.028571 18.2,8 19.483333,8 H 20.65 v 1.142857 h -1.166667 c -0.641666,0 -1.166666,0.514285 -1.166666,1.142856 z m 7,0 c 0,-1.885714 -1.575,-3.42857 -3.5,-3.42857 h -2.333334 v 1.142856 h 2.333334 C 23.1,12.571428 24.15,13.6 24.15,14.857142 v 4.57143 c 0,0.62857 -0.525,1.142856 -1.166667,1.142856 H 14.816667 V 24 h 1.166666 v -2.285714 h 7 c 1.283334,0 2.333334,-1.028572 2.333334,-2.285714 z M 12.483333,17.714286 H 7.816667 v 1.142856 h 4.666666 z M 13.65,20.571428 H 7.816667 v 1.142858 H 13.65 Z"
       style="fill:#d6dbf1;fill-opacity:1;stroke-width:0.288676" />
  </g>
  <g
     id="22-22-mail-unread"
     transform="translate(32,10)">
    <rect
       style="opacity:0.00100002"
       width="22"
       height="22"
       x="0"
       y="0"
       id="rect2-6" />
    <path
       d="M 21,17.114758 V 4.869875 C 21,4.006452 20.249992,3.3 19.333328,3.3 H 2.666669 C 1.75,3.3 1,4.006452 1,4.869875 v 12.244883 c 0,0.86342 0.75,1.569854 1.666669,1.569854 H 19.333328 C 20.249992,18.684612 21,17.978178 21,17.114758 Z M 2.666669,17.899691 c -0.458329,0 -0.833329,-0.353238 -0.833329,-0.784933 V 4.869875 c 0,-0.43173 0.375,-0.784935 0.833329,-0.784935 h 16.666659 c 0.458338,0 0.833338,0.353205 0.833338,0.784935 v 12.244883 c 0,0.431695 -0.375,0.784933 -0.833338,0.784933 z"
       id="path2-36-7-3-3-35"
       style="fill:#d6dbf1;fill-opacity:1;stroke-width:0.404384" />
    <rect
       style="fill:#4e5a7e;fill-opacity:0.501961;stroke:none;stroke-width:0.439549;enable-background:new"
       id="center-3-35-5-6-5-62"
       width="13.809825"
       height="18.291025"
       x="4.0971184"
       y="-20.149542"
       ry="0.7692306"
       transform="rotate(90)"
       rx="0.7692306" />
    <path
       id="Mailbox-3-7-6-9"
       class="st0"
       d="m 6.499998,7.4758237 c -1.480768,0 -2.692306,1.1868121 -2.692306,2.6373613 v 4.395604 h 4.935897 l 0.448717,0.879121 h 0.897436 l 0.448718,-0.879121 h 6.28205 c 0.740383,0 1.346154,-0.593406 1.346154,-1.318681 v -2.637361 c 0,-1.6923082 -1.413463,-3.0769233 -3.141026,-3.0769233 H 13.679484 V 8.3549435 H 12.782049 V 7.4758237 H 8.878204 c 0.695514,0.5934061 1.144231,1.450549 1.211538,2.4175811 v 0 4.6153842 H 9.192306 v -4.395604 c 0,-1.4505492 -1.211537,-2.6373613 -2.692308,-2.6373613 z"
       style="fill:#d6dbf1;fill-opacity:1;stroke-width:0.222058" />
    <path
       id="Mailbox-s-5-5-2-1"
       class="st1"
       d="M 12.782049,10.113185 H 11.884613 V 6.5967016 c 0,-0.9670321 0.807692,-1.7582405 1.794871,-1.7582405 h 0.897436 v 0.8791206 h -0.897436 c -0.493589,0 -0.897435,0.3956038 -0.897435,0.8791199 z m 5.384615,0 c 0,-1.4505492 -1.211539,-2.6373613 -2.692308,-2.6373613 h -1.794872 v 0.8791198 h 1.794872 c 0.987179,0 1.794872,0.7912091 1.794872,1.7582415 v 3.516484 c 0,0.483515 -0.403846,0.87912 -0.897436,0.87912 h -6.28205 v 2.637362 h 0.897435 V 15.38791 h 5.384615 c 0.987179,0 1.794872,-0.791209 1.794872,-1.758241 z M 8.29487,12.310988 H 4.705128 v 0.87912 H 8.29487 Z m 0.897436,2.197801 H 4.705128 v 0.879121 h 4.487178 z"
       style="fill:#d6dbf1;fill-opacity:1;stroke-width:0.222058" />
  </g>
  <g
     id="mail-unread">
    <rect
       style="opacity:0.00100002"
       width="32"
       height="32"
       x="0"
       y="0"
       id="rect7-5-6" />
    <path
       d="M 29.000005,23.959189 V 8.040838 C 29.000005,6.918388 28.024995,6 26.833331,6 H 5.16667 C 3.975,6 3,6.918388 3,8.040838 V 23.959189 C 3,25.081635 3.975,26 5.16667,26 h 21.666661 c 1.191664,0 2.166674,-0.918365 2.166674,-2.040811 z M 5.16667,24.979602 c -0.595828,0 -1.083328,-0.45921 -1.083328,-1.020413 V 8.040838 c 0,-0.561249 0.4875,-1.020416 1.083328,-1.020416 h 21.666661 c 0.595839,0 1.083339,0.459167 1.083339,1.020416 v 15.918351 c 0,0.561203 -0.4875,1.020413 -1.083339,1.020413 z"
       id="path2-36-7-3-3"
       style="fill:#d6dbf1;fill-opacity:1;stroke-width:0.525699" />
    <rect
       style="fill:#4e5a7e;fill-opacity:0.501961;stroke:none;stroke-width:0.571414;enable-background:new"
       id="center-3-35-5-6-5"
       width="17.952776"
       height="23.778337"
       x="7.0362544"
       y="-27.894403"
       ry="1"
       transform="rotate(90)"
       rx="1" />
    <path
       id="Mailbox-3-7-6"
       class="st0"
       d="M 10.149999,11.428572 C 8.225,11.428572 6.65,12.971428 6.65,14.857142 v 5.714286 h 6.416667 L 13.65,21.714286 h 1.166667 L 15.4,20.571428 h 8.166667 c 0.962498,0 1.75,-0.771428 1.75,-1.714286 v -3.42857 c 0,-2.2 -1.837502,-4 -4.083334,-4 h -1.75 v 1.142856 h -1.166666 v -1.142856 h -5.075 c 0.904168,0.771428 1.487501,1.885714 1.575,3.142856 v 0 6 H 13.65 v -5.714286 c 0,-1.885714 -1.574999,-3.42857 -3.500001,-3.42857 z"
       style="fill:#d6dbf1;fill-opacity:1;stroke-width:0.288676" />
    <path
       id="Mailbox-s-5-5-2"
       class="st1"
       d="M 18.316667,14.857142 H 17.15 V 10.285713 C 17.15,9.028571 18.2,8 19.483333,8 H 20.65 v 1.142857 h -1.166667 c -0.641666,0 -1.166666,0.514285 -1.166666,1.142856 z m 7,0 c 0,-1.885714 -1.575,-3.42857 -3.5,-3.42857 h -2.333334 v 1.142856 h 2.333334 C 23.1,12.571428 24.15,13.6 24.15,14.857142 v 4.57143 c 0,0.62857 -0.525,1.142856 -1.166667,1.142856 H 14.816667 V 24 h 1.166666 v -2.285714 h 7 c 1.283334,0 2.333334,-1.028572 2.333334,-2.285714 z M 12.483333,17.714286 H 7.816667 v 1.142856 h 4.666666 z M 13.65,20.571428 H 7.816667 v 1.142858 H 13.65 Z"
       style="fill:#d6dbf1;fill-opacity:1;stroke-width:0.288676" />
  </g>
  <metadata
     id="metadata28">
    <rdf:RDF>
      <cc:Work
         rdf:about="">
        <dc:format>image/svg+xml</dc:format>
        <dc:type
           rdf:resource="http://purl.org/dc/dcmitype/StillImage" />
      </cc:Work>
    </rdf:RDF>
  </metadata>
  <defs
     id="defs26" />
  <sodipodi:namedview
     pagecolor="#ffffff"
     bordercolor="#666666"
     borderopacity="1"
     objecttolerance="10"
     gridtolerance="10"
     guidetolerance="10"
     inkscape:pageopacity="0"
     inkscape:pageshadow="2"
     inkscape:window-width="1920"
     inkscape:window-height="1007"
     id="namedview24"
     showgrid="false"
     inkscape:zoom="6.9384855"
     inkscape:cx="38.192773"
     inkscape:cy="0.36030918"
     inkscape:window-x="0"
     inkscape:window-y="0"
     inkscape:window-maximized="1"
     inkscape:current-layer="svg22"
     inkscape:document-rotation="0"
     showguides="false"
     inkscape:pagecheckerboard="0"
     inkscape:lockguides="false">
    <inkscape:grid
       type="xygrid"
       id="grid884"
       originx="0"
       originy="0" />
  </sodipodi:namedview>
</svg>
