<?xml version="1.0" encoding="UTF-8" standalone="no"?>
<svg
   width="32"
   height="32"
   version="1.1"
   id="svg122"
   sodipodi:docname="media.svg"
   inkscape:version="1.1.1 (3bf5ae0d25, 2021-09-20)"
   xmlns:inkscape="http://www.inkscape.org/namespaces/inkscape"
   xmlns:sodipodi="http://sodipodi.sourceforge.net/DTD/sodipodi-0.dtd"
   xmlns:xlink="http://www.w3.org/1999/xlink"
   xmlns="http://www.w3.org/2000/svg"
   xmlns:svg="http://www.w3.org/2000/svg"
   xmlns:rdf="http://www.w3.org/1999/02/22-rdf-syntax-ns#"
   xmlns:cc="http://creativecommons.org/ns#"
   xmlns:dc="http://purl.org/dc/elements/1.1/">
  <g
     id="media-playback-paused"
     transform="translate(0,32)"
     style="fill:#d6dbf1;fill-opacity:1">
    <path
       style="opacity:0.00100002;fill:#d6dbf1;fill-opacity:1"
       d="M 0,0 H 32.000001 V 32.000001 H 0 Z"
       id="path112" />
    <path
       d="M 24.485297,7.514746 C 22.218817,5.248193 19.2051,4 16,4 12.7949,4 9.78117,5.248193 7.5149,7.514746 5.24821,9.781298 4,12.794773 4,16 4,19.205227 5.24821,22.218695 7.5149,24.485253 9.78117,26.751662 12.7949,28 16,28 c 3.2053,0 6.218817,-1.248338 8.485297,-3.514747 2.26634,-2.266558 3.5147,-5.280026 3.5147,-8.485253 0,-3.205227 -1.24836,-6.218849 -3.5147,-8.485254 z M 23.115,23.81465 C 20.905477,25.688857 19.123498,26.574873 16,26.552 12.68402,26.52772 11.45404,25.904686 8.885,23.814 6.79759,21.726745 5.448,18.951956 5.448,16 5.448,13.047903 6.84042,9.909571 8.885,8.185 11.17879,6.169405 13.09068,5.470038 16,5.448 c 2.951865,-0.02236 4.927587,0.91947 7.115,2.737205 2.08737,2.087403 3.437,4.862698 3.437,7.814795 0,2.951956 -1.34963,5.727395 -3.437,7.81465 z"
       id="path2-36-912-2"
       style="fill:#d6dbf1;fill-opacity:1;stroke-width:0.0374999"
       sodipodi:nodetypes="cscscscsccscscscsc" />
    <rect
       style="fill:#4e5a7e;fill-opacity:0.501961;stroke:none;stroke-width:0.525"
       id="center-3-35-5"
       width="21"
       height="21"
       x="5.5"
       y="5.5"
       ry="10.499983" />
    <path
       d="m 17.2523,20.009509 v -8.343562 c 0.009,-2.128292 2.75968,-2.128292 2.7692,0 v 8.343562 c -0.01,2.128292 -2.75968,2.128292 -2.7692,0 z m 2.21536,-8.343562 z"
       id="path8-6-7-5-3"
       style="fill:#d6dbf1;fill-opacity:1;stroke-width:0.298106"
       sodipodi:nodetypes="cccccccccc" />
    <path
       d="m 12,20.000002 v -8.333334 c 10e-4,-2.13526 2.7708,-2.13526 2.7694,0 v 8.333334 c -10e-4,2.13526 -2.7708,2.13526 -2.7694,0 z m 2.2154,-8.333334 z"
       id="path8-6-6-6-5"
       style="fill:#d6dbf1;fill-opacity:1;stroke-width:0.297919"
       sodipodi:nodetypes="cccccccccc" />
  </g>
  <g
     id="media-playback-pause">
    <path
       style="opacity:0.00100002;fill:#a8aeca;fill-opacity:1"
       d="M 0,0 H 32.000001 V 32.000001 H 0 Z"
       id="path67" />
    <path
       d="M 24.485297,7.514746 C 22.218817,5.248193 19.2051,4 16,4 12.7949,4 9.78117,5.248193 7.5148998,7.514746 5.24821,9.781298 4,12.794773 4,16 4,19.205227 5.24821,22.218695 7.5148998,24.485253 9.78117,26.751662 12.7949,28 16,28 c 3.2053,0 6.218817,-1.248338 8.485297,-3.514747 2.26634,-2.266558 3.5147,-5.280026 3.5147,-8.485253 0,-3.205227 -1.24836,-6.218849 -3.5147,-8.485254 z M 23.115,23.81465 C 20.905477,25.688857 19.123498,26.574873 16,26.552 12.684023,26.527717 11.454045,25.904686 8.885,23.814 6.7975902,21.726745 5.448,18.951956 5.448,16 5.448,13.047903 6.8404159,9.909571 8.885,8.185 11.178791,6.169405 13.090681,5.470038 16,5.448 c 2.951865,-0.02236 4.927587,0.91947 7.115,2.737205 2.08737,2.087403 3.437,4.862698 3.437,7.814795 0,2.951956 -1.34963,5.727395 -3.437,7.81465 z"
       id="path2-36-912"
       style="fill:#d6dbf1;fill-opacity:1;stroke-width:0.0374999"
       sodipodi:nodetypes="cscscscsccscscscsc" />
    <rect
       style="fill:#4e5a7e;fill-opacity:0.5;stroke:none;stroke-width:0.525"
       id="center-3-35"
       width="21"
       height="21"
       x="5.5"
       y="5.5"
       ry="10.499983" />
    <path
       d="m 17.2523,20.009509 v -8.343562 c 0.01,-2.128292 2.75968,-2.128292 2.7692,0 v 8.343562 c -0.01,2.128292 -2.75968,2.128292 -2.7692,0 z m 2.21536,-8.343562 z"
       id="path8-6-7-36"
       style="fill:#d6dbf1;fill-opacity:1;stroke-width:0.298106"
       sodipodi:nodetypes="cccccccccc" />
    <path
       d="m 12,20.000002 v -8.333334 c 10e-4,-2.13526 2.7708,-2.13526 2.7694,0 v 8.333334 c -10e-4,2.13526 -2.7708,2.13526 -2.7694,0 z m 2.2154,-8.333334 z"
       id="path8-6-6-7"
       style="fill:#d6dbf1;fill-opacity:1;stroke-width:0.297919"
       sodipodi:nodetypes="cccccccccc" />
  </g>
  <metadata
     id="metadata128">
    <rdf:RDF>
      <cc:Work
         rdf:about="">
        <dc:format>image/svg+xml</dc:format>
        <dc:type
           rdf:resource="http://purl.org/dc/dcmitype/StillImage" />
      </cc:Work>
    </rdf:RDF>
  </metadata>
  <defs
     id="defs126">
    <linearGradient
       inkscape:collect="always"
       id="linearGradient1065">
      <stop
         style="stop-color:#008080;stop-opacity:1"
         offset="0"
         id="stop1061" />
      <stop
         style="stop-color:#00e5e5;stop-opacity:1"
         offset="1"
         id="stop1063" />
    </linearGradient>
    <linearGradient
       inkscape:collect="always"
       xlink:href="#linearGradient1065"
       id="linearGradient1085"
       x1="3"
       y1="15.999999"
       x2="29"
       y2="15.999999"
       gradientUnits="userSpaceOnUse"
       gradientTransform="matrix(0.92307692,0,0,0.92307692,1.23079,-30.769231)" />
  </defs>
  <sodipodi:namedview
     pagecolor="#ffffff"
     bordercolor="#000000"
     borderopacity="1"
     objecttolerance="10"
     gridtolerance="10"
     guidetolerance="10"
     inkscape:pageopacity="0"
     inkscape:pageshadow="2"
     inkscape:window-width="1920"
     inkscape:window-height="1007"
     id="namedview124"
     showgrid="false"
     inkscape:zoom="2.8284271"
     inkscape:cx="123.03658"
     inkscape:cy="48.613592"
     inkscape:window-x="0"
     inkscape:window-y="0"
     inkscape:window-maximized="1"
     inkscape:current-layer="svg122"
     inkscape:document-rotation="0"
     inkscape:lockguides="false"
     showguides="false"
     inkscape:showpageshadow="false"
     inkscape:pagecheckerboard="0">
    <inkscape:grid
       type="xygrid"
       id="grid956"
       originx="0"
       originy="3e-06" />
  </sodipodi:namedview>
  <g
     id="media-playback-stop"
     transform="translate(32,64)">
    <g
       id="g18446"
       style="fill:#a8aeca;fill-opacity:1"
       transform="translate(0,-64)">
      <path
         style="opacity:0.00100002;fill:#a8aeca;fill-opacity:1"
         d="M 0,0 H 32.000001 V 32.000001 H 0 Z"
         id="path72" />
      <path
         d="M 24.485297,7.514746 C 22.218817,5.248193 19.2051,4 16,4 12.7949,4 9.78117,5.248193 7.5149,7.514746 5.24821,9.781298 4,12.794773 4,16 4,19.205227 5.24821,22.218695 7.5149,24.485253 9.78117,26.751662 12.7949,28 16,28 c 3.2053,0 6.218817,-1.248338 8.485297,-3.514747 2.26634,-2.266558 3.5147,-5.280026 3.5147,-8.485253 0,-3.205227 -1.24836,-6.218849 -3.5147,-8.485254 z M 23.115,23.81465 C 20.905477,25.688857 19.123498,26.574873 16,26.552 12.684023,26.52772 11.454045,25.904686 8.885,23.814 6.79759,21.726745 5.448,18.951956 5.448,16 5.448,13.047903 6.840416,9.909571 8.885,8.185 11.178791,6.169405 13.090681,5.470038 16,5.448 c 2.951865,-0.02236 4.927587,0.91947 7.115,2.737205 2.08737,2.087403 3.437,4.862698 3.437,7.814795 0,2.951956 -1.34963,5.727395 -3.437,7.81465 z"
         id="path2-36-912-3-3"
         style="fill:#d6dbf1;fill-opacity:1;stroke-width:0.0374999"
         sodipodi:nodetypes="cscscscsccscscscsc" />
    </g>
    <rect
       style="fill:#4e5a7e;fill-opacity:0.5;stroke:none;stroke-width:0.525"
       id="center-3-35-5-6"
       width="21"
       height="21"
       x="5.5"
       y="-58.5"
       ry="10.499983" />
    <path
       d="M 20.31666,-42.333335 H 11.65 c -0.71797,0 -1.3,-0.58203 -1.3,-1.3 V -52.3 c 0,-0.71797 0.58203,-1.3 1.3,-1.3 h 8.66666 c 0.71797,0 1.3,0.582029 1.3,1.3 v 8.666665 c 0,0.71797 -0.58203,1.3 -1.3,1.3 z m -9.1,-9.966665 z"
       id="path8-36"
       style="fill:#d6dbf1;fill-opacity:1;stroke-width:0.433333"
       sodipodi:nodetypes="sssssssssccccccccc" />
  </g>
  <g
     id="media-playback-start"
     transform="translate(32,64)">
    <path
       style="opacity:0.00100002;fill:#a8aeca;fill-opacity:1"
       d="m -64,-64 h 32 v 32 h -32 z"
       id="path62" />
    <path
       d="M -39.5147,-56.485253 C -41.78118,-58.751806 -44.7949,-60 -48,-60 c -3.2051,0 -6.21883,1.248194 -8.4851,3.514747 C -58.75179,-54.218702 -60,-51.205226 -60,-48 c 0,3.205227 1.24821,6.218695 3.5149,8.485253 C -54.21883,-37.248339 -51.2051,-36 -48,-36 c 3.2053,0 6.21882,-1.248339 8.4853,-3.514747 C -37.24836,-41.781305 -36,-44.794773 -36,-48 c 0,-3.205226 -1.24836,-6.218848 -3.5147,-8.485253 z m -1.3703,16.299903 c -2.20952,1.874206 -3.9915,2.760223 -7.115,2.737349 -3.31598,-0.02428 -4.54596,-0.647314 -7.115,-2.737999 -2.08741,-2.087255 -3.437,-4.862045 -3.437,-7.814 0,-2.952095 1.39242,-6.090428 3.437,-7.814999 2.29379,-2.015595 4.20568,-2.714962 7.115,-2.737 2.95186,-0.02236 4.92759,0.91947 7.115,2.737205 2.08737,2.087402 3.437,4.862697 3.437,7.814794 0,2.951955 -1.34963,5.727395 -3.437,7.81465 z"
       id="path2-36-912-3"
       style="fill:#d6dbf1;fill-opacity:1;stroke-width:0.0374999"
       sodipodi:nodetypes="cscscscsccscscscsc" />
    <rect
       style="fill:#4e5a7e;fill-opacity:0.5;stroke:none;stroke-width:0.525"
       id="center-3-35-5-3"
       width="21"
       height="21"
       x="-58.5"
       y="-58.5"
       ry="10.499983" />
    <path
       d="m -42.39174,-47.998178 c 3.3e-4,0.19226 -0.076,0.376171 -0.21206,0.512 l -5.93206,5.338437 c -0.58054,0.439139 -2,0.59774 -2.00052,-0.895541 V -47.65 -51.649999 c 0,-0.55855 -0.12313,-1.63231 0.371,-2.12836 v 0 c 0.49547,-0.49552 1.29886,-0.49552 1.79433,0 l 5.76725,5.267182 c 0.13608,0.135829 0.21239,0.320731 0.21206,0.512999 z"
       id="path4-3-3-9-1-9"
       style="fill:#d6dbf1;fill-opacity:1;stroke-width:0.36249"
       sodipodi:nodetypes="ccccccssccc" />
  </g>
  <g
     id="media-skip-backward"
     transform="translate(32,64)">
    <path
       style="opacity:0.00100002;fill:#a8aeca;fill-opacity:1"
       d="M 64,-64 H 32 v 32 h 32 z"
       id="path77" />
    <path
       d="M 56.4853,-56.485253 C 54.21882,-58.751805 51.2051,-60 48,-60 c -3.2051,0 -6.21883,1.248195 -8.4851,3.514747 C 37.24821,-54.218699 36,-51.205225 36,-48 c 0,3.205225 1.24821,6.218693 3.5149,8.485253 C 41.78117,-37.248336 44.7949,-36 48,-36 c 3.2053,0 6.21882,-1.248336 8.4853,-3.514747 C 58.75164,-41.781307 60,-44.794775 60,-48 c 0,-3.205222 -1.24836,-6.218848 -3.5147,-8.485253 z M 55.115,-40.18535 c -2.20952,1.874206 -3.9915,2.760221 -7.115,2.737349 -3.31598,-0.02428 -4.54596,-0.647314 -7.115,-2.737999 -2.08741,-2.087255 -3.437,-4.862043 -3.437,-7.813998 0,-2.952096 1.39242,-6.090429 3.437,-7.814999 2.29379,-2.015596 4.20568,-2.714962 7.115,-2.737 2.95186,-0.02236 4.92759,0.91947 7.115,2.737205 2.08737,2.087403 3.437,4.8627 3.437,7.814793 0,2.951956 -1.34963,5.727396 -3.437,7.814649 z"
       id="path2-36-912-3-3-35-6"
       style="fill:#d6dbf1;fill-opacity:1;stroke-width:0.0374999"
       sodipodi:nodetypes="cscscscsccscscscsc" />
    <rect
       style="fill:#4e5a7e;fill-opacity:0.5;stroke:none;stroke-width:0.525"
       id="center-3-35-5-35"
       width="21"
       height="21"
       x="37.5"
       y="-58.5"
       ry="10.499983" />
    <path
       d="m 42.4,-42.980047 v -9.921796 c 0.01,-2.530875 2.75968,-2.530875 2.7692,0 v 9.921796 c -0.01,2.530873 -2.75968,2.530873 -2.7692,0 z m 2.21536,-9.921796 z"
       id="path8-6-7-36-3-0"
       style="fill:#d6dbf1;fill-opacity:1;stroke-width:0.32508"
       sodipodi:nodetypes="cccccccccc" />
    <path
       d="m 45.21,-48 c -3.3e-4,-0.192259 0.076,-0.37617 0.21206,-0.511999 l 5.93206,-5.338437 c 0.58054,-0.43914 2,-0.597741 2.00052,0.89554 v 4.606719 4 c 0,0.55855 0.12313,1.63231 -0.371,2.12836 v 0 c -0.49547,0.49552 -1.29886,0.49552 -1.79433,0 L 45.42206,-47.487 C 45.28598,-47.622829 45.20967,-47.807731 45.21,-48 Z"
       id="path4-3-3-6"
       style="fill:#d6dbf1;fill-opacity:1;stroke-width:0.36249"
       sodipodi:nodetypes="ccccccssccc" />
  </g>
  <g
     id="media-skip-forward"
     transform="translate(32,64)">
    <path
       style="opacity:0.00100002;fill:#a8aeca;fill-opacity:1"
       d="m 64,-64 h 32 v 32 H 64 Z"
       id="path97" />
    <path
       d="M 88.4853,-56.485253 C 86.21882,-58.751805 83.2051,-60 80,-60 c -3.2051,0 -6.21883,1.248195 -8.4851,3.514747 C 69.24821,-54.2187 68,-51.205226 68,-48 c 0,3.205227 1.24821,6.218693 3.5149,8.485251 2.26627,2.266412 5.28,3.514747 8.4851,3.514747 3.2053,0 6.21882,-1.248335 8.4853,-3.514747 C 90.75164,-41.781307 92,-44.794773 92,-48 c 0,-3.205224 -1.24836,-6.218848 -3.5147,-8.485253 z m -1.3703,16.299901 c -2.20952,1.874207 -3.9915,2.760225 -7.115,2.73735 -3.31598,-0.02428 -4.54596,-0.647314 -7.115,-2.738 -2.08741,-2.087254 -3.437,-4.862043 -3.437,-7.813998 0,-2.952096 1.39242,-6.090429 3.437,-7.814999 2.29379,-2.015596 4.20568,-2.714962 7.115,-2.737 2.95186,-0.02236 4.92759,0.919471 7.115,2.737206 2.08737,2.087401 3.437,4.862697 3.437,7.814793 0,2.951956 -1.34963,5.727395 -3.437,7.814648 z"
       id="path2-36-912-3-3-35-3"
       style="fill:#d6dbf1;fill-opacity:1;stroke-width:0.0374999"
       sodipodi:nodetypes="cscscscsccscscscsc" />
    <rect
       style="fill:#4e5a7e;fill-opacity:0.5;stroke:none;stroke-width:0.525"
       id="center-3-35-5-5"
       width="21"
       height="21"
       x="69.5"
       y="-58.5"
       ry="10.499983" />
    <path
       d="m 82.758,-43.518425 v -8.909151 c 0.009,-2.272565 2.47802,-2.272565 2.48657,0 v 8.909151 c -0.009,2.272566 -2.47802,2.272566 -2.48657,0 z m 1.98926,-8.909151 z"
       id="path8-6-7-36-6-2-1"
       style="fill:#d6dbf1;fill-opacity:1;stroke-width:0.291898"
       sodipodi:nodetypes="cccccccccc" />
    <path
       d="m 82.65826,-47.980178 c 3.3e-4,0.19226 -0.076,0.376171 -0.21206,0.512 l -5.93206,5.338437 c -0.58054,0.439139 -2,0.59774 -2.00052,-0.89554 v -4.60672 -4 c 0,-0.55855 -0.12313,-1.63231 0.371,-2.12836 v 0 c 0.49547,-0.495519 1.29886,-0.495519 1.79433,0 l 5.76725,5.267182 c 0.13608,0.135829 0.21239,0.320731 0.21206,0.513001 z"
       id="path4-3-3-9-6-8"
       style="fill:#d6dbf1;fill-opacity:1;stroke-width:0.36249"
       sodipodi:nodetypes="ccccccssccc" />
  </g>
  <g
     id="media-seek-backward"
     transform="translate(32,64)">
    <path
       style="opacity:0.00100002;fill:#d6dbf1;fill-opacity:1"
       d="M 128,-64 H 96 v 32 h 32 z"
       id="path82" />
    <path
       d="M 120.4853,-56.485253 C 118.21882,-58.751806 115.2051,-60 112,-60 c -3.2051,0 -6.21883,1.248194 -8.4851,3.514747 C 101.24821,-54.218701 100,-51.205226 100,-48 c 0,3.205227 1.24821,6.218693 3.5149,8.48525 2.26627,2.266412 5.28,3.514747 8.4851,3.514747 3.2053,0 6.21882,-1.248335 8.4853,-3.514747 2.26634,-2.266557 3.5147,-5.280024 3.5147,-8.485251 0,-3.205226 -1.24836,-6.218848 -3.5147,-8.485252 z m -1.3703,16.299901 c -2.20952,1.874207 -3.9915,2.760225 -7.115,2.737349 -3.31598,-0.02428 -4.54596,-0.647314 -7.115,-2.738 -2.08741,-2.087254 -3.437,-4.862043 -3.437,-7.813998 0,-2.952094 1.39241,-6.090428 3.437,-7.814998 2.29379,-2.015596 4.20568,-2.714962 7.115,-2.737 2.95186,-0.02236 4.92759,0.91947 7.115,2.737205 2.08737,2.087402 3.437,4.862699 3.437,7.814794 0,2.951956 -1.34963,5.727395 -3.437,7.814648 z"
       id="path2-36-912-3-3-35-3-3"
       style="fill:#d6dbf1;fill-opacity:1;stroke-width:0.0374999"
       sodipodi:nodetypes="cscscscsccscscscsc" />
    <rect
       style="fill:#4e5a7e;fill-opacity:0.5;stroke:none;stroke-width:0.525"
       id="center-3-35-5-7"
       width="21"
       height="21"
       x="101.5"
       y="-58.5"
       ry="10.499983" />
    <path
       d="m 110.988,-47.92711 c -3.3e-4,-0.192261 0.076,-0.376725 0.21206,-0.512555 l 5.76725,-5.767153 c 1.19622,-1.193027 2.98738,0.598101 1.79433,1.794303 l -4.48584,4.485405 4.48584,4.485404 c 0.49413,0.496046 0.49413,1.298257 0,1.794303 v 0 c -0.49548,0.49552 -1.29886,0.49552 -1.79433,0 l -5.76725,-5.767151 c -0.13608,-0.13583 -0.21239,-0.320293 -0.21206,-0.512556 z m 2.51896,0.256277 z"
       id="path4-3-75-6-7"
       style="fill:#d6dbf1;fill-opacity:1;stroke-width:0.36249"
       sodipodi:nodetypes="ccccccsscccccccccccc" />
    <path
       d="m 105,-47.92711 c -3.3e-4,-0.19226 0.076,-0.376725 0.21206,-0.512555 l 5.76725,-5.767153 c 1.19622,-1.193027 2.98738,0.598101 1.79433,1.794304 l -4.48584,4.485404 4.48584,4.485404 c 0.49413,0.496046 0.49413,1.298257 0,1.794303 v 0 c -0.49548,0.49552 -1.29886,0.49552 -1.79433,0 l -5.76725,-5.767151 c -0.13608,-0.135831 -0.2124,-0.320293 -0.21206,-0.512556 z m 7.26071,4.997957 z"
       id="path4-3-75-2-9"
       style="fill:#d6dbf1;fill-opacity:1;stroke-width:0.36249"
       sodipodi:nodetypes="ccccccsscccccccccccc" />
  </g>
  <g
     id="media-seek-forward"
     transform="translate(32,64)">
    <path
       style="opacity:0.00100002;fill:#d6dbf1;fill-opacity:1"
       d="m 128,-64 h 32 v 32 h -32 z"
       id="path102" />
    <path
       d="M 152.4853,-56.485254 C 150.21882,-58.751807 147.2051,-60 144,-60 c -3.2051,0 -6.21883,1.248193 -8.4851,3.514746 C 133.24821,-54.218702 132,-51.205225 132,-48 c 0,3.205225 1.24821,6.218693 3.5149,8.485253 C 137.78117,-37.24834 140.7949,-36 144,-36 c 3.2053,0 6.21882,-1.24834 8.4853,-3.514747 C 154.75164,-41.781307 156,-44.794775 156,-48 c 0,-3.205226 -1.24836,-6.218849 -3.5147,-8.485254 z m -1.3703,16.299903 c -2.20952,1.874207 -3.9915,2.760223 -7.115,2.737351 -3.31598,-0.02428 -4.54595,-0.647314 -7.115,-2.738 -2.08741,-2.087255 -3.437,-4.862044 -3.437,-7.814 0,-2.952096 1.39242,-6.090429 3.437,-7.815 2.29379,-2.015595 4.20568,-2.714962 7.115,-2.737 2.95186,-0.02236 4.92759,0.91947 7.115,2.737205 2.08737,2.087404 3.437,4.862699 3.437,7.814795 0,2.951955 -1.34963,5.727394 -3.437,7.814649 z"
       id="path2-36-912-3-7"
       style="fill:#d6dbf1;fill-opacity:1;stroke-width:0.0374999"
       sodipodi:nodetypes="cscscscsccscscscsc" />
    <rect
       style="fill:#4e5a7e;fill-opacity:0.5;stroke:none;stroke-width:0.525"
       id="center-3-35-5-2"
       width="21"
       height="21"
       x="133.5"
       y="-58.5"
       ry="10.499983" />
    <path
       d="m 144.96814,-47.948649 c 3.4e-4,0.192263 -0.076,0.376728 -0.21206,0.512556 l -5.76725,5.767153 c -1.19622,1.196207 -2.99056,-0.598101 -1.79434,-1.794308 l 4.48585,-4.485401 -4.48585,-4.485405 c -0.49413,-0.496046 -0.49413,-1.298258 0,-1.794304 v 0 c 0.49548,-0.495523 1.29886,-0.495523 1.79434,0 l 5.76725,5.767153 c 0.13608,0.135828 0.2124,0.320293 0.21206,0.512556 z m -0.72463,0 z"
       id="path4-3-9-20"
       style="fill:#d6dbf1;fill-opacity:1;stroke-width:0.36249"
       sodipodi:nodetypes="ccscccsscccccccccccc" />
    <path
       d="m 151.09636,-47.948649 c 3.3e-4,0.192263 -0.076,0.376728 -0.21206,0.512556 l -5.76725,5.767153 c -1.19622,1.196203 -2.99056,-0.598105 -1.79433,-1.794308 l 4.48584,-4.485404 -4.48584,-4.485405 c -0.49413,-0.496046 -0.49413,-1.298255 0,-1.794301 v 0 c 0.49547,-0.49552 1.29885,-0.49552 1.79433,0 l 5.76725,5.767152 c 0.13607,0.135828 0.21239,0.320293 0.21206,0.512557 z m -0.72463,0 z"
       id="path4-3-2-2"
       style="fill:#d6dbf1;fill-opacity:1;stroke-width:0.36249"
       sodipodi:nodetypes="ccscccsscccccccccccc" />
  </g>
  <g
     id="media-eject"
     transform="translate(32,64)">
    <path
       style="opacity:0.00100002;fill:#d6dbf1;fill-opacity:1"
       d="m 192,-64 h -32 v 32 h 32 z"
       id="path87" />
    <path
       d="M 184.4853,-56.485253 C 182.21882,-58.751806 179.2051,-60 176,-60 c -3.2051,0 -6.21883,1.248194 -8.4851,3.514747 -2.26669,2.266552 -3.5149,5.280027 -3.5149,8.485254 0,3.205226 1.24821,6.218694 3.5149,8.485251 2.26627,2.266411 5.28,3.514747 8.4851,3.514747 3.2053,0 6.21882,-1.248336 8.4853,-3.514747 2.26634,-2.266558 3.5147,-5.280025 3.5147,-8.485251 0,-3.205226 -1.24836,-6.21885 -3.5147,-8.485254 z m -1.3703,16.299902 c -2.20952,1.874206 -3.9915,2.760224 -7.115,2.737351 -3.31598,-0.02428 -4.54595,-0.647315 -7.115,-2.738 -2.08741,-2.087255 -3.437,-4.862043 -3.437,-7.813998 0,-2.952096 1.39242,-6.090431 3.437,-7.815001 2.29379,-2.015596 4.20568,-2.714962 7.115,-2.737 2.95186,-0.02236 4.92759,0.91947 7.115,2.737205 2.08737,2.087403 3.437,4.8627 3.437,7.814796 0,2.951955 -1.34963,5.727395 -3.437,7.814647 z"
       id="path2-36-912-3-3-35-3-75"
       style="fill:#d6dbf1;fill-opacity:1;stroke-width:0.0374999"
       sodipodi:nodetypes="cscscscsccscscscsc" />
    <rect
       style="fill:#4e5a7e;fill-opacity:0.5;stroke:none;stroke-width:0.525"
       id="center-3-35-5-1"
       width="21"
       height="21"
       x="165.5"
       y="-58.5"
       ry="10.499983" />
    <path
       d="m 171.04816,-44.771 h 9.92179 c 2.53088,0.0095 2.53088,2.759677 0,2.769197 h -9.92179 c -2.53088,-0.0095 -2.53088,-2.759677 0,-2.769197 z m 9.92179,0.55384 z"
       id="path8-6-7-36-2-3"
       style="fill:#d6dbf1;fill-opacity:1;stroke-width:0.32508"
       sodipodi:nodetypes="cccccccccc" />
    <path
       d="m 176.01982,-53.999999 c 0.19226,-3.3e-4 0.37617,0.076 0.512,0.21206 l 5.33844,5.932059 c 0.43914,0.58054 0.59774,2 -0.89554,2.00052 h -4.60672 -4 c -0.55855,0 -1.63231,0.12313 -2.12836,-0.371 v 0 c -0.49552,-0.49547 -0.49552,-1.29886 0,-1.79433 l 5.26718,-5.767249 c 0.13583,-0.13608 0.32073,-0.21239 0.513,-0.21206 z"
       id="path4-3-3-9-9-7"
       style="fill:#d6dbf1;fill-opacity:1;stroke-width:0.36249"
       sodipodi:nodetypes="ccccccssccc" />
  </g>
  <g
     id="media-record"
     transform="translate(32,64)">
    <g
       id="g18491"
       transform="translate(192,-64)">
      <g
         id="g1448">
        <path
           style="opacity:0.00100002"
           d="M 0,0 H 32 V 32.000001 H 0 Z"
           id="path92" />
        <path
           d="M 24.485297,7.514747 C 22.218817,5.248194 19.2051,4 16,4 12.7949,4 9.78117,5.248194 7.5149,7.514747 5.24821,9.781299 4,12.794773 4,16 4,19.20523 5.24821,22.21869 7.5149,24.48525 9.78117,26.75166 12.7949,28 16,28 c 3.2053,0 6.218817,-1.24834 8.485297,-3.51475 2.26634,-2.26656 3.5147,-5.28002 3.5147,-8.48525 0,-3.205226 -1.24836,-6.218849 -3.5147,-8.485253 z M 23.115,23.81465 C 20.905477,25.68886 19.123498,26.57487 16,26.552 12.684023,26.52772 11.454045,25.90469 8.885,23.814 6.79759,21.72674 5.448,18.95196 5.448,16 c 0,-2.952095 1.392416,-6.090429 3.437,-7.814999 2.293791,-2.015596 4.205681,-2.714962 7.115,-2.737 2.951865,-0.02236 4.927587,0.91947 7.115,2.737205 2.08737,2.087403 3.437,4.862699 3.437,7.814794 0,2.95196 -1.34963,5.7274 -3.437,7.81465 z"
           id="path2-36-912-3-3-35-3-73"
           style="fill:#da4453;fill-opacity:1;stroke-width:0.0374999"
           sodipodi:nodetypes="cscscscsccscscscsc" />
      </g>
    </g>
    <rect
       style="fill:#4e5a7e;fill-opacity:0.5;stroke:none;stroke-width:0.525"
       id="center-3-35-5-9"
       width="21"
       height="21"
       x="197.5"
       y="-58.5"
       ry="10.499983" />
    <circle
       r="5.999907"
       cy="-48.000092"
       cx="207.99991"
       id="path904-5"
       style="fill:#da4453;fill-opacity:1;stroke:none;stroke-width:4.79995;stroke-linecap:round;stroke-linejoin:round;stroke-miterlimit:4;stroke-dasharray:none;stroke-opacity:1;paint-order:stroke fill markers" />
  </g>
  <g
     id="media-playback-playing"
     transform="translate(32,64)">
    <path
       style="opacity:0.00100002;fill:#d6dbf1;fill-opacity:1"
       d="m -64,-32 h 32 V 1e-6 h -32 z"
       id="path107" />
    <path
       d="M -39.5147,-24.485254 C -41.78118,-26.751807 -44.7949,-28 -48,-28 c -3.2051,0 -6.21883,1.248193 -8.4851,3.514746 C -58.75179,-22.218702 -60,-19.205227 -60,-16 c 0,3.205227 1.24821,6.218695 3.5149,8.485253 C -54.21883,-5.248338 -51.2051,-4 -48,-4 c 3.2053,0 6.21882,-1.248338 8.4853,-3.514747 C -37.24836,-9.781305 -36,-12.794773 -36,-16 c 0,-3.205227 -1.24836,-6.218849 -3.5147,-8.485254 z M -40.885,-8.18535 c -2.20952,1.874207 -3.9915,2.760223 -7.115,2.73735 -3.31598,-0.02428 -4.54596,-0.647314 -7.115,-2.738 -2.08741,-2.087255 -3.437,-4.862044 -3.437,-7.814 0,-2.952097 1.39242,-6.090429 3.437,-7.815 2.29379,-2.015595 4.20568,-2.714962 7.115,-2.737 2.95186,-0.02236 4.92759,0.91947 7.115,2.737205 2.08737,2.087403 3.437,4.862698 3.437,7.814795 0,2.951956 -1.34963,5.727395 -3.437,7.81465 z"
       id="path2-36-912-3-367"
       style="fill:#d6dbf1;fill-opacity:1;stroke-width:0.0374999"
       sodipodi:nodetypes="cscscscsccscscscsc" />
    <rect
       style="fill:#4e5a7e;fill-opacity:0.5;stroke:none;stroke-width:0.525"
       id="center-3-35-5-70"
       width="21"
       height="21"
       x="-58.5"
       y="-26.5"
       ry="10.499983" />
    <path
       d="m -42.39174,-15.998178 c 3.3e-4,0.19226 -0.076,0.376171 -0.21206,0.512 l -5.93206,5.338437 c -0.58054,0.439139 -2,0.59774 -2.00052,-0.89554 V -15.65 v -4 c 0,-0.55855 -0.12313,-1.63231 0.371,-2.12836 v 0 c 0.49547,-0.49552 1.29886,-0.49552 1.79433,0 l 5.76725,5.267182 c 0.13608,0.135829 0.21239,0.320731 0.21206,0.513 z"
       id="path4-3-3-9-1-2-9"
       style="fill:#d6dbf1;fill-opacity:1;stroke-width:0.36249"
       sodipodi:nodetypes="ccccccssccc" />
  </g>
  <g
     id="media-playback-stopped"
     transform="translate(32,64)">
    <path
       style="opacity:0.00100002;fill:#d6dbf1;fill-opacity:1"
       d="M 0,-32 H 32 V 1e-6 H 0 Z"
       id="path117" />
    <path
       d="M 24.4853,-24.485254 C 22.21882,-26.751807 19.2051,-28 16,-28 12.7949,-28 9.78117,-26.751807 7.5149,-24.485254 5.24821,-22.218702 4,-19.205227 4,-16 4,-12.794773 5.24821,-9.781305 7.5149,-7.514747 9.78117,-5.248338 12.7949,-4 16,-4 19.2053,-4 22.21882,-5.248338 24.4853,-7.514747 26.75164,-9.781305 28,-12.794773 28,-16 c 0,-3.205227 -1.24836,-6.218849 -3.5147,-8.485254 z M 23.115,-8.18535 C 20.90548,-6.311143 19.1235,-5.425127 16,-5.448 12.68402,-5.47228 11.45404,-6.095314 8.885,-8.186 6.79759,-10.273255 5.448,-13.048044 5.448,-16 c 0,-2.952097 1.39242,-6.090429 3.437,-7.815 2.29379,-2.015595 4.20568,-2.714962 7.115,-2.737 2.95186,-0.02236 4.92759,0.91947 7.115,2.737205 2.08737,2.087403 3.437,4.862698 3.437,7.814795 0,2.951956 -1.34963,5.727395 -3.437,7.81465 z"
       id="path2-36-912-3-3-3"
       style="fill:#d6dbf1;fill-opacity:1;stroke-width:0.0374999"
       sodipodi:nodetypes="cscscscsccscscscsc" />
    <rect
       style="fill:#4e5a7e;fill-opacity:0.5;stroke:none;stroke-width:0.525"
       id="center-3-35-5-62"
       width="21"
       height="21"
       x="5.5"
       y="-26.5"
       ry="10.499983" />
    <path
       d="M 20.31666,-10.333333 H 11.65 c -0.71797,0 -1.3,-0.58203 -1.3,-1.3 V -20.3 c 0,-0.71797 0.58203,-1.3 1.3,-1.3 h 8.66666 c 0.71797,0 1.3,0.58203 1.3,1.3 v 8.666667 c 0,0.71797 -0.58203,1.3 -1.3,1.3 z m 0,-10.4 z"
       id="path8-7-2"
       style="fill:#d6dbf1;fill-opacity:1;stroke-width:0.433333"
       sodipodi:nodetypes="sssssssssccccccccc" />
  </g>
  <g
     id="22-22-media-playback-start"
     transform="translate(32,64)">
    <path
       style="opacity:0.00100002;fill:#d6dbf1;fill-opacity:1"
       d="m -64,-86 h 22 v 22 h -22 z"
       id="path2" />
    <path
       d="M -47.34312,-80.656844 C -48.85413,-82.167884 -50.86328,-83 -53,-83 c -2.13672,0 -4.14588,0.832116 -5.65672,2.343156 C -60.16787,-79.145805 -61,-77.136827 -61,-75 c 0,2.136827 0.83213,4.145804 2.34328,5.656844 C -57.14588,-67.83224 -55.13672,-67 -53,-67 c 2.13688,0 4.14587,-0.83224 5.65688,-2.343156 C -45.83224,-70.854196 -45,-72.863173 -45,-75 c 0,-2.136827 -0.83224,-4.145889 -2.34312,-5.656844 z m -0.91356,10.866614 c -1.473,1.249474 -2.661,1.840143 -4.74332,1.824887 -2.21064,-0.01628 -3.03064,-0.431537 -4.74332,-1.825314 -1.39163,-1.391503 -2.29134,-3.241385 -2.29134,-5.209343 0,-1.96808 0.92828,-4.060276 2.29134,-5.21 1.52917,-1.343717 2.80376,-1.809963 4.74332,-1.824657 1.96792,-0.01499 3.28504,0.612977 4.74332,1.824805 1.3916,1.39158 2.29134,3.241772 2.29134,5.209852 0,1.967958 -0.89974,3.818274 -2.29134,5.20977 z"
       id="path2-36-912-3-36"
       style="fill:#d6dbf1;fill-opacity:1;stroke-width:0.0249998"
       sodipodi:nodetypes="cscscscsccscscscsc" />
    <rect
       style="fill:#4e5a7e;fill-opacity:0.5;stroke:none;stroke-width:0.35"
       id="center-3-35-6-8"
       width="14"
       height="14"
       x="-60"
       y="-82"
       ry="6.9999886" />
    <path
       d="m -49.06554,-74.611685 c 2.6e-4,0.139852 -0.0553,0.274032 -0.15425,0.372834 l -4.19625,3.590618 c -0.4223,0.319425 -1.57367,0.363698 -1.57405,-0.722527 v -3.351024 -2.909665 c 0,-0.406302 -0.0896,-1.187376 0.26986,-1.548214 v 0 c 0.36043,-0.360449 0.94482,-0.360449 1.30524,0 l 4.1952,4.195143 c 0.099,0.0988 0.15451,0.232981 0.15425,0.372835 z"
       id="path4-3-75-3-4"
       style="fill:#d6dbf1;fill-opacity:1;stroke-width:0.263676"
       sodipodi:nodetypes="ccccccssccc" />
  </g>
  <g
     id="22-22-media-playback-playing"
     transform="translate(32,64)">
    <path
       style="opacity:0.00100002;fill:#d6dbf1;fill-opacity:1"
       d="m -64,0 h 22 v 21.999999 h -22 z"
       id="path47" />
    <path
       d="M -47.34312,5.343156 C -48.85413,3.832116 -50.86328,3 -53,3 -55.13672,3 -57.14588,3.832116 -58.65672,5.343156 -60.16787,6.854195 -61,8.863173 -61,11 c 0,2.136827 0.83213,4.145804 2.34328,5.656844 C -57.14588,18.16776 -55.13672,19 -53,19 c 2.13688,0 4.14587,-0.83224 5.65688,-2.343156 C -45.83224,15.145804 -45,13.136827 -45,11 -45,8.863173 -45.83224,6.854111 -47.34312,5.343156 Z m -0.91356,10.866614 c -1.473,1.249474 -2.661,1.840143 -4.74332,1.824887 -2.21064,-0.01628 -3.03064,-0.431537 -4.74332,-1.825314 C -59.13495,14.81784 -60.03466,12.967958 -60.03466,11 c 0,-1.96808 0.92828,-4.060276 2.29134,-5.21 1.52917,-1.343717 2.80376,-1.809963 4.74332,-1.824657 1.96792,-0.01499 3.28504,0.612977 4.74332,1.824805 1.3916,1.39158 2.29134,3.241772 2.29134,5.209852 0,1.967958 -0.89974,3.818274 -2.29134,5.20977 z"
       id="path2-36-912-3-36-6"
       style="fill:#d6dbf1;fill-opacity:1;stroke-width:0.0249998"
       sodipodi:nodetypes="cscscscsccscscscsc" />
    <rect
       style="fill:#4e5a7e;fill-opacity:0.5;stroke:none;stroke-width:0.35"
       id="center-3-35-6-8-5"
       width="14"
       height="14"
       x="-60"
       y="4"
       ry="6.9999886" />
    <path
       d="m -49.06554,11.388315 c 2.6e-4,0.139852 -0.0553,0.274032 -0.15425,0.372834 l -4.19625,3.590618 c -0.4223,0.319425 -1.57367,0.363698 -1.57405,-0.722527 V 11.278216 8.368551 c 0,-0.406303 -0.0896,-1.187376 0.26986,-1.548214 v 0 c 0.36043,-0.360449 0.94482,-0.360449 1.30524,0 l 4.1952,4.195143 c 0.099,0.0988 0.15451,0.232981 0.15425,0.372835 z"
       id="path4-3-75-3-4-6"
       style="fill:#d6dbf1;fill-opacity:1;stroke-width:0.263676"
       sodipodi:nodetypes="ccccccssccc" />
  </g>
  <g
     id="22-22-media-playback-pause"
     transform="translate(32,64)">
    <path
       style="opacity:0.00100002;fill:#d6dbf1;fill-opacity:1"
       d="m -32,-86 h 22 v 22 h -22 z"
       id="path12" />
    <path
       d="M -15.34313,-80.656841 C -16.85412,-82.167874 -18.86327,-83 -21,-83 c -2.13673,0 -4.14588,0.832126 -5.65673,2.343159 C -28.16786,-79.145802 -29,-77.136821 -29,-75 c 0,2.136821 0.83214,4.145801 2.34327,5.65684 1.51085,1.510929 3.52,2.34316 5.65673,2.34316 2.13687,0 4.14588,-0.832231 5.65687,-2.34316 C -13.83224,-70.854199 -13,-72.863179 -13,-75 c 0,-2.136821 -0.83224,-4.145896 -2.34313,-5.656841 z m -0.91354,10.866611 c -1.47301,1.249471 -2.66101,1.840143 -4.74333,1.824891 -2.21064,-0.01622 -3.03064,-0.431541 -4.74333,-1.825322 -1.39161,-1.391501 -2.29134,-3.24137 -2.29134,-5.209339 0,-1.96807 0.92828,-4.060282 2.29134,-5.21 1.52919,-1.343728 2.80378,-1.809973 4.74333,-1.824661 1.96792,-0.01495 3.28505,0.612981 4.74333,1.824805 1.39159,1.391591 2.29133,3.241786 2.29133,5.209856 0,1.967969 -0.89974,3.818267 -2.29133,5.20977 z"
       id="path2-36-912-5"
       style="fill:#d6dbf1;fill-opacity:1;stroke-width:0.0249998"
       sodipodi:nodetypes="cscscscsccscscscsc" />
    <rect
       style="fill:#4e5a7e;fill-opacity:0.5;stroke:none;stroke-width:0.35"
       id="center-3-35-6"
       width="14"
       height="14"
       x="-28"
       y="-82"
       ry="6.9999886" />
    <path
       d="m -20.14847,-72.221654 v -5.560699 c 0.006,-1.418868 1.84016,-1.418868 1.84614,0 v 5.560698 c -0.006,1.418867 -1.84016,1.418867 -1.84614,10e-7 z m 1.47691,-5.560699 z"
       id="path8-6-7-3-5"
       style="fill:#d6dbf1;fill-opacity:1;stroke-width:0.198701"
       sodipodi:nodetypes="cccccccccc" />
    <path
       d="m -23.65,-72.228969 v -5.553063 c 0,-1.423957 1.84627,-1.423957 1.84627,0 v 5.553063 c 0,1.423959 -1.84627,1.423959 -1.84627,0 z m 1.47694,-5.553063 z"
       id="path8-6-6-67-0"
       style="fill:#d6dbf1;fill-opacity:1;stroke-width:0.198574"
       sodipodi:nodetypes="sssssccccc" />
  </g>
  <g
     id="22-22-media-playback-paused"
     transform="translate(32,64)">
    <path
       style="opacity:0.00100002;fill:#d6dbf1;fill-opacity:1"
       d="m -32,0 h 22 v 22 h -22 z"
       id="path57" />
    <path
       d="M -15.34313,5.343159 C -16.85412,3.832126 -18.86327,3 -21,3 -23.13673,3 -25.14588,3.832126 -26.65673,5.343159 -28.16786,6.854198 -29,8.863179 -29,11 c 0,2.136821 0.83214,4.145801 2.34327,5.65684 C -25.14588,18.167769 -23.13673,19 -21,19 c 2.13687,0 4.14588,-0.832231 5.65687,-2.34316 C -13.83224,15.145801 -13,13.136821 -13,11 -13,8.863179 -13.83224,6.854104 -15.34313,5.343159 Z m -0.91354,10.866611 c -1.47301,1.249471 -2.66101,1.840143 -4.74333,1.824891 -2.21064,-0.01622 -3.03064,-0.431541 -4.74333,-1.825322 -1.39161,-1.391501 -2.29134,-3.24137 -2.29134,-5.209339 0,-1.96807 0.92828,-4.060282 2.29134,-5.21 1.52919,-1.343728 2.80378,-1.809973 4.74333,-1.824661 1.96792,-0.01495 3.28505,0.612981 4.74333,1.824805 1.39159,1.391591 2.29133,3.241786 2.29133,5.209856 0,1.967969 -0.89974,3.818267 -2.29133,5.20977 z"
       id="path2-36-912-5-9"
       style="fill:#d6dbf1;fill-opacity:1;stroke-width:0.0249998"
       sodipodi:nodetypes="cscscscsccscscscsc" />
    <rect
       style="fill:#4e5a7e;fill-opacity:0.5;stroke:none;stroke-width:0.35"
       id="center-3-35-6-37"
       width="14"
       height="14"
       x="-28"
       y="4.0000005"
       ry="6.9999886" />
    <path
       d="M -20.14847,13.778346 V 8.217647 c 0.006,-1.418868 1.84016,-1.418868 1.84614,0 v 5.560698 c -0.006,1.418867 -1.84016,1.418867 -1.84614,1e-6 z m 1.47691,-5.560699 z"
       id="path8-6-7-3-5-4"
       style="fill:#d6dbf1;fill-opacity:1;stroke-width:0.198701"
       sodipodi:nodetypes="cccccccccc" />
    <path
       d="M -23.65,13.771031 V 8.217968 c 0,-1.423957 1.84627,-1.423957 1.84627,0 v 5.553063 c 0,1.423959 -1.84627,1.423959 -1.84627,0 z m 1.47694,-5.553063 z"
       id="path8-6-6-67-0-5"
       style="fill:#d6dbf1;fill-opacity:1;stroke-width:0.198574"
       sodipodi:nodetypes="sssssccccc" />
  </g>
  <g
     id="22-22-media-playback-stop"
     transform="translate(32,64)">
    <path
       style="opacity:0.00100002;fill:#d6dbf1;fill-opacity:1"
       d="m 0,-86 h 22 v 22 H 0 Z"
       id="path7" />
    <path
       d="M 16.65688,-80.656844 C 15.14587,-82.167881 13.13672,-83 11,-83 8.86328,-83 6.85412,-82.167881 5.34328,-80.656844 3.83213,-79.145805 3,-77.136827 3,-75 c 0,2.136827 0.83213,4.145804 2.34328,5.656844 C 6.85412,-67.83224 8.86328,-67 11,-67 c 2.13688,0 4.14587,-0.83224 5.65688,-2.343156 C 18.16776,-70.854196 19,-72.863173 19,-75 c 0,-2.136827 -0.83224,-4.145889 -2.34312,-5.656844 z m -0.91356,10.866614 c -1.473,1.249474 -2.661,1.840143 -4.74332,1.824887 C 8.78936,-67.981613 7.96936,-68.39688 6.25668,-69.790657 4.86505,-71.18216 3.96534,-73.032041 3.96534,-75 c 0,-1.96808 0.92828,-4.060277 2.29134,-5.21 1.52917,-1.343719 2.80376,-1.809964 4.74332,-1.824657 1.96792,-0.01499 3.28504,0.612977 4.74332,1.824805 1.3916,1.39158 2.29134,3.241772 2.29134,5.209852 0,1.967959 -0.89974,3.818275 -2.29134,5.20977 z"
       id="path2-36-912-3-3-6"
       style="fill:#d6dbf1;fill-opacity:1;stroke-width:0.0249998"
       sodipodi:nodetypes="cscscscsccscscscsc" />
    <rect
       style="fill:#4e5a7e;fill-opacity:0.5;stroke:none;stroke-width:0.35"
       id="center-3-35-6-2"
       width="14"
       height="14"
       x="4"
       y="-82"
       ry="6.9999886" />
    <path
       d="M 13.84444,-71.238872 H 8.06666 c -0.47865,-5e-6 -0.86667,-0.388035 -0.86666,-0.866686 v -5.777764 c -1e-5,-0.478648 0.38801,-0.866673 0.86666,-0.866678 h 5.77778 c 0.47865,-1e-5 0.86669,0.38802 0.86668,0.866678 v 5.777764 c 1e-5,0.478661 -0.38802,0.866696 -0.86668,0.866686 z m 0.2889,-6.64445 z"
       id="path8-3-3"
       style="fill:#d6dbf1;fill-opacity:1;stroke-width:0.28888"
       sodipodi:nodetypes="cccccccccccccccccc" />
  </g>
  <g
     id="22-22-media-skip-backward"
     transform="translate(32,64)">
    <path
       style="opacity:0.00100002;fill:#d6dbf1;fill-opacity:1"
       d="M 54,-86 H 32 v 22 h 22 z"
       id="path22" />
    <path
       d="M 48.65687,-80.6568 C 47.14588,-82.16784 45.13673,-83 43,-83 c -2.13673,0 -4.14588,0.83216 -5.65673,2.3432 C 35.83214,-79.14581 35,-77.1368 35,-75 c 0,2.1368 0.83214,4.1458 2.34327,5.6568 1.51085,1.51095 3.52,2.3432 5.65673,2.3432 2.13687,0 4.14588,-0.83225 5.65687,-2.3432 C 50.16776,-70.8542 51,-72.8632 51,-75 c 0,-2.1368 -0.83224,-4.1459 -2.34313,-5.6568 z m -0.91353,10.86659 c -1.47302,1.24947 -2.66101,1.84013 -4.74334,1.82485 -2.21065,-0.0163 -3.03064,-0.43156 -4.74334,-1.82529 -1.3916,-1.3915 -2.29132,-3.24139 -2.29132,-5.20935 0,-1.9681 0.92828,-4.06027 2.29132,-5.21 1.5292,-1.34377 2.8038,-1.81 4.74334,-1.82464 1.96792,-0.0144 3.28506,0.61301 4.74334,1.82479 1.39158,1.39156 2.29132,3.24175 2.29132,5.20985 0,1.96796 -0.89974,3.8183 -2.29132,5.20979 z"
       id="path2-36-912-3-3-35-2"
       style="fill:#d6dbf1;fill-opacity:1;stroke-width:0.0249998"
       sodipodi:nodetypes="cscscscsccscscscsc" />
    <rect
       style="fill:#4e5a7e;fill-opacity:0.5;stroke:none;stroke-width:0.35"
       id="center-3-35-6-7"
       width="14"
       height="14"
       x="36"
       y="-82"
       ry="6.9999886" />
    <path
       d="m 39.1,-71.669782 v -6.614541 c 0.006,-1.687569 1.84002,-1.687569 1.84614,0 v 6.614541 c -0.006,1.687569 -1.84002,1.687569 -1.84614,0 z m 1.47692,-6.614541 z"
       id="path8-6-7-36-9-6"
       style="fill:#d6dbf1;fill-opacity:1;stroke-width:0.216721"
       sodipodi:nodetypes="cccccccccc" />
    <path
       d="m 40.973,-75.127981 c -2.5e-4,-0.139926 0.0553,-0.273849 0.15424,-0.372701 l 4.19592,-3.779601 c 0.42227,-0.319593 1.57355,-0.363895 1.57393,0.722914 v 3.352806 2.91122 c 0,0.406516 0.0896,1.188003 -0.26984,1.549035 v 0 c -0.3604,0.360642 -0.94475,0.360642 -1.30514,0 l -4.19487,-4.010973 c -0.099,-0.09885 -0.15449,-0.232766 -0.15424,-0.3727 z"
       id="path4-3-75-3-6-2-1"
       style="fill:#d6dbf1;fill-opacity:1;stroke-width:0.263737"
       sodipodi:nodetypes="ccccccssccc" />
  </g>
  <g
     id="22-22-media-skip-forward"
     transform="translate(32,64)">
    <path
       style="opacity:0.00100002;fill:#d6dbf1;fill-opacity:1"
       d="m 64,-86 h 22 v 22 H 64 Z"
       id="path17" />
    <path
       d="M 80.65687,-80.656839 C 79.14588,-82.167873 77.13673,-83 75,-83 c -2.13673,0 -4.14588,0.832127 -5.65673,2.343161 C 67.83213,-79.145799 67,-77.136826 67,-75 c 0,2.136827 0.83213,4.145798 2.34327,5.656839 C 70.85412,-67.83223 72.86327,-67 75,-67 c 2.13687,0 4.14588,-0.83223 5.65687,-2.343161 C 82.16776,-70.854201 83,-72.863173 83,-75 c 0,-2.136825 -0.83224,-4.145893 -2.34313,-5.656839 z m -0.91354,10.866609 c -1.47301,1.249468 -2.66101,1.840144 -4.74333,1.824895 -2.21064,-0.01626 -3.03064,-0.431545 -4.74333,-1.825331 -1.39161,-1.391495 -2.29134,-3.241364 -2.29134,-5.209333 0,-1.968069 0.92829,-4.060283 2.29134,-5.210001 1.52919,-1.343728 2.80378,-1.809973 4.74333,-1.824664 1.96792,-0.01491 3.28505,0.612984 4.74333,1.824805 1.39159,1.391592 2.29134,3.241791 2.29134,5.20986 0,1.96797 -0.89975,3.818266 -2.29134,5.209769 z"
       id="path2-36-912-3-3-35-3-7"
       style="fill:#d6dbf1;fill-opacity:1;stroke-width:0.025"
       sodipodi:nodetypes="cscscscsccscscscsc" />
    <rect
       style="fill:#4e5a7e;fill-opacity:0.5;stroke:none;stroke-width:0.35"
       id="center-3-35-6-9"
       width="14"
       height="14"
       x="68"
       y="-82"
       ry="6.9999886" />
    <path
       d="m 77.097,-71.745316 v -6.509368 c 0.006,-1.660421 1.81053,-1.660421 1.81678,0 v 6.509368 c -0.006,1.660421 -1.81054,1.660421 -1.81678,0 z m 1.45343,-6.509368 z"
       id="path8-6-7-36-6-0-0"
       style="fill:#d6dbf1;fill-opacity:1;stroke-width:0.213275"
       sodipodi:nodetypes="cccccccccc" />
    <path
       d="m 76.98446,-74.661692 c 2.6e-4,0.13986 -0.0553,0.27404 -0.15425,0.37284 l -4.19625,3.59062 c -0.4223,0.31942 -1.57367,0.3637 -1.57405,-0.72253 v -3.35102 -2.909671 c 0,-0.4063 -0.0896,-1.187379 0.26986,-1.54821 v 0 c 0.36043,-0.36045 0.94482,-0.36045 1.30524,0 l 4.1952,4.195141 c 0.099,0.0988 0.15451,0.23298 0.15425,0.37283 z"
       id="path4-3-75-3-7-6"
       style="fill:#d6dbf1;fill-opacity:1;stroke-width:0.263676"
       sodipodi:nodetypes="ccccccssccc" />
  </g>
  <g
     id="22-22-media-seek-backward"
     transform="translate(32,64)">
    <path
       style="opacity:0.00100002;fill:#d6dbf1;fill-opacity:1"
       d="M 118,-86 H 96 v 22 h 22 z"
       id="path32" />
    <path
       d="M 112.65687,-80.656841 C 111.14588,-82.167875 109.13673,-83 107,-83 c -2.13673,0 -4.14589,0.832125 -5.65673,2.343159 C 99.83214,-79.1458 99,-77.136824 99,-74.999999 c 0,2.136824 0.83214,4.145799 2.34327,5.656839 1.51084,1.510931 3.52,2.34316 5.65673,2.34316 2.13687,0 4.14588,-0.832229 5.65687,-2.34316 1.51089,-1.511039 2.34313,-3.520015 2.34313,-5.656839 0,-2.136825 -0.83224,-4.145894 -2.34313,-5.656842 z m -0.91354,10.866612 c -1.47301,1.249469 -2.661,1.840144 -4.74333,1.824892 -2.21065,-0.01624 -3.03064,-0.431543 -4.74333,-1.825327 -1.39161,-1.391497 -2.29134,-3.241369 -2.29134,-5.209335 0,-1.968068 0.92828,-4.060281 2.29134,-5.210001 1.52919,-1.343726 2.80378,-1.809971 4.74333,-1.824662 1.96791,-0.01493 3.28506,0.612982 4.74333,1.824805 1.39159,1.39159 2.29134,3.24179 2.29134,5.209859 0,1.967967 -0.89975,3.818267 -2.29134,5.209769 z"
       id="path2-36-912-3-3-35-3-3-6"
       style="fill:#d6dbf1;fill-opacity:1;stroke-width:0.0249998"
       sodipodi:nodetypes="cscscscsccscscscsc" />
    <rect
       style="fill:#4e5a7e;fill-opacity:0.5;stroke:none;stroke-width:0.35"
       id="center-3-35-6-3"
       width="14"
       height="14"
       x="100"
       y="-82"
       ry="6.9999886" />
    <path
       d="m 106.242,-74.950528 c -2.3e-4,-0.128179 0.0507,-0.251161 0.14137,-0.341716 l 3.84483,-3.844765 c 0.79749,-0.796691 1.99371,0.399517 1.19623,1.196208 l -2.99056,2.990273 2.99056,2.99027 c 0.32941,0.330697 0.32941,0.865495 0,1.196192 v 0 c -0.33032,0.330347 -0.86591,0.330347 -1.19623,0 l -3.84483,-3.844771 c -0.0907,-0.09055 -0.14159,-0.213521 -0.14137,-0.341691 z m 4.84048,3.331968 z"
       id="path4-3-75-6-1-3"
       style="fill:#d6dbf1;fill-opacity:1;stroke-width:0.241664"
       sodipodi:nodetypes="ccccccsscccccccccccc" />
    <path
       d="m 102.25,-74.950528 c -2.3e-4,-0.128179 0.0506,-0.251162 0.14137,-0.341717 l 3.84483,-3.844764 c 0.79749,-0.797469 1.99371,0.398739 1.19623,1.196208 l -2.99056,2.990273 2.99056,2.99027 c 0.32941,0.330697 0.32941,0.865495 0,1.196192 v 0 c -0.33032,0.330347 -0.86591,0.330347 -1.19623,0 l -3.84483,-3.844771 c -0.0907,-0.09055 -0.14159,-0.213521 -0.14137,-0.341691 z m 4.32791,3.844763 z"
       id="path4-3-75-2-8-2"
       style="fill:#d6dbf1;fill-opacity:1;stroke-width:0.241664"
       sodipodi:nodetypes="ccscccsscccccccccccc" />
  </g>
  <g
     id="22-22-media-seek-forward"
     transform="translate(32,64)">
    <path
       style="opacity:0.00100002;fill:#d6dbf1;fill-opacity:1"
       d="m 128,-86 h 22 v 22 h -22 z"
       id="path27" />
    <path
       d="M 144.65688,-80.656842 C 143.14588,-82.16788 141.13672,-83 139,-83 c -2.13672,0 -4.14588,0.83212 -5.65672,2.343158 -1.51115,1.51104 -2.34328,3.520021 -2.34328,5.656841 0,2.136819 0.83213,4.145798 2.34328,5.656837 C 134.85412,-67.832226 136.86328,-67 139,-67 c 2.13688,0 4.14588,-0.832226 5.65688,-2.343164 1.51088,-1.511039 2.34312,-3.520018 2.34312,-5.656837 0,-2.13682 -0.83224,-4.145889 -2.34312,-5.656841 z m -0.91355,10.866609 c -1.47301,1.249471 -2.66101,1.840148 -4.74333,1.8249 -2.21064,-0.01619 -3.03064,-0.431542 -4.74333,-1.825333 -1.39162,-1.391503 -2.29133,-3.241362 -2.29133,-5.209335 0,-1.96807 0.92828,-4.060277 2.29133,-5.209999 1.52918,-1.343721 2.80378,-1.809967 4.74333,-1.824661 1.96792,-0.01495 3.28505,0.612981 4.74333,1.824805 1.39159,1.391586 2.29133,3.241785 2.29133,5.209855 0,1.967972 -0.89974,3.818265 -2.29133,5.209768 z"
       id="path2-36-912-3-7-0"
       style="fill:#d6dbf1;fill-opacity:1;stroke-width:0.0249999"
       sodipodi:nodetypes="cscscscsccscscscsc" />
    <rect
       style="fill:#4e5a7e;fill-opacity:0.5;stroke:none;stroke-width:0.35"
       id="center-3-35-6-6"
       width="14"
       height="14"
       x="132"
       y="-82"
       ry="6.9999886" />
    <path
       d="m 139.89265,-75.015784 c 2.2e-4,0.128176 -0.0507,0.251153 -0.14138,0.341702 l -3.84484,3.84477 c -0.79748,0.790696 -1.98693,-0.398753 -1.19621,-1.196204 l 2.99057,-2.990268 -2.99057,-2.990261 c -0.32942,-0.330698 -0.32942,-0.865506 0,-1.196204 v 0 c 0.33032,-0.330335 0.86589,-0.330335 1.19621,0 l 3.84484,3.84476 c 0.0907,0.09055 0.1416,0.213527 0.14138,0.341705 z m -0.48309,0 z"
       id="path4-3-9-2-0-1"
       style="fill:#d6dbf1;fill-opacity:1;stroke-width:0.241669"
       sodipodi:nodetypes="ccccccsscccccccccccc" />
    <path
       d="m 143.97811,-75.015784 c 2.3e-4,0.128172 -0.0506,0.251148 -0.14136,0.341702 l -3.84484,3.844771 c -0.79748,0.790702 -1.98693,-0.398757 -1.1962,-1.196205 l 2.99056,-2.990269 -2.99056,-2.99026 c -0.32943,-0.330698 -0.32943,-0.865506 0,-1.196204 v 0 c 0.33031,-0.330332 0.86588,-0.330332 1.1962,0 l 3.84484,3.844759 c 0.0907,0.09056 0.14159,0.213532 0.14136,0.341706 z m -0.48307,0 z"
       id="path4-3-2-3-6-5"
       style="fill:#d6dbf1;fill-opacity:1;stroke-width:0.241669"
       sodipodi:nodetypes="ccccccsscccccccccccc" />
  </g>
  <g
     id="22-22-media-eject"
     transform="translate(32,64)">
    <path
       style="opacity:0.00100002;fill:#d6dbf1;fill-opacity:1"
       d="m 160,-86 h 22 v 22 h -22 z"
       id="path37" />
    <path
       d="M 176.65686,-80.656842 C 175.14588,-82.167881 173.13673,-83 171,-83 c -2.13673,0 -4.14588,0.832119 -5.65672,2.343158 -1.51115,1.51104 -2.34328,3.520016 -2.34328,5.656843 0,2.136827 0.83213,4.145801 2.34328,5.656841 C 166.85412,-67.832237 168.86327,-67 171,-67 c 2.13687,0 4.14588,-0.832237 5.65686,-2.343158 1.5109,-1.51104 2.34314,-3.520014 2.34314,-5.656841 0,-2.136826 -0.83224,-4.14589 -2.34314,-5.656843 z m -0.91353,10.866612 c -1.47301,1.249472 -2.661,1.840144 -4.74333,1.82489 -2.21064,-0.01628 -3.03064,-0.43154 -4.74332,-1.825319 -1.39163,-1.391501 -2.29134,-3.241378 -2.29134,-5.209339 0,-1.968076 0.92827,-4.06028 2.29134,-5.210001 1.52917,-1.343721 2.80376,-1.809967 4.74332,-1.824659 1.96791,-0.01497 3.28506,0.612979 4.74333,1.824805 1.39159,1.391582 2.29133,3.241779 2.29133,5.209855 0,1.967961 -0.89974,3.818272 -2.29133,5.209768 z"
       id="path2-36-912-3-3-35-3-75-2"
       style="fill:#d6dbf1;fill-opacity:1;stroke-width:0.0249999"
       sodipodi:nodetypes="cscscscsccscscscsc" />
    <rect
       style="fill:#4e5a7e;fill-opacity:0.5;stroke:none;stroke-width:0.35"
       id="center-3-35-6-1"
       width="14"
       height="14"
       x="164"
       y="-82"
       ry="6.9999881" />
    <path
       d="m 167.72382,-72.5 h 6.65587 c 1.69843,0.0059 1.69843,1.851748 0,1.857675 h -6.65587 c -1.69843,-0.0059 -1.69843,-1.851748 0,-1.857675 z m 6.65587,0.371527 z"
       id="path8-6-7-36-2-9-5"
       style="fill:#d6dbf1;fill-opacity:1;stroke-width:0.218075"
       sodipodi:nodetypes="cccccccccc" />
    <path
       d="m 171.31386,-79.399999 c 0.13986,-2.51e-4 0.27404,0.05531 0.37284,0.154258 l 3.59062,4.19625 c 0.31942,0.422295 0.3637,1.573667 -0.72253,1.574046 h -3.35102 -2.90967 c -0.4063,0 -1.18738,0.08957 -1.54821,-0.269861 v 0 c -0.36045,-0.360428 -0.36045,-0.944814 0,-1.305243 l 4.19514,-4.195192 c 0.0988,-0.09899 0.23298,-0.154509 0.37283,-0.154258 z"
       id="path4-3-75-3-7-3-4"
       style="fill:#d6dbf1;fill-opacity:1;stroke-width:0.263676"
       sodipodi:nodetypes="ccccccssccc" />
  </g>
  <g
     id="22-22-media-record"
     transform="translate(32,64)">
    <path
       style="opacity:0.00100002"
       d="m 192,-86 h 22 v 22 h -22 z"
       id="path42" />
    <path
       d="M 208.65688,-80.656844 C 207.14587,-82.167881 205.13672,-83 203,-83 c -2.13672,0 -4.14588,0.832119 -5.65672,2.343156 C 195.83213,-79.145805 195,-77.136827 195,-75 c 0,2.136827 0.83213,4.145804 2.34328,5.656844 C 198.85412,-67.83224 200.86328,-67 203,-67 c 2.13688,0 4.14587,-0.83224 5.65688,-2.343156 C 210.16776,-70.854196 211,-72.863173 211,-75 c 0,-2.136827 -0.83224,-4.145889 -2.34312,-5.656844 z m -0.91356,10.866614 c -1.473,1.249474 -2.661,1.840143 -4.74332,1.824887 -2.21064,-0.01627 -3.03064,-0.431537 -4.74332,-1.825314 -1.39163,-1.391503 -2.29134,-3.241384 -2.29134,-5.209343 0,-1.96808 0.92828,-4.060277 2.29134,-5.21 1.52917,-1.343719 2.80376,-1.809964 4.74332,-1.824657 1.96792,-0.01499 3.28504,0.612977 4.74332,1.824805 1.3916,1.39158 2.29134,3.241772 2.29134,5.209852 0,1.967959 -0.89974,3.818275 -2.29134,5.20977 z"
       id="path2-36-912-3-3-6-6"
       style="fill:#da4453;fill-opacity:1;stroke-width:0.0249998"
       sodipodi:nodetypes="cscscscsccscscscsc" />
    <rect
       style="fill:#4e5a7e;fill-opacity:0.5;stroke:none;stroke-width:0.349999"
       id="center-3-35-6-29"
       width="14"
       height="14"
       x="196"
       y="-82"
       ry="6.9999886" />
    <circle
       r="4"
       cy="-75"
       cx="203"
       id="path904-8-7"
       style="fill:#da4453;fill-opacity:1;stroke:none;stroke-width:3.2;stroke-linecap:round;stroke-linejoin:round;stroke-miterlimit:4;stroke-dasharray:none;stroke-opacity:1;paint-order:stroke fill markers" />
  </g>
  <g
     id="22-22-media-playback-stopped"
     transform="translate(32,64)">
    <path
       style="opacity:0.00100002;fill:#d6dbf1;fill-opacity:1"
       d="M 0,0 H 22 V 22 H 0 Z"
       id="path52" />
    <path
       d="M 16.65688,5.343156 C 15.14587,3.832119 13.13672,3 11,3 8.86328,3 6.85412,3.832119 5.34328,5.343156 3.83213,6.854195 3,8.863173 3,11 3,13.136827 3.83213,15.145804 5.34328,16.656844 6.85412,18.16776 8.86328,19 11,19 13.13688,19 15.14587,18.16776 16.65688,16.656844 18.16776,15.145804 19,13.136827 19,11 19,8.863173 18.16776,6.854111 16.65688,5.343156 Z M 15.74332,16.20977 C 14.27032,17.459244 13.08232,18.049913 11,18.034657 8.78936,18.018387 7.96936,17.60312 6.25668,16.209343 4.86505,14.81784 3.96534,12.967959 3.96534,11 3.96534,9.03192 4.89362,6.939723 6.25668,5.79 7.78585,4.446281 9.06044,3.980036 11,3.965343 c 1.96792,-0.01499 3.28504,0.612977 4.74332,1.824805 1.3916,1.39158 2.29134,3.241772 2.29134,5.209852 0,1.967959 -0.89974,3.818275 -2.29134,5.20977 z"
       id="path2-36-912-3-3-6-2"
       style="fill:#d6dbf1;fill-opacity:1;stroke-width:0.0249998"
       sodipodi:nodetypes="cscscscsccscscscsc" />
    <rect
       style="fill:#4e5a7e;fill-opacity:0.5;stroke:none;stroke-width:0.35"
       id="center-3-35-6-2-5"
       width="14"
       height="14"
       x="4"
       y="4"
       ry="6.9999886" />
    <path
       d="M 13.84444,14.761128 H 8.06666 C 7.58801,14.761123 7.19999,14.373093 7.2,13.894442 V 8.116678 C 7.19999,7.63803 7.58801,7.250005 8.06666,7.25 h 5.77778 c 0.47865,-10e-6 0.86669,0.38802 0.86668,0.866678 v 5.777764 c 1e-5,0.478661 -0.38802,0.866696 -0.86668,0.866686 z m 0.2889,-6.64445 z"
       id="path8-3-3-4"
       style="fill:#d6dbf1;fill-opacity:1;stroke-width:0.28888"
       sodipodi:nodetypes="cccccccccccccccccc" />
  </g>
</svg>
