<?xml version="1.0" encoding="UTF-8" standalone="no"?>
<svg
   width="32"
   height="32"
   x="0"
   y="0"
   version="1.1"
   id="svg18"
   sodipodi:docname="mellowplayer.svg"
   inkscape:version="1.2.1 (9c6d41e410, 2022-07-14)"
   xmlns:inkscape="http://www.inkscape.org/namespaces/inkscape"
   xmlns:sodipodi="http://sodipodi.sourceforge.net/DTD/sodipodi-0.dtd"
   xmlns="http://www.w3.org/2000/svg"
   xmlns:svg="http://www.w3.org/2000/svg">
  <style
     id="current-color-scheme"
     type="text/css">.ColorScheme-Text { color:#d6dbf1; }
</style>
  <sodipodi:namedview
     id="namedview20"
     pagecolor="#ffffff"
     bordercolor="#000000"
     borderopacity="1"
     inkscape:showpageshadow="2"
     inkscape:pageopacity="0"
     inkscape:pagecheckerboard="0"
     inkscape:deskcolor="#cccccc"
     showgrid="false"
     inkscape:zoom="10.429825"
     inkscape:cx="28.188392"
     inkscape:cy="21.141294"
     inkscape:window-width="1920"
     inkscape:window-height="1008"
     inkscape:window-x="0"
     inkscape:window-y="0"
     inkscape:window-maximized="1"
     inkscape:current-layer="svg18">
    <inkscape:grid
       type="xygrid"
       id="grid373"
       originx="0"
       originy="0" />
  </sodipodi:namedview>
  <defs
     id="987">
    <style
       type="text/css"
       id="style4" />
  </defs>
  <g
     id="mellowplayer">
    <rect
       style="opacity:0.00100002;fill:#d1d5e9;fill-opacity:1"
       width="32"
       height="32"
       x="0"
       y="0"
       id="rect11" />
    <path
       style="color:#d5c289;fill:#d6dbf1;fill-opacity:1;stroke-width:1.5"
       class="ColorScheme-Text"
       d="M 16,4 C 9.364,4 4,9.364 4,15.999999 4,22.636 9.364,28 16,28 22.636,28 28,22.636 28,15.999999 28,9.364 22.636,4 16,4 Z m 0,1.5 c 5.80498,0 10.5,4.695 10.5,10.499999 C 26.5,21.80498 21.80498,26.5 16,26.5 10.19498,26.5 5.5,21.80498 5.5,15.999999 5.5,10.195 10.19498,5.5 16,5.5 Z m 1.12498,8.578497 v 0 0 0 0 0 c 0,0 -0.05091,0.012 0,0 z m -1.171491,6.750005 z"
       id="path58"
       sodipodi:nodetypes="ssssssssssccccccccccccccccc" />
    <rect
       style="fill:#4e5a7e;fill-opacity:0.5;stroke:none;stroke-width:0.525"
       id="center-3-35"
       width="21"
       height="21"
       x="5.4560008"
       y="5.506"
       ry="10.499983" />
    <circle
       style="fill:#d6dbf1;fill-opacity:0.6;stroke-width:0.172712"
       cx="18.73311"
       cy="11.236109"
       r="2.936111"
       id="circle1104-3" />
    <circle
       style="fill:#d6dbf1;fill-opacity:0.6;stroke-width:0.256603"
       cx="11.712227"
       cy="15.750227"
       r="4.362227"
       id="circle1104-6-5" />
    <circle
       style="fill:#d6dbf1;fill-opacity:0.6;stroke-width:0.229458"
       cx="18.233833"
       cy="19.598835"
       r="3.9008341"
       id="circle1104-7-6" />
    <path
       style="fill:#d6dbf1;fill-opacity:1;stroke-width:0.325066"
       d="m 12.227198,9.0998837 c 0.223553,-0.110236 0.438321,0.065809 0.438321,0.065809 l 5.128844,2.9898623 4.958967,2.893771 c 0,0 0.31403,0.15104 0.31403,0.512023 0,0.361964 -0.316627,0.479774 -0.316627,0.479774 l -4.967759,2.893768 -5.244356,3.054687 c 0,0 -0.152953,0.133929 -0.350152,0.04802 -0.225181,-0.09872 -0.166607,-0.349795 -0.166607,-0.349795 v -6.14256 -6.0435576 c 3.25e-4,0 -0.02481,-0.288259 0.205339,-0.4017859 z"
       id="path1120-5-2" />
  </g>
  <g
     id="22-22-mellowplayer"
     transform="translate(32,10)">
    <rect
       style="opacity:0.00100002;fill:#d1d5e9;fill-opacity:1"
       width="22"
       height="22"
       x="0"
       y="0"
       id="rect4" />
    <path
       style="color:#d5c289;fill:#d6dbf1;fill-opacity:1;stroke-width:1"
       class="ColorScheme-Text"
       d="M 11,3 C 6.5760001,3 3,6.576 3,10.999999 3,15.424 6.5760001,19 11,19 15.424001,19 19,15.424 19,10.999999 19,6.576 15.424001,3 11,3 Z m 0,1 c 3.869988,0 7,3.13 7,6.999999 C 18,14.869987 14.869988,18 11,18 7.1299871,18 4,14.869987 4,10.999999 4,7.13 7.1299871,4 11,4 Z m 0.749988,5.718998 v 0 0 0 0 0 c 0,0 -0.03394,0.008 0,0 z m -0.780995,4.500003 z"
       id="path58-3"
       sodipodi:nodetypes="ssssssssssccccccccccccccccc" />
    <rect
       style="fill:#4e5a7e;fill-opacity:0.5;stroke:none;stroke-width:0.35"
       id="center-3-35-6"
       width="14"
       height="14"
       x="3.9706664"
       y="4.0040002"
       ry="6.9999886" />
    <ellipse
       style="fill:#d6dbf1;fill-opacity:0.6;stroke-width:0.115141"
       cx="12.822074"
       cy="7.8240724"
       id="circle1104-3-7"
       rx="1.9574075"
       ry="1.9574074" />
    <circle
       style="fill:#d6dbf1;fill-opacity:0.6;stroke-width:0.171069"
       cx="8.1414833"
       cy="10.833483"
       r="2.9081514"
       id="circle1104-6-5-5" />
    <circle
       style="fill:#d6dbf1;fill-opacity:0.6;stroke-width:0.152972"
       cx="12.489225"
       cy="13.399222"
       r="2.6005561"
       id="circle1104-7-6-3" />
    <path
       style="fill:#d6dbf1;fill-opacity:1;stroke-width:0.216711"
       d="m 8.4847992,6.399923 c 0.149035,-0.07349 0.292214,0.04387 0.292214,0.04387 l 3.4192298,1.993241 3.305978,1.929181 c 0,0 0.209353,0.100693 0.209353,0.341349 0,0.241309 -0.211084,0.319849 -0.211084,0.319849 l -3.31184,1.929179 -3.4962378,2.036458 c 0,0 -0.101969,0.08929 -0.233435,0.03201 -0.15012,-0.06581 -0.111071,-0.233197 -0.111071,-0.233197 v -4.09504 -4.029038 c 2.17e-4,0 -0.01654,-0.192173 0.136893,-0.267857 z"
       id="path1120-5-2-5" />
  </g>
</svg>
