<?xml version="1.0" encoding="UTF-8" standalone="no"?>
<svg
   version="1.1"
   viewBox="0 0 32 16"
   id="svg11"
   sodipodi:docname="mobile.svg"
   inkscape:version="1.1.1 (3bf5ae0d25, 2021-09-20)"
   xmlns:inkscape="http://www.inkscape.org/namespaces/inkscape"
   xmlns:sodipodi="http://sodipodi.sourceforge.net/DTD/sodipodi-0.dtd"
   xmlns="http://www.w3.org/2000/svg"
   xmlns:svg="http://www.w3.org/2000/svg"
   xmlns:rdf="http://www.w3.org/1999/02/22-rdf-syntax-ns#"
   xmlns:cc="http://creativecommons.org/ns#"
   xmlns:dc="http://purl.org/dc/elements/1.1/">
  <metadata
     id="metadata15">
    <rdf:RDF>
      <cc:Work
         rdf:about="">
        <dc:format>image/svg+xml</dc:format>
        <dc:type
           rdf:resource="http://purl.org/dc/dcmitype/StillImage" />
      </cc:Work>
    </rdf:RDF>
  </metadata>
  <sodipodi:namedview
     pagecolor="#ffffff"
     bordercolor="#000000"
     borderopacity="1"
     objecttolerance="10"
     gridtolerance="10"
     guidetolerance="10"
     inkscape:pageopacity="0"
     inkscape:pageshadow="2"
     inkscape:window-width="1920"
     inkscape:window-height="1007"
     id="namedview13"
     showgrid="false"
     inkscape:zoom="12.109204"
     inkscape:cx="20.728034"
     inkscape:cy="2.3535816"
     inkscape:window-x="0"
     inkscape:window-y="0"
     inkscape:window-maximized="1"
     inkscape:current-layer="svg11"
     inkscape:document-rotation="0"
     inkscape:pagecheckerboard="0"
     inkscape:showpageshadow="false" />
  <defs
     id="defs3">
    <style
       id="current-color-scheme"
       type="text/css" />
  </defs>
  <g
     id="mobile-task-switcher">
    <path
       class="ColorScheme-Text"
       d="M 4.0856493,2 C 2.9312397,2 2.0022053,2.9290344 2.0022053,4.083444 v 7.835624 c 0,1.154408 0.9290344,2.083444 2.083444,2.083444 h 7.8356237 c 1.154409,0 2.083444,-0.929036 2.083444,-2.083444 V 4.083444 C 14.004717,2.9290344 13.075682,2 11.921273,2 Z m 0.2441896,1.2473308 h 7.3589621 c 0.59397,0 1.071513,0.4785203 1.071513,1.0724905 v 7.3706817 c 0,0.593971 -0.477543,1.072491 -1.071513,1.072491 H 4.3298404 c -0.5939694,0 -1.0724897,-0.47852 -1.0724897,-1.072491 V 4.3198213 c 0,-0.5939702 0.4785203,-1.0724905 1.0724882,-1.0724905 z"
       stroke-opacity="0"
       stroke-width="0.500106"
       id="path5"
       style="fill:#d6dbf1;fill-opacity:1" />
    <rect
       style="fill:#4e5a7e;fill-opacity:0.501961;stroke:none;stroke-width:0.556308"
       id="center-3-35"
       width="9.532608"
       height="9.54879"
       x="3.2505617"
       y="3.235445"
       ry="1.0748117"
       rx="1.1760297" />
  </g>
  <g
     id="mobile-close-app">
    <path
       inkscape:connector-curvature="0"
       id="fill"
       d="M 19.984201,2 C 19.322801,2 18,3.333332 18,4.000004 c 5.091265,2.839897 4.767037,5.521436 0.261184,7.999992 0,0.722052 1.061617,2.000004 1.723017,2.000004 2.982635,-5.37787 5.544135,-4.0359282 7.936805,0 0.6614,0 1.984202,-1.333332 1.984202,-2.000004 -4.458132,-2.551716 -4.889535,-5.207261 0,-7.999992 C 29.905208,3.333332 28.582406,2 27.921006,2 25.381123,6.941118 22.752055,7.713849 19.984201,2 Z"
       style="color:#1e92ff;fill:#62709d;fill-opacity:0.501961;fill-rule:nonzero;stroke:none;stroke-width:2.01162"
       class="ColorScheme-ButtonFocus"
       sodipodi:nodetypes="ccccccccc" />
    <path
       d="m 29.505392,11.169167 -3.107106,-3.13285 3.10698,-3.132862 h 1.26e-4 c 0.31677,-0.321453 0.494604,-0.756117 0.494604,-1.20926 0,-0.453016 -0.177822,-0.887796 -0.494604,-1.209133 C 29.182544,2.1737 28.752998,2 28.306253,2 27.859499,2 27.429957,2.173677 27.106973,2.485062 l -3.106978,3.13299 -3.10698,-3.13299 C 20.570039,2.1737 20.140491,2 19.693746,2 c -0.446753,0 -0.876295,0.173677 -1.199144,0.485062 -0.316775,0.321325 -0.494601,0.756117 -0.494601,1.209133 0,0.453143 0.177811,0.887807 0.494601,1.20926 l 3.107104,3.132862 -3.107104,3.13285 c -0.374984,0.441559 -0.5027,1.04465 -0.339189,1.602043 0.163518,0.557394 0.595975,0.993458 1.148764,1.158338 0.552789,0.164868 1.150907,0.03617 1.588806,-0.342011 l 3.10698,-3.13299 3.10698,3.132851 v 1.27e-4 c 0.437903,0.378107 1.036016,0.506891 1.588809,0.342023 0.55278,-0.16488 0.985242,-0.600944 1.14876,-1.158338 0.163518,-0.557393 0.03588,-1.160496 -0.33918,-1.602043 z m -0.80517,1.612274 c -0.105924,0.104764 -0.248436,0.163457 -0.396884,0.163457 -0.148325,0 -0.290833,-0.05868 -0.396889,-0.163457 L 24.402523,9.248319 C 24.296217,9.141806 24.152571,9.082051 24.00272,9.082051 c -0.14972,0 -0.29349,0.05974 -0.39967,0.166268 l -3.509442,3.533122 c -0.106305,0.106397 -0.249945,0.166269 -0.399797,0.166269 -0.149719,0 -0.293488,-0.05984 -0.39967,-0.166269 -0.10391,-0.106863 -0.162122,-0.25051 -0.162122,-0.400201 0,-0.149679 0.05824,-0.293373 0.162122,-0.400179 L 22.798067,8.44794 c 0.10568,-0.107214 0.164907,-0.252027 0.164907,-0.40313 0,-0.150962 -0.05924,-0.295939 -0.164907,-0.403002 L 19.294141,4.097266 C 19.188589,3.990052 19.129235,3.845239 19.129235,3.694137 c 0,-0.150974 0.05938,-0.29594 0.164906,-0.403002 0.105923,-0.104763 0.24843,-0.16348 0.396882,-0.16348 0.148456,0 0.290962,0.05868 0.396885,0.16348 l 3.503935,3.53311 c 0.106305,0.106513 0.249943,0.16628 0.399795,0.16628 0.14972,0 0.293489,-0.05974 0.399671,-0.16628 l 3.515273,-3.53311 c 0.106304,-0.106397 0.249948,-0.16628 0.3998,-0.16628 0.149723,0 0.29349,0.05984 0.399672,0.16628 0.103896,0.106747 0.16212,0.250499 0.16212,0.400189 0,0.14968 -0.0582,0.293374 -0.16212,0.40019 l -3.503932,3.53311 c -0.105668,0.107214 -0.1649,0.252028 -0.1649,0.40313 0,0.150974 0.05924,0.295927 0.1649,0.403002 l 3.503932,3.533109 v 1.29e-4 c 0.10833,0.108264 0.168828,0.256111 0.167814,0.409896 -0.0018,0.153902 -0.06367,0.300781 -0.173514,0.40761 z"
       id="path2-3"
       style="fill:#d6dbf1;fill-opacity:1;stroke-width:0.0325334" />
  </g>
</svg>
