<?xml version="1.0" encoding="UTF-8" standalone="no"?>
<svg
   width="32"
   height="32"
   viewBox="0 0 8.4666662 8.4666666"
   version="1.1"
   id="svg830"
   inkscape:version="1.1.1 (3bf5ae0d25, 2021-09-20)"
   sodipodi:docname="notifications.svg"
   xmlns:inkscape="http://www.inkscape.org/namespaces/inkscape"
   xmlns:sodipodi="http://sodipodi.sourceforge.net/DTD/sodipodi-0.dtd"
   xmlns="http://www.w3.org/2000/svg"
   xmlns:svg="http://www.w3.org/2000/svg"
   xmlns:rdf="http://www.w3.org/1999/02/22-rdf-syntax-ns#"
   xmlns:cc="http://creativecommons.org/ns#"
   xmlns:dc="http://purl.org/dc/elements/1.1/">
  <defs
     id="defs824" />
  <sodipodi:namedview
     id="base"
     pagecolor="#ffffff"
     bordercolor="#000000"
     borderopacity="1"
     inkscape:pageopacity="0.0"
     inkscape:pageshadow="2"
     inkscape:zoom="5.6568542"
     inkscape:cx="16.086679"
     inkscape:cy="47.64132"
     inkscape:document-units="px"
     inkscape:current-layer="layer1"
     showgrid="false"
     units="px"
     inkscape:snap-intersection-paths="true"
     inkscape:object-paths="true"
     inkscape:snap-smooth-nodes="true"
     inkscape:object-nodes="true"
     inkscape:window-width="1920"
     inkscape:window-height="1007"
     inkscape:window-x="0"
     inkscape:window-y="0"
     inkscape:window-maximized="1"
     inkscape:snap-global="true"
     showguides="true"
     inkscape:document-rotation="0"
     inkscape:lockguides="true"
     inkscape:pagecheckerboard="0"
     inkscape:showpageshadow="false">
    <inkscape:grid
       type="xygrid"
       id="grid1375"
       originx="-2.1166656"
       originy="16.945741" />
  </sodipodi:namedview>
  <metadata
     id="metadata827">
    <rdf:RDF>
      <cc:Work
         rdf:about="">
        <dc:format>image/svg+xml</dc:format>
        <dc:type
           rdf:resource="http://purl.org/dc/dcmitype/StillImage" />
      </cc:Work>
    </rdf:RDF>
  </metadata>
  <style
     type="text/css"
     id="current-color-scheme" />
  <g
     inkscape:label="Layer 1"
     inkscape:groupmode="layer"
     id="layer1"
     transform="translate(-2.1166668,-274.2334)">
    <g
       id="22-22-notifications-disabled">
      <rect
         ry="1.2988282e-06"
         y="291.17917"
         x="2.0799481e-08"
         height="5.8208332"
         width="5.8208332"
         id="rect1383"
         style="opacity:0.003;fill:#ff1f1f;fill-opacity:1;stroke:none;stroke-width:0.10795;stroke-miterlimit:4;stroke-dasharray:none;stroke-opacity:1" />
      <path
         inkscape:connector-curvature="0"
         id="fill-67-3-3"
         d="m 1.8520845,293.29581 v 0.52916 l -0.582064,1.69013 h 1.763889 1.5875 l -0.6526584,-1.69013 5e-7,-0.52916 -1.0583333,-1.32292 z"
         style="color:#1e92ff;fill:#4e5a7e;fill-opacity:0.501961;fill-rule:nonzero;stroke:none;stroke-width:0.202078"
         class="ColorScheme-ButtonFocus"
         sodipodi:nodetypes="ccccccccc" />
      <path
         d="m 1.520171,295.72997 h 0.764886 c 0.07697,0.27901 0.331932,0.47625 0.62538,0.47625 0.293448,0 0.548409,-0.20204 0.625378,-0.47625 h 0.764887 c 0.226099,0 0.408901,-0.1828 0.408901,-0.4089 0,-0.1347 -0.06735,-0.26459 -0.182802,-0.34155 -0.110645,-0.077 -0.293448,-0.32712 -0.293448,-1.16898 0,-0.80818 -0.47625,-1.14974 -0.846666,-1.29406 0.0048,-0.0241 0.0048,-0.0433 0.0048,-0.0625 0,-0.26459 -0.216477,-0.48106 -0.48106,-0.48106 -0.264584,0 -0.48106,0.21647 -0.48106,0.48106 0,0.0193 0,0.0433 0.0048,0.0625 -0.370417,0.14432 -0.846667,0.48588 -0.846667,1.29406 0,0.84186 -0.182802,1.092 -0.293447,1.16898 -0.115454,0.077 -0.182803,0.20685 -0.182803,0.34155 0,0.2261 0.182803,0.4089 0.408901,0.4089 z m 1.390266,0.18761 c -0.134698,0 -0.254963,-0.077 -0.3175,-0.18761 h 0.63019 c -0.05773,0.11065 -0.177992,0.18761 -0.31269,0.18761 z m 0,-3.65606 c 0.101023,0 0.177992,0.077 0.192424,0.17318 -0.14913,-0.0241 -0.283826,-0.0144 -0.380038,0 0.0096,-0.0962 0.08659,-0.17318 0.187614,-0.17318 z m -1.034281,1.54902 c 0,-0.69754 0.432955,-0.96694 0.79375,-1.06796 l 0.0096,-0.005 c 0,0 0.101023,-0.0337 0.240531,-0.0337 0.07216,0 0.15394,0.01 0.235719,0.0337 h 0.0048 c 0.360796,0.10102 0.79375,0.37041 0.79375,1.06795 0,0.50993 0.06735,0.89477 0.197236,1.14493 H 1.674081 c 0.134696,-0.24534 0.202045,-0.6302 0.202045,-1.14012 z M 1.42396,295.2441 h 2.968143 c 0.01924,0.0241 0.02887,0.0481 0.02887,0.077 0,0.0674 -0.05291,0.12027 -0.120266,0.12027 H 1.520176 c -0.06735,0 -0.120265,-0.0529 -0.120265,-0.12027 0,-0.0289 0.0096,-0.0529 0.024049,-0.077 z"
         id="path4-7-5-6-5"
         style="fill:#da4453;fill-opacity:1;stroke-width:0.048106" />
    </g>
    <g
       id="notifications">
      <rect
         ry="1.2988289e-06"
         y="282.71249"
         x="2.1166666"
         height="8.4666662"
         width="8.4666662"
         id="rect891-7"
         style="opacity:0.003;fill:#050505;fill-opacity:1;stroke:none;stroke-width:0.10795;stroke-miterlimit:4;stroke-dasharray:none;stroke-opacity:1" />
      <path
         inkscape:connector-curvature="0"
         id="fill-67-3"
         d="m 4.762501,285.62289 v 1.05833 l -0.7937499,2.38125 H 6.350001 8.7312509 l -0.79375,-2.38125 1e-7,-1.05833 -1.5874999,-1.5875 z"
         style="color:#1e92ff;fill:#4e5a7e;fill-opacity:0.501961;fill-rule:nonzero;stroke:none;stroke-width:0.303117"
         class="ColorScheme-ButtonFocus"
         sodipodi:nodetypes="ccccccccc" />
      <path
         d="m 4.2646319,289.40644 h 1.147329 c 0.115456,0.41852 0.497898,0.71438 0.938069,0.71438 0.440172,0 0.822614,-0.30307 0.938067,-0.71438 h 1.147331 c 0.339149,0 0.613352,-0.2742 0.613352,-0.61335 0,-0.20205 -0.101023,-0.39688 -0.274203,-0.51233 -0.165968,-0.11546 -0.440172,-0.49068 -0.440172,-1.75347 0,-1.21227 -0.714375,-1.7246 -1.27,-1.94108 0.0072,-0.0361 0.0072,-0.0649 0.0072,-0.0938 0,-0.39688 -0.324715,-0.72159 -0.72159,-0.72159 -0.396875,0 -0.72159,0.32471 -0.72159,0.72159 0,0.0289 0,0.0649 0.0072,0.0938 -0.555625,0.21648 -1.27,0.72881 -1.27,1.94108 0,1.26279 -0.274203,1.63801 -0.440171,1.75347 -0.173181,0.11545 -0.274204,0.31028 -0.274204,0.51233 0,0.33915 0.274204,0.61335 0.613352,0.61335 z m 2.085398,0.28142 c -0.202046,0 -0.382444,-0.11545 -0.47625,-0.28142 h 0.945285 c -0.08659,0.16597 -0.266988,0.28142 -0.469035,0.28142 z m 0,-5.48409 c 0.151535,0 0.266989,0.11546 0.288637,0.25977 -0.223695,-0.0361 -0.425739,-0.0216 -0.570058,0 0.01442,-0.14431 0.129886,-0.25977 0.281421,-0.25977 z m -1.551421,2.32352 c 0,-1.0463 0.649433,-1.4504 1.190625,-1.60193 l 0.01442,-0.007 c 0,0 0.151534,-0.0505 0.360796,-0.0505 0.108238,0 0.23091,0.0144 0.353579,0.0505 h 0.0072 c 0.541194,0.15153 1.190625,0.55562 1.190625,1.60193 0,0.76489 0.101023,1.34216 0.295854,1.71739 h -3.716192 c 0.202044,-0.36801 0.303067,-0.94529 0.303067,-1.71017 z m -0.678294,2.15034 h 4.452215 c 0.02886,0.0361 0.0433,0.0722 0.0433,0.11546 0,0.10102 -0.07937,0.1804 -0.180399,0.1804 h -4.170796 c -0.101023,0 -0.180398,-0.0794 -0.180398,-0.1804 0,-0.0433 0.01442,-0.0794 0.03608,-0.11546 z"
         id="path4-7-5-6"
         style="fill:#d6dbf1;fill-opacity:1;stroke-width:0.072159" />
    </g>
    <g
       id="notifications-disabled">
      <rect
         ry="1.2988289e-06"
         y="274.2334"
         x="2.1166668"
         height="8.4666662"
         width="8.4666662"
         id="rect891-7-2"
         style="opacity:0.003;fill:#050505;fill-opacity:1;stroke:none;stroke-width:0.10795;stroke-miterlimit:4;stroke-dasharray:none;stroke-opacity:1" />
      <path
         inkscape:connector-curvature="0"
         id="fill-67"
         d="m 4.762501,277.15622 v 1.05834 l -0.7937499,2.38125 H 6.350001 8.7312509 l -0.79375,-2.38125 v -1.05834 l -1.5874999,-1.5875 z"
         style="color:#1e92ff;fill:#4e5a7e;fill-opacity:0.501961;fill-rule:nonzero;stroke:none;stroke-width:0.303117"
         class="ColorScheme-ButtonFocus"
         sodipodi:nodetypes="ccccccccc" />
      <path
         d="m 4.2646321,280.92735 h 1.147329 c 0.115456,0.41852 0.497898,0.71437 0.938069,0.71437 0.440172,0 0.822614,-0.30306 0.938067,-0.71437 h 1.147331 c 0.339149,0 0.613352,-0.2742 0.613352,-0.61335 0,-0.20205 -0.101023,-0.39688 -0.274203,-0.51233 -0.165968,-0.11546 -0.440172,-0.49068 -0.440172,-1.75347 0,-1.21227 -0.714375,-1.7246 -1.27,-1.94108 0.0072,-0.0361 0.0072,-0.0649 0.0072,-0.0938 0,-0.39687 -0.324715,-0.72159 -0.72159,-0.72159 -0.396875,0 -0.72159,0.32472 -0.72159,0.72159 0,0.0289 0,0.0649 0.0072,0.0938 -0.555625,0.21648 -1.27,0.72881 -1.27,1.94108 0,1.26279 -0.274203,1.63801 -0.440171,1.75347 -0.173181,0.11545 -0.274204,0.31028 -0.274204,0.51233 0,0.33915 0.274204,0.61335 0.613352,0.61335 z m 2.085398,0.28142 c -0.202046,0 -0.382444,-0.11546 -0.47625,-0.28142 h 0.945285 c -0.08659,0.16596 -0.266988,0.28142 -0.469035,0.28142 z m 0,-5.48409 c 0.151535,0 0.266989,0.11545 0.288637,0.25977 -0.223695,-0.0361 -0.425739,-0.0216 -0.570058,0 0.01442,-0.14432 0.129886,-0.25977 0.281421,-0.25977 z m -1.551421,2.32352 c 0,-1.0463 0.649433,-1.4504 1.190625,-1.60193 l 0.01442,-0.007 c 0,0 0.151534,-0.0505 0.360796,-0.0505 0.108238,0 0.23091,0.0144 0.353579,0.0505 h 0.0072 c 0.541194,0.15153 1.190625,0.55562 1.190625,1.60193 0,0.76489 0.101023,1.34216 0.295854,1.71739 h -3.716192 c 0.202044,-0.36801 0.303067,-0.94529 0.303067,-1.71017 z m -0.678294,2.15034 h 4.452215 c 0.02886,0.0361 0.0433,0.0722 0.0433,0.11546 0,0.10102 -0.07937,0.1804 -0.180399,0.1804 h -4.170796 c -0.101023,0 -0.180398,-0.0794 -0.180398,-0.1804 0,-0.0433 0.01442,-0.0794 0.03608,-0.11546 z"
         id="path4-7-5"
         style="fill:#da4453;fill-opacity:1;stroke-width:0.072159" />
    </g>
    <g
       id="22-22-notifications">
      <rect
         ry="1.2988282e-06"
         y="297.00232"
         x="-0.016250806"
         height="5.8208332"
         width="5.8208332"
         id="rect1383-2"
         style="opacity:0.003;fill:#ff1f1f;fill-opacity:1;stroke:none;stroke-width:0.10795;stroke-miterlimit:4;stroke-dasharray:none;stroke-opacity:1" />
      <path
         inkscape:connector-curvature="0"
         id="fill-67-7"
         d="m 1.8520845,299.11664 v 0.52917 l -0.598315,1.69244 h 1.6579702 1.6934239 l -0.6364125,-1.69244 3e-7,-0.52917 -1.0583333,-1.32292 z"
         style="color:#1e92ff;fill:#4e5a7e;fill-opacity:0.501961;fill-rule:nonzero;stroke:none;stroke-width:0.202078"
         class="ColorScheme-ButtonFocus"
         sodipodi:nodetypes="ccccccccc" />
      <path
         d="m 1.5039212,301.55313 h 0.764887 c 0.07697,0.27901 0.3319331,0.47624 0.6253801,0.47624 0.293449,0 0.548411,-0.20204 0.625379,-0.47624 h 0.764889 c 0.2261,0 0.408902,-0.1828 0.408902,-0.4089 0,-0.13471 -0.06735,-0.26459 -0.182802,-0.34156 -0.110646,-0.077 -0.293449,-0.32712 -0.293449,-1.16898 0,-0.80818 -0.476251,-1.14974 -0.846668,-1.29406 0.0048,-0.0241 0.0048,-0.0433 0.0048,-0.0625 0,-0.26458 -0.216477,-0.48106 -0.481061,-0.48106 -0.264583,0 -0.48106,0.21648 -0.48106,0.48106 0,0.0193 0,0.0433 0.0048,0.0625 -0.3704181,0.14432 -0.8466681,0.48588 -0.8466681,1.29406 0,0.84186 -0.182803,1.09201 -0.293448,1.16898 -0.115454,0.077 -0.182803,0.20685 -0.182803,0.34156 0,0.2261 0.182803,0.4089 0.408902,0.4089 z m 1.3902671,0.18761 c -0.134697,0 -0.254963,-0.077 -0.3175,-0.18761 h 0.630191 c -0.05773,0.11064 -0.177992,0.18761 -0.312691,0.18761 z m 0,-3.65607 c 0.101024,0 0.177993,0.077 0.192425,0.17318 -0.14913,-0.0241 -0.283826,-0.0144 -0.380039,0 0.0096,-0.0962 0.08659,-0.17318 0.187614,-0.17318 z m -1.0342821,1.54902 c 0,-0.69753 0.432956,-0.96694 0.7937511,-1.06796 l 0.0096,-0.005 c 0,0 0.101023,-0.0337 0.240531,-0.0337 0.07216,0 0.15394,0.01 0.235719,0.0337 h 0.0048 c 0.360797,0.10102 0.793752,0.37041 0.793752,1.06795 0,0.50993 0.06735,0.89478 0.197236,1.14493 H 1.6578302 c 0.134696,-0.24534 0.202045,-0.63019 0.202045,-1.14011 z m -0.452197,1.43356 h 2.9681481 c 0.01924,0.0241 0.02887,0.0481 0.02887,0.077 0,0.0673 -0.05291,0.12026 -0.120266,0.12026 H 1.5039262 c -0.06735,0 -0.120266,-0.0529 -0.120266,-0.12026 0,-0.0289 0.0096,-0.0529 0.024049,-0.077 z"
         id="path4-7-5-5"
         style="fill:#d6dbf1;fill-opacity:1;stroke-width:0.0481061" />
    </g>
  </g>
</svg>
