<?xml version="1.0" encoding="UTF-8" standalone="no"?>
<svg
   width="8.4666662mm"
   height="8.4666662mm"
   viewBox="0 0 31.999999 31.999998"
   version="1.1"
   id="svg881"
   inkscape:version="1.1.1 (3bf5ae0d25, 2021-09-20)"
   sodipodi:docname="notification.svg"
   xmlns:inkscape="http://www.inkscape.org/namespaces/inkscape"
   xmlns:sodipodi="http://sodipodi.sourceforge.net/DTD/sodipodi-0.dtd"
   xmlns="http://www.w3.org/2000/svg"
   xmlns:svg="http://www.w3.org/2000/svg"
   xmlns:rdf="http://www.w3.org/1999/02/22-rdf-syntax-ns#"
   xmlns:cc="http://creativecommons.org/ns#"
   xmlns:dc="http://purl.org/dc/elements/1.1/">
  <defs
     id="defs875" />
  <sodipodi:namedview
     id="base"
     pagecolor="#ffffff"
     bordercolor="#000000"
     borderopacity="1"
     inkscape:pageopacity="0.0"
     inkscape:pageshadow="2"
     inkscape:zoom="3.2778472"
     inkscape:cx="41.185568"
     inkscape:cy="14.18614"
     inkscape:document-units="px"
     inkscape:current-layer="layer1"
     showgrid="false"
     inkscape:window-width="1920"
     inkscape:window-height="1007"
     inkscape:window-x="0"
     inkscape:window-y="0"
     inkscape:window-maximized="1"
     inkscape:lockguides="true"
     inkscape:document-rotation="0"
     inkscape:pagecheckerboard="0"
     inkscape:showpageshadow="false">
    <inkscape:grid
       type="xygrid"
       id="grid866"
       originx="5.0000109"
       originy="-2.9999998e-05" />
  </sodipodi:namedview>
  <metadata
     id="metadata878">
    <rdf:RDF>
      <cc:Work
         rdf:about="">
        <dc:format>image/svg+xml</dc:format>
        <dc:type
           rdf:resource="http://purl.org/dc/dcmitype/StillImage" />
      </cc:Work>
    </rdf:RDF>
  </metadata>
  <g
     inkscape:label="Layer 1"
     inkscape:groupmode="layer"
     id="layer1"
     transform="translate(-204.82493,-686.2455)">
    <g
       id="notification-disabled">
      <path
         style="fill:none;stroke-width:1.45455"
         inkscape:connector-curvature="0"
         d="m 204.82493,641.24546 h 32 v 32 h -32 z"
         id="path25" />
      <path
         inkscape:connector-curvature="0"
         id="fill-67"
         d="m 214.82494,652.24547 -0.30007,4.08181 -3,9 h 10 9 l -3,-9 -0.69993,-4.08181 -6,-6 z"
         style="color:#1e92ff;fill:#4e5a7e;fill-opacity:0.501961;fill-rule:nonzero;stroke:none;stroke-width:1.14564"
         class="ColorScheme-ButtonFocus"
         sodipodi:nodetypes="ccccccccc" />
      <path
         d="m 212.94305,666.54546 h 4.33636 c 0.43637,1.58182 1.88182,2.7 3.54546,2.7 1.66364,0 3.10909,-1.14545 3.54545,-2.7 h 4.33637 c 1.28182,0 2.31818,-1.03636 2.31818,-2.31818 0,-0.76364 -0.38182,-1.5 -1.03636,-1.93637 -0.62728,-0.43636 -1.66364,-1.85454 -1.66364,-6.62727 0,-4.58182 -2.7,-6.51818 -4.8,-7.33636 0.0273,-0.13637 0.0273,-0.24546 0.0273,-0.35455 0,-1.5 -1.22727,-2.72727 -2.72727,-2.72727 -1.5,0 -2.72727,1.22727 -2.72727,2.72727 0,0.10909 0,0.24546 0.0273,0.35455 -2.1,0.81818 -4.8,2.75454 -4.8,7.33636 0,4.77273 -1.03636,6.19091 -1.66364,6.62727 -0.65454,0.43637 -1.03636,1.17273 -1.03636,1.93637 0,1.28182 1.03636,2.31818 2.31818,2.31818 z m 7.88182,1.06364 c -0.76364,0 -1.44546,-0.43637 -1.8,-1.06364 h 3.57273 c -0.32728,0.62727 -1.00909,1.06364 -1.77273,1.06364 z m 0,-20.72728 c 0.57273,0 1.00909,0.43637 1.09091,0.98182 -0.84546,-0.13636 -1.60909,-0.0818 -2.15455,0 0.0545,-0.54545 0.49091,-0.98182 1.06364,-0.98182 z m -5.86364,8.78182 c 0,-3.95454 2.45455,-5.48182 4.5,-6.05454 l 0.0545,-0.0273 c 0,0 0.57273,-0.19091 1.36364,-0.19091 0.40909,0 0.87273,0.0546 1.33636,0.19091 h 0.0273 c 2.04546,0.57273 4.5,2.1 4.5,6.05455 0,2.89091 0.38182,5.07273 1.11819,6.49091 h -14.04545 c 0.76363,-1.39091 1.14545,-3.57273 1.14545,-6.46364 z m -2.56363,8.12727 h 16.82727 c 0.10909,0.13637 0.16364,0.27273 0.16364,0.43637 0,0.38182 -0.3,0.68182 -0.68182,0.68182 h -15.76364 c -0.38182,0 -0.68182,-0.3 -0.68182,-0.68182 0,-0.16364 0.0545,-0.3 0.13637,-0.43637 z"
         id="path4-7-5"
         style="fill:#da4453;fill-opacity:1;stroke-width:0.272727" />
    </g>
    <g
       id="notification-progress-active"
       transform="translate(248.82493,685.24546)">
      <path
         style="fill:none"
         inkscape:connector-curvature="0"
         id="empty-rectangle"
         d="M 1,1 H 23 V 23 H 1 Z" />
      <circle
         id="circle-blue"
         cx="12"
         cy="12"
         r="8"
         class="ColorScheme-ButtonFocus"
         style="fill:#4e5a7e;fill-opacity:1" />
    </g>
    <g
       id="notification-progress-inactive"
       transform="translate(248.82493,725.24546)">
      <path
         style="fill:none"
         inkscape:connector-curvature="0"
         id="path10"
         d="M 1,1 H 23 V 23 H 1 Z" />
      <circle
         id="circle-transparent"
         cx="12"
         cy="12"
         r="8"
         class="ColorScheme-Text"
         style="opacity:0.4;fill:#4e5a7e;fill-opacity:1" />
    </g>
    <path
       inkscape:connector-curvature="0"
       id="expander-bottom"
       d="m 191.82493,709.24546 2,-2 2,2 z"
       class="ColorScheme-Text"
       style="fill:#4e5a7e;fill-opacity:1" />
    <path
       inkscape:connector-curvature="0"
       id="expander-top"
       d="m 191.82493,703.24546 2,2 2,-2 z"
       class="ColorScheme-Text"
       style="fill:#4e5a7e;fill-opacity:1" />
    <path
       inkscape:connector-curvature="0"
       id="expander-right"
       d="m 196.82493,704.24546 -2,2 2,2 z"
       class="ColorScheme-Text"
       style="fill:#4e5a7e;fill-opacity:1" />
    <path
       inkscape:connector-curvature="0"
       id="expander-left"
       d="m 190.82493,704.24546 2,2 -2,2 z"
       class="ColorScheme-Text"
       style="fill:#4e5a7e;fill-opacity:1" />
    <g
       id="notification-empty"
       transform="translate(248.82493,645.24546)">
      <path
         style="fill:none"
         inkscape:connector-curvature="0"
         id="path31"
         d="M 1,1 H 23 V 23 H 1 Z" />
      <path
         inkscape:connector-curvature="0"
         id="circle-outline"
         d="m 12,4 a 8,8 0 0 0 -8,8 8,8 0 0 0 8,8 8,8 0 0 0 8,-8 8,8 0 0 0 -8,-8 z m 0,1 a 7,7 0 0 1 7,7 7,7 0 0 1 -7,7 7,7 0 0 1 -7,-7 7,7 0 0 1 7,-7 z"
         class="ColorScheme-Text"
         style="fill:#a8aeca;fill-opacity:1" />
    </g>
    <g
       id="notification-inactive">
      <path
         style="fill:none;stroke-width:1.45455"
         inkscape:connector-curvature="0"
         d="m 204.82493,686.2455 h 32 v 32 h -32 z"
         id="path6" />
      <path
         inkscape:connector-curvature="0"
         id="fill"
         d="m 214.82494,697.24547 v 4 l -3.30007,9.08185 h 9.30006 9.69994 l -3.69993,-9.08185 v -4 l -6,-6 z"
         style="color:#1e92ff;fill:#4e5a7e;fill-opacity:0.501961;fill-rule:nonzero;stroke:none;stroke-width:1.14564"
         class="ColorScheme-ButtonFocus"
         sodipodi:nodetypes="ccccccccc" />
      <path
         d="m 212.94305,711.5455 h 4.33636 c 0.43637,1.58182 1.88182,2.7 3.54546,2.7 1.66364,0 3.10909,-1.14545 3.54545,-2.7 h 4.33637 c 1.28182,0 2.31818,-1.03636 2.31818,-2.31818 0,-0.76364 -0.38182,-1.5 -1.03636,-1.93637 -0.62728,-0.43636 -1.66364,-1.85454 -1.66364,-6.62727 0,-4.58182 -2.7,-6.51818 -4.8,-7.33636 0.0273,-0.13637 0.0273,-0.24546 0.0273,-0.35455 0,-1.5 -1.22727,-2.72727 -2.72727,-2.72727 -1.5,0 -2.72727,1.22727 -2.72727,2.72727 0,0.10909 0,0.24546 0.0273,0.35455 -2.1,0.81818 -4.8,2.75454 -4.8,7.33636 0,4.77273 -1.03636,6.19091 -1.66364,6.62727 -0.65454,0.43637 -1.03636,1.17273 -1.03636,1.93637 0,1.28182 1.03636,2.31818 2.31818,2.31818 z m 7.88182,1.06364 c -0.76364,0 -1.44546,-0.43637 -1.8,-1.06364 h 3.57273 c -0.32728,0.62727 -1.00909,1.06364 -1.77273,1.06364 z m 0,-20.72728 c 0.57273,0 1.00909,0.43637 1.09091,0.98182 -0.84546,-0.13636 -1.60909,-0.0818 -2.15455,0 0.0545,-0.54545 0.49091,-0.98182 1.06364,-0.98182 z m -5.86364,8.78182 c 0,-3.95454 2.45455,-5.48182 4.5,-6.05454 l 0.0545,-0.0273 c 0,0 0.57273,-0.19091 1.36364,-0.19091 0.40909,0 0.87273,0.0546 1.33636,0.19091 h 0.0273 c 2.04546,0.57273 4.5,2.1 4.5,6.05455 0,2.89091 0.38182,5.07273 1.11819,6.49091 h -14.04545 c 0.76363,-1.39091 1.14545,-3.57273 1.14545,-6.46364 z m -2.56363,8.12727 h 16.82727 c 0.10909,0.13637 0.16364,0.27273 0.16364,0.43637 0,0.38182 -0.3,0.68182 -0.68182,0.68182 h -15.76364 c -0.38182,0 -0.68182,-0.3 -0.68182,-0.68182 0,-0.16364 0.0545,-0.3 0.13637,-0.43637 z"
         id="path4-7"
         style="fill:#d6dbf1;fill-opacity:1;stroke-width:0.272727" />
    </g>
    <g
       id="notification-active">
      <path
         style="fill:none;stroke-width:1.45455"
         inkscape:connector-curvature="0"
         d="m 204.82493,721.24546 h 32 v 32 h -32 z"
         id="path14" />
      <path
         inkscape:connector-curvature="0"
         id="fill-6"
         d="m 214.36093,732.34546 v 4 l -3,9 9.46401,-0.1 9.53599,0.1 -2.53599,-7.09999 c 3,-1 4,-2 4,-4 0,-3 -3,-5 -6,-4 l -5,-4 z"
         style="color:#1e92ff;fill:#4e5a7e;fill-opacity:0.501961;fill-rule:nonzero;stroke:none;stroke-width:1.14564"
         class="ColorScheme-ButtonFocus"
         sodipodi:nodetypes="cccccccccc" />
      <path
         d="m 227.77941,728.51819 c -0.95454,0 -1.82727,0.24545 -2.61818,0.65454 -0.49091,-0.32727 -1.03636,-0.62727 -1.63636,-0.84545 0.0273,-0.10909 0.0273,-0.24546 0.0273,-0.35455 0,-1.5 -1.22727,-2.72727 -2.72727,-2.72727 -1.5,0 -2.72727,1.22727 -2.72727,2.72727 0,0.10909 0,0.24546 0.0273,0.35455 -2.1,0.81818 -4.8,2.75454 -4.8,7.33636 0,4.77273 -1.03636,6.19091 -1.66364,6.62727 -0.65454,0.43637 -1.03636,1.17273 -1.03636,1.93637 0,1.28182 1.03636,2.31818 2.31818,2.31818 h 4.33636 c 0.43637,1.58182 1.88182,2.7 3.54546,2.7 1.66364,0 3.10909,-1.14545 3.54545,-2.7 h 4.33637 c 1.28182,0 2.31818,-1.03636 2.31818,-2.31818 0,-0.76364 -0.38182,-1.5 -1.03636,-1.93637 -0.35455,-0.24545 -0.95455,-0.9 -1.33637,-2.67272 2.64546,-0.43637 4.69091,-2.72728 4.69091,-5.50909 0.0273,-3.08182 -2.48182,-5.59091 -5.56364,-5.59091 z m -6.95454,-1.63637 c 0.57273,0 1.00909,0.43637 1.09091,0.98182 -0.84546,-0.13636 -1.60909,-0.0818 -2.15455,0 0.0545,-0.54545 0.49091,-0.98182 1.06364,-0.98182 z m -5.86364,8.78182 c 0,-3.95454 2.45455,-5.48182 4.5,-6.05454 l 0.0545,-0.0273 c 0,0 1.30909,-0.43636 2.72728,0.0273 0.57272,0.16363 1.09091,0.38181 1.55454,0.62727 -1.00908,1.00909 -1.60908,2.37273 -1.60908,3.87273 0,2.80909 2.1,5.15454 4.82727,5.53636 0.19091,1.00909 0.46363,1.82727 0.81818,2.50909 h -14.01818 c 0.76363,-1.41818 1.14545,-3.6 1.14545,-6.49091 z m 5.86364,11.94546 c -0.76364,0 -1.44546,-0.43637 -1.8,-1.06364 h 3.57273 c -0.32728,0.62727 -1.00909,1.06364 -1.77273,1.06364 z m 8.42727,-3.81819 c 0.10909,0.13637 0.16364,0.27273 0.16364,0.43637 0,0.38182 -0.3,0.68182 -0.68182,0.68182 h -15.79091 c -0.38182,0 -0.68182,-0.3 -0.68182,-0.68182 0,-0.16364 0.0545,-0.3 0.16364,-0.43637 z m -1.47273,-5.72727 c -2.18181,0 -3.95454,-1.77273 -3.95454,-3.95454 0,-2.18182 1.77273,-3.95455 3.95454,-3.95455 2.18182,0 3.95455,1.77273 3.95455,3.95455 0,2.18181 -1.77273,3.95454 -3.95455,3.95454 z"
         id="path6-3"
         style="fill:#d6dbf1;fill-opacity:1;stroke-width:0.272727" />
      <circle
         id="circle-transparent-7-3"
         cx="227.82494"
         cy="734.14545"
         r="4"
         class="ColorScheme-Text"
         style="fill:#00a3cc;fill-opacity:1;stroke-width:0.5" />
    </g>
  </g>
</svg>
