<?xml version="1.0" encoding="UTF-8" standalone="no"?>
<svg
   width="32"
   height="32"
   version="1.1"
   id="svg12"
   sodipodi:docname="nulloy.svg"
   inkscape:version="1.2.1 (9c6d41e410, 2022-07-14)"
   xmlns:inkscape="http://www.inkscape.org/namespaces/inkscape"
   xmlns:sodipodi="http://sodipodi.sourceforge.net/DTD/sodipodi-0.dtd"
   xmlns="http://www.w3.org/2000/svg"
   xmlns:svg="http://www.w3.org/2000/svg">
  <g
     id="nulloy">
    <rect
       style="opacity:0.00100002"
       width="32"
       height="32"
       x="0"
       y="0"
       id="rect7" />
    <path
       d="M 24.485297,7.514746 C 22.218817,5.248193 19.2051,4 16,4 12.7949,4 9.78117,5.248193 7.5149,7.514746 5.24821,9.781298 4,12.794774 4,16.000001 c 0,3.205227 1.24821,6.218695 3.5149,8.485253 2.26627,2.266409 5.28,3.514747 8.4851,3.514747 3.2053,0 6.218817,-1.248338 8.485297,-3.514747 2.26634,-2.266558 3.5147,-5.280026 3.5147,-8.485253 0,-3.205227 -1.24836,-6.21885 -3.5147,-8.485255 z M 23.115,23.814651 c -2.209523,1.874207 -3.991502,2.760223 -7.115,2.73735 -3.315977,-0.02428 -4.545955,-0.647314 -7.115,-2.738 -2.08741,-2.087255 -3.437,-4.862044 -3.437,-7.814 0,-2.952097 1.392416,-6.09043 3.437,-7.815001 2.293791,-2.015595 4.205681,-2.714962 7.115,-2.737 2.951865,-0.02236 4.927587,0.91947 7.115,2.737205 2.08737,2.087403 3.437,4.862699 3.437,7.814796 0,2.951956 -1.34963,5.727395 -3.437,7.81465 z"
       id="path2-36-912-3-5"
       style="fill:#d6dbf1;fill-opacity:1;stroke-width:0.0374999"
       sodipodi:nodetypes="cscscscsccscscscsc" />
    <rect
       style="fill:#4e5a7e;fill-opacity:0.499251;stroke:none;stroke-width:0.528728"
       id="center-3-35"
       width="21.098076"
       height="21.200001"
       x="5.4499993"
       y="5.4499998"
       ry="10.599983" />
    <path
       style="fill:#d6dbf1;fill-opacity:1;stroke-width:0.575101"
       d="m 9.02658,9 0.01328,0.0957 c 0.329635,2.247652 0.518922,4.102422 0.764119,5.229504 0.245202,1.127042 0.550191,1.798482 1.122925,2.1704 0.572729,0.371902 1.388468,0.435462 2.642871,0.394761 1.2544,-0.0407 2.951399,-0.363304 5.294005,-0.4375 l 0.07643,-0.003 -0.01008,-0.07519 c -0.22058,-1.726067 -0.294064,-3.011352 -0.443416,-3.872982 -0.149345,-0.861639 -0.383119,-1.399342 -0.91861,-1.76366 -0.5355,-0.364321 -1.355521,-0.555982 -2.687715,-0.779296 C 13.548234,9.735421 11.702013,9.483315 9.117941,9.017086 Z m 11.225911,0 c -0.936485,0 -1.700996,0.781499 -1.700996,1.75 0,0.968607 0.764516,1.75 1.700996,1.75 0.936476,0 1.700995,-0.781393 1.700995,-1.75 0,-0.968501 -0.764508,-1.75 -1.700995,-1.75 z M 23,12.088139 l -0.137865,0.08369 c -1.103499,0.678836 -1.918945,0.800553 -2.549836,1.156989 -0.31546,0.178217 -0.582664,0.418292 -0.800661,0.810047 -0.218014,0.391762 -0.389059,0.932684 -0.526593,1.720946 l -0.01996,0.121333 0.109635,-0.0427 c 1.712935,-0.659579 2.474158,-0.717743 2.935215,-1.06128 0.23051,-0.171768 0.372574,-0.414577 0.503323,-0.816891 0.13074,-0.402309 0.253196,-0.968954 0.448496,-1.811526 z m -0.14119,2.949711 -0.182724,0.06147 c -1.830476,0.628387 -2.580701,0.80914 -2.965132,1.097163 -0.19221,0.144035 -0.283723,0.319602 -0.353824,0.567395 -0.07011,0.247797 -0.124565,0.573999 -0.250822,1.049307 l -0.02999,0.111093 0.109635,-0.02567 c 1.10856,-0.251679 1.619113,-0.311868 2.051495,-0.625481 0.43238,-0.313612 0.760097,-0.860914 1.516613,-2.069568 z m -3.867114,1.78416 -0.09303,0.007 c -2.784062,0.149272 -4.233776,0.168292 -5.199333,0.803215 -0.482765,0.31745 -0.832274,0.831004 -1.151155,1.657727 -0.318899,0.826713 -0.611888,1.680739 -0.985053,3.277831 l -0.02657,0.116202 0.111294,-0.03422 c 1.661592,-0.502221 2.840293,-0.719347 3.700978,-0.861329 0.860703,-0.141977 1.406156,-0.205433 1.810633,-0.416995 0.404493,-0.211556 0.648817,-0.572174 0.89203,-1.26294 0.243216,-0.690768 0.49238,-1.605672 0.915291,-3.192382 z m 3.342196,0.06665 c -0.817607,0.882518 -1.515553,1.042073 -2.056492,1.237307 -0.270457,0.09762 -0.505624,0.206037 -0.682706,0.422113 -0.177083,0.216102 -0.290996,0.532462 -0.335563,1.033932 l -0.007,0.08718 0.08305,-0.0103 c 0.994326,-0.132386 1.552433,-0.234675 1.975095,-0.599847 0.422657,-0.36519 0.691925,-0.974363 1.134545,-2.096923 z m -10.024921,1.650876 -0.121259,0.03252 C 10.925217,18.897448 10.342934,19.29625 9.981732,19.956302 9.620524,20.616325 9.475285,21.51762 9.04153,22.870115 L 9,23 9.127908,22.95556 c 0.573123,-0.194978 0.979596,-0.335828 1.290693,-0.49561 0.311103,-0.15974 0.527468,-0.340936 0.702658,-0.610098 0.35038,-0.538288 0.546921,-1.406699 1.146177,-3.190658 z m 9.757475,0.789558 -0.12292,0.04793 c -1.013274,0.396908 -1.569593,0.574151 -1.87376,0.845926 -0.152075,0.135901 -0.236181,0.299705 -0.265774,0.509282 -0.02968,0.209579 -0.01022,0.22503 0.02997,0.565683 l 0.0082,0.07866 0.07481,-0.0188 c 0.345844,-0.08997 0.597222,-0.08931 0.799006,-0.08033 0.201788,0.0091 0.360377,0.03186 0.508307,-0.03938 0.147929,-0.07122 0.260918,-0.230064 0.380398,-0.53662 0.119489,-0.306576 0.248732,-0.530882 0.428572,-1.242433 z"
       id="path9-3" />
  </g>
  <defs
     id="defs16" />
  <sodipodi:namedview
     id="namedview14"
     pagecolor="#ffffff"
     bordercolor="#000000"
     borderopacity="1"
     inkscape:showpageshadow="2"
     inkscape:pageopacity="0"
     inkscape:pagecheckerboard="0"
     inkscape:deskcolor="#cccccc"
     showgrid="false"
     inkscape:zoom="7.375"
     inkscape:cx="34.983051"
     inkscape:cy="12.813559"
     inkscape:window-width="1920"
     inkscape:window-height="1004"
     inkscape:window-x="0"
     inkscape:window-y="0"
     inkscape:window-maximized="1"
     inkscape:current-layer="svg12"
     showguides="false">
    <inkscape:grid
       type="xygrid"
       id="grid559"
       originx="0"
       originy="0" />
  </sodipodi:namedview>
  <g
     id="22-22-nulloy">
    <rect
       style="opacity:0.00100002"
       width="22"
       height="22"
       x="32"
       y="10"
       id="rect2" />
    <path
       d="M 48.656864,15.343164 C 47.145877,13.832129 45.136733,13 43,13 40.863266,13 38.854113,13.832129 37.343267,15.343164 35.83214,16.854199 35,18.863182 35,21 c 0,2.136818 0.83214,4.145797 2.343267,5.656835 C 38.854113,28.167775 40.863266,29 43,29 c 2.136866,0 4.145877,-0.832225 5.656864,-2.343165 1.510893,-1.511038 2.343133,-3.520017 2.343133,-5.656835 0,-2.136818 -0.83224,-4.145899 -2.343133,-5.656836 z M 47.743333,26.209767 C 46.270318,27.459238 45.082332,28.049915 43,28.034667 40.789348,28.018477 39.969363,27.603124 38.256667,26.209333 36.86506,24.81783 35.965333,22.967971 35.965333,21 c 0,-1.968064 0.928278,-4.060286 2.291334,-5.21 C 39.78586,14.44627 41.060454,13.980025 43,13.965333 c 1.96791,-0.01491 3.285058,0.61298 4.743333,1.824804 1.39158,1.391601 2.291333,3.241799 2.291333,5.209863 0,1.967971 -0.899753,3.818264 -2.291333,5.209767 z"
       id="path2-36-912-3-5-2"
       style="fill:#d6dbf1;fill-opacity:1;stroke-width:0.0249999"
       sodipodi:nodetypes="cscscscsccscscscsc" />
    <rect
       style="fill:#4e5a7e;fill-opacity:0.499251;stroke:none;stroke-width:0.352485"
       id="center-3-35-9"
       width="14.065383"
       height="14.133333"
       x="35.966667"
       y="13.966668"
       ry="7.0666552" />
    <path
       style="fill:#d6dbf1;fill-opacity:1;stroke-width:0.549999"
       d="m 38.517198,16.7 0.0085,0.06018 c 0.213181,1.412812 0.335589,2.578669 0.49415,3.287114 0.15856,0.708432 0.355798,1.130476 0.72617,1.364257 0.370372,0.233763 0.897887,0.27371 1.709077,0.248144 0.811194,-0.02559 1.908622,-0.228374 3.423539,-0.275 l 0.04946,-0.0017 -0.0062,-0.04724 c -0.142855,-1.085552 -0.190377,-1.893435 -0.286955,-2.43504 -0.09659,-0.541602 -0.247758,-0.879591 -0.594047,-1.10859 -0.3463,-0.229002 -0.8766,-0.349473 -1.738086,-0.489846 -0.861491,-0.140367 -2.055399,-0.298833 -3.726464,-0.591895 z m 7.259565,0 c -0.605608,0 -1.099999,0.49123 -1.099999,1.099998 0,0.608837 0.494397,1.1 1.099999,1.1 0.605598,0 1.1,-0.491163 1.1,-1.1 0,-0.608768 -0.494394,-1.099998 -1.1,-1.099998 z m 1.776752,1.941114 -0.08917,0.05261 c -0.713595,0.426695 -1.240924,0.503201 -1.648912,0.727247 -0.203992,0.112024 -0.376792,0.262923 -0.517768,0.509177 -0.140977,0.246254 -0.251598,0.586262 -0.34053,1.081734 l -0.01284,0.07622 0.0709,-0.02687 c 1.107725,-0.414599 1.599988,-0.45115 1.898138,-0.667091 0.149074,-0.10797 0.240942,-0.260592 0.325489,-0.513477 0.08456,-0.252879 0.16375,-0.609053 0.290044,-1.138669 z m -0.0913,1.854106 -0.118173,0.03863 c -1.183723,0.394987 -1.668878,0.5086 -1.917478,0.689654 -0.124301,0.09052 -0.183488,0.200894 -0.228808,0.356642 -0.04531,0.155756 -0.08054,0.360795 -0.162211,0.659572 l -0.01932,0.06988 0.07087,-0.01616 c 0.716877,-0.158194 1.047046,-0.19603 1.326667,-0.393156 0.279599,-0.197132 0.491531,-0.541146 0.980761,-1.300875 z m -2.50078,1.121472 -0.06021,0.0044 c -1.800395,0.09383 -2.737901,0.105777 -3.362305,0.504881 -0.312199,0.199537 -0.53821,0.522339 -0.744427,1.041992 -0.206223,0.519653 -0.395699,1.05647 -0.637011,2.060349 l -0.01717,0.07305 0.07196,-0.0215 c 1.074522,-0.315688 1.836763,-0.452164 2.393364,-0.541409 0.556592,-0.08926 0.909322,-0.129128 1.170888,-0.262108 0.261576,-0.132979 0.419575,-0.359652 0.576859,-0.793847 0.157284,-0.434195 0.318406,-1.009277 0.591897,-2.006637 z m 2.161319,0.04188 c -0.528732,0.554723 -0.980074,0.65501 -1.329888,0.777736 -0.174898,0.06134 -0.326982,0.129502 -0.441496,0.265328 -0.114513,0.135827 -0.188169,0.334688 -0.216995,0.649899 l -0.0044,0.0548 0.05374,-0.0062 c 0.643006,-0.08321 1.003922,-0.147508 1.277248,-0.37705 0.273324,-0.229546 0.447456,-0.612452 0.733687,-1.318067 z m -6.482904,1.037696 -0.07843,0.02046 c -0.816425,0.20454 -1.192978,0.455211 -1.426555,0.870101 -0.233589,0.414877 -0.327513,0.981404 -0.608007,1.83154 L 38.5,25.5 38.58271,25.4721 c 0.370629,-0.12256 0.633484,-0.211093 0.834667,-0.311528 0.201183,-0.10042 0.341104,-0.214314 0.4544,-0.383498 0.226584,-0.338351 0.35368,-0.8842 0.741211,-2.00556 z m 6.309952,0.49629 -0.07953,0.03012 c -0.655266,0.249492 -1.015024,0.360904 -1.211718,0.53173 -0.09835,0.08543 -0.152737,0.188389 -0.171874,0.320122 -0.01911,0.131732 -0.0064,0.141442 0.01932,0.35556 l 0.0047,0.04945 0.04829,-0.01188 c 0.223648,-0.05658 0.386205,-0.05613 0.516698,-0.05053 0.130491,0.0051 0.233047,0.02005 0.328713,-0.02476 0.09567,-0.04475 0.168726,-0.144615 0.245994,-0.337304 0.07723,-0.192701 0.160849,-0.333699 0.277149,-0.780961 z"
       id="path4-6" />
  </g>
</svg>
