<?xml version="1.0" encoding="UTF-8" standalone="no"?>
<svg
   width="32"
   height="32"
   version="1"
   id="svg18"
   sodipodi:docname="offline.svg"
   inkscape:version="1.2.2 (b0a8486541, 2022-12-01)"
   xmlns:inkscape="http://www.inkscape.org/namespaces/inkscape"
   xmlns:sodipodi="http://sodipodi.sourceforge.net/DTD/sodipodi-0.dtd"
   xmlns="http://www.w3.org/2000/svg"
   xmlns:svg="http://www.w3.org/2000/svg">
  <g
     id="22-22-offline"
     transform="translate(32,10)">
    <rect
       style="opacity:0.00100002"
       width="22"
       height="22"
       x="0"
       y="0"
       id="rect4" />
    <rect
       style="fill:#4e5a7e;fill-opacity:0.499251;stroke:none;stroke-width:0.374923"
       id="center-3-35-9"
       width="14.96072"
       height="15.033"
       x="3.4760001"
       y="3.6099999"
       ry="7.5164857" />
    <path
       style="fill:#d1d5e9;fill-opacity:1"
       d="m 11.001325,3 c -2.9246156,3.4e-4 -5.8048946,1.693112 -7.1031126,4.335929 -1.317338,2.4511557 -1.16542,5.5663 0.32272,7.906167 1.76788,2.889856 5.4973,4.401956 8.7740226,3.496087 2.912142,-0.698751 5.23253,-3.202809 5.821775,-6.122483 C 19.333173,10.36656 18.7334,7.937635 17.329408,6.119762 15.857601,4.176543 13.433928,2.991927 10.997264,3.003099 m 0,0.999345 c 1.138278,0.0065 2.265193,0.306823 3.281119,0.813392 -0.514953,0.169076 0.24179,0.661183 -0.144188,0.920545 0.399882,0.261101 0.934358,-0.239378 0.381005,-0.499897 -0.488731,-0.771543 1.24912,0.228696 0.347781,0.50379 -0.306948,0.278942 -1.055162,0.167765 -0.445986,0.674867 0.04914,0.492444 -1.066826,-0.09897 -0.927166,0.711532 0.05393,0.364533 0.203838,0.487722 -0.337317,0.815003 -0.426785,0.592171 -1.223001,1.0829287 -1.090407,1.9795797 -0.214307,0.7090663 0.54316,1.0738713 1.153792,1.2266653 0.632948,-0.04161 2.14076,-0.45221 2.400025,0.340161 -0.269321,0.701412 1.179458,1.396518 0.567569,2.093073 -0.397132,0.651812 0.07816,0.878122 -0.04898,1.548846 0.489629,0.70474 -1.270699,1.737658 -1.80704,2.052693 -1.619521,0.951273 -3.695961,1.075535 -5.4779216,0.460568 -0.700413,-0.424546 0.157627,-0.757423 0.378815,-0.971543 -0.306194,-0.584756 0.171231,-0.230886 0.175853,-0.851852 0.0063,-0.939154 1.2529796,-0.785718 1.1646886,-1.761878 0.02609,-0.58187 0.93113,-1.374249 -0.06929,-1.610359 -0.7478706,-0.142556 -1.3588176,-0.0953 -1.7505206,-0.742508 -0.681351,-0.09061 -0.689402,-0.807536 -1.486419,-0.67813 -0.562443,-0.334818 -1.328844,0.851755 -1.671987,-4.57e-4 0.129303,-0.436499 -0.125594,-1.1209593 -0.505095,-1.03311 0.181905,-0.3270543 0.17976,-0.9721763 -0.241228,-0.4460093 -0.683947,0.6063153 -0.840985,-0.42059 -0.492317,-0.8582637 0.439207,-0.572602 1.497494,-0.536982 1.852316,-0.02168 -0.03604,-0.834346 0.862278,-0.957751 1.252875,-1.599976 0.443851,-0.228661 0.8979,-0.754113 1.328266,-0.508026 0.299396,-0.04373 0.612025,-0.386848 0.12061,-0.211124 -0.235443,-0.114871 0.23185,-0.510503 -0.18802,-0.406696 0.350539,-0.09037 0.718,-0.156474 1.072111,-0.170788 -0.77647,0.459529 0.8777886,0.607624 0.1855686,0.09914 C 10.18279,5.337163 9.7821174,5.186401 9.6449774,4.737071 9.2675874,4.751971 9.2340364,4.874258 9.0243334,4.497529 8.2836294,4.073297 9.7376654,4.61836 9.8383444,4.248758 10.123647,3.932043 10.620428,4.039659 11.001225,4.004746 M 8.5011414,4.473427 C 8.3365434,5.039827 7.8562784,5.450285 7.4775004,5.627056 7.3712254,5.31227 7.5079704,5.2222 7.1821314,5.148038 7.5477494,4.815899 8.0591194,4.684759 8.4981214,4.473427 m 5.3751866,0.749308 c -0.604893,0.171241 0.05071,0.719332 0.179907,0.118899 0.0016,-0.09114 -0.107439,-0.128601 -0.180897,-0.117999 m 2.125103,1.154108 c 0.512518,0.260944 1.379796,1.269736 1.132056,1.614083 C 16.689066,7.884645 16.836635,8.452956 16.34737,8.106593 15.69134,8.005549 15.685736,7.048375 14.888438,7.444941 14.603172,7.645603 13.470227,7.722862 14.319122,7.388471 14.690663,6.986237 15.265989,6.257174 15.91419,6.761487 16.108693,6.987493 16.494998,7.43738 16.515931,6.959996 16.369268,6.824514 15.721351,6.642252 16.000471,6.374538 M 4.2831214,9.997814 c 0.637522,0.193635 1.069718,1.336087 1.623618,1.442585 0.738682,-0.222783 0.07159,1.003674 -0.08665,1.313067 0.142561,0.765758 0.65116,1.106931 1.333299,1.511698 0.369337,0.844647 0.157576,1.831434 0.326453,2.719747 -0.871998,-0.401699 -1.647984,-1.219029 -2.230811,-2.020005 -0.90321,-1.280115 -1.334467,-2.883429 -1.229586,-4.441573 0.05383,-0.172846 0.04916,-0.477341 0.267709,-0.525019"
       id="path6-5" />
    <path
       style="fill:#e34f63;fill-opacity:1;stroke-width:0.781108"
       d="m 14.135668,14.000151 h 0.624753 c 0.0061,-8.3e-5 0.01312,-2.91e-4 0.01954,0 0.15929,0.0066 0.318548,0.08039 0.429519,0.195305 l 1.42522,1.425738 1.444749,-1.425738 C 18.2454,14.0514 18.358505,14.004521 18.50896,14.000151 h 0.624756 v 0.624982 c 0,0.179039 -0.02142,0.34414 -0.156188,0.468732 l -1.425221,1.425744 1.405698,1.406203 c 0.117581,0.117606 0.175702,0.2834 0.175711,0.449206 v 0.624983 h -0.624761 c -0.165747,-1.2e-5 -0.33148,-0.05823 -0.449036,-0.175779 l -1.425218,-1.425734 -1.42522,1.425734 c -0.117556,0.117617 -0.283296,0.175779 -0.449023,0.175779 h -0.624771 v -0.624983 c -3e-6,-0.1658 0.05811,-0.3316 0.175705,-0.449206 l 1.42523,-1.406203 -1.425214,-1.425744 c -0.131672,-0.121629 -0.1894,-0.29327 -0.175722,-0.468732 z"
       id="path29-3-3" />
  </g>
  <g
     id="offline">
    <rect
       style="opacity:0.00100002"
       width="32"
       height="32"
       x="0"
       y="0"
       id="rect11" />
    <rect
       style="fill:#4e5a7e;fill-opacity:0.499251;stroke:none;stroke-width:0.575476"
       id="center-3-35"
       width="22.39547"
       height="22.887636"
       x="4.8000002"
       y="4.3412113"
       ry="11.053916" />
    <path
       style="fill:#d1d5e9;fill-opacity:1"
       d="M 16,4 C 9.372583,4 4,9.372583 4,16 c 0,6.627417 5.372583,12 12,12 0.871325,0 2.539548,-0.269239 2.539548,-0.269239 l 2.863674,-2.067556 C 21.403222,25.663205 28,22 28,16 28,9 22.627417,4 16,4 Z m 0,1 c 1.661376,0.005 3.300033,0.386307 4.792969,1.115234 -0.308115,0.316509 0.49683,0.925213 -0.0098,1.265625 0.599823,0.391652 1.402297,-0.35922 0.572266,-0.75 -0.11413,-0.180172 -0.143806,-0.270784 -0.126953,-0.30664 0.116474,0.06625 0.231727,0.134619 0.345703,0.205078 0.439995,0.425706 1.038798,1.332344 0.220703,1.582031 C 21.3345,8.529742 20.211237,8.362394 21.125,9.123047 c 0.07371,0.738667 -1.600116,-0.149352 -1.390625,1.066406 0.08089,0.5468 0.305873,0.731734 -0.505859,1.222656 -0.640178,0.888256 -2.333657,1.625726 -2.134766,2.970703 -0.32146,1.063597 0.814521,1.610653 1.730469,1.839844 0.949422,-0.06241 3.710711,-0.678791 4.099609,0.509766 -0.403982,1.052117 1.769396,2.09384 0.851563,3.138672 -0.595699,0.977719 0.11649,1.318133 -0.07422,2.324218 0.422795,0.608545 -2.297949,3.467893 -2.297949,3.467893 l -2.863674,2.067556 c 0.307141,0.01702 0.800718,-0.870486 -0.04673,-1.017998 0,0 -1.648334,0.286886 -2.492813,0.287237 -1.175307,-0.0036 -2.342451,-0.195437 -3.457031,-0.568359 -0.55563,-0.54827 0.500129,-0.982329 0.798828,-1.271485 -0.459291,-0.877134 0.25674,-0.345896 0.263672,-1.277344 0.0095,-1.40873 1.880483,-1.830681 1.748047,-3.294921 C 15.392661,19.715087 16.75063,18.52604 15.25,18.171875 14.12819,17.958042 13.2106,18.029404 12.623047,17.058594 11.601023,16.922673 11.590056,15.846907 10.394531,16.041016 9.761782,15.664345 8.66754,16.544103 7.943359,16.46875 c 0.144811,0.09226 0.285434,0.166299 0.416016,0.191406 1.108023,-0.334174 0.108461,1.506614 -0.128906,1.970703 0.213841,1.148637 0.97679,1.660428 2,2.267579 0.53342,1.219895 0.220115,3.363314 0.421875,4.710937 C 7.16437,23.66896 5.00118,19.991387 5,16 5.0031,15.705246 5.01812,15.410738 5.04492,15.117188 5.10148,14.855562 5.1329,14.513359 5.417967,14.451172 c 0.620604,0.191942 1.320758,0.978488 1.966797,1.564453 -0.0035,-0.0082 -0.0083,-0.01307 -0.01172,-0.02148 0.193954,-0.654751 -0.18856,-1.682559 -0.757813,-1.550786 0.272858,-0.490581 0.270154,-1.457218 -0.361328,-0.667968 -1.025921,0.90947 -0.749562,-0.585677 -0.226562,-1.242188 0.65881,-0.858902 2.247063,-0.804202 2.779297,-0.03125 -0.05406,-1.25152 1.293011,-1.437052 1.878906,-2.400391 0.665776,-0.342991 1.346639,-1.130849 1.992187,-0.761718 0.449095,-0.06559 0.918762,-0.579993 0.181641,-0.316406 -0.353165,-0.172307 0.346603,-0.767039 -0.283203,-0.611329 0.52581,-0.13555 1.078207,-0.234389 1.609375,-0.255859 -1.164705,0.689293 1.315673,0.911167 0.277344,0.148438 0.310521,-0.799259 -0.290383,-1.025224 -0.496094,-1.699219 -0.566084,0.02235 -0.615133,-0.59311 -0.929688,-1.158203 -0.02106,-0.01206 -0.02229,-0.01631 -0.04101,-0.02734 0.222916,-0.05913 0.447636,-0.111243 0.673828,-0.15625 0.236527,0.008 0.452092,-0.0046 0.544922,-0.113282 0.589972,-0.09858 1.187001,-0.148879 1.785151,-0.15039 z M 7.384766,16.015625 C 7.513713,16.3172 7.70832,16.444294 7.943359,16.46875 7.766002,16.355757 7.57654,16.189567 7.384766,16.015625 Z M 12.25,5.669922 12.252,6.210938 C 12.005056,7.060537 11.284965,7.676249 10.716797,7.941406 10.580568,7.537893 10.705757,6.799931 10.441406,6.523438 11.017104,6.184607 11.62247,5.898921 12.25,5.669922 Z m 8.140625,0.941406 c -0.901998,0.257854 0.0779,1.077357 0.271484,0.177735 0.0024,-0.136708 -0.161297,-0.193638 -0.271484,-0.177735 z m 3.666016,2.164063 c 0.239936,0.122794 0.513601,0.388441 0.777343,0.691406 0.289123,0.390375 0.552068,0.799474 0.78711,1.224609 0.111364,0.293241 0.147884,0.551868 0.03906,0.703125 -0.660617,-0.160772 -0.904775,0.78517 -1.638672,0.265625 -0.984045,-0.151566 -0.993507,-1.587036 -2.189453,-0.992187 -0.427899,0.300994 -2.126857,0.415644 -0.853515,-0.08594 0.557311,-0.6033512 1.978869,-1.988891 2.951172,-1.232422 0.291754,0.339009 0.872897,1.012951 0.904296,0.296875 C 24.615106,9.444287 23.654081,9.173627 24.056639,8.775389 Z"
       id="path11-3"
       sodipodi:nodetypes="sssccssccccccccccccccccccccccccccccccccccccccccccccccccccccccccccccccccsccccccccss" />
    <path
       style="fill:#e34f63;fill-opacity:1;stroke-width:1.09355"
       d="m 19.538722,20.90433 h 0.874654 c 0.0085,-1.11e-4 0.01818,-4.08e-4 0.02734,0 0.222998,0.0097 0.445968,0.112529 0.601328,0.273427 l 1.995312,1.996035 2.022635,-1.996035 c 0.232329,-0.201678 0.390688,-0.267305 0.601325,-0.273427 h 0.874663 v 0.874971 c 0,0.250662 -0.03002,0.481802 -0.218664,0.656234 l -1.995311,1.996034 1.967978,1.968685 c 0.164601,0.164653 0.245983,0.396759 0.245997,0.628893 v 0.874974 h -0.87466 c -0.232043,-1.3e-5 -0.464074,-0.0815 -0.628652,-0.246091 l -1.995302,-1.996031 -1.99531,1.996031 c -0.164567,0.164667 -0.396613,0.246091 -0.628647,0.246091 h -0.874657 v -0.874974 c -9e-6,-0.23212 0.08135,-0.46424 0.245995,-0.628893 l 1.995308,-1.968685 -1.995308,-1.996034 c -0.184325,-0.170302 -0.265159,-0.410582 -0.245995,-0.656234 z"
       id="path29-6" />
  </g>
  <sodipodi:namedview
     id="namedview20"
     pagecolor="#ffffff"
     bordercolor="#666666"
     borderopacity="1.0"
     inkscape:showpageshadow="2"
     inkscape:pageopacity="0.0"
     inkscape:pagecheckerboard="0"
     inkscape:deskcolor="#d1d1d1"
     showgrid="false"
     inkscape:zoom="10.429825"
     inkscape:cx="14.525651"
     inkscape:cy="19.703111"
     inkscape:window-width="1920"
     inkscape:window-height="996"
     inkscape:window-x="0"
     inkscape:window-y="0"
     inkscape:window-maximized="1"
     inkscape:current-layer="svg18">
    <inkscape:grid
       type="xygrid"
       id="grid366"
       originx="0"
       originy="0" />
  </sodipodi:namedview>
  <defs
     id="l4k1">
    <style
       id="current-color-scheme"
       type="text/css" />
  </defs>
</svg>
