<?xml version="1.0" encoding="UTF-8" standalone="no"?>
<svg
   width="32"
   height="32"
   version="1.1"
   id="svg4049"
   sodipodi:docname="onboard.svg"
   inkscape:version="1.2.1 (9c6d41e410, 2022-07-14)"
   xmlns:inkscape="http://www.inkscape.org/namespaces/inkscape"
   xmlns:sodipodi="http://sodipodi.sourceforge.net/DTD/sodipodi-0.dtd"
   xmlns="http://www.w3.org/2000/svg"
   xmlns:svg="http://www.w3.org/2000/svg">
  <g
     id="onboard">
    <rect
       style="opacity:0.00100002"
       width="32"
       height="32"
       x="0"
       y="0"
       id="rect4044" />
    <path
       d="M 24.485297,7.514746 C 22.218817,5.248193 19.2051,4 16,4 12.7949,4 9.78117,5.248193 7.5149,7.514746 5.24821,9.781298 4,12.794774 4,16.000001 c 0,3.205227 1.24821,6.218695 3.5149,8.485253 2.26627,2.266409 5.28,3.514747 8.4851,3.514747 3.2053,0 6.218817,-1.248338 8.485297,-3.514747 2.26634,-2.266558 3.5147,-5.280026 3.5147,-8.485253 0,-3.205227 -1.24836,-6.21885 -3.5147,-8.485255 z M 23.115,23.814651 c -2.209523,1.874207 -3.991502,2.760223 -7.115,2.73735 -3.315977,-0.02428 -4.545955,-0.647314 -7.115,-2.738 -2.08741,-2.087255 -3.437,-4.862044 -3.437,-7.814 0,-2.952097 1.392416,-6.09043 3.437,-7.815001 2.293791,-2.015595 4.205681,-2.714962 7.115,-2.737 2.951865,-0.02236 4.927587,0.91947 7.115,2.737205 2.08737,2.087403 3.437,4.862699 3.437,7.814796 0,2.951956 -1.34963,5.727395 -3.437,7.81465 z"
       id="path2-36-912-3-5"
       style="fill:#d6dbf1;fill-opacity:1;stroke-width:0.0374999"
       sodipodi:nodetypes="cscscscsccscscscsc" />
    <rect
       style="fill:#4e5a7e;fill-opacity:0.499251;stroke:none;stroke-width:0.528728"
       id="center-3-35"
       width="21.098076"
       height="21.200001"
       x="5.4499998"
       y="5.4500003"
       ry="10.599983" />
    <path
       d="M 19.49375,16 C 21.151486,16 22.5,14.654284 22.5,13 V 11 C 22.5,9.3457146 21.151486,8 19.49375,8 17.836014,8 16.4875,9.3457146 16.4875,11 v 2 c 0,1.654284 1.348514,3 3.00625,3 z M 17.625,10.900186 C 17.625,9.4054137 18.94098,9.12 19.49375,9.12 c 0.55277,0 1.86875,0.3849361 1.86875,1.88 v 2 c 0,1.305479 -1.315983,1.88 -1.868753,1.88 C 18.940977,14.88 17.625,14.305227 17.625,13 Z"
       id="path4448-36"
       style="fill:#d6dbf1;fill-opacity:1;stroke-width:0.071503"
       sodipodi:nodetypes="ssssssssssssss" />
    <path
       d="m 9.5,16 h 1.203699 v 8 H 9.5 Z"
       id="path4762-7"
       style="fill:#d6dbf1;fill-opacity:1;stroke-width:0.0426575" />
    <path
       d="m 12.810184,20.444444 h -2.106485 v -1.185186 h 2.106485 c 0.580865,0 1.05324,-0.465097 1.05324,-1.03704 0,-0.571933 -0.472375,-1.037035 -1.05324,-1.037035 H 10.703699 V 16 h 2.106485 c 1.244669,0 2.256942,0.996698 2.256942,2.222218 0,1.225525 -1.012273,2.222226 -2.256942,2.222226 z"
       id="path4764-5"
       style="fill:#d6dbf1;fill-opacity:1;stroke-width:0.0426575" />
    <path
       d="m 13.062961,24 h -2.359216 v -1.185184 h 2.359216 c 0.690372,0 1.251891,-0.531595 1.251891,-1.185181 0,-0.653597 -0.561519,-1.185191 -1.251891,-1.185191 h -2.359216 v -1.185186 h 2.359216 c 1.354165,0 2.455597,1.063328 2.455597,2.370377 C 15.518558,22.936678 14.41679,24 13.062961,24 Z"
       id="path4766-3"
       style="fill:#d6dbf1;fill-opacity:1;stroke-width:0.0426575" />
  </g>
  <sodipodi:namedview
     id="namedview4051"
     pagecolor="#cccccc"
     bordercolor="#000000"
     borderopacity="1"
     inkscape:showpageshadow="2"
     inkscape:pageopacity="0"
     inkscape:pagecheckerboard="0"
     inkscape:deskcolor="#808080"
     showgrid="false"
     inkscape:zoom="8"
     inkscape:cx="28.9375"
     inkscape:cy="16.9375"
     inkscape:window-width="1920"
     inkscape:window-height="1004"
     inkscape:window-x="0"
     inkscape:window-y="0"
     inkscape:window-maximized="1"
     inkscape:current-layer="svg4049">
    <inkscape:grid
       type="xygrid"
       id="grid5163"
       originx="0"
       originy="0" />
  </sodipodi:namedview>
  <defs
     id="defs192">
    <style
       id="current-color-scheme"
       type="text/css">
   .ColorScheme-Background {color:#181818; } .ColorScheme-ButtonBackground { color:#343434; } .ColorScheme-Highlight { color:#4285f4; } .ColorScheme-Text { color:#dfdfdf; } .ColorScheme-ViewBackground { color:#242424; } .ColorScheme-NegativeText { color:#f44336; } .ColorScheme-PositiveText { color:#4caf50; } .ColorScheme-NeutralText { color:#ff9800; }
  </style>
  </defs>
  <g
     id="22-22-onboard"
     transform="translate(32,9.9999976)">
    <rect
       style="opacity:0.00100002"
       width="22"
       height="22"
       x="0"
       y="-1.2207031e-06"
       id="rect4039" />
    <path
       d="M 16.656866,5.343164 C 15.145879,3.832129 13.136734,3 11.000002,3 8.8632675,3 6.8541145,3.832129 5.3432685,5.343164 3.8321415,6.854199 3.0000015,8.863182 3.0000015,11 c 0,2.136818 0.83214,4.145797 2.343267,5.656835 C 6.8541145,18.167775 8.8632675,19 11.000002,19 c 2.136866,0 4.145877,-0.832225 5.656864,-2.343165 1.510892,-1.511038 2.343132,-3.520017 2.343132,-5.656835 0,-2.136818 -0.83224,-4.145899 -2.343132,-5.656836 z m -0.913531,10.866603 c -1.473016,1.249471 -2.661002,1.840148 -4.743333,1.8249 C 8.7893495,18.018477 7.9693645,17.603124 6.2566685,16.209333 4.8650615,14.81783 3.9653345,12.967971 3.9653345,11 c 0,-1.968064 0.928278,-4.060286 2.291334,-5.21 1.529193,-1.34373 2.803787,-1.809975 4.7433335,-1.824667 1.96791,-0.01491 3.285057,0.61298 4.743333,1.824804 1.391579,1.391601 2.291332,3.241799 2.291332,5.209863 0,1.967971 -0.899753,3.818264 -2.291332,5.209767 z"
       id="path2-36-912-3-5-2"
       style="fill:#d6dbf1;fill-opacity:1;stroke-width:0.0249999"
       sodipodi:nodetypes="cscscscsccscscscsc" />
    <rect
       style="fill:#4e5a7e;fill-opacity:0.499251;stroke:none;stroke-width:0.352485"
       id="center-3-35-9"
       width="14.065383"
       height="14.133333"
       x="3.9666686"
       y="3.9666672"
       ry="7.0666552" />
    <path
       d="M 12.567159,10.950496 C 13.632982,10.950496 14.5,10.11775 14.5,9.0940617 V 7.8564373 C 14.5,6.8327471 13.632982,6 12.567159,6 11.501351,6 10.634328,6.8327471 10.634328,7.8564373 v 1.2376244 c 0,1.0236883 0.867023,1.8564343 1.932831,1.8564343 z M 11.365668,7.794672 c 0,-0.924986 0.846088,-1.1016026 1.201491,-1.1016026 0.355403,0 1.201493,0.2382026 1.201493,1.1633679 v 1.2376244 c 0,0.8078468 -0.846093,1.1633663 -1.201496,1.1633663 -0.3554,0 -1.201488,-0.3556727 -1.201488,-1.1633663 z"
       id="path4448-3-5"
       style="fill:#d6dbf1;fill-opacity:1;stroke-width:0.0451011"
       sodipodi:nodetypes="ssssssssssssss" />
    <path
       d="M 7.5,11.049506 H 8.273906 V 16 H 7.5 Z"
       id="path4762-6-6"
       style="fill:#d6dbf1;fill-opacity:1;stroke-width:0.0269068" />
    <path
       d="M 9.6282458,13.799782 H 8.273906 v -0.733405 h 1.3543398 c 0.3734602,0 0.6771702,-0.28781 0.6771702,-0.641729 0,-0.353921 -0.30371,-0.641736 -0.6771702,-0.641736 H 8.273906 v -0.733406 h 1.3543398 c 0.8002492,0 1.4510812,0.616767 1.4510812,1.375142 0,0.758363 -0.650832,1.375134 -1.4510812,1.375134 z"
       id="path4764-7-2"
       style="fill:#d6dbf1;fill-opacity:1;stroke-width:0.0269068" />
    <path
       d="M 9.7907657,16 H 8.2739326 v -0.733404 h 1.5168331 c 0.4438673,0 0.8048923,-0.328957 0.8048923,-0.733408 0,-0.404446 -0.361025,-0.733406 -0.8048923,-0.733406 H 8.2739326 v -0.733405 h 1.5168331 c 0.8706433,0 1.5787923,0.657998 1.5787923,1.466811 C 11.369558,15.342006 10.661192,16 9.7907657,16 Z"
       id="path4766-5-9"
       style="fill:#d6dbf1;fill-opacity:1;stroke-width:0.0269068" />
  </g>
</svg>
