<?xml version="1.0" encoding="UTF-8" standalone="no"?>
<svg
   width="32"
   height="32"
   version="1"
   id="svg902"
   sodipodi:docname="org.rnd2.cpupower_gui.svg"
   inkscape:version="1.2.2 (b0a8486541, 2022-12-01)"
   xmlns:inkscape="http://www.inkscape.org/namespaces/inkscape"
   xmlns:sodipodi="http://sodipodi.sourceforge.net/DTD/sodipodi-0.dtd"
   xmlns="http://www.w3.org/2000/svg"
   xmlns:svg="http://www.w3.org/2000/svg">
  <g
     id="22-22-org.rnd2.cpupower_gui"
     transform="translate(32,10)">
    <rect
       style="opacity:0.00100002"
       width="22"
       height="22"
       x="0"
       y="0"
       id="rect892" />
    <rect
       style="fill:#4e5a7e;fill-opacity:0.501961;stroke:none;stroke-width:0.359094"
       id="center-3-35-3"
       width="9.999999"
       height="9.999999"
       x="6.0000005"
       y="6"
       ry="0.71654093"
       rx="0.73501825" />
    <path
       d="M 14.5,8.1719 C 14.5,7.912357 14.287644,7.7 14.028103,7.7 H 7.971896 C 7.712355,7.7 7.5,7.912357 7.5,8.1719 v 6.056199 C 7.5,14.487642 7.712355,14.7 7.971896,14.7 h 6.056207 C 14.287644,14.7 14.5,14.487642 14.5,14.228099 Z m -0.699997,5.8393 H 8.200001 v -5.6 h 5.600002 z"
       id="path659-3-5"
       style="fill:#d6dbf1;fill-opacity:1;stroke-width:0.0359544"
       sodipodi:nodetypes="sssssssssccccc" />
    <path
       d="M 18.589924,9.89584 C 18.815469,9.89584 19,9.715165 19,9.494336 19,9.273507 18.815469,9.092831 18.589924,9.092831 H 16.570271 V 8.189455 h 0.994434 c 0.225552,0 0.410081,-0.180676 0.410081,-0.401505 0,-0.220829 -0.184529,-0.401504 -0.410081,-0.401504 H 16.556587 C 16.518997,6.483069 15.784264,5.763695 14.86159,5.726895 V 4.739852 c 0,-0.220829 -0.184532,-0.401504 -0.410082,-0.401504 -0.225544,0 -0.410076,0.180675 -0.410076,0.401504 V 5.713496 H 13.118758 V 3.401504 C 13.118758,3.180675 12.934226,3 12.708682,3 12.483135,3 12.298601,3.180675 12.298601,3.401504 v 2.311992 h -0.88852 V 4.739852 c 0,-0.220829 -0.184536,-0.401504 -0.410082,-0.401504 -0.225544,0 -0.410081,0.180675 -0.410081,0.401504 V 5.713496 H 9.701399 V 3.401504 C 9.701399,3.180675 9.516866,3 9.291324,3 9.065774,3 8.881241,3.180675 8.881241,3.401504 V 5.713496 H 7.958569 V 4.739852 c 0,-0.220829 -0.184533,-0.401504 -0.410077,-0.401504 -0.225549,0 -0.410081,0.180675 -0.410081,0.401504 V 5.726895 C 6.215742,5.763705 5.481004,6.483069 5.443418,7.386446 H 4.435294 c -0.225546,0 -0.41008,0.180675 -0.41008,0.401504 0,0.220829 0.184534,0.401505 0.41008,0.401505 H 5.429732 V 9.092831 H 3.410079 C 3.184533,9.092831 3,9.273507 3,9.494336 3,9.715165 3.184533,9.89584 3.410079,9.89584 h 2.019653 v 0.869941 H 4.435294 c -0.225546,0 -0.41008,0.180676 -0.41008,0.401505 0,0.220829 0.184534,0.401504 0.41008,0.401504 h 0.994438 v 0.869941 H 3.410079 C 3.184533,12.438731 3,12.619407 3,12.840236 3,13.061065 3.184533,13.24174 3.410079,13.24174 h 2.019653 v 0.903377 H 4.435294 c -0.225546,0 -0.41008,0.180676 -0.41008,0.401504 0,0.220829 0.184534,0.401504 0.41008,0.401504 h 1.008124 c 0.03759,0.903378 0.772324,1.622751 1.694993,1.659552 v 0.987042 c 0,0.22083 0.184532,0.401505 0.410081,0.401505 0.225544,0 0.410077,-0.180675 0.410077,-0.401505 v -0.973644 h 0.922672 v 1.977421 C 8.881241,18.819325 9.065774,19 9.291324,19 9.516866,19 9.701399,18.819325 9.701399,18.598496 v -1.977421 h 0.888519 v 0.973644 c 0,0.22083 0.184537,0.401505 0.410081,0.401505 0.225546,0 0.410082,-0.180675 0.410082,-0.401505 v -0.973644 h 0.88852 v 1.977421 c 0,0.220829 0.184534,0.401504 0.410081,0.401504 0.225544,0 0.410076,-0.180675 0.410076,-0.401504 v -1.977421 h 0.922674 v 0.973644 c 0,0.22083 0.184532,0.401505 0.410076,0.401505 0.22555,0 0.410082,-0.180675 0.410082,-0.401505 v -0.987042 c 0.922674,-0.03681 1.65741,-0.756174 1.694997,-1.659552 h 1.008118 c 0.225552,0 0.410081,-0.180675 0.410081,-0.401504 0,-0.220828 -0.184529,-0.401504 -0.410081,-0.401504 H 16.570271 V 13.24174 h 2.019653 C 18.815469,13.24174 19,13.061065 19,12.840236 19,12.619407 18.815469,12.438731 18.589924,12.438731 H 16.570271 V 11.56879 h 0.994434 c 0.225552,0 0.410081,-0.180675 0.410081,-0.401504 0,-0.220829 -0.184529,-0.401505 -0.410081,-0.401505 H 16.570271 V 9.89584 Z m -3.806788,5.922074 h -0.304139 c -0.01029,0 -0.0239,-0.0033 -0.03418,-0.0033 -0.01027,0 -0.0239,0.0033 -0.03417,0.0033 h -1.650569 c -0.01028,0 -0.0239,-0.0033 -0.03418,-0.0033 -0.01027,0 -0.0239,0.0033 -0.03417,0.0033 h -1.657403 c -0.01028,0 -0.0239,-0.0033 -0.03418,-0.0033 -0.01027,0 -0.0239,0.0033 -0.03417,0.0033 H 9.315396 c -0.01029,0 -0.0239,-0.0033 -0.03419,-0.0033 -0.01028,0 -0.0239,0.0033 -0.03418,0.0033 H 7.596445 c -0.01028,0 -0.0239,-0.0033 -0.03418,-0.0033 -0.01028,0 -0.0239,0.0033 -0.03418,0.0033 H 7.22394 c -0.526274,0 -0.967098,-0.431606 -0.967098,-0.946877 v -0.297783 c 0,-0.01004 0.0034,-0.02342 0.0034,-0.03346 0,-0.01004 -0.0034,-0.02342 -0.0034,-0.03346 v -1.616051 c 0,-0.01004 0.0034,-0.02342 0.0034,-0.03346 0,-0.01004 -0.0034,-0.02342 -0.0034,-0.03346 v -1.622751 c 0,-0.01004 0.0034,-0.02342 0.0034,-0.03346 0,-0.01004 -0.0034,-0.02342 -0.0034,-0.03346 V 9.51764 c 0,-0.01004 0.0034,-0.02342 0.0034,-0.03346 0,-0.01004 -0.0034,-0.02342 -0.0034,-0.03346 V 7.834669 c 0,-0.01004 0.0034,-0.02342 0.0034,-0.03346 0,-0.01004 -0.0034,-0.02342 -0.0034,-0.03346 V 7.469966 c 0,-0.515271 0.440824,-0.946877 0.967098,-0.946877 h 0.304146 c 0.01028,0 0.0239,0.0033 0.03418,0.0033 0.01028,0 0.0239,-0.0033 0.03418,-0.0033 h 1.650561 c 0.01028,0 0.0239,0.0033 0.03418,0.0033 0.01029,0 0.0239,-0.0033 0.03419,-0.0033 h 1.650561 c 0.01028,0 0.0239,0.0033 0.03417,0.0033 0.01028,0 0.0239,-0.0033 0.03418,-0.0033 h 1.650568 c 0.01029,0 0.0239,0.0033 0.03417,0.0033 0.01028,0 0.0239,-0.0033 0.03418,-0.0033 h 1.65057 c 0.0102,0 0.0239,0.0033 0.03417,0.0033 0.0103,0 0.0239,-0.0033 0.03418,-0.0033 h 0.304141 c 0.526276,0 0.967101,0.431606 0.967101,0.946877 v 0.297783 c 0,0.01004 -0.0033,0.02342 -0.0033,0.03346 0,0.01004 0.0033,0.02342 0.0033,0.03346 V 9.45072 c 0,0.01004 -0.0033,0.02342 -0.0033,0.03346 0,0.01004 0.0033,0.02342 0.0033,0.03346 v 1.616051 c 0,0.01004 -0.0033,0.02342 -0.0033,0.03346 0,0.01004 0.0033,0.02342 0.0033,0.03346 v 1.616051 c 0,0.01004 -0.0033,0.02342 -0.0033,0.03346 0,0.01004 0.0033,0.02342 0.0033,0.03346 v 1.616051 c 0,0.01004 -0.0033,0.02342 -0.0033,0.03346 0,0.01004 0.0033,0.02342 0.0033,0.03346 v 0.297784 c 0.0067,0.52194 -0.434013,0.953576 -0.960258,0.953576 z"
       id="path661-6-6"
       style="fill:#d6dbf1;fill-opacity:1;stroke-width:0.0309158" />
    <path
       class="ColorScheme-Text"
       style="color:#7b7c7e;fill:#da4453;fill-opacity:1;fill-rule:evenodd;stroke:none;stroke-width:0.716483"
       d="M 11.666691,7.7 9,11.518149 h 1.333308 V 14.7 L 13,10.88178 h -1.333309 z"
       id="path3072-2"
       inkscape:connector-curvature="0"
       sodipodi:nodetypes="ccccccc" />
  </g>
  <g
     id="org.rnd2.cpupower_gui">
    <rect
       style="opacity:0.00100002"
       width="32"
       height="32"
       x="0"
       y="0"
       id="rect897" />
    <rect
       style="fill:#4e5a7e;fill-opacity:0.501961;stroke:none;stroke-width:0.538644"
       id="center-3-35"
       width="15"
       height="15"
       x="8.5"
       y="8.8000002"
       ry="1.0748117"
       rx="1.1025276" />
    <path
       d="m 20.999994,11.958144 c 0,-0.370776 -0.303365,-0.674144 -0.674137,-0.674144 h -8.65172 C 11.303365,11.284 11,11.587368 11,11.958144 v 8.651712 c 0,0.370776 0.303365,0.674144 0.674137,0.674144 h 8.65172 c 0.370772,0 0.674137,-0.303368 0.674137,-0.674144 z M 20,20.3 h -8 v -8 h 8 z"
       id="path659-36"
       style="fill:#d6dbf1;fill-opacity:1;stroke-width:0.0513634"
       sodipodi:nodetypes="sssssssssccccc" />
    <path
       d="m 27.147703,14.34376 c 0.331265,0 0.602297,-0.271013 0.602297,-0.602256 0,-0.331243 -0.271032,-0.602257 -0.602297,-0.602257 h -2.966366 v -1.355065 h 1.460576 c 0.331277,0 0.602307,-0.271013 0.602307,-0.602257 0,-0.331243 -0.27103,-0.602256 -0.602307,-0.602256 H 24.161236 C 24.106026,9.224603 23.026886,8.145543 21.671709,8.090342 V 6.609778 c 0,-0.331243 -0.271031,-0.602256 -0.602307,-0.602256 -0.331266,0 -0.602299,0.271013 -0.602299,0.602256 V 8.070244 H 19.111927 V 4.602256 C 19.111927,4.271013 18.840895,4 18.509628,4 18.178353,4 17.907321,4.271013 17.907321,4.602256 V 8.070244 H 16.602307 V 6.609778 c 0,-0.331243 -0.27104,-0.602256 -0.602307,-0.602256 -0.331267,0 -0.602307,0.271013 -0.602307,0.602256 V 8.070244 H 14.092679 V 4.602256 C 14.092679,4.271013 13.821648,4 13.490382,4 13.159106,4 12.888073,4.271013 12.888073,4.602256 V 8.070244 H 11.532897 V 6.609778 c 0,-0.331243 -0.271032,-0.602256 -0.602299,-0.602256 -0.331275,0 -0.602307,0.271013 -0.602307,0.602256 V 8.090342 C 8.97312,8.145552 7.893975,9.224603 7.838769,10.579669 H 6.358088 c -0.33127,0 -0.602305,0.271013 -0.602305,0.602256 0,0.331244 0.271035,0.602257 0.602305,0.602257 h 1.460581 v 1.355065 H 4.852304 c -0.33127,0 -0.602304,0.271014 -0.602304,0.602257 0,0.331243 0.271034,0.602256 0.602304,0.602256 h 2.966365 v 1.304912 H 6.358088 c -0.33127,0 -0.602305,0.271013 -0.602305,0.602257 0,0.331243 0.271035,0.602256 0.602305,0.602256 h 1.460581 v 1.304912 H 4.852304 c -0.33127,0 -0.602304,0.271013 -0.602304,0.602257 0,0.331243 0.271034,0.602256 0.602304,0.602256 h 2.966365 v 1.355066 H 6.358088 c -0.33127,0 -0.602305,0.271013 -0.602305,0.602256 0,0.331243 0.271035,0.602256 0.602305,0.602256 h 1.480681 c 0.05522,1.355066 1.134351,2.434126 2.489522,2.489327 v 1.480564 c 0,0.331244 0.271032,0.602257 0.602307,0.602257 0.331267,0 0.602299,-0.271013 0.602299,-0.602257 v -1.460466 h 1.355176 v 2.966131 c 0,0.331244 0.271033,0.602256 0.602309,0.602256 0.331266,0 0.602297,-0.271013 0.602297,-0.602256 v -2.966131 h 1.305014 v 1.460466 c 0,0.331244 0.27104,0.602257 0.602307,0.602257 0.331267,0 0.602307,-0.271013 0.602307,-0.602257 v -1.460466 h 1.305014 v 2.966131 c 0,0.331244 0.271032,0.602256 0.602307,0.602256 0.331267,0 0.602299,-0.271013 0.602299,-0.602256 v -2.966131 h 1.355176 v 1.460466 c 0,0.331244 0.271033,0.602257 0.602299,0.602257 0.331276,0 0.602307,-0.271013 0.602307,-0.602257 v -1.480564 c 1.355177,-0.05521 2.434322,-1.134261 2.489527,-2.489327 h 1.480677 c 0.331277,0 0.602307,-0.271013 0.602307,-0.602256 0,-0.331243 -0.27103,-0.602256 -0.602307,-0.602256 H 24.181337 V 19.36261 h 2.966366 c 0.331265,0 0.602297,-0.271013 0.602297,-0.602256 0,-0.331244 -0.271032,-0.602257 -0.602297,-0.602257 h -2.966366 v -1.304912 h 1.460576 c 0.331277,0 0.602307,-0.271013 0.602307,-0.602256 0,-0.331244 -0.27103,-0.602257 -0.602307,-0.602257 H 24.181337 V 14.34376 Z m -5.591223,8.883111 h -0.446705 c -0.0151,0 -0.0351,-0.005 -0.0502,-0.005 -0.0151,0 -0.0351,0.005 -0.0502,0.005 h -2.424273 c -0.0151,0 -0.0351,-0.005 -0.0502,-0.005 -0.0151,0 -0.0351,0.005 -0.0502,0.005 H 16.05039 c -0.0151,0 -0.0351,-0.005 -0.0502,-0.005 -0.0151,0 -0.0351,0.005 -0.0502,0.005 h -2.424262 c -0.0151,0 -0.0351,-0.005 -0.0502,-0.005 -0.0151,0 -0.0351,0.005 -0.0502,0.005 h -2.424262 c -0.0151,0 -0.0351,-0.005 -0.0502,-0.005 -0.0151,0 -0.0351,0.005 -0.0502,0.005 h -0.446715 c -0.772965,0 -1.420426,-0.647409 -1.420426,-1.420316 v -0.446674 c 0,-0.01506 0.005,-0.03513 0.005,-0.05019 0,-0.01506 -0.005,-0.03513 -0.005,-0.05019 v -2.424077 c 0,-0.01506 0.005,-0.03513 0.005,-0.05019 0,-0.01506 -0.005,-0.03513 -0.005,-0.05019 v -2.434126 c 0,-0.01506 0.005,-0.03513 0.005,-0.05019 0,-0.01506 -0.005,-0.03513 -0.005,-0.05019 V 13.77646 c 0,-0.01506 0.005,-0.03513 0.005,-0.05019 0,-0.01506 -0.005,-0.03513 -0.005,-0.05019 v -2.424076 c 0,-0.01506 0.005,-0.03513 0.005,-0.05019 0,-0.01506 -0.005,-0.03513 -0.005,-0.05019 v -0.446675 c 0,-0.772907 0.647461,-1.420315 1.420426,-1.420315 h 0.446715 c 0.0151,0 0.0351,0.005 0.0502,0.005 0.0151,0 0.0351,-0.005 0.0502,-0.005 h 2.424262 c 0.0151,0 0.0351,0.005 0.0502,0.005 0.0151,0 0.0351,-0.005 0.0502,-0.005 h 2.424262 c 0.01511,0 0.0351,0.005 0.0502,0.005 0.0151,0 0.0351,-0.005 0.0502,-0.005 h 2.424272 c 0.0151,0 0.0351,0.005 0.0502,0.005 0.0151,0 0.0351,-0.005 0.0502,-0.005 h 2.424274 c 0.015,0 0.0351,0.005 0.0502,0.005 0.0151,0 0.0351,-0.005 0.0502,-0.005 h 0.446705 c 0.77297,0 1.420433,0.647408 1.420433,1.420315 v 0.446675 c 0,0.01506 -0.005,0.03513 -0.005,0.05019 0,0.01506 0.005,0.03513 0.005,0.05019 v 2.424076 c 0,0.01506 -0.005,0.03513 -0.005,0.05019 0,0.01506 0.005,0.03513 0.005,0.05019 v 2.424076 c 0,0.01506 -0.005,0.03513 -0.005,0.05019 0,0.01506 0.005,0.03513 0.005,0.05019 v 2.424077 c 0,0.01506 -0.005,0.03513 -0.005,0.05019 0,0.01506 0.005,0.03513 0.005,0.05019 v 2.424077 c 0,0.01506 -0.005,0.03513 -0.005,0.05019 0,0.01506 0.005,0.03513 0.005,0.05019 v 0.446675 c 0.01,0.782911 -0.637461,1.430365 -1.410382,1.430365 z"
       id="path661-7"
       style="fill:#d6dbf1;fill-opacity:1;stroke-width:0.045888" />
    <path
       sodipodi:nodetypes="ccccccc"
       inkscape:connector-curvature="0"
       id="path4444-5"
       d="m 16.833359,11.3 -3.333362,5.4545 h 1.666637 V 21.3 l 3.333363,-5.4546 h -1.666638 z"
       style="color:#7b7c7e;fill:#da4453;fill-opacity:1;fill-rule:evenodd;stroke:none;stroke-width:0.797865"
       class="ColorScheme-Text" />
  </g>
  <sodipodi:namedview
     id="namedview904"
     pagecolor="#ffffff"
     bordercolor="#666666"
     borderopacity="1.0"
     inkscape:showpageshadow="2"
     inkscape:pageopacity="0.0"
     inkscape:pagecheckerboard="0"
     inkscape:deskcolor="#d1d1d1"
     showgrid="false"
     inkscape:zoom="8.0000004"
     inkscape:cx="23.562499"
     inkscape:cy="24.437499"
     inkscape:window-width="1920"
     inkscape:window-height="1002"
     inkscape:window-x="0"
     inkscape:window-y="0"
     inkscape:window-maximized="1"
     inkscape:current-layer="svg902">
    <inkscape:grid
       type="xygrid"
       id="grid461"
       originx="0"
       originy="0" />
  </sodipodi:namedview>
  <defs
     id="l4k1">
    <style
       id="current-color-scheme"
       type="text/css">
   .ColorScheme-Background {color:#181818; } .ColorScheme-ButtonBackground { color:#343434; } .ColorScheme-Highlight { color:#4285f4; } .ColorScheme-Text { color:#dfdfdf; } .ColorScheme-ViewBackground { color:#242424; } .ColorScheme-NegativeText { color:#f44336; } .ColorScheme-PositiveText { color:#4caf50; } .ColorScheme-NeutralText { color:#ff9800; }
  </style>
  </defs>
</svg>
