<?xml version="1.0" encoding="UTF-8" standalone="no"?>
<svg
   sodipodi:docname="phone.svg"
   inkscape:version="1.1.1 (3bf5ae0d25, 2021-09-20)"
   id="svg"
   viewBox="0 0 32.000015 31.999973"
   height="31.999973"
   width="32.000015"
   version="1.1"
   xmlns:inkscape="http://www.inkscape.org/namespaces/inkscape"
   xmlns:sodipodi="http://sodipodi.sourceforge.net/DTD/sodipodi-0.dtd"
   xmlns="http://www.w3.org/2000/svg"
   xmlns:svg="http://www.w3.org/2000/svg"
   xmlns:rdf="http://www.w3.org/1999/02/22-rdf-syntax-ns#"
   xmlns:cc="http://creativecommons.org/ns#"
   xmlns:dc="http://purl.org/dc/elements/1.1/">
  <g
     id="22-22-phone-battery"
     transform="translate(4.0000017,37.999997)">
    <rect
       y="3.1987304e-06"
       x="52"
       height="22"
       width="22"
       id="rect3054"
       style="fill:#000000;fill-opacity:0;stroke:none" />
    <path
       class="fil0"
       d="m 59.890245,3.0000032 h 6.292685 c 0.73171,0 1.317071,0.602511 1.317071,1.271967 V 17.728036 c 0,0.736402 -0.585361,1.271967 -1.317071,1.271967 h -6.292685 c -0.731709,0 -1.390244,-0.535565 -1.390244,-1.271967 V 4.2719702 c 0,-0.669456 0.658535,-1.271967 1.390244,-1.271967 z m 2.048782,14.3933048 h 2.121955 c 0.365856,0 0.658525,0.267783 0.658525,0.602511 0,0.267782 -0.292669,0.535565 -0.658525,0.535565 h -2.121955 c -0.365866,0 -0.658546,-0.267783 -0.658546,-0.535565 0,-0.334728 0.29268,-0.602511 0.658546,-0.602511 z M 62.158533,3.6694592 h 1.682933 c 0.219516,0 0.365856,0.133891 0.365856,0.267783 0,0.200836 -0.14634,0.334728 -0.365856,0.334728 h -1.682933 c -0.14634,0 -0.29268,-0.133892 -0.29268,-0.334728 0,-0.133892 0.14634,-0.267783 0.29268,-0.267783 z m -2.634144,1.138075 h 7.024395 c 0.292681,0 0.585361,0.267783 0.585361,0.602511 V 16.322179 c 0,0.334728 -0.29268,0.60251 -0.585361,0.60251 h -7.024395 c -0.365853,0 -0.658535,-0.267782 -0.658535,-0.60251 V 5.4100452 c 0,-0.334728 0.292682,-0.602511 0.658535,-0.602511 z"
       id="path6-6-1"
       style="fill:#d6dbf1;fill-opacity:1;fill-rule:evenodd;stroke-width:0.0699887;image-rendering:optimizeQuality;shape-rendering:geometricPrecision;text-rendering:geometricPrecision" />
    <rect
       style="fill:#4e5a7e;fill-opacity:0.501961;stroke:none;stroke-width:0.283112"
       id="center-3-35-2-2"
       width="8.2755461"
       height="12.108847"
       x="58.865452"
       y="4.8126135"
       ry="0.54741043" />
    <path
       class="ColorScheme-Text"
       style="color:#7b7c7e;fill:#bf616a;fill-opacity:1;fill-rule:evenodd;stroke:none;stroke-width:0.742277"
       d="m 63.705487,7.4500032 -2.821845,3.8726938 h 1.41088 v 3.227306 l 2.821846,-3.872766 h -1.410881 z"
       id="path3072-6"
       inkscape:connector-curvature="0"
       sodipodi:nodetypes="ccccccc" />
  </g>
  <sodipodi:namedview
     inkscape:document-rotation="0"
     fit-margin-bottom="0"
     fit-margin-right="0"
     fit-margin-left="0"
     fit-margin-top="0"
     inkscape:snap-bbox-midpoints="true"
     inkscape:snap-bbox="true"
     inkscape:current-layer="svg"
     inkscape:window-maximized="1"
     inkscape:window-y="0"
     inkscape:window-x="0"
     inkscape:cy="34.9375"
     inkscape:cx="33.25"
     inkscape:zoom="8.0000001"
     showgrid="false"
     id="namedview10"
     inkscape:window-height="1005"
     inkscape:window-width="1920"
     inkscape:pageshadow="2"
     inkscape:pageopacity="0"
     guidetolerance="10"
     gridtolerance="10"
     objecttolerance="10"
     borderopacity="1"
     bordercolor="#000000"
     pagecolor="#ffffff"
     showguides="true"
     inkscape:lockguides="false"
     inkscape:pagecheckerboard="0">
    <inkscape:grid
       spacingy="1"
       spacingx="1"
       originy="38"
       originx="4.0000013"
       empopacity="0.39215686"
       empcolor="#7777ff"
       opacity="0.32941176"
       color="#0000ff"
       snapvisiblegridlinesonly="true"
       enabled="true"
       visible="true"
       empspacing="5"
       id="grid2987"
       type="xygrid" />
  </sodipodi:namedview>
  <defs
     id="defs81">
    <style
       id="current-color-scheme"
       type="text/css" />
  </defs>
  <metadata
     id="metadata34">
    <rdf:RDF>
      <cc:Work
         rdf:about="">
        <dc:format>image/svg+xml</dc:format>
        <dc:type
           rdf:resource="http://purl.org/dc/dcmitype/StillImage" />
      </cc:Work>
    </rdf:RDF>
  </metadata>
  <g
     id="phone">
    <rect
       width="32.000015"
       height="31.999973"
       rx="0"
       ry="0"
       x="-2.9711913e-07"
       y="-3.8330079e-08"
       id="rect3860"
       style="opacity:0.01;fill:#eff0f1;fill-opacity:0;stroke:none" />
    <path
       class="fil0"
       d="m 12.00813,4 h 9.089432 C 22.154479,4 23,4.9037657 23,5.9079498 V 26.092049 c 0,1.104603 -0.845521,1.90795 -1.902438,1.90795 H 12.00813 C 10.951223,27.999999 10,27.196652 10,26.092049 V 5.9079498 C 10,4.9037657 10.951223,4 12.00813,4 Z m 2.959354,21.589957 h 3.065042 c 0.528454,0 0.951214,0.401674 0.951214,0.903766 0,0.401673 -0.42276,0.803347 -0.951214,0.803347 h -3.065042 c -0.528464,0 -0.951224,-0.401674 -0.951224,-0.803347 0,-0.502092 0.42276,-0.903766 0.951224,-0.903766 z M 15.284551,5.0041841 h 2.430898 c 0.317077,0 0.528463,0.2008368 0.528463,0.4016736 0,0.3012553 -0.211386,0.5020921 -0.528463,0.5020921 h -2.430898 c -0.211384,0 -0.42276,-0.2008368 -0.42276,-0.5020921 0,-0.2008368 0.211376,-0.4016736 0.42276,-0.4016736 z m -3.804874,1.707113 h 10.146349 c 0.422761,0 0.845521,0.4016736 0.845521,0.9037657 V 23.983263 c 0,0.502092 -0.42276,0.903765 -0.845521,0.903765 H 11.479677 c -0.528454,0 -0.951224,-0.401673 -0.951224,-0.903765 V 7.6150628 c 0,-0.5020921 0.42277,-0.9037657 0.951224,-0.9037657 z"
       id="path6"
       style="fill:#d6dbf1;fill-opacity:1;fill-rule:evenodd;stroke-width:0.10302;image-rendering:optimizeQuality;shape-rendering:geometricPrecision;text-rendering:geometricPrecision" />
    <rect
       style="fill:#4e5a7e;fill-opacity:0.501961;stroke:none;stroke-width:0.416729"
       id="center-3-35"
       width="11.953568"
       height="18.163269"
       x="10.527879"
       y="6.7189207"
       ry="0.82111561" />
    <path
       style="color:#d3dae3;fill:#d6dbf1;fill-opacity:1;stroke-width:0.544155;image-rendering:optimizeQuality;shape-rendering:geometricPrecision;text-rendering:geometricPrecision"
       d="m 17.062902,11.749978 -1.683496,0.278674 v 5.509201 l 1.674781,-0.205119 -0.0087,-2.483183 1.975703,2.748384 1.940822,-0.265201 -2.23303,-2.844731 2.240661,-2.386833 -1.964798,-0.343945 -1.959358,2.386842 z m -3.540363,1.406821 c -0.01618,9.97e-4 -0.03136,0.008 -0.04368,0.01965 l -0.577883,0.555274 c -0.02513,0.024 -0.02927,0.06145 -0.0097,0.09014 l 0.697823,1.018342 c -0.131648,0.221964 -0.231099,0.465339 -0.295491,0.719988 l -1.204827,0.280745 c -0.03338,0.0078 -0.05892,0.0365 -0.05892,0.06944 v 0.361548 0.361548 c 0,0.03292 0.0255,0.06163 0.05892,0.06945 l 1.204827,0.280739 c 0.06433,0.254652 0.163843,0.498029 0.295491,0.719991 l -0.6978,1.018337 c -0.01947,0.02868 -0.01528,0.06613 0.0097,0.09013 l 0.577889,0.555273 c 0.02434,0.02341 0.06222,0.02528 0.09154,0.0083 l 1.093619,-0.637107 c 0.214553,0.118758 0.550167,0.214305 0.794864,0.277635 l 0.256233,1.175798 c 0.0077,0.03393 0.03555,0.058 0.07083,0.058 h 0.430687 0.430694 c 0.03545,0 0.06368,-0.02402 0.07081,-0.058 l 0.256233,-1.175798 c 0.244698,-0.06335 0.58031,-0.158884 0.794864,-0.27764 l 1.093616,0.63711 c 0.02949,0.01695 0.06717,0.01509 0.09156,-0.0083 l 0.577898,-0.555274 c 0.02513,-0.02401 0.02938,-0.06145 0.0097,-0.09013 l -0.581164,-0.848441 -0.07197,0.01011 -0.407793,-0.567705 c -0.416488,0.829537 -1.2973,1.358173 -2.26465,1.35917 -1.387424,0 -2.512165,-1.06862 -2.512165,-2.386833 9.88e-4,-0.906007 0.541432,-1.733472 1.395646,-2.136139 v -0.521038 c -0.159234,0.05041 -0.3157,0.107355 -0.436137,0.174045 l -1.093582,-0.637076 c -0.01471,-0.0085 -0.03176,-0.01267 -0.048,-0.0113 z"
       class="ColorScheme-Text"
       id="path10-6-7" />
  </g>
  <g
     id="22-22-phone"
     transform="translate(51.837523,0.01878804)">
    <rect
       style="fill:#000000;fill-opacity:0;stroke:none"
       id="rect3841"
       width="22"
       height="22"
       x="-47.837521"
       y="37.981209" />
    <path
       class="fil0"
       d="m -39.947274,40.981212 h 6.292681 c 0.73171,0 1.317071,0.602511 1.317071,1.271967 v 13.456066 c 0,0.736402 -0.585361,1.271967 -1.317071,1.271967 h -6.292681 c -0.731711,0 -1.390248,-0.535565 -1.390248,-1.271967 V 42.253179 c 0,-0.669456 0.658537,-1.271967 1.390248,-1.271967 z m 2.04878,14.393305 h 2.121954 c 0.365845,0 0.658525,0.267783 0.658525,0.602511 0,0.267782 -0.29268,0.535565 -0.658525,0.535565 h -2.121954 c -0.365863,0 -0.658543,-0.267783 -0.658543,-0.535565 0,-0.334728 0.29268,-0.602511 0.658543,-0.602511 z m 0.219505,-13.723849 h 1.682934 c 0.219515,0 0.365855,0.133891 0.365855,0.267783 0,0.200836 -0.14634,0.334728 -0.365855,0.334728 h -1.682934 c -0.14634,0 -0.29268,-0.133892 -0.29268,-0.334728 0,-0.133892 0.14634,-0.267783 0.29268,-0.267783 z m -2.634141,1.138075 h 7.024392 c 0.292681,0 0.585361,0.267783 0.585361,0.602511 v 10.912134 c 0,0.334728 -0.29268,0.60251 -0.585361,0.60251 h -7.024392 c -0.365855,0 -0.658536,-0.267782 -0.658536,-0.60251 V 43.391254 c 0,-0.334728 0.292681,-0.602511 0.658536,-0.602511 z"
       id="path6-6"
       style="fill:#d6dbf1;fill-opacity:1;fill-rule:evenodd;stroke-width:0.0699887;image-rendering:optimizeQuality;shape-rendering:geometricPrecision;text-rendering:geometricPrecision" />
    <rect
       style="fill:#4e5a7e;fill-opacity:0.501961;stroke:none;stroke-width:0.283112"
       id="center-3-35-2"
       width="8.2755432"
       height="12.108847"
       x="-40.972065"
       y="42.793819"
       ry="0.54741043" />
    <path
       style="color:#d3dae3;fill:#d6dbf1;fill-opacity:1;stroke-width:0.36968;image-rendering:optimizeQuality;shape-rendering:geometricPrecision;text-rendering:geometricPrecision"
       d="m -36.447822,46.147864 -1.165497,0.185783 v 3.672801 l 1.159464,-0.136746 -0.0058,-1.655456 1.367799,1.832256 1.343642,-0.1768 -1.545612,-1.896489 1.551224,-1.591221 -1.360246,-0.229296 -1.356475,1.591228 z m -2.451015,0.937881 c -0.01126,6.65e-4 -0.02175,0.0053 -0.03027,0.0131 l -0.400079,0.370183 c -0.01738,0.016 -0.02022,0.04097 -0.0065,0.06009 l 0.483112,0.678895 c -0.09116,0.147976 -0.159993,0.310226 -0.204576,0.479992 l -0.834103,0.187163 c -0.02306,0.0052 -0.04077,0.02433 -0.04077,0.04629 v 0.241032 0.241032 c 0,0.02195 0.0176,0.04109 0.04077,0.0463 l 0.834103,0.18716 c 0.04448,0.169768 0.113431,0.332019 0.204575,0.479994 l -0.483115,0.678891 c -0.01344,0.01912 -0.01093,0.04409 0.0065,0.06009 l 0.400078,0.370182 c 0.01683,0.01561 0.04306,0.01685 0.06339,0.0055 l 0.757124,-0.424738 c 0.148535,0.07917 0.380885,0.14287 0.550285,0.18509 l 0.177392,0.783865 c 0.0058,0.02262 0.02457,0.03867 0.04905,0.03867 h 0.298166 0.298179 c 0.02457,0 0.04405,-0.01601 0.04909,-0.03867 l 0.177392,-0.783865 c 0.1694,-0.04223 0.401748,-0.105923 0.550284,-0.185093 l 0.757121,0.42474 c 0.02046,0.0113 0.04648,0.01006 0.06339,-0.0055 l 0.40009,-0.370182 c 0.01736,-0.01601 0.02035,-0.04097 0.0068,-0.06009 l -0.402352,-0.565627 -0.04981,0.0067 -0.28232,-0.37847 c -0.288329,0.553024 -0.898128,0.905448 -1.567823,0.906113 -0.960529,0 -1.739196,-0.712413 -1.739196,-1.591222 5.17e-4,-0.604005 0.374647,-1.155648 0.966018,-1.424093 v -0.347358 c -0.110241,0.03361 -0.218554,0.07157 -0.301937,0.11603 l -0.757135,-0.424718 c -0.0098,-0.0057 -0.02197,-0.0084 -0.03322,-0.0075 z"
       class="ColorScheme-Text"
       id="path10-6-7-9" />
  </g>
  <g
     id="phone-battery"
     transform="translate(51.837523,0.01878804)">
    <rect
       style="opacity:0.01;fill:#eff0f1;fill-opacity:0;stroke:none"
       id="rect3038"
       y="0"
       x="0"
       ry="0"
       rx="0"
       height="31.999973"
       width="32.000015" />
    <path
       class="fil0"
       d="m 12.00813,3.999987 h 9.089432 C 22.154479,3.999987 23,4.9037527 23,5.9079369 V 26.092036 c 0,1.104603 -0.845521,1.90795 -1.902438,1.90795 H 12.00813 C 10.951223,27.999986 10,27.196639 10,26.092036 V 5.9079369 C 10,4.9037527 10.951223,3.999987 12.00813,3.999987 Z m 2.959353,21.589957 h 3.065043 c 0.528453,0 0.951213,0.401674 0.951213,0.903766 0,0.401673 -0.42276,0.803347 -0.951213,0.803347 h -3.065043 c -0.528463,0 -0.951223,-0.401674 -0.951223,-0.803347 0,-0.502092 0.42276,-0.903766 0.951223,-0.903766 z M 15.284551,5.0041711 h 2.430897 c 0.317078,0 0.528463,0.2008368 0.528463,0.4016737 0,0.3012553 -0.211385,0.5020921 -0.528463,0.5020921 h -2.430897 c -0.211385,0 -0.42276,-0.2008368 -0.42276,-0.5020921 0,-0.2008369 0.211375,-0.4016737 0.42276,-0.4016737 z m -3.804874,1.7071131 h 10.146349 c 0.422761,0 0.845521,0.4016736 0.845521,0.9037657 V 23.98325 c 0,0.502092 -0.42276,0.903765 -0.845521,0.903765 H 11.479677 c -0.528454,0 -0.951224,-0.401673 -0.951224,-0.903765 V 7.6150499 c 0,-0.5020921 0.42277,-0.9037657 0.951224,-0.9037657 z"
       id="path6-5"
       style="fill:#d6dbf1;fill-opacity:1;fill-rule:evenodd;stroke-width:0.10302;image-rendering:optimizeQuality;shape-rendering:geometricPrecision;text-rendering:geometricPrecision" />
    <rect
       style="fill:#4e5a7e;fill-opacity:0.501961;stroke:none;stroke-width:0.416729"
       id="center-3-35-3"
       width="11.953566"
       height="18.163269"
       x="10.527881"
       y="6.7189078"
       ry="0.82111561" />
    <path
       sodipodi:nodetypes="ccccccc"
       inkscape:connector-curvature="0"
       id="path4444-2"
       d="M 17.648199,9.9999865 13.055524,16.545387 H 15.3518 v 5.4546 l 4.592677,-6.54552 h -2.296278 z"
       style="color:#7b7c7e;fill:#bf616a;fill-opacity:1;fill-rule:evenodd;stroke:none;stroke-width:1.02592"
       class="ColorScheme-Text" />
  </g>
</svg>
