<?xml version="1.0" encoding="UTF-8" standalone="no"?>
<svg
   width="32"
   height="32"
   version="1.1"
   id="svg12"
   sodipodi:docname="plasmavault.svg"
   inkscape:version="1.1.1 (3bf5ae0d25, 2021-09-20)"
   xmlns:inkscape="http://www.inkscape.org/namespaces/inkscape"
   xmlns:sodipodi="http://sodipodi.sourceforge.net/DTD/sodipodi-0.dtd"
   xmlns:xlink="http://www.w3.org/1999/xlink"
   xmlns="http://www.w3.org/2000/svg"
   xmlns:svg="http://www.w3.org/2000/svg"
   xmlns:rdf="http://www.w3.org/1999/02/22-rdf-syntax-ns#"
   xmlns:cc="http://creativecommons.org/ns#"
   xmlns:dc="http://purl.org/dc/elements/1.1/">
  <g
     id="22-22-plasmavault"
     transform="translate(32,10)">
    <g
       id="g1384">
      <rect
         style="opacity:0.00100002"
         width="22"
         height="22"
         x="0"
         y="0"
         id="rect2" />
      <rect
         style="fill:#4e5a7e;fill-opacity:0.501961;stroke:none;stroke-width:0.319204"
         id="center-3-3"
         width="15.025001"
         height="10.769229"
         x="3.5000055"
         y="6.3512821"
         ry="1.0256399"
         rx="1.0016695" />
      <path
         d="m 17.54173,5.8409433 h -7.33168 c -0.162043,0 -0.30374,-0.08554 -0.405027,-0.2354293 L 9.258147,4.749517 C 9.0759,4.449897 8.772033,4.3 8.44809,4.3 H 4.701237 C 3.769515,4.3 3,5.113313 3,6.09772 v 9.994676 c 0,0.834676 0.648177,1.540938 1.458235,1.540938 h 6.298762 v 0 0 0 0 0 0 0 h 0.486006 v 0 0 0 0 0 0 0 0 0 h 6.298762 C 18.331643,17.633334 19,16.948396 19,16.092396 V 7.3818333 C 19,6.525836 18.351967,5.8410507 17.541765,5.8410507 Z M 11.243003,17.633334 v 0 h -0.486006 v 0 0 z m 7.270882,-1.54089 c 0,0.556408 -0.42539,1.027251 -0.97212,1.027251 H 4.458163 c -0.52655,0 -0.97212,-0.470843 -0.97212,-1.027251 l -1.46e-4,-3.4457 v -1.947612 c 0,-0.556413 0.445573,-1.0272507 0.97212,-1.0272507 h 7.331678 c 0.324085,0 0.627815,-0.171236 0.81006,-0.4495173 l 0.526548,-0.8559973 c 0.101294,-0.12839 0.242994,-0.2354314 0.40503,-0.2354314 h 3.767104 c 0.668358,0 1.215268,0.5778914 1.215268,1.2841907 v 2.80361 z M 17.298617,7.6387013 h -3.767104 c -0.324086,0 -0.627816,0.1712354 -0.810058,0.4495174 L 12.194905,8.944218 C 12.113955,9.094102 11.95191,9.179642 11.789877,9.179642 H 4.45825 c -0.364485,0 -0.708327,0.04352 -0.97225,0.4365107 v -2.23923 c 0,-0.51282 0.514003,-1.02564 1.014003,-1.02564 h 4.000002 l 0.01073,0.0119 0.739275,-0.0119 0.980268,0.00313 h 7.33168 c 0.526547,0 0.97212,0.470842 0.97212,1.027254 V 8.1734974 C 18.210129,7.8311847 17.784885,7.638606 17.298769,7.638606 Z"
         id="path64-6"
         sodipodi:nodetypes="csccsssssccccccccccccccccccsssccccccccccssccsssccssscccsccscccccccssscc"
         style="fill:#d6dbf1;fill-opacity:1;stroke-width:0.0371779" />
      <path
         d="m 17.021142,12.741332 h -0.164669 l -8.66e-4,-0.820662 c -8.67e-4,-0.894 -0.728002,-1.621338 -1.622002,-1.620669 -0.894,8.66e-4 -1.621332,0.728003 -1.620666,1.622003 l 0.0017,0.820666 h -0.05861 c -0.307328,8.66e-4 -0.556667,0.249994 -0.555998,0.557331 v 2.443336 c 0,0.307335 0.249998,0.556663 0.557331,0.556663 l 3.465339,-0.0023 c 0.30733,0 0.556666,-0.249332 0.555998,-0.556666 v -2.443982 c 0,-0.307332 -0.249998,-0.555998 -0.557332,-0.555998 z m -2.809332,0.0017 -0.0017,-0.820665 c 0,-0.564667 0.458666,-1.024001 1.023333,-1.024669 0.564666,0 1.023999,0.459334 1.023999,1.023334 l 0.0017,0.820668 z"
         id="path2-3-3-7"
         style="fill:#d6dbf1;fill-opacity:1;stroke-width:0.0666687" />
    </g>
  </g>
  <metadata
     id="metadata18">
    <rdf:RDF>
      <cc:Work
         rdf:about="">
        <dc:format>image/svg+xml</dc:format>
        <dc:type
           rdf:resource="http://purl.org/dc/dcmitype/StillImage" />
      </cc:Work>
    </rdf:RDF>
  </metadata>
  <defs
     id="defs16">
    <linearGradient
       inkscape:collect="always"
       id="linearGradient848">
      <stop
         style="stop-color:#660029;stop-opacity:1"
         offset="0"
         id="stop844" />
      <stop
         style="stop-color:#b20048;stop-opacity:1"
         offset="1"
         id="stop846" />
    </linearGradient>
    <linearGradient
       inkscape:collect="always"
       xlink:href="#linearGradient848"
       id="linearGradient895"
       gradientUnits="userSpaceOnUse"
       gradientTransform="matrix(0.03232332,0,0,0.02930411,3.000002,3.713925)"
       x1="5.575531"
       y1="471.67694"
       x2="237.70486"
       y2="271.28119" />
  </defs>
  <sodipodi:namedview
     pagecolor="#ffffff"
     bordercolor="#666666"
     borderopacity="1"
     objecttolerance="10"
     gridtolerance="10"
     guidetolerance="10"
     inkscape:pageopacity="0"
     inkscape:pageshadow="2"
     inkscape:window-width="1920"
     inkscape:window-height="1007"
     id="namedview14"
     showgrid="false"
     inkscape:zoom="9.8125"
     inkscape:cx="25.681529"
     inkscape:cy="16.56051"
     inkscape:window-x="0"
     inkscape:window-y="0"
     inkscape:window-maximized="1"
     inkscape:current-layer="svg12"
     inkscape:document-rotation="0"
     inkscape:lockguides="true"
     inkscape:pagecheckerboard="0">
    <inkscape:grid
       type="xygrid"
       id="grid868"
       originx="0"
       originy="0" />
  </sodipodi:namedview>
  <g
     id="plasmavault">
    <rect
       style="opacity:0.00100002"
       width="32"
       height="32"
       x="0"
       y="0"
       id="rect7" />
    <rect
       style="fill:#4e5a7e;fill-opacity:0.501961;stroke:none;stroke-width:0.478806"
       id="center-3"
       width="22.5375"
       height="16.153843"
       x="4.7500048"
       y="9.0769234"
       ry="1.5384598"
       rx="1.5025043" />
    <path
       d="m 25.812595,8.311415 h -10.99752 c -0.243064,0 -0.45561,-0.12831 -0.607541,-0.353144 L 13.387221,6.674275 C 13.11385,6.224845 12.658049,6 12.172135,6 H 6.551856 C 5.154272,6 4,7.21997 4,8.69658 V 23.688593 C 4,24.940608 4.972266,26 6.187352,26 h 9.448144 v 0 0 0 0 0 0 0 h 0.729008 v 0 0 0 0 0 0 0 0 0 h 9.448143 C 26.997464,26 28,24.972593 28,23.688593 V 10.62275 C 28,9.338754 27.027951,8.311576 25.812647,8.311576 Z M 16.364504,26 v 0 h -0.729008 v 0 0 z m 10.906324,-2.311334 c 0,0.834611 -0.638085,1.540876 -1.45818,1.540876 H 6.187244 c -0.789825,0 -1.45818,-0.706265 -1.45818,-1.540876 l -2.18e-4,-5.168551 v -2.921418 c 0,-0.834619 0.668359,-1.540875 1.45818,-1.540875 h 10.997516 c 0.486128,0 0.941723,-0.256854 1.215091,-0.674276 l 0.789821,-1.283996 c 0.151942,-0.192585 0.364492,-0.353147 0.607545,-0.353147 h 5.650657 c 1.002537,0 1.822902,0.866837 1.822902,1.926286 v 4.205414 z M 25.447926,11.008052 h -5.650657 c -0.486128,0 -0.941723,0.256853 -1.215087,0.674276 l -0.789825,1.283999 c -0.121425,0.224826 -0.364492,0.353136 -0.607541,0.353136 H 6.187375 c -0.546728,0 -1.062491,0.06528 -1.458375,0.654766 v -3.358845 c 0,-0.76923 0.771004,-1.53846 1.521004,-1.53846 h 6.000004 l 0.01609,0.01785 1.108913,-0.01785 1.470401,0.0047 h 10.99752 c 0.789821,0 1.45818,0.706263 1.45818,1.540881 v 1.187746 c -0.485918,-0.513474 -1.123785,-0.802342 -1.852958,-0.802342 z"
       id="path64"
       sodipodi:nodetypes="csccsssssccccccccccccccccccsssccccccccccssccsssccssscccsccscccccccssscc"
       style="fill:#d6dbf1;fill-opacity:1;stroke-width:0.0557669" />
    <path
       d="M 25.031713,18.661997 H 24.78471 l -0.0013,-1.230993 c -0.0013,-1.341 -1.092002,-2.432006 -2.433002,-2.431003 -1.341,0.0013 -2.431999,1.092004 -2.431,2.433004 l 0.0025,1.230999 h -0.08791 c -0.460992,0.0013 -0.835,0.374991 -0.833996,0.835997 v 3.665004 C 19.000002,23.626007 19.374998,24 19.835998,24 l 5.198009,-0.0034 c 0.460994,0 0.834998,-0.373998 0.833997,-0.834999 v -3.665974 c 0,-0.460998 -0.374997,-0.833997 -0.835999,-0.833997 z m -4.213998,0.0025 -0.0025,-1.230997 c 0,-0.847001 0.687998,-1.536002 1.534999,-1.537003 0.846999,0 1.535998,0.689 1.535998,1.535 l 0.0025,1.231003 z"
       id="path2-3-3"
       style="fill:#d6dbf1;fill-opacity:1;stroke-width:0.100003" />
  </g>
</svg>
