<?xml version="1.0" encoding="UTF-8" standalone="no"?>
<svg
   width="32"
   height="32"
   version="1.1"
   id="svg12"
   sodipodi:docname="plasmavault.svg"
   inkscape:version="1.2 (dc2aedaf03, 2022-05-15)"
   xmlns:inkscape="http://www.inkscape.org/namespaces/inkscape"
   xmlns:sodipodi="http://sodipodi.sourceforge.net/DTD/sodipodi-0.dtd"
   xmlns:xlink="http://www.w3.org/1999/xlink"
   xmlns="http://www.w3.org/2000/svg"
   xmlns:svg="http://www.w3.org/2000/svg"
   xmlns:rdf="http://www.w3.org/1999/02/22-rdf-syntax-ns#"
   xmlns:cc="http://creativecommons.org/ns#"
   xmlns:dc="http://purl.org/dc/elements/1.1/">
  <g
     id="plasmavault">
    <rect
       style="opacity:0.00100002"
       width="32"
       height="32"
       x="0"
       y="0"
       id="rect7" />
    <rect
       style="fill:#4e5a7e;fill-opacity:0.501961;stroke:none;stroke-width:0.478806"
       id="center-3-36"
       width="22.287506"
       height="17.230766"
       x="4.7999997"
       y="8.1999979"
       ry="1.5384598"
       rx="1.5025043" />
    <path
       d="M 25.812595,8 H 14.815075 C 14.572011,8 14.359931,7.98283 14.208,7.758 L 13.387221,6.674275 C 13.11385,6.224845 12.658049,6 12.172135,6 H 6.551856 C 5.154272,6 4,7.21997 4,8.69658 V 23.989 C 4,25.241015 4.972266,26 6.187352,26 h 9.448144 v 0 0 0 0 0 0 0 h 0.729008 v 0 0 0 0 0 0 0 0 0 h 9.448143 C 26.997464,26 28,25.273 28,23.989 V 10.323 C 28,8.70025 27,8 25.812647,8 Z m -9.448091,18 v 0 h -0.729008 v 0 0 z M 27,23.688666 C 27,24.523277 26.632743,25 25.812648,25 H 6.187244 C 5.397419,25 5,24.523277 5,23.688666 V 18.520115 15.598697 C 5,14.764078 5.397205,14 6.187026,14 H 17.585 c 0.486128,0 0.815329,-0.217495 1.115,-0.616454 L 19.589,12.2 C 19.740942,12.007415 19.9,12 19.9,12 h 5.547656 C 26.450193,12 27,12 27,12 v 5.878103 z m -1.552074,-12.680614 -5.650657,-0.0081 c -0.486128,0 -0.915236,0.183178 -1.215087,0.582 l -0.890182,1.184 c -0.121425,0.224826 -0.264135,0.234 -0.507184,0.234 H 6.487 c -0.546728,0 -1.091116,-0.01549 -1.487,0.574 V 10.615336 C 5,9.846106 5.500004,8.999952 6.250004,8.999952 h 6.000004 0.01609 1.108913 H 15 l 10.842932,0.08162 C 26.632731,9.087472 27,9.787835 27,10.622453 v 0.377495 l -1.952,0.0079 z"
       id="path64-7"
       sodipodi:nodetypes="csccsssssccccccccccccccccccsssccccccccccssccsssccscscccsccscccccccssccc"
       style="fill:#d6dbf1;fill-opacity:1;stroke-width:0.0557669" />
    <path
       d="M 25.031713,18.661997 H 24.78471 l -0.0013,-1.230993 c -0.0013,-1.341 -1.092002,-2.432006 -2.433002,-2.431003 -1.341,0.0013 -2.431999,1.092004 -2.431,2.433004 l 0.0025,1.230999 h -0.08791 c -0.460992,0.0013 -0.835,0.374991 -0.833996,0.835997 v 3.665004 C 19.000002,23.626007 19.374998,24 19.835998,24 l 5.198009,-0.0034 c 0.460994,0 0.834998,-0.373998 0.833997,-0.834999 v -3.665974 c 0,-0.460998 -0.374997,-0.833997 -0.835999,-0.833997 z m -4.213998,0.0025 -0.0025,-1.230997 c 0,-0.847001 0.687998,-1.536002 1.534999,-1.537003 0.846999,0 1.535998,0.689 1.535998,1.535 l 0.0025,1.231003 z"
       id="path2-3-3-5"
       style="fill:#d6dbf1;fill-opacity:1;stroke-width:0.100003" />
  </g>
  <metadata
     id="metadata18">
    <rdf:RDF>
      <cc:Work
         rdf:about="">
        <dc:format>image/svg+xml</dc:format>
        <dc:type
           rdf:resource="http://purl.org/dc/dcmitype/StillImage" />
      </cc:Work>
    </rdf:RDF>
  </metadata>
  <defs
     id="defs16">
    <linearGradient
       inkscape:collect="always"
       id="linearGradient848">
      <stop
         style="stop-color:#660029;stop-opacity:1"
         offset="0"
         id="stop844" />
      <stop
         style="stop-color:#b20048;stop-opacity:1"
         offset="1"
         id="stop846" />
    </linearGradient>
    <linearGradient
       inkscape:collect="always"
       xlink:href="#linearGradient848"
       id="linearGradient895"
       gradientUnits="userSpaceOnUse"
       gradientTransform="matrix(0.03232332,0,0,0.02930411,3.000002,3.713925)"
       x1="5.575531"
       y1="471.67694"
       x2="237.70486"
       y2="271.28119" />
  </defs>
  <sodipodi:namedview
     pagecolor="#ffffff"
     bordercolor="#666666"
     borderopacity="1"
     objecttolerance="10"
     gridtolerance="10"
     guidetolerance="10"
     inkscape:pageopacity="0"
     inkscape:pageshadow="2"
     inkscape:window-width="1920"
     inkscape:window-height="1007"
     id="namedview14"
     showgrid="false"
     inkscape:zoom="9.8125"
     inkscape:cx="37.197452"
     inkscape:cy="16.203822"
     inkscape:window-x="0"
     inkscape:window-y="0"
     inkscape:window-maximized="1"
     inkscape:current-layer="svg12"
     inkscape:document-rotation="0"
     inkscape:lockguides="true"
     inkscape:pagecheckerboard="0"
     inkscape:showpageshadow="2"
     inkscape:deskcolor="#d1d1d1">
    <inkscape:grid
       type="xygrid"
       id="grid868"
       originx="0"
       originy="0" />
  </sodipodi:namedview>
  <g
     id="22-22-plasmavault"
     transform="translate(32,10)">
    <rect
       style="opacity:0.00100002"
       width="22"
       height="22"
       x="0"
       y="0"
       id="rect2" />
    <rect
       style="fill:#4e5a7e;fill-opacity:0.501961;stroke:none;stroke-width:0.335516"
       id="center-3-3"
       width="15.025001"
       height="11.898001"
       x="3.5000014"
       y="5.8510003"
       ry="1.1331419"
       rx="1.0016695" />
    <path
       d="m 17.54173,5.61799 h -7.33168 c -0.162043,0 -0.30374,-0.08982 -0.405027,-0.2472 L 9.258147,4.471993 C 9.0759,4.157392 8.772033,4 8.44809,4 H 4.701237 C 3.769515,4 3,4.853978 3,5.887606 V 16.382015 C 3,17.258426 3.648177,18 4.458235,18 h 6.298762 v 0 0 0 0 0 0 0 h 0.486006 v 0 0 0 0 0 0 0 0 0 h 6.298762 C 18.331643,18 19,17.280815 19,16.382015 V 6.636 C 19,6 18.852202,5.618104 18.042,5.618104 Z M 11.243003,18 v 0 h -0.486006 v 0 0 z M 18,16 c 0,0 0.1,1 -0.7,1 H 4.8 C 3.9,17 4,16 4,16 V 12.764083 10 10 h 8 1 5 V 9 9 9 12.314675 Z M 18,8 V 8 9 9 H 12 4 V 9 7.230769 C 4,6.692308 4.000003,6.618 4.500003,6.618 h 4.000002 0.01073 0.739275 0.980268 7.33168 C 18.088505,6.618 18,6.65146 18,7.235694 v 0.831441 z"
       id="path64-6"
       sodipodi:nodetypes="csccsssssccccccccccccccccccsssccccccccccccccccsccscscccsccccccccccsscc"
       style="fill:#d6dbf1;fill-opacity:1;stroke-width:1" />
    <path
       d="m 17.021142,12.741331 h -0.164669 l -8.66e-4,-0.820662 c -8.67e-4,-0.894 -0.728002,-1.621337 -1.622002,-1.620668 -0.894,8.66e-4 -1.621332,0.728002 -1.620666,1.622002 l 0.0017,0.820666 h -0.05861 c -0.307328,8.67e-4 -0.556667,0.249994 -0.555998,0.557332 v 2.443336 c 0,0.307334 0.249998,0.556663 0.557331,0.556663 l 3.465339,-0.0023 c 0.30733,0 0.556666,-0.249332 0.555998,-0.556666 v -2.443982 c 0,-0.307332 -0.249998,-0.555998 -0.557332,-0.555998 z m -2.809332,0.0017 -0.0017,-0.820665 c 0,-0.564667 0.458666,-1.024001 1.023333,-1.024668 0.564666,0 1.023999,0.459333 1.023999,1.023333 l 0.0017,0.820669 z"
       id="path2-3-3-7"
       style="fill:#d6dbf1;fill-opacity:1;stroke-width:0.0666687" />
  </g>
</svg>
