<?xml version="1.0" encoding="UTF-8" standalone="no"?>
<svg
   width="32"
   height="32"
   version="1.1"
   id="svg12"
   sodipodi:docname="printer.svg"
   inkscape:version="1.1.1 (3bf5ae0d25, 2021-09-20)"
   xmlns:inkscape="http://www.inkscape.org/namespaces/inkscape"
   xmlns:sodipodi="http://sodipodi.sourceforge.net/DTD/sodipodi-0.dtd"
   xmlns="http://www.w3.org/2000/svg"
   xmlns:svg="http://www.w3.org/2000/svg"
   xmlns:rdf="http://www.w3.org/1999/02/22-rdf-syntax-ns#"
   xmlns:cc="http://creativecommons.org/ns#"
   xmlns:dc="http://purl.org/dc/elements/1.1/">
  <g
     id="22-22-printer"
     transform="translate(32,10.000001)">
    <rect
       style="opacity:0.00100002"
       width="22"
       height="22"
       x="0"
       y="0"
       id="rect2" />
    <path
       inkscape:connector-curvature="0"
       id="fill-3"
       d="m 6.516667,3.066667 c 0.04895,3.866097 0.533334,4.06664 -2.8,4.02 L 3.65,14.333333 C 7.65,15 4.983333,11.666667 6.983333,19 h 8 C 16.316667,15.666667 13.65,14.333333 18.316667,14.333333 L 18.050001,7 H 17.65 c -2.666667,0 -2,0 -2.333333,-3.933333 z"
       style="color:#1e92ff;fill:#4e5a7e;fill-opacity:0.501961;fill-rule:nonzero;stroke:none;stroke-width:2.85394"
       class="ColorScheme-ButtonFocus"
       sodipodi:nodetypes="cccccccccc" />
    <path
       d="M 17.964761,6.866091 H 16.103106 V 4.043529 c 0,-0.276713 -0.111204,-0.54214 -0.309315,-0.737822 C 15.595807,3.110031 15.327233,3 15.047261,3 H 6.917667 C 6.637687,3 6.369125,3.110031 6.171136,3.305707 5.973025,3.501383 5.861821,3.766822 5.861821,4.043529 V 6.866091 H 4.001899 C 3.807599,6.866091 3.65,7.021854 3.65,7.214008 v 7.067663 c 0,0.0922 0.03703,0.180754 0.103103,0.2459 0.06591,0.06527 0.155514,0.1019 0.248802,0.1019 h 2.030668 v 3.327 c 0,0.276713 0.11121,0.54214 0.309194,0.737822 C 6.539751,18.889969 6.808323,19 7.088297,19 h 7.788346 c 0.27998,0 0.54854,-0.110031 0.74653,-0.305707 0.19799,-0.195676 0.309194,-0.461115 0.309194,-0.737822 v -3.327 h 2.032394 c 0.09341,0 0.182887,-0.03663 0.248931,-0.1019 0.0659,-0.06515 0.102975,-0.153701 0.102975,-0.2459 V 7.214008 c 0,-0.09232 -0.03703,-0.180753 -0.102975,-0.24602 -0.06603,-0.06527 -0.155521,-0.1019 -0.248931,-0.1019 z M 6.565667,4.043529 c 0,-0.192158 0.157482,-0.347794 0.351898,-0.347794 h 8.129594 c 0.09341,0 0.182887,0.03663 0.248924,0.1019 0.06591,0.06515 0.102982,0.153702 0.102982,0.2459 V 6.866097 H 6.565612 Z m 8.662834,13.912968 c 0,0.0922 -0.03709,0.180753 -0.103103,0.245898 -0.06604,0.06527 -0.155521,0.101901 -0.248802,0.101901 H 7.088251 c -0.194308,0 -0.351901,-0.155642 -0.351901,-0.347793 v -5.577299 h 8.492206 z m 2.384293,-4.02265 h -1.680467 v -1.90266 c 0,-0.0922 -0.03703,-0.180632 -0.103103,-0.2459 -0.0659,-0.06527 -0.155515,-0.1019 -0.248803,-0.1019 H 6.384357 c -0.194306,0 -0.351899,0.155764 -0.351899,0.347794 v 1.90266 H 4.353684 V 7.561826 h 13.258982 z"
       id="path64-3-5"
       style="fill:#d6dbf1;fill-opacity:1;stroke-width:0.0312385" />
    <path
       inkscape:connector-curvature="0"
       style="fill:#d6dbf1;fill-opacity:1;stroke-width:0.909607"
       id="rect4119-6-6"
       d="m 10.091519,13.533333 c -0.125762,0 -0.227045,0.101583 -0.227045,0.227751 0,0.126174 0.101289,0.22775 0.227045,0.22775 0.125762,0 0.227048,-0.101577 0.227048,-0.22775 0,-0.126176 -0.101292,-0.227751 -0.227048,-0.227751 z m 1.589325,0 -0.454089,0.455501 0.68114,0.683249 -0.227051,0.227751 -0.227045,0.227749 -0.227044,0.22775 0.454089,0.4555 0.227051,-0.22775 0.227044,-0.22775 0.227044,-0.22775 0.454097,-0.4555 z m -2.15694,1.366501 c -0.188655,0 -0.340571,0.152363 -0.340571,0.341624 0,0.189261 0.151888,0.341625 0.340571,0.341625 0.188654,0 0.34057,-0.152364 0.34057,-0.341624 0,-0.189261 -0.151889,-0.341625 -0.34057,-0.341625 z m 1.021709,1.366499 c -0.25157,0 -0.454094,0.203154 -0.454094,0.4555 0,0.252347 0.202524,0.4555 0.454094,0.4555 0.251566,0 0.45409,-0.203153 0.45409,-0.4555 0,-0.252346 -0.202524,-0.4555 -0.45409,-0.4555 z" />
    <ellipse
       cx="16.256447"
       cy="8.8119993"
       style="fill:#00a3cc;fill-opacity:1;stroke-width:1.28204;stroke-linecap:round;stroke-linejoin:round"
       id="path4292-3-6-2"
       rx="0.64001733"
       ry="0.64200002"
       inkscape:transform-center-x="1.5217438"
       inkscape:transform-center-y="0.20306462" />
  </g>
  <metadata
     id="metadata18">
    <rdf:RDF>
      <cc:Work
         rdf:about="">
        <dc:format>image/svg+xml</dc:format>
        <dc:type
           rdf:resource="http://purl.org/dc/dcmitype/StillImage" />
      </cc:Work>
    </rdf:RDF>
  </metadata>
  <defs
     id="defs16" />
  <sodipodi:namedview
     pagecolor="#ffffff"
     bordercolor="#000000"
     borderopacity="1"
     objecttolerance="10"
     gridtolerance="10"
     guidetolerance="10"
     inkscape:pageopacity="0"
     inkscape:pageshadow="2"
     inkscape:window-width="1920"
     inkscape:window-height="1007"
     id="namedview14"
     showgrid="false"
     inkscape:zoom="11.313709"
     inkscape:cx="31.02431"
     inkscape:cy="15.600543"
     inkscape:window-x="0"
     inkscape:window-y="0"
     inkscape:window-maximized="1"
     inkscape:current-layer="svg12"
     inkscape:document-rotation="0"
     inkscape:lockguides="true"
     inkscape:pagecheckerboard="0"
     inkscape:showpageshadow="false">
    <inkscape:grid
       type="xygrid"
       id="grid908"
       originx="-1e-06"
       originy="-4.6325683e-08" />
  </sodipodi:namedview>
  <g
     id="printer">
    <rect
       style="opacity:0.00100002"
       width="32"
       height="32"
       x="0"
       y="0"
       id="rect7" />
    <path
       inkscape:connector-curvature="0"
       id="fill"
       d="m 9.300001,4.1 c 0.07342,5.799146 0.8,6.09996 -4.2,6.03 L 5,21 c 6,1 2,-4 5,7 h 12 c 2,-5 -2,-7 5,-7 L 26.600001,10 H 26 c -4,0 -3,0 -3.499999,-5.9 z"
       style="color:#1e92ff;fill:#4e5a7e;fill-opacity:0.501961;fill-rule:nonzero;stroke:none;stroke-width:4.28091"
       class="ColorScheme-ButtonFocus"
       sodipodi:nodetypes="cccccccccc" />
    <path
       d="M 26.472141,9.799136 H 23.679659 V 5.565293 c 0,-0.415069 -0.166806,-0.81321 -0.463973,-1.106733 C 22.918711,4.165046 22.51585,4 22.095891,4 H 9.9015 C 9.48153,4 9.078688,4.165046 8.781704,4.45856 8.484537,4.752074 8.317731,5.150233 8.317731,5.565293 V 9.799136 H 5.527848 C 5.236399,9.799136 5,10.032781 5,10.321012 v 10.601495 c 0,0.138298 0.05554,0.271131 0.154655,0.368849 0.09886,0.0979 0.233271,0.15285 0.373203,0.15285 h 3.046001 v 4.990501 c 0,0.415069 0.166816,0.81321 0.463791,1.106733 C 9.334626,27.834954 9.737485,28 10.157446,28 h 11.682518 c 0.41997,0 0.82281,-0.165046 1.119796,-0.45856 0.296985,-0.293514 0.463791,-0.691673 0.463791,-1.106733 v -4.990501 h 3.04859 c 0.140115,0 0.274331,-0.05495 0.373397,-0.15285 C 26.944388,21.193636 27,21.060805 27,20.922507 V 10.321012 c 0,-0.138479 -0.05555,-0.27113 -0.154462,-0.36903 -0.09905,-0.0979 -0.233282,-0.15285 -0.373397,-0.15285 z M 9.3735,5.565293 c 0,-0.288236 0.236224,-0.52169 0.527848,-0.52169 h 12.194391 c 0.140115,0 0.27433,0.05495 0.373386,0.15285 0.09886,0.09772 0.154472,0.230552 0.154472,0.368849 V 9.799146 H 9.373418 Z m 12.994252,20.869452 c 0,0.138297 -0.05564,0.27113 -0.154655,0.368848 -0.09906,0.0979 -0.233281,0.152851 -0.373203,0.152851 H 10.157376 c -0.291462,0 -0.527851,-0.233463 -0.527851,-0.52169 v -8.365948 h 12.738309 z m 3.576439,-6.033974 H 23.42349 V 17.54678 c 0,-0.138297 -0.05555,-0.270948 -0.154654,-0.368849 -0.09885,-0.0979 -0.233272,-0.15285 -0.373205,-0.15285 H 9.101535 c -0.291459,0 -0.527848,0.233645 -0.527848,0.52169 v 2.853991 H 6.055526 v -9.558023 h 19.888473 z"
       id="path64-3"
       style="fill:#d6dbf1;fill-opacity:1;stroke-width:0.0468578" />
    <path
       inkscape:connector-curvature="0"
       style="fill:#d6dbf1;fill-opacity:1;stroke-width:1.36441"
       id="rect4119-6"
       d="m 14.662278,19.8 c -0.188643,0 -0.340567,0.152374 -0.340567,0.341626 0,0.189261 0.151933,0.341625 0.340567,0.341625 0.188643,0 0.340572,-0.152366 0.340572,-0.341625 C 15.00285,19.952362 14.850912,19.8 14.662278,19.8 Z m 2.383988,0 -0.681134,0.683251 1.02171,1.024874 -0.340576,0.341626 -0.340567,0.341624 -0.340567,0.341625 0.681134,0.68325 0.340576,-0.341625 0.340567,-0.341625 0.340566,-0.341625 0.681145,-0.68325 z m -3.23541,2.049751 c -0.282983,0 -0.510856,0.228545 -0.510856,0.512436 0,0.283891 0.227832,0.512438 0.510856,0.512438 0.282981,0 0.510855,-0.228546 0.510855,-0.512437 0,-0.283891 -0.227833,-0.512437 -0.510855,-0.512437 z M 15.34342,23.8995 c -0.377356,0 -0.681142,0.30473 -0.681142,0.683249 0,0.378521 0.303786,0.683251 0.681142,0.683251 0.377349,0 0.681135,-0.30473 0.681135,-0.683251 0,-0.378519 -0.303786,-0.683249 -0.681135,-0.683249 z" />
    <ellipse
       cx="23.909668"
       cy="12.718003"
       style="fill:#00a3cc;fill-opacity:1;stroke-width:1.92306;stroke-linecap:round;stroke-linejoin:round"
       id="path4292-3-6"
       rx="0.96002603"
       ry="0.963"
       inkscape:transform-center-x="2.2826157"
       inkscape:transform-center-y="0.30459693" />
  </g>
</svg>
