<?xml version="1.0" encoding="UTF-8" standalone="no"?>
<svg
   width="32"
   height="32"
   version="1.1"
   id="svg12"
   sodipodi:docname="printer.svg"
   inkscape:version="1.1.2 (0a00cf5339, 2022-02-04)"
   xmlns:inkscape="http://www.inkscape.org/namespaces/inkscape"
   xmlns:sodipodi="http://sodipodi.sourceforge.net/DTD/sodipodi-0.dtd"
   xmlns="http://www.w3.org/2000/svg"
   xmlns:svg="http://www.w3.org/2000/svg"
   xmlns:rdf="http://www.w3.org/1999/02/22-rdf-syntax-ns#"
   xmlns:cc="http://creativecommons.org/ns#"
   xmlns:dc="http://purl.org/dc/elements/1.1/">
  <g
     id="22-22-printer"
     transform="translate(32,10.000001)">
    <rect
       style="opacity:0.00100002"
       width="22"
       height="22"
       x="0"
       y="0"
       id="rect2" />
    <path
       inkscape:connector-curvature="0"
       id="fill-3"
       d="M 6.5153509,4 C 6.5227188,6.933333 7,7.5515011 5,7.5240821 L 4.5396904,14.364026 C 8,14.476667 6.4642957,14 6.543693,18 h 8.775558 C 15.335918,14 14,14 17.469213,14 L 17.505729,8 17,7.4698436 C 15.602925,7.4475698 15.588196,7 15.617212,4 Z"
       style="color:#1e92ff;fill:#4e5a7e;fill-opacity:0.501961;fill-rule:nonzero;stroke:none;stroke-width:2.85394"
       class="ColorScheme-ButtonFocus"
       sodipodi:nodetypes="cccccccccc" />
    <path
       d="M 16,7 V 7 4.043529 C 16,3.766816 15.991902,3.501389 15.793791,3.305707 15.595807,3.110031 15.327233,3 15.047261,3 H 6.917667 C 6.637687,3 6.369125,3.110031 6.171136,3.305707 5.973025,3.501383 6.01353,3.767153 6,4.043529 V 7 H 5 C 4.4836239,7 4,7.4800138 4,8 v 6 0 c 0,0.652744 0.5147554,1 1,1 h 1 v 3 0 c 0,0.685036 0.4918816,1 1,1 h 8 v 0 c 0.532504,0 1,-0.442608 0.984139,-0.974771 L 16,15 h 1 v 0 c 0.598144,0 1,-0.354045 1,-1 V 8 C 18,7.5091472 17.614599,7 17,7 Z M 7,5 C 7,4 7,4 8,4 h 6 c 1,0 1,0 1,1 V 5 7 H 7 Z m 8,12 v 1 0 H 7 v 0 L 6.9687709,11.985555 15,12 Z m 2,-3 h -1 v -2 c 0,-0.561228 -0.41548,-1 -1,-1 v 0 H 7 c -0.5216938,0 -1,0 -1,1 v 2 H 5 V 8 h 12 z"
       id="path64-3-5"
       style="fill:#d6dbf1;fill-opacity:1;stroke-width:0.0312385"
       sodipodi:nodetypes="ccscsscscccccccccccccccccccccccccccccccccscccccccccscccc" />
    <path
       inkscape:connector-curvature="0"
       style="fill:#d6dbf1;fill-opacity:1;stroke-width:1.20913"
       id="rect4119-6-6"
       d="m 9.885262,12.686 c -0.167175,0 -0.301816,0.135039 -0.301816,0.302751 0,0.16773 0.134647,0.30275 0.301816,0.30275 0.167174,0 0.30182,-0.135021 0.30182,-0.30275 0,-0.167732 -0.134652,-0.302751 -0.30182,-0.302751 z m 2.112705,0 -0.603633,0.605501 0.905444,0.908249 -0.301811,0.302751 -0.301817,0.302749 -0.301816,0.30275 0.603633,0.6055 0.301811,-0.30275 0.301816,-0.30275 0.301816,-0.30275 0.603629,-0.6055 z m -2.8672428,1.816501 c -0.2507814,0 -0.4527242,0.202535 -0.4527242,0.454124 0,0.251589 0.2019064,0.454125 0.4527242,0.454125 0.2507792,0 0.4527218,-0.202536 0.4527218,-0.454124 0,-0.251589 -0.2019072,-0.454125 -0.4527218,-0.454125 z M 10.488888,16.319 c -0.334406,0 -0.603626,0.270054 -0.603626,0.6055 0,0.335447 0.26922,0.6055 0.603626,0.6055 0.334414,0 0.603622,-0.270053 0.603622,-0.6055 0,-0.335446 -0.269208,-0.6055 -0.603622,-0.6055 z" />
    <ellipse
       cx="16.022732"
       cy="9.4099874"
       style="fill:#00a3cc;fill-opacity:1;stroke-width:1.28204;stroke-linecap:round;stroke-linejoin:round"
       id="path4292-3-6-2"
       rx="0.64001733"
       ry="0.64200002"
       inkscape:transform-center-x="1.5217438"
       inkscape:transform-center-y="0.20306462" />
  </g>
  <metadata
     id="metadata18">
    <rdf:RDF>
      <cc:Work
         rdf:about="">
        <dc:format>image/svg+xml</dc:format>
        <dc:type
           rdf:resource="http://purl.org/dc/dcmitype/StillImage" />
      </cc:Work>
    </rdf:RDF>
  </metadata>
  <defs
     id="defs16" />
  <sodipodi:namedview
     pagecolor="#ffffff"
     bordercolor="#000000"
     borderopacity="1"
     objecttolerance="10"
     gridtolerance="10"
     guidetolerance="10"
     inkscape:pageopacity="0"
     inkscape:pageshadow="2"
     inkscape:window-width="1920"
     inkscape:window-height="1009"
     id="namedview14"
     showgrid="false"
     inkscape:zoom="8.0000004"
     inkscape:cx="29.874999"
     inkscape:cy="17.874999"
     inkscape:window-x="0"
     inkscape:window-y="0"
     inkscape:window-maximized="1"
     inkscape:current-layer="svg12"
     inkscape:document-rotation="0"
     inkscape:lockguides="true"
     inkscape:pagecheckerboard="0"
     inkscape:showpageshadow="false">
    <inkscape:grid
       type="xygrid"
       id="grid13611"
       originx="32"
       originy="10.000001" />
  </sodipodi:namedview>
  <g
     id="printer">
    <rect
       style="opacity:0.00100002"
       width="32"
       height="32"
       x="0"
       y="0"
       id="rect7" />
    <path
       inkscape:connector-curvature="0"
       id="fill"
       d="M 8.4907569,5 C 8.5641769,10.799146 10,10.606183 6,10.61128 V 21.404814 C 10,21.517448 10,22 10,28 l 13,-1 c 0,-2 -3,-6 3.366684,-6 L 26,10.481214 V 10 c -4,0 -2.484126,0.650081 -2.500391,-5 z"
       style="color:#1e92ff;fill:#4e5a7e;fill-opacity:0.501961;fill-rule:nonzero;stroke:none;stroke-width:4.28091"
       class="ColorScheme-ButtonFocus"
       sodipodi:nodetypes="cccccccccc" />
    <path
       d="M 26,10 H 24 V 6 C 24,5 23,4 22,4 V 4 H 10 V 4 C 9,4 8,5 8,6 v 4 H 5.9838159 C 5.4415797,10 5,10.400841 5,10.945349 V 21 21 c 0,0.546015 0.4170787,1 1,1 h 3 v 5 c 0,0.478245 0.4711778,1 1,1 v 0 h 12 v 0 c 0.562498,0 1,-0.420644 1,-1 v -5 h 3 v 0 c 0.551051,0 1,-0.438067 1,-1 V 11 c 0,-0.491382 -0.399999,-1 -1,-1 z M 9,6 C 9,5.3682028 9.4018308,5 10,5 h 12 v 0 c 0.554691,0.054428 1,0.4427929 1,0.9365881 V 10 H 9 Z m 13,21 v 0 0 H 10.157376 C 9.865914,27 10,26.722981 10,26.434754 V 18 h 12 z m 4,-6 h -3 v -3 c 0,-0.579948 -0.419227,-1 -1,-1 v 0 L 10,17.02508 C 9.2925132,17 9,17.340907 9,18 v 3 H 6 V 11 h 20 z"
       id="path64-3"
       style="fill:#d6dbf1;fill-opacity:1;stroke-width:0.0468578"
       sodipodi:nodetypes="cccccccccccccccccccccccccccccccccscccccssscccccccsssccc" />
    <path
       inkscape:connector-curvature="0"
       style="fill:#d6dbf1;fill-opacity:1;stroke-width:1.76377"
       id="rect4119-6"
       d="m 14.177046,19.117001 c -0.243859,0 -0.440263,0.196982 -0.440263,0.441626 0,0.244669 0.196413,0.441625 0.440263,0.441625 0.243859,0 0.440252,-0.196974 0.440252,-0.441625 0,-0.244672 -0.196402,-0.441626 -0.440252,-0.441626 z m 3.081828,0 -0.880526,0.883251 1.320782,1.324874 -0.440256,0.441626 -0.440263,0.441624 -0.440263,0.441625 0.880526,0.88325 0.440256,-0.441625 0.440263,-0.441625 0.440262,-0.441625 0.880521,-0.88325 z m -4.182482,2.649751 c -0.365815,0 -0.660392,0.295441 -0.660392,0.662436 0,0.366995 0.29452,0.662438 0.660392,0.662438 0.365813,0 0.660391,-0.295442 0.660391,-0.662437 0,-0.366995 -0.294521,-0.662437 -0.660391,-0.662437 z m 1.981172,2.649749 c -0.48782,0 -0.880518,0.39393 -0.880518,0.883249 0,0.489321 0.392698,0.883251 0.880518,0.883251 0.487813,0 0.880511,-0.39393 0.880511,-0.883251 0,-0.489319 -0.392698,-0.883249 -0.880511,-0.883249 z" />
    <ellipse
       cx="23.909668"
       cy="12.718003"
       style="fill:#00a3cc;fill-opacity:1;stroke-width:1.92306;stroke-linecap:round;stroke-linejoin:round"
       id="path4292-3-6"
       rx="0.96002603"
       ry="0.963"
       inkscape:transform-center-x="2.2826157"
       inkscape:transform-center-y="0.30459693" />
  </g>
</svg>
