<?xml version="1.0" encoding="UTF-8" standalone="no"?>
<svg
   style="enable-background:new"
   width="32"
   height="32"
   version="1.1"
   id="svg36"
   sodipodi:docname="qbittorrent.svg"
   inkscape:version="1.2.1 (9c6d41e410, 2022-07-14)"
   xmlns:inkscape="http://www.inkscape.org/namespaces/inkscape"
   xmlns:sodipodi="http://sodipodi.sourceforge.net/DTD/sodipodi-0.dtd"
   xmlns="http://www.w3.org/2000/svg"
   xmlns:svg="http://www.w3.org/2000/svg"
   xmlns:rdf="http://www.w3.org/1999/02/22-rdf-syntax-ns#"
   xmlns:cc="http://creativecommons.org/ns#"
   xmlns:dc="http://purl.org/dc/elements/1.1/">
  <g
     id="22-22-qbittorrent"
     transform="translate(32,10)">
    <path
       style="opacity:0"
       d="M 0,0 H 22 V 22 H 0 Z"
       id="path6" />
    <rect
       style="fill:#4e5a7e;fill-opacity:0.5;stroke:none;stroke-width:0.125825"
       id="center-3-35-5-6"
       width="5.033"
       height="5.033"
       x="3.5039999"
       y="8.4659996"
       ry="2.5164948" />
    <rect
       style="fill:#4e5a7e;fill-opacity:0.5;stroke:none;stroke-width:0.125825"
       id="center-3-35-5-7"
       width="5.033"
       height="5.033"
       x="13.522"
       y="8.5830002"
       ry="2.5164957" />
    <path
       style="fill:#919bbb;fill-opacity:1;enable-background:new"
       d="m 13,3 a 1,1 0 0 0 -1,1 v 11 h 2 V 14.458984 C 14.607485,14.81219 15.297298,14.998156 16,15 18.209139,15 20,13.209139 20,11 20,8.790861 18.209139,7 16,7 15.29748,7.0012 14.607679,7.186555 14,7.539062 V 4 A 1,1 0 0 0 13,3 Z m 3,6 c 1.104569,0 2,0.895431 2,2 0,1.104569 -0.895431,2 -2,2 -1.104569,0 -2,-0.895431 -2,-2 0,-1.104569 0.895431,-2 2,-2 z"
       id="path8-5" />
    <path
       style="fill:#d6dbf1;fill-opacity:1;enable-background:new"
       d="m 6,7 c -2.209139,0 -4,1.790861 -4,4 0,2.209139 1.790861,4 4,4 0.702523,-0.0013 1.392325,-0.188495 2,-0.541016 V 18 a 1,1 0 0 0 1,1 1,1 0 0 0 1,-1 V 7 H 8 V 7.541016 C 7.392515,7.187809 6.702702,7.001854 6,7 Z M 6,9 C 7.10457,9 8,9.895431 8,11 8,12.104569 7.10457,13 6,13 4.895431,13 4,12.104569 4,11 4,9.895431 4.895431,9 6,9 Z"
       id="path10-6" />
  </g>
  <g
     id="qbittorrent">
    <rect
       width="32"
       height="32"
       x="0"
       y="0"
       style="opacity:0.00100002"
       id="rect13" />
    <rect
       style="fill:#4e5a7e;fill-opacity:0.5;stroke:none;stroke-width:0.163325"
       id="center-3-35-5"
       width="6.533"
       height="6.533"
       x="5.6680002"
       y="12.784"
       ry="3.266494" />
    <rect
       style="fill:#4e5a7e;fill-opacity:0.5;stroke:none;stroke-width:0.163325"
       id="center-3-35-5-3"
       width="6.533"
       height="6.533"
       x="19.733999"
       y="12.833"
       ry="3.2664943" />
    <path
       style="fill:#d6dbf1;fill-opacity:1;stroke-width:1.1127;enable-background:new"
       d="M 8.958333,9.714286 C 5.667636,9.714286 3,12.528496 3,16 3,19.471503 5.667636,22.285714 8.958333,22.285714 9.900402,22.283514 11.161902,22.045374 12,21.591517 v 4.694196 c 0,0.946774 0.602537,1.714286 1.5,1.714286 0.897463,0 1.5,-0.767512 1.5,-1.714286 V 16 9 h -3 v 1.401785 C 11.161438,9.949909 9.899961,9.714632 8.958333,9.714286 Z M 8.958,13.142857 c 1.495771,0 2.908,1.279186 2.908,2.857143 0,1.577956 -1.411896,2.857142 -2.907667,2.857142 C 7.462561,18.857142 6.05,17.577956 6.05,16 c 0,-1.577957 1.412229,-2.857143 2.908,-2.857143 z"
       id="path25-5"
       inkscape:connector-curvature="0"
       sodipodi:nodetypes="csccssscccccsssss" />
    <path
       style="fill:#919bbb;fill-opacity:1;stroke-width:1.1127;enable-background:new"
       d="M 18.5,4 C 17.602538,4 16.950665,4.767543 16.958335,5.714286 L 17.000005,16 v 7 h 3 v -1.401786 c 0.838563,0.451877 2.100038,0.687153 3.041666,0.6875 3.290696,0 5.958333,-2.814211 5.958333,-6.285714 0,-3.471504 -2.667637,-6.285714 -5.958333,-6.285714 -0.942069,0.0022 -2.203568,0.240339 -3.041666,0.694196 V 5.714286 C 20.000005,4.767512 19.397468,4 18.500005,4 Z m 4.541666,9.142857 c 1.495771,0 2.908334,1.279186 2.908334,2.857143 0,1.577956 -1.412563,2.857142 -2.908334,2.857142 C 21.545895,18.857142 20.133,17.577956 20.133,16 c 0,-1.577957 1.412895,-2.857143 2.908666,-2.857143 z"
       id="path29-3"
       inkscape:connector-curvature="0"
       sodipodi:nodetypes="sscccccsccsssssss" />
  </g>
  <metadata
     id="metadata40">
    <rdf:RDF>
      <cc:Work
         rdf:about="">
        <dc:format>image/svg+xml</dc:format>
        <dc:type
           rdf:resource="http://purl.org/dc/dcmitype/StillImage" />
      </cc:Work>
    </rdf:RDF>
  </metadata>
  <sodipodi:namedview
     pagecolor="#ffffff"
     bordercolor="#000000"
     borderopacity="1"
     objecttolerance="10"
     gridtolerance="10"
     guidetolerance="10"
     inkscape:pageopacity="0"
     inkscape:pageshadow="2"
     inkscape:window-width="1920"
     inkscape:window-height="1004"
     id="namedview38"
     showgrid="false"
     inkscape:zoom="10.429825"
     inkscape:cx="31.160638"
     inkscape:cy="15.388561"
     inkscape:window-x="0"
     inkscape:window-y="0"
     inkscape:window-maximized="1"
     inkscape:current-layer="svg36"
     inkscape:lockguides="true"
     inkscape:document-rotation="0"
     inkscape:showpageshadow="2"
     inkscape:pagecheckerboard="0"
     inkscape:deskcolor="#cccccc">
    <inkscape:grid
       type="xygrid"
       id="grid923"
       originx="0"
       originy="0" />
  </sodipodi:namedview>
  <defs
     id="defs4">
    <linearGradient
       id="linearGradient5606"
       inkscape:swatch="solid">
      <stop
         id="stop5608"
         offset="0"
         style="stop-color:#000000" />
    </linearGradient>
  </defs>
</svg>
