<?xml version="1.0" encoding="UTF-8" standalone="no"?>
<svg
   width="32"
   height="32"
   viewBox="0 0 32 32"
   version="1.1"
   id="svg867"
   inkscape:version="1.1.1 (3bf5ae0d25, 2021-09-20)"
   sodipodi:docname="redshift.svg"
   xmlns:inkscape="http://www.inkscape.org/namespaces/inkscape"
   xmlns:sodipodi="http://sodipodi.sourceforge.net/DTD/sodipodi-0.dtd"
   xmlns="http://www.w3.org/2000/svg"
   xmlns:svg="http://www.w3.org/2000/svg"
   xmlns:rdf="http://www.w3.org/1999/02/22-rdf-syntax-ns#"
   xmlns:cc="http://creativecommons.org/ns#"
   xmlns:dc="http://purl.org/dc/elements/1.1/">
  <defs
     id="defs3871">
    <style
       type="text/css"
       id="current-color-scheme">
      .ColorScheme-Text {
        color:#31363b;
      }
      </style>
  </defs>
  <sodipodi:namedview
     inkscape:object-paths="true"
     guideopacity="0.62745098"
     guidecolor="#0000ff"
     inkscape:bbox-nodes="true"
     inkscape:snap-intersection-paths="true"
     inkscape:snap-bbox="true"
     id="base"
     pagecolor="#ffffff"
     bordercolor="#666666"
     borderopacity="1.0"
     inkscape:pageopacity="0.0"
     inkscape:pageshadow="2"
     inkscape:zoom="7.9195959"
     inkscape:cx="13.637059"
     inkscape:cy="17.235728"
     inkscape:document-units="px"
     inkscape:current-layer="layer1"
     inkscape:document-rotation="0"
     showgrid="false"
     inkscape:window-width="1920"
     inkscape:window-height="1007"
     inkscape:window-x="0"
     inkscape:window-y="0"
     inkscape:window-maximized="1"
     units="px"
     inkscape:snap-bbox-edge-midpoints="false"
     inkscape:lockguides="true"
     inkscape:pagecheckerboard="0">
    <inkscape:grid
       opacity="0.41960784"
       color="#3f3fff"
       type="xygrid"
       id="grid1448"
       originx="-3.5527137e-15"
       originy="0" />
  </sodipodi:namedview>
  <metadata
     id="metadata864">
    <rdf:RDF>
      <cc:Work
         rdf:about="">
        <dc:format>image/svg+xml</dc:format>
        <dc:type
           rdf:resource="http://purl.org/dc/dcmitype/StillImage" />
      </cc:Work>
    </rdf:RDF>
  </metadata>
  <g
     inkscape:label="Layer 1"
     inkscape:groupmode="layer"
     id="layer1">
    <g
       id="22-22-redshift-status-on">
      <g
         id="g2766">
        <rect
           y="10"
           x="-44"
           height="22"
           width="22"
           id="rect1467-9-7-9-9-4"
           style="opacity:0.003;fill:#a8aeca;fill-opacity:1" />
        <path
           d="m -34.642695,26.983517 c -0.106949,0 -0.211383,-0.01037 -0.314558,-0.02516 v 1.283403 h 3.145597 v 0.629121 h -3.145597 v 0.31456 c 0,0.173322 0.141236,0.31456 0.314558,0.31456 h 3.1456 c 0.173322,0 0.31456,-0.141238 0.31456,-0.31456 v -2.227083 c -0.103176,0.01478 -0.20761,0.02516 -0.31456,0.02516 z"
           id="path14-3"
           style="fill:#d6dbf1;fill-opacity:1;stroke-width:0.314559" />
        <rect
           style="fill:#4e5a7e;fill-opacity:0.499251;stroke:none;stroke-width:0.244748"
           id="center-3-35-6"
           width="9.7898302"
           height="9.7898302"
           x="-37.948181"
           y="13.485781"
           ry="4.8949075" />
        <circle
           cx="-33.044781"
           cy="18.423176"
           r="1.5998135"
           id="circle2-36-7-7"
           style="fill:#d6dbf1;fill-opacity:1;stroke-width:0.130066" />
        <path
           d="m -33.682135,16.68029 0.208106,-0.07804 -0.260132,-0.72837 c -0.02602,-0.06504 -0.09105,-0.09105 -0.143073,-0.06504 -0.05203,0.02602 -0.09105,0.09105 -0.06503,0.143073 z"
           id="path4-7-5-5"
           style="fill:#d6dbf1;fill-opacity:1;stroke-width:0.130066" />
        <path
           d="m -32.992785,15.132502 c 0,-0.06503 -0.05203,-0.117059 -0.117059,-0.117059 -0.06503,0 -0.104053,0.05203 -0.104053,0.117059 v 1.443735 h 0.234119 v -1.443735 z"
           id="path6-5-9-3"
           style="fill:#d6dbf1;fill-opacity:1;stroke-width:0.130066" />
        <path
           d="m -33.109844,21.713849 c 0,0.06503 0.05203,0.117059 0.117059,0.117059 0.06504,0 0.11706,-0.05203 0.11706,-0.117059 v -1.443733 h -0.234119 z"
           id="path8-3-2-5"
           style="fill:#d6dbf1;fill-opacity:1;stroke-width:0.130066" />
        <path
           d="m -32.407487,20.140049 -0.208106,0.07804 0.273139,0.72837 c 0.02602,0.06503 0.09105,0.09105 0.143073,0.06503 0.06504,-0.02602 0.09105,-0.09105 0.06504,-0.143073 z"
           id="path10-5-2-6"
           style="fill:#d6dbf1;fill-opacity:1;stroke-width:0.130066" />
        <path
           d="m -34.475538,17.239574 0.143073,-0.169086 -0.585298,-0.507258 c -0.05203,-0.03902 -0.117059,-0.03902 -0.15608,0.01301 -0.03902,0.05203 -0.03902,0.117059 0.01301,0.156079 z"
           id="path12-6-8-2"
           style="fill:#d6dbf1;fill-opacity:1;stroke-width:0.130066" />
        <path
           d="m -34.111353,16.914409 0.195099,-0.11706 -0.72837,-1.261642 c -0.02602,-0.05203 -0.104053,-0.07804 -0.15608,-0.03902 -0.05203,0.02601 -0.07804,0.104053 -0.03902,0.15608 z"
           id="path14-3-29-9-9"
           style="fill:#d6dbf1;fill-opacity:1;stroke-width:0.130066" />
        <path
           d="m -31.978269,19.931943 -0.195099,0.11706 0.728371,1.248634 c 0.02602,0.05203 0.104053,0.07804 0.156079,0.03902 0.05203,-0.02602 0.07804,-0.104053 0.03902,-0.15608 z"
           id="path16-1-7-1"
           style="fill:#d6dbf1;fill-opacity:1;stroke-width:0.130066" />
        <path
           d="m -31.640096,19.593771 -0.143073,0.169086 0.598304,0.507259 c 0.05201,0.03902 0.117057,0.03902 0.15608,-0.01301 0.03902,-0.05203 0.03902,-0.11706 -0.01299,-0.15608 z"
           id="path18-2-3-2"
           style="fill:#d6dbf1;fill-opacity:1;stroke-width:0.130066" />
        <path
           d="m -35.607114,17.746832 c -0.06503,-0.01301 -0.117059,0.02602 -0.130066,0.09105 -0.01301,0.06503 0.02602,0.11706 0.09105,0.130067 l 0.76739,0.130066 0.03902,-0.221113 z"
           id="path20-7-6-7"
           style="fill:#d6dbf1;fill-opacity:1;stroke-width:0.130066" />
        <path
           d="m -35.984305,16.927416 1.248634,0.72837 0.11706,-0.195099 -1.248634,-0.728371 c -0.05203,-0.02601 -0.130068,-0.01301 -0.156081,0.03902 -0.03902,0.05203 -0.013,0.11706 0.03902,0.15608 z"
           id="path22-0-1-0"
           style="fill:#d6dbf1;fill-opacity:1;stroke-width:0.130066" />
        <path
           d="m -30.105318,19.918937 -1.248633,-0.728372 -0.117059,0.1951 1.248635,0.72837 c 0.05201,0.02602 0.130069,0.01301 0.15608,-0.03902 0.02604,-0.05203 0.01299,-0.130067 -0.03902,-0.156079 z"
           id="path24-9-2-9"
           style="fill:#d6dbf1;fill-opacity:1;stroke-width:0.130066" />
        <path
           d="m -30.508523,19.086513 c 0.06506,0.01301 0.117063,-0.02602 0.130068,-0.09105 0.01299,-0.06503 -0.02604,-0.11706 -0.09104,-0.130067 l -0.767391,-0.130067 -0.03902,0.221113 z"
           id="path26-3-9-3"
           style="fill:#d6dbf1;fill-opacity:1;stroke-width:0.130066" />
        <path
           d="m -35.672147,19.255599 c 0.02602,0.06503 0.09105,0.09105 0.143073,0.06503 l 0.72837,-0.273139 -0.07804,-0.208106 -0.72837,0.273139 c -0.05203,0.02602 -0.07804,0.09105 -0.06503,0.143073 z"
           id="path28-60-3-6"
           style="fill:#d6dbf1;fill-opacity:1;stroke-width:0.130066" />
        <path
           d="m -34.89175,18.358142 h -1.443733 c -0.06504,0 -0.11706,0.05203 -0.11706,0.11706 0,0.06503 0.05203,0.11706 0.11706,0.11706 h 1.443733 z"
           id="path30-6-1-0"
           style="fill:#d6dbf1;fill-opacity:1;stroke-width:0.130066" />
        <path
           d="m -29.754135,18.254089 h -1.443735 v 0.23412 h 1.443735 c 0.06506,0 0.117056,-0.05203 0.117056,-0.11706 0,-0.06503 -0.05201,-0.11706 -0.117056,-0.11706 z"
           id="path32-2-9-6"
           style="fill:#d6dbf1;fill-opacity:1;stroke-width:0.130066" />
        <path
           d="m -30.443489,17.590753 c -0.02604,-0.06504 -0.09105,-0.09105 -0.143074,-0.06504 l -0.728368,0.27314 0.07804,0.208105 0.728368,-0.273138 c 0.05201,-0.02602 0.07804,-0.09105 0.06506,-0.143073 z"
           id="path34-6-4-2"
           style="fill:#d6dbf1;fill-opacity:1;stroke-width:0.130066" />
        <path
           d="m -34.241419,19.840897 -0.169087,-0.143073 -0.507257,0.598305 c -0.03902,0.05203 -0.03902,0.117058 0.013,0.156078 0.05203,0.03902 0.11706,0.03902 0.15608,-0.013 z"
           id="path36-1-7-6"
           style="fill:#d6dbf1;fill-opacity:1;stroke-width:0.130066" />
        <path
           d="m -34.670637,19.294619 -1.248635,0.728371 c -0.05203,0.02602 -0.07804,0.104052 -0.03902,0.156079 0.03902,0.05203 0.104053,0.07804 0.156079,0.03902 l 1.248634,-0.728369 z"
           id="path38-8-8-1"
           style="fill:#d6dbf1;fill-opacity:1;stroke-width:0.130066" />
        <path
           d="m -31.418984,17.551732 1.248638,-0.728369 c 0.05201,-0.02601 0.07804,-0.104053 0.03902,-0.15608 -0.03902,-0.05203 -0.104058,-0.07804 -0.15608,-0.03902 l -1.248638,0.728372 z"
           id="path40-7-4-8"
           style="fill:#d6dbf1;fill-opacity:1;stroke-width:0.130066" />
        <path
           d="m -31.874216,17.005455 0.169086,0.143073 0.50726,-0.598304 c 0.03902,-0.05203 0.03902,-0.11706 -0.01299,-0.15608 -0.05203,-0.03902 -0.117061,-0.03902 -0.156081,0.01301 z"
           id="path42-9-5-7"
           style="fill:#d6dbf1;fill-opacity:1;stroke-width:0.130066" />
        <path
           d="m -33.721154,20.972472 c -0.01301,0.06503 0.02602,0.11706 0.09105,0.130067 0.06504,0.013 0.11706,-0.02602 0.130067,-0.09105 l 0.130066,-0.76739 -0.221113,-0.03902 z"
           id="path44-2-0-9"
           style="fill:#d6dbf1;fill-opacity:1;stroke-width:0.130066" />
        <path
           d="m -34.748677,21.245611 c -0.02602,0.05203 -0.01301,0.130066 0.03902,0.156079 0.05203,0.02602 0.130066,0.01301 0.156079,-0.03902 l 0.72837,-1.248635 -0.1951,-0.11706 z"
           id="path46-0-3-2"
           style="fill:#d6dbf1;fill-opacity:1;stroke-width:0.130066" />
        <path
           d="m -31.353951,15.600741 c 0.02602,-0.05203 0.013,-0.130067 -0.03902,-0.15608 -0.05203,-0.02602 -0.130067,-0.013 -0.15608,0.03902 l -0.72837,1.248634 0.1951,0.11706 z"
           id="path48-2-6-0"
           style="fill:#d6dbf1;fill-opacity:1;stroke-width:0.130066" />
        <path
           d="m -32.381474,15.886886 c 0.013,-0.06503 -0.02602,-0.117059 -0.09105,-0.130066 -0.06503,-0.01301 -0.11706,0.02601 -0.130067,0.09105 l -0.130066,0.767391 0.221112,0.03902 z"
           id="path50-3-1-2"
           style="fill:#d6dbf1;fill-opacity:1;stroke-width:0.130066" />
        <path
           d="m -27.733053,15.909839 c -0.955588,-2.075325 -3.030054,-3.406236 -5.314824,-3.409839 -3.237151,0.0051 -5.857215,2.633431 -5.852116,5.870543 0.0035,2.28476 1.334529,4.359203 3.409878,5.314776 v 1.514168 c 0,0.269769 0.218673,0.488439 0.488447,0.488439 h 3.907578 c 0.269774,0 0.488447,-0.21867 0.488447,-0.488439 v -1.514168 c 2.94039,-1.353899 4.226503,-4.835127 2.87259,-7.77548 z m -0.766923,4.224052 c -0.496384,1.272148 -1.502678,2.27843 -2.77484,2.774807 h 0.0051 c -0.187893,0.0725 -0.312052,0.252863 -0.312632,0.454253 v 1.348094 h -2.930841 v -1.348094 c -5.83e-4,-0.20139 -0.12474,-0.38175 -0.31261,-0.454253 -2.513116,-0.980578 -3.755451,-3.812725 -2.774863,-6.325785 0.980587,-2.513063 3.812757,-3.755383 6.325847,-2.774806 2.513092,0.980576 3.755425,3.812709 2.774839,6.325784 z"
           id="path2-3"
           style="fill:#d6dbf1;fill-opacity:1;stroke-width:0.0305278" />
        <path
           inkscape:connector-curvature="0"
           id="fill-7"
           d="m -34.61695,23.037665 v 1.699623 h 3.127307 v -1.699623 c -0.852902,0.261062 -2.274405,0.261062 -3.127307,0 z"
           style="color:#1e92ff;fill:#4e5a7e;fill-opacity:0.501961;fill-rule:nonzero;stroke:none;stroke-width:0.652087"
           class="ColorScheme-ButtonFocus"
           sodipodi:nodetypes="ccccc" />
      </g>
    </g>
    <g
       id="22-22-redshift-status-off">
      <rect
         style="opacity:0.003;fill:#a8aeca;fill-opacity:1"
         id="rect1467-9-7-9-9-4-67"
         width="22"
         height="22"
         x="-22"
         y="10" />
      <path
         d="m -12.642695,26.983518 c -0.10695,0 -0.211383,-0.01037 -0.314559,-0.02516 v 1.283403 h 3.1456014 v 0.62912 h -3.1456014 v 0.31456 c 0,0.173323 0.141236,0.314561 0.314559,0.314561 h 3.1456046 c 0.1733228,0 0.3145602,-0.141238 0.3145602,-0.314561 v -2.227083 c -0.1031754,0.01478 -0.2076098,0.02516 -0.3145602,0.02516 z"
         id="path14-5-5"
         style="fill:#d6dbf1;fill-opacity:1;stroke-width:0.314559" />
      <rect
         style="fill:#4e5a7e;fill-opacity:0.499251;stroke:none;stroke-width:0.244748"
         id="center-3-35-9-5"
         width="9.7898302"
         height="9.7898302"
         x="-15.948203"
         y="13.485779"
         ry="4.8949075" />
      <path
         d="M -5.7330479,15.909839 C -6.6886359,13.834514 -8.7631016,12.503603 -11.047877,12.5 c -3.237151,0.0051 -5.857215,2.633431 -5.852116,5.870543 0.0035,2.28476 1.334529,4.359203 3.409878,5.314776 v 1.514169 c 0,0.269769 0.218673,0.488439 0.488447,0.488439 h 3.9075838 c 0.2697738,0 0.4884465,-0.21867 0.4884465,-0.488439 v -1.514169 c 2.9403898,-1.353899 4.226503,-4.835127 2.8725898,-7.77548 z m -0.7669223,4.224052 c -0.4963845,1.272148 -1.5026785,2.27843 -2.7748404,2.774807 h 0.0051 c -0.1878934,0.0725 -0.3120532,0.252863 -0.3126332,0.454253 v 1.348094 h -2.9308452 v -1.348094 c -5.83e-4,-0.20139 -0.12474,-0.38175 -0.312611,-0.454253 -2.513115,-0.980578 -3.75545,-3.812725 -2.774862,-6.325785 0.980587,-2.513063 3.812756,-3.755383 6.3258524,-2.774806 2.5130917,0.980576 3.7554252,3.812709 2.7748405,6.325784 z"
         id="path2-6-4"
         style="fill:#d6dbf1;fill-opacity:1;stroke-width:0.0305278" />
      <path
         inkscape:connector-curvature="0"
         id="fill-1-7"
         d="m -12.61695,23.037665 v 1.699624 h 3.1273116 v -1.699624 c -0.8529076,0.261062 -2.2744096,0.261062 -3.1273116,0 z"
         style="color:#1e92ff;fill:#4e5a7e;fill-opacity:0.501961;fill-rule:nonzero;stroke:none;stroke-width:0.652087"
         class="ColorScheme-ButtonFocus"
         sodipodi:nodetypes="ccccc" />
    </g>
    <g
       id="redshift-status-on">
      <rect
         y="0"
         x="3.5527137e-15"
         height="32"
         width="32"
         id="rect910"
         style="opacity:0.003;fill:#a8aeca;fill-opacity:1;stroke-width:1" />
      <path
         d="m 13.662132,24.80401 c -0.157314,0 -0.310927,-0.01526 -0.462689,-0.03701 v 1.887776 h 4.626904 v 0.925382 h -4.626904 v 0.462691 c 0,0.254942 0.207746,0.462691 0.462689,0.462691 h 4.626907 c 0.254942,0 0.46269,-0.207749 0.46269,-0.462691 v -3.275848 c -0.151762,0.02174 -0.305376,0.03701 -0.46269,0.03701 z"
         id="path14"
         style="fill:#d6dbf1;fill-opacity:1;stroke-width:0.46269" />
      <rect
         style="fill:#4e5a7e;fill-opacity:0.499251;stroke:none;stroke-width:0.360004"
         id="center-3-35"
         width="14.4"
         height="14.4"
         x="8.8000002"
         y="4.9499998"
         ry="7.1999884" />
      <circle
         cx="16.012484"
         cy="12.212481"
         r="2.3531883"
         id="circle2-36-7"
         style="fill:#d6dbf1;fill-opacity:1;stroke-width:0.191316" />
      <path
         d="m 15.075032,9.648847 0.306107,-0.11479 -0.382632,-1.07137 c -0.03827,-0.09566 -0.133922,-0.133922 -0.210448,-0.09566 -0.07653,0.03827 -0.133922,0.133921 -0.09566,0.210448 z"
         id="path4-7-5"
         style="fill:#d6dbf1;fill-opacity:1;stroke-width:0.191316" />
      <path
         d="M 16.089008,7.372185 C 16.089008,7.276525 16.012478,7.2 15.916824,7.2 15.821164,7.2 15.76377,7.27653 15.76377,7.372185 v 2.123609 h 0.34437 V 7.372185 Z"
         id="path6-5-9"
         style="fill:#d6dbf1;fill-opacity:1;stroke-width:0.191316" />
      <path
         d="m 15.916824,17.052781 c 0,0.09566 0.07653,0.172184 0.172184,0.172184 0.09566,0 0.172185,-0.07653 0.172185,-0.172184 v -2.123608 h -0.344369 z"
         id="path8-3-2"
         style="fill:#d6dbf1;fill-opacity:1;stroke-width:0.191316" />
      <path
         d="m 16.94993,14.737856 -0.306105,0.114789 0.401764,1.07137 c 0.03827,0.09566 0.133922,0.133922 0.210448,0.09566 0.09566,-0.03827 0.133921,-0.133922 0.09566,-0.210448 z"
         id="path10-5-2"
         style="fill:#d6dbf1;fill-opacity:1;stroke-width:0.191316" />
      <path
         d="M 13.908005,10.471507 14.118453,10.222795 13.25753,9.476663 c -0.07653,-0.0574 -0.172184,-0.0574 -0.22958,0.01913 -0.05739,0.07653 -0.05739,0.172184 0.01913,0.229579 z"
         id="path12-6-8"
         style="fill:#d6dbf1;fill-opacity:1;stroke-width:0.191316" />
      <path
         d="m 14.44369,9.993216 0.286974,-0.172184 -1.07137,-1.855767 c -0.03827,-0.07653 -0.153053,-0.11479 -0.22958,-0.05739 -0.07653,0.03826 -0.11479,0.153053 -0.05739,0.22958 z"
         id="path14-3-29-9"
         style="fill:#d6dbf1;fill-opacity:1;stroke-width:0.191316" />
      <path
         d="m 17.581274,14.43175 -0.286974,0.172185 1.071371,1.836634 c 0.03827,0.07653 0.153052,0.11479 0.229579,0.05739 0.07653,-0.03827 0.114793,-0.153053 0.05739,-0.22958 z"
         id="path16-1-7"
         style="fill:#d6dbf1;fill-opacity:1;stroke-width:0.191316" />
      <path
         d="m 18.078697,13.934328 -0.210448,0.248711 0.880054,0.746134 c 0.0765,0.05739 0.17218,0.05739 0.22958,-0.01913 0.0574,-0.07653 0.0574,-0.172185 -0.0191,-0.22958 z"
         id="path18-2-3"
         style="fill:#d6dbf1;fill-opacity:1;stroke-width:0.191316" />
      <path
         d="m 12.243554,11.217639 c -0.09566,-0.01913 -0.172184,0.03827 -0.191316,0.133921 -0.01913,0.09566 0.03827,0.172185 0.133921,0.191317 l 1.128765,0.191316 0.05739,-0.325238 z"
         id="path20-7-6"
         style="fill:#d6dbf1;fill-opacity:1;stroke-width:0.191316" />
      <path
         d="m 11.688738,10.012348 1.836634,1.07137 0.172185,-0.286974 -1.836634,-1.071371 c -0.07653,-0.03826 -0.191318,-0.01913 -0.229581,0.05739 -0.05739,0.07653 -0.01913,0.172185 0.05739,0.22958 z"
         id="path22-0-1"
         style="fill:#d6dbf1;fill-opacity:1;stroke-width:0.191316" />
      <path
         d="m 20.336223,14.412619 -1.836632,-1.071372 -0.172184,0.286975 1.836636,1.07137 c 0.0765,0.03827 0.19132,0.01913 0.22958,-0.05739 0.0383,-0.07653 0.0191,-0.191317 -0.0574,-0.229579 z"
         id="path24-9-2"
         style="fill:#d6dbf1;fill-opacity:1;stroke-width:0.191316" />
      <path
         d="m 19.743143,13.188195 c 0.0957,0.01913 0.17219,-0.03827 0.19132,-0.13392 0.0191,-0.09566 -0.0383,-0.172185 -0.13392,-0.191317 l -1.128767,-0.191317 -0.05739,0.325238 z"
         id="path26-3-9"
         style="fill:#d6dbf1;fill-opacity:1;stroke-width:0.191316" />
      <path
         d="m 12.147896,13.436906 c 0.03827,0.09566 0.133921,0.133922 0.210448,0.09566 l 1.07137,-0.401764 -0.11479,-0.306107 -1.07137,0.401764 c -0.07653,0.03827 -0.11479,0.133922 -0.09566,0.210448 z"
         id="path28-60-3"
         style="fill:#d6dbf1;fill-opacity:1;stroke-width:0.191316" />
      <path
         d="m 13.295793,12.116824 h -2.123608 c -0.09566,0 -0.172185,0.07653 -0.172185,0.172185 0,0.09566 0.07653,0.172185 0.172185,0.172185 h 2.123608 z"
         id="path30-6-1"
         style="fill:#d6dbf1;fill-opacity:1;stroke-width:0.191316" />
      <path
         d="m 20.852783,11.963771 h -2.12361 v 0.34437 h 2.12361 c 0.0957,0 0.17218,-0.07653 0.17218,-0.172185 0,-0.09566 -0.0765,-0.172185 -0.17218,-0.172185 z"
         id="path32-2-9"
         style="fill:#d6dbf1;fill-opacity:1;stroke-width:0.191316" />
      <path
         d="m 19.838803,10.98806 c -0.0383,-0.09566 -0.13392,-0.133922 -0.21045,-0.09566 l -1.071366,0.401765 0.114789,0.306105 1.071367,-0.401763 c 0.0765,-0.03827 0.11479,-0.133922 0.0957,-0.210448 z"
         id="path34-6-4"
         style="fill:#d6dbf1;fill-opacity:1;stroke-width:0.191316" />
      <path
         d="m 14.252374,14.297829 -0.248712,-0.210448 -0.746132,0.880055 c -0.05739,0.07653 -0.05739,0.172183 0.01913,0.229578 0.07653,0.05739 0.172185,0.05739 0.22958,-0.01913 z"
         id="path36-1-7"
         style="fill:#d6dbf1;fill-opacity:1;stroke-width:0.191316" />
      <path
         d="m 13.621031,13.494301 -1.836635,1.071371 c -0.07653,0.03827 -0.114791,0.153052 -0.05739,0.229579 0.05739,0.07653 0.153053,0.11479 0.229578,0.05739 l 1.836634,-1.071367 z"
         id="path38-8-8"
         style="fill:#d6dbf1;fill-opacity:1;stroke-width:0.191316" />
      <path
         d="m 18.403934,10.930664 1.836639,-1.071369 c 0.0765,-0.03826 0.11479,-0.153053 0.0574,-0.22958 -0.0574,-0.07653 -0.15306,-0.11479 -0.22958,-0.05739 l -1.836639,1.071372 z"
         id="path40-7-4"
         style="fill:#d6dbf1;fill-opacity:1;stroke-width:0.191316" />
      <path
         d="m 17.734327,10.127137 0.248711,0.210448 0.746135,-0.880054 c 0.0574,-0.07653 0.0574,-0.172185 -0.0191,-0.229579 -0.07653,-0.0574 -0.172186,-0.0574 -0.229581,0.01913 z"
         id="path42-9-5"
         style="fill:#d6dbf1;fill-opacity:1;stroke-width:0.191316" />
      <path
         d="m 15.017639,15.962279 c -0.01913,0.09566 0.03827,0.172185 0.13392,0.191317 0.09566,0.01913 0.172185,-0.03827 0.191317,-0.133922 l 0.191316,-1.128765 -0.325238,-0.05739 z"
         id="path44-2-0"
         style="fill:#d6dbf1;fill-opacity:1;stroke-width:0.191316" />
      <path
         d="m 13.506241,16.364042 c -0.03827,0.07653 -0.01913,0.191317 0.05739,0.22958 0.07653,0.03827 0.191316,0.01913 0.229579,-0.05739 l 1.07137,-1.836635 -0.286975,-0.172185 z"
         id="path46-0-3"
         style="fill:#d6dbf1;fill-opacity:1;stroke-width:0.191316" />
      <path
         d="m 18.499591,8.060923 c 0.03827,-0.07653 0.01913,-0.191316 -0.05739,-0.229579 -0.07653,-0.03827 -0.191317,-0.01913 -0.22958,0.05739 l -1.07137,1.836634 0.286975,0.172185 z"
         id="path48-2-6"
         style="fill:#d6dbf1;fill-opacity:1;stroke-width:0.191316" />
      <path
         d="m 16.988193,8.481819 c 0.01913,-0.09566 -0.03827,-0.172185 -0.133919,-0.191317 -0.09566,-0.01913 -0.172185,0.03826 -0.191317,0.133922 l -0.191317,1.128765 0.325238,0.05739 z"
         id="path50-3-1"
         style="fill:#d6dbf1;fill-opacity:1;stroke-width:0.191316" />
      <path
         d="M 23.825621,8.51558 C 22.420033,5.4629546 19.368672,3.5052985 16.007972,3.5 11.2464,3.50746 7.3925125,7.3735508 7.4000109,12.135064 c 0.00524,3.360687 1.9629786,6.412014 5.0156391,7.81758 v 2.227211 c 0,0.396807 0.321649,0.718452 0.718463,0.718452 h 5.747712 c 0.396814,0 0.718463,-0.321645 0.718463,-0.718452 v -2.227211 c 4.325061,-1.99147 6.216823,-7.112057 4.225333,-11.437064 z m -1.128077,6.213218 c -0.730139,1.87122 -2.210311,3.351375 -4.081552,4.081503 h 0.0075 c -0.276374,0.106645 -0.459001,0.371939 -0.459854,0.668167 v 1.98293 h -4.311016 v -1.98293 C 13.851764,19.18224 13.66914,18.916946 13.392799,18.810301 9.6962219,17.367955 7.8688536,13.20211 9.3112152,9.505614 10.753574,5.8091147 14.919452,3.9817689 18.615992,5.4241126 22.312534,6.8664563 24.1399,11.03228 22.697544,14.728798 Z"
         id="path2"
         style="fill:#d6dbf1;fill-opacity:1;stroke-width:0.0449037" />
      <path
         inkscape:connector-curvature="0"
         id="fill"
         d="m 13.7,19 v 2.5 h 4.6 V 19 c -1.254546,0.384 -3.345454,0.384 -4.6,0 z"
         style="color:#1e92ff;fill:#4e5a7e;fill-opacity:0.501961;fill-rule:nonzero;stroke:none;stroke-width:0.959164"
         class="ColorScheme-ButtonFocus"
         sodipodi:nodetypes="ccccc" />
    </g>
    <g
       id="redshift-status-off">
      <rect
         style="opacity:0.003;fill:#a8aeca;fill-opacity:1;stroke-width:1"
         id="rect1033"
         width="32"
         height="32"
         x="32"
         y="0" />
      <path
         d="m 45.662132,24.80401 c -0.157314,0 -0.310927,-0.01526 -0.462689,-0.03701 v 1.887776 h 4.626904 v 0.925382 h -4.626904 v 0.462691 c 0,0.254942 0.207746,0.462691 0.462689,0.462691 h 4.626907 c 0.254942,0 0.46269,-0.207749 0.46269,-0.462691 v -3.275848 c -0.151762,0.02174 -0.305376,0.03701 -0.46269,0.03701 z"
         id="path14-5"
         style="fill:#d6dbf1;fill-opacity:1;stroke-width:0.46269" />
      <rect
         style="fill:#4e5a7e;fill-opacity:0.499251;stroke:none;stroke-width:0.360004"
         id="center-3-35-9"
         width="14.4"
         height="14.4"
         x="40.800003"
         y="4.9500008"
         ry="7.1999884" />
      <path
         d="M 55.825621,8.51558 C 54.420033,5.462955 51.368672,3.505299 48.007972,3.5 c -4.761572,0.0075 -8.61546,3.873551 -8.607961,8.635064 0.0052,3.360687 1.962978,6.412014 5.015639,7.81758 v 2.227211 c 0,0.396807 0.321649,0.718452 0.718463,0.718452 h 5.747712 c 0.396814,0 0.718463,-0.321645 0.718463,-0.718452 v -2.227211 c 4.325061,-1.99147 6.216823,-7.112057 4.225333,-11.437064 z m -1.128077,6.213218 c -0.730139,1.87122 -2.210311,3.351375 -4.081552,4.081503 h 0.0075 c -0.276374,0.106645 -0.459001,0.371939 -0.459854,0.668167 v 1.98293 h -4.311016 v -1.98293 C 45.851764,19.18224 45.66914,18.916946 45.392799,18.810301 41.696222,17.367955 39.868854,13.20211 41.311215,9.505614 c 1.442359,-3.696499 5.608237,-5.523845 9.304777,-4.081501 3.696542,1.442343 5.523908,5.608167 4.081552,9.304685 z"
         id="path2-6"
         style="fill:#d6dbf1;fill-opacity:1;stroke-width:0.0449037" />
      <path
         inkscape:connector-curvature="0"
         id="fill-1"
         d="m 45.7,19 v 2.5 h 4.6 V 19 c -1.254546,0.384 -3.345454,0.384 -4.6,0 z"
         style="color:#1e92ff;fill:#4e5a7e;fill-opacity:0.501961;fill-rule:nonzero;stroke:none;stroke-width:0.959164"
         class="ColorScheme-ButtonFocus"
         sodipodi:nodetypes="ccccc" />
    </g>
  </g>
</svg>
