<?xml version="1.0" encoding="UTF-8" standalone="no"?>
<svg
   width="32"
   height="32"
   viewBox="0 0 32 32"
   version="1.1"
   id="svg867"
   inkscape:version="1.1.2 (0a00cf5339, 2022-02-04)"
   sodipodi:docname="redshift.svg"
   xmlns:inkscape="http://www.inkscape.org/namespaces/inkscape"
   xmlns:sodipodi="http://sodipodi.sourceforge.net/DTD/sodipodi-0.dtd"
   xmlns="http://www.w3.org/2000/svg"
   xmlns:svg="http://www.w3.org/2000/svg"
   xmlns:rdf="http://www.w3.org/1999/02/22-rdf-syntax-ns#"
   xmlns:cc="http://creativecommons.org/ns#"
   xmlns:dc="http://purl.org/dc/elements/1.1/">
  <defs
     id="defs3871">
    <style
       type="text/css"
       id="current-color-scheme">
      .ColorScheme-Text {
        color:#31363b;
      }
      </style>
  </defs>
  <sodipodi:namedview
     inkscape:object-paths="true"
     guideopacity="0.62745098"
     guidecolor="#0000ff"
     inkscape:bbox-nodes="true"
     inkscape:snap-intersection-paths="true"
     inkscape:snap-bbox="true"
     id="base"
     pagecolor="#ffffff"
     bordercolor="#666666"
     borderopacity="1.0"
     inkscape:pageopacity="0.0"
     inkscape:pageshadow="2"
     inkscape:zoom="8"
     inkscape:cx="4.6875"
     inkscape:cy="31.875"
     inkscape:document-units="px"
     inkscape:current-layer="layer1"
     inkscape:document-rotation="0"
     showgrid="false"
     inkscape:window-width="1920"
     inkscape:window-height="1009"
     inkscape:window-x="0"
     inkscape:window-y="0"
     inkscape:window-maximized="1"
     units="px"
     inkscape:snap-bbox-edge-midpoints="false"
     inkscape:lockguides="false"
     inkscape:pagecheckerboard="0">
    <inkscape:grid
       opacity="0.41960784"
       color="#3f3fff"
       type="xygrid"
       id="grid1448"
       originx="0"
       originy="0" />
  </sodipodi:namedview>
  <metadata
     id="metadata864">
    <rdf:RDF>
      <cc:Work
         rdf:about="">
        <dc:format>image/svg+xml</dc:format>
        <dc:type
           rdf:resource="http://purl.org/dc/dcmitype/StillImage" />
      </cc:Work>
    </rdf:RDF>
  </metadata>
  <g
     inkscape:label="Layer 1"
     inkscape:groupmode="layer"
     id="layer1">
    <g
       id="22-22-redshift-status-on">
      <rect
         y="10"
         x="-44"
         height="22"
         width="22"
         id="rect1467-9-7-9-9-4"
         style="opacity:0.003;fill:#a8aeca;fill-opacity:1" />
      <rect
         style="fill:#4e5a7e;fill-opacity:0.499251;stroke:none;stroke-width:0.257203"
         id="center-3-35-6"
         width="10.49"
         height="10.09"
         x="-38.248001"
         y="13.586"
         ry="5.044992" />
      <circle
         cx="-33.044781"
         cy="18.423176"
         r="1.5998135"
         id="circle2-36-7-7"
         style="fill:#d6dbf1;fill-opacity:1;stroke-width:0.130066" />
      <path
         d="m -33.682135,16.68029 0.208106,-0.07804 -0.260132,-0.72837 c -0.02602,-0.06504 -0.09105,-0.09105 -0.143073,-0.06504 -0.05203,0.02602 -0.09105,0.09105 -0.06503,0.143073 z"
         id="path4-7-5-5"
         style="fill:#d6dbf1;fill-opacity:1;stroke-width:0.130066" />
      <path
         d="m -32.992785,15.132502 c 0,-0.06503 -0.05203,-0.117059 -0.117059,-0.117059 -0.06503,0 -0.104053,0.05203 -0.104053,0.117059 v 1.443735 h 0.234119 v -1.443735 z"
         id="path6-5-9-3"
         style="fill:#d6dbf1;fill-opacity:1;stroke-width:0.130066" />
      <path
         d="m -33.109844,21.713849 c 0,0.06503 0.05203,0.117059 0.117059,0.117059 0.06504,0 0.11706,-0.05203 0.11706,-0.117059 v -1.443733 h -0.234119 z"
         id="path8-3-2-5"
         style="fill:#d6dbf1;fill-opacity:1;stroke-width:0.130066" />
      <path
         d="m -32.407487,20.140049 -0.208106,0.07804 0.273139,0.72837 c 0.02602,0.06503 0.09105,0.09105 0.143073,0.06503 0.06504,-0.02602 0.09105,-0.09105 0.06504,-0.143073 z"
         id="path10-5-2-6"
         style="fill:#d6dbf1;fill-opacity:1;stroke-width:0.130066" />
      <path
         d="m -34.475538,17.239574 0.143073,-0.169086 -0.585298,-0.507258 c -0.05203,-0.03902 -0.117059,-0.03902 -0.15608,0.01301 -0.03902,0.05203 -0.03902,0.117059 0.01301,0.156079 z"
         id="path12-6-8-2"
         style="fill:#d6dbf1;fill-opacity:1;stroke-width:0.130066" />
      <path
         d="m -34.111353,16.914409 0.195099,-0.11706 -0.72837,-1.261642 c -0.02602,-0.05203 -0.104053,-0.07804 -0.15608,-0.03902 -0.05203,0.02601 -0.07804,0.104053 -0.03902,0.15608 z"
         id="path14-3-29-9-9"
         style="fill:#d6dbf1;fill-opacity:1;stroke-width:0.130066" />
      <path
         d="m -31.978269,19.931943 -0.195099,0.11706 0.728371,1.248634 c 0.02602,0.05203 0.104053,0.07804 0.156079,0.03902 0.05203,-0.02602 0.07804,-0.104053 0.03902,-0.15608 z"
         id="path16-1-7-1"
         style="fill:#d6dbf1;fill-opacity:1;stroke-width:0.130066" />
      <path
         d="m -31.640096,19.593771 -0.143073,0.169086 0.598304,0.507259 c 0.05201,0.03902 0.117057,0.03902 0.15608,-0.01301 0.03902,-0.05203 0.03902,-0.11706 -0.01299,-0.15608 z"
         id="path18-2-3-2"
         style="fill:#d6dbf1;fill-opacity:1;stroke-width:0.130066" />
      <path
         d="m -35.607114,17.746832 c -0.06503,-0.01301 -0.117059,0.02602 -0.130066,0.09105 -0.01301,0.06503 0.02602,0.11706 0.09105,0.130067 l 0.76739,0.130066 0.03902,-0.221113 z"
         id="path20-7-6-7"
         style="fill:#d6dbf1;fill-opacity:1;stroke-width:0.130066" />
      <path
         d="m -35.984305,16.927416 1.248634,0.72837 0.11706,-0.195099 -1.248634,-0.728371 c -0.05203,-0.02601 -0.130068,-0.01301 -0.156081,0.03902 -0.03902,0.05203 -0.013,0.11706 0.03902,0.15608 z"
         id="path22-0-1-0"
         style="fill:#d6dbf1;fill-opacity:1;stroke-width:0.130066" />
      <path
         d="m -30.105318,19.918937 -1.248633,-0.728372 -0.117059,0.1951 1.248635,0.72837 c 0.05201,0.02602 0.130069,0.01301 0.15608,-0.03902 0.02604,-0.05203 0.01299,-0.130067 -0.03902,-0.156079 z"
         id="path24-9-2-9"
         style="fill:#d6dbf1;fill-opacity:1;stroke-width:0.130066" />
      <path
         d="m -30.508523,19.086513 c 0.06506,0.01301 0.117063,-0.02602 0.130068,-0.09105 0.01299,-0.06503 -0.02604,-0.11706 -0.09104,-0.130067 l -0.767391,-0.130067 -0.03902,0.221113 z"
         id="path26-3-9-3"
         style="fill:#d6dbf1;fill-opacity:1;stroke-width:0.130066" />
      <path
         d="m -35.672147,19.255599 c 0.02602,0.06503 0.09105,0.09105 0.143073,0.06503 l 0.72837,-0.273139 -0.07804,-0.208106 -0.72837,0.273139 c -0.05203,0.02602 -0.07804,0.09105 -0.06503,0.143073 z"
         id="path28-60-3-6"
         style="fill:#d6dbf1;fill-opacity:1;stroke-width:0.130066" />
      <path
         d="m -34.89175,18.358142 h -1.443733 c -0.06504,0 -0.11706,0.05203 -0.11706,0.11706 0,0.06503 0.05203,0.11706 0.11706,0.11706 h 1.443733 z"
         id="path30-6-1-0"
         style="fill:#d6dbf1;fill-opacity:1;stroke-width:0.130066" />
      <path
         d="m -29.754135,18.254089 h -1.443735 v 0.23412 h 1.443735 c 0.06506,0 0.117056,-0.05203 0.117056,-0.11706 0,-0.06503 -0.05201,-0.11706 -0.117056,-0.11706 z"
         id="path32-2-9-6"
         style="fill:#d6dbf1;fill-opacity:1;stroke-width:0.130066" />
      <path
         d="m -30.443489,17.590753 c -0.02604,-0.06504 -0.09105,-0.09105 -0.143074,-0.06504 l -0.728368,0.27314 0.07804,0.208105 0.728368,-0.273138 c 0.05201,-0.02602 0.07804,-0.09105 0.06506,-0.143073 z"
         id="path34-6-4-2"
         style="fill:#d6dbf1;fill-opacity:1;stroke-width:0.130066" />
      <path
         d="m -34.241419,19.840897 -0.169087,-0.143073 -0.507257,0.598305 c -0.03902,0.05203 -0.03902,0.117058 0.013,0.156078 0.05203,0.03902 0.11706,0.03902 0.15608,-0.013 z"
         id="path36-1-7-6"
         style="fill:#d6dbf1;fill-opacity:1;stroke-width:0.130066" />
      <path
         d="m -34.670637,19.294619 -1.248635,0.728371 c -0.05203,0.02602 -0.07804,0.104052 -0.03902,0.156079 0.03902,0.05203 0.104053,0.07804 0.156079,0.03902 l 1.248634,-0.728369 z"
         id="path38-8-8-1"
         style="fill:#d6dbf1;fill-opacity:1;stroke-width:0.130066" />
      <path
         d="m -31.418984,17.551732 1.248638,-0.728369 c 0.05201,-0.02601 0.07804,-0.104053 0.03902,-0.15608 -0.03902,-0.05203 -0.104058,-0.07804 -0.15608,-0.03902 l -1.248638,0.728372 z"
         id="path40-7-4-8"
         style="fill:#d6dbf1;fill-opacity:1;stroke-width:0.130066" />
      <path
         d="m -31.874216,17.005455 0.169086,0.143073 0.50726,-0.598304 c 0.03902,-0.05203 0.03902,-0.11706 -0.01299,-0.15608 -0.05203,-0.03902 -0.117061,-0.03902 -0.156081,0.01301 z"
         id="path42-9-5-7"
         style="fill:#d6dbf1;fill-opacity:1;stroke-width:0.130066" />
      <path
         d="m -33.721154,20.972472 c -0.01301,0.06503 0.02602,0.11706 0.09105,0.130067 0.06504,0.013 0.11706,-0.02602 0.130067,-0.09105 l 0.130066,-0.76739 -0.221113,-0.03902 z"
         id="path44-2-0-9"
         style="fill:#d6dbf1;fill-opacity:1;stroke-width:0.130066" />
      <path
         d="m -34.748677,21.245611 c -0.02602,0.05203 -0.01301,0.130066 0.03902,0.156079 0.05203,0.02602 0.130066,0.01301 0.156079,-0.03902 l 0.72837,-1.248635 -0.1951,-0.11706 z"
         id="path46-0-3-2"
         style="fill:#d6dbf1;fill-opacity:1;stroke-width:0.130066" />
      <path
         d="m -31.353951,15.600741 c 0.02602,-0.05203 0.013,-0.130067 -0.03902,-0.15608 -0.05203,-0.02602 -0.130067,-0.013 -0.15608,0.03902 l -0.72837,1.248634 0.1951,0.11706 z"
         id="path48-2-6-0"
         style="fill:#d6dbf1;fill-opacity:1;stroke-width:0.130066" />
      <path
         d="m -32.381474,15.886886 c 0.013,-0.06503 -0.02602,-0.117059 -0.09105,-0.130066 -0.06503,-0.01301 -0.11706,0.02601 -0.130067,0.09105 l -0.130066,0.767391 0.221112,0.03902 z"
         id="path50-3-1-2"
         style="fill:#d6dbf1;fill-opacity:1;stroke-width:0.130066" />
      <path
         inkscape:connector-curvature="0"
         id="fill-7"
         d="m -34.61695,23.438 v 1.699623 h 3.127307 V 23.438 c -0.852902,0.261062 -2.274405,0.261062 -3.127307,0 z"
         style="color:#1e92ff;fill:#4e5a7e;fill-opacity:0.501961;fill-rule:nonzero;stroke:none;stroke-width:0.652087"
         class="ColorScheme-ButtonFocus"
         sodipodi:nodetypes="ccccc" />
      <path
         d="M -34.525244,27 C -34.630118,27 -34.898825,27.01449 -35,27 v 1 h 3.250899 v 1 H -35 l 0.066,0.492 c 0.0226,0.168456 0.339035,0.508 0.509,0.508 h 2.884 C -31.371038,30 -31,29.661962 -31,29.492 V 27.008 C -31.101174,27.0225 -31.335764,27 -31.44064,27 Z"
         id="path14-7-5-3"
         style="fill:#d6dbf1;fill-opacity:1;stroke-width:0.30846"
         sodipodi:nodetypes="ccccccsssscsc" />
      <path
         d="M -27.552246,16.361249 C -28.531863,14.315496 -30.658494,13.00355 -33.000716,13 c -3.318557,0.0049 -6.004499,2.595905 -5.999276,5.786887 0.0035,2.252203 1.36809,4.297085 3.495624,5.239042 v 1.492591 c 0,0.265926 0.224171,0.48148 0.50073,0.48148 h 4.005838 c 0.276558,0 0.500729,-0.215554 0.500729,-0.48148 v -1.492591 c 3.01433,-1.334607 4.332784,-4.766226 2.944825,-7.66468 z m -0.786207,4.16386 c -0.508867,1.254019 -1.540466,2.245961 -2.844618,2.735267 h 0.0052 c -0.192617,0.07147 -0.319897,0.249258 -0.320492,0.447778 v 1.328884 h -3.004529 v -1.328884 c -6.18e-4,-0.19852 -0.127899,-0.37631 -0.320492,-0.447778 -2.576311,-0.966605 -3.849885,-3.758395 -2.84464,-6.235644 1.005246,-2.477252 3.908633,-3.70187 6.484917,-2.735266 2.576287,0.966604 3.849862,3.758379 2.844618,6.235643 z"
         id="path2-5-9-5"
         style="fill:#d6dbf1;fill-opacity:1;stroke-width:0.0306882" />
    </g>
    <g
       id="redshift-status-off">
      <rect
         style="opacity:0.003;fill:#a8aeca;fill-opacity:1;stroke-width:1"
         id="rect1033"
         width="32"
         height="32"
         x="32"
         y="0" />
      <rect
         style="fill:#4e5a7e;fill-opacity:0.499251;stroke:none;stroke-width:0.387504"
         id="center-3-35-9"
         width="15.5"
         height="15.5"
         x="40.299999"
         y="3.8499999"
         ry="7.7499876" />
      <path
         inkscape:connector-curvature="0"
         id="fill-1"
         d="m 45.7,19 v 2.5 h 4.6 V 19 c -1.254546,0.384 -3.345454,0.384 -4.6,0 z"
         style="color:#1e92ff;fill:#4e5a7e;fill-opacity:0.501961;fill-rule:nonzero;stroke:none;stroke-width:0.959164"
         class="ColorScheme-ButtonFocus"
         sodipodi:nodetypes="ccccc" />
      <path
         d="m 45.499998,24 c -0.17,0 -0.335999,0.02909 -0.499998,3e-6 V 26 h 4.999998 v 2 H 45 v 0.381186 C 45,28.722152 45.224497,29 45.499998,29 h 5.000003 C 50.775501,29 51,28.722152 51,28.381188 V 24.000006 C 50.836001,24.029076 50.67,24 50.500001,24 Z"
         id="path14-6"
         style="fill:#d6dbf1;fill-opacity:1;stroke-width:0.556243"
         sodipodi:nodetypes="scccccsssscss" />
      <path
         d="M 56.171633,8.171153 C 54.702209,5.023841 51.512264,3.005463 47.998925,3 43.021091,3.0077 38.992172,6.9937 39.000011,11.902908 39.005511,15.367832 40.808696,18.513805 44,19.962969 V 22 23 h 8 v -1 -2.037031 c 4.521493,-2.053239 6.253572,-7.332655 4.171633,-11.791816 z m -1.179312,6.405935 c -0.763297,1.929265 -2.310698,3.455329 -4.266926,4.208106 h 0.0075 C 50.443969,18.895148 50.000893,19.168667 50,19.474083 V 21 h -4 v -1.525917 c -6.02e-4,-0.305416 -0.446133,-0.578935 -0.735024,-0.688889 -3.864465,-1.487083 -5.774829,-5.782147 -4.266958,-9.593299 1.507866,-3.811157 5.862949,-5.695182 9.727377,-4.2081 3.864429,1.487082 5.774791,5.782122 4.266926,9.593293 z"
         id="path2-7"
         style="fill:#d6dbf1;fill-opacity:1;stroke-width:0.0466186"
         sodipodi:nodetypes="ccccccccccsccccccccss" />
    </g>
    <g
       id="redshift-status-on">
      <rect
         y="0"
         x="3.5527137e-15"
         height="32"
         width="32"
         id="rect910"
         style="opacity:0.003;fill:#a8aeca;fill-opacity:1;stroke-width:1" />
      <rect
         style="fill:#4e5a7e;fill-opacity:0.499251;stroke:none;stroke-width:0.382504"
         id="center-3-35"
         width="15.3"
         height="15.3"
         x="8.3000002"
         y="4.0500002"
         ry="7.6499877" />
      <circle
         cx="16.012484"
         cy="12.212481"
         r="2.3531883"
         id="circle2-36-7"
         style="fill:#d6dbf1;fill-opacity:1;stroke-width:0.191316" />
      <path
         d="m 15.075032,9.648847 0.306107,-0.11479 -0.382632,-1.07137 c -0.03827,-0.09566 -0.133922,-0.133922 -0.210448,-0.09566 -0.07653,0.03827 -0.133922,0.133921 -0.09566,0.210448 z"
         id="path4-7-5"
         style="fill:#d6dbf1;fill-opacity:1;stroke-width:0.191316" />
      <path
         d="M 16.089008,7.372185 C 16.089008,7.276525 16.012478,7.2 15.916824,7.2 15.821164,7.2 15.76377,7.27653 15.76377,7.372185 v 2.123609 h 0.34437 V 7.372185 Z"
         id="path6-5-9"
         style="fill:#d6dbf1;fill-opacity:1;stroke-width:0.191316" />
      <path
         d="m 15.916824,17.052781 c 0,0.09566 0.07653,0.172184 0.172184,0.172184 0.09566,0 0.172185,-0.07653 0.172185,-0.172184 v -2.123608 h -0.344369 z"
         id="path8-3-2"
         style="fill:#d6dbf1;fill-opacity:1;stroke-width:0.191316" />
      <path
         d="m 16.94993,14.737856 -0.306105,0.114789 0.401764,1.07137 c 0.03827,0.09566 0.133922,0.133922 0.210448,0.09566 0.09566,-0.03827 0.133921,-0.133922 0.09566,-0.210448 z"
         id="path10-5-2"
         style="fill:#d6dbf1;fill-opacity:1;stroke-width:0.191316" />
      <path
         d="M 13.908005,10.471507 14.118453,10.222795 13.25753,9.476663 c -0.07653,-0.0574 -0.172184,-0.0574 -0.22958,0.01913 -0.05739,0.07653 -0.05739,0.172184 0.01913,0.229579 z"
         id="path12-6-8"
         style="fill:#d6dbf1;fill-opacity:1;stroke-width:0.191316" />
      <path
         d="m 14.44369,9.993216 0.286974,-0.172184 -1.07137,-1.855767 c -0.03827,-0.07653 -0.153053,-0.11479 -0.22958,-0.05739 -0.07653,0.03826 -0.11479,0.153053 -0.05739,0.22958 z"
         id="path14-3-29-9"
         style="fill:#d6dbf1;fill-opacity:1;stroke-width:0.191316" />
      <path
         d="m 17.581274,14.43175 -0.286974,0.172185 1.071371,1.836634 c 0.03827,0.07653 0.153052,0.11479 0.229579,0.05739 0.07653,-0.03827 0.114793,-0.153053 0.05739,-0.22958 z"
         id="path16-1-7"
         style="fill:#d6dbf1;fill-opacity:1;stroke-width:0.191316" />
      <path
         d="m 18.078697,13.934328 -0.210448,0.248711 0.880054,0.746134 c 0.0765,0.05739 0.17218,0.05739 0.22958,-0.01913 0.0574,-0.07653 0.0574,-0.172185 -0.0191,-0.22958 z"
         id="path18-2-3"
         style="fill:#d6dbf1;fill-opacity:1;stroke-width:0.191316" />
      <path
         d="m 12.243554,11.217639 c -0.09566,-0.01913 -0.172184,0.03827 -0.191316,0.133921 -0.01913,0.09566 0.03827,0.172185 0.133921,0.191317 l 1.128765,0.191316 0.05739,-0.325238 z"
         id="path20-7-6"
         style="fill:#d6dbf1;fill-opacity:1;stroke-width:0.191316" />
      <path
         d="m 11.688738,10.012348 1.836634,1.07137 0.172185,-0.286974 -1.836634,-1.071371 c -0.07653,-0.03826 -0.191318,-0.01913 -0.229581,0.05739 -0.05739,0.07653 -0.01913,0.172185 0.05739,0.22958 z"
         id="path22-0-1"
         style="fill:#d6dbf1;fill-opacity:1;stroke-width:0.191316" />
      <path
         d="m 20.336223,14.412619 -1.836632,-1.071372 -0.172184,0.286975 1.836636,1.07137 c 0.0765,0.03827 0.19132,0.01913 0.22958,-0.05739 0.0383,-0.07653 0.0191,-0.191317 -0.0574,-0.229579 z"
         id="path24-9-2"
         style="fill:#d6dbf1;fill-opacity:1;stroke-width:0.191316" />
      <path
         d="m 19.743143,13.188195 c 0.0957,0.01913 0.17219,-0.03827 0.19132,-0.13392 0.0191,-0.09566 -0.0383,-0.172185 -0.13392,-0.191317 l -1.128767,-0.191317 -0.05739,0.325238 z"
         id="path26-3-9"
         style="fill:#d6dbf1;fill-opacity:1;stroke-width:0.191316" />
      <path
         d="m 12.147896,13.436906 c 0.03827,0.09566 0.133921,0.133922 0.210448,0.09566 l 1.07137,-0.401764 -0.11479,-0.306107 -1.07137,0.401764 c -0.07653,0.03827 -0.11479,0.133922 -0.09566,0.210448 z"
         id="path28-60-3"
         style="fill:#d6dbf1;fill-opacity:1;stroke-width:0.191316" />
      <path
         d="m 13.295793,12.116824 h -2.123608 c -0.09566,0 -0.172185,0.07653 -0.172185,0.172185 0,0.09566 0.07653,0.172185 0.172185,0.172185 h 2.123608 z"
         id="path30-6-1"
         style="fill:#d6dbf1;fill-opacity:1;stroke-width:0.191316" />
      <path
         d="m 20.852783,11.963771 h -2.12361 v 0.34437 h 2.12361 c 0.0957,0 0.17218,-0.07653 0.17218,-0.172185 0,-0.09566 -0.0765,-0.172185 -0.17218,-0.172185 z"
         id="path32-2-9"
         style="fill:#d6dbf1;fill-opacity:1;stroke-width:0.191316" />
      <path
         d="m 19.838803,10.98806 c -0.0383,-0.09566 -0.13392,-0.133922 -0.21045,-0.09566 l -1.071366,0.401765 0.114789,0.306105 1.071367,-0.401763 c 0.0765,-0.03827 0.11479,-0.133922 0.0957,-0.210448 z"
         id="path34-6-4"
         style="fill:#d6dbf1;fill-opacity:1;stroke-width:0.191316" />
      <path
         d="m 14.252374,14.297829 -0.248712,-0.210448 -0.746132,0.880055 c -0.05739,0.07653 -0.05739,0.172183 0.01913,0.229578 0.07653,0.05739 0.172185,0.05739 0.22958,-0.01913 z"
         id="path36-1-7"
         style="fill:#d6dbf1;fill-opacity:1;stroke-width:0.191316" />
      <path
         d="m 13.621031,13.494301 -1.836635,1.071371 c -0.07653,0.03827 -0.114791,0.153052 -0.05739,0.229579 0.05739,0.07653 0.153053,0.11479 0.229578,0.05739 l 1.836634,-1.071367 z"
         id="path38-8-8"
         style="fill:#d6dbf1;fill-opacity:1;stroke-width:0.191316" />
      <path
         d="m 18.403934,10.930664 1.836639,-1.071369 c 0.0765,-0.03826 0.11479,-0.153053 0.0574,-0.22958 -0.0574,-0.07653 -0.15306,-0.11479 -0.22958,-0.05739 l -1.836639,1.071372 z"
         id="path40-7-4"
         style="fill:#d6dbf1;fill-opacity:1;stroke-width:0.191316" />
      <path
         d="m 17.734327,10.127137 0.248711,0.210448 0.746135,-0.880054 c 0.0574,-0.07653 0.0574,-0.172185 -0.0191,-0.229579 -0.07653,-0.0574 -0.172186,-0.0574 -0.229581,0.01913 z"
         id="path42-9-5"
         style="fill:#d6dbf1;fill-opacity:1;stroke-width:0.191316" />
      <path
         d="m 15.017639,15.962279 c -0.01913,0.09566 0.03827,0.172185 0.13392,0.191317 0.09566,0.01913 0.172185,-0.03827 0.191317,-0.133922 l 0.191316,-1.128765 -0.325238,-0.05739 z"
         id="path44-2-0"
         style="fill:#d6dbf1;fill-opacity:1;stroke-width:0.191316" />
      <path
         d="m 13.506241,16.364042 c -0.03827,0.07653 -0.01913,0.191317 0.05739,0.22958 0.07653,0.03827 0.191316,0.01913 0.229579,-0.05739 l 1.07137,-1.836635 -0.286975,-0.172185 z"
         id="path46-0-3"
         style="fill:#d6dbf1;fill-opacity:1;stroke-width:0.191316" />
      <path
         d="m 18.499591,8.060923 c 0.03827,-0.07653 0.01913,-0.191316 -0.05739,-0.229579 -0.07653,-0.03827 -0.191317,-0.01913 -0.22958,0.05739 l -1.07137,1.836634 0.286975,0.172185 z"
         id="path48-2-6"
         style="fill:#d6dbf1;fill-opacity:1;stroke-width:0.191316" />
      <path
         d="m 16.988193,8.481819 c 0.01913,-0.09566 -0.03827,-0.172185 -0.133919,-0.191317 -0.09566,-0.01913 -0.172185,0.03826 -0.191317,0.133922 l -0.191317,1.128765 0.325238,0.05739 z"
         id="path50-3-1"
         style="fill:#d6dbf1;fill-opacity:1;stroke-width:0.191316" />
      <path
         inkscape:connector-curvature="0"
         id="fill"
         d="m 13.7,19 v 2.5 h 4.6 V 19 c -1.254546,0.384 -3.345454,0.384 -4.6,0 z"
         style="color:#1e92ff;fill:#4e5a7e;fill-opacity:0.501961;fill-rule:nonzero;stroke:none;stroke-width:0.959164"
         class="ColorScheme-ButtonFocus"
         sodipodi:nodetypes="ccccc" />
      <path
         d="m 13.499997,24 c -0.17,0 -0.335999,0.02909 -0.499998,3e-6 V 26 h 4.999998 v 2 h -4.999998 v 0.381186 C 12.999999,28.722152 13.224496,29 13.499997,29 H 18.5 c 0.2755,0 0.499999,-0.277848 0.499999,-0.618812 V 24.000006 C 18.836,24.029076 18.669999,24 18.5,24 Z"
         id="path14"
         style="fill:#d6dbf1;fill-opacity:1;stroke-width:0.556243"
         sodipodi:nodetypes="scccccsssscss" />
      <path
         d="M 24.171632,8.171153 C 22.702208,5.023841 19.512263,3.005463 15.998924,3 11.02109,3.0077 6.9921714,6.9937 7.0000114,11.902908 c 0.0055,3.464924 1.808685,6.610897 4.9999876,8.060061 V 22 23 h 8 v -1 -2.037031 c 4.521493,-2.053239 6.253572,-7.332655 4.171633,-11.791816 z m -1.179312,6.405935 c -0.763297,1.929265 -2.310698,3.455329 -4.266926,4.208106 h 0.0075 c -0.288926,0.109954 -0.732002,0.383473 -0.732895,0.688889 V 21 h -4 V 19.474083 C 13.999397,19.168667 13.553866,18.895148 13.264975,18.785194 9.4005104,17.298111 7.4901464,13.003047 8.9980174,9.191895 10.505883,5.380738 14.860966,3.496713 18.725394,4.983795 c 3.864429,1.487082 5.774791,5.782122 4.266926,9.593293 z"
         id="path2"
         style="fill:#d6dbf1;fill-opacity:1;stroke-width:0.0466186"
         sodipodi:nodetypes="ccccccccccsccccccccss" />
    </g>
    <g
       id="22-22-redshift-status-off">
      <rect
         style="opacity:0.003;fill:#a8aeca;fill-opacity:1"
         id="rect1467-9-7-9-9-4-67"
         width="22"
         height="22"
         x="-22"
         y="10" />
      <rect
         style="fill:#4e5a7e;fill-opacity:0.499251;stroke:none;stroke-width:0.262204"
         id="center-3-35-9-5"
         width="10.69"
         height="10.29"
         x="-16.348"
         y="13.386"
         ry="5.1449919" />
      <path
         inkscape:connector-curvature="0"
         id="fill-1-7"
         d="m -12.61695,23.438 v 1.699624 h 3.1273116 V 23.438 c -0.8529076,0.261062 -2.2744096,0.261062 -3.1273116,0 z"
         style="color:#1e92ff;fill:#4e5a7e;fill-opacity:0.501961;fill-rule:nonzero;stroke:none;stroke-width:0.652087"
         class="ColorScheme-ButtonFocus"
         sodipodi:nodetypes="ccccc" />
      <path
         d="M -12.525244,27 C -12.630118,27 -12.898825,27.01449 -13,27 v 1 h 3.2508984 v 1 H -13 l 0.066,0.492 c 0.0226,0.168456 0.339035,0.508 0.509,0.508 h 2.8839994 c 0.169962,0 0.541,-0.338038 0.541,-0.508 V 27.008 C -9.1011746,27.0225 -9.3357646,27 -9.4406406,27 Z"
         id="path14-7-5"
         style="fill:#d6dbf1;fill-opacity:1;stroke-width:0.30846"
         sodipodi:nodetypes="ccccccsssscsc" />
      <path
         d="m -5.5502302,16.402439 c -0.979617,-2.045753 -3.106248,-3.357699 -5.4484698,-3.361249 -3.318557,0.0049 -6.004499,2.595905 -5.999276,5.786887 0.0035,2.252203 1.36809,4.297085 3.495624,5.239042 v 1.492591 c 0,0.265926 0.224171,0.48148 0.50073,0.48148 h 4.0058378 c 0.276558,0 0.500729,-0.215554 0.500729,-0.48148 v -1.492591 c 3.01433,-1.334607 4.332784,-4.766226 2.944825,-7.66468 z m -0.786207,4.16386 c -0.508867,1.254019 -1.540466,2.245961 -2.844618,2.735267 h 0.0052 c -0.192617,0.07147 -0.319897,0.249258 -0.320492,0.447778 v 1.328884 h -3.0045288 v -1.328884 c -6.18e-4,-0.19852 -0.127899,-0.37631 -0.320492,-0.447778 -2.576311,-0.966605 -3.849885,-3.758395 -2.84464,-6.235644 1.005246,-2.477252 3.908633,-3.70187 6.4849168,-2.735266 2.576287,0.966604 3.849862,3.758379 2.844618,6.235643 z"
         id="path2-5-9"
         style="fill:#d6dbf1;fill-opacity:1;stroke-width:0.0306882" />
    </g>
  </g>
</svg>
