<?xml version="1.0" encoding="UTF-8" standalone="no"?>
<svg
   version="1.1"
   width="32"
   height="32"
   id="svg3013"
   inkscape:version="1.3.2 (091e20ef0f, 2023-11-25)"
   sodipodi:docname="skype.svg"
   xmlns:inkscape="http://www.inkscape.org/namespaces/inkscape"
   xmlns:sodipodi="http://sodipodi.sourceforge.net/DTD/sodipodi-0.dtd"
   xmlns:xlink="http://www.w3.org/1999/xlink"
   xmlns="http://www.w3.org/2000/svg"
   xmlns:svg="http://www.w3.org/2000/svg"
   xmlns:rdf="http://www.w3.org/1999/02/22-rdf-syntax-ns#"
   xmlns:cc="http://creativecommons.org/ns#"
   xmlns:dc="http://purl.org/dc/elements/1.1/">
  <sodipodi:namedview
     pagecolor="#ffffff"
     bordercolor="#000000"
     borderopacity="1"
     objecttolerance="10"
     gridtolerance="10"
     guidetolerance="10"
     inkscape:pageopacity="0"
     inkscape:pageshadow="2"
     inkscape:window-width="1920"
     inkscape:window-height="994"
     id="namedview66"
     showgrid="false"
     inkscape:zoom="11.313709"
     inkscape:cx="22.715804"
     inkscape:cy="24.395183"
     inkscape:window-x="0"
     inkscape:window-y="0"
     inkscape:window-maximized="1"
     inkscape:current-layer="layer1"
     inkscape:lockguides="true"
     inkscape:document-rotation="0"
     inkscape:showpageshadow="2"
     inkscape:pagecheckerboard="false"
     inkscape:deskcolor="#cccccc"
     showguides="true">
    <inkscape:grid
       type="xygrid"
       id="grid390"
       originx="0"
       originy="5.1715088e-05"
       spacingy="1"
       spacingx="1"
       units="px"
       visible="false" />
  </sodipodi:namedview>
  <defs
     id="defs3015">
    <linearGradient
       id="linearGradient5009">
      <stop
         id="stop5011"
         style="stop-color:#000000;stop-opacity:1"
         offset="0" />
      <stop
         id="stop5013"
         style="stop-color:#000000;stop-opacity:0"
         offset="1" />
    </linearGradient>
    <linearGradient
       id="linearGradient4249">
      <stop
         id="stop4251"
         style="stop-color:#ffffff;stop-opacity:1"
         offset="0" />
      <stop
         id="stop4253"
         style="stop-color:#ffffff;stop-opacity:0.78431374"
         offset="0.47000003" />
      <stop
         id="stop4255"
         style="stop-color:#ffffff;stop-opacity:0.51724136"
         offset="0.75125003" />
      <stop
         id="stop4257"
         style="stop-color:#ffffff;stop-opacity:1"
         offset="1" />
    </linearGradient>
    <linearGradient
       id="linearGradient3289">
      <stop
         id="stop3291"
         style="stop-color:#ffffff;stop-opacity:1"
         offset="0" />
      <stop
         id="stop3294"
         style="stop-color:#ffffff;stop-opacity:1"
         offset="1" />
    </linearGradient>
    <linearGradient
       id="linearGradient2916">
      <stop
         id="stop2918"
         style="stop-color:#ffffff;stop-opacity:1"
         offset="0" />
      <stop
         id="stop2920"
         style="stop-color:#ffffff;stop-opacity:0"
         offset="1" />
    </linearGradient>
    <linearGradient
       id="linearGradient3140">
      <stop
         id="stop3142"
         style="stop-color:#ffffff;stop-opacity:1"
         offset="0" />
      <stop
         id="stop3144"
         style="stop-color:#ffffff;stop-opacity:0"
         offset="1" />
    </linearGradient>
    <linearGradient
       id="linearGradient2895">
      <stop
         id="stop2897"
         style="stop-color:#ffffff;stop-opacity:1"
         offset="0" />
      <stop
         id="stop2899"
         style="stop-color:#ffffff;stop-opacity:0"
         offset="1" />
    </linearGradient>
    <linearGradient
       x1="38.875084"
       y1="67.528122"
       x2="90.409752"
       y2="67.528122"
       id="linearGradient6228"
       xlink:href="#linearGradient2916"
       gradientUnits="userSpaceOnUse"
       gradientTransform="matrix(0.511504,0,0,1.80649,68.030435,-6.0981568)" />
    <linearGradient
       x1="38.875084"
       y1="67.528122"
       x2="90.409752"
       y2="67.528122"
       id="linearGradient6233"
       xlink:href="#linearGradient2916"
       gradientUnits="userSpaceOnUse"
       gradientTransform="matrix(0.511504,0,0,0.96108,67.773305,4.8320565)" />
    <linearGradient
       x1="11.543377"
       y1="3.4375"
       x2="10.88339"
       y2="5.9006019"
       id="linearGradient6238"
       xlink:href="#linearGradient2895"
       gradientUnits="userSpaceOnUse"
       gradientTransform="matrix(5.467529,0,0,5.820575,24.290213,-2.0656323)" />
    <linearGradient
       x1="38.875084"
       y1="67.528122"
       x2="90.409752"
       y2="67.528122"
       id="linearGradient6243"
       xlink:href="#linearGradient2916"
       gradientUnits="userSpaceOnUse"
       gradientTransform="matrix(0.511504,0,0,0.77135,67.773305,6.6291413)" />
    <radialGradient
       cx="68.000046"
       cy="-117.34602"
       r="27.999956"
       fx="68.000046"
       fy="-117.34602"
       id="radialGradient9168"
       xlink:href="#linearGradient3140"
       gradientUnits="userSpaceOnUse"
       gradientTransform="matrix(0.990365,0,0,1.664158,16.251985,75.514833)" />
    <linearGradient
       x1="18.01074"
       y1="65.760353"
       x2="72.498932"
       y2="65.760353"
       id="linearGradient2867"
       xlink:href="#linearGradient3289"
       gradientUnits="userSpaceOnUse"
       gradientTransform="matrix(1.017716,0,0,0.960169,5.524222,-18.774756)" />
    <linearGradient
       id="linearGradient4046-1-38">
      <stop
         id="stop4048-6-5"
         style="stop-color:#ffffff;stop-opacity:0"
         offset="0" />
      <stop
         id="stop4051-4-0"
         style="stop-color:#ffffff;stop-opacity:0.72661871"
         offset="1" />
    </linearGradient>
    <linearGradient
       id="linearGradient16006-3-9">
      <stop
         id="stop16008-5-6"
         style="stop-color:#ffffff;stop-opacity:0.58823532"
         offset="0" />
      <stop
         id="stop16016-1-7"
         style="stop-color:#ffffff;stop-opacity:0.8705036"
         offset="0.25" />
      <stop
         id="stop16014-1-2"
         style="stop-color:#ffffff;stop-opacity:0.58823532"
         offset="0.5" />
      <stop
         id="stop3998"
         style="stop-color:#ffffff;stop-opacity:0.8561151"
         offset="0.75" />
      <stop
         id="stop16010-4-1"
         style="stop-color:#ffffff;stop-opacity:0.58823532"
         offset="1" />
    </linearGradient>
    <linearGradient
       id="linearGradient4124">
      <stop
         id="stop4126"
         style="stop-color:#ffffff;stop-opacity:0.70503598"
         offset="0" />
      <stop
         id="stop4128"
         style="stop-color:#ffffff;stop-opacity:0.6978417"
         offset="0.185378" />
      <stop
         id="stop4130"
         style="stop-color:#ffffff;stop-opacity:0.80575538"
         offset="0.44680852" />
      <stop
         id="stop4132"
         style="stop-color:#ffffff;stop-opacity:0.77697843"
         offset="0.76861703" />
      <stop
         id="stop4134"
         style="stop-color:#ffffff;stop-opacity:0.74100721"
         offset="1" />
    </linearGradient>
    <linearGradient
       x1="3.0267859"
       y1="1040.4602"
       x2="21.776787"
       y2="1040.4602"
       id="linearGradient4717"
       xlink:href="#linearGradient4124"
       gradientUnits="userSpaceOnUse" />
    <linearGradient
       x1="12.580358"
       y1="1031.4336"
       x2="12.580358"
       y2="1049.4011"
       id="linearGradient4727"
       xlink:href="#linearGradient4124"
       gradientUnits="userSpaceOnUse" />
    <linearGradient
       x1="12"
       y1="1031.3356"
       x2="12.178572"
       y2="1049.2603"
       id="linearGradient4929"
       xlink:href="#linearGradient4249"
       gradientUnits="userSpaceOnUse" />
    <linearGradient
       x1="12"
       y1="1031.3356"
       x2="12.178572"
       y2="1049.2603"
       id="linearGradient4991"
       xlink:href="#linearGradient4249"
       gradientUnits="userSpaceOnUse"
       gradientTransform="translate(24)" />
    <linearGradient
       x1="12"
       y1="1031.3356"
       x2="12.178572"
       y2="1049.2603"
       id="linearGradient4993"
       xlink:href="#linearGradient4249"
       gradientUnits="userSpaceOnUse"
       gradientTransform="translate(24)" />
    <linearGradient
       x1="12"
       y1="1031.3356"
       x2="12.178572"
       y2="1049.2603"
       id="linearGradient4995"
       xlink:href="#linearGradient4249"
       gradientUnits="userSpaceOnUse"
       gradientTransform="translate(24)" />
    <linearGradient
       x1="12"
       y1="1031.3356"
       x2="12.178572"
       y2="1049.2603"
       id="linearGradient4997"
       xlink:href="#linearGradient4249"
       gradientUnits="userSpaceOnUse"
       gradientTransform="translate(24)" />
    <linearGradient
       x1="12"
       y1="1031.3356"
       x2="12.178572"
       y2="1049.2603"
       id="linearGradient4999"
       xlink:href="#linearGradient4249"
       gradientUnits="userSpaceOnUse"
       gradientTransform="translate(24)" />
    <linearGradient
       x1="12"
       y1="1031.3356"
       x2="12.178572"
       y2="1049.2603"
       id="linearGradient5001"
       xlink:href="#linearGradient4249"
       gradientUnits="userSpaceOnUse"
       gradientTransform="translate(24)" />
    <linearGradient
       x1="12"
       y1="1031.3356"
       x2="12.178572"
       y2="1049.2603"
       id="linearGradient5003"
       xlink:href="#linearGradient4249"
       gradientUnits="userSpaceOnUse"
       gradientTransform="translate(24)" />
    <linearGradient
       x1="12"
       y1="1031.3356"
       x2="12.178572"
       y2="1049.2603"
       id="linearGradient5005"
       xlink:href="#linearGradient4249"
       gradientUnits="userSpaceOnUse"
       gradientTransform="translate(24)" />
    <linearGradient
       x1="4.2426405"
       y1="11.71402"
       x2="19.975765"
       y2="11.71402"
       id="linearGradient5015"
       xlink:href="#linearGradient5009"
       gradientUnits="userSpaceOnUse"
       gradientTransform="translate(0,1028.3622)" />
    <radialGradient
       cx="12.00265"
       cy="12.149069"
       r="9.5000095"
       fx="12.00265"
       fy="12.149069"
       id="radialGradient3937"
       xlink:href="#linearGradient2895"
       gradientUnits="userSpaceOnUse"
       gradientTransform="matrix(0.00260593,0.00181906,-0.00232252,0.00332553,19.211226,1085.4815)" />
    <radialGradient
       cx="12.00001"
       cy="11.987168"
       r="9.5000095"
       fx="12.00001"
       fy="11.987168"
       id="radialGradient3937-6"
       xlink:href="#linearGradient2916"
       gradientUnits="userSpaceOnUse"
       gradientTransform="matrix(1.8311833,0,0,1.8352211,21.025699,1027.3533)" />
    <radialGradient
       cx="12.00265"
       cy="12.149069"
       r="9.5000095"
       fx="12.00265"
       fy="12.149069"
       id="radialGradient3937-2"
       xlink:href="#linearGradient2916"
       gradientUnits="userSpaceOnUse"
       gradientTransform="matrix(0.00260593,0.00181906,-0.00232252,0.00332553,15.996966,1043.8982)" />
    <radialGradient
       cx="12.00265"
       cy="12.149069"
       r="9.5000095"
       fx="12.00265"
       fy="12.149069"
       id="radialGradient3937-2-0"
       xlink:href="#linearGradient2916"
       gradientUnits="userSpaceOnUse"
       gradientTransform="matrix(0.00173728,0.0012127,-0.00154834,0.00221702,42.997964,1049.0529)" />
  </defs>
  <metadata
     id="metadata3018">
    <rdf:RDF>
      <cc:Work
         rdf:about="">
        <dc:format>image/svg+xml</dc:format>
        <dc:type
           rdf:resource="http://purl.org/dc/dcmitype/StillImage" />
      </cc:Work>
    </rdf:RDF>
  </metadata>
  <g
     transform="translate(0,-1028.3622)"
     id="layer1">
    <g
       id="skype">
      <rect
         width="32"
         height="32"
         x="0"
         y="1028.3622"
         id="rect5017"
         style="opacity:0;fill:#000000;fill-opacity:0.392157;stroke:none;stroke-width:1.33333" />
      <path
         inkscape:connector-curvature="0"
         id="fill-7"
         d="m 11.023348,1051.883 3,2 2.999979,10e-5 5.000021,1.9999 c 5.242425,-2.0872 5.836208,-8.3587 3,-15 -6.789377,-9.6001 -26.9999999,-12 -17.0000209,7.5721 z"
         style="color:#1e92ff;fill:#4e5a7e;fill-opacity:0.501961;fill-rule:nonzero;stroke:none;stroke-width:2.68771"
         class="ColorScheme-ButtonFocus"
         sodipodi:nodetypes="ccccccc" />
      <path
         d="m 15.920179,1037.7622 c -3.126936,0.013 -5.047366,1.5917 -4.888996,4.0322 0.08435,1.2993 0.656931,2.1508 1.868405,2.7297 0.325706,0.1549 1.524722,0.5344 2.646912,0.8246 1.122193,0.2896 2.177343,0.5992 2.335507,0.6974 0.356837,0.2241 0.498244,0.5673 0.498244,1.1114 0,0.339 -0.06688,0.4779 -0.311403,0.7613 -0.551276,0.6406 -1.605051,0.9183 -2.646911,0.6993 -0.819901,-0.1722 -1.159729,-0.3987 -1.868405,-1.207 -0.844688,-0.9625 -1.283436,-1.1373 -1.930685,-0.8241 -0.391883,0.1885 -0.625346,0.5666 -0.6228,1.0788 0.0065,1.4323 1.654597,2.7233 3.92365,3.0464 0.776904,0.1115 2.39813,0.027 3.145151,-0.1577 1.31974,-0.3169 2.359208,-1.0803 2.864888,-2.1271 0.281481,-0.5825 0.280731,-0.6704 0.280263,-1.5554 -4.41e-4,-0.8321 -0.0037,-1.0229 -0.217981,-1.4918 -0.568115,-1.2381 -1.514409,-1.7926 -4.079353,-2.3804 -0.924855,-0.2121 -1.807093,-0.4224 -1.992968,-0.476 -0.522115,-0.1512 -0.948107,-0.4779 -1.089903,-0.8573 -0.116395,-0.312 -0.110568,-0.3953 0.06222,-0.7928 0.266994,-0.6154 0.854339,-0.9212 1.868403,-0.9212 1.092999,0 1.571304,0.1986 2.428927,1.0149 0.765748,0.7311 1.020872,0.8509 1.55701,0.7635 0.995421,-0.1661 1.306448,-1.1268 0.685083,-2.0648 -0.74895,-1.1307 -2.586257,-1.9039 -4.515316,-1.9039 z"
         id="rect3906-9"
         style="fill:#058bce;fill-opacity:1;stroke:none;stroke-width:1.0061"
         inkscape:connector-curvature="0" />
      <path
         d="m 10.750026,1033.071 c -0.237979,0.01 -0.466746,0.034 -0.714286,0.071 -2.770634,0.4748 -4.891839,2.9387 -4.892857,5.6762 -2.51e-4,0.6758 0.116843,1.3089 0.392857,2.1426 l 0.214286,0.7139 v 1.8209 c 0.0036,1.5286 0.03228,1.8891 0.107142,2.25 0.997697,4.8089 4.603447,8.0878 9.357143,8.4975 0.497414,0.055 0.908225,0.054 1.750002,0 l 1.107142,-0.071 0.607143,0.2145 c 0.702597,0.2494 1.041638,0.3323 1.392856,0.3923 0.363309,0.061 1.216351,0.065 1.714286,0 1.244879,-0.152 2.504155,-0.7533 3.428573,-1.6785 0.797619,-0.7972 1.316054,-1.7779 1.571428,-2.9628 0.06425,-0.2987 0.07192,-0.639 0.0714,-1.1781 -7.84e-4,-0.8666 -0.04292,-1.1523 -0.392858,-2.1783 l -0.214285,-0.6776 0.03567,-1.4289 c 0.03781,-1.6019 -0.01699,-2.1333 -0.285715,-3.2142 -0.885484,-3.5595 -3.615471,-6.3573 -7.214282,-7.3909 -1.021508,-0.2928 -1.025176,-0.2829 -3.14286,-0.3203 l -1.999998,-0.042 -0.607145,-0.2144 c -0.869009,-0.303 -1.571777,-0.4543 -2.285714,-0.4278 z m 5.214285,3.3912 c 2.212421,0 4.319615,0.8704 5.178575,2.1421 0.712639,1.0551 0.355921,2.1358 -0.785715,2.3215 -0.614891,0.098 -0.90749,-0.041 -1.785715,-0.8577 -0.983602,-0.9186 -1.532166,-1.1434 -2.785715,-1.1415 -1.163023,0 -1.836649,0.3432 -2.142857,1.0349 -0.198238,0.4478 -0.204922,0.5414 -0.07142,0.8923 0.162626,0.4273 0.651193,0.7948 1.25,0.9642 0.21318,0.062 1.225007,0.2974 2.285718,0.5357 2.941709,0.6609 4.027002,1.2851 4.678568,2.6774 0.246807,0.5274 0.249499,0.7425 0.250002,1.6782 5.34e-4,0.9955 0.0016,1.0947 -0.32143,1.7502 -0.579959,1.1773 -1.772117,2.0357 -3.285714,2.3923 -0.856751,0.2011 -2.716124,0.3026 -3.607144,0.1776 -2.602357,-0.3632 -4.491851,-1.8158 -4.499998,-3.4271 -0.003,-0.5757 0.264839,-1.0008 0.714285,-1.2136 0.742328,-0.3521 1.245518,-0.1556 2.214286,0.9275 0.812772,0.9093 1.202515,1.1635 2.142856,1.3573 1.1949,0.2461 2.403459,-0.064 3.035715,-0.7859 0.280469,-0.319 0.357145,-0.4757 0.357145,-0.857 0,-0.6122 -0.162177,-0.9977 -0.571432,-1.2499 -0.181394,-0.1108 -1.391538,-0.459 -2.67857,-0.7846 -1.28703,-0.3266 -2.662171,-0.7538 -3.035717,-0.9282 -1.389432,-0.6504 -2.046115,-1.6089 -2.142854,-3.0705 -0.181634,-2.7451 2.020886,-4.5291 5.607143,-4.5352 z"
         id="path3859-3"
         style="fill:url(#radialGradient3937-2);fill-opacity:0;stroke:none;stroke-width:1.14274"
         inkscape:connector-curvature="0" />
      <path
         id="primary-6"
         d="m 25.420013,1046.1862 a 9.1319826,9.1319826 0 0 0 0.18,-1.824 9.5999816,9.5999816 0 0 0 -9.599983,-9.6 9.1319826,9.1319826 0 0 0 -1.824,0.18 5.3279896,5.3279896 0 0 0 -3.575994,-1.38 5.4119896,5.4119896 0 0 0 -5.39999,5.4 5.3279896,5.3279896 0 0 0 1.38,3.6 9.1319826,9.1319826 0 0 0 -0.18,1.8 9.5999816,9.5999816 0 0 0 9.59998,9.6 9.1319826,9.1319826 0 0 0 1.824,-0.18 5.3279896,5.3279896 0 0 0 3.599993,1.38 5.4119896,5.4119896 0 0 0 5.37599,-5.4 5.3279896,5.3279896 0 0 0 -1.379996,-3.576 z"
         style="fill:none;stroke:#d6dbf1;stroke-width:2.4;stroke-linecap:round;stroke-linejoin:round;stroke-opacity:1" />
    </g>
    <g
       id="22-22-skype">
      <path
         style="opacity:0"
         d="m 32,1038.3622 h 22 v 22 H 32 Z"
         id="path6" />
      <path
         inkscape:connector-curvature="0"
         id="fill-7-6"
         d="m 39.682225,1054.376 1.999996,1.3334 h 1.999982 l 3.333341,1.3333 c 3.494944,-1.3915 3.890798,-5.5725 1.999996,-10 -4.526242,-6.4 -17.999965,-8 -11.333325,5.0481 z"
         style="color:#1e92ff;fill:#4e5a7e;fill-opacity:0.501961;fill-rule:nonzero;stroke:none;stroke-width:1.7918"
         class="ColorScheme-ButtonFocus"
         sodipodi:nodetypes="ccccccc" />
      <path
         d="m 42.946773,1044.9622 c -2.08462,0.01 -3.364904,1.0611 -3.259325,2.6881 0.05623,0.8662 0.437954,1.4339 1.245601,1.8198 0.217137,0.1033 1.01648,0.3563 1.764605,0.5498 0.748127,0.193 1.451559,0.3994 1.557002,0.4649 0.23789,0.1494 0.332162,0.3782 0.332162,0.7409 0,0.226 -0.04459,0.3186 -0.207602,0.5075 -0.367517,0.4271 -1.070032,0.6122 -1.764604,0.4662 -0.5466,-0.1148 -0.773151,-0.2658 -1.245601,-0.8046 -0.563124,-0.6417 -0.855622,-0.7582 -1.287121,-0.5494 -0.261255,0.1256 -0.416896,0.3777 -0.415199,0.7192 0.0043,0.9548 1.103063,1.8155 2.615762,2.0309 0.517935,0.074 1.59875,0.018 2.096763,-0.1051 0.879825,-0.2113 1.572802,-0.7202 1.909922,-1.4181 0.187653,-0.3883 0.187153,-0.4469 0.186841,-1.0369 -2.94e-4,-0.5548 -0.0025,-0.682 -0.14532,-0.9945 -0.378743,-0.8254 -1.009604,-1.1951 -2.719564,-1.587 -0.616568,-0.1414 -1.204726,-0.2816 -1.328642,-0.3173 -0.348076,-0.1008 -0.63207,-0.3186 -0.726601,-0.5715 -0.0776,-0.208 -0.07371,-0.2636 0.04148,-0.5286 0.177996,-0.4102 0.569558,-0.6141 1.2456,-0.6141 0.728664,0 1.047534,0.1324 1.619281,0.6766 0.510498,0.4874 0.68058,0.5673 1.038005,0.509 0.663613,-0.1107 0.870964,-0.7512 0.456721,-1.3765 -0.499299,-0.7538 -1.724168,-1.2693 -3.010205,-1.2693 z"
         id="rect3906-9-1"
         style="fill:#058bce;fill-opacity:1;stroke:none;stroke-width:0.670732"
         inkscape:connector-curvature="0" />
      <path
         d="m 39.500011,1041.8347 c -0.158653,0.01 -0.311164,0.023 -0.47619,0.047 -1.847086,0.3165 -3.26122,1.9591 -3.261898,3.7841 -1.68e-4,0.4505 0.07789,0.8726 0.261904,1.4284 l 0.142857,0.4759 v 1.214 c 0.0024,1.019 0.02152,1.2594 0.07143,1.4999 0.66513,3.206 3.068958,5.3919 6.238083,5.665 0.331609,0.037 0.605482,0.036 1.166666,0 l 0.738093,-0.047 0.404761,0.143 c 0.468397,0.1663 0.694424,0.2215 0.928569,0.2615 0.242206,0.041 0.810899,0.043 1.142855,0 0.829918,-0.1013 1.669434,-0.5022 2.285711,-1.119 0.531745,-0.5314 0.877368,-1.1852 1.047617,-1.9752 0.04283,-0.1991 0.04795,-0.426 0.0476,-0.7854 -5.23e-4,-0.5777 -0.02861,-0.7682 -0.261905,-1.4522 l -0.142856,-0.4517 0.02378,-0.9526 c 0.02521,-1.0679 -0.01133,-1.4222 -0.190477,-2.1428 -0.590321,-2.373 -2.410309,-4.2382 -4.809512,-4.9272 -0.681004,-0.1952 -0.683449,-0.1886 -2.095236,-0.2136 l -1.333329,-0.028 -0.404763,-0.1429 c -0.579338,-0.202 -1.047849,-0.3029 -1.523806,-0.2852 z m 3.476183,2.2608 c 1.474945,0 2.879738,0.5803 3.452377,1.4281 0.475092,0.7034 0.23728,1.4239 -0.523809,1.5477 -0.409927,0.065 -0.604992,-0.027 -1.190475,-0.5718 -0.655733,-0.6124 -1.021442,-0.7623 -1.857139,-0.761 -0.775348,0 -1.224431,0.2288 -1.428569,0.6899 -0.132158,0.2985 -0.136614,0.3609 -0.04761,0.5949 0.108417,0.2848 0.434128,0.5298 0.833332,0.6428 0.142119,0.041 0.816669,0.1982 1.523809,0.3571 1.961135,0.4406 2.684662,0.8567 3.119039,1.7849 0.164538,0.3516 0.166332,0.495 0.166668,1.1188 3.56e-4,0.6637 0.0011,0.7298 -0.214287,1.1668 -0.386638,0.7849 -1.181409,1.3571 -2.190471,1.5949 -0.571167,0.134 -1.810746,0.2017 -2.404758,0.1184 -1.734902,-0.2422 -2.994562,-1.2106 -2.999993,-2.2848 -0.002,-0.3838 0.176559,-0.6672 0.476189,-0.809 0.494884,-0.2348 0.830343,-0.1038 1.476188,0.6183 0.541846,0.6062 0.801675,0.7757 1.428567,0.9049 0.796599,0.164 1.602303,-0.043 2.023807,-0.524 0.186979,-0.2126 0.238096,-0.3171 0.238096,-0.5713 0,-0.4081 -0.108118,-0.6651 -0.380954,-0.8333 -0.120929,-0.074 -0.92769,-0.3059 -1.78571,-0.523 -0.858018,-0.2177 -1.774777,-0.5025 -2.023808,-0.6188 -0.926286,-0.4336 -1.364074,-1.0726 -1.428566,-2.047 -0.121089,-1.8301 1.347255,-3.0194 3.738088,-3.0235 z"
         id="path3859-3-8"
         style="fill:url(#radialGradient3937-2-0);fill-opacity:0;stroke:none;stroke-width:0.761825"
         inkscape:connector-curvature="0" />
      <path
         id="primary-6-7"
         d="m 49.279983,1050.5782 a 6.0879767,6.0879767 0 0 0 0.12,-1.216 6.3999755,6.3999755 0 0 0 -6.399976,-6.4 6.0879767,6.0879767 0 0 0 -1.215998,0.12 3.5519863,3.5519863 0 0 0 -2.383991,-0.92 3.6079862,3.6079862 0 0 0 -3.599987,3.6 3.5519863,3.5519863 0 0 0 0.919998,2.4 6.0879767,6.0879767 0 0 0 -0.119999,1.2 6.3999755,6.3999755 0 0 0 6.399974,6.4 6.0879767,6.0879767 0 0 0 1.215998,-0.12 3.5519863,3.5519863 0 0 0 2.39999,0.92 3.6079862,3.6079862 0 0 0 3.583987,-3.6 3.5519863,3.5519863 0 0 0 -0.919996,-2.384 z"
         style="fill:none;stroke:#d6dbf1;stroke-width:1.6;stroke-linecap:round;stroke-linejoin:round;stroke-opacity:1" />
    </g>
  </g>
</svg>
