<?xml version="1.0" encoding="UTF-8" standalone="no"?>
<svg
   id="svg4153"
   width="22"
   height="22"
   version="1.1"
   viewBox="0 0 22 22"
   sodipodi:docname="software.svg"
   inkscape:version="1.1.1 (3bf5ae0d25, 2021-09-20)"
   xmlns:inkscape="http://www.inkscape.org/namespaces/inkscape"
   xmlns:sodipodi="http://sodipodi.sourceforge.net/DTD/sodipodi-0.dtd"
   xmlns:xlink="http://www.w3.org/1999/xlink"
   xmlns="http://www.w3.org/2000/svg"
   xmlns:svg="http://www.w3.org/2000/svg"
   xmlns:rdf="http://www.w3.org/1999/02/22-rdf-syntax-ns#"
   xmlns:cc="http://creativecommons.org/ns#"
   xmlns:dc="http://purl.org/dc/elements/1.1/">
  <metadata
     id="metadata35">
    <rdf:RDF>
      <cc:Work
         rdf:about="">
        <dc:format>image/svg+xml</dc:format>
        <dc:type
           rdf:resource="http://purl.org/dc/dcmitype/StillImage" />
      </cc:Work>
    </rdf:RDF>
  </metadata>
  <sodipodi:namedview
     pagecolor="#ffffff"
     bordercolor="#000000"
     borderopacity="1"
     objecttolerance="10"
     gridtolerance="10"
     guidetolerance="10"
     inkscape:pageopacity="0"
     inkscape:pageshadow="2"
     inkscape:window-width="1920"
     inkscape:window-height="1007"
     id="namedview33"
     showgrid="false"
     inkscape:zoom="5.269354"
     inkscape:cx="32.451796"
     inkscape:cy="12.050813"
     inkscape:window-x="0"
     inkscape:window-y="0"
     inkscape:window-maximized="1"
     inkscape:current-layer="svg4153"
     inkscape:document-rotation="0"
     showguides="true"
     inkscape:pagecheckerboard="0"
     inkscape:showpageshadow="false"
     inkscape:lockguides="true">
    <inkscape:grid
       type="xygrid"
       id="grid891"
       originx="9.9999997e-07"
       originy="-25" />
  </sodipodi:namedview>
  <defs
     id="defs4157">
    <style
       id="current-color-scheme"
       type="text/css" />
  </defs>
  <use
     x="0"
     y="0"
     xlink:href="#g878"
     id="use880"
     transform="translate(-27.327829,-24.999996)"
     width="100%"
     height="100%" />
  <use
     x="0"
     y="0"
     xlink:href="#use880"
     id="use882"
     transform="translate(-24.481181,0.18977975)"
     width="100%"
     height="100%" />
  <use
     x="0"
     y="0"
     xlink:href="#use884"
     id="use886"
     transform="translate(-27.897158,-24.240894)"
     width="100%"
     height="100%" />
  <g
     id="g6"
     transform="matrix(0.81634558,0,0,0.81634558,-30.939696,-37.614514)" />
  <g
     id="software-updates-important"
     transform="translate(4.051758e-6,25.036999)">
    <path
       d="m 16.103016,5.766816 3.241875,1.648781 -0.979545,0.480605 c 0.403741,0.953625 0.630317,2.001663 0.630317,3.103874 C 18.995663,15.417109 15.414777,19 10.995738,19 9.580081,19 8.251302,18.628321 7.097995,17.982753 l 0.809189,-0.808996 c 0.930147,0.466646 1.976131,0.73595 3.088554,0.73595 3.81598,0 6.907941,-3.093694 6.907941,-6.908094 0,-1.023622 -0.2368,-1.988133 -0.63713,-2.861833 z m -5.216831,1.69731 z m 0,0 z m 0.111269,-3.373909 c -3.815977,0 -6.90794,3.093947 -6.90794,6.909859 0,1.023647 0.2368,1.987981 0.637132,2.861682 L 5.891882,16.233184 2.65,14.584176 3.629548,14.103672 C 3.225802,13.14977 2.999228,12.101984 2.999228,11.000076 2.997528,6.582438 6.580119,3 10.997454,3 12.413111,3 13.741893,3.371251 14.8952,4.016869 l -0.809189,0.809348 c -0.930144,-0.466746 -1.977834,-0.736 -3.088557,-0.736 z"
       id="path4-9-3-36-1"
       sodipodi:nodetypes="cccssccsscccccccccccccccccccccccccccsscccccscc"
       style="fill:#d6dbf1;fill-opacity:1;stroke-width:0.0170355" />
    <rect
       style="fill:#4e5a7e;fill-opacity:0.499251;stroke:none;stroke-width:0.345834"
       id="center-3-35-27"
       width="13.799999"
       height="13.866667"
       x="4.1166706"
       y="4.0666547"
       ry="6.933322" />
    <path
       inkscape:connector-curvature="0"
       id="path4202-6"
       d="m 11.019801,7.799997 3.9198,6.533 H 7.1 Z"
       style="fill:#ffcc00;fill-opacity:1;fill-rule:evenodd;stroke:none;stroke-width:1.3066px;stroke-linecap:butt;stroke-linejoin:miter;stroke-opacity:1" />
    <rect
       id="rect855"
       width="22"
       height="22"
       x="0"
       y="0"
       style="opacity:0;fill:#7a0000;fill-opacity:1;stroke:none;stroke-opacity:1" />
  </g>
  <g
     id="software-updates-additional"
     transform="translate(30.002001,-0.06300025)">
    <rect
       style="opacity:0;fill:#7a0000;fill-opacity:1;stroke:none;stroke-opacity:1"
       y="4.5996094e-07"
       x="-1.9128419e-07"
       height="22"
       width="22"
       id="rect860" />
    <path
       d="M 16.103016,5.7668189 19.344891,7.4156 18.365346,7.8962047 c 0.403741,0.9536252 0.630317,2.001663 0.630317,3.1038743 0,4.417033 -3.580886,7.999924 -7.999925,7.999924 -1.415657,0 -2.7444356,-0.371679 -3.8977433,-1.017247 L 7.907184,17.17376 c 0.9301467,0.466646 1.976131,0.73595 3.088554,0.73595 3.81598,0 6.907941,-3.093694 6.907941,-6.908094 0,-1.0236223 -0.2368,-1.9881326 -0.63713,-2.8618333 z m -5.216831,1.6973102 z m 0,0 z m 0.111269,-3.3739086 c -3.8159771,0 -6.9079397,3.0939464 -6.9079397,6.9098585 0,1.023647 0.2367999,1.987981 0.6371318,2.861682 L 5.891882,16.233187 2.65,14.584179 3.6295483,14.103675 C 3.2258018,13.149773 2.9992282,12.101987 2.9992282,11.000079 2.9975241,6.582441 6.5801188,3.0000032 10.997454,3.0000032 c 1.415657,0 2.744439,0.3712504 3.897746,1.0168693 l -0.809189,0.809348 c -0.930144,-0.4667464 -1.977834,-0.736 -3.088557,-0.736 z"
       id="path4-9-3-36"
       sodipodi:nodetypes="cccssccsscccccccccccccccccccccccccccsscccccscc"
       style="fill:#00a3cc;fill-opacity:1;stroke-width:0.0170355" />
    <rect
       style="fill:#4e5a7e;fill-opacity:0.499251;stroke:none;stroke-width:0.345834"
       id="center-3-35"
       width="13.799999"
       height="13.866667"
       x="4.1166663"
       y="4.066659"
       ry="6.933322" />
    <path
       d="M 14.290161,9.7192472 C 14.23493,9.8502708 14.103982,9.936696 13.958687,9.9364441 H 12.735498 V 13.547833 H 9.2305533 V 9.9364441 H 8.0073621 C 7.8628078,9.9362425 7.7325149,9.8510267 7.67717,9.7202551 7.6219385,9.5902393 7.6524771,9.4393606 7.7545495,9.3392787 L 10.730298,6.4344599 c 0.140094,-0.1348032 0.365321,-0.1348032 0.505413,0 l 2.975748,2.9047936 c 0.102198,0.099276 0.133165,0.2494488 0.07867,0.3799937 z M 9.2303064,15.316954 c 0,0.19326 0.1601007,0.349758 0.3576642,0.349758 h 2.7898964 c 0.197568,0 0.357659,-0.156977 0.357659,-0.349758 v -1.07011 H 9.2305785 Z"
       id="path49-36"
       style="fill:#00a3cc;fill-opacity:1;stroke-width:0.0269453" />
  </g>
  <g
     id="software-updates-updates"
     transform="translate(30.002001,-25.063)">
    <rect
       id="rect4210"
       width="22"
       height="22"
       x="-1.9128419e-07"
       y="-3.9062503e-11"
       style="opacity:0;fill:#7a0000;fill-opacity:1;stroke:none;stroke-opacity:1" />
    <path
       d="M 16.153103,5.7668161 19.395,7.415597 18.415448,7.896202 C 18.819192,8.849827 19.04577,9.8978655 19.04577,11.000077 19.04577,15.41711 15.464861,19 11.045792,19 9.6301262,19 8.3013386,18.628321 7.148024,17.982753 l 0.8091943,-0.808996 c 0.9301531,0.466646 1.9761439,0.73595 3.0885737,0.73595 3.816005,0 6.907987,-3.093694 6.907987,-6.908094 0,-1.023622 -0.236802,-1.988133 -0.637135,-2.861833 z M 10.936238,7.464126 Z m 0,0 z m 0.111271,-3.3739079 c -3.8160024,0 -6.9079856,3.0939459 -6.9079856,6.9098589 0,1.023647 0.2368015,1.98798 0.6371362,2.861682 L 5.9419032,16.233184 2.7,14.584176 3.6795543,14.103672 C 3.2758057,13.149771 3.0492303,12.101985 3.0492303,11.000077 3.0475303,6.582438 6.6301447,3 11.047509,3 c 1.415665,0 2.744456,0.371251 3.897771,1.0168691 l -0.809194,0.809348 c -0.930151,-0.466746 -1.977847,-0.735999 -3.088577,-0.735999 z"
       id="path4-9-3-36-3"
       sodipodi:nodetypes="cccssccsscccccccccccccccccccccccccccsscccccscc"
       style="fill:#d6dbf1;fill-opacity:1;stroke-width:0.0170356" />
    <rect
       style="fill:#4e5a7e;fill-opacity:0.499251;stroke:none;stroke-width:0.345835"
       id="center-3-35-6"
       width="13.80009"
       height="13.866667"
       x="4.1666746"
       y="4.0666552"
       ry="6.933322" />
    <path
       d="m 14.340237,9.719244 c -0.05523,0.131024 -0.186181,0.2174495 -0.331476,0.2171975 H 12.785564 V 13.547831 H 9.2805959 V 9.9364415 H 8.057397 C 7.912842,9.9362405 7.7825482,9.851021 7.7272028,9.720252 7.6719725,9.590236 7.7025127,9.439358 7.8045833,9.339276 L 10.780351,6.434457 c 0.140095,-0.134803 0.365323,-0.134803 0.505416,0 l 2.975768,2.904793 c 0.102198,0.09928 0.133165,0.249449 0.07867,0.379994 z m -5.059888,5.597707 c 0,0.193261 0.160102,0.349758 0.3576673,0.349758 H 12.42793 c 0.19757,0 0.357662,-0.156977 0.357662,-0.349758 V 14.246842 H 9.280621 Z"
       id="path49-36-7"
       style="fill:#00aa7f;fill-opacity:1;stroke-width:0.0269454" />
  </g>
  <g
     id="software-updates-inactive"
     transform="translate(0,-24.999996)">
    <rect
       id="rect870"
       width="22"
       height="22"
       x="0"
       y="0"
       style="opacity:0;fill:#7a0000;fill-opacity:1;stroke:none;stroke-opacity:1" />
    <path
       d="m 16.103016,6.302686 3.241875,1.648781 -0.979545,0.480605 c 0.403741,0.953625 0.630317,2.001663 0.630317,3.103874 0,4.417033 -3.580886,7.999924 -7.999925,7.999924 -1.415657,0 -2.744436,-0.371679 -3.897743,-1.017247 l 0.809189,-0.808996 c 0.930147,0.466646 1.976131,0.73595 3.088554,0.73595 3.81598,0 6.907941,-3.093694 6.907941,-6.908094 0,-1.023622 -0.2368,-1.988133 -0.63713,-2.861833 z m -5.216831,1.69731 z m 0,0 z m 0.111269,-3.373908 c -3.815977,0 -6.90794,3.093946 -6.90794,6.909858 0,1.023647 0.2368,1.987981 0.637132,2.861682 L 5.891882,16.769054 2.65,15.120046 3.629548,14.639542 C 3.225802,13.68564 2.999228,12.637854 2.999228,11.535946 2.997528,7.118308 6.580119,3.53587 10.997454,3.53587 c 1.415657,0 2.744439,0.371251 3.897746,1.016869 L 14.086011,5.362087 C 13.155867,4.895341 12.108177,4.626088 10.997454,4.626088 Z"
       id="path4-9-3-36-6"
       sodipodi:nodetypes="cccssccsscccccccccccccccccccccccccccsscccccscc"
       style="fill:#d6dbf1;fill-opacity:1;stroke-width:0.0170355" />
    <rect
       style="fill:#4e5a7e;fill-opacity:0.499251;stroke:none;stroke-width:0.345834"
       id="center-3-35-2"
       width="13.799999"
       height="13.866667"
       x="4.1166697"
       y="4.6025252"
       ry="6.933322" />
  </g>
  <g
     id="software-updates-release"
     transform="translate(30.002001,24.937)">
    <rect
       id="rect27"
       width="22"
       height="22"
       x="-1.9128419e-07"
       y="4.5996094e-07"
       style="opacity:0;fill:#7a0000;fill-opacity:1;stroke:none;stroke-opacity:1" />
    <path
       d="m 16.103016,5.766816 3.241875,1.648781 -0.979545,0.480605 c 0.403741,0.953625 0.630317,2.001663 0.630317,3.103874 C 18.995663,15.417109 15.414777,19 10.995738,19 9.580081,19 8.251302,18.628321 7.097995,17.982753 l 0.809189,-0.808996 c 0.930147,0.466646 1.976131,0.73595 3.088554,0.73595 3.81598,0 6.907941,-3.093694 6.907941,-6.908094 0,-1.023622 -0.2368,-1.988133 -0.63713,-2.861833 z m -5.216831,1.69731 z m 0,0 z m 0.111269,-3.373909 c -3.815977,0 -6.90794,3.093947 -6.90794,6.909859 0,1.023647 0.2368,1.987981 0.637132,2.861682 L 5.891882,16.233184 2.65,14.584176 3.629548,14.103672 C 3.225802,13.14977 2.999228,12.101984 2.999228,11.000076 2.997528,6.582438 6.580119,3 10.997454,3 12.413111,3 13.741893,3.371251 14.8952,4.016869 l -0.809189,0.809348 c -0.930144,-0.466746 -1.977834,-0.736 -3.088557,-0.736 z"
       id="path4-9-3-36-5"
       sodipodi:nodetypes="cccssccsscccccccccccccccccccccccccccsscccccscc"
       style="fill:#00aa7f;fill-opacity:1;stroke-width:0.0170355" />
    <rect
       style="fill:#4e5a7e;fill-opacity:0.499251;stroke:none;stroke-width:0.345834"
       id="center-3-35-3"
       width="13.799999"
       height="13.866667"
       x="4.1166654"
       y="4.0666528"
       ry="6.933322" />
    <path
       d="m 14.290161,9.719244 c -0.05523,0.131024 -0.186179,0.217449 -0.331474,0.217197 H 12.735498 V 13.54783 H 9.230553 V 9.936441 H 8.007362 C 7.862808,9.936239 7.732515,9.851021 7.67717,9.720252 7.62194,9.590236 7.65248,9.439358 7.75455,9.339276 l 2.975748,-2.904819 c 0.140094,-0.134803 0.365321,-0.134803 0.505413,0 l 2.975748,2.904793 c 0.102198,0.09928 0.133165,0.249449 0.07867,0.379994 z m -5.059855,5.597707 c 0,0.19326 0.160101,0.349758 0.357665,0.349758 h 2.789896 c 0.197568,0 0.357659,-0.156977 0.357659,-0.349758 v -1.07011 H 9.230578 Z"
       id="path49-36-5"
       style="fill:#00aa7f;fill-opacity:1;stroke-width:0.0269453" />
  </g>
  <g
     id="software-updates-security"
     transform="translate(4.051758e-6,25.036999)">
    <rect
       id="rect865"
       width="22"
       height="22"
       x="-4.051758e-06"
       y="-25.036999"
       style="opacity:0;fill:#7a0000;fill-opacity:1;stroke:none;stroke-opacity:1" />
    <path
       d="m 16.103012,-19.270184 3.241875,1.648782 -0.979545,0.480604 c 0.403741,0.953625 0.630317,2.001663 0.630317,3.103874 0,4.4170333 -3.580886,7.9999243 -7.999925,7.9999243 -1.4156571,0 -2.7444361,-0.371679 -3.8977431,-1.017247 l 0.809189,-0.808996 c 0.930147,0.466647 1.976131,0.73595 3.0885541,0.73595 3.81598,0 6.907941,-3.0936943 6.907941,-6.9080933 0,-1.023623 -0.2368,-1.988133 -0.63713,-2.861834 z m -5.216831,1.697311 z m 0,0 z m 0.111269,-3.373909 c -3.8159771,0 -6.9079401,3.093946 -6.9079401,6.909858 0,1.023647 0.2368,1.987981 0.637132,2.861682 l 1.165236,2.3714263 -3.241882,-1.6490073 0.979548,-0.480504 c -0.403746,-0.953903 -0.63032,-2.001689 -0.63032,-3.103597 -0.0017,-4.417638 3.580891,-8.000075 7.9982261,-8.000075 1.415657,0 2.744439,0.37125 3.897746,1.016869 l -0.809189,0.809348 c -0.930144,-0.466747 -1.977834,-0.736 -3.088557,-0.736 z"
       id="path4-9-3-36-9"
       sodipodi:nodetypes="cccssccsscccccccccccccccccccccccccccsscccccscc"
       style="fill:#d6dbf1;fill-opacity:1;stroke-width:0.0170355" />
    <rect
       style="fill:#4e5a7e;fill-opacity:0.499251;stroke:none;stroke-width:0.345834"
       id="center-3-35-36"
       width="13.799999"
       height="13.866667"
       x="4.1166725"
       y="-20.970341"
       ry="6.933322" />
    <path
       id="path4191-7-2"
       d="m 11.049993,-17.786999 c 0,1.250004 -2.4999971,1.250004 -2.4999971,1.250004 v 3.75 c 0,1.249993 1.250004,1.249993 2.4999971,2.499996 1.250003,-1.250003 2.500007,-1.250003 2.500007,-2.499996 v -3.75 c 0,0 -2.500007,0 -2.500007,-1.250004 z"
       style="fill:#ffcc00;fill-opacity:1;fill-rule:evenodd;stroke:none;stroke-width:1.25004px;stroke-linecap:butt;stroke-linejoin:miter;stroke-opacity:1"
       inkscape:connector-curvature="0" />
  </g>
</svg>
