<?xml version="1.0" encoding="UTF-8" standalone="no"?>
<svg
   id="svg12"
   width="32"
   height="32"
   version="1.1"
   sodipodi:docname="start.svg"
   inkscape:version="1.1.1 (3bf5ae0d25, 2021-09-20)"
   xmlns:inkscape="http://www.inkscape.org/namespaces/inkscape"
   xmlns:sodipodi="http://sodipodi.sourceforge.net/DTD/sodipodi-0.dtd"
   xmlns:xlink="http://www.w3.org/1999/xlink"
   xmlns="http://www.w3.org/2000/svg"
   xmlns:svg="http://www.w3.org/2000/svg"
   xmlns:rdf="http://www.w3.org/1999/02/22-rdf-syntax-ns#"
   xmlns:cc="http://creativecommons.org/ns#"
   xmlns:dc="http://purl.org/dc/elements/1.1/">
  <g
     id="22-22-start-here-kde"
     transform="translate(-22,10)">
    <rect
       id="rect2"
       style="opacity:0.00100002"
       width="22"
       height="22"
       x="0"
       y="0" />
    <path
       fill-rule="evenodd"
       clip-rule="evenodd"
       d="M 18.144157,20.996186 H 7.4312028 c -0.39385,0 -0.713433,0.06374 -0.713433,-0.329939 0,-0.394745 0.319583,-0.329935 0.713433,-0.329935 H 18.144157 c 1.236289,0 2.197553,-0.95717 2.197553,-2.197079 V 3.856242 c 0,-1.346429 -1.190405,-2.197115 -2.197553,-2.197138 L 3.8608158,1.658788 c -1.132856,-2.6e-5 -2.197851,0.935986 -2.197851,2.197137 V 17.42508 c 0,0.394747 0.06558,0.714152 -0.329168,0.714152 -0.39403398,0 -0.329934,-0.319405 -0.329934,-0.714152 V 3.856242 C 1.0038628,2.278685 2.2834418,1 3.8608198,1 H 18.144161 c 1.577216,0 2.855889,1.278685 2.855889,2.856242 v 14.282991 c 0,1.577553 -1.278673,2.856953 -2.855889,2.856953 z M 4.5751428,19.567529 c 0.393852,0 0.714149,0.31976 0.714149,0.714507 0,0.393676 -0.320297,0.71415 -0.714149,0.71415 -0.394745,0 -0.714327,-0.320474 -0.714327,-0.71415 0,-0.394747 0.319582,-0.714507 0.714327,-0.714507 z"
       id="path2-6-3-5"
       style="opacity:0.6;fill:url(#linearGradient977);fill-opacity:1;stroke-width:0.0446348"
       sodipodi:nodetypes="sssssssssssssssssssssssss" />
    <rect
       style="opacity:1;fill:#5599ff;fill-opacity:0.10196079;stroke:none;stroke-width:0.499999"
       id="center-3-6"
       width="19.999966"
       height="20"
       x="1.0000007"
       y="1"
       ry="2.8723276" />
    <path
       id="path20-2"
       style="color:#31363b;fill:url(#linearGradient979);fill-opacity:1;stroke-width:0.573707"
       d="m 7.6200718,4.210452 c -0.477849,0 -0.865219,0.383213 -0.865219,0.855928 0,0.472714 0.38737,0.855926 0.865219,0.855926 0.477846,0 0.865219,-0.383212 0.865219,-0.855926 0,-0.472715 -0.387373,-0.855928 -0.865219,-0.855928 z m 6.0565362,0 C 12.622106,3.631442 11.371669,4.857725 11.94617,5.922306 l 2.595658,2.567779 -2.595658,2.56778 c -0.712807,1.177726 0.697538,2.307057 1.730438,1.711852 l 4.326098,-4.279632 z m -8.0753832,5.13556 c -0.796412,0 -1.442032,0.638686 -1.442032,1.426545 0,0.787858 0.64562,1.426543 1.442032,1.426543 0.796413,0 1.442033,-0.638685 1.442033,-1.426543 0,-0.787859 -0.64562,-1.426545 -1.442033,-1.426545 z m 3.749286,5.135559 c -0.955695,0 -1.730439,0.766423 -1.730439,1.711852 0,0.945431 0.774744,1.711854 1.730439,1.711854 0.9556952,0 1.7304382,-0.766423 1.7304382,-1.711854 0,-0.945429 -0.774743,-1.711852 -1.7304382,-1.711852 z"
       class="ColorScheme-Text"
       sodipodi:nodetypes="ssssscccccccssssssssss" />
  </g>
  <g
     id="start-here-kde">
    <rect
       id="rect7"
       style="opacity:0.00100002"
       width="32"
       height="32"
       x="0"
       y="0" />
    <path
       fill-rule="evenodd"
       clip-rule="evenodd"
       d="m 25.287403,28.995042 h -13.92684 c -0.512006,0 -0.927463,0.08286 -0.927463,-0.42892 0,-0.51317 0.415457,-0.428917 0.927463,-0.428917 h 13.92684 c 1.607176,0 2.856819,-1.24432 2.856819,-2.856203 V 6.7131146 c 0,-1.7503581 -1.547527,-2.8562499 -2.856819,-2.8562794 L 6.7190593,3.8564235 C 5.2463472,3.8563906 3.8618533,5.0732062 3.8618533,6.7127029 V 24.352604 c 0,0.513172 0.085244,0.928398 -0.4279184,0.928398 -0.5122433,0 -0.4289132,-0.415226 -0.4289132,-0.928398 V 6.7131146 C 3.0050217,4.6622909 4.6684735,3 6.7190644,3 H 25.287408 c 2.050381,0 3.712656,1.6622909 3.712656,3.7131146 V 25.281002 c 0,2.05082 -1.662275,3.71404 -3.712656,3.71404 z M 7.6476853,27.137788 c 0.5120072,0 0.9283928,0.415688 0.9283928,0.928859 0,0.511779 -0.4163856,0.928395 -0.9283928,0.928395 -0.5131692,0 -0.928626,-0.416616 -0.928626,-0.928395 0,-0.513171 0.4154568,-0.928859 0.928626,-0.928859 z"
       id="path2-6-3"
       style="opacity:0.6;fill:url(#linearGradient1761);fill-opacity:1;stroke-width:0.0580253"
       sodipodi:nodetypes="sssssssssssssssssssssssss" />
    <rect
       style="opacity:1;fill:#5599ff;fill-opacity:0.10196079;stroke:none;stroke-width:0.649999"
       id="center-3"
       width="25.999956"
       height="26"
       x="3.000001"
       y="3.000001"
       ry="3.7340257" />
    <path
       id="path20"
       style="color:#31363b;fill:url(#linearGradient848);fill-opacity:1;stroke-width:0.745819"
       d="m 11.606092,7.1735876 c -0.621203,0 -1.124785,0.4981765 -1.124785,1.1127064 0,0.6145282 0.503582,1.112704 1.124785,1.112704 0.621201,0 1.124785,-0.4981758 1.124785,-1.112704 0,-0.6145299 -0.503584,-1.1127064 -1.124785,-1.1127064 z m 7.873498,0 C 18.108737,6.4208755 16.483169,8.0150421 17.23002,9.398998 l 3.374356,3.338113 -3.374356,3.338113 c -0.926649,1.531044 0.906799,2.999174 2.24957,2.225409 l 5.623927,-5.563522 z M 8.9815919,13.849816 c -1.0353366,0 -1.874642,0.830291 -1.874642,1.854508 0,1.024215 0.8393054,1.854506 1.874642,1.854506 1.0353371,0 1.8746421,-0.830291 1.8746421,-1.854506 0,-1.024217 -0.839305,-1.854508 -1.8746421,-1.854508 z m 4.8740711,6.676226 c -1.242403,0 -2.249571,0.99635 -2.249571,2.225408 0,1.22906 1.007168,2.225411 2.249571,2.225411 1.242404,0 2.24957,-0.996351 2.24957,-2.225411 0,-1.229058 -1.007166,-2.225408 -2.24957,-2.225408 z"
       class="ColorScheme-Text"
       sodipodi:nodetypes="ssssscccccccssssssssss" />
  </g>
  <metadata
     id="metadata19">
    <rdf:RDF>
      <cc:Work
         rdf:about="">
        <dc:format>image/svg+xml</dc:format>
        <dc:type
           rdf:resource="http://purl.org/dc/dcmitype/StillImage" />
      </cc:Work>
    </rdf:RDF>
  </metadata>
  <defs
     id="g17">
    <linearGradient
       id="linearGradient1033"
       x1="0"
       x2="0"
       y1="0"
       y2="1">
      <stop
         offset="0%"
         style="stop-color:#007f98;stop-opacity:0.80000001"
         id="stop1029" />
      <stop
         offset="0.50102341"
         style="stop-color:#20ffff;stop-opacity:0.80000001"
         id="stop1133" />
      <stop
         offset="100%"
         style="stop-color:#ffaeff;stop-opacity:0.80000001"
         id="stop1031" />
    </linearGradient>
    <linearGradient
       id="linearGradient865"
       x1="0"
       x2="0"
       y1="0"
       y2="1">
      <stop
         offset="0%"
         style="stop-color:#096b83;stop-opacity:1"
         id="stop861" />
      <stop
         offset="100%"
         style="stop-color:#11c3ee;stop-opacity:1"
         id="stop863" />
    </linearGradient>
    <clipPath
       id="_clipPath_gNaW6PK2HuleaAjec1GHnM0Z84ZMay60">
      <rect
         width="16"
         height="16"
         id="rect56"
         x="0"
         y="0" />
    </clipPath>
    <linearGradient
       id="oomox"
       x1="0"
       x2="0"
       y1="0"
       y2="1">
      <stop
         offset="0%"
         style="stop-color:#303b3d; stop-opacity:1"
         id="stop18" />
      <stop
         offset="100%"
         style="stop-color:#bc985d; stop-opacity:1"
         id="stop20" />
    </linearGradient>
    <linearGradient
       id="oomox-3"
       x1="15.097227"
       x2="0"
       y1="0.76177037"
       y2="16.018156"
       gradientTransform="matrix(1.874518,0,0,1.7041711,1.699976,1.701813)"
       gradientUnits="userSpaceOnUse"
       spreadMethod="pad">
      <stop
         offset="0%"
         style="stop-color:#303b3d; stop-opacity:1"
         id="stop18-6" />
      <stop
         offset="100%"
         style="stop-color:#bc985d; stop-opacity:1"
         id="stop20-7" />
    </linearGradient>
    <linearGradient
       inkscape:collect="always"
       id="linearGradient2299">
      <stop
         style="stop-color:#80e5ff;stop-opacity:1"
         offset="0"
         id="stop2295" />
      <stop
         style="stop-color:#c6afe9;stop-opacity:1"
         offset="1"
         id="stop2297" />
    </linearGradient>
    <linearGradient
       inkscape:collect="always"
       xlink:href="#linearGradient2299"
       id="linearGradient1761"
       x1="3"
       y1="16.10248"
       x2="29.005022"
       y2="16.10248"
       gradientUnits="userSpaceOnUse"
       gradientTransform="matrix(0.99980926,0,0,0.99980926,5.717932e-4,-0.09940803)" />
    <linearGradient
       inkscape:collect="always"
       xlink:href="#linearGradient1033"
       id="linearGradient848"
       x1="26"
       y1="15.869712"
       x2="50"
       y2="15.869712"
       gradientUnits="userSpaceOnUse"
       gradientTransform="matrix(0.74985695,0,0,0.74180293,-12.389331,4.2063764)" />
    <linearGradient
       inkscape:collect="always"
       xlink:href="#linearGradient2299"
       id="linearGradient977"
       gradientUnits="userSpaceOnUse"
       gradientTransform="matrix(0.76908406,0,0,0.76908406,-1.3072522,-1.38416)"
       x1="3"
       y1="16.10248"
       x2="29.005022"
       y2="16.10248" />
    <linearGradient
       inkscape:collect="always"
       xlink:href="#linearGradient1033"
       id="linearGradient979"
       gradientUnits="userSpaceOnUse"
       gradientTransform="matrix(0.57681306,0,0,0.57061766,-10.837946,1.927982)"
       x1="26"
       y1="15.869712"
       x2="50"
       y2="15.869712" />
  </defs>
  <sodipodi:namedview
     pagecolor="#ffffff"
     bordercolor="#666666"
     borderopacity="1"
     objecttolerance="10"
     gridtolerance="10"
     guidetolerance="10"
     inkscape:pageopacity="0"
     inkscape:pageshadow="2"
     inkscape:window-width="1920"
     inkscape:window-height="1007"
     id="namedview15"
     showgrid="false"
     inkscape:zoom="10.092342"
     inkscape:cx="-3.6661461"
     inkscape:cy="22.839099"
     inkscape:window-x="0"
     inkscape:window-y="0"
     inkscape:window-maximized="1"
     inkscape:current-layer="svg12"
     inkscape:document-rotation="0"
     inkscape:lockguides="false"
     inkscape:pagecheckerboard="0">
    <inkscape:grid
       type="xygrid"
       id="grid1122"
       originx="0"
       originy="0" />
  </sodipodi:namedview>
  <g
     id="g16"
     transform="matrix(0.046875,0,0,0.046875,-59.692605,-9.860676)">
    <g
       id="g857" />
  </g>
</svg>
