<?xml version="1.0" encoding="UTF-8" standalone="no"?>
<svg
   width="32"
   height="32"
   version="1"
   id="svg419"
   sodipodi:docname="strawberry.svg"
   inkscape:version="1.3.2 (091e20ef0f, 2023-11-25)"
   xmlns:inkscape="http://www.inkscape.org/namespaces/inkscape"
   xmlns:sodipodi="http://sodipodi.sourceforge.net/DTD/sodipodi-0.dtd"
   xmlns="http://www.w3.org/2000/svg"
   xmlns:svg="http://www.w3.org/2000/svg">
  <defs
     id="defs423" />
  <sodipodi:namedview
     id="namedview421"
     pagecolor="#ffffff"
     bordercolor="#000000"
     borderopacity="1"
     inkscape:showpageshadow="true"
     inkscape:pageopacity="0.0"
     inkscape:pagecheckerboard="false"
     inkscape:deskcolor="#cccccc"
     showgrid="false"
     inkscape:zoom="7.375"
     inkscape:cx="21.559322"
     inkscape:cy="17.627119"
     inkscape:window-width="1920"
     inkscape:window-height="994"
     inkscape:window-x="0"
     inkscape:window-y="0"
     inkscape:window-maximized="1"
     inkscape:current-layer="svg419">
    <inkscape:grid
       id="grid1"
       units="px"
       originx="0"
       originy="0"
       spacingx="1"
       spacingy="1"
       empcolor="#0099e5"
       empopacity="0.30196078"
       color="#0099e5"
       opacity="0.14901961"
       empspacing="5"
       dotted="false"
       gridanglex="30"
       gridanglez="30"
       visible="false" />
  </sodipodi:namedview>
  <g
     id="strawberry">
    <rect
       style="opacity:0.00100002;fill:#bac8df;fill-opacity:1"
       width="32"
       height="32"
       x="-32"
       y="0"
       id="rect414"
       transform="rotate(-90)" />
    <path
       inkscape:connector-curvature="0"
       id="fill-3"
       d="M 21.461,27.023083 C 18,27 15,24 15,24 L 12,23 11,21 C 8.9181899,20.202705 8,18 8,15 c 1.9722367,0.456461 3.304473,-0.56072 4.575992,-1.717705 L 16,14 c 2.011386,-1.117771 -0.206387,-6.1424568 4.345302,-2.975059 L 21.853073,9.017064 C 22.606714,8.1382678 25.067378,10.811187 25,14 c -0.04226,1.999999 0,6 0,6 0,4 0,7 -3.539,7.023083 z"
       style="color:#1e92ff;fill:#4e5a7e;fill-opacity:0.501961;fill-rule:nonzero;stroke:none;stroke-width:5.33159"
       class="ColorScheme-ButtonFocus"
       sodipodi:nodetypes="cccccccccscc" />
    <path
       style="fill:#d6dbf1;fill-opacity:1;stroke-width:0.98759"
       d="m 6,14.213827 c 0,0.114612 0.220888,0.146841 0.513658,0.07619 0,0 0.934849,-0.203278 1.619095,-1.565914 0.444781,-0.947742 0.702013,-0.944659 0.968724,0.0078 0.116229,0.41499 0.337148,0.91888 0.49022,1.120144 0.252461,0.331939 0.356996,0.211169 1.123016,-1.303025 0.464461,-0.918096 0.978741,-1.840186 1.1445,-2.04788 0.287785,-0.360597 0.328557,-0.343479 0.886694,0.360045 0.623088,0.785393 2.079348,1.714505 2.687426,1.714505 0.328741,0 0.35563,-0.154271 0.251946,-1.447805 -0.06379,-0.795761 -0.143413,-1.670609 -0.17773,-1.94501 l -0.0625,-0.499112 1.652299,0.0724 c 0.909449,0.03919 1.88157,0.152269 2.158143,0.253366 0.276571,0.101096 0.544014,0.143023 0.595686,0.09334 C 20.068721,8.893721 19.588049,8.042195 18.923469,7.456946 18.244051,6.858634 18.231181,6.820254 18.648087,6.693039 19.395465,6.264621 20.049714,6.073833 20.70467,5.40907 20.71852,5.260619 20.539122,5.148074 20.167576,5.052831 19.023719,4.759612 17.916607,4.917273 16.773139,5.534797 16.156973,5.867559 15.185819,6.192809 14.614994,6.2587 14.044171,6.32458 13.379344,6.434168 13.138473,6.500635 12.772457,6.601641 12.558648,6.405575 11.837728,5.308101 11.016864,4.058496 10.54977,3.734423 10.245975,4.207011 c -0.07548,0.117417 0.153644,0.736583 0.507798,1.375412 0.354155,0.638828 0.642561,1.286709 0.642561,1.440185 0,0.153471 -0.442556,0.635767 -0.984348,1.070612 -0.941601,0.755702 -1.049657,0.790548 -2.439385,0.790548 -1.320502,0 -1.458857,0.039 -1.515584,0.421005 -0.04585,0.308768 0.105399,0.487329 0.570297,0.672466 0.348304,0.138709 0.632795,0.322157 0.632795,0.407673 0,0.0855 -0.373396,0.936852 -0.830055,1.891671 C 6.3734,13.231234 6,14.103094 6,14.213827 Z m 1.013644,0.931548 c 0.01053,0.186516 0.01355,0.344621 0.04297,0.6096 0.330688,2.978096 2.246217,5.463883 6.404119,8.305825 1.255452,0.858109 2.868397,1.960039 3.583885,2.449837 3.014108,2.063354 6.107289,1.974007 7.407998,-0.213361 0.840657,-1.413712 1.174306,-2.779102 1.206997,-4.941585 0.01642,-1.086936 0.09755,-2.677579 0.179683,-3.535688 0.229201,-2.394159 0.223039,-2.694428 -0.08203,-4.379607 -0.341447,-1.886101 -1.052454,-3.34068 -2.203063,-4.509147 -0.653814,-0.66396 -2.137858,-1.524457 -3.32608,-2.032641 -0.117268,0.05593 -0.236245,0.117209 -0.353506,0.175259 0.269366,0.284973 0.547628,0.570704 0.720683,0.878208 0.12019,0.213572 0.218835,0.423173 0.275383,0.693422 0.05655,0.270249 0.111027,0.741591 -0.316397,1.152528 -0.371625,0.357278 -0.597039,0.295432 -0.738262,0.300991 -0.141222,0.0057 -0.239893,-0.0077 -0.33788,-0.02284 -0.195974,-0.03071 -0.379078,-0.08106 -0.574203,-0.1524 0.105266,0.03848 -0.249705,-0.05251 -0.611312,-0.09524 -0.361607,-0.04272 -0.810817,-0.08063 -1.238246,-0.09906 l -0.49608,-0.02093 c 0.04015,0.41207 0.07948,0.801408 0.123043,1.344935 0.0526,0.65624 0.103657,0.996129 0.02539,1.445899 -0.03914,0.224885 -0.158399,0.576555 -0.478501,0.811533 -0.320103,0.234958 -0.633033,0.240031 -0.7949,0.240031 -0.826254,0 -1.29164,-0.343679 -1.884714,-0.721998 -0.474541,-0.302706 -0.89139,-0.693586 -1.275355,-1.097284 -0.199082,0.355944 -0.43718,0.803198 -0.662091,1.247779 -0.386282,0.763566 -0.546156,1.147956 -0.884742,1.54115 -0.08465,0.0983 -0.189346,0.209202 -0.380848,0.314326 -0.1915,0.105063 -0.511803,0.177552 -0.785132,0.121859 C 9.013791,14.84539 8.889039,14.564451 8.788987,14.432903 8.630962,14.225127 8.594275,14.000508 8.499933,13.790917 8.209856,14.165445 7.922592,14.622545 7.646441,14.813903 7.411544,14.976674 7.186159,15.079132 7.013646,15.145375 Z m 1.048799,0.548641 c 0.06021,-0.03682 0.102122,-0.0428 0.164058,-0.08571 0.08493,-0.05884 0.07595,-0.107441 0.14648,-0.16764 0.239648,0.20421 0.57704,0.387939 0.982395,0.470537 0.596408,0.121522 1.044825,0.01244 1.480428,-0.226696 0.31771,-0.174406 0.548641,-0.41227 0.656232,-0.537211 0.445308,-0.517134 0.639796,-0.992613 1.015596,-1.73546 0.02334,-0.04614 0.04476,-0.08339 0.06836,-0.129541 0.15153,0.118685 0.256899,0.256135 0.425769,0.363856 0.561452,0.358148 1.321032,0.880113 2.431574,0.880113 0.183283,0 0.83168,-0.0217 1.396445,-0.436248 0.607767,-0.44614 0.796812,-1.045038 0.863257,-1.426848 0.104183,-0.598693 0.03515,-1.052498 -0.01563,-1.685929 -0.0072,-0.08983 -0.01253,-0.138613 -0.01953,-0.220982 0.174158,0.01485 0.366234,0.0226 0.513658,0.03999 0.135472,0.016 0.293262,0.04453 0.408192,0.06666 0.05747,0.01106 0.08977,0.0185 0.166011,0.03046 0.0078,0.0012 0.02875,0.0024 0.03906,0.0039 0.174591,0.05378 0.347814,0.113501 0.535141,0.142874 0.113985,0.01788 0.313843,0.04313 0.537095,0.03431 -0.100105,0.004 0.177666,0.02754 0.488268,-0.04951 0.310601,-0.07709 0.631784,-0.263897 0.91013,-0.531497 0.499307,-0.480045 0.589807,-1.023139 0.597641,-1.47638 0.314265,0.211402 0.840633,0.448575 0.980441,0.590554 1.005972,1.021583 1.62398,2.26008 1.9394,4.002416 0.301931,1.667855 0.298639,1.733592 0.07031,4.118621 -0.0871,0.909993 -0.166658,2.491642 -0.183581,3.611886 -0.0313,2.070617 -0.31417,3.192322 -1.072239,4.467149 -0.480715,0.808404 -1.19336,1.185612 -2.226502,1.215393 -1.033141,0.02978 -2.372242,-0.372897 -3.742083,-1.310643 -0.716659,-0.4906 -2.328589,-1.591835 -3.583886,-2.449837 -4.028391,-2.75342 -5.666151,-4.953599 -5.97249,-7.568587 z m 3.949109,1.089663 c -0.06417,0.376278 0.135337,0.878768 0.423817,1.160148 0.384639,0.375178 0.978007,0.406237 1.324182,0.06855 0.346172,-0.337656 0.314328,-0.91642 -0.07031,-1.291595 -0.38464,-0.375173 -1.173313,-0.596736 -1.519489,-0.259079 -0.08655,0.08443 -0.136812,0.196523 -0.158202,0.321948 z m 2.999917,5.852177 c -0.06417,0.376277 0.135337,0.878768 0.423817,1.160148 0.384639,0.375173 0.978006,0.406237 1.324182,0.06858 0.346172,-0.337655 0.314328,-0.91642 -0.07031,-1.291593 -0.384639,-0.375173 -1.173313,-0.596737 -1.519489,-0.259079 -0.08655,0.08442 -0.136812,0.196519 -0.158202,0.321946 z m 0.999973,-3.901452 c -0.06417,0.37628 0.135336,0.878769 0.423816,1.160149 0.384639,0.375179 0.978007,0.406238 1.324182,0.06857 0.346173,-0.337654 0.314329,-0.916421 -0.07031,-1.291594 -0.38464,-0.375172 -1.173313,-0.596738 -1.519489,-0.259082 -0.08655,0.08443 -0.136812,0.196525 -0.158201,0.32195 z m 1.999944,-5.852175 c -0.06417,0.376277 0.135338,0.878768 0.423817,1.160148 0.384639,0.375176 0.978006,0.406236 1.324182,0.06856 0.346173,-0.337657 0.314329,-0.916421 -0.07031,-1.291593 -0.38464,-0.375176 -1.173314,-0.596737 -1.519489,-0.259081 -0.08655,0.08443 -0.136812,0.196522 -0.158202,0.321948 z m 0.32421,-2.16218 a 1.0000723,0.97546027 0 0 0 0.02539,0.01905 c -0.0026,-0.0016 -0.01571,-0.0098 -0.01563,-0.0098 1.8e-5,1.2e-5 -0.0088,-0.0089 -0.0098,-0.0098 z m 0.134762,0.08002 a 1.0000723,0.97546027 0 0 0 0.05078,0.02285 c -0.0091,-0.0036 -0.008,-0.0017 -0.0332,-0.01332 -0.003,-0.0014 -0.01216,-0.0068 -0.01758,-0.0098 z m 0.541001,13.786513 c -0.06417,0.376276 0.135336,0.878768 0.423816,1.160148 0.384639,0.375174 0.978006,0.406236 1.324182,0.06858 0.346173,-0.337656 0.314329,-0.916421 -0.07031,-1.291594 -0.384638,-0.375172 -1.173313,-0.596735 -1.519489,-0.259079 -0.08655,0.08441 -0.136812,0.196521 -0.158201,0.321947 z m 1.999944,-4.876814 c -0.06417,0.376277 0.135337,0.878769 0.423816,1.160148 0.38464,0.375178 0.978006,0.406236 1.324183,0.06855 0.346172,-0.337655 0.314329,-0.91642 -0.07031,-1.291595 -0.38464,-0.375173 -1.173313,-0.596735 -1.519489,-0.25908 -0.08655,0.08443 -0.136812,0.196524 -0.158202,0.321949 z m 0.999972,-4.876813 c -0.06417,0.376276 0.135337,0.878767 0.423817,1.160147 0.384638,0.375178 0.978007,0.406236 1.324182,0.06856 0.346172,-0.337657 0.314328,-0.916421 -0.07031,-1.291594 -0.38464,-0.375173 -1.173313,-0.596737 -1.519489,-0.25908 -0.08655,0.08443 -0.136812,0.196522 -0.158202,0.321948 z"
       id="path416-3" />
  </g>
  <g
     id="22-22-strawberry"
     transform="translate(32,10)">
    <rect
       style="opacity:0.00100002;fill:#bac8df;fill-opacity:1"
       width="22"
       height="22"
       x="-22"
       y="0"
       id="rect409"
       transform="rotate(-90)" />
    <path
       inkscape:connector-curvature="0"
       id="fill-3-6"
       d="m 15.368844,19.267304 c -2.768808,-0.01726 -5.168817,-2.267336 -5.168817,-2.267336 L 7.800017,16.24995 7.000014,14.749938 C 5.334557,14.151954 4.600007,12.499904 4.600007,10.249873 6.1778,10.592225 7.243598,9.829328 8.260813,8.9615787 l 2.739215,0.538287 c 1.609111,-0.838341 -0.165114,-4.606904 3.476257,-2.231321 l 1.206221,-1.505929 c 0.602916,-0.659107 2.57145,1.34561 2.517546,3.73725 -0.03373,1.5000163 0,4.5000553 0,4.5000553 0,3.000047 0,5.250069 -2.831208,5.267383 z"
       style="color:#1e92ff;fill:#4e5a7e;fill-opacity:0.501961;fill-rule:nonzero;stroke:none;stroke-width:4.12985"
       class="ColorScheme-ButtonFocus"
       sodipodi:nodetypes="cccccccccscc" />
    <path
       style="fill:#d6dbf1;fill-opacity:1;stroke-width:0.764989"
       d="m 3,9.660239 c 0,0.08592 0.176718,0.110132 0.41092,0.05714 0,0 0.747887,-0.1524613 1.295283,-1.1744503 0.355824,-0.710815 0.561616,-0.708507 0.774983,0.0061 0.09302,0.311243 0.269718,0.689163 0.392184,0.840115 0.201966,0.2489563 0.285599,0.158379 0.898412,-0.977278 0.371572,-0.688589 0.782994,-1.380165 0.915604,-1.535932 0.230224,-0.270457 0.262847,-0.25761 0.709361,0.270036 0.498469,0.589053 1.663483,1.285897 2.149944,1.285897 0.263,0 0.284505,-0.115708 0.201562,-1.085874 -0.05101,-0.596823 -0.114728,-1.252971 -0.142184,-1.458771 l -0.05,-0.374342 1.32185,0.05435 c 0.727558,0.02942 1.505261,0.11421 1.726519,0.190035 0.22126,0.07588 0.435217,0.107271 0.476549,0.06994 0.174041,-0.156868 -0.210503,-0.795523 -0.742166,-1.234461 -0.54354,-0.448736 -0.553835,-0.47752 -0.220308,-0.572937 0.597901,-0.32132 1.121305,-0.46441 1.645274,-0.962982 0.01105,-0.111352 -0.132437,-0.195758 -0.42968,-0.267195 -0.915088,-0.21991 -1.800787,-0.101667 -2.715558,0.361485 -0.492933,0.249568 -1.269862,0.493509 -1.726523,0.542933 -0.456659,0.04942 -0.98852,0.131607 -1.18123,0.181456 -0.292813,0.0758 -0.463857,-0.07126 -1.04059,-0.89441 -0.656699,-0.937221 -1.03037,-1.180274 -1.273409,-0.82584 -0.06043,0.08805 0.122913,0.552451 0.406243,1.031582 0.283327,0.479124 0.514048,0.965037 0.514048,1.080149 0,0.115101 -0.354048,0.476831 -0.78748,0.802974 -0.753285,0.566777 -0.839732,0.592919 -1.951517,0.592919 -1.056395,0 -1.167092,0.02929 -1.212475,0.315753 -0.03675,0.231577 0.08431,0.365501 0.456246,0.504355 0.278636,0.104035 0.506245,0.241616 0.506245,0.305759 0,0.06407 -0.298725,0.702651 -0.664064,1.418775 -0.36532,0.71599 -0.664039,1.369898 -0.664039,1.4529483 z m 0.810911,0.698668 c 0.0095,0.139889 0.01082,0.258465 0.03433,0.457207 0.264552,2.2336 1.796977,4.097963 5.123309,6.229444 1.004371,0.643598 2.294737,1.470058 2.867124,1.837407 2.411301,1.547534 4.885852,1.480527 5.926421,-0.160023 0.672526,-1.0603 0.939451,-2.084355 0.9656,-3.706234 0.01306,-0.81521 0.07802,-2.008214 0.143752,-2.651803 0.183363,-1.795642 0.178429,-2.020844 -0.06569,-3.2847483 -0.27316,-1.414596 -0.841966,-2.505541 -1.762456,-3.381903 -0.523061,-0.497979 -1.710298,-1.143359 -2.660876,-1.524499 -0.09382,0.04196 -0.188999,0.08787 -0.282803,0.131443 0.215487,0.213732 0.4381,0.428034 0.576544,0.658666 0.09616,0.16018 0.175066,0.317383 0.22031,0.520073 0.04517,0.202689 0.08884,0.556199 -0.253119,0.864407 -0.297305,0.267959 -0.47763,0.221575 -0.590612,0.225747 -0.112985,0.0046 -0.191916,-0.006 -0.27031,-0.01713 -0.15678,-0.02297 -0.303261,-0.06076 -0.459365,-0.114303 0.08419,0.02888 -0.199759,-0.03931 -0.489045,-0.07141 -0.289286,-0.03199 -0.648655,-0.06042 -0.990604,-0.0743 l -0.396862,-0.01567 c 0.03209,0.309057 0.06368,0.601063 0.09842,1.008713 0.042,0.492186 0.08299,0.747107 0.02032,1.084437 -0.03136,0.168667 -0.126721,0.432423 -0.382805,0.608659 -0.256083,0.17622 -0.506431,0.180029 -0.635921,0.180029 -0.661005,0 -1.033319,-0.257761 -1.507778,-0.541509 -0.379627,-0.227032 -0.713119,-0.520195 -1.020283,-0.822975 -0.159272,0.266963 -0.349748,0.602408 -0.52968,0.935848 -0.309021,0.572682 -0.436925,0.860978 -0.7078,1.1558773 -0.06769,0.0737 -0.151471,0.156905 -0.304674,0.235748 -0.153197,0.07876 -0.409447,0.133166 -0.628109,0.09137 C 5.410918,10.133895 5.311117,9.923232 5.231073,9.824566 5.104658,9.668733 5.075307,9.5002667 4.999831,9.3430717 4.767766,9.6239697 4.537955,9.966805 4.317034,10.110319 4.129116,10.232398 3.948812,10.309245 3.810792,10.358927 Z m 0.839043,0.411487 c 0.04821,-0.02765 0.0817,-0.03203 0.131257,-0.06428 0.06799,-0.04413 0.06072,-0.08055 0.117177,-0.125729 0.191721,0.153157 0.461631,0.290956 0.785918,0.352903 0.477127,0.09114 0.835864,0.0091 1.184351,-0.170019 0.254171,-0.130809 0.43891,-0.309209 0.524979,-0.402918 0.356257,-0.387855 0.511846,-0.7444683 0.812486,-1.3016103 0.0187,-0.03466 0.03573,-0.06253 0.05471,-0.09715 0.12122,0.08904 0.205518,0.192106 0.340613,0.272897 0.449162,0.268618 1.056826,0.6600963 1.945267,0.6600963 0.146626,0 0.665356,-0.0163 1.117158,-0.3271933 0.486217,-0.334609 0.637454,-0.783789 0.69061,-1.070148 0.08338,-0.449029 0.02809,-0.789389 -0.01251,-1.264466 -0.0055,-0.06745 -0.01012,-0.103962 -0.01573,-0.16574 0.139332,0.0112 0.292988,0.01702 0.410936,0.02996 0.108373,0.01197 0.23461,0.03336 0.326549,0.04992 0.04597,0.0089 0.0719,0.01387 0.132814,0.02283 0.0061,0.0012 0.02295,0.0024 0.03125,0.0034 0.13967,0.04037 0.278246,0.08514 0.428115,0.107157 0.09122,0.01344 0.251071,0.03233 0.429675,0.02574 -0.08007,0.0035 0.142134,0.0207 0.390612,-0.03708 0.248483,-0.05789 0.505431,-0.197922 0.728108,-0.398624 0.399451,-0.36004 0.471849,-0.767366 0.478113,-1.107302 0.251417,0.158556 0.67251,0.336434 0.784362,0.442923 0.804777,0.76619 1.299186,1.695082 1.551522,3.001848 0.241547,1.2509083 0.238913,1.3002153 0.05625,3.0890043 -0.06972,0.682507 -0.133325,1.868759 -0.146866,2.708952 -0.0251,1.552985 -0.251338,2.394273 -0.857794,3.350405 -0.384573,0.606311 -0.954693,0.88922 -1.781207,0.911557 C 14.462164,19.290097 13.390875,18.98805 12.295,18.284732 11.721673,17.916774 10.43212,17.090841 9.427883,16.447331 6.205155,14.382239 4.894946,12.732084 4.649865,10.77082 Z m 3.159302,0.817259 c -0.05128,0.28221 0.108277,0.659082 0.339062,0.870119 0.307707,0.281394 0.782403,0.304682 1.059338,0.05138 0.276948,-0.253247 0.251477,-0.687325 -0.05625,-0.96871 C 8.8437,11.25906 8.212756,11.092883 7.935818,11.346131 c -0.06925,0.0634 -0.109449,0.147395 -0.126564,0.241461 z m 2.399947,4.389193 c -0.05131,0.282207 0.108268,0.659076 0.339057,0.87012 0.307709,0.281382 0.782404,0.304674 1.059348,0.05138 0.27693,-0.253246 0.25146,-0.687324 -0.05624,-0.968704 -0.30772,-0.281386 -0.938663,-0.447563 -1.215595,-0.194316 -0.06925,0.06337 -0.109454,0.147393 -0.126564,0.241465 z m 0.799977,-2.92613 c -0.05128,0.282213 0.108269,0.659084 0.339061,0.870123 0.307711,0.28139 0.782407,0.304678 1.059346,0.05137 0.276935,-0.253242 0.251458,-0.687321 -0.05624,-0.968706 -0.307708,-0.281384 -0.938653,-0.447559 -1.215602,-0.194316 -0.06925,0.06338 -0.109449,0.147398 -0.126559,0.241466 z m 1.599959,-4.3891913 c -0.05128,0.282211 0.108274,0.659085 0.339054,0.870122 0.307721,0.2813883 0.782407,0.3046823 1.059354,0.05138 0.276939,-0.253246 0.251464,-0.687328 -0.05624,-0.968708 -0.307718,-0.281384 -0.938656,-0.447558 -1.215599,-0.194312 -0.06925,0.06337 -0.109451,0.147393 -0.126564,0.241461 z m 0.259372,-1.621656 a 0.80006096,0.73160467 0 0 0 0.0203,0.01425 c -0.0026,-0.0016 -0.01256,-0.0081 -0.01251,-0.0081 1.1e-5,9e-6 -0.0071,-0.0072 -0.0091,-0.0081 z m 0.107812,0.06005 a 0.80006096,0.73160467 0 0 0 0.04063,0.01714 c -0.0075,-0.0034 -0.0063,-0.0017 -0.02649,-0.0099 -0.003,-0.0014 -0.01,-0.0051 -0.01411,-0.0081 z m 0.432802,10.3400193 c -0.05132,0.282208 0.108273,0.659081 0.339056,0.870123 0.307709,0.281378 0.782407,0.304679 1.059347,0.05135 0.276942,-0.253238 0.251466,-0.687321 -0.05624,-0.968703 -0.307714,-0.281382 -0.938657,-0.44756 -1.215599,-0.194316 -0.06925,0.06336 -0.109449,0.147393 -0.126559,0.241468 z m 1.599962,-3.657658 c -0.05131,0.28221 0.108272,0.65908 0.339053,0.870125 0.307713,0.28138 0.782408,0.304668 1.05935,0.05135 0.276942,-0.253247 0.251465,-0.687318 -0.05624,-0.968709 -0.307708,-0.281386 -0.938646,-0.447558 -1.215591,-0.194314 -0.06925,0.06338 -0.10945,0.147398 -0.126563,0.241467 z m 0.799982,-3.657662 c -0.05131,0.282211 0.108266,0.659086 0.339055,0.870122 0.30771,0.281394 0.782409,0.304679 1.05935,0.05139 0.276938,-0.253242 0.251459,-0.687323 -0.05624,-0.968708 -0.307714,-0.281383 -0.93865,-0.4475573 -1.215589,-0.194311 -0.06925,0.06338 -0.109453,0.147397 -0.126563,0.241462 z"
       id="path416-3-7" />
  </g>
</svg>
