<?xml version="1.0" encoding="UTF-8" standalone="no"?>
<svg
   width="32"
   height="32"
   version="1.1"
   id="svg12"
   sodipodi:docname="TeamViewer.svg"
   inkscape:version="1.1.1 (3bf5ae0d25, 2021-09-20)"
   xmlns:inkscape="http://www.inkscape.org/namespaces/inkscape"
   xmlns:sodipodi="http://sodipodi.sourceforge.net/DTD/sodipodi-0.dtd"
   xmlns="http://www.w3.org/2000/svg"
   xmlns:svg="http://www.w3.org/2000/svg"
   xmlns:rdf="http://www.w3.org/1999/02/22-rdf-syntax-ns#"
   xmlns:cc="http://creativecommons.org/ns#"
   xmlns:dc="http://purl.org/dc/elements/1.1/">
  <g
     id="22-22-TeamViewer"
     transform="translate(32,10.000001)">
    <rect
       style="opacity:0.00100002"
       width="22"
       height="22"
       x="0"
       y="-4.6325681e-08"
       id="rect2" />
    <path
       d="M 16.656864,5.343164 C 15.145877,3.832129 13.136733,3 11,3 8.863266,3 6.854113,3.832129 5.343267,5.343164 3.83214,6.854199 3,8.863182 3,11 3,13.136818 3.83214,15.145797 5.343267,16.656835 6.854113,18.167775 8.863266,19 11,19 c 2.136866,0 4.145877,-0.832225 5.656864,-2.343165 1.510893,-1.511038 2.343133,-3.520017 2.343133,-5.656835 0,-2.136818 -0.83224,-4.145899 -2.343133,-5.656836 z M 15.743333,16.209767 C 14.270318,17.459238 13.082332,18.049915 11,18.034667 8.789348,18.018477 7.969363,17.603124 6.256667,16.209333 4.86506,14.81783 3.965333,12.967971 3.965333,11 3.965333,9.031936 4.893611,6.939714 6.256667,5.79 7.78586,4.44627 9.060454,3.980025 11,3.965333 c 1.96791,-0.01491 3.285058,0.61298 4.743333,1.824804 1.39158,1.391601 2.291333,3.241799 2.291333,5.209863 0,1.967971 -0.899753,3.818264 -2.291333,5.209767 z"
       id="path2-36-912-3-5-7-3"
       style="fill:#d6dbf1;fill-opacity:1;stroke-width:0.0249999"
       sodipodi:nodetypes="cscscscsccscscscsc" />
    <rect
       style="fill:#4e5a7e;fill-opacity:0.499251;stroke:none;stroke-width:0.352485"
       id="center-3-35-5-6"
       width="14.065383"
       height="14.133333"
       x="3.9666672"
       y="3.9666684"
       ry="7.0666552" />
    <polygon
       points="28.59,27.38 27.43,26.23 24.95,28.72 24.95,9.22 10.03,9.22 10.03,10.85 23.32,10.85 23.32,28.64 20.91,26.23 19.76,27.38 24.17,31.79 "
       id="polygon8-3-3-7"
       transform="matrix(0.33776651,0,0,0.33776651,5.587861,5.595736)"
       style="fill:#d6dbf1;fill-opacity:1" />
    <polygon
       points="3.49,4.62 4.64,5.77 7.05,3.36 7.05,22.78 21.97,22.78 21.97,21.15 8.68,21.15 8.68,3.28 11.16,5.77 12.31,4.62 7.9,0.21 "
       id="polygon10-6-5-5"
       transform="matrix(0.33776651,0,0,0.33776651,5.587861,5.595736)"
       style="fill:#d6dbf1;fill-opacity:1" />
  </g>
  <metadata
     id="metadata18">
    <rdf:RDF>
      <cc:Work
         rdf:about="">
        <dc:format>image/svg+xml</dc:format>
        <dc:type
           rdf:resource="http://purl.org/dc/dcmitype/StillImage" />
      </cc:Work>
    </rdf:RDF>
  </metadata>
  <defs
     id="defs16" />
  <sodipodi:namedview
     pagecolor="#ffffff"
     bordercolor="#000000"
     borderopacity="1"
     objecttolerance="10"
     gridtolerance="10"
     guidetolerance="10"
     inkscape:pageopacity="0"
     inkscape:pageshadow="2"
     inkscape:window-width="1920"
     inkscape:window-height="1007"
     id="namedview14"
     showgrid="false"
     inkscape:zoom="11.313709"
     inkscape:cx="27.842328"
     inkscape:cy="14.363106"
     inkscape:window-x="0"
     inkscape:window-y="0"
     inkscape:window-maximized="1"
     inkscape:current-layer="svg12"
     inkscape:document-rotation="0"
     inkscape:showpageshadow="false"
     inkscape:pagecheckerboard="0"
     inkscape:lockguides="true">
    <inkscape:grid
       type="xygrid"
       id="grid864"
       originx="0"
       originy="-4.6325683e-08" />
  </sodipodi:namedview>
  <g
     id="TeamViewer"
     transform="translate(32,10.000001)">
    <rect
       style="opacity:0.00100002"
       width="32"
       height="32"
       x="-32"
       y="-10.000001"
       id="rect7" />
    <path
       d="M -7.514703,-2.485255 C -9.781183,-4.751808 -12.7949,-6.000001 -16,-6.000001 c -3.2051,0 -6.21883,1.248193 -8.4851,3.514746 C -26.75179,-0.218703 -28,2.794773 -28,6 c 0,3.205227 1.24821,6.218695 3.5149,8.485253 C -22.21883,16.751662 -19.2051,18 -16,18 c 3.2053,0 6.218817,-1.248338 8.485297,-3.514747 2.26634,-2.266558 3.5147,-5.280026 3.5147,-8.485253 0,-3.205227 -1.24836,-6.21885 -3.5147,-8.485255 z M -8.885,13.81465 c -2.209523,1.874207 -3.991502,2.760223 -7.115,2.73735 -3.315977,-0.02428 -4.545955,-0.647314 -7.115,-2.738 -2.08741,-2.087255 -3.437,-4.862044 -3.437,-7.814 0,-2.952097 1.392416,-6.09043 3.437,-7.815001 2.293791,-2.015595 4.205681,-2.714962 7.115,-2.737 2.951865,-0.02236 4.927587,0.91947 7.115,2.737205 2.08737,2.087403 3.437,4.862699 3.437,7.814796 0,2.951956 -1.34963,5.727395 -3.437,7.81465 z"
       id="path2-36-912-3-5-7"
       style="fill:#d6dbf1;fill-opacity:1;stroke-width:0.0374999"
       sodipodi:nodetypes="cscscscsccscscscsc" />
    <rect
       style="fill:#4e5a7e;fill-opacity:0.499251;stroke:none;stroke-width:0.528728"
       id="center-3-35-5"
       width="21.098076"
       height="21.200001"
       x="-26.549999"
       y="-4.5500011"
       ry="10.599983" />
    <polygon
       points="28.59,27.38 27.43,26.23 24.95,28.72 24.95,9.22 10.03,9.22 10.03,10.85 23.32,10.85 23.32,28.64 20.91,26.23 19.76,27.38 24.17,31.79 "
       id="polygon8-3-3"
       transform="matrix(0.50664978,0,0,0.50664978,-24.118208,-2.1063975)"
       style="fill:#d6dbf1;fill-opacity:1" />
    <polygon
       points="3.49,4.62 4.64,5.77 7.05,3.36 7.05,22.78 21.97,22.78 21.97,21.15 8.68,21.15 8.68,3.28 11.16,5.77 12.31,4.62 7.9,0.21 "
       id="polygon10-6-5"
       transform="matrix(0.50664978,0,0,0.50664978,-24.118208,-2.1063975)"
       style="fill:#d6dbf1;fill-opacity:1" />
  </g>
</svg>
