<?xml version="1.0" encoding="UTF-8" standalone="no"?>
<svg
   width="22"
   height="22"
   version="1.1"
   id="svg12"
   sodipodi:docname="telegram.svg"
   inkscape:version="1.3.2 (091e20ef0f, 2023-11-25)"
   xmlns:inkscape="http://www.inkscape.org/namespaces/inkscape"
   xmlns:sodipodi="http://sodipodi.sourceforge.net/DTD/sodipodi-0.dtd"
   xmlns="http://www.w3.org/2000/svg"
   xmlns:svg="http://www.w3.org/2000/svg"
   xmlns:rdf="http://www.w3.org/1999/02/22-rdf-syntax-ns#"
   xmlns:cc="http://creativecommons.org/ns#"
   xmlns:dc="http://purl.org/dc/elements/1.1/">
  <style
     type="text/css"
     id="current-color-scheme">
.ColorScheme-Text {
    color:#eff0f1;
}
</style>
  <metadata
     id="metadata18">
    <rdf:RDF>
      <cc:Work
         rdf:about="">
        <dc:format>image/svg+xml</dc:format>
        <dc:type
           rdf:resource="http://purl.org/dc/dcmitype/StillImage" />
      </cc:Work>
    </rdf:RDF>
  </metadata>
  <defs
     id="defs16" />
  <sodipodi:namedview
     pagecolor="#ffffff"
     bordercolor="#000000"
     borderopacity="1"
     objecttolerance="10"
     gridtolerance="10"
     guidetolerance="10"
     inkscape:pageopacity="0"
     inkscape:pageshadow="2"
     inkscape:window-width="1920"
     inkscape:window-height="994"
     id="namedview14"
     showgrid="false"
     inkscape:zoom="9.9124993"
     inkscape:cx="32.282474"
     inkscape:cy="21.740229"
     inkscape:window-x="0"
     inkscape:window-y="0"
     inkscape:window-maximized="1"
     inkscape:current-layer="svg12"
     inkscape:document-rotation="0"
     inkscape:pagecheckerboard="false"
     inkscape:lockguides="true"
     inkscape:showpageshadow="2"
     inkscape:deskcolor="#ffffff">
    <inkscape:grid
       type="xygrid"
       id="grid833"
       originx="12"
       originy="-10"
       spacingy="1"
       spacingx="1"
       units="px"
       visible="false" />
  </sodipodi:namedview>
  <g
     id="telegram-mute-panel">
    <rect
       style="opacity:0.00100002"
       width="22"
       height="22"
       x="22"
       y="0"
       id="rect2-8" />
    <path
       inkscape:connector-curvature="0"
       id="fill"
       d="M 29,13 31,17.463677 34,16 38,18 41,4 25,10.571991 Z"
       style="color:#1e92ff;fill:#4e5a7e;fill-opacity:0.501961;fill-rule:nonzero;stroke:none;stroke-width:2.68771"
       class="ColorScheme-ButtonFocus"
       sodipodi:nodetypes="ccccccc" />
    <path
       class="ColorScheme-Text"
       d="m 40.639584,3.0021753 c -0.218887,0.01561 -0.434447,0.06687 -0.637784,0.15252 H 40 c -0.195334,0.07681 -1.12201,0.467584 -2.530914,1.059849 L 32.4201,6.3453783 c -3.622281,1.527428 -7.183446,3.032593 -7.183446,3.032593 l 0.04225,-0.01666 c 0,0 -0.245557,0.08133 -0.502231,0.257172 -0.157778,0.101303 -0.294447,0.233794 -0.400005,0.3885357 -0.126668,0.184807 -0.22778,0.468693 -0.189999,0.760377 0.0622,0.495416 0.382225,0.791549 0.611114,0.955201 0.233339,0.165878 0.454451,0.243808 0.454451,0.243808 h 0.0055 l 3.340015,1.126653 c 0.148889,0.482048 1.017792,3.340973 1.225573,4.000039 0.123333,0.392986 0.243335,0.639023 0.39334,0.827171 0.07225,0.09577 0.156668,0.175897 0.258891,0.240465 0.05335,0.03005 0.108888,0.05456 0.167781,0.07241 l -0.03329,-0.0084 c 0.01006,0.0037 0.01781,0.01082 0.02555,0.01448 0.02779,0.0083 0.04557,0.0098 0.08112,0.01555 0.527771,0.160307 0.953331,-0.168111 0.953331,-0.168111 l 0.02332,-0.02008 1.972245,-1.797946 3.304492,2.539398 0.07554,0.03231 c 0.687792,0.302818 1.385576,0.134706 1.754469,-0.16254 0.371127,-0.299476 0.515571,-0.682447 0.515571,-0.682447 l 0.02447,-0.06236 2.55337,-13.1078467 c 0.07215,-0.324104 0.09098,-0.626924 0.01075,-0.920834 -0.08187,-0.29808 -0.273026,-0.554134 -0.534136,-0.717785 -0.218893,-0.133594 -0.47334,-0.198175 -0.730012,-0.184806 z m -0.06884,1.403856 c -0.0018,0.04336 0.0056,0.03893 -0.01333,0.121346 v 0.0068 L 38.027445,17.506181 c -0.01084,0.01892 -0.02884,0.05901 -0.07996,0.0991 -0.05346,0.0423 -0.09556,0.06902 -0.317783,-0.01891 l -4.04225,-3.104937 -2.44115,2.229913 0.512235,-3.281968 6.604539,-6.1676127 c 0.272227,-0.253843 0.181113,-0.307277 0.181113,-0.307277 0.01892,-0.310614 -0.411116,-0.09127 -0.411116,-0.09127 l -8.327902,5.1689877 -0.0024,-0.01332 -3.99117,-1.347085 v -0.0017 l -0.01006,-0.0018 c 0.0069,-0.0018 0.01334,-0.0045 0.02001,-0.007 l 0.02221,-0.0113 0.02114,-0.007 c 0,0 3.563387,-1.5051617 7.186774,-3.0325937 1.813364,-0.765922 3.641168,-1.536314 5.046745,-2.131923 0.833343,-0.350687 1.667803,-0.700262 2.503362,-1.047601 0.0556,-0.0223 0.02885,-0.0223 0.06885,-0.0223 z"
       id="path22-2-8"
       style="color:#eff0f1;isolation:isolate;fill:#d6dbf1;fill-opacity:1;stroke-width:1.22837" />
    <path
       d="M 41.999997,13.999991 C 41.999997,15.65766 40.657643,17 39,17 c -1.656253,1e-6 -2.999995,-1.34234 -2.999995,-3.000009 C 36.000005,12.343739 37.343747,11 39,11 c 1.657642,0 2.999997,1.343739 2.999997,2.999991 z"
       id="path72-3-9"
       style="fill:#c83771;fill-opacity:1;stroke-width:0.0357141" />
    <path
       d="M 39.75,13.999996 C 39.75,14.41441 39.414419,14.75 39,14.75 38.585939,14.750001 38.250005,14.41441 38.250005,13.999996 38.250005,13.58593 38.585939,13.25 39,13.25 c 0.414419,0 0.75,0.33593 0.75,0.749996 z"
       id="path72-3-2-26"
       style="fill:#d6dbf1;fill-opacity:1;stroke-width:0.00892875" />
    <path
       d="m 37.999999,13.999996 c 0,0.414414 -0.335582,0.750004 -0.75,0.750004 -0.414061,10e-7 -0.749994,-0.33559 -0.749994,-0.750004 0,-0.414066 0.335933,-0.749996 0.749994,-0.749996 0.414418,0 0.75,0.33593 0.75,0.749996 z"
       id="path72-3-2-4-6"
       style="fill:#d6dbf1;fill-opacity:1;stroke-width:0.00892875" />
    <path
       d="m 41.499997,13.999996 c 0,0.414414 -0.335581,0.750004 -0.75,0.750004 -0.41406,10e-7 -0.749992,-0.33559 -0.749992,-0.750004 0,-0.414066 0.335932,-0.749996 0.749992,-0.749996 0.414419,0 0.75,0.33593 0.75,0.749996 z"
       id="path72-3-2-2-4"
       style="fill:#d6dbf1;fill-opacity:1;stroke-width:0.00892875" />
  </g>
  <g
     id="telegram-attention-panel">
    <rect
       style="opacity:0.00100002"
       width="22"
       height="22"
       x="44"
       y="0"
       id="rect2" />
    <path
       inkscape:connector-curvature="0"
       id="fill-5"
       d="m 51.052,13 2,4.463677 3,-1.463677 4,2 3,-14 -16,6.571991 z"
       style="color:#1e92ff;fill:#4e5a7e;fill-opacity:0.501961;fill-rule:nonzero;stroke:none;stroke-width:2.68771"
       class="ColorScheme-ButtonFocus"
       sodipodi:nodetypes="ccccccc" />
    <path
       class="ColorScheme-Text"
       d="m 62.639889,3.0022243 c -0.218888,0.01561 -0.434444,0.06687 -0.637783,0.15252 h -0.002 c -0.195317,0.07681 -1.121991,0.467582 -2.53089,1.059846 l -5.04878,2.130827 c -3.622262,1.527423 -7.183414,3.032583 -7.183414,3.032583 l 0.04223,-0.01666 c 0,0 -0.245558,0.08132 -0.502228,0.257171 -0.157778,0.101305 -0.294447,0.2337957 -0.400003,0.3885367 -0.126668,0.184807 -0.227781,0.468691 -0.190002,0.760373 0.06222,0.495416 0.382226,0.791545 0.611117,0.9552 0.233337,0.165875 0.45445,0.243806 0.45445,0.243806 h 0.0054 l 3.340006,1.126645 c 0.148889,0.482053 1.017789,3.340965 1.225569,4.000031 0.123334,0.392986 0.243336,0.639019 0.393339,0.827169 0.07222,0.09577 0.156667,0.175897 0.258891,0.240465 0.05334,0.03003 0.108887,0.05456 0.16778,0.07239 l -0.03333,-0.0084 c 0.01004,0.0037 0.01779,0.01084 0.02556,0.01448 0.02777,0.0082 0.04556,0.0098 0.08112,0.01555 0.52777,0.160306 0.95333,-0.168112 0.95333,-0.168112 l 0.02331,-0.02008 1.97224,-1.797941 3.304484,2.539391 0.07557,0.03231 c 0.68779,0.302815 1.385572,0.134705 1.754464,-0.162541 0.371127,-0.299473 0.515572,-0.682445 0.515572,-0.682445 l 0.02444,-0.06235 2.553357,-13.1078467 c 0.07222,-0.324106 0.09104,-0.626925 0.01082,-0.920835 -0.08181,-0.298073 -0.272969,-0.554126 -0.534077,-0.717777 -0.218894,-0.133593 -0.473342,-0.198174 -0.730009,-0.184805 z m -0.06885,1.403852 c -0.002,0.04336 0.0057,0.03893 -0.01333,0.121346 v 0.0068 L 60.027755,17.506193 c -0.01081,0.01891 -0.02885,0.05901 -0.07995,0.0991 -0.05346,0.0423 -0.09557,0.06902 -0.317783,-0.01891 l -4.042237,-3.104972 -2.44114,2.229901 0.512227,-3.281957 6.604523,-6.1675937 c 0.272227,-0.253829 0.181114,-0.307263 0.181114,-0.307263 0.01891,-0.310613 -0.411116,-0.09127 -0.411116,-0.09127 l -8.327876,5.1689737 -0.0021,-0.01332 -3.991158,-1.34708 v -0.0017 l -0.01005,-0.0018 c 0.0067,-0.0018 0.01333,-0.0045 0.01999,-0.007 l 0.02223,-0.0113 0.0211,-0.007 c 0,0 3.563376,-1.5051587 7.186753,-3.0325867 1.813356,-0.765919 3.641157,-1.536309 5.046731,-2.131916 0.833341,-0.350686 1.667797,-0.700259 2.503355,-1.047597 0.05557,-0.0223 0.02886,-0.0223 0.06886,-0.0223 z"
       id="path22-0"
       style="color:#eff0f1;isolation:isolate;fill:#d6dbf1;fill-opacity:1;stroke-width:1.22836" />
    <path
       d="m 64.567992,14.000171 c 0,1.657668 -1.342354,3.000008 -2.999997,3.000008 -1.656253,0 -2.999995,-1.34234 -2.999995,-3.000009 0,-1.656253 1.343742,-2.999991 2.999995,-2.999991 1.657643,0 2.999997,1.343738 2.999997,2.999992 z"
       id="path72-3-6-4"
       style="fill:#00aa7f;fill-opacity:1;stroke-width:0.0357141" />
    <path
       id="path4166-8"
       d="m 63.067999,12.10018 1,1 -3,3 -1.999999,-2 0.999999,-1 1,1 z"
       class="ColorScheme-Background"
       style="color:#eff0f1;fill:#d6dbf1;fill-opacity:1" />
  </g>
  <g
     id="telegram-panel">
    <rect
       style="opacity:0.00100002"
       width="22"
       height="22"
       x="1.1920929e-07"
       y="0"
       id="rect2-1" />
    <path
       inkscape:connector-curvature="0"
       id="fill-7"
       d="m 7.0003507,13 2,4.463677 L 12.000351,16 l 4,2 3,-13.9999997 -16.0000003,6.5719907 z"
       style="color:#1e92ff;fill:#4e5a7e;fill-opacity:0.501961;fill-rule:nonzero;stroke:none;stroke-width:2.68771"
       class="ColorScheme-ButtonFocus"
       sodipodi:nodetypes="ccccccc" />
    <path
       class="ColorScheme-Text"
       d="m 18.639935,3.0021753 c -0.218887,0.01561 -0.434447,0.06687 -0.637784,0.15252 h -0.0018 c -0.195334,0.07681 -1.12201,0.467584 -2.530914,1.059849 l -5.048986,2.130834 c -3.6222813,1.527428 -7.1834463,3.032593 -7.1834463,3.032593 l 0.04225,-0.01666 c 0,0 -0.245557,0.08133 -0.502231,0.257172 -0.157778,0.101303 -0.294447,0.233794 -0.400005,0.3885357 -0.126668,0.184807 -0.22778,0.468693 -0.189999,0.760377 0.0622,0.495416 0.382225,0.791549 0.611114,0.955201 0.233339,0.165878 0.454451,0.243808 0.454451,0.243808 h 0.0055 l 3.340015,1.126653 c 0.148889,0.482048 1.017792,3.340973 1.225573,4.000039 0.123333,0.392986 0.243335,0.639023 0.39334,0.827171 0.07225,0.09577 0.156668,0.175897 0.258891,0.240465 0.05335,0.03005 0.108888,0.05456 0.167781,0.07241 l -0.03329,-0.0084 c 0.01006,0.0037 0.01781,0.01082 0.02555,0.01448 0.02779,0.0083 0.04557,0.0098 0.08112,0.01555 0.527771,0.160307 0.953331,-0.168111 0.953331,-0.168111 l 0.02332,-0.02008 1.9722453,-1.797946 3.304492,2.539398 0.07554,0.03231 c 0.687792,0.302818 1.385576,0.134706 1.754469,-0.16254 0.371127,-0.299476 0.515571,-0.682447 0.515571,-0.682447 l 0.02447,-0.06236 2.55337,-13.1078467 c 0.07215,-0.324104 0.09098,-0.626924 0.01075,-0.920834 -0.08187,-0.29808 -0.273026,-0.554134 -0.534136,-0.717785 -0.218893,-0.133594 -0.47334,-0.1981747 -0.730012,-0.184806 z m -0.06884,1.403856 c -0.0018,0.04336 0.0056,0.03893 -0.01333,0.121346 v 0.0068 L 16.027796,17.506181 c -0.01084,0.01892 -0.02884,0.05901 -0.07996,0.0991 -0.05346,0.0423 -0.09556,0.06902 -0.317783,-0.01891 l -4.04225,-3.104937 -2.4411503,2.229913 0.512235,-3.281968 6.6045393,-6.1676127 c 0.272227,-0.253843 0.181113,-0.307277 0.181113,-0.307277 0.01892,-0.310614 -0.411116,-0.09127 -0.411116,-0.09127 l -8.3279023,5.1689877 -0.0024,-0.01332 -3.99117,-1.347085 v -0.0017 l -0.01006,-0.0018 c 0.0069,-0.0018 0.01334,-0.0045 0.02001,-0.007 l 0.02221,-0.0113 0.02114,-0.007 c 0,0 3.563387,-1.5051617 7.1867743,-3.0325937 1.813364,-0.765922 3.641168,-1.536314 5.046745,-2.131923 0.833343,-0.350687 1.667803,-0.700262 2.503362,-1.047601 0.0556,-0.0223 0.02885,-0.0223 0.06885,-0.0223 z"
       id="path22-2-8-1"
       style="color:#eff0f1;isolation:isolate;fill:#d6dbf1;fill-opacity:1;stroke-width:1.22837" />
  </g>
</svg>
