<?xml version="1.0" encoding="UTF-8" standalone="no"?>
<svg
   width="32"
   height="32"
   x="0"
   y="0"
   version="1.1"
   xml:space="preserve"
   id="svg1459"
   sodipodi:docname="thunderbird.svg"
   inkscape:version="1.3 (0e150ed6c4, 2023-07-21)"
   xmlns:inkscape="http://www.inkscape.org/namespaces/inkscape"
   xmlns:sodipodi="http://sodipodi.sourceforge.net/DTD/sodipodi-0.dtd"
   xmlns="http://www.w3.org/2000/svg"
   xmlns:svg="http://www.w3.org/2000/svg">&#10;    <style
   type="text/css"
   id="current-color-scheme">.ColorScheme-Text { color:#d1d5e9; }&#10;</style><defs
   id="defs1463">&#10;  &#10;  &#10;  &#10; &#10;  &#10;  &#10;  &#10; </defs><sodipodi:namedview
   id="namedview1461"
   pagecolor="#cccccc"
   bordercolor="#000000"
   borderopacity="1"
   inkscape:showpageshadow="2"
   inkscape:pageopacity="0"
   inkscape:pagecheckerboard="0"
   inkscape:deskcolor="#808080"
   showgrid="false"
   inkscape:zoom="10.429825"
   inkscape:cx="29.195121"
   inkscape:cy="5.8965515"
   inkscape:window-width="1920"
   inkscape:window-height="994"
   inkscape:window-x="0"
   inkscape:window-y="0"
   inkscape:window-maximized="1"
   inkscape:current-layer="svg1459"><inkscape:grid
     type="xygrid"
     id="grid1674"
     originx="0"
     originy="0"
     spacingy="1"
     spacingx="1"
     units="px"
     visible="false" /></sodipodi:namedview>&#10; &#10; &#10;<g
   id="thunderbird"><rect
     style="opacity:0.00100002;fill:#d1d5e9;fill-opacity:1"
     width="32"
     height="32"
     x="0"
     y="0"
     id="rect1445" /><rect
     style="fill:#4e5a7e;fill-opacity:0.499251;stroke:none;stroke-width:0.55374"
     id="center-3-35-5"
     width="22"
     height="22.299999"
     x="5"
     y="5"
     ry="11.149982" /><path
     d="M 27.729569,14.200168 C 27.504567,12.980287 27.035971,11.79854 26.39877,10.731195 26.21817,10.40243 25.98157,10.091053 25.78017,9.797167 24.430671,7.8720616 23.362173,7.2239866 23.156076,7.1095856 c -0.187399,-0.133418 -0.374902,-0.266837 -0.562302,-0.381137 -1.743199,-1.10558 -2.867796,-1.258015 -2.867796,-1.258015 -0.806,-0.343104 -1.593197,-0.533672 -2.174295,-0.629058 -1.255801,-0.152536 -2.305499,-0.133418 -3.223896,0 0.149999,-0.266836 0.281201,-0.362019 0.318597,-0.381136 0.02319,0 0.0166,0 0,0 -0.449798,0.03813 -0.993397,0.343104 -1.480696,0.648074 0.337298,-0.667091 1.049597,-1.04843 1.143299,-1.105682 h 0.01869 c -0.562205,-0.03803 -2.1554,0.324189 -3.5237,1.868158 -4.2549808,1.810602 -6.8039768,5.7752144 -6.8039768,10.1018454 0,3.278507 1.255798,5.642 2.624096,7.204986 1.293299,1.429566 2.717896,2.191942 3.3925948,2.401629 0.0708,0.02838 0.225,0.03814 0.225,0.03814 0.01869,-0.05716 -0.8621988,-1.486716 -1.2558988,-3.202237 0.7873,0.819626 1.7244968,1.448685 2.7740968,1.562984 0.112499,0.01912 -0.374899,-0.590821 -0.899697,-1.391331 l 0.712298,0.247718 7.81609,2.64945 c -0.7685,0.800507 -1.799399,1.582 -3.205195,2.268207 0,0 3.148995,-0.266837 4.704693,-2.039507 -0.6373,1.486718 -2.380495,2.287329 -2.380495,2.287329 1.274595,-0.190672 4.648493,-1.200866 6.785287,-3.926478 2.436699,-3.087837 3.167697,-5.985106 2.436699,-9.873451 z m -6.222991,7.224001 c -0.243601,1.200763 -0.7497,2.535149 -1.893001,3.812076 L 5.7992972,20.566409 c -0.3936,-1.277032 -0.580999,-2.763749 -0.4686,-4.498286 0.2437,0.457507 0.9747,0.838644 1.424499,0.85776 -1.049599,-2.38261 -0.637299,-4.021864 0.15,-5.108225 a 635.67916,646.42701 0 0 1 1.030898,1.543867 v -0.114402 c 0.0187,-0.152536 0.0375,-0.266836 0.075,-0.381136 -0.356199,-0.533774 -0.655999,-0.991179 -0.880999,-1.315267 0.431101,-0.495538 0.918399,-0.857658 1.349599,-1.105478 0.0187,0.209686 0.0562,0.400254 0.112399,0.628956 0.075,0.324088 0.0937,0.80061 0.0562,1.181849 v -0.01912 c 0,0.07627 -0.01869,0.152536 -0.0374,0.228804 -0.0188,0.07627 -0.225,0.285751 -0.2812,0.838643 -0.0562,0.590823 0.149999,0.91491 0.356099,1.16263 0.243701,-0.228703 0.6936,-0.800509 1.5182998,-1.124597 0.824697,-0.343003 1.368296,-0.838643 2.417996,-1.372316 0.618498,-0.323986 1.274499,-0.285954 2.099198,-0.24782 1.480797,0.266837 3.430094,0.800611 5.24829,0.895895 0.412299,0.991179 0.581,2.420645 0.581,2.458879 0,0.133316 0.01879,0.247719 0.01879,0.362018 -3.223998,1.239001 -7.010192,2.649448 -8.603392,3.068821 -0.131198,0.03814 -1.518294,-2.001272 -2.8115938,-3.945596 -0.01869,0.03814 -0.0562,0.05726 -0.075,0.07628 -0.0374,0.03814 -0.075,0.07628 -0.0937,0.114401 h -0.112395 c 1.3869958,2.07754 2.8677938,4.231347 3.0176958,4.231347 1.405796,-0.514554 5.604391,-1.982254 8.659587,-3.0496 -0.0187,2.344478 -0.581,3.221253 -0.581,3.221253 0,0 0.768501,-0.305071 1.555699,-1.105478 0,0.647973 -0.168698,2.32536 -1.499497,3.945496 0,0 0.693498,-0.190568 1.480696,-0.571807 z"
     id="path1299-9"
     style="color:#d1d5e9;fill:#d6dbf1;fill-opacity:1;stroke-width:1.00843"
     class="ColorScheme-Text" /></g><g
   id="22-22-thunderbird"><rect
     style="opacity:0.00100002"
     width="22"
     height="22"
     x="32"
     y="10"
     id="rect1452" /><rect
     style="fill:#4e5a7e;fill-opacity:0.499251;stroke:none;stroke-width:0.358662"
     id="center-3-35-5-6"
     width="14.065383"
     height="14.633"
     x="35.967308"
     y="13.933333"
     ry="7.3164883" /><path
     d="m 50.819712,19.800111 c -0.150002,-0.813254 -0.462399,-1.601086 -0.8872,-2.312649 -0.1204,-0.219177 -0.278133,-0.426761 -0.412399,-0.622685 -0.899666,-1.283403 -1.611998,-1.715453 -1.749396,-1.791721 -0.124932,-0.08895 -0.249934,-0.177891 -0.374868,-0.254091 -1.162132,-0.737053 -1.911863,-0.838677 -1.911863,-0.838677 -0.537334,-0.228736 -1.062132,-0.355781 -1.44953,-0.419372 -0.837201,-0.10169 -1.537,-0.08894 -2.149264,0 0.1,-0.17789 0.187467,-0.241346 0.212398,-0.25409 0.01546,0 0.01107,0 0,0 -0.299866,0.02542 -0.662266,0.228736 -0.987132,0.432049 0.224866,-0.444727 0.699733,-0.698953 0.7622,-0.737121 h 0.01246 C 41.510314,12.976404 40.448184,13.21788 39.535984,14.247192 36.69933,15.45426 35,18.097335 35,20.981755 c 0,2.185671 0.837199,3.761333 1.749398,4.803323 0.862198,0.953044 1.81193,1.461295 2.261728,1.601086 0.0472,0.01892 0.150001,0.02543 0.150001,0.02543 0.01246,-0.03811 -0.574799,-0.991144 -0.837265,-2.134825 0.524866,0.546418 1.149664,0.96579 1.849396,1.04199 0.075,0.01275 -0.249932,-0.393881 -0.599797,-0.927554 l 0.474865,0.165145 5.210727,1.7663 c -0.512334,0.533671 -1.1996,1.054666 -2.136797,1.512138 0,0 2.09933,-0.177892 3.136462,-1.359672 -0.424867,0.991146 -1.586997,1.524886 -1.586997,1.524886 0.84973,-0.127114 3.098995,-0.800577 4.523525,-2.617651 1.624465,-2.058558 2.111797,-3.99007 1.624465,-6.5823 z m -4.14866,4.815999 c -0.1624,0.800509 -0.4998,1.6901 -1.262,2.541384 L 36.199531,24.04427 c -0.262399,-0.851354 -0.387332,-1.842498 -0.312399,-2.998856 0.162467,0.305005 0.6498,0.559096 0.949666,0.57184 -0.699733,-1.588407 -0.424866,-2.681243 0.1,-3.405483 a 423.78608,430.95131 0 0 1 0.687266,1.029244 v -0.07627 c 0.01247,-0.10169 0.025,-0.17789 0.05,-0.25409 -0.237467,-0.35585 -0.437333,-0.660786 -0.587333,-0.876845 0.2874,-0.330359 0.612265,-0.571772 0.899732,-0.736985 0.01247,0.13979 0.03747,0.266836 0.07493,0.419304 0.05,0.216058 0.06247,0.53374 0.03747,0.787899 v -0.01275 c 0,0.05085 -0.01246,0.101691 -0.02493,0.152536 -0.01253,0.05085 -0.15,0.190501 -0.187467,0.559096 -0.03747,0.393882 0.100001,0.60994 0.2374,0.775086 0.162467,-0.152468 0.462399,-0.533672 1.012199,-0.749731 0.549798,-0.228669 0.912197,-0.559095 1.611997,-0.914877 0.412332,-0.215991 0.849666,-0.190636 1.399467,-0.165214 0.987197,0.177892 2.286729,0.533741 3.498859,0.597264 0.274866,0.660786 0.387334,1.613763 0.387334,1.639252 0,0.08888 0.01253,0.165146 0.01253,0.241346 -2.149332,0.826 -4.673462,1.766298 -5.735595,2.04588 -0.08746,0.02543 -1.012196,-1.334181 -1.874395,-2.630397 -0.01246,0.02543 -0.03747,0.03817 -0.05,0.05085 -0.02493,0.02543 -0.05,0.05085 -0.06247,0.07627 h -0.07493 c 0.924663,1.385026 1.911862,2.820897 2.011797,2.820897 0.937197,-0.343036 3.736261,-1.321502 5.773058,-2.033066 -0.01247,1.562985 -0.387333,2.147502 -0.387333,2.147502 0,0 0.512334,-0.203381 1.037133,-0.736986 0,0.431982 -0.112466,1.55024 -0.999665,2.63033 0,0 0.462332,-0.127045 0.987131,-0.381204 z"
     id="path1299-3-7"
     style="color:#d1d5e9;fill:#d6dbf1;fill-opacity:1;stroke-width:0.672287"
     class="ColorScheme-Text" /></g></svg>
