<?xml version="1.0" encoding="UTF-8" standalone="no"?>
<svg
   sodipodi:docname="update.svg"
   inkscape:version="1.1.1 (3bf5ae0d25, 2021-09-20)"
   id="svg846"
   version="1.1"
   viewBox="0 0 8.4666665 8.4666699"
   height="32.000011"
   width="32"
   xmlns:inkscape="http://www.inkscape.org/namespaces/inkscape"
   xmlns:sodipodi="http://sodipodi.sourceforge.net/DTD/sodipodi-0.dtd"
   xmlns="http://www.w3.org/2000/svg"
   xmlns:svg="http://www.w3.org/2000/svg"
   xmlns:rdf="http://www.w3.org/1999/02/22-rdf-syntax-ns#"
   xmlns:cc="http://creativecommons.org/ns#"
   xmlns:dc="http://purl.org/dc/elements/1.1/">
  <defs
     id="defs840">
    <linearGradient
       id="oomox"
       x1="-0.0001251408"
       x2="-0.0001251408"
       y1="-3.4729623e-05"
       y2="16.000065"
       gradientTransform="matrix(0.39687166,0,0,0.39687166,1.058403,298.05833)"
       gradientUnits="userSpaceOnUse">
      <stop
         offset="0%"
         style="stop-color:#303b3d; stop-opacity:1"
         id="stop18" />
      <stop
         offset="100%"
         style="stop-color:#bc985d; stop-opacity:1"
         id="stop20" />
    </linearGradient>
    <linearGradient
       id="oomox-3"
       x1="2.9855692"
       x2="2.9855692"
       y1="0"
       y2="13.290598"
       gradientTransform="matrix(0.17857078,0,0,0.25879833,2.5095723,299.51354)"
       gradientUnits="userSpaceOnUse">
      <stop
         offset="0%"
         style="stop-color:#303b3d; stop-opacity:1"
         id="stop18-6" />
      <stop
         offset="100%"
         style="stop-color:#bc985d; stop-opacity:1"
         id="stop20-7" />
    </linearGradient>
  </defs>
  <sodipodi:namedview
     inkscape:document-rotation="0"
     inkscape:snap-midpoints="true"
     inkscape:object-paths="true"
     inkscape:snap-intersection-paths="true"
     inkscape:snap-smooth-nodes="true"
     inkscape:window-maximized="1"
     inkscape:window-y="0"
     inkscape:window-x="0"
     inkscape:window-height="1007"
     inkscape:window-width="1920"
     units="px"
     showgrid="false"
     inkscape:current-layer="layer1"
     inkscape:document-units="px"
     inkscape:cy="21.655145"
     inkscape:cx="-29.521708"
     inkscape:zoom="5.6568542"
     inkscape:pageshadow="2"
     inkscape:pageopacity="0.0"
     borderopacity="1.0"
     bordercolor="#666666"
     pagecolor="#ffffff"
     id="base"
     inkscape:lockguides="true"
     inkscape:pagecheckerboard="0">
    <inkscape:grid
       id="grid1394"
       type="xygrid"
       originx="-25.399987"
       originy="-5.8207791" />
  </sodipodi:namedview>
  <metadata
     id="metadata843">
    <rdf:RDF>
      <cc:Work
         rdf:about="">
        <dc:format>image/svg+xml</dc:format>
        <dc:type
           rdf:resource="http://purl.org/dc/dcmitype/StillImage" />
      </cc:Work>
    </rdf:RDF>
  </metadata>
  <style
     type="text/css"
     id="current-color-scheme" />
  <g
     transform="translate(-25.4,-296.99997)"
     id="layer1"
     inkscape:groupmode="layer"
     inkscape:label="Layer 1">
    <g
       id="22-22-update-low">
      <rect
         style="opacity:0.003;fill:#000000;fill-opacity:1;stroke:none;stroke-width:0.10795;stroke-miterlimit:4;stroke-dasharray:none;stroke-opacity:1"
         id="rect1396-3-2"
         width="5.8208332"
         height="5.8208332"
         x="17.4625"
         y="291.17914"
         ry="1.2988288e-06" />
      <path
         d="m 21.709861,292.70494 0.857746,0.43624 -0.259172,0.12716 c 0.106824,0.25232 0.166772,0.52961 0.166772,0.82124 0,1.16867 -0.947443,2.11664 -2.116647,2.11664 -0.374559,0 -0.726132,-0.0983 -1.031278,-0.26914 l 0.214098,-0.21405 c 0.246102,0.12347 0.522852,0.19472 0.81718,0.19472 1.009645,0 1.827726,-0.81854 1.827726,-1.82777 0,-0.27083 -0.06265,-0.52602 -0.168574,-0.75719 z m -1.380287,0.44908 z m 0,0 z m 0.02944,-0.89268 c -1.009644,0 -1.827726,0.81861 -1.827726,1.82824 0,0.27084 0.06265,0.52598 0.168575,0.75715 l 0.308302,0.62744 -0.857748,-0.4363 0.259172,-0.12713 c -0.106825,-0.25239 -0.166772,-0.52962 -0.166772,-0.82116 -4.51e-4,-1.16884 0.947444,-2.11669 2.116197,-2.11669 0.37456,0 0.726133,0.0982 1.031279,0.26905 l -0.214098,0.21414 c -0.246101,-0.1235 -0.523302,-0.19474 -0.817181,-0.19474 z"
         id="path4-9-3-36-2-0"
         sodipodi:nodetypes="cccssccsscccccccccccccccccccccccccccsscccccscc"
         style="fill:#d6dbf1;fill-opacity:1;stroke-width:0.0045073" />
      <rect
         style="fill:#4e5a7e;fill-opacity:0.499251;stroke:none;stroke-width:0.091502"
         id="center-3-35-9-6"
         width="3.6512499"
         height="3.668889"
         x="18.538471"
         y="292.25513"
         ry="1.8344415" />
      <path
         d="m 21.23021,293.75069 c -0.01461,0.0347 -0.04926,0.0575 -0.0877,0.0575 h -0.323635 v 0.95551 h -0.92735 v -0.95551 h -0.323636 c -0.03825,-6e-5 -0.07272,-0.0226 -0.08736,-0.0572 -0.01461,-0.0344 -0.0065,-0.0743 0.02047,-0.1008 l 0.787333,-0.76857 c 0.03707,-0.0357 0.09666,-0.0357 0.133724,0 l 0.787333,0.76856 c 0.02704,0.0263 0.03523,0.066 0.02081,0.10054 z m -1.338754,1.48106 c 0,0.0511 0.04236,0.0925 0.09463,0.0925 h 0.73816 c 0.05227,0 0.09463,-0.0415 0.09463,-0.0925 v -0.28313 h -0.927351 z"
         id="path49-36-1-2"
         style="fill:#00a3cc;fill-opacity:1;stroke-width:0.00712927" />
    </g>
    <g
       id="update-low">
      <rect
         style="opacity:0.003;fill:#000000;fill-opacity:1;stroke:none;stroke-width:0.157018;stroke-miterlimit:4;stroke-dasharray:none;stroke-opacity:1"
         id="rect1396-6-9-1"
         width="8.4666672"
         height="8.46667"
         x="25.4"
         y="296.99997"
         ry="1.8892064e-06" />
      <path
         d="m 31.665208,299.15636 1.286619,0.65436 -0.388757,0.19074 c 0.160235,0.37847 0.250157,0.79441 0.250157,1.23185 0,1.75301 -1.421164,3.17497 -3.17497,3.17497 -0.561839,0 -1.089198,-0.14751 -1.546917,-0.40372 l 0.321147,-0.32107 c 0.369152,0.1852 0.784277,0.29208 1.22577,0.29208 1.514467,0 2.741589,-1.22781 2.741589,-2.74165 0,-0.40625 -0.09398,-0.78904 -0.252861,-1.13579 z m -2.07043,0.67362 z m 0,0 z m 0.04416,-1.33902 c -1.514466,0 -2.741589,1.22791 -2.741589,2.74235 0,0.40626 0.09398,0.78898 0.252862,1.13573 l 0.462453,0.94116 -1.286622,-0.65445 0.388758,-0.1907 c -0.160237,-0.37858 -0.250158,-0.79442 -0.250158,-1.23174 -6.77e-4,-1.75325 1.421166,-3.17503 3.174296,-3.17503 0.561839,0 1.089199,0.14734 1.546918,0.40357 l -0.321147,0.32121 c -0.369151,-0.18524 -0.784953,-0.2921 -1.225771,-0.2921 z"
         id="path4-9-3-36-6"
         sodipodi:nodetypes="cccssccsscccccccccccccccccccccccccccsscccccscc"
         style="fill:#d6dbf1;fill-opacity:1;stroke-width:0.00676095" />
      <rect
         style="fill:#4e5a7e;fill-opacity:0.499251;stroke:none;stroke-width:0.137253"
         id="center-3-35-7"
         width="5.4768748"
         height="5.5033336"
         x="26.908125"
         y="298.4816"
         ry="2.7516623" />
      <path
         d="m 30.945731,300.72498 c -0.02192,0.052 -0.07389,0.0863 -0.131554,0.0862 h -0.485453 v 1.43327 h -1.391025 v -1.43327 h -0.485454 c -0.05737,-8e-5 -0.10908,-0.0339 -0.131045,-0.0858 -0.02192,-0.0516 -0.0098,-0.11148 0.03071,-0.1512 l 1.181,-1.15285 c 0.0556,-0.0535 0.144987,-0.0535 0.200586,0 l 1.181,1.15284 c 0.04056,0.0394 0.05285,0.099 0.03122,0.15081 z m -2.00813,2.22159 c 0,0.0767 0.06354,0.13881 0.141948,0.13881 h 1.10724 c 0.07841,0 0.141946,-0.0623 0.141946,-0.13881 v -0.4247 h -1.391026 z"
         id="path49-36-5"
         style="fill:#00a3cc;fill-opacity:1;stroke-width:0.0106939" />
    </g>
    <g
       id="update-none">
      <rect
         style="opacity:0.003;fill:#a8aeca;fill-opacity:1;stroke:none;stroke-width:0.157018;stroke-miterlimit:4;stroke-dasharray:none;stroke-opacity:1"
         id="rect1396-6"
         width="8.4666672"
         height="8.46667"
         x="0"
         y="297"
         ry="1.8892064e-06" />
      <path
         d="m 6.2652076,299.15641 1.286619,0.65436 -0.388757,0.19074 c 0.160235,0.37847 0.250157,0.79441 0.250157,1.23185 0,1.75301 -1.421164,3.17497 -3.17497,3.17497 -0.561839,0 -1.089198,-0.14751 -1.546917,-0.40372 l 0.321147,-0.32107 c 0.369152,0.1852 0.784277,0.29208 1.22577,0.29208 1.514467,0 2.741589,-1.22781 2.741589,-2.74165 0,-0.40625 -0.09398,-0.78904 -0.252861,-1.13579 z m -2.07043,0.67362 z m 0,0 z m 0.04416,-1.33902 c -1.514466,0 -2.7415887,1.22791 -2.7415887,2.74235 0,0.40626 0.09398,0.78898 0.2528617,1.13573 l 0.462453,0.94116 -1.28662193,-0.65445 0.38875823,-0.1907 c -0.1602369,-0.37858 -0.2501583,-0.79442 -0.2501583,-1.23174 -6.763e-4,-1.75325 1.421166,-3.17503 3.174296,-3.17503 0.561839,0 1.089199,0.14734 1.546918,0.40357 l -0.321147,0.32121 c -0.369151,-0.18524 -0.784953,-0.2921 -1.225771,-0.2921 z"
         id="path4-9-3-36"
         sodipodi:nodetypes="cccssccsscccccccccccccccccccccccccccsscccccscc"
         style="fill:#d6dbf1;fill-opacity:1;stroke-width:0.00676095" />
      <rect
         style="fill:#4e5a7e;fill-opacity:0.499251;stroke:none;stroke-width:0.137253"
         id="center-3-35"
         width="5.4768748"
         height="5.5033336"
         x="1.5081249"
         y="298.48166"
         ry="2.7516623" />
      <path
         d="m 5.5457308,300.72503 c -0.02192,0.052 -0.07389,0.0863 -0.131554,0.0862 h -0.485453 v 1.43327 h -1.391025 v -1.43327 h -0.485454 c -0.05737,-8e-5 -0.10908,-0.0339 -0.131045,-0.0858 -0.02192,-0.0516 -0.0098,-0.11148 0.03071,-0.1512 l 1.181,-1.15285 c 0.0556,-0.0535 0.144987,-0.0535 0.200586,0 l 1.181,1.15284 c 0.04056,0.0394 0.05285,0.099 0.03122,0.15081 z m -2.00813,2.22159 c 0,0.0767 0.06354,0.13881 0.141948,0.13881 h 1.10724 c 0.07841,0 0.141946,-0.0623 0.141946,-0.13881 v -0.4247 h -1.391026 z"
         id="path49-36"
         style="fill:#d6dbf1;fill-opacity:1;stroke-width:0.0106939" />
    </g>
    <g
       id="update-high">
      <rect
         style="opacity:0.003;fill:#000000;fill-opacity:1;stroke:none;stroke-width:0.157018;stroke-miterlimit:4;stroke-dasharray:none;stroke-opacity:1"
         id="rect1396-6-9"
         width="8.4666672"
         height="8.46667"
         x="8.4666672"
         y="296.99997"
         ry="1.8892064e-06" />
      <path
         d="m 14.731873,299.15638 1.286619,0.65436 -0.388757,0.19074 c 0.160235,0.37847 0.250157,0.79441 0.250157,1.23185 0,1.75301 -1.421164,3.17497 -3.17497,3.17497 -0.561839,0 -1.089198,-0.14751 -1.546917,-0.40372 l 0.321147,-0.32107 c 0.369152,0.1852 0.784277,0.29208 1.22577,0.29208 1.514467,0 2.741589,-1.22781 2.741589,-2.74165 0,-0.40625 -0.09398,-0.78904 -0.252861,-1.13579 z m -2.07043,0.67362 z m 0,0 z m 0.04416,-1.33902 c -1.514466,0 -2.7415871,1.22791 -2.7415871,2.74235 0,0.40626 0.09398,0.78898 0.2528601,1.13573 l 0.462453,0.94116 -1.2866201,-0.65445 0.388758,-0.1907 c -0.160237,-0.37858 -0.250158,-0.79442 -0.250158,-1.23174 -6.77e-4,-1.75325 1.4211641,-3.17503 3.1742941,-3.17503 0.561839,0 1.089199,0.14734 1.546918,0.40357 l -0.321147,0.32121 c -0.369151,-0.18524 -0.784953,-0.2921 -1.225771,-0.2921 z"
         id="path4-9-3-36-3"
         sodipodi:nodetypes="cccssccsscccccccccccccccccccccccccccsscccccscc"
         style="fill:#d6dbf1;fill-opacity:1;stroke-width:0.00676095" />
      <rect
         style="fill:#4e5a7e;fill-opacity:0.499251;stroke:none;stroke-width:0.137253"
         id="center-3-35-6"
         width="5.4768748"
         height="5.5033336"
         x="9.9747944"
         y="298.48166"
         ry="2.7516623" />
      <path
         d="m 14.012396,300.725 c -0.02192,0.052 -0.07389,0.0863 -0.131554,0.0862 h -0.485453 v 1.43327 H 12.004364 V 300.8112 H 11.51891 c -0.05737,-8e-5 -0.10908,-0.0339 -0.131045,-0.0858 -0.02192,-0.0516 -0.0098,-0.11148 0.03071,-0.1512 l 1.181,-1.15285 c 0.0556,-0.0535 0.144987,-0.0535 0.200586,0 l 1.181,1.15284 c 0.04056,0.0394 0.05285,0.099 0.03122,0.15081 z m -2.00813,2.22159 c 0,0.0767 0.06354,0.13881 0.141948,0.13881 h 1.10724 c 0.07841,0 0.141946,-0.0623 0.141946,-0.13881 v -0.4247 h -1.391026 z"
         id="path49-36-7"
         style="fill:#da4453;fill-opacity:1;stroke-width:0.0106939" />
    </g>
    <g
       id="22-22-update-none">
      <rect
         style="opacity:0.003;fill:#a8aeca;fill-opacity:1;stroke:none;stroke-width:0.10795;stroke-miterlimit:4;stroke-dasharray:none;stroke-opacity:1"
         id="rect1396"
         width="5.8208332"
         height="5.8208332"
         x="0"
         y="291.17914"
         ry="1.2988289e-06" />
      <path
         d="m 4.2473608,292.70494 0.857746,0.43624 -0.259172,0.12716 c 0.106824,0.25232 0.166772,0.52961 0.166772,0.82124 0,1.16867 -0.947443,2.11664 -2.116647,2.11664 -0.374559,0 -0.726132,-0.0983 -1.031278,-0.26914 l 0.214098,-0.21405 c 0.246102,0.12347 0.522852,0.19472 0.81718,0.19472 1.009645,0 1.827726,-0.81854 1.827726,-1.82777 0,-0.27083 -0.06265,-0.52602 -0.168574,-0.75719 z m -1.380287,0.44908 z m 0,0 z m 0.02944,-0.89268 c -1.009644,0 -1.827726,0.81861 -1.827726,1.82824 0,0.27084 0.06265,0.52598 0.168575,0.75715 l 0.308302,0.62744 -0.85774813,-0.4363 0.25917203,-0.12713 c -0.10682503,-0.25239 -0.16677203,-0.52962 -0.16677203,-0.82116 -4.51e-4,-1.16884 0.94744413,-2.11669 2.11619713,-2.11669 0.37456,0 0.726133,0.0982 1.031279,0.26905 l -0.214098,0.21414 c -0.246101,-0.1235 -0.523302,-0.19474 -0.817181,-0.19474 z"
         id="path4-9-3-36-2"
         sodipodi:nodetypes="cccssccsscccccccccccccccccccccccccccsscccccscc"
         style="fill:#d6dbf1;fill-opacity:1;stroke-width:0.0045073" />
      <rect
         style="fill:#4e5a7e;fill-opacity:0.499251;stroke:none;stroke-width:0.091502"
         id="center-3-35-9"
         width="3.6512499"
         height="3.668889"
         x="1.0759717"
         y="292.2551"
         ry="1.8344415" />
      <path
         d="m 3.7677098,293.75069 c -0.01461,0.0347 -0.04926,0.0575 -0.0877,0.0575 h -0.323635 v 0.95551 h -0.92735 v -0.95551 h -0.323636 c -0.03825,-6e-5 -0.07272,-0.0226 -0.08736,-0.0572 -0.01461,-0.0344 -0.0065,-0.0743 0.02047,-0.1008 l 0.787333,-0.76857 c 0.03707,-0.0357 0.09666,-0.0357 0.133724,0 l 0.787333,0.76856 c 0.02704,0.0263 0.03523,0.066 0.02081,0.10054 z m -1.338754,1.48106 c 0,0.0511 0.04236,0.0925 0.09463,0.0925 h 0.73816 c 0.05227,0 0.09463,-0.0415 0.09463,-0.0925 v -0.28313 h -0.927351 z"
         id="path49-36-1"
         style="fill:#d6dbf1;fill-opacity:1;stroke-width:0.00712927" />
    </g>
    <g
       id="22-22-update-high">
      <rect
         style="opacity:0.003;fill:#000000;fill-opacity:1;stroke:none;stroke-width:0.10795;stroke-miterlimit:4;stroke-dasharray:none;stroke-opacity:1"
         id="rect1396-3"
         width="5.8208332"
         height="5.8208332"
         x="5.8208332"
         y="291.17914"
         ry="1.2988288e-06" />
      <path
         d="m 10.068194,292.70494 0.857746,0.43624 -0.259172,0.12716 c 0.106824,0.25232 0.166772,0.52961 0.166772,0.82124 0,1.16867 -0.9474431,2.11664 -2.1166471,2.11664 -0.374559,0 -0.726132,-0.0983 -1.031278,-0.26914 l 0.214098,-0.21405 c 0.246102,0.12347 0.522852,0.19472 0.81718,0.19472 1.009645,0 1.8277261,-0.81854 1.8277261,-1.82777 0,-0.27083 -0.06265,-0.52602 -0.168574,-0.75719 z m -1.3802871,0.44908 z m 0,0 z m 0.02944,-0.89268 c -1.009644,0 -1.827726,0.81861 -1.827726,1.82824 0,0.27084 0.06265,0.52598 0.168575,0.75715 l 0.308302,0.62744 -0.857748,-0.4363 0.259172,-0.12713 c -0.106825,-0.25239 -0.166772,-0.52962 -0.166772,-0.82116 -4.51e-4,-1.16884 0.947444,-2.11669 2.116197,-2.11669 0.37456,0 0.726133,0.0982 1.031279,0.26905 l -0.214098,0.21414 c -0.246101,-0.1235 -0.523302,-0.19474 -0.817181,-0.19474 z"
         id="path4-9-3-36-2-2"
         sodipodi:nodetypes="cccssccsscccccccccccccccccccccccccccsscccccscc"
         style="fill:#d6dbf1;fill-opacity:1;stroke-width:0.0045073" />
      <rect
         style="fill:#4e5a7e;fill-opacity:0.499251;stroke:none;stroke-width:0.091502"
         id="center-3-35-9-7"
         width="3.6512499"
         height="3.668889"
         x="6.8968053"
         y="292.2551"
         ry="1.8344415" />
      <path
         d="m 9.5885429,293.75069 c -0.01461,0.0347 -0.04926,0.0575 -0.0877,0.0575 h -0.323635 v 0.95551 h -0.92735 v -0.95551 h -0.323636 c -0.03825,-6e-5 -0.07272,-0.0226 -0.08736,-0.0572 -0.01461,-0.0344 -0.0065,-0.0743 0.02047,-0.1008 l 0.787333,-0.76857 c 0.03707,-0.0357 0.09666,-0.0357 0.133724,0 l 0.787333,0.76856 c 0.02704,0.0263 0.03523,0.066 0.02081,0.10054 z m -1.338754,1.48106 c 0,0.0511 0.04236,0.0925 0.09463,0.0925 h 0.73816 c 0.05227,0 0.09463,-0.0415 0.09463,-0.0925 v -0.28313 h -0.927351 z"
         id="path49-36-1-0"
         style="fill:#da4453;fill-opacity:1;stroke-width:0.00712927" />
    </g>
    <g
       id="update-medium">
      <rect
         style="opacity:0.003;fill:#000000;fill-opacity:1;stroke:none;stroke-width:0.157018;stroke-miterlimit:4;stroke-dasharray:none;stroke-opacity:1"
         id="rect1396-6-9-5"
         width="8.4666672"
         height="8.46667"
         x="16.933332"
         y="296.99997"
         ry="1.8892064e-06" />
      <path
         d="m 23.19854,299.15638 1.286619,0.65436 -0.388757,0.19074 c 0.160235,0.37847 0.250157,0.79441 0.250157,1.23185 0,1.75301 -1.421164,3.17497 -3.17497,3.17497 -0.561839,0 -1.089198,-0.14751 -1.546917,-0.40372 l 0.321147,-0.32107 c 0.369152,0.1852 0.784277,0.29208 1.22577,0.29208 1.514467,0 2.741589,-1.22781 2.741589,-2.74165 0,-0.40625 -0.09398,-0.78904 -0.252861,-1.13579 z M 21.12811,299.83 Z m 0,0 z m 0.04416,-1.33902 c -1.514466,0 -2.741589,1.22791 -2.741589,2.74235 0,0.40626 0.09398,0.78898 0.252862,1.13573 l 0.462453,0.94116 -1.286622,-0.65445 0.388758,-0.1907 c -0.160237,-0.37858 -0.250158,-0.79442 -0.250158,-1.23174 -6.77e-4,-1.75325 1.421166,-3.17503 3.174296,-3.17503 0.561839,0 1.089199,0.14734 1.546918,0.40357 l -0.321147,0.32121 c -0.369151,-0.18524 -0.784953,-0.2921 -1.225771,-0.2921 z"
         id="path4-9-3-36-5"
         sodipodi:nodetypes="cccssccsscccccccccccccccccccccccccccsscccccscc"
         style="fill:#d6dbf1;fill-opacity:1;stroke-width:0.00676095" />
      <rect
         style="fill:#4e5a7e;fill-opacity:0.499251;stroke:none;stroke-width:0.137253"
         id="center-3-35-3"
         width="5.4768748"
         height="5.5033336"
         x="18.441465"
         y="298.48166"
         ry="2.7516623" />
      <path
         d="m 22.479063,300.725 c -0.02192,0.052 -0.07389,0.0863 -0.131554,0.0862 h -0.485453 v 1.43327 h -1.391025 v -1.43327 h -0.485454 c -0.05737,-8e-5 -0.10908,-0.0339 -0.131045,-0.0858 -0.02192,-0.0516 -0.0098,-0.11148 0.03071,-0.1512 l 1.181,-1.15285 c 0.0556,-0.0535 0.144987,-0.0535 0.200586,0 l 1.181,1.15284 c 0.04056,0.0394 0.05285,0.099 0.03122,0.15081 z m -2.00813,2.22159 c 0,0.0767 0.06354,0.13881 0.141948,0.13881 h 1.10724 c 0.07841,0 0.141946,-0.0623 0.141946,-0.13881 v -0.4247 h -1.391026 z"
         id="path49-36-56"
         style="fill:#ff9955;fill-opacity:1;stroke-width:0.0106939" />
    </g>
    <g
       id="22-22-update-medium">
      <rect
         style="opacity:0.003;fill:#000000;fill-opacity:1;stroke:none;stroke-width:0.10795;stroke-miterlimit:4;stroke-dasharray:none;stroke-opacity:1"
         id="rect1396-3-1"
         width="5.8208332"
         height="5.8208332"
         x="11.641666"
         y="291.17914"
         ry="1.2988288e-06" />
      <path
         d="m 15.889027,292.70494 0.857746,0.43624 -0.259172,0.12716 c 0.106824,0.25232 0.166772,0.52961 0.166772,0.82124 0,1.16867 -0.947443,2.11664 -2.116647,2.11664 -0.374559,0 -0.726132,-0.0983 -1.031278,-0.26914 l 0.214098,-0.21405 c 0.246102,0.12347 0.522852,0.19472 0.81718,0.19472 1.009645,0 1.827726,-0.81854 1.827726,-1.82777 0,-0.27083 -0.06265,-0.52602 -0.168574,-0.75719 z m -1.380287,0.44908 z m 0,0 z m 0.02944,-0.89268 c -1.009644,0 -1.827726,0.81861 -1.827726,1.82824 0,0.27084 0.06265,0.52598 0.168575,0.75715 l 0.308302,0.62744 -0.857748,-0.4363 0.259172,-0.12713 c -0.106825,-0.25239 -0.166772,-0.52962 -0.166772,-0.82116 -4.51e-4,-1.16884 0.947444,-2.11669 2.116197,-2.11669 0.37456,0 0.726133,0.0982 1.031279,0.26905 l -0.214098,0.21414 c -0.246101,-0.1235 -0.523302,-0.19474 -0.817181,-0.19474 z"
         id="path4-9-3-36-2-9"
         sodipodi:nodetypes="cccssccsscccccccccccccccccccccccccccsscccccscc"
         style="fill:#d6dbf1;fill-opacity:1;stroke-width:0.0045073" />
      <rect
         style="fill:#4e5a7e;fill-opacity:0.499251;stroke:none;stroke-width:0.091502"
         id="center-3-35-9-3"
         width="3.6512499"
         height="3.668889"
         x="12.717638"
         y="292.2551"
         ry="1.8344415" />
      <path
         d="m 15.409376,293.75069 c -0.01461,0.0347 -0.04926,0.0575 -0.0877,0.0575 h -0.323635 v 0.95551 h -0.92735 v -0.95551 h -0.323636 c -0.03825,-6e-5 -0.07272,-0.0226 -0.08736,-0.0572 -0.01461,-0.0344 -0.0065,-0.0743 0.02047,-0.1008 l 0.787333,-0.76857 c 0.03707,-0.0357 0.09666,-0.0357 0.133724,0 l 0.787333,0.76856 c 0.02704,0.0263 0.03523,0.066 0.02081,0.10054 z m -1.338754,1.48106 c 0,0.0511 0.04236,0.0925 0.09463,0.0925 h 0.73816 c 0.05227,0 0.09463,-0.0415 0.09463,-0.0925 v -0.28313 h -0.927351 z"
         id="path49-36-1-6"
         style="fill:#ff9955;fill-opacity:1;stroke-width:0.00712927" />
    </g>
  </g>
</svg>
