<?xml version="1.0" encoding="UTF-8" standalone="no"?>
<svg
   id="svg4153"
   version="1.1"
   width="22"
   height="22"
   sodipodi:docname="user.svg"
   inkscape:version="1.1.1 (3bf5ae0d25, 2021-09-20)"
   xmlns:inkscape="http://www.inkscape.org/namespaces/inkscape"
   xmlns:sodipodi="http://sodipodi.sourceforge.net/DTD/sodipodi-0.dtd"
   xmlns="http://www.w3.org/2000/svg"
   xmlns:svg="http://www.w3.org/2000/svg"
   xmlns:rdf="http://www.w3.org/1999/02/22-rdf-syntax-ns#"
   xmlns:cc="http://creativecommons.org/ns#"
   xmlns:dc="http://purl.org/dc/elements/1.1/">
  <metadata
     id="metadata48">
    <rdf:RDF>
      <cc:Work
         rdf:about="">
        <dc:format>image/svg+xml</dc:format>
        <dc:type
           rdf:resource="http://purl.org/dc/dcmitype/StillImage" />
      </cc:Work>
    </rdf:RDF>
  </metadata>
  <sodipodi:namedview
     pagecolor="#ffffff"
     bordercolor="#000000"
     borderopacity="1"
     objecttolerance="10"
     gridtolerance="10"
     guidetolerance="10"
     inkscape:pageopacity="0"
     inkscape:pageshadow="2"
     inkscape:window-width="1920"
     inkscape:window-height="1007"
     id="namedview46"
     showgrid="false"
     inkscape:lockguides="true"
     inkscape:zoom="5.9728662"
     inkscape:cx="-6.1946809"
     inkscape:cy="26.36925"
     inkscape:window-x="0"
     inkscape:window-y="0"
     inkscape:window-maximized="1"
     inkscape:current-layer="svg4153"
     inkscape:document-rotation="0"
     inkscape:pagecheckerboard="0">
    <inkscape:grid
       type="xygrid"
       id="grid2175"
       originx="0"
       originy="0" />
  </sodipodi:namedview>
  <defs
     id="defs4157">
    <style
       type="text/css"
       id="current-color-scheme">.ColorScheme-Text{color:#dfdfdf}.ColorScheme-Background{color:#eff0f1}</style>
  </defs>
  <g
     id="user-online"
     transform="translate(44)">
    <path
       id="rect4554"
       opacity="0.97"
       fill="none"
       fill-opacity="1"
       stroke="none"
       d="m -44,0 h 22 v 22 h -22 z" />
    <ellipse
       cy="6.9961267"
       cx="-32.918289"
       id="path4144-3"
       opacity="1"
       fill-opacity="1"
       stroke="none"
       style="fill:#00a3cc;fill-opacity:1;stroke-width:1.14228"
       rx="4.0000005"
       ry="3.9961269" />
    <path
       id="path4166-6"
       d="m -30.729,5 0.643284,0.6417513 -3.428569,3.4252513 L -35.8,6.7835028 -35.157,6.142 l 1.643,1.642 z"
       class="ColorScheme-Background"
       fill="currentColor"
       fill-rule="evenodd"
       stroke="none"
       stroke-width="1.14228"
       stroke-linecap="butt"
       stroke-linejoin="miter"
       stroke-opacity="1"
       style="color:#eff0f1;fill:#d6dbf1;fill-opacity:1"
       sodipodi:nodetypes="ccccccc" />
    <path
       inkscape:connector-curvature="0"
       id="fill-3"
       d="m -39.379321,16.183396 -0.349448,1.687922 h 13.560299 l -0.42616,-1.687922 c -4.26156,-4.257438 -8.523126,-4.257438 -12.784691,0 z"
       style="color:#1e92ff;fill:#4e5a7e;fill-opacity:0.501961;fill-rule:nonzero;stroke:none;stroke-width:1.91718"
       class="ColorScheme-ButtonFocus"
       sodipodi:nodetypes="ccccc" />
    <path
       style="fill:#00a3cc;fill-opacity:1;stroke-width:1.52448"
       id="path2-5-6"
       d="m -33.00001,11.737554 a 8,6.5362253 0 0 0 -8,6.536225 8,6.5362253 0 0 0 0.05312,0.726241 h 15.88768 a 8,6.5362253 0 0 0 0.0592,-0.726241 8,6.5362253 0 0 0 -8,-6.536225 m 0,1.452493 a 6.4,5.0837308 0 0 1 6.328128,4.357492 H -39.32801 a 6.4,5.0837308 0 0 1 6.328,-4.357492" />
  </g>
  <g
     id="user-identity"
     transform="translate(44)">
    <path
       id="rect4585"
       opacity="0.97"
       fill="none"
       fill-opacity="1"
       stroke="none"
       d="m -132,0 h 22 v 22 h -22 z" />
    <ellipse
       cy="6.9961271"
       cx="-120.91827"
       id="path4144-3-92"
       opacity="1"
       fill-opacity="1"
       stroke="none"
       style="fill:#d6dbf1;fill-opacity:1;stroke-width:1.14228"
       rx="4.0000005"
       ry="3.9961269" />
    <path
       inkscape:connector-curvature="0"
       id="fill-3-97"
       d="m -127.57138,16.248814 -0.35661,1.722503 h 13.83813 l -0.4349,-1.722503 c -4.34887,-4.344663 -8.69774,-4.344663 -13.04662,0 z"
       style="color:#1e92ff;fill:#4e5a7e;fill-opacity:0.501961;fill-rule:nonzero;stroke:none;stroke-width:1.95648"
       class="ColorScheme-ButtonFocus"
       sodipodi:nodetypes="ccccc" />
    <path
       style="fill:#d6dbf1;fill-opacity:1;stroke-width:1.52448"
       id="path2-5-6-1"
       d="m -121,11.737554 a 8,6.5362253 0 0 0 -8,6.536225 8,6.5362253 0 0 0 0.0531,0.726241 h 15.88768 a 8,6.5362253 0 0 0 0.0592,-0.726241 8,6.5362253 0 0 0 -8,-6.536225 m 0,1.452493 a 6.4,5.0837308 0 0 1 6.32813,4.357492 H -127.328 A 6.4,5.0837308 0 0 1 -121,13.190047" />
  </g>
  <g
     id="user-offline"
     transform="translate(44)">
    <path
       id="rect4564"
       opacity="0.97"
       fill="none"
       fill-opacity="1"
       stroke="none"
       d="m -66,0 h 22 v 22 h -22 z" />
    <ellipse
       cy="6.9961276"
       cx="-54.918282"
       id="path4144-3-5"
       opacity="1"
       fill-opacity="1"
       stroke="none"
       style="fill:#ffaaaa;fill-opacity:1;stroke-width:1.14228"
       rx="4.0000005"
       ry="3.9961276" />
    <path
       inkscape:connector-curvature="0"
       id="fill-3-9"
       d="m -61.572348,16.248815 -0.356605,1.722504 h 13.838117 l -0.434889,-1.722504 c -4.348873,-4.344662 -8.697748,-4.344662 -13.046623,0 z"
       style="color:#1e92ff;fill:#4e5a7e;fill-opacity:0.501961;fill-rule:nonzero;stroke:none;stroke-width:1.95647"
       class="ColorScheme-ButtonFocus"
       sodipodi:nodetypes="ccccc" />
    <path
       style="fill:#ffaaaa;fill-opacity:1;stroke-width:1.52448"
       id="path2-5-6-2"
       d="m -55,11.737534 a 8,6.5362263 0 0 0 -8,6.536226 8,6.5362263 0 0 0 0.05312,0.726241 H -47.0592 A 8,6.5362263 0 0 0 -47,18.27376 8,6.5362263 0 0 0 -55,11.737534 m 0,1.452493 a 6.4,5.0837316 0 0 1 6.328128,4.357493 H -61.328 A 6.4,5.0837316 0 0 1 -55,13.190027" />
    <path
       id="rect4152-8-2"
       opacity="1"
       fill-opacity="1"
       stroke="none"
       d="M -52.795639,6.6 V 7.3999995 H -57.3 V 6.6 Z"
       style="fill:#d6dbf1;fill-opacity:1;stroke-width:1.50073"
       sodipodi:nodetypes="ccccc" />
  </g>
  <g
     id="user-away"
     transform="translate(44)">
    <path
       id="rect4562"
       opacity="0.97"
       fill="none"
       d="m -88,0 h 22 v 22 h -22 z"
       style="fill-opacity:1;stroke:none" />
    <ellipse
       cy="6.9961271"
       cx="-76.918274"
       id="path4144-3-9"
       opacity="1"
       fill-opacity="1"
       stroke="none"
       style="fill:#d4aa00;fill-opacity:1;stroke-width:1.14228"
       rx="4.0000005"
       ry="3.9961269" />
    <path
       inkscape:connector-curvature="0"
       id="fill-3-2"
       d="m -83.471962,16.314233 -0.356028,1.757083 h 13.815636 l -0.434181,-1.757083 c -4.341809,-4.431889 -8.683618,-4.431889 -13.025427,0 z"
       style="color:#1e92ff;fill:#4e5a7e;fill-opacity:0.501961;fill-rule:nonzero;stroke:none;stroke-width:1.97441"
       class="ColorScheme-ButtonFocus"
       sodipodi:nodetypes="ccccc" />
    <path
       style="fill:#d4aa00;fill-opacity:1;stroke-width:1.52448"
       id="path2-5-6-75"
       d="m -77,11.737544 a 8,6.5362253 0 0 0 -8,6.536225 8,6.5362253 0 0 0 0.05312,0.726241 H -69.0592 A 8,6.5362253 0 0 0 -69,18.273769 8,6.5362253 0 0 0 -77,11.737544 m 0,1.452493 a 6.4,5.0837308 0 0 1 6.328128,4.357492 H -83.328 A 6.4,5.0837308 0 0 1 -77,13.190037" />
    <path
       id="path4227-9"
       d="m -74.29999,4.3 -5.5,2.75 1.375,0.6875 0.6875,2.0625 0.6875,-1.375 1.375,0.6875 z"
       fill-rule="evenodd"
       stroke-width="0.6875"
       stroke-linecap="butt"
       stroke-linejoin="miter"
       stroke-opacity="1"
       style="fill:#d6dbf1;fill-opacity:1" />
  </g>
  <g
     id="user-busy"
     transform="translate(44)">
    <path
       id="rect4560"
       opacity="0.97"
       fill="none"
       fill-opacity="1"
       stroke="none"
       d="m -110,0 h 22 v 22 h -22 z" />
    <ellipse
       cy="6.9961157"
       cx="-98.918282"
       id="path4144-3-3"
       opacity="1"
       fill-opacity="1"
       stroke="none"
       style="fill:#ff9955;fill-opacity:1;stroke-width:1.14229"
       rx="4.0000005"
       ry="3.9961157" />
    <path
       inkscape:connector-curvature="0"
       id="fill-3-7"
       d="m -105.47151,16.248783 -0.3566,1.722503 h 13.83815 l -0.434889,-1.722503 c -4.348886,-4.344663 -8.697771,-4.344663 -13.046661,0 z"
       style="color:#1e92ff;fill:#4e5a7e;fill-opacity:0.501961;fill-rule:nonzero;stroke:none;stroke-width:1.95648"
       class="ColorScheme-ButtonFocus"
       sodipodi:nodetypes="ccccc" />
    <path
       style="fill:#ff9955;fill-opacity:1;stroke-width:1.52448"
       id="path2-5-6-3"
       d="m -99,11.737573 a 8,6.5362072 0 0 0 -8,6.536208 8,6.5362072 0 0 0 0.0531,0.726238 h 15.8877 A 8,6.5362072 0 0 0 -91,18.273781 8,6.5362072 0 0 0 -99,11.737573 m 0,1.452489 a 6.4,5.0837167 0 0 1 6.328128,4.357481 H -105.328 A 6.4,5.0837167 0 0 1 -99,13.190062" />
    <path
       id="rect4146-3"
       d="m -99.4,4.4999988 v 3.5 h 2.333335 v -1.166665 h -1.16667 v -2.333335 z"
       class="ColorScheme-Background"
       opacity="1"
       fill="currentColor"
       fill-opacity="1"
       stroke="none"
       style="color:#eff0f1;fill:#d6dbf1;fill-opacity:1;stroke-width:1.16665" />
  </g>
  <g
     id="user-invisible"
     transform="translate(44)">
    <path
       id="rect4556"
       opacity="0.97"
       fill="none"
       fill-opacity="1"
       stroke="none"
       d="M -22,0 H 0 v 22 h -22 z" />
    <ellipse
       cy="6.9961271"
       cx="-10.918273"
       id="path4144-3-7"
       opacity="1"
       fill-opacity="1"
       stroke="none"
       style="fill:#59748c;fill-opacity:1;stroke-width:1.14228"
       rx="4.0000005"
       ry="3.9961269" />
    <path
       inkscape:connector-curvature="0"
       id="fill-3-93"
       d="m -17.47139,16.248818 -0.35661,1.722503 h 13.83812 l -0.43489,-1.722503 c -4.34887,-4.344663 -8.69775,-4.344663 -13.04662,0 z"
       style="color:#1e92ff;fill:#4e5a7e;fill-opacity:0.501961;fill-rule:nonzero;stroke:none;stroke-width:1.95648"
       class="ColorScheme-ButtonFocus"
       sodipodi:nodetypes="ccccc" />
    <path
       style="fill:#59748c;fill-opacity:1;stroke-width:1.52448"
       id="path2-5-6-0"
       d="m -11,11.737554 a 8,6.5362253 0 0 0 -8,6.536225 8,6.5362253 0 0 0 0.05312,0.726241 H -3.0592 A 8,6.5362253 0 0 0 -3,18.273779 8,6.5362253 0 0 0 -11,11.737554 m 0,1.452493 a 6.4,5.0837308 0 0 1 6.328128,4.357492 H -17.328 A 6.4,5.0837308 0 0 1 -11,13.190047" />
    <path
       id="rect4152-1"
       class="ColorScheme-Background"
       opacity="1"
       fill="currentColor"
       fill-opacity="1"
       stroke="none"
       d="m -9.707,5.0000028 0.7071,0.707106 -3.29299,3.292997 L -13,8.2929988 Z"
       style="color:#eff0f1;fill:#d6dbf1;fill-opacity:1" />
  </g>
  <g
     id="user-away-extended"
     transform="translate(44)">
    <path
       id="rect4649"
       opacity="0.97"
       fill="none"
       fill-opacity="1"
       stroke="none"
       d="M 0,0 H 22 V 22 H 0 Z" />
    <ellipse
       cy="6.9961271"
       cx="11.08172"
       id="path4144-3-6"
       opacity="1"
       fill-opacity="1"
       stroke="none"
       style="fill:#aa87de;fill-opacity:1;stroke-width:1.14228"
       rx="4.0000005"
       ry="3.9961269" />
    <path
       inkscape:connector-curvature="0"
       id="fill-3-6"
       d="m 4.52862,16.248813 -0.35661,1.722503 h 13.83812 l -0.43489,-1.722503 c -4.34887,-4.344663 -8.69775,-4.344663 -13.04662,0 z"
       style="color:#1e92ff;fill:#4e5a7e;fill-opacity:0.501961;fill-rule:nonzero;stroke:none;stroke-width:1.95648"
       class="ColorScheme-ButtonFocus"
       sodipodi:nodetypes="ccccc" />
    <path
       style="fill:#aa87de;fill-opacity:1;stroke-width:1.52448"
       id="path2-5-6-7"
       d="M 11,11.737554 A 8,6.5362253 0 0 0 3,18.273779 8,6.5362253 0 0 0 3.05312,19.00002 H 18.9408 A 8,6.5362253 0 0 0 19,18.273779 8,6.5362253 0 0 0 11,11.737554 m 0,1.452493 a 6.4,5.0837308 0 0 1 6.328128,4.357492 H 4.672 A 6.4,5.0837308 0 0 1 11,13.190047" />
    <circle
       r="0.5"
       cy="-9.1000156"
       cx="7.0219984"
       id="circle4659-9"
       transform="rotate(90)"
       class="ColorScheme-Background"
       opacity="0.7"
       fill="currentColor"
       fill-opacity="1"
       stroke="none"
       style="color:#eff0f1;fill:#d6dbf1;fill-opacity:1" />
    <circle
       id="circle4661-4"
       cx="11.100016"
       cy="7.0219984"
       r="0.5"
       class="ColorScheme-Background"
       opacity="0.4"
       fill="currentColor"
       fill-opacity="1"
       stroke="none"
       style="color:#eff0f1;opacity:0.6;fill:#d6dbf1;fill-opacity:1" />
    <circle
       id="circle4663-7"
       cx="13.100016"
       cy="7.0219984"
       r="0.5"
       class="ColorScheme-Background"
       opacity="0.3"
       fill="currentColor"
       fill-opacity="1"
       stroke="none"
       style="color:#eff0f1;opacity:0.4;fill:#d6dbf1;fill-opacity:1" />
  </g>
</svg>
