<?xml version="1.0" encoding="UTF-8" standalone="no"?>
<svg
   width="32"
   height="32"
   version="1"
   id="svg12"
   sodipodi:docname="utilities.svg"
   inkscape:version="1.2.1 (9c6d41e410, 2022-07-14)"
   xmlns:inkscape="http://www.inkscape.org/namespaces/inkscape"
   xmlns:sodipodi="http://sodipodi.sourceforge.net/DTD/sodipodi-0.dtd"
   xmlns="http://www.w3.org/2000/svg"
   xmlns:svg="http://www.w3.org/2000/svg"
   xmlns:rdf="http://www.w3.org/1999/02/22-rdf-syntax-ns#"
   xmlns:cc="http://creativecommons.org/ns#"
   xmlns:dc="http://purl.org/dc/elements/1.1/">
  <metadata
     id="metadata18">
    <rdf:RDF>
      <cc:Work
         rdf:about="">
        <dc:format>image/svg+xml</dc:format>
        <dc:type
           rdf:resource="http://purl.org/dc/dcmitype/StillImage" />
      </cc:Work>
    </rdf:RDF>
  </metadata>
  <defs
     id="defs16" />
  <sodipodi:namedview
     pagecolor="#ffffff"
     bordercolor="#000000"
     borderopacity="1"
     objecttolerance="10"
     gridtolerance="10"
     guidetolerance="10"
     inkscape:pageopacity="0"
     inkscape:pageshadow="2"
     inkscape:window-width="1920"
     inkscape:window-height="1010"
     id="namedview14"
     showgrid="false"
     inkscape:zoom="8.0000004"
     inkscape:cx="31.687499"
     inkscape:cy="17.937499"
     inkscape:window-x="0"
     inkscape:window-y="0"
     inkscape:window-maximized="1"
     inkscape:current-layer="svg12"
     inkscape:document-rotation="0"
     inkscape:lockguides="false"
     inkscape:pagecheckerboard="0"
     inkscape:showpageshadow="2"
     inkscape:deskcolor="#cccccc">
    <inkscape:grid
       type="xygrid"
       id="grid852"
       originx="-1e-06"
       originy="0" />
  </sodipodi:namedview>
  <g
     id="utilities-terminal">
    <rect
       style="opacity:0.00100002;fill:#d1d5e9;fill-opacity:1"
       width="32"
       height="32"
       x="0"
       y="0"
       id="rect7" />
    <rect
       style="fill:#4e5a7e;fill-opacity:0.501961;stroke:none;stroke-width:1.00729"
       id="center-3-35-6-3"
       width="22.000002"
       height="19.546041"
       x="4.999999"
       y="7.2270002"
       ry="0"
       rx="0" />
    <path
       d="m 14.83047,19.209423 -4.196874,3.846076 C 9.879254,23.746657 8.747996,22.70969 9.502337,22.018537 L 13.133334,18.690942 9.502337,15.36335 c -0.754339,-0.691152 0.376911,-1.728115 1.131251,-1.036966 l 4.196882,3.846079 c 0.312501,0.28633 0.312501,0.750628 0,1.03696 z m 6.044267,2.794599 -5.934891,-0.004 c -0.563019,-3.79e-4 -0.536155,1 0,1 h 5.934896 c 0.553026,0 0.551263,-1 0,-0.996 z M 5.193372,5.0054001 26.796918,5.0000001 C 27.454439,4.9997181 28,5.4695841 28,6.2594031 V 26.000022 c 0,0.586782 -0.322413,1 -1,1 H 5 c -0.583919,0 -1,-0.396961 -1,-1 l 1e-6,-19.7726979 c 0,-0.733154 0.477349,-1.221924 1.193371,-1.221924 z M 5,26.000022 H 27 V 8.0000211 H 5 Z"
       id="path4-36"
       sodipodi:nodetypes="cccccccccssscccccccccccccccc"
       style="fill:#d6dbf1;fill-opacity:1;stroke-width:0.255284" />
  </g>
  <g
     id="22-22-utilities-terminal"
     transform="translate(32,10.000001)">
    <rect
       style="opacity:0.00100002;fill:#d1d5e9;fill-opacity:1"
       width="22"
       height="22"
       x="0"
       y="0"
       id="rect2" />
    <rect
       style="fill:#4e5a7e;fill-opacity:0.501961;stroke:none;stroke-width:0.596635"
       id="center-3-35-6-3-7"
       width="14.370175"
       height="11.3"
       x="3.806"
       y="5.8000002"
       ry="0"
       rx="0" />
    <path
       d="M 10.220313,13.041843 7.422397,15.489595 C 6.919502,15.929465 6.165332,15.269511 6.668225,14.829641 L 9.088889,12.711865 6.668225,10.594089 C 6.165333,10.154229 6.919498,9.494279 7.422393,9.934137 l 2.79792,2.447754 c 0.208336,0.18223 0.208336,0.47772 0,0.659952 z M 14.249834,15 h -3.956603 c -0.71111,0 -0.71111,1 0,1 h 3.956608 c 0.505591,0 0.486192,-1.000001 0,-1 z M 3.795581,4.002 18.196726,4 C 18.762118,4.01013 19,4.283082 19,4.745993 v 12.254006 c 0,0.703962 -0.317149,1 -1,1 H 4 c -0.663943,0 -1,-0.389914 -1,-1 l 1e-6,-12.220325 C 3.000001,4.313063 3.318233,4.002 3.795581,4.002 Z M 4,16.999999 h 14 v -11 H 4 Z"
       id="path4-3-5"
       sodipodi:nodetypes="cccccccccssscccccccccccccccc"
       style="fill:#d6dbf1;fill-opacity:1;stroke-width:0.166291" />
  </g>
</svg>
