<?xml version="1.0" encoding="UTF-8" standalone="no"?>
<svg
   width="32"
   height="32"
   version="1.1"
   id="svg12"
   sodipodi:docname="video.svg"
   inkscape:version="1.1.1 (3bf5ae0d25, 2021-09-20)"
   xmlns:inkscape="http://www.inkscape.org/namespaces/inkscape"
   xmlns:sodipodi="http://sodipodi.sourceforge.net/DTD/sodipodi-0.dtd"
   xmlns="http://www.w3.org/2000/svg"
   xmlns:svg="http://www.w3.org/2000/svg"
   xmlns:rdf="http://www.w3.org/1999/02/22-rdf-syntax-ns#"
   xmlns:cc="http://creativecommons.org/ns#"
   xmlns:dc="http://purl.org/dc/elements/1.1/">
  <g
     id="22-22-video-display-brightness"
     transform="translate(32,10.000003)">
    <rect
       style="opacity:0.00100002;fill:#a8aeca;fill-opacity:1"
       width="22"
       height="22"
       x="0"
       y="-1.3897704e-07"
       id="rect2" />
    <rect
       style="fill:#4e5a7e;fill-opacity:0.501961;stroke:none;stroke-width:0.310043"
       id="center-3-3"
       width="14.775036"
       height="10.409684"
       x="3.6715927"
       y="4.2484574"
       ry="0.98627728" />
    <path
       d="M 17.400083,3.55 H 4.599911 C 3.717724,3.55 3,4.267638 3,5.149907 v 8.399151 c 0,0.882271 0.717724,1.599905 1.599911,1.599905 h 4.883054 c -0.0549,0.712762 -0.264486,1.51768 -0.603976,1.51768 H 8.129364 c -0.198301,0 -0.359089,0.160787 -0.359089,0.359091 0,0.198296 0.160788,0.359072 0.359089,0.359072 h 5.414366 c 0.198296,0 0.359072,-0.160776 0.359072,-0.359072 0,-0.198304 -0.160776,-0.359091 -0.359072,-0.359091 h -0.749646 c -0.338119,0 -0.548,-0.804926 -0.603554,-1.51768 h 5.073236 C 18.221167,15.148963 19,14.370143 19,13.412821 V 5.149907 C 19,4.267638 18.28227,3.55 17.400083,3.55 Z M 3.718163,6.033764 h 14.563674 v 6.264115 H 3.718163 Z M 4.599911,4.268163 h 12.800172 c 0.486202,0 0.881754,0.395551 0.881754,0.881744 V 5.315601 H 3.718163 V 5.149907 c 0,-0.486193 0.395551,-0.881744 0.881748,-0.881744 z m 7.216375,12.39848 H 9.856804 c 0.238061,-0.490521 0.318816,-1.120251 0.345742,-1.51768 h 1.267998 c 0.02688,0.397429 0.107682,1.027159 0.345742,1.51768 z m 5.44748,-2.235844 H 4.599911 c -0.486197,0 -0.881748,-0.395547 -0.881748,-0.881741 v -0.533016 h 14.563674 v 0.396779 c 0,0.561242 -0.456748,1.017978 -1.018071,1.017978 z"
       id="path4-3-6"
       style="fill:#d6dbf1;fill-opacity:1;stroke-width:0.179546" />
    <path
       d="m 12.382021,9.444633 a 0.33765717,0.33765717 0 0 1 0,-0.39857 L 12.682818,8.636955 A 0.33765717,0.33765717 0 0 0 12.373744,8.101516 l -0.503856,0.05494 A 0.33765717,0.33765717 0 0 1 11.523212,7.955668 L 11.318664,7.491671 a 0.33765717,0.33765717 0 0 0 -0.618163,0 L 10.495952,7.955668 A 0.33765717,0.33765717 0 0 1 10.150766,8.154954 L 9.646914,8.100014 A 0.33765717,0.33765717 0 0 0 9.337836,8.635453 l 0.300812,0.409104 a 0.33765717,0.33765717 0 0 1 0,0.398568 L 9.337836,9.852223 a 0.33765717,0.33765717 0 0 0 0.309078,0.535439 l 0.503852,-0.05487 a 0.33765717,0.33765717 0 0 1 0.345186,0.199289 l 0.204549,0.463996 a 0.33765717,0.33765717 0 0 0 0.618163,0 l 0.204548,-0.463996 a 0.33765717,0.33765717 0 0 1 0.345171,-0.199289 l 0.503856,0.05487 a 0.33765717,0.33765717 0 0 0 0.309074,-0.535439 z m -1.370942,0.671555 a 0.87083971,0.87083971 0 1 1 0.86859,-0.870848 0.87083971,0.87083971 0 0 1 -0.86859,0.870848 z M 11.950359,7.880423 11.714216,7.744307 11.99398,7.258509 12.230108,7.394621 Z M 9.364905,9.091186 V 9.363414 L 8.803903,9.358714 V 9.086423 Z m 3.28934,0.315848 0.0042,-0.272243 0.561009,0.0094 -0.0042,0.272232 z M 10.322979,7.741297 10.085343,7.875167 9.807852,7.386345 10.045484,7.25249 Z m -0.264703,2.851664 0.235374,0.13838 -0.284263,0.483544 -0.234622,-0.138369 z m 1.690544,0.127097 0.233121,-0.141379 0.291036,0.479026 -0.233136,0.141383 z"
       id="path4-7"
       style="fill:#d6dbf1;fill-opacity:1;stroke-width:0.0752022" />
  </g>
  <metadata
     id="metadata18">
    <rdf:RDF>
      <cc:Work
         rdf:about="">
        <dc:format>image/svg+xml</dc:format>
        <dc:type
           rdf:resource="http://purl.org/dc/dcmitype/StillImage" />
      </cc:Work>
    </rdf:RDF>
  </metadata>
  <defs
     id="defs16" />
  <sodipodi:namedview
     pagecolor="#ffffff"
     bordercolor="#666666"
     borderopacity="1"
     objecttolerance="10"
     gridtolerance="10"
     guidetolerance="10"
     inkscape:pageopacity="0"
     inkscape:pageshadow="2"
     inkscape:window-width="1920"
     inkscape:window-height="1007"
     id="namedview14"
     showgrid="false"
     inkscape:zoom="9.8125003"
     inkscape:cx="37.605094"
     inkscape:cy="21.757961"
     inkscape:window-x="0"
     inkscape:window-y="0"
     inkscape:window-maximized="1"
     inkscape:current-layer="svg12"
     inkscape:document-rotation="0"
     inkscape:pagecheckerboard="0"
     inkscape:lockguides="true">
    <inkscape:grid
       type="xygrid"
       id="grid988"
       originx="0"
       originy="0" />
  </sodipodi:namedview>
  <g
     id="video-display-brightness">
    <rect
       style="opacity:0.00100002;fill:#a8aeca;fill-opacity:1"
       width="32"
       height="32"
       x="0"
       y="0"
       id="rect7" />
    <rect
       style="fill:#4e5a7e;fill-opacity:0.501961;stroke:none;stroke-width:0.461653"
       id="center-3"
       width="22"
       height="15.5"
       x="5"
       y="7.04"
       ry="1.468565" />
    <path
       d="M 25.441696,6 H 6.382265 C 5.06869,6 4,7.068561 4,8.382259 v 12.506319 c 0,1.313701 1.06869,2.382256 2.382265,2.382256 h 7.270858 c -0.08174,1.061302 -0.393819,2.259822 -0.899319,2.259822 h -1.11619 c -0.29527,0 -0.534683,0.239413 -0.534683,0.534686 0,0.295263 0.239413,0.534658 0.534683,0.534658 h 8.06198 c 0.295263,0 0.534658,-0.239395 0.534658,-0.534658 0,-0.295273 -0.239395,-0.534686 -0.534658,-0.534686 h -1.116221 c -0.503459,0 -0.815972,-1.198533 -0.898691,-2.259822 h 7.554039 c 1.425568,0 2.585249,-1.159661 2.585249,-2.585112 V 8.382259 C 27.82397,7.068561 26.755271,6 25.441696,6 Z M 5.069344,9.69832 h 21.685282 v 9.327255 H 5.069344 Z M 6.382265,7.069344 h 19.059431 c 0.723954,0 1.31293,0.588974 1.31293,1.312915 V 8.628976 H 5.069344 V 8.382259 c 0,-0.723941 0.588974,-1.312915 1.312921,-1.312915 z m 10.745168,18.461312 h -2.917665 c 0.354472,-0.730384 0.474716,-1.668051 0.51481,-2.259822 h 1.888046 c 0.04002,0.591771 0.160338,1.529438 0.514809,2.259822 z M 25.238721,22.20149 H 6.382265 c -0.723947,0 -1.312921,-0.58897 -1.312921,-1.312912 v -0.793659 h 21.685282 v 0.590803 c 0,0.835689 -0.680097,1.515768 -1.515905,1.515768 z"
       id="path4-3"
       style="fill:#d6dbf1;fill-opacity:1;stroke-width:0.267344" />
    <path
       d="m 17.969811,14.777098 a 0.50277089,0.50277089 0 0 1 0,-0.59347 l 0.447887,-0.609162 a 0.50277089,0.50277089 0 0 0 -0.460211,-0.797267 l -0.750241,0.0818 a 0.50277089,0.50277089 0 0 1 -0.516199,-0.298974 l -0.304572,-0.69089 a 0.50277089,0.50277089 0 0 0 -0.920444,0 l -0.304572,0.69089 a 0.50277089,0.50277089 0 0 1 -0.513982,0.296737 l -0.750234,-0.08181 a 0.50277089,0.50277089 0 0 0 -0.460217,0.797267 l 0.447909,0.609155 a 0.50277089,0.50277089 0 0 1 0,0.593467 l -0.447909,0.609147 a 0.50277089,0.50277089 0 0 0 0.460217,0.797267 l 0.750234,-0.0817 a 0.50277089,0.50277089 0 0 1 0.513982,0.296741 l 0.304572,0.69089 a 0.50277089,0.50277089 0 0 0 0.920444,0 l 0.304572,-0.69089 a 0.50277089,0.50277089 0 0 1 0.513959,-0.296741 l 0.75024,0.0817 a 0.50277089,0.50277089 0 0 0 0.460211,-0.797267 z m -2.041329,0.999943 a 1.2966787,1.2966787 0 1 1 1.293329,-1.29669 1.2966787,1.2966787 0 0 1 -1.293329,1.29669 z m 1.398586,-3.32905 -0.351616,-0.202676 0.416567,-0.723352 0.351594,0.202671 z m -3.849737,1.802824 v 0.405347 L 12.642,14.649162 V 14.24372 Z m 4.897821,0.470298 0.0063,-0.405369 0.835342,0.01393 -0.0063,0.405353 z m -3.47125,-2.48028 -0.353839,0.199333 -0.413184,-0.727856 0.353834,-0.19931 z m -0.394143,4.246122 0.350472,0.206048 -0.423267,0.719997 -0.349352,-0.206032 z m 2.517218,0.189248 0.347117,-0.210513 0.433351,0.713269 -0.347139,0.210518 z"
       id="path4"
       style="fill:#d6dbf1;fill-opacity:1;stroke-width:0.111976" />
  </g>
</svg>
