<?xml version="1.0" encoding="UTF-8" standalone="no"?>
<svg
   version="1.1"
   id="svg2"
   viewBox="0 0 22 22"
   sodipodi:docname="video-card.svg"
   inkscape:version="1.1.1 (3bf5ae0d25, 2021-09-20)"
   xmlns:inkscape="http://www.inkscape.org/namespaces/inkscape"
   xmlns:sodipodi="http://sodipodi.sourceforge.net/DTD/sodipodi-0.dtd"
   xmlns="http://www.w3.org/2000/svg"
   xmlns:svg="http://www.w3.org/2000/svg"
   xmlns:rdf="http://www.w3.org/1999/02/22-rdf-syntax-ns#"
   xmlns:cc="http://creativecommons.org/ns#"
   xmlns:dc="http://purl.org/dc/elements/1.1/">
  <sodipodi:namedview
     pagecolor="#ffffff"
     bordercolor="#000000"
     borderopacity="1"
     objecttolerance="10"
     gridtolerance="10"
     guidetolerance="10"
     inkscape:pageopacity="0"
     inkscape:pageshadow="2"
     inkscape:window-width="1920"
     inkscape:window-height="1007"
     id="namedview10"
     showgrid="false"
     inkscape:zoom="20.184686"
     inkscape:cx="12.43517"
     inkscape:cy="11.716804"
     inkscape:window-x="0"
     inkscape:window-y="0"
     inkscape:window-maximized="1"
     inkscape:current-layer="svg2"
     inkscape:document-rotation="0"
     inkscape:showpageshadow="false"
     inkscape:pagecheckerboard="0"
     inkscape:lockguides="false">
    <inkscape:grid
       type="xygrid"
       id="grid877" />
  </sodipodi:namedview>
  <metadata
     id="metadata12">
    <rdf:RDF>
      <cc:Work
         rdf:about="">
        <dc:format>image/svg+xml</dc:format>
        <dc:type
           rdf:resource="http://purl.org/dc/dcmitype/StillImage" />
      </cc:Work>
    </rdf:RDF>
  </metadata>
  <defs
     id="defs3051">
    <style
       type="text/css"
       id="current-color-scheme" />
  </defs>
  <g
     id="22-22-video-card-inactive">
    <g
       id="g1821">
      <path
         id="path7"
         style="fill:none"
         d="M 0,0 V 22 H 22 V 0 Z" />
      <rect
         style="fill:#4e5a7e;fill-opacity:0.501961;stroke:none;stroke-width:0.311337"
         id="center-3-35"
         width="8.8000002"
         height="18"
         x="7"
         y="-20"
         ry="0.37329891"
         transform="rotate(90)"
         rx="0.48639932" />
      <path
         d="M 18.999973,6.1999848 H 3.7999981 V 4.199999 C 3.7999981,3.5382746 3.2617235,3 2.599999,3 H 1.8000122 C 1.5789124,3 1.4,3.1789124 1.4,3.3999747 1.4,3.6210745 1.5789124,3.7999869 1.8000122,3.7999869 H 2.599999 c 0.2203124,0 0.4000122,0.1792873 0.4000122,0.4000121 V 6.599997 7.0000092 H 1.8000122 C 1.5789124,6.9999717 1.4,7.178884 1.4,7.3999838 v 3.1999852 c 0,0.2211 0.1789124,0.400012 0.4000122,0.400012 h 1.199999 v 0.799987 H 1.8000122 C 1.5789124,11.799968 1.4,11.97888 1.4,12.19998 v 3.199985 c 0,0.2211 0.1789124,0.400012 0.4000122,0.400012 h 1.199999 v 0.400012 2.399998 c 0,0.2211 0.1789124,0.400013 0.4000122,0.400013 0.2210998,0 0.4000122,-0.178913 0.4000122,-0.400013 v -1.999986 h 1.6000112 v 1.2 c 0,0.221099 0.1789124,0.400012 0.4000122,0.400012 h 7.199994 c 0.2211,0 0.400012,-0.178913 0.400012,-0.400012 v -1.2 h 0.799987 v 1.2 c 0,0.221099 0.178913,0.400012 0.400012,0.400012 h 4.00001 c 0.2211,0 0.400012,-0.178913 0.400012,-0.400012 v -1.2 c 0.882037,0 1.600011,-0.717561 1.600011,-1.600011 V 7.799996 C 20.599985,6.9175467 19.88201,6.1999848 18.999973,6.1999848 Z M 3.0000112,14.99999 H 2.1999869 v -2.399998 h 0.7999868 v 2.399998 z m 0,-4.799996 H 2.1999869 V 7.799996 h 0.7999868 v 2.399998 z m 9.5999928,7.199994 H 6.1999962 v -0.799987 h 6.4000078 z m 5.599983,0 h -3.199985 v -0.799987 h 3.199985 z m 1.600011,-2.399998 c 0,0.441 -0.358612,0.799987 -0.799987,0.799987 H 3.7999981 V 6.9999717 H 18.999973 c 0.441413,0 0.799987,0.3589872 0.799987,0.7999868 V 14.99999 Z"
         id="path2"
         style="fill:#d6dbf1;fill-opacity:1;stroke-width:0.0375" />
      <path
         d="M 17.799974,7.8119334 H 9.0000064 c -1.9851734,0 -3.5999971,1.6148612 -3.5999971,3.5999966 0,1.985136 1.6148612,3.599998 3.5999971,3.599998 h 8.8000056 c 0.2211,0 0.400012,-0.178913 0.400012,-0.400013 V 8.2119081 c -3.7e-5,-0.2210624 -0.17895,-0.3999747 -0.40005,-0.3999747 z M 17.4,14.211903 H 9.0000064 c -1.5437612,0 -2.8000102,-1.256249 -2.8000102,-2.80001 0,-1.5437238 1.256249,-2.7999728 2.8000102,-2.7999728 H 17.4 Z"
         id="path4"
         style="fill:#da4453;fill-opacity:1;stroke-width:0.0375" />
      <path
         d="m 6.999983,11.41193 c 0,1.102725 0.8968868,1.999986 1.9999859,1.999986 1.1031371,0 2.0000231,-0.897261 2.0000231,-1.999986 0,-1.102724 -0.896886,-1.9999854 -1.9999856,-1.9999854 C 7.8968698,9.4119071 6.999983,10.309169 6.999983,11.41193 Z m 3.200022,0 c 0,0.661725 -0.5382741,1.2 -1.1999986,1.2 -0.6617245,0 -1.199999,-0.538275 -1.199999,-1.2 0,-0.661724 0.5382745,-1.199999 1.199999,-1.199999 0.6617245,0 1.1999986,0.538275 1.1999986,1.199999 z"
         id="path6"
         style="fill:#da4453;fill-opacity:1;stroke-width:0.0375" />
      <path
         d="m 12.999978,10.211931 h 3.199985 c 0.2211,0 0.400012,-0.178912 0.400012,-0.4000117 0,-0.2210998 -0.178912,-0.4000122 -0.400012,-0.4000122 h -3.199985 c -0.2211,0 -0.400012,0.1789124 -0.400012,0.4000122 0,0.2210997 0.17895,0.4000117 0.400012,0.4000117 z"
         id="path8"
         style="fill:#da4453;fill-opacity:1;stroke-width:0.0375" />
      <path
         d="m 12.999978,11.811905 h 3.199985 c 0.2211,0 0.400012,-0.178912 0.400012,-0.400012 0,-0.2211 -0.178912,-0.400012 -0.400012,-0.400012 h -3.199985 c -0.2211,0 -0.400012,0.178912 -0.400012,0.400012 3.8e-5,0.221137 0.17895,0.400012 0.400012,0.400012 z"
         id="path10-3"
         style="fill:#da4453;fill-opacity:1;stroke-width:0.0375" />
      <path
         d="m 12.999978,13.411916 h 3.199985 c 0.2211,0 0.400012,-0.178912 0.400012,-0.400012 0,-0.2211 -0.178912,-0.400012 -0.400012,-0.400012 h -3.199985 c -0.2211,0 -0.400012,0.178912 -0.400012,0.400012 3.8e-5,0.2211 0.17895,0.400012 0.400012,0.400012 z"
         id="path12"
         style="fill:#da4453;fill-opacity:1;stroke-width:0.0375" />
    </g>
  </g>
</svg>
