<?xml version="1.0" encoding="UTF-8" standalone="no"?>
<svg
   width="32"
   height="32"
   version="1.1"
   id="svg12"
   sodipodi:docname="video.svg"
   inkscape:version="1.1.2 (0a00cf5339, 2022-02-04)"
   xmlns:inkscape="http://www.inkscape.org/namespaces/inkscape"
   xmlns:sodipodi="http://sodipodi.sourceforge.net/DTD/sodipodi-0.dtd"
   xmlns="http://www.w3.org/2000/svg"
   xmlns:svg="http://www.w3.org/2000/svg"
   xmlns:rdf="http://www.w3.org/1999/02/22-rdf-syntax-ns#"
   xmlns:cc="http://creativecommons.org/ns#"
   xmlns:dc="http://purl.org/dc/elements/1.1/">
  <metadata
     id="metadata18">
    <rdf:RDF>
      <cc:Work
         rdf:about="">
        <dc:format>image/svg+xml</dc:format>
        <dc:type
           rdf:resource="http://purl.org/dc/dcmitype/StillImage" />
      </cc:Work>
    </rdf:RDF>
  </metadata>
  <defs
     id="defs16" />
  <sodipodi:namedview
     pagecolor="#ffffff"
     bordercolor="#666666"
     borderopacity="1"
     objecttolerance="10"
     gridtolerance="10"
     guidetolerance="10"
     inkscape:pageopacity="0"
     inkscape:pageshadow="2"
     inkscape:window-width="1920"
     inkscape:window-height="1009"
     id="namedview14"
     showgrid="true"
     inkscape:zoom="9.8125003"
     inkscape:cx="35.006368"
     inkscape:cy="21.707006"
     inkscape:window-x="0"
     inkscape:window-y="0"
     inkscape:window-maximized="1"
     inkscape:current-layer="svg12"
     inkscape:document-rotation="0"
     inkscape:pagecheckerboard="0"
     inkscape:lockguides="false">
    <inkscape:grid
       type="xygrid"
       id="grid988"
       originx="0"
       originy="0" />
  </sodipodi:namedview>
  <g
     id="video-display-brightness">
    <rect
       style="opacity:0.00100002;fill:#a8aeca;fill-opacity:1"
       width="32"
       height="32"
       x="0"
       y="0"
       id="rect7" />
    <rect
       style="fill:#4e5a7e;fill-opacity:0.501961;stroke:none;stroke-width:0.58093"
       id="center-3"
       width="27"
       height="20"
       x="2.5"
       y="4.5"
       ry="1.8949226" />
    <path
       d="m 19.530193,13.032382 a 0.85215403,0.85215403 0 0 1 0,-1.005889 l 0.759118,-1.032487 A 0.85215403,0.85215403 0 0 0 19.5093,9.642706 L 18.237703,9.781392 A 0.85215403,0.85215403 0 0 1 17.362795,9.27463 l -0.516214,-1.171 a 0.85215403,0.85215403 0 0 0 -1.560085,0 l -0.516214,1.171 a 0.85215403,0.85215403 0 0 1 -0.871174,0.502967 l -1.27159,-0.138716 a 0.85215403,0.85215403 0 0 0 -0.780017,1.3513 l 0.759181,1.032452 a 0.85215403,0.85215403 0 0 1 0,1.005873 l -0.759181,1.032472 a 0.85215403,0.85215403 0 0 0 0.780017,1.3513 l 1.27159,-0.13847 a 0.85215403,0.85215403 0 0 1 0.871174,0.502969 l 0.516214,1.171 a 0.85215403,0.85215403 0 0 0 1.560085,0 l 0.516214,-1.171 a 0.85215403,0.85215403 0 0 1 0.87111,-0.502969 l 1.271596,0.13847 a 0.85215403,0.85215403 0 0 0 0.780011,-1.3513 z m -3.459888,1.694811 a 2.1977603,2.1977603 0 1 1 2.19209,-2.197788 2.1977603,2.1977603 0 0 1 -2.19209,2.197788 z M 18.440796,9.084718 17.84482,8.741207 18.550888,7.515195 19.146801,7.858701 Z m -6.524987,3.055661 v 0.687017 L 10.5,12.815469 v -0.687194 z m 8.301395,0.797109 0.0104,-0.68708 1.415836,0.02377 -0.01042,0.687039 z M 14.333719,8.733609 13.734003,9.071481 13.033696,7.837808 13.633407,7.5 Z m -0.668023,7.19681 0.594012,0.349261 L 13.542307,17.5 12.950194,17.150796 Z m 4.266483,0.320776 0.58832,-0.356801 0.734496,1.208918 -0.588383,0.356806 z"
       id="path4"
       style="fill:#d6dbf1;fill-opacity:1;stroke-width:0.189794" />
    <path
       d="M 28.348059,4 H 3.651942 C 2.741172,4 2,4.6220882 2,5.5099999 V 23.153 C 2,24.099836 2.489162,25 3.651942,25 h 9.089644 c -0.283623,0.895651 -0.950823,2.014291 -2.295686,2.014291 V 28 h 11.108201 v -0.985709 c -1.344863,0 -2.012063,-1.11864 -2.295686,-2.014291 H 28.248 C 29.661091,25 30,24.099836 30,23.153 V 5.6101315 C 30,4.7222198 29.258829,4 28.348059,4 Z M 29.039,23.052812 C 29.04197,23.208978 28.900302,24 28.248,24 H 3.651942 C 3,24 3,23.209006 3,23.052812 V 21 H 29 Z M 29,20 H 3 V 5.9099999 c 0,-0.9100001 0.591428,-0.882823 0.752,-0.883 l 24.496,-0.027 c 0.160215,-1.766e-4 0.752,-10e-8 0.752,1.01 z"
       id="path2"
       style="fill:#d6dbf1;fill-opacity:1;stroke-width:0.356287"
       sodipodi:nodetypes="sssssccccccsssssscsccscccsssc" />
  </g>
  <g
     id="22-22-video-display-brightness"
     transform="translate(32,10.000003)">
    <rect
       style="opacity:0.00100002;fill:#a8aeca;fill-opacity:1"
       width="22"
       height="22"
       x="0"
       y="-1.3897704e-07"
       id="rect2" />
    <rect
       style="fill:#4e5a7e;fill-opacity:0.501961;stroke:none;stroke-width:0.371646"
       id="center-3-3"
       width="17"
       height="13"
       x="2.5"
       y="3.5"
       ry="1.2317002" />
    <path
       d="m 12.804804,8.869421 a 0.51947262,0.51129247 0 0 1 0,-0.6035313 l 0.46275,-0.6194866 A 0.51947262,0.51129247 0 0 0 12.792055,6.8356226 L 12.0169,6.9188236 A 0.51947262,0.51129247 0 0 1 11.483555,6.6147748 L 11.168862,5.912174 a 0.51947262,0.51129247 0 0 0 -0.951014,0 L 9.903155,6.6147744 A 0.51947262,0.51129247 0 0 1 9.372098,6.9165398 L 8.596942,6.8333478 A 0.51947262,0.51129247 0 0 0 8.1214356,7.6441289 L 8.584224,8.2636095 a 0.51947262,0.51129247 0 0 1 0,0.6035285 L 8.1214356,9.486603 a 0.51947262,0.51129247 0 0 0 0.4755064,0.81078 l 0.775156,-0.083 a 0.51947262,0.51129247 0 0 1 0.531057,0.301772 l 0.314693,0.702599 a 0.51947262,0.51129247 0 0 0 0.951014,0 l 0.314693,-0.702599 a 0.51947262,0.51129247 0 0 1 0.531021,-0.301777 l 0.775176,0.083 A 0.51947262,0.51129247 0 0 0 13.26525,9.486598 Z M 10.69565,9.886312 A 1.339753,1.3186564 0 1 1 12.031952,8.567641 1.339753,1.3186564 0 0 1 10.69565,9.886312 Z M 12.140695,6.5008353 11.777396,6.2947236 12.207814,5.5591111 12.571076,5.7652169 Z M 8.1630806,8.334215 V 8.746433 L 7.3,8.739333 V 8.327025 Z m 5.0605284,0.478271 0.0063,-0.412242 0.863091,0.01424 -0.0063,0.412228 z M 9.637047,6.290165 9.271437,6.4928774 8.844533,5.7526843 9.210116,5.549997 Z m -0.407251,4.318086 0.362129,0.209553 -0.437332,0.732193 -0.360958,-0.209523 z m 2.600851,0.192463 0.358639,-0.214081 0.447758,0.725352 -0.358674,0.214085 z"
       id="path4-7"
       style="fill:#d6dbf1;fill-opacity:1;stroke-width:0.114781" />
    <path
       d="M 18.938051,2.999997 H 3.061968 C 2.476468,2.999997 2,3.481711 2,4.073658 v 11.828339 c 0,0.591942 0.476468,1.098 1.061968,1.098 h 5.843344 c -0.182335,0.597101 -0.611245,1.34286 -1.475798,1.34286 v 0.65714 h 7.14098 v -0.65714 c -0.864552,0 -1.293466,-0.745759 -1.475789,-1.34286 h 5.843346 C 19.52354,16.999997 20,16.493939 20,15.901997 V 4.07341 C 20,3.481479 19.52354,2.999997 18.938051,2.999997 Z m 0.06195,12.701875 c 0,0.104129 0,0.298125 -0.262,0.298125 h -15.438 c -0.3,0 -0.3,-0.194167 -0.3,-0.298289 v -1.701711 h 16 z m 0,-2.701875 h -16 v -8.627 c 0,-0.104115 0,-0.373 0.262,-0.373 h 15.476 c 0.262,0 0.262,0.268859 0.262,0.373 z"
       id="path2-3"
       style="fill:#d6dbf1;fill-opacity:1;stroke-width:0.233238"
       sodipodi:nodetypes="sssssccccccssssssssccsccssssc" />
  </g>
</svg>
