<?xml version="1.0" encoding="UTF-8" standalone="no"?>
<svg
   width="32"
   height="32"
   version="1.1"
   id="svg22"
   sodipodi:docname="view.svg"
   inkscape:version="1.1.1 (3bf5ae0d25, 2021-09-20)"
   xmlns:inkscape="http://www.inkscape.org/namespaces/inkscape"
   xmlns:sodipodi="http://sodipodi.sourceforge.net/DTD/sodipodi-0.dtd"
   xmlns:xlink="http://www.w3.org/1999/xlink"
   xmlns="http://www.w3.org/2000/svg"
   xmlns:svg="http://www.w3.org/2000/svg"
   xmlns:rdf="http://www.w3.org/1999/02/22-rdf-syntax-ns#"
   xmlns:cc="http://creativecommons.org/ns#"
   xmlns:dc="http://purl.org/dc/elements/1.1/">
  <g
     id="22-22-view-history"
     transform="translate(-22,10)">
    <path
       style="opacity:0.00100002"
       d="M 0,0 V 22 H 22 V 0 Z"
       id="path12" />
    <path
       inkscape:connector-curvature="0"
       id="fill-5"
       d="M 2.0000002,5.807687 10.97877,2 19.999975,5.8769177 c 0,0.2769227 0,0.9692294 -0.553845,1.0393476 -0.527255,1.4936304 -0.830768,2.0068021 -2.215382,2.0068021 l 0.107375,7.7340546 c 0.584932,-0.118681 2.661852,1.265933 2.177237,3.342853 H 2.6923072 v 0 c -0.692307,-2.07692 1.384613,-3.461534 1.929399,-3.34267 L 4.5890162,8.8244434 C 3.3846133,8.9230674 2.9977783,8.244201 2.6923072,6.9229288 2.0000002,6.8461471 2.0000002,6.1538404 2.0000002,5.807687 Z"
       style="color:#1e92ff;fill:#5599ff;fill-opacity:0.101961;fill-rule:nonzero;stroke:none;stroke-width:3.04256"
       class="ColorScheme-ButtonFocus"
       sodipodi:nodetypes="ccccccccccccc" />
    <path
       style="clip-rule:evenodd;fill:url(#linearGradient997);fill-opacity:1;fill-rule:evenodd;stroke-width:0.00183654;stroke-linejoin:round;stroke-miterlimit:1.41421"
       d="M 6.4900302,3.8626513 C 4.1041742,4.8982784 2.1245633,5.776698 2.0786503,5.8027765 c -0.1048671,0.058957 -0.1048671,0.380165 0,0.4850315 0.04591,0.045914 0.1704319,0.078604 0.2883379,0.078604 h 0.209733 l 0.02626,0.4260781 c 0.03269,0.5572072 0.209735,0.7537178 0.6947649,0.8062431 l 0.3276401,0.026259 0.02626,0.4194666 c 0.03288,0.5375568 0.196694,0.7340666 0.6358119,0.7603293 l 0.3015611,0.019655 0.01965,3.9131239 0.01304,3.919738 h -0.163819 c -0.44573,0 -0.7537179,0.412855 -0.7537179,1.009365 v 0.28191 l -0.307989,0.0393 c -0.426078,0.04591 -0.648851,0.294949 -0.707805,0.799631 -0.06556,0.504683 -0.0066,0.865197 0.1704319,1.055279 L 3.0029772,20 h 8.0558178 8.055635 l 0.157391,-0.16382 c 0.150781,-0.144169 0.16382,-0.209733 0.16382,-0.721027 0,-0.386776 -0.03269,-0.6292 -0.104866,-0.760329 -0.104867,-0.209734 -0.43269,-0.386777 -0.701377,-0.386777 -0.144169,0 -0.163819,-0.03269 -0.196693,-0.380164 -0.05896,-0.675114 -0.288522,-0.930761 -0.838934,-0.930761 h -0.255647 l 0.01304,-3.919737 0.01965,-3.9131244 0.308173,-0.019655 C 18.124716,8.7783466 18.32141,8.5293071 18.32141,7.9983625 V 7.6115864 h 0.30156 c 0.255647,0 0.334435,-0.032691 0.524333,-0.2227726 C 19.350609,7.1856917 19.37026,7.1331664 19.37026,6.7660417 V 6.3665959 h 0.229384 c 0.28191,0 0.47842,-0.2359962 0.367126,-0.4457292 C 19.92747,5.8486907 19.861902,5.776698 19.815989,5.7570469 19.770079,5.7373919 17.816727,4.8918511 15.470174,3.8758743 13.13005,2.8598984 11.12436,2.014353 11.012882,2.00113 10.862101,1.974864 9.8262903,2.4009461 6.4900242,3.8626513 Z m 8.6784058,0.2819093 c 2.254726,0.9766745 4.129471,1.8025688 4.162161,1.8352588 0.07199,0.065568 -16.3015357,0.065568 -16.5309197,0.00665 -0.1114781,-0.032691 0.832323,-0.4719919 3.9327759,-1.8288307 2.248299,-0.9766744 4.1360818,-1.7829168 4.2080738,-1.7829168 0.06556,-0.00644 1.966572,0.7932035 4.227909,1.7698772 z m 3.808258,2.5693262 c 0,0.1900818 -0.03269,0.3801643 -0.0786,0.4260781 -0.111479,0.111478 -15.7248598,0.111478 -15.8361558,0 -0.04591,-0.045914 -0.0786,-0.2359963 -0.0786,-0.4260781 V 6.3665959 H 10.980019 18.9767 Z m -0.983101,1.1799793 c 0,0.1507803 -0.04591,0.3474743 -0.104868,0.4260781 L 17.790465,8.464113 H 10.98662 c -5.1979717,0 -6.8168847,-0.019648 -6.8758387,-0.078604 -0.04591,-0.045914 -0.0786,-0.2359963 -0.0786,-0.4260781 V 7.6119568 h 6.9807037 6.980706 z m -11.5494768,4.8438859 0.01304,3.919736 H 5.7361292 5.0151012 V 12.724712 8.7853246 l 0.707804,0.019655 0.701376,0.019648 z m 3.474008,0 0.01304,3.919736 h -1.572998 -1.573183 v -3.886862 c 0,-2.143432 0.01966,-3.9131246 0.04591,-3.9393876 0.02608,-0.019655 0.721027,-0.032691 1.5533481,-0.026259 l 1.5142319,0.019648 z m 1.7829168,-0.01304 v 3.932776 h -0.721027 -0.721028 v -3.886863 c 0,-2.143431 0.01966,-3.9131246 0.04591,-3.9327756 0.01965,-0.026266 0.347474,-0.045914 0.721027,-0.045914 h 0.675114 z m 3.460784,0.01304 0.01304,3.919736 h -1.54031 -1.54031 v -3.886862 c 0,-2.143432 0.01966,-3.9131246 0.04591,-3.9393876 0.02608,-0.019655 0.707804,-0.032691 1.520658,-0.026259 l 1.481357,0.019648 z m 1.835443,0 0.01304,3.919736 H 16.26963 15.522339 v -3.886862 c -0.0066,-2.130208 0.0066,-3.9066966 0.02627,-3.9327756 0.01304,-0.026267 0.347475,-0.039302 0.72764,-0.032872 l 0.701375,0.019648 z m 0.957023,4.457293 c 0.05895,0.08522 0.104866,0.28191 0.104866,0.458769 v 0.3146 H 11.078451 4.0977472 v -0.334251 c 0,-0.183471 0.03269,-0.386776 0.06556,-0.458769 0.06556,-0.124518 0.216344,-0.124518 6.8824488,-0.124518 h 6.810458 z m 0.9438,1.219098 c 0.111478,0.07218 0.209733,0.439118 0.209733,0.779981 0,0.524334 0.727455,0.47842 -8.055818,0.47842 -6.0172538,0 -7.8657358,-0.01966 -7.9246888,-0.0786 -0.11809,-0.117906 -0.09826,-0.911109 0.02608,-1.087968 l 0.09826,-0.144169 h 7.7805198 c 4.280435,-1.84e-4 7.820007,0.02608 7.86592,0.05234 z"
       id="path4-3-6" />
    <path
       style="clip-rule:evenodd;fill:url(#linearGradient1031-7);fill-opacity:1;fill-rule:evenodd;stroke-width:0.00183654;stroke-linejoin:round;stroke-miterlimit:1.41421"
       d="m 10.655856,3.4694474 c -0.714415,0.3539016 -0.694764,1.3371876 0.03287,1.6583993 0.380165,0.1704313 0.694765,0.111478 1.002937,-0.1704314 0.196694,-0.1770429 0.235996,-0.2556467 0.262258,-0.5768584 0.01966,-0.2949489 0,-0.4064276 -0.111478,-0.5898979 C 11.593227,3.3842315 11.095156,3.2464908 10.655856,3.4694474 Z m 0.819466,0.4850314 c 0.209734,0.2490352 0.190083,0.5309446 -0.07218,0.7537178 -0.367125,0.3278232 -0.878235,0.071992 -0.878235,-0.4326903 0,-0.5177215 0.609549,-0.7274551 0.950411,-0.3210275 z"
       id="path6-6-2" />
  </g>
  <metadata
     id="metadata28">
    <rdf:RDF>
      <cc:Work
         rdf:about="">
        <dc:format>image/svg+xml</dc:format>
        <dc:type
           rdf:resource="http://purl.org/dc/dcmitype/StillImage" />
      </cc:Work>
    </rdf:RDF>
  </metadata>
  <defs
     id="defs26">
    <linearGradient
       inkscape:collect="always"
       id="linearGradient1042">
      <stop
         style="stop-color:#5edeff;stop-opacity:1"
         offset="0"
         id="stop1038" />
      <stop
         style="stop-color:#ffc6ff;stop-opacity:1"
         offset="1"
         id="stop1040" />
    </linearGradient>
    <linearGradient
       inkscape:collect="always"
       id="linearGradient1067">
      <stop
         style="stop-color:#78acd3;stop-opacity:1"
         offset="0"
         id="stop1063" />
      <stop
         style="stop-color:#4ac3bb;stop-opacity:1"
         offset="1"
         id="stop1065" />
    </linearGradient>
    <linearGradient
       inkscape:collect="always"
       xlink:href="#linearGradient1042"
       id="linearGradient884"
       x1="26"
       y1="16"
       x2="50"
       y2="16"
       gradientUnits="userSpaceOnUse" />
    <linearGradient
       inkscape:collect="always"
       xlink:href="#linearGradient1042"
       id="linearGradient892"
       x1="3"
       y1="21"
       x2="19"
       y2="21"
       gradientUnits="userSpaceOnUse"
       gradientTransform="matrix(1.1250002,0,0,1.1250002,-1.375,-2.6250002)" />
    <linearGradient
       inkscape:collect="always"
       xlink:href="#linearGradient1028"
       id="linearGradient947"
       x1="3.0999999"
       y1="16.000017"
       x2="29.097744"
       y2="16.000017"
       gradientUnits="userSpaceOnUse"
       gradientTransform="translate(-0.1)" />
    <linearGradient
       inkscape:collect="always"
       id="linearGradient1028">
      <stop
         style="stop-color:#f8bd96;stop-opacity:1"
         offset="0"
         id="stop1024" />
      <stop
         style="stop-color:#4ac3bb;stop-opacity:1"
         offset="1"
         id="stop1026" />
    </linearGradient>
    <linearGradient
       inkscape:collect="always"
       xlink:href="#linearGradient1067"
       id="linearGradient1031"
       x1="14.74529"
       y1="6.3123655"
       x2="17.387594"
       y2="6.3123655"
       gradientUnits="userSpaceOnUse" />
    <linearGradient
       inkscape:collect="always"
       xlink:href="#linearGradient1067"
       id="linearGradient1031-7"
       x1="14.74529"
       y1="6.3123655"
       x2="17.387594"
       y2="6.3123655"
       gradientUnits="userSpaceOnUse"
       gradientTransform="matrix(0.69230673,0,0,0.69230673,-0.07691973,-0.0769202)" />
    <linearGradient
       inkscape:collect="always"
       xlink:href="#linearGradient1028"
       id="linearGradient997"
       gradientUnits="userSpaceOnUse"
       gradientTransform="matrix(0.69230673,0,0,0.69230673,-0.14615073,-0.0769202)"
       x1="3.0999999"
       y1="16.000017"
       x2="29.097744"
       y2="16.000017" />
  </defs>
  <sodipodi:namedview
     pagecolor="#ffffff"
     bordercolor="#000000"
     borderopacity="1"
     objecttolerance="10"
     gridtolerance="10"
     guidetolerance="10"
     inkscape:pageopacity="0"
     inkscape:pageshadow="2"
     inkscape:window-width="1920"
     inkscape:window-height="1007"
     id="namedview24"
     showgrid="false"
     inkscape:zoom="5.6568543"
     inkscape:cx="32.173358"
     inkscape:cy="14.053747"
     inkscape:window-x="0"
     inkscape:window-y="0"
     inkscape:window-maximized="1"
     inkscape:current-layer="svg22"
     inkscape:document-rotation="0"
     inkscape:showpageshadow="false"
     inkscape:lockguides="true"
     inkscape:pagecheckerboard="0">
    <inkscape:grid
       type="xygrid"
       id="grid911"
       originx="0"
       originy="0" />
  </sodipodi:namedview>
  <g
     id="22-22-view-refresh"
     transform="translate(64)">
    <path
       style="opacity:0.00100002"
       d="M 22,32 H 0 V 10 h 22 z"
       id="path2" />
    <path
       style="opacity:1;fill:url(#linearGradient892);fill-opacity:1.0;stroke-width:1.125"
       d="m 20,21 c 0,-1.62192 -0.415339,-3.15331 -1.16015,-4.46485 l -0.84376,0.84376 C 18.555644,18.46217 18.875,19.69218 18.875,21 c 0,4.269891 -3.367104,7.716648 -7.600339,7.861821 0.547143,-0.616714 0.84961,-1.412387 0.850339,-2.236821 0,-1.863954 -1.511046,-3.375 -3.375,-3.375 -1.86396,0 -3.375,1.511046 -3.375,3.375 C 5.375,28.488954 6.88604,30 8.75,30 H 11 c 4.985966,0 9,-4.014 9,-9 z M 16.625,15.375 C 16.625,13.511046 15.113954,12 13.25,12 H 11 c -4.985962,0 -9,4.014 -9,9 0,1.62192 0.415349,3.15331 1.160156,4.46485 l 0.84375,-0.84376 C 3.44436,23.53783 3.125,22.30782 3.125,21 c 0,-4.269891 3.367106,-7.716648 7.600339,-7.861821 -0.547143,0.616714 -0.84961,1.412387 -0.850339,2.236821 0,1.863954 1.511046,3.375 3.375,3.375 1.863954,0 3.375,-1.511046 3.375,-3.375 z"
       id="path4" />
  </g>
  <g
     id="view-refresh"
     transform="translate(10)">
    <path
       style="opacity:0.00100002"
       d="M 54,32 H 22 V 0 h 32 z"
       id="path7" />
    <path
       style="opacity:1;fill:url(#linearGradient884);fill-opacity:1"
       d="m 26,16 c 0.0046,2.140821 0.581863,4.241429 1.671875,6.083984 l 0.732422,-0.732422 C 27.487898,19.716487 27.0045,17.874364 27,16 27,10.041548 31.740547,5.201755 37.654297,5.017578 36.608346,5.871419 36.001064,7.149794 36,8.5 36,10.985281 38.014719,13 40.5,13 42.985281,13 45,10.985281 45,8.5 45,6.014719 42.985281,4 40.5,4 H 38 C 31.372583,4 26,9.372583 26,16 Z m 5,7.5 c 0,2.485281 2.014719,4.5 4.5,4.5 H 38 c 6.627417,0 12,-5.372583 12,-12 -0.0046,-2.140821 -0.581863,-4.241429 -1.671875,-6.083984 l -0.732422,0.732422 C 48.512102,12.283513 48.9955,14.125636 49,16 49,21.958452 44.259453,26.798245 38.345703,26.982422 39.391654,26.128581 39.998936,24.850206 40,23.5 40,21.014719 37.985281,19 35.5,19 33.014719,19 31,21.014719 31,23.5 Z"
       id="path9" />
  </g>
  <g
     id="view-history">
    <path
       style="opacity:0.00100002"
       d="M 0,0 V 32 H 32 V 0 Z"
       id="path17" />
    <path
       inkscape:connector-curvature="0"
       id="fill"
       d="M 3,8.5 15.969353,3 29,8.6 C 29,9 29,10 28.2,10.101282 27.438409,12.258751 27,13 25,13 l 0.155097,11.171428 C 26,24 29,26 28.3,29 H 4 v 0 C 3,26 6,24 6.7869145,24.171692 L 6.7396945,12.857543 C 5,13 4.4412374,12.019414 4,10.110907 3,10 3,9 3,8.5 Z"
       style="color:#1e92ff;fill:#5599ff;fill-opacity:0.101961;fill-rule:nonzero;stroke:none;stroke-width:4.39482"
       class="ColorScheme-ButtonFocus"
       sodipodi:nodetypes="ccccccccccccc" />
    <path
       style="clip-rule:evenodd;fill:url(#linearGradient947);fill-opacity:1;fill-rule:evenodd;stroke-width:0.00265279;stroke-linejoin:round;stroke-miterlimit:1.41421"
       d="m 9.4856075,5.6905002 c -3.44624,1.495908 -6.305682,2.764738 -6.372002,2.802407 -0.151474,0.08516 -0.151474,0.549128 0,0.700602 0.06632,0.06632 0.246179,0.11354 0.416488,0.11354 h 0.302949 l 0.03793,0.615447 c 0.04722,0.8048558 0.302949,1.0887048 1.00355,1.1645748 l 0.473258,0.03793 0.03793,0.605897 c 0.04749,0.776472 0.284114,1.06032 0.918396,1.098255 l 0.435588,0.02839 0.02839,5.652299 0.01883,5.66185 h -0.236629 c -0.643832,0 -1.088705,0.596347 -1.088705,1.457974 v 0.407203 l -0.444873,0.05677 c -0.615448,0.06632 -0.937231,0.426039 -1.022386,1.155025 -0.0947,0.728987 -0.0095,1.24973 0.246179,1.524293 l 0.208244,0.227079 H 16.084942 27.720875 l 0.227344,-0.236629 c 0.217794,-0.208244 0.236629,-0.302948 0.236629,-1.041485 0,-0.558678 -0.04722,-0.908846 -0.151474,-1.098255 -0.151474,-0.302949 -0.624997,-0.558678 -1.013101,-0.558678 -0.208244,0 -0.236628,-0.04722 -0.284113,-0.549127 -0.08516,-0.975166 -0.416754,-1.344434 -1.211795,-1.344434 h -0.369268 l 0.01884,-5.66185 0.02838,-5.652299 0.445139,-0.02839 c 0.643832,-0.03793 0.927946,-0.397654 0.927946,-1.164575 v -0.558678 h 0.435588 c 0.369268,0 0.483073,-0.04722 0.757371,-0.321783 0.293664,-0.293399 0.322049,-0.369269 0.322049,-0.8995608 v -0.576978 h 0.331333 c 0.407204,0 0.691052,-0.340884 0.530293,-0.643832 -0.05677,-0.104255 -0.151475,-0.208244 -0.217795,-0.236629 -0.06632,-0.02839 -2.887827,-1.249729 -6.277297,-2.717253 -3.380185,-1.467523 -6.277297,-2.688868 -6.438321,-2.707968 -0.217794,-0.03794 -1.713968,0.577513 -6.5330255,2.688868 z m 12.5354935,0.407203 c 3.25683,1.410754 5.964799,2.603714 6.012019,2.650933 0.103988,0.09471 -23.5466955,0.09471 -23.8780285,0.0096 -0.161025,-0.04722 1.202244,-0.681767 5.6806835,-2.641648 3.247547,-1.410754 5.974349,-2.575328 6.078338,-2.575328 0.0947,-0.0093 2.840607,1.14574 6.106988,2.556493 z m 5.500825,3.711254 c 0,0.2745628 -0.04722,0.5491268 -0.113539,0.6154468 -0.161025,0.161024 -22.7137185,0.161024 -22.8744775,0 -0.06632,-0.06632 -0.113539,-0.340884 -0.113539,-0.6154468 V 9.3073142 H 15.971148 27.521926 Z m -1.420038,1.7044168 c 0,0.217794 -0.06632,0.501908 -0.151475,0.615447 l -0.141924,0.208244 h -9.82779 c -7.5081925,0 -9.8466265,-0.02838 -9.9317815,-0.113539 -0.06632,-0.06632 -0.113539,-0.340884 -0.113539,-0.615447 V 11.106171 H 16.018633 26.101888 Z m -16.6826005,6.996734 0.01883,5.661849 h -1.041485 -1.041486 v -5.680684 -5.690235 l 1.022385,0.02839 1.013101,0.02838 z m 5.0180185,0 0.01883,5.661849 H 12.184025 9.911646 v -5.614364 c 0,-3.096072 0.02839,-5.6523 0.06632,-5.690235 0.03767,-0.02839 1.041485,-0.04722 2.243729,-0.03793 l 2.187226,0.02838 z m 2.575328,-0.01884 v 5.680684 h -1.041485 -1.041486 v -5.614364 c 0,-3.096072 0.02839,-5.6523 0.06632,-5.680685 0.02839,-0.03794 0.501908,-0.06632 1.041486,-0.06632 h 0.975165 z m 4.998918,0.01884 0.01883,5.661849 h -2.224895 -2.224895 v -5.614364 c 0,-3.096072 0.02839,-5.6523 0.06632,-5.690235 0.03767,-0.02839 1.022385,-0.04722 2.19651,-0.03793 l 2.139741,0.02838 z m 2.651198,0 0.01883,5.661849 h -1.06987 -1.079421 v -5.614364 c -0.0096,-3.076971 0.0096,-5.643015 0.03794,-5.680685 0.01883,-0.03794 0.501908,-0.05677 1.051036,-0.04748 l 1.0131,0.02838 z m 1.382369,6.438321 c 0.08515,0.12309 0.151474,0.407203 0.151474,0.662667 v 0.454423 H 16.113337 6.0300835 v -0.482808 c 0,-0.265014 0.04722,-0.558677 0.0947,-0.662667 0.0947,-0.179859 0.312498,-0.179859 9.9413295,-0.179859 h 9.837342 z m 1.363269,1.760922 c 0.161024,0.104255 0.302948,0.634282 0.302948,1.12664 0,0.757372 1.05077,0.691052 -11.636198,0.691052 -8.6916015,0 -11.3616345,-0.02839 -11.4467895,-0.11354 -0.170574,-0.170309 -0.141924,-1.316049 0.03767,-1.571512 l 0.141924,-0.208244 H 16.046488 c 6.182858,-2.66e-4 11.29558,0.03767 11.3619,0.0756 z"
       id="path4-3" />
    <path
       style="clip-rule:evenodd;fill:url(#linearGradient1031);fill-opacity:1;fill-rule:evenodd;stroke-width:0.00265279;stroke-linejoin:round;stroke-miterlimit:1.41421"
       d="m 15.502921,5.1225382 c -1.031935,0.511192 -1.00355,1.931496 0.04748,2.395469 0.549128,0.246179 1.003551,0.161024 1.448689,-0.246179 0.284113,-0.255729 0.340883,-0.369268 0.378818,-0.833241 0.02839,-0.426038 0,-0.587063 -0.161025,-0.852076 -0.359979,-0.587063 -1.079415,-0.786022 -1.713962,-0.463973 z m 1.183675,0.700602 c 0.302949,0.359718 0.274564,0.766921 -0.104255,1.088705 -0.530292,0.473523 -1.268564,0.103989 -1.268564,-0.624998 0,-0.747821 0.880461,-1.05077 1.372819,-0.463707 z"
       id="path6-6" />
  </g>
</svg>
