<?xml version="1.0" encoding="UTF-8" standalone="no"?>
<svg
   inkscape:version="1.1.1 (3bf5ae0d25, 2021-09-20)"
   sodipodi:docname="virt.svg"
   version="1.1"
   height="32"
   width="32"
   id="svg6"
   xmlns:inkscape="http://www.inkscape.org/namespaces/inkscape"
   xmlns:sodipodi="http://sodipodi.sourceforge.net/DTD/sodipodi-0.dtd"
   xmlns="http://www.w3.org/2000/svg"
   xmlns:svg="http://www.w3.org/2000/svg"
   xmlns:rdf="http://www.w3.org/1999/02/22-rdf-syntax-ns#"
   xmlns:cc="http://creativecommons.org/ns#"
   xmlns:dc="http://purl.org/dc/elements/1.1/">
  <metadata
     id="metadata11">
    <rdf:RDF>
      <cc:Work
         rdf:about="">
        <dc:format>image/svg+xml</dc:format>
        <dc:type
           rdf:resource="http://purl.org/dc/dcmitype/StillImage" />
      </cc:Work>
    </rdf:RDF>
  </metadata>
  <defs
     id="defs9" />
  <sodipodi:namedview
     inkscape:document-rotation="0"
     inkscape:lockguides="false"
     inkscape:current-layer="g1440"
     inkscape:window-maximized="1"
     inkscape:window-y="0"
     inkscape:window-x="0"
     inkscape:cy="11.419491"
     inkscape:cx="24.516949"
     inkscape:zoom="10.727273"
     showgrid="false"
     id="namedview7"
     inkscape:window-height="1007"
     inkscape:window-width="1920"
     inkscape:pageshadow="2"
     inkscape:pageopacity="0"
     guidetolerance="10"
     gridtolerance="10"
     objecttolerance="10"
     borderopacity="1"
     bordercolor="#000000"
     pagecolor="#ffffff"
     inkscape:showpageshadow="false"
     inkscape:pagecheckerboard="0">
    <inkscape:grid
       type="xygrid"
       id="grid1319" />
  </sodipodi:namedview>
  <g
     id="g1440">
    <g
       id="virt-manager">
      <rect
         y="0"
         x="0"
         height="32"
         width="32"
         style="opacity:0.00100002;stroke-width:1.45455"
         id="rect822" />
      <path
         style="color:#d5c289;fill:#d6dbf1;fill-opacity:1;stroke-width:1.5"
         class="ColorScheme-Text"
         d="M 16,4 C 9.3639999,4 4,9.364 4,15.999999 4,22.636 9.3639999,28 16,28 22.636,28 28,22.636 28,15.999999 28,9.364 22.636,4 16,4 Z m 0,1.4999999 c 5.80498,0 10.5,4.6950001 10.5,10.4999991 C 26.5,21.80498 21.80498,26.5 16,26.5 10.19498,26.5 5.5,21.80498 5.5,15.999999 5.5,10.195 10.19498,5.4999999 16,5.4999999 Z m 1.12498,8.5784981 v 0 0 0 0 0 c 0,0 -0.05091,0.012 0,0 z m -1.171491,6.750005 z"
         id="path58"
         sodipodi:nodetypes="ssssssssssccccccccccccccccc" />
      <rect
         style="fill:#4e5a7e;fill-opacity:0.499251;stroke:none;stroke-width:0.525004"
         id="center-3-35"
         width="21"
         height="21"
         x="5.5"
         y="5.5"
         ry="10.499983" />
      <path
         d="m 6.25,12.4 2.8585227,7.2 h 2.0386353 l 2.814207,-7.2 H 12.033523 L 10.105681,17.147499 8.2,12.4 Z"
         style="fill:#d6dbf1;fill-opacity:1;stroke-width:0.893156"
         id="path2-3-7" />
      <path
         d="m 14.958523,12.4 c -0.960023,2.412452 -1.935731,4.809779 -2.947158,7.2 H 14.05 l 1.905681,-4.725 1.883523,4.725 h 2.038638 l 1.883523,-4.86 1.95,4.86 H 25.75 C 24.738573,17.209779 23.7407,14.812452 22.780681,12.4 H 20.742046 L 18.858523,17.147499 16.930681,12.4 Z"
         style="fill:#a0aac5;fill-opacity:1;stroke-width:0.893156"
         id="path4-6-5" />
    </g>
  </g>
</svg>
