<?xml version="1.0" encoding="UTF-8" standalone="no"?>
<svg
   width="32"
   height="32"
   version="1.1"
   id="svg12"
   sodipodi:docname="vlc.svg"
   inkscape:version="1.1.1 (3bf5ae0d25, 2021-09-20)"
   xmlns:inkscape="http://www.inkscape.org/namespaces/inkscape"
   xmlns:sodipodi="http://sodipodi.sourceforge.net/DTD/sodipodi-0.dtd"
   xmlns="http://www.w3.org/2000/svg"
   xmlns:svg="http://www.w3.org/2000/svg"
   xmlns:rdf="http://www.w3.org/1999/02/22-rdf-syntax-ns#"
   xmlns:cc="http://creativecommons.org/ns#"
   xmlns:dc="http://purl.org/dc/elements/1.1/">
  <metadata
     id="metadata18">
    <rdf:RDF>
      <cc:Work
         rdf:about="">
        <dc:format>image/svg+xml</dc:format>
        <dc:type
           rdf:resource="http://purl.org/dc/dcmitype/StillImage" />
      </cc:Work>
    </rdf:RDF>
  </metadata>
  <defs
     id="defs16" />
  <sodipodi:namedview
     pagecolor="#ffffff"
     bordercolor="#666666"
     borderopacity="1"
     objecttolerance="10"
     gridtolerance="10"
     guidetolerance="10"
     inkscape:pageopacity="0"
     inkscape:pageshadow="2"
     inkscape:window-width="1920"
     inkscape:window-height="1007"
     id="namedview14"
     showgrid="false"
     inkscape:zoom="9.8125"
     inkscape:cx="25.579618"
     inkscape:cy="16.152866"
     inkscape:window-x="0"
     inkscape:window-y="0"
     inkscape:window-maximized="1"
     inkscape:current-layer="svg12"
     inkscape:document-rotation="0"
     inkscape:lockguides="false"
     inkscape:pagecheckerboard="0">
    <inkscape:grid
       type="xygrid"
       id="grid1011"
       originx="0"
       originy="0" />
  </sodipodi:namedview>
  <g
     id="vlc">
    <rect
       style="opacity:0.00100002;fill:#a8aeca;fill-opacity:1"
       width="32"
       height="32"
       x="0"
       y="0"
       id="rect7" />
    <path
       inkscape:connector-curvature="0"
       id="fill-3-6"
       d="M 27.818,27.299973 4.2,27.28989 5.397351,24.768665 7,24.735871 9.055277,23.014 H 23.00168 L 25,24.806119 l 2,0.288665 z"
       style="color:#1e92ff;fill:#4e5a7e;fill-opacity:0.501961;fill-rule:nonzero;stroke:none;stroke-width:2.01365"
       class="ColorScheme-ButtonFocus"
       sodipodi:nodetypes="ccccccccc" />
    <path
       inkscape:connector-curvature="0"
       id="fill-3"
       d="M 21.352,18.369 10.71,18.358885 12.14,14.167223 20,14.1 Z"
       style="color:#1e92ff;fill:#4e5a7e;fill-opacity:0.501961;fill-rule:nonzero;stroke:none;stroke-width:1.33828"
       class="ColorScheme-ButtonFocus"
       sodipodi:nodetypes="ccccc" />
    <path
       inkscape:connector-curvature="0"
       id="fill"
       d="M 16.05,9.4 H 13 l 3.05,-5.2 3.05,5.2 z"
       style="color:#1e92ff;fill:#4e5a7e;fill-opacity:0.501961;fill-rule:nonzero;stroke:none;stroke-width:1.02827"
       class="ColorScheme-ButtonFocus"
       sodipodi:nodetypes="ccccc" />
    <path
       inkscape:connector-curvature="0"
       style="fill:#d6dbf1;fill-opacity:1;stroke-width:0.00256422"
       id="path4-3"
       d="m 14.446784,4.9267855 c -0.0426,0.1233909 -1.637512,4.5936169 -3.54121,9.9452215 -1.9034023,5.351574 -3.4772763,9.739667 -3.4985593,9.758039 -0.02136,0.01815 -0.478447,0.03642 -1.020756,0.04563 l -0.988912,0.01381 -0.350858,0.150613 c -0.653841,0.273867 -1.010216,0.75793 -1.042042,1.410985 -0.02653,0.43846 0.06366,0.716938 0.324294,1.032001 0.249865,0.30129 0.60073,0.520597 0.988915,0.625773 0.329551,0.09114 0.504969,0.09114 10.6871783,0.09114 9.294002,0 10.383957,-0.01 10.639333,-0.07312 0.531565,-0.136963 0.962377,-0.451913 1.212206,-0.885756 0.127544,-0.223902 0.143628,-0.301209 0.143628,-0.707522 0,-0.397539 -0.01607,-0.488759 -0.143628,-0.717118 -0.180642,-0.333169 -0.547552,-0.648384 -0.935771,-0.803473 -0.287202,-0.11881 -0.356372,-0.123406 -1.307945,-0.14629 L 24.60244,24.643989 24.24079,23.602928 C 23.86337,22.516221 22.028854,17.237651 19.280124,9.3474854 L 17.674722,4.735548 C 17.260333,4.1664205 16.69225,3.9623942 16.054733,4.0055825 15.441725,3.9730285 14.851219,4.1898916 14.531981,4.735548 Z m 3.073266,2.4566686 c 0.34561,0.995408 0.61677,1.8173796 0.606248,1.8311543 -0.01605,0.00989 -0.946315,0.013845 -2.073573,0.00989 l -2.052228,-0.013856 0.643274,-1.8172981 0.6486,-1.8130015 h 0.802709 0.802952 z m 2.371324,6.7943629 c 0,0.0096 0.308487,0.904248 0.691165,1.995543 0.377423,1.091379 0.680714,1.986334 0.669901,1.995347 -0.0052,0.0095 -2.360772,0.0095 -5.226515,0.0042 l -5.215794,-0.01384 0.552837,-1.552456 c 0.303248,-0.853779 0.627533,-1.753182 0.712478,-1.995074 l 0.164929,-0.447468 h 3.822875 c 2.105379,-0.0012 3.828124,0.0042 3.828124,0.01362 z m 3.530634,10.146234 0.420046,1.209979 h 1.217491 c 1.355849,0 1.451568,0.01377 1.727981,0.287596 0.403938,0.392868 0.239326,1.004632 -0.32433,1.22376 -0.212789,0.08246 -0.568876,0.08698 -10.453096,0.08698 -9.8842153,0 -10.2405823,-0.0038 -10.4530993,-0.08698 -0.563647,-0.218919 -0.728269,-0.830892 -0.324293,-1.22376 0.276428,-0.273866 0.372168,-0.287596 1.733243,-0.287596 h 1.21748 l 0.05835,-0.150704 c 0.02655,-0.07773 0.186229,-0.525059 0.350852,-0.990903 0.164887,-0.465772 0.335093,-0.940451 0.37741,-1.063866 l 0.08523,-0.214584 h 6.9706373 6.975766 z"
       sodipodi:nodetypes="cccccccccsccscccccccccccccccccccsccccccccssccsccsccscccccccc" />
  </g>
  <g
     id="22-22-vlc"
     transform="translate(32,10)">
    <rect
       style="opacity:0.00100002;fill:#a8aeca;fill-opacity:1"
       width="22"
       height="22"
       x="0"
       y="0"
       id="rect2" />
    <path
       inkscape:connector-curvature="0"
       id="fill-3-6-3"
       d="m 18.878668,18.533321 -15.7453347,-0.0067 0.798235,-1.680817 1.068432,-0.02186 1.370185,-1.147914 h 9.2976027 l 1.332213,1.194746 1.333334,0.192444 z"
       style="color:#1e92ff;fill:#4e5a7e;fill-opacity:0.501961;fill-rule:nonzero;stroke:none;stroke-width:1.34243"
       class="ColorScheme-ButtonFocus"
       sodipodi:nodetypes="ccccccccc" />
    <path
       inkscape:connector-curvature="0"
       id="fill-3-67"
       d="m 14.568001,12.579338 -7.0946667,-0.0067 0.953333,-2.7944421 5.2400007,-0.04481 z"
       style="color:#1e92ff;fill:#4e5a7e;fill-opacity:0.501961;fill-rule:nonzero;stroke:none;stroke-width:0.892187"
       class="ColorScheme-ButtonFocus"
       sodipodi:nodetypes="ccccc" />
    <path
       inkscape:connector-curvature="0"
       id="fill-5"
       d="M 11.033334,6.6000039 H 9.0000013 l 2.0333327,-3.466667 2.033334,3.466667 z"
       style="color:#1e92ff;fill:#4e5a7e;fill-opacity:0.501961;fill-rule:nonzero;stroke:none;stroke-width:0.685513"
       class="ColorScheme-ButtonFocus"
       sodipodi:nodetypes="ccccc" />
    <path
       inkscape:connector-curvature="0"
       style="fill:#d6dbf1;fill-opacity:1;stroke-width:0.00170948"
       id="path4-3-3"
       d="m 9.964523,3.6178619 c -0.0284,0.08226 -1.0916737,3.06241 -2.3608057,6.6301471 -1.268935,3.567717 -2.318185,6.493112 -2.332373,6.50536 -0.01424,0.0121 -0.318965,0.02428 -0.680504,0.03042 l -0.659275,0.0092 -0.233906,0.100409 c -0.435894,0.182578 -0.673477,0.505287 -0.694694,0.940657 -0.01769,0.292306 0.04244,0.477958 0.216196,0.688 0.166576,0.20086 0.400486,0.347065 0.659277,0.417182 0.2197,0.06077 0.336646,0.06077 7.1247857,0.06077 6.196001,0 6.922638,-0.0067 7.092889,-0.04875 0.354377,-0.09131 0.641585,-0.301276 0.808137,-0.590504 C 18.98928,18.211485 19,18.159947 19,17.889071 c 0,-0.265026 -0.01071,-0.325839 -0.09575,-0.478078 -0.120428,-0.222113 -0.365034,-0.432257 -0.623847,-0.535649 -0.191468,-0.07921 -0.237581,-0.08227 -0.871964,-0.09753 l -0.673478,-0.01515 -0.2411,-0.694041 C 16.242248,15.344149 15.019237,11.825102 13.18675,6.5649899 l -1.070268,-3.074625 c -0.276259,-0.379418 -0.654981,-0.515436 -1.079992,-0.486643 -0.408672,-0.02171 -0.802343,0.122873 -1.015169,0.486643 z m 2.048845,1.637778 c 0.230406,0.663606 0.41118,1.211587 0.404165,1.22077 -0.0107,0.0066 -0.630877,0.0092 -1.382382,0.0066 l -1.3681517,-0.0092 0.4288487,-1.211532 0.4324,-1.208668 h 0.53514 0.535301 z m 1.580882,4.529576 c 0,0.0064 0.205658,0.6028321 0.460777,1.3303621 0.251616,0.727586 0.45381,1.324223 0.446601,1.330232 -0.0035,0.0063 -1.573848,0.0063 -3.484344,0.0028 l -3.4771957,-0.0092 0.368558,-1.034971 c 0.202165,-0.569186 0.418355,-1.168788 0.474985,-1.330049 l 0.109953,-0.2983121 h 2.5485837 c 1.403586,-8e-4 2.552082,0.0028 2.552082,0.0091 z m 2.353757,6.7641571 0.28003,0.806653 h 0.811661 c 0.9039,0 0.967712,0.0092 1.151988,0.19173 0.269292,0.261912 0.15955,0.669755 -0.21622,0.81584 -0.14186,0.05497 -0.379251,0.05799 -6.968732,0.05799 -6.5894767,0 -6.8270547,-0.0025 -6.9687327,-0.05799 -0.375765,-0.145946 -0.485513,-0.553928 -0.216195,-0.81584 0.184285,-0.182577 0.248112,-0.19173 1.155495,-0.19173 h 0.811653 l 0.0389,-0.10047 c 0.0177,-0.05182 0.124153,-0.350039 0.233902,-0.660602 0.109924,-0.310515 0.223395,-0.626967 0.251606,-0.709244 l 0.05682,-0.143056 h 4.6470917 4.650511 z"
       sodipodi:nodetypes="cccccccccsccscccccccccccccccccccsccccccccssccsccsccscccccccc" />
  </g>
</svg>
