<?xml version="1.0" encoding="UTF-8" standalone="no"?>
<svg
   width="32"
   height="32"
   version="1.1"
   id="svg22"
   sodipodi:docname="wallet.svg"
   inkscape:version="1.1.1 (3bf5ae0d25, 2021-09-20)"
   xmlns:inkscape="http://www.inkscape.org/namespaces/inkscape"
   xmlns:sodipodi="http://sodipodi.sourceforge.net/DTD/sodipodi-0.dtd"
   xmlns="http://www.w3.org/2000/svg"
   xmlns:svg="http://www.w3.org/2000/svg"
   xmlns:rdf="http://www.w3.org/1999/02/22-rdf-syntax-ns#"
   xmlns:cc="http://creativecommons.org/ns#"
   xmlns:dc="http://purl.org/dc/elements/1.1/">
  <g
     id="22-22-wallet-open"
     transform="translate(-0.0038716,-21.908909)">
    <rect
       style="opacity:0.00100002;stroke-width:0.6875"
       width="22"
       height="22"
       x="4.038086e-07"
       y="-8.1054685e-10"
       id="rect12-7" />
    <rect
       style="fill:#4e5a7e;fill-opacity:0.501961;stroke:none;stroke-width:0.40548;enable-background:new"
       id="center-3-35-5-6-5-2"
       width="11.014582"
       height="14.887378"
       x="6.3785186"
       y="-18.280682"
       ry="1.7310908"
       transform="rotate(90)"
       rx="1.6617961" />
    <path
       d="m 4.8730784,5.805942 c -0.950033,0.175076 -1.70317,0.9124039 -1.837536,1.804871 -0.04686,0.3012866 -0.04686,8.171756 -0.0031,8.507368 0.128162,0.935338 0.931257,1.695748 1.937616,1.839197 0.356243,0.04871 11.4039906,0.02863 11.5790086,-0.02293 0.50318,-0.149145 0.778116,-0.298439 1.093869,-0.591031 0.284406,-0.266811 0.449956,-0.504993 0.571914,-0.834909 0.08441,-0.229487 0.08441,-0.229487 0.09371,-1.236623 l 0.0093,-1.007136 0.118856,-0.05171 c 0.165713,-0.06595 0.390691,-0.286897 0.4782,-0.459125 0.07184,-0.1406 0.07184,-0.157838 0.08131,-1.463263 0.01257,-1.40885 0,-1.569536 -0.134366,-1.781786 -0.09061,-0.143449 -0.296978,-0.318524 -0.44065,-0.372936 l -0.103183,-0.04017 -0.0093,-1.3112701 -0.0093,-1.3141178 -0.08441,-0.2294879 C 17.99936,6.6583876 17.496181,6.159092 16.893083,5.926757 16.44623,5.754529 16.743043,5.763223 10.651991,5.766071 6.1638634,5.768671 5.0388124,5.774471 4.8730984,5.805941 Z M 16.424006,6.4085153 c 0.459425,0.1119704 0.868891,0.421801 1.081298,0.8235165 0.112488,0.2152472 0.150039,0.3386096 0.103182,0.3386096 -0.0095,0 -0.08131,-0.048713 -0.156244,-0.1118209 C 17.292897,7.3297622 16.980409,7.1747721 16.689637,7.0771912 l -0.203101,-0.065955 -5.631628,-0.00854 -5.6316286,-0.00568 -0.103182,0.083191 c -0.137468,0.1118209 -0.143672,0.2812011 -0.01568,0.3960195 l 0.08441,0.080343 5.5566906,0.014389 5.553424,0.014389 0.203101,0.063109 c 0.515587,0.160686 0.934522,0.5480113 1.100072,1.0099839 0.05616,0.1606861 0.06873,0.2783524 0.08131,0.7833441 l 0.01257,0.5940293 -1.353296,0.0085 c -1.540722,0.01439 -1.60015,0.02009 -2.100064,0.258266 -0.359344,0.16923 -0.76881,0.545164 -0.953135,0.87508 -0.228243,0.401715 -0.315753,0.829212 -0.256325,1.251013 0.103183,0.766107 0.640648,1.423241 1.403254,1.715834 0.406201,0.15499 0.568812,0.16923 1.972066,0.16923 h 1.281295 v 0.794436 c 0,0.43904 -0.01568,0.880926 -0.03118,0.984203 -0.100081,0.579639 -0.612566,1.098871 -1.234439,1.248165 -0.162448,0.03732 -0.856319,0.04302 -5.775464,0.04302 H 5.0606654 l -0.237549,-0.0718 c -0.300079,-0.09473 -0.515588,-0.220944 -0.721953,-0.430345 -0.196897,-0.195162 -0.331263,-0.430345 -0.396895,-0.680068 -0.06873,-0.275505 -0.06873,-8.3840078 0,-8.6566649 0.137468,-0.5307738 0.62824,-0.9898978 1.212561,-1.1361943 0.137469,-0.031478 1.050114,-0.040175 5.7410156,-0.040175 4.916042,-0.00284 5.60371,0.00284 5.766157,0.040175 z m 1.734516,4.2752687 c 0.190693,0.09188 0.190693,0.08319 0.181223,1.53791 l -0.0093,1.322812 -0.103183,0.08319 -0.10008,0.08319 h -1.534525 -1.531416 l -0.237549,-0.0718 c -0.571913,-0.177924 -0.984481,-0.591031 -1.12195,-1.124802 -0.08441,-0.32422 -0.02187,-0.748869 0.153142,-1.061697 0.212406,-0.375934 0.687505,-0.694308 1.162602,-0.783345 0.06874,-0.01139 0.784484,-0.02293 1.587579,-0.02578 1.250276,-0.0027 1.475254,0.003 1.553457,0.04032 z"
       id="path4-9"
       style="fill:#d6dbf1;fill-opacity:1;stroke-width:0.00156436" />
    <path
       d="m 15.011446,11.324387 c -0.847013,0.278353 -0.887666,1.345746 -0.06563,1.684206 0.162448,0.06596 0.218774,0.0775 0.428079,0.06596 0.281303,-0.01139 0.468731,-0.08604 0.65632,-0.255419 0.184326,-0.172227 0.265631,-0.344305 0.278203,-0.602572 0.01257,-0.192314 0,-0.243878 -0.07184,-0.393172 -0.209469,-0.430045 -0.753301,-0.653836 -1.225133,-0.498996 z m 0.531261,0.608269 c 0.04375,0.03163 0.09682,0.103277 0.115591,0.157838 0.03118,0.08604 0.02808,0.117666 -0.02188,0.209402 -0.0782,0.146296 -0.249957,0.223791 -0.399997,0.177923 -0.206203,-0.0631 -0.296977,-0.278203 -0.190692,-0.456126 0.09061,-0.146297 0.350038,-0.195162 0.496975,-0.08904 z"
       id="path6-1"
       style="fill:#d6dbf1;fill-opacity:1;stroke-width:0.00156436" />
    <path
       d="M 16.034533,6.9978713 H 8.7928564 L 14.438441,4.241889 Z m -7.2416766,0 H 5.2232774 L 11.364368,4 12.131831,5.38486 Z"
       id="path6-3-2"
       sodipodi:nodetypes="ccccccccc"
       style="fill:#d6dbf1;fill-opacity:1;stroke-width:0.156436" />
  </g>
  <g
     id="22-22-wallet-closed"
     transform="translate(32.068127,-21.979)">
    <rect
       style="opacity:0.00100002;stroke-width:0.6875"
       width="22"
       height="22"
       x="0"
       y="-5.4359439e-10"
       id="rect12-7-6" />
    <rect
       style="fill:#4e5a7e;fill-opacity:0.501961;stroke:none;stroke-width:0.40548;enable-background:new"
       id="center-3-35-5-6-5-3-3"
       width="11.014582"
       height="14.887378"
       x="6.262639"
       y="-18.28068"
       ry="1.7310907"
       transform="rotate(90)"
       rx="1.661796" />
    <path
       d="m 4.8730794,5.6909191 c -0.950034,0.175077 -1.703171,0.912404 -1.837537,1.804871 -0.04686,0.301287 -0.04686,8.1717559 -0.0031,8.5073679 0.128162,0.935337 0.931259,1.695748 1.937616,1.839197 0.356243,0.04871 11.4039896,0.02863 11.5790076,-0.02293 0.50318,-0.149144 0.778117,-0.298439 1.093869,-0.591031 0.284406,-0.266811 0.449956,-0.504992 0.571914,-0.834908 0.08441,-0.229487 0.08441,-0.229487 0.09371,-1.236623 l 0.0093,-1.007136 0.118856,-0.05171 c 0.165713,-0.06596 0.390691,-0.286897 0.4782,-0.459125 0.07184,-0.1406 0.07184,-0.157838 0.08131,-1.463263 0.01257,-1.408851 0,-1.569537 -0.134366,-1.781786 -0.09061,-0.143449 -0.296978,-0.318524 -0.44065,-0.372936 l -0.103183,-0.04017 -0.0093,-1.3112704 -0.0093,-1.3141185 -0.08441,-0.229488 c -0.215657,-0.582492 -0.718836,-1.081788 -1.321934,-1.314123 -0.446853,-0.172228 -0.150039,-0.163534 -6.241091,-0.160686 -4.4881266,0.0026 -5.6131786,0.0084 -5.7788906,0.03987 z m 11.5509246,0.602573 c 0.459425,0.111971 0.868891,0.421801 1.081298,0.823517 0.112488,0.215247 0.150039,0.338609 0.103183,0.338609 -0.0095,0 -0.08131,-0.04871 -0.156244,-0.11182 -0.159346,-0.129059 -0.471833,-0.284049 -0.762606,-0.38163 l -0.2031,-0.06595 -5.631628,-0.0085 -5.6316266,-0.0057 -0.103183,0.08319 c -0.137468,0.111821 -0.143672,0.281201 -0.01568,0.396019 l 0.08441,0.08034 5.5566886,0.01439 5.553424,0.01439 0.2031,0.06311 c 0.515588,0.160686 0.934523,0.548011 1.100073,1.0099839 0.05616,0.160686 0.06873,0.2783524 0.08131,0.783344 l 0.01257,0.5940292 -1.353295,0.00854 c -1.540722,0.014389 -1.60015,0.020088 -2.100064,0.2582668 -0.359344,0.16923 -0.76881,0.545163 -0.953135,0.875079 -0.228243,0.401716 -0.315753,0.829213 -0.256325,1.251014 0.103183,0.766106 0.640648,1.423241 1.403254,1.715833 0.406201,0.15499 0.568812,0.16923 1.972066,0.16923 h 1.281295 v 0.794437 c 0,0.439039 -0.01568,0.880925 -0.03118,0.984202 -0.100081,0.579639 -0.612567,1.098871 -1.234439,1.248166 -0.162448,0.03732 -0.85632,0.04302 -5.775464,0.04302 H 5.0606664 l -0.237549,-0.07182 c -0.300079,-0.09473 -0.515588,-0.220943 -0.721953,-0.430345 -0.196897,-0.195161 -0.331262,-0.430344 -0.396895,-0.680067 -0.06873,-0.275505 -0.06873,-8.3840059 0,-8.6566629 0.137469,-0.530774 0.62824,-0.989898 1.212562,-1.136194 0.137468,-0.03148 1.050113,-0.04018 5.7410136,-0.04018 4.916042,-0.0028 5.603709,0.0028 5.766157,0.04018 z m 1.734517,4.2752689 c 0.190692,0.09188 0.190692,0.08319 0.181223,1.53791 l -0.0093,1.322812 -0.103182,0.08319 -0.100081,0.08319 h -1.534518 -1.531416 l -0.237549,-0.0718 c -0.571914,-0.177923 -0.984482,-0.591031 -1.121951,-1.124802 -0.08441,-0.32422 -0.02187,-0.748869 0.153142,-1.061697 0.212407,-0.375933 0.687505,-0.694308 1.162603,-0.783345 0.06874,-0.01139 0.784484,-0.02293 1.587579,-0.02578 1.250276,-0.0027 1.475253,0.003 1.553457,0.04032 z"
       id="path4-6-5"
       style="fill:#d6dbf1;fill-opacity:1;stroke-width:0.00156436" />
    <path
       d="m 15.011445,11.208508 c -0.847014,0.278352 -0.887667,1.345746 -0.06563,1.684206 0.162447,0.06596 0.218773,0.0775 0.428078,0.06596 0.281304,-0.01139 0.468731,-0.08604 0.656321,-0.255419 0.184325,-0.172228 0.26563,-0.344306 0.278202,-0.602573 0.01258,-0.192313 0,-0.243877 -0.07184,-0.393171 -0.209468,-0.430045 -0.753301,-0.653837 -1.225133,-0.498996 z m 0.53126,0.608269 c 0.04376,0.03163 0.09682,0.103276 0.115591,0.157838 0.03118,0.08604 0.02808,0.117666 -0.02188,0.209401 -0.0782,0.146296 -0.249957,0.223792 -0.399996,0.177924 -0.206203,-0.0631 -0.296977,-0.278203 -0.190692,-0.456127 0.09061,-0.146296 0.350037,-0.195161 0.496975,-0.08904 z"
       id="path6-7-6"
       style="fill:#d6dbf1;fill-opacity:1;stroke-width:0.00156436" />
  </g>
  <metadata
     id="metadata28">
    <rdf:RDF>
      <cc:Work
         rdf:about="">
        <dc:format>image/svg+xml</dc:format>
        <dc:type
           rdf:resource="http://purl.org/dc/dcmitype/StillImage" />
      </cc:Work>
    </rdf:RDF>
  </metadata>
  <defs
     id="defs26" />
  <sodipodi:namedview
     pagecolor="#ffffff"
     bordercolor="#000000"
     borderopacity="1"
     objecttolerance="10"
     gridtolerance="10"
     guidetolerance="10"
     inkscape:pageopacity="0"
     inkscape:pageshadow="2"
     inkscape:window-width="1920"
     inkscape:window-height="1007"
     id="namedview24"
     showgrid="false"
     inkscape:zoom="8.0000001"
     inkscape:cx="34.875"
     inkscape:cy="3.1875"
     inkscape:window-x="0"
     inkscape:window-y="0"
     inkscape:window-maximized="1"
     inkscape:current-layer="svg22"
     inkscape:document-rotation="0"
     inkscape:lockguides="false"
     inkscape:showpageshadow="false"
     inkscape:pagecheckerboard="0">
    <inkscape:grid
       type="xygrid"
       id="grid930"
       originx="0.019126997"
       originy="0.051679999" />
  </sodipodi:namedview>
  <g
     id="g871"
     transform="translate(10.019127,-21.94832)" />
  <g
     id="wallet-open">
    <rect
       style="opacity:0.00100002"
       width="32"
       height="32"
       x="-1.4901161e-09"
       y="1.4901161e-09"
       id="rect12-5-7" />
    <rect
       style="fill:#4e5a7e;fill-opacity:0.501961;stroke:none;stroke-width:0.585585;enable-background:new"
       id="center-3-35-5-6-5"
       width="15.907"
       height="21.5"
       x="9.3850002"
       y="-26.567999"
       ry="2.5000005"
       transform="rotate(90)"
       rx="2.3999267" />
    <path
       d="m 7.2050565,8.558099 c -1.372016,0.252841 -2.459678,1.317672 -2.653727,2.606552 -0.06767,0.435111 -0.06767,11.801458 -0.0045,12.286141 0.185088,1.350792 1.3449,2.448959 2.79826,2.656124 0.514477,0.07035 16.4693725,0.04135 16.7221305,-0.03312 0.72668,-0.215391 1.123737,-0.430998 1.57974,-0.853553 0.410732,-0.385322 0.649815,-0.729298 0.825944,-1.205755 0.121899,-0.33142 0.121899,-0.33142 0.135339,-1.785902 l 0.01344,-1.454482 0.171649,-0.07468 c 0.239319,-0.09525 0.564227,-0.41433 0.690606,-0.663057 0.103744,-0.203052 0.103744,-0.227946 0.117419,-2.11321 0.01816,-2.034629 0,-2.266688 -0.194048,-2.573214 -0.130859,-0.207165 -0.428888,-0.460005 -0.636376,-0.538585 l -0.149014,-0.05801 -0.01344,-1.893706 -0.01344,-1.897818 -0.1219,-0.331421 C 26.161693,9.789181 25.435013,9.06811 24.564034,8.732577 23.918699,8.483849 24.34735,8.496405 15.550796,8.500518 9.0691485,8.504218 7.4443755,8.512638 7.2050565,8.558099 Z M 23.886632,9.428321 c 0.663491,0.161705 1.254832,0.609155 1.561585,1.189303 0.162453,0.310855 0.216683,0.489012 0.149014,0.489012 -0.01368,0 -0.11742,-0.07035 -0.225644,-0.161489 -0.230123,-0.186383 -0.68141,-0.410216 -1.101337,-0.55114 l -0.293313,-0.09525 -8.133064,-0.01234 -8.1330645,-0.0082 -0.149014,0.120142 c -0.198528,0.161489 -0.207488,0.406104 -0.02264,0.571922 l 0.121899,0.11603 8.0248405,0.02078 8.020124,0.02078 0.293313,0.09114 c 0.7446,0.232059 1.349616,0.791425 1.588699,1.458595 0.08111,0.232059 0.09926,0.40199 0.11742,1.131287 l 0.01816,0.857883 -1.954397,0.01234 c -2.225075,0.02078 -2.310899,0.02901 -3.032864,0.372983 -0.518956,0.244398 -1.110297,0.787312 -1.376495,1.263769 -0.329623,0.580148 -0.456003,1.197529 -0.370178,1.806684 0.149014,1.106393 0.925209,2.055411 2.026546,2.477966 0.586626,0.223833 0.821465,0.244398 2.848011,0.244398 h 1.850417 v 1.147307 c 0,0.63405 -0.02264,1.272212 -0.04503,1.421362 -0.144534,0.837101 -0.884654,1.586964 -1.782748,1.802571 -0.234603,0.0539 -1.236676,0.06213 -8.340788,0.06213 H 7.4759645 l -0.343062,-0.10369 c -0.433368,-0.136811 -0.7446,-0.319081 -1.042628,-0.621494 -0.284354,-0.281848 -0.478402,-0.621494 -0.573186,-0.982138 -0.09926,-0.397877 -0.09926,-12.107984 0,-12.501749 0.198528,-0.766531 0.907289,-1.429587 1.751152,-1.640865 0.198529,-0.04546 1.51655,-0.05802 8.2910385,-0.05802 7.099632,-0.0041 8.092745,0.0041 8.327348,0.05802 z m 2.504948,6.174243 c 0.275394,0.132698 0.275394,0.120142 0.261718,2.221013 l -0.01344,1.910374 -0.149014,0.120142 -0.144534,0.120143 H 24.130195 21.91856 l -0.343063,-0.103691 c -0.825944,-0.256953 -1.421765,-0.853553 -1.620294,-1.624413 -0.121899,-0.468231 -0.03159,-1.081499 0.221164,-1.533278 0.306752,-0.542914 0.992878,-1.002703 1.679003,-1.131288 0.09927,-0.01645 1.132933,-0.03312 2.292744,-0.03723 1.805619,-0.0039 2.130526,0.0043 2.243466,0.05823 z"
       id="path4"
       style="fill:#d6dbf1;fill-opacity:1;stroke-width:0.00225921" />
    <path
       d="m 21.846647,16.527708 c -1.223237,0.40199 -1.281947,1.943494 -0.09478,2.43229 0.234603,0.09525 0.315948,0.111917 0.618221,0.09525 0.406252,-0.01645 0.67693,-0.124255 0.947843,-0.36887 0.266198,-0.248727 0.383617,-0.497238 0.401773,-0.870221 0.01816,-0.277735 0,-0.352202 -0.103744,-0.567809 -0.302509,-0.621061 -1.087899,-0.944255 -1.769308,-0.720638 z m 0.767234,0.878447 c 0.06319,0.04568 0.139819,0.14915 0.166934,0.227946 0.04503,0.124256 0.04055,0.169931 -0.0316,0.302413 -0.11294,0.211277 -0.360982,0.323194 -0.577666,0.256953 -0.297793,-0.09113 -0.428887,-0.401774 -0.275393,-0.658727 0.130859,-0.211278 0.505516,-0.281848 0.71772,-0.128585 z"
       id="path6"
       style="fill:#d6dbf1;fill-opacity:1;stroke-width:0.00225921" />
    <path
       d="M 23.324165,10.279455 H 12.865907 l 8.15322,-3.980125 z m -10.458258,0 H 7.7108055 L 16.579623,5.95 17.687974,7.949982 Z"
       id="path6-3"
       sodipodi:nodetypes="ccccccccc"
       style="fill:#d6dbf1;fill-opacity:1;stroke-width:0.225921" />
  </g>
  <g
     id="wallet-closed"
     transform="translate(32.041128,0.059)">
    <rect
       style="opacity:0.00100002"
       width="32"
       height="32"
       x="0"
       y="0"
       id="rect12-5" />
    <rect
       style="fill:#4e5a7e;fill-opacity:0.501961;stroke:none;stroke-width:0.585585;enable-background:new"
       id="center-3-35-5-6-5-3"
       width="15.907"
       height="21.5"
       x="9.2847643"
       y="-27.567997"
       ry="2.5000005"
       transform="rotate(90)"
       rx="2.3999267" />
    <path
       d="m 8.2050575,8.459099 c -1.372016,0.252841 -2.459679,1.317672 -2.653728,2.606552 -0.06767,0.435111 -0.06767,11.801458 -0.0045,12.286141 0.185088,1.350792 1.344901,2.448959 2.79826,2.656124 0.514477,0.07035 16.4693725,0.04135 16.7221305,-0.03312 0.72668,-0.215391 1.123737,-0.430998 1.57974,-0.853553 0.410732,-0.385322 0.649815,-0.729298 0.825944,-1.205755 0.121899,-0.33142 0.121899,-0.33142 0.135339,-1.785902 l 0.01344,-1.454482 0.171649,-0.07468 c 0.239319,-0.09525 0.564227,-0.41433 0.690606,-0.663057 0.103744,-0.203052 0.103744,-0.227946 0.117419,-2.11321 0.01816,-2.034629 0,-2.266688 -0.194048,-2.573214 -0.130859,-0.207165 -0.428888,-0.460005 -0.636376,-0.538585 l -0.149014,-0.05801 -0.01344,-1.893706 -0.01344,-1.897818 -0.1219,-0.331421 C 27.161693,9.690181 26.435013,8.96911 25.564034,8.633577 24.918699,8.384849 25.34735,8.397405 16.550796,8.401518 10.069149,8.405218 8.4443755,8.413638 8.2050575,8.459099 Z M 24.886632,9.329321 c 0.663491,0.161705 1.254832,0.609155 1.561585,1.189303 0.162453,0.310855 0.216683,0.489012 0.149014,0.489012 -0.01368,0 -0.11742,-0.07035 -0.225644,-0.161489 -0.230123,-0.186383 -0.68141,-0.410216 -1.101337,-0.55114 l -0.293313,-0.09525 -8.133064,-0.01234 -8.1330635,-0.0082 -0.149014,0.120142 c -0.198529,0.161489 -0.207488,0.406104 -0.02264,0.571922 l 0.121899,0.11603 8.0248405,0.02078 8.020124,0.02078 0.293313,0.09114 c 0.7446,0.232059 1.349616,0.791425 1.588699,1.458595 0.08111,0.232059 0.09926,0.40199 0.11742,1.131287 l 0.01816,0.857883 -1.954397,0.01234 c -2.225075,0.02078 -2.310899,0.02901 -3.032864,0.372983 -0.518956,0.244398 -1.110297,0.787312 -1.376495,1.263769 -0.329623,0.580148 -0.456003,1.197529 -0.370178,1.806684 0.149014,1.106393 0.925209,2.055411 2.026546,2.477966 0.586626,0.223833 0.821465,0.244398 2.848011,0.244398 h 1.850417 v 1.147307 c 0,0.63405 -0.02264,1.272212 -0.04503,1.421362 -0.144534,0.837101 -0.884654,1.586964 -1.782748,1.802571 -0.234603,0.0539 -1.236676,0.06213 -8.340788,0.06213 H 8.4759665 l -0.343063,-0.10369 c -0.433367,-0.136811 -0.7446,-0.319081 -1.042628,-0.621494 -0.284354,-0.281848 -0.478401,-0.621494 -0.573186,-0.982138 -0.09926,-0.397877 -0.09926,-12.107984 0,-12.501749 0.198529,-0.766531 0.907289,-1.429587 1.751153,-1.640865 0.198529,-0.04546 1.516549,-0.05802 8.2910375,-0.05802 7.099632,-0.0041 8.092745,0.0041 8.327348,0.05802 z m 2.504948,6.174243 c 0.275394,0.132698 0.275394,0.120142 0.261718,2.221013 l -0.01344,1.910374 -0.149014,0.120142 -0.144534,0.120143 H 25.130195 22.91856 l -0.343063,-0.103691 c -0.825944,-0.256953 -1.421765,-0.853553 -1.620294,-1.624413 -0.121899,-0.468231 -0.03159,-1.081499 0.221164,-1.533278 0.306752,-0.542914 0.992878,-1.002703 1.679003,-1.131288 0.09927,-0.01645 1.132933,-0.03312 2.292744,-0.03723 1.805619,-0.0039 2.130526,0.0043 2.243466,0.05823 z"
       id="path4-6"
       style="fill:#d6dbf1;fill-opacity:1;stroke-width:0.00225921" />
    <path
       d="m 22.846647,16.427471 c -1.223237,0.40199 -1.281947,1.943494 -0.09478,2.43229 0.234603,0.09525 0.315948,0.111917 0.618221,0.09525 0.406252,-0.01645 0.67693,-0.124255 0.947843,-0.36887 0.266198,-0.248727 0.383617,-0.497238 0.401773,-0.870221 0.01816,-0.277735 0,-0.352202 -0.103744,-0.567809 -0.302509,-0.621061 -1.087899,-0.944255 -1.769308,-0.720638 z m 0.767234,0.878447 c 0.06319,0.04568 0.139819,0.14915 0.166934,0.227946 0.04503,0.124256 0.04055,0.169931 -0.0316,0.302413 -0.11294,0.211277 -0.360982,0.323194 -0.577666,0.256953 -0.297793,-0.09113 -0.428887,-0.401774 -0.275393,-0.658727 0.130859,-0.211278 0.505516,-0.281848 0.71772,-0.128585 z"
       id="path6-7"
       style="fill:#d6dbf1;fill-opacity:1;stroke-width:0.00225921" />
  </g>
</svg>
