<?xml version="1.0" encoding="UTF-8" standalone="no"?>
<svg
   inkscape:version="1.1.1 (3bf5ae0d25, 2021-09-20)"
   sodipodi:docname="window.svg"
   viewBox="0 0 22 22"
   version="1.1"
   height="22"
   width="22"
   id="svg"
   xmlns:inkscape="http://www.inkscape.org/namespaces/inkscape"
   xmlns:sodipodi="http://sodipodi.sourceforge.net/DTD/sodipodi-0.dtd"
   xmlns="http://www.w3.org/2000/svg"
   xmlns:svg="http://www.w3.org/2000/svg"
   xmlns:rdf="http://www.w3.org/1999/02/22-rdf-syntax-ns#"
   xmlns:cc="http://creativecommons.org/ns#"
   xmlns:dc="http://purl.org/dc/elements/1.1/">
  <g
     id="window-unpin"
     transform="translate(-22)">
    <path
       id="rect838-6"
       d="M 0,0 H 22 V 22 H 0 Z"
       fill="none" />
    <path
       inkscape:connector-curvature="0"
       id="fill-36-7"
       d="m 10.043079,9.034828 -3.04308,-0.03483 -2,1 3.653585,3.868584 3.346415,3.131416 1,-2 v -3 L 16.092816,8.974309 17.106375,9.446622 18.70848,7.84858 v 0 l -4.479373,-4.528062 -1.634503,1.548359 0.610289,1.053499 z"
       style="color:#1e92ff;fill:#00a3cc;fill-opacity:1;fill-rule:nonzero;stroke:none;stroke-width:2.07024"
       class="ColorScheme-ButtonFocus"
       sodipodi:nodetypes="ccccccccccccccc" />
    <path
       d="M 18.411726,6.480287 15.516239,3.583715 C 15.151307,3.213136 14.653968,3.003142 14.134054,2.999997 h -0.05629 c -0.525034,-4.29e-4 -1.02838,0.209573 -1.397613,0.582986 -0.295945,0.297286 -0.491609,0.679718 -0.559627,1.093854 -0.06789,0.413988 -0.005,0.838986 0.180827,1.21527 l -2.087337,2.086989 h 1.4e-4 C 9.292904,7.726955 8.321341,7.723239 7.398232,7.968386 6.475111,8.21353 5.633396,8.698829 4.958661,9.374962 L 4.506324,9.827388 7.884283,13.205973 3.373651,17.719993 3,18.999996 l 1.279765,-0.375004 4.51063,-4.51146 3.37797,3.378584 0.452337,-0.452425 c 0.676016,-0.674854 1.161226,-1.51673 1.406322,-2.440014 0.245094,-0.923285 0.241385,-1.894989 -0.0107,-2.816298 L 16.10239,9.696938 h -1.5e-4 c 0.266672,0.133427 0.560618,0.203001 0.858833,0.203429 h 0.05239 c 0.526202,5.71e-4 1.03069,-0.209573 1.400762,-0.583572 C 18.789746,8.940218 19.000397,8.429791 18.999997,7.897931 18.999568,7.366072 18.787886,6.856082 18.411665,6.4802 Z M 17.506903,8.410568 C 17.371638,8.54657 17.186812,8.621995 16.994987,8.619137 h -0.0178 C 16.790641,8.61871 16.611964,8.543567 16.481289,8.410568 l -0.452338,-0.452427 -3.48166,3.482156 0.140114,0.384 c 0.160681,0.443137 0.242236,0.910997 0.241246,1.38244 0.002,0.87713 -0.27638,1.732135 -0.794703,2.439721 L 6.351964,9.863406 C 7.458891,9.065563 8.885648,8.858825 10.17335,9.309677 L 10.55728,9.449819 14.039491,5.967518 13.586414,5.51436 v 1.43e-4 C 13.451579,5.378216 13.375883,5.194217 13.375883,5.002502 c 0,-0.191715 0.07569,-0.375699 0.210531,-0.512001 0.137265,-0.133143 0.320801,-0.207572 0.511906,-0.207572 0.191115,0 0.374791,0.07443 0.511905,0.207572 l 2.895499,2.896573 c 0.135405,0.135856 0.211381,0.319715 0.211671,0.511415 2.9e-4,0.191859 -0.07539,0.375846 -0.210392,0.512001 z"
       id="path2-36-5"
       style="fill:#d6dbf1;fill-opacity:1;stroke-width:0.0365681" />
  </g>
  <metadata
     id="metadata60">
    <rdf:RDF>
      <cc:Work
         rdf:about="">
        <dc:format>image/svg+xml</dc:format>
        <dc:type
           rdf:resource="http://purl.org/dc/dcmitype/StillImage" />
      </cc:Work>
    </rdf:RDF>
  </metadata>
  <sodipodi:namedview
     inkscape:document-rotation="0"
     inkscape:lockguides="false"
     inkscape:current-layer="svg"
     inkscape:window-maximized="1"
     inkscape:window-y="0"
     inkscape:window-x="0"
     inkscape:cy="-0.61871841"
     inkscape:cx="36.769551"
     inkscape:zoom="5.6568545"
     showgrid="false"
     id="namedview58"
     inkscape:window-height="1007"
     inkscape:window-width="1920"
     inkscape:pageshadow="2"
     inkscape:pageopacity="0"
     guidetolerance="10"
     gridtolerance="10"
     objecttolerance="10"
     borderopacity="1"
     bordercolor="#000000"
     pagecolor="#ffffff"
     inkscape:showpageshadow="false"
     inkscape:pagecheckerboard="0"
     showguides="false">
    <inkscape:grid
       id="grid863"
       type="xygrid"
       originx="21.999999"
       originy="-10.000002" />
  </sodipodi:namedview>
  <defs
     id="defs4">
    <linearGradient
       id="linearGradient5606"
       inkscape:swatch="solid">
      <stop
         style="stop-color:#000000"
         offset="0"
         id="stop5608" />
    </linearGradient>
  </defs>
  <g
     id="g22"
     transform="matrix(1.7493122,0,0,1.7499488,-20.713548,-1332.9605)"
     style="fill:#ffffff" />
  <g
     id="g46"
     transform="matrix(1.7493122,0,0,1.7499488,-80.95048,-913.47286)"
     style="opacity:0.2">
    <g
       id="g44"
       transform="translate(19,-242)" />
  </g>
  <g
     id="window-close"
     transform="translate(22,-10)">
    <rect
       id="rect36"
       style="opacity:0.00100002"
       y="0"
       x="0"
       height="32"
       width="32" />
    <path
       inkscape:connector-curvature="0"
       id="fill"
       d="M 9.9763031,7 C 8.9842031,7 7,8.999999 7,10.000007 c 7.636901,4.259848 7.150558,8.282158 0.3917758,11.999994 0,1.083078 1.5924273,3.000007 2.5845273,3.000007 4.4739539,-8.066809 8.3162059,-6.053895 11.9052129,0 0.992101,0 2.976304,-1.999999 2.976304,-3.000007 -6.6872,-3.827576 -7.334306,-7.810896 0,-11.999994 C 24.85782,8.999999 22.873617,7 21.881516,7 18.071689,14.411681 14.128086,15.570777 9.9763031,7 Z"
       style="color:#1e92ff;fill:#62709d;fill-opacity:0.501961;fill-rule:nonzero;stroke:none;stroke-width:3.01743"
       class="ColorScheme-ButtonFocus"
       sodipodi:nodetypes="ccccccccc" />
    <path
       d="m 24.258099,20.753757 -4.660664,-4.699277 4.660472,-4.699295 h 1.92e-4 C 24.733257,10.873004 25,10.221008 25,9.541293 25,8.86177 24.733271,8.2096 24.258099,7.727594 23.773822,7.26055 23.129503,7 22.459387,7 21.789255,7 21.144942,7.260515 20.660466,7.727594 L 15.999997,12.427081 11.339525,7.727594 C 10.855061,7.26055 10.210738,7 9.54062,7 8.8704915,7 8.2261784,7.260515 7.7419031,7.727594 7.2667403,8.209582 7.000002,8.86177 7.000002,9.541293 c 0,0.679715 0.2667174,1.331711 0.7419011,1.813892 l 4.6606579,4.699295 -4.6606579,4.699277 c -0.5624756,0.662339 -0.7540504,1.566975 -0.5087832,2.403065 0.2452762,0.836091 0.8939634,1.490187 1.7231466,1.737507 0.8291832,0.247303 1.7263615,0.05425 2.3832095,-0.513015 l 4.660472,-4.699488 4.660472,4.699278 v 1.92e-4 c 0.656855,0.567159 1.554025,0.760336 2.383212,0.513033 0.829177,-0.24732 1.477865,-0.901416 1.72314,-1.737507 0.245278,-0.83609 0.05378,-1.740744 -0.508768,-2.403065 z m -1.20776,2.418412 c -0.158885,0.157146 -0.372653,0.245186 -0.595325,0.245186 -0.222487,0 -0.43625,-0.08802 -0.595334,-0.245186 l -5.255892,-5.299685 c -0.159458,-0.15977 -0.374927,-0.249402 -0.599704,-0.249402 -0.22458,0 -0.440235,0.0896 -0.599506,0.249402 l -5.264164,5.299685 c -0.1594579,0.159596 -0.3749175,0.249403 -0.5996958,0.249403 -0.2245799,0 -0.4402319,-0.08977 -0.5995058,-0.249403 -0.155864,-0.160295 -0.2431838,-0.375766 -0.2431838,-0.600302 0,-0.224519 0.087364,-0.44006 0.2431838,-0.600268 l 5.2558916,-5.299685 c 0.15852,-0.16082 0.24736,-0.378041 0.24736,-0.604694 0,-0.226444 -0.08886,-0.44391 -0.24736,-0.604503 L 8.9412124,10.1459 C 8.782884,9.98508 8.6938529,9.767859 8.6938529,9.541206 c 0,-0.226461 0.089071,-0.44391 0.2473595,-0.604503 0.158885,-0.157145 0.372646,-0.24522 0.5953221,-0.24522 0.222684,0 0.4364442,0.08802 0.5953295,0.24522 l 5.255904,5.299668 c 0.159458,0.15977 0.374915,0.24942 0.599693,0.24942 0.22458,0 0.440234,-0.0896 0.599507,-0.24942 L 21.85988,8.936703 c 0.159456,-0.159595 0.374922,-0.24942 0.5997,-0.24942 0.224585,0 0.440235,0.08977 0.599508,0.24942 0.155846,0.160121 0.243178,0.375749 0.243178,0.600285 0,0.224519 -0.08727,0.44006 -0.243178,0.600285 l -5.255901,5.299668 c -0.158502,0.16082 -0.247349,0.378041 -0.247349,0.604694 0,0.226461 0.08886,0.443892 0.247349,0.604503 l 5.255901,5.299667 v 1.93e-4 c 0.162493,0.162395 0.253241,0.384166 0.251724,0.614844 -0.0023,0.230853 -0.0955,0.451172 -0.260272,0.611415 z"
       id="path2-3"
       style="fill:#d6dbf1;fill-opacity:1;stroke-width:0.0488001" />
  </g>
  <g
     id="22-22-window-close"
     transform="translate(54)">
    <rect
       id="rect18"
       y="0"
       x="0"
       height="22"
       width="22"
       style="opacity:0.00100002" />
    <path
       inkscape:connector-curvature="0"
       id="fill-3"
       d="M 6.984202,5 C 6.322802,5 5,6.333332 5,7.000004 10.091267,9.839901 9.767039,12.52144 5.261184,14.999996 5.261184,15.722048 6.322802,17 6.984202,17 c 2.982636,-5.37787 5.544138,-4.035928 7.936809,0 0.6614,0 1.984202,-1.333332 1.984202,-2.000004 -4.458133,-2.551716 -4.889537,-5.207261 0,-7.999992 C 16.905213,6.333332 15.582411,5 14.921011,5 12.381126,9.941118 9.752057,10.713849 6.984202,5 Z"
       style="color:#1e92ff;fill:#62709d;fill-opacity:0.501961;fill-rule:nonzero;stroke:none;stroke-width:2.01162"
       class="ColorScheme-ButtonFocus"
       sodipodi:nodetypes="ccccccccc" />
    <path
       d="m 16.505399,14.169167 -3.107109,-3.13285 3.106981,-3.132862 h 1.28e-4 C 16.822171,7.582002 17,7.147338 17,6.694195 17,6.241179 16.822181,5.8064 16.505399,5.485062 16.182548,5.1737 15.753002,5 15.306258,5 14.859503,5 14.429961,5.173677 14.106977,5.485062 L 10.999998,8.618052 7.893016,5.485062 C 7.570041,5.1737 7.140492,5 6.693746,5 6.246994,5 5.817452,5.173677 5.494602,5.485062 5.177827,5.806388 5.000001,6.241179 5.000001,6.694195 c 0,0.453143 0.177812,0.887807 0.494601,1.20926 l 3.107105,3.132862 -3.107105,3.13285 c -0.374983,0.441559 -0.502701,1.04465 -0.339188,1.602043 0.163517,0.557394 0.595975,0.993457 1.148764,1.158337 0.552789,0.164869 1.150907,0.03617 1.588807,-0.342009 l 3.10698,-3.132991 3.106982,3.132851 v 1.28e-4 c 0.437902,0.378105 1.036016,0.50689 1.588807,0.342021 0.552785,-0.16488 0.985244,-0.600943 1.14876,-1.158337 0.163519,-0.557393 0.03585,-1.160496 -0.339179,-1.602043 z m -0.805173,1.612274 c -0.105924,0.104764 -0.248436,0.163457 -0.396884,0.163457 -0.148324,0 -0.290833,-0.05868 -0.396889,-0.163457 l -3.503928,-3.533122 c -0.106305,-0.106513 -0.249951,-0.166267 -0.399802,-0.166267 -0.14972,0 -0.293491,0.05973 -0.399671,0.166267 l -3.509443,3.533122 c -0.106305,0.106397 -0.249944,0.166269 -0.399797,0.166269 -0.14972,0 -0.293488,-0.05985 -0.39967,-0.166269 -0.10391,-0.106863 -0.162123,-0.25051 -0.162123,-0.400201 0,-0.149679 0.05825,-0.293373 0.162123,-0.400178 L 9.79807,11.44794 c 0.105679,-0.107213 0.164906,-0.252027 0.164906,-0.403129 0,-0.150963 -0.05924,-0.29594 -0.164906,-0.403002 L 6.294142,7.097266 C 6.188589,6.990052 6.129235,6.845239 6.129235,6.694137 c 0,-0.150974 0.05938,-0.29594 0.164907,-0.403002 0.105923,-0.104764 0.24843,-0.16348 0.396881,-0.16348 0.148456,0 0.290963,0.05868 0.396886,0.16348 l 3.503936,3.53311 c 0.106305,0.106513 0.249943,0.16628 0.399796,0.16628 0.14972,0 0.293489,-0.05973 0.399671,-0.16628 l 3.515275,-3.53311 c 0.106304,-0.106397 0.249948,-0.16628 0.399799,-0.16628 0.149724,0 0.293491,0.05985 0.399672,0.16628 0.103897,0.106747 0.162119,0.250499 0.162119,0.40019 0,0.149679 -0.05819,0.293373 -0.162119,0.400189 l -3.503933,3.533111 c -0.105669,0.107213 -0.164899,0.252027 -0.164899,0.403129 0,0.150974 0.05924,0.295928 0.164899,0.403002 l 3.503933,3.53311 v 1.28e-4 c 0.108329,0.108264 0.168828,0.256111 0.167817,0.409896 -0.0015,0.153902 -0.06366,0.300781 -0.173515,0.40761 z"
       id="path2-3-6"
       style="fill:#d6dbf1;fill-opacity:1;stroke-width:0.0325335" />
  </g>
  <g
     id="16-16-window-close"
     transform="translate(76,5.999998)">
    <rect
       id="rect27"
       y="0"
       x="0"
       height="16"
       width="16"
       style="opacity:0.00100002" />
    <g
       id="g31"
       transform="matrix(1.2495087,0,0,1.2499635,-53.223961,-951.97182)"
       style="fill:#ffffff" />
    <path
       inkscape:connector-curvature="0"
       id="fill-7"
       d="M 4.653502,3 C 4.102335,3 3,4.11111 3,4.66667 7.242721,7.033251 6.972533,9.267867 3.217653,11.33333 3.217653,11.93504 4.102335,13 4.653502,13 c 2.485527,-4.481559 4.620116,-3.363274 6.614009,0 0.551167,0 1.653502,-1.11111 1.653502,-1.66667 -3.715111,-2.12643 -4.074615,-4.339385 0,-6.66666 C 12.921013,4.11111 11.818678,3 11.267511,3 9.150939,7.117599 6.960049,7.761541 4.653502,3 Z"
       style="color:#1e92ff;fill:#62709d;fill-opacity:0.501961;fill-rule:nonzero;stroke:none;stroke-width:1.67635"
       class="ColorScheme-ButtonFocus"
       sodipodi:nodetypes="ccccccccc" />
    <path
       d="M 12.587831,10.640973 9.998574,8.030264 12.587727,5.419546 h 1.04e-4 C 12.851814,5.151668 13,4.789448 13,4.411829 13,4.034316 12.851819,3.672 12.587831,3.404219 12.31879,3.14475 11.960835,3 11.588549,3 11.216252,3 10.858301,3.14473 10.58915,3.404219 L 7.999997,6.015044 5.41085,3.404219 C 5.141699,3.14475 4.783743,3 4.411457,3 4.03916,3 3.68121,3.14473 3.412169,3.404219 3.148189,3.67199 3.000001,4.034316 3.000001,4.411829 c 0,0.377619 0.148176,0.739839 0.412168,1.007717 l 2.589257,2.610718 -2.589257,2.610709 c -0.312487,0.367966 -0.418917,0.870541 -0.282658,1.335035 0.136265,0.464495 0.496648,0.827882 0.957303,0.965281 0.46066,0.137391 0.959092,0.03014 1.324009,-0.285008 l 2.589147,-2.610825 2.589152,2.610709 v 1.06e-4 c 0.364923,0.315088 0.863349,0.422409 1.324009,0.285018 0.460654,-0.137399 0.821035,-0.500786 0.957301,-0.965281 0.136265,-0.464494 0.02987,-0.967079 -0.28265,-1.335035 z m -0.670974,1.343561 c -0.08827,0.0873 -0.20703,0.136215 -0.330739,0.136215 -0.123599,0 -0.242359,-0.0489 -0.330739,-0.136215 L 8.335438,9.040266 C 8.246848,8.951506 8.127146,8.90171 8.002268,8.90171 c -0.124762,0 -0.244575,0.04978 -0.33306,0.138556 l -2.924532,2.944268 c -0.08858,0.08867 -0.208291,0.138558 -0.333164,0.138558 -0.124768,0 -0.244575,-0.04987 -0.33306,-0.138558 -0.08659,-0.08905 -0.135101,-0.208758 -0.135101,-0.333501 0,-0.124732 0.04855,-0.244477 0.135101,-0.333482 L 6.998394,8.373283 C 7.086464,8.283943 7.135817,8.16326 7.135817,8.037342 7.135817,7.91154 7.086427,7.790726 6.998394,7.701507 L 4.078452,4.747721 C 3.990492,4.658381 3.94103,4.537699 3.94103,4.41178 c 0,-0.125811 0.0495,-0.246616 0.137422,-0.335834 0.08827,-0.0873 0.207025,-0.136234 0.330734,-0.136234 0.123715,0 0.24247,0.0489 0.330739,0.136234 l 2.919947,2.944258 c 0.08858,0.08876 0.208286,0.138567 0.333164,0.138567 0.124768,0 0.244575,-0.04978 0.33306,-0.138567 l 2.929393,-2.944258 c 0.08859,-0.08866 0.208292,-0.138567 0.33317,-0.138567 0.124768,0 0.244575,0.04987 0.333059,0.138567 0.08658,0.08896 0.135097,0.208749 0.135097,0.333491 0,0.124733 -0.0485,0.244478 -0.135097,0.333492 L 9.001772,7.687187 c -0.08806,0.08934 -0.137417,0.210023 -0.137417,0.335941 0,0.125812 0.04939,0.246607 0.137417,0.335835 l 2.919946,2.944258 v 1.08e-4 c 0.09027,0.09022 0.140685,0.213425 0.139848,0.341579 -0.0011,0.128252 -0.05308,0.250651 -0.144599,0.339675 z"
       id="path2-3-5"
       style="fill:#d6dbf1;fill-opacity:1;stroke-width:0.0271112" />
  </g>
  <g
     id="window-pin">
    <path
       id="rect838"
       d="M 0,0 H 22 V 22 H 0 Z"
       fill="none" />
    <path
       inkscape:connector-curvature="0"
       id="fill-36"
       d="m 10.043079,9.034832 -3.04308,-0.034834 -2,1 3.653585,3.868584 3.346415,3.131416 1,-2 v -3 L 16.092816,8.974309 17.106375,9.446622 18.70848,7.84858 v 0 l -4.479373,-4.528062 -1.634503,1.548359 0.610289,1.053499 z"
       style="color:#1e92ff;fill:#62709d;fill-opacity:0.501961;fill-rule:nonzero;stroke:none;stroke-width:2.07024"
       class="ColorScheme-ButtonFocus"
       sodipodi:nodetypes="ccccccccccccccc" />
    <path
       d="m 18.411726,6.4802907 -2.895487,-2.896572 c -0.364932,-0.370579 -0.862271,-0.580573 -1.382185,-0.583718 h -0.05629 c -0.525034,-4.29e-4 -1.02838,0.209573 -1.397613,0.582986 -0.295945,0.297286 -0.491609,0.679718 -0.559627,1.093854 -0.06789,0.413988 -0.005,0.838986 0.180827,1.21527 l -2.087337,2.086989 h 1.4e-4 C 9.292904,7.7269587 8.321341,7.7232427 7.398232,7.9683897 6.475111,8.2135337 5.633396,8.6988327 4.958661,9.3749657 L 4.506324,9.8273917 7.884283,13.205977 3.373651,17.719997 3,19 l 1.279765,-0.375004 4.51063,-4.51146 3.37797,3.378584 0.452337,-0.452425 c 0.676016,-0.674854 1.161226,-1.51673 1.406322,-2.440014 0.245094,-0.923285 0.241385,-1.894989 -0.0107,-2.816298 L 16.10239,9.6969417 h -1.5e-4 c 0.266672,0.133427 0.560618,0.203001 0.858833,0.203429 h 0.05239 c 0.526202,5.71e-4 1.03069,-0.209573 1.400762,-0.583572 0.375521,-0.376577 0.586172,-0.887004 0.585772,-1.418864 -4.29e-4,-0.531859 -0.212111,-1.041849 -0.588332,-1.417731 z m -0.904823,1.930281 c -0.135265,0.136002 -0.320091,0.211427 -0.511916,0.208569 h -0.0178 c -0.186546,-4.27e-4 -0.365223,-0.07557 -0.495898,-0.208569 l -0.452338,-0.452427 -3.48166,3.4821563 0.140114,0.384 c 0.160681,0.443137 0.242236,0.910997 0.241246,1.38244 0.002,0.87713 -0.27638,1.732135 -0.794703,2.439721 L 6.351964,9.8634097 c 1.106927,-0.797843 2.533684,-1.004581 3.821386,-0.553729 l 0.38393,0.140142 3.482211,-3.482301 -0.453077,-0.453158 v 1.43e-4 c -0.134835,-0.136287 -0.210531,-0.320286 -0.210531,-0.512001 0,-0.191715 0.07569,-0.375699 0.210531,-0.512001 0.137265,-0.133143 0.320801,-0.207572 0.511906,-0.207572 0.191115,0 0.374791,0.07443 0.511905,0.207572 l 2.895499,2.896573 c 0.135405,0.135856 0.211381,0.319715 0.211671,0.511415 2.9e-4,0.191859 -0.07539,0.375846 -0.210392,0.512001 z"
       id="path2-36"
       style="fill:#d6dbf1;fill-opacity:1;stroke-width:0.0365681" />
  </g>
</svg>
