<?xml version="1.0" encoding="UTF-8" standalone="no"?>
<svg
   width="40.09"
   height="40.000629"
   viewBox="0 0 40.09 40.000631"
   id="svg6548"
   version="1.1"
   inkscape:version="1.1.1 (3bf5ae0d25, 2021-09-20)"
   sodipodi:docname="system-file-manager.svg"
   xmlns:inkscape="http://www.inkscape.org/namespaces/inkscape"
   xmlns:sodipodi="http://sodipodi.sourceforge.net/DTD/sodipodi-0.dtd"
   xmlns:xlink="http://www.w3.org/1999/xlink"
   xmlns="http://www.w3.org/2000/svg"
   xmlns:svg="http://www.w3.org/2000/svg"
   xmlns:rdf="http://www.w3.org/1999/02/22-rdf-syntax-ns#"
   xmlns:cc="http://creativecommons.org/ns#"
   xmlns:dc="http://purl.org/dc/elements/1.1/">
  <defs
     id="defs6550">
    <linearGradient
       id="linearGradient4274"
       inkscape:collect="always">
      <stop
         id="stop4276"
         offset="0"
         style="stop-color:#ffffff;stop-opacity:1;" />
      <stop
         id="stop4278"
         offset="1"
         style="stop-color:#ffffff;stop-opacity:0.48760331" />
    </linearGradient>
    <linearGradient
       inkscape:collect="always"
       xlink:href="#linearGradient4274"
       id="linearGradient7243-3"
       gradientUnits="userSpaceOnUse"
       gradientTransform="matrix(0.46149782,0,0,0.46149782,-180.18094,1102.9563)"
       x1="390.57144"
       y1="498.298"
       x2="442.57144"
       y2="498.298" />
    <linearGradient
       inkscape:collect="always"
       id="linearGradient2230">
      <stop
         style="stop-color:#4e99ca;stop-opacity:0.80000001"
         offset="0"
         id="stop2226" />
      <stop
         style="stop-color:#20ffff;stop-opacity:0.80000001"
         offset="0.50507295"
         id="stop2332" />
      <stop
         style="stop-color:#ffaeff;stop-opacity:0.69"
         offset="1"
         id="stop2228" />
    </linearGradient>
    <linearGradient
       inkscape:collect="always"
       xlink:href="#linearGradient2230"
       id="linearGradient2232-3"
       x1="384.57144"
       y1="515.79797"
       x2="448.57144"
       y2="515.79797"
       gradientUnits="userSpaceOnUse"
       gradientTransform="matrix(0.58640777,0,0,0.58076913,-313.87244,723.55398)" />
    <linearGradient
       inkscape:collect="always"
       xlink:href="#linearGradient2230"
       id="linearGradient964"
       x1="-70.956757"
       y1="1028.8148"
       x2="-55.046471"
       y2="1028.8148"
       gradientUnits="userSpaceOnUse" />
  </defs>
  <sodipodi:namedview
     id="base"
     pagecolor="#ffffff"
     bordercolor="#666666"
     borderopacity="1.0"
     inkscape:pageopacity="0.0"
     inkscape:pageshadow="2"
     inkscape:zoom="8.0000004"
     inkscape:cx="-3.7499998"
     inkscape:cy="16.812499"
     inkscape:document-units="px"
     inkscape:current-layer="layer1"
     showgrid="true"
     units="px"
     inkscape:snap-bbox="true"
     inkscape:bbox-nodes="true"
     inkscape:object-nodes="true"
     inkscape:snap-global="true"
     showborder="true"
     inkscape:document-rotation="0"
     inkscape:window-width="1920"
     inkscape:window-height="1007"
     inkscape:window-x="0"
     inkscape:window-y="0"
     inkscape:window-maximized="1"
     inkscape:pagecheckerboard="0">
    <inkscape:grid
       type="xygrid"
       id="grid7247"
       originx="89.656761"
       originy="17.348718" />
  </sodipodi:namedview>
  <metadata
     id="metadata6553">
    <rdf:RDF>
      <cc:Work
         rdf:about="">
        <dc:format>image/svg+xml</dc:format>
        <dc:type
           rdf:resource="http://purl.org/dc/dcmitype/StillImage" />
      </cc:Work>
    </rdf:RDF>
  </metadata>
  <g
     inkscape:label="Livello 1"
     inkscape:groupmode="layer"
     id="layer1"
     transform="translate(89.65676,-1003.0135)">
    <rect
       style="fill:#626f9d;fill-opacity:0.2;stroke:none;stroke-width:0.735748"
       id="center-3-3"
       width="35.243107"
       height="24.392305"
       x="-87.183922"
       y="1012.66"
       ry="2.3230741"
       rx="2.3495471" />
    <path
       d="m -54.24723,1011.5038 h -17.19741 c -0.38009,0 -0.71246,-0.1938 -0.95005,-0.5333 l -1.28276,-1.9388 c -0.42749,-0.6786 -1.14025,-1.0182 -1.9001,-1.0182 h -8.78873 c -2.18548,0 -3.99048,1.8422 -3.99048,4.0719 v 22.6379 c 0,1.8905 1.52039,3.4902 3.42048,3.4902 h 14.77457 v 0 0 0 0 0 0 0 h 1.13999 v 0 0 0 0 0 0 0 0 0 h 14.77458 c 1.85276,0 3.42048,-1.5514 3.42048,-3.4902 v -19.7294 c 0,-1.9389 -1.52005,-3.4899 -3.42048,-3.4899 z m -14.77449,26.7097 v 0 h -1.13999 v 0 0 z m 17.05481,-3.4901 c 0,1.2602 -0.99781,2.3267 -2.28023,2.3267 h -30.68931 c -1.23509,0 -2.28023,-1.0665 -2.28023,-2.3267 l -3.4e-4,-7.8045 v -4.4113 c 0,-1.2603 1.04514,-2.3268 2.28023,-2.3268 h 17.19741 c 0.76019,0 1.47262,-0.3878 1.9001,-1.0181 l 1.23509,-1.9389 c 0.2376,-0.2907 0.56998,-0.5332 0.95005,-0.5332 h 8.83624 c 1.56772,0 2.85057,1.3089 2.85057,2.9087 v 6.3502 z m -2.85057,-19.1477 h -8.83624 c -0.76018,0 -1.47262,0.3878 -1.90009,1.0181 l -1.2351,1.9389 c -0.18987,0.3395 -0.56997,0.5332 -0.95004,0.5332 h -17.19729 c -0.85495,0 -1.66148,0.099 -2.28054,0.9887 v -5.0719 c 0,-1.1615 1.20566,-2.323 2.37848,-2.323 h 9.38253 l 0.0252,0.027 1.73406,-0.027 2.29935,0.01 h 17.19741 c 1.23509,0 2.28024,1.0664 2.28024,2.3267 v 1.7935 c -0.75986,-0.7753 -1.75732,-1.2115 -2.89757,-1.2115 z"
       id="path64-5"
       sodipodi:nodetypes="csccsssssccccccccccccccccccsssccccccccccssccsssccssscccsccscccccccssscc"
       style="fill:url(#linearGradient2232-3);fill-opacity:1;stroke-width:0.0856935" />
    <path
       d="m -55.174863,1026.2738 c 0.0306,-0.6319 -0.64335,-1.2828 -0.91746,-1.5189 -1.51509,-3.8334 -6.95494,-2.4934 -8.01713,-2.1889 -2.76758,-1.7587 -4.89934,0.1142 -4.91841,0.1333 -0.10282,0.091 -0.14839,0.2322 -0.11801,0.3692 0.0305,0.1332 0.13321,0.2398 0.26654,0.278 0.85278,0.2436 1.49613,1.0697 1.7663,1.4695 -1.98711,2.3259 -2.05942,5.6415 -2.04043,6.4943 -2.47827,2.0518 -1.69402,4.1647 -1.65603,4.2559 0.0533,0.1332 0.1751,0.2284 0.31984,0.2398 0.0114,0.01 0.0228,0.01 0.0341,0.01 0.1294,0 0.25515,-0.068 0.32364,-0.1827 0.45304,-0.7308 1.02029,-1.1724 1.68261,-1.3132 1.18386,-0.2512 2.33355,0.5139 2.34495,0.5215 0.0875,0.061 0.19789,0.084 0.30451,0.057 0.10281,-0.027 0.19409,-0.095 0.2436,-0.1903 0.59761,-1.1001 -0.32744,-2.5011 -0.67007,-2.9617 0.43771,-1.8577 1.5113,-2.935 2.35253,-3.5174 l -0.1713,0.2855 c -0.0534,0.095 -0.0685,0.2057 -0.0343,0.3083 0.0305,0.1067 0.10661,0.1903 0.20563,0.2361 0.37301,0.1637 0.89455,0.1789 1.55703,0.042 0.55208,-0.118 1.08499,-0.4035 1.54181,-0.826 0.59761,-0.5483 1.2639,-0.59 1.2639,-0.59 h 3.78404 c 0.0876,0 0.16753,-0.031 0.23601,-0.08 0.32365,-0.255 0.41495,-0.5329 0.43771,-0.7232 0.0308,-0.2517 -0.0492,-0.4649 -0.12151,-0.602 z m -2.67617,-0.4111 h -0.20944 c -0.20943,0 -0.38075,-0.1713 -0.38075,-0.3808 0,-0.2094 0.17132,-0.3807 0.38075,-0.3807 h 0.20944 c 0.21324,0 0.38076,0.1713 0.38076,0.3807 0,0.2095 -0.16751,0.3808 -0.38076,0.3808 z"
       id="path49"
       style="stroke-width:0.037388;fill-opacity:1.0;fill:url(#linearGradient964)" />
  </g>
</svg>
