<?xml version="1.0" encoding="UTF-8" standalone="no"?>
<svg
   width="22"
   height="22"
   viewBox="0 0 22 22"
   id="svg7925"
   version="1.1"
   inkscape:version="1.1.1 (3bf5ae0d25, 2021-09-20)"
   sodipodi:docname="system-file-manager.svg"
   xmlns:inkscape="http://www.inkscape.org/namespaces/inkscape"
   xmlns:sodipodi="http://sodipodi.sourceforge.net/DTD/sodipodi-0.dtd"
   xmlns:xlink="http://www.w3.org/1999/xlink"
   xmlns="http://www.w3.org/2000/svg"
   xmlns:svg="http://www.w3.org/2000/svg"
   xmlns:rdf="http://www.w3.org/1999/02/22-rdf-syntax-ns#"
   xmlns:cc="http://creativecommons.org/ns#"
   xmlns:dc="http://purl.org/dc/elements/1.1/">
  <defs
     id="defs7927">
    <linearGradient
       inkscape:collect="always"
       id="linearGradient1437">
      <stop
         style="stop-color:#00bdbd;stop-opacity:1;"
         offset="0"
         id="stop1433" />
      <stop
         style="stop-color:#80b3ff;stop-opacity:1"
         offset="1"
         id="stop1435" />
    </linearGradient>
    <linearGradient
       id="linearGradient4274"
       inkscape:collect="always">
      <stop
         id="stop4276"
         offset="0"
         style="stop-color:#ffffff;stop-opacity:1;" />
      <stop
         id="stop4278"
         offset="1"
         style="stop-color:#ffffff;stop-opacity:0.48760331" />
    </linearGradient>
    <linearGradient
       inkscape:collect="always"
       xlink:href="#linearGradient4274"
       id="linearGradient8485"
       gradientUnits="userSpaceOnUse"
       gradientTransform="matrix(0.69224711,0,0,0.69224711,-264.27155,1668.4354)"
       x1="390.57144"
       y1="498.298"
       x2="442.57144"
       y2="498.298" />
    <linearGradient
       inkscape:collect="always"
       xlink:href="#linearGradient4274"
       id="linearGradient8603-0"
       gradientUnits="userSpaceOnUse"
       gradientTransform="matrix(0.34616832,0,0,0.34616832,-135.15325,827.3248)"
       x1="390.57144"
       y1="498.298"
       x2="442.57144"
       y2="498.298" />
    <linearGradient
       xlink:href="#linearGradient1437"
       id="linearGradient4225-3"
       gradientUnits="userSpaceOnUse"
       x1="396.57101"
       y1="498.798"
       x2="426.57101"
       y2="511.798"
       gradientTransform="matrix(0.32790651,0,0,0.13075776,-151.54966,965.06875)" />
    <linearGradient
       id="linearGradient4227">
      <stop
         offset="0"
         style="stop-color:#f5f5f5;stop-opacity:1"
         id="stop21" />
      <stop
         offset="1"
         style="stop-color:#f9f9f9;stop-opacity:1"
         id="stop23" />
    </linearGradient>
    <linearGradient
       inkscape:collect="always"
       id="linearGradient2230">
      <stop
         style="stop-color:#4e99ca;stop-opacity:0.80000001"
         offset="0"
         id="stop2226" />
      <stop
         style="stop-color:#20ffff;stop-opacity:0.80000001"
         offset="0.50507295"
         id="stop2332" />
      <stop
         style="stop-color:#ffaeff;stop-opacity:0.69"
         offset="1"
         id="stop2228" />
    </linearGradient>
    <linearGradient
       inkscape:collect="always"
       xlink:href="#linearGradient2230"
       id="linearGradient2232-3"
       x1="384.57144"
       y1="515.79797"
       x2="448.57144"
       y2="515.79797"
       gradientUnits="userSpaceOnUse"
       gradientTransform="matrix(0.34374997,0,0,0.34615379,-132.19643,862.81679)" />
    <linearGradient
       inkscape:collect="always"
       xlink:href="#linearGradient2230"
       id="linearGradient1818"
       x1="343.57162"
       y1="524.79797"
       x2="367.57162"
       y2="524.79797"
       gradientUnits="userSpaceOnUse"
       gradientTransform="matrix(0.34374997,0,0,0.34951456,-106.41522,860.75132)" />
  </defs>
  <sodipodi:namedview
     id="base"
     pagecolor="#ffffff"
     bordercolor="#666666"
     borderopacity="1.0"
     inkscape:pageopacity="0.0"
     inkscape:pageshadow="2"
     inkscape:zoom="32.000002"
     inkscape:cx="6.6249996"
     inkscape:cy="9.4687494"
     inkscape:document-units="px"
     inkscape:current-layer="layer1"
     showgrid="true"
     units="px"
     inkscape:snap-bbox="true"
     inkscape:bbox-nodes="true"
     inkscape:object-nodes="true"
     inkscape:document-rotation="0"
     inkscape:window-width="1920"
     inkscape:window-height="1006"
     inkscape:window-x="0"
     inkscape:window-y="0"
     inkscape:window-maximized="1"
     inkscape:pagecheckerboard="0">
    <inkscape:grid
       type="xygrid"
       id="grid8605" />
  </sodipodi:namedview>
  <metadata
     id="metadata7930">
    <rdf:RDF>
      <cc:Work
         rdf:about="">
        <dc:format>image/svg+xml</dc:format>
        <dc:type
           rdf:resource="http://purl.org/dc/dcmitype/StillImage" />
      </cc:Work>
    </rdf:RDF>
  </metadata>
  <g
     inkscape:label="Livello 1"
     inkscape:groupmode="layer"
     id="layer1"
     transform="translate(0,-1030.3622)">
    <rect
       style="fill:#3b445f;fill-opacity:1;stroke:none;stroke-width:0.43532"
       id="center-3-3"
       width="20.700001"
       height="14.53846"
       x="0.64999998"
       y="1035.1317"
       ry="1.3846138"
       rx="1.3800038" />
    <path
       d="M 19.994874,1034.4425 H 9.91382 c -0.2228077,0 -0.4176423,-0.1155 -0.5569158,-0.3178 l -0.7519489,-1.1556 c -0.2505937,-0.4045 -0.668411,-0.6069 -1.1138315,-0.6069 H 2.3392043 C 1.0580842,1032.3622 0,1033.4602 0,1034.7892 v 13.4927 c 0,1.1268 0.89124704,2.0803 2.0050724,2.0803 h 8.6607966 v 0 0 0 0 0 0 0 h 0.668256 v 0 0 0 0 0 0 0 0 0 h 8.660803 c 1.086079,0 2.005072,-0.9247 2.005072,-2.0803 v -11.7592 c 0,-1.1556 -0.891047,-2.0801 -2.005072,-2.0801 z m -8.660749,15.9197 v 0 h -0.668256 v 0 0 z m 9.997464,-2.0802 c 0,0.7511 -0.584912,1.3868 -1.336661,1.3868 H 2.0049722 c -0.7240047,0 -1.3366616,-0.6357 -1.3366616,-1.3868 l -1.9964e-4,-4.6517 v -2.6292 c 0,-0.7512 0.61265694,-1.3869 1.33666254,-1.3869 H 12.085828 c 0.445621,0 0.863245,-0.2311 1.113833,-0.6068 l 0.724004,-1.1556 c 0.139281,-0.1733 0.33412,-0.3178 0.556916,-0.3178 h 5.17977 c 0.918992,0 1.670991,0.7801 1.670991,1.7336 v 3.7849 z m -1.670992,-11.4125 h -5.17977 c -0.445614,0 -0.863244,0.2311 -1.113826,0.6068 l -0.72401,1.1556 c -0.111302,0.2024 -0.334114,0.3178 -0.55691,0.3178 H 2.005096 c -0.5011684,0 -0.973954,0.059 -1.3368444,0.5893 v -3.023 c 0,-0.6923 0.706754,-1.3845 1.3942558,-1.3845 h 5.5000034 l 0.014773,0.016 1.0164987,-0.016 1.3478706,0.01 H 20.022709 c 0.724004,0 1.336666,0.6356 1.336666,1.3868 v 1.069 c -0.445426,-0.4621 -1.030135,-0.7221 -1.698543,-0.7221 z"
       id="path64-5"
       sodipodi:nodetypes="csccsssssccccccccccccccccccsssccccccccccssccsssccssscccsccscccccccssscc"
       style="fill:url(#linearGradient2232-3);fill-opacity:1;stroke-width:0.0506526" />
    <path
       d="m 14.944655,1041.7395 c -0.07114,-0.1253 -0.02896,-0.2858 0.09429,-0.358 0.0078,-0.01 0.01559,-0.01 0.02326,-0.011 0.373993,-0.2158 0.805154,-0.3406 1.26589,-0.3406 0.944016,0 1.767306,0.5183 2.216339,1.2875 0.0054,0.01 0.01143,0.015 0.01637,0.023 0.07114,0.1253 0.02896,0.2854 -0.0944,0.358 -0.123236,0.072 -0.280987,0.03 -0.352105,-0.096 v -3e-4 h -0.0012 c -0.356509,-0.6266 -1.021566,-1.0492 -1.784806,-1.0492 -0.375891,0 -0.72698,0.104 -1.030495,0.2826 h -5.88e-4 c -0.123359,0.072 -0.280981,0.029 -0.352221,-0.096 z m 3.446095,1.912 c 0,-0.1449 0.115438,-0.2621 0.257556,-0.2621 0.14251,0 0.257943,0.1172 0.257943,0.2621 0,0.1449 -0.115433,0.2622 -0.257943,0.2622 -0.142118,0 -0.257556,-0.1173 -0.257556,-0.2622 z m -6.401127,4.4114 c -0.402834,-0.4096 -0.402834,-1.0735 0,-1.4827 l 0.690357,-0.7023 c 0.474086,-0.482 0.846829,-0.4621 1.177785,-0.2389 v 0 c 0.769442,0.7824 1.484695,1.1581 2.470358,1.1581 1.708504,0 3.093752,-1.4081 3.093752,-3.1456 0,-1.7374 -1.385248,-3.1454 -3.093752,-3.1454 -1.708637,0 -3.093878,1.408 -3.093878,3.1454 0,0.1449 -0.115439,0.2622 -0.257557,0.2622 -0.142504,0 -0.257939,-0.1173 -0.257939,-0.2622 0,-2.0268 1.616117,-3.6699 3.609374,-3.6699 1.99352,0 3.609375,1.6431 3.609375,3.6699 0,1.0133 -0.40383,1.9309 -1.057064,2.5951 -0.08495,0.086 -0.17359,0.167 -0.264739,0.2432 -0.03927,0.033 -0.0817,0.062 -0.122368,0.093 -0.05365,0.041 -0.107009,0.083 -0.16213,0.121 -0.04958,0.033 -0.101704,0.064 -0.153202,0.095 -0.04926,0.03 -0.09757,0.061 -0.147921,0.089 -0.05409,0.03 -0.111037,0.055 -0.167049,0.082 -0.051,0.024 -0.101463,0.051 -0.153206,0.072 -0.05409,0.023 -0.11015,0.042 -0.16566,0.062 -0.05552,0.02 -0.111277,0.042 -0.167676,0.06 -0.0565,0.017 -0.1148,0.031 -0.172458,0.045 -0.05638,0.014 -0.112421,0.03 -0.169188,0.042 -0.06621,0.013 -0.134323,0.022 -0.201915,0.031 -0.04914,0.01 -0.09843,0.017 -0.147793,0.021 -0.117321,0.011 -0.236652,0.018 -0.357006,0.018 -0.103479,0 -0.207202,-0.01 -0.310548,-0.015 -0.03036,-0.01 -0.06018,-0.01 -0.09027,-0.01 -0.07904,-0.01 -0.157475,-0.02 -0.235915,-0.035 -0.0268,-0.01 -0.0541,-0.01 -0.08069,-0.015 -0.09982,-0.02 -0.198513,-0.045 -0.296209,-0.074 -0.0224,-0.01 -0.0442,-0.015 -0.06673,-0.022 -0.07479,-0.024 -0.149309,-0.05 -0.223077,-0.08 -0.03686,-0.014 -0.07352,-0.029 -0.109655,-0.045 -0.06305,-0.028 -0.126003,-0.058 -0.188197,-0.089 -0.0453,-0.023 -0.09014,-0.046 -0.13445,-0.071 -0.292552,-0.1635 -0.568493,-0.3684 -0.816495,-0.6205 -0.292776,-0.2977 -0.44898,-0.285 -0.729252,0 l -0.686071,0.6974 c -0.201288,0.2047 -0.201288,0.5367 0,0.7416 0.201287,0.2045 0.527838,0.2045 0.729251,0 l 0.549372,-0.5586 c 0.0024,-0.01 0.003,-0.01 0.0048,-0.01 0.100839,-0.1023 0.264228,-0.1023 0.364825,0 0.100575,0.1026 0.100575,0.2685 0,0.3709 -0.0012,0 -0.0018,0 -0.0024,0.01 h 0.0012 l -0.55994,0.5693 c -0.402816,0.4095 -1.055773,0.4095 -1.45823,0 z m 1.244622,-3.363 c 0,0.1449 -0.115439,0.2622 -0.257557,0.2622 -0.142504,0 -0.257939,-0.1173 -0.257939,-0.2622 0,-0.1445 0.115435,-0.2618 0.257939,-0.2618 0.142118,0 0.257557,0.1173 0.257557,0.2618 z"
       id="path2-3"
       style="fill:url(#linearGradient1818);fill-opacity:1;stroke-width:0.0162479" />
  </g>
</svg>
