<?xml version="1.0" encoding="UTF-8" standalone="no"?>
<svg
   width="16"
   height="16"
   viewBox="0 0 16 16"
   id="svg8694"
   version="1.1"
   inkscape:version="1.1.1 (3bf5ae0d25, 2021-09-20)"
   sodipodi:docname="system-file-manager.svg"
   xmlns:inkscape="http://www.inkscape.org/namespaces/inkscape"
   xmlns:sodipodi="http://sodipodi.sourceforge.net/DTD/sodipodi-0.dtd"
   xmlns:xlink="http://www.w3.org/1999/xlink"
   xmlns="http://www.w3.org/2000/svg"
   xmlns:svg="http://www.w3.org/2000/svg"
   xmlns:rdf="http://www.w3.org/1999/02/22-rdf-syntax-ns#"
   xmlns:cc="http://creativecommons.org/ns#"
   xmlns:dc="http://purl.org/dc/elements/1.1/">
  <defs
     id="defs8696">
    <linearGradient
       inkscape:collect="always"
       id="linearGradient1016">
      <stop
         style="stop-color:#00bdbd;stop-opacity:1"
         offset="0"
         id="stop1012" />
      <stop
         style="stop-color:#80b3ff;stop-opacity:1"
         offset="1"
         id="stop1014" />
    </linearGradient>
    <linearGradient
       xlink:href="#linearGradient1016"
       id="linearGradient4225-3"
       gradientUnits="userSpaceOnUse"
       x1="396.57101"
       y1="498.798"
       x2="426.57101"
       y2="511.798"
       gradientTransform="matrix(0.25503851,0,0,0.10945197,-98.205353,987.50736)" />
    <linearGradient
       id="linearGradient4227">
      <stop
         offset="0"
         style="stop-color:#f5f5f5;stop-opacity:1"
         id="stop21" />
      <stop
         offset="1"
         style="stop-color:#f9f9f9;stop-opacity:1"
         id="stop23" />
    </linearGradient>
    <linearGradient
       inkscape:collect="always"
       id="linearGradient2230">
      <stop
         style="stop-color:#4e99ca;stop-opacity:0.80000001"
         offset="0"
         id="stop2226" />
      <stop
         style="stop-color:#20ffff;stop-opacity:0.80000001"
         offset="0.50507295"
         id="stop2332" />
      <stop
         style="stop-color:#ffaeff;stop-opacity:0.69"
         offset="1"
         id="stop2228" />
    </linearGradient>
    <linearGradient
       inkscape:collect="always"
       xlink:href="#linearGradient2230"
       id="linearGradient2232-3"
       x1="384.57144"
       y1="515.79797"
       x2="448.57144"
       y2="515.79797"
       gradientUnits="userSpaceOnUse"
       gradientTransform="matrix(0.23871526,0,0,0.24038457,-91.30308,920.32233)" />
    <linearGradient
       inkscape:collect="always"
       xlink:href="#linearGradient2230"
       id="linearGradient1818"
       x1="343.57162"
       y1="524.79797"
       x2="367.57162"
       y2="524.79797"
       gradientUnits="userSpaceOnUse"
       gradientTransform="matrix(0.23871526,0,0,0.24271844,-73.39946,918.88798)" />
  </defs>
  <sodipodi:namedview
     id="base"
     pagecolor="#ffffff"
     bordercolor="#666666"
     borderopacity="1.0"
     inkscape:pageopacity="0.0"
     inkscape:pageshadow="2"
     inkscape:zoom="45.254836"
     inkscape:cx="7.8223684"
     inkscape:cy="8.5294752"
     inkscape:document-units="px"
     inkscape:current-layer="layer1"
     showgrid="true"
     units="px"
     inkscape:snap-bbox="true"
     inkscape:bbox-nodes="true"
     inkscape:object-nodes="true"
     inkscape:snap-global="true"
     inkscape:showpageshadow="true"
     showborder="true"
     inkscape:document-rotation="0"
     inkscape:window-width="1920"
     inkscape:window-height="1006"
     inkscape:window-x="0"
     inkscape:window-y="0"
     inkscape:window-maximized="1"
     inkscape:lockguides="false"
     inkscape:pagecheckerboard="0">
    <inkscape:grid
       type="xygrid"
       id="grid9302" />
  </sodipodi:namedview>
  <metadata
     id="metadata8699">
    <rdf:RDF>
      <cc:Work
         rdf:about="">
        <dc:format>image/svg+xml</dc:format>
        <dc:type
           rdf:resource="http://purl.org/dc/dcmitype/StillImage" />
      </cc:Work>
    </rdf:RDF>
  </metadata>
  <g
     inkscape:label="Livello 1"
     inkscape:groupmode="layer"
     id="layer1"
     transform="translate(0,-1036.3622)">
    <rect
       style="fill:#3b445f;fill-opacity:1;stroke:none;stroke-width:0.302569"
       id="center-3-3"
       width="14.4"
       height="10.096152"
       x="0.94999999"
       y="1039.9856"
       ry="0.9615373"
       rx="0.96000284" />
    <path
       d="M 14.385329,1039.5069 H 7.384597 c -0.154728,0 -0.290029,-0.08 -0.386747,-0.2207 l -0.522187,-0.8025 c -0.174023,-0.2809 -0.464174,-0.4215 -0.773494,-0.4215 H 2.124447 c -0.889666,0 -1.624447,0.7625 -1.624447,1.6854 v 9.3699 c 0,0.7825 0.618922,1.4447 1.392411,1.4447 h 6.014442 v 0 0 0 0 0 0 0 H 8.37092 v 0 0 0 0 0 0 0 0 0 h 6.014447 c 0.754221,0 1.392411,-0.6422 1.392411,-1.4447 v -8.1661 c 0,-0.8025 -0.618783,-1.4445 -1.392411,-1.4445 z m -6.014409,11.0553 v 0 H 7.906853 v 0 0 z m 6.942683,-1.4446 c 0,0.5216 -0.406188,0.9631 -0.928236,0.9631 H 1.892342 c -0.502781,0 -0.928237,-0.4415 -0.928237,-0.9631 l -1.39e-4,-3.2303 v -1.8259 c 0,-0.5216 0.425456,-0.9631 0.928238,-0.9631 h 7.000732 c 0.309459,0 0.599476,-0.1605 0.773495,-0.4214 l 0.502781,-0.8025 c 0.09672,-0.1203 0.232028,-0.2207 0.386747,-0.2207 h 3.597063 c 0.638188,0 1.16041,0.5418 1.16041,1.2039 v 2.6284 z m -1.160411,-7.9253 H 10.55613 c -0.309454,0 -0.599475,0.1605 -0.77349,0.4214 l -0.502785,0.8025 c -0.07729,0.1405 -0.232024,0.2207 -0.386743,0.2207 H 1.892428 c -0.348034,0 -0.676357,0.041 -0.928364,0.4092 v -2.0993 c 0,-0.4808 0.490801,-0.9615 0.968233,-0.9615 h 3.819447 l 0.01026,0.011 0.705902,-0.011 0.936021,0.01 h 7.000733 c 0.50278,0 0.92824,0.4414 0.92824,0.963 v 0.7424 c -0.309323,-0.3209 -0.715371,-0.5015 -1.179544,-0.5015 z"
       id="path64-5"
       sodipodi:nodetypes="csccsssssccccccccccccccccccsssccccccccccssccsssccssscccsccscccccccssscc"
       style="fill:url(#linearGradient2232-3);fill-opacity:1;stroke-width:0.0351754" />
    <path
       d="m 10.878233,1044.5742 c -0.0494,-0.087 -0.02011,-0.1985 0.06548,-0.2486 0.0054,-0.01 0.01083,-0.01 0.01615,-0.01 0.259717,-0.1499 0.559134,-0.2366 0.87909,-0.2366 0.655567,0 1.227296,0.36 1.539124,0.8941 0.0038,0.01 0.0079,0.01 0.01137,0.016 0.0494,0.087 0.02011,0.1982 -0.06555,0.2486 -0.08558,0.05 -0.19513,0.021 -0.244518,-0.067 v -2e-4 h -8.33e-4 c -0.247576,-0.4351 -0.709421,-0.7286 -1.239449,-0.7286 -0.261035,0 -0.504847,0.072 -0.715621,0.1963 h -4.09e-4 c -0.08567,0.05 -0.195125,0.02 -0.244597,-0.067 z m 2.393121,1.3278 c 0,-0.1006 0.08017,-0.182 0.178858,-0.182 0.09897,0 0.179128,0.081 0.179128,0.182 0,0.1006 -0.08016,0.1821 -0.179128,0.1821 -0.09869,0 -0.178858,-0.082 -0.178858,-0.1821 z m -4.445227,3.0635 c -0.279746,-0.2845 -0.279746,-0.7455 0,-1.0297 l 0.479415,-0.4877 c 0.329226,-0.3347 0.588075,-0.3209 0.817906,-0.1659 v 0 c 0.534335,0.5433 1.031038,0.8042 1.715526,0.8042 1.186461,0 2.148439,-0.9778 2.148439,-2.1844 0,-1.2065 -0.961978,-2.1843 -2.148439,-2.1843 -1.186553,0 -2.148526,0.9778 -2.148526,2.1843 0,0.1006 -0.08017,0.1821 -0.178859,0.1821 -0.09896,0 -0.179124,-0.082 -0.179124,-0.1821 0,-1.4075 1.122303,-2.5486 2.506509,-2.5486 1.384389,0 2.506511,1.1411 2.506511,2.5486 0,0.7037 -0.280438,1.3409 -0.734073,1.8021 -0.05899,0.06 -0.120548,0.116 -0.183846,0.1689 -0.02727,0.023 -0.05674,0.043 -0.08498,0.065 -0.03726,0.029 -0.07431,0.058 -0.11259,0.084 -0.03443,0.023 -0.07063,0.044 -0.10639,0.066 -0.03421,0.021 -0.06776,0.042 -0.102723,0.062 -0.03756,0.021 -0.07711,0.038 -0.116007,0.057 -0.03542,0.017 -0.07046,0.035 -0.106393,0.05 -0.03756,0.016 -0.07649,0.029 -0.115041,0.043 -0.03856,0.014 -0.07728,0.029 -0.116442,0.042 -0.03924,0.012 -0.07972,0.022 -0.119762,0.031 -0.03915,0.01 -0.07807,0.021 -0.117492,0.029 -0.04598,0.01 -0.09328,0.015 -0.140219,0.022 -0.03412,0.01 -0.06835,0.012 -0.102634,0.015 -0.08147,0.01 -0.164342,0.013 -0.247921,0.013 -0.07186,0 -0.14389,-0.01 -0.215658,-0.01 -0.02108,-0.01 -0.04179,-0.01 -0.06269,-0.01 -0.05489,-0.01 -0.109357,-0.014 -0.163829,-0.024 -0.01861,-0.01 -0.03757,-0.01 -0.05604,-0.01 -0.06932,-0.014 -0.137856,-0.031 -0.205701,-0.051 -0.01555,-0.01 -0.03069,-0.01 -0.04634,-0.015 -0.05194,-0.017 -0.103687,-0.035 -0.154915,-0.056 -0.0256,-0.01 -0.05105,-0.02 -0.07615,-0.031 -0.04379,-0.019 -0.0875,-0.04 -0.130692,-0.062 -0.03146,-0.016 -0.0626,-0.032 -0.09337,-0.049 -0.203162,-0.1135 -0.394787,-0.2558 -0.567011,-0.4309 -0.203316,-0.2067 -0.311791,-0.1979 -0.506425,0 l -0.476438,0.4844 c -0.139783,0.1421 -0.139783,0.3727 0,0.515 0.139783,0.142 0.366554,0.142 0.506424,0 l 0.381509,-0.388 c 0.0017,-0.01 0.0021,-0.01 0.0033,-0.01 0.07003,-0.071 0.183492,-0.071 0.253351,0 0.06984,0.071 0.06984,0.1864 0,0.2576 -8.34e-4,0 -0.0013,0 -0.0017,0.01 h 8.33e-4 l -0.388847,0.3954 c -0.279733,0.2843 -0.733176,0.2843 -1.01266,0 z m 0.864321,-2.3355 c 0,0.1007 -0.08017,0.1821 -0.178859,0.1821 -0.09896,0 -0.179124,-0.081 -0.179124,-0.1821 0,-0.1003 0.08016,-0.1818 0.179124,-0.1818 0.09869,0 0.178859,0.082 0.178859,0.1818 z"
       id="path2-3"
       style="fill:url(#linearGradient1818);fill-opacity:1;stroke-width:0.0112833" />
  </g>
</svg>
