<?xml version="1.0" encoding="UTF-8" standalone="no"?>
<svg
   width="32"
   version="1.1"
   height="32"
   viewBox="0 0 32 32"
   id="svg2"
   inkscape:version="1.1.1 (3bf5ae0d25, 2021-09-20)"
   sodipodi:docname="favorites.svg"
   xmlns:inkscape="http://www.inkscape.org/namespaces/inkscape"
   xmlns:sodipodi="http://sodipodi.sourceforge.net/DTD/sodipodi-0.dtd"
   xmlns:xlink="http://www.w3.org/1999/xlink"
   xmlns="http://www.w3.org/2000/svg"
   xmlns:svg="http://www.w3.org/2000/svg"
   xmlns:rdf="http://www.w3.org/1999/02/22-rdf-syntax-ns#"
   xmlns:cc="http://creativecommons.org/ns#"
   xmlns:dc="http://purl.org/dc/elements/1.1/">
  <sodipodi:namedview
     pagecolor="#ffffff"
     bordercolor="#666666"
     borderopacity="1"
     objecttolerance="10"
     gridtolerance="10"
     guidetolerance="10"
     inkscape:pageopacity="0"
     inkscape:pageshadow="2"
     inkscape:window-width="1920"
     inkscape:window-height="1007"
     id="namedview19"
     showgrid="false"
     inkscape:zoom="7.375"
     inkscape:cx="39.186441"
     inkscape:cy="4.5423729"
     inkscape:window-x="0"
     inkscape:window-y="0"
     inkscape:window-maximized="1"
     inkscape:current-layer="layer1"
     inkscape:document-rotation="0"
     inkscape:pagecheckerboard="0"
     inkscape:lockguides="true">
    <inkscape:grid
       type="xygrid"
       id="grid838" />
  </sodipodi:namedview>
  <defs
     id="defs5455">
    <linearGradient
       inkscape:collect="always"
       xlink:href="#linearGradient952"
       id="linearGradient2232"
       x1="384.57144"
       y1="515.79797"
       x2="448.57144"
       y2="515.79797"
       gradientUnits="userSpaceOnUse"
       gradientTransform="matrix(0.49999991,0,0,0.49999991,192.28575,273.89904)" />
    <linearGradient
       inkscape:collect="always"
       id="linearGradient952">
      <stop
         style="stop-color:#ffaeff;stop-opacity:0.6901961"
         offset="0"
         id="stop946" />
      <stop
         style="stop-color:#fcefd2;stop-opacity:0.80000001"
         offset="0.50507295"
         id="stop948" />
      <stop
         style="stop-color:#f28fad;stop-opacity:0.6901961"
         offset="1"
         id="stop950" />
    </linearGradient>
    <linearGradient
       inkscape:collect="always"
       xlink:href="#linearGradient952"
       id="linearGradient2577-3"
       x1="403.27142"
       y1="520.79797"
       x2="430.27142"
       y2="520.79797"
       gradientUnits="userSpaceOnUse"
       gradientTransform="matrix(0.49999991,0,0,0.49999991,199.43569,276.39907)" />
  </defs>
  <metadata
     id="metadata5458">
    <rdf:RDF>
      <cc:Work
         rdf:about="">
        <dc:format>image/svg+xml</dc:format>
        <dc:type
           rdf:resource="http://purl.org/dc/dcmitype/StillImage" />
      </cc:Work>
    </rdf:RDF>
  </metadata>
  <g
     inkscape:label="Capa 1"
     inkscape:groupmode="layer"
     id="layer1"
     transform="translate(-384.57143,-515.798)">
    <rect
       style="fill:#626f9d;fill-opacity:0.2;stroke:none;stroke-width:0.630375"
       id="center-3"
       width="30.049994"
       height="20.999996"
       x="385.57144"
       y="522.79803"
       ry="1.9999975"
       rx="2.0033388" />
    <path
       d="m 413.65488,521.80284 h -14.66335 c -0.32409,0 -0.60749,-0.1668 -0.81006,-0.45908 l -1.09375,-1.6692 c -0.36449,-0.58426 -0.97223,-0.87656 -1.62011,-0.87656 h -7.49371 c -1.86344,0 -3.40247,1.58596 -3.40247,3.50556 v 19.48961 c 0,1.62762 1.29635,3.00483 2.91647,3.00483 h 12.59752 v 0 0 0 0 0 0 0 h 0.97201 v 0 0 0 0 0 0 0 0 0 h 12.59753 c 1.57975,0 2.91647,-1.33563 2.91647,-3.00483 v -16.9856 c 0,-1.66919 -1.29607,-3.00452 -2.91647,-3.00452 z M 401.05743,544.798 v 0 h -0.97201 v 0 0 z m 14.54177,-3.00473 c 0,1.08499 -0.85079,2.00314 -1.94424,2.00314 h -26.16721 c -1.05309,0 -1.94424,-0.91815 -1.94424,-2.00314 l -2.8e-4,-6.71912 v -3.79784 c 0,-1.085 0.89114,-2.00315 1.94424,-2.00315 h 14.66335 c 0.64817,0 1.25563,-0.3339 1.62011,-0.87655 l 1.0531,-1.6692 c 0.20259,-0.25036 0.48599,-0.45909 0.81006,-0.45909 h 7.53421 c 1.33671,0 2.43053,1.1269 2.43053,2.50418 v 5.46703 z m -2.43054,-16.48481 h -7.53421 c -0.64817,0 -1.25563,0.33391 -1.62011,0.87656 l -1.0531,1.6692 c -0.1619,0.29227 -0.48599,0.45908 -0.81006,0.45908 h -14.66325 c -0.72897,0 -1.41666,0.0848 -1.9445,0.8512 v -4.3665 c 0,-1.00001 1.028,-2 2.028,-2 h 8.00001 l 0.0214,0.0232 1.47854,-0.0232 1.96054,0.006 h 14.66336 c 1.0531,0 1.94424,0.91814 1.94424,2.00315 v 1.54407 c -0.64789,-0.66752 -1.49838,-1.04305 -2.47061,-1.04305 z"
       id="path64"
       sodipodi:nodetypes="csccsssssccccccccccccccccccsssccccccccccssccsssccssscccsccscccccccssscc"
       style="fill:url(#linearGradient2232);fill-opacity:1;stroke-width:0.0734205" />
    <path
       d="m 404.19542,536.34523 c -0.14687,0.14665 -0.3719,0.15518 -0.53592,0.0406 l -0.0106,0.0106 -0.29881,-0.2991 c -0.82486,-0.8254 -0.82486,-2.16385 0,-2.98936 0.16486,-0.16486 0.43238,-0.16486 0.59726,0 0.16535,0.16511 0.16535,0.43284 0,0.59768 -0.49461,0.49555 -0.49461,1.29854 0,1.79361 l 0.29886,0.29907 -0.0106,0.0106 c 0.11474,0.16547 0.10624,0.38908 -0.0401,0.53621 z m 1.09231,-2.95943 c -0.16534,-0.16489 -0.16534,-0.4326 0,-0.5976 0.165,-0.16545 0.43243,-0.16545 0.59726,0 0.16499,0.165 0.16499,0.43271 0,0.5976 -0.16483,0.1651 -0.43226,0.1651 -0.59726,0 z m 8.21895,3.90782 -2.70981,2.71133 c -0.16479,0.16501 -0.4323,0.16501 -0.59717,0 -0.16544,-0.16505 -0.16544,-0.43259 0,-0.59778 l 2.41094,-2.41261 0.29851,-0.29922 c 1.04929,-1.05008 1.15489,-3.02918 0,-4.18509 -1.15472,-1.15549 -3.027,-1.15549 -4.18174,0 l -0.29566,0.2958 v 0 c -0.15328,0.15473 -0.36573,0.25123 -0.60086,0.25123 -0.23476,0 -0.44713,-0.0965 -0.60039,-0.25123 v 0 l -0.29559,-0.2958 c -1.15463,-1.15549 -3.02715,-1.15549 -4.18176,0 -1.15512,1.15591 -1.07582,3.10908 0,4.18509 l 0.89613,0.897 4.4805,4.48423 c 0.16489,0.16484 0.16489,0.43258 0,0.59778 -0.16492,0.16486 -0.43227,0.16486 -0.59725,0 l -2.38991,-2.39131 -2.98712,-2.98942 c -1.40551,-1.40655 -1.4848,-3.89517 0,-5.38108 1.48472,-1.48606 3.89218,-1.48606 5.37698,0 l 0.29877,0.29907 0.2985,-0.29907 c 1.48474,-1.48606 3.89217,-1.48606 5.3769,0 1.48508,1.48591 1.35277,4.02687 3e-5,5.38108 z m -3.7595,3.16432 c 0.16478,0.16487 0.16478,0.43258 0,0.59798 -0.16472,0.16519 -0.43238,0.16519 -0.59782,0 -0.16478,-0.1654 -0.16478,-0.43311 0,-0.59798 0.16542,-0.1652 0.43306,-0.1652 0.59782,0 z"
       id="path2"
       style="fill:url(#linearGradient2577-3);fill-opacity:1;stroke-width:0.026413" />
  </g>
</svg>
