<?xml version="1.0" encoding="UTF-8" standalone="no"?>
<svg
   width="32"
   version="1.1"
   height="32"
   viewBox="0 0 32 32"
   id="svg15"
   sodipodi:docname="folder-trash.svg"
   inkscape:version="1.1.1 (3bf5ae0d25, 2021-09-20)"
   xmlns:inkscape="http://www.inkscape.org/namespaces/inkscape"
   xmlns:sodipodi="http://sodipodi.sourceforge.net/DTD/sodipodi-0.dtd"
   xmlns:xlink="http://www.w3.org/1999/xlink"
   xmlns="http://www.w3.org/2000/svg"
   xmlns:svg="http://www.w3.org/2000/svg"
   xmlns:rdf="http://www.w3.org/1999/02/22-rdf-syntax-ns#"
   xmlns:cc="http://creativecommons.org/ns#"
   xmlns:dc="http://purl.org/dc/elements/1.1/">
  <sodipodi:namedview
     pagecolor="#ffffff"
     bordercolor="#666666"
     borderopacity="1"
     objecttolerance="10"
     gridtolerance="10"
     guidetolerance="10"
     inkscape:pageopacity="0"
     inkscape:pageshadow="2"
     inkscape:window-width="1920"
     inkscape:window-height="1007"
     id="namedview17"
     showgrid="true"
     inkscape:zoom="11.313709"
     inkscape:cx="3.7123106"
     inkscape:cy="24.439378"
     inkscape:window-x="0"
     inkscape:window-y="0"
     inkscape:window-maximized="1"
     inkscape:current-layer="g4"
     inkscape:pagecheckerboard="0">
    <inkscape:grid
       type="xygrid"
       id="grid862" />
  </sodipodi:namedview>
  <defs
     id="defs5455">
    <linearGradient
       inkscape:collect="always"
       xlink:href="#linearGradient2230"
       id="linearGradient2232"
       x1="384.57144"
       y1="515.79797"
       x2="448.57144"
       y2="515.79797"
       gradientUnits="userSpaceOnUse"
       gradientTransform="matrix(1.3883549,0,0,1.3461638,-465.19067,330.12439)" />
    <linearGradient
       inkscape:collect="always"
       id="linearGradient2230">
      <stop
         style="stop-color:#4e99ca;stop-opacity:0.80000001"
         offset="0"
         id="stop2226" />
      <stop
         style="stop-color:#20ffff;stop-opacity:0.80000001"
         offset="0.50507295"
         id="stop2332" />
      <stop
         style="stop-color:#ffaeff;stop-opacity:0.69"
         offset="1"
         id="stop2228" />
    </linearGradient>
  </defs>
  <metadata
     id="metadata5458">
    <rdf:RDF>
      <cc:Work
         rdf:about="">
        <dc:format>image/svg+xml</dc:format>
        <dc:type
           rdf:resource="http://purl.org/dc/dcmitype/StillImage" />
      </cc:Work>
    </rdf:RDF>
  </metadata>
  <g
     inkscape:label="Capa 1"
     inkscape:groupmode="layer"
     id="layer1"
     transform="translate(-384.57143,-515.798)">
    <g
       transform="matrix(0.36013848,0,0,0.37142583,359.81878,151.2823)"
       id="g4">
      <rect
         style="fill:#626f9d;fill-opacity:0.2;stroke:none;stroke-width:1.72356"
         id="center-3"
         width="83.440125"
         height="56.538879"
         x="71.507629"
         y="1000.2419"
         ry="5.3846502"
         rx="5.5626912" />
      <path
         d="m 149.48728,997.56276 h -40.7159 c -0.89989,0 -1.68679,-0.4491 -2.24929,-1.23601 l -3.03702,-4.49402 c -1.0121,-1.57302 -2.6996,-2.35999 -4.498592,-2.35999 H 78.178634 c -5.174245,0 -9.447685,4.26993 -9.447685,9.43811 v 52.47245 c 0,4.3821 3.599602,8.09 8.09819,8.09 h 34.979671 v 0 0 0 0 0 0 0 h 2.69899 v 0 0 0 0 0 0 0 0 0 h 34.97967 c 4.38652,0 8.09819,-3.596 8.09819,-8.09 v -45.7308 c 0,-4.494 -3.59879,-8.08918 -8.09819,-8.08918 z m -34.97948,61.91054 v 0 h -2.69899 v 0 0 z m 40.37826,-8.0897 c 0,2.9211 -2.36237,5.3931 -5.39859,5.3931 H 76.828737 c -2.924153,0 -5.39859,-2.472 -5.39859,-5.3931 l -8e-4,-18.0901 v -10.2251 c 0,-2.9211 2.474451,-5.3931 5.39859,-5.3931 h 40.715873 c 1.79978,0 3.48652,-0.899 4.49861,-2.3599 l 2.92413,-4.4941 c 0.56254,-0.674 1.34946,-1.236 2.24931,-1.236 h 20.92031 c 3.71167,0 6.74889,3.034 6.74889,6.7421 v 14.719 z m -6.74889,-44.3825 h -20.92031 c -1.79978,0 -3.48652,0.8989 -4.49859,2.3599 l -2.92416,4.4941 c -0.44955,0.7869 -1.34945,1.236 -2.24928,1.236 H 76.829223 c -2.024138,0 -3.93364,0.2284 -5.399312,2.2917 v -11.7561 c 0,-2.6923 2.854471,-5.3846 5.631181,-5.3846 h 22.213692 l 0.05956,0.062 4.105506,-0.062 5.44383,0.017 h 40.7159 c 2.92414,0 5.39859,2.4719 5.39859,5.3931 v 4.1571 c -1.79901,-1.7971 -4.16057,-2.8082 -6.86017,-2.8082 z"
         id="path64"
         sodipodi:nodetypes="csccsssssccccccccccccccccccsssccccccccccssccsssccssscccsccscccccccssscc"
         style="fill:url(#linearGradient2232);fill-opacity:1;stroke-width:0.200746" />
      <path
         style="color:#31363b;fill:#55ff99;fill-opacity:0.6;stroke:none;stroke-width:2.62433"
         d="m 130.61829,1023.1276 c 0.81868,0.3104 1.5035,0.87 2.01431,1.6757 l 3.6492,5.774 -2.28517,1.1759 7.39668,0.095 3.61788,-5.8951 -2.24888,1.2113 -2.08214,-3.2302 c -0.34226,-0.5282 -0.9204,-0.8075 -1.67092,-0.8075 z m -1.94156,0.2779 c -1.29481,0 -2.35124,0.5594 -2.99827,1.5846 l -3.10241,4.8705 6.51188,3.4473 4.02368,-6.3341 -1.16084,-1.7667 c -0.78344,-1.2088 -1.87644,-1.8016 -3.27404,-1.8016 z m 17.04761,8.5045 -6.51186,3.3816 4.02345,6.334 h 2.24889 c 0.714,0 1.43422,-0.1586 1.94669,-0.4088 1.08995,-0.5579 1.87398,-1.7339 1.87398,-2.8518 0,-0.5588 -0.16938,-1.0878 -0.47901,-1.5845 z m -20.96744,1.4281 -7.43314,0.126 2.28512,1.1809 -2.04563,3.2556 c -0.13495,0.217 -0.23991,0.5575 -0.23991,0.8379 0,0.2797 0.10191,0.5911 0.23991,0.8074 l 4.26314,6.6725 c -0.0333,-0.2165 -0.0358,-0.372 -0.0358,-0.4948 0,-0.5274 0.27656,-1.3655 0.61435,-1.923 l 3.64887,-5.7436 2.31645,1.2114 z m 13.49756,6.607 -3.8155,5.8042 3.8155,5.8041 v -2.3872 h 3.99258 c 0.71594,0 1.33012,-0.3109 1.67091,-0.8377 l 4.22671,-6.703 c -0.71542,0.4957 -1.57043,0.7421 -2.59223,0.7421 h -7.29797 z m -13.97618,2.362 -1.08825,1.7716 c -0.34056,0.5273 -0.58286,1.3655 -0.58286,1.8624 0,1.7686 1.60161,3.2252 3.54492,3.2252 h 6.21011 v -6.8592 z"
         class="ColorScheme-Text"
         id="path12-3" />
    </g>
  </g>
</svg>
