<?xml version="1.0" encoding="UTF-8" standalone="no"?>
<svg
   width="32"
   version="1.1"
   height="32"
   viewBox="0 0 32 32"
   id="svg15"
   sodipodi:docname="folder-database.svg"
   inkscape:version="1.1.1 (3bf5ae0d25, 2021-09-20)"
   xmlns:inkscape="http://www.inkscape.org/namespaces/inkscape"
   xmlns:sodipodi="http://sodipodi.sourceforge.net/DTD/sodipodi-0.dtd"
   xmlns:xlink="http://www.w3.org/1999/xlink"
   xmlns="http://www.w3.org/2000/svg"
   xmlns:svg="http://www.w3.org/2000/svg"
   xmlns:rdf="http://www.w3.org/1999/02/22-rdf-syntax-ns#"
   xmlns:cc="http://creativecommons.org/ns#"
   xmlns:dc="http://purl.org/dc/elements/1.1/">
  <sodipodi:namedview
     pagecolor="#ffffff"
     bordercolor="#666666"
     borderopacity="1"
     objecttolerance="10"
     gridtolerance="10"
     guidetolerance="10"
     inkscape:pageopacity="0"
     inkscape:pageshadow="2"
     inkscape:window-width="1920"
     inkscape:window-height="1007"
     id="namedview17"
     showgrid="true"
     inkscape:zoom="9.8125"
     inkscape:cx="1.4267516"
     inkscape:cy="18.089172"
     inkscape:window-x="0"
     inkscape:window-y="0"
     inkscape:window-maximized="1"
     inkscape:current-layer="g4"
     inkscape:pagecheckerboard="0">
    <inkscape:grid
       type="xygrid"
       id="grid862" />
  </sodipodi:namedview>
  <defs
     id="defs5455">
    <linearGradient
       inkscape:collect="always"
       xlink:href="#linearGradient2230"
       id="linearGradient2232"
       x1="384.57144"
       y1="515.79797"
       x2="448.57144"
       y2="515.79797"
       gradientUnits="userSpaceOnUse"
       gradientTransform="matrix(1.3883543,0,0,1.3461633,-465.19047,330.12458)" />
    <linearGradient
       inkscape:collect="always"
       id="linearGradient2230">
      <stop
         style="stop-color:#4e99ca;stop-opacity:0.80000001"
         offset="0"
         id="stop2226" />
      <stop
         style="stop-color:#20ffff;stop-opacity:0.80000001"
         offset="0.50507295"
         id="stop2332" />
      <stop
         style="stop-color:#ffaeff;stop-opacity:0.69"
         offset="1"
         id="stop2228" />
    </linearGradient>
    <linearGradient
       inkscape:collect="always"
       xlink:href="#linearGradient2230"
       id="linearGradient1122"
       gradientUnits="userSpaceOnUse"
       gradientTransform="matrix(1.3883543,0,0,1.3461633,-442.97678,336.85405)"
       x1="404.57144"
       y1="520.79901"
       x2="428.5723"
       y2="520.79901" />
  </defs>
  <metadata
     id="metadata5458">
    <rdf:RDF>
      <cc:Work
         rdf:about="">
        <dc:format>image/svg+xml</dc:format>
        <dc:type
           rdf:resource="http://purl.org/dc/dcmitype/StillImage" />
      </cc:Work>
    </rdf:RDF>
  </metadata>
  <g
     inkscape:label="Capa 1"
     inkscape:groupmode="layer"
     id="layer1"
     transform="translate(-384.57143,-515.798)">
    <g
       transform="matrix(0.36013848,0,0,0.37142583,359.81878,151.2823)"
       id="g4">
      <rect
         style="fill:#626f9d;fill-opacity:0.2;stroke:none;stroke-width:1.72356"
         id="center-3"
         width="83.440094"
         height="56.538857"
         x="71.507652"
         y="1000.2419"
         ry="5.3846478"
         rx="5.5626888" />
      <path
         d="m 149.48722,997.56266 h -40.71588 c -0.89989,0 -1.68679,-0.44909 -2.24928,-1.236 l -3.03703,-4.49402 c -1.0121,-1.57302 -2.6996,-2.35999 -4.498591,-2.35999 H 78.178605 c -5.174244,0 -9.447682,4.26992 -9.447682,9.4381 v 52.47245 c 0,4.3821 3.5996,8.09 8.098187,8.09 h 34.97966 v 0 0 0 0 0 0 0 h 2.69899 v 0 0 0 0 0 0 0 0 0 h 34.97965 c 4.38652,0 8.09819,-3.596 8.09819,-8.09 v -45.7308 c 0,-4.494 -3.59879,-8.08917 -8.09819,-8.08917 z m -34.97946,61.91054 v 0 h -2.69899 v 0 0 z m 40.37824,-8.0898 c 0,2.9212 -2.36237,5.3931 -5.39859,5.3931 H 76.828708 c -2.924152,0 -5.398588,-2.4719 -5.398588,-5.3931 l -8e-4,-18.09 v -10.2251 c 0,-2.9212 2.47445,-5.3931 5.398588,-5.3931 h 40.715872 c 1.79977,0 3.48651,-0.899 4.4986,-2.36 l 2.92413,-4.494 c 0.56254,-0.674 1.34946,-1.236 2.2493,-1.236 h 20.92031 c 3.71167,0 6.74889,3.034 6.74889,6.7421 v 14.719 z m -6.74889,-44.3824 h -20.9203 c -1.79978,0 -3.48652,0.8989 -4.49859,2.3599 l -2.92415,4.4941 c -0.44955,0.7869 -1.34945,1.236 -2.24929,1.236 H 76.829194 c -2.024137,0 -3.933639,0.2284 -5.39931,2.2916 v -11.756 c 0,-2.6923 2.85447,-5.3846 5.631179,-5.3846 h 22.213682 l 0.05956,0.062 4.105505,-0.062 5.44383,0.017 h 40.71588 c 2.92414,0 5.39859,2.4719 5.39859,5.3931 v 4.1571 c -1.799,-1.7972 -4.16056,-2.8082 -6.86016,-2.8082 z"
         id="path64"
         sodipodi:nodetypes="csccsssssccccccccccccccccccsssccccccccccssccsssccssscccsccscccccccssscc"
         style="fill:url(#linearGradient2232);fill-opacity:1;stroke-width:0.200746" />
      <path
         fill-rule="evenodd"
         clip-rule="evenodd"
         d="m 150.99092,1048.0309 c -0.57452,0 -1.0418,-0.4526 -1.0418,-1.0097 0,-0.558 0.46728,-1.0106 1.0418,-1.0106 0.57504,0 1.04126,0.4526 1.04126,1.0106 0,0.5571 -0.46622,1.0097 -1.04126,1.0097 z m 1.00261,-7.5506 c -0.0143,0.1085 -0.0325,0.216 -0.0554,0.3215 -0.0111,0.051 -0.0264,0.1 -0.0395,0.1498 -0.0233,0.088 -0.0473,0.1765 -0.0762,0.2623 -0.0125,0.038 -0.028,0.075 -0.0422,0.1124 -0.0377,0.099 -0.0762,0.1962 -0.11995,0.2899 -0.0125,0.025 -0.0254,0.051 -0.0376,0.076 -0.0488,0.098 -0.10066,0.1932 -0.15561,0.2859 -0.0178,0.029 -0.0356,0.059 -0.0544,0.088 -0.0615,0.096 -0.12564,0.1904 -0.1942,0.28 -0.0111,0.014 -0.0209,0.027 -0.0321,0.041 -0.0793,0.1026 -0.16472,0.2012 -0.25524,0.2968 -0.003,0.01 -0.007,0.01 -0.01,0.011 -0.0966,0.1006 -0.19726,0.1982 -0.30458,0.2889 -0.73317,0.6261 -1.69407,1.0096 -2.74906,1.0096 v 0.051 c -0.16888,-0.033 -0.34173,-0.051 -0.52071,-0.051 h -23.94887 c -1.43786,0 -2.60421,1.1299 -2.60421,2.5241 v 3.0278 c 0,1.3942 1.16635,2.5241 2.60421,2.5241 h 23.94877 c 1.22792,0 2.27681,-0.9475 2.86251,-1.6712 h 0.003 c 0.19114,-0.2121 0.46675,-0.3481 0.77991,-0.3481 0.57504,0 1.04127,0.4516 1.04127,1.0096 0,1.0471 -1.86438,3.0289 -4.16507,3.0289 h -24.99227 c -2.30042,0 -4.16461,-1.8082 -4.16461,-4.0385 v -4.0396 c 0,-2.2302 1.86419,-4.0375 4.16461,-4.0375 h 1.56163 22.9085 c 1.43793,0 2.6027,-1.1299 2.6027,-2.5241 v -3.0291 c 0,-1.3942 -1.16477,-2.524 -2.6027,-2.524 h -22.9085 -1.56163 c -2.30042,0 -4.16461,-1.8088 -4.16461,-4.0381 v -4.039 c 0,-2.2307 1.86419,-4.038 4.16461,-4.038 h 24.99083 c 2.30068,0 4.16506,1.8073 4.16506,4.038 v 3.0294 c 0,0.5565 -0.46622,1.0096 -1.04126,1.0096 -0.57452,0 -1.0418,-0.4531 -1.0418,-1.0096 v -2.524 c 0,-1.3941 -1.16477,-2.525 -2.6027,-2.525 h -23.94878 c -1.43786,0 -2.6042,1.1309 -2.6042,2.525 v 3.0285 c 0,1.3941 1.16634,2.5235 2.6042,2.5235 h 23.94878 c 0.17897,0 0.35182,-0.019 0.5207,-0.051 v 0.051 c 1.055,0 2.01596,0.3836 2.74907,1.0101 0.10718,0.091 0.20793,0.1883 0.30457,0.2889 0.004,0.01 0.007,0.01 0.01,0.011 0.0905,0.095 0.17591,0.1938 0.25524,0.2968 0.0111,0.014 0.0209,0.027 0.0321,0.041 0.0687,0.09 0.13273,0.1843 0.1942,0.2795 0.0189,0.029 0.0365,0.059 0.0544,0.088 0.055,0.093 0.10676,0.1883 0.15561,0.2859 0.0125,0.024 0.0254,0.05 0.0376,0.076 0.0437,0.094 0.0823,0.1918 0.11995,0.2904 0.0143,0.037 0.03,0.075 0.0422,0.1124 0.029,0.086 0.0529,0.1745 0.0762,0.2623 0.0139,0.05 0.029,0.098 0.0395,0.1498 0.0229,0.105 0.0413,0.2135 0.0554,0.3215 0.004,0.03 0.01,0.058 0.0139,0.089 0.0163,0.1434 0.0254,0.2904 0.0254,0.4383 v 4.0382 c 0,0.1469 -0.01,0.2938 -0.0254,0.4378 -0.003,0.031 -0.01,0.059 -0.0125,0.089 z m -32.24032,-4.5647 c 0.57425,0 1.04023,0.4515 1.04023,1.0096 v 2.018 c 0,0.558 -0.46598,1.0106 -1.04023,1.0106 -0.57556,0 -1.04153,-0.4526 -1.04153,-1.0106 v -2.018 c 0,-0.5581 0.46597,-1.0096 1.04153,-1.0096 z"
         id="path2-5"
         style="fill:url(#linearGradient1122);fill-opacity:1;stroke-width:0.0640825" />
    </g>
  </g>
</svg>
