<?xml version="1.0" encoding="UTF-8" standalone="no"?>
<svg
   width="32"
   version="1.1"
   height="32"
   viewBox="0 0 32 32"
   id="svg15"
   sodipodi:docname="folder-deb.svg"
   inkscape:version="1.1.1 (3bf5ae0d25, 2021-09-20)"
   xmlns:inkscape="http://www.inkscape.org/namespaces/inkscape"
   xmlns:sodipodi="http://sodipodi.sourceforge.net/DTD/sodipodi-0.dtd"
   xmlns:xlink="http://www.w3.org/1999/xlink"
   xmlns="http://www.w3.org/2000/svg"
   xmlns:svg="http://www.w3.org/2000/svg"
   xmlns:rdf="http://www.w3.org/1999/02/22-rdf-syntax-ns#"
   xmlns:cc="http://creativecommons.org/ns#"
   xmlns:dc="http://purl.org/dc/elements/1.1/">
  <sodipodi:namedview
     pagecolor="#ffffff"
     bordercolor="#666666"
     borderopacity="1"
     objecttolerance="10"
     gridtolerance="10"
     guidetolerance="10"
     inkscape:pageopacity="0"
     inkscape:pageshadow="2"
     inkscape:window-width="1920"
     inkscape:window-height="1007"
     id="namedview17"
     showgrid="true"
     inkscape:zoom="9.8125"
     inkscape:cx="1.4267516"
     inkscape:cy="1.7834395"
     inkscape:window-x="0"
     inkscape:window-y="0"
     inkscape:window-maximized="1"
     inkscape:current-layer="g4"
     inkscape:pagecheckerboard="0">
    <inkscape:grid
       type="xygrid"
       id="grid862" />
  </sodipodi:namedview>
  <defs
     id="defs5455">
    <linearGradient
       id="linearGradient4194">
      <stop
         style="stop-color:#b5006a"
         id="stop4196" />
      <stop
         offset="1"
         style="stop-color:#c70073"
         id="stop4198" />
    </linearGradient>
    <linearGradient
       inkscape:collect="always"
       xlink:href="#linearGradient2230"
       id="linearGradient2232"
       x1="384.57144"
       y1="515.79797"
       x2="448.57144"
       y2="515.79797"
       gradientUnits="userSpaceOnUse"
       gradientTransform="matrix(1.3883549,0,0,1.3461638,-465.19071,330.1243)" />
    <linearGradient
       inkscape:collect="always"
       id="linearGradient2230">
      <stop
         style="stop-color:#ff0066;stop-opacity:1"
         offset="0"
         id="stop2226" />
      <stop
         style="stop-color:#ff80b2;stop-opacity:1"
         offset="0.50507295"
         id="stop2332" />
      <stop
         style="stop-color:#ff5599;stop-opacity:1"
         offset="1"
         id="stop2228" />
    </linearGradient>
    <linearGradient
       inkscape:collect="always"
       xlink:href="#linearGradient2230"
       id="linearGradient1235"
       gradientUnits="userSpaceOnUse"
       gradientTransform="matrix(1.3883549,0,0,1.3461638,-440.01428,336.85512)"
       x1="406.83743"
       y1="520.80609"
       x2="426.45447"
       y2="520.80609" />
  </defs>
  <metadata
     id="metadata5458">
    <rdf:RDF>
      <cc:Work
         rdf:about="">
        <dc:format>image/svg+xml</dc:format>
        <dc:type
           rdf:resource="http://purl.org/dc/dcmitype/StillImage" />
      </cc:Work>
    </rdf:RDF>
  </metadata>
  <g
     inkscape:label="Capa 1"
     inkscape:groupmode="layer"
     id="layer1"
     transform="translate(-384.57143,-515.798)">
    <g
       transform="matrix(0.36013848,0,0,0.37142583,359.81878,151.2823)"
       id="g4">
      <rect
         style="fill:#626f9d;fill-opacity:0.2;stroke:none;stroke-width:1.72356"
         id="center-3"
         width="83.440125"
         height="56.538879"
         x="71.507698"
         y="1000.2422"
         ry="5.3846502"
         rx="5.5626912" />
      <path
         d="m 149.48724,997.56267 h -40.7159 c -0.89989,0 -1.68679,-0.4491 -2.24928,-1.23601 l -3.03703,-4.49402 c -1.01209,-1.57302 -2.69959,-2.35999 -4.498578,-2.35999 H 78.178609 c -5.174246,0 -9.447686,4.26993 -9.447686,9.43808 v 52.47257 c 0,4.382 3.599602,8.0899 8.098191,8.0899 h 34.979656 v 0 0 0 0 0 0 0 h 2.69899 v 0 0 0 0 0 0 0 0 0 h 34.97967 c 4.38652,0 8.09819,-3.5959 8.09819,-8.0899 v -45.7308 c 0,-4.494 -3.59879,-8.08927 -8.09819,-8.08927 z m -34.97948,61.91053 v 0 h -2.69899 v 0 0 z m 40.37826,-8.0897 c 0,2.9212 -2.36237,5.3931 -5.39859,5.3931 H 76.828711 c -2.924153,0 -5.39859,-2.4719 -5.39859,-5.3931 l -8e-4,-18.09 v -10.2251 c 0,-2.9212 2.474451,-5.3931 5.39859,-5.3931 h 40.715869 c 1.79978,0 3.48652,-0.899 4.4986,-2.36 l 2.92414,-4.494 c 0.56254,-0.674 1.34946,-1.236 2.2493,-1.236 h 20.92032 c 3.71167,0 6.74889,3.0339 6.74889,6.7421 v 14.719 z m -6.74889,-44.3825 h -20.92031 c -1.79978,0 -3.48652,0.899 -4.49859,2.36 l -2.92415,4.4941 c -0.44955,0.7869 -1.34946,1.2359 -2.24929,1.2359 H 76.829197 c -2.024138,0 -3.93364,0.2285 -5.399312,2.2917 v -11.756 c 0,-2.6923 2.854472,-5.3847 5.631181,-5.3847 h 22.213692 l 0.05956,0.062 4.105492,-0.062 5.44384,0.017 h 40.71589 c 2.92414,0 5.39859,2.472 5.39859,5.3932 v 4.1571 c -1.799,-1.7972 -4.16056,-2.8082 -6.86016,-2.8082 z"
         id="path64"
         sodipodi:nodetypes="csccsssssccccccccccccccccccsssccccccccccssccsssccssscccsccscccccccssscc"
         style="fill:url(#linearGradient2232);fill-opacity:1;stroke-width:0.200746" />
      <path
         style="color:#232629;fill:url(#linearGradient1235);fill-opacity:1;stroke:none;stroke-width:1.49128"
         d="m 140.72333,1053.9399 c -1.81733,-0.2937 -4.39192,-1.3216 -5.90635,-2.2761 -3.48326,-2.2026 -5.76312,-4.6527 -7.17222,-7.7107 -0.45433,-1.0279 -0.72394,-1.7622 -1.51444,-4.4053 -0.15144,-0.6608 -0.40838,-1.4013 -0.50317,-1.632 -0.15989,-0.3892 -0.16692,-0.5205 -0.0975,-1.8188 0.0662,-1.1747 0.30286,-2.9368 0.45429,-3.0778 0.0233,-0.034 0.0744,-0.041 0.11759,-0.018 0.14185,0.082 0.27401,-0.2969 0.40332,-1.161 0.0705,-0.4734 0.18228,-0.9699 0.24747,-1.1033 0.0654,-0.133 0.17574,-0.4277 0.24556,-0.6541 0.1607,-0.5211 0.37981,-0.9216 1.05721,-1.9325 0.29787,-0.4446 0.60755,-0.9288 0.68813,-1.0761 0.0953,-0.1732 0.19841,-0.2581 0.29352,-0.2405 0.0923,0.017 0.24279,-0.096 0.40122,-0.2981 0.68869,-0.8814 3.93252,-3.4817 4.23268,-3.3931 0.0815,0.025 0.42422,-0.086 0.76066,-0.2426 0.60856,-0.2851 0.87665,-0.3511 0.87665,-0.2157 0,0.038 -0.089,0.1279 -0.19543,0.1971 -0.18867,0.1224 -0.18486,0.1243 0.10787,0.058 0.16719,-0.037 0.44883,-0.092 0.62582,-0.12 0.21869,-0.034 0.30757,-0.086 0.27742,-0.1585 -0.0271,-0.064 0.0362,-0.1279 0.15596,-0.1576 0.29906,-0.074 0.76502,-0.062 0.76502,0.021 0,0.099 -0.26644,0.1986 -0.47778,0.1791 -0.14365,-0.012 -0.15152,0 -0.0427,0.067 0.10691,0.068 0.10816,0.084 0.007,0.086 -0.0676,5e-4 -0.10065,0.023 -0.073,0.046 0.0277,0.026 0.20841,-0.03 0.40254,-0.1222 0.19414,-0.093 0.54978,-0.2069 0.79024,-0.2549 0.29601,-0.059 0.43722,-0.1277 0.43722,-0.2121 0,-0.1079 0.13717,-0.119 1.06416,-0.071 0.58524,0.03 1.46844,0.1155 1.96264,0.1896 0.89845,0.1359 0.89855,0.1359 1.23339,-0.042 0.40157,-0.215 1.04751,-0.243 1.21727,-0.054 0.0625,0.069 0.23302,0.1844 0.37981,0.255 0.23952,0.1161 0.25536,0.1165 0.15414,0 -0.19228,-0.2157 -0.002,-0.2102 0.74115,0.022 2.39372,0.7459 4.3451,2.0745 5.79314,3.944 0.34338,0.4434 0.36415,0.6428 0.0384,0.3729 l -0.18611,-0.1544 0.14163,0.2587 c 0.0772,0.1419 0.14165,0.3022 0.14165,0.3553 0,0.054 0.2302,0.446 0.51148,0.873 0.63409,0.9623 0.81148,1.2865 0.76895,1.4053 -0.0193,0.052 -0.29917,-0.288 -0.62424,-0.7532 -0.32509,-0.4652 -0.80613,-1.0919 -1.06903,-1.3927 -0.39259,-0.4493 -0.49541,-0.5262 -0.5755,-0.4302 -0.0547,0.064 -0.18458,0.1286 -0.29107,0.1426 l -0.19356,0.027 0.19144,0.3493 c 0.10482,0.1922 0.2055,0.3103 0.22258,0.2627 0.0922,-0.2552 0.51708,0.08 0.71063,0.5601 0.063,0.1556 0.22964,0.476 0.37088,0.712 0.14061,0.2361 0.2389,0.4458 0.21721,0.4659 -0.0226,0.021 -0.1506,-0.043 -0.28606,-0.1436 l -0.24657,-0.1804 0.16816,0.2686 c 0.0932,0.1477 0.24736,0.3284 0.34414,0.4016 0.12176,0.092 0.17845,0.2355 0.18385,0.4597 0.01,0.4138 0.26472,0.9028 0.4033,0.7738 0.21586,-0.2008 0.26026,-0.074 0.20592,0.5825 -0.0395,0.4846 -0.0196,0.804 0.0754,1.1432 0.14368,0.5148 0.11204,0.6418 -0.0979,0.4012 -0.13397,-0.153 -0.13522,-0.1529 -0.0747,0.01 0.12912,0.3404 0.22483,0.8496 0.1981,1.0495 -0.05,0.373 -0.20039,0.218 -0.2522,-0.2599 l -0.0501,-0.4663 -0.0146,0.4963 c -0.007,0.273 -0.0761,0.8004 -0.15308,1.1721 -0.0761,0.3754 -0.11565,0.8303 -0.0889,1.0235 0.054,0.3634 0.0147,0.3775 -0.31089,0.1182 -0.13287,-0.1053 -0.15576,-0.086 -0.24696,0.2307 -0.0759,0.2653 -0.0754,0.4164 0.003,0.6387 0.0576,0.16 0.0907,0.3771 0.0727,0.4824 -0.0376,0.243 -0.2472,0.3187 -0.2472,0.09 0,-0.2881 -0.11828,-0.1856 -0.47776,0.416 -0.97211,1.6243 -2.51023,2.8813 -4.25113,3.4742 -1.0263,0.3496 -1.71471,0.4793 -2.87206,0.5409 l -1.04246,0.056 0.51505,0.1478 c 0.4153,0.1201 0.65918,0.1365 1.25959,0.092 0.7866,-0.06 1.7101,-0.2179 2.12892,-0.3661 0.1671,-0.06 0.28001,-0.062 0.33773,-0.01 0.13592,0.127 -1.07358,0.6251 -1.79172,0.738 -1.22194,0.192 -2.85762,-0.015 -4.30152,-0.546 -0.97964,-0.36 -2.43342,-1.2973 -2.21063,-1.4254 0.0415,-0.025 0.31876,0.098 0.61461,0.2723 0.37814,0.2225 0.53783,0.2811 0.53783,0.1973 0,-0.1583 0.0568,-0.1507 0.35637,0.049 0.27132,0.1798 1.10576,0.5136 1.70678,0.6827 0.65515,0.1844 0.40111,-0.038 -0.47778,-0.4204 -2.77891,-1.2055 -3.93262,-2.4113 -4.50759,-4.7112 -0.21079,-0.8434 0.0142,-2.6923 0.39961,-3.2713 0.0977,-0.1467 0.17722,-0.3272 0.17722,-0.401 0,-0.3204 0.57406,-1.1667 1.16307,-1.7148 1.03796,-0.9659 2.11711,-1.3668 3.51803,-1.3071 0.67718,0.029 0.96641,0.085 1.53001,0.2931 0.63923,0.2369 1.44412,0.7328 1.19761,0.7378 -0.0587,0 -0.31202,-0.077 -0.56462,-0.1759 -0.38398,-0.1489 -0.6302,-0.1787 -1.5017,-0.1818 -1.22383,0 -1.82198,0.1571 -2.69295,0.7273 -1.23477,0.8085 -1.92139,1.7396 -2.16458,2.9355 -0.16319,0.8024 -0.16817,1.0248 -0.0403,1.8208 0.0728,0.4586 0.12607,0.5932 0.21717,0.5604 0.0762,-0.028 0.12176,0.012 0.12176,0.1109 0,0.2843 0.66469,1.4374 1.12573,1.9529 1.10957,1.2407 2.90441,2.0325 4.60749,2.0325 0.8839,0 1.59843,-0.1579 2.25616,-0.4985 0.26409,-0.1363 0.59748,-0.304 0.7408,-0.3716 0.50572,-0.2385 0.81947,-0.511 1.18626,-1.0302 0.20393,-0.2885 0.42566,-0.5247 0.49268,-0.5247 0.0991,0 0.0952,0.041 -0.0238,0.2223 -0.38771,0.5955 0.5222,-0.4872 0.99347,-1.182 l 0.52788,-0.7782 -0.0583,-0.5112 c -0.0562,-0.4912 -0.0461,-0.5212 0.20538,-0.7679 0.24326,-0.2376 0.26503,-0.3079 0.29313,-0.943 0.0258,-0.5684 0.007,-0.6865 -0.1,-0.6871 -0.10024,-5e-4 -0.14273,-0.1503 -0.18645,-0.6474 -0.0579,-0.658 -0.63291,-2.8721 -0.7669,-2.9491 -0.0399,-0.024 -0.15278,-0.2362 -0.24953,-0.4732 -0.32644,-0.7996 -0.89919,-1.5685 -1.79215,-2.4061 -1.28491,-1.2053 -2.90346,-2.1359 -4.43233,-2.5486 -1.30047,-0.351 -3.50881,-0.2237 -5.08176,0.2932 -0.76772,0.2522 -1.52409,0.5862 -1.65175,0.7293 -0.0586,0.065 -0.14135,0.097 -0.1866,0.071 -0.0459,-0.027 -0.034,-0.099 0.0311,-0.1723 0.28979,-0.325 -0.67179,0.2696 -1.29085,0.7982 -0.37423,0.3195 -0.69408,0.5907 -0.71075,0.6025 -0.016,0.011 0.0571,5e-4 0.16181,-0.026 0.17596,-0.042 0.18336,-0.032 0.089,0.1341 -0.0616,0.1055 -0.3796,0.2975 -0.76992,0.4622 -0.65592,0.2769 -1.08012,0.5811 -1.41714,1.0165 -0.1344,0.1738 -0.14182,0.2112 -0.0357,0.1732 0.074,-0.027 0.13564,-0.01 0.13564,0.037 0,0.2308 -0.22539,0.4885 -0.5593,0.6395 -0.73976,0.3344 -2.03933,2.1208 -2.73538,3.7602 -0.31024,0.7306 -0.30533,0.7052 -0.13633,0.7052 0.17777,0 0.16536,0.1879 -0.0777,1.1971 -0.3557,1.4701 -0.35613,1.423 0.0313,3.4912 0.47198,2.5198 0.74773,3.3616 1.27201,3.8832 0.12384,0.1229 0.24256,0.3827 0.29586,0.6442 0.0639,0.3121 0.17045,0.5182 0.3704,0.7143 0.1823,0.1788 0.24307,0.2884 0.17304,0.3122 -0.13703,0.046 0.29275,0.6433 0.68509,0.9506 0.19746,0.1545 0.3437,0.2065 0.50222,0.1783 0.34734,-0.062 0.70097,0.1248 1.24434,0.655 0.56475,0.5514 0.62132,0.6996 0.24758,0.6486 -0.24102,-0.033 -0.24656,-0.027 -0.12843,0.1412 0.0682,0.097 0.31992,0.3298 0.55929,0.5176 0.33623,0.2639 0.42284,0.378 0.3806,0.5017 -0.0612,0.178 0.11135,0.3441 0.50404,0.4834 0.24287,0.087 0.3211,0.2727 0.13787,0.3294 -0.0562,0.018 0.28672,0.3447 0.76007,0.728 0.53333,0.4317 0.89208,0.6684 0.94323,0.6222 0.13495,-0.1227 0.30817,-0.086 0.31124,0.067 0.003,0.1655 0.15672,0.3394 0.7083,0.8033 0.34855,0.2931 0.43554,0.3299 0.64917,0.2752 0.19567,-0.051 0.31871,-0.018 0.59424,0.1554 0.54969,0.3457 0.883,0.4838 1.16837,0.4838 0.28083,0 0.32082,0.074 0.17504,0.3286 -0.0764,0.1338 -0.0612,0.1564 0.1169,0.1564 0.11246,0 0.43386,0.072 0.7116,0.1616 0.63149,0.2022 0.89491,0.216 0.73666,0.038 -0.23383,-0.2621 0.0125,-0.1905 0.84944,0.2454 1.16726,0.6091 1.75778,0.6787 4.08209,0.4811 0.34411,-0.03 0.45602,-0.011 0.45602,0.069 0,0.07 -0.29855,0.1756 -0.84698,0.299 -0.7208,0.1623 -1.10561,0.1937 -2.58431,0.2109 -1.16517,0.012 -1.96112,-0.015 -2.41678,-0.09 z m -1.18824,-12.1176 c 0,-0.017 -0.1069,-0.092 -0.23892,-0.1664 l -0.23891,-0.135 0.20515,0.1665 c 0.2001,0.1624 0.27268,0.1984 0.27268,0.1349 z m 11.96033,-8.4715 c -0.0282,-0.064 -0.0474,-0.044 -0.0535,0.05 -0.004,0.086 0.016,0.1326 0.0446,0.1053 0.0293,-0.027 0.032,-0.097 0.006,-0.1549 z m -19.71325,-8.4777 c 0.10746,-0.1282 0.10455,-0.1309 -0.0329,-0.031 -0.084,0.061 -0.15201,0.1251 -0.15201,0.141 0,0.066 0.0709,0.024 0.18482,-0.1103 z m 0.98791,-0.7476 c 0.0876,-0.09 0.1373,-0.1617 0.11259,-0.1617 -0.0247,0 -0.11301,0.072 -0.20064,0.1617 -0.0876,0.09 -0.13731,0.1616 -0.1126,0.1616 0.0247,0 0.11315,-0.072 0.20065,-0.1616 z m 1.09345,-0.5683 c 0.28635,-0.091 0.44908,-0.1054 0.50947,-0.051 0.0609,0.057 0.28443,0.024 0.70148,-0.1037 0.33702,-0.1024 0.59727,-0.2014 0.57838,-0.219 -0.02,-0.017 -0.29646,0.05 -0.61666,0.1488 -0.4398,0.1362 -0.59813,0.157 -0.64712,0.084 -0.0828,-0.1252 -0.87335,0.1218 -1.2131,0.3775 l -0.23218,0.1752 0.24952,-0.1389 c 0.13689,-0.076 0.43883,-0.199 0.67021,-0.2719 z m 2.50438,-0.2052 c 0.2523,-0.069 0.44361,-0.1403 0.42529,-0.1578 -0.04,-0.037 -0.93927,0.2017 -0.93927,0.2503 0,0.049 0.007,0.047 0.51398,-0.093 z m 1.44053,-0.4406 0.34751,-0.06 -0.30406,-0.01 c -0.16723,0 -0.40174,0.049 -0.52121,0.1178 -0.14003,0.081 -0.15594,0.1031 -0.0426,0.066 0.0959,-0.032 0.33011,-0.085 0.52123,-0.1178 z m 0.69,-0.1525 c 0.0273,-0.04 -0.0299,-0.055 -0.12592,-0.031 -0.20283,0.05 -0.22851,0.1036 -0.0478,0.1036 0.0687,0 0.14662,-0.033 0.1739,-0.073 z m 2.80467,0.025 c -0.0293,-0.027 -0.10343,-0.03 -0.16649,0 -0.0691,0.026 -0.0481,0.044 0.0536,0.049 0.0923,0 0.14222,-0.014 0.11287,-0.042 z m -0.51943,-0.088 c -0.084,-0.021 -0.22041,-0.021 -0.30402,0 -0.084,0.021 -0.0145,0.037 0.15203,0.037 0.16722,0 0.23561,-0.015 0.15199,-0.037 z m -0.86636,-0.085 c -0.1779,-0.018 -0.49066,-0.019 -0.69493,-5e-4 -0.20433,0.018 -0.0594,0.031 0.32345,0.032 0.3822,2e-4 0.54937,-0.012 0.37148,-0.031 z m -1.13339,-0.07 c -0.0293,-0.027 -0.10343,-0.03 -0.16651,0 -0.0691,0.026 -0.048,0.044 0.0536,0.05 0.0923,0 0.14226,-0.014 0.11288,-0.042 z m -0.58801,19.4287 c -0.88487,-0.59 -1.21269,-0.8951 -1.21269,-1.1288 0,-0.1244 0.0304,-0.2254 0.0669,-0.2254 0.12593,0 1.60451,1.4368 1.57219,1.5271 -0.02,0.053 -0.19722,-0.021 -0.42646,-0.1729 z m -0.45534,-1.498 c -0.45954,-0.4321 -0.60677,-0.6645 -0.42106,-0.6645 0.11065,0 0.9667,0.911 0.9667,1.0299 0,0.057 -0.01,0.1014 -0.0251,0.1014 -0.0125,0 -0.24798,-0.2102 -0.52123,-0.4671 z m 5.08455,-1.7689 c -0.24265,-0.091 -0.0919,-0.2598 0.30404,-0.3388 0.22694,-0.044 0.58758,-0.1553 0.80144,-0.2444 0.21385,-0.09 0.40423,-0.1476 0.42309,-0.13 0.0202,0.018 -0.077,0.1972 -0.21506,0.3993 -0.24785,0.365 -0.2523,0.3672 -0.72716,0.361 -0.26276,0 -0.52662,-0.025 -0.58635,-0.047 z m 2.60604,-1.8081 c -0.23448,-0.088 -0.24418,-0.2369 -0.0478,-0.7452 0.16816,-0.4365 0.34255,-0.5227 0.24551,-0.122 -0.0348,0.1443 -0.0804,0.3537 -0.1033,0.4648 l -0.0396,0.2021 0.17365,-0.184 c 0.10246,-0.1078 0.19781,-0.3644 0.23285,-0.6255 0.0326,-0.2429 0.0944,-0.4217 0.13606,-0.3973 0.1069,0.062 0.0963,0.7009 -0.0213,1.1306 -0.10149,0.3753 -0.19291,0.4191 -0.57603,0.2757 z m -20.55685,-1.0145 c -0.0293,-0.07 -0.0539,-0.3461 -0.0539,-0.613 0,-0.352 0.0302,-0.4759 0.10787,-0.4517 0.1294,0.039 0.20479,1.1926 0.0773,1.1926 -0.0438,0 -0.10468,-0.058 -0.13411,-0.1281 z m 20.89815,-1.8907 c -0.13481,-0.1699 -0.17657,-0.304 -0.13786,-0.446 0.0776,-0.2914 0.28426,-0.25 0.43594,0.089 0.23608,0.5257 0.0314,0.772 -0.29763,0.3581 z m -20.91597,-1.2833 c -0.005,-0.4584 -7e-5,-0.4725 0.21795,-0.4648 0.1849,0 0.22958,0.053 0.2508,0.2548 0.0249,0.2288 -0.24339,0.6828 -0.40217,0.6828 -0.0329,0 -0.0632,-0.2128 -0.0667,-0.4728 z m 22.51727,-9.937 c 0.0111,-0.7233 0.14256,-0.9684 0.24516,-0.462 0.0708,0.3529 -0.0206,0.9761 -0.15716,1.0825 -0.0743,0.058 -0.0976,-0.1 -0.089,-0.6205 z m -11.41437,-0.4335 c 0.0349,-0.097 1.23327,-0.5542 1.45433,-0.5542 0.2597,0 -0.20617,0.2962 -0.74347,0.4725 -0.59911,0.1968 -0.75861,0.2151 -0.71086,0.082 z"
         class="ColorScheme-Text"
         id="path12-7" />
    </g>
  </g>
</svg>
