<?xml version="1.0" encoding="UTF-8" standalone="no"?>
<svg
   width="32"
   version="1.1"
   height="32"
   viewBox="0 0 32 32"
   id="svg15"
   sodipodi:docname="folder-presentation.svg"
   inkscape:version="1.1.1 (3bf5ae0d25, 2021-09-20)"
   xmlns:inkscape="http://www.inkscape.org/namespaces/inkscape"
   xmlns:sodipodi="http://sodipodi.sourceforge.net/DTD/sodipodi-0.dtd"
   xmlns:xlink="http://www.w3.org/1999/xlink"
   xmlns="http://www.w3.org/2000/svg"
   xmlns:svg="http://www.w3.org/2000/svg"
   xmlns:rdf="http://www.w3.org/1999/02/22-rdf-syntax-ns#"
   xmlns:cc="http://creativecommons.org/ns#"
   xmlns:dc="http://purl.org/dc/elements/1.1/">
  <sodipodi:namedview
     pagecolor="#ffffff"
     bordercolor="#666666"
     borderopacity="1"
     objecttolerance="10"
     gridtolerance="10"
     guidetolerance="10"
     inkscape:pageopacity="0"
     inkscape:pageshadow="2"
     inkscape:window-width="1920"
     inkscape:window-height="1007"
     id="namedview17"
     showgrid="true"
     inkscape:zoom="9.8125"
     inkscape:cx="1.4267516"
     inkscape:cy="18.089172"
     inkscape:window-x="0"
     inkscape:window-y="0"
     inkscape:window-maximized="1"
     inkscape:current-layer="g4"
     inkscape:pagecheckerboard="0">
    <inkscape:grid
       type="xygrid"
       id="grid862" />
  </sodipodi:namedview>
  <defs
     id="defs5455">
    <linearGradient
       inkscape:collect="always"
       xlink:href="#linearGradient2230"
       id="linearGradient2232"
       x1="384.57144"
       y1="515.79797"
       x2="448.57144"
       y2="515.79797"
       gradientUnits="userSpaceOnUse"
       gradientTransform="matrix(1.3883548,0,0,1.3461637,-465.1906,330.12434)" />
    <linearGradient
       inkscape:collect="always"
       id="linearGradient2230">
      <stop
         style="stop-color:#4e99ca;stop-opacity:0.80000001"
         offset="0"
         id="stop2226" />
      <stop
         style="stop-color:#20ffff;stop-opacity:0.80000001"
         offset="0.50507295"
         id="stop2332" />
      <stop
         style="stop-color:#ffaeff;stop-opacity:0.69"
         offset="1"
         id="stop2228" />
    </linearGradient>
    <linearGradient
       inkscape:collect="always"
       xlink:href="#linearGradient2230"
       id="linearGradient1063"
       gradientUnits="userSpaceOnUse"
       gradientTransform="matrix(1.3883548,0,0,1.3461637,-442.99635,336.83497)"
       x1="404.58542"
       y1="520.81299"
       x2="428.58542"
       y2="520.81299" />
    <linearGradient
       inkscape:collect="always"
       xlink:href="#linearGradient2230"
       id="linearGradient1065"
       gradientUnits="userSpaceOnUse"
       gradientTransform="matrix(1.3883548,0,0,1.3461637,-442.99635,336.83497)"
       x1="410.23141"
       y1="520.77289"
       x2="423.03143"
       y2="520.77289" />
  </defs>
  <metadata
     id="metadata5458">
    <rdf:RDF>
      <cc:Work
         rdf:about="">
        <dc:format>image/svg+xml</dc:format>
        <dc:type
           rdf:resource="http://purl.org/dc/dcmitype/StillImage" />
      </cc:Work>
    </rdf:RDF>
  </metadata>
  <g
     inkscape:label="Capa 1"
     inkscape:groupmode="layer"
     id="layer1"
     transform="translate(-384.57143,-515.798)">
    <g
       transform="matrix(0.36013848,0,0,0.37142583,359.81878,151.2823)"
       id="g4">
      <rect
         style="fill:#626f9d;fill-opacity:0.2;stroke:none;stroke-width:1.72356"
         id="center-3"
         width="83.440117"
         height="56.538876"
         x="71.507629"
         y="1000.2421"
         ry="5.3846498"
         rx="5.5626907" />
      <path
         d="m 149.48729,997.56262 h -40.7159 c -0.89989,0 -1.68679,-0.44905 -2.24929,-1.23596 l -3.03702,-4.49402 c -1.0121,-1.57302 -2.6996,-2.35999 -4.49859,-2.35999 H 78.178647 c -5.174245,0 -9.447685,4.26992 -9.447685,9.43819 v 52.47266 c 0,4.3821 3.599601,8.09 8.098191,8.09 h 34.979667 v 0 0 0 0 0 0 0 h 2.69899 v 0 0 0 0 0 0 0 0 0 h 34.97967 c 4.38652,0 8.09819,-3.596 8.09819,-8.09 v -45.7308 c 0,-4.494 -3.5988,-8.08948 -8.09819,-8.08948 z m -34.97948,61.91088 v 0 h -2.69899 v 0 0 z m 40.37826,-8.0897 c 0,2.9211 -2.36237,5.3931 -5.39859,5.3931 H 76.82875 c -2.924153,0 -5.39859,-2.472 -5.39859,-5.3931 l -8e-4,-18.0901 v -10.225 c 0,-2.9212 2.474451,-5.3932 5.39859,-5.3932 h 40.71588 c 1.79978,0 3.48652,-0.8989 4.4986,-2.3599 l 2.92414,-4.4941 c 0.56253,-0.674 1.34945,-1.236 2.2493,-1.236 h 20.92031 c 3.71167,0 6.7489,3.034 6.7489,6.7421 v 14.719 z m -6.74889,-44.3825 h -20.92031 c -1.79978,0 -3.48652,0.8989 -4.49859,2.3599 l -2.92416,4.4941 c -0.44955,0.7869 -1.34945,1.236 -2.24928,1.236 H 76.829236 c -2.024138,0 -3.93364,0.2284 -5.399312,2.2917 v -11.7561 c 0,-2.6923 2.854471,-5.3847 5.631181,-5.3847 h 22.21369 l 0.05956,0.062 4.105505,-0.062 5.44383,0.017 h 40.71589 c 2.92414,0 5.39859,2.472 5.39859,5.3932 v 4.1571 c -1.799,-1.7972 -4.16056,-2.8082 -6.86016,-2.8082 z"
         id="path64"
         sodipodi:nodetypes="csccsssssccccccccccccccccccsssccccccccccssccsssccssscccsccscccccccssscc"
         style="fill:url(#linearGradient2232);fill-opacity:1;stroke-width:0.200746" />
      <path
         fill-rule="evenodd"
         clip-rule="evenodd"
         d="m 147.2734,1054.0888 h -17.85147 c -0.6563,0 -1.18883,-0.5178 -1.18883,-1.1538 0,-0.6378 0.53253,-1.1545 1.18883,-1.1545 h 17.85147 c 1.31437,0 2.38003,-1.0332 2.38003,-2.3077 v -23.0771 c 0,-1.2744 -1.06566,-2.3071 -2.38003,-2.3071 h -23.80097 c -1.31408,0 -2.38033,1.0327 -2.38033,2.3071 v 21.9233 c 0,0.6378 -0.53224,1.1538 -1.19002,1.1538 -0.65659,0 -1.19032,-0.516 -1.19032,-1.1538 v -21.9233 c 0,-2.5488 2.13222,-4.6148 4.76067,-4.6148 h 23.80097 c 2.62816,0 4.75888,2.066 4.75888,4.6148 v 23.0771 c 0,2.5489 -2.13072,4.616 -4.75888,4.616 z m -22.61065,-2.3083 c 0.65629,0 1.19002,0.5167 1.19002,1.1545 0,0.636 -0.53373,1.1538 -1.19002,1.1538 -0.65779,0 -1.19032,-0.5178 -1.19032,-1.1538 0,-0.6378 0.53253,-1.1545 1.19032,-1.1545 z"
         id="path2-5"
         style="fill:url(#linearGradient1063);fill-opacity:1;stroke-width:0.0732375" />
      <path
         fill-rule="evenodd"
         clip-rule="evenodd"
         d="m 143.76601,1042.727 c -0.30669,0 -0.55534,-0.2411 -0.55534,-0.5385 v -8.6154 c 0,-0.2974 -0.24865,-0.5385 -0.55534,-0.5385 h -1.11069 c -0.30668,0 -0.55534,0.2411 -0.55534,0.5385 v 11.0385 c 0,0.7436 -0.62149,1.3462 -1.38835,1.3462 h -0.55534 c -0.76686,0 -1.38836,-0.6026 -1.38836,-1.3462 v -5.6539 c 0,-0.2973 -0.24865,-0.5384 -0.55534,-0.5384 h -1.11068 c -0.30669,0 -0.55535,0.2411 -0.55535,0.5384 v 5.6539 c 0,0.7436 -0.62149,1.3462 -1.38835,1.3462 h -0.55534 c -0.76686,0 -1.38836,-0.6026 -1.38836,-1.3462 v -3.5 c 0,-0.2974 -0.24865,-0.5385 -0.55534,-0.5385 h -1.11068 c -0.30669,0 -0.55535,0.2411 -0.55535,0.5385 v 3.7693 c 0,0.5947 -0.49733,1.0769 -1.11068,1.0769 -1.22675,0 -2.22137,-0.9644 -2.22137,-2.1539 v -9.6923 -3.7693 c 0,-0.2974 0.24866,-0.5385 0.55535,-0.5385 0.30668,0 0.55534,0.2411 0.55534,0.5385 v 1.9059 1.8634 9.6923 c 0,0.5948 0.42789,1.077 0.83301,1.077 0.15348,0 0.27767,-0.1204 0.27767,-0.2693 v -3.7692 c 0,-0.7436 0.6215,-1.3462 1.38836,-1.3462 h 1.66602 c 0.76686,0 1.38836,0.6026 1.38836,1.3462 v 3.5 c 0,0.2974 0.24865,0.5385 0.55534,0.5385 0.30669,0 0.55534,-0.2411 0.55534,-0.5385 v -5.6539 c 0,-0.7435 0.6215,-1.3461 1.38835,-1.3461 h 1.66603 c 0.76686,0 1.38836,0.6026 1.38836,1.3461 v 5.6539 c 0,0.2974 0.24865,0.5385 0.55534,0.5385 0.30668,0 0.55534,-0.2411 0.55534,-0.5385 v -11.0385 c 0,-0.7436 0.6215,-1.3462 1.38835,-1.3462 h 1.66603 c 0.76686,0 1.38835,0.6026 1.38835,1.3462 v 8.8846 c 0,0.2974 -0.24865,0.5385 -0.55534,0.5385 z m 0,1.0769 c 0.30669,0 0.55534,0.2411 0.55534,0.5385 0,0.2974 -0.24865,0.5385 -0.55534,0.5385 -0.30669,0 -0.55534,-0.2411 -0.55534,-0.5385 0,-0.2974 0.24865,-0.5385 0.55534,-0.5385 z"
         id="path2-3-3-3"
         style="fill:url(#linearGradient1065);fill-opacity:1;stroke-width:0.0341774" />
    </g>
  </g>
</svg>
