<?xml version="1.0" encoding="UTF-8" standalone="no"?>
<svg
   width="32"
   version="1.1"
   height="32"
   viewBox="0 0 32 32"
   id="svg17"
   sodipodi:docname="folder-important.svg"
   inkscape:version="1.1.1 (3bf5ae0d25, 2021-09-20)"
   xmlns:inkscape="http://www.inkscape.org/namespaces/inkscape"
   xmlns:sodipodi="http://sodipodi.sourceforge.net/DTD/sodipodi-0.dtd"
   xmlns:xlink="http://www.w3.org/1999/xlink"
   xmlns="http://www.w3.org/2000/svg"
   xmlns:svg="http://www.w3.org/2000/svg"
   xmlns:rdf="http://www.w3.org/1999/02/22-rdf-syntax-ns#"
   xmlns:cc="http://creativecommons.org/ns#"
   xmlns:dc="http://purl.org/dc/elements/1.1/">
  <sodipodi:namedview
     pagecolor="#ffffff"
     bordercolor="#666666"
     borderopacity="1"
     objecttolerance="10"
     gridtolerance="10"
     guidetolerance="10"
     inkscape:pageopacity="0"
     inkscape:pageshadow="2"
     inkscape:window-width="1920"
     inkscape:window-height="1007"
     id="namedview19"
     showgrid="false"
     inkscape:zoom="6.9384853"
     inkscape:cx="-38.04865"
     inkscape:cy="0.64855654"
     inkscape:window-x="0"
     inkscape:window-y="0"
     inkscape:window-maximized="1"
     inkscape:current-layer="layer1"
     inkscape:pagecheckerboard="0" />
  <defs
     id="defs5455">
    <linearGradient
       inkscape:collect="always"
       xlink:href="#linearGradient956"
       id="linearGradient2232"
       x1="384.57144"
       y1="515.79797"
       x2="448.57144"
       y2="515.79797"
       gradientUnits="userSpaceOnUse"
       gradientTransform="matrix(0.4999999,0,0,0.4999999,192.28576,273.89904)" />
    <linearGradient
       inkscape:collect="always"
       id="linearGradient956">
      <stop
         style="stop-color:#4e99ca;stop-opacity:0.80000001"
         offset="0"
         id="stop950" />
      <stop
         style="stop-color:#20ffff;stop-opacity:0.80000001"
         offset="0.50507295"
         id="stop952" />
      <stop
         style="stop-color:#aa87de;stop-opacity:0.80000001"
         offset="1"
         id="stop954" />
    </linearGradient>
    <linearGradient
       inkscape:collect="always"
       xlink:href="#linearGradient956"
       id="linearGradient1005"
       gradientUnits="userSpaceOnUse"
       x1="403.76944"
       y1="520.79797"
       x2="429.47806"
       y2="520.79797"
       gradientTransform="matrix(0.46676921,0,0,0.46676921,214.10446,294.05691)" />
  </defs>
  <metadata
     id="metadata5458">
    <rdf:RDF>
      <cc:Work
         rdf:about="">
        <dc:format>image/svg+xml</dc:format>
        <dc:type
           rdf:resource="http://purl.org/dc/dcmitype/StillImage" />
      </cc:Work>
    </rdf:RDF>
  </metadata>
  <g
     inkscape:label="Capa 1"
     inkscape:groupmode="layer"
     id="layer1"
     transform="translate(-384.57143,-515.798)">
    <rect
       style="fill:#626f9d;fill-opacity:0.2;stroke:none;stroke-width:0.630375"
       id="center-3"
       width="30.049994"
       height="20.999996"
       x="385.57147"
       y="522.79797"
       ry="1.9999976"
       rx="2.0033386" />
    <path
       d="m 413.65489,521.80284 h -14.66336 c -0.32408,0 -0.60748,-0.16681 -0.81006,-0.45909 l -1.09375,-1.66919 c -0.36449,-0.58426 -0.97222,-0.87656 -1.62011,-0.87656 h -7.49371 c -1.86344,0 -3.40247,1.58596 -3.40247,3.50555 v 19.48962 c 0,1.62762 1.29635,3.00483 2.91647,3.00483 h 12.59752 v 0 0 0 0 0 0 0 h 0.97201 v 0 0 0 0 0 0 0 0 0 h 12.59752 c 1.57976,0 2.91647,-1.33563 2.91647,-3.00483 v -16.9856 c 0,-1.66919 -1.29606,-3.00452 -2.91647,-3.00452 z M 401.05744,544.798 v 0 h -0.97201 v 0 0 z m 14.54176,-3.00473 c 0,1.08499 -0.85078,2.00314 -1.94424,2.00314 h -26.1672 c -1.0531,0 -1.94424,-0.91815 -1.94424,-2.00314 l -3e-4,-6.71912 v -3.79784 c 0,-1.08501 0.89115,-2.00314 1.94425,-2.00314 h 14.66335 c 0.64817,0 1.25563,-0.33391 1.62012,-0.87656 l 1.0531,-1.6692 c 0.20259,-0.25036 0.48599,-0.45909 0.81006,-0.45909 h 7.5342 c 1.33672,0 2.43054,1.12689 2.43054,2.50418 v 5.46703 z m -2.43054,-16.4848 h -7.5342 c -0.64817,0 -1.25563,0.3339 -1.62012,0.87655 l -1.0531,1.6692 c -0.1619,0.29228 -0.48599,0.45908 -0.81005,0.45908 h -14.66326 c -0.72897,0 -1.41665,0.0848 -1.9445,0.8512 v -4.3665 c 0,-1 1.02801,-2 2.02801,-2 h 8 l 0.0214,0.0232 1.47855,-0.0232 1.96054,0.006 h 14.66335 c 1.0531,0 1.94424,0.91814 1.94424,2.00314 v 1.54407 c -0.64789,-0.66751 -1.49838,-1.04304 -2.47061,-1.04304 z"
       id="path64"
       sodipodi:nodetypes="csccsssssccccccccccccccccccsssccccccccccssccsssccssscccsccscccccccssscc"
       style="fill:url(#linearGradient2232);fill-opacity:1;stroke-width:0.0734205" />
    <path
       d="m 407.77464,537.9475 c -0.22091,0 -0.40003,-0.17912 -0.40003,-0.40004 v -2.40008 c 0,-0.66273 0.53736,-1.20006 1.20008,-1.20006 0.66265,0 1.19998,0.53733 1.19998,1.20006 v 3.20016 c 0,0.0791 -0.009,0.15585 -0.0236,0.23082 -0.0127,0.062 -0.0306,0.12093 -0.0527,0.17911 -0.003,0.008 -0.006,0.0187 -0.008,0.028 -0.0261,0.0654 -0.0578,0.12772 -0.0945,0.1869 -10e-4,0.002 -0.002,0.004 -0.003,0.005 -0.0385,0.0606 -0.0815,0.1178 -0.12907,0.17052 -0.21955,0.24358 -0.53466,0.4 -0.88868,0.4 -0.018,0 -0.0326,0.002 -0.0447,0.005 -0.19964,0.0228 -0.35511,0.19007 -0.35511,0.39554 0,0.2209 0.17909,0.40001 0.40001,0.40001 0.22082,0 0.39994,-0.17911 0.39994,-0.40001 0,-0.22093 0.17915,-0.40004 0.40005,-0.40004 0.22091,0 0.4,0.17911 0.4,0.40004 0,0.66271 -0.53732,1.20004 -1.19999,1.20004 -0.6627,0 -1.20007,-0.53733 -1.20007,-1.20004 0,-0.0791 0.009,-0.15585 0.0236,-0.23088 0.0127,-0.0619 0.0306,-0.1209 0.0527,-0.17911 0.003,-0.008 0.005,-0.0185 0.008,-0.028 0.0261,-0.0655 0.0578,-0.12774 0.0945,-0.18695 10e-4,-0.002 0.002,-0.004 0.003,-0.005 0.0385,-0.0606 0.0815,-0.11777 0.12914,-0.17051 0.21954,-0.24355 0.53457,-0.40004 0.88869,-0.40004 0.0316,0 0.0627,-0.005 0.0922,-0.0117 0.01,-0.003 0.019,-0.005 0.0285,-0.009 0.16172,-0.0514 0.2795,-0.20075 0.2795,-0.3795 v -3.20012 c 0,-0.2209 -0.17913,-0.40002 -0.39993,-0.40002 -0.22091,0 -0.40003,0.1791 -0.40003,0.40002 v 2.40011 c -4e-5,0.22093 -0.17915,0.40006 -0.40006,0.40006 z m 4.40191,4.80298 c -1.20085,-0.007 -2.40149,-0.003 -3.60187,-0.003 -0.80004,0 -1.60004,-10e-4 -2.40013,0 -0.22087,0 -0.39998,-0.17909 -0.39998,-0.40001 0,-0.22089 0.17911,-0.39999 0.39998,-0.39999 v -0.006 c 0.77542,-3.7e-4 1.58681,0.003 2.40013,0.003 1.16445,0 2.32914,-0.006 3.38332,0 2.1079,0.0124 2.21727,-0.54496 1.15278,-2.42065 -1.06413,-1.8759 -1.98917,-3.87283 -3.0324,-5.76123 -1.0432,-1.88816 -1.96428,-1.88816 -3.00747,0 -1.04322,1.88841 -1.97314,3.88536 -3.03785,5.76123 -0.40996,0.7223 -0.65861,1.08012 -0.65861,1.82335 0,0.22089 -0.17913,0.4 -0.40006,0.4 -0.22094,0 -0.39996,-0.17911 -0.39996,-0.4 v 0.0572 c -4.3e-4,-0.0186 -0.003,-0.0378 -0.003,-0.0572 0.004,-0.47192 0.20687,-1.06316 0.61097,-1.77335 1.21367,-2.13194 2.22778,-4.27052 3.41731,-6.4165 1.18975,-2.14624 2.7542,-2.14624 3.94328,0 1.18972,2.14598 2.20384,4.28456 3.41758,6.4165 1.21375,2.13157 0.61861,3.19022 -1.78427,3.17616 z m -7.60208,-0.80275 c 0.22091,0 0.40003,0.1791 0.40003,0.39999 0,0.22092 -0.1791,0.40003 -0.40003,0.40003 -0.22094,0 -0.40004,-0.17911 -0.40004,-0.40003 0,-0.22089 0.1791,-0.39999 0.40004,-0.39999 z m 1.59505,0.80002"
       id="path2-7"
       style="fill:url(#linearGradient1005);fill-opacity:1;stroke-width:0.0250053" />
  </g>
</svg>
