<?xml version="1.0" encoding="UTF-8" standalone="no"?>
<svg
   width="32"
   version="1.1"
   height="32"
   viewBox="0 0 32 32"
   id="svg15"
   sodipodi:docname="folder-godot.svg"
   inkscape:version="1.1.1 (3bf5ae0d25, 2021-09-20)"
   xmlns:inkscape="http://www.inkscape.org/namespaces/inkscape"
   xmlns:sodipodi="http://sodipodi.sourceforge.net/DTD/sodipodi-0.dtd"
   xmlns:xlink="http://www.w3.org/1999/xlink"
   xmlns="http://www.w3.org/2000/svg"
   xmlns:svg="http://www.w3.org/2000/svg"
   xmlns:rdf="http://www.w3.org/1999/02/22-rdf-syntax-ns#"
   xmlns:cc="http://creativecommons.org/ns#"
   xmlns:dc="http://purl.org/dc/elements/1.1/">
  <sodipodi:namedview
     pagecolor="#ffffff"
     bordercolor="#666666"
     borderopacity="1"
     objecttolerance="10"
     gridtolerance="10"
     guidetolerance="10"
     inkscape:pageopacity="0"
     inkscape:pageshadow="2"
     inkscape:window-width="1920"
     inkscape:window-height="1007"
     id="namedview17"
     showgrid="true"
     inkscape:zoom="9.8125"
     inkscape:cx="-1.9363057"
     inkscape:cy="18.089172"
     inkscape:window-x="0"
     inkscape:window-y="0"
     inkscape:window-maximized="1"
     inkscape:current-layer="g4"
     inkscape:pagecheckerboard="0">
    <inkscape:grid
       type="xygrid"
       id="grid862" />
  </sodipodi:namedview>
  <defs
     id="defs5455">
    <linearGradient
       inkscape:collect="always"
       xlink:href="#linearGradient2230"
       id="linearGradient2232"
       x1="384.57144"
       y1="515.79797"
       x2="448.57144"
       y2="515.79797"
       gradientUnits="userSpaceOnUse"
       gradientTransform="matrix(1.388355,0,0,1.3461639,-465.19077,330.12426)" />
    <linearGradient
       inkscape:collect="always"
       id="linearGradient2230">
      <stop
         style="stop-color:#4e99ca;stop-opacity:0.80000001"
         offset="0"
         id="stop2226" />
      <stop
         style="stop-color:#20ffff;stop-opacity:0.80000001"
         offset="0.50507295"
         id="stop2332" />
      <stop
         style="stop-color:#ffaeff;stop-opacity:0.69"
         offset="1"
         id="stop2228" />
    </linearGradient>
    <linearGradient
       inkscape:collect="always"
       xlink:href="#linearGradient2230"
       id="linearGradient1026"
       gradientUnits="userSpaceOnUse"
       gradientTransform="matrix(1.388355,0,0,1.3461639,-442.97707,336.85508)"
       x1="404.57144"
       y1="520.79797"
       x2="428.57144"
       y2="520.79797" />
  </defs>
  <metadata
     id="metadata5458">
    <rdf:RDF>
      <cc:Work
         rdf:about="">
        <dc:format>image/svg+xml</dc:format>
        <dc:type
           rdf:resource="http://purl.org/dc/dcmitype/StillImage" />
      </cc:Work>
    </rdf:RDF>
  </metadata>
  <g
     inkscape:label="Capa 1"
     inkscape:groupmode="layer"
     id="layer1"
     transform="translate(-384.57143,-515.798)">
    <g
       transform="matrix(0.36013848,0,0,0.37142583,359.81878,151.2823)"
       id="g4">
      <rect
         style="fill:#626f9d;fill-opacity:0.2;stroke:none;stroke-width:1.72357"
         id="center-3"
         width="83.440132"
         height="56.538883"
         x="71.507614"
         y="1000.242"
         ry="5.3846507"
         rx="5.5626917" />
      <path
         d="m 149.48722,997.56267 h -40.71589 c -0.89989,0 -1.6868,-0.4491 -2.24929,-1.23601 l -3.03703,-4.49402 c -1.01209,-1.57302 -2.6996,-2.35999 -4.498587,-2.35999 H 78.178578 c -5.174246,0 -9.447686,4.26993 -9.447686,9.43811 v 52.47244 c 0,4.3821 3.599602,8.09 8.098191,8.09 h 34.979677 v 0 0 0 0 0 0 0 h 2.69899 v 0 0 0 0 0 0 0 0 0 h 34.97967 c 4.38652,0 8.09819,-3.596 8.09819,-8.09 v -45.7308 c 0,-4.494 -3.5988,-8.08917 -8.09819,-8.08917 z m -34.97947,61.91053 v 0 h -2.69899 v 0 0 z m 40.37826,-8.0897 c 0,2.9211 -2.36237,5.3931 -5.39859,5.3931 H 76.828681 c -2.924154,0 -5.398591,-2.472 -5.398591,-5.3931 l -8e-4,-18.0901 v -10.2251 c 0,-2.9211 2.474451,-5.3931 5.398591,-5.3931 h 40.715879 c 1.79978,0 3.48652,-0.899 4.4986,-2.3599 l 2.92414,-4.4941 c 0.56254,-0.674 1.34945,-1.236 2.2493,-1.236 h 20.92032 c 3.71167,0 6.74889,3.034 6.74889,6.7421 v 14.719 z m -6.74889,-44.3825 H 127.2168 c -1.79978,0 -3.48652,0.8989 -4.49859,2.3599 l -2.92415,4.4941 c -0.44955,0.7869 -1.34945,1.236 -2.24929,1.236 H 76.829167 c -2.024138,0 -3.933641,0.2284 -5.399313,2.2917 v -11.7561 c 0,-2.6923 2.854472,-5.3846 5.631182,-5.3846 h 22.213693 l 0.05956,0.062 4.105501,-0.062 5.44384,0.017 h 40.7159 c 2.92414,0 5.39859,2.4719 5.39859,5.3931 v 4.1571 c -1.799,-1.7971 -4.16057,-2.8082 -6.86017,-2.8082 z"
         id="path64"
         sodipodi:nodetypes="csccsssssccccccccccccccccccsssccccccccccssccsssccssscccsccscccccccssscc"
         style="fill:url(#linearGradient2232);fill-opacity:1;stroke-width:0.200746" />
      <path
         style="color:#232629;fill:url(#linearGradient1026);fill-opacity:1;stroke:none;stroke-width:1.64052"
         d="m 132.03988,1021.7806 -4.99808,1.6154 v 4.0385 l -2.49904,2.4231 -2.83224,-2.1 -2.99885,3.7154 1.66603,3.2308 v 9.6923 h 6.6641 v 3.2308 h 4.99808 v -3.2308 h 6.6641 v 3.2308 h 4.99808 v -3.2308 h 6.6641 v -9.6923 l 1.66603,-3.2308 -2.99885,-3.7154 -2.83224,2.1 -2.49904,-2.4231 v -4.0385 c 0,0 -3.49865,-1.2923 -4.99808,-1.6154 -0.66641,0.9692 -1.16622,2.1 -1.66602,3.2308 h -3.33206 c -0.4998,-1.1308 -1.66602,-3.2308 -1.66602,-3.2308 z m -4.16507,12.9232 a 4.1650649,4.0384918 0 0 1 4.16507,4.0385 4.1650649,4.0384918 0 0 1 -4.16507,4.0385 4.1650649,4.0384918 0 0 1 -4.16506,-4.0385 4.1650649,4.0384918 0 0 1 4.16506,-4.0385 z m 14.99424,0 a 4.1650649,4.0384918 0 0 1 4.16506,4.0385 4.1650649,4.0384918 0 0 1 -4.16506,4.0385 4.1650649,4.0384918 0 0 1 -4.16507,-4.0385 4.1650649,4.0384918 0 0 1 4.16507,-4.0385 z m -14.99424,1.6154 a 2.499039,2.4230951 0 0 0 -2.49904,2.4231 2.499039,2.4230951 0 0 0 2.49904,2.4231 2.499039,2.4230951 0 0 0 2.49904,-2.4231 2.499039,2.4230951 0 0 0 -2.49904,-2.4231 z m 7.49712,0 c 0.83301,0 1.66603,0.8077 1.66603,1.6154 v 3.2308 c 0,0.8077 -0.83302,1.6154 -1.66603,1.6154 -0.83301,0 -1.66603,-0.8077 -1.66603,-1.6154 v -3.2308 c 0,-0.8077 0.74305,-1.6154 1.66603,-1.6154 z m 7.49712,0 a 2.499039,2.4230951 0 0 0 -2.49904,2.4231 2.499039,2.4230951 0 0 0 2.49904,2.4231 2.499039,2.4230951 0 0 0 2.49904,-2.4231 2.499039,2.4230951 0 0 0 -2.49904,-2.4231 z m -22.49135,9.6923 v 0.8077 c 0,5.3309 6.8307,7.2693 14.99423,7.2693 v 0 0 c 8.16353,0 14.99423,-2.4231 14.99423,-7.7539 0,-0.1615 0,0.1616 0,-0.3231 h -4.99807 v 3.2308 h -8.33013 v -3.2308 h -3.33206 v 3.2308 h -8.33013 v -3.2308 z"
         class="ColorScheme-Text"
         id="path12-5" />
    </g>
  </g>
</svg>
