<?xml version="1.0" encoding="UTF-8" standalone="no"?>
<svg
   width="32"
   version="1.1"
   height="32"
   viewBox="0 0 32 32"
   id="svg17"
   sodipodi:docname="folder-documents.svg"
   inkscape:version="1.1.1 (3bf5ae0d25, 2021-09-20)"
   xmlns:inkscape="http://www.inkscape.org/namespaces/inkscape"
   xmlns:sodipodi="http://sodipodi.sourceforge.net/DTD/sodipodi-0.dtd"
   xmlns:xlink="http://www.w3.org/1999/xlink"
   xmlns="http://www.w3.org/2000/svg"
   xmlns:svg="http://www.w3.org/2000/svg"
   xmlns:rdf="http://www.w3.org/1999/02/22-rdf-syntax-ns#"
   xmlns:cc="http://creativecommons.org/ns#"
   xmlns:dc="http://purl.org/dc/elements/1.1/">
  <sodipodi:namedview
     pagecolor="#ffffff"
     bordercolor="#666666"
     borderopacity="1"
     objecttolerance="10"
     gridtolerance="10"
     guidetolerance="10"
     inkscape:pageopacity="0"
     inkscape:pageshadow="2"
     inkscape:window-width="1920"
     inkscape:window-height="1007"
     id="namedview19"
     showgrid="true"
     inkscape:zoom="9.8125"
     inkscape:cx="-23.541401"
     inkscape:cy="-6.2675159"
     inkscape:window-x="0"
     inkscape:window-y="0"
     inkscape:window-maximized="1"
     inkscape:current-layer="layer1"
     inkscape:pagecheckerboard="0">
    <inkscape:grid
       type="xygrid"
       id="grid887" />
  </sodipodi:namedview>
  <defs
     id="defs5455">
    <linearGradient
       inkscape:collect="always"
       xlink:href="#linearGradient1025"
       id="linearGradient2232"
       x1="384.57144"
       y1="515.79797"
       x2="448.57144"
       y2="515.79797"
       gradientUnits="userSpaceOnUse"
       gradientTransform="matrix(0.4999999,0,0,0.4999999,192.28574,273.89905)" />
    <linearGradient
       inkscape:collect="always"
       id="linearGradient1025">
      <stop
         style="stop-color:#ffaeff;stop-opacity:0.80000001"
         offset="0"
         id="stop1019" />
      <stop
         style="stop-color:#abe9b3;stop-opacity:0.80000001"
         offset="0.50507295"
         id="stop1021" />
      <stop
         style="stop-color:#96cdfb;stop-opacity:0.6901961"
         offset="1"
         id="stop1023" />
    </linearGradient>
    <linearGradient
       inkscape:collect="always"
       xlink:href="#linearGradient1025"
       id="linearGradient1507"
       gradientUnits="userSpaceOnUse"
       gradientTransform="matrix(0.43749993,0,0,0.43749993,226.35883,310.13641)"
       x1="402.77142"
       y1="519.79797"
       x2="430.20001"
       y2="519.79797" />
  </defs>
  <metadata
     id="metadata5458">
    <rdf:RDF>
      <cc:Work
         rdf:about="">
        <dc:format>image/svg+xml</dc:format>
        <dc:type
           rdf:resource="http://purl.org/dc/dcmitype/StillImage" />
      </cc:Work>
    </rdf:RDF>
  </metadata>
  <g
     inkscape:label="Capa 1"
     inkscape:groupmode="layer"
     id="layer1"
     transform="translate(-384.57143,-515.798)">
    <rect
       style="fill:#626f9d;fill-opacity:0.2;stroke:none;stroke-width:0.630375"
       id="center-3"
       width="30.049994"
       height="20.999996"
       x="385.5715"
       y="522.79797"
       ry="1.9999976"
       rx="2.0033386" />
    <path
       d="m 413.65487,521.80284 h -14.66335 c -0.32409,0 -0.60748,-0.16681 -0.81006,-0.45909 l -1.09375,-1.66919 c -0.36449,-0.58426 -0.97223,-0.87656 -1.62011,-0.87656 h -7.49371 c -1.86344,0 -3.40247,1.58596 -3.40247,3.50555 v 19.48962 c 0,1.62762 1.29635,3.00483 2.91647,3.00483 h 12.59752 v 0 0 0 0 0 0 0 h 0.97201 v 0 0 0 0 0 0 0 0 0 h 12.59752 c 1.57976,0 2.91647,-1.33563 2.91647,-3.00483 v -16.9856 c 0,-1.66919 -1.29606,-3.00452 -2.91647,-3.00452 z M 401.05742,544.798 v 0 h -0.97201 v 0 0 z m 14.54176,-3.00473 c 0,1.08499 -0.85078,2.00314 -1.94424,2.00314 h -26.1672 c -1.0531,0 -1.94424,-0.91815 -1.94424,-2.00314 l -2.9e-4,-6.71912 v -3.79784 c 0,-1.08501 0.89115,-2.00314 1.94424,-2.00314 h 14.66336 c 0.64817,0 1.25563,-0.33391 1.62012,-0.87656 l 1.05309,-1.6692 c 0.20259,-0.25036 0.48599,-0.45909 0.81006,-0.45909 h 7.53421 c 1.33671,0 2.43053,1.12689 2.43053,2.50418 v 5.46703 z m -2.43053,-16.4848 h -7.53421 c -0.64817,0 -1.25563,0.3339 -1.62011,0.87655 l -1.0531,1.6692 c -0.1619,0.29228 -0.48599,0.45908 -0.81006,0.45908 h -14.66325 c -0.72897,0 -1.41666,0.0848 -1.9445,0.8512 v -4.3665 c 0,-1 1.028,-2 2.028,-2 h 8.00001 l 0.0215,0.0232 1.47855,-0.0232 1.96053,0.006 h 14.66336 c 1.05309,0 1.94424,0.91814 1.94424,2.00314 v 1.54407 c -0.64789,-0.66751 -1.49838,-1.04304 -2.47061,-1.04304 z"
       id="path64"
       sodipodi:nodetypes="csccsssssccccccccccccccccccsssccccccccccssccsssccssscccsccscccccccssscc"
       style="fill:url(#linearGradient2232);fill-opacity:1;stroke-width:0.0734205" />
    <path
       d="m 412.6963,536.04779 h -1.50015 c -0.20677,0 -0.37466,-0.1679 -0.37466,-0.37467 0,-0.20723 0.16789,-0.37491 0.37466,-0.37491 h 1.50015 c 0.2073,0 0.37498,0.16768 0.37498,0.37491 0,0.20677 -0.16768,0.37467 -0.37498,0.37467 z m 0,1.50021 h -1.50015 c -0.20677,0 -0.37466,-0.16768 -0.37466,-0.375 0,-0.20732 0.16789,-0.375 0.37466,-0.375 h 1.50015 c 0.2073,0 0.37498,0.16768 0.37498,0.375 0,0.20732 -0.16768,0.375 -0.37498,0.375 z m -3.74999,2.25 h 3.74999 c 0.2073,0 0.37498,0.16789 0.37498,0.375 0,0.20732 -0.16768,0.37521 -0.37498,0.37521 h -3.74999 c -0.20695,0 -0.37527,-0.16789 -0.37527,-0.37521 0,-0.20711 0.16832,-0.375 0.37527,-0.375 z m 0,-1.49979 h 3.74999 c 0.2073,0 0.37498,0.16789 0.37498,0.37465 0,0.20725 -0.16768,0.37492 -0.37498,0.37492 h -3.74999 c -0.20695,0 -0.37527,-0.16767 -0.37527,-0.37492 0,-0.20676 0.16832,-0.37465 0.37527,-0.37465 z m -3.37489,-2.81267 c 0,-0.51791 0.41955,-0.93754 0.93745,-0.93754 h 2.62484 c 0.51792,0 0.93755,0.41963 0.93755,0.93754 v 0.56225 1.12521 c 0,0.20732 -0.16769,0.375 -0.37495,0.375 -0.20738,0 -0.37506,-0.16768 -0.37506,-0.375 v -1.12521 -0.37467 c 0,-0.20723 -0.16789,-0.37491 -0.37494,-0.37491 h -2.25011 c -0.20729,0 -0.37508,0.16768 -0.37508,0.37491 v 0.74974 c 0,0.20724 0.16779,0.37514 0.37508,0.37514 h 1.50016 c 0.20687,0 0.37466,0.16768 0.37466,0.375 0,0.20732 -0.16779,0.375 -0.37466,0.375 h -1.68749 c -0.5179,0 -0.93745,-0.41941 -0.93745,-0.93733 z m 0.37468,4.31246 h 1.50021 c 0.20724,0 0.37502,0.16789 0.37502,0.375 0,0.20732 -0.16781,0.37521 -0.37502,0.37521 h -1.50021 c -0.20688,0 -0.37466,-0.16789 -0.37466,-0.37521 -2e-5,-0.20711 0.16778,-0.375 0.37466,-0.375 z m 0,-1.49979 h 1.50021 c 0.20724,0 0.37502,0.16789 0.37502,0.37465 0,0.20725 -0.16781,0.37492 -0.37502,0.37492 h -1.50021 c -0.20688,0 -0.37466,-0.16767 -0.37466,-0.37492 -2e-5,-0.20676 0.16778,-0.37465 0.37466,-0.37465 z m 7.12518,4.49979 h -6.75016 -0.7497 -0.75011 c -1.2426,0 -2.25,-1.0074 -2.25,-2.24979 v -2.62508 c 0,-0.20724 0.16778,-0.37513 0.37502,-0.37513 0.20687,0 0.37466,0.16789 0.37466,0.37513 v 0.37508 0.37465 1.87535 c 0,0.82839 0.67178,1.49979 1.50032,1.49979 h 0.93743 1.31246 5.81251 c 0.51792,0 0.93735,-0.41963 0.93735,-0.93754 v -7.12471 c 0,-0.51813 -0.41943,-0.93754 -0.93735,-0.93754 h -7.12494 c -0.51791,0 -0.93744,0.41941 -0.93744,0.93754 v 2.43711 0.37514 3.375 c 0,0.20732 -0.16789,0.37521 -0.37502,0.37521 -0.2073,0 -0.37518,-0.16789 -0.37518,-0.37521 v -2.24987 -1.1061 -0.76922 -0.18735 -2.06267 c -3e-5,-0.82839 0.67178,-1.49979 1.50029,-1.49979 h 7.49986 c 0.82862,0 1.50002,0.6714 1.50002,1.49979 v 7.49999 c 0,0.82865 -0.6714,1.50022 -1.50002,1.50022 z m -10.12495,-6 c -0.20724,0 -0.37502,-0.1679 -0.37502,-0.37514 0,-0.20676 0.16778,-0.37507 0.37502,-0.37507 0.20687,0 0.37466,0.16831 0.37466,0.37507 0,0.20724 -0.16779,0.37514 -0.37466,0.37514 z"
       id="path2-3-7"
       style="fill:url(#linearGradient1507);fill-opacity:1;stroke-width:0.0234377" />
  </g>
</svg>
