<?xml version="1.0" encoding="UTF-8" standalone="no"?>
<svg
   width="32"
   version="1.1"
   height="32"
   viewBox="0 0 32 32"
   id="svg15"
   sodipodi:docname="folder-podcast.svg"
   inkscape:version="1.1.1 (3bf5ae0d25, 2021-09-20)"
   xmlns:inkscape="http://www.inkscape.org/namespaces/inkscape"
   xmlns:sodipodi="http://sodipodi.sourceforge.net/DTD/sodipodi-0.dtd"
   xmlns:xlink="http://www.w3.org/1999/xlink"
   xmlns="http://www.w3.org/2000/svg"
   xmlns:svg="http://www.w3.org/2000/svg"
   xmlns:rdf="http://www.w3.org/1999/02/22-rdf-syntax-ns#"
   xmlns:cc="http://creativecommons.org/ns#"
   xmlns:dc="http://purl.org/dc/elements/1.1/">
  <sodipodi:namedview
     pagecolor="#ffffff"
     bordercolor="#666666"
     borderopacity="1"
     objecttolerance="10"
     gridtolerance="10"
     guidetolerance="10"
     inkscape:pageopacity="0"
     inkscape:pageshadow="2"
     inkscape:window-width="1920"
     inkscape:window-height="1007"
     id="namedview17"
     showgrid="true"
     inkscape:zoom="9.8125"
     inkscape:cx="1.4267516"
     inkscape:cy="1.7834395"
     inkscape:window-x="0"
     inkscape:window-y="0"
     inkscape:window-maximized="1"
     inkscape:current-layer="g4"
     inkscape:pagecheckerboard="0">
    <inkscape:grid
       type="xygrid"
       id="grid862" />
  </sodipodi:namedview>
  <defs
     id="defs5455">
    <linearGradient
       inkscape:collect="always"
       xlink:href="#linearGradient2230-6"
       id="linearGradient2232-3"
       x1="384.57144"
       y1="515.79797"
       x2="448.57144"
       y2="515.79797"
       gradientUnits="userSpaceOnUse"
       gradientTransform="matrix(1.388355,0,0,1.3461639,-465.19077,330.12425)" />
    <linearGradient
       inkscape:collect="always"
       id="linearGradient2230-6">
      <stop
         style="stop-color:#ffccaa;stop-opacity:1"
         offset="0"
         id="stop2226-7" />
      <stop
         style="stop-color:#ffe6d5;stop-opacity:1"
         offset="0.50507295"
         id="stop2332-5" />
      <stop
         style="stop-color:#ffb3ff;stop-opacity:1"
         offset="1"
         id="stop2228-3" />
    </linearGradient>
    <linearGradient
       inkscape:collect="always"
       xlink:href="#linearGradient947"
       id="linearGradient949"
       x1="420.57144"
       y1="525.7981"
       x2="444.57147"
       y2="525.7981"
       gradientUnits="userSpaceOnUse"
       gradientTransform="matrix(1.388355,0,0,1.3461639,-465.19077,330.12425)" />
    <linearGradient
       inkscape:collect="always"
       id="linearGradient947">
      <stop
         style="stop-color:#ff9955;stop-opacity:1"
         offset="0"
         id="stop943" />
      <stop
         style="stop-color:#ffe6d5;stop-opacity:1"
         offset="0.53236276"
         id="stop1369" />
      <stop
         style="stop-color:#ffccaa;stop-opacity:1"
         offset="1"
         id="stop945" />
    </linearGradient>
  </defs>
  <metadata
     id="metadata5458">
    <rdf:RDF>
      <cc:Work
         rdf:about="">
        <dc:format>image/svg+xml</dc:format>
        <dc:type
           rdf:resource="http://purl.org/dc/dcmitype/StillImage" />
      </cc:Work>
    </rdf:RDF>
  </metadata>
  <g
     inkscape:label="Capa 1"
     inkscape:groupmode="layer"
     id="layer1"
     transform="translate(-384.57143,-515.798)">
    <g
       transform="matrix(0.36013848,0,0,0.37142583,359.81878,151.2823)"
       id="g4">
      <rect
         style="fill:#626f9d;fill-opacity:0.2;stroke:none;stroke-width:1.72357"
         id="center-3-5"
         width="83.440132"
         height="56.538883"
         x="71.507576"
         y="1000.2419"
         ry="5.3846507"
         rx="5.5626917" />
      <path
         d="m 149.48722,997.56267 h -40.71589 c -0.89989,0 -1.6868,-0.4491 -2.24929,-1.23601 l -3.03703,-4.49402 c -1.01209,-1.57302 -2.6996,-2.35999 -4.498586,-2.35999 H 78.178578 c -5.174246,0 -9.447686,4.26993 -9.447686,9.43811 v 52.47244 c 0,4.3821 3.599602,8.09 8.098191,8.09 h 34.979677 v 0 0 0 0 0 0 0 h 2.69899 v 0 0 0 0 0 0 0 0 0 h 34.97967 c 4.38652,0 8.09819,-3.596 8.09819,-8.09 v -45.7308 c 0,-4.494 -3.5988,-8.08917 -8.09819,-8.08917 z m -34.97947,61.91053 v 0 h -2.69899 v 0 0 z m 40.37826,-8.0897 c 0,2.9211 -2.36237,5.3931 -5.39859,5.3931 H 76.828681 c -2.924154,0 -5.398591,-2.472 -5.398591,-5.3931 l -8e-4,-18.0901 v -10.2251 c 0,-2.9211 2.474451,-5.3931 5.398591,-5.3931 h 40.715879 c 1.79978,0 3.48652,-0.899 4.49861,-2.3599 l 2.92414,-4.4941 c 0.56253,-0.674 1.34945,-1.236 2.2493,-1.236 h 20.92031 c 3.71167,0 6.74889,3.034 6.74889,6.7421 v 14.719 z m -6.74889,-44.3825 H 127.2168 c -1.79978,0 -3.48652,0.8989 -4.49859,2.3599 l -2.92415,4.4941 c -0.44955,0.7869 -1.34945,1.236 -2.24929,1.236 H 76.829167 c -2.024138,0 -3.933641,0.2284 -5.399313,2.2917 v -11.7561 c 0,-2.6923 2.854472,-5.3846 5.631182,-5.3846 h 22.213693 l 0.05956,0.062 4.105501,-0.062 5.44384,0.017 h 40.7159 c 2.92414,0 5.39859,2.4719 5.39859,5.3931 v 4.1571 c -1.79901,-1.7971 -4.16057,-2.8082 -6.86017,-2.8082 z"
         id="path64-6"
         sodipodi:nodetypes="csccsssssccccccccccccccccccsssccccccccccssccsssccssscccsccscccccccssscc"
         style="fill:url(#linearGradient2232-3);fill-opacity:1;stroke-width:0.200746;opacity:0.801" />
      <path
         clip-rule="evenodd"
         d="m 152.03224,1050.0507 c 0,2.2298 -1.86489,4.0376 -4.16502,4.0376 h -2.08259 c -2.30111,0 -4.16555,-1.8078 -4.16555,-4.0376 0,-0.4959 -0.0269,-0.9849 -0.0665,-1.4706 -0.007,-0.081 -0.01,-0.1632 -0.0183,-0.2435 -0.0448,-0.4605 -0.10885,-0.917 -0.18815,-1.3676 -0.0153,-0.088 -0.0325,-0.1741 -0.0489,-0.2613 -0.088,-0.454 -0.18911,-0.9031 -0.31113,-1.3458 -0.0174,-0.065 -0.0371,-0.1258 -0.056,-0.1894 -0.13064,-0.456 -0.27457,-0.9066 -0.44033,-1.3483 -0.001,-0.01 -0.006,-0.014 -0.008,-0.022 -0.16672,-0.4436 -0.35689,-0.8775 -0.55928,-1.3044 -0.0285,-0.062 -0.055,-0.1243 -0.085,-0.1854 -0.19888,-0.4077 -0.41344,-0.8051 -0.64121,-1.1955 -0.0396,-0.069 -0.0803,-0.137 -0.12093,-0.2061 -0.23389,-0.388 -0.48099,-0.7686 -0.74281,-1.1378 -0.0361,-0.051 -0.0737,-0.1015 -0.1094,-0.1513 -0.27255,-0.3762 -0.55623,-0.744 -0.85617,-1.0984 -0.008,-0.01 -0.0183,-0.021 -0.0264,-0.032 -0.30151,-0.353 -0.61825,-0.6917 -0.94468,-1.0219 -0.0539,-0.056 -0.10676,-0.111 -0.1627,-0.1657 -0.31829,-0.3145 -0.65104,-0.6167 -0.99323,-0.9076 -0.0618,-0.053 -0.12481,-0.1065 -0.18684,-0.1572 -0.35031,-0.2899 -0.70747,-0.5694 -1.07862,-0.8331 -0.0526,-0.037 -0.10746,-0.073 -0.16016,-0.11 -0.38638,-0.2697 -0.77964,-0.529 -1.1884,-0.77 -0.007,0 -0.0125,-0.01 -0.0199,-0.012 -0.4027,-0.2377 -0.8196,-0.4561 -1.24078,-0.6656 -0.0761,-0.037 -0.14949,-0.076 -0.2255,-0.1118 -0.40498,-0.1938 -0.8183,-0.3703 -1.23982,-0.536 -0.0887,-0.035 -0.17745,-0.07 -0.26741,-0.1029 -0.42833,-0.1608 -0.8628,-0.3077 -1.30644,-0.4378 -0.0689,-0.02 -0.14006,-0.038 -0.20897,-0.058 -1.66354,-0.4689 -3.42073,-0.7257 -5.24092,-0.7257 -1.14981,0 -2.0825,0.9032 -2.0825,2.0183 v 2.0198 c 0,1.1147 0.93276,2.0193 2.0825,2.0193 1.14317,0 2.24626,0.1616 3.29819,0.4402 0.32234,0.086 0.63855,0.1834 0.95027,0.2933 0.0187,0 0.0351,0.014 0.0526,0.019 1.5423,0.5493 2.93973,1.3843 4.12819,2.4384 0.0514,0.046 0.10524,0.09 0.15535,0.1371 0.18684,0.1711 0.36659,0.3485 0.54172,0.5309 0.077,0.08 0.15404,0.1607 0.22881,0.2435 0.15632,0.1696 0.3058,0.3416 0.45171,0.5206 0.0865,0.1065 0.16933,0.2174 0.25218,0.3274 0.13092,0.1731 0.26389,0.3441 0.38539,0.5226 0.0887,0.1316 0.16699,0.2671 0.25089,0.4008 0.16348,0.2627 0.31752,0.5299 0.4601,0.805 0.10496,0.2016 0.21,0.4029 0.30352,0.6113 0.0654,0.1435 0.12023,0.2919 0.17975,0.4393 0.0783,0.1957 0.15535,0.3914 0.22296,0.5921 0.0514,0.1493 0.0968,0.2997 0.14136,0.4506 0.063,0.2139 0.12023,0.4309 0.1716,0.6483 0.0339,0.143 0.0676,0.2854 0.0957,0.4313 0.048,0.2426 0.0832,0.4891 0.11565,0.7346 0.0165,0.1306 0.0373,0.2583 0.0503,0.3894 0.023,0.2382 0.028,0.4802 0.0373,0.7214 0.015,0.138 0.0221,0.2775 0.0221,0.419 0,2.2298 -1.86438,4.0376 -4.16557,4.0376 h -1.56213 -0.52064 c -2.29988,0 -4.16451,-1.8078 -4.16451,-4.0376 0,-1.1152 -0.93278,-2.0198 -2.08278,-2.0198 -1.14981,0 -2.08252,0.9046 -2.08252,2.0198 0,1.1147 0.93278,2.0183 2.08252,2.0183 0.57582,0 1.04152,0.4525 1.04152,1.0097 0,0.558 -0.4657,1.0096 -1.04152,1.0096 -2.29995,-3e-4 -4.16432,-1.8081 -4.16432,-4.0379 0,-2.2312 1.86437,-4.039 4.16432,-4.039 2.30014,0 4.16582,1.8077 4.16582,4.039 0,1.1147 0.9314,2.0183 2.08147,2.0183 h 0.52064 1.56213 c 1.14982,0 2.08278,-0.9036 2.08278,-2.0183 0,-1.5297 -0.36073,-2.9742 -0.98893,-4.2737 -0.0536,-0.1109 -0.10621,-0.2228 -0.16472,-0.3327 -0.077,-0.1459 -0.1599,-0.2899 -0.24378,-0.4324 -0.063,-0.1076 -0.13092,-0.213 -0.19855,-0.317 -0.0852,-0.1322 -0.17161,-0.2657 -0.26259,-0.3939 -0.14006,-0.1958 -0.28856,-0.386 -0.44131,-0.5718 -0.0912,-0.1085 -0.18684,-0.2125 -0.2814,-0.318 -0.11218,-0.1242 -0.22647,-0.2489 -0.34445,-0.3678 -0.0968,-0.096 -0.19375,-0.1903 -0.29417,-0.283 -0.12731,-0.1188 -0.2603,-0.2322 -0.39353,-0.3451 -0.0852,-0.072 -0.16933,-0.1449 -0.25673,-0.2139 -0.22192,-0.1736 -0.44949,-0.3422 -0.6854,-0.4984 -0.0689,-0.045 -0.14135,-0.084 -0.21126,-0.1276 -0.18326,-0.1143 -0.37016,-0.2277 -0.56156,-0.3318 -0.0982,-0.053 -0.19724,-0.103 -0.29669,-0.1528 -0.18098,-0.092 -0.36658,-0.1766 -0.55342,-0.2584 -0.0921,-0.039 -0.18203,-0.081 -0.27529,-0.1189 -0.27685,-0.1094 -0.55824,-0.2115 -0.84655,-0.2997 -0.0351,-0.011 -0.0712,-0.018 -0.10718,-0.029 -0.25926,-0.075 -0.52446,-0.1425 -0.79161,-0.1977 -0.0994,-0.021 -0.20213,-0.038 -0.30359,-0.057 -0.2171,-0.04 -0.43778,-0.072 -0.65971,-0.098 -0.0958,-0.011 -0.1891,-0.023 -0.28601,-0.032 -0.31875,-0.028 -0.63855,-0.047 -0.96447,-0.047 -2.29982,-1e-4 -4.16419,-1.8084 -4.16419,-4.0392 v -2.0198 c 0,-2.2303 1.86437,-4.038 4.16432,-4.038 0.33861,0 0.6737,0.01 1.00872,0.025 0.12148,0.01 0.24301,0.017 0.36554,0.024 0.22297,0.015 0.44593,0.028 0.66654,0.049 0.11565,0.011 0.22881,0.025 0.34323,0.038 0.22068,0.025 0.4413,0.05 0.6597,0.081 0.13065,0.018 0.26032,0.04 0.38995,0.061 0.18561,0.03 0.36887,0.061 0.55343,0.095 0.14819,0.028 0.29416,0.058 0.44006,0.088 0.1914,0.04 0.38181,0.083 0.5697,0.1281 0.12606,0.03 0.25114,0.061 0.37726,0.093 0.18561,0.049 0.37016,0.1006 0.55447,0.1529 0.13328,0.039 0.26845,0.076 0.40166,0.1168 0.17031,0.052 0.33633,0.1085 0.50567,0.1661 0.1459,0.049 0.29286,0.096 0.43648,0.1494 0.14363,0.052 0.28725,0.11 0.42964,0.1642 0.15535,0.06 0.31297,0.1179 0.46702,0.1824 0.13328,0.055 0.2616,0.1143 0.39353,0.1721 0.33047,0.1449 0.65612,0.2978 0.97819,0.4585 0.10038,0.05 0.20208,0.099 0.30125,0.1504 0.16933,0.088 0.33502,0.1814 0.50077,0.2741 0.1076,0.059 0.21737,0.1163 0.32364,0.1789 0.17162,0.1 0.34062,0.2046 0.50996,0.3091 0.0923,0.058 0.1858,0.1129 0.27789,0.1721 0.1647,0.105 0.32689,0.2139 0.48679,0.3234 0.10301,0.07 0.20668,0.1414 0.30938,0.2139 0.14721,0.1045 0.29311,0.2105 0.43675,0.317 0.10149,0.075 0.20109,0.1518 0.29968,0.2287 0.15352,0.1198 0.30606,0.2401 0.4566,0.3634 0.0793,0.066 0.1576,0.1316 0.23591,0.1982 0.16164,0.137 0.32336,0.2741 0.48099,0.4166 0.0529,0.046 0.10163,0.094 0.15307,0.1414 1.47239,1.3528 2.74403,2.9116 3.75939,4.6302 0.0125,0.02 0.025,0.042 0.0371,0.063 0.13578,0.2312 0.26644,0.4654 0.39248,0.702 0.0163,0.03 0.0315,0.06 0.0478,0.091 0.12704,0.2411 0.25017,0.4832 0.36711,0.7301 0.006,0.012 0.0111,0.025 0.0174,0.038 0.12259,0.2589 0.24046,0.5196 0.35129,0.7844 0,0 0,0.01 0.001,0.01 0.57302,1.3641 0.99701,2.8027 1.25277,4.2974 0.18455,1.0807 0.28621,2.1888 0.28621,3.3213 0,1.1147 0.93245,2.0183 2.08252,2.0183 h 2.08245 c 1.15007,0 2.082,-0.9036 2.082,-2.0183 0,-1.6348 -0.1612,-3.2321 -0.4566,-4.7839 -0.004,-0.017 -0.006,-0.034 -0.01,-0.052 -0.0732,-0.3792 -0.15508,-0.7563 -0.24509,-1.1295 -0.003,-0.015 -0.006,-0.029 -0.01,-0.042 -0.0875,-0.3589 -0.18201,-0.7158 -0.28366,-1.0688 -0.0139,-0.047 -0.0264,-0.093 -0.0407,-0.1395 -0.10371,-0.352 -0.21353,-0.698 -0.33152,-1.0446 -0.003,-0.01 -0.006,-0.016 -0.007,-0.024 -0.89079,-2.599 -2.18834,-5.0162 -3.82142,-7.1839 -0.004,-0.01 -0.01,-0.015 -0.0153,-0.022 -0.20449,-0.2707 -0.41547,-0.5354 -0.63056,-0.7982 -0.0428,-0.052 -0.0839,-0.1061 -0.12703,-0.1582 -0.19927,-0.2411 -0.40622,-0.4778 -0.61518,-0.7119 -0.06,-0.067 -0.11996,-0.1336 -0.18002,-0.2007 -0.20844,-0.2297 -0.42503,-0.456 -0.6416,-0.6793 -0.06,-0.061 -0.12051,-0.1232 -0.18098,-0.1844 -0.21152,-0.213 -0.42757,-0.422 -0.64571,-0.6271 -0.0819,-0.076 -0.1627,-0.1518 -0.24509,-0.2278 -0.21508,-0.1966 -0.43421,-0.3914 -0.65639,-0.5826 -0.0808,-0.07 -0.16321,-0.1381 -0.24554,-0.2071 -0.22017,-0.1859 -0.44332,-0.3693 -0.67109,-0.5467 -0.10468,-0.082 -0.21,-0.1608 -0.31628,-0.2416 -0.21353,-0.1617 -0.42809,-0.3259 -0.64772,-0.4821 -0.10885,-0.077 -0.21965,-0.1514 -0.33047,-0.2288 -0.22778,-0.1572 -0.45556,-0.3155 -0.68736,-0.4664 -0.0508,-0.033 -0.10066,-0.063 -0.15099,-0.095 -0.58824,-0.3756 -1.19075,-0.73 -1.80951,-1.0614 -0.0325,-0.018 -0.0651,-0.037 -0.0982,-0.055 -0.18455,-0.097 -0.37341,-0.1888 -0.56025,-0.2829 -0.19271,-0.097 -0.38411,-0.1948 -0.57907,-0.2864 -0.18326,-0.087 -0.37141,-0.1687 -0.55701,-0.251 -0.18912,-0.084 -0.3757,-0.1676 -0.56742,-0.248 -0.20188,-0.085 -0.40498,-0.1632 -0.60941,-0.2435 -0.19373,-0.076 -0.38513,-0.1504 -0.5814,-0.2219 -0.18684,-0.068 -0.37596,-0.1326 -0.56385,-0.1957 -0.22068,-0.075 -0.44259,-0.1484 -0.66555,-0.2184 -0.17844,-0.056 -0.35943,-0.11 -0.54049,-0.1621 -0.22419,-0.066 -0.44942,-0.1267 -0.67596,-0.1854 -0.19498,-0.051 -0.38996,-0.1011 -0.58623,-0.1474 -0.21814,-0.052 -0.43779,-0.1 -0.65847,-0.1469 -0.20082,-0.043 -0.40036,-0.085 -0.60348,-0.1238 -0.23005,-0.043 -0.46342,-0.084 -0.69574,-0.1207 -0.18912,-0.032 -0.37727,-0.064 -0.56866,-0.091 -0.27555,-0.038 -0.55448,-0.07 -0.83229,-0.102 -0.15177,-0.017 -0.30022,-0.036 -0.45198,-0.051 -0.3127,-0.03 -0.62917,-0.051 -0.94441,-0.07 -0.13065,-0.01 -0.25901,-0.021 -0.39101,-0.026 -0.10273,0 -0.20668,0 -0.31061,-0.01 v -0.011 c -0.2626,0 -0.5242,-0.1 -0.72504,-0.2943 -0.40622,-0.394 -0.40622,-1.0338 0,-1.4278 0.22191,-0.2149 0.51835,-0.3012 0.80788,-0.282 15.58465,0.5674 28.04323,12.9902 28.04323,28.2409 z m -32.28004,-26.2508 c -0.57451,0 -1.04021,-0.4526 -1.04021,-1.0097 0,-0.5581 0.4657,-1.0096 1.04021,-1.0096 0.57556,0 1.04153,0.4515 1.04153,1.0096 0,0.5571 -0.46597,1.0097 -1.04153,1.0097 z"
         fill-rule="evenodd"
         id="path2"
         style="fill:url(#linearGradient949);fill-opacity:1;stroke-width:0.064082;opacity:0.809" />
    </g>
  </g>
</svg>
