<?xml version="1.0" encoding="UTF-8" standalone="no"?>
<svg
   width="32"
   version="1.1"
   height="32"
   viewBox="0 0 32 32"
   id="svg15"
   sodipodi:docname="folder-extension.svg"
   inkscape:version="1.1.1 (3bf5ae0d25, 2021-09-20)"
   xmlns:inkscape="http://www.inkscape.org/namespaces/inkscape"
   xmlns:sodipodi="http://sodipodi.sourceforge.net/DTD/sodipodi-0.dtd"
   xmlns:xlink="http://www.w3.org/1999/xlink"
   xmlns="http://www.w3.org/2000/svg"
   xmlns:svg="http://www.w3.org/2000/svg"
   xmlns:rdf="http://www.w3.org/1999/02/22-rdf-syntax-ns#"
   xmlns:cc="http://creativecommons.org/ns#"
   xmlns:dc="http://purl.org/dc/elements/1.1/">
  <sodipodi:namedview
     pagecolor="#ffffff"
     bordercolor="#666666"
     borderopacity="1"
     objecttolerance="10"
     gridtolerance="10"
     guidetolerance="10"
     inkscape:pageopacity="0"
     inkscape:pageshadow="2"
     inkscape:window-width="1920"
     inkscape:window-height="1007"
     id="namedview17"
     showgrid="true"
     inkscape:zoom="9.8125"
     inkscape:cx="1.4267516"
     inkscape:cy="-6.4713376"
     inkscape:window-x="0"
     inkscape:window-y="0"
     inkscape:window-maximized="1"
     inkscape:current-layer="g4"
     inkscape:pagecheckerboard="0">
    <inkscape:grid
       type="xygrid"
       id="grid862" />
  </sodipodi:namedview>
  <defs
     id="defs5455">
    <linearGradient
       inkscape:collect="always"
       xlink:href="#linearGradient2230"
       id="linearGradient2232"
       x1="384.57144"
       y1="515.79797"
       x2="448.57144"
       y2="515.79797"
       gradientUnits="userSpaceOnUse"
       gradientTransform="matrix(1.3883541,0,0,1.3461631,-465.19041,330.12469)" />
    <linearGradient
       inkscape:collect="always"
       id="linearGradient2230">
      <stop
         style="stop-color:#4e99ca;stop-opacity:0.80000001"
         offset="0"
         id="stop2226" />
      <stop
         style="stop-color:#20ffff;stop-opacity:0.80000001"
         offset="0.50507295"
         id="stop2332" />
      <stop
         style="stop-color:#ffaeff;stop-opacity:0.69"
         offset="1"
         id="stop2228" />
    </linearGradient>
    <linearGradient
       inkscape:collect="always"
       xlink:href="#linearGradient2230"
       id="linearGradient1026"
       gradientUnits="userSpaceOnUse"
       gradientTransform="matrix(1.3883541,0,0,1.3461631,-442.97672,336.85551)"
       x1="404.57144"
       y1="520.79797"
       x2="428.57144"
       y2="520.79797" />
  </defs>
  <metadata
     id="metadata5458">
    <rdf:RDF>
      <cc:Work
         rdf:about="">
        <dc:format>image/svg+xml</dc:format>
        <dc:type
           rdf:resource="http://purl.org/dc/dcmitype/StillImage" />
      </cc:Work>
    </rdf:RDF>
  </metadata>
  <g
     inkscape:label="Capa 1"
     inkscape:groupmode="layer"
     id="layer1"
     transform="translate(-384.57143,-515.798)">
    <g
       transform="matrix(0.36013848,0,0,0.37142583,359.81878,151.2823)"
       id="g4">
      <rect
         style="fill:#626f9d;fill-opacity:0.2;stroke:none;stroke-width:1.72356"
         id="center-3"
         width="83.440079"
         height="56.538849"
         x="71.507591"
         y="1000.242"
         ry="5.3846474"
         rx="5.5626884" />
      <path
         d="m 149.48719,997.56267 h -40.71587 c -0.89989,0 -1.68679,-0.44909 -2.24929,-1.236 l -3.03702,-4.49402 c -1.0121,-1.57302 -2.6996,-2.35999 -4.498587,-2.35999 H 78.178591 c -5.174243,0 -9.44768,4.26992 -9.44768,9.4381 v 52.47244 c 0,4.3821 3.5996,8.09 8.098186,8.09 h 34.979653 v 0 0 0 0 0 0 0 h 2.69899 v 0 0 0 0 0 0 0 0 0 h 34.97965 c 4.38651,0 8.09818,-3.596 8.09818,-8.09 v -45.7308 c 0,-4.494 -3.59879,-8.08916 -8.09818,-8.08916 z m -34.97945,61.91053 v 0 h -2.69899 v 0 0 z m 40.37823,-8.0898 c 0,2.9212 -2.36236,5.3931 -5.39858,5.3931 H 76.828695 c -2.924152,0 -5.398587,-2.4719 -5.398587,-5.3931 l -8e-4,-18.09 v -10.2251 c 0,-2.9212 2.474449,-5.3931 5.398587,-5.3931 h 40.715855 c 1.79978,0 3.48652,-0.899 4.4986,-2.36 l 2.92414,-4.494 c 0.56253,-0.674 1.34945,-1.236 2.2493,-1.236 h 20.9203 c 3.71166,0 6.74888,3.034 6.74888,6.7421 v 14.719 z m -6.74888,-44.3824 h -20.92031 c -1.79977,0 -3.48651,0.8989 -4.49858,2.3599 l -2.92415,4.4941 c -0.44955,0.7869 -1.34946,1.236 -2.24929,1.236 H 76.829181 c -2.024137,0 -3.933638,0.2284 -5.399309,2.2917 v -11.7561 c 0,-2.6923 2.854469,-5.3846 5.631177,-5.3846 h 22.21368 l 0.05956,0.062 4.105501,-0.062 5.44383,0.017 h 40.71588 c 2.92413,0 5.39858,2.4719 5.39858,5.3931 v 4.1571 c -1.799,-1.7972 -4.16056,-2.8082 -6.86016,-2.8082 z"
         id="path64"
         sodipodi:nodetypes="csccsssssccccccccccccccccccsssccccccccccssccsssccssscccsccscccccccssscc"
         style="fill:url(#linearGradient2232);fill-opacity:1;stroke-width:0.200746" />
      <path
         d="m 118.71166,1047.3614 a 1.2194843,1.1824252 0 0 0 1.21904,1.182 h 5.75063 a 6.9392582,6.7283793 0 0 0 13.66221,0 h 5.75066 a 1.2195006,1.1824409 0 0 0 1.21905,-1.182 v -5.5759 a 6.9392582,6.7283793 0 0 0 0,-13.2471 v -5.5758 a 1.2195006,1.1824409 0 0 0 -1.21905,-1.182 h -5.71896 a 1.218956,1.1819129 0 0 0 -1.21903,1.182 4.4998993,4.3631508 0 0 1 -8.9998,0 1.2194843,1.1824252 0 0 0 -1.21904,-1.182 h -8.00667 a 1.2194843,1.1824252 0 0 0 -1.21904,1.182 v 6.6538 a 1.2189642,1.1819208 0 0 0 1.21904,1.182 4.5003056,4.3635448 0 0 1 0,8.7271 1.2189642,1.1819208 0 0 0 -1.21904,1.182 z m 2.43811,-1.182 v -4.3939 a 6.9392662,6.7283873 0 0 0 0,-13.2471 v -4.3938 h 5.67505 a 6.9392582,6.7283793 0 0 0 13.66223,0 h 3.38814 v 5.4719 a 1.2189642,1.1819208 0 0 0 1.21904,1.1819 4.5003058,4.363545 0 0 1 0,8.7271 1.2189642,1.1819208 0 0 0 -1.21904,1.182 v 5.4719 h -5.64338 a 1.2189642,1.1819208 0 0 0 -1.21905,1.182 4.5003083,4.3635473 0 0 1 -9.00062,0 1.2189642,1.1819208 0 0 0 -1.21904,-1.182 z"
         fill-rule="evenodd"
         id="path2-5"
         style="fill:url(#linearGradient1026);fill-opacity:1;stroke-width:0.800295" />
    </g>
  </g>
</svg>
