<?xml version="1.0" encoding="UTF-8" standalone="no"?>
<svg
   width="32"
   version="1.1"
   height="32"
   viewBox="0 0 32 32"
   id="svg15"
   sodipodi:docname="folder-Pop_OS.svg"
   inkscape:version="1.1.1 (3bf5ae0d25, 2021-09-20)"
   xmlns:inkscape="http://www.inkscape.org/namespaces/inkscape"
   xmlns:sodipodi="http://sodipodi.sourceforge.net/DTD/sodipodi-0.dtd"
   xmlns:xlink="http://www.w3.org/1999/xlink"
   xmlns="http://www.w3.org/2000/svg"
   xmlns:svg="http://www.w3.org/2000/svg"
   xmlns:rdf="http://www.w3.org/1999/02/22-rdf-syntax-ns#"
   xmlns:cc="http://creativecommons.org/ns#"
   xmlns:dc="http://purl.org/dc/elements/1.1/">
  <sodipodi:namedview
     pagecolor="#ffffff"
     bordercolor="#666666"
     borderopacity="1"
     objecttolerance="10"
     gridtolerance="10"
     guidetolerance="10"
     inkscape:pageopacity="0"
     inkscape:pageshadow="2"
     inkscape:window-width="1920"
     inkscape:window-height="1007"
     id="namedview17"
     showgrid="false"
     inkscape:zoom="9.8125"
     inkscape:cx="-16"
     inkscape:cy="8.7133758"
     inkscape:window-x="0"
     inkscape:window-y="0"
     inkscape:window-maximized="1"
     inkscape:current-layer="layer1"
     inkscape:document-rotation="0"
     inkscape:pagecheckerboard="0" />
  <defs
     id="defs5455">
    <linearGradient
       inkscape:collect="always"
       xlink:href="#linearGradient2230"
       id="linearGradient926"
       x1="423.31808"
       y1="517.20392"
       x2="426.5556"
       y2="517.20392"
       gradientUnits="userSpaceOnUse"
       gradientTransform="matrix(0.59176813,0,0,0.59177493,162.12569,231.07655)" />
    <linearGradient
       inkscape:collect="always"
       id="linearGradient2230">
      <stop
         style="stop-color:#4e99ca;stop-opacity:0.80000001"
         offset="0"
         id="stop2226" />
      <stop
         style="stop-color:#20ffff;stop-opacity:0.80000001"
         offset="0.50507295"
         id="stop2332" />
      <stop
         style="stop-color:#ffaeff;stop-opacity:0.69"
         offset="1"
         id="stop2228" />
    </linearGradient>
    <linearGradient
       inkscape:collect="always"
       xlink:href="#linearGradient2230"
       id="linearGradient928"
       x1="413.9173"
       y1="518.79504"
       x2="417.81851"
       y2="518.79504"
       gradientUnits="userSpaceOnUse"
       gradientTransform="matrix(0.59176813,0,0,0.59177493,162.12569,231.07655)" />
    <linearGradient
       inkscape:collect="always"
       xlink:href="#linearGradient2230"
       id="linearGradient930"
       x1="418.5582"
       y1="518.65289"
       x2="422.60925"
       y2="518.65289"
       gradientUnits="userSpaceOnUse"
       gradientTransform="matrix(0.59176813,0,0,0.59177493,162.12569,231.07655)" />
    <linearGradient
       inkscape:collect="always"
       xlink:href="#linearGradient2230"
       id="linearGradient932"
       x1="406.31744"
       y1="517.87299"
       x2="413.16266"
       y2="517.87299"
       gradientUnits="userSpaceOnUse"
       gradientTransform="matrix(0.59176813,0,0,0.59177493,162.12569,231.07655)" />
    <linearGradient
       inkscape:collect="always"
       xlink:href="#linearGradient2230"
       id="linearGradient934"
       x1="420.06085"
       y1="524.62439"
       x2="426.59094"
       y2="524.62439"
       gradientUnits="userSpaceOnUse"
       gradientTransform="matrix(0.59176813,0,0,0.59177493,162.12569,231.07655)" />
    <linearGradient
       inkscape:collect="always"
       xlink:href="#linearGradient2230"
       id="linearGradient936"
       x1="415.65665"
       y1="526.09137"
       x2="419.34311"
       y2="526.09137"
       gradientUnits="userSpaceOnUse"
       gradientTransform="matrix(0.59176813,0,0,0.59177493,162.12569,231.07655)" />
    <linearGradient
       inkscape:collect="always"
       xlink:href="#linearGradient2230"
       id="linearGradient2232"
       x1="384.57144"
       y1="515.79797"
       x2="448.57144"
       y2="515.79797"
       gradientUnits="userSpaceOnUse"
       gradientTransform="matrix(0.4999999,0,0,0.4999999,192.28575,273.89905)" />
  </defs>
  <metadata
     id="metadata5458">
    <rdf:RDF>
      <cc:Work
         rdf:about="">
        <dc:format>image/svg+xml</dc:format>
        <dc:type
           rdf:resource="http://purl.org/dc/dcmitype/StillImage" />
      </cc:Work>
    </rdf:RDF>
  </metadata>
  <g
     inkscape:label="Capa 1"
     inkscape:groupmode="layer"
     id="layer1"
     transform="translate(-384.57143,-515.798)">
    <path
       style="fill:url(#linearGradient926);fill-opacity:1;stroke-width:0.011698"
       id="path2-3-3"
       d="m 413.29169,538.9921 c -0.0229,0.0934 -0.0694,0.17613 -0.15041,0.22816 -0.12735,0.0816 -0.28241,0.0579 -0.39236,-0.0414 -0.10299,-0.0922 -0.13773,-0.2482 -0.10534,-0.38307 0.0334,-0.14075 0.14004,-0.2649 0.27662,-0.30394 0.30436,-0.0863 0.43055,0.25185 0.37149,0.50025 z m -0.18632,-0.96015 c -0.18861,-0.0769 -0.12385,-1.0878 0.0487,-2.31503 0.0487,-0.34293 0.13197,-0.50505 0.22572,-0.58785 0.13424,-0.11697 0.37844,-0.12179 0.54388,-0.0969 0.18983,0.0272 0.37155,0.11833 0.50925,0.25427 0.12153,0.12072 0.1354,0.24357 0.0937,0.40328 -0.0682,0.25427 -0.18512,0.49784 -0.29743,0.73536 -0.026,0.0579 -0.25926,0.50843 -0.29045,0.56398 -0.56129,1.00983 -0.67356,1.10794 -0.83323,1.04294 z" />
    <path
       style="fill:url(#linearGradient928);fill-opacity:1;stroke-width:0.011698"
       id="path4"
       d="m 409.29784,537.57669 c 0.11108,0.48491 0.0995,1.01693 0.003,1.39999 -0.0891,0.36182 -0.33094,0.68578 -0.71518,0.79455 -0.33685,0.0958 -0.7291,0.0256 -0.96988,-0.21045 -0.39578,-0.38784 -0.62724,-1.2983 -0.52425,-1.95926 0.0833,-0.53078 0.36342,-1.21077 0.97798,-1.24041 0.0401,-0.001 0.0787,-0.001 0.11796,10e-4 0.62616,0.058 0.96756,0.59719 1.10879,1.21326 z m -1.1318,1.10319 c 0.0342,0.007 0.0694,0.007 0.10409,-0.003 0.1169,-0.0339 0.18404,-0.15847 0.21526,-0.27903 0.0478,-0.18329 0.0408,-0.38075 -0.0221,-0.56049 -0.0318,-0.0911 -0.0774,-0.17974 -0.14816,-0.24597 -0.24875,-0.2329 -0.4975,0.009 -0.54039,0.28497 -0.0334,0.21523 0.0156,0.4647 0.14694,0.63854 0.0614,0.0804 0.14939,0.15013 0.24314,0.16669 z" />
    <path
       style="fill:url(#linearGradient930);fill-opacity:1;stroke-width:0.011698"
       id="path6"
       d="m 410.65306,538.6043 c -10e-4,0.89498 0.0867,1.57961 -0.29863,1.66123 -0.31244,0.065 -0.302,-0.21521 -0.32637,-0.45052 -0.0925,-0.91158 -0.17701,-2.42618 -0.21294,-3.3427 0.0252,-0.39376 0.28359,-0.63495 0.55208,-0.69396 0.41432,-0.0911 0.85636,-0.0652 1.22326,0.16665 0.72565,0.45885 0.78352,1.30067 0.34374,1.9876 -0.24074,0.37483 -0.96867,0.64687 -1.28114,0.62311 z m 0.0925,-2.00655 c -0.0449,0.008 -0.11918,0.0272 -0.14004,0.0732 -0.0497,0.10522 -0.0468,0.77345 0.0408,1.05361 0.0148,0.0466 0.0444,0.0898 0.0903,0.10637 0.16435,0.0615 0.3125,-0.14428 0.37962,-0.2684 0.0937,-0.17262 0.12378,-0.37596 0.0648,-0.56522 -0.0557,-0.17613 -0.22798,-0.43159 -0.43513,-0.39954 z" />
    <path
       style="fill:url(#linearGradient932);fill-opacity:1;stroke-width:0.011698"
       id="path8"
       d="m 406.50289,537.04225 c -0.27197,0.58776 -0.72333,1.0547 -1.34823,1.28536 0.17948,0.47887 0.36218,0.95187 0.54043,1.42947 0.0996,0.25773 0.19445,0.54035 0.1076,0.79456 -0.0903,0.26014 -0.44193,0.33224 -0.69777,0.0557 -0.49194,-0.53449 -2.15489,-3.92084 -2.27755,-4.17511 -0.10424,-0.21873 -0.26031,-0.45289 -0.25585,-0.70588 0.008,-0.38078 0.5846,-0.76626 0.86096,-0.96361 0.38666,-0.27563 0.83332,-0.46366 1.31131,-0.46472 0.37271,0 0.69092,0.10416 0.97335,0.28843 0.43278,0.28392 0.73376,0.73661 0.84492,1.2486 0.0971,0.45055 0.0763,0.91181 -0.0591,1.20735 m -1.26717,-0.64329 c -0.0973,-0.36054 -0.31717,-0.69278 -0.5938,-0.92569 -0.06,-0.0508 -0.12503,-0.0983 -0.20004,-0.12418 -0.51852,-0.17387 -0.294,0.71176 -0.20951,0.9353 0.11686,0.31329 0.294,0.70936 0.53115,0.9458 0.0519,0.0519 0.11345,0.0982 0.18398,0.11236 0.10765,0.0232 0.20714,-0.0546 0.26164,-0.14421 0.0444,-0.0745 0.0623,-0.16319 0.0729,-0.24945 0.0187,-0.18322 0.002,-0.37018 -0.0469,-0.54993 z" />
    <path
       style="fill:url(#linearGradient934);fill-opacity:1;stroke-width:0.011698"
       id="path10"
       d="m 412.70306,541.54334 c -0.002,0.51912 -0.31247,1.03817 -0.99648,1.03817 -0.68394,0 -1.0022,-0.51076 -1.0022,-1.03225 0,-0.65032 0.44324,-1.05233 1.01612,-1.05233 0.66431,0.007 0.98836,0.50961 0.98256,1.04641 z m -0.98256,-0.71886 c -0.42935,0 -0.67013,0.30509 -0.67241,0.72126 0,0.36182 0.19788,0.70116 0.66426,0.70116 0.4664,0 0.64463,-0.36769 0.64463,-0.7047 0.007,-0.35003 -0.17587,-0.70944 -0.63648,-0.71772 z m 1.26954,1.49098 c 0,0.0769 0.002,-0.36536 0,-0.43273 h 0.3148 l 0.023,0.2708 c 0.10304,0.0603 0.26271,0.10524 0.39349,0.10524 0.24307,0 0.49652,-0.0627 0.49652,-0.30511 -0.008,-0.21993 -0.2905,-0.26484 -0.51847,-0.28853 -0.38771,-0.0406 -0.70017,-0.13708 -0.70017,-0.58171 0,-0.39613 0.43859,-0.59351 0.76495,-0.59351 0.26272,-0.007 0.44904,0.0354 0.68627,0.23049 0,0.1597 -0.002,0.25426 -0.002,0.41385 h -0.3043 l -0.0187,-0.26243 c -0.12268,-0.0604 -0.24884,-0.0769 -0.34602,-0.0745 -0.20949,0.002 -0.43285,0.10282 -0.43285,0.28257 0,0.17614 0.14467,0.22463 0.40157,0.26252 0.41899,0.0568 0.82285,0.15366 0.82285,0.61009 -0.002,0.49894 -0.46061,0.63024 -0.85408,0.63024 -0.29973,0.001 -0.48723,-0.0557 -0.72447,-0.26728 z"
       inkscape:connector-curvature="0" />
    <path
       style="fill:url(#linearGradient936);fill-opacity:1;stroke-width:0.011698"
       id="path12"
       d="m 410.27964,542.41128 c 0,0.091 -0.0718,0.16432 -0.16083,0.16432 h -1.85984 c -0.0891,0 -0.16082,-0.0733 -0.16082,-0.16432 v -0.0149 c 0,-0.0911 0.0717,-0.16427 0.16082,-0.16427 h 1.85984 c 0.089,0 0.16083,0.0732 0.16083,0.16427 z"
       inkscape:connector-curvature="0" />
    <rect
       style="fill:#626f9d;fill-opacity:0.2;stroke:none;stroke-width:0.630375"
       id="center-3"
       width="30.049994"
       height="20.999996"
       x="385.57144"
       y="522.79803"
       ry="1.9999976"
       rx="2.0033386" />
    <path
       d="m 413.65488,521.80284 h -14.66335 c -0.32409,0 -0.60748,-0.16681 -0.81006,-0.45909 l -1.09375,-1.66919 c -0.36449,-0.58426 -0.97223,-0.87656 -1.62011,-0.87656 h -7.49371 c -1.86344,0 -3.40247,1.58596 -3.40247,3.50555 v 19.48962 c 0,1.62762 1.29635,3.00483 2.91647,3.00483 h 12.59752 v 0 0 0 0 0 0 0 h 0.97201 v 0 0 0 0 0 0 0 0 0 h 12.59752 c 1.57976,0 2.91647,-1.33563 2.91647,-3.00483 v -16.9856 c 0,-1.66919 -1.29606,-3.00452 -2.91647,-3.00452 z M 401.05743,544.798 v 0 h -0.97201 v 0 0 z m 14.54176,-3.00473 c 0,1.08499 -0.85078,2.00314 -1.94424,2.00314 h -26.1672 c -1.0531,0 -1.94424,-0.91815 -1.94424,-2.00314 l -2.9e-4,-6.71912 v -3.79784 c 0,-1.08501 0.89115,-2.00314 1.94424,-2.00314 h 14.66336 c 0.64817,0 1.25563,-0.33391 1.62012,-0.87656 l 1.05309,-1.6692 c 0.20259,-0.25036 0.48599,-0.45909 0.81006,-0.45909 h 7.53421 c 1.33671,0 2.43053,1.12689 2.43053,2.50418 v 5.46703 z m -2.43053,-16.4848 h -7.53421 c -0.64817,0 -1.25563,0.3339 -1.62011,0.87655 l -1.0531,1.6692 c -0.1619,0.29228 -0.48599,0.45908 -0.81006,0.45908 h -14.66325 c -0.72897,0 -1.41666,0.0848 -1.9445,0.8512 v -4.3665 c 0,-1 1.028,-2 2.028,-2 h 8.00001 l 0.0214,0.0232 1.47855,-0.0232 1.96053,0.006 h 14.66336 c 1.05309,0 1.94424,0.91814 1.94424,2.00314 v 1.54407 c -0.64789,-0.66751 -1.49838,-1.04304 -2.47061,-1.04304 z"
       id="path64"
       sodipodi:nodetypes="csccsssssccccccccccccccccccsssccccccccccssccsssccssscccsccscccccccssscc"
       style="fill:url(#linearGradient2232);fill-opacity:1;stroke-width:0.0734205" />
  </g>
</svg>
