<?xml version="1.0" encoding="UTF-8" standalone="no"?>
<svg
   width="32"
   version="1.1"
   height="32"
   viewBox="0 0 32 32"
   id="svg17"
   sodipodi:docname="folder-cloud.svg"
   inkscape:version="1.1.1 (3bf5ae0d25, 2021-09-20)"
   xmlns:inkscape="http://www.inkscape.org/namespaces/inkscape"
   xmlns:sodipodi="http://sodipodi.sourceforge.net/DTD/sodipodi-0.dtd"
   xmlns:xlink="http://www.w3.org/1999/xlink"
   xmlns="http://www.w3.org/2000/svg"
   xmlns:svg="http://www.w3.org/2000/svg"
   xmlns:rdf="http://www.w3.org/1999/02/22-rdf-syntax-ns#"
   xmlns:cc="http://creativecommons.org/ns#"
   xmlns:dc="http://purl.org/dc/elements/1.1/">
  <sodipodi:namedview
     pagecolor="#ffffff"
     bordercolor="#666666"
     borderopacity="1"
     objecttolerance="10"
     gridtolerance="10"
     guidetolerance="10"
     inkscape:pageopacity="0"
     inkscape:pageshadow="2"
     inkscape:window-width="1920"
     inkscape:window-height="1007"
     id="namedview19"
     showgrid="false"
     inkscape:zoom="9.8125"
     inkscape:cx="-19.974522"
     inkscape:cy="8.4076433"
     inkscape:window-x="0"
     inkscape:window-y="0"
     inkscape:window-maximized="1"
     inkscape:current-layer="layer1"
     inkscape:document-rotation="0"
     inkscape:pagecheckerboard="0" />
  <defs
     id="defs5455">
    <linearGradient
       inkscape:collect="always"
       xlink:href="#linearGradient953"
       id="linearGradient2232"
       x1="384.57144"
       y1="515.79797"
       x2="448.57144"
       y2="515.79797"
       gradientUnits="userSpaceOnUse"
       gradientTransform="matrix(0.4999999,0,0,0.4999999,192.28575,273.89905)" />
    <linearGradient
       inkscape:collect="always"
       id="linearGradient953">
      <stop
         style="stop-color:#96cdfb;stop-opacity:0.80000001"
         offset="0"
         id="stop947" />
      <stop
         style="stop-color:#55ddff;stop-opacity:1"
         offset="0.50507295"
         id="stop949" />
      <stop
         style="stop-color:#ffaeff;stop-opacity:0.69"
         offset="1"
         id="stop951" />
    </linearGradient>
    <linearGradient
       inkscape:collect="always"
       xlink:href="#linearGradient953"
       id="linearGradient855-3"
       x1="401.04019"
       y1="520.79797"
       x2="433.10275"
       y2="520.79797"
       gradientUnits="userSpaceOnUse"
       gradientTransform="matrix(0.37426812,0,0,0.37426812,252.47487,343.38305)" />
    <linearGradient
       inkscape:collect="always"
       xlink:href="#linearGradient1061"
       id="linearGradient1355"
       x1="420.57144"
       y1="528.80402"
       x2="444.57144"
       y2="528.80402"
       gradientUnits="userSpaceOnUse"
       gradientTransform="matrix(0.4999999,0,0,0.4999999,192.28575,273.89905)" />
    <linearGradient
       inkscape:collect="always"
       id="linearGradient1061">
      <stop
         style="stop-color:#e8a2af;stop-opacity:0.80000001"
         offset="0"
         id="stop1055" />
      <stop
         style="stop-color:#89dceb;stop-opacity:0.80000001"
         offset="0.50507295"
         id="stop1057" />
      <stop
         style="stop-color:#ffaeff;stop-opacity:0.69"
         offset="1"
         id="stop1059" />
    </linearGradient>
  </defs>
  <metadata
     id="metadata5458">
    <rdf:RDF>
      <cc:Work
         rdf:about="">
        <dc:format>image/svg+xml</dc:format>
        <dc:type
           rdf:resource="http://purl.org/dc/dcmitype/StillImage" />
      </cc:Work>
    </rdf:RDF>
  </metadata>
  <g
     inkscape:label="Capa 1"
     inkscape:groupmode="layer"
     id="layer1"
     transform="translate(-384.57143,-515.798)">
    <rect
       style="fill:#626f9d;fill-opacity:0.2;stroke:none;stroke-width:0.630375"
       id="center-3"
       width="30.049994"
       height="20.999996"
       x="385.57144"
       y="522.79803"
       ry="1.9999976"
       rx="2.0033386" />
    <path
       d="m 413.65488,521.80284 h -14.66335 c -0.32409,0 -0.60748,-0.16681 -0.81006,-0.45909 l -1.09375,-1.66919 c -0.36449,-0.58426 -0.97223,-0.87656 -1.62011,-0.87656 h -7.49371 c -1.86344,0 -3.40247,1.58596 -3.40247,3.50555 v 19.48962 c 0,1.62762 1.29635,3.00483 2.91647,3.00483 h 12.59752 v 0 0 0 0 0 0 0 h 0.97201 v 0 0 0 0 0 0 0 0 0 h 12.59752 c 1.57976,0 2.91647,-1.33563 2.91647,-3.00483 v -16.9856 c 0,-1.66919 -1.29606,-3.00452 -2.91647,-3.00452 z M 401.05743,544.798 v 0 h -0.97201 v 0 0 z m 14.54176,-3.00473 c 0,1.08499 -0.85078,2.00314 -1.94424,2.00314 h -26.1672 c -1.0531,0 -1.94424,-0.91815 -1.94424,-2.00314 l -2.9e-4,-6.71912 v -3.79784 c 0,-1.08501 0.89115,-2.00314 1.94424,-2.00314 h 14.66336 c 0.64817,0 1.25563,-0.33391 1.62012,-0.87656 l 1.05309,-1.6692 c 0.20259,-0.25036 0.48599,-0.45909 0.81006,-0.45909 h 7.53421 c 1.33671,0 2.43053,1.12689 2.43053,2.50418 v 5.46703 z m -2.43053,-16.4848 h -7.53421 c -0.64817,0 -1.25563,0.3339 -1.62011,0.87655 l -1.0531,1.6692 c -0.1619,0.29228 -0.48599,0.45908 -0.81006,0.45908 h -14.66325 c -0.72897,0 -1.41666,0.0848 -1.9445,0.8512 v -4.3665 c 0,-1 1.028,-2 2.028,-2 h 8.00001 l 0.0215,0.0232 1.47855,-0.0232 1.96053,0.006 h 14.66336 c 1.05309,0 1.94424,0.91814 1.94424,2.00314 v 1.54407 c -0.64789,-0.66751 -1.49838,-1.04304 -2.47061,-1.04304 z"
       id="path64"
       sodipodi:nodetypes="csccsssssccccccccccccccccccsssccccccccccssccsssccssscccsccscccccccssscc"
       style="fill:url(#linearGradient2232);fill-opacity:1;stroke-width:0.0734205" />
    <path
       d="m 407.82288,535.30694 c 0.20669,0 0.37427,0.16758 0.37427,0.37427 0,0.20669 -0.16758,0.37427 -0.37427,0.37427 -0.82676,0 -1.49707,0.67031 -1.49707,1.49707 0,0.20669 -0.16758,0.37427 -0.37427,0.37427 -0.20669,0 -0.37427,-0.16758 -0.37427,-0.37427 0,-1.24013 1.00547,-2.24561 2.24561,-2.24561 z m 4.11694,7.48537 H 405.203 c -1.44683,0 -2.61988,-1.17305 -2.61988,-2.61988 0,-0.20669 0.16758,-0.37427 0.37427,-0.37427 0.20669,0 0.37427,0.16758 0.37427,0.37427 0,1.03345 0.83789,1.87134 1.87134,1.87134 h 6.73682 c 1.03345,0 1.87134,-0.83789 1.87134,-1.87134 0,-0.78472 -0.48484,-1.45413 -1.16996,-1.73136 0.008,0.002 0.0157,0.003 0.0238,0.006 -0.20577,-0.0835 -0.35087,-0.2851 -0.35087,-0.52066 0,-0.59284 -0.46108,-1.07309 -1.04332,-1.11475 -0.0229,-0.005 -0.0488,-0.008 -0.0795,-0.008 -0.27083,0 -0.50821,-0.21657 -0.63962,-0.48739 0.003,0.006 10e-4,0.0106 10e-4,0.0157 -0.46745,-1.04402 -1.51149,-1.77392 -2.73006,-1.77392 -1.65352,0 -2.99415,1.34063 -2.99415,2.99415 0,0.60397 0.17984,1.16538 0.48777,1.63578 l -0.001,5e-4 c 0.0464,0.0625 0.0749,0.13964 0.0749,0.22334 0,0.20669 -0.16758,0.37427 -0.37427,0.37427 -0.15022,0 -0.2785,-0.0885 -0.33808,-0.21601 -0.1429,-0.2224 -0.26407,-0.46107 -0.35855,-0.71234 -0.005,-0.0128 -0.009,-0.0259 -0.014,-0.0388 -0.0289,-0.0788 -0.0552,-0.15827 -0.0786,-0.23939 -0.0932,-0.32716 -0.14638,-0.67072 -0.14638,-1.02762 0,-2.06707 1.67562,-3.74269 3.74268,-3.74269 1.53546,0 2.85341,0.9258 3.43054,2.24854 0.96327,0.0316 1.74123,0.79075 1.8028,1.74633 0.888,0.41942 1.50348,1.32054 1.50348,2.36769 0,1.44683 -1.17305,2.61988 -2.61988,2.61988 z m -8.60816,-3.36842 c -0.20669,0 -0.37427,-0.16757 -0.37427,-0.37426 0,-0.20669 0.16758,-0.37427 0.37427,-0.37427 0.20669,0 0.37427,0.16758 0.37427,0.37427 0,0.20669 -0.16758,0.37426 -0.37427,0.37426 z"
       id="path2-3-6"
       style="fill:url(#linearGradient855-3);fill-opacity:1;stroke:url(#linearGradient1355);stroke-width:0.0233917;stroke-opacity:1" />
  </g>
</svg>
