<?xml version="1.0" encoding="UTF-8" standalone="no"?>
<svg
   width="32"
   version="1.1"
   height="32"
   viewBox="0 0 32 32"
   id="svg15"
   sodipodi:docname="folder-crash.svg"
   inkscape:version="1.1.1 (3bf5ae0d25, 2021-09-20)"
   xmlns:inkscape="http://www.inkscape.org/namespaces/inkscape"
   xmlns:sodipodi="http://sodipodi.sourceforge.net/DTD/sodipodi-0.dtd"
   xmlns:xlink="http://www.w3.org/1999/xlink"
   xmlns="http://www.w3.org/2000/svg"
   xmlns:svg="http://www.w3.org/2000/svg"
   xmlns:rdf="http://www.w3.org/1999/02/22-rdf-syntax-ns#"
   xmlns:cc="http://creativecommons.org/ns#"
   xmlns:dc="http://purl.org/dc/elements/1.1/">
  <sodipodi:namedview
     pagecolor="#ffffff"
     bordercolor="#666666"
     borderopacity="1"
     objecttolerance="10"
     gridtolerance="10"
     guidetolerance="10"
     inkscape:pageopacity="0"
     inkscape:pageshadow="2"
     inkscape:window-width="1920"
     inkscape:window-height="1007"
     id="namedview17"
     showgrid="false"
     inkscape:zoom="9.8125"
     inkscape:cx="-14.165605"
     inkscape:cy="8.1019108"
     inkscape:window-x="0"
     inkscape:window-y="0"
     inkscape:window-maximized="1"
     inkscape:current-layer="g4261"
     inkscape:pagecheckerboard="0" />
  <defs
     id="defs5455">
    <linearGradient
       inkscape:collect="always"
       xlink:href="#linearGradient2230"
       id="linearGradient2232"
       x1="384.57144"
       y1="515.79797"
       x2="448.57144"
       y2="515.79797"
       gradientUnits="userSpaceOnUse"
       gradientTransform="matrix(0.4999999,0,0,0.4999999,192.28575,273.89905)" />
    <linearGradient
       inkscape:collect="always"
       id="linearGradient2230">
      <stop
         style="stop-color:#4e99ca;stop-opacity:0.80000001"
         offset="0"
         id="stop2226" />
      <stop
         style="stop-color:#20ffff;stop-opacity:0.80000001"
         offset="0.50507295"
         id="stop2332" />
      <stop
         style="stop-color:#ffaeff;stop-opacity:0.69"
         offset="1"
         id="stop2228" />
    </linearGradient>
    <linearGradient
       inkscape:collect="always"
       xlink:href="#linearGradient1989"
       id="linearGradient1807"
       x1="420.57144"
       y1="525.79797"
       x2="444.57144"
       y2="525.79797"
       gradientUnits="userSpaceOnUse"
       gradientTransform="matrix(0.4999999,0,0,0.4999999,192.28575,273.89905)" />
    <linearGradient
       inkscape:collect="always"
       id="linearGradient1989">
      <stop
         style="stop-color:#eb0a42;stop-opacity:1;"
         offset="0"
         id="stop1985" />
      <stop
         style="stop-color:#fa93ad;stop-opacity:1"
         offset="0.52466631"
         id="stop1991" />
      <stop
         style="stop-color:#f86287;stop-opacity:1"
         offset="1"
         id="stop1987" />
    </linearGradient>
    <linearGradient
       inkscape:collect="always"
       xlink:href="#linearGradient1805"
       id="linearGradient1809"
       x1="426.38104"
       y1="521.18896"
       x2="429.38095"
       y2="521.18896"
       gradientUnits="userSpaceOnUse"
       gradientTransform="matrix(0.4999999,0,0,0.4999999,192.28575,273.89905)" />
    <linearGradient
       inkscape:collect="always"
       id="linearGradient1805">
      <stop
         style="stop-color:#eb0a42;stop-opacity:1;"
         offset="0"
         id="stop1801" />
      <stop
         style="stop-color:#eb0a42;stop-opacity:0;"
         offset="1"
         id="stop1803" />
    </linearGradient>
    <linearGradient
       inkscape:collect="always"
       xlink:href="#linearGradient1805"
       id="linearGradient1811"
       x1="430.93216"
       y1="524.16327"
       x2="433.93207"
       y2="524.16327"
       gradientUnits="userSpaceOnUse"
       gradientTransform="matrix(0.4999999,0,0,0.4999999,192.28575,273.89905)" />
    <linearGradient
       inkscape:collect="always"
       xlink:href="#linearGradient1805"
       id="linearGradient1813"
       x1="426.00653"
       y1="530.18903"
       x2="429.00644"
       y2="530.18903"
       gradientUnits="userSpaceOnUse"
       gradientTransform="matrix(0.4999999,0,0,0.4999999,192.28575,273.89905)" />
    <linearGradient
       inkscape:collect="always"
       xlink:href="#linearGradient1805"
       id="linearGradient1815"
       x1="435.85754"
       y1="530.18903"
       x2="438.85745"
       y2="530.18903"
       gradientUnits="userSpaceOnUse"
       gradientTransform="matrix(0.4999999,0,0,0.4999999,192.28575,273.89905)" />
    <linearGradient
       inkscape:collect="always"
       xlink:href="#linearGradient1805"
       id="linearGradient1817"
       x1="429.20688"
       y1="528.58966"
       x2="432.20679"
       y2="528.58966"
       gradientUnits="userSpaceOnUse"
       gradientTransform="matrix(0.4999999,0,0,0.4999999,192.28575,273.89905)" />
    <linearGradient
       inkscape:collect="always"
       xlink:href="#linearGradient1805"
       id="linearGradient1819"
       x1="432.65762"
       y1="528.58966"
       x2="435.65753"
       y2="528.58966"
       gradientUnits="userSpaceOnUse"
       gradientTransform="matrix(0.4999999,0,0,0.4999999,192.28575,273.89905)" />
    <linearGradient
       inkscape:collect="always"
       xlink:href="#linearGradient1805"
       id="linearGradient1821"
       x1="435.38129"
       y1="521.18896"
       x2="438.3812"
       y2="521.18896"
       gradientUnits="userSpaceOnUse"
       gradientTransform="matrix(0.4999999,0,0,0.4999999,192.28575,273.89905)" />
  </defs>
  <metadata
     id="metadata5458">
    <rdf:RDF>
      <cc:Work
         rdf:about="">
        <dc:format>image/svg+xml</dc:format>
        <dc:type
           rdf:resource="http://purl.org/dc/dcmitype/StillImage" />
      </cc:Work>
    </rdf:RDF>
  </metadata>
  <g
     inkscape:label="Capa 1"
     inkscape:groupmode="layer"
     id="g4261"
     transform="translate(-384.57143,-515.798)">
    <rect
       style="fill:#626f9d;fill-opacity:0.2;stroke:none;stroke-width:0.630375"
       id="center-3"
       width="30.049994"
       height="20.999996"
       x="385.57147"
       y="522.79803"
       ry="1.9999976"
       rx="2.0033386" />
    <path
       d="m 413.65488,521.80284 h -14.66335 c -0.32409,0 -0.60748,-0.16681 -0.81006,-0.45909 l -1.09375,-1.66919 c -0.36449,-0.58426 -0.97223,-0.87656 -1.62011,-0.87656 h -7.49371 c -1.86344,0 -3.40247,1.58596 -3.40247,3.50555 v 19.48962 c 0,1.62762 1.29635,3.00483 2.91647,3.00483 h 12.59752 v 0 0 0 0 0 0 0 h 0.97201 v 0 0 0 0 0 0 0 0 0 h 12.59752 c 1.57976,0 2.91647,-1.33563 2.91647,-3.00483 v -16.9856 c 0,-1.66919 -1.29606,-3.00452 -2.91647,-3.00452 z M 401.05743,544.798 v 0 h -0.97201 v 0 0 z m 14.54176,-3.00473 c 0,1.08499 -0.85078,2.00314 -1.94424,2.00314 h -26.1672 c -1.0531,0 -1.94424,-0.91815 -1.94424,-2.00314 l -2.9e-4,-6.71912 v -3.79784 c 0,-1.08501 0.89115,-2.00314 1.94424,-2.00314 h 14.66336 c 0.64817,0 1.25563,-0.33391 1.62012,-0.87656 l 1.05309,-1.6692 c 0.20259,-0.25036 0.48599,-0.45909 0.81006,-0.45909 h 7.53421 c 1.33671,0 2.43053,1.12689 2.43053,2.50418 v 5.46703 z m -2.43053,-16.4848 h -7.53421 c -0.64817,0 -1.25563,0.3339 -1.62011,0.87655 l -1.0531,1.6692 c -0.1619,0.29228 -0.48599,0.45908 -0.81006,0.45908 h -14.66325 c -0.72897,0 -1.41666,0.0848 -1.9445,0.8512 v -4.3665 c 0,-1 1.028,-2 2.028,-2 h 8.00001 l 0.0215,0.0232 1.47855,-0.0232 1.96053,0.006 h 14.66336 c 1.05309,0 1.94424,0.91814 1.94424,2.00314 v 1.54407 c -0.64789,-0.66751 -1.49838,-1.04304 -2.47061,-1.04304 z"
       id="path64"
       sodipodi:nodetypes="csccsssssccccccccccccccccccsssccccccccccssccsssccssscccsccscccccccssscc"
       style="fill:url(#linearGradient2232);fill-opacity:1;stroke-width:0.0734205" />
    <path
       fill-rule="evenodd"
       clip-rule="evenodd"
       d="m 412.85757,542.798 h -6.429 c -0.23636,0 -0.42814,-0.19232 -0.42814,-0.42857 0,-0.2369 0.19178,-0.42879 0.42814,-0.42879 h 6.429 c 0.47335,0 0.85714,-0.38379 0.85714,-0.85714 v -8.57143 c 0,-0.47336 -0.38379,-0.85693 -0.85714,-0.85693 h -8.57164 c -0.47325,0 -0.85725,0.38357 -0.85725,0.85693 v 8.14286 c 0,0.23689 -0.19168,0.42857 -0.42857,0.42857 -0.23647,0 -0.42868,-0.19168 -0.42868,-0.42857 v -8.14286 c 0,-0.94672 0.76789,-1.71407 1.7145,-1.71407 h 8.57164 c 0.9465,0 1.71385,0.76735 1.71385,1.71407 v 8.57143 c 0,0.94671 -0.76735,1.7145 -1.71385,1.7145 z m -8.14296,-0.85736 c 0.23635,0 0.42857,0.19189 0.42857,0.42879 0,0.23625 -0.19222,0.42857 -0.42857,0.42857 -0.2369,0 -0.42868,-0.19232 -0.42868,-0.42857 0,-0.2369 0.19178,-0.42879 0.42868,-0.42879 z"
       id="path2-3"
       style="fill:url(#linearGradient1807);fill-opacity:1;stroke-width:0.0267857" />
    <rect
       x="405.47626"
       y="533.74353"
       width="1.4999552"
       height="1.4999586"
       id="rect6-6"
       style="fill:url(#linearGradient1809);fill-opacity:1;stroke-width:0.126685" />
    <rect
       x="407.7518"
       y="535.23071"
       width="1.4999552"
       height="1.4999586"
       id="rect8-7"
       style="fill:url(#linearGradient1811);fill-opacity:1;stroke-width:0.126685" />
    <rect
       x="405.289"
       y="538.24359"
       width="1.4999552"
       height="1.4999586"
       id="rect10-5"
       style="fill:url(#linearGradient1813);fill-opacity:1;stroke-width:0.126685" />
    <rect
       x="410.21451"
       y="538.24359"
       width="1.4999552"
       height="1.4999586"
       id="rect12-3"
       style="fill:url(#linearGradient1815);fill-opacity:1;stroke-width:0.126685" />
    <rect
       x="406.88916"
       y="537.44391"
       width="1.4999552"
       height="1.4999586"
       id="rect14-5"
       style="fill:url(#linearGradient1817);fill-opacity:1;stroke-width:0.126685" />
    <rect
       x="408.61453"
       y="537.44391"
       width="1.4999552"
       height="1.4999586"
       id="rect16-6"
       style="fill:url(#linearGradient1819);fill-opacity:1;stroke-width:0.126685" />
    <rect
       x="409.97638"
       y="533.74353"
       width="1.4999552"
       height="1.4999586"
       id="rect18-2"
       style="fill:url(#linearGradient1821);fill-opacity:1;stroke-width:0.126685" />
  </g>
</svg>
