<?xml version="1.0" encoding="UTF-8" standalone="no"?>
<svg
   width="32"
   version="1.1"
   height="32"
   viewBox="0 0 32 32"
   id="svg17"
   sodipodi:docname="folder-mail.svg"
   inkscape:version="1.1.1 (3bf5ae0d25, 2021-09-20)"
   xmlns:inkscape="http://www.inkscape.org/namespaces/inkscape"
   xmlns:sodipodi="http://sodipodi.sourceforge.net/DTD/sodipodi-0.dtd"
   xmlns:xlink="http://www.w3.org/1999/xlink"
   xmlns="http://www.w3.org/2000/svg"
   xmlns:svg="http://www.w3.org/2000/svg"
   xmlns:rdf="http://www.w3.org/1999/02/22-rdf-syntax-ns#"
   xmlns:cc="http://creativecommons.org/ns#"
   xmlns:dc="http://purl.org/dc/elements/1.1/">
  <sodipodi:namedview
     pagecolor="#ffffff"
     bordercolor="#666666"
     borderopacity="1"
     objecttolerance="10"
     gridtolerance="10"
     guidetolerance="10"
     inkscape:pageopacity="0"
     inkscape:pageshadow="2"
     inkscape:window-width="1920"
     inkscape:window-height="1007"
     id="namedview19"
     showgrid="false"
     inkscape:zoom="9.8125"
     inkscape:cx="-19.770701"
     inkscape:cy="1.0700637"
     inkscape:window-x="0"
     inkscape:window-y="0"
     inkscape:window-maximized="1"
     inkscape:current-layer="layer1"
     inkscape:pagecheckerboard="0" />
  <defs
     id="defs5455">
    <linearGradient
       inkscape:collect="always"
       xlink:href="#linearGradient2230"
       id="linearGradient2232"
       x1="384.57144"
       y1="515.79797"
       x2="448.57144"
       y2="515.79797"
       gradientUnits="userSpaceOnUse"
       gradientTransform="matrix(0.4999999,0,0,0.4999999,192.28576,273.89905)" />
    <linearGradient
       inkscape:collect="always"
       id="linearGradient2230">
      <stop
         style="stop-color:#4e99ca;stop-opacity:0.80000001"
         offset="0"
         id="stop2226" />
      <stop
         style="stop-color:#20ffff;stop-opacity:0.80000001"
         offset="0.50507295"
         id="stop2332" />
      <stop
         style="stop-color:#ffaeff;stop-opacity:0.69"
         offset="1"
         id="stop2228" />
    </linearGradient>
    <linearGradient
       inkscape:collect="always"
       xlink:href="#linearGradient2230"
       id="linearGradient961"
       gradientUnits="userSpaceOnUse"
       x1="401.97144"
       y1="520.79797"
       x2="431.50919"
       y2="520.79797"
       gradientTransform="matrix(0.4062597,0,0,0.4062597,239.26679,326.24376)" />
  </defs>
  <metadata
     id="metadata5458">
    <rdf:RDF>
      <cc:Work
         rdf:about="">
        <dc:format>image/svg+xml</dc:format>
        <dc:type
           rdf:resource="http://purl.org/dc/dcmitype/StillImage" />
      </cc:Work>
    </rdf:RDF>
  </metadata>
  <g
     inkscape:label="Capa 1"
     inkscape:groupmode="layer"
     id="layer1"
     transform="translate(-384.57143,-515.798)">
    <rect
       style="fill:#626f9d;fill-opacity:0.2;stroke:none;stroke-width:0.630375"
       id="center-3"
       width="30.049994"
       height="20.999996"
       x="385.57147"
       y="522.79803"
       ry="1.9999976"
       rx="2.0033386" />
    <path
       d="m 413.65488,521.80284 h -14.66335 c -0.32409,0 -0.60748,-0.16681 -0.81006,-0.45909 l -1.09375,-1.66919 c -0.36449,-0.58426 -0.97223,-0.87656 -1.62011,-0.87656 h -7.49371 c -1.86344,0 -3.40247,1.58596 -3.40247,3.50555 v 19.48962 c 0,1.62762 1.29635,3.00483 2.91647,3.00483 h 12.59752 v 0 0 0 0 0 0 0 h 0.97201 v 0 0 0 0 0 0 0 0 0 h 12.59752 c 1.57976,0 2.91647,-1.33563 2.91647,-3.00483 v -16.9856 c 0,-1.66919 -1.29606,-3.00452 -2.91647,-3.00452 z M 401.05743,544.798 v 0 h -0.97201 v 0 0 z m 14.54176,-3.00473 c 0,1.08499 -0.85078,2.00314 -1.94424,2.00314 h -26.1672 c -1.0531,0 -1.94424,-0.91815 -1.94424,-2.00314 l -2.9e-4,-6.71912 v -3.79784 c 0,-1.08501 0.89115,-2.00314 1.94424,-2.00314 h 14.66336 c 0.64817,0 1.25563,-0.33391 1.62012,-0.87656 l 1.05309,-1.6692 c 0.20259,-0.25036 0.48599,-0.45909 0.81006,-0.45909 h 7.53421 c 1.33671,0 2.43053,1.12689 2.43053,2.50418 v 5.46703 z m -2.43053,-16.4848 h -7.53421 c -0.64817,0 -1.25563,0.3339 -1.62011,0.87655 l -1.0531,1.6692 c -0.1619,0.29228 -0.48599,0.45908 -0.81006,0.45908 h -14.66325 c -0.72897,0 -1.41666,0.0848 -1.9445,0.8512 v -4.3665 c 0,-1 1.028,-2 2.028,-2 h 8.00001 l 0.0214,0.0232 1.47855,-0.0232 1.96053,0.006 h 14.66336 c 1.05309,0 1.94424,0.91814 1.94424,2.00314 v 1.54407 c -0.64789,-0.66751 -1.49838,-1.04304 -2.47061,-1.04304 z"
       id="path64"
       sodipodi:nodetypes="csccsssssccccccccccccccccccsssccccccccccssccsssccssscccsccscccccccssscc"
       style="fill:url(#linearGradient2232);fill-opacity:1;stroke-width:0.0734205" />
    <path
       fill-rule="evenodd"
       clip-rule="evenodd"
       d="m 404.49224,540.77748 c -0.14631,-0.14632 -0.14631,-0.38381 0,-0.53011 l 1.06072,-1.06071 c 0.14639,-0.14684 0.38379,-0.14684 0.53018,0 0.14639,0.1463 0.14639,0.38379 0,0.53009 l -1.06071,1.06073 c -0.14642,0.14644 -0.38379,0.14644 -0.53019,0 z m 7.6286,0 -1.06071,-1.06073 c -0.14627,-0.1463 -0.14627,-0.38379 0,-0.53009 0.14649,-0.14684 0.38377,-0.14684 0.53028,0 l 1.06073,1.06071 c 0.14625,0.1463 0.14625,0.38379 0,0.53011 -0.14651,0.14644 -0.38384,0.14644 -0.5303,0 z m 2.01926,-5.64361 -4.50778,4.13281 c -0.58577,0.58577 -1.53553,0.58577 -2.12135,0 l -2.64485,-2.64493 -0.16908,-0.16898 -0.72222,-0.72235 -0.003,10e-4 c -0.0684,-0.0855 -0.16592,-0.15838 -0.27523,-0.15838 -0.20726,0 -0.37509,0.16792 -0.37509,0.375 v 1.05649 0.44383 3.7496 c 0,0.41454 0.33572,0.75012 0.75009,0.75012 h 8.99967 c 0.41437,0 0.74995,-0.33558 0.74995,-0.75012 v -4.49976 c 0,-0.20728 0.16793,-0.375 0.37521,-0.375 0.20712,0 0.375,0.16774 0.375,0.375 v 4.49976 c 0,0.82852 -0.67181,1.50033 -1.50016,1.50033 h -8.99967 c -0.82844,-2e-5 -1.50016,-0.67183 -1.50016,-1.50035 v -5.2499 c 0,-0.6211 0.5039,-1.12465 1.12516,-1.12465 0.2895,0 0.55078,0.1324 0.75007,0.32449 v -0.006 l 3.59459,3.59468 c 0.29271,0.29318 0.76758,0.29318 1.06036,0 l 4.50756,-4.1328 c 0.14689,-0.1463 0.21734,-0.33839 0.21645,-0.53009 h -0.005 c 0,-0.41435 -0.33558,-0.375 -0.74996,-0.375 h -7.87464 c -0.20682,0 -0.37507,-0.16791 -0.37507,-0.37519 0,-0.20707 0.16825,-0.375 0.37507,-0.375 h 7.87487 c 0.68792,0 1.26668,0.206 1.44321,0.75017 v 0 c 0.12797,0.49753 0.0149,1.04644 -0.37462,1.43571 z m -10.44325,-1.43569 c -0.20726,0 -0.3751,-0.1679 -0.3751,-0.37518 0,-0.20708 0.16784,-0.375 0.3751,-0.375 0.20719,0 0.375,0.1679 0.375,0.375 0,0.20728 -0.16781,0.37518 -0.375,0.37518 z"
       id="path2-7"
       style="fill:url(#linearGradient961);fill-opacity:1;stroke-width:0.0234375" />
  </g>
</svg>
