<?xml version="1.0" encoding="UTF-8" standalone="no"?>
<svg
   width="32"
   version="1.1"
   height="32"
   viewBox="0 0 32 32"
   id="svg17"
   sodipodi:docname="folder-bookmark.svg"
   inkscape:version="1.1.1 (3bf5ae0d25, 2021-09-20)"
   xmlns:inkscape="http://www.inkscape.org/namespaces/inkscape"
   xmlns:sodipodi="http://sodipodi.sourceforge.net/DTD/sodipodi-0.dtd"
   xmlns:xlink="http://www.w3.org/1999/xlink"
   xmlns="http://www.w3.org/2000/svg"
   xmlns:svg="http://www.w3.org/2000/svg"
   xmlns:rdf="http://www.w3.org/1999/02/22-rdf-syntax-ns#"
   xmlns:cc="http://creativecommons.org/ns#"
   xmlns:dc="http://purl.org/dc/elements/1.1/">
  <sodipodi:namedview
     pagecolor="#ffffff"
     bordercolor="#666666"
     borderopacity="1"
     objecttolerance="10"
     gridtolerance="10"
     guidetolerance="10"
     inkscape:pageopacity="0"
     inkscape:pageshadow="2"
     inkscape:window-width="1920"
     inkscape:window-height="1007"
     id="namedview19"
     showgrid="false"
     inkscape:zoom="9.8125"
     inkscape:cx="-6.9299363"
     inkscape:cy="3.9235669"
     inkscape:window-x="0"
     inkscape:window-y="0"
     inkscape:window-maximized="1"
     inkscape:current-layer="layer1"
     inkscape:pagecheckerboard="0" />
  <defs
     id="defs5455">
    <linearGradient
       inkscape:collect="always"
       xlink:href="#linearGradient1218"
       id="linearGradient1220"
       gradientUnits="userSpaceOnUse"
       x1="384.57144"
       y1="515.79797"
       x2="448.57144"
       y2="515.79797"
       gradientTransform="matrix(0.4999999,0,0,0.4999999,192.28575,273.89904)" />
    <linearGradient
       inkscape:collect="always"
       id="linearGradient1218">
      <stop
         style="stop-color:#96cdfb;stop-opacity:0.80000001"
         offset="0"
         id="stop1212" />
      <stop
         style="stop-color:#00fdfd;stop-opacity:0.80000001"
         offset="0.50507295"
         id="stop1214" />
      <stop
         style="stop-color:#abe9b3;stop-opacity:0.6901961"
         offset="1"
         id="stop1216" />
    </linearGradient>
    <linearGradient
       inkscape:collect="always"
       xlink:href="#linearGradient1218"
       id="linearGradient1203-3"
       x1="408.65643"
       y1="520.43433"
       x2="424.54642"
       y2="520.43433"
       gradientUnits="userSpaceOnUse"
       gradientTransform="matrix(0.48529349,0,0,0.48529349,208.50312,284.23459)" />
  </defs>
  <metadata
     id="metadata5458">
    <rdf:RDF>
      <cc:Work
         rdf:about="">
        <dc:format>image/svg+xml</dc:format>
        <dc:type
           rdf:resource="http://purl.org/dc/dcmitype/StillImage" />
      </cc:Work>
    </rdf:RDF>
  </metadata>
  <g
     inkscape:label="Capa 1"
     inkscape:groupmode="layer"
     id="layer1"
     transform="translate(-384.57143,-515.798)">
    <rect
       style="fill:#626f9d;fill-opacity:0.2;stroke:none;stroke-width:0.630375"
       id="center-3"
       width="30.049994"
       height="20.999996"
       x="385.57144"
       y="522.79803"
       ry="1.9999976"
       rx="2.0033386" />
    <path
       d="m 413.65488,521.80284 h -14.66335 c -0.32409,0 -0.60748,-0.16681 -0.81006,-0.45909 l -1.09375,-1.66919 c -0.36449,-0.58426 -0.97223,-0.87656 -1.62011,-0.87656 h -7.49371 c -1.86344,0 -3.40247,1.58596 -3.40247,3.50555 v 19.48962 c 0,1.62762 1.29635,3.00483 2.91647,3.00483 h 12.59752 v 0 0 0 0 0 0 0 h 0.97201 v 0 0 0 0 0 0 0 0 0 h 12.59752 c 1.57976,0 2.91647,-1.33563 2.91647,-3.00483 v -16.9856 c 0,-1.66919 -1.29606,-3.00452 -2.91647,-3.00452 z M 401.05743,544.798 v 0 h -0.97201 v 0 0 z m 14.54176,-3.00473 c 0,1.08499 -0.85078,2.00314 -1.94424,2.00314 h -26.1672 c -1.0531,0 -1.94424,-0.91815 -1.94424,-2.00314 l -2.9e-4,-6.71912 v -3.79784 c 0,-1.08501 0.89115,-2.00314 1.94424,-2.00314 h 14.66336 c 0.64817,0 1.25563,-0.33391 1.62012,-0.87656 l 1.05309,-1.6692 c 0.20259,-0.25036 0.48599,-0.45909 0.81006,-0.45909 h 7.53421 c 1.33671,0 2.43053,1.12689 2.43053,2.50418 v 5.46703 z m -2.43053,-16.4848 h -7.53421 c -0.64817,0 -1.25563,0.3339 -1.62011,0.87655 l -1.0531,1.6692 c -0.1619,0.29228 -0.48599,0.45908 -0.81006,0.45908 h -14.66325 c -0.72897,0 -1.41666,0.0848 -1.9445,0.8512 v -4.3665 c 0,-1 1.028,-2 2.028,-2 h 8.00001 l 0.0215,0.0232 1.47855,-0.0232 1.96053,0.006 h 14.66336 c 1.05309,0 1.94424,0.91814 1.94424,2.00314 v 1.54407 c -0.64789,-0.66751 -1.49838,-1.04304 -2.47061,-1.04304 z"
       id="path64"
       sodipodi:nodetypes="csccsssssccccccccccccccccccsssccccccccccssccsssccssscccsccscccccccssscc"
       style="fill:url(#linearGradient1220);fill-opacity:1;stroke-width:0.0734205" />
    <path
       fill-rule="evenodd"
       clip-rule="evenodd"
       d="m 411.65794,536.09378 0.73347,-0.23183 c 0.2026,-0.0641 0.42003,0.0436 0.4859,0.24076 0.0657,0.19683 -0.0451,0.40853 -0.24753,0.47262 l -0.7335,0.23179 c -0.20255,0.0639 -0.42003,-0.0438 -0.48571,-0.24095 -0.0659,-0.19702 0.0449,-0.40847 0.24737,-0.47239 z m 0.0874,1.49634 0.37692,0.50428 c 0.12517,0.16772 0.087,0.4021 -0.0853,0.52403 -0.17227,0.12161 -0.41344,0.0844 -0.53863,-0.0831 l -0.35112,-0.46983 c -0.10486,-0.14283 -0.27599,-0.2362 -0.47011,-0.2362 -0.18692,0 -0.3526,0.0866 -0.45839,0.22044 l -0.36281,0.48559 c -0.12517,0.16755 -0.36634,0.20473 -0.53863,0.0831 -0.17224,-0.12193 -0.21045,-0.35631 -0.0853,-0.52403 l 0.35884,-0.48009 c 0.43904,-0.58229 1.27966,-0.71083 1.88098,-0.28602 0.10692,0.0754 0.19673,0.16497 0.27352,0.26183 z m -1.06822,-3.04212 c 0.21295,0 0.38559,0.1679 0.38559,0.375 v 0.58592 c 0,0.72494 -0.60414,1.3125 -1.3495,1.3125 -0.13967,0 -0.27392,-0.022 -0.40082,-0.0604 l -0.58793,-0.18567 c -0.20237,-0.0641 -0.31327,-0.27578 -0.24756,-0.47262 0.0659,-0.19698 0.28334,-0.30487 0.48593,-0.24076 l 0.58511,0.18495 c 0.0525,0.0153 0.10767,0.0246 0.16527,0.0246 0.3195,0 0.57835,-0.25194 0.57835,-0.56249 v -0.58594 c 0,-0.20711 0.17263,-0.37501 0.38556,-0.37501 z m 3.01975,8.25 c -0.22912,0 -0.43639,-0.0897 -0.58739,-0.2351 l -1.88712,-1.83509 c -0.15063,-0.14649 -0.3479,-0.17981 -0.54524,-0.17981 -0.19731,0 -0.39479,0.0333 -0.54521,0.17981 l -1.88713,1.83509 c -0.151,0.14538 -0.3583,0.2351 -0.58741,0.2351 -0.46163,0 -0.83589,-0.36402 -0.83589,-0.813 v -9.687 c 0,-0.82839 0.69055,-1.5 1.54227,-1.5 h 4.2412 c 0.21294,0 0.38557,0.1679 0.38557,0.375 0,0.20709 -0.17263,0.37499 -0.38557,0.37499 h -4.2412 c -0.42585,0 -0.77116,0.33581 -0.77116,0.75001 v 9.4336 c 0,0.10363 0.0863,0.18748 0.1928,0.18748 0.0505,0 0.0955,-0.0197 0.12989,-0.0505 l 1.67127,-1.62562 c 0.30119,-0.29299 0.69578,-0.44495 1.09057,-0.44495 0.39461,0 0.78941,0.15196 1.09062,0.44493 l 1.67141,1.62562 c 0.0342,0.0306 0.0793,0.0505 0.12971,0.0505 0.10656,0 0.1928,-0.0839 0.1928,-0.18748 V 534.173 c 0,-0.2071 0.17265,-0.375 0.38555,-0.375 0.21295,0 0.38558,0.1679 0.38558,0.375 v 7.812 c 0,0.44898 -0.37426,0.813 -0.83592,0.813 z m 0.25757,-10.68751 c -0.21294,0 -0.38558,-0.16791 -0.38558,-0.37499 0,-0.2071 0.17264,-0.37501 0.38558,-0.37501 0.21291,0 0.38558,0.16791 0.38558,0.37501 0,0.20708 -0.17267,0.37499 -0.38558,0.37499 z"
       id="path2-6"
       style="fill:url(#linearGradient1203-3);fill-opacity:1;stroke-width:0.0237655" />
  </g>
</svg>
