<?xml version="1.0" encoding="UTF-8" standalone="no"?>
<svg
   width="32"
   version="1.1"
   height="32"
   viewBox="0 0 32 32"
   id="svg15"
   sodipodi:docname="folder-snap.svg"
   inkscape:version="1.1.1 (3bf5ae0d25, 2021-09-20)"
   xmlns:inkscape="http://www.inkscape.org/namespaces/inkscape"
   xmlns:sodipodi="http://sodipodi.sourceforge.net/DTD/sodipodi-0.dtd"
   xmlns:xlink="http://www.w3.org/1999/xlink"
   xmlns="http://www.w3.org/2000/svg"
   xmlns:svg="http://www.w3.org/2000/svg"
   xmlns:rdf="http://www.w3.org/1999/02/22-rdf-syntax-ns#"
   xmlns:cc="http://creativecommons.org/ns#"
   xmlns:dc="http://purl.org/dc/elements/1.1/">
  <sodipodi:namedview
     pagecolor="#ffffff"
     bordercolor="#666666"
     borderopacity="1"
     objecttolerance="10"
     gridtolerance="10"
     guidetolerance="10"
     inkscape:pageopacity="0"
     inkscape:pageshadow="2"
     inkscape:window-width="1920"
     inkscape:window-height="1007"
     id="namedview17"
     showgrid="true"
     inkscape:zoom="9.8125"
     inkscape:cx="1.4267516"
     inkscape:cy="18.089172"
     inkscape:window-x="0"
     inkscape:window-y="0"
     inkscape:window-maximized="1"
     inkscape:current-layer="g4"
     inkscape:pagecheckerboard="0">
    <inkscape:grid
       type="xygrid"
       id="grid862" />
  </sodipodi:namedview>
  <defs
     id="defs5455">
    <linearGradient
       inkscape:collect="always"
       xlink:href="#linearGradient2230"
       id="linearGradient2232"
       x1="384.57144"
       y1="515.79797"
       x2="448.57144"
       y2="515.79797"
       gradientUnits="userSpaceOnUse"
       gradientTransform="matrix(1.3883542,0,0,1.3461632,-465.19041,330.12463)" />
    <linearGradient
       inkscape:collect="always"
       id="linearGradient2230">
      <stop
         style="stop-color:#4e99ca;stop-opacity:0.80000001"
         offset="0"
         id="stop2226" />
      <stop
         style="stop-color:#20ffff;stop-opacity:0.80000001"
         offset="0.50507295"
         id="stop2332" />
      <stop
         style="stop-color:#ffaeff;stop-opacity:0.69"
         offset="1"
         id="stop2228" />
    </linearGradient>
    <linearGradient
       inkscape:collect="always"
       xlink:href="#linearGradient2230"
       id="linearGradient1026"
       gradientUnits="userSpaceOnUse"
       gradientTransform="matrix(1.3883542,0,0,1.3461632,-444.36512,336.85545)"
       x1="403.57144"
       y1="520.79797"
       x2="429.57144"
       y2="520.79797" />
  </defs>
  <metadata
     id="metadata5458">
    <rdf:RDF>
      <cc:Work
         rdf:about="">
        <dc:format>image/svg+xml</dc:format>
        <dc:type
           rdf:resource="http://purl.org/dc/dcmitype/StillImage" />
      </cc:Work>
    </rdf:RDF>
  </metadata>
  <g
     inkscape:label="Capa 1"
     inkscape:groupmode="layer"
     id="layer1"
     transform="translate(-384.57143,-515.798)">
    <g
       transform="matrix(0.36013848,0,0,0.37142583,359.81878,151.2823)"
       id="g4">
      <rect
         style="fill:#626f9d;fill-opacity:0.2;stroke:none;stroke-width:1.72356"
         id="center-3"
         width="83.440086"
         height="56.538853"
         x="71.507629"
         y="1000.2419"
         ry="5.3846478"
         rx="5.5626884" />
      <path
         d="m 149.48721,997.56266 h -40.71588 c -0.89989,0 -1.68679,-0.44909 -2.24929,-1.236 l -3.03702,-4.49402 c -1.0121,-1.57302 -2.6996,-2.35999 -4.498582,-2.35999 H 78.178604 c -5.174243,0 -9.447681,4.26992 -9.447681,9.4381 v 52.47245 c 0,4.3821 3.5996,8.09 8.098187,8.09 h 34.97965 v 0 0 0 0 0 0 0 h 2.69899 v 0 0 0 0 0 0 0 0 0 h 34.97965 c 4.38652,0 8.09819,-3.5959 8.09819,-8.09 v -45.7308 c 0,-4.494 -3.5988,-8.08917 -8.09819,-8.08917 z m -34.97946,61.91054 v 0 h -2.69899 v 0 0 z m 40.37824,-8.0897 c 0,2.9211 -2.36237,5.3931 -5.39859,5.3931 H 76.828707 c -2.924151,0 -5.398587,-2.472 -5.398587,-5.3931 l -8e-4,-18.0901 v -10.2251 c 0,-2.9212 2.47445,-5.3931 5.398587,-5.3931 h 40.715853 c 1.79978,0 3.48652,-0.899 4.4986,-2.36 l 2.92414,-4.494 c 0.56253,-0.674 1.34945,-1.236 2.2493,-1.236 h 20.92031 c 3.71166,0 6.74889,3.0339 6.74889,6.742 v 14.7191 z m -6.74889,-44.3826 h -20.9203 c -1.79978,0 -3.48652,0.899 -4.49859,2.36 l -2.92415,4.4941 c -0.44955,0.7869 -1.34945,1.2359 -2.24929,1.2359 H 76.829193 c -2.024137,0 -3.933637,0.2284 -5.399309,2.2917 v -11.756 c 0,-2.6923 2.85447,-5.3846 5.631178,-5.3846 h 22.213681 l 0.05956,0.062 4.105497,-0.062 5.44383,0.017 h 40.71588 c 2.92414,0 5.39858,2.4719 5.39858,5.3931 v 4.1571 c -1.799,-1.7972 -4.16056,-2.8082 -6.86016,-2.8082 z"
         id="path64"
         sodipodi:nodetypes="csccsssssccccccccccccccccccsssccccccccccssccsssccssscccsccscccccccssscc"
         style="fill:url(#linearGradient2232);fill-opacity:1;stroke-width:0.200746" />
      <path
         style="color:#232629;fill:url(#linearGradient1026);fill-opacity:1;stroke:none;stroke-width:1.36709"
         d="m 115.93499,1021.7806 19.43696,18.8463 v -12.1155 z m 20.82531,6.7308 15.2719,6.7308 -4.16506,-6.7308 z m -0.55534,0.4039 -0.13884,10.7693 7.63595,-7.1347 z m -5.69225,8.3462 -9.0243,16.827 13.3282,-12.7885 z"
         class="ColorScheme-Text"
         id="path12-5" />
    </g>
  </g>
</svg>
