<?xml version="1.0" encoding="UTF-8" standalone="no"?>
<svg
   width="32"
   version="1.1"
   height="32"
   viewBox="0 0 32 32"
   id="svg17"
   sodipodi:docname="folder-print.svg"
   inkscape:version="1.1.1 (3bf5ae0d25, 2021-09-20)"
   xmlns:inkscape="http://www.inkscape.org/namespaces/inkscape"
   xmlns:sodipodi="http://sodipodi.sourceforge.net/DTD/sodipodi-0.dtd"
   xmlns:xlink="http://www.w3.org/1999/xlink"
   xmlns="http://www.w3.org/2000/svg"
   xmlns:svg="http://www.w3.org/2000/svg"
   xmlns:rdf="http://www.w3.org/1999/02/22-rdf-syntax-ns#"
   xmlns:cc="http://creativecommons.org/ns#"
   xmlns:dc="http://purl.org/dc/elements/1.1/">
  <sodipodi:namedview
     pagecolor="#ffffff"
     bordercolor="#666666"
     borderopacity="1"
     objecttolerance="10"
     gridtolerance="10"
     guidetolerance="10"
     inkscape:pageopacity="0"
     inkscape:pageshadow="2"
     inkscape:window-width="1920"
     inkscape:window-height="1007"
     id="namedview19"
     showgrid="false"
     inkscape:zoom="9.8125"
     inkscape:cx="-10.292994"
     inkscape:cy="9.1210191"
     inkscape:window-x="0"
     inkscape:window-y="0"
     inkscape:window-maximized="1"
     inkscape:current-layer="layer1"
     inkscape:pagecheckerboard="0" />
  <defs
     id="defs5455">
    <linearGradient
       inkscape:collect="always"
       xlink:href="#linearGradient2230"
       id="linearGradient2232"
       x1="384.57144"
       y1="515.79797"
       x2="448.57144"
       y2="515.79797"
       gradientUnits="userSpaceOnUse"
       gradientTransform="matrix(0.4999999,0,0,0.4999999,192.28575,273.89905)" />
    <linearGradient
       inkscape:collect="always"
       id="linearGradient2230">
      <stop
         style="stop-color:#4e99ca;stop-opacity:0.80000001"
         offset="0"
         id="stop2226" />
      <stop
         style="stop-color:#20ffff;stop-opacity:0.80000001"
         offset="0.50507295"
         id="stop2332" />
      <stop
         style="stop-color:#ffaeff;stop-opacity:0.69"
         offset="1"
         id="stop2228" />
    </linearGradient>
    <linearGradient
       inkscape:collect="always"
       xlink:href="#linearGradient2230"
       id="linearGradient1013"
       gradientUnits="userSpaceOnUse"
       gradientTransform="matrix(0.4999999,0,0,0.4999999,200.63576,276.39905)"
       x1="403.87143"
       y1="520.79803"
       x2="427.87137"
       y2="520.79803" />
  </defs>
  <metadata
     id="metadata5458">
    <rdf:RDF>
      <cc:Work
         rdf:about="">
        <dc:format>image/svg+xml</dc:format>
        <dc:type
           rdf:resource="http://purl.org/dc/dcmitype/StillImage" />
      </cc:Work>
    </rdf:RDF>
  </metadata>
  <g
     inkscape:label="Capa 1"
     inkscape:groupmode="layer"
     id="layer1"
     transform="translate(-384.57143,-515.798)">
    <rect
       style="fill:#626f9d;fill-opacity:0.2;stroke:none;stroke-width:0.630375"
       id="center-3"
       width="30.049994"
       height="20.999996"
       x="385.57144"
       y="522.79797"
       ry="1.9999976"
       rx="2.0033386" />
    <path
       d="m 413.65488,521.80284 h -14.66335 c -0.32409,0 -0.60748,-0.16681 -0.81006,-0.45909 l -1.09375,-1.66919 c -0.36449,-0.58426 -0.97223,-0.87656 -1.62011,-0.87656 h -7.49371 c -1.86344,0 -3.40247,1.58596 -3.40247,3.50555 v 19.48962 c 0,1.62762 1.29635,3.00483 2.91647,3.00483 h 12.59752 v 0 0 0 0 0 0 0 h 0.97201 v 0 0 0 0 0 0 0 0 0 h 12.59752 c 1.57976,0 2.91647,-1.33563 2.91647,-3.00483 v -16.9856 c 0,-1.66919 -1.29606,-3.00452 -2.91647,-3.00452 z M 401.05743,544.798 v 0 h -0.97201 v 0 0 z m 14.54176,-3.00473 c 0,1.08499 -0.85078,2.00314 -1.94424,2.00314 h -26.1672 c -1.0531,0 -1.94424,-0.91815 -1.94424,-2.00314 l -2.9e-4,-6.71912 v -3.79784 c 0,-1.08501 0.89115,-2.00314 1.94424,-2.00314 h 14.66336 c 0.64817,0 1.25563,-0.33391 1.62012,-0.87656 l 1.05309,-1.6692 c 0.20259,-0.25036 0.48599,-0.45909 0.81006,-0.45909 h 7.53421 c 1.33671,0 2.43053,1.12689 2.43053,2.50418 v 5.46703 z m -2.43053,-16.4848 h -7.53421 c -0.64817,0 -1.25563,0.3339 -1.62011,0.87655 l -1.0531,1.6692 c -0.1619,0.29228 -0.48599,0.45908 -0.81006,0.45908 h -14.66325 c -0.72897,0 -1.41666,0.0848 -1.9445,0.8512 v -4.3665 c 0,-1 1.028,-2 2.028,-2 h 8.00001 l 0.0215,0.0232 1.47855,-0.0232 1.96053,0.006 h 14.66336 c 1.05309,0 1.94424,0.91814 1.94424,2.00314 v 1.54407 c -0.64789,-0.66751 -1.49838,-1.04304 -2.47061,-1.04304 z"
       id="path64"
       sodipodi:nodetypes="csccsssssccccccccccccccccccsssccccccccccssccsssccssscccsccscccccccssscc"
       style="fill:url(#linearGradient2232);fill-opacity:1;stroke-width:0.0734205" />
    <path
       d="m 408.94678,539.04798 h 1.49964 c 0.20728,0 0.375,0.1681 0.375,0.37538 0,0.20653 -0.16772,0.375 -0.375,0.375 h -1.49964 c -0.20729,0 -0.3751,-0.16847 -0.3751,-0.375 -2e-5,-0.20728 0.16781,-0.37538 0.3751,-0.37538 z m -1.8755,0.37538 c 0,-0.20728 0.16791,-0.37538 0.37519,-0.37538 0.20709,0 0.375,0.1681 0.375,0.37538 0,0.20653 -0.16793,0.375 -0.375,0.375 -0.20728,0 -0.37519,-0.16847 -0.37519,-0.375 z m 3.00012,1.49962 c 0,0.20729 -0.16772,0.375 -0.375,0.375 h -3.00012 c -0.20672,0 -0.37462,-0.16771 -0.37462,-0.375 0,-0.20728 0.1679,-0.375 0.37462,-0.375 h 3.00012 c 0.20728,0 0.375,0.16772 0.375,0.375 z m 3.33206,-0.375 h -0.89417 c -0.51818,0 -0.9375,-0.41967 -0.9375,-0.9375 v -0.75 c 0,-0.31057 -0.25232,-0.56252 -0.56287,-0.56252 h -4.87495 c -0.31073,0 -0.5625,0.25195 -0.5625,0.56252 v 2.625 c 0,0.31093 0.25177,0.5629 0.5625,0.5629 h 4.87495 c 0.24464,0 0.56287,-0.21911 0.56287,-0.3754 v 0 c 0,-0.2069 0.16772,-0.375 0.37463,-0.375 0.20728,0 0.375,0.1681 0.375,0.375 0,0.026 -0.006,0.0502 -0.008,0.0758 -0.0395,0.58524 -0.52186,1.04923 -1.11694,1.04923 h -5.25015 c -0.62129,0 -1.12519,-0.50353 -1.12519,-1.12503 v -1.125 -0.74962 -1.12538 c 0,-0.62111 0.5039,-1.12502 1.12519,-1.12502 h 5.25013 c 0.62109,0 1.12463,0.50391 1.12463,1.12502 v 0.75038 c 0,0.20653 0.16771,0.375 0.375,0.375 h 0.18787 c 0.51745,0 0.93752,-0.42005 0.93752,-0.93788 v -2.43743 c 0,-0.20709 0.16772,-0.375 0.375,-0.375 0.20654,0 0.37463,0.16791 0.37463,0.375 v 2.85537 c 2e-5,0.48007 -0.67184,1.26956 -1.16796,1.26956 z m 0.043,-5.25014 c -0.20691,0 -0.375,-0.16772 -0.375,-0.375 0,-0.20672 0.16809,-0.37462 0.375,-0.37462 0.20728,0 0.3754,0.1679 0.3754,0.37462 0,0.20728 -0.16812,0.375 -0.3754,0.375 z m -2.24963,0 h -0.37537 -4.87478 -1.68769 c -0.51783,0 -0.93731,0.42005 -0.93731,0.93753 v 2.06259 0.0689 1.05654 c 0,0.20653 0.16771,0.375 0.375,0.375 0.20671,0 0.37462,0.16772 0.37462,0.37462 0,0.20729 -0.16791,0.375 -0.37462,0.375 -0.0259,0 -0.0502,-0.006 -0.0756,-0.008 -0.58575,-0.0395 -1.04955,-0.52185 -1.04955,-1.11693 0,-0.0568 0.008,-0.11023 0.0163,-0.16444 -0.01,-0.0692 -0.0163,-0.13917 -0.0163,-0.21094 v -2.99993 c 0,-0.82858 0.67181,-1.49983 1.49981,-1.49983 h 0.56288 0.18731 1.3125 0.375 4.49995 c 0.31054,0 0.56287,-0.25214 0.56287,-0.56288 v -1.87483 c 0,-0.31055 -0.25233,-0.56232 -0.56287,-0.56232 h -4.87493 c -0.31073,0 -0.5625,0.25177 -0.5625,0.56232 v 1.31252 c 0,0.20728 -0.16772,0.375 -0.375,0.375 -0.20728,0 -0.375,-0.16772 -0.375,-0.375 v -1.49984 c -2e-5,-0.62165 0.50388,-1.12518 1.12517,-1.12518 h 5.25013 c 0.62109,0 1.12463,0.50353 1.12463,1.12518 v 2.25003 c 2e-5,0.62109 -0.50351,1.12462 -1.12461,1.12462 z m -6.75051,0.75021 c 0.20728,0 0.37519,0.16791 0.37519,0.375 0,0.20729 -0.16791,0.37519 -0.37519,0.37519 -0.20674,0 -0.375,-0.1679 -0.375,-0.37519 -2e-5,-0.20709 0.16826,-0.375 0.375,-0.375 z"
       id="path2-7"
       style="fill:url(#linearGradient1013);fill-opacity:1;stroke-width:0.0234375" />
  </g>
</svg>
