<?xml version="1.0" encoding="UTF-8" standalone="no"?>
<svg
   width="32"
   version="1.1"
   height="32"
   viewBox="0 0 32 32"
   id="svg17"
   sodipodi:docname="folder-pictures.svg"
   inkscape:version="1.1.1 (3bf5ae0d25, 2021-09-20)"
   xmlns:inkscape="http://www.inkscape.org/namespaces/inkscape"
   xmlns:sodipodi="http://sodipodi.sourceforge.net/DTD/sodipodi-0.dtd"
   xmlns:xlink="http://www.w3.org/1999/xlink"
   xmlns="http://www.w3.org/2000/svg"
   xmlns:svg="http://www.w3.org/2000/svg"
   xmlns:rdf="http://www.w3.org/1999/02/22-rdf-syntax-ns#"
   xmlns:cc="http://creativecommons.org/ns#"
   xmlns:dc="http://purl.org/dc/elements/1.1/">
  <sodipodi:namedview
     pagecolor="#ffffff"
     bordercolor="#666666"
     borderopacity="1"
     objecttolerance="10"
     gridtolerance="10"
     guidetolerance="10"
     inkscape:pageopacity="0"
     inkscape:pageshadow="2"
     inkscape:window-width="1920"
     inkscape:window-height="1007"
     id="namedview19"
     showgrid="false"
     inkscape:zoom="9.8125"
     inkscape:cx="-23.133758"
     inkscape:cy="20.025478"
     inkscape:window-x="0"
     inkscape:window-y="0"
     inkscape:window-maximized="1"
     inkscape:current-layer="layer1"
     inkscape:pagecheckerboard="0" />
  <defs
     id="defs5455">
    <linearGradient
       inkscape:collect="always"
       xlink:href="#linearGradient955"
       id="linearGradient957"
       gradientUnits="userSpaceOnUse"
       x1="384.57144"
       y1="515.79797"
       x2="448.57144"
       y2="515.79797"
       gradientTransform="matrix(0.4999999,0,0,0.4999999,192.28575,273.89905)" />
    <linearGradient
       inkscape:collect="always"
       id="linearGradient955">
      <stop
         style="stop-color:#fae3b0;stop-opacity:0.80000001"
         offset="0"
         id="stop949" />
      <stop
         style="stop-color:#20ffff;stop-opacity:0.80000001"
         offset="0.50507295"
         id="stop951" />
      <stop
         style="stop-color:#ffaeff;stop-opacity:0.69"
         offset="1"
         id="stop953" />
    </linearGradient>
    <linearGradient
       inkscape:collect="always"
       xlink:href="#linearGradient955"
       id="linearGradient1140"
       gradientUnits="userSpaceOnUse"
       x1="401.86566"
       y1="520.7981"
       x2="431.46234"
       y2="520.7981"
       gradientTransform="matrix(0.20272555,0,0,0.20272555,362.31955,440.64962)" />
  </defs>
  <metadata
     id="metadata5458">
    <rdf:RDF>
      <cc:Work
         rdf:about="">
        <dc:format>image/svg+xml</dc:format>
        <dc:type
           rdf:resource="http://purl.org/dc/dcmitype/StillImage" />
      </cc:Work>
    </rdf:RDF>
  </metadata>
  <g
     inkscape:label="Capa 1"
     inkscape:groupmode="layer"
     id="layer1"
     transform="translate(-384.57143,-515.798)">
    <rect
       style="fill:#626f9d;fill-opacity:0.2;stroke:none;stroke-width:0.630375"
       id="center-3"
       width="30.049994"
       height="20.999996"
       x="385.57147"
       y="522.7981"
       ry="1.9999976"
       rx="2.0033386" />
    <path
       d="m 413.65488,521.80284 h -14.66335 c -0.32409,0 -0.60748,-0.16681 -0.81006,-0.45908 l -1.09375,-1.6692 c -0.36449,-0.58426 -0.97223,-0.87656 -1.62011,-0.87656 h -7.49371 c -1.86344,0 -3.40247,1.58596 -3.40247,3.50555 v 19.48962 c 0,1.62762 1.29635,3.00483 2.91647,3.00483 h 12.59752 v 0 0 0 0 0 0 0 h 0.97201 v 0 0 0 0 0 0 0 0 0 h 12.59752 c 1.57976,0 2.91647,-1.33563 2.91647,-3.00483 v -16.9856 c 0,-1.66919 -1.29606,-3.00452 -2.91647,-3.00452 z M 401.05743,544.798 v 0 h -0.97201 v 0 0 z m 14.54176,-3.00473 c 0,1.08499 -0.85078,2.00314 -1.94424,2.00314 h -26.1672 c -1.0531,0 -1.94424,-0.91815 -1.94424,-2.00314 l -2.9e-4,-6.71912 v -3.79784 c 0,-1.08501 0.89115,-2.00314 1.94424,-2.00314 h 14.66336 c 0.64817,0 1.25563,-0.33391 1.62012,-0.87656 l 1.05309,-1.6692 c 0.20259,-0.25036 0.48599,-0.45909 0.81006,-0.45909 h 7.53421 c 1.33671,0 2.43053,1.12689 2.43053,2.50418 v 5.46703 z m -2.43053,-16.4848 h -7.53421 c -0.64817,0 -1.25563,0.33391 -1.62011,0.87655 l -1.0531,1.6692 c -0.1619,0.29228 -0.48599,0.45909 -0.81006,0.45909 h -14.66325 c -0.72897,0 -1.41666,0.0848 -1.9445,0.85119 v -4.3665 c 0,-1 1.028,-2 2.028,-2 h 8.00001 l 0.0214,0.0232 1.47855,-0.0232 1.96053,0.006 h 14.66336 c 1.05309,0 1.94424,0.91814 1.94424,2.00314 v 1.54407 c -0.64789,-0.66751 -1.49838,-1.04304 -2.47061,-1.04304 z"
       id="path64"
       sodipodi:nodetypes="csccsssssccccccccccccccccccsssccccccccccssccsssccssscccsccscccccccssscc"
       style="fill:url(#linearGradient957);fill-opacity:1;stroke-width:0.0734205" />
    <path
       d="m 412.68821,535.95375 c -0.62025,0 -1.12297,-0.50272 -1.12297,-1.12259 0,-0.20671 0.16775,-0.37447 0.37444,-0.37447 0.20687,0 0.37408,0.16776 0.37408,0.37445 0,0.20631 0.16776,0.37407 0.37445,0.37407 0.20687,0 0.37407,0.16777 0.37407,0.37408 0,0.20671 -0.1672,0.37447 -0.37407,0.37446 z m -0.74853,4.86538 c 0,0.20687 -0.16776,0.37463 -0.37444,0.37463 -0.20632,0 -0.37408,-0.16776 -0.37408,-0.37463 0,-0.20688 0.16776,-0.3739 0.37408,-0.3739 0.20668,0 0.37444,0.16702 0.37444,0.3739 z m -1.27775,-3.14882 -0.23281,0.23228 c -0.14601,0.1461 -0.38266,0.1461 -0.52923,0 -0.14602,-0.14601 -0.14602,-0.38322 0,-0.52923 l 0.23281,-0.23247 c 0.58478,-0.58459 1.53232,-0.58459 2.11692,0 l 0.79386,0.79415 c 0.14657,0.14582 0.14657,0.38303 0,0.52923 -0.14601,0.14582 -0.38304,0.14582 -0.52923,0 l -0.79386,-0.79393 c -0.29202,-0.2926 -0.76645,-0.2926 -1.05846,-3e-5 z m 2.40035,5.02015 h -8.98211 c -0.82675,0 -1.49705,-0.66995 -1.49705,-1.4967 v -1.12316 c 0,-0.20688 0.16776,-0.37388 0.37445,-0.37388 0.20631,0 0.37407,0.16703 0.37407,0.37388 v 1.12316 c 0,0.41302 0.33497,0.74818 0.74853,0.74818 h 8.98211 c 0.41356,0 0.74853,-0.33516 0.74853,-0.74818 v -6.73708 c 0,-0.41356 -0.33497,-0.74852 -0.74853,-0.74852 h -8.98211 c -0.41356,0 -0.74853,0.33497 -0.74853,0.74852 v 3.61393 c 0,0.10344 0.0839,0.18713 0.18695,0.18713 0.0482,0 0.0901,-0.0183 0.12391,-0.0483 l 1.81192,-1.81185 c 0.5846,-0.58462 1.53232,-0.58462 2.11692,0 l 3.15126,3.15139 c 0.0753,0.0683 0.12353,0.16628 0.12353,0.2763 0,0.20612 -0.16739,0.37388 -0.37407,0.37388 -0.11384,0 -0.21454,-0.0515 -0.28289,-0.13158 l -0.003,0.003 -3.1436,-3.14369 c -0.29202,-0.29202 -0.76644,-0.29202 -1.05846,0 l -1.81431,1.8144 c -0.16867,0.16337 -0.39765,0.26498 -0.65075,0.26498 -0.51663,10e-6 -0.93548,-0.41884 -0.93548,-0.93565 v -3.61393 c 0,-0.82675 0.6703,-1.49705 1.49705,-1.49705 h 8.98211 c 0.82712,0 1.49724,0.67033 1.49724,1.49705 v 6.73706 c 0,0.82676 -0.67012,1.49672 -1.49724,1.49672 z"
       id="path2-36-7"
       style="fill:url(#linearGradient1140);fill-opacity:1;stroke:url(#linearGradient1140);stroke-width:0.0233914" />
  </g>
</svg>
