<?xml version="1.0" encoding="UTF-8" standalone="no"?>
<svg
   width="32"
   version="1.1"
   height="32"
   viewBox="0 0 32 32"
   id="svg17"
   sodipodi:docname="folder-network.svg"
   inkscape:version="1.1.1 (3bf5ae0d25, 2021-09-20)"
   xmlns:inkscape="http://www.inkscape.org/namespaces/inkscape"
   xmlns:sodipodi="http://sodipodi.sourceforge.net/DTD/sodipodi-0.dtd"
   xmlns:xlink="http://www.w3.org/1999/xlink"
   xmlns="http://www.w3.org/2000/svg"
   xmlns:svg="http://www.w3.org/2000/svg"
   xmlns:rdf="http://www.w3.org/1999/02/22-rdf-syntax-ns#"
   xmlns:cc="http://creativecommons.org/ns#"
   xmlns:dc="http://purl.org/dc/elements/1.1/">
  <sodipodi:namedview
     pagecolor="#ffffff"
     bordercolor="#666666"
     borderopacity="1"
     objecttolerance="10"
     gridtolerance="10"
     guidetolerance="10"
     inkscape:pageopacity="0"
     inkscape:pageshadow="2"
     inkscape:window-width="1920"
     inkscape:window-height="1007"
     id="namedview19"
     showgrid="false"
     inkscape:zoom="9.8125"
     inkscape:cx="-19.770701"
     inkscape:cy="5.5541401"
     inkscape:window-x="0"
     inkscape:window-y="0"
     inkscape:window-maximized="1"
     inkscape:current-layer="layer1"
     inkscape:pagecheckerboard="0" />
  <defs
     id="defs5455">
    <linearGradient
       inkscape:collect="always"
       xlink:href="#linearGradient2230"
       id="linearGradient2232"
       x1="384.57144"
       y1="515.79797"
       x2="448.57144"
       y2="515.79797"
       gradientUnits="userSpaceOnUse"
       gradientTransform="matrix(0.4999999,0,0,0.4999999,192.28576,273.89905)" />
    <linearGradient
       inkscape:collect="always"
       id="linearGradient2230">
      <stop
         style="stop-color:#4e99ca;stop-opacity:0.80000001"
         offset="0"
         id="stop2226" />
      <stop
         style="stop-color:#20ffff;stop-opacity:0.80000001"
         offset="0.50507295"
         id="stop2332" />
      <stop
         style="stop-color:#ffaeff;stop-opacity:0.69"
         offset="1"
         id="stop2228" />
    </linearGradient>
    <linearGradient
       inkscape:collect="always"
       xlink:href="#linearGradient2230"
       id="linearGradient1013"
       gradientUnits="userSpaceOnUse"
       gradientTransform="matrix(0.40644949,0,0,0.40644949,239.231,326.24746)"
       x1="401.87143"
       y1="520.79797"
       x2="431.39539"
       y2="520.79797" />
  </defs>
  <metadata
     id="metadata5458">
    <rdf:RDF>
      <cc:Work
         rdf:about="">
        <dc:format>image/svg+xml</dc:format>
        <dc:type
           rdf:resource="http://purl.org/dc/dcmitype/StillImage" />
      </cc:Work>
    </rdf:RDF>
  </metadata>
  <g
     inkscape:label="Capa 1"
     inkscape:groupmode="layer"
     id="layer1"
     transform="translate(-384.57143,-515.798)">
    <rect
       style="fill:#626f9d;fill-opacity:0.2;stroke:none;stroke-width:0.630375"
       id="center-3"
       width="30.049994"
       height="20.999996"
       x="385.57141"
       y="522.79791"
       ry="1.9999976"
       rx="2.0033386" />
    <path
       d="m 413.65488,521.80284 h -14.66335 c -0.32409,0 -0.60748,-0.16681 -0.81006,-0.45909 l -1.09375,-1.66919 c -0.36449,-0.58426 -0.97223,-0.87656 -1.62011,-0.87656 h -7.49371 c -1.86344,0 -3.40247,1.58596 -3.40247,3.50555 v 19.48962 c 0,1.62762 1.29635,3.00483 2.91647,3.00483 h 12.59752 v 0 0 0 0 0 0 0 h 0.97201 v 0 0 0 0 0 0 0 0 0 h 12.59752 c 1.57976,0 2.91647,-1.33563 2.91647,-3.00483 v -16.9856 c 0,-1.66919 -1.29606,-3.00452 -2.91647,-3.00452 z M 401.05743,544.798 v 0 h -0.97201 v 0 0 z m 14.54176,-3.00473 c 0,1.08499 -0.85078,2.00314 -1.94424,2.00314 h -26.1672 c -1.0531,0 -1.94424,-0.91815 -1.94424,-2.00314 l -2.9e-4,-6.71912 v -3.79784 c 0,-1.08501 0.89115,-2.00314 1.94424,-2.00314 h 14.66336 c 0.64817,0 1.25563,-0.33391 1.62012,-0.87656 l 1.05309,-1.6692 c 0.20259,-0.25036 0.48599,-0.45909 0.81006,-0.45909 h 7.53421 c 1.33671,0 2.43053,1.12689 2.43053,2.50418 v 5.46703 z m -2.43053,-16.4848 h -7.53421 c -0.64817,0 -1.25563,0.3339 -1.62011,0.87655 l -1.0531,1.6692 c -0.1619,0.29228 -0.48599,0.45908 -0.81006,0.45908 h -14.66325 c -0.72897,0 -1.41666,0.0848 -1.9445,0.8512 v -4.3665 c 0,-1 1.028,-2 2.028,-2 h 8.00001 l 0.0215,0.0232 1.47855,-0.0232 1.96053,0.006 h 14.66336 c 1.05309,0 1.94424,0.91814 1.94424,2.00314 v 1.54407 c -0.64789,-0.66751 -1.49838,-1.04304 -2.47061,-1.04304 z"
       id="path64"
       sodipodi:nodetypes="csccsssssccccccccccccccccccsssccccccccccssccsssccssscccsccscccccccssscc"
       style="fill:url(#linearGradient2232);fill-opacity:1;stroke-width:0.0734205" />
    <path
       d="m 414.13184,537.47523 -0.26539,0.26542 c -0.43922,0.43959 -1.15173,0.43959 -1.59132,0 l -0.26504,-0.26542 c -1.90452,-1.90452 -4.99236,-1.90452 -6.8969,0 -0.29269,0.29325 -0.29269,0.76838 0,1.06107 l 0.26539,0.26539 c 0.14653,0.14634 0.38391,0.14634 0.53044,0 0.0238,-0.0235 0.18409,-0.18425 0.26521,-0.26539 1.31858,-1.31843 3.45637,-1.31843 4.77477,0 0.58612,0.58612 0.58612,1.34845 0,1.93438 l -0.2654,0.2654 c -0.43794,0.43795 -1.14734,0.43886 -1.58655,0.004 h -0.009 c -0.12656,-0.1154 -0.29911,-0.18794 -0.51497,-0.18794 -0.4145,0 -0.75023,0.3363 -0.75023,0.75042 0,0.0513 0.005,0.10147 0.0151,0.15 0.001,0.006 0.003,0.0112 0.005,0.0171 0.007,0.0291 0.0165,0.0573 0.0264,0.0852 0.0366,0.0879 0.0899,0.1707 0.16155,0.24232 0.0171,0.0171 0.0255,0.0387 0.0385,0.0581 0.13336,0.12179 0.30919,0.19782 0.50369,0.19782 0.20744,0 0.3754,0.16778 0.3754,0.37512 0,0.20679 -0.16796,0.37474 -0.3754,0.37474 -0.72679,0 -1.33305,-0.51724 -1.47079,-1.20299 -0.11063,-0.4863 0.0195,-1.01582 0.39819,-1.3946 0.58575,-0.58558 1.53592,-0.58558 2.12185,0 0.14653,0.14691 0.38391,0.14691 0.53081,0 l 0.26486,-0.26485 c 0.29324,-0.29325 0.29324,-0.58045 0,-0.8737 -1.02517,-1.02534 -2.68783,-1.02534 -3.71354,0 l -0.26505,0.26521 c -0.43959,0.43978 -1.1521,0.43978 -1.59132,0 l -0.26539,-0.2652 c -0.5495,-0.54913 -0.58356,-1.41842 -0.10311,-2.00803 0.0356,-0.0374 0.0665,-0.0771 0.10311,-0.11375 2.19723,-2.19742 5.76018,-2.19742 7.9574,0 0.0366,0.0366 0.23005,0.22786 0.2654,0.26539 0.14653,0.14635 0.38391,0.14635 0.53044,0 l 0.2654,-0.26539 c 0.29268,-0.29325 0.29268,-0.76836 0,-1.06107 -2.64889,-2.64889 -6.86427,-2.77509 -9.66391,-0.38152 l -0.004,-0.005 c -0.0661,0.0588 -0.15277,0.0958 -0.24873,0.0958 -0.20678,0 -0.37511,-0.16777 -0.37511,-0.37512 0,-0.13774 0.0753,-0.2566 0.18535,-0.32182 3.09488,-2.60749 7.72239,-2.45803 10.6367,0.45663 0.58612,0.58577 0.58612,1.53583 0,2.12176 z m -11.18529,-0.67385 c -0.20734,0 -0.37511,-0.16796 -0.37511,-0.37531 0,-0.20716 0.16777,-0.37511 0.37511,-0.37511 0.20735,0 0.37512,0.16795 0.37512,0.37511 0,0.20735 -0.16777,0.37531 -0.37512,0.37531 z"
       id="path2-7"
       style="fill:url(#linearGradient1013);fill-opacity:1;stroke-width:0.0234448" />
  </g>
</svg>
