<?xml version="1.0" encoding="UTF-8" standalone="no"?>
<svg
   width="32"
   version="1.1"
   height="32"
   viewBox="0 0 32 32"
   id="svg15"
   sodipodi:docname="folder-sign.svg"
   inkscape:version="1.1.1 (3bf5ae0d25, 2021-09-20)"
   xmlns:inkscape="http://www.inkscape.org/namespaces/inkscape"
   xmlns:sodipodi="http://sodipodi.sourceforge.net/DTD/sodipodi-0.dtd"
   xmlns:xlink="http://www.w3.org/1999/xlink"
   xmlns="http://www.w3.org/2000/svg"
   xmlns:svg="http://www.w3.org/2000/svg"
   xmlns:rdf="http://www.w3.org/1999/02/22-rdf-syntax-ns#"
   xmlns:cc="http://creativecommons.org/ns#"
   xmlns:dc="http://purl.org/dc/elements/1.1/">
  <sodipodi:namedview
     pagecolor="#ffffff"
     bordercolor="#666666"
     borderopacity="1"
     objecttolerance="10"
     gridtolerance="10"
     guidetolerance="10"
     inkscape:pageopacity="0"
     inkscape:pageshadow="2"
     inkscape:window-width="1920"
     inkscape:window-height="1007"
     id="namedview17"
     showgrid="true"
     inkscape:zoom="9.8125"
     inkscape:cx="1.4267516"
     inkscape:cy="9.9363057"
     inkscape:window-x="0"
     inkscape:window-y="0"
     inkscape:window-maximized="1"
     inkscape:current-layer="layer1"
     inkscape:pagecheckerboard="0">
    <inkscape:grid
       type="xygrid"
       id="grid862" />
  </sodipodi:namedview>
  <defs
     id="defs5455">
    <linearGradient
       inkscape:collect="always"
       xlink:href="#linearGradient2230"
       id="linearGradient2232"
       x1="384.57144"
       y1="515.79797"
       x2="448.57144"
       y2="515.79797"
       gradientUnits="userSpaceOnUse"
       gradientTransform="matrix(0.4999999,0,0,0.4999999,192.28575,273.89904)" />
    <linearGradient
       inkscape:collect="always"
       id="linearGradient2230">
      <stop
         style="stop-color:#4e99ca;stop-opacity:0.80000001"
         offset="0"
         id="stop2226" />
      <stop
         style="stop-color:#20ffff;stop-opacity:0.80000001"
         offset="0.50507295"
         id="stop2332" />
      <stop
         style="stop-color:#ffaeff;stop-opacity:0.69"
         offset="1"
         id="stop2228" />
    </linearGradient>
    <linearGradient
       inkscape:collect="always"
       xlink:href="#linearGradient2230"
       id="linearGradient1199"
       gradientUnits="userSpaceOnUse"
       gradientTransform="matrix(0.4999999,0,0,0.4999999,201.12723,276.21838)"
       x1="406.38843"
       y1="520.85931"
       x2="426.76584"
       y2="520.85931" />
  </defs>
  <metadata
     id="metadata5458">
    <rdf:RDF>
      <cc:Work
         rdf:about="">
        <dc:format>image/svg+xml</dc:format>
        <dc:type
           rdf:resource="http://purl.org/dc/dcmitype/StillImage" />
      </cc:Work>
    </rdf:RDF>
  </metadata>
  <g
     inkscape:label="Capa 1"
     inkscape:groupmode="layer"
     id="layer1"
     transform="translate(-384.57143,-515.798)">
    <rect
       style="fill:#626f9d;fill-opacity:0.2;stroke:none;stroke-width:0.630375"
       id="center-3"
       width="30.049994"
       height="20.999996"
       x="385.57141"
       y="522.79791"
       ry="1.9999976"
       rx="2.0033386" />
    <path
       d="m 413.65488,521.80284 h -14.66335 c -0.32409,0 -0.60748,-0.16681 -0.81006,-0.45909 l -1.09375,-1.66919 c -0.36449,-0.58426 -0.97223,-0.87656 -1.62011,-0.87656 h -7.49371 c -1.86344,0 -3.40247,1.58596 -3.40247,3.50555 v 19.48962 c 0,1.62762 1.29635,3.00483 2.91647,3.00483 h 12.59752 v 0 0 0 0 0 0 0 h 0.97201 v 0 0 0 0 0 0 0 0 0 h 12.59752 c 1.57976,0 2.91647,-1.33563 2.91647,-3.00483 v -16.9856 c 0,-1.66919 -1.29606,-3.00452 -2.91647,-3.00452 z M 401.05743,544.798 v 0 h -0.97201 v 0 0 z m 14.54176,-3.00473 c 0,1.08499 -0.85078,2.00314 -1.94424,2.00314 h -26.1672 c -1.0531,0 -1.94424,-0.91815 -1.94424,-2.00314 l -2.9e-4,-6.71912 v -3.79784 c 0,-1.08501 0.89115,-2.00314 1.94424,-2.00314 h 14.66336 c 0.64817,0 1.25563,-0.33391 1.62012,-0.87656 l 1.05309,-1.6692 c 0.20259,-0.25036 0.48599,-0.45909 0.81006,-0.45909 h 7.53421 c 1.33671,0 2.43053,1.12689 2.43053,2.50418 v 5.46703 z m -2.43053,-16.4848 h -7.53421 c -0.64817,0 -1.25563,0.3339 -1.62011,0.87655 l -1.0531,1.6692 c -0.1619,0.29228 -0.48599,0.45908 -0.81006,0.45908 h -14.66325 c -0.72897,0 -1.41666,0.0848 -1.9445,0.8512 v -4.3665 c 0,-1 1.028,-2 2.028,-2 h 8.00001 l 0.0215,0.0232 1.47855,-0.0232 1.96053,0.006 h 14.66336 c 1.05309,0 1.94424,0.91814 1.94424,2.00314 v 1.54407 c -0.64789,-0.66751 -1.49838,-1.04304 -2.47061,-1.04304 z"
       id="path64"
       sodipodi:nodetypes="csccsssssccccccccccccccccccsssccccccccccssccsssccssscccsccscccccccssscc"
       style="fill:url(#linearGradient2232);fill-opacity:1;stroke-width:0.0734205" />
    <path
       d="m 408.90425,539.06267 c 0.0174,0.0923 0.0817,0.16853 0.16973,0.20106 0.0163,0.006 1.6336,0.60347 2.3736,0.96867 0.82253,0.37547 1.402,0.8052 1.6804,1.01173 0.0637,0.0473 0.1112,0.0823 0.15093,0.10827 l 0.73894,1.17107 c 0.0509,0.0805 0.13753,0.17436 0.22607,0.17436 0.0485,0 0.22486,0.0805 0.269,0.0527 0.12453,-0.0785 0.0346,-0.38705 -0.044,-0.51159 l -0.72867,-1.15466 c 10e-4,-0.006 0.002,-0.0112 0.003,-0.0177 0.0596,-0.38334 0.24093,-1.54987 0.0378,-2.7852 -0.0751,-0.52907 -0.41826,-1.5436 -0.4328,-1.5864 -0.0315,-0.0931 -0.11186,-0.1612 -0.20866,-0.17747 -0.0983,-0.0163 -0.19507,0.0226 -0.25494,0.10027 l -0.0805,0.10453 c 0.0442,-1.0024 -0.0394,-1.12413 -0.0795,-1.1824 -0.43026,-0.62787 -0.97,-1.16627 -1.60413,-1.59987 -0.24493,-0.16733 -0.72626,-0.46306 -0.74679,-0.4756 -0.0733,-0.045 -0.164,-0.0517 -0.2436,-0.0183 -0.0795,0.0337 -0.1376,0.10374 -0.15627,0.18787 l -0.0228,0.10293 c -0.2916,-0.78893 -0.42693,-0.85573 -0.50093,-0.89226 -0.4764,-0.23507 -1.07547,-0.48254 -1.60387,-0.7008 -0.456,-0.1884 -0.88667,-0.3664 -1.18453,-0.5132 -0.75254,-0.34347 -1.27134,-0.65067 -1.55014,-0.8156 -0.22826,-0.13494 -0.2824,-0.16707 -0.37626,-0.16707 -0.0222,0 -0.0448,0.003 -0.0667,0.009 -0.043,0.0106 -0.0833,0.0316 -0.1164,0.0615 -4e-4,2.7e-4 -0.001,5e-4 -0.001,10e-4 -0.0593,0.0543 -0.0887,0.1292 -0.0867,0.20374 -0.002,0.0176 -0.007,0.0424 -0.0115,0.074 -0.0596,0.38333 -0.2412,1.54986 -0.0377,2.78586 0.14773,1.04294 0.69013,2.994 2.66067,4.34134 0.21933,0.14986 0.4528,0.2992 0.69386,0.444 0.0517,0.031 0.16294,0.0979 1.32507,0.1532 l -0.1048,0.0927 c -0.0705,0.0623 -0.10293,0.1568 -0.0856,0.24894 z m -0.88053,-0.96427 c -0.22507,-0.1356 -0.44254,-0.27507 -0.64707,-0.4148 -1.80187,-1.23187 -2.29813,-3.01973 -2.43453,-3.98173 -0.15707,-0.95427 -0.068,-1.87147 -2.7e-4,-2.3672 0.30387,0.1788 0.80347,0.4644 1.4908,0.778 0.3064,0.1512 0.74507,0.33253 1.20947,0.5244 0.53293,0.22013 1.08346,0.4476 1.5376,0.66946 0.11226,0.16054 0.37893,0.8932 0.56786,1.50907 0.0356,0.11587 0.1428,0.1912 0.2656,0.18827 0.12094,-0.005 0.2236,-0.0907 0.24974,-0.2088 l 0.14986,-0.67774 c 0.1416,0.0891 0.29987,0.1904 0.40627,0.26307 0.5708,0.39027 1.05773,0.87307 1.4476,1.43547 0.0378,0.1928 0.004,1.0384 -0.0501,1.7396 -0.009,0.1176 0.06,0.22733 0.17014,0.2696 0.11026,0.0424 0.23493,0.007 0.30693,-0.0861 l 0.3028,-0.39293 c 0.10013,0.32773 0.2192,0.74947 0.25707,1.01613 0.12786,0.77787 0.0923,1.53027 0.038,2.0508 l -0.76987,-1.14306 c -0.902,-1.43627 -2.04186,-2.68787 -3.38826,-3.72 l -1.3996,-1.07294 c -0.11694,-0.0895 -0.28427,-0.0673 -0.37387,0.0495 -0.0897,0.1168 -0.0676,0.28427 0.0494,0.37387 l 1.3996,1.07293 c 1.29587,0.99334 2.39307,2.198 3.266,3.58747 l 0.41347,0.61413 c -0.23814,-0.14 -0.50814,-0.28533 -0.812,-0.42386 -0.528,-0.26067 -1.46133,-0.62534 -2.0016,-0.83094 l 0.2704,-0.2392 c 0.0817,-0.0724 0.1112,-0.18733 0.0743,-0.29013 -0.0371,-0.1028 -0.13307,-0.17253 -0.24214,-0.17613 -0.72173,-0.0238 -1.58093,-0.0743 -1.75346,-0.11614 z"
       id="path2-5-2"
       style="fill:url(#linearGradient1199);fill-opacity:1;stroke-width:0.133333"
       sodipodi:nodetypes="ccccccscccccccscccccccccccscccccccccccccccccccccccccccccccccccccccccccccc" />
  </g>
</svg>
