<?xml version="1.0" encoding="UTF-8" standalone="no"?>
<svg
   width="32"
   version="1.1"
   height="32"
   viewBox="0 0 32 32"
   id="svg15"
   sodipodi:docname="folder-reddit.svg"
   inkscape:version="1.1.1 (3bf5ae0d25, 2021-09-20)"
   xmlns:inkscape="http://www.inkscape.org/namespaces/inkscape"
   xmlns:sodipodi="http://sodipodi.sourceforge.net/DTD/sodipodi-0.dtd"
   xmlns:xlink="http://www.w3.org/1999/xlink"
   xmlns="http://www.w3.org/2000/svg"
   xmlns:svg="http://www.w3.org/2000/svg"
   xmlns:rdf="http://www.w3.org/1999/02/22-rdf-syntax-ns#"
   xmlns:cc="http://creativecommons.org/ns#"
   xmlns:dc="http://purl.org/dc/elements/1.1/">
  <sodipodi:namedview
     pagecolor="#ffffff"
     bordercolor="#666666"
     borderopacity="1"
     objecttolerance="10"
     gridtolerance="10"
     guidetolerance="10"
     inkscape:pageopacity="0"
     inkscape:pageshadow="2"
     inkscape:window-width="1920"
     inkscape:window-height="1007"
     id="namedview17"
     showgrid="true"
     inkscape:zoom="9.8125"
     inkscape:cx="-18.955414"
     inkscape:cy="-11.464968"
     inkscape:window-x="0"
     inkscape:window-y="0"
     inkscape:window-maximized="1"
     inkscape:current-layer="layer1"
     inkscape:document-rotation="0"
     inkscape:pagecheckerboard="0">
    <inkscape:grid
       type="xygrid"
       id="grid847" />
  </sodipodi:namedview>
  <defs
     id="defs5455">
    <linearGradient
       inkscape:collect="always"
       xlink:href="#linearGradient2230"
       id="linearGradient2232"
       x1="384.57144"
       y1="515.79797"
       x2="448.57144"
       y2="515.79797"
       gradientUnits="userSpaceOnUse"
       gradientTransform="matrix(0.4999999,0,0,0.4999999,192.28575,273.89904)" />
    <linearGradient
       inkscape:collect="always"
       id="linearGradient2230">
      <stop
         style="stop-color:#f28fad;stop-opacity:0.80000001"
         offset="0"
         id="stop2226" />
      <stop
         style="stop-color:#20ffff;stop-opacity:0.80000001"
         offset="0.50507295"
         id="stop2332" />
      <stop
         style="stop-color:#ffaeff;stop-opacity:0.69"
         offset="1"
         id="stop2228" />
    </linearGradient>
    <linearGradient
       inkscape:collect="always"
       xlink:href="#linearGradient1525"
       id="linearGradient1112"
       gradientUnits="userSpaceOnUse"
       gradientTransform="matrix(0.43750057,0,0,0.43750057,226.29701,309.69858)"
       x1="402.91245"
       y1="520.79797"
       x2="430.34097"
       y2="520.79797" />
    <linearGradient
       inkscape:collect="always"
       id="linearGradient1525">
      <stop
         style="stop-color:#f28fad;stop-opacity:0.2"
         offset="0"
         id="stop1519" />
      <stop
         style="stop-color:#f28fad;stop-opacity:0.80000001"
         offset="0.50507295"
         id="stop1521" />
      <stop
         style="stop-color:#ffaeff;stop-opacity:0.69"
         offset="1"
         id="stop1523" />
    </linearGradient>
  </defs>
  <metadata
     id="metadata5458">
    <rdf:RDF>
      <cc:Work
         rdf:about="">
        <dc:format>image/svg+xml</dc:format>
        <dc:type
           rdf:resource="http://purl.org/dc/dcmitype/StillImage" />
      </cc:Work>
    </rdf:RDF>
  </metadata>
  <g
     inkscape:label="Capa 1"
     inkscape:groupmode="layer"
     id="layer1"
     transform="translate(-384.57143,-515.798)">
    <rect
       style="fill:#626f9d;fill-opacity:0.2;stroke:none;stroke-width:0.630375"
       id="center-3"
       width="30.049994"
       height="20.999996"
       x="385.57144"
       y="522.79797"
       ry="1.9999976"
       rx="2.0033386" />
    <path
       d="m 413.65488,521.80284 h -14.66335 c -0.32409,0 -0.60748,-0.16681 -0.81006,-0.45909 l -1.09375,-1.66919 c -0.36449,-0.58426 -0.97223,-0.87656 -1.62011,-0.87656 h -7.49371 c -1.86344,0 -3.40247,1.58596 -3.40247,3.50555 v 19.48962 c 0,1.62762 1.29635,3.00483 2.91647,3.00483 h 12.59752 v 0 0 0 0 0 0 0 h 0.97201 v 0 0 0 0 0 0 0 0 0 h 12.59752 c 1.57976,0 2.91647,-1.33563 2.91647,-3.00483 v -16.9856 c 0,-1.66919 -1.29606,-3.00452 -2.91647,-3.00452 z M 401.05743,544.798 v 0 h -0.97201 v 0 0 z m 14.54176,-3.00473 c 0,1.08499 -0.85078,2.00314 -1.94424,2.00314 h -26.1672 c -1.0531,0 -1.94424,-0.91815 -1.94424,-2.00314 l -2.9e-4,-6.71912 v -3.79784 c 0,-1.08501 0.89115,-2.00314 1.94424,-2.00314 h 14.66336 c 0.64817,0 1.25563,-0.33391 1.62012,-0.87656 l 1.05309,-1.6692 c 0.20259,-0.25036 0.48599,-0.45909 0.81006,-0.45909 h 7.53421 c 1.33671,0 2.43053,1.12689 2.43053,2.50418 v 5.46703 z m -2.43053,-16.4848 h -7.53421 c -0.64817,0 -1.25563,0.3339 -1.62011,0.87655 l -1.0531,1.6692 c -0.1619,0.29228 -0.48599,0.45908 -0.81006,0.45908 h -14.66325 c -0.72897,0 -1.41666,0.0848 -1.9445,0.8512 v -4.3665 c 0,-1 1.028,-2 2.028,-2 h 8.00001 l 0.0215,0.0232 1.47855,-0.0232 1.96053,0.006 h 14.66336 c 1.05309,0 1.94424,0.91814 1.94424,2.00314 v 1.54407 c -0.64789,-0.66751 -1.49838,-1.04304 -2.47061,-1.04304 z"
       id="path64"
       sodipodi:nodetypes="csccsssssccccccccccccccccccsssccccccccccssccsssccssscccsccscccccccssscc"
       style="fill:url(#linearGradient2232);fill-opacity:1;stroke-width:0.0734205" />
    <path
       clip-rule="evenodd"
       d="m 409.88373,535.42124 c 0.0404,0 0.0791,0.008 0.11536,0.0199 0.83332,0.16818 1.58093,0.47955 2.19103,0.89456 0.24776,-0.18047 0.55135,-0.28776 0.8813,-0.28776 0.82819,0 1.5,0.67136 1.5,1.5 0,0.56086 -0.30816,1.04902 -0.76355,1.30627 0.005,0.0646 0.0136,0.12836 0.0136,0.19373 0,2.07092 -2.3509,3.75001 -5.25,3.75001 -2.89948,0 -5.25001,-1.67909 -5.25001,-3.75001 0,-0.0654 0.009,-0.12909 0.0137,-0.19373 -0.45557,-0.25725 -0.76373,-0.74541 -0.76373,-1.30627 0,-0.82864 0.67143,-1.5 1.5,-1.5 0.32958,0 0.63373,0.10729 0.88146,0.28774 0.76721,-0.52278 1.75451,-0.87771 2.85406,-0.99235 0.004,-0.003 0.008,-0.007 0.0145,-0.008 0.28821,-0.0273 0.54237,-0.22228 0.63867,-0.50866 l 0.40594,-1.51503 c 0.19005,-0.52633 0.73901,-0.83313 1.28998,-0.71493 l 0.61998,0.16636 c 4.4e-4,4.3e-4 -4.3e-4,0.002 4.4e-4,0.002 0.45671,0.11774 0.79491,0.53275 0.79491,1.02677 0,10e-4 4.4e-4,0.002 4.4e-4,0.002 0,10e-4 -4.4e-4,0.002 -4.4e-4,0.003 0,0.41409 0.33544,0.75 0.75,0.75 0.41419,0 0.75,-0.33591 0.75,-0.75 0,-0.1377 -0.0396,-0.26506 -0.10455,-0.37592 l 0.002,-10e-4 c -0.0313,-0.055 -0.0509,-0.11773 -0.0509,-0.18549 0,-0.20681 0.16828,-0.3749 0.375,-0.3749 0.13732,0 0.25542,0.0741 0.32098,0.18403 l 10e-4,-10e-4 c 0.12947,0.22184 0.20491,0.47909 0.20491,0.75457 0,0.82864 -0.67181,1.5 -1.5,1.5 -0.82857,0 -1.5,-0.67136 -1.5,-1.5 0,-0.13908 -0.0881,-0.25636 -0.21094,-0.30277 l -0.60168,-0.16132 c -0.18879,-0.0433 -0.37831,0.0636 -0.43873,0.24729 l -0.39094,1.46045 c -0.18,0.57541 -0.67584,0.96909 -1.24402,1.03994 -2.18278,0.20684 -3.8637,1.45416 -3.8637,2.96642 0,1.65675 2.01453,3 4.50001,3 2.48509,-3e-5 4.49999,-1.34328 4.49999,-3.00003 0,-1.36779 -1.37402,-2.51907 -3.25085,-2.88043 l 3.8e-4,-0.002 c -0.17724,-0.0296 -0.31219,-0.18318 -0.31219,-0.36867 -3e-5,-0.20721 0.16769,-0.37493 0.37498,-0.37493 z m -5.55542,1.42493 c -0.0806,-0.0295 -0.16645,-0.0481 -0.2569,-0.0481 -0.41456,0 -0.75,0.33591 -0.75,0.75 0,0.19282 0.0745,0.36675 0.19465,0.50006 0.16992,-0.43872 0.44714,-0.84375 0.81225,-1.2019 z m 9.29865,1.2019 c 0.11993,-0.13331 0.19446,-0.30724 0.19446,-0.50006 0,-0.4141 -0.33581,-0.75001 -0.75,-0.75001 -0.0908,0 -0.1767,0.0187 -0.25727,0.0482 0.36513,0.35815 0.6427,0.76318 0.81281,1.2019 z m -3.90417,0.24994 c 0,-0.39954 0.32372,-0.72364 0.72363,-0.72364 0.39954,0 0.72326,0.3241 0.72326,0.72364 0,0.39954 -0.32372,0.72363 -0.72326,0.72363 -0.39989,0 -0.72363,-0.32409 -0.72363,-0.72363 z m -3.75001,0 c 0,-0.39954 0.32372,-0.72364 0.72364,-0.72364 0.39953,0 0.72325,0.3241 0.72325,0.72364 0,0.39954 -0.32372,0.72363 -0.72325,0.72363 -0.39989,0 -0.72364,-0.32409 -0.72364,-0.72363 z m 3.98457,1.84038 10e-4,4.4e-4 c 0.0683,-0.0923 0.17688,-0.15326 0.30047,-0.15326 0.20728,0 0.37499,0.16772 0.37499,0.375 0,4.3e-4 0,10e-4 0,0.002 0,0.004 -10e-4,0.008 -10e-4,0.0122 -0.001,0.0222 -0.002,0.0445 -0.007,0.0654 -0.0892,0.48105 -0.97357,0.85826 -2.05371,0.85826 -1.05359,0 -1.91914,-0.35963 -2.0431,-0.82325 -0.0119,-0.0362 -0.0196,-0.074 -0.0196,-0.11407 0,-0.20728 0.16772,-0.375 0.37501,-0.375 0.1364,0 0.25359,0.0736 0.31952,0.18183 l 0.004,-0.002 c 0.19317,0.22174 0.73041,0.38177 1.36451,0.38177 0.66009,0 1.21509,-0.17358 1.38593,-0.40962 z m 2.36407,-7.09039 c -0.20728,0 -0.375,-0.16772 -0.375,-0.375 0,-0.20728 0.16772,-0.375 0.375,-0.375 0.20691,0 0.375,0.16772 0.375,0.375 0,0.20728 -0.16809,0.375 -0.375,0.375 z"
       fill-rule="evenodd"
       id="path2-7-5"
       style="fill:url(#linearGradient1112);fill-opacity:1;stroke-width:0.0234375" />
  </g>
</svg>
