<?xml version="1.0" encoding="UTF-8" standalone="no"?>
<svg
   width="32"
   version="1.1"
   height="32"
   viewBox="0 0 32 32"
   id="svg15"
   sodipodi:docname="folder-appimage.svg"
   inkscape:version="1.1.1 (3bf5ae0d25, 2021-09-20)"
   xmlns:inkscape="http://www.inkscape.org/namespaces/inkscape"
   xmlns:sodipodi="http://sodipodi.sourceforge.net/DTD/sodipodi-0.dtd"
   xmlns:xlink="http://www.w3.org/1999/xlink"
   xmlns="http://www.w3.org/2000/svg"
   xmlns:svg="http://www.w3.org/2000/svg"
   xmlns:rdf="http://www.w3.org/1999/02/22-rdf-syntax-ns#"
   xmlns:cc="http://creativecommons.org/ns#"
   xmlns:dc="http://purl.org/dc/elements/1.1/">
  <sodipodi:namedview
     pagecolor="#ffffff"
     bordercolor="#666666"
     borderopacity="1"
     objecttolerance="10"
     gridtolerance="10"
     guidetolerance="10"
     inkscape:pageopacity="0"
     inkscape:pageshadow="2"
     inkscape:window-width="1920"
     inkscape:window-height="1007"
     id="namedview17"
     showgrid="true"
     inkscape:zoom="6.9384853"
     inkscape:cx="-9.6562862"
     inkscape:cy="16.646284"
     inkscape:window-x="0"
     inkscape:window-y="0"
     inkscape:window-maximized="1"
     inkscape:current-layer="g4"
     inkscape:pagecheckerboard="0">
    <inkscape:grid
       type="xygrid"
       id="grid862" />
  </sodipodi:namedview>
  <defs
     id="defs5455">
    <linearGradient
       inkscape:collect="always"
       xlink:href="#linearGradient2230"
       id="linearGradient2232"
       x1="384.57144"
       y1="515.79797"
       x2="448.57144"
       y2="515.79797"
       gradientUnits="userSpaceOnUse"
       gradientTransform="matrix(1.3883549,0,0,1.3461637,-465.1907,330.12434)" />
    <linearGradient
       inkscape:collect="always"
       id="linearGradient2230">
      <stop
         style="stop-color:#4e99ca;stop-opacity:0.80000001"
         offset="0"
         id="stop2226" />
      <stop
         style="stop-color:#20ffff;stop-opacity:0.80000001"
         offset="0.50507295"
         id="stop2332" />
      <stop
         style="stop-color:#ffaeff;stop-opacity:0.69"
         offset="1"
         id="stop2228" />
    </linearGradient>
    <linearGradient
       inkscape:collect="always"
       xlink:href="#linearGradient2230"
       id="linearGradient1197"
       gradientUnits="userSpaceOnUse"
       gradientTransform="matrix(1.3883549,0,0,1.3461637,-442.977,336.85516)"
       x1="404.57144"
       y1="520.79791"
       x2="428.57193"
       y2="520.79791" />
  </defs>
  <metadata
     id="metadata5458">
    <rdf:RDF>
      <cc:Work
         rdf:about="">
        <dc:format>image/svg+xml</dc:format>
        <dc:type
           rdf:resource="http://purl.org/dc/dcmitype/StillImage" />
      </cc:Work>
    </rdf:RDF>
  </metadata>
  <g
     inkscape:label="Capa 1"
     inkscape:groupmode="layer"
     id="layer1"
     transform="translate(-384.57143,-515.798)">
    <g
       transform="matrix(0.36013848,0,0,0.37142583,359.81878,151.2823)"
       id="g4">
      <rect
         style="fill:#626f9d;fill-opacity:0.2;stroke:none;stroke-width:1.72356"
         id="center-3"
         width="83.440125"
         height="56.538876"
         x="71.507652"
         y="1000.2421"
         ry="5.3846498"
         rx="5.5626912" />
      <path
         d="m 149.48724,997.56266 h -40.71589 c -0.89989,0 -1.6868,-0.44909 -2.24929,-1.236 l -3.03703,-4.49402 c -1.01209,-1.57302 -2.69959,-2.35999 -4.498576,-2.35999 H 78.178603 c -5.17424,0 -9.44768,4.26992 -9.44768,9.43807 v 52.47258 c 0,4.3821 3.5996,8.09 8.09819,8.09 h 34.979657 v 0 0 0 0 0 0 0 h 2.69899 v 0 0 0 0 0 0 0 0 0 h 34.97967 c 4.38652,0 8.09819,-3.596 8.09819,-8.09 v -45.7308 c 0,-4.494 -3.59879,-8.08927 -8.09819,-8.08927 z m -34.97948,61.91064 v 0 h -2.69899 v 0 0 z m 40.37826,-8.0897 c 0,2.9211 -2.36237,5.3931 -5.39859,5.3931 H 76.828713 c -2.92416,0 -5.39859,-2.472 -5.39859,-5.3931 l -10e-4,-18.0901 v -10.2251 c 0,-2.9212 2.47445,-5.3931 5.39859,-5.3931 h 40.715867 c 1.79978,0 3.48652,-0.899 4.4986,-2.36 l 2.92414,-4.494 c 0.56254,-0.674 1.34946,-1.236 2.2493,-1.236 h 20.92051 c 3.71167,0 6.74889,3.034 6.74889,6.7421 v 14.719 z m -6.74889,-44.3825 h -20.92031 c -1.79978,0 -3.48652,0.8989 -4.49859,2.3599 l -2.92415,4.4941 c -0.44955,0.7869 -1.34946,1.236 -2.24929,1.236 H 76.829193 c -2.02414,0 -3.93364,0.2284 -5.39931,2.2916 v -11.756 c 0,-2.6923 2.85447,-5.3847 5.63118,-5.3847 h 22.213691 l 0.0596,0.062 4.105496,-0.062 5.44384,0.017 h 40.71589 c 2.92414,0 5.39859,2.472 5.39859,5.3932 v 4.1571 c -1.799,-1.7972 -4.16056,-2.8082 -6.86016,-2.8082 z"
         id="path64"
         sodipodi:nodetypes="csccsssssccccccccccccccccccsssccccccccccssccsssccssscccsccscccccccssscc"
         style="fill:url(#linearGradient2232);fill-opacity:1;stroke-width:0.200746" />
      <path
         fill-rule="evenodd"
         clip-rule="evenodd"
         d="m 148.24051,1033.9296 c 0.0153,0 0.0285,-0.01 0.0443,-0.01 2.10232,0.2017 3.74811,1.9217 3.74811,4.0148 0,2.0974 -1.64781,3.8209 -3.75833,4.019 -0.003,0.01 -0.01,0.018 -0.0139,0.027 -0.0153,0 -0.0275,-0.01 -0.0443,-0.01 -0.53066,0 -1.12197,0.092 -1.34162,0.6063 -0.21964,0.5157 0.0915,0.9653 0.49825,1.3587 0.0143,0.014 0.033,0.02 0.0483,0.032 1.32996,1.5854 1.25467,3.9103 -0.26949,5.3883 -1.52272,1.4769 -3.92254,1.5519 -5.55817,0.2632 -0.0244,0.014 -0.0508,0.018 -0.0753,0.029 -0.0111,-0.014 -0.0153,-0.028 -0.0275,-0.041 -0.37674,-0.3638 -0.85924,-0.705 -1.39055,-0.49 -0.53222,0.2129 -0.63797,0.7434 -0.63797,1.3014 0,0.05 0.0143,0.096 0.0311,0.1409 -0.26182,1.9877 -2.00017,3.5278 -4.12188,3.5278 -2.15979,0 -3.93469,-1.5944 -4.14471,-3.6352 -0.0229,-0.01 -0.0428,-0.021 -0.0661,-0.029 0.001,-0.01 0.006,-0.018 0.006,-0.028 0,-0.5146 -0.094,-1.0865 -0.62488,-1.2995 -0.53131,-0.214 -0.99552,0.089 -1.40169,0.4831 -0.0244,0.024 -0.0365,0.053 -0.0539,0.081 -1.63362,1.2403 -3.99171,1.1545 -5.49458,-0.3036 -1.52631,-1.4799 -1.60109,-3.8098 -0.26488,-5.3962 -0.0143,-0.027 -0.0219,-0.057 -0.034,-0.087 0.37524,-0.3639 0.7255,-0.8322 0.5054,-1.3468 -0.22068,-0.5146 -0.76872,-0.6192 -1.34376,-0.6192 -0.0376,0 -0.0707,0.014 -0.10621,0.023 -2.04843,-0.2523 -3.63624,-1.9412 -3.63624,-3.9962 0,-2.1021 1.65549,-3.826 3.77148,-4.0188 0.006,-0.018 0.0174,-0.034 0.0254,-0.052 0.52317,-0.01 1.09515,-0.1 1.31076,-0.6054 0.21965,-0.5137 -0.0896,-0.9613 -0.49518,-1.3546 -1.33263,-1.5845 -1.25785,-3.9123 0.26741,-5.3913 1.5308,-1.4853 3.94842,-1.5538 5.58407,-0.242 0.0172,-0.01 0.035,-0.012 0.0529,-0.019 0.37219,0.3554 0.84604,0.6778 1.36614,0.4693 0.53131,-0.2134 0.6381,-0.7453 0.6381,-1.3024 0,0 -0.001,0 -0.001,-0.01 0.21094,-2.0395 1.98128,-3.6318 4.14004,-3.6318 2.17149,0 3.95155,1.6101 4.14575,3.6658 0.004,10e-4 0.007,0 0.0111,0 0,0.1207 0.007,0.245 0.0224,0.3667 h -0.0147 c 0,0.5571 -0.46571,1.0101 -1.04127,1.0101 -0.574,0 -1.04024,-0.453 -1.04024,-1.0101 0,-1.1156 -0.93297,-2.0192 -2.08306,-2.0192 -1.15059,0 -2.08253,0.9036 -2.08253,2.0192 v 1.0101 l -0.007,0.01 c 0.0189,0.6675 -0.41892,1.2907 -1.10986,1.4898 -0.0168,0.01 -0.0346,0.01 -0.0508,0.01 l -0.0125,0.016 c -0.48709,0.1588 -0.95997,0.3481 -1.4135,0.5709 h -0.03 c -0.0178,0.01 -0.0321,0.023 -0.0498,0.033 -0.6737,0.3535 -1.49526,0.1765 -1.95791,-0.3835 l -0.6493,-0.6291 c -0.81402,-0.7888 -2.13284,-0.7888 -2.94536,0 -0.81291,0.7888 -0.81291,2.0676 0,2.8553 l 0.73617,0.7144 0.004,0.03 c 0.48706,0.4613 0.62744,1.191 0.28727,1.8003 -0.006,0.01 -0.0139,0.016 -0.0189,0.026 l 0.006,0.034 c -0.22674,0.4403 -0.42502,0.8987 -0.58772,1.372 l -0.0315,0.024 c -0.006,0.017 -0.006,0.035 -0.0111,0.053 -0.22114,0.7207 -0.94665,1.1565 -1.68999,1.0668 h -0.88091 c -1.1506,0 -2.08299,0.9046 -2.08299,2.0192 0,1.1144 0.93239,2.0195 2.08299,2.0195 h 1.04022 l 0.0311,0.023 c 0.6737,0 1.29749,0.4181 1.49983,1.0757 0.001,0 0.001,0.012 0.003,0.018 l 0.0386,0.027 c 0.16374,0.4723 0.35996,0.9308 0.58877,1.3704 l -0.01,0.061 c 0.007,0.012 0.0157,0.021 0.0224,0.033 0.36457,0.6528 0.18203,1.4494 -0.39555,1.898 l -0.63251,0.6142 c -0.81291,0.7878 -0.81291,2.0666 0,2.8554 0.81245,0.7878 2.13135,0.7878 2.94537,0 l 0.73669,-0.7138 h 0.0306 c 0.47481,-0.4595 1.21912,-0.5887 1.83991,-0.2633 0.004,0 0.007,0 0.0111,0.01 l 0.0671,-0.01 c 0.45406,0.2198 0.92687,0.4121 1.41496,0.5699 l 0.0418,0.053 c 0.007,0 0.0147,0 0.0214,0 0.68028,0.1952 1.11188,0.8025 1.10986,1.4582 l 0.007,0.01 v 1.0105 c 0,1.1151 0.93194,2.0193 2.08255,2.0193 1.15008,0 2.08306,-0.9042 2.08306,-2.0193 v -1.0106 l 0.007,-0.01 c -0.001,-0.6557 0.42965,-1.262 1.10993,-1.4582 0.007,0 0.0143,0 0.0219,0 l 0.0412,-0.052 c 0.48705,-0.1588 0.9594,-0.3481 1.41332,-0.5709 l 0.0686,0.01 c 0.004,-0.01 0.007,-0.01 0.0111,-0.01 0.6208,-0.3253 1.36517,-0.1961 1.84,0.2633 l 0.0311,0.01 0.73669,0.7138 c 0.81245,0.7878 2.13136,0.7878 2.94537,0 0.81298,-0.7887 0.81298,-2.0675 0,-2.8553 l -0.63302,-0.6142 c -0.57759,-0.4486 -0.75961,-1.2453 -0.39505,-1.898 0.007,-0.012 0.0153,-0.021 0.0218,-0.033 l -0.01,-0.067 c 0.22675,-0.4397 0.4266,-0.8923 0.58774,-1.3635 l 0.0407,-0.03 c 0.001,0 0.003,-0.01 0.004,-0.017 0.20188,-0.6577 0.82521,-1.0757 1.49884,-1.0757 l 0.0305,-0.023 h 1.04165 c 1.1506,0 2.08255,-0.9052 2.08255,-2.0195 0,-1.1147 -0.93195,-2.0193 -2.08255,-2.0193 h -0.88149 c -0.74438,0.09 -1.46886,-0.346 -1.68953,-1.0668 -0.006,-0.018 -0.007,-0.037 -0.0111,-0.055 l -0.0311,-0.022 c -0.16328,-0.4722 -0.36,-0.9307 -0.58831,-1.3695 l 0.006,-0.035 c -0.006,-0.01 -0.0139,-0.017 -0.0189,-0.027 -0.34017,-0.6093 -0.19979,-1.3389 0.28674,-1.8003 l 0.004,-0.03 0.7367,-0.7143 c 0.81297,-0.7878 0.81297,-2.0666 0,-2.8554 -0.38644,-0.3736 -0.95178,-0.5871 -1.45764,-0.6063 -0.57557,0 -1.0418,-0.4516 -1.0418,-1.0096 0,-0.5581 0.46623,-1.0097 1.0418,-1.0097 0.0747,0 0.14694,0.01 0.21762,0.022 0.97925,0.062 1.96663,0.4521 2.71199,1.1758 1.52975,1.4829 1.60245,3.8216 0.25629,5.4075 0.006,0.01 0.007,0.021 0.0125,0.031 -0.006,0 -0.0111,0.01 -0.0162,0.011 -0.37571,0.3648 -0.72707,0.8331 -0.50692,1.3493 0.21946,0.5151 0.76801,0.6187 1.34247,0.6187 z m -7.14084,-5.0817 c -0.57557,0 -1.04128,-0.4525 -1.04128,-1.0101 0,-0.5565 0.46571,-1.0086 1.04128,-1.0086 0.574,0 1.04023,0.4521 1.04023,1.0086 0,0.5576 -0.46623,1.0101 -1.04023,1.0101 z m -9.37175,11.611 c 0.57555,0 1.04178,0.4515 1.04178,1.0096 0,0.5581 -0.46623,1.0096 -1.04178,1.0096 -0.57505,0 -1.04128,-0.4515 -1.04128,-1.0096 0,-0.5581 0.46623,-1.0096 1.04128,-1.0096 z m -2.6026,-2.5244 c 0,-3.3453 2.79731,-6.0577 6.24697,-6.0577 3.45025,0 6.24749,2.7124 6.24749,6.0577 0,3.3457 -2.79724,6.058 -6.24749,6.058 -0.57504,0 -1.04126,-0.4526 -1.04126,-1.0096 0,-0.5571 0.46622,-1.0106 1.04126,-1.0106 2.30069,0 4.16457,-1.8073 4.16457,-4.0378 0,-2.2302 -1.86395,-4.0379 -4.16457,-4.0379 -2.3001,0 -4.16553,1.8077 -4.16553,4.0379 0,0.5584 -0.46623,1.0099 -1.04023,1.0099 -0.57557,0 -1.04121,-0.4515 -1.04121,-1.0099 z"
         id="path2-5"
         style="fill:url(#linearGradient1197);fill-opacity:1;stroke-width:0.064083" />
    </g>
  </g>
</svg>
