<?xml version="1.0" encoding="UTF-8" standalone="no"?>
<svg
   width="32"
   version="1.1"
   height="32"
   viewBox="0 0 32 32"
   id="svg17"
   sodipodi:docname="certificate-server.svg"
   inkscape:version="1.1.1 (3bf5ae0d25, 2021-09-20)"
   xmlns:inkscape="http://www.inkscape.org/namespaces/inkscape"
   xmlns:sodipodi="http://sodipodi.sourceforge.net/DTD/sodipodi-0.dtd"
   xmlns:xlink="http://www.w3.org/1999/xlink"
   xmlns="http://www.w3.org/2000/svg"
   xmlns:svg="http://www.w3.org/2000/svg"
   xmlns:rdf="http://www.w3.org/1999/02/22-rdf-syntax-ns#"
   xmlns:cc="http://creativecommons.org/ns#"
   xmlns:dc="http://purl.org/dc/elements/1.1/">
  <sodipodi:namedview
     pagecolor="#ffffff"
     bordercolor="#666666"
     borderopacity="1"
     objecttolerance="10"
     gridtolerance="10"
     guidetolerance="10"
     inkscape:pageopacity="0"
     inkscape:pageshadow="2"
     inkscape:window-width="1920"
     inkscape:window-height="1007"
     id="namedview19"
     showgrid="true"
     inkscape:zoom="9.8125"
     inkscape:cx="-7.9490446"
     inkscape:cy="0.56050955"
     inkscape:window-x="0"
     inkscape:window-y="0"
     inkscape:window-maximized="1"
     inkscape:current-layer="layer1"
     inkscape:document-rotation="0"
     inkscape:pagecheckerboard="0">
    <inkscape:grid
       type="xygrid"
       id="grid904" />
  </sodipodi:namedview>
  <defs
     id="defs5455">
    <linearGradient
       inkscape:collect="always"
       xlink:href="#linearGradient2230"
       id="linearGradient2232"
       x1="384.57144"
       y1="515.79797"
       x2="448.57144"
       y2="515.79797"
       gradientUnits="userSpaceOnUse"
       gradientTransform="matrix(0.4999999,0,0,0.4999999,192.28575,273.89905)" />
    <linearGradient
       inkscape:collect="always"
       id="linearGradient2230">
      <stop
         style="stop-color:#4e99ca;stop-opacity:0.80000001"
         offset="0"
         id="stop2226" />
      <stop
         style="stop-color:#20ffff;stop-opacity:0.80000001"
         offset="0.50507295"
         id="stop2332" />
      <stop
         style="stop-color:#ffaeff;stop-opacity:0.69"
         offset="1"
         id="stop2228" />
    </linearGradient>
    <linearGradient
       inkscape:collect="always"
       xlink:href="#linearGradient2230"
       id="linearGradient1228"
       gradientUnits="userSpaceOnUse"
       gradientTransform="matrix(0.4999999,0,0,0.4999999,200.21075,276.39905)"
       x1="404.72144"
       y1="520.79797"
       x2="428.72144"
       y2="520.79797" />
  </defs>
  <metadata
     id="metadata5458">
    <rdf:RDF>
      <cc:Work
         rdf:about="">
        <dc:format>image/svg+xml</dc:format>
        <dc:type
           rdf:resource="http://purl.org/dc/dcmitype/StillImage" />
      </cc:Work>
    </rdf:RDF>
  </metadata>
  <g
     inkscape:label="Capa 1"
     inkscape:groupmode="layer"
     id="layer1"
     transform="translate(-384.57143,-515.798)">
    <rect
       style="fill:#626f9d;fill-opacity:0.2;stroke:none;stroke-width:0.630375"
       id="center-3"
       width="30.049994"
       height="20.999996"
       x="385.57144"
       y="522.79803"
       ry="1.9999976"
       rx="2.0033386" />
    <path
       d="m 413.65487,521.80284 h -14.66335 c -0.32409,0 -0.60748,-0.16681 -0.81006,-0.45909 l -1.09375,-1.66919 c -0.36449,-0.58426 -0.97223,-0.87656 -1.62011,-0.87656 h -7.49371 c -1.86344,0 -3.40247,1.58596 -3.40247,3.50555 v 19.48962 c 0,1.62762 1.29635,3.00483 2.91647,3.00483 h 12.59752 v 0 0 0 0 0 0 0 h 0.97201 v 0 0 0 0 0 0 0 0 0 h 12.59752 c 1.57976,0 2.91647,-1.33563 2.91647,-3.00483 v -16.9856 c 0,-1.66919 -1.29606,-3.00452 -2.91647,-3.00452 z M 401.05742,544.798 v 0 h -0.97201 v 0 0 z m 14.54176,-3.00473 c 0,1.08499 -0.85078,2.00314 -1.94424,2.00314 h -26.1672 c -1.0531,0 -1.94424,-0.91815 -1.94424,-2.00314 l -2.9e-4,-6.71912 v -3.79784 c 0,-1.08501 0.89115,-2.00314 1.94424,-2.00314 h 14.66336 c 0.64817,0 1.25563,-0.33391 1.62012,-0.87656 l 1.05309,-1.6692 c 0.20259,-0.25036 0.48599,-0.45909 0.81006,-0.45909 h 7.53421 c 1.33671,0 2.43053,1.12689 2.43053,2.50418 v 5.46703 z m -2.43053,-16.4848 h -7.53421 c -0.64817,0 -1.25563,0.3339 -1.62011,0.87655 l -1.0531,1.6692 c -0.1619,0.29228 -0.48599,0.45908 -0.81006,0.45908 h -14.66325 c -0.72897,0 -1.41666,0.0848 -1.9445,0.8512 v -4.3665 c 0,-1 1.028,-2 2.028,-2 h 8.00001 l 0.0215,0.0232 1.47855,-0.0232 1.96053,0.006 h 14.66336 c 1.05309,0 1.94424,0.91814 1.94424,2.00314 v 1.54407 c -0.64789,-0.66751 -1.49838,-1.04304 -2.47061,-1.04304 z"
       id="path64"
       sodipodi:nodetypes="csccsssssccccccccccccccccccsssccccccccccssccsssccssscccsccscccccccssscc"
       style="fill:url(#linearGradient2232);fill-opacity:1;stroke-width:0.0734205" />
    <path
       d="m 408.19663,540.54797 c 0.20672,0 0.375,0.16772 0.375,0.375 0,0.20691 -0.16828,0.375 -0.375,0.375 -0.20728,0 -0.37519,-0.16809 -0.37519,-0.375 0,-0.20728 0.16793,-0.375 0.37519,-0.375 z m -0.37519,-2.62502 c 0,-0.20728 0.16791,-0.375 0.37519,-0.375 0.20672,0 0.375,0.16772 0.375,0.375 v 1.49965 c 0,0.20728 -0.16828,0.37537 -0.375,0.37537 -0.20728,0 -0.37519,-0.16809 -0.37519,-0.37537 z m 5.24995,4.87505 h -9.00016 c -0.82837,0 -1.49981,-0.672 -1.49981,-1.50003 v -3.37502 c 0,-0.20728 0.1679,-0.375 0.37519,-0.375 0.20671,0 0.375,0.16772 0.375,0.375 v 3.18752 c 0,0.51783 0.41967,0.93715 0.9375,0.93715 h 8.62478 c 0.51783,0 0.9379,-0.41934 0.9379,-0.93715 v -3.37539 c 0,-0.51746 -0.42007,-0.93741 -0.9379,-0.93741 h -6.74995 -0.18733 -3.8e-4 c -0.62163,0 -1.12481,-0.50353 -1.12481,-1.12465 v -0.18787 -0.93732 c 0,-2.07112 1.67873,-3.74983 3.75021,-3.74983 2.07105,0 3.74976,1.67871 3.74976,3.74983 v 0.375 c 0,0.20728 -0.16772,0.375 -0.375,0.375 -0.20691,0 -0.375,-0.16772 -0.375,-0.375 v -0.375 c 0,-1.65691 -1.34327,-3.00021 -2.99976,-3.00021 -1.65694,0 -3.00002,1.34328 -3.00002,3.00021 v 0.56232 0.14318 0.23182 c 0,0.31073 0.25176,0.56289 0.56233,0.56289 h 0.23182 0.14318 4.87495 0.1875 0.75 0.18787 0.56213 c 0.82875,0 1.50002,0.67128 1.50002,1.49991 v 3.75002 c 0,0.82803 -0.67127,1.50003 -1.50002,1.50003 z m -9.37516,-6.00033 c -0.20672,0 -0.37462,-0.16772 -0.37462,-0.375 0,-0.20672 0.1679,-0.37463 0.37462,-0.37463 0.20728,0 0.375,0.16791 0.375,0.37463 0,0.20728 -0.16772,0.375 -0.375,0.375 z"
       id="path2-7"
       style="fill:url(#linearGradient1228);fill-opacity:1;stroke-width:0.0234375" />
  </g>
</svg>
