<?xml version="1.0" encoding="UTF-8" standalone="no"?>
<svg
   width="32"
   version="1.1"
   height="32"
   viewBox="0 0 32 32"
   id="svg15"
   sodipodi:docname="folder-book.svg"
   inkscape:version="1.1.1 (3bf5ae0d25, 2021-09-20)"
   xmlns:inkscape="http://www.inkscape.org/namespaces/inkscape"
   xmlns:sodipodi="http://sodipodi.sourceforge.net/DTD/sodipodi-0.dtd"
   xmlns:xlink="http://www.w3.org/1999/xlink"
   xmlns="http://www.w3.org/2000/svg"
   xmlns:svg="http://www.w3.org/2000/svg"
   xmlns:rdf="http://www.w3.org/1999/02/22-rdf-syntax-ns#"
   xmlns:cc="http://creativecommons.org/ns#"
   xmlns:dc="http://purl.org/dc/elements/1.1/">
  <sodipodi:namedview
     pagecolor="#ffffff"
     bordercolor="#666666"
     borderopacity="1"
     objecttolerance="10"
     gridtolerance="10"
     guidetolerance="10"
     inkscape:pageopacity="0"
     inkscape:pageshadow="2"
     inkscape:window-width="1920"
     inkscape:window-height="1007"
     id="namedview17"
     showgrid="true"
     inkscape:zoom="9.8125"
     inkscape:cx="-0.81528662"
     inkscape:cy="1.7834395"
     inkscape:window-x="0"
     inkscape:window-y="0"
     inkscape:window-maximized="1"
     inkscape:current-layer="g4"
     inkscape:pagecheckerboard="0">
    <inkscape:grid
       type="xygrid"
       id="grid862" />
  </sodipodi:namedview>
  <defs
     id="defs5455">
    <linearGradient
       inkscape:collect="always"
       id="linearGradient2230">
      <stop
         style="stop-color:#4e99ca;stop-opacity:0.80000001"
         offset="0"
         id="stop2226" />
      <stop
         style="stop-color:#20ffff;stop-opacity:0.80000001"
         offset="0.50507295"
         id="stop2332" />
      <stop
         style="stop-color:#ffaeff;stop-opacity:0.69"
         offset="1"
         id="stop2228" />
    </linearGradient>
    <linearGradient
       inkscape:collect="always"
       xlink:href="#linearGradient2230"
       id="linearGradient2232-3"
       x1="384.57144"
       y1="515.79797"
       x2="448.57144"
       y2="515.79797"
       gradientUnits="userSpaceOnUse"
       gradientTransform="matrix(1.3883549,0,0,1.3461638,-465.1907,330.1243)" />
    <linearGradient
       inkscape:collect="always"
       xlink:href="#linearGradient2230"
       id="linearGradient1019"
       x1="420.57144"
       y1="527.19818"
       x2="444.57144"
       y2="527.19818"
       gradientUnits="userSpaceOnUse"
       gradientTransform="matrix(1.3883549,0,0,1.3461638,-465.1907,330.1243)" />
  </defs>
  <metadata
     id="metadata5458">
    <rdf:RDF>
      <cc:Work
         rdf:about="">
        <dc:format>image/svg+xml</dc:format>
        <dc:type
           rdf:resource="http://purl.org/dc/dcmitype/StillImage" />
      </cc:Work>
    </rdf:RDF>
  </metadata>
  <g
     inkscape:label="Capa 1"
     inkscape:groupmode="layer"
     id="layer1"
     transform="translate(-384.57143,-515.798)">
    <g
       transform="matrix(0.36013848,0,0,0.37142583,359.81878,151.2823)"
       id="g4">
      <rect
         style="fill:#626f9d;fill-opacity:0.2;stroke:none;stroke-width:1.72356"
         id="center-3-3"
         width="83.440125"
         height="56.538879"
         x="71.507607"
         y="1000.2419"
         ry="5.3846502"
         rx="5.5626912" />
      <path
         d="m 149.48725,997.56267 h -40.71589 c -0.89989,0 -1.6868,-0.4491 -2.24929,-1.23601 l -3.03703,-4.49402 c -1.01209,-1.57302 -2.6996,-2.35999 -4.498588,-2.35999 H 78.178609 c -5.174246,0 -9.447686,4.26993 -9.447686,9.43811 v 52.47244 c 0,4.3821 3.599602,8.09 8.098191,8.09 h 34.979666 v 0 0 0 0 0 0 0 h 2.69899 v 0 0 0 0 0 0 0 0 0 h 34.97968 c 4.38652,0 8.09819,-3.596 8.09819,-8.09 v -45.7308 c 0,-4.494 -3.5988,-8.08917 -8.09819,-8.08917 z m -34.97948,61.91053 v 0 h -2.69899 v 0 0 z m 40.37827,-8.0897 c 0,2.9211 -2.36237,5.3931 -5.39859,5.3931 H 76.828711 c -2.924153,0 -5.39859,-2.472 -5.39859,-5.3931 l -8e-4,-18.0901 v -10.2251 c 0,-2.9211 2.474451,-5.3931 5.39859,-5.3931 h 40.715879 c 1.79978,0 3.48652,-0.899 4.4986,-2.3599 l 2.92414,-4.4941 c 0.56253,-0.674 1.34945,-1.236 2.2493,-1.236 h 20.92032 c 3.71167,0 6.74889,3.034 6.74889,6.7421 v 14.719 z m -6.74889,-44.3825 h -20.92032 c -1.79978,0 -3.48652,0.8989 -4.49859,2.3599 l -2.92415,4.4941 c -0.44955,0.7869 -1.34945,1.236 -2.24929,1.236 H 76.829197 c -2.024138,0 -3.93364,0.2284 -5.399312,2.2917 v -11.7561 c 0,-2.6923 2.854472,-5.3846 5.631181,-5.3846 h 22.213692 l 0.05956,0.062 4.105502,-0.062 5.44384,0.017 h 40.71589 c 2.92414,0 5.39859,2.4719 5.39859,5.3931 v 4.1571 c -1.799,-1.7971 -4.16056,-2.8082 -6.86016,-2.8082 z"
         id="path64-5"
         sodipodi:nodetypes="csccsssssccccccccccccccccccsssccccccccccssccsssccssscccsccscccccccssscc"
         style="fill:url(#linearGradient2232-3);fill-opacity:1;stroke-width:0.200746" />
      <path
         fill-rule="evenodd"
         clip-rule="evenodd"
         d="m 150.21542,1048.8801 -11.81067,4.6521 c -0.94144,0.3575 -1.96216,0.5568 -3.03244,0.5568 -1.07924,0 -2.10912,-0.2014 -3.05543,-0.5652 l -11.78185,-4.64 c -1.0798,-0.5348 -1.82333,-1.617 -1.82333,-2.8727 v -12.3835 -2.1544 c 0,-0.5953 0.49842,-1.0769 1.11068,-1.0769 0.61393,0 1.11117,0.4816 1.11117,1.0769 v 0.8755 1.2789 12.2326 c 0,0.3886 0.21909,0.7209 0.53799,0.9102 l 11.3405,4.6527 c 0.0248,0.01 0.0461,0.014 0.0709,0.024 0.76464,0.3139 1.60634,0.4874 2.48925,0.4874 0.87725,0 1.71351,-0.1714 2.4749,-0.4816 0.0248,-0.011 0.0466,-0.016 0.0716,-0.025 l 11.35292,-4.6574 c 0.3189,-0.1893 0.5391,-0.5217 0.5391,-0.9103 v -7.9254 -1.2789 -0.8755 c 0,-0.5942 0.49786,-1.0759 1.11068,-1.0759 0.61393,0 1.11069,0.4817 1.11069,1.0759 v 2.1543 8.0764 c 7e-5,1.2537 -0.74075,2.3317 -1.81674,2.8691 z m 0.70611,-16.3294 c -0.61283,0 -1.1107,-0.4833 -1.1107,-1.0775 0,-0.5953 0.49787,-1.0769 1.1107,-1.0769 0.61393,0 1.11069,0.4816 1.11069,1.0769 0,0.5942 -0.49676,1.0775 -1.11069,1.0775 z m -5.37328,13.2095 -5.23889,2.1166 v 0 c -0.14211,0.062 -0.29932,0.097 -0.46426,0.097 -0.62907,0 -1.14102,-0.4949 -1.14102,-1.1059 0,-0.4733 0.30696,-0.873 0.73756,-1.0323 l 5.33642,-2.2642 c 0.34598,-0.1809 0.59004,-0.5301 0.59004,-0.9408 v -14.1004 c 0,-0.2971 -0.24836,-0.5384 -0.55533,-0.5384 -0.0802,0 -0.1573,0.017 -0.22777,0.047 v -10e-4 l -7.51113,3.1876 c -0.34924,0.181 -0.59005,0.5301 -0.59005,0.9392 v 12.7716 2.1538 c 0,1.1895 -0.99546,2.1544 -2.2222,2.1544 -0.30752,0 -0.59874,-0.061 -0.86558,-0.1703 l -8.20635,-3.3154 c -1.1969,-0.4917 -2.03477,-1.6386 -2.03477,-2.9752 v -15.0775 c 0,-1.1895 0.99517,-2.1543 2.22137,-2.1543 0.30259,0 0.58894,0.059 0.85307,0.1666 l 5.09728,2.0587 c 0.41866,0.1704 0.71368,0.5721 0.71368,1.0396 0,0.6231 -0.52064,1.1279 -1.16219,1.1279 -0.19416,0 -0.37472,-0.051 -0.53528,-0.1321 l -4.1829,-1.7747 c -10e-4,0 0,0 -10e-4,0 -0.0694,-0.03 -0.14537,-0.047 -0.22617,-0.047 -0.30807,0 -0.5559,0.2414 -0.5559,0.5385 v 14.1004 c 0,0.4107 0.24297,0.7599 0.5906,0.9408 l 7.51171,3.1866 c 0.001,0 0,-10e-4 0.001,-10e-4 0.0683,0.03 0.14591,0.047 0.22673,0.047 0.30641,0 0.55533,-0.2403 0.55533,-0.5385 v -13.7128 -0.539 c 0,-1.3389 0.83953,-2.4883 2.03775,-2.9773 l 8.21511,-3.3181 c 0.26462,-0.1073 0.55104,-0.1667 0.85363,-0.1667 1.22675,0 2.22248,0.9649 2.22248,2.1543 v 15.0775 c -7e-5,1.3387 -0.84397,2.4882 -2.04248,2.9788 z"
         id="path2"
         style="fill:url(#linearGradient1019);fill-opacity:1;stroke-width:0.068355" />
    </g>
  </g>
</svg>
