<?xml version="1.0" encoding="UTF-8" standalone="no"?>
<svg
   width="32"
   version="1.1"
   height="32"
   viewBox="0 0 32 32"
   id="svg15"
   sodipodi:docname="folder-build.svg"
   inkscape:version="1.1.1 (3bf5ae0d25, 2021-09-20)"
   xmlns:inkscape="http://www.inkscape.org/namespaces/inkscape"
   xmlns:sodipodi="http://sodipodi.sourceforge.net/DTD/sodipodi-0.dtd"
   xmlns:xlink="http://www.w3.org/1999/xlink"
   xmlns="http://www.w3.org/2000/svg"
   xmlns:svg="http://www.w3.org/2000/svg"
   xmlns:rdf="http://www.w3.org/1999/02/22-rdf-syntax-ns#"
   xmlns:cc="http://creativecommons.org/ns#"
   xmlns:dc="http://purl.org/dc/elements/1.1/">
  <sodipodi:namedview
     pagecolor="#ffffff"
     bordercolor="#666666"
     borderopacity="1"
     objecttolerance="10"
     gridtolerance="10"
     guidetolerance="10"
     inkscape:pageopacity="0"
     inkscape:pageshadow="2"
     inkscape:window-width="1920"
     inkscape:window-height="1007"
     id="namedview17"
     showgrid="true"
     inkscape:zoom="6.9384853"
     inkscape:cx="-9.6562862"
     inkscape:cy="4.9722668"
     inkscape:window-x="0"
     inkscape:window-y="0"
     inkscape:window-maximized="1"
     inkscape:current-layer="g4"
     inkscape:pagecheckerboard="0">
    <inkscape:grid
       type="xygrid"
       id="grid862" />
  </sodipodi:namedview>
  <defs
     id="defs5455">
    <linearGradient
       inkscape:collect="always"
       xlink:href="#linearGradient2230"
       id="linearGradient2232"
       x1="384.57144"
       y1="515.79797"
       x2="448.57144"
       y2="515.79797"
       gradientUnits="userSpaceOnUse"
       gradientTransform="matrix(1.3883544,0,0,1.3461633,-465.19048,330.12454)" />
    <linearGradient
       inkscape:collect="always"
       id="linearGradient2230">
      <stop
         style="stop-color:#4e99ca;stop-opacity:0.80000001"
         offset="0"
         id="stop2226" />
      <stop
         style="stop-color:#20ffff;stop-opacity:0.80000001"
         offset="0.50507295"
         id="stop2332" />
      <stop
         style="stop-color:#ffaeff;stop-opacity:0.69"
         offset="1"
         id="stop2228" />
    </linearGradient>
    <linearGradient
       inkscape:collect="always"
       xlink:href="#linearGradient2230"
       id="linearGradient1191"
       gradientUnits="userSpaceOnUse"
       gradientTransform="matrix(1.1731677,0,0,1.137516,-350.22486,446.70732)"
       x1="399.72342"
       y1="521.52008"
       x2="411.72385"
       y2="521.52008" />
    <linearGradient
       inkscape:collect="always"
       xlink:href="#linearGradient2230"
       id="linearGradient1193"
       gradientUnits="userSpaceOnUse"
       gradientTransform="matrix(1.1731677,0,0,1.137516,-350.22486,446.70732)"
       x1="416.12143"
       y1="517.82312"
       x2="428.12183"
       y2="517.82312" />
    <linearGradient
       inkscape:collect="always"
       xlink:href="#linearGradient2230"
       id="linearGradient1195"
       gradientUnits="userSpaceOnUse"
       gradientTransform="matrix(1.1731677,0,0,1.137516,-350.22486,446.70732)"
       x1="409.74146"
       y1="527.7981"
       x2="421.74188"
       y2="527.7981" />
  </defs>
  <metadata
     id="metadata5458">
    <rdf:RDF>
      <cc:Work
         rdf:about="">
        <dc:format>image/svg+xml</dc:format>
        <dc:type
           rdf:resource="http://purl.org/dc/dcmitype/StillImage" />
      </cc:Work>
    </rdf:RDF>
  </metadata>
  <g
     inkscape:label="Capa 1"
     inkscape:groupmode="layer"
     id="layer1"
     transform="translate(-384.57143,-515.798)">
    <g
       transform="matrix(0.36013848,0,0,0.37142583,359.81878,151.2823)"
       id="g4">
      <rect
         style="fill:#626f9d;fill-opacity:0.2;stroke:none;stroke-width:1.72356"
         id="center-3"
         width="83.440094"
         height="56.53886"
         x="71.507652"
         y="1000.2421"
         ry="5.3846483"
         rx="5.5626893" />
      <path
         d="m 149.48723,997.56266 h -40.71589 c -0.89988,0 -1.68679,-0.44909 -2.24928,-1.236 l -3.03703,-4.49402 c -1.01209,-1.57302 -2.6996,-2.35999 -4.498589,-2.35999 H 78.178604 c -5.174244,0 -9.447681,4.26992 -9.447681,9.4381 v 52.47235 c 0,4.3821 3.599599,8.09 8.098187,8.09 h 34.97966 v 0 0 0 0 0 0 0 h 2.69899 v 0 0 0 0 0 0 0 0 0 h 34.97966 c 4.38652,0 8.09819,-3.5959 8.09819,-8.09 v -45.7307 c 0,-4.4941 -3.5988,-8.08917 -8.09819,-8.08917 z m -34.97947,61.91044 v 0 h -2.69899 v 0 0 z m 40.37825,-8.0897 c 0,2.9211 -2.36237,5.3931 -5.39859,5.3931 H 76.828707 c -2.924152,0 -5.398587,-2.472 -5.398587,-5.3931 l -8e-4,-18.0901 v -10.225 c 0,-2.9212 2.474449,-5.3931 5.398587,-5.3931 h 40.715873 c 1.79978,0 3.48652,-0.899 4.4986,-2.36 l 2.92414,-4.494 c 0.56253,-0.674 1.34945,-1.236 2.2493,-1.236 h 20.9203 c 3.71167,0 6.74889,3.0339 6.74889,6.742 v 14.7191 z m -6.74889,-44.3825 h -20.92031 c -1.79978,0 -3.48652,0.899 -4.49858,2.36 l -2.92416,4.494 c -0.44955,0.7869 -1.34945,1.236 -2.24928,1.236 H 76.829193 c -2.024137,0 -3.933638,0.2284 -5.399309,2.2917 v -11.756 c 0,-2.6923 2.85447,-5.3847 5.631178,-5.3847 h 22.213684 l 0.05956,0.062 4.105504,-0.062 5.44384,0.017 h 40.71588 c 2.92414,0 5.39859,2.472 5.39859,5.3931 v 4.1572 c -1.79901,-1.7972 -4.16057,-2.8082 -6.86017,-2.8082 z"
         id="path64"
         sodipodi:nodetypes="csccsssssccccccccccccccccccsssccccccccccssccsssccssscccsccscccccccssscc"
         style="fill:url(#linearGradient2232);fill-opacity:1;stroke-width:0.200746" />
      <path
         fill-rule="evenodd"
         clip-rule="evenodd"
         d="m 131.19396,1038.2527 c 0.008,0 0.0143,0 0.0176,0 0.88828,0.083 1.58363,0.8119 1.58363,1.6962 0,0.8862 -0.69625,1.6144 -1.58789,1.6981 -0.001,0.01 -0.006,0.01 -0.007,0.014 -0.008,-4e-4 -0.0139,0 -0.0179,0 -0.22416,0 -0.47401,0.04 -0.56681,0.2562 -0.0915,0.2178 0.0397,0.4078 0.21046,0.574 0.007,0.01 0.0157,0.01 0.0185,0.015 0.56195,0.6698 0.53014,1.6522 -0.11482,2.2766 -0.64342,0.624 -1.65731,0.6557 -2.34839,0.112 -0.0125,0.01 -0.0193,0.01 -0.0315,0.014 -0.006,-0.01 -0.007,-0.013 -0.0139,-0.017 -0.15916,-0.1537 -0.36301,-0.2979 -0.58751,-0.207 -0.22481,0.089 -0.26953,0.3141 -0.26953,0.5498 0,0.019 0.007,0.042 0.0151,0.059 -0.1126,0.8398 -0.84503,1.4905 -1.74144,1.4905 -0.91254,0 -1.66238,-0.6736 -1.7512,-1.5359 -0.0111,-0.01 -0.0175,-0.011 -0.0269,-0.014 3.4e-4,0 0.003,-0.01 0.003,-0.014 0,-0.2175 -0.041,-0.4591 -0.26399,-0.5491 -0.22447,-0.089 -0.42063,0.038 -0.59225,0.2041 -0.0125,0.012 -0.0164,0.021 -0.0208,0.034 -0.69021,0.5241 -1.68652,0.4878 -2.32143,-0.1281 -0.64489,-0.6253 -0.67653,-1.6096 -0.11385,-2.28 -0.007,-0.014 -0.0111,-0.023 -0.0157,-0.038 0.1586,-0.1537 0.3065,-0.3515 0.21353,-0.5689 -0.0921,-0.2175 -0.32476,-0.2617 -0.56774,-0.2617 -0.0174,0 -0.0293,0.01 -0.0471,0.011 -0.86547,-0.1083 -1.53629,-0.8201 -1.53629,-1.6884 0,-0.8881 0.69949,-1.6165 1.59351,-1.6979 0.003,-0.01 0.008,-0.016 0.0125,-0.02 0.22109,0 0.46272,-0.044 0.55385,-0.2559 0.0915,-0.217 -0.0386,-0.4061 -0.20926,-0.5723 -0.56302,-0.6695 -0.53142,-1.653 0.11481,-2.2778 0.64678,-0.6276 1.66822,-0.6565 2.35929,-0.1033 0.008,0 0.0168,0 0.0203,-0.01 0.15726,0.1502 0.3575,0.2864 0.57726,0.1983 0.22439,-0.089 0.26961,-0.3149 0.26961,-0.5503 0,0 -4.7e-4,0 -4.7e-4,0 0.0872,-0.8616 0.83705,-1.5344 1.74914,-1.5344 0.91748,0 1.66962,0.6803 1.75159,1.5488 0.003,5e-4 0.004,0 0.006,0 0,0.05 0.003,0.1047 0.0111,0.1549 h -0.007 c 0,0.2354 -0.19667,0.4268 -0.43983,0.4268 -0.24257,0 -0.43955,-0.1914 -0.43955,-0.4268 0,-0.4713 -0.39421,-0.8531 -0.88014,-0.8531 -0.4861,0 -0.87989,0.3818 -0.87989,0.8531 v 0.4268 h -0.003 c 0.01,0.282 -0.177,0.5453 -0.46893,0.6294 -0.008,0 -0.0157,0 -0.0194,0.01 l -0.006,0.01 c -0.2058,0.068 -0.40554,0.1471 -0.59719,0.2412 h -0.0144 c -0.008,0 -0.0147,0.012 -0.0192,0.016 -0.28459,0.1494 -0.63176,0.076 -0.8272,-0.162 l -0.27468,-0.2657 c -0.34387,-0.3333 -0.90109,-0.3333 -1.24437,0 -0.34352,0.3332 -0.34352,0.8736 0,1.2064 l 0.31103,0.3018 0.003,0.015 c 0.20573,0.1949 0.265,0.5032 0.11968,0.7606 -0.003,0 -0.007,0.01 -0.01,0.013 l 0.003,0.016 c -0.0951,0.1859 -0.1796,0.3796 -0.24832,0.5796 l -0.0151,0.012 c -0.003,0.01 -0.003,0.016 -0.006,0.021 -0.0922,0.3046 -0.39994,0.4887 -0.714,0.4507 h -0.37222 c -0.48609,0 -0.88008,0.3823 -0.88008,0.8532 0,0.4708 0.39399,0.8532 0.88008,0.8532 h 0.43952 l 0.0151,0.011 c 0.28456,-4e-4 0.54817,0.1766 0.63362,0.4545 9e-4,0 9e-4,0.01 10e-4,0.01 l 0.0172,0.014 c 0.0697,0.1995 0.15208,0.3932 0.24877,0.579 l -0.004,0.025 c 0.004,0 0.008,0.011 0.0111,0.015 0.15396,0.2758 0.0789,0.6124 -0.16711,0.8019 l -0.26721,0.2595 c -0.3435,0.3328 -0.3435,0.8731 0,1.2064 0.34323,0.3328 0.90044,0.3328 1.24437,0 l 0.31128,-0.3016 h 0.0151 c 0.20064,-0.1941 0.51516,-0.2487 0.77745,-0.1117 0.003,0 0.003,0 0.006,0 h 0.0275 c 0.1918,0.092 0.39157,0.1741 0.5978,0.2408 l 0.0178,0.021 c 0.003,0 0.007,0 0.0111,0 0.28741,0.082 0.46977,0.3391 0.46889,0.6161 l 0.003,0.01 v 0.4266 c 0,0.4711 0.39377,0.8531 0.87988,0.8531 0.48591,0 0.88009,-0.382 0.88009,-0.8531 v -0.427 h 0.003 c -8.5e-4,-0.277 0.18156,-0.5332 0.46899,-0.6161 0.004,0 0.007,0 0.0111,-0.01 l 0.0174,-0.02 c 0.20578,-0.068 0.40537,-0.1471 0.59713,-0.2412 l 0.0282,0.01 c 0.001,0 0.003,0 0.006,0 0.26227,-0.1375 0.57675,-0.082 0.77734,0.1125 l 0.0151,0.01 0.31124,0.3016 c 0.34327,0.3329 0.9005,0.3329 1.24442,0 0.34351,-0.3333 0.34351,-0.8736 0,-1.2064 l -0.26745,-0.2595 c -0.244,-0.1896 -0.32092,-0.5261 -0.16687,-0.8019 0.003,-0.01 0.007,-0.011 0.0111,-0.015 l -0.006,-0.028 c 0.0951,-0.1858 0.18028,-0.377 0.24835,-0.576 l 0.0172,-0.015 c 6e-4,0 0.001,-0.01 0.001,-0.01 0.0846,-0.2779 0.34859,-0.4545 0.63326,-0.4545 l 0.0151,-0.011 h 0.44011 c 0.48618,0 0.87988,-0.3825 0.87988,-0.8533 0,-0.4709 -0.3937,-0.8531 -0.87988,-0.8531 h -0.37238 c -0.31455,0.039 -0.62064,-0.1463 -0.71388,-0.4508 -0.003,-0.01 -0.003,-0.017 -0.006,-0.021 l -0.015,-0.011 c -0.0694,-0.1995 -0.15212,-0.3933 -0.24855,-0.5786 l 0.003,-0.016 c -0.003,0 -0.007,-0.01 -0.01,-0.014 -0.14371,-0.2573 -0.0834,-0.5656 0.11953,-0.7606 l 0.003,-0.014 0.3112,-0.3017 c 0.34355,-0.3329 0.34355,-0.8732 0,-1.2064 -0.16324,-0.1579 -0.40208,-0.2481 -0.61583,-0.2562 -0.24316,0 -0.44018,-0.1908 -0.44018,-0.4266 0,-0.2358 0.19702,-0.4266 0.44018,-0.4266 0.0312,0 0.0612,0 0.0905,0.011 0.41369,0.025 0.83089,0.1911 1.14574,0.4968 0.64639,0.6265 0.6771,1.6146 0.10982,2.2847 0.003,0 0.003,0.011 0.006,0.015 -0.003,0 -0.006,0 -0.008,0.01 -0.1587,0.1542 -0.30715,0.352 -0.21414,0.5701 0.0914,0.2176 0.32447,0.2613 0.56718,0.2613 z m -3.017,-2.1471 c -0.24316,0 -0.4399,-0.1911 -0.4399,-0.4267 0,-0.2352 0.19674,-0.4262 0.4399,-0.4262 0.24256,0 0.43952,0.191 0.43952,0.4262 0,0.2356 -0.19696,0.4267 -0.43952,0.4267 z m -4.42898,7.6471 h 0.033 v 0 z m 0.63088,0.24 v 0 l 0.0254,0.023 -0.0254,-0.023 v 0 0 0 0 0 l 0.0254,0.023 z"
         id="path2-75"
         sodipodi:nodetypes="scsccsccccccccscsccscccccccscsccccccccscsccccsssscccccccccccccccccccccsssccccccccccccccccccccccsssccccccccccccccccccccccsssccccccccccccssccccccsssssscccccccccccccccc"
         style="fill:url(#linearGradient1191);fill-opacity:1;stroke-width:0.0270753" />
      <path
         fill-rule="evenodd"
         clip-rule="evenodd"
         d="m 150.43157,1034.0472 c 0.008,0 0.0142,0 0.0172,0 0.88835,0.083 1.58365,0.8119 1.58365,1.6963 0,0.8861 -0.69626,1.6143 -1.58784,1.698 -0.001,0.01 -0.006,0.01 -0.007,0.014 -0.008,-4e-4 -0.0139,0 -0.0179,0 -0.22422,0 -0.47406,0.04 -0.56681,0.2561 -0.0915,0.2179 0.0397,0.4079 0.21049,0.5741 0.007,0.01 0.0157,0.01 0.0185,0.015 0.56192,0.6698 0.53013,1.6521 -0.11482,2.2766 -0.64346,0.624 -1.65731,0.6556 -2.34843,0.1121 -0.0125,0.01 -0.0193,0.01 -0.0315,0.014 -0.006,-0.01 -0.007,-0.014 -0.0139,-0.017 -0.15919,-0.1537 -0.36303,-0.2978 -0.58755,-0.207 -0.22487,0.089 -0.26954,0.3141 -0.26954,0.5498 0,0.019 0.007,0.042 0.0151,0.059 -0.1126,0.8398 -0.84502,1.4905 -1.74144,1.4905 -0.91253,0 -1.66243,-0.6736 -1.75116,-1.5358 -0.0111,0 -0.0175,-0.011 -0.0269,-0.014 3.8e-4,0 0.003,-0.01 0.003,-0.014 0,-0.2175 -0.041,-0.4591 -0.26406,-0.549 -0.2245,-0.089 -0.42065,0.038 -0.59226,0.204 -0.0125,0.012 -0.0164,0.021 -0.0208,0.034 -0.69027,0.5241 -1.68653,0.4878 -2.32152,-0.1281 -0.64487,-0.6253 -0.67642,-1.6097 -0.11398,-2.2799 -0.007,-0.014 -0.0111,-0.023 -0.0154,-0.037 0.15852,-0.1538 0.30645,-0.3516 0.2135,-0.5691 -0.0921,-0.2174 -0.32479,-0.2616 -0.56773,-0.2616 -0.0176,0 -0.0293,0.01 -0.0471,0.011 -0.86551,-0.1083 -1.53633,-0.82 -1.53633,-1.6883 0,-0.8882 0.69946,-1.6165 1.59346,-1.6979 0.003,-0.01 0.008,-0.017 0.0125,-0.02 0.22109,0 0.46273,-0.044 0.55382,-0.2558 0.0915,-0.217 -0.0386,-0.4062 -0.20918,-0.5723 -0.56305,-0.6694 -0.53151,-1.653 0.11495,-2.2779 0.64675,-0.6275 1.66815,-0.6565 2.35927,-0.1032 0.008,0 0.016,0 0.0203,-0.01 0.15728,0.1502 0.35748,0.2863 0.57724,0.1983 0.22444,-0.089 0.26958,-0.315 0.26958,-0.5504 0,0 -4.1e-4,0 -4.1e-4,0 0.0872,-0.8616 0.83708,-1.5344 1.74916,-1.5344 0.91747,0 1.66954,0.6803 1.75157,1.5489 0.003,5e-4 0.004,0 0.006,0 0,0.05 0.003,0.1047 0.0111,0.1549 h -0.007 c 0,0.2354 -0.19673,0.4267 -0.43992,0.4267 -0.24253,0 -0.43945,-0.1913 -0.43945,-0.4267 0,-0.4714 -0.39419,-0.8531 -0.88015,-0.8531 -0.48613,0 -0.87983,0.3817 -0.87983,0.8531 v 0.4267 h -0.003 c 0.01,0.2821 -0.177,0.5453 -0.46892,0.6295 -0.008,0 -0.0164,0 -0.0194,0.01 l -0.006,0.01 c -0.20577,0.068 -0.40558,0.1471 -0.59717,0.2412 h -0.0147 c -0.008,0 -0.0151,0.012 -0.0189,0.016 -0.28464,0.1494 -0.63178,0.076 -0.82718,-0.162 l -0.27442,-0.266 c -0.34386,-0.3332 -0.90109,-0.3332 -1.24436,0 -0.34342,0.3333 -0.34342,0.8737 0,1.2064 l 0.31097,0.3018 0.003,0.015 c 0.20576,0.1949 0.26506,0.5033 0.11967,0.7607 -0.003,0 -0.007,0.01 -0.01,0.013 l 0.003,0.016 c -0.0951,0.1859 -0.17961,0.3796 -0.24833,0.5796 l -0.0151,0.012 c -0.003,0.01 -0.003,0.015 -0.006,0.021 -0.0922,0.3044 -0.39993,0.4886 -0.714,0.4507 h -0.37218 c -0.48617,0 -0.88009,0.3822 -0.88009,0.8531 0,0.4708 0.39392,0.8532 0.88009,0.8532 h 0.43953 l 0.0151,0.011 c 0.28458,-3e-4 0.54815,0.1767 0.63362,0.4546 9.5e-4,0 9.5e-4,0 0.001,0.01 l 0.0172,0.014 c 0.0697,0.1995 0.15207,0.3933 0.24875,0.579 l -0.004,0.025 c 0.004,0 0.008,0.011 0.0111,0.015 0.15401,0.2757 0.0789,0.6123 -0.16715,0.8018 l -0.2672,0.2596 c -0.34348,0.3328 -0.34348,0.8731 0,1.2063 0.34324,0.3329 0.90049,0.3329 1.24437,0 l 0.31134,-0.3015 h 0.0151 c 0.20065,-0.1941 0.51511,-0.2487 0.77738,-0.1123 0.003,10e-4 0.003,0 0.006,0 h 0.0275 c 0.19188,0.092 0.39163,0.1741 0.59786,0.2408 l 0.0176,0.021 c 0.003,10e-4 0.007,10e-4 0.0111,0 0.28746,0.081 0.46978,0.3391 0.46889,0.616 h 0.003 v 0.427 c 0,0.4712 0.39379,0.8532 0.87991,0.8532 0.48591,0 0.88008,-0.382 0.88008,-0.8532 v -0.427 h 0.003 c -8e-4,-0.277 0.18154,-0.5333 0.46897,-0.6161 0.004,0 0.007,0 0.0111,0 l 0.0171,-0.02 c 0.20577,-0.068 0.40532,-0.147 0.59711,-0.2411 h 0.0282 c 0.001,-10e-4 0.003,0 0.006,0 0.26228,-0.1375 0.57679,-0.082 0.77738,0.1121 h 0.0154 l 0.31124,0.3015 c 0.34321,0.3329 0.90051,0.3329 1.24441,0 0.34348,-0.3332 0.34348,-0.8735 0,-1.2064 l -0.26745,-0.2595 c -0.24404,-0.1895 -0.32094,-0.5261 -0.16689,-0.8018 0.003,0 0.007,-0.011 0.0111,-0.016 l -0.006,-0.028 c 0.0951,-0.1858 0.18026,-0.377 0.24836,-0.5761 l 0.0175,-0.014 c 6e-4,0 0.001,0 0.001,-0.01 0.0846,-0.2778 0.3487,-0.4545 0.63328,-0.4545 l 0.0151,-0.011 h 0.44009 c 0.48616,0 0.87989,-0.3823 0.87989,-0.8532 0,-0.4709 -0.39373,-0.8531 -0.87989,-0.8531 h -0.37243 c -0.31453,0.039 -0.6206,-0.1463 -0.71384,-0.4507 -0.003,-0.01 -0.003,-0.017 -0.006,-0.021 l -0.0149,-0.011 c -0.0694,-0.1996 -0.15211,-0.3933 -0.24857,-0.5787 l 0.003,-0.016 c -0.003,-0.01 -0.007,-0.01 -0.01,-0.014 -0.14367,-0.2575 -0.0837,-0.5657 0.11954,-0.7607 l 0.003,-0.015 0.3113,-0.3017 c 0.34342,-0.3329 0.34342,-0.8732 0,-1.2064 -0.16333,-0.1578 -0.40217,-0.2481 -0.61592,-0.2562 -0.24316,0 -0.44016,-0.1908 -0.44016,-0.4266 0,-0.2358 0.197,-0.4266 0.44016,-0.4266 0.0312,0 0.0612,0 0.0905,0.011 0.41373,0.025 0.83089,0.191 1.1458,0.4967 0.64636,0.6266 0.67707,1.6147 0.10981,2.2848 0.003,0 0.003,0.011 0.006,0.015 -0.003,0 -0.006,0 -0.008,0.01 -0.15875,0.1541 -0.3072,0.352 -0.21416,0.57 0.0913,0.2177 0.32447,0.2614 0.56724,0.2614 z m -3.01705,-2.1469 c -0.24315,0 -0.43994,-0.1912 -0.43994,-0.4268 0,-0.2352 0.19679,-0.4262 0.43994,-0.4262 0.24259,0 0.43956,0.191 0.43956,0.4262 0,0.2356 -0.19697,0.4268 -0.43956,0.4268 z m -4.42888,7.6471 0.0331,-10e-4 v 0 z m 0.63084,0.2399 v 0 l 0.0254,0.023 -0.0254,-0.023 v 0 0 0 0 0 l 0.0254,0.023 z"
         id="path2-36-3"
         sodipodi:nodetypes="scsccsccccccccscsccscccccccscsccccccccscsccccsssscccccccccccccccccccccsssccccccccccccccccccccccsssccccccccccccccccccccccsssccccccccccccssccccccsssssscccccccccccccccc"
         style="fill:url(#linearGradient1193);fill-opacity:1;stroke-width:0.0270753" />
      <path
         fill-rule="evenodd"
         clip-rule="evenodd"
         d="m 142.94681,1045.394 c 0.008,0 0.0142,0 0.0179,0 0.88826,0.083 1.5836,0.8119 1.5836,1.6962 0,0.8862 -0.69622,1.6143 -1.58793,1.6981 -10e-4,0.01 -0.006,0.01 -0.007,0.014 -0.008,-4e-4 -0.0139,0 -0.0174,0 -0.22418,0 -0.474,0.04 -0.56681,0.2561 -0.0915,0.2179 0.0397,0.4079 0.2105,0.5741 0.007,0.01 0.0154,0.01 0.0186,0.014 0.56193,0.6698 0.53013,1.6522 -0.11523,2.2766 -0.64331,0.624 -1.65728,0.6556 -2.34829,0.1118 -0.0125,0.01 -0.0193,0.01 -0.0315,0.014 -0.006,-0.01 -0.007,-0.014 -0.0139,-0.017 -0.15917,-0.1537 -0.363,-0.2978 -0.58747,-0.207 -0.22488,0.089 -0.26952,0.3141 -0.26952,0.5498 0,0.019 0.007,0.042 0.0151,0.059 -0.1126,0.8397 -0.84503,1.4905 -1.74147,1.4905 -0.91257,0 -1.66243,-0.6736 -1.75119,-1.5359 -0.0111,-0.01 -0.0176,-0.011 -0.0269,-0.014 4.1e-4,0 0.003,-0.01 0.003,-0.014 0,-0.2174 -0.041,-0.459 -0.26404,-0.5491 -0.22451,-0.089 -0.4206,0.038 -0.59218,0.2041 -0.0125,0.012 -0.0173,0.021 -0.0208,0.034 -0.69021,0.5241 -1.68651,0.4879 -2.32151,-0.1282 -0.64481,-0.6253 -0.67644,-1.6097 -0.11385,-2.2799 -0.007,-0.013 -0.0111,-0.022 -0.016,-0.037 0.15855,-0.1537 0.30651,-0.3515 0.2135,-0.569 -0.092,-0.2174 -0.32476,-0.2616 -0.56774,-0.2616 -0.0172,0 -0.0293,0.01 -0.0471,0.011 -0.86542,-0.1084 -1.53629,-0.8202 -1.53629,-1.6884 0,-0.8881 0.69947,-1.6165 1.59347,-1.698 0.003,-0.01 0.008,-0.017 0.0125,-0.02 0.22109,-0.01 0.46272,-0.044 0.55387,-0.2558 0.0915,-0.217 -0.0386,-0.4061 -0.20924,-0.5723 -0.56308,-0.6695 -0.53142,-1.653 0.11412,-2.2778 0.64677,-0.6275 1.66823,-0.6565 2.35927,-0.1033 0.008,-0.01 0.0162,-0.01 0.0203,-0.01 0.1573,0.1502 0.35741,0.2864 0.5772,0.1983 0.22445,-0.089 0.26964,-0.3149 0.26964,-0.5503 0,-10e-4 -4.4e-4,-10e-4 -4.4e-4,0 0.0872,-0.8616 0.83704,-1.5344 1.74916,-1.5344 0.91747,0 1.66952,0.6802 1.75159,1.5488 0.003,5e-4 0.004,0 0.006,0 0,0.049 0.003,0.1047 0.0111,0.155 h -0.007 c 0,0.2353 -0.1967,0.4267 -0.43989,0.4267 -0.24253,0 -0.43952,-0.1914 -0.43952,-0.4267 0,-0.4714 -0.39417,-0.8531 -0.88005,-0.8531 -0.48616,0 -0.8799,0.3817 -0.8799,0.8531 v 0.4267 l -0.003,0.01 c 0.01,0.2821 -0.17695,0.5453 -0.4689,0.6294 -0.008,0.01 -0.0157,0.01 -0.0193,0.01 l -0.006,0.01 c -0.20576,0.067 -0.40553,0.1471 -0.5972,0.2413 h -0.0144 c -0.008,0 -0.0153,0.012 -0.019,0.016 -0.28464,0.1494 -0.63173,0.076 -0.82723,-0.1621 l -0.27435,-0.2657 c -0.34392,-0.3333 -0.90114,-0.3333 -1.24441,0 -0.34349,0.3332 -0.34349,0.8735 0,1.2063 l 0.31106,0.3018 0.003,0.014 c 0.20583,0.1949 0.26509,0.5033 0.11982,0.7607 -0.003,0 -0.007,0.01 -0.01,0.014 l 0.003,0.015 c -0.0951,0.1861 -0.17956,0.3797 -0.24838,0.5797 l -0.0151,0.012 c -0.003,0.01 -0.003,0.016 -0.006,0.021 -0.0922,0.3045 -0.39992,0.4886 -0.71402,0.4507 h -0.37212 c -0.48613,0 -0.88014,0.3822 -0.88014,0.8532 0,0.4708 0.39401,0.8531 0.88014,0.8531 h 0.4395 l 0.0151,0.011 c 0.28466,-4e-4 0.54821,0.1766 0.63367,0.4545 8.5e-4,0 8.5e-4,0 10e-4,0.01 l 0.0169,0.014 c 0.0697,0.1995 0.15214,0.3932 0.24881,0.579 l -0.004,0.024 c 0.004,0.01 0.008,0.011 0.0111,0.014 0.15403,0.2758 0.0788,0.6124 -0.16712,0.8019 l -0.26725,0.2595 c -0.34349,0.3328 -0.34349,0.8732 0,1.2064 0.34328,0.3328 0.90051,0.3328 1.24447,0 l 0.31119,-0.3016 0.0151,-0.01 c 0.20062,-0.1941 0.51509,-0.2487 0.77737,-0.1118 0.003,0 0.003,0 0.006,0 h 0.0275 c 0.19191,0.092 0.39168,0.1741 0.59787,0.2408 l 0.0176,0.02 c 0.003,0 0.007,0 0.0111,0.01 0.28739,0.082 0.46979,0.3391 0.46896,0.6162 l 0.003,0.01 v 0.4269 c 0,0.4711 0.39381,0.8531 0.87997,0.8531 0.48586,0 0.88003,-0.382 0.88003,-0.8531 v -0.427 l 0.003,-0.01 c -8e-4,-0.2771 0.1816,-0.5332 0.46897,-0.6161 0.004,0 0.007,0 0.0111,-0.01 l 0.0173,-0.02 c 0.2058,-0.067 0.40539,-0.1471 0.59714,-0.2413 h 0.0282 c 10e-4,0 0.003,0 0.006,0 0.26226,-0.1374 0.57679,-0.082 0.77738,0.1119 l 0.0151,0.01 0.31131,0.3015 c 0.34322,0.3329 0.90049,0.3329 1.24439,0 0.34352,-0.3332 0.34352,-0.8735 0,-1.2063 l -0.26743,-0.2596 c -0.24406,-0.1895 -0.32099,-0.5261 -0.16692,-0.8018 0.003,0 0.007,-0.011 0.0111,-0.016 l -0.006,-0.028 c 0.0951,-0.1858 0.18023,-0.377 0.24832,-0.5761 l 0.0174,-0.014 c 5.5e-4,0 0.001,0 0.001,-0.01 0.0848,-0.2779 0.34871,-0.4545 0.6333,-0.4545 l 0.0151,-0.011 h 0.44005 c 0.48616,0 0.87993,-0.3825 0.87993,-0.8532 0,-0.471 -0.39377,-0.8532 -0.87993,-0.8532 h -0.37235 c -0.31457,0.039 -0.62062,-0.1463 -0.71386,-0.4507 -0.003,-0.01 -0.003,-0.016 -0.006,-0.022 l -0.0151,-0.011 c -0.0694,-0.1996 -0.15218,-0.3933 -0.24867,-0.5787 l 0.003,-0.016 c -0.003,-0.01 -0.007,-0.01 -0.01,-0.014 -0.1437,-0.2573 -0.084,-0.5657 0.11953,-0.7606 l 0.003,-0.014 0.31126,-0.3018 c 0.34348,-0.3329 0.34348,-0.8731 0,-1.2064 -0.16324,-0.1579 -0.40212,-0.2481 -0.61581,-0.2562 -0.24318,0 -0.44017,-0.1908 -0.44017,-0.4265 0,-0.2358 0.19699,-0.4266 0.44017,-0.4266 0.0312,0 0.0612,0 0.0905,0.011 0.41373,0.025 0.83088,0.1909 1.1458,0.4967 0.64635,0.6265 0.67706,1.6146 0.10982,2.2847 0.003,0 0.003,0.01 0.006,0.015 -0.003,0.01 -0.006,0.01 -0.008,0.01 -0.15871,0.1541 -0.30721,0.352 -0.21416,0.5701 0.0914,0.2176 0.3245,0.2614 0.56719,0.2614 z m -3.01704,-2.1471 c -0.24319,0 -0.43989,-0.1912 -0.43989,-0.4267 0,-0.2352 0.1967,-0.4262 0.43989,-0.4262 0.24257,0 0.43955,0.191 0.43955,0.4262 0,0.2355 -0.19698,0.4267 -0.43955,0.4267 z m -4.42894,7.6471 h 0.0331 v 0 z m 0.63094,0.24 v 0 l 0.0254,0.023 -0.0254,-0.023 v 0 0 0 0 0 l 0.0254,0.023 z"
         id="path2-7-5"
         sodipodi:nodetypes="scsccsccccccccscsccscccccccscsccccccccscsccccsssscccccccccccccccccccccsssccccccccccccccccccccccsssccccccccccccccccccccccsssccccccccccccssccccccsssssscccccccccccccccc"
         style="fill:url(#linearGradient1195);fill-opacity:1;stroke-width:0.0270753" />
    </g>
  </g>
</svg>
