<?xml version="1.0" encoding="UTF-8" standalone="no"?>
<svg
   width="32"
   version="1.1"
   height="32"
   viewBox="0 0 32 32"
   id="svg15"
   sodipodi:docname="folder.svg"
   inkscape:version="1.1.1 (3bf5ae0d25, 2021-09-20)"
   xmlns:inkscape="http://www.inkscape.org/namespaces/inkscape"
   xmlns:sodipodi="http://sodipodi.sourceforge.net/DTD/sodipodi-0.dtd"
   xmlns:xlink="http://www.w3.org/1999/xlink"
   xmlns="http://www.w3.org/2000/svg"
   xmlns:svg="http://www.w3.org/2000/svg"
   xmlns:rdf="http://www.w3.org/1999/02/22-rdf-syntax-ns#"
   xmlns:cc="http://creativecommons.org/ns#"
   xmlns:dc="http://purl.org/dc/elements/1.1/">
  <sodipodi:namedview
     pagecolor="#ffffff"
     bordercolor="#666666"
     borderopacity="1"
     objecttolerance="10"
     gridtolerance="10"
     guidetolerance="10"
     inkscape:pageopacity="0"
     inkscape:pageshadow="2"
     inkscape:window-width="1920"
     inkscape:window-height="1007"
     id="namedview17"
     showgrid="true"
     inkscape:zoom="9.8125"
     inkscape:cx="1.4267516"
     inkscape:cy="1.7834395"
     inkscape:window-x="0"
     inkscape:window-y="0"
     inkscape:window-maximized="1"
     inkscape:current-layer="g4"
     inkscape:pagecheckerboard="0">
    <inkscape:grid
       type="xygrid"
       id="grid862" />
  </sodipodi:namedview>
  <defs
     id="defs5455">
    <linearGradient
       inkscape:collect="always"
       xlink:href="#linearGradient2230"
       id="linearGradient2232"
       x1="384.57144"
       y1="515.79797"
       x2="448.57144"
       y2="515.79797"
       gradientUnits="userSpaceOnUse"
       gradientTransform="matrix(1.3883549,0,0,1.3461638,-465.19067,330.12439)" />
    <linearGradient
       inkscape:collect="always"
       id="linearGradient2230">
      <stop
         style="stop-color:#4e99ca;stop-opacity:0.80000001"
         offset="0"
         id="stop2226" />
      <stop
         style="stop-color:#20ffff;stop-opacity:0.80000001"
         offset="0.50507295"
         id="stop2332" />
      <stop
         style="stop-color:#ffaeff;stop-opacity:0.69"
         offset="1"
         id="stop2228" />
    </linearGradient>
  </defs>
  <metadata
     id="metadata5458">
    <rdf:RDF>
      <cc:Work
         rdf:about="">
        <dc:format>image/svg+xml</dc:format>
        <dc:type
           rdf:resource="http://purl.org/dc/dcmitype/StillImage" />
      </cc:Work>
    </rdf:RDF>
  </metadata>
  <g
     inkscape:label="Capa 1"
     inkscape:groupmode="layer"
     id="layer1"
     transform="translate(-384.57143,-515.798)">
    <g
       transform="matrix(0.36013848,0,0,0.37142583,359.81878,151.2823)"
       id="g4">
      <rect
         style="fill:#626f9d;fill-opacity:0.2;stroke:none;stroke-width:1.72356"
         id="center-3"
         width="83.440125"
         height="56.538879"
         x="71.507629"
         y="1000.2419"
         ry="5.3846502"
         rx="5.5626912" />
      <path
         d="m 149.48728,997.56276 h -40.7159 c -0.89989,0 -1.68679,-0.4491 -2.24929,-1.23601 l -3.03702,-4.49402 c -1.0121,-1.57302 -2.6996,-2.35999 -4.498592,-2.35999 H 78.178634 c -5.174245,0 -9.447685,4.26993 -9.447685,9.43811 v 52.47245 c 0,4.3821 3.599602,8.09 8.09819,8.09 h 34.979671 v 0 0 0 0 0 0 0 h 2.69899 v 0 0 0 0 0 0 0 0 0 h 34.97967 c 4.38652,0 8.09819,-3.596 8.09819,-8.09 v -45.7308 c 0,-4.494 -3.59879,-8.08918 -8.09819,-8.08918 z m -34.97948,61.91054 v 0 h -2.69899 v 0 0 z m 40.37826,-8.0897 c 0,2.9211 -2.36237,5.3931 -5.39859,5.3931 H 76.828737 c -2.924153,0 -5.39859,-2.472 -5.39859,-5.3931 l -8e-4,-18.0901 v -10.2251 c 0,-2.9211 2.474451,-5.3931 5.39859,-5.3931 h 40.715873 c 1.79978,0 3.48652,-0.899 4.49861,-2.3599 l 2.92413,-4.4941 c 0.56254,-0.674 1.34946,-1.236 2.24931,-1.236 h 20.92031 c 3.71167,0 6.74889,3.034 6.74889,6.7421 v 14.719 z m -6.74889,-44.3825 h -20.92031 c -1.79978,0 -3.48652,0.8989 -4.49859,2.3599 l -2.92416,4.4941 c -0.44955,0.7869 -1.34945,1.236 -2.24928,1.236 H 76.829223 c -2.024138,0 -3.93364,0.2284 -5.399312,2.2917 v -11.7561 c 0,-2.6923 2.854471,-5.3846 5.631181,-5.3846 h 22.213692 l 0.05956,0.062 4.105506,-0.062 5.44383,0.017 h 40.7159 c 2.92414,0 5.39859,2.4719 5.39859,5.3931 v 4.1571 c -1.79901,-1.7971 -4.16057,-2.8082 -6.86017,-2.8082 z"
         id="path64"
         sodipodi:nodetypes="csccsssssccccccccccccccccccsssccccccccccssccsssccssscccsccscccccccssscc"
         style="fill:url(#linearGradient2232);fill-opacity:1;stroke-width:0.200746" />
    </g>
  </g>
</svg>
