<?xml version="1.0" encoding="UTF-8" standalone="no"?>
<svg
   width="32"
   version="1.1"
   height="32"
   viewBox="0 0 32 32"
   id="svg17"
   sodipodi:docname="folder-videos.svg"
   inkscape:version="1.1.1 (3bf5ae0d25, 2021-09-20)"
   xmlns:inkscape="http://www.inkscape.org/namespaces/inkscape"
   xmlns:sodipodi="http://sodipodi.sourceforge.net/DTD/sodipodi-0.dtd"
   xmlns:xlink="http://www.w3.org/1999/xlink"
   xmlns="http://www.w3.org/2000/svg"
   xmlns:svg="http://www.w3.org/2000/svg"
   xmlns:rdf="http://www.w3.org/1999/02/22-rdf-syntax-ns#"
   xmlns:cc="http://creativecommons.org/ns#"
   xmlns:dc="http://purl.org/dc/elements/1.1/">
  <sodipodi:namedview
     pagecolor="#ffffff"
     bordercolor="#666666"
     borderopacity="1"
     objecttolerance="10"
     gridtolerance="10"
     guidetolerance="10"
     inkscape:pageopacity="0"
     inkscape:pageshadow="2"
     inkscape:window-width="1920"
     inkscape:window-height="1007"
     id="namedview19"
     showgrid="false"
     inkscape:zoom="9.8125"
     inkscape:cx="-23.33758"
     inkscape:cy="-4.0254777"
     inkscape:window-x="0"
     inkscape:window-y="0"
     inkscape:window-maximized="1"
     inkscape:current-layer="layer1"
     inkscape:pagecheckerboard="0" />
  <defs
     id="defs5455">
    <linearGradient
       inkscape:collect="always"
       xlink:href="#linearGradient2230"
       id="linearGradient2232"
       x1="384.57144"
       y1="515.79797"
       x2="448.57144"
       y2="515.79797"
       gradientUnits="userSpaceOnUse"
       gradientTransform="matrix(0.4999999,0,0,0.4999999,192.28576,273.89905)" />
    <linearGradient
       inkscape:collect="always"
       id="linearGradient2230">
      <stop
         style="stop-color:#4e99ca;stop-opacity:0.80000001"
         offset="0"
         id="stop2226" />
      <stop
         style="stop-color:#20ffff;stop-opacity:0.80000001"
         offset="0.50507295"
         id="stop2332" />
      <stop
         style="stop-color:#ffaeff;stop-opacity:0.69"
         offset="1"
         id="stop2228" />
    </linearGradient>
    <linearGradient
       inkscape:collect="always"
       xlink:href="#linearGradient2230"
       id="linearGradient1027"
       gradientUnits="userSpaceOnUse"
       gradientTransform="matrix(0.37499172,0,0,0.37499172,252.21484,343.65308)"
       x1="400.95978"
       y1="519.79797"
       x2="432.96048"
       y2="519.79797" />
  </defs>
  <metadata
     id="metadata5458">
    <rdf:RDF>
      <cc:Work
         rdf:about="">
        <dc:format>image/svg+xml</dc:format>
        <dc:type
           rdf:resource="http://purl.org/dc/dcmitype/StillImage" />
      </cc:Work>
    </rdf:RDF>
  </metadata>
  <g
     inkscape:label="Capa 1"
     inkscape:groupmode="layer"
     id="layer1"
     transform="translate(-384.57143,-515.798)">
    <rect
       style="fill:#626f9d;fill-opacity:0.2;stroke:none;stroke-width:0.630375"
       id="center-3"
       width="30.049994"
       height="20.999996"
       x="385.57144"
       y="522.79797"
       ry="1.9999976"
       rx="2.0033386" />
    <path
       d="m 413.65489,521.80284 h -14.66336 c -0.32409,0 -0.60748,-0.16681 -0.81006,-0.45909 l -1.09375,-1.66919 c -0.36449,-0.58426 -0.97223,-0.87656 -1.62011,-0.87656 h -7.49371 c -1.86344,0 -3.40247,1.58596 -3.40247,3.50555 v 19.48962 c 0,1.62762 1.29635,3.00483 2.91647,3.00483 h 12.59752 v 0 0 0 0 0 0 0 h 0.97201 v 0 0 0 0 0 0 0 0 0 h 12.59752 c 1.57976,0 2.91647,-1.33563 2.91647,-3.00483 v -16.9856 c 0,-1.66919 -1.29606,-3.00452 -2.91647,-3.00452 z M 401.05744,544.798 v 0 h -0.97202 v 0 0 z m 14.54176,-3.00473 c 0,1.08499 -0.85078,2.00314 -1.94425,2.00314 h -26.16719 c -1.05311,0 -1.94425,-0.91815 -1.94425,-2.00314 l -2.9e-4,-6.71912 v -3.79784 c 0,-1.08501 0.89115,-2.00314 1.94424,-2.00314 h 14.66336 c 0.64817,0 1.25563,-0.33391 1.62012,-0.87656 l 1.0531,-1.6692 c 0.20259,-0.25036 0.48599,-0.45909 0.81006,-0.45909 h 7.5342 c 1.33672,0 2.43054,1.12689 2.43054,2.50418 v 5.46703 z m -2.43054,-16.4848 h -7.5342 c -0.64817,0 -1.25563,0.3339 -1.62012,0.87655 l -1.0531,1.6692 c -0.1619,0.29228 -0.48599,0.45908 -0.81005,0.45908 h -14.66326 c -0.72897,0 -1.41665,0.0848 -1.9445,0.8512 v -4.3665 c 0,-1 1.02801,-2 2.02801,-2 h 8 l 0.0215,0.0232 1.47856,-0.0232 1.96053,0.006 h 14.66336 c 1.05309,0 1.94424,0.91814 1.94424,2.00314 v 1.54407 c -0.64789,-0.66751 -1.49838,-1.04304 -2.47061,-1.04304 z"
       id="path64"
       sodipodi:nodetypes="csccsssssccccccccccccccccccsssccccccccccssccsssccssscccsccscccccccssscc"
       style="fill:url(#linearGradient2232);fill-opacity:1;stroke-width:0.0734205" />
    <path
       d="m 405.19636,537.44797 c -0.20709,0 -0.37495,-0.16794 -0.37495,-0.37503 0,-0.20709 0.16786,-0.37496 0.37495,-0.37496 0.2071,0 0.37504,0.16787 0.37504,0.37496 0,0.20709 -0.16794,0.37503 -0.37504,0.37503 z m 2.24998,0 h -0.74999 c -0.20709,0 -0.37497,-0.16794 -0.37497,-0.37503 0,-0.20709 0.16788,-0.37496 0.37497,-0.37496 h 0.9375 c 0.5178,0 0.93744,0.41964 0.93744,0.93744 v 1.87501 c 0,0.5178 -0.41963,0.93744 -0.93744,0.93744 h -1.87501 c -0.51779,0 -0.93744,-0.41964 -0.93744,-0.93744 v -0.93751 c 0,-0.20709 0.16787,-0.37496 0.37496,-0.37496 0.2071,0 0.37503,0.16787 0.37503,0.37496 v 0.74999 c 0,0.20709 0.16788,0.37497 0.37497,0.37497 h 1.49998 c 0.20709,0 0.37497,-0.16788 0.37497,-0.37497 v -1.49998 c 0,-0.20709 -0.16788,-0.37496 -0.37497,-0.37496 z m 5.99986,4.49988 c -0.078,0 -0.15375,-0.008 -0.22707,-0.0229 -0.28214,-0.0425 -0.55313,-0.1661 -0.77854,-0.36858 -0.10014,-0.0672 -0.16621,-0.18145 -0.16621,-0.31149 0,-0.20709 0.16788,-0.37496 0.37497,-0.37496 0.10361,0 0.19681,0.0421 0.26514,0.10988 0.12688,0.12483 0.28711,0.1926 0.45208,0.20928 0.0255,0.005 0.0523,0.009 0.0796,0.009 0.2071,0 0.37504,-0.16788 0.37504,-0.37497 v -4.49997 c 0,-0.20709 -0.16794,-0.37496 -0.37504,-0.37496 v -0.005 c -0.19423,-10e-4 -0.38907,0.0729 -0.53736,0.22121 l -1.87059,1.87051 c -0.15982,0.1599 -0.23015,0.3734 -0.21698,0.58264 v 1.32823 1.25151 c 0,0.82837 -0.67161,1.49999 -1.49998,1.49999 h -5.24985 c -0.82836,10e-6 -1.49998,-0.67161 -1.49998,-1.49997 v -5.24987 c 0,-0.82836 0.67162,-1.49998 1.49998,-1.49998 h 5.24987 c 0.82837,0 1.49998,0.67162 1.49998,1.49998 v 0.37497 c 0,0.20708 -0.1679,0.37502 -0.37497,0.37502 -0.20708,0 -0.37501,-0.16794 -0.37501,-0.37502 v -0.37497 c 0,-0.41418 -0.33581,-0.74999 -0.75,-0.74999 h -5.24987 c -0.41418,0 -0.74999,0.33581 -0.74999,0.74999 v 5.24987 c 0,0.41419 0.33581,0.75 0.74999,0.75 h 5.24987 c 0.41419,0 0.75,-0.33581 0.75,-0.75 v -2.62493 h 0.002 c 0,-0.38598 0.14744,-0.77178 0.44147,-1.06623 l 1.86597,-1.86597 c 0.23662,-0.23602 0.53197,-0.37278 0.83918,-0.41965 0.0732,-0.0149 0.14904,-0.0229 0.22707,-0.0229 0.62131,0 1.12495,0.50368 1.12495,1.12495 v 4.49995 c -2e-5,0.62123 -0.50368,1.12493 -1.12497,1.12493 z m -1.68742,-2.06246 c 0.20709,0 0.37495,0.16794 0.37495,0.37503 0,0.20709 -0.16786,0.37497 -0.37495,0.37497 -0.20709,0 -0.37504,-0.16788 -0.37504,-0.37497 0,-0.20709 0.16795,-0.37503 0.37504,-0.37503 z"
       id="path2-3-7"
       style="fill:url(#linearGradient1027);fill-opacity:1;stroke-width:0.023437" />
  </g>
</svg>
