<?xml version="1.0" encoding="UTF-8" standalone="no"?>
<svg
   width="32"
   version="1.1"
   height="32"
   viewBox="0 0 32 32"
   id="svg15"
   sodipodi:docname="folder-library.svg"
   inkscape:version="1.1.1 (3bf5ae0d25, 2021-09-20)"
   xmlns:inkscape="http://www.inkscape.org/namespaces/inkscape"
   xmlns:sodipodi="http://sodipodi.sourceforge.net/DTD/sodipodi-0.dtd"
   xmlns:xlink="http://www.w3.org/1999/xlink"
   xmlns="http://www.w3.org/2000/svg"
   xmlns:svg="http://www.w3.org/2000/svg"
   xmlns:rdf="http://www.w3.org/1999/02/22-rdf-syntax-ns#"
   xmlns:cc="http://creativecommons.org/ns#"
   xmlns:dc="http://purl.org/dc/elements/1.1/">
  <sodipodi:namedview
     pagecolor="#ffffff"
     bordercolor="#666666"
     borderopacity="1"
     objecttolerance="10"
     gridtolerance="10"
     guidetolerance="10"
     inkscape:pageopacity="0"
     inkscape:pageshadow="2"
     inkscape:window-width="1920"
     inkscape:window-height="1007"
     id="namedview17"
     showgrid="true"
     inkscape:zoom="9.8125"
     inkscape:cx="1.4267516"
     inkscape:cy="1.7834395"
     inkscape:window-x="0"
     inkscape:window-y="0"
     inkscape:window-maximized="1"
     inkscape:current-layer="g4"
     inkscape:pagecheckerboard="0">
    <inkscape:grid
       type="xygrid"
       id="grid862" />
  </sodipodi:namedview>
  <defs
     id="defs5455">
    <linearGradient
       inkscape:collect="always"
       id="linearGradient2230">
      <stop
         style="stop-color:#4e99ca;stop-opacity:0.80000001"
         offset="0"
         id="stop2226" />
      <stop
         style="stop-color:#20ffff;stop-opacity:0.80000001"
         offset="0.50507295"
         id="stop2332" />
      <stop
         style="stop-color:#ffaeff;stop-opacity:0.69"
         offset="1"
         id="stop2228" />
    </linearGradient>
    <linearGradient
       inkscape:collect="always"
       xlink:href="#linearGradient2230"
       id="linearGradient2232-3"
       x1="384.57144"
       y1="515.79797"
       x2="448.57144"
       y2="515.79797"
       gradientUnits="userSpaceOnUse"
       gradientTransform="matrix(1.3883542,0,0,1.3461632,-465.1904,330.12467)" />
    <linearGradient
       inkscape:collect="always"
       xlink:href="#linearGradient2230"
       id="linearGradient1087"
       x1="420.57144"
       y1="525.79797"
       x2="444.57138"
       y2="525.79797"
       gradientUnits="userSpaceOnUse"
       gradientTransform="matrix(1.3883542,0,0,1.3461632,-465.1904,330.12467)" />
  </defs>
  <metadata
     id="metadata5458">
    <rdf:RDF>
      <cc:Work
         rdf:about="">
        <dc:format>image/svg+xml</dc:format>
        <dc:type
           rdf:resource="http://purl.org/dc/dcmitype/StillImage" />
      </cc:Work>
    </rdf:RDF>
  </metadata>
  <g
     inkscape:label="Capa 1"
     inkscape:groupmode="layer"
     id="layer1"
     transform="translate(-384.57143,-515.798)">
    <g
       transform="matrix(0.36013848,0,0,0.37142583,359.81878,151.2823)"
       id="g4">
      <rect
         style="fill:#626f9d;fill-opacity:0.2;stroke:none;stroke-width:1.72356"
         id="center-3-3"
         width="83.440086"
         height="56.538853"
         x="71.507629"
         y="1000.2419"
         ry="5.3846478"
         rx="5.5626884" />
      <path
         d="m 149.48723,997.5627 h -40.71587 c -0.89989,0 -1.68679,-0.44909 -2.24929,-1.236 l -3.03702,-4.49402 c -1.0121,-1.57302 -2.6996,-2.35999 -4.498589,-2.35999 H 78.178628 c -5.174244,0 -9.447681,4.26992 -9.447681,9.4381 v 52.47241 c 0,4.3821 3.5996,8.09 8.098187,8.09 h 34.979656 v 0 0 0 0 0 0 0 h 2.69899 v 0 0 0 0 0 0 0 0 0 h 34.97965 c 4.38652,0 8.09819,-3.5959 8.09819,-8.09 v -45.7308 c 0,-4.494 -3.5988,-8.08913 -8.09819,-8.08913 z m -34.97945,61.9105 v 0 h -2.69899 v 0 0 z m 40.37824,-8.0897 c 0,2.9211 -2.36237,5.3931 -5.39859,5.3931 H 76.828731 c -2.924151,0 -5.398587,-2.472 -5.398587,-5.3931 l -8e-4,-18.0901 v -10.225 c 0,-2.9212 2.47445,-5.3931 5.398587,-5.3931 h 40.715859 c 1.79978,0 3.48652,-0.899 4.4986,-2.36 l 2.92414,-4.494 c 0.56253,-0.6741 1.34945,-1.2361 2.2493,-1.2361 h 20.9203 c 3.71167,0 6.74889,3.034 6.74889,6.7421 v 14.719 z m -6.74889,-44.3825 h -20.9203 c -1.79978,0 -3.48652,0.899 -4.49859,2.36 l -2.92415,4.494 c -0.44955,0.7869 -1.34946,1.236 -2.24929,1.236 H 76.829217 c -2.024137,0 -3.933638,0.2284 -5.399309,2.2917 v -11.7561 c 0,-2.6923 2.85447,-5.3846 5.631178,-5.3846 h 22.213681 l 0.05956,0.062 4.105503,-0.062 5.44383,0.017 h 40.71588 c 2.92414,0 5.39859,2.4719 5.39859,5.3931 v 4.1572 c -1.79901,-1.7972 -4.16057,-2.8083 -6.86017,-2.8083 z"
         id="path64-5"
         sodipodi:nodetypes="csccsssssccccccccccccccccccsssccccccccccssccsssccssscccsccscccccccssscc"
         style="fill:url(#linearGradient2232-3);fill-opacity:1;stroke-width:0.200746" />
      <path
         d="m 135.37348,1054.0885 c -0.28109,0 -0.56365,-0.08 -0.80839,-0.2386 -0.008,-0.01 -1.7979,-1.1126 -4.6634,-1.1126 h -6.84401 c -0.80107,0 -1.44865,-0.6279 -1.44865,-1.4046 l -2.4e-4,-16.9101 c 0,-0.7767 0.64758,-1.4046 1.44865,-1.4046 h 7.47855 c 2.10784,0 3.86668,0.6757 4.83731,1.1462 0.96939,-0.4706 2.72822,-1.1464 4.83755,-1.1464 h 7.47545 c 0.80107,0 1.44865,0.6279 1.44865,1.4046 v 16.9101 c 0,0.7767 -0.64758,1.4046 -1.44865,1.4046 h -6.84525 c -2.87284,0 -4.64328,1.1013 -4.66048,1.1125 -0.2418,0.159 -0.52581,0.2389 -0.8069,0.2389 z m -10.86672,-4.1607 h 5.3966 c 1.61964,0 2.98435,0.2782 4.02166,0.6028 v -13.9247 c -0.70992,-0.3287 -1.94853,-0.7782 -3.38867,-0.7782 h -6.02959 z m 12.31585,-13.322 v 13.9246 c 1.03732,-0.3231 2.39916,-0.6027 4.01882,-0.6027 h 5.3966 v -14.1004 h -6.02668 c -1.44014,0 -2.67732,0.4479 -3.38867,0.7781 z m 13.76005,-3.5877 c -0.2435,0 -0.49113,-0.059 -0.71718,-0.1853 l -14.49331,-8.0309 -14.49329,8.0309 c -0.69533,0.385 -1.5806,0.1503 -1.97616,-0.5225 -0.39703,-0.6728 -0.15498,-1.5312 0.53892,-1.9161 l 15.21165,-8.4282 c 0.44482,-0.2472 0.99391,-0.2472 1.43723,0 l 15.21167,8.4282 c 0.6939,0.385 0.93592,1.243 0.5389,1.9161 -0.26655,0.4536 -0.75475,0.7078 -1.25896,0.7078 z"
         id="path2"
         style="fill:url(#linearGradient1087);fill-opacity:1;stroke-width:0.061138" />
    </g>
  </g>
</svg>
