<?xml version="1.0" encoding="UTF-8" standalone="no"?>
<svg
   width="32"
   version="1.1"
   height="32"
   viewBox="0 0 32 32"
   id="svg15"
   sodipodi:docname="folder-Plasma.svg"
   inkscape:version="1.1.1 (3bf5ae0d25, 2021-09-20)"
   xmlns:inkscape="http://www.inkscape.org/namespaces/inkscape"
   xmlns:sodipodi="http://sodipodi.sourceforge.net/DTD/sodipodi-0.dtd"
   xmlns:xlink="http://www.w3.org/1999/xlink"
   xmlns="http://www.w3.org/2000/svg"
   xmlns:svg="http://www.w3.org/2000/svg"
   xmlns:rdf="http://www.w3.org/1999/02/22-rdf-syntax-ns#"
   xmlns:cc="http://creativecommons.org/ns#"
   xmlns:dc="http://purl.org/dc/elements/1.1/">
  <sodipodi:namedview
     pagecolor="#ffffff"
     bordercolor="#666666"
     borderopacity="1"
     objecttolerance="10"
     gridtolerance="10"
     guidetolerance="10"
     inkscape:pageopacity="0"
     inkscape:pageshadow="2"
     inkscape:window-width="1920"
     inkscape:window-height="1007"
     id="namedview17"
     showgrid="true"
     inkscape:zoom="9.8125"
     inkscape:cx="1.4267516"
     inkscape:cy="1.7834395"
     inkscape:window-x="0"
     inkscape:window-y="0"
     inkscape:window-maximized="1"
     inkscape:current-layer="g4"
     inkscape:pagecheckerboard="0">
    <inkscape:grid
       type="xygrid"
       id="grid862" />
  </sodipodi:namedview>
  <defs
     id="defs5455">
    <linearGradient
       inkscape:collect="always"
       id="linearGradient836-2">
      <stop
         style="stop-color:#ffb380;stop-opacity:1"
         offset="0"
         id="stop832-9" />
      <stop
         style="stop-color:#20ffff;stop-opacity:1"
         offset="0.48615947"
         id="stop1390" />
      <stop
         style="stop-color:#ffaeff;stop-opacity:1"
         offset="1"
         id="stop834-1" />
    </linearGradient>
    <linearGradient
       inkscape:collect="always"
       xlink:href="#linearGradient836-2"
       id="linearGradient2232"
       x1="384.57144"
       y1="515.79797"
       x2="448.57144"
       y2="515.79797"
       gradientUnits="userSpaceOnUse"
       gradientTransform="matrix(1.3883544,0,0,1.3461633,-465.19053,330.12454)" />
    <linearGradient
       inkscape:collect="always"
       xlink:href="#linearGradient836-2"
       id="linearGradient987"
       gradientUnits="userSpaceOnUse"
       x1="404.57144"
       y1="520.79797"
       x2="428.57144"
       y2="520.79797"
       gradientTransform="matrix(1.3883544,0,0,1.3461633,-442.97684,336.85536)" />
  </defs>
  <metadata
     id="metadata5458">
    <rdf:RDF>
      <cc:Work
         rdf:about="">
        <dc:format>image/svg+xml</dc:format>
        <dc:type
           rdf:resource="http://purl.org/dc/dcmitype/StillImage" />
      </cc:Work>
    </rdf:RDF>
  </metadata>
  <g
     inkscape:label="Capa 1"
     inkscape:groupmode="layer"
     id="layer1"
     transform="translate(-384.57143,-515.798)">
    <g
       transform="matrix(0.36013848,0,0,0.37142583,359.81878,151.2823)"
       id="g4">
      <rect
         style="fill:#626f9d;fill-opacity:0.2;stroke:none;stroke-width:1.72356"
         id="center-3"
         width="83.440094"
         height="56.53886"
         x="71.507675"
         y="1000.2421"
         ry="5.3846483"
         rx="5.5626893" />
      <path
         d="m 149.4872,997.56267 h -40.71588 c -0.89989,0 -1.68679,-0.4491 -2.24928,-1.23601 l -3.03703,-4.49402 c -1.0121,-1.57302 -2.6996,-2.35999 -4.498587,-2.35999 H 78.178587 c -5.174244,0 -9.447682,4.26992 -9.447682,9.43829 v 52.47256 c 0,4.3821 3.5996,8.09 8.098188,8.09 h 34.979657 v 0 0 0 0 0 0 0 h 2.69899 v 0 0 0 0 0 0 0 0 0 h 34.97966 c 4.38652,0 8.09818,-3.596 8.09818,-8.09 v -45.7308 c 0,-4.494 -3.59879,-8.08943 -8.09818,-8.08943 z m -34.97946,61.91083 v 0 h -2.69899 v 0 0 z m 40.37825,-8.0898 c 0,2.9212 -2.36237,5.3931 -5.39859,5.3931 H 76.82869 c -2.924152,0 -5.398588,-2.4719 -5.398588,-5.3931 l -8e-4,-18.09 v -10.225 c 0,-2.9212 2.47445,-5.3931 5.398588,-5.3931 h 40.71586 c 1.79978,0 3.48652,-0.899 4.4986,-2.36 l 2.92414,-4.494 c 0.56253,-0.6741 1.34945,-1.2361 2.2493,-1.2361 h 20.92031 c 3.71167,0 6.74889,3.034 6.74889,6.7421 v 14.719 z m -6.74889,-44.3824 h -20.92031 c -1.79978,0 -3.48652,0.899 -4.49859,2.36 l -2.92415,4.494 c -0.44955,0.7869 -1.34945,1.236 -2.24929,1.236 H 76.829176 c -2.024137,0 -3.933638,0.2284 -5.39931,2.2917 v -11.7561 c 0,-2.6923 2.85447,-5.3846 5.631179,-5.3846 h 22.213684 l 0.05956,0.062 4.105501,-0.062 5.44384,0.017 h 40.71588 c 2.92414,0 5.39858,2.4719 5.39858,5.3931 v 4.1571 c -1.799,-1.7971 -4.16056,-2.8082 -6.86016,-2.8082 z"
         id="path64"
         sodipodi:nodetypes="csccsssssccccccccccccccccccsssccccccccccssccsssccssscccsccscccccccssscc"
         style="opacity:0.8;fill:url(#linearGradient2232);fill-opacity:1;stroke-width:0.200746" />
      <path
         d="m 127.04179,1021.7809 a 2.7767088,2.6923267 0 0 0 -2.77671,2.6923 2.7767088,2.6923267 0 0 0 2.77671,2.6924 2.7767088,2.6923267 0 0 0 2.77671,-2.6924 2.7767088,2.6923267 0 0 0 -2.77671,-2.6923 z m 13.88354,0 -4.16506,4.0385 6.94177,6.7308 -6.94177,6.7308 4.16506,4.0385 11.10684,-10.7693 z m -18.74278,12.1155 a 3.4708859,3.3654084 0 0 0 -3.47089,3.3654 3.4708859,3.3654084 0 0 0 3.47089,3.3654 3.4708859,3.3654084 0 0 0 3.47088,-3.3654 3.4708859,3.3654084 0 0 0 -3.47088,-3.3654 z m 9.0243,12.1154 a 4.1650632,4.0384901 0 0 0 -4.16506,4.0385 4.1650632,4.0384901 0 0 0 4.16506,4.0385 4.1650632,4.0384901 0 0 0 4.16507,-4.0385 4.1650632,4.0384901 0 0 0 -4.16507,-4.0385 z"
         class="ColorScheme-Text"
         id="path3-5"
         style="color:#eff0f1;opacity:0.8;fill:url(#linearGradient987);fill-opacity:1;stroke-width:2.73419" />
    </g>
  </g>
</svg>
