<?xml version="1.0" encoding="UTF-8" standalone="no"?>
<svg
   width="32"
   version="1.1"
   height="32"
   viewBox="0 0 32 32"
   id="svg15"
   sodipodi:docname="folder-Github.svg"
   inkscape:version="1.1.1 (3bf5ae0d25, 2021-09-20)"
   xmlns:inkscape="http://www.inkscape.org/namespaces/inkscape"
   xmlns:sodipodi="http://sodipodi.sourceforge.net/DTD/sodipodi-0.dtd"
   xmlns:xlink="http://www.w3.org/1999/xlink"
   xmlns="http://www.w3.org/2000/svg"
   xmlns:svg="http://www.w3.org/2000/svg"
   xmlns:rdf="http://www.w3.org/1999/02/22-rdf-syntax-ns#"
   xmlns:cc="http://creativecommons.org/ns#"
   xmlns:dc="http://purl.org/dc/elements/1.1/">
  <sodipodi:namedview
     pagecolor="#ffffff"
     bordercolor="#666666"
     borderopacity="1"
     objecttolerance="10"
     gridtolerance="10"
     guidetolerance="10"
     inkscape:pageopacity="0"
     inkscape:pageshadow="2"
     inkscape:window-width="1920"
     inkscape:window-height="1007"
     id="namedview17"
     showgrid="true"
     inkscape:zoom="9.8125"
     inkscape:cx="-26.292994"
     inkscape:cy="-10.955414"
     inkscape:window-x="0"
     inkscape:window-y="0"
     inkscape:window-maximized="1"
     inkscape:current-layer="layer1"
     inkscape:document-rotation="0"
     inkscape:pagecheckerboard="0">
    <inkscape:grid
       type="xygrid"
       id="grid847" />
  </sodipodi:namedview>
  <defs
     id="defs5455">
    <linearGradient
       inkscape:collect="always"
       xlink:href="#linearGradient2230"
       id="linearGradient2232"
       x1="384.57144"
       y1="515.79797"
       x2="448.57144"
       y2="515.79797"
       gradientUnits="userSpaceOnUse"
       gradientTransform="matrix(0.4999999,0,0,0.4999999,192.28575,273.89905)" />
    <linearGradient
       inkscape:collect="always"
       id="linearGradient2230">
      <stop
         style="stop-color:#4e99ca;stop-opacity:0.80000001"
         offset="0"
         id="stop2226" />
      <stop
         style="stop-color:#20ffff;stop-opacity:0.80000001"
         offset="0.50507295"
         id="stop2332" />
      <stop
         style="stop-color:#ffaeff;stop-opacity:0.69"
         offset="1"
         id="stop2228" />
    </linearGradient>
    <linearGradient
       inkscape:collect="always"
       xlink:href="#linearGradient2230"
       id="linearGradient1017"
       gradientUnits="userSpaceOnUse"
       x1="404.57144"
       y1="520.79797"
       x2="428.95215"
       y2="520.79797"
       gradientTransform="matrix(0.4999999,0,0,0.4999999,200.03575,276.39905)" />
  </defs>
  <metadata
     id="metadata5458">
    <rdf:RDF>
      <cc:Work
         rdf:about="">
        <dc:format>image/svg+xml</dc:format>
        <dc:type
           rdf:resource="http://purl.org/dc/dcmitype/StillImage" />
      </cc:Work>
    </rdf:RDF>
  </metadata>
  <g
     inkscape:label="Capa 1"
     inkscape:groupmode="layer"
     id="layer1"
     transform="translate(-384.57143,-515.798)">
    <rect
       style="fill:#626f9d;fill-opacity:0.2;stroke:none;stroke-width:0.630375"
       id="center-3"
       width="30.049994"
       height="20.999996"
       x="385.57144"
       y="522.79797"
       ry="1.9999976"
       rx="2.0033386" />
    <path
       d="m 413.65488,521.80284 h -14.66335 c -0.32409,0 -0.60748,-0.16681 -0.81006,-0.45909 l -1.09375,-1.66919 c -0.36449,-0.58426 -0.97223,-0.87656 -1.62011,-0.87656 h -7.49371 c -1.86344,0 -3.40247,1.58596 -3.40247,3.50555 v 19.48962 c 0,1.62762 1.29635,3.00483 2.91647,3.00483 h 12.59752 v 0 0 0 0 0 0 0 h 0.97201 v 0 0 0 0 0 0 0 0 0 h 12.59752 c 1.57976,0 2.91647,-1.33563 2.91647,-3.00483 v -16.9856 c 0,-1.66919 -1.29606,-3.00452 -2.91647,-3.00452 z M 401.05743,544.798 v 0 h -0.97201 v 0 0 z m 14.54176,-3.00473 c 0,1.08499 -0.85078,2.00314 -1.94424,2.00314 h -26.1672 c -1.0531,0 -1.94424,-0.91815 -1.94424,-2.00314 l -2.9e-4,-6.71912 v -3.79784 c 0,-1.08501 0.89115,-2.00314 1.94424,-2.00314 h 14.66336 c 0.64817,0 1.25563,-0.33391 1.62012,-0.87656 l 1.05309,-1.6692 c 0.20259,-0.25036 0.48599,-0.45909 0.81006,-0.45909 h 7.53421 c 1.33671,0 2.43053,1.12689 2.43053,2.50418 v 5.46703 z m -2.43053,-16.4848 h -7.53421 c -0.64817,0 -1.25563,0.3339 -1.62011,0.87655 l -1.0531,1.6692 c -0.1619,0.29228 -0.48599,0.45908 -0.81006,0.45908 h -14.66325 c -0.72897,0 -1.41666,0.0848 -1.9445,0.8512 v -4.3665 c 0,-1 1.028,-2 2.028,-2 h 8.00001 l 0.0215,0.0232 1.47855,-0.0232 1.96053,0.006 h 14.66336 c 1.05309,0 1.94424,0.91814 1.94424,2.00314 v 1.54407 c -0.64789,-0.66751 -1.49838,-1.04304 -2.47061,-1.04304 z"
       id="path64"
       sodipodi:nodetypes="csccsssssccccccccccccccccccsssccccccccccssccsssccssscccsccscccccccssscc"
       style="fill:url(#linearGradient2232);fill-opacity:1;stroke-width:0.0734205" />
    <path
       clip-rule="evenodd"
       d="m 406.89274,539.56033 c 0,-0.21057 0.17038,-0.38095 0.38095,-0.38095 0.21057,0 0.38095,0.17038 0.38095,0.38095 0,0.21057 -0.17038,0.38094 -0.38095,0.38094 -0.21057,0 -0.38095,-0.17037 -0.38095,-0.38094 z m 3.74586,3.00368 c -0.10156,0.029 -0.20647,0.0498 -0.31732,0.0498 -0.63133,0 -1.14285,-0.51151 -1.14285,-1.14284 v -1.38542 c 0,-0.47842 0.30709,-0.88465 0.73326,-1.03422 0.81825,-0.27491 1.55243,-0.96537 1.55243,-1.77675 v -0.76199 c 0,-0.36104 -0.14733,-0.69725 -0.38095,-0.98492 v -0.8603 c 0,-0.42066 -0.34114,-0.56473 -0.76189,-0.32133 l -0.58371,0.33752 c -0.18693,-0.0485 -0.37573,-0.0757 -0.55914,-0.0757 h -1.52379 c -0.18331,0 -0.37221,0.0273 -0.55914,0.0757 l -0.58371,-0.33752 c -0.42066,-0.2434 -0.7619,-0.0993 -0.7619,0.32133 v 0.8603 c -0.23361,0.28767 -0.38094,0.62388 -0.38094,0.98492 v 0.76199 c 0,0.55431 0.34495,1.05209 0.82327,1.40028 l -4.7e-4,5e-4 c 0.0993,0.0681 0.16535,0.18304 0.16535,0.31323 0,0.21019 -0.17085,0.38095 -0.38095,0.38095 -0.10761,0 -0.20414,-0.0451 -0.27333,-0.11681 -0.6433,-0.48733 -1.09577,-1.19194 -1.09577,-1.97838 v -0.762 c 0,-0.44102 0.14314,-0.85658 0.38095,-1.2232 v -1.13412 c 0,-0.84132 0.68201,-1.12946 1.52379,-0.64275 l 0.65383,0.37825 c 0.16305,-0.0277 0.32645,-0.0448 0.48902,-0.0448 h 1.52379 c 0.16257,0 0.3259,0.0171 0.48902,0.0448 l 0.65383,-0.37825 c 0.84187,-0.48669 1.52379,-0.19857 1.52379,0.64275 v 1.13411 c 0.23771,0.36661 0.38095,0.78218 0.38095,1.2232 v 0.76199 c 0,1.13354 -0.93452,2.09858 -2.03643,2.48472 -0.002,10e-4 -0.002,0.004 -0.005,0.005 -0.14324,0.055 -0.24478,0.19345 -0.24478,0.35602 v 1.35117 c 0,0.21057 0.17038,0.38095 0.38094,0.38095 0.0318,0 0.061,-0.009 0.0904,-0.0164 1.95645,-0.78942 3.33813,-2.70235 3.33813,-4.942 0,-2.94556 -2.38762,-5.33328 -5.33328,-5.33328 -2.94556,0 -5.33328,2.38772 -5.33328,5.33328 0,2.31927 1.48222,4.28725 3.55047,5.02127 0.0106,10e-4 0.0203,0.006 0.0314,0.006 0.12564,0 0.22766,-0.10231 0.22766,-0.22766 0,-0.12574 -0.10202,-0.22767 -0.22766,-0.22767 -0.002,0 -0.002,-0.002 -0.005,-0.004 -1.2657,-0.0338 -1.26711,-1.52044 -1.67251,-1.52044 -0.21057,0 -0.38095,-0.17038 -0.38095,-0.38094 0,-0.21057 0.17038,-0.38095 0.38095,-0.38095 0.0402,0 0.10017,0 0.19019,0 0.76237,0 0.65345,1.52379 1.71455,1.52379 0.42067,0 0.7619,0.34114 0.7619,0.7619 v 0.66666 c 3e-5,0.36789 -0.29823,0.66663 -0.66673,0.66663 -0.0402,0 -0.078,-0.008 -0.11635,-0.0156 -2.61679,-0.68419 -4.55017,-3.05766 -4.55017,-5.8892 0,-3.36623 2.72895,-6.09518 6.09518,-6.09518 3.36622,0 6.09517,2.72895 6.09517,6.09518 0,2.58116 -1.60694,4.78204 -3.87311,5.67042 z"
       id="path2-7"
       style="fill:url(#linearGradient1017);fill-opacity:1;stroke-width:0.0238093" />
  </g>
</svg>
