<?xml version="1.0" encoding="UTF-8" standalone="no"?>
<svg
   height="32"
   width="32"
   version="1.1"
   id="svg25"
   sodipodi:docname="folder-games.svg"
   inkscape:version="1.1.1 (3bf5ae0d25, 2021-09-20)"
   xmlns:inkscape="http://www.inkscape.org/namespaces/inkscape"
   xmlns:sodipodi="http://sodipodi.sourceforge.net/DTD/sodipodi-0.dtd"
   xmlns:xlink="http://www.w3.org/1999/xlink"
   xmlns="http://www.w3.org/2000/svg"
   xmlns:svg="http://www.w3.org/2000/svg"
   xmlns:rdf="http://www.w3.org/1999/02/22-rdf-syntax-ns#"
   xmlns:cc="http://creativecommons.org/ns#"
   xmlns:dc="http://purl.org/dc/elements/1.1/">
  <metadata
     id="metadata31">
    <rdf:RDF>
      <cc:Work
         rdf:about="">
        <dc:format>image/svg+xml</dc:format>
        <dc:type
           rdf:resource="http://purl.org/dc/dcmitype/StillImage" />
      </cc:Work>
    </rdf:RDF>
  </metadata>
  <defs
     id="defs29">
    <linearGradient
       inkscape:collect="always"
       xlink:href="#linearGradient959"
       id="linearGradient2232"
       x1="384.57144"
       y1="515.79797"
       x2="448.57144"
       y2="515.79797"
       gradientUnits="userSpaceOnUse"
       gradientTransform="matrix(0.4999999,0,0,0.4999999,-192.28568,-241.89895)" />
    <linearGradient
       inkscape:collect="always"
       id="linearGradient959">
      <stop
         style="stop-color:#abe9b3;stop-opacity:0.80000001"
         offset="0"
         id="stop953" />
      <stop
         style="stop-color:#20ffff;stop-opacity:0.80000001"
         offset="0.50507295"
         id="stop955" />
      <stop
         style="stop-color:#ffaeff;stop-opacity:0.69"
         offset="1"
         id="stop957" />
    </linearGradient>
    <linearGradient
       inkscape:collect="always"
       xlink:href="#linearGradient959"
       id="linearGradient1276"
       gradientUnits="userSpaceOnUse"
       gradientTransform="matrix(0.33200369,0,0,0.33200369,13.385144,10.699905)"
       x1="13.9"
       y1="37"
       x2="50.044182"
       y2="37" />
    <linearGradient
       inkscape:collect="always"
       xlink:href="#linearGradient1282"
       id="linearGradient1284"
       x1="58.0168"
       y1="52.543789"
       x2="59.48027"
       y2="52.543789"
       gradientUnits="userSpaceOnUse"
       gradientTransform="scale(0.4999999)" />
    <linearGradient
       inkscape:collect="always"
       id="linearGradient1282">
      <stop
         style="stop-color:#55ddff;stop-opacity:1;"
         offset="0"
         id="stop1278" />
      <stop
         style="stop-color:#55ddff;stop-opacity:0;"
         offset="1"
         id="stop1280" />
    </linearGradient>
  </defs>
  <sodipodi:namedview
     pagecolor="#ffffff"
     bordercolor="#666666"
     borderopacity="1"
     objecttolerance="10"
     gridtolerance="10"
     guidetolerance="10"
     inkscape:pageopacity="0"
     inkscape:pageshadow="2"
     inkscape:window-width="1920"
     inkscape:window-height="1007"
     id="namedview27"
     showgrid="false"
     inkscape:zoom="9.8125"
     inkscape:cx="-8.0509554"
     inkscape:cy="19.312102"
     inkscape:window-x="0"
     inkscape:window-y="0"
     inkscape:window-maximized="1"
     inkscape:current-layer="svg25"
     inkscape:pagecheckerboard="0" />
  <linearGradient
     id="a"
     gradientUnits="userSpaceOnUse"
     x2="0"
     y1="29"
     y2="8">
    <stop
       offset="0"
       stop-color="#3daee9"
       id="stop2" />
    <stop
       offset="1"
       stop-color="#6cc1ef"
       id="stop4" />
  </linearGradient>
  <rect
     style="fill:#626f9d;fill-opacity:0.2;stroke:none;stroke-width:0.630375"
     id="center-3"
     width="30.049994"
     height="20.999996"
     x="1.0000101"
     y="6.999999"
     ry="1.9999976"
     rx="2.0033386" />
  <path
     d="M 29.083454,6.004839 H 14.420097 c -0.324085,0 -0.60748,-0.166805 -0.810055,-0.459084 L 12.516293,3.87656 C 12.151798,3.2923 11.544063,3 10.896178,3 H 3.402474 C 1.53903,3 0,4.58596 0,6.505554 V 25.99517 C 0,27.62279 1.296355,29 2.916469,29 h 12.597523 v 0 0 0 0 0 0 0 h 0.97201 v 0 0 0 0 0 0 0 0 0 h 12.597522 c 1.579755,0 2.91647,-1.33563 2.91647,-3.00483 V 9.009574 c 0,-1.669195 -1.296065,-3.004525 -2.91647,-3.004525 z M 16.486002,29 v 0 h -0.97201 v 0 0 z m 14.541762,-3.004735 c 0,1.084995 -0.85078,2.00314 -1.94424,2.00314 h -26.1672 c -1.053099,0 -1.944239,-0.918145 -1.944239,-2.00314 l -2.9e-4,-6.719118 v -3.79784 c 0,-1.085004 0.891145,-2.003139 1.944239,-2.003139 h 14.663353 c 0.648169,0 1.255629,-0.33391 1.620119,-0.87656 l 1.053095,-1.669195 c 0.20259,-0.250359 0.48599,-0.459089 0.81006,-0.459089 h 7.534209 c 1.336714,0 2.430534,1.126889 2.430534,2.504174 v 5.467034 z M 28.59723,9.510469 h -7.534209 c -0.64817,0 -1.25563,0.333905 -1.620115,0.876555 l -1.0531,1.669199 c -0.1619,0.292275 -0.485989,0.45908 -0.810054,0.45908 H 2.916499 c -0.728969,0 -1.416654,0.08483 -1.944499,0.851195 V 8.999999 c 0,-1 1.028005,-2 2.028004,-2 h 8.000004 l 0.02145,0.0232 1.47855,-0.0232 1.960534,0.0062 h 14.663357 c 1.053095,0 1.94424,0.91814 1.94424,2.003145 v 1.54407 C 30.420249,9.885899 29.569759,9.510369 28.59753,9.510369 Z"
     id="path64"
     sodipodi:nodetypes="csccsssssccccccccccccccccccsssccccccccccssccsssccssscccsccscccccccssscc"
     style="fill:url(#linearGradient2232);fill-opacity:1;stroke-width:0.0734205" />
  <path
     d="m 29.908059,25.222178 c -0.07123,0.248839 -0.258337,0.392946 -0.507177,0.321719 -0.248932,-0.07114 -0.247881,-0.330596 -0.176746,-0.579528 0.08002,-0.279601 0.07344,-0.574128 -0.01847,-0.851621 l -1.05541,-3.183558 c -0.196563,-0.593166 -0.893347,-1.209168 -1.518284,-1.209168 h -5.408159 c -0.62503,0 -1.176754,0.616002 -1.373409,1.209168 l -1.091628,3.183558 c -0.121952,0.368041 -0.02076,0.836015 0.153567,1.186023 0.174035,0.349725 0.652387,0.753921 1.018141,0.875231 0.364656,0.120847 0.900722,0.01741 1.246607,-0.15919 0.346525,-0.176971 0.604862,-0.622253 0.727269,-0.991391 l 0.06918,-0.209386 c 0.195558,-0.589872 0.599792,-0.841589 1.221253,-0.841589 h 1.610954 c 0.621554,0 1.025465,0.251717 1.221015,0.841589 l 0.06954,0.209386 c 0.196928,0.592958 0.906162,1.224727 1.518098,1.224639 0.117463,0 0.235197,-0.01473 0.349817,-0.04346 0.251134,-0.06281 0.505651,-0.05509 0.568543,0.195942 0.0629,0.251134 -0.08972,0.433327 -0.340848,0.496226 -0.189053,0.04734 -0.383329,0.07132 -0.577419,0.07132 -0.496952,0 -0.975771,-0.156005 -1.384735,-0.451265 C 25.81603,26.218091 25.512264,25.803724 25.3514,25.318406 L 25.282,25.10902 c -0.06821,-0.205717 -0.259547,-0.343868 -0.476164,-0.343868 h -1.610954 c -0.216704,0 -0.40805,0.138151 -0.476257,0.343782 l -0.0694,0.209472 c -0.20041,0.604519 -0.6232,1.096976 -1.190645,1.386744 -0.571008,0.291591 -1.218379,0.341766 -1.823084,0.141264 -0.604514,-0.200409 -1.095144,-0.627409 -1.381339,-1.202357 -0.285364,-0.573211 -0.332148,-1.221769 -0.131651,-1.826289 l 1.055326,-3.183554 c 0.324006,-0.977508 1.233582,-1.634212 2.263363,-1.634212 h 5.118242 c 1.029784,0 1.939445,0.656704 2.263451,1.634215 l 1.055328,3.183554 c 0.151517,0.457213 0.161861,0.942802 0.02982,1.404412 z m -3.681418,-4.534777 c -0.258819,0 -0.468654,0.209837 -0.468654,0.468747 0,0.258821 0.209835,0.468657 0.468654,0.468657 0.258914,0 0.468748,-0.209836 0.468748,-0.468657 0,-0.25891 -0.209834,-0.468747 -0.468748,-0.468747 z m 0,2.812307 c 0.258914,0 0.468748,-0.209835 0.468748,-0.468747 0,-0.258821 -0.209834,-0.468655 -0.468748,-0.468655 -0.258819,0 -0.468654,0.209834 -0.468654,0.468655 0,0.25882 0.209835,0.468747 0.468654,0.468747 z m -0.937402,-1.874903 c -0.25882,0 -0.468662,0.20984 -0.468662,0.468753 0,0.258906 0.209842,0.468748 0.468662,0.468748 0.258906,0 0.468748,-0.209842 0.468748,-0.468748 0,-0.258913 -0.209842,-0.468753 -0.468748,-0.468753 z m 1.874898,0.937501 c 0.25882,0 0.468662,-0.209842 0.468662,-0.468748 0,-0.258913 -0.209842,-0.468753 -0.468662,-0.468753 -0.258906,0 -0.468748,0.20984 -0.468748,0.468753 0,0.258813 0.209842,0.468748 0.468748,0.468748 z m -5.390244,0.937402 c 0.258912,0 0.468752,-0.209835 0.468752,-0.468747 v -0.468655 h 0.468657 c 0.258909,0 0.468748,-0.209842 0.468748,-0.468748 0,-0.258913 -0.209839,-0.468753 -0.468748,-0.468753 h -0.468657 v -0.468657 c 0,-0.25891 -0.20984,-0.468747 -0.468752,-0.468747 -0.258814,0 -0.468655,0.209837 -0.468655,0.468747 v 0.468657 H 20.83649 c -0.25882,0 -0.468747,0.20984 -0.468747,0.468753 0,0.258906 0.209927,0.468748 0.468747,0.468748 h 0.468748 v 0.468655 c 0,0.25882 0.209841,0.468747 0.468655,0.468747 z"
     id="path2-36-7"
     style="fill:url(#linearGradient1276);fill-opacity:1;stroke-width:0.0234377"
     sodipodi:nodetypes="cccccsscccccccsscsccccscccssccsccccssccccsssssssssssssssssssssscssscssscssscss" />
  <circle
     cx="29.374264"
     cy="26.271889"
     id="circle4-5-5"
     style="fill:url(#linearGradient1284);fill-opacity:1;stroke-width:0.0243912"
     r="0.36586779" />
</svg>
