<?xml version="1.0" encoding="UTF-8" standalone="no"?>
<svg
   width="32"
   version="1.1"
   height="32"
   viewBox="0 0 32 32"
   id="svg15"
   sodipodi:docname="folder-comic.svg"
   inkscape:version="1.1.1 (3bf5ae0d25, 2021-09-20)"
   xmlns:inkscape="http://www.inkscape.org/namespaces/inkscape"
   xmlns:sodipodi="http://sodipodi.sourceforge.net/DTD/sodipodi-0.dtd"
   xmlns:xlink="http://www.w3.org/1999/xlink"
   xmlns="http://www.w3.org/2000/svg"
   xmlns:svg="http://www.w3.org/2000/svg"
   xmlns:rdf="http://www.w3.org/1999/02/22-rdf-syntax-ns#"
   xmlns:cc="http://creativecommons.org/ns#"
   xmlns:dc="http://purl.org/dc/elements/1.1/">
  <sodipodi:namedview
     pagecolor="#ffffff"
     bordercolor="#666666"
     borderopacity="1"
     objecttolerance="10"
     gridtolerance="10"
     guidetolerance="10"
     inkscape:pageopacity="0"
     inkscape:pageshadow="2"
     inkscape:window-width="1920"
     inkscape:window-height="1007"
     id="namedview17"
     showgrid="true"
     inkscape:zoom="9.8125"
     inkscape:cx="-6.522293"
     inkscape:cy="1.7834395"
     inkscape:window-x="0"
     inkscape:window-y="0"
     inkscape:window-maximized="1"
     inkscape:current-layer="g4"
     inkscape:pagecheckerboard="0">
    <inkscape:grid
       type="xygrid"
       id="grid862" />
  </sodipodi:namedview>
  <defs
     id="defs5455">
    <linearGradient
       inkscape:collect="always"
       id="linearGradient2230">
      <stop
         style="stop-color:#4e99ca;stop-opacity:0.80000001"
         offset="0"
         id="stop2226" />
      <stop
         style="stop-color:#20ffff;stop-opacity:0.80000001"
         offset="0.50507295"
         id="stop2332" />
      <stop
         style="stop-color:#ffaeff;stop-opacity:0.69"
         offset="1"
         id="stop2228" />
    </linearGradient>
    <linearGradient
       inkscape:collect="always"
       xlink:href="#linearGradient2230"
       id="linearGradient2232-3"
       x1="384.57144"
       y1="515.79797"
       x2="448.57144"
       y2="515.79797"
       gradientUnits="userSpaceOnUse"
       gradientTransform="matrix(1.3883548,0,0,1.3461637,-465.19069,330.12434)" />
    <linearGradient
       inkscape:collect="always"
       xlink:href="#linearGradient2230"
       id="linearGradient897"
       x1="420.57144"
       y1="527.29803"
       x2="444.57117"
       y2="527.29803"
       gradientUnits="userSpaceOnUse"
       gradientTransform="matrix(1.3883548,0,0,1.3461637,-465.19069,330.12434)" />
  </defs>
  <metadata
     id="metadata5458">
    <rdf:RDF>
      <cc:Work
         rdf:about="">
        <dc:format>image/svg+xml</dc:format>
        <dc:type
           rdf:resource="http://purl.org/dc/dcmitype/StillImage" />
      </cc:Work>
    </rdf:RDF>
  </metadata>
  <g
     inkscape:label="Capa 1"
     inkscape:groupmode="layer"
     id="layer1"
     transform="translate(-384.57143,-515.798)">
    <g
       transform="matrix(0.36013848,0,0,0.37142583,359.81878,151.2823)"
       id="g4">
      <rect
         style="fill:#626f9d;fill-opacity:0.2;stroke:none;stroke-width:1.72356"
         id="center-3-3"
         width="83.440117"
         height="56.538876"
         x="71.507576"
         y="1000.2419"
         ry="5.3846498"
         rx="5.5626907" />
      <path
         d="m 149.48722,997.56266 h -40.71589 c -0.89989,0 -1.6868,-0.44909 -2.24929,-1.236 l -3.03703,-4.49402 c -1.0121,-1.57302 -2.6996,-2.35999 -4.498587,-2.35999 H 78.178581 c -5.174246,0 -9.447685,4.26992 -9.447685,9.4381 v 52.47245 c 0,4.3821 3.599601,8.09 8.09819,8.09 h 34.979664 v 0 0 0 0 0 0 0 h 2.69899 v 0 0 0 0 0 0 0 0 0 h 34.97967 c 4.38652,0 8.09819,-3.596 8.09819,-8.09 v -45.7308 c 0,-4.494 -3.59879,-8.08917 -8.09819,-8.08917 z m -34.97948,61.91054 v 0 h -2.69899 v 0 0 z m 40.37826,-8.0898 c 0,2.9212 -2.36237,5.3932 -5.39859,5.3932 H 76.828684 c -2.924153,0 -5.39859,-2.472 -5.39859,-5.3932 l -8e-4,-18.09 v -10.2251 c 0,-2.9211 2.474451,-5.3931 5.39859,-5.3931 h 40.715876 c 1.79978,0 3.48652,-0.899 4.4986,-2.36 l 2.92414,-4.494 c 0.56254,-0.674 1.34946,-1.236 2.2493,-1.236 h 20.92031 c 3.71167,0 6.74889,3.034 6.74889,6.7421 v 14.719 z m -6.74889,-44.3824 H 127.2168 c -1.79978,0 -3.48652,0.8989 -4.49859,2.3599 l -2.92415,4.4941 c -0.44955,0.7869 -1.34946,1.236 -2.24929,1.236 h -40.7156 c -2.024138,0 -3.93364,0.2284 -5.399312,2.2917 v -11.7561 c 0,-2.6923 2.854471,-5.3846 5.631181,-5.3846 h 22.21369 l 0.05956,0.062 4.105501,-0.062 5.44384,0.017 h 40.71589 c 2.92414,0 5.39859,2.4719 5.39859,5.3931 v 4.1571 c -1.799,-1.7972 -4.16057,-2.8082 -6.86017,-2.8082 z"
         id="path64-5"
         sodipodi:nodetypes="csccsssssccccccccccccccccccsssccccccccccssccsssccssscccsccscccccccssscc"
         style="fill:url(#linearGradient2232-3);fill-opacity:1;stroke-width:0.200746" />
      <path
         fill-rule="evenodd"
         clip-rule="evenodd"
         d="m 136.41264,1039.9542 h -8.33055 c -0.57424,0 -1.04018,-0.453 -1.04018,-1.0096 0,-0.558 0.46594,-1.0101 1.04018,-1.0101 h 8.33055 c 0.57502,0 1.04125,0.4521 1.04125,1.0101 0,0.5566 -0.46623,1.0096 -1.04125,1.0096 z m 5.20681,-1.0096 c 0,0.5566 -0.46725,1.0096 -1.04175,1.0096 -0.57511,0 -1.04132,-0.453 -1.04132,-1.0096 0,-0.558 0.46621,-1.0101 1.04132,-1.0101 0.5745,0 1.04175,0.4521 1.04175,1.0101 z m -10.41309,-4.0394 c 0,-0.5565 0.46596,-1.0096 1.0415,-1.0096 h 10.4118 c 0.57555,0 1.04177,0.4531 1.04177,1.0096 0,0.5581 -0.46622,1.0101 -1.04177,1.0101 h -10.4118 c -0.57554,0 -1.0415,-0.452 -1.0415,-1.0101 z m 16.66005,13.1248 h -9.37128 c -0.70264,0 -1.35036,0.2248 -1.87203,0.6039 l -6.57292,4.7798 c -0.0139,0.01 -0.0211,0.014 -0.0365,0.026 -0.53105,0.4058 -1.20141,0.6488 -1.93152,0.6488 -1.72507,0 -3.12301,-1.3566 -3.12301,-3.0293 v -2.0197 c 0,-0.5566 -0.46622,-1.0096 -1.0415,-1.0096 h -1.04151 c -2.3003,0 -4.16446,-1.8077 -4.16446,-4.0379 v -13.1249 c 0,-0.5575 0.46623,-1.0096 1.0415,-1.0096 0.57426,0 1.04022,0.4521 1.04022,1.0096 v 12.6205 c 0,1.3932 1.16632,2.5241 2.60415,2.5241 h 1.04026 c 1.43784,0 2.60417,1.1293 2.60417,2.5235 v 2.524 c 0,0.558 0.46594,1.0096 1.04018,1.0096 0.22096,0 0.42537,-0.066 0.59312,-0.18 0.003,-10e-4 0.003,-10e-4 0.004,-0 l 6.62728,-4.8198 c 0.001,-10e-4 0.001,0 0.003,-10e-4 0.87992,-0.6605 1.98571,-1.0544 3.18607,-1.0544 h 8.85065 c 1.43784,0 2.60265,-1.1309 2.60265,-2.524 v -13.1258 c 0,-1.3931 -1.16481,-2.524 -2.60265,-2.524 h -19.26374 c -0.57423,0 -1.04018,-0.4515 -1.04018,-1.0096 0,-0.5565 0.46595,-1.0086 1.04018,-1.0086 h 19.78432 c 2.30069,0 4.16504,1.8073 4.16504,4.0379 v 14.1344 c 0,2.2303 -1.86435,4.038 -4.16504,4.038 z m -23.94877,-20.192 c -0.57528,0 -1.0415,-0.4516 -1.0415,-1.0096 0,-0.5566 0.46622,-1.0086 1.0415,-1.0086 0.57522,0 1.04144,0.452 1.04144,1.0086 0,0.558 -0.46622,1.0096 -1.04144,1.0096 z"
         id="path2"
         style="fill:url(#linearGradient897);fill-opacity:1;stroke-width:0.0640815" />
    </g>
  </g>
</svg>
