<?xml version="1.0" encoding="UTF-8" standalone="no"?>
<svg
   width="32"
   version="1.1"
   height="32"
   viewBox="0 0 32 32"
   id="svg15"
   sodipodi:docname="folder-table.svg"
   inkscape:version="1.1.1 (3bf5ae0d25, 2021-09-20)"
   xmlns:inkscape="http://www.inkscape.org/namespaces/inkscape"
   xmlns:sodipodi="http://sodipodi.sourceforge.net/DTD/sodipodi-0.dtd"
   xmlns:xlink="http://www.w3.org/1999/xlink"
   xmlns="http://www.w3.org/2000/svg"
   xmlns:svg="http://www.w3.org/2000/svg"
   xmlns:rdf="http://www.w3.org/1999/02/22-rdf-syntax-ns#"
   xmlns:cc="http://creativecommons.org/ns#"
   xmlns:dc="http://purl.org/dc/elements/1.1/">
  <sodipodi:namedview
     pagecolor="#ffffff"
     bordercolor="#666666"
     borderopacity="1"
     objecttolerance="10"
     gridtolerance="10"
     guidetolerance="10"
     inkscape:pageopacity="0"
     inkscape:pageshadow="2"
     inkscape:window-width="1920"
     inkscape:window-height="1007"
     id="namedview17"
     showgrid="true"
     inkscape:zoom="9.8125"
     inkscape:cx="1.4267516"
     inkscape:cy="1.6815287"
     inkscape:window-x="0"
     inkscape:window-y="0"
     inkscape:window-maximized="1"
     inkscape:current-layer="g4"
     inkscape:pagecheckerboard="0">
    <inkscape:grid
       type="xygrid"
       id="grid862" />
  </sodipodi:namedview>
  <defs
     id="defs5455">
    <linearGradient
       inkscape:collect="always"
       xlink:href="#linearGradient2230"
       id="linearGradient2232"
       x1="384.57144"
       y1="515.79797"
       x2="448.57144"
       y2="515.79797"
       gradientUnits="userSpaceOnUse"
       gradientTransform="matrix(1.3883545,0,0,1.3461634,-465.19052,330.12448)" />
    <linearGradient
       inkscape:collect="always"
       id="linearGradient2230">
      <stop
         style="stop-color:#4e99ca;stop-opacity:0.80000001"
         offset="0"
         id="stop2226" />
      <stop
         style="stop-color:#20ffff;stop-opacity:0.80000001"
         offset="0.50507295"
         id="stop2332" />
      <stop
         style="stop-color:#ffaeff;stop-opacity:0.69"
         offset="1"
         id="stop2228" />
    </linearGradient>
    <linearGradient
       inkscape:collect="always"
       xlink:href="#linearGradient2230"
       id="linearGradient1063"
       gradientUnits="userSpaceOnUse"
       gradientTransform="matrix(1.3883545,0,0,1.3461634,-443.22397,336.85095)"
       x1="404.74942"
       y1="520.80121"
       x2="428.74942"
       y2="520.80121" />
    <linearGradient
       inkscape:collect="always"
       xlink:href="#linearGradient2230"
       id="linearGradient1065"
       gradientUnits="userSpaceOnUse"
       gradientTransform="matrix(1.3883545,0,0,1.3461634,-443.22397,336.85095)"
       x1="408.76718"
       y1="520.82721"
       x2="424.86771"
       y2="520.82721" />
  </defs>
  <metadata
     id="metadata5458">
    <rdf:RDF>
      <cc:Work
         rdf:about="">
        <dc:format>image/svg+xml</dc:format>
        <dc:type
           rdf:resource="http://purl.org/dc/dcmitype/StillImage" />
      </cc:Work>
    </rdf:RDF>
  </metadata>
  <g
     inkscape:label="Capa 1"
     inkscape:groupmode="layer"
     id="layer1"
     transform="translate(-384.57143,-515.798)">
    <g
       transform="matrix(0.36013848,0,0,0.37142583,359.81878,151.2823)"
       id="g4">
      <rect
         style="fill:#626f9d;fill-opacity:0.2;stroke:none;stroke-width:1.72356"
         id="center-3"
         width="83.440102"
         height="56.538864"
         x="71.507591"
         y="1000.2419"
         ry="5.3846488"
         rx="5.5626898" />
      <path
         d="m 149.48723,997.56267 h -40.71589 c -0.89989,0 -1.68679,-0.4491 -2.24928,-1.23601 l -3.03703,-4.49402 c -1.0121,-1.57302 -2.6996,-2.35999 -4.498586,-2.35999 H 78.178606 c -5.174244,0 -9.447683,4.26992 -9.447683,9.43821 v 52.47254 c 0,4.3821 3.599601,8.09 8.098189,8.09 h 34.979658 v 0 0 0 0 0 0 0 h 2.69899 v 0 0 0 0 0 0 0 0 0 h 34.97966 c 4.38652,0 8.09819,-3.596 8.09819,-8.09 v -45.7308 c 0,-4.494 -3.5988,-8.08933 -8.09819,-8.08933 z m -34.97947,61.91073 v 0 h -2.69899 v 0 0 z m 40.37825,-8.0898 c 0,2.9212 -2.36237,5.3932 -5.39859,5.3932 H 76.828709 c -2.924152,0 -5.398589,-2.472 -5.398589,-5.3932 l -8e-4,-18.09 v -10.225 c 0,-2.9212 2.474451,-5.3931 5.398589,-5.3931 h 40.715871 c 1.79978,0 3.48652,-0.899 4.4986,-2.36 l 2.92414,-4.494 c 0.56253,-0.6741 1.34945,-1.2361 2.2493,-1.2361 h 20.9203 c 3.71167,0 6.74889,3.034 6.74889,6.7421 v 14.719 z m -6.74889,-44.3824 h -20.92031 c -1.79978,0 -3.48652,0.899 -4.49859,2.36 l -2.92415,4.494 c -0.44955,0.7869 -1.34945,1.236 -2.24928,1.236 H 76.829195 c -2.024138,0 -3.933639,0.2284 -5.399311,2.2917 v -11.7561 c 0,-2.6923 2.854471,-5.3846 5.63118,-5.3846 h 22.213685 l 0.05956,0.062 4.105501,-0.062 5.44384,0.017 h 40.71588 c 2.92414,0 5.39859,2.4719 5.39859,5.3931 v 4.1571 c -1.799,-1.7971 -4.16057,-2.8082 -6.86017,-2.8082 z"
         id="path64"
         sodipodi:nodetypes="csccsssssccccccccccccccccccsssccccccccccssccsssccssscccsccscccccccssscc"
         style="fill:url(#linearGradient2232);fill-opacity:1;stroke-width:0.200746" />
      <path
         fill-rule="evenodd"
         clip-rule="evenodd"
         d="m 147.27333,1054.0887 h -17.85146 c -0.65629,0 -1.18882,-0.5178 -1.18882,-1.1539 0,-0.6377 0.53253,-1.1544 1.18882,-1.1544 h 17.85146 c 1.31438,0 2.38004,-1.0333 2.38004,-2.3077 v -23.0771 c 0,-1.2744 -1.06566,-2.3071 -2.38004,-2.3071 h -23.80095 c -1.31408,0 -2.38034,1.0327 -2.38034,2.3071 v 21.9232 c 0,0.6378 -0.53223,1.1539 -1.19002,1.1539 -0.65658,0 -1.19031,-0.5161 -1.19031,-1.1539 v -21.9232 c 0,-2.5488 2.13221,-4.6148 4.76067,-4.6148 h 23.80095 c 2.62815,0 4.75889,2.066 4.75889,4.6148 v 23.0771 c 0,2.5489 -2.13074,4.616 -4.75889,4.616 z m -22.61065,-2.3083 c 0.65631,0 1.19003,0.5167 1.19003,1.1544 0,0.6361 -0.53372,1.1539 -1.19003,1.1539 -0.65777,0 -1.1903,-0.5178 -1.1903,-1.1539 0,-0.6377 0.53253,-1.1544 1.1903,-1.1544 z"
         id="path2-5"
         style="fill:url(#linearGradient1063);fill-opacity:1;stroke-width:0.0732375" />
      <path
         fill-rule="evenodd"
         clip-rule="evenodd"
         d="m 143.84862,1048.8057 h -4.88952 c -0.38539,0 -0.69886,-0.3036 -0.69886,-0.6773 0,-0.3744 0.31347,-0.6773 0.69886,-0.6773 h 4.54026 c 0.96456,0 1.74629,-0.7579 1.74629,-1.6932 v -4.4023 c 0,-0.3744 0.31241,-0.6779 0.69851,-0.6779 0.3861,0 0.69851,0.3035 0.69851,0.6779 v 4.741 c 0,1.4961 -1.25104,2.7091 -2.79405,2.7091 z m -18.85977,-14.8999 c 0.38609,0 0.69868,0.3029 0.69868,0.6772 0,0.3734 -0.31259,0.6766 -0.69868,0.6766 -0.38593,0 -0.69852,-0.3032 -0.69852,-0.6766 0,-0.3743 0.31259,-0.6772 0.69852,-0.6772 z m 21.62788,3.0619 c -0.008,0.073 -0.0209,0.1452 -0.037,0.2157 -0.007,0.034 -0.0179,0.067 -0.0266,0.1004 -0.0159,0.059 -0.0314,0.1184 -0.0512,0.1759 -0.008,0.025 -0.0185,0.05 -0.0281,0.075 -0.0252,0.066 -0.0505,0.1317 -0.0811,0.1948 -0.007,0.017 -0.0164,0.032 -0.0243,0.049 -0.034,0.069 -0.0707,0.1372 -0.11009,0.2024 -0.008,0.014 -0.017,0.027 -0.0251,0.04 -0.0429,0.067 -0.0883,0.1335 -0.13703,0.1976 -0.007,0.01 -0.0147,0.019 -0.0208,0.027 -0.0529,0.067 -0.10816,0.1323 -0.16683,0.1938 -0.004,0.01 -0.01,0.012 -0.0154,0.016 -0.0634,0.067 -0.13106,0.1301 -0.20121,0.1905 -0.49251,0.42 -1.13644,0.6773 -1.84382,0.6773 v 0.034 c -0.11287,-0.022 -0.2299,-0.034 -0.34926,-0.034 h -4.88944 c -0.96452,0 -1.74625,0.7579 -1.74625,1.6931 v 4.741 c 0,0.1156 0.0139,0.2295 0.0358,0.3386 h -0.0358 c 0,0.6859 -0.26499,1.3102 -0.69851,1.7878 -0.0622,0.068 -0.12759,0.1336 -0.19645,0.1951 -0.004,0 -0.01,0.01 -0.0164,0.015 -0.0639,0.057 -0.13134,0.1105 -0.20021,0.1613 -0.008,0.01 -0.0191,0.014 -0.0279,0.021 -0.0662,0.047 -0.13398,0.091 -0.2038,0.133 -0.0144,0.01 -0.0275,0.017 -0.0415,0.024 -0.0673,0.038 -0.13786,0.073 -0.2089,0.1065 -0.0175,0.01 -0.0334,0.017 -0.0505,0.024 -0.0651,0.029 -0.13245,0.054 -0.20073,0.079 -0.0259,0.01 -0.0518,0.019 -0.0778,0.027 -0.0594,0.019 -0.12079,0.034 -0.18145,0.05 -0.035,0.01 -0.0682,0.018 -0.10371,0.026 -0.0723,0.015 -0.14737,0.026 -0.2222,0.035 -0.0209,0 -0.04,0.01 -0.0614,0.01 -0.0994,0.012 -0.20087,0.017 -0.30303,0.017 h -6.98458 c -1.54313,-10e-5 -2.79434,-1.2131 -2.79434,-2.7092 v -6.7728 c 0,-1.4963 1.25121,-2.7093 2.79434,-2.7093 h 0.69869 4.53975 c 0.96474,0 1.74629,-0.758 1.74629,-1.6932 v -4.741 c 0,-0.9352 -0.78155,-1.6931 -1.74629,-1.6931 h -4.88935 c -0.96451,0 -1.7461,0.7579 -1.7461,1.6931 v 1.6933 c 0,0.374 -0.31258,0.6772 -0.69869,0.6772 -0.38593,0 -0.69851,-0.3032 -0.69851,-0.6772 v -2.0316 c 5e-5,-1.4964 1.25126,-2.7094 2.79439,-2.7094 h 5.58822 c 0.10218,0 0.20227,0 0.3015,0.016 0.023,0 0.0451,0.01 0.0682,0.012 0.0734,0.01 0.14597,0.02 0.21775,0.035 0.0333,0.01 0.0646,0.017 0.0977,0.024 0.063,0.015 0.12523,0.03 0.18606,0.05 0.025,0.01 0.0503,0.018 0.0757,0.027 0.068,0.024 0.13703,0.05 0.20291,0.079 0.0179,0.01 0.0357,0.016 0.0534,0.024 0.0696,0.032 0.13856,0.067 0.20515,0.1055 0.0146,0.01 0.0282,0.017 0.0423,0.025 0.0696,0.042 0.13786,0.085 0.20375,0.1329 0.008,0.01 0.0193,0.014 0.0282,0.02 0.069,0.051 0.13634,0.1048 0.20004,0.1613 0.004,0 0.01,0.01 0.0166,0.015 0.069,0.062 0.13397,0.1271 0.19627,0.1954 0.43351,0.4775 0.69869,1.1019 0.69869,1.7878 h 0.0357 c -0.0231,0.109 -0.0357,0.2225 -0.0357,0.3383 v 5.0792 c 0,1.4965 -1.25123,2.7095 -2.7937,2.7095 h -5.23917 c -0.96452,0 -1.74611,0.7581 -1.74611,1.6933 v 6.0955 c 0,0.9352 0.78155,1.6932 1.74611,1.6932 h 6.28689 c 0.96451,0 1.74611,-0.758 1.74611,-1.6932 v -5.0807 c 0,-1.4961 1.25108,-2.7086 2.79369,-2.7086 h 5.23908 c 0.96457,0 1.74629,-0.7576 1.74629,-1.6928 v -6.0959 c 0,-0.9352 -0.78172,-1.6932 -1.74629,-1.6932 h -5.93695 c -0.38575,0 -0.69885,-0.3029 -0.69885,-0.6773 0,-0.3743 0.3131,-0.6773 0.69885,-0.6773 h 6.28615 c 1.54302,0 2.79405,1.2131 2.79405,2.7095 v 6.7724 c 0,0.099 -0.005,0.1974 -0.0175,0.2937 -0.001,0.021 -0.006,0.04 -0.008,0.06 z"
         id="path2-3-3-3"
         style="fill:url(#linearGradient1065);fill-opacity:1;stroke-width:0.0429878" />
    </g>
  </g>
</svg>
