<?xml version="1.0" encoding="UTF-8" standalone="no"?>
<svg
   width="32"
   version="1.1"
   height="32"
   viewBox="0 0 32 32"
   id="svg17"
   sodipodi:docname="folder-text.svg"
   inkscape:version="1.1.1 (3bf5ae0d25, 2021-09-20)"
   xmlns:inkscape="http://www.inkscape.org/namespaces/inkscape"
   xmlns:sodipodi="http://sodipodi.sourceforge.net/DTD/sodipodi-0.dtd"
   xmlns:xlink="http://www.w3.org/1999/xlink"
   xmlns="http://www.w3.org/2000/svg"
   xmlns:svg="http://www.w3.org/2000/svg"
   xmlns:rdf="http://www.w3.org/1999/02/22-rdf-syntax-ns#"
   xmlns:cc="http://creativecommons.org/ns#"
   xmlns:dc="http://purl.org/dc/elements/1.1/">
  <sodipodi:namedview
     pagecolor="#ffffff"
     bordercolor="#666666"
     borderopacity="1"
     objecttolerance="10"
     gridtolerance="10"
     guidetolerance="10"
     inkscape:pageopacity="0"
     inkscape:pageshadow="2"
     inkscape:window-width="1920"
     inkscape:window-height="1007"
     id="namedview19"
     showgrid="false"
     inkscape:zoom="9.8125"
     inkscape:cx="-23.33758"
     inkscape:cy="-0.66242038"
     inkscape:window-x="0"
     inkscape:window-y="0"
     inkscape:window-maximized="1"
     inkscape:current-layer="layer1"
     inkscape:pagecheckerboard="0" />
  <defs
     id="defs5455">
    <linearGradient
       inkscape:collect="always"
       xlink:href="#linearGradient936"
       id="linearGradient2232"
       x1="384.57144"
       y1="515.79797"
       x2="448.57144"
       y2="515.79797"
       gradientUnits="userSpaceOnUse"
       gradientTransform="matrix(0.4999999,0,0,0.4999999,192.28576,273.89905)" />
    <linearGradient
       inkscape:collect="always"
       id="linearGradient936">
      <stop
         style="stop-color:#b5e8e0;stop-opacity:0.80000001"
         offset="0"
         id="stop930" />
      <stop
         style="stop-color:#20ffff;stop-opacity:0.80000001"
         offset="0.50507295"
         id="stop932" />
      <stop
         style="stop-color:#ffaeff;stop-opacity:0.69"
         offset="1"
         id="stop934" />
    </linearGradient>
    <linearGradient
       inkscape:collect="always"
       xlink:href="#linearGradient936"
       id="linearGradient964"
       gradientUnits="userSpaceOnUse"
       gradientTransform="matrix(0.55556304,0,0,0.4999999,178.1189,276.39905)"
       x1="407.60944"
       y1="520.79803"
       x2="425.60953"
       y2="520.79803" />
    <linearGradient
       inkscape:collect="always"
       xlink:href="#linearGradient2230"
       id="linearGradient966"
       gradientUnits="userSpaceOnUse"
       gradientTransform="matrix(0.05462182,0,0,0.03999989,388.6986,529.99801)"
       x1="320"
       y1="187.5"
       x2="439"
       y2="187.5" />
    <linearGradient
       inkscape:collect="always"
       id="linearGradient2230">
      <stop
         style="stop-color:#4e99ca;stop-opacity:0.80000001"
         offset="0"
         id="stop2226" />
      <stop
         style="stop-color:#20ffff;stop-opacity:0.80000001"
         offset="0.50507295"
         id="stop2332" />
      <stop
         style="stop-color:#ffaeff;stop-opacity:0.69"
         offset="1"
         id="stop2228" />
    </linearGradient>
    <linearGradient
       inkscape:collect="always"
       xlink:href="#linearGradient2230"
       id="linearGradient968"
       gradientUnits="userSpaceOnUse"
       gradientTransform="matrix(0.05462182,0,0,0.03999989,388.69859,532.49803)"
       x1="320"
       y1="187.5"
       x2="439"
       y2="187.5" />
  </defs>
  <metadata
     id="metadata5458">
    <rdf:RDF>
      <cc:Work
         rdf:about="">
        <dc:format>image/svg+xml</dc:format>
        <dc:type
           rdf:resource="http://purl.org/dc/dcmitype/StillImage" />
      </cc:Work>
    </rdf:RDF>
  </metadata>
  <g
     inkscape:label="Capa 1"
     inkscape:groupmode="layer"
     id="layer1"
     transform="translate(-384.57143,-515.798)">
    <rect
       style="fill:#626f9d;fill-opacity:0.2;stroke:none;stroke-width:0.630375"
       id="center-3"
       width="30.049994"
       height="20.999996"
       x="385.57147"
       y="522.79797"
       ry="1.9999976"
       rx="2.0033386" />
    <path
       d="m 413.65488,521.80284 h -14.66335 c -0.32409,0 -0.60748,-0.16681 -0.81006,-0.45909 l -1.09375,-1.66919 c -0.36449,-0.58426 -0.97223,-0.87656 -1.62011,-0.87656 h -7.49371 c -1.86344,0 -3.40247,1.58596 -3.40247,3.50555 v 19.48962 c 0,1.62762 1.29635,3.00483 2.91647,3.00483 h 12.59752 v 0 0 0 0 0 0 0 h 0.97201 v 0 0 0 0 0 0 0 0 0 h 12.59752 c 1.57976,0 2.91647,-1.33563 2.91647,-3.00483 v -16.9856 c 0,-1.66919 -1.29606,-3.00452 -2.91647,-3.00452 z M 401.05743,544.798 v 0 h -0.97201 v 0 0 z m 14.54176,-3.00473 c 0,1.08499 -0.85078,2.00314 -1.94424,2.00314 h -26.1672 c -1.0531,0 -1.94424,-0.91815 -1.94424,-2.00314 l -2.9e-4,-6.71912 v -3.79784 c 0,-1.08501 0.89115,-2.00314 1.94424,-2.00314 h 14.66336 c 0.64817,0 1.25563,-0.33391 1.62012,-0.87656 l 1.05309,-1.6692 c 0.20259,-0.25036 0.48599,-0.45909 0.81006,-0.45909 h 7.53421 c 1.33671,0 2.43053,1.12689 2.43053,2.50418 v 5.46703 z m -2.43053,-16.4848 h -7.53421 c -0.64817,0 -1.25563,0.3339 -1.62011,0.87655 l -1.0531,1.6692 c -0.1619,0.29228 -0.48599,0.45908 -0.81006,0.45908 h -14.66325 c -0.72897,0 -1.41666,0.0848 -1.9445,0.8512 v -4.3665 c 0,-1 1.028,-2 2.028,-2 h 8.00001 l 0.0215,0.0232 1.47855,-0.0232 1.96053,0.006 h 14.66336 c 1.05309,0 1.94424,0.91814 1.94424,2.00314 v 1.54407 c -0.64789,-0.66751 -1.49838,-1.04304 -2.47061,-1.04304 z"
       id="path64"
       sodipodi:nodetypes="csccsssssccccccccccccccccccsssccccccccccssccsssccssscccsccscccccccssscc"
       style="fill:url(#linearGradient2232);fill-opacity:1;stroke-width:0.0734205" />
    <path
       d="m 412.90462,534.92317 c 0,0.20707 -0.18638,0.375 -0.41669,0.375 -0.22949,0 -0.41623,-0.1679 -0.41623,-0.375 0,-0.20726 0.18676,-0.37516 0.41623,-0.37516 0.23031,0 0.41669,0.1679 0.41669,0.37516 z m 0,7.87477 h -6.66617 c -0.92064,0 -1.66687,-0.67179 -1.66687,-1.49977 v -8.9999 c 0,-0.82854 0.74623,-1.49977 1.66687,-1.49977 h 3.33295 v -5e-4 l 3.9e-4,5e-4 c 0.46053,0 0.83328,0.33562 0.83328,0.7496 v 2.24993 c 0,0.41435 0.37269,0.74997 0.83331,0.74997 0.2303,0 0.41669,0.16791 0.41669,0.37517 0,0.20707 -0.18639,0.375 -0.41669,0.375 -0.92042,0 -1.66695,-0.67179 -1.66695,-1.50014 v -1.49977 -0.75014 h -0.83293 -2.50003 c -0.46044,0 -0.93339,0.33617 -0.93339,0.75017 v 8.9999 c 0,0.41398 0.47297,0.7496 0.93337,0.7496 h 6.6662 c 0.46061,0 0.94243,-0.33571 0.93392,-0.7496 v -4.87523 -1.12477 -0.59469 l -2.65553,-2.29993 c -0.1632,-0.1463 -0.1632,-0.38379 0,-0.53009 0.16274,-0.1463 0.42646,-0.1463 0.58921,0 l 2.67252,2.40502 c 4.2e-4,3.7e-4 10e-4,10e-4 10e-4,0.002 0.0769,0.0681 0.12529,0.16312 0.12529,0.26805 v 0.75016 1.12479 4.87524 c 0,0.82797 -0.74623,1.49976 -1.66708,1.49976 z"
       id="path2-7"
       style="fill:url(#linearGradient964);fill-opacity:1;stroke-width:0.0247054"
       sodipodi:nodetypes="ssssscsssscccsssssscccssssssccccccccsccscc" />
    <path
       d="m 412.2679,537.198 h -5.68065 c -0.22625,0 -0.40967,0.13428 -0.40967,0.3 0,0.16572 0.18342,0.3 0.40967,0.3 h 5.68065 c 0.22625,0 0.40967,-0.13428 0.40967,-0.3 0,-0.16572 -0.18342,-0.3 -0.40967,-0.3 z"
       id="path4-3-53"
       style="fill:url(#linearGradient966);fill-opacity:1;stroke-width:0.0467423" />
    <path
       d="m 412.2679,539.698 h -5.68065 c -0.22625,0 -0.40967,0.13428 -0.40967,0.3 0,0.16572 0.18342,0.3 0.40967,0.3 h 5.68065 c 0.22625,0 0.40967,-0.13428 0.40967,-0.3 0,-0.16572 -0.18342,-0.3 -0.40967,-0.3 z"
       id="path4-3-5-5"
       style="fill:url(#linearGradient968);fill-opacity:1;stroke-width:0.0467423" />
  </g>
</svg>
