<?xml version="1.0" encoding="UTF-8" standalone="no"?>
<svg
   width="32"
   version="1.1"
   height="32"
   viewBox="0 0 32 32"
   id="svg15"
   sodipodi:docname="folder-language.svg"
   inkscape:version="1.1.1 (3bf5ae0d25, 2021-09-20)"
   xmlns:inkscape="http://www.inkscape.org/namespaces/inkscape"
   xmlns:sodipodi="http://sodipodi.sourceforge.net/DTD/sodipodi-0.dtd"
   xmlns:xlink="http://www.w3.org/1999/xlink"
   xmlns="http://www.w3.org/2000/svg"
   xmlns:svg="http://www.w3.org/2000/svg"
   xmlns:rdf="http://www.w3.org/1999/02/22-rdf-syntax-ns#"
   xmlns:cc="http://creativecommons.org/ns#"
   xmlns:dc="http://purl.org/dc/elements/1.1/">
  <sodipodi:namedview
     pagecolor="#ffffff"
     bordercolor="#666666"
     borderopacity="1"
     objecttolerance="10"
     gridtolerance="10"
     guidetolerance="10"
     inkscape:pageopacity="0"
     inkscape:pageshadow="2"
     inkscape:window-width="1920"
     inkscape:window-height="1007"
     id="namedview17"
     showgrid="true"
     inkscape:zoom="9.8125"
     inkscape:cx="1.4267516"
     inkscape:cy="1.7834395"
     inkscape:window-x="0"
     inkscape:window-y="0"
     inkscape:window-maximized="1"
     inkscape:current-layer="g4"
     inkscape:pagecheckerboard="0">
    <inkscape:grid
       type="xygrid"
       id="grid862" />
  </sodipodi:namedview>
  <defs
     id="defs5455">
    <linearGradient
       inkscape:collect="always"
       id="linearGradient836-2">
      <stop
         style="stop-color:#ffb380;stop-opacity:1"
         offset="0"
         id="stop832-9" />
      <stop
         style="stop-color:#20ffff;stop-opacity:1"
         offset="0.48615947"
         id="stop1390" />
      <stop
         style="stop-color:#ffaeff;stop-opacity:1"
         offset="1"
         id="stop834-1" />
    </linearGradient>
    <linearGradient
       inkscape:collect="always"
       xlink:href="#linearGradient2230"
       id="linearGradient2232"
       x1="384.57144"
       y1="515.79797"
       x2="448.57144"
       y2="515.79797"
       gradientUnits="userSpaceOnUse"
       gradientTransform="matrix(1.3883542,0,0,1.3461632,-465.19046,330.12463)" />
    <linearGradient
       inkscape:collect="always"
       id="linearGradient2230">
      <stop
         style="stop-color:#4e99ca;stop-opacity:0.80000001"
         offset="0"
         id="stop2226" />
      <stop
         style="stop-color:#20ffff;stop-opacity:0.80000001"
         offset="0.50507295"
         id="stop2332" />
      <stop
         style="stop-color:#ffaeff;stop-opacity:0.69"
         offset="1"
         id="stop2228" />
    </linearGradient>
    <linearGradient
       inkscape:collect="always"
       xlink:href="#linearGradient2230"
       id="linearGradient1065"
       gradientUnits="userSpaceOnUse"
       x1="6.0328493"
       y1="16.000006"
       x2="26.03548"
       y2="16.000006" />
    <linearGradient
       inkscape:collect="always"
       xlink:href="#linearGradient836-2"
       id="linearGradient869"
       gradientUnits="userSpaceOnUse"
       x1="6.0328493"
       y1="16.000006"
       x2="26.03548"
       y2="16.000006" />
  </defs>
  <metadata
     id="metadata5458">
    <rdf:RDF>
      <cc:Work
         rdf:about="">
        <dc:format>image/svg+xml</dc:format>
        <dc:type
           rdf:resource="http://purl.org/dc/dcmitype/StillImage" />
      </cc:Work>
    </rdf:RDF>
  </metadata>
  <g
     inkscape:label="Capa 1"
     inkscape:groupmode="layer"
     id="layer1"
     transform="translate(-384.57143,-515.798)">
    <g
       transform="matrix(0.36013848,0,0,0.37142583,359.81878,151.2823)"
       id="g4">
      <rect
         style="fill:#626f9d;fill-opacity:0.2;stroke:none;stroke-width:1.72356"
         id="center-3"
         width="83.440086"
         height="56.538853"
         x="71.507629"
         y="1000.2421"
         ry="5.3846478"
         rx="5.5626884" />
      <path
         d="m 149.48721,997.56266 h -40.71588 c -0.89989,0 -1.68679,-0.44909 -2.24929,-1.236 l -3.03702,-4.49402 c -1.0121,-1.57302 -2.6996,-2.35999 -4.498582,-2.35999 H 78.178604 c -5.174243,0 -9.447681,4.26992 -9.447681,9.43821 v 52.47254 c 0,4.3821 3.5996,8.09 8.098187,8.09 h 34.97965 v 0 0 0 0 0 0 0 h 2.69899 v 0 0 0 0 0 0 0 0 0 h 34.97965 c 4.38652,0 8.09819,-3.5959 8.09819,-8.09 v -45.7308 c 0,-4.494 -3.5988,-8.08934 -8.09819,-8.08934 z m -34.97946,61.91074 v 0 h -2.69899 v 0 0 z m 40.37824,-8.0897 c 0,2.9211 -2.36237,5.3931 -5.39859,5.3931 H 76.828707 c -2.924151,0 -5.398587,-2.472 -5.398587,-5.3931 l -8e-4,-18.0901 v -10.225 c 0,-2.9212 2.47445,-5.3931 5.398587,-5.3931 h 40.715853 c 1.79978,0 3.48652,-0.899 4.49861,-2.36 l 2.92413,-4.494 c 0.56253,-0.6741 1.34945,-1.2361 2.2493,-1.2361 h 20.9203 c 3.71167,0 6.74889,3.034 6.74889,6.7421 v 14.719 z m -6.74889,-44.3825 h -20.9203 c -1.79978,0 -3.48652,0.899 -4.49859,2.36 l -2.92415,4.494 c -0.44955,0.7869 -1.34945,1.236 -2.24929,1.236 H 76.829193 c -2.024137,0 -3.933637,0.2284 -5.399309,2.2917 v -11.7561 c 0,-2.6923 2.85447,-5.3846 5.631178,-5.3846 h 22.213681 l 0.05956,0.062 4.105497,-0.062 5.44383,0.017 h 40.71588 c 2.92414,0 5.39858,2.4719 5.39858,5.3931 v 4.1572 c -1.79899,-1.7972 -4.16056,-2.8083 -6.86016,-2.8083 z"
         id="path64"
         sodipodi:nodetypes="csccsssssccccccccccccccccccsssccccccccccssccsssccssscccsccscccccccssscc"
         style="fill:url(#linearGradient2232);fill-opacity:1;stroke-width:0.200746" />
      <g
         data-name="Language"
         id="g4-3-5"
         transform="matrix(1.3005654,0,0,1.2610422,117.80735,1017.7581)"
         style="fill:url(#linearGradient869);fill-opacity:1">
        <path
           d="m 26.006,28.026 a 1,1 0 0 1 -0.975,0.784 0.95,0.95 0 0 1 -0.217,-0.024 9.046,9.046 0 0 1 -4.03,-2.322 11.488,11.488 0 0 1 -4.584,2.325 1.044,1.044 0 0 1 -0.206,0.021 1,1 0 0 1 -0.2,-1.978 9.307,9.307 0 0 0 3.6,-1.832 16.069,16.069 0 0 1 -1.877,-2.726 1,1 0 1 1 1.78,-0.911 13.689,13.689 0 0 0 1.588,2.31 13.822,13.822 0 0 0 2.715,-3.852 h -7.61 a 1,1 0 1 1 0,-2 h 3.52 v -1.252 a 1,1 0 0 1 2,0 v 1.252 h 3.52 a 1,1 0 0 1 0.97,1.264 14.446,14.446 0 0 1 -3.718,6.038 6.941,6.941 0 0 0 2.97,1.711 1,1 0 0 1 0.754,1.192 z M 14.99,15.591 h -4.944 a 4.077,4.077 0 0 1 0,-8.153 H 14.99 V 7.19 a 2,2 0 0 0 -2,-2 H 7.97 a 1,1 0 0 1 0,-2 h 5.02 a 4,4 0 0 1 4,4 v 8.424 a 1,1 0 0 1 -2,0 z m 0,-2 V 9.438 h -4.944 a 2.077,2.077 0 0 0 0,4.153 z"
           id="path2-6"
           style="fill:url(#linearGradient1065);fill-opacity:1" />
      </g>
    </g>
  </g>
</svg>
