<?xml version="1.0" encoding="UTF-8" standalone="no"?>
<svg
   width="32"
   version="1.1"
   height="32"
   viewBox="0 0 32 32"
   id="svg15"
   sodipodi:docname="folder-Neon.svg"
   inkscape:version="1.1.1 (3bf5ae0d25, 2021-09-20)"
   xmlns:inkscape="http://www.inkscape.org/namespaces/inkscape"
   xmlns:sodipodi="http://sodipodi.sourceforge.net/DTD/sodipodi-0.dtd"
   xmlns:xlink="http://www.w3.org/1999/xlink"
   xmlns="http://www.w3.org/2000/svg"
   xmlns:svg="http://www.w3.org/2000/svg"
   xmlns:rdf="http://www.w3.org/1999/02/22-rdf-syntax-ns#"
   xmlns:cc="http://creativecommons.org/ns#"
   xmlns:dc="http://purl.org/dc/elements/1.1/">
  <sodipodi:namedview
     pagecolor="#ffffff"
     bordercolor="#666666"
     borderopacity="1"
     objecttolerance="10"
     gridtolerance="10"
     guidetolerance="10"
     inkscape:pageopacity="0"
     inkscape:pageshadow="2"
     inkscape:window-width="1920"
     inkscape:window-height="1007"
     id="namedview17"
     showgrid="false"
     inkscape:zoom="9.8125"
     inkscape:cx="-26.089172"
     inkscape:cy="8.7133758"
     inkscape:window-x="0"
     inkscape:window-y="0"
     inkscape:window-maximized="1"
     inkscape:current-layer="layer1"
     inkscape:document-rotation="0"
     inkscape:pagecheckerboard="0" />
  <defs
     id="defs5455">
    <linearGradient
       inkscape:collect="always"
       xlink:href="#linearGradient971"
       id="linearGradient1643"
       gradientUnits="userSpaceOnUse"
       gradientTransform="matrix(0.13332456,0,0,0.13332412,401.90559,530.13213)"
       x1="5"
       y1="50"
       x2="95"
       y2="50" />
    <linearGradient
       inkscape:collect="always"
       id="linearGradient971">
      <stop
         style="stop-color:#4e99ca;stop-opacity:0.80000001"
         offset="0"
         id="stop965" />
      <stop
         style="stop-color:#20ffff;stop-opacity:0.80000001"
         offset="0.50507295"
         id="stop967" />
      <stop
         style="stop-color:#00ffff;stop-opacity:1"
         offset="1"
         id="stop969" />
    </linearGradient>
    <linearGradient
       inkscape:collect="always"
       xlink:href="#linearGradient2230"
       id="linearGradient2232"
       x1="384.57144"
       y1="515.79797"
       x2="448.57144"
       y2="515.79797"
       gradientUnits="userSpaceOnUse"
       gradientTransform="matrix(0.4999999,0,0,0.4999999,192.28576,273.89905)" />
    <linearGradient
       inkscape:collect="always"
       id="linearGradient2230">
      <stop
         style="stop-color:#4e99ca;stop-opacity:0.80000001"
         offset="0"
         id="stop2226" />
      <stop
         style="stop-color:#20ffff;stop-opacity:0.80000001"
         offset="0.50507295"
         id="stop2332" />
      <stop
         style="stop-color:#ffaeff;stop-opacity:0.69"
         offset="1"
         id="stop2228" />
    </linearGradient>
    <linearGradient
       inkscape:collect="always"
       xlink:href="#linearGradient971"
       id="linearGradient879"
       gradientUnits="userSpaceOnUse"
       gradientTransform="matrix(0.13332456,0,0,0.13332412,401.90559,530.13213)"
       x1="5"
       y1="50"
       x2="95"
       y2="50" />
    <linearGradient
       inkscape:collect="always"
       xlink:href="#linearGradient971"
       id="linearGradient881"
       gradientUnits="userSpaceOnUse"
       gradientTransform="matrix(0.13332456,0,0,0.13332412,401.90559,530.13213)"
       x1="5"
       y1="50"
       x2="95"
       y2="50" />
  </defs>
  <metadata
     id="metadata5458">
    <rdf:RDF>
      <cc:Work
         rdf:about="">
        <dc:format>image/svg+xml</dc:format>
        <dc:type
           rdf:resource="http://purl.org/dc/dcmitype/StillImage" />
      </cc:Work>
    </rdf:RDF>
  </metadata>
  <g
     inkscape:label="Capa 1"
     inkscape:groupmode="layer"
     id="layer1"
     transform="translate(-384.57143,-515.798)">
    <path
       d="m 408.57183,535.23999 c -0.86061,0 -1.5583,0.69769 -1.5583,1.55831 0,0.86057 0.69769,1.55827 1.5583,1.55827 0.86059,0 1.55829,-0.6977 1.55829,-1.55827 0,-0.86062 -0.6977,-1.55831 -1.55829,-1.55831 z m -0.27039,0.50118 c -0.29211,0.0745 -0.54289,0.26954 -0.68783,0.53594 -0.0138,0.0255 -0.0402,0.0399 -0.0685,0.0399 -0.0126,0 -0.0251,-0.002 -0.037,-0.01 -0.0374,-0.0212 -0.0514,-0.068 -0.032,-0.10573 0.16571,-0.30396 0.4524,-0.52716 0.78636,-0.61222 0.0423,-0.0113 0.0841,0.0141 0.0947,0.0565 0.0109,0.0417 -0.0142,0.084 -0.0565,0.0946 z"
       id="path2-6-7-2"
       style="fill:url(#linearGradient879);fill-opacity:1;stroke-width:0.133322" />
    <path
       d="m 409.11553,533.27492 c -0.01,-0.29317 -0.24814,-0.52837 -0.5437,-0.52837 -0.2956,0 -0.53451,0.2352 -0.54371,0.52837 -1.70853,0.26277 -3.021,1.74252 -3.021,3.52338 0,1.78079 1.31259,3.26053 3.021,3.5233 0.01,0.29321 0.24811,0.52842 0.54371,0.52842 0.29556,0 0.53447,-0.23521 0.5437,-0.52842 1.70857,-0.26277 3.02103,-1.74251 3.02103,-3.5233 0,-1.78086 -1.31246,-3.26061 -3.02103,-3.52338 z m -0.009,6.92953 c -0.0473,-0.25331 -0.26842,-0.44529 -0.53547,-0.44529 -0.26706,0 -0.48826,0.19181 -0.53544,0.44529 -1.64773,-0.25828 -2.9123,-1.68694 -2.9123,-3.40615 0,-1.71923 1.26457,-3.14792 2.91245,-3.40618 0.0473,0.25333 0.26839,0.44531 0.5354,0.44531 0.26706,0 0.48825,-0.19185 0.53548,-0.44531 1.6476,0.25826 2.91219,1.68695 2.91219,3.40618 0,1.71921 -1.26459,3.14787 -2.91231,3.40615 z"
       id="path4-5-9"
       style="fill:url(#linearGradient881);fill-opacity:1;stroke-width:0.133322" />
    <path
       d="m 414.57143,536.7983 c 0,-0.29052 -0.22746,-0.52558 -0.51383,-0.54223 -0.1092,-1.11381 -0.55134,-2.1312 -1.225,-2.95156 0.19234,-0.21411 0.18755,-0.54248 -0.019,-0.74858 -0.20597,-0.206 -0.53447,-0.21094 -0.74848,-0.0191 -0.82021,-0.67379 -1.83773,-1.11568 -2.95139,-1.22499 -0.016,-0.28606 -0.25185,-0.51384 -0.5424,-0.51384 -0.29048,0 -0.52557,0.22778 -0.5422,0.51384 -1.11368,0.1092 -2.13108,0.5512 -2.95139,1.22499 -0.21404,-0.19252 -0.54263,-0.18757 -0.74878,0.0191 -0.20595,0.2061 -0.21088,0.53473 -0.0186,0.74873 -0.67378,0.82021 -1.11568,1.83773 -1.22499,2.95141 -0.28639,0.0159 -0.51384,0.25171 -0.51384,0.54223 0,0.29049 0.22745,0.52556 0.51384,0.54223 0.1092,1.11364 0.55121,2.13092 1.22487,2.95119 -0.19254,0.21419 -0.1876,0.54282 0.0189,0.74895 0.20613,0.20592 0.53463,0.21086 0.74891,0.0185 0.8202,0.67393 1.83772,1.11568 2.95142,1.22499 0.0159,0.28606 0.25169,0.51384 0.54221,0.51384 0.2905,0 0.52559,-0.22778 0.54221,-0.51384 1.11369,-0.1092 2.13109,-0.55106 2.95139,-1.22499 0.21431,0.19252 0.54268,0.18757 0.74878,-0.0185 0.20595,-0.20613 0.21089,-0.53476 0.0188,-0.74878 0.674,-0.82019 1.11568,-1.83772 1.225,-2.95136 0.28644,-0.0159 0.51383,-0.25174 0.51383,-0.54223 z m -0.63065,0.53687 c -0.1077,1.08566 -0.53862,2.07761 -1.19496,2.87832 -0.2132,-0.15334 -0.51101,-0.13594 -0.70272,0.0561 -0.19178,0.19185 -0.2094,0.48967 -0.0562,0.70273 -0.80059,0.65634 -1.79266,1.08725 -2.87859,1.19495 -0.0402,-0.26051 -0.2645,-0.46006 -0.53662,-0.46006 -0.27212,0 -0.49572,0.19955 -0.53666,0.46006 -1.08591,-0.1077 -2.07798,-0.53861 -2.8786,-1.19495 0.15346,-0.21334 0.13599,-0.51135 -0.0561,-0.70284 -0.19173,-0.19177 -0.48969,-0.20955 -0.70289,-0.0563 -0.65635,-0.80048 -1.08738,-1.79242 -1.19511,-2.87808 0.26052,-0.0405 0.46009,-0.26476 0.46009,-0.53688 0,-0.27215 -0.19957,-0.49574 -0.46009,-0.5369 0.10773,-1.08568 0.53861,-2.07748 1.19486,-2.87824 0.21331,0.15359 0.51141,0.13603 0.703,-0.0561 0.19174,-0.1917 0.20921,-0.48983 0.0561,-0.70303 0.80073,-0.65617 1.79255,-1.08711 2.87846,-1.19484 0.0402,0.2605 0.26453,0.46008 0.53665,0.46008 0.2721,0 0.49571,-0.19958 0.53664,-0.46008 1.08591,0.10773 2.07783,0.53867 2.8785,1.19484 -0.15338,0.21333 -0.13607,0.51117 0.0561,0.7029 0.1917,0.1917 0.48973,0.2092 0.70291,0.0561 0.6563,0.80063 1.08723,1.79268 1.195,2.87836 -0.26052,0.0405 -0.46007,0.26475 -0.46007,0.5369 0,0.27212 0.19967,0.49569 0.4603,0.53688 z"
       id="path6-3-1"
       style="fill:url(#linearGradient1643);fill-opacity:1;stroke-width:0.133322" />
    <rect
       style="fill:#626f9d;fill-opacity:0.2;stroke:none;stroke-width:0.630375"
       id="center-3"
       width="30.049994"
       height="20.999996"
       x="385.57144"
       y="522.79803"
       ry="1.9999976"
       rx="2.0033386" />
    <path
       d="m 413.65488,521.80284 h -14.66335 c -0.32409,0 -0.60748,-0.16681 -0.81006,-0.45909 l -1.09375,-1.66919 c -0.36449,-0.58426 -0.97223,-0.87656 -1.62011,-0.87656 h -7.49371 c -1.86344,0 -3.40247,1.58596 -3.40247,3.50555 v 19.48962 c 0,1.62762 1.29635,3.00483 2.91647,3.00483 h 12.59752 v 0 0 0 0 0 0 0 h 0.97201 v 0 0 0 0 0 0 0 0 0 h 12.59752 c 1.57976,0 2.91647,-1.33563 2.91647,-3.00483 v -16.9856 c 0,-1.66919 -1.29606,-3.00452 -2.91647,-3.00452 z M 401.05743,544.798 v 0 h -0.97201 v 0 0 z m 14.54176,-3.00473 c 0,1.08499 -0.85078,2.00314 -1.94424,2.00314 h -26.1672 c -1.0531,0 -1.94424,-0.91815 -1.94424,-2.00314 l -2.9e-4,-6.71912 v -3.79784 c 0,-1.08501 0.89115,-2.00314 1.94424,-2.00314 h 14.66336 c 0.64817,0 1.25563,-0.33391 1.62012,-0.87656 l 1.05309,-1.6692 c 0.20259,-0.25036 0.48599,-0.45909 0.81006,-0.45909 h 7.53421 c 1.33671,0 2.43053,1.12689 2.43053,2.50418 v 5.46703 z m -2.43053,-16.4848 h -7.53421 c -0.64817,0 -1.25563,0.3339 -1.62011,0.87655 l -1.0531,1.6692 c -0.1619,0.29228 -0.48599,0.45908 -0.81006,0.45908 h -14.66325 c -0.72897,0 -1.41666,0.0848 -1.9445,0.8512 v -4.3665 c 0,-1 1.028,-2 2.028,-2 h 8.00001 l 0.0215,0.0232 1.47855,-0.0232 1.96053,0.006 h 14.66336 c 1.05309,0 1.94424,0.91814 1.94424,2.00314 v 1.54407 c -0.64789,-0.66751 -1.49838,-1.04304 -2.47061,-1.04304 z"
       id="path64"
       sodipodi:nodetypes="csccsssssccccccccccccccccccsssccccccccccssccsssccssscccsccscccccccssscc"
       style="fill:url(#linearGradient2232);fill-opacity:1;stroke-width:0.0734205" />
  </g>
</svg>
