<?xml version="1.0" encoding="UTF-8" standalone="no"?>
<svg
   width="32"
   version="1.1"
   height="32"
   viewBox="0 0 32 32"
   id="svg17"
   sodipodi:docname="folder-development.svg"
   inkscape:version="1.1.1 (3bf5ae0d25, 2021-09-20)"
   xmlns:inkscape="http://www.inkscape.org/namespaces/inkscape"
   xmlns:sodipodi="http://sodipodi.sourceforge.net/DTD/sodipodi-0.dtd"
   xmlns:xlink="http://www.w3.org/1999/xlink"
   xmlns="http://www.w3.org/2000/svg"
   xmlns:svg="http://www.w3.org/2000/svg"
   xmlns:rdf="http://www.w3.org/1999/02/22-rdf-syntax-ns#"
   xmlns:cc="http://creativecommons.org/ns#"
   xmlns:dc="http://purl.org/dc/elements/1.1/">
  <sodipodi:namedview
     pagecolor="#ffffff"
     bordercolor="#666666"
     borderopacity="1"
     objecttolerance="10"
     gridtolerance="10"
     guidetolerance="10"
     inkscape:pageopacity="0"
     inkscape:pageshadow="2"
     inkscape:window-width="1920"
     inkscape:window-height="1007"
     id="namedview19"
     showgrid="false"
     inkscape:zoom="9.8125"
     inkscape:cx="-20.484076"
     inkscape:cy="8.611465"
     inkscape:window-x="0"
     inkscape:window-y="0"
     inkscape:window-maximized="1"
     inkscape:current-layer="layer1"
     inkscape:pagecheckerboard="0" />
  <defs
     id="defs5455">
    <linearGradient
       inkscape:collect="always"
       xlink:href="#linearGradient2230"
       id="linearGradient2232"
       x1="384.57144"
       y1="515.79797"
       x2="448.57144"
       y2="515.79797"
       gradientUnits="userSpaceOnUse"
       gradientTransform="matrix(0.4999999,0,0,0.4999999,192.28576,273.89905)" />
    <linearGradient
       inkscape:collect="always"
       id="linearGradient2230">
      <stop
         style="stop-color:#4e99ca;stop-opacity:0.80000001"
         offset="0"
         id="stop2226" />
      <stop
         style="stop-color:#20ffff;stop-opacity:0.80000001"
         offset="0.50507295"
         id="stop2332" />
      <stop
         style="stop-color:#ffaeff;stop-opacity:0.69"
         offset="1"
         id="stop2228" />
    </linearGradient>
    <linearGradient
       inkscape:collect="always"
       xlink:href="#linearGradient2230"
       id="linearGradient1501"
       gradientUnits="userSpaceOnUse"
       gradientTransform="matrix(0.43749991,0,0,0.43749991,226.44646,309.69891)"
       x1="402.57144"
       y1="520.79797"
       x2="430"
       y2="520.79797" />
    <linearGradient
       inkscape:collect="always"
       xlink:href="#linearGradient2230"
       id="linearGradient1503"
       gradientUnits="userSpaceOnUse"
       gradientTransform="matrix(0.43749991,0,0,0.43749991,226.44646,309.69891)"
       x1="410.89111"
       y1="524.22662"
       x2="421.53799"
       y2="524.22662" />
  </defs>
  <metadata
     id="metadata5458">
    <rdf:RDF>
      <cc:Work
         rdf:about="">
        <dc:format>image/svg+xml</dc:format>
        <dc:type
           rdf:resource="http://purl.org/dc/dcmitype/StillImage" />
      </cc:Work>
    </rdf:RDF>
  </metadata>
  <g
     inkscape:label="Capa 1"
     inkscape:groupmode="layer"
     id="layer1"
     transform="translate(-384.57143,-515.798)">
    <rect
       style="fill:#626f9d;fill-opacity:0.2;stroke:none;stroke-width:0.630375"
       id="center-3"
       width="30.049994"
       height="20.999996"
       x="385.57147"
       y="522.79816"
       ry="1.9999976"
       rx="2.0033386" />
    <path
       d="m 413.65488,521.80284 h -14.66335 c -0.32409,0 -0.60748,-0.16681 -0.81006,-0.45909 l -1.09375,-1.66919 c -0.36449,-0.58426 -0.97223,-0.87656 -1.62011,-0.87656 h -7.49371 c -1.86344,0 -3.40247,1.58596 -3.40247,3.50555 v 19.48962 c 0,1.62762 1.29635,3.00483 2.91647,3.00483 h 12.59752 v 0 0 0 0 0 0 0 h 0.97201 v 0 0 0 0 0 0 0 0 0 h 12.59752 c 1.57976,0 2.91647,-1.33563 2.91647,-3.00483 v -16.9856 c 0,-1.66919 -1.29606,-3.00452 -2.91647,-3.00452 z M 401.05743,544.798 v 0 h -0.97201 v 0 0 z m 14.54176,-3.00473 c 0,1.08499 -0.85078,2.00314 -1.94424,2.00314 h -26.1672 c -1.0531,0 -1.94424,-0.91815 -1.94424,-2.00314 l -2.9e-4,-6.71912 v -3.79784 c 0,-1.08501 0.89115,-2.00314 1.94424,-2.00314 h 14.66336 c 0.64817,0 1.25563,-0.33391 1.62012,-0.87656 l 1.05309,-1.6692 c 0.20259,-0.25036 0.48599,-0.45909 0.81006,-0.45909 h 7.53421 c 1.33671,0 2.43053,1.12689 2.43053,2.50418 v 5.46703 z m -2.43053,-16.4848 h -7.53421 c -0.64817,0 -1.25563,0.3339 -1.62011,0.87655 l -1.0531,1.6692 c -0.1619,0.29228 -0.48599,0.45908 -0.81006,0.45908 h -14.66325 c -0.72897,0 -1.41666,0.0848 -1.9445,0.8512 v -4.3665 c 0,-1 1.028,-2 2.028,-2 h 8.00001 l 0.0215,0.0232 1.47855,-0.0232 1.96053,0.006 h 14.66336 c 1.05309,0 1.94424,0.91814 1.94424,2.00314 v 1.54407 c -0.64789,-0.66751 -1.49838,-1.04304 -2.47061,-1.04304 z"
       id="path64"
       sodipodi:nodetypes="csccsssssccccccccccccccccccsssccccccccccssccsssccssscccsccscccccccssscc"
       style="fill:url(#linearGradient2232);fill-opacity:1;stroke-width:0.0734205" />
    <path
       fill-rule="evenodd"
       clip-rule="evenodd"
       d="m 404.07143,534.173 c 0,-0.20711 0.16789,-0.375 0.375,-0.375 0.2071,0 0.375,0.16789 0.375,0.375 0,0.2071 -0.1679,0.375 -0.375,0.375 -0.20711,0 -0.375,-0.1679 -0.375,-0.375 z m 1.5,0 c 0,-0.20711 0.16789,-0.375 0.37499,-0.375 0.20711,0 0.37501,0.16789 0.37501,0.375 0,0.2071 -0.1679,0.375 -0.37501,0.375 -0.2071,0 -0.37499,-0.1679 -0.37499,-0.375 z m 1.5,0 c 0,-0.20711 0.16789,-0.375 0.375,-0.375 0.2071,0 0.375,0.16789 0.375,0.375 0,0.2071 -0.1679,0.375 -0.375,0.375 -0.20711,0 -0.375,-0.1679 -0.375,-0.375 z m 7.49999,2.06254 v 5.06246 c 0,0.82843 -0.67157,1.5 -1.5,1.5 h -8.99999 c -0.82843,0 -1.5,-0.67157 -1.5,-1.5 v -4.125 c 0,-0.20711 0.16789,-0.375 0.37499,-0.375 0.20711,0 0.37501,0.16789 0.37501,0.375 v 4.125 c 0,0.41421 0.33579,0.75 0.75,0.75 h 8.99999 c 0.41421,0 0.75,-0.33579 0.75,-0.75 v -4.87501 c 0,-0.2071 -0.16789,-0.37499 -0.37499,-0.37499 h -9.93746 c -0.51791,0 -0.93754,-0.41963 -0.93754,-0.93755 V 533.798 c 0,-0.82843 0.67157,-1.5 1.5,-1.5 h 8.99999 c 0.82843,0 1.5,0.67157 1.5,1.5 v 0.375 c 0,0.2071 -0.16789,0.375 -0.37499,0.375 -0.20711,0 -0.37501,-0.1679 -0.37501,-0.375 v -0.375 c 0,-0.41421 -0.33579,-0.75 -0.75,-0.75 h -8.99999 c -0.41421,0 -0.75,0.33579 -0.75,0.75 v 1.125 c 0,0.20711 0.16789,0.375 0.37499,0.375 h 9.93746 c 0.51791,0 0.93754,0.41963 0.93754,0.93754 z"
       id="path2-7"
       style="fill:url(#linearGradient1501);fill-opacity:1;stroke-width:0.0234377" />
    <path
       fill-rule="evenodd"
       clip-rule="evenodd"
       d="m 410.35533,539.62313 c -3.3e-4,2.7e-4 -0.002,0.001 -0.002,0.001 -0.0613,0.0202 -0.10553,0.0786 -0.10553,0.14701 v 1.60615 c 0,0.0858 -0.0694,0.15532 -0.15531,0.15532 -0.0856,0 -0.15504,-0.0695 -0.15504,-0.15532 v -1.60615 c 0,-0.20178 0.12847,-0.37387 0.30835,-0.43844 0.002,-0.001 0.005,-0.002 0.006,-0.004 0.17835,-0.0654 0.30626,-0.23519 0.30626,-0.43616 0,-0.12848 -0.0519,-0.24482 -0.13598,-0.32887 -0.0289,-0.0288 -0.0458,-0.0672 -0.0458,-0.11022 0,-0.0857 0.0695,-0.15526 0.15534,-0.15526 0.0451,0 0.086,0.0192 0.11436,0.051 0.13737,0.14018 0.22275,0.33152 0.22275,0.54339 0,0.33678 -0.21416,0.62273 -0.51399,0.73045 z m -0.41531,-1.17013 c -0.002,10e-4 -0.005,0.002 -0.006,0.004 -0.17841,0.0652 -0.30623,0.23502 -0.30623,0.43601 0,0.1287 0.0521,0.24516 0.13642,0.32944 0.0286,0.0286 0.0451,0.067 0.0451,0.10978 0,0.0857 -0.0694,0.15517 -0.15517,0.15517 -0.0444,0 -0.0848,-0.0187 -0.11324,-0.0495 -0.13823,-0.14034 -0.22397,-0.33231 -0.22397,-0.54493 0,-0.33648 0.214,-0.62182 0.51355,-0.72979 10e-4,-4.2e-4 0.002,-10e-4 0.002,-10e-4 0.0613,-0.0203 0.10544,-0.0788 0.10544,-0.14728 v -0.67439 c 0,-0.0856 0.0694,-0.15527 0.15515,-0.15527 0.0857,0 0.15518,0.0697 0.15518,0.15527 v 0.67441 c -10e-6,0.20221 -0.12843,0.37413 -0.30826,0.43871 z m 0.15299,-1.57892 c -0.0857,0 -0.15515,-0.0695 -0.15515,-0.15517 0,-0.0859 0.0694,-0.15534 0.15515,-0.15534 0.0858,0 0.15531,0.0694 0.15531,0.15534 0,0.0857 -0.0695,0.15517 -0.15531,0.15517 z m -1.29003,3.99104 c -10e-4,2.8e-4 -10e-4,10e-4 -0.002,10e-4 -0.0613,0.0202 -0.10555,0.0788 -0.10555,0.14702 v 0.36389 c 0,0.0859 -0.0695,0.15534 -0.15529,0.15534 -0.0857,0 -0.15515,-0.0694 -0.15515,-0.15534 v -0.36389 c 0,-0.20186 0.12851,-0.37388 0.30831,-0.43844 0.002,-10e-4 0.005,-0.002 0.007,-0.004 0.17817,-0.0655 0.30616,-0.23527 0.30616,-0.43616 0,-0.12847 -0.0518,-0.24481 -0.13588,-0.32887 -0.0291,-0.0288 -0.0459,-0.0672 -0.0459,-0.11028 0,-0.0858 0.0695,-0.15518 0.15536,-0.15518 0.0452,0 0.086,0.0193 0.11428,0.0509 0.1375,0.14015 0.22293,0.33152 0.22293,0.54339 -10e-6,0.33654 -0.2142,0.62264 -0.51376,0.73019 z m -0.41574,-1.16996 c -0.003,10e-4 -0.005,0.003 -0.006,0.004 -0.17784,0.0655 -0.30569,0.23505 -0.30569,0.43583 0,0.12863 0.0522,0.24517 0.13644,0.32937 0.0286,0.0286 0.0452,0.067 0.0452,0.10986 0,0.0857 -0.0695,0.15514 -0.15525,0.15514 -0.043,0 -0.083,-0.0181 -0.11129,-0.0474 -0.13955,-0.14024 -0.22591,-0.33335 -0.22591,-0.54693 0,-0.33656 0.21412,-0.62197 0.51359,-0.72986 0.001,-4e-4 0.002,-0.002 0.003,-0.002 0.0612,-0.0202 0.10547,-0.0787 0.10547,-0.14706 v -2.53667 c 0,-0.0859 0.0694,-0.15532 0.15507,-0.15532 0.0858,0 0.15524,0.0694 0.15524,0.15532 v 2.53766 c -1e-5,0.20212 -0.12844,0.37414 -0.30824,0.43854 z m -1.13696,-0.69341 c -10e-4,2.6e-4 -0.002,10e-4 -0.002,10e-4 -0.0613,0.0205 -0.10555,0.0788 -0.10555,0.14701 v 2.22728 c 0,0.0859 -0.0695,0.15534 -0.15504,0.15534 -0.086,0 -0.15538,-0.0694 -0.15538,-0.15534 v -2.22728 c 0,-0.2019 0.12852,-0.37388 0.30836,-0.43844 0.002,-10e-4 0.005,-0.002 0.007,-0.004 0.17817,-0.0654 0.30612,-0.23502 0.30612,-0.43602 0,-0.12869 -0.0522,-0.24514 -0.13653,-0.3293 -0.0288,-0.0288 -0.0452,-0.0669 -0.0452,-0.10991 0,-0.0856 0.0694,-0.1553 0.15528,-0.1553 0.0444,0 0.0848,0.0187 0.11313,0.0496 0.13828,0.14032 0.2241,0.33231 0.2241,0.54492 0,0.33663 -0.2144,0.6224 -0.5137,0.73005 z m -0.41577,-1.16989 c -0.003,10e-4 -0.005,0.003 -0.006,0.004 -0.17835,0.0655 -0.30627,0.23519 -0.30627,0.43618 0,0.12867 0.0522,0.24499 0.1365,0.32919 0.0286,0.0286 0.0452,0.0671 0.0452,0.10987 0,0.0857 -0.0694,0.15528 -0.15516,0.15528 -0.0442,0 -0.0845,-0.0189 -0.11282,-0.0491 -0.1387,-0.13996 -0.22444,-0.33264 -0.22444,-0.54525 0,-0.33663 0.21404,-0.62255 0.51371,-0.73022 10e-4,-3e-4 0.002,-0.001 0.002,-0.001 0.0612,-0.0202 0.10544,-0.0788 0.10544,-0.14701 v -0.67451 c 0,-0.0859 0.0694,-0.15534 0.15522,-0.15534 0.0857,0 0.15514,0.0694 0.15514,0.15534 v 0.67451 c 10e-6,0.20181 -0.12842,0.37388 -0.30826,0.43844 z"
       id="path2-3-5"
       style="fill:url(#linearGradient1503);fill-opacity:1;stroke-width:0.0097041" />
  </g>
</svg>
