<?xml version="1.0" encoding="UTF-8" standalone="no"?>
<svg
   width="32"
   version="1.1"
   height="32"
   viewBox="0 0 32 32"
   id="svg17"
   sodipodi:docname="folder-download.svg"
   inkscape:version="1.1.1 (3bf5ae0d25, 2021-09-20)"
   xmlns:inkscape="http://www.inkscape.org/namespaces/inkscape"
   xmlns:sodipodi="http://sodipodi.sourceforge.net/DTD/sodipodi-0.dtd"
   xmlns:xlink="http://www.w3.org/1999/xlink"
   xmlns="http://www.w3.org/2000/svg"
   xmlns:svg="http://www.w3.org/2000/svg"
   xmlns:rdf="http://www.w3.org/1999/02/22-rdf-syntax-ns#"
   xmlns:cc="http://creativecommons.org/ns#"
   xmlns:dc="http://purl.org/dc/elements/1.1/">
  <sodipodi:namedview
     pagecolor="#ffffff"
     bordercolor="#666666"
     borderopacity="1"
     objecttolerance="10"
     gridtolerance="10"
     guidetolerance="10"
     inkscape:pageopacity="0"
     inkscape:pageshadow="2"
     inkscape:window-width="1920"
     inkscape:window-height="1007"
     id="namedview19"
     showgrid="false"
     inkscape:zoom="9.8125"
     inkscape:cx="-16.203822"
     inkscape:cy="2.8025478"
     inkscape:window-x="0"
     inkscape:window-y="0"
     inkscape:window-maximized="1"
     inkscape:current-layer="layer1"
     inkscape:pagecheckerboard="0" />
  <defs
     id="defs5455">
    <linearGradient
       inkscape:collect="always"
       xlink:href="#linearGradient1208"
       id="linearGradient2232"
       x1="384.57144"
       y1="515.79797"
       x2="448.57144"
       y2="515.79797"
       gradientUnits="userSpaceOnUse"
       gradientTransform="matrix(0.4999999,0,0,0.4999999,192.28575,273.89905)" />
    <linearGradient
       inkscape:collect="always"
       id="linearGradient1208">
      <stop
         style="stop-color:#80b3ff;stop-opacity:1"
         offset="0"
         id="stop1204" />
      <stop
         style="stop-color:#00ffff;stop-opacity:0.59999996"
         offset="1"
         id="stop1206" />
    </linearGradient>
    <linearGradient
       inkscape:collect="always"
       xlink:href="#linearGradient1208"
       id="linearGradient1090"
       gradientUnits="userSpaceOnUse"
       x1="405.07144"
       y1="520.79797"
       x2="429.07147"
       y2="520.79797"
       gradientTransform="matrix(0.4999999,0,0,0.4999999,200.03577,276.39905)" />
  </defs>
  <metadata
     id="metadata5458">
    <rdf:RDF>
      <cc:Work
         rdf:about="">
        <dc:format>image/svg+xml</dc:format>
        <dc:type
           rdf:resource="http://purl.org/dc/dcmitype/StillImage" />
      </cc:Work>
    </rdf:RDF>
  </metadata>
  <g
     inkscape:label="Capa 1"
     inkscape:groupmode="layer"
     id="layer1"
     transform="translate(-384.57143,-515.798)">
    <rect
       style="fill:#626f9d;fill-opacity:0.2;stroke:none;stroke-width:0.630375"
       id="center-3"
       width="30.049994"
       height="20.999996"
       x="385.57144"
       y="522.79803"
       ry="1.9999976"
       rx="2.0033386" />
    <path
       d="m 413.65488,521.80284 h -14.66335 c -0.32409,0 -0.60748,-0.16681 -0.81006,-0.45909 l -1.09375,-1.66919 c -0.36449,-0.58426 -0.97223,-0.87656 -1.62011,-0.87656 h -7.49371 c -1.86344,0 -3.40247,1.58596 -3.40247,3.50555 v 19.48962 c 0,1.62762 1.29635,3.00483 2.91647,3.00483 h 12.59752 v 0 0 0 0 0 0 0 h 0.97201 v 0 0 0 0 0 0 0 0 0 h 12.59752 c 1.57976,0 2.91647,-1.33563 2.91647,-3.00483 v -16.9856 c 0,-1.66919 -1.29606,-3.00452 -2.91647,-3.00452 z M 401.05743,544.798 v 0 h -0.97201 v 0 0 z m 14.54176,-3.00473 c 0,1.08499 -0.85078,2.00314 -1.94424,2.00314 h -26.1672 c -1.0531,0 -1.94424,-0.91815 -1.94424,-2.00314 l -2.9e-4,-6.71912 v -3.79784 c 0,-1.08501 0.89115,-2.00314 1.94424,-2.00314 h 14.66336 c 0.64817,0 1.25563,-0.33391 1.62012,-0.87656 l 1.05309,-1.6692 c 0.20259,-0.25036 0.48599,-0.45909 0.81006,-0.45909 h 7.53421 c 1.33671,0 2.43053,1.12689 2.43053,2.50418 v 5.46703 z m -2.43053,-16.4848 h -7.53421 c -0.64817,0 -1.25563,0.3339 -1.62011,0.87655 l -1.0531,1.6692 c -0.1619,0.29228 -0.48599,0.45908 -0.81006,0.45908 h -14.66325 c -0.72897,0 -1.41666,0.0848 -1.9445,0.8512 v -4.3665 c 0,-1 1.028,-2 2.028,-2 h 8.00001 l 0.0214,0.0232 1.47855,-0.0232 1.96053,0.006 h 14.66336 c 1.05309,0 1.94424,0.91814 1.94424,2.00314 v 1.54407 c -0.64789,-0.66751 -1.49838,-1.04304 -2.47061,-1.04304 z"
       id="path64"
       sodipodi:nodetypes="csccsssssccccccccccccccccccsssccccccccccssccsssccssscccsccscccccccssscc"
       style="opacity:0.8;fill:url(#linearGradient2232);fill-opacity:1;stroke-width:0.0734205" />
    <path
       fill-rule="evenodd"
       clip-rule="evenodd"
       d="m 410.82055,534.173 c 0,-0.2071 0.16786,-0.375 0.37485,-0.375 0.20703,0 0.37486,0.1679 0.37486,0.375 0,0.20709 -0.16783,0.375 -0.37486,0.375 -0.20699,0 -0.37485,-0.16791 -0.37485,-0.375 z m 3.31715,3.68573 -4.50606,4.50769 c -0.29276,0.29297 -0.67648,0.43158 -1.06022,0.43158 -0.38374,0 -0.76749,-0.13861 -1.06024,-0.43158 l -4.50617,-4.50769 c -0.31352,-0.31385 -0.45356,-0.73151 -0.4313,-1.14222 v 0.0815 c 0,-0.82838 0.67128,-1.5 1.49942,-1.5 h 0.74972 c 0.41404,0 0.74972,-0.33582 0.74972,-0.75 v -2.25 c 0,-0.82838 0.67129,-1.5 1.49943,-1.5 h 2.99888 c 0.82804,0 1.49943,0.67162 1.49943,1.5 v 0.375 c 0,0.20709 -0.16783,0.375 -0.37486,0.375 -0.207,0 -0.37486,-0.16791 -0.37486,-0.375 v -0.375 c 0,-0.41419 -0.33566,-0.75 -0.74969,-0.75 h -2.99892 c -0.41402,0 -0.74972,0.33581 -0.74972,0.75 v 2.25 c 0,0.82837 -0.67127,1.5 -1.49944,1.5 h -0.74969 c -0.41402,0 -0.7497,0.33581 -0.7497,0.75 0,0 -0.003,10e-4 -0.007,0.003 5e-4,0.19097 0.0736,0.38177 0.21926,0.52734 l 4.50607,4.50788 c 0.29285,0.29297 0.76746,0.29297 1.06034,0 l 4.50606,-4.50788 c 0.14569,-0.14576 0.21872,-0.33654 0.21926,-0.52772 -0.005,-10e-4 -0.007,-0.002 -0.007,-0.002 0,-0.41419 -0.33567,-0.75 -0.74969,-0.75 h -0.37486 c -0.20703,0 -0.37486,-0.1679 -0.37486,-0.375 0,-0.20709 0.16783,-0.375 0.37486,-0.375 h 0.37486 c 0.82804,0 1.49943,0.67163 1.49943,1.5 v -0.0815 c 0.0223,0.41072 -0.11791,0.82838 -0.43146,1.14223 z"
       id="path2-7"
       style="opacity:0.8;fill:url(#linearGradient1090);fill-opacity:1;stroke-width:0.0234375" />
  </g>
</svg>
