<?xml version="1.0" encoding="UTF-8" standalone="no"?>
<svg
   width="32"
   version="1.1"
   height="32"
   viewBox="0 0 32 32"
   id="svg15"
   sodipodi:docname="folder-design.svg"
   inkscape:version="1.1.1 (3bf5ae0d25, 2021-09-20)"
   xmlns:inkscape="http://www.inkscape.org/namespaces/inkscape"
   xmlns:sodipodi="http://sodipodi.sourceforge.net/DTD/sodipodi-0.dtd"
   xmlns:xlink="http://www.w3.org/1999/xlink"
   xmlns="http://www.w3.org/2000/svg"
   xmlns:svg="http://www.w3.org/2000/svg"
   xmlns:rdf="http://www.w3.org/1999/02/22-rdf-syntax-ns#"
   xmlns:cc="http://creativecommons.org/ns#"
   xmlns:dc="http://purl.org/dc/elements/1.1/">
  <sodipodi:namedview
     pagecolor="#ffffff"
     bordercolor="#666666"
     borderopacity="1"
     objecttolerance="10"
     gridtolerance="10"
     guidetolerance="10"
     inkscape:pageopacity="0"
     inkscape:pageshadow="2"
     inkscape:window-width="1920"
     inkscape:window-height="1007"
     id="namedview17"
     showgrid="true"
     inkscape:zoom="9.8125"
     inkscape:cx="1.4267516"
     inkscape:cy="1.6815287"
     inkscape:window-x="0"
     inkscape:window-y="0"
     inkscape:window-maximized="1"
     inkscape:current-layer="g4"
     inkscape:pagecheckerboard="0">
    <inkscape:grid
       type="xygrid"
       id="grid862" />
  </sodipodi:namedview>
  <defs
     id="defs5455">
    <linearGradient
       inkscape:collect="always"
       id="linearGradient836-2">
      <stop
         style="stop-color:#ffb380;stop-opacity:1"
         offset="0"
         id="stop832-9" />
      <stop
         style="stop-color:#20ffff;stop-opacity:1"
         offset="0.48615947"
         id="stop1390" />
      <stop
         style="stop-color:#ffaeff;stop-opacity:1"
         offset="1"
         id="stop834-1" />
    </linearGradient>
    <linearGradient
       inkscape:collect="always"
       xlink:href="#linearGradient836-2"
       id="linearGradient909"
       x1="407.18054"
       y1="519.77393"
       x2="416.80774"
       y2="519.77393"
       gradientUnits="userSpaceOnUse" />
    <linearGradient
       inkscape:collect="always"
       xlink:href="#linearGradient2230"
       id="linearGradient2232"
       x1="384.57144"
       y1="515.79797"
       x2="448.57144"
       y2="515.79797"
       gradientUnits="userSpaceOnUse"
       gradientTransform="matrix(1.3883543,0,0,1.3461631,-465.19049,330.12467)" />
    <linearGradient
       inkscape:collect="always"
       id="linearGradient2230">
      <stop
         style="stop-color:#4e99ca;stop-opacity:0.80000001"
         offset="0"
         id="stop2226" />
      <stop
         style="stop-color:#20ffff;stop-opacity:0.80000001"
         offset="0.50507295"
         id="stop2332" />
      <stop
         style="stop-color:#ffaeff;stop-opacity:0.69"
         offset="1"
         id="stop2228" />
    </linearGradient>
    <linearGradient
       inkscape:collect="always"
       xlink:href="#linearGradient836-2"
       id="linearGradient1251"
       gradientUnits="userSpaceOnUse"
       gradientTransform="matrix(1.3883543,0,0,1.3461631,-443.14465,336.85549)"
       x1="424.37918"
       y1="526.32074"
       x2="426.59464"
       y2="526.32074" />
    <linearGradient
       inkscape:collect="always"
       xlink:href="#linearGradient836-2"
       id="linearGradient1253"
       gradientUnits="userSpaceOnUse"
       gradientTransform="matrix(1.3883543,0,0,1.3461631,-443.14465,336.85549)"
       x1="416.75659"
       y1="519.70386"
       x2="426.59555"
       y2="519.70386" />
    <linearGradient
       inkscape:collect="always"
       xlink:href="#linearGradient836-2"
       id="linearGradient1255"
       gradientUnits="userSpaceOnUse"
       gradientTransform="matrix(1.3883543,0,0,1.3461631,-443.14465,336.85549)"
       x1="415.01718"
       y1="510.59494"
       x2="418.61115"
       y2="510.59494" />
    <linearGradient
       inkscape:collect="always"
       xlink:href="#linearGradient836-2"
       id="linearGradient1257"
       gradientUnits="userSpaceOnUse"
       gradientTransform="matrix(1.3883543,0,0,1.3461631,-443.14465,336.85549)"
       x1="407.18054"
       y1="519.77393"
       x2="416.80774"
       y2="519.77393" />
    <linearGradient
       inkscape:collect="always"
       xlink:href="#linearGradient836-2"
       id="linearGradient921"
       gradientUnits="userSpaceOnUse"
       x1="7.7459998"
       y1="54.16"
       x2="25.666"
       y2="54.16" />
    <linearGradient
       inkscape:collect="always"
       xlink:href="#linearGradient836-2"
       id="linearGradient923"
       gradientUnits="userSpaceOnUse"
       x1="23.604"
       y1="74.839996"
       x2="77.240997"
       y2="74.839996" />
    <linearGradient
       inkscape:collect="always"
       xlink:href="#linearGradient836-2"
       id="linearGradient925"
       gradientUnits="userSpaceOnUse"
       x1="75.172997"
       y1="53.737999"
       x2="92.252998"
       y2="53.737999" />
  </defs>
  <metadata
     id="metadata5458">
    <rdf:RDF>
      <cc:Work
         rdf:about="">
        <dc:format>image/svg+xml</dc:format>
        <dc:type
           rdf:resource="http://purl.org/dc/dcmitype/StillImage" />
      </cc:Work>
    </rdf:RDF>
  </metadata>
  <g
     inkscape:label="Capa 1"
     inkscape:groupmode="layer"
     id="layer1"
     transform="translate(-384.57143,-515.798)">
    <g
       transform="matrix(0.36013848,0,0,0.37142583,359.81878,151.2823)"
       id="g4">
      <rect
         style="fill:#626f9d;fill-opacity:0.2;stroke:none;stroke-width:1.72356"
         id="center-3"
         width="83.440094"
         height="56.538849"
         x="71.507637"
         y="1000.2419"
         ry="5.3846469"
         rx="5.5626888" />
      <path
         d="m 149.48722,997.56266 h -40.71588 c -0.89989,0 -1.68679,-0.44909 -2.24928,-1.236 l -3.03703,-4.49402 c -1.0121,-1.57302 -2.6996,-2.35999 -4.49859,-2.35999 H 78.178605 c -5.174244,0 -9.447682,4.26992 -9.447682,9.4381 v 52.47245 c 0,4.3821 3.5996,8.09 8.098188,8.09 h 34.979659 v 0 0 0 0 0 0 0 h 2.69899 v 0 0 0 0 0 0 0 0 0 h 34.97965 c 4.38653,0 8.09819,-3.596 8.09819,-8.09 v -45.7308 c 0,-4.494 -3.5988,-8.08917 -8.09819,-8.08917 z m -34.97946,61.91054 v 0 h -2.69899 v 0 0 z m 40.37824,-8.0898 c 0,2.9212 -2.36236,5.3931 -5.39859,5.3931 H 76.828708 c -2.924152,0 -5.398588,-2.4719 -5.398588,-5.3931 l -8e-4,-18.09 v -10.2251 c 0,-2.9212 2.47445,-5.3931 5.398588,-5.3931 h 40.715862 c 1.79978,0 3.48652,-0.899 4.4986,-2.36 l 2.92414,-4.494 c 0.56253,-0.674 1.34945,-1.236 2.2493,-1.236 h 20.9203 c 3.71167,0 6.74889,3.034 6.74889,6.7421 v 14.719 z m -6.74889,-44.3824 h -20.9203 c -1.79978,0 -3.48652,0.8989 -4.49859,2.3599 l -2.92415,4.4941 c -0.44955,0.7869 -1.34945,1.236 -2.24929,1.236 H 76.829194 c -2.024137,0 -3.933638,0.2284 -5.39931,2.2916 v -11.756 c 0,-2.6923 2.85447,-5.3846 5.631179,-5.3846 h 22.213682 l 0.05956,0.062 4.105505,-0.062 5.44384,0.017 h 40.71587 c 2.92414,0 5.39859,2.4719 5.39859,5.3931 v 4.1571 c -1.799,-1.7972 -4.16056,-2.8082 -6.86016,-2.8082 z"
         id="path64"
         sodipodi:nodetypes="csccsssssccccccccccccccccccsssccccccccccssccsssccssscccsccscccccccssscc"
         style="fill:url(#linearGradient2232);fill-opacity:1;stroke-width:0.200746" />
      <polygon
         points="7.746,50.739 11.232,54.226 13.218,52.276 13.375,52.437 11.391,54.384 14.769,57.761 17.876,54.654 18.034,54.813 14.927,57.92 18.268,61.26 20.214,59.427 20.369,59.59 18.427,61.419 21.309,64.302 25.666,55.216 14.468,44.018 "
         id="polygon2-6"
         transform="matrix(0.38836443,0,0,0.37656228,115.98111,1019.0712)"
         style="fill:url(#linearGradient921);fill-opacity:1" />
      <polygon
         points="25.465,68.457 27.492,66.545 27.644,66.707 25.624,68.616 29.067,72.06 32.162,68.964 32.32,69.122 29.225,72.218 32.549,75.542 34.542,73.587 34.698,73.747 32.708,75.7 36.073,79.066 39.136,76.006 39.294,76.164 36.232,79.226 39.722,82.715 41.692,80.783 41.848,80.942 39.88,82.873 43.266,86.258 46.362,83.161 46.521,83.32 43.424,86.416 46.829,89.82 48.756,87.93 48.914,88.089 46.987,89.979 50,92.992 53.463,89.529 51.654,87.753 51.811,87.594 53.621,89.371 57.028,85.964 54.012,82.949 54.17,82.79 57.187,85.806 60.57,82.422 58.675,80.563 58.832,80.402 60.729,82.263 64.219,78.771 61.175,75.728 61.333,75.568 64.378,78.613 67.763,75.229 65.838,73.34 65.995,73.181 67.922,75.07 71.233,71.758 68.161,68.687 68.32,68.527 71.392,71.6 74.832,68.16 72.872,66.309 73.026,66.146 74.991,68.002 77.241,65.751 72.862,56.688 50,79.55 27.985,57.534 23.604,66.597 "
         id="polygon4-2"
         transform="matrix(0.38836443,0,0,0.37656228,115.98111,1019.0712)"
         style="fill:url(#linearGradient923);fill-opacity:1" />
      <polygon
         points="92.253,50.739 85.532,44.018 75.173,54.376 79.534,63.458 82.023,60.968 80.149,59.203 80.304,59.039 82.184,60.81 85.522,57.47 82.478,54.425 82.637,54.267 85.682,57.312 89.065,53.926 87.142,52.038 87.298,51.878 89.224,53.768 "
         id="polygon6-9"
         transform="matrix(0.38836443,0,0,0.37656228,115.98111,1019.0712)"
         style="fill:url(#linearGradient925);fill-opacity:1" />
      <path
         d="m 147.35319,1046.3949 c 0.67769,0 1.76667,1.3127 1.76667,1.3127 l -2.31582,-4.6772 -0.76002,0.7369 z"
         id="path8-1"
         style="fill:url(#linearGradient1251);fill-opacity:1;stroke-width:0.382418" />
      <path
         d="m 137.98079,1025.2118 c -0.40662,0.9173 -1.34723,1.5612 -2.44009,1.5612 -0.0264,0 -0.0528,-10e-4 -0.0796,-10e-4 l 3.47275,6.0363 c 0.0214,-0.01 0.0427,-0.012 0.0641,-0.016 0.008,0 0.016,0 0.0245,0 0.0139,0 0.0264,0 0.0404,-0.01 0.01,0 0.0206,0 0.0311,0 0.0111,0 0.0225,0 0.0334,0 0.0111,-5e-4 0.0214,-5e-4 0.0318,0 0.0111,-4e-4 0.0225,-5e-4 0.0326,-5e-4 0.003,0 0.006,0 0.008,0 0.0376,4e-4 0.075,0 0.1126,0.01 0.001,0 0.003,0 0.004,4e-4 0.038,0 0.075,0.011 0.11259,0.02 0.003,5e-4 0.007,0 0.0111,0 0.0361,0.01 0.0726,0.019 0.10829,0.031 0.005,10e-4 0.01,0 0.0143,0.01 0.0357,0.012 0.0715,0.026 0.10649,0.041 0.005,0 0.01,0 0.0155,0.01 0.0354,0.016 0.0707,0.033 0.10565,0.052 0.006,0 0.01,0 0.0147,0.01 0.0357,0.019 0.0715,0.039 0.10649,0.061 0.004,0 0.008,0.01 0.0125,0.01 0.0361,0.023 0.0718,0.046 0.1076,0.071 0.003,0 0.006,0 0.008,0.01 0.0369,0.026 0.0739,0.053 0.11065,0.082 0,0 0,4e-4 3.9e-4,4e-4 0.0385,0.03 0.0761,0.061 0.11412,0.093 0,3e-4 3.9e-4,3e-4 10e-4,10e-4 0.0369,0.031 0.0722,0.063 0.10802,0.096 0.003,0 0.006,0 0.008,0.01 0.0341,0.032 0.0683,0.065 0.10246,0.098 0.003,0 0.007,0.01 0.01,0.011 0.0334,0.033 0.0661,0.067 0.0987,0.1012 0.003,0 0.007,0.01 0.0111,0.011 0.0322,0.034 0.064,0.069 0.0955,0.1043 0.004,0 0.007,0.01 0.0111,0.011 0.0318,0.036 0.0629,0.072 0.094,0.1085 0.003,0 0.006,0.01 0.008,0.01 0.0315,0.038 0.0625,0.075 0.0932,0.1126 0.001,10e-4 0.003,0 0.004,0 0.0644,0.079 0.12578,0.1589 0.18563,0.2376 3.9e-4,3e-4 3.9e-4,3e-4 0.001,10e-4 0.0288,0.038 0.0571,0.077 0.0851,0.1148 0.001,0 0.003,0 0.005,0.01 0.0264,0.037 0.0525,0.073 0.078,0.1092 0.003,0 0.005,0.01 0.007,0.011 0.0245,0.035 0.0493,0.071 0.0726,0.105 0.003,0 0.005,0.01 0.008,0.011 0.0233,0.034 0.0458,0.069 0.0679,0.1016 0.003,0 0.004,0.01 0.007,0.011 0.0225,0.034 0.0431,0.066 0.0637,0.098 10e-4,0 0.003,0.01 0.004,0.01 0.0214,0.033 0.0415,0.064 0.0605,0.095 0.001,5e-4 0.001,10e-4 0.003,0 0.0404,0.064 0.0765,0.1239 0.10913,0.1778 3.9e-4,3e-4 3.9e-4,10e-4 0.001,10e-4 0.0155,0.026 0.0302,0.051 0.0443,0.074 0.001,0 0.003,0 0.003,0.01 0.0139,0.022 0.0249,0.043 0.0365,0.062 0.001,0 0.003,0 0.004,0.01 0.0111,0.019 0.0214,0.036 0.0302,0.052 0.001,0 0.003,0 0.003,0.01 0.008,0.015 0.0171,0.03 0.024,0.042 0.001,0 0.001,0 0.003,0.01 0.007,0.012 0.0125,0.023 0.0175,0.031 0,3e-4 3.9e-4,10e-4 0.001,10e-4 0.004,0.01 0.008,0.015 0.0111,0.02 3.9e-4,10e-4 3.9e-4,10e-4 0.001,0 0.001,0 0.003,0 0.003,0 l 5.50389,11.0467 c 0.6777,0 1.76667,1.3127 1.76667,1.3127 z"
         id="path10-2"
         style="fill:url(#linearGradient1253);fill-opacity:1;stroke-width:0.382418" />
      <path
         d="m 135.5407,1021.7806 c -1.37559,0 -2.49447,1.0848 -2.49447,2.4186 0,0.418 0.11024,0.8115 0.3037,1.1549 0.38914,0.6914 1.11655,1.1791 1.96512,1.2536 0.0337,0 0.0672,0 0.10094,0.01 0.0415,10e-4 0.0832,0 0.12509,0 1.05402,0 1.95619,-0.6371 2.32126,-1.5348 0.1119,-0.2742 0.1736,-0.572 0.1736,-0.8838 -3.9e-4,-1.3342 -1.12005,-2.419 -2.49524,-2.419 z m 0,4.0567 c -0.93286,0 -1.68939,-0.7336 -1.68939,-1.6381 0,-0.9045 0.75614,-1.638 1.68939,-1.638 0.93324,0 1.68977,0.7335 1.68977,1.638 0,0.9045 -0.75653,1.6381 -1.68977,1.6381 z"
         id="path12-7"
         style="fill:url(#linearGradient1255);fill-opacity:1;stroke-width:0.382418" />
      <path
         d="m 133.19653,1025.4042 -7.18241,14.5225 -3.84792,7.7809 c 0,0 1.08936,-1.3127 1.76628,-1.3127 l 2.97875,-5.9771 2.52632,-5.0701 c 0,0 1.36782,-2.5775 2.65369,-2.5775 0.0873,0 0.17476,0.012 0.26098,0.037 l 3.17993,-5.5856 -0.27419,-0.4688 c -0.89363,-0.093 -1.65715,-0.6127 -2.06143,-1.3489 z"
         id="path14-0"
         style="fill:url(#linearGradient1257);fill-opacity:1;stroke-width:0.382418" />
    </g>
  </g>
</svg>
