<?xml version="1.0" encoding="UTF-8" standalone="no"?>
<svg
   width="32"
   version="1.1"
   height="32"
   viewBox="0 0 32 32"
   id="svg15"
   sodipodi:docname="folder-android.svg"
   inkscape:version="1.1.1 (3bf5ae0d25, 2021-09-20)"
   xmlns:inkscape="http://www.inkscape.org/namespaces/inkscape"
   xmlns:sodipodi="http://sodipodi.sourceforge.net/DTD/sodipodi-0.dtd"
   xmlns:xlink="http://www.w3.org/1999/xlink"
   xmlns="http://www.w3.org/2000/svg"
   xmlns:svg="http://www.w3.org/2000/svg"
   xmlns:rdf="http://www.w3.org/1999/02/22-rdf-syntax-ns#"
   xmlns:cc="http://creativecommons.org/ns#"
   xmlns:dc="http://purl.org/dc/elements/1.1/">
  <sodipodi:namedview
     pagecolor="#ffffff"
     bordercolor="#666666"
     borderopacity="1"
     objecttolerance="10"
     gridtolerance="10"
     guidetolerance="10"
     inkscape:pageopacity="0"
     inkscape:pageshadow="2"
     inkscape:window-width="1920"
     inkscape:window-height="1007"
     id="namedview17"
     showgrid="true"
     inkscape:zoom="6.9384853"
     inkscape:cx="-9.6562862"
     inkscape:cy="4.9722668"
     inkscape:window-x="0"
     inkscape:window-y="0"
     inkscape:window-maximized="1"
     inkscape:current-layer="g4"
     inkscape:pagecheckerboard="0">
    <inkscape:grid
       type="xygrid"
       id="grid862" />
  </sodipodi:namedview>
  <defs
     id="defs5455">
    <linearGradient
       inkscape:collect="always"
       xlink:href="#linearGradient2230"
       id="linearGradient2232"
       x1="384.57144"
       y1="515.79797"
       x2="448.57144"
       y2="515.79797"
       gradientUnits="userSpaceOnUse"
       gradientTransform="matrix(1.3883548,0,0,1.3461637,-465.1907,330.12434)" />
    <linearGradient
       inkscape:collect="always"
       id="linearGradient2230">
      <stop
         style="stop-color:#4e99ca;stop-opacity:0.80000001"
         offset="0"
         id="stop2226" />
      <stop
         style="stop-color:#20ffff;stop-opacity:0.80000001"
         offset="0.50507295"
         id="stop2332" />
      <stop
         style="stop-color:#ffaeff;stop-opacity:0.69"
         offset="1"
         id="stop2228" />
    </linearGradient>
  </defs>
  <metadata
     id="metadata5458">
    <rdf:RDF>
      <cc:Work
         rdf:about="">
        <dc:format>image/svg+xml</dc:format>
        <dc:type
           rdf:resource="http://purl.org/dc/dcmitype/StillImage" />
      </cc:Work>
    </rdf:RDF>
  </metadata>
  <g
     inkscape:label="Capa 1"
     inkscape:groupmode="layer"
     id="layer1"
     transform="translate(-384.57143,-515.798)">
    <g
       transform="matrix(0.36013848,0,0,0.37142583,359.81878,151.2823)"
       id="g4">
      <rect
         style="fill:#626f9d;fill-opacity:0.2;stroke:none;stroke-width:1.72356"
         id="center-3"
         width="83.440117"
         height="56.538876"
         x="71.50766"
         y="1000.2421"
         ry="5.3846498"
         rx="5.5626907" />
      <path
         d="m 149.48723,997.56287 h -40.71589 c -0.89989,0 -1.68679,-0.44917 -2.24929,-1.23617 l -3.03702,-4.49406 c -1.0121,-1.57302 -2.6996,-2.35999 -4.498579,-2.35999 H 78.178603 c -5.17424,0 -9.44768,4.26992 -9.44768,9.43848 v 52.47257 c 0,4.3821 3.5996,8.09 8.09819,8.09 h 34.979657 v 0 0 0 0 0 0 0 h 2.69899 v 0 0 0 0 0 0 0 0 0 h 34.97967 c 4.38652,0 8.09819,-3.596 8.09819,-8.09 v -45.7308 c 0,-4.494 -3.5988,-8.08953 -8.09819,-8.08953 z m -34.97947,61.91083 v 0 h -2.69899 v 0 0 z m 40.37826,-8.0897 c 0,2.9211 -2.36237,5.3931 -5.39859,5.3931 H 76.828713 c -2.92416,0 -5.39859,-2.472 -5.39859,-5.3931 l -10e-4,-18.0901 v -10.225 c 0,-2.9212 2.47445,-5.3931 5.39859,-5.3931 h 40.715867 c 1.79978,0 3.48652,-0.899 4.4986,-2.36 l 2.92414,-4.4941 c 0.56253,-0.674 1.34945,-1.236 2.2493,-1.236 h 20.92051 c 3.71167,0 6.74889,3.034 6.74889,6.7421 v 14.719 z m -6.74889,-44.3825 h -20.92031 c -1.79978,0 -3.48652,0.899 -4.49859,2.36 l -2.92416,4.494 c -0.44955,0.7869 -1.34945,1.236 -2.24928,1.236 H 76.829193 c -2.02414,0 -3.93364,0.2284 -5.39931,2.2917 v -11.7561 c 0,-2.6923 2.85447,-5.3846 5.63118,-5.3846 h 22.213694 l 0.05956,0.062 4.105493,-0.062 5.44384,0.017 h 40.71589 c 2.92414,0 5.39859,2.4719 5.39859,5.3931 v 4.1571 c -1.79901,-1.7971 -4.16057,-2.8082 -6.86017,-2.8082 z"
         id="path64"
         sodipodi:nodetypes="csccsssssccccccccccccccccccsssccccccccccssccsssccssscccsccscccccccssscc"
         style="fill:url(#linearGradient2232);fill-opacity:1;stroke-width:0.200746" />
      <path
         clip-rule="evenodd"
         d="m 142.6616,1028.8488 c 0,0.558 -0.46727,1.0098 -1.04178,1.0098 -0.57557,0 -1.04127,-0.4518 -1.04127,-1.0098 0,-0.5581 0.4657,-1.0096 1.04127,-1.0096 0.57451,0 1.04178,0.4515 1.04178,1.0096 z m -6.24863,0 c 0,0.558 -0.46571,1.0098 -1.04126,1.0098 -0.57452,0 -1.04023,-0.4518 -1.04023,-1.0098 0,-0.5581 0.46571,-1.0096 1.04023,-1.0096 0.57555,0 1.04126,0.4515 1.04126,1.0096 z m 14.70433,14.2567 -0.001,-10e-4 c -0.18912,0.1834 -0.45048,0.2978 -0.73877,0.2978 -0.5781,0 -1.04635,-0.454 -1.04635,-1.0146 0,-0.2997 0.13773,-0.5669 0.35287,-0.7528 0.16321,-0.1789 0.26591,-0.4121 0.26591,-0.6699 v -6.059 c 0,-0.5568 -0.46571,-1.0096 -1.04127,-1.0096 -0.57451,0 -1.04126,0.4528 -1.04126,1.0096 v 6.059 2.8435 0.1843 c 0,1.3202 -0.65639,2.4871 -1.66615,3.2241 -0.004,0 -0.006,0.011 -0.0111,0.015 -0.24606,0.1844 -0.40622,0.4743 -0.40622,0.8002 v 3.0293 c 0,1.6717 -1.39869,3.0279 -3.12275,3.0279 -1.72564,0 -3.12431,-1.3562 -3.12431,-3.0279 v -0.051 -2.2213 c 0,-0.4186 -0.34877,-0.7573 -0.78095,-0.7573 h -0.52063 c -0.43115,0 -0.78095,0.3387 -0.78095,0.7573 v 2.2213 0.051 c 0,1.6717 -1.3992,3.0279 -3.12327,3.0279 -1.72563,0 -3.12431,-1.3562 -3.12431,-3.0279 v -3.0293 c 0,-0.3259 -0.15866,-0.6158 -0.40622,-0.8002 -0.004,0 -0.007,-0.011 -0.0111,-0.015 -1.00977,-0.737 -1.66564,-1.9039 -1.66564,-3.2241 v -0.1843 c -0.3274,0.1133 -0.67518,0.1843 -1.04125,0.1843 -1.72457,0 -3.12324,-1.3561 -3.12324,-3.0278 v -6.059 c 0,-1.6017 1.28889,-2.8999 2.91281,-3.0077 0.0682,-0.014 0.13772,-0.02 0.21046,-0.02 h 1.04126 2.08252 5.07616 2.21269 4.16558 c 1.14956,0 2.08252,-0.9046 2.08252,-2.0195 0,-0.4291 -0.14135,-0.8242 -0.37569,-1.1501 -1.32749,-1.75 -3.46039,-2.8888 -5.87234,-2.8888 -2.88027,0 -5.36798,1.6209 -6.55059,3.9721 h -0.003 c -0.17031,0.3375 -0.52519,0.5729 -0.93908,0.5729 -0.5796,0 -1.04941,-0.4563 -1.04941,-1.0178 0,-0.2489 0.0957,-0.4743 0.24912,-0.6507 0.76871,-1.4309 1.91781,-2.6389 3.31648,-3.497 l -1.13226,-1.9014 c -0.28727,-0.4834 -0.1169,-1.1004 0.38129,-1.3798 0.49773,-0.2786 1.13485,-0.1134 1.42257,0.3699 l 1.20799,2.0286 c 0.96909,-0.3305 2.00931,-0.5139 3.09632,-0.5139 1.08552,0 2.1247,0.189 3.0938,0.5186 l 1.21059,-2.0333 c 0.28831,-0.4834 0.92432,-0.6485 1.42309,-0.37 0.49727,0.2795 0.66758,0.8965 0.38084,1.3798 l -1.13634,1.9074 c 0.99955,0.6125 1.87862,1.3924 2.57673,2.3151 0.48705,0.6623 0.78095,1.4658 0.78095,2.3399 0,2.23 -1.86438,4.0377 -4.16401,4.0377 h -10.41323 -1.04126 -3.12379 c -0.57451,0 -1.04178,0.4528 -1.04178,1.0096 v 6.059 c 0,0.5566 0.46727,1.0096 1.04178,1.0096 0.57556,0 1.04127,-0.453 1.04127,-1.0096 v -4.0392 c 0,-0.5571 0.46569,-1.0099 1.04126,-1.0099 0.57556,0 1.04126,0.4528 1.04126,1.0099 v 7.0671 c 0,0.7562 0.43316,1.4069 1.06717,1.7535 0.60958,0.3544 1.01536,0.9963 1.01536,1.7333 v 3.5815 c 0,0.5571 0.46622,1.0086 1.04178,1.0086 0.57451,0 1.04022,-0.4515 1.04022,-1.0086 v -2.5245 c 0,-1.3947 1.16635,-2.5241 2.60368,-2.5241 h 1.04127 c 1.43837,0 2.60316,1.1294 2.60316,2.5241 v 2.5245 c 0,0.5571 0.46623,1.0086 1.04178,1.0086 0.57399,0 1.04127,-0.4515 1.04127,-1.0086 v -3.5815 c 0,-0.737 0.40525,-1.3789 1.01582,-1.7333 0.63249,-0.3466 1.06566,-0.9973 1.06566,-1.7535 v -3.0279 -5.0491 -1.0099 c 0,-1.6719 1.39868,-3.0278 3.12431,-3.0278 1.72564,0 3.12431,1.356 3.12431,3.0279 v 6.059 c 0,0.8365 -0.35032,1.5928 -0.91566,2.1405 z"
         fill="#a4c639"
         fill-rule="evenodd"
         id="path2-3"
         style="fill:#a4c639;fill-opacity:1;stroke-width:0.0640825" />
    </g>
  </g>
</svg>
