<?xml version="1.0" encoding="UTF-8" standalone="no"?>
<svg
   width="32"
   version="1.1"
   height="32"
   viewBox="0 0 32 32"
   id="svg17"
   sodipodi:docname="folder-templates.svg"
   inkscape:version="1.1.1 (3bf5ae0d25, 2021-09-20)"
   xmlns:inkscape="http://www.inkscape.org/namespaces/inkscape"
   xmlns:sodipodi="http://sodipodi.sourceforge.net/DTD/sodipodi-0.dtd"
   xmlns:xlink="http://www.w3.org/1999/xlink"
   xmlns="http://www.w3.org/2000/svg"
   xmlns:svg="http://www.w3.org/2000/svg"
   xmlns:rdf="http://www.w3.org/1999/02/22-rdf-syntax-ns#"
   xmlns:cc="http://creativecommons.org/ns#"
   xmlns:dc="http://purl.org/dc/elements/1.1/">
  <sodipodi:namedview
     pagecolor="#ffffff"
     bordercolor="#666666"
     borderopacity="1"
     objecttolerance="10"
     gridtolerance="10"
     guidetolerance="10"
     inkscape:pageopacity="0"
     inkscape:pageshadow="2"
     inkscape:window-width="1920"
     inkscape:window-height="1007"
     id="namedview19"
     showgrid="true"
     inkscape:zoom="9.8125"
     inkscape:cx="-11.210191"
     inkscape:cy="3.0063694"
     inkscape:window-x="0"
     inkscape:window-y="0"
     inkscape:window-maximized="1"
     inkscape:current-layer="layer1"
     inkscape:pagecheckerboard="0">
    <inkscape:grid
       type="xygrid"
       id="grid838" />
  </sodipodi:namedview>
  <defs
     id="defs5455">
    <linearGradient
       inkscape:collect="always"
       xlink:href="#linearGradient2230"
       id="linearGradient2232"
       x1="384.57144"
       y1="515.79797"
       x2="448.57144"
       y2="515.79797"
       gradientUnits="userSpaceOnUse"
       gradientTransform="matrix(0.4999999,0,0,0.4999999,192.28576,273.89905)" />
    <linearGradient
       inkscape:collect="always"
       id="linearGradient2230">
      <stop
         style="stop-color:#4e99ca;stop-opacity:0.80000001"
         offset="0"
         id="stop2226" />
      <stop
         style="stop-color:#20ffff;stop-opacity:0.80000001"
         offset="0.50507295"
         id="stop2332" />
      <stop
         style="stop-color:#ffaeff;stop-opacity:0.69"
         offset="1"
         id="stop2228" />
    </linearGradient>
    <linearGradient
       inkscape:collect="always"
       xlink:href="#linearGradient2230"
       id="linearGradient1111"
       gradientUnits="userSpaceOnUse"
       gradientTransform="matrix(0.43749994,0,0,0.43749994,226.22771,309.69891)"
       x1="403.07144"
       y1="520.79797"
       x2="430.5"
       y2="520.79797" />
    <linearGradient
       inkscape:collect="always"
       xlink:href="#linearGradient2230"
       id="linearGradient1113"
       gradientUnits="userSpaceOnUse"
       gradientTransform="matrix(0.43749994,0,0,0.43749994,226.22771,309.69891)"
       x1="411.08597"
       y1="520.91626"
       x2="423.2088"
       y2="520.91626" />
    <linearGradient
       inkscape:collect="always"
       xlink:href="#linearGradient2230"
       id="linearGradient1115"
       gradientUnits="userSpaceOnUse"
       gradientTransform="matrix(0.43749994,0,0,0.43749994,226.22771,309.69891)"
       x1="411.08276"
       y1="526.46552"
       x2="416.70187"
       y2="526.46552" />
    <linearGradient
       inkscape:collect="always"
       xlink:href="#linearGradient2230"
       id="linearGradient1117"
       gradientUnits="userSpaceOnUse"
       gradientTransform="matrix(0.43749994,0,0,0.43749994,226.22771,309.69891)"
       x1="417.58969"
       y1="526.46552"
       x2="423.2088"
       y2="526.46552" />
  </defs>
  <metadata
     id="metadata5458">
    <rdf:RDF>
      <cc:Work
         rdf:about="">
        <dc:format>image/svg+xml</dc:format>
        <dc:type
           rdf:resource="http://purl.org/dc/dcmitype/StillImage" />
      </cc:Work>
    </rdf:RDF>
  </metadata>
  <g
     inkscape:label="Capa 1"
     inkscape:groupmode="layer"
     id="layer1"
     transform="translate(-384.57143,-515.798)">
    <rect
       style="fill:#626f9d;fill-opacity:0.2;stroke:none;stroke-width:0.630375"
       id="center-3"
       width="30.049994"
       height="20.999996"
       x="385.57141"
       y="522.79797"
       ry="1.9999976"
       rx="2.0033386" />
    <path
       d="m 413.65488,521.80284 h -14.66335 c -0.32409,0 -0.60748,-0.16681 -0.81006,-0.45909 l -1.09375,-1.66919 c -0.36449,-0.58426 -0.97223,-0.87656 -1.62011,-0.87656 h -7.49371 c -1.86344,0 -3.40247,1.58596 -3.40247,3.50555 v 19.48962 c 0,1.62762 1.29635,3.00483 2.91647,3.00483 h 12.59752 v 0 0 0 0 0 0 0 h 0.97201 v 0 0 0 0 0 0 0 0 0 h 12.59752 c 1.57976,0 2.91647,-1.33563 2.91647,-3.00483 v -16.9856 c 0,-1.66919 -1.29606,-3.00452 -2.91647,-3.00452 z M 401.05743,544.798 v 0 h -0.97201 v 0 0 z m 14.54176,-3.00473 c 0,1.08499 -0.85078,2.00314 -1.94424,2.00314 h -26.1672 c -1.0531,0 -1.94424,-0.91815 -1.94424,-2.00314 l -2.9e-4,-6.71912 v -3.79784 c 0,-1.08501 0.89115,-2.00314 1.94424,-2.00314 h 14.66336 c 0.64817,0 1.25563,-0.33391 1.62012,-0.87656 l 1.05309,-1.6692 c 0.20259,-0.25036 0.48599,-0.45909 0.81006,-0.45909 h 7.53421 c 1.33671,0 2.43053,1.12689 2.43053,2.50418 v 5.46703 z m -2.43053,-16.4848 h -7.53421 c -0.64817,0 -1.25563,0.3339 -1.62011,0.87655 l -1.0531,1.6692 c -0.1619,0.29228 -0.48599,0.45908 -0.81006,0.45908 h -14.66325 c -0.72897,0 -1.41666,0.0848 -1.9445,0.8512 v -4.3665 c 0,-1 1.028,-2 2.028,-2 h 8.00001 l 0.0215,0.0232 1.47855,-0.0232 1.96053,0.006 h 14.66336 c 1.05309,0 1.94424,0.91814 1.94424,2.00314 v 1.54407 c -0.64789,-0.66751 -1.49838,-1.04304 -2.47061,-1.04304 z"
       id="path64"
       sodipodi:nodetypes="csccsssssccccccccccccccccccsssccccccccccssccsssccssscccsccscccccccssscc"
       style="fill:url(#linearGradient2232);fill-opacity:1;stroke-width:0.0734205" />
    <path
       fill-rule="evenodd"
       clip-rule="evenodd"
       d="m 404.07144,534.173 c 0,-0.20709 0.16791,-0.375 0.375,-0.375 0.20709,0 0.375,0.16791 0.375,0.375 0,0.20709 -0.16791,0.375 -0.375,0.375 -0.20709,0 -0.375,-0.16791 -0.375,-0.375 z m 1.5,0 c 0,-0.20709 0.1679,-0.375 0.375,-0.375 0.20709,0 0.375,0.16791 0.375,0.375 0,0.20709 -0.16791,0.375 -0.375,0.375 -0.2071,0 -0.375,-0.16791 -0.375,-0.375 z m 1.5,0 c 0,-0.20709 0.1679,-0.375 0.375,-0.375 0.20709,0 0.375,0.16791 0.375,0.375 0,0.20709 -0.16791,0.375 -0.375,0.375 -0.2071,0 -0.375,-0.16791 -0.375,-0.375 z m 7.49999,2.0625 v 5.0625 c 0,0.82837 -0.67162,1.5 -1.5,1.5 h -8.99999 c -0.82838,0 -1.5,-0.67163 -1.5,-1.5 v -4.125 c 0,-0.2071 0.16791,-0.375 0.375,-0.375 0.20709,0 0.375,0.1679 0.375,0.375 v 4.125 c 0,0.41418 0.33581,0.75 0.75,0.75 h 8.99999 c 0.41419,0 0.75,-0.33582 0.75,-0.75 v -4.875 c 0,-0.2071 -0.1679,-0.375 -0.375,-0.375 h -9.93749 c -0.51783,0 -0.9375,-0.41967 -0.9375,-0.9375 v -1.3125 c 0,-0.82838 0.67162,-1.5 1.5,-1.5 h 8.99999 c 0.82838,0 1.5,0.67162 1.5,1.5 v 0.375 c 0,0.20709 -0.1679,0.375 -0.375,0.375 -0.20709,0 -0.375,-0.16791 -0.375,-0.375 v -0.375 c 0,-0.41419 -0.33581,-0.75 -0.75,-0.75 h -8.99999 c -0.41419,0 -0.75,0.33581 -0.75,0.75 v 1.125 c 0,0.20709 0.1679,0.375 0.375,0.375 h 9.93749 c 0.51783,0 0.9375,0.41967 0.9375,0.9375 z"
       id="path2-7"
       style="fill:url(#linearGradient1111);fill-opacity:1;stroke-width:0.0234375" />
    <path
       d="m 410.81962,536.82992 h -4.1799 a 0.56191024,0.56191024 0 0 0 -0.56192,0.56191 v 0.41582 a 0.56191024,0.56191024 0 0 0 0.56192,0.5619 h 4.1799 a 0.56191024,0.56191024 0 0 0 0.56191,-0.5619 v -0.41582 a 0.56191024,0.56191024 0 0 0 -0.56191,-0.56191 z m 0.28095,0.97773 a 0.28095516,0.28095516 0 0 1 -0.28095,0.28095 h -4.1799 a 0.28095516,0.28095516 0 0 1 -0.28096,-0.28095 v -0.41582 a 0.28095516,0.28095516 0 0 1 0.28096,-0.28096 h 4.1799 a 0.28095516,0.28095516 0 0 1 0.28095,0.28096 z"
       id="path6-5"
       style="fill:url(#linearGradient1113);fill-opacity:1;stroke-width:0.0702385" />
    <path
       d="m 407.97285,538.75797 h -1.33454 a 0.56191024,0.56191024 0 0 0 -0.56191,0.56192 v 1.41531 a 0.56191024,0.56191024 0 0 0 0.56191,0.56191 h 1.33454 a 0.56191024,0.56191024 0 0 0 0.56191,-0.56191 v -1.41531 a 0.56191024,0.56191024 0 0 0 -0.56191,-0.56192 z m 0.28095,1.97652 a 0.28095516,0.28095516 0 0 1 -0.28095,0.28096 h -1.33454 a 0.28095516,0.28095516 0 0 1 -0.28096,-0.28096 v -1.4146 a 0.28095516,0.28095516 0 0 1 0.28096,-0.28096 h 1.33454 a 0.28095516,0.28095516 0 0 1 0.28095,0.28096 z"
       id="path8-3"
       style="fill:url(#linearGradient1115);fill-opacity:1;stroke-width:0.0702385" />
    <path
       d="m 410.81962,538.75797 h -1.33453 a 0.56191024,0.56191024 0 0 0 -0.56191,0.56192 v 1.41531 a 0.56191024,0.56191024 0 0 0 0.56191,0.56191 h 1.33453 a 0.56191024,0.56191024 0 0 0 0.56191,-0.56191 v -1.41531 a 0.56191024,0.56191024 0 0 0 -0.56191,-0.56192 z m 0.28095,1.97652 a 0.28095516,0.28095516 0 0 1 -0.28095,0.28096 h -1.33453 a 0.28095516,0.28095516 0 0 1 -0.28096,-0.28096 v -1.4146 a 0.28095516,0.28095516 0 0 1 0.28096,-0.28096 h 1.33453 a 0.28095516,0.28095516 0 0 1 0.28095,0.28096 z"
       id="path10-5"
       style="fill:url(#linearGradient1117);fill-opacity:1;stroke-width:0.0702385" />
  </g>
</svg>
