<?xml version="1.0" encoding="UTF-8" standalone="no"?>
<svg
   width="32"
   version="1.1"
   height="32"
   viewBox="0 0 32 32"
   id="svg15"
   sodipodi:docname="folder-KDE.svg"
   inkscape:version="1.1.1 (3bf5ae0d25, 2021-09-20)"
   xmlns:inkscape="http://www.inkscape.org/namespaces/inkscape"
   xmlns:sodipodi="http://sodipodi.sourceforge.net/DTD/sodipodi-0.dtd"
   xmlns:xlink="http://www.w3.org/1999/xlink"
   xmlns="http://www.w3.org/2000/svg"
   xmlns:svg="http://www.w3.org/2000/svg"
   xmlns:rdf="http://www.w3.org/1999/02/22-rdf-syntax-ns#"
   xmlns:cc="http://creativecommons.org/ns#"
   xmlns:dc="http://purl.org/dc/elements/1.1/">
  <sodipodi:namedview
     pagecolor="#ffffff"
     bordercolor="#666666"
     borderopacity="1"
     objecttolerance="10"
     gridtolerance="10"
     guidetolerance="10"
     inkscape:pageopacity="0"
     inkscape:pageshadow="2"
     inkscape:window-width="1920"
     inkscape:window-height="1007"
     id="namedview17"
     showgrid="false"
     inkscape:zoom="9.8125"
     inkscape:cx="-13.452229"
     inkscape:cy="8.7133758"
     inkscape:window-x="0"
     inkscape:window-y="0"
     inkscape:window-maximized="1"
     inkscape:current-layer="layer1"
     inkscape:document-rotation="0"
     inkscape:pagecheckerboard="0" />
  <defs
     id="defs5455">
    <linearGradient
       inkscape:collect="always"
       xlink:href="#linearGradient956"
       id="linearGradient2232"
       x1="384.57144"
       y1="515.79797"
       x2="448.57144"
       y2="515.79797"
       gradientUnits="userSpaceOnUse"
       gradientTransform="matrix(0.4999999,0,0,0.4999999,192.28576,273.89905)" />
    <linearGradient
       inkscape:collect="always"
       id="linearGradient956">
      <stop
         style="stop-color:#80b3ff;stop-opacity:1"
         offset="0"
         id="stop950" />
      <stop
         style="stop-color:#20ffff;stop-opacity:0.80000001"
         offset="0.50507295"
         id="stop952" />
      <stop
         style="stop-color:#80e5ff;stop-opacity:1"
         offset="1"
         id="stop954" />
    </linearGradient>
    <linearGradient
       inkscape:collect="always"
       xlink:href="#linearGradient956"
       id="linearGradient1077"
       gradientUnits="userSpaceOnUse"
       gradientTransform="matrix(0.47620554,0,0,0.47620554,209.21393,289.86071)"
       x1="406.56262"
       y1="519.68927"
       x2="429.18661"
       y2="519.68927" />
    <linearGradient
       inkscape:collect="always"
       xlink:href="#linearGradient956"
       id="linearGradient1079"
       gradientUnits="userSpaceOnUse"
       gradientTransform="translate(15.097742)"
       x1="76.020905"
       y1="312.14481"
       x2="418.28314"
       y2="312.14481" />
    <linearGradient
       inkscape:collect="always"
       xlink:href="#linearGradient1020"
       id="linearGradient1081"
       gradientUnits="userSpaceOnUse"
       gradientTransform="matrix(0.04078278,0,0,0.04078278,413.44614,537.19293)"
       x1="12.000006"
       y1="20.578442"
       x2="29.156878"
       y2="20.578442" />
    <linearGradient
       inkscape:collect="always"
       id="linearGradient1020">
      <stop
         style="stop-color:#00ffcc;stop-opacity:0.70950371"
         offset="0"
         id="stop1014" />
      <stop
         style="stop-color:#20ffff;stop-opacity:0.80000001"
         offset="0.50507295"
         id="stop1016" />
      <stop
         style="stop-color:#ffaeff;stop-opacity:0.69"
         offset="1"
         id="stop1018" />
    </linearGradient>
  </defs>
  <metadata
     id="metadata5458">
    <rdf:RDF>
      <cc:Work
         rdf:about="">
        <dc:format>image/svg+xml</dc:format>
        <dc:type
           rdf:resource="http://purl.org/dc/dcmitype/StillImage" />
      </cc:Work>
    </rdf:RDF>
  </metadata>
  <g
     inkscape:label="Capa 1"
     inkscape:groupmode="layer"
     id="layer1"
     transform="translate(-384.57143,-515.798)">
    <rect
       style="fill:#626f9d;fill-opacity:0.2;stroke:none;stroke-width:0.630375"
       id="center-3"
       width="30.049994"
       height="20.999996"
       x="385.57144"
       y="522.7981"
       ry="1.9999976"
       rx="2.0033386" />
    <path
       d="m 413.65488,521.80284 h -14.66335 c -0.32409,0 -0.60748,-0.16681 -0.81006,-0.45909 l -1.09375,-1.66919 c -0.36449,-0.58426 -0.97223,-0.87656 -1.62011,-0.87656 h -7.49371 c -1.86344,0 -3.40247,1.58596 -3.40247,3.50555 v 19.48962 c 0,1.62762 1.29635,3.00483 2.91647,3.00483 h 12.59752 v 0 0 0 0 0 0 0 h 0.97201 v 0 0 0 0 0 0 0 0 0 h 12.59752 c 1.57976,0 2.91647,-1.33563 2.91647,-3.00483 v -16.9856 c 0,-1.66919 -1.29606,-3.00452 -2.91647,-3.00452 z M 401.05743,544.798 v 0 h -0.97201 v 0 0 z m 14.54176,-3.00473 c 0,1.08499 -0.85078,2.00314 -1.94424,2.00314 h -26.1672 c -1.0531,0 -1.94424,-0.91815 -1.94424,-2.00314 l -2.9e-4,-6.71912 v -3.79784 c 0,-1.08501 0.89115,-2.00314 1.94424,-2.00314 h 14.66336 c 0.64817,0 1.25563,-0.33391 1.62012,-0.87656 l 1.05309,-1.6692 c 0.20259,-0.25036 0.48599,-0.45909 0.81006,-0.45909 h 7.53421 c 1.33671,0 2.43053,1.12689 2.43053,2.50418 v 5.46703 z m -2.43053,-16.4848 h -7.53421 c -0.64817,0 -1.25563,0.3339 -1.62011,0.87655 l -1.0531,1.6692 c -0.1619,0.29228 -0.48599,0.45908 -0.81006,0.45908 h -14.66325 c -0.72897,0 -1.41666,0.0848 -1.9445,0.8512 v -4.3665 c 0,-1 1.028,-2 2.028,-2 h 8.00001 l 0.0215,0.0232 1.47855,-0.0232 1.96053,0.006 h 14.66336 c 1.05309,0 1.94424,0.91814 1.94424,2.00314 v 1.54407 c -0.64789,-0.66751 -1.49838,-1.04304 -2.47061,-1.04304 z"
       id="path64"
       sodipodi:nodetypes="csccsssssccccccccccccccccccsssccccccccccssccsssccssscccsccscccccccssscc"
       style="fill:url(#linearGradient2232);fill-opacity:1;stroke-width:0.0734205" />
    <path
       d="m 413.25359,538.93431 v 0 0 0 0 0 0 0 c 0.005,0.005 0,0 0,0 0.72229,0.63654 0.46387,1.46531 -0.0979,2.0194 -0.55334,0.5535 -1.4254,0.58159 -2.01975,0.0987 -0.009,0.005 -0.0185,0.007 -0.0275,0.0107 -0.004,-0.005 -0.006,-0.0103 -0.01,-0.0154 -0.1369,-0.13636 -0.31224,-0.2642 -0.50531,-0.18366 -0.19339,0.0798 -0.23182,0.27861 -0.23182,0.48774 0,0.0187 0.005,0.0358 0.0112,0.0528 -0.0951,0.74494 -0.72681,1.32211 -1.49783,1.32211 -0.78483,0 -1.4298,-0.59751 -1.50611,-1.36238 -0.008,-0.004 -0.0157,-0.008 -0.024,-0.0107 3.8e-4,-0.004 0.002,-0.007 0.002,-0.0106 0,-0.19285 -0.0341,-0.40719 -0.22709,-0.48699 -0.19306,-0.0802 -0.36176,0.0331 -0.50935,0.18104 -0.009,0.009 -0.0134,0.0198 -0.0194,0.0303 -0.59363,0.46482 -1.45053,0.43268 -1.99665,-0.1138 -0.55463,-0.55463 -0.58182,-1.42779 -0.0962,-2.02236 -0.005,-0.0103 -0.008,-0.0213 -0.0124,-0.0323 0.13637,-0.13634 0.26365,-0.31188 0.18365,-0.50475 -0.0802,-0.19287 -0.27932,-0.23205 -0.48829,-0.23205 -0.0138,0 -0.0258,0.005 -0.0387,0.008 -0.74438,-0.0945 -1.32134,-0.72749 -1.32134,-1.49764 0,-0.78778 0.60159,-1.43388 1.37048,-1.50612 0.002,-0.007 0.006,-0.013 0.009,-0.0193 0.19009,-0.002 0.39795,-0.0374 0.47631,-0.22689 0.0798,-0.19252 -0.0323,-0.36026 -0.17994,-0.5077 -0.48428,-0.5938 -0.45708,-1.46622 0.0972,-2.02049 0.55626,-0.55668 1.43481,-0.58233 2.02916,-0.0907 0.006,-0.004 0.0127,-0.005 0.019,-0.007 0.13524,0.13321 0.18277,0.17454 0.18277,0.17454 v 0 0 0 0 0 0 0 0 0 0 0 0 0 0 0.52503 0 0 0 0.3372 c 0,0 -0.22184,0.0419 -0.38996,-0.16806 l -0.23594,-0.23574 c -0.29581,-0.29561 -0.77504,-0.29561 -1.0703,0 -0.2954,0.2956 -0.2954,0.77487 0,1.0701 l 0.26751,0.26771 0.002,0.0113 c 0.17698,0.17292 0.22799,0.44637 0.10438,0.67473 -0.002,0.004 -0.005,0.006 -0.007,0.01 l 0.003,0.0128 c -0.0824,0.16501 -0.15447,0.33682 -0.21358,0.51418 l -0.0114,0.009 c -0.002,0.007 -0.002,0.0131 -0.004,0.0198 -0.0804,0.27011 -0.34399,0.43344 -0.6141,0.39981 h -0.32012 c -0.4181,0 -0.75693,0.33904 -0.75693,0.75677 0,0.41764 0.33883,0.75685 0.75693,0.75685 h 0.37801 l 0.0112,0.008 c 0.24481,-3.8e-4 0.47148,0.15668 0.545,0.40314 0.001,0.002 0.001,0.005 0.001,0.007 l 0.0142,0.0103 c 0.0595,0.177 0.1308,0.34883 0.21393,0.5136 l -0.004,0.0229 c 0.003,0.004 0.006,0.008 0.008,0.0122 0.13247,0.24462 0.0661,0.54319 -0.14375,0.71131 l -0.22983,0.23021 c -0.2954,0.29524 -0.2954,0.77449 0,1.07011 0.29523,0.29523 0.7745,0.29523 1.07029,0 l 0.2677,-0.26751 0.011,-0.002 c 0.17255,-0.1722 0.44303,-0.22062 0.66861,-0.0987 0.002,10e-4 0.002,0.003 0.004,0.004 l 0.0244,-0.004 c 0.165,0.0824 0.33682,0.15445 0.51418,0.21357 l 0.0153,0.0197 c 0.002,10e-4 0.006,10e-4 0.008,0.002 0.2472,0.0732 0.40404,0.3008 0.4033,0.54651 l 0.002,0.003 v 0.37873 c 0,0.41791 0.33866,0.75675 0.75678,0.75675 0.41791,0 0.75695,-0.33884 0.75695,-0.75675 v -0.37875 l 0.002,-0.004 c -10e-4,-0.24574 0.15613,-0.47298 0.40334,-0.54651 0.003,-0.001 0.005,-0.001 0.008,-0.002 l 0.0151,-0.0194 c 0.17696,-0.0595 0.3486,-0.13044 0.51357,-0.21396 l 0.025,0.004 c 0.002,-10e-4 0.002,-0.003 0.004,-0.004 0.22558,-0.12194 0.49607,-0.0735 0.66862,0.0987 l 0.0112,0.002 0.26771,0.26751 c 0.29523,0.29523 0.7745,0.29523 1.07031,0 0.29542,-0.29562 0.4717,-0.58939 0.17628,-0.88463 v 0 0 0 0 c 0.19301,-0.0855 0.35985,-0.25372 0.45566,-0.59968 v 0 0 0 0 0 0 0 z"
       id="path2-7"
       sodipodi:nodetypes="ccccccccccccccscsccscccccccscsccccccccccccccccccccccccccccccccccccccccsssccccccccccccccccccccccsssccccccccccccccccccccccccccccccccccccc"
       style="fill:url(#linearGradient1077);fill-opacity:1;stroke-width:0.0236489" />
    <g
       id="g4-3-5"
       transform="matrix(0.01578307,0,0,0.01578307,405.92236,530.41186)">
      <path
         d="m 370.7276,568.14483 c -17.731,0 -34.454,-7.767 -45.88,-21.309 l -113.729,-134.789 v 96.096 c 0,33.084 -26.916,60 -60,60 -33.08397,0 -59.999951,-26.916 -59.999951,-60 v -391.998 c 0,-33.084027 26.915981,-60.000048 59.999951,-60.000048 33.084,0 60,26.916021 60,60.000048 v 96.097 L 324.8466,77.452794 c 21.335,-25.284012 59.264,-28.500012 84.55,-7.166013 12.25,10.336018 19.74,24.82204 21.094,40.792049 1.353,15.969 -3.594,31.51 -13.929,43.759 l -132.728,157.306 132.729,157.308 c 27.80759,33.25131 18.12,63.214 -7.165,84.549 -10.81,9.121 -24.543,14.144 -38.67,14.144 z m -165.398,-201.22 c 4.419,0 8.614,1.949 11.464,5.327 l 130.982,155.237 c 5.714,6.772 14.079,10.656 22.952,10.656 7.056,0 13.919,-2.512 19.324,-7.072 12.642,-10.667 14.25,-29.632 3.583,-42.275 l -140.891,-166.982 c -4.714,-5.587 -4.714,-13.759 0,-19.346 l 140.89,-166.979 c 5.168,-6.125 7.641,-13.895 6.964,-21.879 -0.676,-7.985 -4.422,-15.228005 -10.546,-20.396014 -12.643,-10.666017 -31.608,-9.059013 -42.276,3.583005 L 207.5836,262.95283 c -4.062,4.814 -10.7,6.578 -16.614,4.416 -5.916,-2.162 -9.851,-7.79 -9.851,-14.088 v -137.136 c 0,-16.542005 -13.458,-30.000022 -30,-30.000022 -16.54199,0 -29.99997,13.458017 -29.99997,30.000022 v 391.999 c 0,16.542 13.45798,30 29.99997,30 16.542,0 30,-13.458 30,-30 v -115.303 c 0,-3.541 1.252,-6.967 3.536,-9.673 l 9.21,-10.917 c 2.851,-3.377 7.045,-5.326 11.465,-5.326 z"
         id="path2-6-3"
         sodipodi:nodetypes="sccsssssscccccccsssccsccccccccccssssssssccs"
         style="fill:url(#linearGradient1079);fill-opacity:1" />
    </g>
    <circle
       cx="414.29712"
       cy="538.04376"
       r="0.52477849"
       id="circle4-5-5"
       style="fill:url(#linearGradient1081);fill-opacity:1;stroke-width:0.0349853" />
  </g>
</svg>
