<?xml version="1.0" encoding="UTF-8" standalone="no"?>
<svg
   width="32"
   version="1.1"
   height="32"
   viewBox="0 0 32 32"
   id="svg15"
   sodipodi:docname="folder-flatpak.svg"
   inkscape:version="1.1.1 (3bf5ae0d25, 2021-09-20)"
   xmlns:inkscape="http://www.inkscape.org/namespaces/inkscape"
   xmlns:sodipodi="http://sodipodi.sourceforge.net/DTD/sodipodi-0.dtd"
   xmlns:xlink="http://www.w3.org/1999/xlink"
   xmlns="http://www.w3.org/2000/svg"
   xmlns:svg="http://www.w3.org/2000/svg"
   xmlns:rdf="http://www.w3.org/1999/02/22-rdf-syntax-ns#"
   xmlns:cc="http://creativecommons.org/ns#"
   xmlns:dc="http://purl.org/dc/elements/1.1/">
  <sodipodi:namedview
     pagecolor="#ffffff"
     bordercolor="#666666"
     borderopacity="1"
     objecttolerance="10"
     gridtolerance="10"
     guidetolerance="10"
     inkscape:pageopacity="0"
     inkscape:pageshadow="2"
     inkscape:window-width="1920"
     inkscape:window-height="1007"
     id="namedview17"
     showgrid="true"
     inkscape:zoom="9.8125"
     inkscape:cx="1.4267516"
     inkscape:cy="1.7834395"
     inkscape:window-x="0"
     inkscape:window-y="0"
     inkscape:window-maximized="1"
     inkscape:current-layer="g4"
     inkscape:pagecheckerboard="0">
    <inkscape:grid
       type="xygrid"
       id="grid862" />
  </sodipodi:namedview>
  <defs
     id="defs5455">
    <linearGradient
       inkscape:collect="always"
       xlink:href="#linearGradient2230"
       id="linearGradient943-3"
       x1="405.82242"
       y1="520.79797"
       x2="427.31488"
       y2="520.79797"
       gradientUnits="userSpaceOnUse"
       gradientTransform="matrix(1.3883549,0,0,1.3461638,-441.24298,336.85512)" />
    <linearGradient
       inkscape:collect="always"
       id="linearGradient2230">
      <stop
         style="stop-color:#4e99ca;stop-opacity:0.80000001"
         offset="0"
         id="stop2226" />
      <stop
         style="stop-color:#20ffff;stop-opacity:0.80000001"
         offset="0.50507295"
         id="stop2332" />
      <stop
         style="stop-color:#ffaeff;stop-opacity:0.69"
         offset="1"
         id="stop2228" />
    </linearGradient>
    <linearGradient
       inkscape:collect="always"
       xlink:href="#linearGradient2230"
       id="linearGradient2232"
       x1="384.57144"
       y1="515.79797"
       x2="448.57144"
       y2="515.79797"
       gradientUnits="userSpaceOnUse"
       gradientTransform="matrix(1.3883549,0,0,1.3461638,-465.19073,330.1243)" />
  </defs>
  <metadata
     id="metadata5458">
    <rdf:RDF>
      <cc:Work
         rdf:about="">
        <dc:format>image/svg+xml</dc:format>
        <dc:type
           rdf:resource="http://purl.org/dc/dcmitype/StillImage" />
      </cc:Work>
    </rdf:RDF>
  </metadata>
  <g
     inkscape:label="Capa 1"
     inkscape:groupmode="layer"
     id="layer1"
     transform="translate(-384.57143,-515.798)">
    <g
       transform="matrix(0.36013848,0,0,0.37142583,359.81878,151.2823)"
       id="g4">
      <path
         style="color:#232629;fill:url(#linearGradient943-3);fill-opacity:1;stroke:none;stroke-width:1.63261"
         d="m 137.1024,1021.7806 -0.43136,0.3217 -14.48848,6.2686 v 19.2882 l 14.91984,6.4294 14.91931,-6.4294 v -19.2882 z m 0,1.8805 v 8.5191 l -0.829,0.5304 -12.43284,-3.4399 z m 13.26185,6.4295 v 16.6038 l -13.26185,5.4653 v -18.0024 z"
         class="ColorScheme-Text"
         id="path12-6" />
      <rect
         style="fill:#626f9d;fill-opacity:0.2;stroke:none;stroke-width:1.72356"
         id="center-3"
         width="83.440125"
         height="56.538879"
         x="71.507622"
         y="1000.242"
         ry="5.3846502"
         rx="5.5626912" />
      <path
         d="m 149.48722,997.56267 h -40.71589 c -0.89989,0 -1.6868,-0.4491 -2.24929,-1.23601 l -3.03703,-4.49402 c -1.01209,-1.57302 -2.6996,-2.35999 -4.498587,-2.35999 H 78.17858 c -5.174246,0 -9.447686,4.26993 -9.447686,9.43811 v 52.47244 c 0,4.3821 3.599602,8.09 8.098191,8.09 h 34.979675 v 0 0 0 0 0 0 0 h 2.69898 v 0 0 0 0 0 0 0 0 0 h 34.97968 c 4.38652,0 8.09819,-3.596 8.09819,-8.09 v -45.7308 c 0,-4.494 -3.5988,-8.08917 -8.09819,-8.08917 z m -34.97948,61.91053 v 0 h -2.69898 v 0 0 z m 40.37827,-8.0897 c 0,2.9211 -2.36237,5.3931 -5.39859,5.3931 H 76.828682 c -2.924153,0 -5.39859,-2.472 -5.39859,-5.3931 l -8e-4,-18.0901 v -10.2251 c 0,-2.9211 2.474451,-5.3931 5.39859,-5.3931 h 40.715878 c 1.79978,0 3.48652,-0.899 4.4986,-2.3599 l 2.92414,-4.4941 c 0.56253,-0.674 1.34945,-1.236 2.2493,-1.236 h 20.92032 c 3.71167,0 6.74889,3.034 6.74889,6.7421 v 14.719 z m -6.74889,-44.3825 H 127.2168 c -1.79978,0 -3.48652,0.8989 -4.49859,2.3599 l -2.92415,4.4941 c -0.44955,0.7869 -1.34945,1.236 -2.24929,1.236 H 76.829168 c -2.024138,0 -3.93364,0.2284 -5.399312,2.2917 v -11.7561 c 0,-2.6923 2.854472,-5.3846 5.631181,-5.3846 h 22.213692 l 0.05956,0.062 4.105501,-0.062 5.44384,0.017 h 40.71589 c 2.92414,0 5.39859,2.4719 5.39859,5.3931 v 4.1571 c -1.799,-1.7971 -4.16056,-2.8082 -6.86016,-2.8082 z"
         id="path64"
         sodipodi:nodetypes="csccsssssccccccccccccccccccsssccccccccccssccsssccssscccsccscccccccssscc"
         style="fill:url(#linearGradient2232);fill-opacity:1;stroke-width:0.200746" />
    </g>
  </g>
</svg>
