<?xml version="1.0" encoding="UTF-8" standalone="no"?>
<svg
   width="32"
   version="1.1"
   height="32"
   viewBox="0 0 32 32"
   id="svg15"
   sodipodi:docname="folder-rpm.svg"
   inkscape:version="1.1.1 (3bf5ae0d25, 2021-09-20)"
   xmlns:inkscape="http://www.inkscape.org/namespaces/inkscape"
   xmlns:sodipodi="http://sodipodi.sourceforge.net/DTD/sodipodi-0.dtd"
   xmlns:xlink="http://www.w3.org/1999/xlink"
   xmlns="http://www.w3.org/2000/svg"
   xmlns:svg="http://www.w3.org/2000/svg"
   xmlns:rdf="http://www.w3.org/1999/02/22-rdf-syntax-ns#"
   xmlns:cc="http://creativecommons.org/ns#"
   xmlns:dc="http://purl.org/dc/elements/1.1/">
  <sodipodi:namedview
     pagecolor="#ffffff"
     bordercolor="#666666"
     borderopacity="1"
     objecttolerance="10"
     gridtolerance="10"
     guidetolerance="10"
     inkscape:pageopacity="0"
     inkscape:pageshadow="2"
     inkscape:window-width="1920"
     inkscape:window-height="1007"
     id="namedview17"
     showgrid="true"
     inkscape:zoom="9.8125"
     inkscape:cx="0.81528662"
     inkscape:cy="1.7834395"
     inkscape:window-x="0"
     inkscape:window-y="0"
     inkscape:window-maximized="1"
     inkscape:current-layer="g4"
     inkscape:pagecheckerboard="0">
    <inkscape:grid
       type="xygrid"
       id="grid862" />
  </sodipodi:namedview>
  <defs
     id="defs5455">
    <linearGradient
       inkscape:collect="always"
       xlink:href="#linearGradient1129"
       id="linearGradient2232-3"
       x1="384.57144"
       y1="515.79797"
       x2="448.57144"
       y2="515.79797"
       gradientUnits="userSpaceOnUse"
       gradientTransform="matrix(1.388355,0,0,1.3461639,-465.19077,330.12425)" />
    <linearGradient
       inkscape:collect="always"
       id="linearGradient1129">
      <stop
         style="stop-color:#ff8080;stop-opacity:1"
         offset="0"
         id="stop1123" />
      <stop
         style="stop-color:#ffaaaa;stop-opacity:1"
         offset="0.50507295"
         id="stop1125" />
      <stop
         style="stop-color:#ff99ff;stop-opacity:1"
         offset="1"
         id="stop1127" />
    </linearGradient>
    <linearGradient
       inkscape:collect="always"
       xlink:href="#linearGradient1129"
       id="linearGradient963"
       x1="420.57144"
       y1="525.79828"
       x2="444.57144"
       y2="525.79828"
       gradientUnits="userSpaceOnUse"
       gradientTransform="matrix(1.388355,0,0,1.3461639,-465.19077,330.12425)" />
  </defs>
  <metadata
     id="metadata5458">
    <rdf:RDF>
      <cc:Work
         rdf:about="">
        <dc:format>image/svg+xml</dc:format>
        <dc:type
           rdf:resource="http://purl.org/dc/dcmitype/StillImage" />
      </cc:Work>
    </rdf:RDF>
  </metadata>
  <g
     inkscape:label="Capa 1"
     inkscape:groupmode="layer"
     id="layer1"
     transform="translate(-384.57143,-515.798)">
    <g
       transform="matrix(0.36013848,0,0,0.37142583,359.81878,151.2823)"
       id="g4">
      <rect
         style="fill:#626f9d;fill-opacity:0.2;stroke:none;stroke-width:1.72357"
         id="center-3-6"
         width="83.440132"
         height="56.538883"
         x="71.507576"
         y="1000.2419"
         ry="5.3846507"
         rx="5.5626917" />
      <path
         d="m 149.48722,997.56267 h -40.71589 c -0.89989,0 -1.6868,-0.4491 -2.24929,-1.23601 l -3.03703,-4.49402 c -1.01209,-1.57302 -2.6996,-2.35999 -4.498587,-2.35999 H 78.178578 c -5.174246,0 -9.447686,4.26993 -9.447686,9.43811 v 52.47244 c 0,4.3821 3.599602,8.09 8.098191,8.09 h 34.979677 v 0 0 0 0 0 0 0 h 2.69899 v 0 0 0 0 0 0 0 0 0 h 34.97967 c 4.38652,0 8.09819,-3.596 8.09819,-8.09 v -45.7308 c 0,-4.494 -3.5988,-8.08917 -8.09819,-8.08917 z m -34.97947,61.91053 v 0 h -2.69899 v 0 0 z m 40.37826,-8.0897 c 0,2.9211 -2.36237,5.3931 -5.39859,5.3931 H 76.828681 c -2.924154,0 -5.398591,-2.472 -5.398591,-5.3931 l -8e-4,-18.0901 v -10.2251 c 0,-2.9211 2.474451,-5.3931 5.398591,-5.3931 h 40.715879 c 1.79978,0 3.48652,-0.899 4.4986,-2.3599 l 2.92414,-4.4941 c 0.56254,-0.674 1.34945,-1.236 2.2493,-1.236 h 20.92032 c 3.71167,0 6.74889,3.034 6.74889,6.7421 v 14.719 z m -6.74889,-44.3825 H 127.2168 c -1.79978,0 -3.48652,0.8989 -4.49859,2.3599 l -2.92415,4.4941 c -0.44955,0.7869 -1.34945,1.236 -2.24929,1.236 H 76.829167 c -2.024138,0 -3.933641,0.2284 -5.399313,2.2917 v -11.7561 c 0,-2.6923 2.854472,-5.3846 5.631182,-5.3846 h 22.213693 l 0.05956,0.062 4.105501,-0.062 5.44384,0.017 h 40.7159 c 2.92414,0 5.39859,2.4719 5.39859,5.3931 v 4.1571 c -1.799,-1.7971 -4.16057,-2.8082 -6.86017,-2.8082 z"
         id="path64-7"
         sodipodi:nodetypes="csccsssssccccccccccccccccccsssccccccccccssccsssccssscccsccscccccccssscc"
         style="opacity:0.739024;fill:url(#linearGradient2232-3);fill-opacity:1;stroke-width:0.200746" />
      <path
         fill-rule="evenodd"
         clip-rule="evenodd"
         d="m 122.87707,1036.9249 c 0,-0.5575 0.46622,-1.0096 1.04127,-1.0096 0.57504,0 1.04126,0.4521 1.04126,1.0096 0,0.5576 -0.46622,1.0096 -1.04126,1.0096 -0.57505,0 -1.04127,-0.452 -1.04127,-1.0096 z m 3.64443,-7.0673 c 0,-0.5576 0.46622,-1.0097 1.04127,-1.0097 0.57504,0 1.04126,0.4521 1.04126,1.0097 0,0.5575 -0.46622,1.0096 -1.04126,1.0096 -0.57505,0 -1.04127,-0.4521 -1.04127,-1.0096 z m 7.8095,-3.0289 c 0,-0.5576 0.46622,-1.0096 1.04126,-1.0096 0.57505,0 1.04127,0.452 1.04127,1.0096 0,0.5576 -0.46622,1.0096 -1.04127,1.0096 -0.57504,0 -1.04126,-0.452 -1.04126,-1.0096 z m 9.57887,3.3163 c 0.41384,0.4008 0.41384,1.051 0,1.4518 l -6.73777,6.5335 c -0.41384,0.4008 -1.08396,0.4008 -1.49734,0 -0.41359,-0.4008 -0.41359,-1.051 0,-1.4518 l 6.73777,-6.5335 c 0.41384,-0.4008 1.08396,-0.4008 1.49734,0 z m 2.91632,5.7703 c 0.57504,0 1.04127,0.4521 1.04127,1.0096 0,0.5576 -0.46623,1.0096 -1.04127,1.0096 -0.57504,0 -1.04126,-0.452 -1.04126,-1.0096 0,-0.5575 0.46622,-1.0096 1.04126,-1.0096 z m -14.57772,10.0962 h 6.24759 c 0.57505,0 1.04127,0.4521 1.04127,1.0097 0,0.5575 -0.46622,1.0096 -1.04127,1.0096 h -6.24759 c -0.57505,0 -1.04127,-0.4521 -1.04127,-1.0096 0,-0.5576 0.46622,-1.0097 1.04127,-1.0097 z m 3.12379,8.077 c -4.59113,0 -8.74833,-1.8013 -11.76175,-4.7138 -0.20923,-0.1849 -0.34297,-0.4486 -0.34297,-0.7444 0,-0.5576 0.46623,-1.0097 1.04127,-1.0097 0.29591,0 0.56156,0.1208 0.75095,0.3131 l 0.004,-0.01 c 2.63805,2.5581 6.28248,4.14 10.30795,4.14 8.051,0 14.57773,-6.3283 14.57773,-14.1347 0,-7.8063 -6.52673,-14.1347 -14.57773,-14.1347 -8.051,0 -14.57773,6.3284 -14.57773,14.1347 0,0.9342 0.11079,1.8408 0.29618,2.7212 0.29461,0.7686 1.05422,1.3173 1.94906,1.3173 h 8.29758 c 0.26136,0 0.49265,-0.1243 0.63452,-0.3155 0.006,-0.01 0.014,-0.012 0.0244,-0.014 0.7555,-1.02 1.98185,-1.6894 3.37598,-1.6894 1.39413,0 2.62048,0.6694 3.37598,1.6894 0.0111,0 0.0193,0.01 0.0244,0.014 0.14188,0.1912 0.37316,0.3155 0.63452,0.3155 h 5.33649 c 0.57504,0 1.04127,0.4521 1.04127,1.0096 0,0.5576 -0.46623,1.0096 -1.04127,1.0096 h -5.4829 c -0.88774,0 -1.67019,-0.4323 -2.14,-1.0904 -0.37062,-0.5576 -1.01328,-0.9288 -1.74848,-0.9288 -0.7352,0 -1.37786,0.3712 -1.74848,0.9288 -0.46981,0.6581 -1.25199,1.0904 -2.14,1.0904 h -8.44401 c -1.95036,0 -3.57552,-1.3049 -4.02854,-3.0599 -0.18963,-0.9721 -0.29923,-1.9719 -0.29923,-2.9978 0,-8.922 7.45891,-16.154 16.66026,-16.154 9.20109,0 16.66026,7.232 16.66026,16.154 0,8.9215 -7.45917,16.154 -16.66026,16.154 z"
         id="path2"
         style="opacity:0.801;fill:url(#linearGradient963);fill-opacity:1;stroke-width:0.0640825" />
    </g>
  </g>
</svg>
