<?xml version="1.0" encoding="UTF-8" standalone="no"?>
<svg
   width="32"
   version="1.1"
   height="32"
   viewBox="0 0 32 32"
   id="svg18"
   sodipodi:docname="folder-image-people.svg"
   inkscape:version="1.1.1 (3bf5ae0d25, 2021-09-20)"
   xmlns:inkscape="http://www.inkscape.org/namespaces/inkscape"
   xmlns:sodipodi="http://sodipodi.sourceforge.net/DTD/sodipodi-0.dtd"
   xmlns:xlink="http://www.w3.org/1999/xlink"
   xmlns="http://www.w3.org/2000/svg"
   xmlns:svg="http://www.w3.org/2000/svg"
   xmlns:rdf="http://www.w3.org/1999/02/22-rdf-syntax-ns#"
   xmlns:cc="http://creativecommons.org/ns#"
   xmlns:dc="http://purl.org/dc/elements/1.1/">
  <sodipodi:namedview
     pagecolor="#ffffff"
     bordercolor="#666666"
     borderopacity="1"
     objecttolerance="10"
     gridtolerance="10"
     guidetolerance="10"
     inkscape:pageopacity="0"
     inkscape:pageshadow="2"
     inkscape:window-width="1920"
     inkscape:window-height="1007"
     id="namedview20"
     showgrid="false"
     inkscape:zoom="9.8125"
     inkscape:cx="-20.280255"
     inkscape:cy="6.1656051"
     inkscape:window-x="0"
     inkscape:window-y="0"
     inkscape:window-maximized="1"
     inkscape:current-layer="layer1"
     inkscape:pagecheckerboard="0" />
  <defs
     id="defs5455">
    <linearGradient
       inkscape:collect="always"
       xlink:href="#linearGradient1087"
       id="linearGradient2232"
       x1="384.57144"
       y1="515.79797"
       x2="448.57144"
       y2="515.79797"
       gradientUnits="userSpaceOnUse"
       gradientTransform="matrix(0.4999999,0,0,0.4999999,192.28575,273.89904)" />
    <linearGradient
       inkscape:collect="always"
       id="linearGradient1087">
      <stop
         style="stop-color:#ccaaff;stop-opacity:1"
         offset="0"
         id="stop1081" />
      <stop
         style="stop-color:#20ffff;stop-opacity:0.80000001"
         offset="0.50507295"
         id="stop1083" />
      <stop
         style="stop-color:#ffaeff;stop-opacity:0.69"
         offset="1"
         id="stop1085" />
    </linearGradient>
    <linearGradient
       inkscape:collect="always"
       xlink:href="#linearGradient2230"
       id="linearGradient1041"
       gradientUnits="userSpaceOnUse"
       x1="402.04343"
       y1="520.79852"
       x2="431.58115"
       y2="520.79852"
       gradientTransform="matrix(0.40626012,0,0,0.40626012,239.23717,326.2437)" />
    <linearGradient
       inkscape:collect="always"
       id="linearGradient2230">
      <stop
         style="stop-color:#4e99ca;stop-opacity:0.80000001"
         offset="0"
         id="stop2226" />
      <stop
         style="stop-color:#20ffff;stop-opacity:0.80000001"
         offset="0.50507295"
         id="stop2332" />
      <stop
         style="stop-color:#ffaeff;stop-opacity:0.69"
         offset="1"
         id="stop2228" />
    </linearGradient>
  </defs>
  <metadata
     id="metadata5458">
    <rdf:RDF>
      <cc:Work
         rdf:about="">
        <dc:format>image/svg+xml</dc:format>
        <dc:type
           rdf:resource="http://purl.org/dc/dcmitype/StillImage" />
      </cc:Work>
    </rdf:RDF>
  </metadata>
  <g
     inkscape:label="Capa 1"
     inkscape:groupmode="layer"
     id="layer1"
     transform="translate(-384.57143,-515.798)">
    <rect
       style="fill:#626f9d;fill-opacity:0.2;stroke:none;stroke-width:0.630375"
       id="center-3"
       width="30.049994"
       height="20.999996"
       x="385.57141"
       y="522.79828"
       ry="1.9999976"
       rx="2.0033386" />
    <path
       d="m 413.65489,521.80284 h -14.66336 c -0.32409,0 -0.60748,-0.16681 -0.81006,-0.45909 l -1.09375,-1.66919 c -0.36449,-0.58426 -0.97222,-0.87656 -1.62011,-0.87656 h -7.4937 c -1.86345,0 -3.40248,1.58596 -3.40248,3.50555 v 19.48962 c 0,1.62762 1.29635,3.00483 2.91647,3.00483 h 12.59752 v 0 0 0 0 0 0 0 h 0.97201 v 0 0 0 0 0 0 0 0 0 h 12.59752 c 1.57976,0 2.91647,-1.33563 2.91647,-3.00483 v -16.9856 c 0,-1.66919 -1.29606,-3.00452 -2.91647,-3.00452 z M 401.05743,544.798 v 0 h -0.97201 v 0 0 z m 14.54176,-3.00473 c 0,1.08499 -0.85077,2.00314 -1.94423,2.00314 h -26.16721 c -1.05309,0 -1.94423,-0.91815 -1.94423,-2.00314 l -2.9e-4,-6.71912 v -3.79784 c 0,-1.08501 0.89114,-2.00314 1.94423,-2.00314 h 14.66336 c 0.64817,0 1.25563,-0.33391 1.62012,-0.87656 l 1.0531,-1.6692 c 0.20259,-0.25036 0.48598,-0.45909 0.81006,-0.45909 h 7.5342 c 1.33672,0 2.43053,1.12689 2.43053,2.50418 v 5.46703 z m -2.43053,-16.4848 h -7.5342 c -0.64817,0 -1.25563,0.3339 -1.62012,0.87655 l -1.0531,1.6692 c -0.1619,0.29228 -0.48599,0.45908 -0.81006,0.45908 h -14.66325 c -0.72897,0 -1.41665,0.0848 -1.9445,0.8512 v -4.3665 c 0,-1 1.02801,-2 2.02801,-2 h 8 l 0.0215,0.0232 1.47854,-0.0232 1.96054,0.006 h 14.66335 c 1.0531,0 1.94425,0.91814 1.94425,2.00314 v 1.54407 c -0.64789,-0.66751 -1.49838,-1.04304 -2.47061,-1.04304 z"
       id="path64"
       sodipodi:nodetypes="csccsssssccccccccccccccccccsssccccccccccssccsssccssscccsccscccccccssscc"
       style="fill:url(#linearGradient2232);fill-opacity:1;stroke-width:0.0734205" />
    <path
       d="m 413.07156,540.82327 h -0.37519 c -0.20727,0 -0.3748,-0.1681 -0.3748,-0.37464 0,-0.20728 0.16753,-0.37538 0.3748,-0.37538 h 0.37519 c 0.4138,0 0.75,-0.33545 0.75,-0.75002 v -1.12467 c 0,-0.03 -0.006,-0.0601 -0.0145,-0.089 -0.003,-0.011 -0.008,-0.0216 -0.0127,-0.033 -0.005,-0.0128 -0.0101,-0.026 -0.0168,-0.0384 -0.0855,-0.17349 -0.29499,-0.34049 -0.55644,-0.38846 -0.33453,-0.12451 -0.78185,-0.20143 -1.27493,-0.20143 -0.47903,0 -0.91426,0.0775 -1.2455,0.19868 -0.16753,0.0245 -0.31493,0.0994 -0.42552,0.19356 l -0.002,-0.002 c -0.061,0.054 -0.14062,0.088 -0.22852,0.088 -0.19081,0 -0.34571,-0.15518 -0.34571,-0.34581 0,-0.1353 0.0782,-0.25123 0.19081,-0.30781 0.20326,-0.14815 0.45008,-0.27577 0.73698,-0.37081 -0.30721,-0.3058 -0.51047,-0.71631 -0.54783,-1.17521 -0.005,-0.0507 -0.008,-0.10182 -0.008,-0.15345 v -1.12486 c 0,-0.8284 0.67142,-1.50004 1.50017,-1.50004 h 0.75 c 0.82818,0 1.49999,0.67166 1.49999,1.50004 v 1.12486 c 0,0.2071 -0.1681,0.3752 -0.37517,0.3752 -0.20729,0 -0.37483,-0.1681 -0.37483,-0.3752 v -1.12486 c 0,-0.41439 -0.3362,-0.75002 -0.74999,-0.75002 h -0.75 c -0.41436,0 -0.75018,0.33563 -0.75018,0.75002 v 1.12486 c 0,0.62149 0.50389,1.12522 1.12482,1.12522 1.38573,0 2.51767,0.61342 2.61564,1.39156 0.006,0.0351 0.01,0.0714 0.01,0.10878 v 1.12467 c -2e-5,0.82875 -0.67183,1.50004 -1.50001,1.50004 z m -3.94242,-3.22377 c -0.004,0.013 -0.009,0.0265 -0.0154,0.0392 -4e-4,3.8e-4 -4e-4,0.002 -0.001,0.002 h -4e-4 c -0.0608,0.12507 -0.1873,0.21205 -0.33562,0.21205 -0.20729,0 -0.3752,-0.1681 -0.3752,-0.3752 0,-0.0536 0.0115,-0.10493 0.0319,-0.15071 l -0.001,-4e-4 c 0.0884,-0.19119 0.13918,-0.40323 0.13918,-0.62791 0,-0.0835 -0.009,-0.16517 -0.0218,-0.24537 0.0141,-0.0676 0.0218,-0.13808 0.0218,-0.21003 v -1.52662 c 0,-0.56214 -0.44768,-1.0181 -1.0001,-1.0181 h -0.99975 c -0.55259,0 -1.00029,0.45594 -1.00029,1.0181 v 1.52662 c 0,0.072 0.008,0.14245 0.0218,0.21003 -0.013,0.0802 -0.0218,0.16186 -0.0218,0.24537 0,0.8284 0.67181,1.50032 1.50018,1.50032 2.391,0 4.34176,0.85511 4.48605,1.93404 0.008,0.0417 0.0141,0.0846 0.0141,0.12818 v 0.9379 c 0,0.82842 -0.6718,1.49969 -1.50017,1.49969 h -6.00015 c -0.82823,-10e-6 -1.50004,-0.67131 -1.50004,-1.4997 v -0.9379 c 0,-0.0436 0.004,-0.0846 0.0106,-0.12525 0.0487,-0.37794 0.32061,-0.72621 0.75091,-1.02029 0.061,-0.0517 0.13861,-0.0846 0.22466,-0.0846 0.19172,0 0.34716,0.15493 0.34716,0.34684 0,0.12267 -0.0637,0.22925 -0.15985,0.29115 l 0.002,0.004 c -0.2708,0.18089 -0.42589,0.38159 -0.42589,0.5885 v 0.9379 c 0,0.41385 0.33617,0.74967 0.74999,0.74967 h 6.00015 c 0.41437,0 0.75,-0.33582 0.75,-0.74967 v -0.9379 c 0,-0.72512 -1.67908,-1.31218 -3.74998,-1.31218 -0.60222,0 -1.14806,-0.23841 -1.55181,-0.62367 -0.10676,-0.10181 -0.20471,-0.21497 -0.28967,-0.33619 -0.0831,-0.1182 -0.15509,-0.24528 -0.21441,-0.37857 -0.002,-0.005 -0.005,-0.009 -0.007,-0.0139 -0.0248,-0.0566 -0.0465,-0.11555 -0.0667,-0.1745 -0.005,-0.0133 -0.0103,-0.026 -0.0145,-0.0395 -0.017,-0.0525 -0.03,-0.10711 -0.043,-0.16168 -0.005,-0.0203 -0.0112,-0.0401 -0.0156,-0.061 -0.013,-0.0622 -0.0216,-0.12598 -0.0298,-0.18971 -0.002,-0.0121 -0.005,-0.0238 -0.005,-0.0358 -0.008,-0.0773 -0.0127,-0.156 -0.0127,-0.23567 0,-0.0416 0.004,-0.0815 0.006,-0.12267 -0.003,-0.0425 -0.006,-0.0844 -0.006,-0.12746 v -1.74982 c 0,-0.96682 0.75586,-1.75017 1.6875,-1.75017 h 1.12517 c 0.93217,0 1.68749,0.78335 1.68749,1.75017 v 1.74982 c 0,0.043 -0.003,0.085 -0.006,0.12746 0.002,0.0412 0.006,0.0811 0.006,0.12267 0,0.32118 -0.0705,0.62496 -0.19226,0.90127 z m -4.12002,1.1612 c 0,0.2069 -0.16809,0.37503 -0.37519,0.37503 -0.20727,0 -0.3748,-0.16813 -0.3748,-0.37503 0,-0.20692 0.16753,-0.37502 0.3748,-0.37502 0.2071,0 0.37519,0.1681 0.37519,0.37502 z"
       id="path2-7"
       style="fill:url(#linearGradient1041);fill-opacity:1;stroke-width:0.0234381" />
  </g>
</svg>
