<?xml version="1.0" encoding="UTF-8" standalone="no"?>
<svg
   width="32"
   version="1.1"
   height="32"
   viewBox="0 0 32 32"
   id="svg15"
   sodipodi:docname="folder-chart.svg"
   inkscape:version="1.1.1 (3bf5ae0d25, 2021-09-20)"
   xmlns:inkscape="http://www.inkscape.org/namespaces/inkscape"
   xmlns:sodipodi="http://sodipodi.sourceforge.net/DTD/sodipodi-0.dtd"
   xmlns:xlink="http://www.w3.org/1999/xlink"
   xmlns="http://www.w3.org/2000/svg"
   xmlns:svg="http://www.w3.org/2000/svg"
   xmlns:rdf="http://www.w3.org/1999/02/22-rdf-syntax-ns#"
   xmlns:cc="http://creativecommons.org/ns#"
   xmlns:dc="http://purl.org/dc/elements/1.1/">
  <sodipodi:namedview
     pagecolor="#ffffff"
     bordercolor="#666666"
     borderopacity="1"
     objecttolerance="10"
     gridtolerance="10"
     guidetolerance="10"
     inkscape:pageopacity="0"
     inkscape:pageshadow="2"
     inkscape:window-width="1920"
     inkscape:window-height="1007"
     id="namedview17"
     showgrid="true"
     inkscape:zoom="9.8125"
     inkscape:cx="-27.006369"
     inkscape:cy="18.089172"
     inkscape:window-x="0"
     inkscape:window-y="0"
     inkscape:window-maximized="1"
     inkscape:current-layer="g4"
     inkscape:pagecheckerboard="0">
    <inkscape:grid
       type="xygrid"
       id="grid862" />
  </sodipodi:namedview>
  <defs
     id="defs5455">
    <linearGradient
       inkscape:collect="always"
       xlink:href="#linearGradient2230"
       id="linearGradient2232"
       x1="384.57144"
       y1="515.79797"
       x2="448.57144"
       y2="515.79797"
       gradientUnits="userSpaceOnUse"
       gradientTransform="matrix(1.3883542,0,0,1.3461632,-465.19046,330.12463)" />
    <linearGradient
       inkscape:collect="always"
       id="linearGradient2230">
      <stop
         style="stop-color:#4e99ca;stop-opacity:0.80000001"
         offset="0"
         id="stop2226" />
      <stop
         style="stop-color:#20ffff;stop-opacity:0.80000001"
         offset="0.50507295"
         id="stop2332" />
      <stop
         style="stop-color:#ffaeff;stop-opacity:0.69"
         offset="1"
         id="stop2228" />
    </linearGradient>
    <linearGradient
       inkscape:collect="always"
       xlink:href="#linearGradient2230"
       id="linearGradient1018"
       gradientUnits="userSpaceOnUse"
       gradientTransform="matrix(1.3883542,0,0,1.3461632,-444.78162,336.85545)"
       x1="403.87143"
       y1="520.79797"
       x2="429.47144"
       y2="520.79797" />
  </defs>
  <metadata
     id="metadata5458">
    <rdf:RDF>
      <cc:Work
         rdf:about="">
        <dc:format>image/svg+xml</dc:format>
        <dc:type
           rdf:resource="http://purl.org/dc/dcmitype/StillImage" />
      </cc:Work>
    </rdf:RDF>
  </metadata>
  <g
     inkscape:label="Capa 1"
     inkscape:groupmode="layer"
     id="layer1"
     transform="translate(-384.57143,-515.798)">
    <g
       transform="matrix(0.36013848,0,0,0.37142583,359.81878,151.2823)"
       id="g4">
      <rect
         style="fill:#626f9d;fill-opacity:0.2;stroke:none;stroke-width:1.72356"
         id="center-3"
         width="83.440086"
         height="56.538853"
         x="71.507622"
         y="1000.2421"
         ry="5.3846478"
         rx="5.5626884" />
      <path
         d="m 149.4872,997.56266 h -40.71588 c -0.89989,0 -1.68679,-0.44909 -2.24929,-1.236 l -3.03702,-4.49402 c -1.0121,-1.57302 -2.6996,-2.35999 -4.498586,-2.35999 H 78.17859 c -5.174243,0 -9.447683,4.26992 -9.447683,9.43829 v 52.47256 c 0,4.3821 3.599602,8.09 8.098189,8.09 h 34.979654 v 0 0 0 0 0 0 0 h 2.69899 v 0 0 0 0 0 0 0 0 0 h 34.97965 c 4.38652,0 8.09819,-3.5959 8.09819,-8.09 v -45.7308 c 0,-4.494 -3.5988,-8.08944 -8.09819,-8.08944 z m -34.97946,61.91084 v 0 h -2.69899 v 0 0 z m 40.37824,-8.0897 c 0,2.9211 -2.36237,5.3931 -5.39859,5.3931 H 76.828693 c -2.924151,0 -5.398587,-2.472 -5.398587,-5.3931 l -8e-4,-18.0901 v -10.225 c 0,-2.9212 2.47445,-5.3931 5.398587,-5.3931 h 40.715857 c 1.79978,0 3.48652,-0.899 4.4986,-2.36 l 2.92414,-4.494 c 0.56253,-0.6741 1.34945,-1.2361 2.2493,-1.2361 h 20.92031 c 3.71166,0 6.74888,3.034 6.74888,6.7421 v 14.719 z m -6.74889,-44.3825 h -20.9203 c -1.79978,0 -3.48652,0.899 -4.49859,2.36 l -2.92415,4.494 c -0.44955,0.7869 -1.34945,1.236 -2.24929,1.236 H 76.829179 c -2.024137,0 -3.933637,0.2284 -5.399309,2.2917 v -11.7561 c 0,-2.6923 2.85447,-5.3846 5.631178,-5.3846 h 22.213681 l 0.05956,0.062 4.105501,-0.062 5.44384,0.017 h 40.71587 c 2.92414,0 5.39859,2.4719 5.39859,5.3931 v 4.1572 c -1.799,-1.7972 -4.16057,-2.8083 -6.86017,-2.8083 z"
         id="path64"
         sodipodi:nodetypes="csccsssssccccccccccccccccccsssccccccccccssccsssccssscccsccscccccccssscc"
         style="fill:url(#linearGradient2232);fill-opacity:1;stroke-width:0.200746" />
      <path
         d="m 150.36616,1047.6273 c -0.61337,0 -1.11068,-0.4822 -1.11068,-1.077 v -17.2309 c 0,-0.5947 -0.49731,-1.0769 -1.11068,-1.0769 h -2.22137 c -0.61338,0 -1.11068,0.4822 -1.11068,1.0769 v 22.0771 c 0,1.4871 -1.243,2.6923 -2.77671,2.6923 h -1.11069 c -1.53371,0 -2.7767,-1.2052 -2.7767,-2.6923 v -11.3078 c 0,-0.5947 -0.49731,-1.0769 -1.11069,-1.0769 h -2.22136 c -0.61338,0 -1.11069,0.4822 -1.11069,1.0769 v 11.3078 c 0,1.4871 -1.24299,2.6923 -2.77671,2.6923 h -1.11068 c -1.53371,0 -2.77671,-1.2052 -2.77671,-2.6923 v -7 c 0,-0.5948 -0.49731,-1.077 -1.11068,-1.077 h -2.22137 c -0.61337,0 -1.11068,0.4822 -1.11068,1.077 v 7.5385 c 0,1.1894 -0.99469,2.1538 -2.22137,2.1538 -2.4535,0 -4.44273,-1.9287 -4.44273,-4.3077 v -19.3847 -7.5386 c 0,-0.5947 0.49731,-1.0769 1.11068,-1.0769 0.61338,0 1.11069,0.4822 1.11069,1.0769 v 3.8119 3.7267 19.3847 c 0,1.1895 0.85578,2.1539 1.66602,2.1539 0.30697,0 0.55534,-0.2409 0.55534,-0.5385 v -7.5385 c 0,-1.4871 1.243,-2.6923 2.77671,-2.6923 h 3.33205 c 1.53372,0 2.77671,1.2052 2.77671,2.6923 v 7 c 0,0.5948 0.49731,1.077 1.11068,1.077 0.61338,0 1.11069,-0.4822 1.11069,-1.077 v -11.3077 c 0,-1.4871 1.24299,-2.6924 2.7767,-2.6924 h 3.33205 c 1.53372,0 2.77671,1.2053 2.77671,2.6924 v 11.3077 c 0,0.5948 0.49731,1.077 1.11069,1.077 0.61337,0 1.11068,-0.4822 1.11068,-1.077 v -22.077 c 0,-1.4871 1.24299,-2.6924 2.77671,-2.6924 h 3.33205 c 1.53371,0 2.77671,1.2053 2.77671,2.6924 v 17.7693 c 0,0.5948 -0.49731,1.077 -1.11069,1.077 z m 0,2.1538 c 0.61338,0 1.11069,0.4822 1.11069,1.0769 0,0.5948 -0.49731,1.077 -1.11069,1.077 -0.61337,0 -1.11068,-0.4822 -1.11068,-1.077 0,-0.5947 0.49731,-1.0769 1.11068,-1.0769 z"
         id="path2-7"
         style="fill:url(#linearGradient1018);fill-opacity:1;stroke-width:0.068355" />
    </g>
  </g>
</svg>
