<?xml version="1.0" encoding="UTF-8" standalone="no"?>
<svg
   width="32"
   version="1.1"
   height="32"
   viewBox="0 0 32 32"
   id="svg17"
   sodipodi:docname="folder-script.svg"
   inkscape:version="1.1.1 (3bf5ae0d25, 2021-09-20)"
   xmlns:inkscape="http://www.inkscape.org/namespaces/inkscape"
   xmlns:sodipodi="http://sodipodi.sourceforge.net/DTD/sodipodi-0.dtd"
   xmlns:xlink="http://www.w3.org/1999/xlink"
   xmlns="http://www.w3.org/2000/svg"
   xmlns:svg="http://www.w3.org/2000/svg"
   xmlns:rdf="http://www.w3.org/1999/02/22-rdf-syntax-ns#"
   xmlns:cc="http://creativecommons.org/ns#"
   xmlns:dc="http://purl.org/dc/elements/1.1/">
  <sodipodi:namedview
     pagecolor="#ffffff"
     bordercolor="#666666"
     borderopacity="1"
     objecttolerance="10"
     gridtolerance="10"
     guidetolerance="10"
     inkscape:pageopacity="0"
     inkscape:pageshadow="2"
     inkscape:window-width="1920"
     inkscape:window-height="1007"
     id="namedview19"
     showgrid="false"
     inkscape:zoom="8.9988849"
     inkscape:cx="-17.002107"
     inkscape:cy="2.9448093"
     inkscape:window-x="0"
     inkscape:window-y="0"
     inkscape:window-maximized="1"
     inkscape:current-layer="layer1"
     inkscape:pagecheckerboard="0" />
  <defs
     id="defs5455">
    <linearGradient
       inkscape:collect="always"
       xlink:href="#linearGradient2230"
       id="linearGradient2232"
       x1="384.57144"
       y1="515.79797"
       x2="448.57144"
       y2="515.79797"
       gradientUnits="userSpaceOnUse"
       gradientTransform="matrix(0.5,0,0,0.5,192.28572,273.899)" />
    <linearGradient
       inkscape:collect="always"
       id="linearGradient2230">
      <stop
         style="stop-color:#4e99ca;stop-opacity:0.80000001"
         offset="0"
         id="stop2226" />
      <stop
         style="stop-color:#20ffff;stop-opacity:0.80000001"
         offset="0.50507295"
         id="stop2332" />
      <stop
         style="stop-color:#ffaeff;stop-opacity:0.69"
         offset="1"
         id="stop2228" />
    </linearGradient>
    <linearGradient
       inkscape:collect="always"
       xlink:href="#linearGradient2230"
       id="linearGradient1013"
       gradientUnits="userSpaceOnUse"
       gradientTransform="matrix(0.5,0,0,0.5,201.54121,276.39898)"
       x1="406.06042"
       y1="520.79797"
       x2="426.1261"
       y2="520.79797" />
  </defs>
  <metadata
     id="metadata5458">
    <rdf:RDF>
      <cc:Work
         rdf:about="">
        <dc:format>image/svg+xml</dc:format>
        <dc:type
           rdf:resource="http://purl.org/dc/dcmitype/StillImage" />
      </cc:Work>
    </rdf:RDF>
  </metadata>
  <g
     inkscape:label="Capa 1"
     inkscape:groupmode="layer"
     id="layer1"
     transform="translate(-384.57143,-515.798)">
    <rect
       style="fill:#626f9d;fill-opacity:0.2;stroke:none;stroke-width:0.630375"
       id="center-3"
       width="30.049999"
       height="21"
       x="385.57144"
       y="522.79791"
       ry="1.999998"
       rx="2.0033391" />
    <path
       d="m 413.65489,521.80284 h -14.66336 c -0.32409,0 -0.60748,-0.16681 -0.81006,-0.45909 l -1.09375,-1.66919 c -0.36449,-0.58426 -0.97223,-0.87656 -1.62011,-0.87656 h -7.49371 c -1.86344,0 -3.40247,1.58596 -3.40247,3.50555 v 19.48963 c 0,1.62761 1.29635,3.00482 2.91647,3.00482 h 12.59752 v 0 0 0 0 0 0 0 h 0.97201 v 0 0 0 0 0 0 0 0 0 h 12.59753 c 1.57975,0 2.91647,-1.33563 2.91647,-3.00482 v -16.98561 c 0,-1.6692 -1.29607,-3.00453 -2.91647,-3.00453 z M 401.05743,544.798 v 0 h -0.97201 v 0 0 z m 14.54177,-3.00473 c 0,1.08499 -0.85078,2.00314 -1.94424,2.00314 h -26.16721 c -1.0531,0 -1.94424,-0.91815 -1.94424,-2.00314 l -2.9e-4,-6.71912 v -3.79784 c 0,-1.08501 0.89115,-2.00314 1.94424,-2.00314 h 14.66336 c 0.64817,0 1.25563,-0.33391 1.62012,-0.87656 l 1.05309,-1.66919 c 0.20259,-0.25036 0.48599,-0.45909 0.81006,-0.45909 h 7.53421 c 1.33672,0 2.43054,1.12689 2.43054,2.50417 v 5.46704 z m -2.43054,-16.4848 h -7.53421 c -0.64817,0 -1.25563,0.33391 -1.62011,0.87655 l -1.0531,1.6692 c -0.1619,0.29228 -0.48599,0.45909 -0.81006,0.45909 h -14.66325 c -0.72897,0 -1.41666,0.0848 -1.9445,0.85118 V 524.798 c 0,-1 1.028,-2 2.028,-2 h 8.00001 l 0.0215,0.0232 1.47855,-0.0232 1.96053,0.006 h 14.66336 c 1.0531,0 1.94424,0.91814 1.94424,2.00314 v 1.54407 c -0.64789,-0.66752 -1.49838,-1.04305 -2.47061,-1.04305 z"
       id="path64"
       sodipodi:nodetypes="csccsssssccccccccccccccccccsssccccccccccssccsssccssscccsccscccccccssscc"
       style="fill:url(#linearGradient2232);fill-opacity:1;stroke-width:0.0734205" />
    <path
       d="m 414.60425,538.62695 c 0,0.3914 -0.17398,0.75723 -0.47734,1.00369 l -3.40605,2.76713 c -0.63817,0.53361 -1.63103,0.53361 -2.26915,0 l -3.40606,-2.76713 c -0.63236,-0.4953 -0.63226,-1.51214 0,-2.00738 l 1.01586,-0.82529 -1.01586,-0.82529 c -0.63236,-0.4953 -0.63226,-1.51214 0,-2.00738 l 3.40603,-2.7671 c 0.63818,-0.53362 1.63103,-0.53362 2.26916,-3e-5 l 3.40605,2.76713 c 0.63236,0.4953 0.63226,1.51214 0,2.00738 -0.49863,0.37309 -1.05851,-0.31688 -0.59144,-0.72799 0.17549,-0.14504 0.17575,-0.4061 0,-0.55143 l -3.40601,-2.76709 c -0.3147,-0.25568 -0.77154,-0.25568 -1.08634,0 l -3.40601,2.76711 c -0.17549,0.14506 -0.17574,0.40611 0,0.55145 l 3.40603,2.7671 c 0.3147,0.25565 0.77155,0.2557 1.08635,0 0.002,-0.002 0.004,-0.003 0.006,-0.005 l 0.54459,-0.42888 c 0.20351,-0.16023 0.49835,-0.12514 0.6586,0.0783 0.16024,0.20348 0.12519,0.49836 -0.0783,0.6586 l -0.54189,0.42677 c -0.63824,0.53138 -1.62913,0.53037 -2.26627,-0.003 l -1.64646,-1.3376 -1.16815,0.94903 c -0.17549,0.14506 -0.17575,0.40611 0,0.55145 l 3.406,2.76708 c 0.3147,0.25566 0.77155,0.25571 1.08635,0 l 3.406,-2.76711 c 0.17549,-0.14505 0.17575,-0.40611 0,-0.55143 l -3.40603,-2.76709 c -0.3147,-0.25569 -0.77154,-0.25569 -1.08634,0 -0.002,0.002 -0.003,0.003 -0.006,0.005 l -0.54459,0.42888 c -0.20349,0.16026 -0.49833,0.12516 -0.6586,-0.0783 -0.16025,-0.20348 -0.12519,-0.49835 0.0783,-0.65859 l 0.5419,-0.42677 c 0.63824,-0.53139 1.62913,-0.53037 2.26627,0.003 l 3.40605,2.76712 c 0.30338,0.24648 0.47737,0.6123 0.47737,1.00369 z"
       id="path2-7"
       style="fill:url(#linearGradient1013);fill-opacity:1;stroke-width:0.0234485" />
  </g>
</svg>
