<?xml version="1.0" encoding="UTF-8" standalone="no"?>
<svg
   width="32"
   version="1.1"
   height="32"
   viewBox="0 0 32 32"
   id="svg2"
   inkscape:version="1.1.1 (3bf5ae0d25, 2021-09-20)"
   sodipodi:docname="folder-gdrive.svg"
   xmlns:inkscape="http://www.inkscape.org/namespaces/inkscape"
   xmlns:sodipodi="http://sodipodi.sourceforge.net/DTD/sodipodi-0.dtd"
   xmlns:xlink="http://www.w3.org/1999/xlink"
   xmlns="http://www.w3.org/2000/svg"
   xmlns:svg="http://www.w3.org/2000/svg"
   xmlns:rdf="http://www.w3.org/1999/02/22-rdf-syntax-ns#"
   xmlns:cc="http://creativecommons.org/ns#"
   xmlns:dc="http://purl.org/dc/elements/1.1/">
  <sodipodi:namedview
     pagecolor="#ffffff"
     bordercolor="#666666"
     borderopacity="1"
     objecttolerance="10"
     gridtolerance="10"
     guidetolerance="10"
     inkscape:pageopacity="0"
     inkscape:pageshadow="2"
     inkscape:window-width="1920"
     inkscape:window-height="1007"
     id="namedview46"
     showgrid="false"
     inkscape:zoom="10.429825"
     inkscape:cx="-17.929352"
     inkscape:cy="6.3759459"
     inkscape:window-x="0"
     inkscape:window-y="0"
     inkscape:window-maximized="1"
     inkscape:current-layer="layer1"
     inkscape:document-rotation="0"
     inkscape:pagecheckerboard="0" />
  <defs
     id="defs5455">
    <linearGradient
       inkscape:collect="always"
       xlink:href="#linearGradient2230"
       id="linearGradient2232"
       x1="384.57144"
       y1="515.79797"
       x2="448.57144"
       y2="515.79797"
       gradientUnits="userSpaceOnUse"
       gradientTransform="matrix(0.4999999,0,0,0.4999999,192.28575,273.89904)" />
    <linearGradient
       inkscape:collect="always"
       id="linearGradient2230">
      <stop
         style="stop-color:#4e99ca;stop-opacity:0.80000001"
         offset="0"
         id="stop2226" />
      <stop
         style="stop-color:#20ffff;stop-opacity:0.80000001"
         offset="0.50507295"
         id="stop2332" />
      <stop
         style="stop-color:#ffaeff;stop-opacity:0.69"
         offset="1"
         id="stop2228" />
    </linearGradient>
    <linearGradient
       inkscape:collect="always"
       xlink:href="#linearGradient2230"
       id="linearGradient1013"
       gradientUnits="userSpaceOnUse"
       gradientTransform="matrix(0.4374983,0,0,0.4374983,226.12026,309.69973)"
       x1="403.31842"
       y1="520.79797"
       x2="430.7471"
       y2="520.79797" />
  </defs>
  <metadata
     id="metadata5458">
    <rdf:RDF>
      <cc:Work
         rdf:about="">
        <dc:format>image/svg+xml</dc:format>
        <dc:type
           rdf:resource="http://purl.org/dc/dcmitype/StillImage" />
      </cc:Work>
    </rdf:RDF>
  </metadata>
  <g
     inkscape:label="Capa 1"
     inkscape:groupmode="layer"
     id="layer1"
     transform="translate(-384.57143,-515.798)">
    <rect
       style="fill:#626f9d;fill-opacity:0.2;stroke:none;stroke-width:0.630375"
       id="center-3"
       width="30.049994"
       height="20.999996"
       x="385.57144"
       y="522.79791"
       ry="1.9999976"
       rx="2.0033386" />
    <path
       d="m 413.65488,521.80284 h -14.66335 c -0.32409,0 -0.60748,-0.16681 -0.81006,-0.45909 l -1.09375,-1.66919 c -0.36449,-0.58426 -0.97223,-0.87656 -1.62011,-0.87656 h -7.49371 c -1.86344,0 -3.40247,1.58596 -3.40247,3.50555 v 19.48962 c 0,1.62762 1.29635,3.00483 2.91647,3.00483 h 12.59752 v 0 0 0 0 0 0 0 h 0.97201 v 0 0 0 0 0 0 0 0 0 h 12.59752 c 1.57976,0 2.91647,-1.33563 2.91647,-3.00483 v -16.9856 c 0,-1.66919 -1.29606,-3.00452 -2.91647,-3.00452 z M 401.05743,544.798 v 0 h -0.97201 v 0 0 z m 14.54176,-3.00473 c 0,1.08499 -0.85078,2.00314 -1.94424,2.00314 h -26.1672 c -1.0531,0 -1.94424,-0.91815 -1.94424,-2.00314 l -2.9e-4,-6.71912 v -3.79784 c 0,-1.08501 0.89115,-2.00314 1.94424,-2.00314 h 14.66336 c 0.64817,0 1.25563,-0.33391 1.62012,-0.87656 l 1.05309,-1.6692 c 0.20259,-0.25036 0.48599,-0.45909 0.81006,-0.45909 h 7.53421 c 1.33671,0 2.43053,1.12689 2.43053,2.50418 v 5.46703 z m -2.43053,-16.4848 h -7.53421 c -0.64817,0 -1.25563,0.3339 -1.62011,0.87655 l -1.0531,1.6692 c -0.1619,0.29228 -0.48599,0.45908 -0.81006,0.45908 h -14.66325 c -0.72897,0 -1.41666,0.0848 -1.9445,0.8512 v -4.3665 c 0,-1 1.028,-2 2.028,-2 h 8.00001 l 0.0215,0.0232 1.47855,-0.0232 1.96053,0.006 h 14.66336 c 1.05309,0 1.94424,0.91814 1.94424,2.00314 v 1.54407 c -0.64789,-0.66751 -1.49838,-1.04304 -2.47061,-1.04304 z"
       id="path64"
       sodipodi:nodetypes="csccsssssccccccccccccccccccsssccccccccccssccsssccssscccsccscccccccssscc"
       style="fill:url(#linearGradient2232);fill-opacity:1;stroke-width:0.0734205" />
    <path
       fill-rule="evenodd"
       clip-rule="evenodd"
       d="m 414.14376,538.2024 -4.7682,2.00774 c -0.25028,0.0958 -0.52052,0.15052 -0.80395,0.15052 -0.28286,0 -0.55274,-0.0551 -0.80184,-0.14979 l -4.77106,-2.00885 c -0.0795,-0.0344 -0.15307,-0.084 -0.21787,-0.14849 -0.27921,-0.27905 -0.27921,-0.73151 0,-1.01074 0.0661,-0.0659 0.14262,-0.11609 0.22283,-0.15052 l 0.59843,-0.25176 c 0.0555,-0.0333 0.11936,-0.0535 0.18822,-0.0535 0.20395,0 0.36927,0.16517 0.36927,0.36914 0,0.16536 -0.10894,0.30324 -0.2587,0.35065 l -0.18712,0.0778 c -0.0588,0.0315 -0.099,0.0925 -0.099,0.16353 0,0.0694 0.0383,0.12944 0.095,0.16185 l 4.25399,1.7752 c 0.0122,0.005 0.0231,0.007 0.0353,0.0123 0.17651,0.073 0.36946,0.11297 0.57253,0.11297 0.20102,0 0.39274,-0.0395 0.56813,-0.11133 0.0146,-0.006 0.0276,-0.01 0.0419,-0.0152 l 4.25168,-1.77393 c 0.0568,-0.0324 0.095,-0.0925 0.095,-0.16186 0,-0.0714 -0.0405,-0.13202 -0.0992,-0.16352 l -0.18748,-0.0782 c -0.14939,-0.047 -0.25833,-0.18549 -0.25833,-0.35027 0,-0.20398 0.16533,-0.36914 0.36931,-0.36914 0.0697,0 0.13455,0.0205 0.19003,0.0542 l 0.59814,0.25195 c 0.08,0.0344 0.15563,0.084 0.22118,0.1496 0.27921,0.27923 0.27921,0.73169 0,1.01074 -0.0652,0.0649 -0.13875,0.11447 -0.21823,0.1489 z m 0.001,-2.43822 -4.77554,2.01067 c -0.24789,0.0941 -0.5163,0.14831 -0.79753,0.14831 -0.2803,0 -0.5478,-0.0536 -0.79541,-0.14702 l -4.7784,-2.01196 c -0.0791,-0.0348 -0.15216,-0.0837 -0.21696,-0.14794 -0.27921,-0.27923 -0.27921,-0.73204 0,-1.01127 0.0652,-0.0646 0.13915,-0.11335 0.21951,-0.14869 l 4.77655,-2.01105 c 0.24746,-0.0934 0.51441,-0.14723 0.79471,-0.14723 0.28086,0 0.54872,0.0538 0.79681,0.14793 l 0.44475,0.18713 c 0.15269,0.0476 0.26403,0.18841 0.26403,0.3565 0,0.20691 -0.16772,0.37519 -0.37498,0.37519 -0.0635,0 -0.12195,-0.0178 -0.17448,-0.0454 l -0.35282,-0.14721 c -0.012,-0.005 -0.0231,-0.007 -0.0351,-0.0127 -0.17538,-0.072 -0.3671,-0.11152 -0.56812,-0.11152 -0.20306,0 -0.39602,0.0404 -0.57253,0.11316 -0.01,0.005 -0.0188,0.006 -0.0291,0.01 l -4.25823,1.77686 c -0.0571,0.032 -0.097,0.0921 -0.097,0.16277 0,0.0694 0.0383,0.12909 0.0945,0.16186 l 4.26003,1.77684 c 0.01,0.005 0.0192,0.006 0.0298,0.0104 0.1765,0.0727 0.36946,0.11316 0.57252,0.11316 0.20103,0 0.39275,-0.0396 0.56813,-0.11152 0.0125,-0.005 0.0238,-0.008 0.036,-0.013 l 4.25791,-1.77592 c 0.0564,-0.0328 0.0947,-0.0925 0.0947,-0.16186 0,-0.0707 -0.0399,-0.13036 -0.0972,-0.16277 l -0.5778,-0.24134 c -0.14246,-0.0513 -0.245,-0.18586 -0.245,-0.34607 0,-0.20379 0.16517,-0.36914 0.36912,-0.36914 0.0698,0 0.13496,0.0207 0.19059,0.0542 l 0.97624,0.41125 c 0.0795,0.0341 0.15286,0.0837 0.21769,0.14794 0.27921,0.27923 0.27921,0.73204 0,1.01128 -0.0648,0.0643 -0.13823,0.11322 -0.21733,0.14802 z m -3.1356,-1.7785 c -0.20726,0 -0.37514,-0.16772 -0.37514,-0.375 0,-0.20728 0.16788,-0.375 0.37514,-0.375 0.20669,0 0.37497,0.16772 0.37497,0.375 0,0.20728 -0.16828,0.375 -0.37497,0.375 z m -8.00543,5.34392 0.60101,-0.25268 c 0.0546,-0.0322 0.11754,-0.052 0.18565,-0.052 0.20395,0 0.36928,0.16516 0.36928,0.36914 0,0.1668 -0.11186,0.30651 -0.26419,0.35194 l -0.18163,0.076 c -0.0588,0.0317 -0.099,0.0921 -0.099,0.16352 0,0.0699 0.0383,0.12964 0.095,0.16205 l 4.26022,1.77759 c 0.0103,0.004 0.019,0.006 0.0291,0.01 0.1765,0.0727 0.36946,0.11315 0.57253,0.11315 0.20102,0 0.39274,-0.0399 0.56813,-0.11151 0.0121,-0.005 0.0231,-0.008 0.0352,-0.0127 l 4.25845,-1.77668 c 0.0568,-0.0324 0.095,-0.0921 0.095,-0.16204 0,-0.071 -0.0404,-0.13184 -0.0992,-0.16353 l -0.18291,-0.076 c -0.15214,-0.0464 -0.26292,-0.18548 -0.26292,-0.35194 0,-0.20397 0.16533,-0.36913 0.3693,-0.36913 0.0672,0 0.12907,0.0192 0.18326,0.0503 l 0.60494,0.25488 c 0.0807,0.0348 0.15525,0.084 0.22118,0.14995 0.2792,0.27924 0.2792,0.73169 0,1.01093 -0.0643,0.0643 -0.13786,0.11297 -0.21532,0.14758 l -4.77589,2.01105 c -0.24881,0.0948 -0.5174,0.14831 -0.79917,0.14831 -0.28122,0 -0.54944,-0.0542 -0.79762,-0.14794 l -4.77874,-2.01196 c -0.0782,-0.0348 -0.15049,-0.0831 -0.21439,-0.14702 -0.27921,-0.27924 -0.27921,-0.7317 0,-1.01093 0.0661,-0.0659 0.14262,-0.11555 0.2228,-0.15051 z"
       id="path2-7"
       style="fill:url(#linearGradient1013);fill-opacity:1;stroke-width:0.0234374" />
  </g>
</svg>
