<?xml version="1.0" encoding="UTF-8" standalone="no"?>
<svg
   width="32"
   version="1.1"
   height="32"
   viewBox="0 0 32 32"
   id="svg17"
   sodipodi:docname="library-music.svg"
   inkscape:version="1.1.1 (3bf5ae0d25, 2021-09-20)"
   xmlns:inkscape="http://www.inkscape.org/namespaces/inkscape"
   xmlns:sodipodi="http://sodipodi.sourceforge.net/DTD/sodipodi-0.dtd"
   xmlns:xlink="http://www.w3.org/1999/xlink"
   xmlns="http://www.w3.org/2000/svg"
   xmlns:svg="http://www.w3.org/2000/svg"
   xmlns:rdf="http://www.w3.org/1999/02/22-rdf-syntax-ns#"
   xmlns:cc="http://creativecommons.org/ns#"
   xmlns:dc="http://purl.org/dc/elements/1.1/">
  <sodipodi:namedview
     pagecolor="#ffffff"
     bordercolor="#666666"
     borderopacity="1"
     objecttolerance="10"
     gridtolerance="10"
     guidetolerance="10"
     inkscape:pageopacity="0"
     inkscape:pageshadow="2"
     inkscape:window-width="1920"
     inkscape:window-height="1007"
     id="namedview19"
     showgrid="false"
     inkscape:zoom="4.90625"
     inkscape:cx="9.7834395"
     inkscape:cy="-2.1401274"
     inkscape:window-x="0"
     inkscape:window-y="0"
     inkscape:window-maximized="1"
     inkscape:current-layer="layer1"
     inkscape:pagecheckerboard="0" />
  <defs
     id="defs5455">
    <linearGradient
       inkscape:collect="always"
       xlink:href="#linearGradient2230"
       id="linearGradient2232"
       x1="384.57144"
       y1="515.79797"
       x2="448.57144"
       y2="515.79797"
       gradientUnits="userSpaceOnUse"
       gradientTransform="matrix(0.4999999,0,0,0.4999999,192.28576,273.89905)" />
    <linearGradient
       inkscape:collect="always"
       id="linearGradient2230">
      <stop
         style="stop-color:#4e99ca;stop-opacity:0.80000001"
         offset="0"
         id="stop2226" />
      <stop
         style="stop-color:#20ffff;stop-opacity:0.80000001"
         offset="0.50507295"
         id="stop2332" />
      <stop
         style="stop-color:#ffaeff;stop-opacity:0.69"
         offset="1"
         id="stop2228" />
    </linearGradient>
    <linearGradient
       inkscape:collect="always"
       xlink:href="#linearGradient2230"
       id="linearGradient1022"
       gradientUnits="userSpaceOnUse"
       gradientTransform="matrix(0.4999999,0,0,0.4999999,200.28575,275.89905)"
       x1="404.57144"
       y1="520.79803"
       x2="428.5715"
       y2="520.79803" />
  </defs>
  <metadata
     id="metadata5458">
    <rdf:RDF>
      <cc:Work
         rdf:about="">
        <dc:format>image/svg+xml</dc:format>
        <dc:type
           rdf:resource="http://purl.org/dc/dcmitype/StillImage" />
      </cc:Work>
    </rdf:RDF>
  </metadata>
  <g
     inkscape:label="Capa 1"
     inkscape:groupmode="layer"
     id="layer1"
     transform="translate(-384.57143,-515.798)">
    <rect
       style="fill:#626f9d;fill-opacity:0.2;stroke:none;stroke-width:0.630375"
       id="center-3"
       width="30.049994"
       height="20.999996"
       x="385.57147"
       y="522.79803"
       ry="1.9999976"
       rx="2.0033386" />
    <path
       d="m 413.65488,521.80284 h -14.66335 c -0.32409,0 -0.60748,-0.16681 -0.81006,-0.45909 l -1.09375,-1.66919 c -0.36449,-0.58426 -0.97223,-0.87656 -1.62011,-0.87656 h -7.49371 c -1.86344,0 -3.40247,1.58596 -3.40247,3.50555 v 19.48962 c 0,1.62762 1.29635,3.00483 2.91647,3.00483 h 12.59752 v 0 0 0 0 0 0 0 h 0.97201 v 0 0 0 0 0 0 0 0 0 h 12.59752 c 1.57976,0 2.91647,-1.33563 2.91647,-3.00483 v -16.9856 c 0,-1.66919 -1.29606,-3.00452 -2.91647,-3.00452 z M 401.05743,544.798 v 0 h -0.97201 v 0 0 z m 14.54176,-3.00473 c 0,1.08499 -0.85078,2.00314 -1.94424,2.00314 h -26.1672 c -1.0531,0 -1.94424,-0.91815 -1.94424,-2.00314 l -2.9e-4,-6.71912 v -3.79784 c 0,-1.08501 0.89115,-2.00314 1.94424,-2.00314 h 14.66336 c 0.64817,0 1.25563,-0.33391 1.62012,-0.87656 l 1.05309,-1.6692 c 0.20259,-0.25036 0.48599,-0.45909 0.81006,-0.45909 h 7.53421 c 1.33671,0 2.43053,1.12689 2.43053,2.50418 v 5.46703 z m -2.43053,-16.4848 h -7.53421 c -0.64817,0 -1.25563,0.3339 -1.62011,0.87655 l -1.0531,1.6692 c -0.1619,0.29228 -0.48599,0.45908 -0.81006,0.45908 h -14.66325 c -0.72897,0 -1.41666,0.0848 -1.9445,0.8512 v -4.3665 c 0,-1 1.028,-2 2.028,-2 h 8.00001 l 0.0215,0.0232 1.47855,-0.0232 1.96053,0.006 h 14.66336 c 1.05309,0 1.94424,0.91814 1.94424,2.00314 v 1.54407 c -0.64789,-0.66751 -1.49838,-1.04304 -2.47061,-1.04304 z"
       id="path64"
       sodipodi:nodetypes="csccsssssccccccccccccccccccsssccccccccccssccsssccssscccsccscccccccssscc"
       style="fill:url(#linearGradient2232);fill-opacity:1;stroke-width:0.0734205" />
    <path
       d="m 412.32124,541.54802 c -1.24256,0 -2.24962,-1.0069 -2.24962,-2.24963 0,-1.24259 1.00708,-2.25002 2.24962,-2.25002 0.20728,0 0.37538,0.16753 0.37538,0.37462 0,0.20728 -0.1681,0.37538 -0.37538,0.37538 -0.82819,0 -1.5,0.67127 -1.5,1.50002 0,0.82819 0.67181,1.49963 1.5,1.49963 0.82875,0 1.50019,-0.67144 1.50019,-1.49963 v -1.67342 -0.7641 -1.68797 c 0,-0.20672 0.16791,-0.37484 0.37519,-0.37484 0.20709,0 0.37481,0.16809 0.37481,0.37484 v 4.12549 c 0,1.24273 -1.00744,2.24963 -2.25019,2.24963 z m 1.21913,-7.26373 -6.09596,1.22718 c -0.21349,0.0448 -0.37279,0.23236 -0.37279,0.45832 v 4.07862 c 0,1.24271 -1.00746,2.24961 -2.25019,2.24961 -1.24256,0 -2.25,-1.0069 -2.25,-2.24963 0,-0.62109 0.25214,-1.18362 0.65918,-1.59084 l 0.002,10e-4 c 0.0676,-0.0681 0.16186,-0.11004 0.26512,-0.11004 0.20728,0 0.37538,0.16809 0.37538,0.37518 0,0.10822 -0.0469,0.20527 -0.12085,0.27375 -0.26568,0.2701 -0.43029,0.64107 -0.43029,1.0505 0,0.82835 0.67182,1.49962 1.50001,1.49962 0.82837,0 1.50018,-0.67127 1.50018,-1.49962 v -1.67342 -0.57661 -1.78758 c 0,-0.59069 0.42005,-1.08325 0.97833,-1.19477 l 5e-4,-5e-4 0.12507,-0.0265 c 0.007,-10e-4 0.0136,-10e-4 0.0209,-0.002 l 6.00018,-1.28907 c 0.2071,-0.0454 0.37481,-0.25012 0.37481,-0.4574 v -1.68732 c 0,-0.20728 -0.16771,-0.3382 -0.37481,-0.29315 l -6.00018,1.28944 c -0.20729,0.0448 -0.37482,0.24975 -0.37482,0.45684 v 0.86738 c 0,0.20672 -0.16809,0.37481 -0.37537,0.37481 -0.2071,0 -0.37463,-0.16809 -0.37463,-0.37481 v -0.90931 c 0,-0.54731 0.4616,-1.08382 1.03107,-1.1988 l 6.18768,-1.24547 c 0.56928,-0.11445 1.03106,0.2362 1.03106,0.78386 v 1.98195 c 0,0.54766 -0.46178,1.08436 -1.03106,1.19881 z m -8.71894,4.26408 c -0.2071,0 -0.37519,-0.1681 -0.37519,-0.37519 0,-0.20728 0.16809,-0.37481 0.37519,-0.37481 0.20728,0 0.37481,0.16753 0.37481,0.37481 0,0.20709 -0.16753,0.37519 -0.37481,0.37519 z"
       id="path2-7"
       style="fill:url(#linearGradient1022);fill-opacity:1;stroke-width:0.0234375" />
  </g>
</svg>
