<?xml version="1.0" encoding="UTF-8" standalone="no"?>
<svg
   width="32"
   version="1.1"
   height="32"
   viewBox="0 0 32 32"
   id="svg17"
   sodipodi:docname="network-workgroup.svg"
   inkscape:version="1.1.1 (3bf5ae0d25, 2021-09-20)"
   xmlns:inkscape="http://www.inkscape.org/namespaces/inkscape"
   xmlns:sodipodi="http://sodipodi.sourceforge.net/DTD/sodipodi-0.dtd"
   xmlns:xlink="http://www.w3.org/1999/xlink"
   xmlns="http://www.w3.org/2000/svg"
   xmlns:svg="http://www.w3.org/2000/svg"
   xmlns:rdf="http://www.w3.org/1999/02/22-rdf-syntax-ns#"
   xmlns:cc="http://creativecommons.org/ns#"
   xmlns:dc="http://purl.org/dc/elements/1.1/">
  <sodipodi:namedview
     pagecolor="#ffffff"
     bordercolor="#666666"
     borderopacity="1"
     objecttolerance="10"
     gridtolerance="10"
     guidetolerance="10"
     inkscape:pageopacity="0"
     inkscape:pageshadow="2"
     inkscape:window-width="1920"
     inkscape:window-height="1007"
     id="namedview19"
     showgrid="false"
     inkscape:zoom="9.8125"
     inkscape:cx="-24.356688"
     inkscape:cy="-0.66242038"
     inkscape:window-x="0"
     inkscape:window-y="0"
     inkscape:window-maximized="1"
     inkscape:current-layer="layer1"
     inkscape:pagecheckerboard="0" />
  <defs
     id="defs5455">
    <linearGradient
       inkscape:collect="always"
       xlink:href="#linearGradient2230"
       id="linearGradient2232"
       x1="384.57144"
       y1="515.79797"
       x2="448.57144"
       y2="515.79797"
       gradientUnits="userSpaceOnUse"
       gradientTransform="matrix(0.4999999,0,0,0.4999999,192.28576,273.89905)" />
    <linearGradient
       inkscape:collect="always"
       id="linearGradient2230">
      <stop
         style="stop-color:#4e99ca;stop-opacity:0.80000001"
         offset="0"
         id="stop2226" />
      <stop
         style="stop-color:#20ffff;stop-opacity:0.80000001"
         offset="0.50507295"
         id="stop2332" />
      <stop
         style="stop-color:#ffaeff;stop-opacity:0.69"
         offset="1"
         id="stop2228" />
    </linearGradient>
    <linearGradient
       inkscape:collect="always"
       xlink:href="#linearGradient2230"
       id="linearGradient1043"
       gradientUnits="userSpaceOnUse"
       gradientTransform="matrix(0.4999999,0,0,0.4999999,200.98576,276.39905)"
       x1="406.17142"
       y1="520.79797"
       x2="427.17151"
       y2="520.79797" />
  </defs>
  <metadata
     id="metadata5458">
    <rdf:RDF>
      <cc:Work
         rdf:about="">
        <dc:format>image/svg+xml</dc:format>
        <dc:type
           rdf:resource="http://purl.org/dc/dcmitype/StillImage" />
      </cc:Work>
    </rdf:RDF>
  </metadata>
  <g
     inkscape:label="Capa 1"
     inkscape:groupmode="layer"
     id="layer1"
     transform="translate(-384.57143,-515.798)">
    <rect
       style="fill:#626f9d;fill-opacity:0.2;stroke:none;stroke-width:0.630375"
       id="center-3"
       width="30.049994"
       height="20.999996"
       x="385.57141"
       y="522.79803"
       ry="1.9999976"
       rx="2.0033386" />
    <path
       d="m 413.65488,521.80284 h -14.66335 c -0.32409,0 -0.60748,-0.16681 -0.81006,-0.45909 l -1.09375,-1.66919 c -0.36449,-0.58426 -0.97223,-0.87656 -1.62011,-0.87656 h -7.49371 c -1.86344,0 -3.40247,1.58596 -3.40247,3.50555 v 19.48962 c 0,1.62762 1.29635,3.00483 2.91647,3.00483 h 12.59752 v 0 0 0 0 0 0 0 h 0.97201 v 0 0 0 0 0 0 0 0 0 h 12.59752 c 1.57976,0 2.91647,-1.33563 2.91647,-3.00483 v -16.9856 c 0,-1.66919 -1.29606,-3.00452 -2.91647,-3.00452 z M 401.05743,544.798 v 0 h -0.97201 v 0 0 z m 14.54176,-3.00473 c 0,1.08499 -0.85078,2.00314 -1.94424,2.00314 h -26.1672 c -1.0531,0 -1.94424,-0.91815 -1.94424,-2.00314 l -2.9e-4,-6.71912 v -3.79784 c 0,-1.08501 0.89115,-2.00314 1.94424,-2.00314 h 14.66336 c 0.64817,0 1.25563,-0.33391 1.62012,-0.87656 l 1.05309,-1.6692 c 0.20259,-0.25036 0.48599,-0.45909 0.81006,-0.45909 h 7.53421 c 1.33671,0 2.43053,1.12689 2.43053,2.50418 v 5.46703 z m -2.43053,-16.4848 h -7.53421 c -0.64817,0 -1.25563,0.3339 -1.62011,0.87655 l -1.0531,1.6692 c -0.1619,0.29228 -0.48599,0.45908 -0.81006,0.45908 h -14.66325 c -0.72897,0 -1.41666,0.0848 -1.9445,0.8512 v -4.3665 c 0,-1 1.028,-2 2.028,-2 h 8.00001 l 0.0215,0.0232 1.47855,-0.0232 1.96053,0.006 h 14.66336 c 1.05309,0 1.94424,0.91814 1.94424,2.00314 v 1.54407 c -0.64789,-0.66751 -1.49838,-1.04304 -2.47061,-1.04304 z"
       id="path64"
       sodipodi:nodetypes="csccsssssccccccccccccccccccsssccccccccccssccsssccssscccsccscccccccssscc"
       style="fill:url(#linearGradient2232);fill-opacity:1;stroke-width:0.0734205" />
    <path
       fill-rule="evenodd"
       clip-rule="evenodd"
       d="m 407.82145,540.54797 c 0,0.20729 -0.16772,0.375 -0.375,0.375 -0.2069,0 -0.37509,-0.16771 -0.37509,-0.375 0,-0.20728 0.16819,-0.375 0.37509,-0.375 0.20728,0 0.375,0.16772 0.375,0.375 z m -1.50019,0 c 0,0.20729 -0.16771,0.375 -0.37462,0.375 -0.20728,0 -0.375,-0.16771 -0.375,-0.375 0,-0.20728 0.16772,-0.375 0.375,-0.375 0.20691,0 0.37463,0.16772 0.37462,0.375 z m 1.50019,-7.50004 c 0,0.20728 -0.16772,0.375 -0.375,0.375 -0.2069,0 -0.37509,-0.16772 -0.37509,-0.375 0,-0.20693 0.16819,-0.3751 0.37509,-0.3751 0.20728,0 0.375,0.16817 0.375,0.3751 z m -1.50019,0 c 0,0.20728 -0.16771,0.375 -0.37462,0.375 -0.20728,0 -0.375,-0.16772 -0.375,-0.375 0,-0.20693 0.16772,-0.3751 0.375,-0.3751 0.20691,0 0.37463,0.16817 0.37462,0.3751 z m -0.74962,3.75002 c 0,-0.20728 0.16772,-0.37509 0.375,-0.37509 0.20691,0 0.37463,0.16781 0.37463,0.37509 0,0.20728 -0.16772,0.375 -0.37463,0.375 -0.20728,0 -0.375,-0.16772 -0.375,-0.375 z m 1.49972,0 c 0,-0.20728 0.16819,-0.37509 0.37509,-0.37509 0.20728,0 0.375,0.16781 0.375,0.37509 0,0.20728 -0.16772,0.375 -0.375,0.375 -0.2069,0 -0.37509,-0.16772 -0.37509,-0.375 z m 5.9999,6.00005 h -7.49962 c -0.82875,0 -1.50019,-0.67163 -1.50019,-1.5 v -1.12503 c 0,-0.2069 0.16772,-0.375 0.375,-0.375 0.20728,0 0.3751,0.1681 0.3751,0.375 v 1.12503 c 0,0.41418 0.33553,0.75019 0.75009,0.75019 h 7.49962 c 0.41456,0 0.75,-0.33601 0.75,-0.75019 v -1.50003 c 0,-0.41418 -0.33544,-0.75018 -0.75,-0.75018 h -1.49981 -5.99981 c -0.38095,0 -0.72738,-0.14302 -0.99188,-0.37664 -0.0375,-0.0329 -0.0731,-0.0681 -0.1072,-0.10475 -10e-4,-0.002 -0.003,-0.004 -0.004,-0.005 -0.0324,-0.0351 -0.0631,-0.0718 -0.0921,-0.11022 -0.003,-0.005 -0.007,-0.009 -0.0105,-0.0143 -0.0256,-0.0345 -0.0491,-0.0705 -0.0719,-0.10714 -0.006,-0.01 -0.0122,-0.0192 -0.0177,-0.0291 -0.019,-0.0322 -0.0366,-0.0655 -0.053,-0.0991 -0.006,-0.013 -0.0127,-0.0265 -0.019,-0.0401 -0.0159,-0.0344 -0.0299,-0.0701 -0.0428,-0.10619 -0.005,-0.0122 -0.009,-0.024 -0.0135,-0.0366 -0.0122,-0.0374 -0.0227,-0.0762 -0.0319,-0.11426 -0.003,-0.0128 -0.007,-0.0246 -0.01,-0.0376 -0.01,-0.0437 -0.0168,-0.0883 -0.0222,-0.13366 -10e-4,-0.007 -0.002,-0.0144 -0.003,-0.0214 -0.006,-0.0538 -0.009,-0.10859 -0.009,-0.16371 v -1.5001 c 0,-0.0555 0.003,-0.11015 0.009,-0.16399 3.7e-4,-0.005 10e-4,-0.0105 0.002,-0.0161 0.005,-0.0466 0.0131,-0.0933 0.0227,-0.1387 0.002,-0.0131 0.007,-0.0248 0.01,-0.0374 0.009,-0.0383 0.0198,-0.0769 0.0319,-0.11435 0.004,-0.0122 0.009,-0.0236 0.0134,-0.0357 0.0135,-0.0371 0.0273,-0.0741 0.0437,-0.10932 0.005,-0.0118 0.0109,-0.0223 0.0164,-0.0337 0.0168,-0.0354 0.0349,-0.0702 0.0546,-0.10383 0.005,-0.009 0.0113,-0.0185 0.0172,-0.0282 0.0236,-0.0383 0.0479,-0.0757 0.0748,-0.11142 0.002,-0.003 0.004,-0.004 0.005,-0.006 0.0618,-0.0819 0.13203,-0.15811 0.20893,-0.22577 0.26404,-0.23255 0.6101,-0.375 0.98976,-0.375 h 7.49962 c 0.41456,0 0.75,-0.336 0.75,-0.75019 v -1.50014 c 0,-0.41409 -0.33544,-0.74965 -0.75,-0.74965 h -7.49957 c -0.41456,0 -0.75009,0.33556 -0.75009,0.74965 v 1.12519 c 0,0.20728 -0.16782,0.375 -0.3751,0.375 -0.20728,0 -0.375,-0.16772 -0.375,-0.375 v -1.12519 c 0,-0.82831 0.67144,-1.49974 1.50019,-1.49974 h 7.49962 c 0.82875,0 1.50019,0.67143 1.50019,1.49974 v 1.50019 c 0,0.82837 -0.67144,1.49983 -1.50019,1.49983 h -0.20269 -7.29693 c -0.41456,0 -0.75009,0.33591 -0.75009,0.7501 v 1.50009 c 0,0.41419 0.33553,0.75019 0.75009,0.75019 h 7.29693 0.20269 c 0.82873,0 1.50019,0.67146 1.50019,1.49983 v 1.50003 c 0,0.82837 -0.67144,1.5 -1.50019,1.5 z m 1.12519,-5.25005 c -0.20691,0 -0.37519,-0.16809 -0.37519,-0.375 v -0.75009 c 0,-0.20682 0.16828,-0.375 0.37519,-0.375 0.20728,0 0.375,0.16818 0.375,0.375 v 0.75009 c 0,0.20691 -0.16772,0.375 -0.375,0.375 z"
       id="path2-7"
       style="fill:url(#linearGradient1043);fill-opacity:1;stroke-width:0.0234375" />
  </g>
</svg>
