<?xml version="1.0" encoding="UTF-8" standalone="no"?>
<svg
   width="32"
   version="1.1"
   height="32"
   viewBox="0 0 32 32"
   id="svg17"
   sodipodi:docname="user-home.svg"
   inkscape:version="1.1.1 (3bf5ae0d25, 2021-09-20)"
   xmlns:inkscape="http://www.inkscape.org/namespaces/inkscape"
   xmlns:sodipodi="http://sodipodi.sourceforge.net/DTD/sodipodi-0.dtd"
   xmlns:xlink="http://www.w3.org/1999/xlink"
   xmlns="http://www.w3.org/2000/svg"
   xmlns:svg="http://www.w3.org/2000/svg"
   xmlns:rdf="http://www.w3.org/1999/02/22-rdf-syntax-ns#"
   xmlns:cc="http://creativecommons.org/ns#"
   xmlns:dc="http://purl.org/dc/elements/1.1/">
  <sodipodi:namedview
     pagecolor="#ffffff"
     bordercolor="#666666"
     borderopacity="1"
     objecttolerance="10"
     gridtolerance="10"
     guidetolerance="10"
     inkscape:pageopacity="0"
     inkscape:pageshadow="2"
     inkscape:window-width="1920"
     inkscape:window-height="1007"
     id="namedview19"
     showgrid="false"
     inkscape:zoom="9.8125"
     inkscape:cx="-8.7643312"
     inkscape:cy="1.0700637"
     inkscape:window-x="0"
     inkscape:window-y="0"
     inkscape:window-maximized="1"
     inkscape:current-layer="layer1"
     inkscape:pagecheckerboard="0" />
  <defs
     id="defs5455">
    <linearGradient
       inkscape:collect="always"
       xlink:href="#linearGradient2230"
       id="linearGradient2232"
       x1="384.57144"
       y1="515.79797"
       x2="448.57144"
       y2="515.79797"
       gradientUnits="userSpaceOnUse"
       gradientTransform="matrix(0.4999999,0,0,0.4999999,192.28575,273.89904)" />
    <linearGradient
       inkscape:collect="always"
       id="linearGradient2230">
      <stop
         style="stop-color:#4e99ca;stop-opacity:0.80000001"
         offset="0"
         id="stop2226" />
      <stop
         style="stop-color:#20ffff;stop-opacity:0.80000001"
         offset="0.50507295"
         id="stop2332" />
      <stop
         style="stop-color:#ffaeff;stop-opacity:0.69"
         offset="1"
         id="stop2228" />
    </linearGradient>
    <linearGradient
       inkscape:collect="always"
       xlink:href="#linearGradient2230"
       id="linearGradient1016"
       gradientUnits="userSpaceOnUse"
       x1="404.08643"
       y1="520.79803"
       x2="428.08652"
       y2="520.79803"
       gradientTransform="matrix(0.4999999,0,0,0.4999999,200.52827,276.39904)" />
  </defs>
  <metadata
     id="metadata5458">
    <rdf:RDF>
      <cc:Work
         rdf:about="">
        <dc:format>image/svg+xml</dc:format>
        <dc:type
           rdf:resource="http://purl.org/dc/dcmitype/StillImage" />
      </cc:Work>
    </rdf:RDF>
  </metadata>
  <g
     inkscape:label="Capa 1"
     inkscape:groupmode="layer"
     id="layer1"
     transform="translate(-384.57143,-515.798)">
    <rect
       style="fill:#626f9d;fill-opacity:0.2;stroke:none;stroke-width:0.630375"
       id="center-3"
       width="30.049994"
       height="20.999996"
       x="385.57144"
       y="522.79803"
       ry="1.9999976"
       rx="2.0033386" />
    <path
       d="m 413.65488,521.80284 h -14.66335 c -0.32409,0 -0.60748,-0.16681 -0.81006,-0.45909 l -1.09375,-1.66919 c -0.36449,-0.58426 -0.97223,-0.87656 -1.62011,-0.87656 h -7.49371 c -1.86344,0 -3.40247,1.58596 -3.40247,3.50555 v 19.48962 c 0,1.62762 1.29635,3.00483 2.91647,3.00483 h 12.59752 v 0 0 0 0 0 0 0 h 0.97201 v 0 0 0 0 0 0 0 0 0 h 12.59752 c 1.57976,0 2.91647,-1.33563 2.91647,-3.00483 v -16.9856 c 0,-1.66919 -1.29606,-3.00452 -2.91647,-3.00452 z M 401.05743,544.798 v 0 h -0.97201 v 0 0 z m 14.54176,-3.00473 c 0,1.08499 -0.85078,2.00314 -1.94424,2.00314 h -26.1672 c -1.0531,0 -1.94424,-0.91815 -1.94424,-2.00314 l -2.9e-4,-6.71912 v -3.79784 c 0,-1.08501 0.89115,-2.00314 1.94424,-2.00314 h 14.66336 c 0.64817,0 1.25563,-0.33391 1.62012,-0.87656 l 1.05309,-1.6692 c 0.20259,-0.25036 0.48599,-0.45909 0.81006,-0.45909 h 7.53421 c 1.33671,0 2.43053,1.12689 2.43053,2.50418 v 5.46703 z m -2.43053,-16.4848 h -7.53421 c -0.64817,0 -1.25563,0.3339 -1.62011,0.87655 l -1.0531,1.6692 c -0.1619,0.29228 -0.48599,0.45908 -0.81006,0.45908 h -14.66325 c -0.72897,0 -1.41666,0.0848 -1.9445,0.8512 v -4.3665 c 0,-1 1.028,-2 2.028,-2 h 8.00001 l 0.0214,0.0232 1.47855,-0.0232 1.96053,0.006 h 14.66336 c 1.05309,0 1.94424,0.91814 1.94424,2.00314 v 1.54407 c -0.64789,-0.66751 -1.49838,-1.04304 -2.47061,-1.04304 z"
       id="path64"
       sodipodi:nodetypes="csccsssssccccccccccccccccccsssccccccccccssccsssccssscccsccscccccccssscc"
       style="fill:url(#linearGradient2232);fill-opacity:1;stroke-width:0.0734205" />
    <path
       d="m 414.57146,536.42423 c 0,0.20724 -0.16786,0.37491 -0.37493,0.37491 -0.20724,0 -0.3751,-0.16767 -0.3751,-0.37491 0,-0.0991 -0.62536,-0.56899 -0.774,-0.71782 l -0.40676,-0.40678 h 0.0117 c -0.20576,-0.25683 -0.33026,-0.58252 -0.33026,-0.93766 v -1.6868 c 0,-0.20724 -0.16844,-0.3751 -0.37512,-0.3751 h -0.75002 c -0.20705,0 -0.37491,0.16789 -0.37491,0.3751 v 0.12869 c 0,0.15525 -0.12557,0.28118 -0.28117,0.28118 -0.0758,0 -0.14426,-0.0306 -0.19481,-0.0795 l -1.24339,-1.24341 c -0.29252,-0.29308 -0.76753,-0.29308 -1.06014,0 l -4.50682,4.50678 c -0.14682,0.14648 -0.21997,0.33813 -0.21997,0.53018 h 0.008 c 0,0.41381 0.31411,0.74993 0.62623,0.74993 0.35752,0 0.87328,0.50343 0.87328,1.12476 v 2.62449 c 0,0.41409 0.33602,0.74986 0.74993,0.74986 h 1.12495 c 0.20677,0 0.375,-0.1677 0.375,-0.37496 v -2.437 c 0,-0.51772 0.41949,-0.93767 0.93722,-0.93767 h 1.12458 c 0.51771,0 0.93729,0.41995 0.93729,0.93767 v 2.437 c 0,0.20726 0.16805,0.37496 0.37491,0.37496 h 1.12494 c 0.41391,0 0.75003,-0.33577 0.75003,-0.74986 v -2.62449 c 0,-0.20686 0.16767,-0.37528 0.37453,-0.37528 0.20726,0 0.37493,0.16842 0.37493,0.37528 v 2.62449 c 0,0.82821 -0.67113,1.49969 -1.49951,1.49969 h -1.12495 c -0.62114,0 -1.12455,-0.50379 -1.12455,-1.12479 v -2.24953 c 0,-0.20723 -0.16786,-0.3749 -0.37493,-0.3749 h -0.75 c -0.20714,0 -0.37493,0.16767 -0.37493,0.3749 v 2.24953 c 0,0.621 -0.50344,1.12479 -1.12458,1.12479 h -1.12495 c -0.82828,0 -1.49951,-0.67148 -1.49951,-1.49969 v -2.62449 c 0,-0.20686 -0.17491,-0.36173 -0.37493,-0.42178 -0.004,-10e-4 -0.006,-0.003 -0.009,-0.005 -0.64219,-0.16914 -1.11579,-0.75243 -1.11579,-1.44778 v 0.0831 c -0.0227,-0.41116 0.11725,-0.82947 0.43139,-1.14361 l 4.50696,-4.50698 c 0.29285,-0.2929 0.67549,-0.43364 1.05933,-0.43364 0.38383,0 0.76889,0.14074 1.06179,0.43364 l 0.65922,0.65941 c 0.17227,-0.20651 0.42745,-0.34087 0.71742,-0.34087 h 1.12441 c 0.51771,0 0.93729,0.41958 0.93729,0.93731 v 1.87444 c 0,0.20191 0.0807,0.38425 0.2107,0.519 l 0.85768,0.85767 c 0.29435,0.29419 0.43148,0.44065 0.43148,0.68562 z m -1.12496,1.12484 c 0.20724,0 0.37493,0.16767 0.37493,0.37493 0,0.20688 -0.16769,0.37455 -0.37493,0.37455 -0.20723,0 -0.3749,-0.16767 -0.3749,-0.37455 0,-0.20726 0.16767,-0.37493 0.3749,-0.37493 z"
       id="path2-7"
       style="fill:url(#linearGradient1016);fill-opacity:1;stroke-width:0.0234375" />
  </g>
</svg>
