<?xml version="1.0" encoding="UTF-8" standalone="no"?>
<svg
   width="64"
   version="1.1"
   height="64"
   id="svg2"
   inkscape:version="1.1.1 (3bf5ae0d25, 2021-09-20)"
   sodipodi:docname="system-file-manager.svg"
   xmlns:inkscape="http://www.inkscape.org/namespaces/inkscape"
   xmlns:sodipodi="http://sodipodi.sourceforge.net/DTD/sodipodi-0.dtd"
   xmlns:xlink="http://www.w3.org/1999/xlink"
   xmlns="http://www.w3.org/2000/svg"
   xmlns:svg="http://www.w3.org/2000/svg"
   xmlns:rdf="http://www.w3.org/1999/02/22-rdf-syntax-ns#"
   xmlns:cc="http://creativecommons.org/ns#"
   xmlns:dc="http://purl.org/dc/elements/1.1/">
  <sodipodi:namedview
     pagecolor="#ffffff"
     bordercolor="#666666"
     borderopacity="1"
     objecttolerance="10"
     gridtolerance="10"
     guidetolerance="10"
     inkscape:pageopacity="0"
     inkscape:pageshadow="2"
     inkscape:window-width="1920"
     inkscape:window-height="1006"
     id="namedview17"
     showgrid="true"
     inkscape:snap-bbox="true"
     inkscape:bbox-nodes="true"
     inkscape:zoom="11.313709"
     inkscape:cx="25.013902"
     inkscape:cy="34.383067"
     inkscape:current-layer="layer1"
     showguides="false"
     inkscape:guide-bbox="true"
     inkscape:object-nodes="true"
     inkscape:document-rotation="0"
     inkscape:window-x="0"
     inkscape:window-y="0"
     inkscape:window-maximized="1"
     inkscape:pagecheckerboard="0"
     inkscape:lockguides="false">
    <inkscape:grid
       type="xygrid"
       id="grid4145" />
    <sodipodi:guide
       position="26,40"
       orientation="0.70710678,0.70710678"
       id="guide4381"
       inkscape:locked="false" />
    <sodipodi:guide
       position="3,35"
       orientation="0.70710678,0.70710678"
       id="guide4401"
       inkscape:locked="false" />
  </sodipodi:namedview>
  <defs
     id="defs5455">
    <linearGradient
       inkscape:collect="always"
       id="linearGradient1038">
      <stop
         style="stop-color:#00bdbd;stop-opacity:1"
         offset="0"
         id="stop1034" />
      <stop
         style="stop-color:#80b3ff;stop-opacity:1"
         offset="1"
         id="stop1036" />
    </linearGradient>
    <linearGradient
       id="linearGradient4274"
       inkscape:collect="always">
      <stop
         id="stop4276"
         offset="0"
         style="stop-color:#ffffff;stop-opacity:1;" />
      <stop
         id="stop4278"
         offset="1"
         style="stop-color:#ffffff;stop-opacity:0.48760331" />
    </linearGradient>
    <linearGradient
       gradientUnits="userSpaceOnUse"
       x2="0"
       y2="509.8"
       y1="543.8"
       id="a">
      <stop
         id="stop4154"
         stop-color="#2f74c8" />
      <stop
         id="stop4156"
         stop-color="#4699d7"
         offset="1" />
    </linearGradient>
    <linearGradient
       gradientUnits="userSpaceOnUse"
       x2="428.57"
       y2="531.8"
       x1="414.57"
       y1="517.8"
       id="b">
      <stop
         id="stop4159"
         stop-color="#383e51" />
      <stop
         id="stop4161"
         stop-opacity="0"
         stop-color="#655c6f"
         offset="1" />
    </linearGradient>
    <linearGradient
       gradientUnits="userSpaceOnUse"
       x2="0"
       y2="508.8"
       y1="519.8"
       id="c">
      <stop
         id="stop4164"
         stop-opacity="0"
         stop-color="#60a5e7" />
      <stop
         id="stop4166"
         stop-opacity=".258"
         stop-color="#a6f3fb"
         offset="1" />
    </linearGradient>
    <linearGradient
       gradientTransform="translate(-390.57144,-497.798)"
       inkscape:collect="always"
       xlink:href="#linearGradient4274"
       id="linearGradient4272-3"
       x1="390.57144"
       y1="498.298"
       x2="442.57144"
       y2="498.298"
       gradientUnits="userSpaceOnUse" />
    <linearGradient
       gradientTransform="translate(-390.57144,-501.798)"
       inkscape:collect="always"
       xlink:href="#linearGradient4274"
       id="linearGradient4272-1"
       x1="390.57144"
       y1="498.298"
       x2="442.57144"
       y2="498.298"
       gradientUnits="userSpaceOnUse" />
    <linearGradient
       gradientTransform="translate(-6,-14)"
       inkscape:collect="always"
       xlink:href="#linearGradient4274"
       id="linearGradient4272-36"
       x1="390.57144"
       y1="498.298"
       x2="442.57144"
       y2="498.298"
       gradientUnits="userSpaceOnUse" />
    <linearGradient
       gradientUnits="userSpaceOnUse"
       x2="383.77145"
       y2="502.05301"
       y1="542.0531"
       id="a-2"
       x1="383.77145">
      <stop
         id="stop4304"
         stop-color="#197cf1" />
      <stop
         id="stop4306"
         stop-color="#20bcfa"
         offset="1" />
    </linearGradient>
    <linearGradient
       gradientUnits="userSpaceOnUse"
       x2="39.28"
       y2="36.633"
       x1="22.285"
       y1="18.71"
       id="b-9">
      <stop
         id="stop4309"
         stop-color="#292c2f" />
      <stop
         id="stop4311"
         stop-opacity="0"
         stop-color="#292c2f"
         offset="1" />
    </linearGradient>
    <linearGradient
       gradientTransform="translate(-386.72845,506.21259)"
       gradientUnits="userSpaceOnUse"
       x2="419.97357"
       y2="539.82538"
       x1="406.50085"
       y1="527.01447"
       id="c-1">
      <stop
         id="stop17"
         stop-color="#292c2f" />
      <stop
         id="stop19"
         stop-opacity="0"
         offset="1" />
    </linearGradient>
    <linearGradient
       gradientUnits="userSpaceOnUse"
       x2="0"
       y2="14"
       y1="34"
       id="b-8"
       gradientTransform="translate(-2.1584511,1006.0126)">
      <stop
         style="stop-color:#bfc9c9;stop-opacity:1"
         id="stop12"
         stop-color="#536161" />
      <stop
         style="stop-color:#fafafa;stop-opacity:1"
         id="stop14"
         stop-color="#f4f5f5"
         offset="1" />
    </linearGradient>
    <linearGradient
       x1="428.81628"
       gradientTransform="translate(-386.72845,506.21259)"
       gradientUnits="userSpaceOnUse"
       x2="388.86475"
       y2="499.67896"
       y1="547.63354"
       id="a-7">
      <stop
         id="stop7"
         stop-color="#2a2c2f" />
      <stop
         id="stop9"
         stop-color="#536161"
         offset="1" />
    </linearGradient>
    <linearGradient
       gradientTransform="matrix(1.299805,0,0,1.299805,-499.06524,339.52825)"
       gradientUnits="userSpaceOnUse"
       x2="419.97357"
       y2="539.82538"
       x1="406.50085"
       y1="527.01447"
       id="c-7">
      <stop
         id="stop17-5"
         stop-color="#292c2f" />
      <stop
         id="stop19-3"
         stop-opacity="0"
         offset="1" />
    </linearGradient>
    <linearGradient
       gradientUnits="userSpaceOnUse"
       x2="0"
       y2="14"
       y1="34"
       id="b-5"
       gradientTransform="matrix(1.299805,0,0,1.299805,0.8007798,989.17075)">
      <stop
         style="stop-color:#bfc9c9;stop-opacity:1"
         id="stop12-6"
         stop-color="#536161" />
      <stop
         style="stop-color:#fbfbfb;stop-opacity:1"
         id="stop14-2"
         stop-color="#f4f5f5"
         offset="1" />
    </linearGradient>
    <linearGradient
       x1="428.81628"
       gradientTransform="matrix(1.299805,0,0,1.299805,-499.06524,339.52825)"
       gradientUnits="userSpaceOnUse"
       x2="388.86475"
       y2="499.67896"
       y1="547.63354"
       id="a-9">
      <stop
         id="stop7-1"
         stop-color="#2a2c2f" />
      <stop
         id="stop9-2"
         stop-color="#536161"
         offset="1" />
    </linearGradient>
    <linearGradient
       xlink:href="#linearGradient1038"
       id="linearGradient4225-3"
       gradientUnits="userSpaceOnUse"
       x1="396.57101"
       y1="498.798"
       x2="426.57101"
       y2="511.798"
       gradientTransform="matrix(0.9655027,0,0,0.44404028,14.008346,285.06798)" />
    <linearGradient
       inkscape:collect="always"
       xlink:href="#linearGradient2230"
       id="linearGradient2232"
       x1="384.57144"
       y1="515.79797"
       x2="448.57144"
       y2="515.79797"
       gradientUnits="userSpaceOnUse"
       gradientTransform="matrix(1,0,0,0.99038444,1.575183e-7,4.9096895)" />
    <linearGradient
       inkscape:collect="always"
       id="linearGradient2230">
      <stop
         style="stop-color:#4e99ca;stop-opacity:0.80000001"
         offset="0"
         id="stop2226" />
      <stop
         style="stop-color:#20ffff;stop-opacity:0.80000001"
         offset="0.50507295"
         id="stop2332" />
      <stop
         style="stop-color:#ffaeff;stop-opacity:0.69"
         offset="1"
         id="stop2228" />
    </linearGradient>
    <linearGradient
       id="linearGradient1033"
       x1="0"
       x2="0"
       y1="0"
       y2="1">
      <stop
         offset="0%"
         style="stop-color:#007f98;stop-opacity:0.80000001"
         id="stop1029" />
      <stop
         offset="0.50102341"
         style="stop-color:#20ffff;stop-opacity:0.80000001"
         id="stop1133" />
      <stop
         offset="100%"
         style="stop-color:#ffaeff;stop-opacity:0.80000001"
         id="stop1031" />
    </linearGradient>
    <linearGradient
       inkscape:collect="always"
       xlink:href="#linearGradient2230"
       id="linearGradient1818"
       x1="343.57162"
       y1="524.79797"
       x2="367.57162"
       y2="524.79797"
       gradientUnits="userSpaceOnUse"
       gradientTransform="translate(74.99982,-0.99982)" />
  </defs>
  <metadata
     id="metadata5458">
    <rdf:RDF>
      <cc:Work
         rdf:about="">
        <dc:format>image/svg+xml</dc:format>
        <dc:type
           rdf:resource="http://purl.org/dc/dcmitype/StillImage" />
      </cc:Work>
    </rdf:RDF>
  </metadata>
  <g
     inkscape:label="Capa 1"
     inkscape:groupmode="layer"
     id="layer1"
     transform="translate(-384.57143,-483.798)">
    <rect
       style="fill:#3b445f;fill-opacity:1;stroke:none;stroke-width:1.25571"
       id="center-3"
       width="60.200001"
       height="41.596149"
       x="386.52142"
       y="497.92123"
       ry="3.9615335"
       rx="4.0133448" />
    <path
       d="m 442.73835,495.94988 h -29.32672 c -0.64817,0 -1.21496,-0.33041 -1.62011,-0.90932 l -2.1875,-3.30629 c -0.72899,-1.15727 -1.94446,-1.73627 -3.24023,-1.73627 h -14.98741 c -3.72689,0 -6.80495,3.14142 -6.80495,6.94371 v 38.60443 c 0,3.22394 2.59271,5.95186 5.83294,5.95186 h 25.19505 v 0 0 0 0 0 0 0 h 1.94402 v 0 0 0 0 0 0 0 0 0 h 25.19505 c 3.15951,0 5.83294,-2.64556 5.83294,-5.95186 v -33.64455 c 0,-3.30629 -2.59213,-5.95129 -5.83294,-5.95129 z M 417.54344,541.498 v 0 h -1.94402 v 0 0 z m 29.08353,-5.95167 c 0,2.14909 -1.70156,3.96773 -3.88848,3.96773 h -52.33441 c -2.1062,0 -3.88848,-1.81864 -3.88848,-3.96773 l -5.8e-4,-13.30904 v -7.52263 c 0,-2.14915 1.78229,-3.96777 3.88848,-3.96777 h 29.32671 c 1.29634,0 2.51126,-0.66138 3.24024,-1.73627 l 2.10619,-3.30629 c 0.40518,-0.49588 0.97198,-0.90933 1.62012,-0.90933 h 15.06842 c 2.67343,0 4.86107,2.23208 4.86107,4.96019 v 10.82892 z m -4.86107,-32.65259 h -15.06842 c -1.29634,0 -2.51126,0.6614 -3.24023,1.73626 l -2.1062,3.30629 c -0.3238,0.57891 -0.97198,0.90932 -1.62011,0.90932 h -29.32651 c -1.45794,0 -2.83331,0.16806 -3.889,1.68603 v -8.64904 c 0,-1.98075 2.05601,-3.96151 4.05603,-3.96151 h 16 l 0.0429,0.0459 2.9571,-0.0459 3.92107,0.0125 h 29.32672 c 2.10619,0 3.88848,1.81863 3.88848,3.96778 v 3.05845 c -1.29578,-1.32219 -2.99676,-2.06604 -4.94122,-2.06604 z"
       id="path64"
       sodipodi:nodetypes="csccsssssccccccccccccccccccsssccccccccccssccsssccssscccsccscccccccssscc"
       style="fill:url(#linearGradient2232);fill-opacity:1;stroke-width:0.146133" />
    <path
       d="m 428.04679,516.82755 c -0.20691,-0.3585 -0.0842,-0.81774 0.27431,-1.02432 0.0224,-0.0128 0.0454,-0.0209 0.0677,-0.0311 1.08798,-0.61743 2.34226,-0.97448 3.6826,-0.97448 2.74622,0 5.14125,1.4828 6.44752,3.68372 0.0157,0.0224 0.0333,0.0421 0.0476,0.067 0.20691,0.3585 0.0842,0.81665 -0.27464,1.02431 -0.3585,0.20691 -0.81741,0.0846 -1.02431,-0.27431 v -7.5e-4 l -0.004,0.002 c -1.03711,-1.79297 -2.97183,-3.00183 -5.19216,-3.00183 -1.0935,0 -2.11486,0.29738 -2.9978,0.80822 l -0.002,-0.004 c -0.35887,0.20653 -0.8174,0.0842 -1.02464,-0.27464 z m 10.02501,5.47045 c 0,-0.41456 0.33582,-0.75 0.74926,-0.75 0.41456,0 0.75037,0.33544 0.75037,0.75 0,0.41456 -0.33581,0.75 -0.75037,0.75 -0.41344,0 -0.74926,-0.33544 -0.74926,-0.75 z m -18.62146,12.62138 c -1.17188,-1.17188 -1.17188,-3.0714 0,-4.24219 l 2.00831,-2.0093 c 1.37916,-1.37916 2.46351,-1.32202 3.42628,-0.68334 v 0 c 2.23838,2.23837 4.31911,3.31312 7.1865,3.31312 4.9702,0 9,-4.02867 9,-8.99962 0,-4.97096 -4.0298,-8.99967 -9,-8.99967 -4.97058,0 -9.00037,4.02867 -9.00037,8.99962 0,0.41456 -0.33582,0.75 -0.74926,0.75 -0.41456,0 -0.75037,-0.33544 -0.75037,-0.75 0,-5.79895 4.70142,-10.5 10.5,-10.5 5.79933,0 10.5,4.70105 10.5,10.5 0,2.89931 -1.17478,5.52431 -3.07509,7.42491 -0.24718,0.24717 -0.50499,0.47789 -0.77016,0.69581 -0.11428,0.0941 -0.23766,0.17653 -0.35597,0.26662 -0.156,0.11757 -0.3113,0.23766 -0.47165,0.34608 -0.14429,0.0963 -0.29588,0.18202 -0.44569,0.27099 -0.14321,0.0861 -0.28383,0.17578 -0.43031,0.2549 -0.15746,0.0849 -0.32302,0.15638 -0.48596,0.23363 -0.14831,0.0699 -0.29517,0.14503 -0.44569,0.2069 -0.15745,0.0652 -0.32043,0.11864 -0.48192,0.17654 -0.16148,0.0582 -0.32372,0.12009 -0.48778,0.17029 -0.16444,0.0502 -0.33398,0.0883 -0.5017,0.12966 -0.16407,0.0406 -0.32705,0.0875 -0.49219,0.12009 -0.19261,0.0381 -0.39075,0.0612 -0.58739,0.089 -0.14283,0.0209 -0.28636,0.048 -0.42994,0.0623 -0.34129,0.0333 -0.68845,0.0524 -1.03856,0.0524 -0.30103,0 -0.60277,-0.0176 -0.90342,-0.0428 -0.0883,-0.008 -0.17503,-0.0183 -0.2626,-0.0278 -0.22996,-0.0256 -0.45811,-0.0582 -0.68629,-0.0989 -0.078,-0.0143 -0.15746,-0.026 -0.23475,-0.0421 -0.29039,-0.0578 -0.5775,-0.12815 -0.86171,-0.21056 -0.0652,-0.0194 -0.12853,-0.0421 -0.1941,-0.063 -0.21755,-0.0685 -0.43435,-0.14391 -0.64894,-0.22744 -0.1073,-0.0414 -0.21385,-0.0842 -0.31899,-0.12965 -0.18347,-0.078 -0.36656,-0.16482 -0.5475,-0.25453 -0.13181,-0.0655 -0.26222,-0.13219 -0.39112,-0.20288 -0.85106,-0.46767 -1.6538,-1.05394 -2.37525,-1.77539 -0.85172,-0.85172 -1.30613,-0.81534 -2.12147,0 l -1.99584,1.99547 c -0.58557,0.58556 -0.58557,1.53553 0,2.12184 0.58556,0.58519 1.53553,0.58519 2.12146,0 l 1.59816,-1.59815 c 0.007,-0.007 0.008,-0.0154 0.0143,-0.0216 0.29334,-0.29259 0.76866,-0.29259 1.0613,0 0.29259,0.29372 0.29259,0.76833 0,1.0613 -0.003,0.002 -0.005,0.002 -0.007,0.005 l 0.004,0.004 -1.62891,1.62881 c -1.17183,1.1715 -3.07134,1.1715 -4.24214,0 z m 3.62072,-9.62176 c 0,0.41457 -0.33582,0.75 -0.74926,0.75 -0.41456,0 -0.75037,-0.33543 -0.75037,-0.75 0,-0.41343 0.33581,-0.74924 0.75037,-0.74924 0.41344,0 0.74926,0.33581 0.74926,0.74924 z"
       id="path2-3"
       style="fill:url(#linearGradient1818);fill-opacity:1;stroke-width:0.046875" />
  </g>
</svg>
