<?xml version="1.0" encoding="UTF-8" standalone="no"?>
<svg
   width="40.09"
   height="40.000629"
   viewBox="0 0 40.09 40.000631"
   id="svg6548"
   version="1.1"
   inkscape:version="1.1.1 (3bf5ae0d25, 2021-09-20)"
   sodipodi:docname="system-file-manager.svg"
   xmlns:inkscape="http://www.inkscape.org/namespaces/inkscape"
   xmlns:sodipodi="http://sodipodi.sourceforge.net/DTD/sodipodi-0.dtd"
   xmlns:xlink="http://www.w3.org/1999/xlink"
   xmlns="http://www.w3.org/2000/svg"
   xmlns:svg="http://www.w3.org/2000/svg"
   xmlns:rdf="http://www.w3.org/1999/02/22-rdf-syntax-ns#"
   xmlns:cc="http://creativecommons.org/ns#"
   xmlns:dc="http://purl.org/dc/elements/1.1/">
  <defs
     id="defs6550">
    <linearGradient
       id="linearGradient4274"
       inkscape:collect="always">
      <stop
         id="stop4276"
         offset="0"
         style="stop-color:#ffffff;stop-opacity:1;" />
      <stop
         id="stop4278"
         offset="1"
         style="stop-color:#ffffff;stop-opacity:0.48760331" />
    </linearGradient>
    <linearGradient
       inkscape:collect="always"
       xlink:href="#linearGradient4274"
       id="linearGradient7243-3"
       gradientUnits="userSpaceOnUse"
       gradientTransform="matrix(0.46149782,0,0,0.46149782,-180.18094,1102.9563)"
       x1="390.57144"
       y1="498.298"
       x2="442.57144"
       y2="498.298" />
    <linearGradient
       inkscape:collect="always"
       id="linearGradient2230">
      <stop
         style="stop-color:#4e99ca;stop-opacity:0.80000001"
         offset="0"
         id="stop2226" />
      <stop
         style="stop-color:#20ffff;stop-opacity:0.80000001"
         offset="0.50507295"
         id="stop2332" />
      <stop
         style="stop-color:#ffaeff;stop-opacity:0.69"
         offset="1"
         id="stop2228" />
    </linearGradient>
    <linearGradient
       inkscape:collect="always"
       xlink:href="#linearGradient2230"
       id="linearGradient2232-3"
       x1="384.57144"
       y1="515.79797"
       x2="448.57144"
       y2="515.79797"
       gradientUnits="userSpaceOnUse"
       gradientTransform="matrix(0.58640777,0,0,0.58076913,-313.87244,723.55398)" />
    <linearGradient
       inkscape:collect="always"
       xlink:href="#linearGradient2230"
       id="linearGradient1818"
       x1="343.57162"
       y1="524.79797"
       x2="367.57162"
       y2="524.79797"
       gradientUnits="userSpaceOnUse"
       gradientTransform="matrix(0.58640777,0,0,0.58640777,-269.89196,720.08859)" />
  </defs>
  <sodipodi:namedview
     id="base"
     pagecolor="#ffffff"
     bordercolor="#666666"
     borderopacity="1.0"
     inkscape:pageopacity="0.0"
     inkscape:pageshadow="2"
     inkscape:zoom="16.000001"
     inkscape:cx="8.7499996"
     inkscape:cy="20.874999"
     inkscape:document-units="px"
     inkscape:current-layer="layer1"
     showgrid="true"
     units="px"
     inkscape:snap-bbox="true"
     inkscape:bbox-nodes="true"
     inkscape:object-nodes="true"
     inkscape:snap-global="true"
     showborder="true"
     inkscape:document-rotation="0"
     inkscape:window-width="1920"
     inkscape:window-height="1006"
     inkscape:window-x="0"
     inkscape:window-y="0"
     inkscape:window-maximized="1"
     inkscape:pagecheckerboard="0">
    <inkscape:grid
       type="xygrid"
       id="grid7247"
       originx="89.656761"
       originy="17.348718" />
  </sodipodi:namedview>
  <metadata
     id="metadata6553">
    <rdf:RDF>
      <cc:Work
         rdf:about="">
        <dc:format>image/svg+xml</dc:format>
        <dc:type
           rdf:resource="http://purl.org/dc/dcmitype/StillImage" />
      </cc:Work>
    </rdf:RDF>
  </metadata>
  <g
     inkscape:label="Livello 1"
     inkscape:groupmode="layer"
     id="layer1"
     transform="translate(89.65676,-1003.0135)">
    <rect
       style="fill:#3b445f;fill-opacity:1;stroke:none;stroke-width:0.73582"
       id="center-3-3"
       width="35.25"
       height="24.392305"
       x="-87.206757"
       y="1012.66"
       ry="2.3230741"
       rx="2.3500066" />
    <path
       d="m -54.24723,1011.5038 h -17.19741 c -0.38009,0 -0.71246,-0.1938 -0.95005,-0.5333 l -1.28276,-1.9388 c -0.42749,-0.6786 -1.14025,-1.0182 -1.9001,-1.0182 h -8.78873 c -2.18548,0 -3.99048,1.8422 -3.99048,4.0719 v 22.6379 c 0,1.8905 1.52039,3.4902 3.42048,3.4902 h 14.77457 v 0 0 0 0 0 0 0 h 1.13999 v 0 0 0 0 0 0 0 0 0 h 14.77458 c 1.85276,0 3.42048,-1.5514 3.42048,-3.4902 v -19.7294 c 0,-1.9389 -1.52005,-3.4899 -3.42048,-3.4899 z m -14.77449,26.7097 v 0 h -1.13999 v 0 0 z m 17.05481,-3.4901 c 0,1.2602 -0.99781,2.3267 -2.28023,2.3267 h -30.68931 c -1.23509,0 -2.28023,-1.0665 -2.28023,-2.3267 l -3.4e-4,-7.8045 v -4.4113 c 0,-1.2603 1.04514,-2.3268 2.28023,-2.3268 h 17.19741 c 0.76019,0 1.47262,-0.3878 1.9001,-1.0181 l 1.23509,-1.9389 c 0.2376,-0.2907 0.56998,-0.5332 0.95005,-0.5332 h 8.83624 c 1.56772,0 2.85057,1.3089 2.85057,2.9087 v 6.3502 z m -2.85057,-19.1477 h -8.83624 c -0.76018,0 -1.47262,0.3878 -1.90009,1.0181 l -1.2351,1.9389 c -0.18987,0.3395 -0.56997,0.5332 -0.95004,0.5332 h -17.19729 c -0.85495,0 -1.66148,0.099 -2.28054,0.9887 v -5.0719 c 0,-1.1615 1.20566,-2.323 2.37848,-2.323 h 9.38253 l 0.0252,0.027 1.73406,-0.027 2.29935,0.01 h 17.19741 c 1.23509,0 2.28024,1.0664 2.28024,2.3267 v 1.7935 c -0.75986,-0.7753 -1.75732,-1.2115 -2.89757,-1.2115 z"
       id="path64-5"
       sodipodi:nodetypes="csccsssssccccccccccccccccccsssccccccccccssccsssccssscccsccscccccccssscc"
       style="fill:url(#linearGradient2232-3);fill-opacity:1;stroke-width:0.0856935" />
    <path
       d="m -62.86247,1023.7466 c -0.12133,-0.2103 -0.0494,-0.4796 0.16086,-0.6007 0.0131,-0.01 0.0266,-0.012 0.0397,-0.018 0.638,-0.3621 1.37352,-0.5715 2.1595,-0.5715 1.61041,0 3.01487,0.8696 3.78088,2.1603 0.009,0.013 0.0195,0.025 0.0279,0.039 0.12133,0.2102 0.0494,0.4788 -0.16105,0.6006 -0.21023,0.1213 -0.47934,0.05 -0.60066,-0.1608 v -5e-4 h -0.002 c -0.60817,-1.0514 -1.7427,-1.7603 -3.04472,-1.7603 -0.64124,0 -1.24017,0.1744 -1.75794,0.474 h -0.001 c -0.21044,0.121 -0.47933,0.049 -0.60086,-0.1611 z m 5.87874,3.2079 c 0,-0.2431 0.19693,-0.4398 0.43937,-0.4398 0.24311,0 0.44003,0.1967 0.44003,0.4398 0,0.2431 -0.19692,0.4398 -0.44003,0.4398 -0.24244,0 -0.43937,-0.1967 -0.43937,-0.4398 z m -10.91977,7.4013 c -0.6872,-0.6873 -0.6872,-1.8011 0,-2.4877 l 1.17769,-1.1783 c 0.80875,-0.8087 1.44462,-0.7752 2.0092,-0.4007 v 0 c 1.3126,1.3126 2.53276,1.9429 4.21422,1.9429 2.91456,0 5.27767,-2.3625 5.27767,-5.2775 0,-2.915 -2.36311,-5.2774 -5.27767,-5.2774 -2.91479,0 -5.27789,2.3624 -5.27789,5.2774 0,0.2431 -0.19693,0.4398 -0.43937,0.4398 -0.2431,0 -0.44002,-0.1967 -0.44002,-0.4398 0,-3.4006 2.75695,-6.1573 6.15728,-6.1573 3.40077,0 6.15728,2.7567 6.15728,6.1573 0,1.7001 -0.6889,3.2395 -1.80326,4.354 -0.14494,0.1449 -0.29613,0.2802 -0.45162,0.408 -0.067,0.055 -0.13937,0.1035 -0.20875,0.1563 -0.0915,0.069 -0.18255,0.1394 -0.27658,0.203 -0.0846,0.056 -0.1735,0.1067 -0.26135,0.1589 -0.084,0.05 -0.16644,0.1031 -0.25234,0.1495 -0.0923,0.05 -0.18942,0.092 -0.28497,0.137 -0.087,0.041 -0.17309,0.085 -0.26136,0.1213 -0.0923,0.038 -0.1879,0.07 -0.2826,0.1036 -0.0947,0.034 -0.18983,0.07 -0.28604,0.1 -0.0964,0.029 -0.19584,0.052 -0.2942,0.076 -0.0962,0.024 -0.19178,0.051 -0.28862,0.071 -0.11295,0.022 -0.22914,0.036 -0.34445,0.052 -0.0838,0.012 -0.16792,0.028 -0.25212,0.036 -0.20014,0.019 -0.40371,0.031 -0.60902,0.031 -0.17653,0 -0.35347,-0.011 -0.52977,-0.025 -0.0518,-0.01 -0.10264,-0.011 -0.15399,-0.016 -0.13485,-0.015 -0.26864,-0.034 -0.40245,-0.058 -0.0457,-0.01 -0.0923,-0.015 -0.13766,-0.025 -0.17029,-0.034 -0.33865,-0.075 -0.50531,-0.1235 -0.0382,-0.011 -0.0754,-0.025 -0.11382,-0.037 -0.12758,-0.04 -0.25471,-0.084 -0.38055,-0.1334 -0.0629,-0.024 -0.1254,-0.049 -0.18706,-0.076 -0.10758,-0.046 -0.21495,-0.097 -0.32105,-0.1493 -0.0773,-0.038 -0.15377,-0.077 -0.22936,-0.1189 -0.49907,-0.2743 -0.9698,-0.6181 -1.39287,-1.0411 -0.49945,-0.4995 -0.76592,-0.4782 -1.24404,0 l -1.17038,1.1701 c -0.34338,0.3434 -0.34338,0.9005 0,1.2443 0.34338,0.3431 0.90045,0.3431 1.24404,0 l 0.93718,-0.9372 c 0.004,-0.01 0.005,-0.01 0.008,-0.013 0.17202,-0.1716 0.45075,-0.1716 0.62236,0 0.17157,0.1722 0.17157,0.4506 0,0.6223 -0.002,0 -0.003,0 -0.004,0.01 h 0.002 l -0.95521,0.9551 c -0.68717,0.687 -1.80106,0.687 -2.48762,0 z m 2.12322,-5.6423 c 0,0.2431 -0.19693,0.4398 -0.43937,0.4398 -0.2431,0 -0.44002,-0.1967 -0.44002,-0.4398 0,-0.2425 0.19692,-0.4394 0.44002,-0.4394 0.24244,0 0.43937,0.1969 0.43937,0.4394 z"
       id="path2-3"
       style="fill:url(#linearGradient1818);fill-opacity:1;stroke-width:0.0274879" />
  </g>
</svg>
