<?xml version="1.0" encoding="UTF-8" standalone="no"?>
<svg
   width="48"
   height="48"
   viewBox="0 0 48 48"
   version="1.1"
   id="svg52"
   sodipodi:docname="system-file-manager.svg"
   inkscape:version="1.1.1 (3bf5ae0d25, 2021-09-20)"
   xmlns:inkscape="http://www.inkscape.org/namespaces/inkscape"
   xmlns:sodipodi="http://sodipodi.sourceforge.net/DTD/sodipodi-0.dtd"
   xmlns:xlink="http://www.w3.org/1999/xlink"
   xmlns="http://www.w3.org/2000/svg"
   xmlns:svg="http://www.w3.org/2000/svg"
   xmlns:rdf="http://www.w3.org/1999/02/22-rdf-syntax-ns#"
   xmlns:cc="http://creativecommons.org/ns#"
   xmlns:dc="http://purl.org/dc/elements/1.1/">
  <metadata
     id="metadata56">
    <rdf:RDF>
      <cc:Work
         rdf:about="">
        <dc:format>image/svg+xml</dc:format>
        <dc:type
           rdf:resource="http://purl.org/dc/dcmitype/StillImage" />
      </cc:Work>
    </rdf:RDF>
  </metadata>
  <sodipodi:namedview
     pagecolor="#ffffff"
     bordercolor="#666666"
     borderopacity="1"
     objecttolerance="10"
     gridtolerance="10"
     guidetolerance="10"
     inkscape:pageopacity="0"
     inkscape:pageshadow="2"
     inkscape:window-width="1920"
     inkscape:window-height="1007"
     id="namedview54"
     showgrid="true"
     inkscape:zoom="11.240052"
     inkscape:cx="15.925193"
     inkscape:cy="29.937584"
     inkscape:window-x="0"
     inkscape:window-y="0"
     inkscape:window-maximized="1"
     inkscape:current-layer="svg52"
     inkscape:document-rotation="0"
     inkscape:pagecheckerboard="0">
    <inkscape:grid
       type="xygrid"
       id="grid962" />
  </sodipodi:namedview>
  <defs
     id="defs32">
    <linearGradient
       xlink:href="#linearGradient4393"
       id="linearGradient4399"
       x1="424.441"
       y1="502.85"
       x2="440.878"
       y2="529.576"
       gradientUnits="userSpaceOnUse"
       gradientTransform="matrix(0.69224711,0,0,0.69224711,-280.19324,674.76546)" />
    <linearGradient
       id="linearGradient4393">
      <stop
         style="stop-color:#000000;stop-opacity:1;"
         offset="0"
         id="stop3" />
      <stop
         style="stop-color:#000000;stop-opacity:0;"
         offset="1"
         id="stop5" />
    </linearGradient>
    <linearGradient
       xlink:href="#linearGradient4274"
       id="linearGradient4217"
       gradientUnits="userSpaceOnUse"
       gradientTransform="matrix(0.69224711,0,0,0.69224711,-264.27155,2671.7976)"
       x1="390.571"
       y1="498.298"
       x2="442.571"
       y2="498.298" />
    <linearGradient
       id="linearGradient4274">
      <stop
         offset="0"
         style="stop-color:#ffffff;stop-opacity:1;"
         id="stop9" />
      <stop
         offset="1"
         style="stop-color:#ffffff;stop-opacity:0.48760331"
         id="stop11" />
    </linearGradient>
    <linearGradient
       xlink:href="#linearGradient4172-5"
       id="linearGradient4178"
       y1="548.886"
       y2="495.308"
       x2="397.228"
       gradientUnits="userSpaceOnUse"
       gradientTransform="matrix(0.69224711,0,0,0.69202181,-264.27155,671.42636)"
       x1="434.162" />
    <linearGradient
       id="linearGradient4172-5">
      <stop
         style="stop-color:#127bdc;stop-opacity:1"
         id="stop15" />
      <stop
         offset="1"
         style="stop-color:#64b4f4;stop-opacity:1"
         id="stop17" />
    </linearGradient>
    <linearGradient
       xlink:href="#linearGradient4227"
       id="linearGradient4225"
       gradientUnits="userSpaceOnUse"
       x1="396.571"
       y1="498.798"
       x2="426.571"
       y2="511.798"
       gradientTransform="matrix(0.69224711,0,0,0.69224711,-264.27155,671.68871)" />
    <linearGradient
       id="linearGradient4227">
      <stop
         offset="0"
         style="stop-color:#f5f5f5;stop-opacity:1"
         id="stop21" />
      <stop
         offset="1"
         style="stop-color:#f9f9f9;stop-opacity:1"
         id="stop23" />
    </linearGradient>
    <linearGradient
       gradientTransform="matrix(0.69224711,0,0,0.69224711,-264.27155,671.30423)"
       xlink:href="#linearGradient4291"
       id="linearGradient4297"
       x1="388.571"
       y1="487.798"
       x2="416.571"
       y2="507.798"
       gradientUnits="userSpaceOnUse" />
    <linearGradient
       id="linearGradient4291">
      <stop
         style="stop-color:#1d5e8c;stop-opacity:1"
         offset="0"
         id="stop27" />
      <stop
         style="stop-color:#2675a7;stop-opacity:1"
         offset="1"
         id="stop29" />
    </linearGradient>
    <linearGradient
       inkscape:collect="always"
       id="linearGradient2230">
      <stop
         style="stop-color:#4e99ca;stop-opacity:0.80000001"
         offset="0"
         id="stop2226" />
      <stop
         style="stop-color:#20ffff;stop-opacity:0.80000001"
         offset="0.50507295"
         id="stop2332" />
      <stop
         style="stop-color:#ffaeff;stop-opacity:0.69"
         offset="1"
         id="stop2228" />
    </linearGradient>
    <linearGradient
       inkscape:collect="always"
       xlink:href="#linearGradient2230"
       id="linearGradient2232"
       x1="384.57144"
       y1="515.79797"
       x2="448.57144"
       y2="515.79797"
       gradientUnits="userSpaceOnUse"
       gradientTransform="matrix(0.75048545,0,0,0.74326915,-288.61527,-359.30172)" />
    <linearGradient
       inkscape:collect="always"
       xlink:href="#linearGradient2230"
       id="linearGradient979"
       x1="23.299999"
       y1="30.999989"
       x2="43.761395"
       y2="30.999989"
       gradientUnits="userSpaceOnUse" />
  </defs>
  <rect
     style="fill:#626f9d;fill-opacity:0.2;stroke:none;stroke-width:0.941613"
     id="center-3"
     width="45.104176"
     height="31.217306"
     x="1.501008"
     y="10.69627"
     ry="2.9730732"
     rx="3.0069537" />
  <path
     d="M 43.653427,9.216799 H 21.64415 c -0.486442,0 -0.911809,-0.247968 -1.215868,-0.682431 L 18.786594,6.053045 C 18.239499,5.184531 17.327306,4.75 16.354849,4.75 H 5.107016 C 2.310039,4.75 0,7.10759 0,9.961153 V 38.933216 C 0,41.352736 1.945791,43.4 4.377536,43.4 h 18.908519 v 0 0 0 0 0 0 0 h 1.458959 v 0 0 0 0 0 0 0 0 0 h 18.908519 c 2.371165,0 4.377536,-1.985454 4.377536,-4.466784 V 13.683471 c 0,-2.481323 -1.945356,-4.466357 -4.377536,-4.466357 z M 24.745014,43.4 v 0 h -1.458959 v 0 0 z M 46.57178,38.933358 c 0,1.612861 -1.276996,2.977724 -2.918247,2.977724 H 4.377319 c -1.580672,0 -2.918248,-1.364863 -2.918248,-2.977724 l -4.35e-4,-9.988241 v -5.645624 c 0,-1.612905 1.337583,-2.977753 2.918248,-2.977753 h 22.009269 c 0.972885,0 1.884664,-0.496356 2.431753,-1.303046 l 1.580665,-2.481322 c 0.304082,-0.372151 0.729457,-0.682439 1.215877,-0.682439 h 11.308629 c 2.00637,0 3.648162,1.675143 3.648162,3.72255 V 27.70443 Z M 42.923617,14.428065 H 31.614988 c -0.972885,0 -1.884665,0.496371 -2.431746,1.303038 l -1.580672,2.481322 c -0.243008,0.434464 -0.729457,0.682432 -1.215869,0.682432 H 4.377581 c -1.094162,0 -2.126358,0.126126 -2.918637,1.265341 v -6.490979 c 0,-1.486524 1.543005,-2.973056 3.043991,-2.973056 h 12.007767 l 0.0322,0.03444 2.21926,-0.03444 2.942706,0.0094 h 22.009276 c 1.580666,0 2.918248,1.364855 2.918248,2.977761 v 2.295322 c -0.972464,-0.992284 -2.249024,-1.550533 -3.708313,-1.550533 z"
     id="path64"
     sodipodi:nodetypes="csccsssssccccccccccccccccccsssccccccccccssccsssccssscccsccscccccccssscc"
     style="fill:url(#linearGradient2232);fill-opacity:1;stroke-width:0.109671" />
  <path
     d="m 43.596218,27.73618 c 0.0393,-0.812699 -0.82736,-1.649819 -1.179895,-1.953366 -1.948464,-4.929925 -8.944363,-3.206687 -10.310389,-2.815101 -3.559235,-2.261766 -6.30077,0.146879 -6.32529,0.171482 -0.132232,0.117576 -0.190832,0.298638 -0.151762,0.474818 0.0392,0.171295 0.171302,0.308407 0.342775,0.357427 1.096723,0.313288 1.924084,1.375793 2.271538,1.889893 -2.555512,2.99128 -2.648504,7.255206 -2.624073,8.351979 -3.18717,2.638734 -2.178588,5.355938 -2.129727,5.473259 0.0685,0.171292 0.225193,0.293754 0.411325,0.308404 0.0146,0.005 0.0293,0.005 0.0439,0.005 0.166412,0 0.328124,-0.0881 0.416215,-0.234963 0.582627,-0.939871 1.312137,-1.507828 2.163917,-1.688901 1.522499,-0.323063 3.001038,0.660938 3.015708,0.670699 0.112492,0.0783 0.254504,0.107621 0.391605,0.0734 0.132222,-0.0344 0.249613,-0.122471 0.313294,-0.244732 0.76855,-1.414888 -0.421105,-3.216501 -0.861751,-3.808889 0.562907,-2.389129 1.943605,-3.774496 3.025468,-4.523526 l -0.220312,0.367195 c -0.0686,0.122461 -0.0881,0.264453 -0.0441,0.396494 0.0392,0.137113 0.137112,0.244734 0.264453,0.303525 0.479706,0.210552 1.150435,0.230092 2.002415,0.0539 0.709989,-0.151762 1.395348,-0.518957 1.982836,-1.062344 0.768549,-0.705078 1.62543,-0.758789 1.62543,-0.758789 h 4.866451 c 0.112701,0 0.215443,-0.0391 0.303524,-0.102741 0.416215,-0.327937 0.533626,-0.685369 0.562907,-0.930114 0.0396,-0.323802 -0.0633,-0.597857 -0.156262,-0.774226 z m -3.441663,-0.528722 h -0.269344 c -0.269343,0 -0.489676,-0.220314 -0.489676,-0.489675 0,-0.26934 0.220323,-0.489674 0.489676,-0.489674 h 0.269344 c 0.274223,0 0.489666,0.220315 0.489666,0.489674 0,0.269341 -0.215433,0.489675 -0.489666,0.489675 z"
     id="path49"
     style="stroke-width:0.0480827;fill-opacity:1.0;fill:url(#linearGradient979)" />
</svg>
