<?xml version="1.0" encoding="UTF-8" standalone="no"?>
<svg
   version="1.0"
   width="27.733332"
   height="27.733332"
   id="svg2"
   inkscape:version="1.3.2 (091e20ef0f, 2023-11-25)"
   sodipodi:docname="close.svg"
   viewBox="0 0 26.000001 25.999998"
   xmlns:inkscape="http://www.inkscape.org/namespaces/inkscape"
   xmlns:sodipodi="http://sodipodi.sourceforge.net/DTD/sodipodi-0.dtd"
   xmlns:xlink="http://www.w3.org/1999/xlink"
   xmlns="http://www.w3.org/2000/svg"
   xmlns:svg="http://www.w3.org/2000/svg"
   xmlns:rdf="http://www.w3.org/1999/02/22-rdf-syntax-ns#"
   xmlns:cc="http://creativecommons.org/ns#"
   xmlns:dc="http://purl.org/dc/elements/1.1/">
  <sodipodi:namedview
     pagecolor="#ffffff"
     bordercolor="#000000"
     borderopacity="1"
     objecttolerance="10"
     gridtolerance="10"
     guidetolerance="10"
     inkscape:pageopacity="1"
     inkscape:pageshadow="2"
     inkscape:window-width="1920"
     inkscape:window-height="994"
     id="namedview32"
     showgrid="false"
     inkscape:zoom="5.656854"
     inkscape:cx="62.75573"
     inkscape:cy="8.7504468"
     inkscape:window-x="0"
     inkscape:window-y="0"
     inkscape:window-maximized="1"
     inkscape:current-layer="svg2"
     inkscape:document-rotation="0"
     inkscape:showpageshadow="true"
     inkscape:pagecheckerboard="0"
     showguides="false"
     inkscape:deskcolor="#cccccc">
    <inkscape:grid
       type="xygrid"
       id="grid3218"
       empspacing="5"
       visible="false"
       enabled="true"
       snapvisiblegridlinesonly="true"
       color="#0000ff"
       opacity="0.01960784"
       empcolor="#0000ff"
       empopacity="0.03921569"
       originx="-26.000052"
       originy="5.9999971"
       spacingx="1"
       spacingy="1"
       units="px" />
  </sodipodi:namedview>
  <metadata
     id="metadata11">
    <rdf:RDF>
      <cc:Work
         rdf:about="">
        <dc:format>image/svg+xml</dc:format>
        <dc:type
           rdf:resource="http://purl.org/dc/dcmitype/StillImage" />
      </cc:Work>
    </rdf:RDF>
  </metadata>
  <defs
     id="defs4">
    <linearGradient
       id="linearGradient3587-6-5">
      <stop
         id="stop3589-9-2"
         style="stop-color:#000000;stop-opacity:1"
         offset="0" />
      <stop
         id="stop3591-7-4"
         style="stop-color:#646464;stop-opacity:1"
         offset="1" />
    </linearGradient>
    <linearGradient
       x1="7.0799088"
       y1="7.6944885"
       x2="11.317808"
       y2="11.932388"
       id="linearGradient2388"
       xlink:href="#linearGradient3587-6-5"
       gradientUnits="userSpaceOnUse"
       gradientTransform="rotate(45,12.12132,10.707107)" />
    <linearGradient
       x1="8.1313992"
       y1="19.049677"
       x2="8.1313992"
       y2="15.935893"
       id="linearGradient5038"
       xlink:href="#linearGradient3732-77"
       gradientUnits="userSpaceOnUse"
       gradientTransform="matrix(0.8666667,0,0,0.73333335,2.0666666,-16.066667)" />
    <linearGradient
       id="linearGradient3732-77">
      <stop
         id="stop3734-3"
         style="stop-color:#000000;stop-opacity:1"
         offset="0" />
      <stop
         id="stop3736-71"
         style="stop-color:#000000;stop-opacity:0"
         offset="1" />
    </linearGradient>
    <linearGradient
       x1="8.1313992"
       y1="19.049677"
       x2="8.1313992"
       y2="15.935893"
       id="linearGradient3794"
       xlink:href="#linearGradient3788"
       gradientUnits="userSpaceOnUse"
       gradientTransform="matrix(1.1333334,0,0,0.99999997,-0.06666673,-2.9999999)" />
    <linearGradient
       id="linearGradient3788">
      <stop
         id="stop3790"
         style="stop-color:#ffffff;stop-opacity:1"
         offset="0" />
      <stop
         id="stop3792"
         style="stop-color:#ffffff;stop-opacity:0"
         offset="1" />
    </linearGradient>
    <linearGradient
       x1="22.863201"
       y1="-0.94923496"
       x2="26.23391"
       y2="2.4214737"
       id="linearGradient6695"
       xlink:href="#linearGradient3587-6-5-1-5"
       gradientUnits="userSpaceOnUse"
       gradientTransform="rotate(45,4.0355353,-15.642136)" />
    <linearGradient
       id="linearGradient3587-6-5-1-5">
      <stop
         id="stop3589-9-2-8-5"
         style="stop-color:#000000;stop-opacity:1"
         offset="0" />
      <stop
         id="stop3591-7-4-3-0"
         style="stop-color:#646464;stop-opacity:1"
         offset="1" />
    </linearGradient>
    <linearGradient
       x1="19.490692"
       y1="-4.321744"
       x2="22.886868"
       y2="-0.92556846"
       id="linearGradient6693"
       xlink:href="#linearGradient3587-6-5-1-5"
       gradientUnits="userSpaceOnUse"
       gradientTransform="rotate(45,4.0355353,-15.642136)" />
    <linearGradient
       id="linearGradient3059">
      <stop
         id="stop3061"
         style="stop-color:#000000;stop-opacity:1"
         offset="0" />
      <stop
         id="stop3063"
         style="stop-color:#646464;stop-opacity:1"
         offset="1" />
    </linearGradient>
    <linearGradient
       x1="20.534313"
       y1="-4.3515615"
       x2="26.152533"
       y2="1.2666581"
       id="linearGradient6693-5"
       xlink:href="#linearGradient3587-6-5-1-5-2"
       gradientUnits="userSpaceOnUse"
       gradientTransform="rotate(45,4.0355353,-15.642136)" />
    <linearGradient
       id="linearGradient3587-6-5-1-5-2">
      <stop
         id="stop3589-9-2-8-5-0"
         style="stop-color:#000000;stop-opacity:1"
         offset="0" />
      <stop
         id="stop3591-7-4-3-0-1"
         style="stop-color:#646464;stop-opacity:1"
         offset="1" />
    </linearGradient>
    <linearGradient
       x1="19.490692"
       y1="-4.321744"
       x2="22.886868"
       y2="-0.92556846"
       id="linearGradient3054"
       xlink:href="#linearGradient3587-6-5-1-5-2"
       gradientUnits="userSpaceOnUse"
       gradientTransform="rotate(45,3.1568563,-28.006097)" />
    <linearGradient
       x1="20.534313"
       y1="-4.3515615"
       x2="26.152533"
       y2="1.2666581"
       id="linearGradient6693-5-4"
       xlink:href="#linearGradient3587-6-5-1-5-2-1"
       gradientUnits="userSpaceOnUse"
       gradientTransform="rotate(45,-6.6146827,-50.612924)" />
    <linearGradient
       id="linearGradient3587-6-5-1-5-2-1">
      <stop
         id="stop3589-9-2-8-5-0-2"
         style="stop-color:#000000;stop-opacity:1"
         offset="0" />
      <stop
         id="stop3591-7-4-3-0-1-4"
         style="stop-color:#646464;stop-opacity:1"
         offset="1" />
    </linearGradient>
    <linearGradient
       x1="8.1313992"
       y1="19.049677"
       x2="8.1313992"
       y2="15.935893"
       id="linearGradient5038-3"
       xlink:href="#linearGradient3732-77-1"
       gradientUnits="userSpaceOnUse"
       gradientTransform="matrix(0.8666667,0,0,0.73333335,-25.780791,-13.354803)" />
    <linearGradient
       id="linearGradient3732-77-1">
      <stop
         id="stop3734-3-1"
         style="stop-color:#000000;stop-opacity:1"
         offset="0" />
      <stop
         id="stop3736-71-8"
         style="stop-color:#000000;stop-opacity:0"
         offset="1" />
    </linearGradient>
    <linearGradient
       x1="8.1313992"
       y1="19.049677"
       x2="8.1313992"
       y2="15.935893"
       id="linearGradient3794-3"
       xlink:href="#linearGradient3788-3"
       gradientUnits="userSpaceOnUse"
       gradientTransform="matrix(1.1333334,0,0,0.99999997,-27.914124,-5.7118643)" />
    <linearGradient
       id="linearGradient3788-3">
      <stop
         id="stop3790-8"
         style="stop-color:#ffffff;stop-opacity:1"
         offset="0" />
      <stop
         id="stop3792-3"
         style="stop-color:#ffffff;stop-opacity:0"
         offset="1" />
    </linearGradient>
    <linearGradient
       inkscape:collect="always"
       xlink:href="#linearGradient3788-3"
       id="linearGradient3210"
       gradientUnits="userSpaceOnUse"
       gradientTransform="matrix(1.1333334,0,0,0.99999997,-27.914124,-5.7118643)"
       x1="8.1313992"
       y1="19.049677"
       x2="8.1313992"
       y2="15.935893" />
    <linearGradient
       inkscape:collect="always"
       xlink:href="#linearGradient3732-77-1"
       id="linearGradient3212"
       gradientUnits="userSpaceOnUse"
       gradientTransform="matrix(0.8666667,0,0,0.73333335,-25.780791,-13.354803)"
       x1="8.1313992"
       y1="19.049677"
       x2="8.1313992"
       y2="15.935893" />
    <linearGradient
       inkscape:collect="always"
       xlink:href="#linearGradient3587-6-5-1-5-2-1"
       id="linearGradient3214"
       gradientUnits="userSpaceOnUse"
       gradientTransform="rotate(45,-6.6146827,-50.612924)"
       x1="20.534313"
       y1="-4.3515615"
       x2="26.152533"
       y2="1.2666581" />
    <linearGradient
       id="linearGradient3587-6-5-1-5-2-7">
      <stop
         offset="0"
         style="stop-color:#000000;stop-opacity:1"
         id="stop3589-9-2-8-5-0-9" />
      <stop
         offset="1"
         style="stop-color:#646464;stop-opacity:1"
         id="stop3591-7-4-3-0-1-5" />
    </linearGradient>
    <linearGradient
       id="linearGradient3732-77-2"
       inkscape:collect="always">
      <stop
         id="stop3734-3-2"
         offset="0"
         style="stop-color:#000000;stop-opacity:1;" />
      <stop
         id="stop3736-71-0"
         offset="1"
         style="stop-color:#000000;stop-opacity:0;" />
    </linearGradient>
    <linearGradient
       inkscape:collect="always"
       id="linearGradient3788-8">
      <stop
         style="stop-color:#ffffff;stop-opacity:1;"
         offset="0"
         id="stop3790-7" />
      <stop
         style="stop-color:#ffffff;stop-opacity:0;"
         offset="1"
         id="stop3792-4" />
    </linearGradient>
    <linearGradient
       inkscape:collect="always"
       xlink:href="#linearGradient3788-8"
       id="linearGradient3298"
       gradientUnits="userSpaceOnUse"
       gradientTransform="matrix(1.1333334,0,0,0.99999997,-5.0666667,42)"
       x1="8.1313992"
       y1="19.049677"
       x2="8.1313992"
       y2="15.935893" />
    <linearGradient
       inkscape:collect="always"
       xlink:href="#linearGradient3732-77-2"
       id="linearGradient3300"
       gradientUnits="userSpaceOnUse"
       gradientTransform="matrix(0.8666667,0,0,0.73333335,-2.9333334,-61.066667)"
       x1="8.1313992"
       y1="19.049677"
       x2="8.1313992"
       y2="15.935893" />
    <linearGradient
       inkscape:collect="always"
       xlink:href="#linearGradient3587-6-5-1-5-2-7"
       id="linearGradient3302"
       gradientUnits="userSpaceOnUse"
       gradientTransform="rotate(45,-52.784269,0.82232777)"
       x1="20.534313"
       y1="-4.3515615"
       x2="26.152533"
       y2="1.2666581" />
    <linearGradient
       x1="20.534313"
       y1="-4.3515615"
       x2="26.152533"
       y2="1.2666581"
       id="linearGradient6693-5-9"
       xlink:href="#linearGradient3587-6-5-1-5-2-4"
       gradientUnits="userSpaceOnUse"
       gradientTransform="rotate(45,24.578427,37.367009)" />
    <linearGradient
       id="linearGradient3587-6-5-1-5-2-4">
      <stop
         id="stop3589-9-2-8-5-0-4"
         style="stop-color:#000000;stop-opacity:1"
         offset="0" />
      <stop
         id="stop3591-7-4-3-0-1-0"
         style="stop-color:#646464;stop-opacity:1"
         offset="1" />
    </linearGradient>
  </defs>
  <g
     id="g4859"
     transform="matrix(0.78353038,0,0,0.77994664,284.35705,-211.26085)"
     style="stroke:#eff0ff;stroke-width:3.32593;stroke-miterlimit:4;stroke-dasharray:none;stroke-opacity:1" />
  <g
     inkscape:transform-center-y="-0.049514946"
     inkscape:transform-center-x="-5.671095"
     id="g3870"
     transform="matrix(1.3,0,0,1.3,-2304.6846,-421.05971)">
    <g
       id="g3872"
       transform="matrix(0.60271568,0,0,0.59995895,2031.5705,161.38374)"
       style="stroke:#eff0ff;stroke-width:3.32593;stroke-miterlimit:4;stroke-dasharray:none;stroke-opacity:1" />
  </g>
  <g
     transform="matrix(1.3,0,0,1.3,-2278.6846,-421.05971)"
     id="g3066"
     inkscape:transform-center-x="-5.671095"
     inkscape:transform-center-y="-0.049514946">
    <g
       style="stroke:#eff0ff;stroke-width:3.32593;stroke-miterlimit:4;stroke-dasharray:none;stroke-opacity:1"
       transform="matrix(0.60271568,0,0,0.59995895,2031.5705,161.38374)"
       id="g3068" />
  </g>
  <g
     transform="matrix(1.3,0,0,1.3,-2226.6846,-421.05971)"
     id="g3098"
     inkscape:transform-center-x="-5.671095"
     inkscape:transform-center-y="-0.049514946">
    <g
       style="stroke:#eff0ff;stroke-width:3.32593;stroke-miterlimit:4;stroke-dasharray:none;stroke-opacity:1"
       transform="matrix(0.60271568,0,0,0.59995895,2031.5705,161.38374)"
       id="g3100" />
  </g>
  <g
     transform="matrix(1.3,0,0,1.3,-2330.6846,-421.05971)"
     id="g3090"
     inkscape:transform-center-x="-5.671095"
     inkscape:transform-center-y="-0.049514946">
    <g
       style="stroke:#eff0ff;stroke-width:3.32593;stroke-miterlimit:4;stroke-dasharray:none;stroke-opacity:1"
       transform="matrix(0.60271568,0,0,0.59995895,2031.5705,161.38374)"
       id="g3092" />
  </g>
  <g
     inkscape:transform-center-y="-0.049514946"
     inkscape:transform-center-x="-5.671095"
     id="g3875"
     transform="matrix(1.3,0,0,1.3,-2252.6846,-421.05971)">
    <g
       id="g3877"
       transform="matrix(0.60271568,0,0,0.59995895,2031.5705,161.38374)"
       style="stroke:#eff0ff;stroke-width:3.32593;stroke-miterlimit:4;stroke-dasharray:none;stroke-opacity:1" />
  </g>
  <g
     id="active-center"
     transform="translate(-26)">
    <rect
       y="6.0424803e-08"
       x="8.1024169e-08"
       height="26"
       width="26"
       id="rect3058-6"
       style="opacity:0.00100002;fill:#ffffff;fill-opacity:1;stroke:none;stroke-width:1.3" />
    <path
       inkscape:connector-curvature="0"
       id="path3136-5"
       d="m 10.054291,10.078608 6.218052,6.189611"
       style="fill:none;stroke:#d6dbf1;stroke-width:1.78195;stroke-linecap:round;stroke-linejoin:miter;stroke-miterlimit:4;stroke-dasharray:none;stroke-opacity:1" />
    <path
       style="fill:none;stroke:#d6dbf1;stroke-width:1.78517;stroke-linecap:round;stroke-linejoin:miter;stroke-miterlimit:4;stroke-dasharray:none;stroke-opacity:1"
       d="m 16.27073,10.051371 -6.214826,6.215237"
       id="path3138-3"
       inkscape:connector-curvature="0" />
    <path
       d="m 17.725256,5.3841262 c 1.634118,0 2.953125,1.318993 2.953125,2.953124 V 17.72354 c 0,1.634118 -1.319007,2.953125 -2.953125,2.953125 H 8.3372443 c -1.6341191,0 -2.9531251,-1.319007 -2.9531251,-2.953125 V 8.3372502 c 0,-1.634131 1.319006,-2.953124 2.9531251,-2.953124 h 9.3880117 m 0,-0.790376 H 8.3372443 c -2.0559951,0 -3.7434941,1.687498 -3.7434941,3.7435 V 17.72354 c 0,2.057703 1.687499,3.745215 3.7434941,3.745215 h 9.3862907 c 2.057715,0 3.745214,-1.687512 3.745214,-3.743501 V 8.3372502 c 0,-2.056002 -1.687499,-3.7435 -3.743493,-3.7435 z"
       id="path4-3-7"
       style="clip-rule:evenodd;fill:#355064;fill-opacity:1;fill-rule:evenodd;stroke-width:0.0172195;stroke-linejoin:round;stroke-miterlimit:1.41421" />
  </g>
  <g
     id="hover-center"
     transform="translate(26)">
    <rect
       style="opacity:0.00100002;fill:#ffffff;fill-opacity:1;stroke:none;stroke-width:1.3"
       id="rect3088"
       width="26"
       height="26"
       x="-26"
       y="2.0013089e-15" />
    <path
       style="fill:none;stroke:#bd5b65;stroke-width:1.78195;stroke-linecap:round;stroke-linejoin:miter;stroke-miterlimit:4;stroke-dasharray:none;stroke-opacity:1"
       d="m -15.945709,10.078608 6.2180516,6.189611"
       id="path3098"
       inkscape:connector-curvature="0" />
    <path
       inkscape:connector-curvature="0"
       id="path3100"
       d="m -9.7292701,10.051371 -6.2148259,6.215237"
       style="fill:none;stroke:#bd5b65;stroke-width:1.78517;stroke-linecap:round;stroke-linejoin:miter;stroke-miterlimit:4;stroke-dasharray:none;stroke-opacity:1" />
    <path
       d="m -8.2747441,5.3841261 c 1.634118,0 2.953125,1.318993 2.953125,2.953124 v 9.3862889 c 0,1.634118 -1.319007,2.953125 -2.953125,2.953125 h -9.3880119 c -1.634119,0 -2.953125,-1.319007 -2.953125,-2.953125 V 8.3372501 c 0,-1.634131 1.319006,-2.953124 2.953125,-2.953124 h 9.3880119 m 0,-0.790376 h -9.3880119 c -2.055995,0 -3.743494,1.687498 -3.743494,3.7435 v 9.3862889 c 0,2.057703 1.687499,3.745215 3.743494,3.745215 h 9.3862909 c 2.057715,0 3.745214,-1.687512 3.745214,-3.743501 V 8.3372501 c 0,-2.056002 -1.687499,-3.7435 -3.743493,-3.7435 z"
       id="path4-3-7-3"
       style="clip-rule:evenodd;fill:#355064;fill-opacity:1;fill-rule:evenodd;stroke-width:0.0172195;stroke-linejoin:round;stroke-miterlimit:1.41421" />
  </g>
  <g
     id="pressed-center"
     transform="translate(78)">
    <rect
       y="6.0424803e-08"
       x="-52"
       height="26"
       width="26"
       id="rect3868"
       style="opacity:0.00100002;fill:#ffffff;fill-opacity:1;stroke:none;stroke-width:1.3" />
    <path
       inkscape:connector-curvature="0"
       id="path3878"
       d="m -41.945709,10.078608 6.218052,6.189611"
       style="fill:none;stroke:#cb8087;stroke-width:1.78195;stroke-linecap:round;stroke-linejoin:miter;stroke-miterlimit:4;stroke-dasharray:none;stroke-opacity:1" />
    <path
       style="fill:none;stroke:#cb8087;stroke-width:1.78517;stroke-linecap:round;stroke-linejoin:miter;stroke-miterlimit:4;stroke-dasharray:none;stroke-opacity:1"
       d="m -35.72927,10.051371 -6.214826,6.215237"
       id="path3880"
       inkscape:connector-curvature="0" />
    <path
       d="m -34.274743,5.3841262 c 1.634118,0 2.953125,1.318993 2.953125,2.953124 v 9.3862878 c 0,1.634118 -1.319007,2.953125 -2.953125,2.953125 h -9.388013 c -1.634119,0 -2.953125,-1.319007 -2.953125,-2.953125 V 8.3372502 c 0,-1.634131 1.319006,-2.953124 2.953125,-2.953124 h 9.388013 m 0,-0.790376 h -9.388013 c -2.055995,0 -3.743494,1.687498 -3.743494,3.7435 v 9.3862878 c 0,2.057703 1.687499,3.745215 3.743494,3.745215 h 9.386292 c 2.057715,0 3.745214,-1.687512 3.745214,-3.743501 V 8.3372502 c 0,-2.056002 -1.687499,-3.7435 -3.743493,-3.7435 z"
       id="path4-3-7-3-6"
       style="clip-rule:evenodd;fill:#355064;fill-opacity:1;fill-rule:evenodd;stroke-width:0.0172195;stroke-linejoin:round;stroke-miterlimit:1.41421" />
  </g>
  <g
     id="inactive-center"
     transform="translate(52)">
    <rect
       style="opacity:0.00100002;fill:#ffffff;fill-opacity:1;stroke:none;stroke-width:1.3"
       id="rect3064"
       width="26"
       height="26"
       x="8.1024169e-08"
       y="6.0424803e-08" />
    <path
       style="opacity:0.5;fill:none;stroke:#d6dbf1;stroke-width:1.78195;stroke-linecap:round;stroke-linejoin:miter;stroke-miterlimit:4;stroke-dasharray:none;stroke-opacity:1"
       d="m 10.054291,10.078608 6.218052,6.189611"
       id="path3074"
       inkscape:connector-curvature="0" />
    <path
       inkscape:connector-curvature="0"
       id="path3076"
       d="m 16.27073,10.051371 -6.214826,6.215237"
       style="opacity:0.5;fill:none;stroke:#d6dbf1;stroke-width:1.78517;stroke-linecap:round;stroke-linejoin:miter;stroke-miterlimit:4;stroke-dasharray:none;stroke-opacity:1" />
    <path
       d="m 17.725256,5.3841262 c 1.634118,0 2.953125,1.318993 2.953125,2.953124 V 17.72354 c 0,1.634118 -1.319007,2.953125 -2.953125,2.953125 H 8.3372443 c -1.6341191,0 -2.9531251,-1.319007 -2.9531251,-2.953125 V 8.3372502 c 0,-1.634131 1.319006,-2.953124 2.9531251,-2.953124 h 9.3880117 m 0,-0.790376 H 8.3372443 c -2.0559951,0 -3.7434941,1.687498 -3.7434941,3.7435 V 17.72354 c 0,2.057703 1.687499,3.745215 3.7434941,3.745215 h 9.3862907 c 2.057715,0 3.745214,-1.687512 3.745214,-3.743501 V 8.3372502 c 0,-2.056002 -1.687499,-3.7435 -3.743493,-3.7435 z"
       id="path4-3-7-36"
       style="clip-rule:evenodd;fill:#355064;fill-opacity:1;fill-rule:evenodd;stroke-width:0.0172195;stroke-linejoin:round;stroke-miterlimit:1.41421" />
  </g>
  <g
     id="hover-inactive-center"
     transform="translate(78)">
    <rect
       y="0"
       x="3.5527137e-15"
       height="26"
       width="26"
       id="rect3873"
       style="opacity:0.00100002;fill:#ffffff;fill-opacity:1;stroke:none;stroke-width:1.3" />
    <path
       inkscape:connector-curvature="0"
       id="path3883"
       d="m 10.054291,10.078608 6.218052,6.189611"
       style="fill:none;stroke:#bd5b65;stroke-width:1.78195;stroke-linecap:round;stroke-linejoin:miter;stroke-miterlimit:4;stroke-dasharray:none;stroke-opacity:1" />
    <path
       style="fill:none;stroke:#bd5b65;stroke-width:1.78517;stroke-linecap:round;stroke-linejoin:miter;stroke-miterlimit:4;stroke-dasharray:none;stroke-opacity:1"
       d="m 16.27073,10.051371 -6.214826,6.215237"
       id="path3885"
       inkscape:connector-curvature="0" />
    <path
       d="m 17.725256,5.3841261 c 1.634118,0 2.953125,1.318993 2.953125,2.953124 V 17.72354 c 0,1.634118 -1.319007,2.953125 -2.953125,2.953125 H 8.337244 c -1.634119,0 -2.953125,-1.319007 -2.953125,-2.953125 V 8.3372501 c 0,-1.634131 1.319006,-2.953124 2.953125,-2.953124 h 9.388012 m 0,-0.790376 H 8.337244 c -2.055995,0 -3.743494,1.687498 -3.743494,3.7435 V 17.72354 c 0,2.057703 1.687499,3.745215 3.743494,3.745215 h 9.386291 c 2.057715,0 3.745214,-1.687512 3.745214,-3.743501 V 8.3372501 c 0,-2.056002 -1.687499,-3.7435 -3.743493,-3.7435 z"
       id="path4-3-7-3-7"
       style="clip-rule:evenodd;fill:#355064;fill-opacity:1;fill-rule:evenodd;stroke-width:0.0172195;stroke-linejoin:round;stroke-miterlimit:1.41421" />
  </g>
  <g
     id="pressed-inactive-center"
     transform="translate(104)">
    <rect
       style="opacity:0.00100002;fill:#ffffff;fill-opacity:1;stroke:none;stroke-width:1.3"
       id="rect3096"
       width="26"
       height="26"
       x="8.1024169e-08"
       y="6.0424803e-08" />
    <path
       style="fill:none;stroke:#cb8087;stroke-width:1.78195;stroke-linecap:round;stroke-linejoin:miter;stroke-miterlimit:4;stroke-dasharray:none;stroke-opacity:1"
       d="m 10.054291,10.078608 6.218052,6.189611"
       id="path3106"
       inkscape:connector-curvature="0" />
    <path
       inkscape:connector-curvature="0"
       id="path3108"
       d="m 16.27073,10.051371 -6.214826,6.215237"
       style="fill:none;stroke:#cb8087;stroke-width:1.78517;stroke-linecap:round;stroke-linejoin:miter;stroke-miterlimit:4;stroke-dasharray:none;stroke-opacity:1" />
    <path
       d="m 17.725257,5.3841262 c 1.634118,0 2.953125,1.318993 2.953125,2.953124 v 9.3862878 c 0,1.634118 -1.319007,2.953125 -2.953125,2.953125 H 8.3372443 c -1.6341191,0 -2.9531251,-1.319007 -2.9531251,-2.953125 V 8.3372502 c 0,-1.634131 1.319006,-2.953124 2.9531251,-2.953124 h 9.3880127 m 0,-0.790376 H 8.3372443 c -2.0559951,0 -3.7434941,1.687498 -3.7434941,3.7435 v 9.3862878 c 0,2.057703 1.687499,3.745215 3.7434941,3.745215 h 9.3862917 c 2.057715,0 3.745214,-1.687512 3.745214,-3.743501 V 8.3372502 c 0,-2.056002 -1.687499,-3.7435 -3.743493,-3.7435 z"
       id="path4-3-7-3-6-5"
       style="clip-rule:evenodd;fill:#355064;fill-opacity:1;fill-rule:evenodd;stroke-width:0.0172195;stroke-linejoin:round;stroke-miterlimit:1.41421" />
  </g>
</svg>
