<?xml version="1.0" encoding="UTF-8" standalone="no"?>
<svg
   viewBox="0 0 256 256"
   id="svg2"
   version="1.1"
   inkscape:version="1.1.1 (3bf5ae0d25, 2021-09-20)"
   sodipodi:docname="org.kde.plasma.frame.svg"
   xmlns:inkscape="http://www.inkscape.org/namespaces/inkscape"
   xmlns:sodipodi="http://sodipodi.sourceforge.net/DTD/sodipodi-0.dtd"
   xmlns:xlink="http://www.w3.org/1999/xlink"
   xmlns="http://www.w3.org/2000/svg"
   xmlns:svg="http://www.w3.org/2000/svg"
   xmlns:rdf="http://www.w3.org/1999/02/22-rdf-syntax-ns#"
   xmlns:cc="http://creativecommons.org/ns#"
   xmlns:dc="http://purl.org/dc/elements/1.1/">
  <metadata
     id="metadata10">
    <rdf:RDF>
      <cc:Work
         rdf:about="">
        <dc:format>image/svg+xml</dc:format>
        <dc:type
           rdf:resource="http://purl.org/dc/dcmitype/StillImage" />
      </cc:Work>
    </rdf:RDF>
  </metadata>
  <sodipodi:namedview
     pagecolor="#ffffff"
     bordercolor="#666666"
     borderopacity="1"
     objecttolerance="10"
     gridtolerance="10"
     guidetolerance="10"
     inkscape:pageopacity="0"
     inkscape:pageshadow="2"
     inkscape:window-width="1920"
     inkscape:window-height="1007"
     id="namedview8"
     showgrid="true"
     inkscape:object-nodes="true"
     inkscape:zoom="2.6074562"
     inkscape:cx="27.996635"
     inkscape:cy="122.91673"
     inkscape:window-x="0"
     inkscape:window-y="0"
     inkscape:window-maximized="1"
     inkscape:current-layer="svg2"
     inkscape:document-rotation="0"
     inkscape:lockguides="false"
     inkscape:pagecheckerboard="0">
    <inkscape:grid
       type="xygrid"
       id="grid4474" />
  </sodipodi:namedview>
  <defs
     id="defs4">
    <style
       id="current-color-scheme"
       type="text/css">
      .ColorScheme-Text {
        color:#f2f2f2;
      }
      .ColorScheme-Background {
        color:#31363b;
      }
      .ColorScheme-Highlight {
        color:#3daee9;
      }
      .ColorScheme-ViewText {
        color:#31363b;
      }
      .ColorScheme-ViewBackground {
        color:#314045;
      }
      .ColorScheme-ViewHover {
        color:#93cee9;
      }
      .ColorScheme-ViewFocus{
        color:#3daee9;
      }
      .ColorScheme-ButtonText {
        color:#31363b;
      }
      .ColorScheme-ButtonBackground {
        color:#31363b;
      }
      .ColorScheme-ButtonHover {
        color:#93cee9;
      }
      .ColorScheme-ButtonFocus{
        color:#3daee9;
      }
      </style>
    <linearGradient
       inkscape:collect="always"
       xlink:href="#linearGradient856"
       id="linearGradient986"
       x1="0"
       y1="213.3335"
       x2="512.00098"
       y2="213.3335"
       gradientUnits="userSpaceOnUse" />
    <linearGradient
       inkscape:collect="always"
       id="linearGradient856">
      <stop
         style="stop-color:#ff00ff;stop-opacity:1"
         offset="0"
         id="stop852" />
      <stop
         style="stop-color:#ff00ff;stop-opacity:1"
         offset="1"
         id="stop854" />
    </linearGradient>
    <linearGradient
       inkscape:collect="always"
       xlink:href="#linearGradient984"
       id="linearGradient854"
       gradientUnits="userSpaceOnUse"
       x1="0"
       y1="213.3335"
       x2="512.00098"
       y2="213.3335" />
    <linearGradient
       inkscape:collect="always"
       id="linearGradient984">
      <stop
         style="stop-color:#ffff00;stop-opacity:1;"
         offset="0"
         id="stop980" />
      <stop
         style="stop-color:#ff00ff;stop-opacity:1"
         offset="1"
         id="stop982" />
    </linearGradient>
    <linearGradient
       inkscape:collect="always"
       xlink:href="#linearGradient1073"
       id="linearGradient842"
       gradientUnits="userSpaceOnUse"
       x1="0"
       y1="213.3335"
       x2="512.00098"
       y2="213.3335"
       gradientTransform="matrix(1.1601595,0,0,1.0001661,-39.668359,20.459067)" />
    <linearGradient
       inkscape:collect="always"
       id="linearGradient1073">
      <stop
         style="stop-color:#4e99ca;stop-opacity:0.80000001"
         offset="0"
         id="stop1069" />
      <stop
         style="stop-color:#20ffff;stop-opacity:0.80000001"
         offset="0.45747522"
         id="stop2005" />
      <stop
         style="stop-color:#ffaeff;stop-opacity:0.69999999"
         offset="1"
         id="stop1071" />
    </linearGradient>
    <linearGradient
       inkscape:collect="always"
       xlink:href="#linearGradient1073"
       id="linearGradient844"
       gradientUnits="userSpaceOnUse"
       x1="396.66171"
       y1="203.32387"
       x2="414.32068"
       y2="204.86937" />
    <linearGradient
       inkscape:collect="always"
       xlink:href="#linearGradient1073"
       id="linearGradient846"
       gradientUnits="userSpaceOnUse"
       x1="341.1564"
       y1="209.97891"
       x2="393.84497"
       y2="210.4854" />
    <linearGradient
       inkscape:collect="always"
       xlink:href="#linearGradient1073"
       id="linearGradient848"
       gradientUnits="userSpaceOnUse"
       x1="3.088882"
       y1="201.97086"
       x2="508.20764"
       y2="198.9987"
       gradientTransform="matrix(1,0,0,1.0665844,0,-1.136396)" />
    <linearGradient
       inkscape:collect="always"
       xlink:href="#linearGradient1073"
       id="linearGradient850"
       gradientUnits="userSpaceOnUse"
       x1="36.821049"
       y1="192.62901"
       x2="479.63538"
       y2="194.37762"
       gradientTransform="translate(0,16.057674)" />
    <linearGradient
       inkscape:collect="always"
       xlink:href="#linearGradient984"
       id="linearGradient917"
       gradientUnits="userSpaceOnUse"
       x1="0"
       y1="213.3335"
       x2="512.00098"
       y2="213.3335" />
  </defs>
  <path
     style="fill:#c0c6d8;fill-opacity:0.2;stroke:none"
     d="m 16,10 224,0 c 3.324,0 6,2.676 6,6 l 0,224 c 0,3.324 -2.676,6 -6,6 l -224,0 c -3.324,0 -6,-2.676 -6,-6 L 10,16 c 0,-3.324 2.676,-6 6,-6 z"
     class="ColorScheme-ButtonText"
     id="rect4240" />
  <path
     style="fill:#242a3b;fill-opacity:1;stroke:none"
     d="m 16,12 224,0 c 2.216,0 4,1.784 4,4 l 0,224 c 0,2.216 -1.784,4 -4,4 l -224,0 c -2.216,0 -4,-1.784 -4,-4 L 12,16 c 0,-2.216 1.784,-4 4,-4 z"
     class="ColorScheme-Background"
     id="rect4238" />
  <g
     transform="matrix(0.32391764,0,0,0.36783184,45.5,45.222214)"
     id="computer"
     style="fill:url(#linearGradient986);fill-opacity:1">
    <g
       id="g16"
       style="fill:url(#linearGradient854);fill-opacity:1">
      <g
         id="g14"
         style="fill:url(#linearGradient917);fill-opacity:1">
        <path
           style="fill:url(#linearGradient842);fill-opacity:1;stroke-width:1.07719"
           id="path4-3"
           d="m 257.62951,378.91859 h -0.0984 c -5.46436,0 -9.85091,3.82364 -9.85091,8.53442 0,4.71079 4.4852,8.53442 9.94951,8.53442 5.47481,0 9.89967,-3.82363 9.89967,-8.53442 0,-4.71078 -4.42486,-8.53442 -9.89967,-8.53442 z" />
        <path
           style="fill:url(#linearGradient844);fill-opacity:1"
           id="path6-6"
           d="m 412.1,134.033 c 1.664,1.664 3.849,2.5 6.033,2.5 2.185,0 4.369,-0.836 6.033,-2.5 3.336,-3.337 3.336,-8.73 0,-12.066 L 407.1,104.9 c -3.336,-3.337 -8.73,-3.337 -12.066,0 -3.337,3.337 -3.337,8.73 0,12.066 z" />
        <path
           style="fill:url(#linearGradient846);fill-opacity:1"
           id="path8"
           d="m 412.1,185.233 c 1.664,1.664 3.849,2.5 6.033,2.5 2.185,0 4.369,-0.836 6.033,-2.5 3.336,-3.337 3.336,-8.73 0,-12.066 L 355.9,104.9 c -3.337,-3.337 -8.73,-3.337 -12.066,0 -3.337,3.337 -3.337,8.73 0,12.066 z" />
        <path
           style="fill:url(#linearGradient848);fill-opacity:1;stroke-width:1.03276"
           id="path10"
           d="M 469.333,17.067 H 42.667 C 20.736,17.067 0,39.183694 0,62.57389 v 327.65473 c 0,23.39126 20.736,45.50796 42.667,45.50796 h 426.667 c 21.931,0 42.667,-22.1167 42.667,-45.50796 V 62.57389 C 512,39.183694 491.264,17.067 469.333,17.067 Z m 25.6,373.16162 c 0,13.27044 -13.158,27.30456 -25.6,27.30456 H 42.667 c -12.442,0 -25.6,-14.03412 -25.6,-27.30456 V 62.57389 c 0,-13.270443 13.158,-27.304561 25.6,-27.304561 h 426.667 c 12.442,0 25.6,14.034118 25.6,27.304561 v 327.65473 z" />
        <path
           style="fill:url(#linearGradient850);fill-opacity:1"
           id="path12"
           d="M 469.333,67.257671 H 42.667 c -4.71,0 -8.533,3.823 -8.533,8.533 V 348.85767 c 0,4.71 3.823,8.533 8.533,8.533 h 426.667 c 4.71,0 8.533,-3.823 8.533,-8.533 V 75.790671 c 0,-4.71 -3.823,-8.533 -8.534,-8.533 z M 460.8,340.32467 H 51.2 V 84.324671 h 409.6 z" />
      </g>
    </g>
  </g>
  <rect
     style="fill:#626f9d;fill-opacity:0.2;stroke:none;stroke-width:3.70228"
     id="center-3"
     width="154.41165"
     height="140.96922"
     x="51.088608"
     y="57.914627"
     ry="9.773119"
     rx="9.0001545" />
</svg>
