<?xml version="1.0" encoding="UTF-8" standalone="no"?>
<svg
   width="64"
   version="1.1"
   height="64"
   id="svg15"
   sodipodi:docname="folder-Github.svg"
   inkscape:version="1.1.1 (3bf5ae0d25, 2021-09-20)"
   xmlns:inkscape="http://www.inkscape.org/namespaces/inkscape"
   xmlns:sodipodi="http://sodipodi.sourceforge.net/DTD/sodipodi-0.dtd"
   xmlns:xlink="http://www.w3.org/1999/xlink"
   xmlns="http://www.w3.org/2000/svg"
   xmlns:svg="http://www.w3.org/2000/svg"
   xmlns:rdf="http://www.w3.org/1999/02/22-rdf-syntax-ns#"
   xmlns:cc="http://creativecommons.org/ns#"
   xmlns:dc="http://purl.org/dc/elements/1.1/">
  <sodipodi:namedview
     pagecolor="#ffffff"
     bordercolor="#666666"
     borderopacity="1"
     objecttolerance="10"
     gridtolerance="10"
     guidetolerance="10"
     inkscape:pageopacity="0"
     inkscape:pageshadow="2"
     inkscape:window-width="1920"
     inkscape:window-height="1007"
     id="namedview17"
     showgrid="true"
     inkscape:zoom="9.8125"
     inkscape:cx="28.535032"
     inkscape:cy="38.267516"
     inkscape:window-x="0"
     inkscape:window-y="0"
     inkscape:window-maximized="1"
     inkscape:current-layer="layer1"
     inkscape:document-rotation="0"
     inkscape:pagecheckerboard="0">
    <inkscape:grid
       type="xygrid"
       id="grid850" />
  </sodipodi:namedview>
  <defs
     id="defs5455">
    <linearGradient
       inkscape:collect="always"
       xlink:href="#linearGradient2230"
       id="linearGradient2232"
       x1="384.57144"
       y1="515.79797"
       x2="448.57144"
       y2="515.79797"
       gradientUnits="userSpaceOnUse" />
    <linearGradient
       inkscape:collect="always"
       id="linearGradient2230">
      <stop
         style="stop-color:#4e99ca;stop-opacity:0.80000001"
         offset="0"
         id="stop2226" />
      <stop
         style="stop-color:#20ffff;stop-opacity:0.80000001"
         offset="0.50507295"
         id="stop2332" />
      <stop
         style="stop-color:#ffaeff;stop-opacity:0.69"
         offset="1"
         id="stop2228" />
    </linearGradient>
    <linearGradient
       inkscape:collect="always"
       xlink:href="#linearGradient2230"
       id="linearGradient1017"
       gradientUnits="userSpaceOnUse"
       x1="404.57144"
       y1="520.79797"
       x2="428.95215"
       y2="520.79797"
       gradientTransform="translate(15.5,5)" />
  </defs>
  <metadata
     id="metadata5458">
    <rdf:RDF>
      <cc:Work
         rdf:about="">
        <dc:format>image/svg+xml</dc:format>
        <dc:type
           rdf:resource="http://purl.org/dc/dcmitype/StillImage" />
      </cc:Work>
    </rdf:RDF>
  </metadata>
  <g
     inkscape:label="Capa 1"
     inkscape:groupmode="layer"
     id="layer1"
     transform="translate(-384.57143,-483.798)">
    <rect
       style="fill:#626f9d;fill-opacity:0.2;stroke:none;stroke-width:1.26075"
       id="center-3"
       width="60.099998"
       height="42"
       x="386.57147"
       y="497.798"
       ry="3.9999959"
       rx="4.0066781" />
    <path
       d="m 442.73835,495.80768 h -29.32672 c -0.64817,0 -1.21496,-0.33361 -1.62011,-0.91817 l -2.1875,-3.33839 c -0.72899,-1.16852 -1.94446,-1.75312 -3.24023,-1.75312 h -14.98741 c -3.72689,0 -6.80495,3.17192 -6.80495,7.01111 v 38.97924 c 0,3.25524 2.59271,6.00966 5.83294,6.00966 h 25.19505 v 0 0 0 0 0 0 0 h 1.94402 v 0 0 0 0 0 0 0 0 0 h 25.19505 c 3.15951,0 5.83294,-2.67126 5.83294,-6.00966 v -33.9712 c 0,-3.33839 -2.59213,-6.00905 -5.83294,-6.00905 z m -25.19491,45.99033 v 0 h -1.94402 v 0 0 z m 29.08353,-6.00947 c 0,2.16999 -1.70156,4.00628 -3.88848,4.00628 h -52.33441 c -2.1062,0 -3.88848,-1.83629 -3.88848,-4.00628 l -5.8e-4,-13.43824 v -7.59568 c 0,-2.17001 1.78229,-4.00628 3.88848,-4.00628 h 29.32671 c 1.29634,0 2.51126,-0.66782 3.24024,-1.75312 l 2.10619,-3.33839 c 0.40518,-0.50072 0.97198,-0.91818 1.62012,-0.91818 h 15.06842 c 2.67343,0 4.86107,2.25378 4.86107,5.00835 v 10.93407 z m -4.86107,-32.9696 h -15.06842 c -1.29634,0 -2.51126,0.66781 -3.24023,1.75311 l -2.1062,3.3384 c -0.3238,0.58455 -0.97198,0.91816 -1.62011,0.91816 h -29.32651 c -1.45794,0 -2.83331,0.16967 -3.889,1.70239 v -8.733 c 0,-2 2.05601,-4 4.05601,-4 h 16.00001 l 0.0429,0.0464 2.9571,-0.0464 3.92107,0.0125 h 29.32672 c 2.10619,0 3.88848,1.83628 3.88848,4.00629 v 3.08814 c -1.29578,-1.33503 -2.99676,-2.08609 -4.94122,-2.08609 z"
       id="path64"
       sodipodi:nodetypes="csccsssssccccccccccccccccccsssccccccccccssccsssccssscccsccscccccccssscc"
       style="fill:url(#linearGradient2232);fill-opacity:1;stroke-width:0.146841" />
    <path
       clip-rule="evenodd"
       d="m 429.21406,531.32266 c 0,-0.42114 0.34075,-0.7619 0.76189,-0.7619 0.42114,0 0.7619,0.34076 0.7619,0.7619 0,0.42114 -0.34076,0.76189 -0.7619,0.76189 -0.42114,0 -0.76189,-0.34075 -0.76189,-0.76189 z m 7.49173,6.00737 c -0.20314,0.058 -0.41295,0.0997 -0.63466,0.0997 -1.26265,0 -2.28569,-1.02303 -2.28569,-2.28569 v -2.77083 c 0,-0.95684 0.61418,-1.76931 1.46651,-2.06845 1.63651,-0.54981 3.10487,-1.93074 3.10487,-3.55349 v -1.52399 c 0,-0.72208 -0.29466,-1.3945 -0.76189,-1.96983 v -1.7206 c 0,-0.84133 -0.68228,-1.12947 -1.5238,-0.64266 l -1.16742,0.67504 c -0.37385,-0.0969 -0.75146,-0.15143 -1.11827,-0.15143 h -3.04759 c -0.36662,0 -0.74442,0.0545 -1.11827,0.15143 l -1.16742,-0.67504 c -0.84133,-0.48681 -1.5238,-0.19867 -1.5238,0.64266 v 1.7206 c -0.46723,0.57533 -0.76189,1.24775 -0.76189,1.96984 v 1.52398 c 0,1.10861 0.6899,2.10417 1.64655,2.80055 l -9.5e-4,10e-4 c 0.19866,0.13614 0.33071,0.36609 0.33071,0.62647 0,0.42037 -0.34171,0.76189 -0.7619,0.76189 -0.21523,0 -0.40828,-0.0901 -0.54666,-0.23361 -1.2866,-0.97466 -2.19155,-2.38388 -2.19155,-3.95677 v -1.52399 c 0,-0.88204 0.28629,-1.71317 0.7619,-2.4464 v -2.26824 c 0,-1.68265 1.36403,-2.25893 3.04759,-1.28551 l 1.30765,0.75651 c 0.3261,-0.0554 0.6529,-0.0897 0.97804,-0.0897 h 3.04759 c 0.32514,0 0.6518,0.0342 0.97804,0.0897 l 1.30765,-0.75651 c 1.68375,-0.97337 3.04759,-0.39714 3.04759,1.28551 v 2.26821 c 0.47542,0.73323 0.7619,1.56437 0.7619,2.44641 v 1.52398 c 0,2.26708 -1.86903,4.19715 -4.07287,4.96943 -0.003,0.002 -0.005,0.008 -0.009,0.009 -0.28647,0.11009 -0.48956,0.3869 -0.48956,0.71204 v 2.70235 c 0,0.42114 0.34076,0.7619 0.76189,0.7619 0.0636,0 0.122,-0.0179 0.18081,-0.0328 3.91292,-1.57884 6.67627,-5.40471 6.67627,-9.884 0,-5.89113 -4.77524,-10.66656 -10.66656,-10.66656 -5.89113,0 -10.66656,4.77543 -10.66656,10.66656 0,4.63853 2.96444,8.57449 7.10093,10.04253 0.0212,0.002 0.0406,0.0111 0.0627,0.0111 0.25129,0 0.45533,-0.20461 0.45533,-0.45532 0,-0.25148 -0.20404,-0.45533 -0.45533,-0.45533 -0.005,0 -0.005,-0.005 -0.009,-0.007 -2.5314,-0.0677 -2.53421,-3.04088 -3.34501,-3.04088 -0.42114,0 -0.7619,-0.34076 -0.7619,-0.76189 0,-0.42114 0.34076,-0.7619 0.7619,-0.7619 0.0804,0 0.20033,0 0.38037,0 1.52475,0 1.3069,3.04759 3.42911,3.04759 0.84133,0 1.5238,0.68228 1.5238,1.52379 v 1.33332 c 5e-5,0.73579 -0.59647,1.33326 -1.33346,1.33326 -0.0804,0 -0.15605,-0.0164 -0.23271,-0.0312 -5.23357,-1.36837 -9.10034,-6.11532 -9.10034,-11.7784 0,-6.73246 5.4579,-12.19036 12.19036,-12.19036 6.73245,0 12.19035,5.4579 12.19035,12.19036 0,5.16232 -3.21387,9.56409 -7.74621,11.34084 z"
       id="path2-7"
       style="fill:url(#linearGradient1017);fill-opacity:1.0;stroke-width:0.0476186" />
  </g>
</svg>
