<?xml version="1.0" encoding="UTF-8" standalone="no"?>
<svg
   width="64"
   version="1.1"
   height="64"
   id="svg15"
   sodipodi:docname="folder-notes.svg"
   inkscape:version="1.1.1 (3bf5ae0d25, 2021-09-20)"
   xmlns:inkscape="http://www.inkscape.org/namespaces/inkscape"
   xmlns:sodipodi="http://sodipodi.sourceforge.net/DTD/sodipodi-0.dtd"
   xmlns:xlink="http://www.w3.org/1999/xlink"
   xmlns="http://www.w3.org/2000/svg"
   xmlns:svg="http://www.w3.org/2000/svg"
   xmlns:rdf="http://www.w3.org/1999/02/22-rdf-syntax-ns#"
   xmlns:cc="http://creativecommons.org/ns#"
   xmlns:dc="http://purl.org/dc/elements/1.1/">
  <sodipodi:namedview
     pagecolor="#ffffff"
     bordercolor="#666666"
     borderopacity="1"
     objecttolerance="10"
     gridtolerance="10"
     guidetolerance="10"
     inkscape:pageopacity="0"
     inkscape:pageshadow="2"
     inkscape:window-width="1920"
     inkscape:window-height="1007"
     id="namedview17"
     showgrid="true"
     inkscape:zoom="9.8125"
     inkscape:cx="32"
     inkscape:cy="31.949045"
     inkscape:window-x="0"
     inkscape:window-y="0"
     inkscape:window-maximized="1"
     inkscape:current-layer="layer1"
     inkscape:document-rotation="0"
     inkscape:pagecheckerboard="0">
    <inkscape:grid
       type="xygrid"
       id="grid850" />
  </sodipodi:namedview>
  <defs
     id="defs5455">
    <linearGradient
       inkscape:collect="always"
       xlink:href="#linearGradient2230"
       id="linearGradient2232"
       x1="384.57144"
       y1="515.79797"
       x2="448.57144"
       y2="515.79797"
       gradientUnits="userSpaceOnUse"
       gradientTransform="translate(-1.81e-5)" />
    <linearGradient
       inkscape:collect="always"
       id="linearGradient2230">
      <stop
         style="stop-color:#4e99ca;stop-opacity:0.80000001"
         offset="0"
         id="stop2226" />
      <stop
         style="stop-color:#20ffff;stop-opacity:0.80000001"
         offset="0.50507295"
         id="stop2332" />
      <stop
         style="stop-color:#ffaeff;stop-opacity:0.69"
         offset="1"
         id="stop2228" />
    </linearGradient>
    <linearGradient
       inkscape:collect="always"
       xlink:href="#linearGradient2230"
       id="linearGradient1026"
       gradientUnits="userSpaceOnUse"
       gradientTransform="translate(15.954,6)"
       x1="404.61743"
       y1="519.79797"
       x2="428.61743"
       y2="519.79797" />
  </defs>
  <metadata
     id="metadata5458">
    <rdf:RDF>
      <cc:Work
         rdf:about="">
        <dc:format>image/svg+xml</dc:format>
        <dc:type
           rdf:resource="http://purl.org/dc/dcmitype/StillImage" />
      </cc:Work>
    </rdf:RDF>
  </metadata>
  <g
     inkscape:label="Capa 1"
     inkscape:groupmode="layer"
     id="layer1"
     transform="translate(-384.57143,-483.798)">
    <rect
       style="fill:#626f9d;fill-opacity:0.2;stroke:none;stroke-width:1.26075"
       id="center-3"
       width="60.099998"
       height="42"
       x="386.57138"
       y="497.79794"
       ry="3.9999959"
       rx="4.0066781" />
    <path
       d="m 442.73833,495.80768 h -29.32672 c -0.64817,0 -1.21496,-0.33361 -1.62011,-0.91817 l -2.1875,-3.33839 c -0.72899,-1.16852 -1.94446,-1.75312 -3.24023,-1.75312 h -14.98741 c -3.72689,0 -6.80495,3.17192 -6.80495,7.01111 v 38.97924 c 0,3.25524 2.59271,6.00966 5.83294,6.00966 h 25.19505 v 0 0 0 0 0 0 0 h 1.94402 v 0 0 0 0 0 0 0 0 0 h 25.19505 c 3.15951,0 5.83294,-2.67126 5.83294,-6.00966 v -33.9712 c 0,-3.33839 -2.59213,-6.00905 -5.83294,-6.00905 z m -25.19491,45.99033 v 0 h -1.94402 v 0 0 z m 29.08353,-6.00947 c 0,2.16999 -1.70156,4.00628 -3.88848,4.00628 h -52.33441 c -2.1062,0 -3.88848,-1.83629 -3.88848,-4.00628 L 386.515,522.3503 v -7.59568 c 0,-2.17001 1.78229,-4.00628 3.88848,-4.00628 h 29.32671 c 1.29634,0 2.51126,-0.66782 3.24024,-1.75312 l 2.10619,-3.33839 c 0.40518,-0.50072 0.97198,-0.91818 1.62012,-0.91818 h 15.06842 c 2.67343,0 4.86107,2.25378 4.86107,5.00835 v 10.93407 z m -4.86107,-32.9696 h -15.06842 c -1.29634,0 -2.51126,0.66781 -3.24023,1.75311 l -2.1062,3.3384 c -0.3238,0.58455 -0.97198,0.91816 -1.62011,0.91816 h -29.32651 c -1.45794,0 -2.83331,0.16967 -3.889,1.70239 v -8.733 c 0,-2 2.05601,-4 4.05601,-4 h 16.00001 l 0.0429,0.0464 2.9571,-0.0464 3.92107,0.0125 h 29.32672 c 2.10619,0 3.88848,1.83628 3.88848,4.00629 v 3.08814 c -1.29578,-1.33503 -2.99676,-2.08609 -4.94122,-2.08609 z"
       id="path64"
       sodipodi:nodetypes="csccsssssccccccccccccccccccsssccccccccccssccsssccssscccsccscccccccssscc"
       style="fill:url(#linearGradient2232);fill-opacity:1;stroke-width:0.146841" />
    <path
       fill-rule="evenodd"
       clip-rule="evenodd"
       d="m 432.94707,520.17263 c 0,-0.41456 0.33582,-0.75 0.75038,-0.75 0.41419,0 0.75,0.33544 0.75,0.75 0,0.41344 -0.33581,0.74925 -0.75,0.74925 -0.41456,0 -0.75038,-0.33581 -0.75038,-0.74925 z m 10.7604,0.059 -0.31604,0.31566 c -0.003,0.003 -0.005,0.003 -0.009,0.006 -0.57568,0.57605 -1.50184,0.58228 -2.0896,0.0256 l -1.93285,-1.93397 c -0.29259,-0.29259 -0.29259,-0.76758 0,-1.06017 0.2926,-0.29259 0.76758,-0.29259 1.06018,0 l 1.63331,1.63219 c 10e-4,0.002 0.002,0 0.004,0.002 0.14611,0.14611 0.38344,0.14611 0.52955,0 0.005,-0.005 0.009,-10e-4 0.0135,-0.003 l 0.0454,-0.0454 c 0.58631,-0.58556 0.58631,-1.53515 0,-2.12146 l -1.32527,-1.3253 c -0.58631,-0.58632 -1.53591,-0.58632 -2.12147,0 l -2.57334,2.57334 h -2.12218 -6.4311 -4.12538 c -1.03566,0 -1.875,0.84009 -1.875,1.87575 v 14.24963 c 0,1.03565 0.83934,1.875 1.875,1.875 h 14.24962 c 1.03604,0 1.875,-0.83935 1.875,-1.875 v -9.64491 c 0,-0.20653 -0.16771,-0.37463 -0.37462,-0.37463 -0.10327,0 -0.19739,0.0421 -0.26475,0.10988 -0.002,10e-4 -0.001,-0.005 -0.003,-0.004 l -4.16747,4.16676 c -0.45155,0.45193 -1.01147,0.72549 -1.59633,0.82875 -0.11057,0.0263 -0.22523,0.0428 -0.3435,0.0428 h -0.10584 c -0.0494,10e-4 -0.10036,10e-4 -0.14977,0 h -2.74507 c -0.828,0 -1.49925,-0.67125 -1.49925,-1.49925 v -2.74509 c -7.5e-4,-0.0495 -7.5e-4,-0.10036 0,-0.14944 v -0.10584 c 0,-0.11864 0.0168,-0.2333 0.0429,-0.34388 0.10364,-0.58448 0.3772,-1.14553 0.82912,-1.59703 l 1.593,-1.59337 0.004,0.004 c 0.13514,-0.13622 0.32372,-0.21975 0.53063,-0.21975 0.41456,0 0.75,0.33581 0.75,0.75037 0,0.22744 -0.10402,0.42957 -0.26405,0.56691 l -1.55273,1.55273 c -0.32705,0.3263 -0.46435,0.76463 -0.42699,1.19166 -7.5e-4,0.0216 -0.007,0.0421 -0.007,0.0637 v 1.12462 c -2e-5,0.82794 0.67236,1.50031 1.50036,1.50031 h 1.12462 c 0.0216,0 0.0421,-0.005 0.0637,-0.006 0.42735,0.0374 0.86536,-0.10036 1.19165,-0.42736 l 4.81641,-4.81644 c 0.27061,-0.26588 0.6427,-0.37537 1.05323,-0.37537 0.82876,0 1.50038,0.67125 1.50038,1.5 v 10.87462 c 0,1.65713 -1.34287,3.00075 -2.99962,3.00075 h -15 c -1.65713,0 -3.00038,-1.34362 -3.00038,-3.00075 v -14.99962 c 0,-1.65708 1.34325,-2.99963 3.00038,-2.99963 h 12.43068 l 2.13502,-2.13502 c 0.5857,-0.58593 1.35347,-0.86498 2.12128,-0.86498 0.76781,0 1.53567,0.27905 2.12161,0.86498 l 1.32605,1.32605 c 0.58654,0.58655 0.86578,1.36533 0.86498,2.13417 -8e-4,0.76674 -0.28003,1.52358 -0.86498,2.10877 z"
       id="path2-5"
       style="fill:url(#linearGradient1026);fill-opacity:1.0;stroke-width:0.046875" />
  </g>
</svg>
