<?xml version="1.0" encoding="UTF-8" standalone="no"?>
<svg
   width="64"
   version="1.1"
   height="64"
   id="svg15"
   sodipodi:docname="folder-crash.svg"
   inkscape:version="1.1.1 (3bf5ae0d25, 2021-09-20)"
   xmlns:inkscape="http://www.inkscape.org/namespaces/inkscape"
   xmlns:sodipodi="http://sodipodi.sourceforge.net/DTD/sodipodi-0.dtd"
   xmlns:xlink="http://www.w3.org/1999/xlink"
   xmlns="http://www.w3.org/2000/svg"
   xmlns:svg="http://www.w3.org/2000/svg"
   xmlns:rdf="http://www.w3.org/1999/02/22-rdf-syntax-ns#"
   xmlns:cc="http://creativecommons.org/ns#"
   xmlns:dc="http://purl.org/dc/elements/1.1/">
  <sodipodi:namedview
     pagecolor="#ffffff"
     bordercolor="#666666"
     borderopacity="1"
     objecttolerance="10"
     gridtolerance="10"
     guidetolerance="10"
     inkscape:pageopacity="0"
     inkscape:pageshadow="2"
     inkscape:window-width="1920"
     inkscape:window-height="1007"
     id="namedview17"
     showgrid="true"
     inkscape:zoom="8"
     inkscape:cx="19.5"
     inkscape:cy="32.8125"
     inkscape:window-x="0"
     inkscape:window-y="0"
     inkscape:window-maximized="1"
     inkscape:current-layer="layer1"
     inkscape:pagecheckerboard="0">
    <inkscape:grid
       type="xygrid"
       id="grid1640" />
  </sodipodi:namedview>
  <defs
     id="defs5455">
    <linearGradient
       inkscape:collect="always"
       id="linearGradient1989">
      <stop
         style="stop-color:#eb0a42;stop-opacity:1;"
         offset="0"
         id="stop1985" />
      <stop
         style="stop-color:#fa93ad;stop-opacity:1"
         offset="0.52466631"
         id="stop1991" />
      <stop
         style="stop-color:#f86287;stop-opacity:1"
         offset="1"
         id="stop1987" />
    </linearGradient>
    <linearGradient
       inkscape:collect="always"
       id="linearGradient1805">
      <stop
         style="stop-color:#eb0a42;stop-opacity:1;"
         offset="0"
         id="stop1801" />
      <stop
         style="stop-color:#eb0a42;stop-opacity:0;"
         offset="1"
         id="stop1803" />
    </linearGradient>
    <linearGradient
       inkscape:collect="always"
       xlink:href="#linearGradient2230"
       id="linearGradient2232"
       x1="384.57144"
       y1="515.79797"
       x2="448.57144"
       y2="515.79797"
       gradientUnits="userSpaceOnUse"
       gradientTransform="translate(-1.6399998e-6)" />
    <linearGradient
       inkscape:collect="always"
       id="linearGradient2230">
      <stop
         style="stop-color:#4e99ca;stop-opacity:0.80000001"
         offset="0"
         id="stop2226" />
      <stop
         style="stop-color:#20ffff;stop-opacity:0.80000001"
         offset="0.50507295"
         id="stop2332" />
      <stop
         style="stop-color:#ffaeff;stop-opacity:0.69"
         offset="1"
         id="stop2228" />
    </linearGradient>
    <linearGradient
       inkscape:collect="always"
       xlink:href="#linearGradient1989"
       id="linearGradient1807"
       x1="420.57143"
       y1="525.798"
       x2="444.57143"
       y2="525.798"
       gradientUnits="userSpaceOnUse" />
    <linearGradient
       inkscape:collect="always"
       xlink:href="#linearGradient1805"
       id="linearGradient1809"
       x1="426.38104"
       y1="521.18898"
       x2="429.38095"
       y2="521.18898"
       gradientUnits="userSpaceOnUse" />
    <linearGradient
       inkscape:collect="always"
       xlink:href="#linearGradient1805"
       id="linearGradient1811"
       x1="430.93216"
       y1="524.16329"
       x2="433.93207"
       y2="524.16329"
       gradientUnits="userSpaceOnUse" />
    <linearGradient
       inkscape:collect="always"
       xlink:href="#linearGradient1805"
       id="linearGradient1813"
       x1="426.00653"
       y1="530.18905"
       x2="429.00644"
       y2="530.18905"
       gradientUnits="userSpaceOnUse" />
    <linearGradient
       inkscape:collect="always"
       xlink:href="#linearGradient1805"
       id="linearGradient1815"
       x1="435.85754"
       y1="530.18905"
       x2="438.85745"
       y2="530.18905"
       gradientUnits="userSpaceOnUse" />
    <linearGradient
       inkscape:collect="always"
       xlink:href="#linearGradient1805"
       id="linearGradient1817"
       x1="429.20688"
       y1="528.58968"
       x2="432.20679"
       y2="528.58968"
       gradientUnits="userSpaceOnUse" />
    <linearGradient
       inkscape:collect="always"
       xlink:href="#linearGradient1805"
       id="linearGradient1819"
       x1="432.65762"
       y1="528.58968"
       x2="435.65753"
       y2="528.58968"
       gradientUnits="userSpaceOnUse" />
    <linearGradient
       inkscape:collect="always"
       xlink:href="#linearGradient1805"
       id="linearGradient1821"
       x1="435.38129"
       y1="521.18898"
       x2="438.3812"
       y2="521.18898"
       gradientUnits="userSpaceOnUse" />
  </defs>
  <metadata
     id="metadata5458">
    <rdf:RDF>
      <cc:Work
         rdf:about="">
        <dc:format>image/svg+xml</dc:format>
        <dc:type
           rdf:resource="http://purl.org/dc/dcmitype/StillImage" />
      </cc:Work>
    </rdf:RDF>
  </metadata>
  <g
     inkscape:label="Capa 1"
     inkscape:groupmode="layer"
     id="layer1"
     transform="translate(-384.57143,-483.798)">
    <rect
       style="fill:#626f9d;fill-opacity:0.2;stroke:none;stroke-width:1.26075"
       id="center-3"
       width="60.099998"
       height="42"
       x="386.57144"
       y="497.798"
       ry="3.9999959"
       rx="4.0066781" />
    <path
       d="m 442.73835,495.80768 h -29.32672 c -0.64817,0 -1.21496,-0.33361 -1.62011,-0.91817 l -2.1875,-3.33839 c -0.72899,-1.16852 -1.94446,-1.75312 -3.24023,-1.75312 h -14.98741 c -3.72689,0 -6.80495,3.17192 -6.80495,7.01111 v 38.97924 c 0,3.25524 2.59271,6.00966 5.83294,6.00966 h 25.19505 v 0 0 0 0 0 0 0 h 1.94402 v 0 0 0 0 0 0 0 0 0 h 25.19505 c 3.15951,0 5.83294,-2.67126 5.83294,-6.00966 v -33.9712 c 0,-3.33839 -2.59213,-6.00905 -5.83294,-6.00905 z m -25.19491,45.99033 v 0 h -1.94402 v 0 0 z m 29.08353,-6.00947 c 0,2.16999 -1.70156,4.00628 -3.88848,4.00628 h -52.33441 c -2.1062,0 -3.88848,-1.83629 -3.88848,-4.00628 l -5.8e-4,-13.43824 v -7.59568 c 0,-2.17001 1.78229,-4.00628 3.88848,-4.00628 h 29.32671 c 1.29634,0 2.51126,-0.66782 3.24024,-1.75312 l 2.10619,-3.33839 c 0.40518,-0.50072 0.97198,-0.91818 1.62012,-0.91818 h 15.06842 c 2.67343,0 4.86107,2.25378 4.86107,5.00835 v 10.93407 z m -4.86107,-32.9696 h -15.06842 c -1.29634,0 -2.51126,0.66781 -3.24023,1.75311 l -2.1062,3.3384 c -0.3238,0.58455 -0.97198,0.91816 -1.62011,0.91816 h -29.32651 c -1.45794,0 -2.83331,0.16967 -3.889,1.70239 v -8.733 c 0,-2 2.05601,-4 4.05601,-4 h 16.00001 l 0.0429,0.0464 2.9571,-0.0464 3.92107,0.0125 h 29.32672 c 2.10619,0 3.88848,1.83628 3.88848,4.00629 v 3.08814 c -1.29578,-1.33503 -2.99676,-2.08609 -4.94122,-2.08609 z"
       id="path64"
       sodipodi:nodetypes="csccsssssccccccccccccccccccsssccccccccccssccsssccssscccsccscccccccssscc"
       style="fill:url(#linearGradient2232);fill-opacity:1;stroke-width:0.146841" />
    <path
       fill-rule="evenodd"
       clip-rule="evenodd"
       d="m 441.14372,537.798 h -12.858 c -0.47272,0 -0.85629,-0.38464 -0.85629,-0.85714 0,-0.47379 0.38357,-0.85757 0.85629,-0.85757 h 12.858 c 0.94671,0 1.71428,-0.76758 1.71428,-1.71429 v -17.14286 c 0,-0.94671 -0.76757,-1.71385 -1.71428,-1.71385 h -17.14329 c -0.9465,0 -1.7145,0.76714 -1.7145,1.71385 v 16.28572 c 0,0.47378 -0.38336,0.85714 -0.85714,0.85714 -0.47293,0 -0.85736,-0.38336 -0.85736,-0.85714 v -16.28572 c 0,-1.89343 1.53579,-3.42814 3.429,-3.42814 h 17.14329 c 1.893,0 3.42771,1.53471 3.42771,3.42814 V 534.369 c 0,1.89343 -1.53471,3.429 -3.42771,3.429 z m -16.28593,-1.71471 c 0.47271,0 0.85714,0.38378 0.85714,0.85757 0,0.4725 -0.38443,0.85714 -0.85714,0.85714 -0.47379,0 -0.85736,-0.38464 -0.85736,-0.85714 0,-0.47379 0.38357,-0.85757 0.85736,-0.85757 z"
       id="path2-3"
       style="fill:url(#linearGradient1807);fill-opacity:1;stroke-width:0.0535714" />
    <rect
       x="426.38104"
       y="519.68903"
       width="2.9999108"
       height="2.9999177"
       id="rect6-6"
       style="fill:url(#linearGradient1809);fill-opacity:1;stroke-width:0.253371" />
    <rect
       x="430.93216"
       y="522.66333"
       width="2.9999108"
       height="2.9999177"
       id="rect8-7"
       style="fill:url(#linearGradient1811);fill-opacity:1;stroke-width:0.253371" />
    <rect
       x="426.00653"
       y="528.68909"
       width="2.9999108"
       height="2.9999177"
       id="rect10-5"
       style="fill:url(#linearGradient1813);fill-opacity:1;stroke-width:0.253371" />
    <rect
       x="435.85754"
       y="528.68909"
       width="2.9999108"
       height="2.9999177"
       id="rect12-3"
       style="fill:url(#linearGradient1815);fill-opacity:1;stroke-width:0.253371" />
    <rect
       x="429.20688"
       y="527.08972"
       width="2.9999108"
       height="2.9999177"
       id="rect14-5"
       style="fill:url(#linearGradient1817);fill-opacity:1;stroke-width:0.253371" />
    <rect
       x="432.65762"
       y="527.08972"
       width="2.9999108"
       height="2.9999177"
       id="rect16-6"
       style="fill:url(#linearGradient1819);fill-opacity:1;stroke-width:0.253371" />
    <rect
       x="435.38129"
       y="519.68903"
       width="2.9999108"
       height="2.9999177"
       id="rect18-2"
       style="fill:url(#linearGradient1821);fill-opacity:1;stroke-width:0.253371" />
  </g>
</svg>
