<?xml version="1.0" encoding="UTF-8" standalone="no"?>
<svg
   width="64"
   version="1.1"
   height="64"
   id="svg15"
   sodipodi:docname="folder-windows.svg"
   inkscape:version="1.1.1 (3bf5ae0d25, 2021-09-20)"
   xmlns:inkscape="http://www.inkscape.org/namespaces/inkscape"
   xmlns:sodipodi="http://sodipodi.sourceforge.net/DTD/sodipodi-0.dtd"
   xmlns:xlink="http://www.w3.org/1999/xlink"
   xmlns="http://www.w3.org/2000/svg"
   xmlns:svg="http://www.w3.org/2000/svg"
   xmlns:rdf="http://www.w3.org/1999/02/22-rdf-syntax-ns#"
   xmlns:cc="http://creativecommons.org/ns#"
   xmlns:dc="http://purl.org/dc/elements/1.1/">
  <sodipodi:namedview
     pagecolor="#ffffff"
     bordercolor="#666666"
     borderopacity="1"
     objecttolerance="10"
     gridtolerance="10"
     guidetolerance="10"
     inkscape:pageopacity="0"
     inkscape:pageshadow="2"
     inkscape:window-width="1920"
     inkscape:window-height="1007"
     id="namedview17"
     showgrid="true"
     inkscape:zoom="9.8125"
     inkscape:cx="32"
     inkscape:cy="31.949045"
     inkscape:window-x="0"
     inkscape:window-y="0"
     inkscape:window-maximized="1"
     inkscape:current-layer="layer1"
     inkscape:document-rotation="0"
     inkscape:pagecheckerboard="0">
    <inkscape:grid
       type="xygrid"
       id="grid850" />
  </sodipodi:namedview>
  <defs
     id="defs5455">
    <linearGradient
       inkscape:collect="always"
       xlink:href="#linearGradient2230"
       id="linearGradient2232"
       x1="384.57144"
       y1="515.79797"
       x2="448.57144"
       y2="515.79797"
       gradientUnits="userSpaceOnUse"
       gradientTransform="translate(2.0867188e-5,5.6884766e-5)" />
    <linearGradient
       inkscape:collect="always"
       id="linearGradient2230">
      <stop
         style="stop-color:#4e99ca;stop-opacity:0.80000001"
         offset="0"
         id="stop2226" />
      <stop
         style="stop-color:#20ffff;stop-opacity:0.80000001"
         offset="0.50507295"
         id="stop2332" />
      <stop
         style="stop-color:#ffaeff;stop-opacity:0.69"
         offset="1"
         id="stop2228" />
    </linearGradient>
    <linearGradient
       inkscape:collect="always"
       xlink:href="#linearGradient2230"
       id="linearGradient1026"
       gradientUnits="userSpaceOnUse"
       gradientTransform="translate(16.00005,5)"
       x1="404.57144"
       y1="520.79755"
       x2="428.57147"
       y2="520.79755" />
  </defs>
  <metadata
     id="metadata5458">
    <rdf:RDF>
      <cc:Work
         rdf:about="">
        <dc:format>image/svg+xml</dc:format>
        <dc:type
           rdf:resource="http://purl.org/dc/dcmitype/StillImage" />
      </cc:Work>
    </rdf:RDF>
  </metadata>
  <g
     inkscape:label="Capa 1"
     inkscape:groupmode="layer"
     id="layer1"
     transform="translate(-384.57143,-483.798)">
    <rect
       style="fill:#626f9d;fill-opacity:0.2;stroke:none;stroke-width:1.26075"
       id="center-3"
       width="60.099998"
       height="42"
       x="386.57144"
       y="497.798"
       ry="3.9999959"
       rx="4.0066781" />
    <path
       d="m 442.73837,495.80774 h -29.32672 c -0.64817,0 -1.21496,-0.33361 -1.62011,-0.91817 l -2.1875,-3.33839 c -0.72899,-1.16852 -1.94446,-1.75312 -3.24023,-1.75312 H 391.3764 c -3.72689,0 -6.80495,3.17192 -6.80495,7.01111 v 38.97924 c 0,3.25524 2.59271,6.00966 5.83294,6.00966 h 25.19505 v 0 0 0 0 0 0 0 h 1.94402 v 0 0 0 0 0 0 0 0 0 h 25.19505 c 3.15951,0 5.83294,-2.67126 5.83294,-6.00966 v -33.9712 c 0,-3.33839 -2.59213,-6.00905 -5.83294,-6.00905 z m -25.19491,45.99033 v 0 h -1.94402 v 0 0 z m 29.08353,-6.00947 c 0,2.16999 -1.70156,4.00628 -3.88848,4.00628 H 390.4041 c -2.1062,0 -3.88848,-1.83629 -3.88848,-4.00628 l -5.8e-4,-13.43824 v -7.59568 c 0,-2.17001 1.78229,-4.00628 3.88848,-4.00628 h 29.32671 c 1.29634,0 2.51126,-0.66782 3.24024,-1.75312 l 2.10619,-3.33839 c 0.40518,-0.50072 0.97198,-0.91818 1.62012,-0.91818 h 15.06842 c 2.67343,0 4.86107,2.25378 4.86107,5.00835 v 10.93407 z M 441.76592,502.819 H 426.6975 c -1.29634,0 -2.51126,0.66781 -3.24023,1.75311 l -2.1062,3.3384 c -0.3238,0.58455 -0.97198,0.91816 -1.62011,0.91816 h -29.32651 c -1.45794,0 -2.83331,0.16967 -3.889,1.70239 v -8.733 c 0,-2 2.05601,-4 4.05601,-4 h 16.00001 l 0.0429,0.0464 2.9571,-0.0464 3.92107,0.0125 h 29.32672 c 2.10619,0 3.88848,1.83628 3.88848,4.00629 v 3.08814 c -1.29578,-1.33503 -2.99676,-2.08609 -4.94122,-2.08609 z"
       id="path64"
       sodipodi:nodetypes="csccsssssccccccccccccccccccsssccccccccccssccsssccssscccsccscccccccssscc"
       style="fill:url(#linearGradient2232);fill-opacity:1;stroke-width:0.146841" />
    <path
       fill-rule="evenodd"
       clip-rule="evenodd"
       d="m 441.57153,537.79716 h -5.24996 c -0.41381,0 -0.75037,-0.33619 -0.75037,-0.75 0,-0.41456 0.33656,-0.75 0.75037,-0.75 h 4.87496 c 1.03565,0 1.875,-0.83934 1.875,-1.875 v -4.87495 c 0,-0.41457 0.33543,-0.75075 0.75,-0.75075 0.41456,0 0.75,0.33618 0.75,0.75075 v 5.24995 c 0,1.65675 -1.34325,3 -3,3 z m -20.25,-16.49967 c 0.41456,0 0.75018,0.33544 0.75018,0.74995 0,0.41344 -0.33562,0.74925 -0.75018,0.74925 -0.41438,0 -0.75,-0.33581 -0.75,-0.74925 0,-0.41451 0.33562,-0.74995 0.75,-0.74995 z m 23.22215,3.3907 c -0.0103,0.0806 -0.0227,0.16078 -0.0396,0.23878 -0.008,0.0381 -0.019,0.074 -0.0285,0.11133 -0.0168,0.0652 -0.0337,0.13111 -0.0549,0.19481 -0.009,0.0278 -0.0198,0.0557 -0.0301,0.0835 -0.0271,0.0732 -0.0542,0.14574 -0.0871,0.21572 -0.008,0.0183 -0.0172,0.0359 -0.026,0.0542 -0.0366,0.0762 -0.0758,0.15197 -0.11826,0.22411 -0.009,0.015 -0.0176,0.0297 -0.0271,0.0447 -0.0461,0.0747 -0.0948,0.14775 -0.14724,0.21881 -0.007,0.01 -0.0154,0.0205 -0.0224,0.0301 -0.0568,0.074 -0.11611,0.14649 -0.17906,0.2146 -0.005,0.006 -0.011,0.0125 -0.0161,0.0176 -0.0681,0.074 -0.14063,0.14428 -0.21605,0.21093 -0.52879,0.4651 -1.2202,0.75 -1.97972,0.75 v 0.0381 c -0.12121,-0.0242 -0.24684,-0.0381 -0.375,-0.0381 h -5.24995 c -1.03561,0 -1.87495,0.83935 -1.87495,1.87496 v 5.24995 c 0,0.12816 0.0139,0.25416 0.0384,0.375 h -0.0384 c 0,0.75952 -0.28453,1.45092 -0.75,1.97972 -0.0667,0.0754 -0.13697,0.14794 -0.21094,0.21605 -0.005,0.005 -0.0117,0.0103 -0.0172,0.0161 -0.0685,0.063 -0.141,0.12229 -0.21497,0.17868 -0.01,0.007 -0.0205,0.0154 -0.0301,0.0227 -0.0711,0.052 -0.1439,0.10106 -0.21881,0.14724 -0.015,0.01 -0.0295,0.0183 -0.0445,0.0271 -0.0723,0.0425 -0.14794,0.0813 -0.2243,0.11793 -0.0183,0.009 -0.0359,0.0183 -0.0542,0.0263 -0.0699,0.033 -0.14226,0.0601 -0.21553,0.0871 -0.0278,0.0103 -0.0557,0.0212 -0.0835,0.03 -0.0637,0.0212 -0.12966,0.0381 -0.19481,0.0549 -0.0376,0.01 -0.0732,0.0205 -0.11152,0.0285 -0.0778,0.0168 -0.1582,0.0293 -0.23859,0.0396 -0.0224,0.004 -0.0428,0.007 -0.0659,0.01 -0.10674,0.0125 -0.21567,0.0183 -0.32536,0.0183 h -7.49957 c -1.65689,6e-5 -3.00032,-1.34319 -3.00032,-2.99994 v -7.49991 c 0,-1.65693 1.34343,-3.00018 3.00032,-3.00018 h 0.75019 4.87439 c 1.03585,0 1.875,-0.83935 1.875,-1.875 v -5.24996 c 0,-1.03561 -0.83915,-1.87495 -1.875,-1.87495 h -5.24995 c -1.03561,0 -1.87481,0.83934 -1.87481,1.87495 v 1.875 c 0,0.41419 -0.33563,0.75 -0.75019,0.75 -0.41437,0 -0.75,-0.33581 -0.75,-0.75 v -2.24962 c 5e-5,-1.65708 1.34348,-3.00033 3.00037,-3.00033 h 6.00015 c 0.10968,0 0.21717,0.005 0.32371,0.0172 0.0247,0.003 0.0485,0.009 0.0732,0.0121 0.0788,0.0103 0.15675,0.0224 0.23382,0.0388 0.0357,0.007 0.0692,0.0183 0.1049,0.0271 0.0677,0.0168 0.13439,0.0337 0.19978,0.0557 0.0269,0.009 0.054,0.0202 0.0811,0.0297 0.0731,0.0271 0.14723,0.0549 0.21787,0.0875 0.019,0.009 0.0383,0.0172 0.0573,0.0271 0.0747,0.0355 0.14869,0.0747 0.22027,0.11681 0.0152,0.01 0.0302,0.0183 0.0454,0.0279 0.0747,0.0461 0.14794,0.0945 0.21876,0.14723 0.01,0.007 0.0207,0.015 0.0302,0.0224 0.074,0.0564 0.1463,0.11611 0.21479,0.17869 0.005,0.005 0.0119,0.0113 0.0174,0.0161 0.074,0.0685 0.1439,0.14063 0.21075,0.21643 0.46547,0.52879 0.75018,1.2202 0.75018,1.97967 h 0.0383 c -0.0247,0.12084 -0.0383,0.24647 -0.0383,0.37462 v 5.62458 c 0,1.65713 -1.34343,3.00038 -2.99962,3.00038 h -5.62542 c -1.03561,0 -1.87481,0.83953 -1.87481,1.87518 v 6.74991 c 0,1.03566 0.83915,1.875 1.87481,1.875 h 6.75033 c 1.03561,0 1.87481,-0.83934 1.87481,-1.875 v -5.6257 c 0,-1.65671 1.3433,-2.99939 2.99963,-2.99939 h 5.62528 c 1.03565,0 1.875,-0.83897 1.875,-1.87463 v -6.75033 c 0,-1.03561 -0.83935,-1.87495 -1.875,-1.87495 h -6.37453 c -0.41419,0 -0.75038,-0.33544 -0.75038,-0.75 0,-0.41456 0.33619,-0.75 0.75038,-0.75 h 6.74953 c 1.65675,0 3,1.34325 3,3.00033 v 7.49958 c 0,0.1095 -0.006,0.21862 -0.0183,0.32522 -0.002,0.0231 -0.006,0.0439 -0.01,0.0659 z"
       id="path2-5"
       style="fill:url(#linearGradient1026);fill-opacity:1.0;stroke-width:0.046875" />
  </g>
</svg>
