<?xml version="1.0" encoding="UTF-8" standalone="no"?>
<svg
   width="64"
   version="1.1"
   height="64"
   id="svg15"
   sodipodi:docname="folder-paint.svg"
   inkscape:version="1.1.1 (3bf5ae0d25, 2021-09-20)"
   xmlns:inkscape="http://www.inkscape.org/namespaces/inkscape"
   xmlns:sodipodi="http://sodipodi.sourceforge.net/DTD/sodipodi-0.dtd"
   xmlns:xlink="http://www.w3.org/1999/xlink"
   xmlns="http://www.w3.org/2000/svg"
   xmlns:svg="http://www.w3.org/2000/svg"
   xmlns:rdf="http://www.w3.org/1999/02/22-rdf-syntax-ns#"
   xmlns:cc="http://creativecommons.org/ns#"
   xmlns:dc="http://purl.org/dc/elements/1.1/">
  <sodipodi:namedview
     pagecolor="#ffffff"
     bordercolor="#666666"
     borderopacity="1"
     objecttolerance="10"
     gridtolerance="10"
     guidetolerance="10"
     inkscape:pageopacity="0"
     inkscape:pageshadow="2"
     inkscape:window-width="1920"
     inkscape:window-height="1007"
     id="namedview17"
     showgrid="true"
     inkscape:zoom="9.8125"
     inkscape:cx="32"
     inkscape:cy="31.949045"
     inkscape:window-x="0"
     inkscape:window-y="0"
     inkscape:window-maximized="1"
     inkscape:current-layer="layer1"
     inkscape:document-rotation="0"
     inkscape:pagecheckerboard="0">
    <inkscape:grid
       type="xygrid"
       id="grid850" />
  </sodipodi:namedview>
  <defs
     id="defs5455">
    <linearGradient
       inkscape:collect="always"
       xlink:href="#linearGradient2230"
       id="linearGradient2232"
       x1="384.57144"
       y1="515.79797"
       x2="448.57144"
       y2="515.79797"
       gradientUnits="userSpaceOnUse"
       gradientTransform="translate(2.0867188e-5,5.6884766e-5)" />
    <linearGradient
       inkscape:collect="always"
       id="linearGradient2230">
      <stop
         style="stop-color:#4e99ca;stop-opacity:0.80000001"
         offset="0"
         id="stop2226" />
      <stop
         style="stop-color:#20ffff;stop-opacity:0.80000001"
         offset="0.50507295"
         id="stop2332" />
      <stop
         style="stop-color:#ffaeff;stop-opacity:0.69"
         offset="1"
         id="stop2228" />
    </linearGradient>
    <linearGradient
       inkscape:collect="always"
       xlink:href="#linearGradient2230"
       id="linearGradient853"
       x1="9.9970074"
       y1="35"
       x2="60.002987"
       y2="35"
       gradientUnits="userSpaceOnUse" />
    <linearGradient
       inkscape:collect="always"
       xlink:href="#linearGradient2230"
       id="linearGradient855"
       x1="404.56842"
       y1="520.80402"
       x2="428.56842"
       y2="520.80402"
       gradientUnits="userSpaceOnUse"
       gradientTransform="translate(16.002992,4.9939943)" />
    <linearGradient
       inkscape:collect="always"
       xlink:href="#linearGradient2230"
       id="linearGradient1993"
       gradientUnits="userSpaceOnUse"
       x1="9.9970074"
       y1="35"
       x2="60.002987"
       y2="35" />
    <linearGradient
       inkscape:collect="always"
       xlink:href="#linearGradient2230"
       id="linearGradient1995"
       gradientUnits="userSpaceOnUse"
       x1="9.9970074"
       y1="35"
       x2="60.002987"
       y2="35" />
  </defs>
  <metadata
     id="metadata5458">
    <rdf:RDF>
      <cc:Work
         rdf:about="">
        <dc:format>image/svg+xml</dc:format>
        <dc:type
           rdf:resource="http://purl.org/dc/dcmitype/StillImage" />
      </cc:Work>
    </rdf:RDF>
  </metadata>
  <g
     inkscape:label="Capa 1"
     inkscape:groupmode="layer"
     id="layer1"
     transform="translate(-384.57143,-483.798)">
    <rect
       style="fill:#626f9d;fill-opacity:0.2;stroke:none;stroke-width:1.26075"
       id="center-3"
       width="60.099998"
       height="42"
       x="386.57144"
       y="497.798"
       ry="3.9999959"
       rx="4.0066781" />
    <path
       d="m 442.73837,495.80774 h -29.32672 c -0.64817,0 -1.21496,-0.33361 -1.62011,-0.91817 l -2.1875,-3.33839 c -0.72899,-1.16852 -1.94446,-1.75312 -3.24023,-1.75312 H 391.3764 c -3.72689,0 -6.80495,3.17192 -6.80495,7.01111 v 38.97924 c 0,3.25524 2.59271,6.00966 5.83294,6.00966 h 25.19505 v 0 0 0 0 0 0 0 h 1.94402 v 0 0 0 0 0 0 0 0 0 h 25.19505 c 3.15951,0 5.83294,-2.67126 5.83294,-6.00966 v -33.9712 c 0,-3.33839 -2.59213,-6.00905 -5.83294,-6.00905 z m -25.19491,45.99033 v 0 h -1.94402 v 0 0 z m 29.08353,-6.00947 c 0,2.16999 -1.70156,4.00628 -3.88848,4.00628 H 390.4041 c -2.1062,0 -3.88848,-1.83629 -3.88848,-4.00628 l -5.8e-4,-13.43824 v -7.59568 c 0,-2.17001 1.78229,-4.00628 3.88848,-4.00628 h 29.32671 c 1.29634,0 2.51126,-0.66782 3.24024,-1.75312 l 2.10619,-3.33839 c 0.40518,-0.50072 0.97198,-0.91818 1.62012,-0.91818 h 15.06842 c 2.67343,0 4.86107,2.25378 4.86107,5.00835 v 10.93407 z M 441.76592,502.819 H 426.6975 c -1.29634,0 -2.51126,0.66781 -3.24023,1.75311 l -2.1062,3.3384 c -0.3238,0.58455 -0.97198,0.91816 -1.62011,0.91816 h -29.32651 c -1.45794,0 -2.83331,0.16967 -3.889,1.70239 v -8.733 c 0,-2 2.05601,-4 4.05601,-4 h 16.00001 l 0.0429,0.0464 2.9571,-0.0464 3.92107,0.0125 h 29.32672 c 2.10619,0 3.88848,1.83628 3.88848,4.00629 v 3.08814 c -1.29578,-1.33503 -2.99676,-2.08609 -4.94122,-2.08609 z"
       id="path64"
       sodipodi:nodetypes="csccsssssccccccccccccccccccsssccccccccccssccsssccssscccsccscccccccssscc"
       style="fill:url(#linearGradient2232);fill-opacity:1;stroke-width:0.146841" />
    <path
       fill-rule="evenodd"
       clip-rule="evenodd"
       d="m 441.14372,537.798 h -12.858 c -0.47272,0 -0.85629,-0.38464 -0.85629,-0.85714 0,-0.47379 0.38357,-0.85757 0.85629,-0.85757 h 12.858 c 0.94671,0 1.71428,-0.76758 1.71428,-1.71429 v -17.14286 c 0,-0.94671 -0.76757,-1.71385 -1.71428,-1.71385 h -17.14329 c -0.9465,0 -1.7145,0.76714 -1.7145,1.71385 v 16.28572 c 0,0.47378 -0.38336,0.85714 -0.85714,0.85714 -0.47293,0 -0.85736,-0.38336 -0.85736,-0.85714 v -16.28572 c 0,-1.89343 1.53579,-3.42814 3.429,-3.42814 h 17.14329 c 1.893,0 3.42771,1.53471 3.42771,3.42814 V 534.369 c 0,1.89343 -1.53471,3.429 -3.42771,3.429 z m -16.28593,-1.71471 c 0.47271,0 0.85714,0.38378 0.85714,0.85757 0,0.4725 -0.38443,0.85714 -0.85714,0.85714 -0.47379,0 -0.85736,-0.38464 -0.85736,-0.85714 0,-0.47379 0.38357,-0.85757 0.85736,-0.85757 z"
       id="path2"
       style="fill:url(#linearGradient855);fill-opacity:1.0;stroke-width:0.0535714" />
    <g
       id="g6"
       transform="matrix(0.24966639,0,0,0.24966639,423.80051,516.94568)"
       style="fill:url(#linearGradient853);fill-opacity:1">
      <path
         d="m 59.575199,11.401942 c -0.900024,-0.889892 -2.520019,-0.679931 -7.559998,3.220093 -3.48999,2.700072 -7.820007,6.599975 -12.200012,10.97998 -3.197937,3.189575 -6.168396,6.396118 -8.588501,9.255861 0.596741,0.334961 1.173401,0.741089 1.68158,1.247681 0.360351,0.361328 0.635742,0.671875 0.899402,0.996093 0.117199,0.135743 0.260754,0.327149 0.401379,0.518555 0.213867,0.293945 0.415039,0.594727 0.617188,0.908203 0.327697,0.550781 0.584228,1.086304 0.812072,1.621582 1.097596,-0.919311 2.24469,-1.918945 3.43689,-2.998047 2.019959,-1.829834 4.159973,-3.849853 6.299988,-5.989992 4.369995,-4.369873 8.270019,-8.709961 10.97998,-12.209961 3.890015,-5.040038 4.100037,-6.659911 3.220032,-7.550048 z"
         id="path2-3-3"
         style="fill:url(#linearGradient1993);fill-opacity:1.0" />
      <path
         d="m 31.495182,53.151943 c -4.130005,4.120117 -19.72998,5.800049 -20.400024,5.870117 -0.02997,0 -0.06995,0.01001 -0.09998,0.01001 -0.380005,0 -0.72998,-0.21997 -0.900024,-0.570068 -0.1799931,-0.380005 -0.1099858,-0.839966 0.190002,-1.139893 3.76001,-3.770019 5,-8.740112 5.380005,-12.240112 0.309998,-2.910034 1.780028,-5.599976 4.040038,-7.390015 2.109985,-1.679931 4.709961,-2.419922 7.329956,-2.109985 1.100037,0.130005 2.080017,0.410034 2.900024,0.829956 0.599976,0.290039 1.119996,0.670044 1.559998,1.110107 0.02002,0.02002 0.03998,0.04004 0.06,0.05994 0.25,0.25 0.47998,0.51001 0.700012,0.780029 0.119995,0.140015 0.22998,0.289917 0.339966,0.440064 0.190002,0.260009 0.369995,0.529907 0.550049,0.809936 0.349975,0.589966 0.649963,1.219971 0.880004,1.859986 1.469972,3.929931 0.619996,8.530029 -2.530028,11.679931 z"
         id="path4"
         style="fill:url(#linearGradient1995);fill-opacity:1.0" />
    </g>
  </g>
</svg>
