<?xml version="1.0" encoding="UTF-8" standalone="no"?>
<svg
   width="64"
   version="1.1"
   height="64"
   id="svg15"
   sodipodi:docname="folder-database.svg"
   inkscape:version="1.1.1 (3bf5ae0d25, 2021-09-20)"
   xmlns:inkscape="http://www.inkscape.org/namespaces/inkscape"
   xmlns:sodipodi="http://sodipodi.sourceforge.net/DTD/sodipodi-0.dtd"
   xmlns:xlink="http://www.w3.org/1999/xlink"
   xmlns="http://www.w3.org/2000/svg"
   xmlns:svg="http://www.w3.org/2000/svg"
   xmlns:rdf="http://www.w3.org/1999/02/22-rdf-syntax-ns#"
   xmlns:cc="http://creativecommons.org/ns#"
   xmlns:dc="http://purl.org/dc/elements/1.1/">
  <sodipodi:namedview
     pagecolor="#ffffff"
     bordercolor="#666666"
     borderopacity="1"
     objecttolerance="10"
     gridtolerance="10"
     guidetolerance="10"
     inkscape:pageopacity="0"
     inkscape:pageshadow="2"
     inkscape:window-width="1920"
     inkscape:window-height="1007"
     id="namedview17"
     showgrid="true"
     inkscape:zoom="9.8125"
     inkscape:cx="32"
     inkscape:cy="31.949045"
     inkscape:window-x="0"
     inkscape:window-y="0"
     inkscape:window-maximized="1"
     inkscape:current-layer="layer1"
     inkscape:document-rotation="0"
     inkscape:pagecheckerboard="0">
    <inkscape:grid
       type="xygrid"
       id="grid850" />
  </sodipodi:namedview>
  <defs
     id="defs5455">
    <linearGradient
       inkscape:collect="always"
       xlink:href="#linearGradient2230"
       id="linearGradient2232"
       x1="384.57144"
       y1="515.79797"
       x2="448.57144"
       y2="515.79797"
       gradientUnits="userSpaceOnUse" />
    <linearGradient
       inkscape:collect="always"
       id="linearGradient2230">
      <stop
         style="stop-color:#4e99ca;stop-opacity:0.80000001"
         offset="0"
         id="stop2226" />
      <stop
         style="stop-color:#20ffff;stop-opacity:0.80000001"
         offset="0.50507295"
         id="stop2332" />
      <stop
         style="stop-color:#ffaeff;stop-opacity:0.69"
         offset="1"
         id="stop2228" />
    </linearGradient>
    <linearGradient
       inkscape:collect="always"
       xlink:href="#linearGradient2230"
       id="linearGradient1122"
       gradientUnits="userSpaceOnUse"
       gradientTransform="translate(16,4.999)"
       x1="404.57144"
       y1="520.79901"
       x2="428.5723"
       y2="520.79901" />
  </defs>
  <metadata
     id="metadata5458">
    <rdf:RDF>
      <cc:Work
         rdf:about="">
        <dc:format>image/svg+xml</dc:format>
        <dc:type
           rdf:resource="http://purl.org/dc/dcmitype/StillImage" />
      </cc:Work>
    </rdf:RDF>
  </metadata>
  <g
     inkscape:label="Capa 1"
     inkscape:groupmode="layer"
     id="layer1"
     transform="translate(-384.57143,-483.798)">
    <g
       transform="matrix(0.74351172,0,0,0.74285356,332.49565,-244.90835)"
       id="g4" />
    <rect
       style="fill:#626f9d;fill-opacity:0.2;stroke:none;stroke-width:1.26075"
       id="center-3"
       width="60.099998"
       height="42"
       x="386.57144"
       y="497.79797"
       ry="3.9999959"
       rx="4.0066781" />
    <path
       d="m 442.73835,495.80768 h -29.32672 c -0.64817,0 -1.21496,-0.33361 -1.62011,-0.91817 l -2.1875,-3.33839 c -0.72899,-1.16852 -1.94446,-1.75312 -3.24023,-1.75312 h -14.98741 c -3.72689,0 -6.80495,3.17192 -6.80495,7.01111 v 38.97924 c 0,3.25524 2.59271,6.00966 5.83294,6.00966 h 25.19505 v 0 0 0 0 0 0 0 h 1.94402 v 0 0 0 0 0 0 0 0 0 h 25.19505 c 3.15951,0 5.83294,-2.67126 5.83294,-6.00966 v -33.9712 c 0,-3.33839 -2.59213,-6.00905 -5.83294,-6.00905 z m -25.19491,45.99033 v 0 h -1.94402 v 0 0 z m 29.08353,-6.00947 c 0,2.16999 -1.70156,4.00628 -3.88848,4.00628 h -52.33441 c -2.1062,0 -3.88848,-1.83629 -3.88848,-4.00628 l -5.8e-4,-13.43824 v -7.59568 c 0,-2.17001 1.78229,-4.00628 3.88848,-4.00628 h 29.32671 c 1.29634,0 2.51126,-0.66782 3.24024,-1.75312 l 2.10619,-3.33839 c 0.40518,-0.50072 0.97198,-0.91818 1.62012,-0.91818 h 15.06842 c 2.67343,0 4.86107,2.25378 4.86107,5.00835 v 10.93407 z m -4.86107,-32.9696 h -15.06842 c -1.29634,0 -2.51126,0.66781 -3.24023,1.75311 l -2.1062,3.3384 c -0.3238,0.58455 -0.97198,0.91816 -1.62011,0.91816 h -29.32651 c -1.45794,0 -2.83331,0.16967 -3.889,1.70239 v -8.733 c 0,-2 2.05601,-4 4.05601,-4 h 16.00001 l 0.0429,0.0464 2.9571,-0.0464 3.92107,0.0125 h 29.32672 c 2.10619,0 3.88848,1.83628 3.88848,4.00629 v 3.08814 c -1.29578,-1.33503 -2.99676,-2.08609 -4.94122,-2.08609 z"
       id="path64"
       sodipodi:nodetypes="csccsssssccccccccccccccccccsssccccccccccssccsssccssscccsccscccccccssscc"
       style="fill:url(#linearGradient2232);fill-opacity:1;stroke-width:0.146841" />
    <path
       fill-rule="evenodd"
       clip-rule="evenodd"
       d="m 443.82143,533.29807 c -0.41381,0 -0.75038,-0.33618 -0.75038,-0.75 0,-0.41456 0.33657,-0.75075 0.75038,-0.75075 0.41419,0 0.75,0.33619 0.75,0.75075 0,0.41382 -0.33581,0.75 -0.75,0.75 z m 0.72216,-5.60892 c -0.0103,0.0806 -0.0234,0.16041 -0.0399,0.23878 -0.008,0.0381 -0.019,0.074 -0.0285,0.11133 -0.0168,0.0652 -0.0341,0.13111 -0.0549,0.19481 -0.009,0.0278 -0.0202,0.0557 -0.0304,0.0835 -0.0271,0.0732 -0.0549,0.14574 -0.0864,0.21535 -0.009,0.019 -0.0183,0.0381 -0.0271,0.0564 -0.0352,0.0725 -0.0725,0.14353 -0.11208,0.21239 -0.0128,0.022 -0.0256,0.044 -0.0392,0.0652 -0.0443,0.0711 -0.0905,0.14142 -0.13988,0.20803 -0.008,0.01 -0.015,0.0205 -0.0231,0.03 -0.0571,0.0762 -0.11864,0.14943 -0.18384,0.22045 -0.002,0.002 -0.005,0.004 -0.007,0.008 -0.0696,0.0747 -0.14208,0.14724 -0.21938,0.2146 -0.52809,0.46509 -1.2202,0.75 -1.98009,0.75 v 0.0381 c -0.12164,-0.0242 -0.24614,-0.0381 -0.37505,-0.0381 H 423.947 c -1.03566,0 -1.87575,0.83934 -1.87575,1.875 v 2.24924 c 0,1.03571 0.84009,1.87505 1.87575,1.87505 h 17.24976 c 0.88444,0 1.63993,-0.70387 2.0618,-1.24144 l 0.002,7.5e-4 c 0.13767,-0.15753 0.33619,-0.25859 0.56175,-0.25859 0.41419,0 0.75,0.33544 0.75,0.75 0,0.77784 -1.34287,2.25 -3,2.25 H 423.5711 c -1.65694,0 -2.99967,-1.34325 -2.99967,-3 v -3.0008 c 0,-1.65675 1.34273,-2.99929 2.99967,-2.99929 h 1.12481 16.50047 c 1.03571,0 1.87467,-0.83935 1.87467,-1.875 v -2.25019 c 0,-1.03566 -0.83896,-1.875 -1.87467,-1.875 h -16.50047 -1.12481 c -1.65694,0 -2.99967,-1.34363 -2.99967,-2.99967 v -3.00038 c 0,-1.65712 1.34273,-2.99967 2.99967,-2.99967 h 18.00033 c 1.65713,0 3,1.34255 3,2.99967 v 2.25038 c 0,0.41343 -0.33581,0.75 -0.75,0.75 -0.41381,0 -0.75038,-0.33657 -0.75038,-0.75 v -1.87493 c 0,-1.03566 -0.83896,-1.87575 -1.87467,-1.87575 h -17.24976 c -1.03566,0 -1.87575,0.84009 -1.87575,1.87575 v 2.24967 c 0,1.03566 0.84009,1.87463 1.87575,1.87463 h 17.24976 c 0.12891,0 0.25341,-0.0136 0.37505,-0.0381 v 0.0381 c 0.75989,0 1.45205,0.28495 1.98009,0.75037 0.0772,0.0674 0.14977,0.13988 0.21938,0.2146 0.003,0.003 0.005,0.005 0.007,0.008 0.0652,0.0707 0.1267,0.1439 0.18384,0.22045 0.008,0.01 0.015,0.0205 0.0231,0.0301 0.0495,0.067 0.0956,0.13696 0.13988,0.20765 0.0136,0.0216 0.0263,0.0436 0.0392,0.0652 0.0396,0.0692 0.0769,0.13987 0.11208,0.21239 0.009,0.0183 0.0183,0.0374 0.0271,0.0564 0.0315,0.0699 0.0593,0.14245 0.0864,0.21572 0.0103,0.0278 0.0216,0.0557 0.0304,0.0835 0.0209,0.0637 0.0381,0.12966 0.0549,0.19481 0.01,0.0374 0.0209,0.0732 0.0285,0.11133 0.0165,0.078 0.0297,0.15858 0.0399,0.23878 0.003,0.0224 0.007,0.0428 0.01,0.0659 0.0117,0.10655 0.0183,0.21572 0.0183,0.32559 v 2.99982 c 0,0.10912 -0.007,0.21825 -0.0183,0.32522 -0.002,0.0227 -0.007,0.0439 -0.009,0.0659 z m -23.22197,-3.39094 c 0.41362,0 0.74925,0.33544 0.74925,0.75 v 1.49907 c 0,0.41456 -0.33563,0.75075 -0.74925,0.75075 -0.41456,0 -0.75019,-0.33619 -0.75019,-0.75075 v -1.49907 c 0,-0.41456 0.33563,-0.75 0.75019,-0.75 z"
       id="path2-5"
       style="fill:url(#linearGradient1122);fill-opacity:1.0;stroke-width:0.046875" />
  </g>
</svg>
