<?xml version="1.0" encoding="UTF-8" standalone="no"?>
<svg
   width="64"
   version="1.1"
   height="64"
   id="svg15"
   sodipodi:docname="folder-appimage.svg"
   inkscape:version="1.1.1 (3bf5ae0d25, 2021-09-20)"
   xmlns:inkscape="http://www.inkscape.org/namespaces/inkscape"
   xmlns:sodipodi="http://sodipodi.sourceforge.net/DTD/sodipodi-0.dtd"
   xmlns:xlink="http://www.w3.org/1999/xlink"
   xmlns="http://www.w3.org/2000/svg"
   xmlns:svg="http://www.w3.org/2000/svg"
   xmlns:rdf="http://www.w3.org/1999/02/22-rdf-syntax-ns#"
   xmlns:cc="http://creativecommons.org/ns#"
   xmlns:dc="http://purl.org/dc/elements/1.1/">
  <sodipodi:namedview
     pagecolor="#ffffff"
     bordercolor="#666666"
     borderopacity="1"
     objecttolerance="10"
     gridtolerance="10"
     guidetolerance="10"
     inkscape:pageopacity="0"
     inkscape:pageshadow="2"
     inkscape:window-width="1920"
     inkscape:window-height="1007"
     id="namedview17"
     showgrid="true"
     inkscape:zoom="6.9384853"
     inkscape:cx="21.042057"
     inkscape:cy="41.867928"
     inkscape:window-x="0"
     inkscape:window-y="0"
     inkscape:window-maximized="1"
     inkscape:current-layer="layer1"
     inkscape:document-rotation="0"
     inkscape:pagecheckerboard="0">
    <inkscape:grid
       type="xygrid"
       id="grid850" />
  </sodipodi:namedview>
  <defs
     id="defs5455">
    <linearGradient
       inkscape:collect="always"
       xlink:href="#linearGradient2230"
       id="linearGradient2232"
       x1="384.57144"
       y1="515.79797"
       x2="448.57144"
       y2="515.79797"
       gradientUnits="userSpaceOnUse"
       gradientTransform="translate(6.3800002e-6)" />
    <linearGradient
       inkscape:collect="always"
       id="linearGradient2230">
      <stop
         style="stop-color:#4e99ca;stop-opacity:0.80000001"
         offset="0"
         id="stop2226" />
      <stop
         style="stop-color:#20ffff;stop-opacity:0.80000001"
         offset="0.50507295"
         id="stop2332" />
      <stop
         style="stop-color:#ffaeff;stop-opacity:0.69"
         offset="1"
         id="stop2228" />
    </linearGradient>
    <linearGradient
       inkscape:collect="always"
       xlink:href="#linearGradient2230"
       id="linearGradient1197"
       gradientUnits="userSpaceOnUse"
       gradientTransform="translate(16,5)"
       x1="404.57144"
       y1="520.79791"
       x2="428.57193"
       y2="520.79791" />
  </defs>
  <metadata
     id="metadata5458">
    <rdf:RDF>
      <cc:Work
         rdf:about="">
        <dc:format>image/svg+xml</dc:format>
        <dc:type
           rdf:resource="http://purl.org/dc/dcmitype/StillImage" />
      </cc:Work>
    </rdf:RDF>
  </metadata>
  <g
     inkscape:label="Capa 1"
     inkscape:groupmode="layer"
     id="layer1"
     transform="translate(-384.57143,-483.798)">
    <rect
       style="fill:#626f9d;fill-opacity:0.2;stroke:none;stroke-width:1.26075"
       id="center-3"
       width="60.099998"
       height="42"
       x="386.57144"
       y="497.79797"
       ry="3.9999959"
       rx="4.0066781" />
    <path
       d="m 442.73835,495.80768 h -29.32672 c -0.64817,0 -1.21496,-0.33361 -1.62011,-0.91817 l -2.1875,-3.33839 c -0.72899,-1.16852 -1.94446,-1.75312 -3.24023,-1.75312 h -14.98741 c -3.72689,0 -6.80495,3.17192 -6.80495,7.01111 v 38.97924 c 0,3.25524 2.59271,6.00966 5.83294,6.00966 h 25.19505 v 0 0 0 0 0 0 0 h 1.94402 v 0 0 0 0 0 0 0 0 0 h 25.19505 c 3.15951,0 5.83294,-2.67126 5.83294,-6.00966 v -33.9712 c 0,-3.33839 -2.59213,-6.00905 -5.83294,-6.00905 z m -25.19491,45.99033 v 0 h -1.94402 v 0 0 z m 29.08353,-6.00947 c 0,2.16999 -1.70156,4.00628 -3.88848,4.00628 h -52.33441 c -2.1062,0 -3.88848,-1.83629 -3.88848,-4.00628 l -5.8e-4,-13.43824 v -7.59568 c 0,-2.17001 1.78229,-4.00628 3.88848,-4.00628 h 29.32671 c 1.29634,0 2.51126,-0.66782 3.24024,-1.75312 l 2.10619,-3.33839 c 0.40518,-0.50072 0.97198,-0.91818 1.62012,-0.91818 h 15.06842 c 2.67343,0 4.86107,2.25378 4.86107,5.00835 v 10.93407 z m -4.86107,-32.9696 h -15.06842 c -1.29634,0 -2.51126,0.66781 -3.24023,1.75311 l -2.1062,3.3384 c -0.3238,0.58455 -0.97198,0.91816 -1.62011,0.91816 h -29.32651 c -1.45794,0 -2.83331,0.16967 -3.889,1.70239 v -8.733 c 0,-2 2.05601,-4 4.05601,-4 h 16.00001 l 0.0429,0.0464 2.9571,-0.0464 3.92107,0.0125 h 29.32672 c 2.10619,0 3.88848,1.83628 3.88848,4.00629 v 3.08814 c -1.29578,-1.33503 -2.99676,-2.08609 -4.94122,-2.08609 z"
       id="path64"
       sodipodi:nodetypes="csccsssssccccccccccccccccccsssccccccccccssccsssccssscccsccscccccccssscc"
       style="fill:url(#linearGradient2232);fill-opacity:1;stroke-width:0.146841" />
    <path
       fill-rule="evenodd"
       clip-rule="evenodd"
       d="m 441.84036,522.82285 c 0.011,0 0.0205,-0.006 0.0319,-0.007 1.51425,0.14977 2.69968,1.42749 2.69968,2.98239 0,1.55803 -1.18688,2.83834 -2.70704,2.98552 -0.002,0.007 -0.007,0.0132 -0.01,0.0205 -0.011,-7.5e-4 -0.0198,-0.007 -0.0319,-0.007 -0.38222,0 -0.80813,0.0681 -0.96634,0.45038 -0.1582,0.38306 0.0659,0.71705 0.35888,1.00927 0.0103,0.0103 0.0238,0.0146 0.0348,0.0234 0.95794,1.17774 0.90371,2.90481 -0.19411,4.00272 -1.09678,1.09711 -2.82531,1.1528 -4.00342,0.19556 -0.0176,0.01 -0.0366,0.0132 -0.0542,0.0212 -0.008,-0.01 -0.011,-0.0205 -0.0198,-0.03 -0.27136,-0.27028 -0.61889,-0.52369 -1.00158,-0.36403 -0.38335,0.1582 -0.45952,0.55224 -0.45952,0.96675 0,0.0374 0.0103,0.0711 0.0224,0.10472 -0.18858,1.47655 -1.44067,2.62059 -2.96889,2.62059 -1.55565,0 -2.83407,-1.18435 -2.98534,-2.70043 -0.0165,-0.006 -0.0308,-0.0154 -0.0476,-0.0212 7.5e-4,-0.007 0.004,-0.0139 0.004,-0.0212 0,-0.38227 -0.0677,-0.8071 -0.45009,-0.9653 -0.38269,-0.15896 -0.71705,0.0659 -1.0096,0.35887 -0.0176,0.0176 -0.0263,0.0396 -0.0388,0.0601 -1.17666,0.92133 -2.87514,0.85763 -3.95762,-0.22556 -1.09937,-1.09937 -1.15323,-2.83009 -0.19079,-4.00858 -0.0103,-0.0205 -0.0158,-0.0425 -0.0245,-0.0644 0.27028,-0.27028 0.52256,-0.61819 0.36403,-1.0005 -0.15895,-0.38227 -0.55369,-0.45994 -0.96788,-0.45994 -0.0271,0 -0.0509,0.0103 -0.0765,0.0168 -1.47544,-0.18737 -2.6191,-1.44203 -2.6191,-2.96857 0,-1.5615 1.19241,-2.84213 2.71651,-2.98534 0.004,-0.0135 0.0125,-0.0256 0.0183,-0.0388 0.37683,-0.003 0.78881,-0.074 0.94411,-0.44972 0.15821,-0.38161 -0.0645,-0.7141 -0.35667,-1.00632 -0.95986,-1.17699 -0.906,-2.90626 0.19261,-4.00487 1.1026,-1.1034 2.84396,-1.1543 4.02208,-0.17981 0.0124,-0.006 0.0252,-0.009 0.0381,-0.0143 0.26808,0.26405 0.60938,0.50353 0.984,0.34866 0.38269,-0.15858 0.45961,-0.55369 0.45961,-0.96755 0,-10e-4 -7.5e-4,-0.002 -7.5e-4,-0.004 0.15193,-1.51501 1.42707,-2.69786 2.98197,-2.69786 1.56408,0 2.84621,1.19607 2.98609,2.72312 0.003,10e-4 0.005,0.004 0.008,0.004 0,0.0897 0.005,0.18202 0.0161,0.27244 h -0.0106 c 0,0.41381 -0.33544,0.75038 -0.75,0.75038 -0.41344,0 -0.74926,-0.33657 -0.74926,-0.75038 0,-0.82875 -0.672,-1.50001 -1.50038,-1.50001 -0.82875,0 -1.5,0.67126 -1.5,1.50001 v 0.75038 l -0.005,0.006 c 0.0136,0.49584 -0.30174,0.95873 -0.79941,1.10667 -0.0121,0.004 -0.0249,0.004 -0.0366,0.007 l -0.009,0.0117 c -0.35084,0.11794 -0.69144,0.25857 -1.01811,0.42408 l -0.0216,-0.003 c -0.0128,0.007 -0.0231,0.0172 -0.0359,0.0245 -0.48525,0.26259 -1.077,0.13111 -1.41024,-0.28491 l -0.46767,-0.4673 c -0.58632,-0.58594 -1.53624,-0.58594 -2.12148,0 -0.58552,0.58594 -0.58552,1.53592 0,2.1211 l 0.53025,0.53063 0.003,0.0224 c 0.35082,0.34275 0.45193,0.88477 0.20691,1.3374 -0.004,0.007 -0.01,0.0117 -0.0136,0.019 l 0.004,0.0253 c -0.16331,0.32705 -0.30613,0.6676 -0.42332,1.01916 l -0.0227,0.0176 c -0.004,0.0132 -0.004,0.026 -0.008,0.0396 -0.15928,0.5354 -0.68185,0.85912 -1.21726,0.79247 h -0.6345 c -0.82875,0 -1.50033,0.672 -1.50033,1.5 0,0.82782 0.67158,1.5002 1.50033,1.5002 h 0.74925 l 0.0224,0.0168 c 0.48525,-7.5e-4 0.93455,0.31054 1.08029,0.79908 0.001,0.004 0.001,0.009 0.002,0.0132 l 0.0278,0.0205 c 0.11794,0.35081 0.25927,0.69141 0.42408,1.01803 l -0.007,0.0454 c 0.005,0.009 0.0113,0.0154 0.0161,0.0242 0.26259,0.48488 0.13111,1.07668 -0.28491,1.40991 l -0.45558,0.45629 c -0.58552,0.58519 -0.58552,1.53516 0,2.1211 0.58519,0.58519 1.53516,0.58519 2.12148,0 l 0.53062,-0.53025 0.022,-0.004 c 0.342,-0.3413 0.87811,-0.43726 1.32525,-0.19557 0.003,0.001 0.005,0.004 0.008,0.006 l 0.0483,-0.007 c 0.32705,0.16332 0.6676,0.30614 1.01916,0.42333 l 0.0301,0.0396 c 0.005,0.002 0.0106,0.002 0.0154,0.004 0.48999,0.14503 0.80086,0.59621 0.79941,1.08324 l 0.005,0.006 v 0.75066 c 0,0.82838 0.67125,1.50001 1.50001,1.50001 0.82838,0 1.50038,-0.67163 1.50038,-1.50001 v -0.75071 l 0.005,-0.006 c -10e-4,-0.48708 0.30947,-0.9375 0.79946,-1.08323 0.005,-0.002 0.0103,-0.002 0.0158,-0.004 l 0.0297,-0.0388 c 0.35081,-0.11793 0.69103,-0.25856 1.01798,-0.42408 l 0.0494,0.007 c 0.003,-0.002 0.005,-0.004 0.008,-0.006 0.44715,-0.24169 0.9833,-0.14574 1.32531,0.19556 l 0.0224,0.004 0.53062,0.53025 c 0.58519,0.58519 1.53517,0.58519 2.12148,0 0.58557,-0.58594 0.58557,-1.53591 0,-2.1211 l -0.45595,-0.45628 c -0.41602,-0.33324 -0.54713,-0.92504 -0.28454,-1.40992 0.005,-0.009 0.011,-0.0161 0.0157,-0.0242 l -0.007,-0.0498 c 0.16332,-0.32662 0.30727,-0.66281 0.42333,-1.01288 l 0.0293,-0.022 c 0.001,-0.004 0.002,-0.008 0.003,-0.0125 0.14541,-0.48853 0.59438,-0.79908 1.07958,-0.79908 l 0.022,-0.0168 h 0.75028 c 0.82875,0 1.50001,-0.67237 1.50001,-1.50019 0,-0.828 -0.67126,-1.5 -1.50001,-1.5 h -0.63492 c -0.53616,0.0666 -1.05798,-0.25707 -1.21693,-0.79248 -0.004,-0.0135 -0.005,-0.0271 -0.008,-0.0406 l -0.0224,-0.0165 c -0.1176,-0.35081 -0.2593,-0.6914 -0.42374,-1.01733 l 0.004,-0.0263 c -0.004,-0.007 -0.01,-0.0128 -0.0136,-0.0198 -0.24502,-0.45263 -0.14391,-0.99465 0.20653,-1.3374 l 0.003,-0.0224 0.53063,-0.53062 c 0.58556,-0.58519 0.58556,-1.53517 0,-2.12111 -0.27835,-0.27754 -0.68555,-0.43612 -1.04991,-0.45042 -0.41457,0 -0.75038,-0.33544 -0.75038,-0.75 0,-0.41457 0.33581,-0.75001 0.75038,-0.75001 0.0538,0 0.10584,0.005 0.15675,0.0165 0.70533,0.0461 1.41652,0.33582 1.95338,0.87343 1.10185,1.10157 1.15421,2.83885 0.1846,4.01697 0.004,0.007 0.005,0.0157 0.009,0.0231 -0.004,0.003 -0.008,0.004 -0.0117,0.008 -0.27061,0.27099 -0.52369,0.61889 -0.36512,1.00233 0.15807,0.38265 0.55318,0.45957 0.96695,0.45957 z m -5.14338,-3.77491 c -0.41457,0 -0.75001,-0.33619 -0.75001,-0.75037 0,-0.41344 0.33544,-0.74926 0.75001,-0.74926 0.41344,0 0.74925,0.33582 0.74925,0.74926 0,0.41418 -0.33581,0.75037 -0.74925,0.75037 z m -6.75026,8.62518 c 0.41456,0 0.75037,0.33544 0.75037,0.75 0,0.41456 -0.33581,0.74996 -0.75037,0.74996 -0.41419,0 -0.75001,-0.3354 -0.75001,-0.74996 0,-0.41456 0.33582,-0.75 0.75001,-0.75 z m -1.87459,-1.8752 c 0,-2.48508 2.01484,-4.49997 4.49955,-4.49997 2.48513,0 4.49992,2.01489 4.49992,4.49997 0,2.48532 -2.01479,4.50016 -4.49992,4.50016 -0.41419,0 -0.75,-0.33619 -0.75,-0.75 0,-0.41382 0.33581,-0.75071 0.75,-0.75071 1.65713,0 2.99964,-1.34255 2.99964,-2.99945 0,-1.65671 -1.34256,-2.99963 -2.99964,-2.99963 -1.65671,0 -3.00034,1.34288 -3.00034,2.99963 0,0.41476 -0.33581,0.75019 -0.74925,0.75019 -0.41457,0 -0.74996,-0.33543 -0.74996,-0.75019 z"
       id="path2-5"
       style="fill:url(#linearGradient1197);fill-opacity:1.0;stroke-width:0.0468752" />
  </g>
</svg>
