<?xml version="1.0" encoding="UTF-8" standalone="no"?>
<svg
   width="64"
   version="1.1"
   height="64"
   id="svg17"
   sodipodi:docname="folder-chart.svg"
   inkscape:version="1.1.1 (3bf5ae0d25, 2021-09-20)"
   xmlns:inkscape="http://www.inkscape.org/namespaces/inkscape"
   xmlns:sodipodi="http://sodipodi.sourceforge.net/DTD/sodipodi-0.dtd"
   xmlns:xlink="http://www.w3.org/1999/xlink"
   xmlns="http://www.w3.org/2000/svg"
   xmlns:svg="http://www.w3.org/2000/svg"
   xmlns:rdf="http://www.w3.org/1999/02/22-rdf-syntax-ns#"
   xmlns:cc="http://creativecommons.org/ns#"
   xmlns:dc="http://purl.org/dc/elements/1.1/">
  <sodipodi:namedview
     pagecolor="#ffffff"
     bordercolor="#666666"
     borderopacity="1"
     objecttolerance="10"
     gridtolerance="10"
     guidetolerance="10"
     inkscape:pageopacity="0"
     inkscape:pageshadow="2"
     inkscape:window-width="1920"
     inkscape:window-height="1007"
     id="namedview19"
     showgrid="true"
     inkscape:zoom="9.8125003"
     inkscape:cx="35.363056"
     inkscape:cy="27.668789"
     inkscape:window-x="0"
     inkscape:window-y="0"
     inkscape:window-maximized="1"
     inkscape:current-layer="layer1"
     inkscape:document-rotation="0"
     inkscape:pagecheckerboard="0">
    <inkscape:grid
       type="xygrid"
       id="grid941" />
  </sodipodi:namedview>
  <defs
     id="defs5455">
    <linearGradient
       inkscape:collect="always"
       xlink:href="#linearGradient2230"
       id="linearGradient2232"
       x1="384.57144"
       y1="515.79797"
       x2="448.57144"
       y2="515.79797"
       gradientUnits="userSpaceOnUse"
       gradientTransform="translate(-2e-5)" />
    <linearGradient
       inkscape:collect="always"
       id="linearGradient2230">
      <stop
         style="stop-color:#4e99ca;stop-opacity:0.80000001"
         offset="0"
         id="stop2226" />
      <stop
         style="stop-color:#20ffff;stop-opacity:0.80000001"
         offset="0.50507295"
         id="stop2332" />
      <stop
         style="stop-color:#ffaeff;stop-opacity:0.69"
         offset="1"
         id="stop2228" />
    </linearGradient>
    <linearGradient
       inkscape:collect="always"
       xlink:href="#linearGradient2230"
       id="linearGradient1018"
       gradientUnits="userSpaceOnUse"
       gradientTransform="translate(14.7,5)"
       x1="403.87143"
       y1="520.79797"
       x2="429.47144"
       y2="520.79797" />
  </defs>
  <metadata
     id="metadata5458">
    <rdf:RDF>
      <cc:Work
         rdf:about="">
        <dc:format>image/svg+xml</dc:format>
        <dc:type
           rdf:resource="http://purl.org/dc/dcmitype/StillImage" />
      </cc:Work>
    </rdf:RDF>
  </metadata>
  <g
     inkscape:label="Capa 1"
     inkscape:groupmode="layer"
     id="layer1"
     transform="translate(-384.57143,-483.798)">
    <g
       inkscape:label="Capa 1"
       id="layer1-9" />
    <rect
       style="fill:#626f9d;fill-opacity:0.2;stroke:none;stroke-width:1.26075"
       id="center-3"
       width="60.099998"
       height="42"
       x="386.57141"
       y="497.798"
       ry="3.9999959"
       rx="4.0066781" />
    <path
       d="m 442.73833,495.80768 h -29.32672 c -0.64817,0 -1.21496,-0.33361 -1.62011,-0.91817 l -2.1875,-3.33839 c -0.72899,-1.16852 -1.94446,-1.75312 -3.24023,-1.75312 h -14.98741 c -3.72689,0 -6.80495,3.17192 -6.80495,7.01111 v 38.97924 c 0,3.25524 2.59271,6.00966 5.83294,6.00966 h 25.19505 v 0 0 0 0 0 0 0 h 1.94402 v 0 0 0 0 0 0 0 0 0 h 25.19505 c 3.15951,0 5.83294,-2.67126 5.83294,-6.00966 v -33.9712 c 0,-3.33839 -2.59213,-6.00905 -5.83294,-6.00905 z m -25.19491,45.99033 v 0 h -1.94402 v 0 0 z m 29.08353,-6.00947 c 0,2.16999 -1.70156,4.00628 -3.88848,4.00628 h -52.33441 c -2.1062,0 -3.88848,-1.83629 -3.88848,-4.00628 L 386.515,522.3503 v -7.59568 c 0,-2.17001 1.78229,-4.00628 3.88848,-4.00628 h 29.32671 c 1.29634,0 2.51126,-0.66782 3.24024,-1.75312 l 2.10619,-3.33839 c 0.40518,-0.50072 0.97198,-0.91818 1.62012,-0.91818 h 15.06842 c 2.67343,0 4.86107,2.25378 4.86107,5.00835 v 10.93407 z m -4.86107,-32.9696 h -15.06842 c -1.29634,0 -2.51126,0.66781 -3.24023,1.75311 l -2.1062,3.3384 c -0.3238,0.58455 -0.97198,0.91816 -1.62011,0.91816 h -29.32651 c -1.45794,0 -2.83331,0.16967 -3.889,1.70239 v -8.733 c 0,-2 2.05601,-4 4.05601,-4 h 16.00001 l 0.0429,0.0464 2.9571,-0.0464 3.92107,0.0125 h 29.32672 c 2.10619,0 3.88848,1.83628 3.88848,4.00629 v 3.08814 c -1.29578,-1.33503 -2.99676,-2.08609 -4.94122,-2.08609 z"
       id="path64"
       sodipodi:nodetypes="csccsssssccccccccccccccccccsssccccccccccssccsssccssscccsccscccccccssscc"
       style="fill:url(#linearGradient2232);fill-opacity:1;stroke-width:0.146841" />
    <path
       d="m 443.37143,532.998 c -0.4418,0 -0.8,-0.3582 -0.8,-0.8 v -12.8 c 0,-0.4418 -0.3582,-0.8 -0.8,-0.8 h -1.6 c -0.4418,0 -0.8,0.3582 -0.8,0.8 v 16.4 c 0,1.1047 -0.8953,2 -2,2 h -0.8 c -1.1047,0 -2,-0.8953 -2,-2 v -8.4 c 0,-0.4418 -0.3582,-0.8 -0.8,-0.8 h -1.6 c -0.4418,0 -0.8,0.3582 -0.8,0.8 v 8.4 c 0,1.1047 -0.8953,2 -2,2 h -0.8 c -1.1047,0 -2,-0.8953 -2,-2 v -5.2 c 0,-0.4418 -0.3582,-0.8 -0.8,-0.8 h -1.6 c -0.4418,0 -0.8,0.3582 -0.8,0.8 v 5.6 c 0,0.8836 -0.71645,1.6 -1.6,1.6 -1.7672,0 -3.2,-1.4328 -3.2,-3.2 v -14.4 -5.6 c 0,-0.4418 0.3582,-0.8 0.8,-0.8 0.4418,0 0.8,0.3582 0.8,0.8 v 2.83165 2.76835 14.4 c 0,0.8836 0.6164,1.6 1.2,1.6 0.2211,0 0.4,-0.1789 0.4,-0.4 v -5.6 c 0,-1.1047 0.8953,-2 2,-2 h 2.4 c 1.1047,0 2,0.8953 2,2 v 5.2 c 0,0.4418 0.3582,0.8 0.8,0.8 0.4418,0 0.8,-0.3582 0.8,-0.8 v -8.4 c 0,-1.1047 0.8953,-2 2,-2 h 2.4 c 1.1047,0 2,0.8953 2,2 v 8.4 c 0,0.4418 0.3582,0.8 0.8,0.8 0.4418,0 0.8,-0.3582 0.8,-0.8 v -16.4 c 0,-1.1047 0.8953,-2 2,-2 h 2.4 c 1.1047,0 2,0.8953 2,2 v 13.2 c 0,0.4418 -0.3582,0.8 -0.8,0.8 z m 0,1.6 c 0.4418,0 0.8,0.3582 0.8,0.8 0,0.4418 -0.3582,0.8 -0.8,0.8 -0.4418,0 -0.8,-0.3582 -0.8,-0.8 0,-0.4418 0.3582,-0.8 0.8,-0.8 z"
       id="path2-7"
       style="fill:url(#linearGradient1018);fill-opacity:1;stroke-width:0.05" />
  </g>
</svg>
