<?xml version="1.0" encoding="UTF-8" standalone="no"?>
<svg
   width="64"
   version="1.1"
   height="64"
   id="svg15"
   sodipodi:docname="folder-presentation.svg"
   inkscape:version="1.1.1 (3bf5ae0d25, 2021-09-20)"
   xmlns:inkscape="http://www.inkscape.org/namespaces/inkscape"
   xmlns:sodipodi="http://sodipodi.sourceforge.net/DTD/sodipodi-0.dtd"
   xmlns:xlink="http://www.w3.org/1999/xlink"
   xmlns="http://www.w3.org/2000/svg"
   xmlns:svg="http://www.w3.org/2000/svg"
   xmlns:rdf="http://www.w3.org/1999/02/22-rdf-syntax-ns#"
   xmlns:cc="http://creativecommons.org/ns#"
   xmlns:dc="http://purl.org/dc/elements/1.1/">
  <sodipodi:namedview
     pagecolor="#ffffff"
     bordercolor="#666666"
     borderopacity="1"
     objecttolerance="10"
     gridtolerance="10"
     guidetolerance="10"
     inkscape:pageopacity="0"
     inkscape:pageshadow="2"
     inkscape:window-width="1920"
     inkscape:window-height="1007"
     id="namedview17"
     showgrid="true"
     inkscape:zoom="9.8125"
     inkscape:cx="34.343949"
     inkscape:cy="31.949045"
     inkscape:window-x="0"
     inkscape:window-y="0"
     inkscape:window-maximized="1"
     inkscape:current-layer="layer1"
     inkscape:document-rotation="0"
     inkscape:pagecheckerboard="0">
    <inkscape:grid
       type="xygrid"
       id="grid850" />
  </sodipodi:namedview>
  <defs
     id="defs5455">
    <linearGradient
       inkscape:collect="always"
       xlink:href="#linearGradient2230"
       id="linearGradient2232"
       x1="384.57144"
       y1="515.79797"
       x2="448.57144"
       y2="515.79797"
       gradientUnits="userSpaceOnUse"
       gradientTransform="translate(-1.8e-5)" />
    <linearGradient
       inkscape:collect="always"
       id="linearGradient2230">
      <stop
         style="stop-color:#4e99ca;stop-opacity:0.80000001"
         offset="0"
         id="stop2226" />
      <stop
         style="stop-color:#20ffff;stop-opacity:0.80000001"
         offset="0.50507295"
         id="stop2332" />
      <stop
         style="stop-color:#ffaeff;stop-opacity:0.69"
         offset="1"
         id="stop2228" />
    </linearGradient>
    <linearGradient
       inkscape:collect="always"
       xlink:href="#linearGradient2230"
       id="linearGradient1063"
       gradientUnits="userSpaceOnUse"
       gradientTransform="translate(15.986,4.985)"
       x1="404.58542"
       y1="520.81299"
       x2="428.58542"
       y2="520.81299" />
    <linearGradient
       inkscape:collect="always"
       xlink:href="#linearGradient2230"
       id="linearGradient1065"
       gradientUnits="userSpaceOnUse"
       gradientTransform="translate(15.986,4.985)"
       x1="410.23141"
       y1="520.77289"
       x2="423.03143"
       y2="520.77289" />
  </defs>
  <metadata
     id="metadata5458">
    <rdf:RDF>
      <cc:Work
         rdf:about="">
        <dc:format>image/svg+xml</dc:format>
        <dc:type
           rdf:resource="http://purl.org/dc/dcmitype/StillImage" />
      </cc:Work>
    </rdf:RDF>
  </metadata>
  <g
     inkscape:label="Capa 1"
     inkscape:groupmode="layer"
     id="layer1"
     transform="translate(-384.57143,-483.798)">
    <rect
       style="fill:#626f9d;fill-opacity:0.2;stroke:none;stroke-width:1.26075"
       id="center-3"
       width="60.099998"
       height="42"
       x="386.57138"
       y="497.79794"
       ry="3.9999959"
       rx="4.0066781" />
    <path
       d="m 442.73833,495.80768 h -29.32672 c -0.64817,0 -1.21496,-0.33361 -1.62011,-0.91817 l -2.1875,-3.33839 c -0.72899,-1.16852 -1.94446,-1.75312 -3.24023,-1.75312 h -14.98741 c -3.72689,0 -6.80495,3.17192 -6.80495,7.01111 v 38.97924 c 0,3.25524 2.59271,6.00966 5.83294,6.00966 h 25.19505 v 0 0 0 0 0 0 0 h 1.94402 v 0 0 0 0 0 0 0 0 0 h 25.19505 c 3.15951,0 5.83294,-2.67126 5.83294,-6.00966 v -33.9712 c 0,-3.33839 -2.59213,-6.00905 -5.83294,-6.00905 z m -25.19491,45.99033 v 0 h -1.94402 v 0 0 z m 29.08353,-6.00947 c 0,2.16999 -1.70156,4.00628 -3.88848,4.00628 h -52.33441 c -2.1062,0 -3.88848,-1.83629 -3.88848,-4.00628 L 386.515,522.3503 v -7.59568 c 0,-2.17001 1.78229,-4.00628 3.88848,-4.00628 h 29.32671 c 1.29634,0 2.51126,-0.66782 3.24024,-1.75312 l 2.10619,-3.33839 c 0.40518,-0.50072 0.97198,-0.91818 1.62012,-0.91818 h 15.06842 c 2.67343,0 4.86107,2.25378 4.86107,5.00835 v 10.93407 z m -4.86107,-32.9696 h -15.06842 c -1.29634,0 -2.51126,0.66781 -3.24023,1.75311 l -2.1062,3.3384 c -0.3238,0.58455 -0.97198,0.91816 -1.62011,0.91816 h -29.32651 c -1.45794,0 -2.83331,0.16967 -3.889,1.70239 v -8.733 c 0,-2 2.05601,-4 4.05601,-4 h 16.00001 l 0.0429,0.0464 2.9571,-0.0464 3.92107,0.0125 h 29.32672 c 2.10619,0 3.88848,1.83628 3.88848,4.00629 v 3.08814 c -1.29578,-1.33503 -2.99676,-2.08609 -4.94122,-2.08609 z"
       id="path64"
       sodipodi:nodetypes="csccsssssccccccccccccccccccsssccccccccccssccsssccssscccsccscccccccssscc"
       style="fill:url(#linearGradient2232);fill-opacity:1;stroke-width:0.146841" />
    <path
       fill-rule="evenodd"
       clip-rule="evenodd"
       d="m 441.14372,537.798 h -12.858 c -0.47272,0 -0.85629,-0.38464 -0.85629,-0.85714 0,-0.47379 0.38357,-0.85757 0.85629,-0.85757 h 12.858 c 0.94671,0 1.71428,-0.76758 1.71428,-1.71429 v -17.14286 c 0,-0.94671 -0.76757,-1.71385 -1.71428,-1.71385 h -17.14329 c -0.9465,0 -1.7145,0.76714 -1.7145,1.71385 v 16.28572 c 0,0.47378 -0.38336,0.85714 -0.85714,0.85714 -0.47293,0 -0.85736,-0.38336 -0.85736,-0.85714 v -16.28572 c 0,-1.89343 1.53579,-3.42814 3.429,-3.42814 h 17.14329 c 1.893,0 3.42771,1.53471 3.42771,3.42814 V 534.369 c 0,1.89343 -1.53471,3.429 -3.42771,3.429 z m -16.28593,-1.71471 c 0.47271,0 0.85714,0.38378 0.85714,0.85757 0,0.4725 -0.38443,0.85714 -0.85714,0.85714 -0.47379,0 -0.85736,-0.38464 -0.85736,-0.85714 0,-0.47379 0.38357,-0.85757 0.85736,-0.85757 z"
       id="path2-5"
       style="fill:url(#linearGradient1063);fill-opacity:1.0;stroke-width:0.0535714" />
    <path
       fill-rule="evenodd"
       clip-rule="evenodd"
       d="m 438.61743,529.35786 c -0.2209,0 -0.4,-0.1791 -0.4,-0.4 v -6.4 c 0,-0.2209 -0.1791,-0.4 -0.4,-0.4 h -0.8 c -0.2209,0 -0.4,0.1791 -0.4,0.4 v 8.2 c 0,0.55235 -0.44765,1 -1,1 h -0.4 c -0.55235,0 -1,-0.44765 -1,-1 v -4.2 c 0,-0.2209 -0.1791,-0.4 -0.4,-0.4 h -0.8 c -0.2209,0 -0.4,0.1791 -0.4,0.4 v 4.2 c 0,0.55235 -0.44765,1 -1,1 h -0.4 c -0.55235,0 -1,-0.44765 -1,-1 v -2.6 c 0,-0.2209 -0.1791,-0.4 -0.4,-0.4 h -0.8 c -0.2209,0 -0.4,0.1791 -0.4,0.4 v 2.8 c 0,0.4418 -0.35822,0.8 -0.8,0.8 -0.8836,0 -1.6,-0.7164 -1.6,-1.6 v -7.2 -2.8 c 0,-0.2209 0.1791,-0.4 0.4,-0.4 0.2209,0 0.4,0.1791 0.4,0.4 v 1.41583 1.38417 7.2 c 0,0.4418 0.3082,0.8 0.6,0.8 0.11055,0 0.2,-0.0894 0.2,-0.2 v -2.8 c 0,-0.55235 0.44765,-1 1,-1 h 1.2 c 0.55235,0 1,0.44765 1,1 v 2.6 c 0,0.2209 0.1791,0.4 0.4,0.4 0.2209,0 0.4,-0.1791 0.4,-0.4 v -4.2 c 0,-0.55235 0.44765,-1 1,-1 h 1.2 c 0.55235,0 1,0.44765 1,1 v 4.2 c 0,0.2209 0.1791,0.4 0.4,0.4 0.2209,0 0.4,-0.1791 0.4,-0.4 v -8.2 c 0,-0.55235 0.44765,-1 1,-1 h 1.2 c 0.55235,0 1,0.44765 1,1 v 6.6 c 0,0.2209 -0.1791,0.4 -0.4,0.4 z m 0,0.8 c 0.2209,0 0.4,0.1791 0.4,0.4 0,0.2209 -0.1791,0.4 -0.4,0.4 -0.2209,0 -0.4,-0.1791 -0.4,-0.4 0,-0.2209 0.1791,-0.4 0.4,-0.4 z"
       id="path2-3-3-3"
       style="fill:url(#linearGradient1065);fill-opacity:1.0;stroke-width:0.025" />
  </g>
</svg>
