<?xml version="1.0" encoding="UTF-8" standalone="no"?>
<svg
   width="64"
   version="1.1"
   height="64"
   id="svg15"
   sodipodi:docname="folder-cloud.svg"
   inkscape:version="1.1.1 (3bf5ae0d25, 2021-09-20)"
   xmlns:inkscape="http://www.inkscape.org/namespaces/inkscape"
   xmlns:sodipodi="http://sodipodi.sourceforge.net/DTD/sodipodi-0.dtd"
   xmlns:xlink="http://www.w3.org/1999/xlink"
   xmlns="http://www.w3.org/2000/svg"
   xmlns:svg="http://www.w3.org/2000/svg"
   xmlns:rdf="http://www.w3.org/1999/02/22-rdf-syntax-ns#"
   xmlns:cc="http://creativecommons.org/ns#"
   xmlns:dc="http://purl.org/dc/elements/1.1/">
  <sodipodi:namedview
     pagecolor="#ffffff"
     bordercolor="#666666"
     borderopacity="1"
     objecttolerance="10"
     gridtolerance="10"
     guidetolerance="10"
     inkscape:pageopacity="0"
     inkscape:pageshadow="2"
     inkscape:window-width="1920"
     inkscape:window-height="1007"
     id="namedview17"
     showgrid="true"
     inkscape:zoom="9.8125004"
     inkscape:cx="24.866241"
     inkscape:cy="34.904457"
     inkscape:window-x="0"
     inkscape:window-y="0"
     inkscape:window-maximized="1"
     inkscape:current-layer="layer1"
     inkscape:document-rotation="0"
     inkscape:pagecheckerboard="0">
    <inkscape:grid
       type="xygrid"
       id="grid850" />
  </sodipodi:namedview>
  <defs
     id="defs5455">
    <linearGradient
       inkscape:collect="always"
       id="linearGradient953">
      <stop
         style="stop-color:#96cdfb;stop-opacity:0.80000001"
         offset="0"
         id="stop947" />
      <stop
         style="stop-color:#55ddff;stop-opacity:1"
         offset="0.50507295"
         id="stop949" />
      <stop
         style="stop-color:#ffaeff;stop-opacity:0.69"
         offset="1"
         id="stop951" />
    </linearGradient>
    <linearGradient
       inkscape:collect="always"
       id="linearGradient1061">
      <stop
         style="stop-color:#e8a2af;stop-opacity:0.80000001"
         offset="0"
         id="stop1055" />
      <stop
         style="stop-color:#89dceb;stop-opacity:0.80000001"
         offset="0.50507295"
         id="stop1057" />
      <stop
         style="stop-color:#ffaeff;stop-opacity:0.69"
         offset="1"
         id="stop1059" />
    </linearGradient>
    <linearGradient
       inkscape:collect="always"
       xlink:href="#linearGradient953"
       id="linearGradient2232"
       x1="384.57143"
       y1="515.798"
       x2="448.57143"
       y2="515.798"
       gradientUnits="userSpaceOnUse" />
    <linearGradient
       inkscape:collect="always"
       xlink:href="#linearGradient953"
       id="linearGradient855"
       x1="401.04019"
       y1="520.79797"
       x2="433.10275"
       y2="520.79797"
       gradientUnits="userSpaceOnUse"
       gradientTransform="matrix(0.74853638,0,0,0.74853638,120.37827,138.96804)" />
    <linearGradient
       inkscape:collect="always"
       xlink:href="#linearGradient1061"
       id="linearGradient1355"
       x1="420.57144"
       y1="528.80402"
       x2="444.57144"
       y2="528.80402"
       gradientUnits="userSpaceOnUse" />
  </defs>
  <metadata
     id="metadata5458">
    <rdf:RDF>
      <cc:Work
         rdf:about="">
        <dc:format>image/svg+xml</dc:format>
        <dc:type
           rdf:resource="http://purl.org/dc/dcmitype/StillImage" />
      </cc:Work>
    </rdf:RDF>
  </metadata>
  <g
     inkscape:label="Capa 1"
     inkscape:groupmode="layer"
     id="layer1"
     transform="translate(-384.57143,-483.798)">
    <g
       transform="matrix(0.74351172,0,0,0.74285356,332.49565,-244.90835)"
       id="g4" />
    <rect
       style="fill:#626f9d;fill-opacity:0.2;stroke:none;stroke-width:1.26075"
       id="center-3"
       width="60.099998"
       height="42"
       x="386.57144"
       y="497.798"
       ry="3.9999959"
       rx="4.0066781" />
    <path
       d="m 442.73835,495.80768 h -29.32672 c -0.64817,0 -1.21496,-0.33361 -1.62011,-0.91817 l -2.1875,-3.33839 c -0.72899,-1.16852 -1.94446,-1.75312 -3.24023,-1.75312 h -14.98741 c -3.72689,0 -6.80495,3.17192 -6.80495,7.01111 v 38.97924 c 0,3.25524 2.59271,6.00966 5.83294,6.00966 h 25.19505 v 0 0 0 0 0 0 0 h 1.94402 v 0 0 0 0 0 0 0 0 0 h 25.19505 c 3.15951,0 5.83294,-2.67126 5.83294,-6.00966 v -33.9712 c 0,-3.33839 -2.59213,-6.00905 -5.83294,-6.00905 z m -25.19491,45.99033 v 0 h -1.94402 v 0 0 z m 29.08353,-6.00947 c 0,2.16999 -1.70156,4.00628 -3.88848,4.00628 h -52.33441 c -2.1062,0 -3.88848,-1.83629 -3.88848,-4.00628 l -5.8e-4,-13.43824 v -7.59568 c 0,-2.17001 1.78229,-4.00628 3.88848,-4.00628 h 29.32671 c 1.29634,0 2.51126,-0.66782 3.24024,-1.75312 l 2.10619,-3.33839 c 0.40518,-0.50072 0.97198,-0.91818 1.62012,-0.91818 h 15.06842 c 2.67343,0 4.86107,2.25378 4.86107,5.00835 v 10.93407 z m -4.86107,-32.9696 h -15.06842 c -1.29634,0 -2.51126,0.66781 -3.24023,1.75311 l -2.1062,3.3384 c -0.3238,0.58455 -0.97198,0.91816 -1.62011,0.91816 h -29.32651 c -1.45794,0 -2.83331,0.16967 -3.889,1.70239 v -8.733 c 0,-2 2.05601,-4 4.05601,-4 h 16.00001 l 0.0429,0.0464 2.9571,-0.0464 3.92107,0.0125 h 29.32672 c 2.10619,0 3.88848,1.83628 3.88848,4.00629 v 3.08814 c -1.29578,-1.33503 -2.99676,-2.08609 -4.94122,-2.08609 z"
       id="path64"
       sodipodi:nodetypes="csccsssssccccccccccccccccccsssccccccccccssccsssccssscccsccscccccccssscc"
       style="fill:url(#linearGradient2232);fill-opacity:1;stroke-width:0.146841" />
    <path
       d="m 431.07433,522.81589 c 0.41338,0 0.74854,0.33516 0.74854,0.74854 0,0.41338 -0.33516,0.74854 -0.74854,0.74854 -1.65352,0 -2.99414,1.34062 -2.99414,2.99414 0,0.41338 -0.33516,0.74854 -0.74854,0.74854 -0.41338,0 -0.74854,-0.33516 -0.74854,-0.74854 0,-2.48027 2.01095,-4.49122 4.49122,-4.49122 z m 8.2339,14.97073 h -13.47365 c -2.89366,0 -5.23976,-2.3461 -5.23976,-5.23975 0,-0.41338 0.33516,-0.74854 0.74854,-0.74854 0.41338,0 0.74853,0.33516 0.74853,0.74854 0,2.06689 1.67579,3.74268 3.74269,3.74268 h 13.47365 c 2.0669,0 3.74268,-1.67579 3.74268,-3.74268 0,-1.56945 -0.96968,-2.90826 -2.33992,-3.46273 0.0161,0.005 0.0314,0.006 0.0475,0.0128 -0.41155,-0.16702 -0.70175,-0.5702 -0.70175,-1.04131 0,-1.18568 -0.92215,-2.14619 -2.08664,-2.22951 -0.0457,-0.0102 -0.0976,-0.016 -0.15897,-0.016 -0.54166,0 -1.01642,-0.43313 -1.27925,-0.97478 0.006,0.012 0.003,0.0212 0.002,0.0314 -0.9349,-2.08804 -3.02299,-3.54783 -5.46013,-3.54783 -3.30703,0 -5.98829,2.68126 -5.98829,5.98829 0,1.20795 0.35967,2.33076 0.97553,3.27157 l -0.002,0.001 c 0.0928,0.12503 0.14984,0.27927 0.14984,0.44667 0,0.41338 -0.33515,0.74854 -0.74853,0.74854 -0.30044,0 -0.55701,-0.17689 -0.67616,-0.43201 -0.28581,-0.44481 -0.52815,-0.92214 -0.7171,-1.42469 -0.01,-0.0256 -0.0186,-0.0519 -0.0281,-0.0775 -0.0577,-0.15752 -0.11036,-0.31653 -0.15714,-0.47878 -0.18643,-0.65431 -0.29277,-1.34143 -0.29277,-2.05524 0,-4.13413 3.35124,-7.48537 7.48536,-7.48537 3.07092,0 5.70684,1.8516 6.86109,4.49707 1.92654,0.0632 3.48247,1.58151 3.6056,3.49267 1.776,0.83883 3.00697,2.64107 3.00697,4.73538 0,2.89365 -2.3461,5.23975 -5.23976,5.23975 z m -17.21634,-6.73683 c -0.41337,0 -0.74853,-0.33515 -0.74853,-0.74853 0,-0.41338 0.33516,-0.74854 0.74853,-0.74854 0.41338,0 0.74854,0.33516 0.74854,0.74854 0,0.41338 -0.33516,0.74853 -0.74854,0.74853 z"
       id="path2-3"
       style="fill:url(#linearGradient855);fill-opacity:1;stroke:url(#linearGradient1355);stroke-width:0.0467835;stroke-opacity:1" />
  </g>
</svg>
