<?xml version="1.0" encoding="UTF-8" standalone="no"?>
<svg
   width="64"
   version="1.1"
   height="64"
   id="svg17"
   sodipodi:docname="folder-sound.svg"
   inkscape:version="1.1.1 (3bf5ae0d25, 2021-09-20)"
   xmlns:inkscape="http://www.inkscape.org/namespaces/inkscape"
   xmlns:sodipodi="http://sodipodi.sourceforge.net/DTD/sodipodi-0.dtd"
   xmlns:xlink="http://www.w3.org/1999/xlink"
   xmlns="http://www.w3.org/2000/svg"
   xmlns:svg="http://www.w3.org/2000/svg"
   xmlns:rdf="http://www.w3.org/1999/02/22-rdf-syntax-ns#"
   xmlns:cc="http://creativecommons.org/ns#"
   xmlns:dc="http://purl.org/dc/elements/1.1/">
  <sodipodi:namedview
     pagecolor="#ffffff"
     bordercolor="#666666"
     borderopacity="1"
     objecttolerance="10"
     gridtolerance="10"
     guidetolerance="10"
     inkscape:pageopacity="0"
     inkscape:pageshadow="2"
     inkscape:window-width="1920"
     inkscape:window-height="1007"
     id="namedview19"
     showgrid="true"
     inkscape:zoom="9.8125"
     inkscape:cx="36.178344"
     inkscape:cy="40.917197"
     inkscape:window-x="0"
     inkscape:window-y="0"
     inkscape:window-maximized="1"
     inkscape:current-layer="layer1"
     inkscape:document-rotation="0"
     inkscape:pagecheckerboard="0">
    <inkscape:grid
       type="xygrid"
       id="grid945" />
  </sodipodi:namedview>
  <defs
     id="defs5455">
    <linearGradient
       inkscape:collect="always"
       id="linearGradient934">
      <stop
         style="stop-color:#ffcc00;stop-opacity:1"
         offset="0"
         id="stop930" />
      <stop
         style="stop-color:#00ffff;stop-opacity:1"
         offset="1"
         id="stop932" />
    </linearGradient>
    <linearGradient
       inkscape:collect="always"
       xlink:href="#linearGradient934"
       id="linearGradient883"
       x1="7.6999998"
       y1="50"
       x2="92.300003"
       y2="50"
       gradientUnits="userSpaceOnUse" />
    <linearGradient
       inkscape:collect="always"
       xlink:href="#linearGradient2230"
       id="linearGradient2232"
       x1="384.57144"
       y1="515.79797"
       x2="448.57144"
       y2="515.79797"
       gradientUnits="userSpaceOnUse" />
    <linearGradient
       inkscape:collect="always"
       id="linearGradient2230">
      <stop
         style="stop-color:#4e99ca;stop-opacity:0.80000001"
         offset="0"
         id="stop2226" />
      <stop
         style="stop-color:#20ffff;stop-opacity:0.80000001"
         offset="0.50507295"
         id="stop2332" />
      <stop
         style="stop-color:#ffaeff;stop-opacity:0.69"
         offset="1"
         id="stop2228" />
    </linearGradient>
    <linearGradient
       inkscape:collect="always"
       xlink:href="#linearGradient2230"
       id="linearGradient1022"
       gradientUnits="userSpaceOnUse"
       gradientTransform="translate(16,3.9999981)"
       x1="404.57144"
       y1="520.79803"
       x2="428.5715"
       y2="520.79803" />
  </defs>
  <metadata
     id="metadata5458">
    <rdf:RDF>
      <cc:Work
         rdf:about="">
        <dc:format>image/svg+xml</dc:format>
        <dc:type
           rdf:resource="http://purl.org/dc/dcmitype/StillImage" />
      </cc:Work>
    </rdf:RDF>
  </metadata>
  <g
     inkscape:label="Capa 1"
     inkscape:groupmode="layer"
     id="layer1"
     transform="translate(-384.57143,-483.798)">
    <g
       id="g4"
       transform="matrix(0.23640662,0,0,0.23640662,404.02952,507.71545)"
       style="fill:url(#linearGradient883);fill-opacity:1" />
    <rect
       style="fill:#626f9d;fill-opacity:0.2;stroke:none;stroke-width:1.26075"
       id="center-3"
       width="60.099998"
       height="42"
       x="386.57144"
       y="497.79794"
       ry="3.9999959"
       rx="4.0066781" />
    <path
       d="m 442.73835,495.80768 h -29.32672 c -0.64817,0 -1.21496,-0.33361 -1.62011,-0.91817 l -2.1875,-3.33839 c -0.72899,-1.16852 -1.94446,-1.75312 -3.24023,-1.75312 h -14.98741 c -3.72689,0 -6.80495,3.17192 -6.80495,7.01111 v 38.97924 c 0,3.25524 2.59271,6.00966 5.83294,6.00966 h 25.19505 v 0 0 0 0 0 0 0 h 1.94402 v 0 0 0 0 0 0 0 0 0 h 25.19505 c 3.15951,0 5.83294,-2.67126 5.83294,-6.00966 v -33.9712 c 0,-3.33839 -2.59213,-6.00905 -5.83294,-6.00905 z m -25.19491,45.99033 v 0 h -1.94402 v 0 0 z m 29.08353,-6.00947 c 0,2.16999 -1.70156,4.00628 -3.88848,4.00628 h -52.33441 c -2.1062,0 -3.88848,-1.83629 -3.88848,-4.00628 l -5.8e-4,-13.43824 v -7.59568 c 0,-2.17001 1.78229,-4.00628 3.88848,-4.00628 h 29.32671 c 1.29634,0 2.51126,-0.66782 3.24024,-1.75312 l 2.10619,-3.33839 c 0.40518,-0.50072 0.97198,-0.91818 1.62012,-0.91818 h 15.06842 c 2.67343,0 4.86107,2.25378 4.86107,5.00835 v 10.93407 z m -4.86107,-32.9696 h -15.06842 c -1.29634,0 -2.51126,0.66781 -3.24023,1.75311 l -2.1062,3.3384 c -0.3238,0.58455 -0.97198,0.91816 -1.62011,0.91816 h -29.32651 c -1.45794,0 -2.83331,0.16967 -3.889,1.70239 v -8.733 c 0,-2 2.05601,-4 4.05601,-4 h 16.00001 l 0.0429,0.0464 2.9571,-0.0464 3.92107,0.0125 h 29.32672 c 2.10619,0 3.88848,1.83628 3.88848,4.00629 v 3.08814 c -1.29578,-1.33503 -2.99676,-2.08609 -4.94122,-2.08609 z"
       id="path64"
       sodipodi:nodetypes="csccsssssccccccccccccccccccsssccccccccccssccsssccssscccsccscccccccssscc"
       style="fill:url(#linearGradient2232);fill-opacity:1;stroke-width:0.146841" />
    <path
       d="m 440.07107,535.29804 c -2.48513,0 -4.49926,-2.0138 -4.49926,-4.49925 0,-2.48518 2.01418,-4.50005 4.49926,-4.50005 0.41456,0 0.75075,0.33506 0.75075,0.74925 0,0.41456 -0.33619,0.75075 -0.75075,0.75075 -1.65638,0 -3.00001,1.34254 -3.00001,3.00005 0,1.65637 1.34363,2.99925 3.00001,2.99925 1.6575,0 3.00037,-1.34288 3.00037,-2.99925 v -3.34684 -1.52821 -3.37594 c 0,-0.41344 0.33582,-0.74968 0.75038,-0.74968 0.41419,0 0.74962,0.33619 0.74962,0.74968 v 8.25099 c 0,2.48545 -2.01487,4.49925 -4.50037,4.49925 z m 2.43825,-14.52746 -12.19192,2.45437 c -0.42698,0.0897 -0.74559,0.46472 -0.74559,0.91664 v 8.15724 c 0,2.48541 -2.01492,4.49921 -4.50038,4.49921 -2.48512,0 -4.5,-2.0138 -4.5,-4.49925 0,-1.24219 0.50428,-2.36724 1.31836,-3.18169 l 0.003,0.003 c 0.13514,-0.13622 0.32372,-0.22008 0.53025,-0.22008 0.41456,0 0.75075,0.33619 0.75075,0.75037 0,0.21643 -0.0937,0.41054 -0.24169,0.5475 -0.53137,0.54019 -0.86058,1.28213 -0.86058,2.10099 0,1.6567 1.34363,2.99925 3.00001,2.99925 1.65675,0 3.00037,-1.34255 3.00037,-2.99925 v -3.34683 -1.15322 -3.57516 c 0,-1.18139 0.8401,-2.16651 1.95666,-2.38955 l 10e-4,-10e-4 0.25013,-0.0531 c 0.0146,-0.002 0.0271,-0.002 0.0418,-0.005 l 12.00038,-2.57813 c 0.41419,-0.0908 0.74962,-0.50025 0.74962,-0.91481 v -3.37463 c 0,-0.41456 -0.33543,-0.6764 -0.74962,-0.58631 l -12.00038,2.57888 c -0.41457,0.0897 -0.74963,0.4995 -0.74963,0.91369 v 1.73475 c 0,0.41344 -0.33619,0.74962 -0.75075,0.74962 -0.41419,0 -0.74925,-0.33618 -0.74925,-0.74962 v -1.81861 c 0,-1.09463 0.9232,-2.16764 2.06213,-2.39761 l 12.37538,-2.49094 c 1.13855,-0.22889 2.06212,0.4724 2.06212,1.56773 v 3.9639 c 0,1.09532 -0.92357,2.16872 -2.06212,2.39761 z m -17.43789,8.52816 c -0.41419,0 -0.75037,-0.33619 -0.75037,-0.75038 0,-0.41456 0.33618,-0.74962 0.75037,-0.74962 0.41457,0 0.74963,0.33506 0.74963,0.74962 0,0.41419 -0.33506,0.75038 -0.74963,0.75038 z"
       id="path2-7"
       style="fill:url(#linearGradient1022);fill-opacity:1.0;stroke-width:0.046875" />
  </g>
</svg>
