<?xml version="1.0" encoding="UTF-8" standalone="no"?>
<svg
   width="64"
   version="1.1"
   height="64"
   id="svg17"
   sodipodi:docname="folder-mail.svg"
   inkscape:version="1.1.1 (3bf5ae0d25, 2021-09-20)"
   xmlns:inkscape="http://www.inkscape.org/namespaces/inkscape"
   xmlns:sodipodi="http://sodipodi.sourceforge.net/DTD/sodipodi-0.dtd"
   xmlns:xlink="http://www.w3.org/1999/xlink"
   xmlns="http://www.w3.org/2000/svg"
   xmlns:svg="http://www.w3.org/2000/svg"
   xmlns:rdf="http://www.w3.org/1999/02/22-rdf-syntax-ns#"
   xmlns:cc="http://creativecommons.org/ns#"
   xmlns:dc="http://purl.org/dc/elements/1.1/">
  <sodipodi:namedview
     pagecolor="#ffffff"
     bordercolor="#666666"
     borderopacity="1"
     objecttolerance="10"
     gridtolerance="10"
     guidetolerance="10"
     inkscape:pageopacity="0"
     inkscape:pageshadow="2"
     inkscape:window-width="1920"
     inkscape:window-height="1007"
     id="namedview19"
     showgrid="true"
     inkscape:zoom="9.8125"
     inkscape:cx="23.949045"
     inkscape:cy="32.254777"
     inkscape:window-x="0"
     inkscape:window-y="0"
     inkscape:window-maximized="1"
     inkscape:current-layer="layer1"
     inkscape:document-rotation="0"
     inkscape:pagecheckerboard="0">
    <inkscape:grid
       type="xygrid"
       id="grid969" />
  </sodipodi:namedview>
  <defs
     id="defs5455">
    <linearGradient
       inkscape:collect="always"
       xlink:href="#linearGradient2230"
       id="linearGradient2232"
       x1="384.57144"
       y1="515.79797"
       x2="448.57144"
       y2="515.79797"
       gradientUnits="userSpaceOnUse" />
    <linearGradient
       inkscape:collect="always"
       id="linearGradient2230">
      <stop
         style="stop-color:#4e99ca;stop-opacity:0.80000001"
         offset="0"
         id="stop2226" />
      <stop
         style="stop-color:#20ffff;stop-opacity:0.80000001"
         offset="0.50507295"
         id="stop2332" />
      <stop
         style="stop-color:#ffaeff;stop-opacity:0.69"
         offset="1"
         id="stop2228" />
    </linearGradient>
    <linearGradient
       inkscape:collect="always"
       xlink:href="#linearGradient2230"
       id="linearGradient961"
       gradientUnits="userSpaceOnUse"
       x1="401.97144"
       y1="520.79797"
       x2="431.50919"
       y2="520.79797"
       gradientTransform="matrix(0.81251957,0,0,0.81251957,93.962085,104.68943)" />
  </defs>
  <metadata
     id="metadata5458">
    <rdf:RDF>
      <cc:Work
         rdf:about="">
        <dc:format>image/svg+xml</dc:format>
        <dc:type
           rdf:resource="http://purl.org/dc/dcmitype/StillImage" />
      </cc:Work>
    </rdf:RDF>
  </metadata>
  <g
     inkscape:label="Capa 1"
     inkscape:groupmode="layer"
     id="layer1"
     transform="translate(-384.57143,-483.798)">
    <rect
       style="fill:#626f9d;fill-opacity:0.2;stroke:none;stroke-width:1.26075"
       id="center-3"
       width="60.099998"
       height="42"
       x="386.57147"
       y="497.798"
       ry="3.9999959"
       rx="4.0066781" />
    <path
       d="m 442.73835,495.80768 h -29.32672 c -0.64817,0 -1.21496,-0.33361 -1.62011,-0.91817 l -2.1875,-3.33839 c -0.72899,-1.16852 -1.94446,-1.75312 -3.24023,-1.75312 h -14.98741 c -3.72689,0 -6.80495,3.17192 -6.80495,7.01111 v 38.97924 c 0,3.25524 2.59271,6.00966 5.83294,6.00966 h 25.19505 v 0 0 0 0 0 0 0 h 1.94402 v 0 0 0 0 0 0 0 0 0 h 25.19505 c 3.15951,0 5.83294,-2.67126 5.83294,-6.00966 v -33.9712 c 0,-3.33839 -2.59213,-6.00905 -5.83294,-6.00905 z m -25.19491,45.99033 v 0 h -1.94402 v 0 0 z m 29.08353,-6.00947 c 0,2.16999 -1.70156,4.00628 -3.88848,4.00628 h -52.33441 c -2.1062,0 -3.88848,-1.83629 -3.88848,-4.00628 l -5.8e-4,-13.43824 v -7.59568 c 0,-2.17001 1.78229,-4.00628 3.88848,-4.00628 h 29.32671 c 1.29634,0 2.51126,-0.66782 3.24024,-1.75312 l 2.10619,-3.33839 c 0.40518,-0.50072 0.97198,-0.91818 1.62012,-0.91818 h 15.06842 c 2.67343,0 4.86107,2.25378 4.86107,5.00835 v 10.93407 z m -4.86107,-32.9696 h -15.06842 c -1.29634,0 -2.51126,0.66781 -3.24023,1.75311 l -2.1062,3.3384 c -0.3238,0.58455 -0.97198,0.91816 -1.62011,0.91816 h -29.32651 c -1.45794,0 -2.83331,0.16967 -3.889,1.70239 v -8.733 c 0,-2 2.05601,-4 4.05601,-4 h 16.00001 l 0.0429,0.0464 2.9571,-0.0464 3.92107,0.0125 h 29.32672 c 2.10619,0 3.88848,1.83628 3.88848,4.00629 v 3.08814 c -1.29578,-1.33503 -2.99676,-2.08609 -4.94122,-2.08609 z"
       id="path64"
       sodipodi:nodetypes="csccsssssccccccccccccccccccsssccccccccccssccsssccssscccsccscccccccssscc"
       style="fill:url(#linearGradient2232);fill-opacity:1;stroke-width:0.146841" />
    <path
       fill-rule="evenodd"
       clip-rule="evenodd"
       d="m 424.41306,533.75696 c -0.29263,-0.29263 -0.29263,-0.76762 0,-1.06021 l 2.12143,-2.12143 c 0.29278,-0.29367 0.76758,-0.29367 1.06036,0 0.29278,0.2926 0.29278,0.76758 0,1.06018 l -2.12142,2.12146 c -0.29283,0.29288 -0.76758,0.29288 -1.06037,0 z m 15.25721,0 -2.12142,-2.12146 c -0.29255,-0.2926 -0.29255,-0.76758 0,-1.06018 0.29297,-0.29367 0.76753,-0.29367 1.06055,0 l 2.12146,2.12143 c 0.29251,0.29259 0.29251,0.76758 0,1.06021 -0.29301,0.29288 -0.76767,0.29288 -1.06059,0 z m 4.03852,-11.28721 -9.01557,8.26561 c -1.17154,1.17154 -3.07106,1.17154 -4.2427,0 l -5.2897,-5.28985 -0.33816,-0.33796 -1.44445,-1.4447 -0.006,0.002 c -0.13678,-0.17104 -0.33183,-0.31677 -0.55045,-0.31677 -0.41452,0 -0.75019,0.33585 -0.75019,0.75 v 2.11298 0.88767 7.4992 c 0,0.82908 0.67144,1.50024 1.50019,1.50024 h 17.99934 c 0.82875,0 1.49991,-0.67116 1.49991,-1.50024 v -8.99953 c 0,-0.41455 0.33586,-0.75 0.75042,-0.75 0.41423,0 0.75,0.33549 0.75,0.75 v 8.99953 c 0,1.65704 -1.34362,3.00066 -3.00033,3.00066 h -17.99934 c -1.65689,-5e-5 -3.00033,-1.34367 -3.00033,-3.0007 v -10.49981 c 0,-1.24219 1.00781,-2.2493 2.25033,-2.2493 0.579,0 1.10156,0.2648 1.50014,0.64898 v -0.0128 l 7.18917,7.18936 c 0.58542,0.58637 1.53516,0.58637 2.12072,0 l 9.01514,-8.2656 c 0.29377,-0.2926 0.43467,-0.67678 0.43289,-1.06017 h -0.009 c 0,-0.82871 -0.67116,-0.75001 -1.49991,-0.75001 h -15.7493 c -0.41363,0 -0.75014,-0.33581 -0.75014,-0.75037 0,-0.41415 0.33651,-0.75 0.75014,-0.75 h 15.74976 c 1.37583,0 2.53336,0.41199 2.88642,1.50033 v 0 c 0.25594,0.99506 0.0297,2.09288 -0.74925,2.87142 z m -20.88652,-2.87138 c -0.41451,0 -0.75019,-0.33581 -0.75019,-0.75037 0,-0.41415 0.33568,-0.75 0.75019,-0.75 0.41438,0 0.75,0.33581 0.75,0.75 0,0.41456 -0.33562,0.75037 -0.75,0.75037 z"
       id="path2-7"
       style="fill:url(#linearGradient961);fill-opacity:1.0;stroke-width:0.046875" />
  </g>
</svg>
