<?xml version="1.0" encoding="UTF-8" standalone="no"?>
<svg
   width="64"
   version="1.1"
   height="64"
   id="svg15"
   sodipodi:docname="folder-comic.svg"
   inkscape:version="1.1.1 (3bf5ae0d25, 2021-09-20)"
   xmlns:inkscape="http://www.inkscape.org/namespaces/inkscape"
   xmlns:sodipodi="http://sodipodi.sourceforge.net/DTD/sodipodi-0.dtd"
   xmlns:xlink="http://www.w3.org/1999/xlink"
   xmlns="http://www.w3.org/2000/svg"
   xmlns:svg="http://www.w3.org/2000/svg"
   xmlns:rdf="http://www.w3.org/1999/02/22-rdf-syntax-ns#"
   xmlns:cc="http://creativecommons.org/ns#"
   xmlns:dc="http://purl.org/dc/elements/1.1/">
  <sodipodi:namedview
     pagecolor="#ffffff"
     bordercolor="#666666"
     borderopacity="1"
     objecttolerance="10"
     gridtolerance="10"
     guidetolerance="10"
     inkscape:pageopacity="0"
     inkscape:pageshadow="2"
     inkscape:window-width="1920"
     inkscape:window-height="1007"
     id="namedview17"
     showgrid="true"
     inkscape:zoom="9.8124999"
     inkscape:cx="25.681529"
     inkscape:cy="33.681529"
     inkscape:window-x="0"
     inkscape:window-y="0"
     inkscape:window-maximized="1"
     inkscape:current-layer="layer1"
     inkscape:pagecheckerboard="0">
    <inkscape:grid
       type="xygrid"
       id="grid840" />
  </sodipodi:namedview>
  <defs
     id="defs5455">
    <linearGradient
       id="linearGradient4194">
      <stop
         style="stop-color:#b5006a"
         id="stop4196" />
      <stop
         offset="1"
         style="stop-color:#c70073"
         id="stop4198" />
    </linearGradient>
    <linearGradient
       inkscape:collect="always"
       xlink:href="#linearGradient2230"
       id="linearGradient2232"
       x1="384.57144"
       y1="515.79797"
       x2="448.57144"
       y2="515.79797"
       gradientUnits="userSpaceOnUse"
       gradientTransform="translate(1.8600002e-6)" />
    <linearGradient
       inkscape:collect="always"
       id="linearGradient2230">
      <stop
         style="stop-color:#4e99ca;stop-opacity:0.80000001"
         offset="0"
         id="stop2226" />
      <stop
         style="stop-color:#20ffff;stop-opacity:0.80000001"
         offset="0.50507295"
         id="stop2332" />
      <stop
         style="stop-color:#ffaeff;stop-opacity:0.69"
         offset="1"
         id="stop2228" />
    </linearGradient>
    <linearGradient
       inkscape:collect="always"
       xlink:href="#linearGradient2230"
       id="linearGradient897"
       x1="420.57144"
       y1="527.29803"
       x2="444.57117"
       y2="527.29803"
       gradientUnits="userSpaceOnUse" />
  </defs>
  <metadata
     id="metadata5458">
    <rdf:RDF>
      <cc:Work
         rdf:about="">
        <dc:format>image/svg+xml</dc:format>
        <dc:type
           rdf:resource="http://purl.org/dc/dcmitype/StillImage" />
      </cc:Work>
    </rdf:RDF>
  </metadata>
  <g
     inkscape:label="Capa 1"
     inkscape:groupmode="layer"
     id="layer1"
     transform="translate(-384.57143,-483.798)">
    <rect
       style="fill:#626f9d;fill-opacity:0.2;stroke:none;stroke-width:1.26075"
       id="center-3"
       width="60.099998"
       height="42"
       x="386.57141"
       y="497.79794"
       ry="3.9999959"
       rx="4.0066781" />
    <path
       d="m 442.73835,495.80768 h -29.32672 c -0.64817,0 -1.21496,-0.33361 -1.62011,-0.91817 l -2.1875,-3.33839 c -0.72899,-1.16852 -1.94446,-1.75312 -3.24023,-1.75312 h -14.98741 c -3.72689,0 -6.80495,3.17192 -6.80495,7.01111 v 38.97924 c 0,3.25524 2.59271,6.00966 5.83294,6.00966 h 25.19505 v 0 0 0 0 0 0 0 h 1.94402 v 0 0 0 0 0 0 0 0 0 h 25.19505 c 3.15951,0 5.83294,-2.67126 5.83294,-6.00966 v -33.9712 c 0,-3.33839 -2.59213,-6.00905 -5.83294,-6.00905 z m -25.19491,45.99033 v 0 h -1.94402 v 0 0 z m 29.08353,-6.00947 c 0,2.16999 -1.70156,4.00628 -3.88848,4.00628 h -52.33441 c -2.1062,0 -3.88848,-1.83629 -3.88848,-4.00628 l -5.8e-4,-13.43824 v -7.59568 c 0,-2.17001 1.78229,-4.00628 3.88848,-4.00628 h 29.32671 c 1.29634,0 2.51126,-0.66782 3.24024,-1.75312 l 2.10619,-3.33839 c 0.40518,-0.50072 0.97198,-0.91818 1.62012,-0.91818 h 15.06842 c 2.67343,0 4.86107,2.25378 4.86107,5.00835 v 10.93407 z m -4.86107,-32.9696 h -15.06842 c -1.29634,0 -2.51126,0.66781 -3.24023,1.75311 l -2.1062,3.3384 c -0.3238,0.58455 -0.97198,0.91816 -1.62011,0.91816 h -29.32651 c -1.45794,0 -2.83331,0.16967 -3.889,1.70239 v -8.733 c 0,-2 2.05601,-4 4.05601,-4 h 16.00001 l 0.0429,0.0464 2.9571,-0.0464 3.92107,0.0125 h 29.32672 c 2.10619,0 3.88848,1.83628 3.88848,4.00629 v 3.08814 c -1.29578,-1.33503 -2.99676,-2.08609 -4.94122,-2.08609 z"
       id="path64"
       sodipodi:nodetypes="csccsssssccccccccccccccccccsssccccccccccssccsssccssscccsccscccccccssscc"
       style="fill:url(#linearGradient2232);fill-opacity:1;stroke-width:0.146841" />
    <path
       fill-rule="evenodd"
       clip-rule="evenodd"
       d="m 433.32103,527.29832 h -6.0003 c -0.41361,0 -0.74922,-0.33656 -0.74922,-0.74999 0,-0.41455 0.33561,-0.75035 0.74922,-0.75035 h 6.0003 c 0.41418,0 0.74999,0.3358 0.74999,0.75035 0,0.41343 -0.33581,0.74999 -0.74999,0.74999 z m 3.75035,-0.74999 c 0,0.41343 -0.33655,0.74999 -0.75035,0.74999 -0.41424,0 -0.75004,-0.33656 -0.75004,-0.74999 0,-0.41455 0.3358,-0.75035 0.75004,-0.75035 0.4138,0 0.75035,0.3358 0.75035,0.75035 z m -7.50031,-3.00068 c 0,-0.41343 0.33562,-0.74999 0.75017,-0.74999 h 7.49938 c 0.41455,0 0.75036,0.33656 0.75036,0.74999 0,0.41455 -0.33581,0.75036 -0.75036,0.75036 h -7.49938 c -0.41455,0 -0.75017,-0.33581 -0.75017,-0.75036 z m 11.99985,9.7498 H 434.821 c -0.50609,0 -0.97263,0.16696 -1.34838,0.44858 l -4.73432,3.55071 c -0.01,0.007 -0.0152,0.0107 -0.0263,0.0194 -0.3825,0.30141 -0.86535,0.48192 -1.39123,0.48192 -1.24253,4e-5 -2.24943,-1.00774 -2.24943,-2.25029 v -1.50034 c 0,-0.41343 -0.33581,-0.74998 -0.75017,-0.74998 h -0.75018 c -1.65685,0 -2.99956,-1.34285 -2.99956,-2.99957 v -9.74981 c 0,-0.41419 0.33581,-0.74999 0.75017,-0.74999 0.41362,0 0.74924,0.3358 0.74924,0.74999 v 9.37517 c 0,1.03489 0.84008,1.87497 1.87571,1.87497 h 0.74928 c 1.03564,0 1.87572,0.83895 1.87572,1.87459 v 1.87496 c 0,0.41455 0.33561,0.74998 0.74922,0.74998 0.15915,0 0.30638,-0.0491 0.42721,-0.13368 0.002,-7.6e-4 0.002,-7.6e-4 0.003,-0.002 l 4.77348,-3.58039 c 7.4e-4,-7.4e-4 7.4e-4,0 0.002,-7.4e-4 0.63378,-0.49068 1.43026,-0.78327 2.29485,-0.78327 h 6.37492 c 1.03564,0 1.87463,-0.84007 1.87463,-1.87496 v -9.75052 c 0,-1.03489 -0.83899,-1.87496 -1.87463,-1.87496 h -13.87522 c -0.41361,0 -0.74922,-0.33543 -0.74922,-0.74998 0,-0.41343 0.33561,-0.74924 0.74922,-0.74924 h 14.25019 c 1.65713,0 2.99998,1.34252 2.99998,2.99956 v 10.49979 c 0,1.65672 -1.34285,2.99957 -2.99998,2.99957 z m -17.24975,-14.9997 c -0.41436,0 -0.75017,-0.33543 -0.75017,-0.74998 0,-0.41343 0.33581,-0.74924 0.75017,-0.74924 0.41432,0 0.75013,0.33581 0.75013,0.74924 0,0.41455 -0.33581,0.74998 -0.75013,0.74998 z"
       id="path2"
       style="fill:url(#linearGradient897);fill-opacity:1.0;stroke-width:0.046874" />
  </g>
</svg>
