<?xml version="1.0" encoding="UTF-8" standalone="no"?>
<svg
   width="64"
   version="1.1"
   height="64"
   id="svg15"
   sodipodi:docname="folder-Neon.svg"
   inkscape:version="1.1.1 (3bf5ae0d25, 2021-09-20)"
   xmlns:inkscape="http://www.inkscape.org/namespaces/inkscape"
   xmlns:sodipodi="http://sodipodi.sourceforge.net/DTD/sodipodi-0.dtd"
   xmlns:xlink="http://www.w3.org/1999/xlink"
   xmlns="http://www.w3.org/2000/svg"
   xmlns:svg="http://www.w3.org/2000/svg"
   xmlns:rdf="http://www.w3.org/1999/02/22-rdf-syntax-ns#"
   xmlns:cc="http://creativecommons.org/ns#"
   xmlns:dc="http://purl.org/dc/elements/1.1/">
  <sodipodi:namedview
     pagecolor="#ffffff"
     bordercolor="#666666"
     borderopacity="1"
     objecttolerance="10"
     gridtolerance="10"
     guidetolerance="10"
     inkscape:pageopacity="0"
     inkscape:pageshadow="2"
     inkscape:window-width="1920"
     inkscape:window-height="1005"
     id="namedview17"
     showgrid="true"
     inkscape:zoom="6.9384853"
     inkscape:cx="28.104117"
     inkscape:cy="40.859062"
     inkscape:window-x="0"
     inkscape:window-y="0"
     inkscape:window-maximized="1"
     inkscape:current-layer="layer1"
     inkscape:document-rotation="0"
     inkscape:pagecheckerboard="0"
     inkscape:lockguides="false">
    <inkscape:grid
       type="xygrid"
       id="grid933" />
  </sodipodi:namedview>
  <defs
     id="defs5455">
    <linearGradient
       inkscape:collect="always"
       id="linearGradient971">
      <stop
         style="stop-color:#4e99ca;stop-opacity:0.80000001"
         offset="0"
         id="stop965" />
      <stop
         style="stop-color:#20ffff;stop-opacity:0.80000001"
         offset="0.50507295"
         id="stop967" />
      <stop
         style="stop-color:#00ffff;stop-opacity:1"
         offset="1"
         id="stop969" />
    </linearGradient>
    <linearGradient
       inkscape:collect="always"
       id="linearGradient963">
      <stop
         style="stop-color:#4e99ca;stop-opacity:0.80000001"
         offset="0"
         id="stop957" />
      <stop
         style="stop-color:#20ffff;stop-opacity:0.80000001"
         offset="0.50507295"
         id="stop959" />
      <stop
         style="stop-color:#00ffff;stop-opacity:1"
         offset="1"
         id="stop961" />
    </linearGradient>
    <linearGradient
       inkscape:collect="always"
       id="linearGradient955">
      <stop
         style="stop-color:#4e99ca;stop-opacity:0.80000001"
         offset="0"
         id="stop949" />
      <stop
         style="stop-color:#20ffff;stop-opacity:0.80000001"
         offset="0.50507295"
         id="stop951" />
      <stop
         style="stop-color:#00ffff;stop-opacity:1"
         offset="1"
         id="stop953" />
    </linearGradient>
    <linearGradient
       inkscape:collect="always"
       xlink:href="#linearGradient2230"
       id="linearGradient2232"
       x1="384.57144"
       y1="515.79797"
       x2="448.57144"
       y2="515.79797"
       gradientUnits="userSpaceOnUse" />
    <linearGradient
       inkscape:collect="always"
       id="linearGradient2230">
      <stop
         style="stop-color:#4e99ca;stop-opacity:0.80000001"
         offset="0"
         id="stop2226" />
      <stop
         style="stop-color:#20ffff;stop-opacity:0.80000001"
         offset="0.50507295"
         id="stop2332" />
      <stop
         style="stop-color:#ffaeff;stop-opacity:0.69"
         offset="1"
         id="stop2228" />
    </linearGradient>
    <linearGradient
       inkscape:collect="always"
       xlink:href="#linearGradient971"
       id="linearGradient1643"
       gradientUnits="userSpaceOnUse"
       gradientTransform="matrix(0.26664918,0,0,0.26664829,419.23976,512.46627)"
       x1="5"
       y1="50"
       x2="95"
       y2="50" />
    <linearGradient
       inkscape:collect="always"
       xlink:href="#linearGradient963"
       id="linearGradient1645"
       gradientUnits="userSpaceOnUse"
       gradientTransform="matrix(0.26664918,0,0,0.26664829,419.23976,512.46627)"
       x1="5"
       y1="50"
       x2="95"
       y2="50" />
    <linearGradient
       inkscape:collect="always"
       xlink:href="#linearGradient955"
       id="linearGradient1647"
       gradientUnits="userSpaceOnUse"
       gradientTransform="matrix(0.26664918,0,0,0.26664829,419.23976,512.46627)"
       x1="5"
       y1="50"
       x2="95"
       y2="50" />
  </defs>
  <metadata
     id="metadata5458">
    <rdf:RDF>
      <cc:Work
         rdf:about="">
        <dc:format>image/svg+xml</dc:format>
        <dc:type
           rdf:resource="http://purl.org/dc/dcmitype/StillImage" />
      </cc:Work>
    </rdf:RDF>
  </metadata>
  <g
     inkscape:label="Capa 1"
     inkscape:groupmode="layer"
     id="layer1"
     transform="translate(-384.57143,-483.798)">
    <path
       d="m 432.57223,522.68198 c -1.72121,0 -3.11659,1.39538 -3.11659,3.11662 0,1.72115 1.39538,3.11654 3.11659,3.11654 1.72119,0 3.11659,-1.39539 3.11659,-3.11654 0,-1.72124 -1.3954,-3.11662 -3.11659,-3.11662 z m -0.54078,1.00237 c -0.58422,0.14902 -1.08578,0.53908 -1.37566,1.07187 -0.0276,0.0509 -0.0804,0.0798 -0.13705,0.0798 -0.0251,0 -0.0502,-0.005 -0.074,-0.0198 -0.0749,-0.0424 -0.10271,-0.13597 -0.064,-0.21145 0.33142,-0.60793 0.9048,-1.05432 1.57271,-1.22445 0.0847,-0.0227 0.16828,0.0282 0.18935,0.11297 0.0218,0.0833 -0.0284,0.16798 -0.11296,0.18909 z"
       id="path2-6-7-2"
       style="fill:url(#linearGradient1643);fill-opacity:1;stroke-width:0.266644" />
    <path
       d="m 433.65963,518.75184 c -0.0193,-0.58634 -0.49628,-1.05674 -1.0874,-1.05674 -0.59119,0 -1.06901,0.4704 -1.08742,1.05674 -3.41706,0.52555 -6.042,3.48504 -6.042,7.04676 0,3.56159 2.62518,6.52106 6.042,7.04661 0.0193,0.58641 0.49623,1.05684 1.08742,1.05684 0.59112,0 1.06895,-0.47043 1.0874,-1.05684 3.41715,-0.52555 6.04208,-3.48502 6.04208,-7.04661 0,-3.56172 -2.62493,-6.52121 -6.04208,-7.04676 z m -0.0178,13.85907 c -0.0947,-0.50662 -0.53684,-0.89058 -1.07094,-0.89058 -0.53411,0 -0.97651,0.38362 -1.07087,0.89058 -3.29546,-0.51656 -5.82461,-3.37389 -5.82461,-6.81231 0,-3.43845 2.52915,-6.29584 5.8249,-6.81235 0.0947,0.50665 0.53679,0.89062 1.0708,0.89062 0.53412,0 0.9765,-0.38371 1.07096,-0.89062 3.29521,0.51651 5.8244,3.3739 5.8244,6.81235 0,3.43842 -2.52919,6.29575 -5.82464,6.81231 z"
       id="path4-5-9"
       style="fill:url(#linearGradient1645);fill-opacity:1;stroke-width:0.266644" />
    <path
       d="m 444.57145,525.7986 c 0,-0.58104 -0.45493,-1.05116 -1.02767,-1.08446 -0.2184,-2.22762 -1.10268,-4.2624 -2.45,-5.90311 0.38469,-0.42822 0.3751,-1.08496 -0.0381,-1.49717 -0.41194,-0.412 -1.06894,-0.42187 -1.49696,-0.0382 -1.64042,-1.34757 -3.67547,-2.23136 -5.90278,-2.44998 -0.032,-0.57212 -0.50371,-1.02768 -1.0848,-1.02768 -0.58096,0 -1.05114,0.45556 -1.0844,1.02768 -2.22736,0.2184 -4.26217,1.10241 -5.90279,2.44998 -0.42807,-0.38504 -1.08526,-0.37514 -1.49755,0.0382 -0.41191,0.41221 -0.42177,1.06947 -0.0373,1.49747 -1.34757,1.64041 -2.23137,3.67545 -2.44999,5.90281 -0.57278,0.0318 -1.02768,0.50342 -1.02768,1.08446 0,0.58098 0.4549,1.05113 1.02768,1.08446 0.2184,2.22728 1.10242,4.26185 2.44974,5.90238 -0.38508,0.42839 -0.37519,1.08564 0.0378,1.4979 0.41227,0.41185 1.06926,0.42173 1.49782,0.037 1.6404,1.34787 3.67545,2.23136 5.90285,2.44999 0.0318,0.57211 0.50338,1.02767 1.08441,1.02767 0.58101,0 1.05119,-0.45556 1.08442,-1.02767 2.22739,-0.2184 4.2622,-1.10212 5.90279,-2.44999 0.42862,0.38504 1.08536,0.37514 1.49756,-0.037 0.41191,-0.41226 0.42178,-1.06951 0.0377,-1.49756 1.348,-1.64038 2.23137,-3.67544 2.45,-5.90272 0.57289,-0.0318 1.02767,-0.50348 1.02767,-1.08446 z m -1.2613,1.07374 c -0.2154,2.17133 -1.07725,4.15523 -2.38993,5.75664 -0.4264,-0.30667 -1.02202,-0.27187 -1.40544,0.11229 -0.38356,0.3837 -0.4188,0.97934 -0.11229,1.40546 -1.60119,1.31268 -3.58533,2.1745 -5.75719,2.3899 -0.0804,-0.52102 -0.52901,-0.92012 -1.07324,-0.92012 -0.54425,0 -0.99145,0.3991 -1.07333,0.92012 -2.17182,-0.2154 -4.15596,-1.07722 -5.75719,-2.3899 0.30692,-0.42668 0.27197,-1.02271 -0.11218,-1.40569 -0.38346,-0.38354 -0.97939,-0.41909 -1.40578,-0.11249 -1.31271,-1.60096 -2.17477,-3.58485 -2.39022,-5.75617 0.52104,-0.081 0.92018,-0.52952 0.92018,-1.07376 0,-0.5443 -0.39914,-0.99147 -0.92018,-1.0738 0.21545,-2.17136 1.07722,-4.15496 2.38972,-5.75647 0.42662,0.30718 1.02282,0.27205 1.406,-0.11214 0.38347,-0.38341 0.41842,-0.97966 0.11224,-1.40606 1.60146,-1.31235 3.58509,-2.17422 5.75692,-2.38968 0.0804,0.52099 0.52905,0.92016 1.07329,0.92016 0.5442,0 0.99142,-0.39917 1.07329,-0.92016 2.17182,0.21546 4.15567,1.07733 5.757,2.38968 -0.30675,0.42666 -0.27213,1.02233 0.11211,1.4058 0.38339,0.3834 0.97945,0.4184 1.40582,0.11215 1.3126,1.60126 2.17445,3.58536 2.39,5.75672 -0.52105,0.0809 -0.92014,0.5295 -0.92014,1.0738 0,0.54424 0.39933,0.99138 0.92059,1.07376 z"
       id="path6-3-1"
       style="fill:url(#linearGradient1647);fill-opacity:1;stroke-width:0.266644" />
    <rect
       style="fill:#626f9d;fill-opacity:0.2;stroke:none;stroke-width:1.26075"
       id="center-3"
       width="60.099998"
       height="42"
       x="386.57144"
       y="497.79794"
       ry="3.9999959"
       rx="4.0066781" />
    <path
       d="m 442.73835,495.80768 h -29.32672 c -0.64817,0 -1.21496,-0.33361 -1.62011,-0.91817 l -2.1875,-3.33839 c -0.72899,-1.16852 -1.94446,-1.75312 -3.24023,-1.75312 h -14.98741 c -3.72689,0 -6.80495,3.17192 -6.80495,7.01111 v 38.97924 c 0,3.25524 2.59271,6.00966 5.83294,6.00966 h 25.19505 v 0 0 0 0 0 0 0 h 1.94402 v 0 0 0 0 0 0 0 0 0 h 25.19505 c 3.15951,0 5.83294,-2.67126 5.83294,-6.00966 v -33.9712 c 0,-3.33839 -2.59213,-6.00905 -5.83294,-6.00905 z m -25.19491,45.99033 v 0 h -1.94402 v 0 0 z m 29.08353,-6.00947 c 0,2.16999 -1.70156,4.00628 -3.88848,4.00628 h -52.33441 c -2.1062,0 -3.88848,-1.83629 -3.88848,-4.00628 l -5.8e-4,-13.43824 v -7.59568 c 0,-2.17001 1.78229,-4.00628 3.88848,-4.00628 h 29.32671 c 1.29634,0 2.51126,-0.66782 3.24024,-1.75312 l 2.10619,-3.33839 c 0.40518,-0.50072 0.97198,-0.91818 1.62012,-0.91818 h 15.06842 c 2.67343,0 4.86107,2.25378 4.86107,5.00835 v 10.93407 z m -4.86107,-32.9696 h -15.06842 c -1.29634,0 -2.51126,0.66781 -3.24023,1.75311 l -2.1062,3.3384 c -0.3238,0.58455 -0.97198,0.91816 -1.62011,0.91816 h -29.32651 c -1.45794,0 -2.83331,0.16967 -3.889,1.70239 v -8.733 c 0,-2 2.05601,-4 4.05601,-4 h 16.00001 l 0.0429,0.0464 2.9571,-0.0464 3.92107,0.0125 h 29.32672 c 2.10619,0 3.88848,1.83628 3.88848,4.00629 v 3.08814 c -1.29578,-1.33503 -2.99676,-2.08609 -4.94122,-2.08609 z"
       id="path64"
       sodipodi:nodetypes="csccsssssccccccccccccccccccsssccccccccccssccsssccssscccsccscccccccssscc"
       style="fill:url(#linearGradient2232);fill-opacity:1;stroke-width:0.146841" />
  </g>
</svg>
