<?xml version="1.0" encoding="UTF-8" standalone="no"?>
<svg
   width="64"
   version="1.1"
   height="64"
   id="svg15"
   sodipodi:docname="folder-desktop.svg"
   inkscape:version="1.1.1 (3bf5ae0d25, 2021-09-20)"
   xmlns:inkscape="http://www.inkscape.org/namespaces/inkscape"
   xmlns:sodipodi="http://sodipodi.sourceforge.net/DTD/sodipodi-0.dtd"
   xmlns:xlink="http://www.w3.org/1999/xlink"
   xmlns="http://www.w3.org/2000/svg"
   xmlns:svg="http://www.w3.org/2000/svg"
   xmlns:rdf="http://www.w3.org/1999/02/22-rdf-syntax-ns#"
   xmlns:cc="http://creativecommons.org/ns#"
   xmlns:dc="http://purl.org/dc/elements/1.1/">
  <sodipodi:namedview
     pagecolor="#ffffff"
     bordercolor="#666666"
     borderopacity="1"
     objecttolerance="10"
     gridtolerance="10"
     guidetolerance="10"
     inkscape:pageopacity="0"
     inkscape:pageshadow="2"
     inkscape:window-width="1920"
     inkscape:window-height="1007"
     id="namedview17"
     showgrid="true"
     inkscape:zoom="9.8125"
     inkscape:cx="32"
     inkscape:cy="31.949045"
     inkscape:window-x="0"
     inkscape:window-y="0"
     inkscape:window-maximized="1"
     inkscape:current-layer="layer1"
     inkscape:document-rotation="0"
     inkscape:pagecheckerboard="0">
    <inkscape:grid
       type="xygrid"
       id="grid850" />
  </sodipodi:namedview>
  <defs
     id="defs5455">
    <linearGradient
       inkscape:collect="always"
       xlink:href="#linearGradient2230"
       id="linearGradient2232"
       x1="384.57144"
       y1="515.79797"
       x2="448.57144"
       y2="515.79797"
       gradientUnits="userSpaceOnUse" />
    <linearGradient
       inkscape:collect="always"
       id="linearGradient2230">
      <stop
         style="stop-color:#4e99ca;stop-opacity:0.80000001"
         offset="0"
         id="stop2226" />
      <stop
         style="stop-color:#20ffff;stop-opacity:0.80000001"
         offset="0.50507295"
         id="stop2332" />
      <stop
         style="stop-color:#ffaeff;stop-opacity:0.69"
         offset="1"
         id="stop2228" />
    </linearGradient>
    <linearGradient
       inkscape:collect="always"
       xlink:href="#linearGradient2230"
       id="linearGradient1150"
       gradientUnits="userSpaceOnUse"
       gradientTransform="matrix(0.81252145,0,0,0.85714224,94.077974,80.68574)"
       x1="401.82742"
       y1="520.79803"
       x2="431.36322"
       y2="520.79803" />
  </defs>
  <metadata
     id="metadata5458">
    <rdf:RDF>
      <cc:Work
         rdf:about="">
        <dc:format>image/svg+xml</dc:format>
        <dc:type
           rdf:resource="http://purl.org/dc/dcmitype/StillImage" />
      </cc:Work>
    </rdf:RDF>
  </metadata>
  <g
     inkscape:label="Capa 1"
     inkscape:groupmode="layer"
     id="layer1"
     transform="translate(-384.57143,-483.798)">
    <rect
       style="fill:#626f9d;fill-opacity:0.2;stroke:none;stroke-width:1.26075"
       id="center-3"
       width="60.099998"
       height="42"
       x="386.57144"
       y="497.798"
       ry="3.9999959"
       rx="4.0066781" />
    <path
       d="m 442.73835,495.80768 h -29.32672 c -0.64817,0 -1.21496,-0.33361 -1.62011,-0.91817 l -2.1875,-3.33839 c -0.72899,-1.16852 -1.94446,-1.75312 -3.24023,-1.75312 h -14.98741 c -3.72689,0 -6.80495,3.17192 -6.80495,7.01111 v 38.97924 c 0,3.25524 2.59271,6.00966 5.83294,6.00966 h 25.19505 v 0 0 0 0 0 0 0 h 1.94402 v 0 0 0 0 0 0 0 0 0 h 25.19505 c 3.15951,0 5.83294,-2.67126 5.83294,-6.00966 v -33.9712 c 0,-3.33839 -2.59213,-6.00905 -5.83294,-6.00905 z m -25.19491,45.99033 v 0 h -1.94402 v 0 0 z m 29.08353,-6.00947 c 0,2.16999 -1.70156,4.00628 -3.88848,4.00628 h -52.33441 c -2.1062,0 -3.88848,-1.83629 -3.88848,-4.00628 l -5.8e-4,-13.43824 v -7.59568 c 0,-2.17001 1.78229,-4.00628 3.88848,-4.00628 h 29.32671 c 1.29634,0 2.51126,-0.66782 3.24024,-1.75312 l 2.10619,-3.33839 c 0.40518,-0.50072 0.97198,-0.91818 1.62012,-0.91818 h 15.06842 c 2.67343,0 4.86107,2.25378 4.86107,5.00835 v 10.93407 z m -4.86107,-32.9696 h -15.06842 c -1.29634,0 -2.51126,0.66781 -3.24023,1.75311 l -2.1062,3.3384 c -0.3238,0.58455 -0.97198,0.91816 -1.62011,0.91816 h -29.32651 c -1.45794,0 -2.83331,0.16967 -3.889,1.70239 v -8.733 c 0,-2 2.05601,-4 4.05601,-4 h 16.00001 l 0.0429,0.0464 2.9571,-0.0464 3.92107,0.0125 h 29.32672 c 2.10619,0 3.88848,1.83628 3.88848,4.00629 v 3.08814 c -1.29578,-1.33503 -2.99676,-2.08609 -4.94122,-2.08609 z"
       id="path64"
       sodipodi:nodetypes="csccsssssccccccccccccccccccsssccccccccccssccsssccssscccsccscccccccssscc"
       style="fill:url(#linearGradient2232);fill-opacity:1;stroke-width:0.146841" />
    <path
       fill-rule="evenodd"
       clip-rule="evenodd"
       d="m 441.57017,530.24732 c 0,0.43691 -0.33578,0.79114 -0.75009,0.79114 -0.41414,0 -0.74992,-0.35423 -0.74992,-0.79114 0,-0.43691 0.33578,-0.79114 0.74992,-0.79114 0.41431,0 0.75009,0.35423 0.75009,0.79114 z m 0,7.12023 h -3.74986 c -0.41416,0 -0.74995,-0.35424 -0.74995,-0.79114 0,-0.4369 0.33579,-0.79114 0.74995,-0.79114 h 3.74986 c 0.82825,0 1.49983,-0.70846 1.49983,-1.58227 v -14.24046 c 0,-0.8738 -0.67158,-1.58226 -1.49983,-1.58226 h -17.99882 c -0.82832,0 -1.49992,0.70846 -1.49992,1.58226 v 6.72466 0.43612 1.54173 c 0,0.4369 0.33577,0.79113 0.74979,0.79113 h 1.46149 0.4135 13.1241 c 0.41416,0 0.74992,0.35423 0.74992,0.79114 0,0.43691 -0.33576,0.79114 -0.74992,0.79114 h -15.37414 c -0.90673,0 -1.66245,-0.67949 -1.83653,-1.58228 h -0.0367 v -9.49364 c 0,-1.74762 1.3432,-3.16454 2.99973,-3.16454 h 17.99882 c 1.65677,0 2.99992,1.41692 2.99992,3.16454 V 534.203 c 0,1.74762 -1.34315,3.16455 -2.99992,3.16455 z m -10.49956,-3.95569 c 0,-0.4369 0.33588,-0.79113 0.75013,-0.79113 0.41415,0 0.74994,0.35423 0.74994,0.79113 0,0.43691 -0.33579,0.79114 -0.74994,0.79114 -0.41425,0 -0.75013,-0.35423 -0.75013,-0.79114 z m -9.74939,-0.79113 c 0.41444,0 0.75021,0.35423 0.75021,0.79113 v 0.79114 c 0,0.87381 0.6716,1.58227 1.49992,1.58227 h 10.49923 c 0.82836,0 1.49993,1.58228 1.49993,1.58228 v 0 0 0 0 0 0 0 0 0 0 0 0 0 0 0 0 0 0 c 0,0 0.003,0.004 0,0 v 0 0 h -2.02717 c 0,0 0.28259,0 0,0 h -0.97266 -8.99933 c -1.65677,0 -2.99992,-1.41693 -2.99992,-3.16455 v -0.79114 c 0,-0.4369 0.33577,-0.79113 0.74979,-0.79113 z"
       id="path2-5"
       sodipodi:nodetypes="sssssssssssssssccssccssssccsssssssssssssssssccccccccccccccccccccccscssss"
       style="fill:url(#linearGradient1150);fill-opacity:1;stroke-width:0.0481415" />
  </g>
</svg>
