<?xml version="1.0" encoding="UTF-8" standalone="no"?>
<svg
   width="64"
   version="1.1"
   height="64"
   id="svg17"
   sodipodi:docname="folder-templates.svg"
   inkscape:version="1.1.1 (3bf5ae0d25, 2021-09-20)"
   xmlns:inkscape="http://www.inkscape.org/namespaces/inkscape"
   xmlns:sodipodi="http://sodipodi.sourceforge.net/DTD/sodipodi-0.dtd"
   xmlns:xlink="http://www.w3.org/1999/xlink"
   xmlns="http://www.w3.org/2000/svg"
   xmlns:svg="http://www.w3.org/2000/svg"
   xmlns:rdf="http://www.w3.org/1999/02/22-rdf-syntax-ns#"
   xmlns:cc="http://creativecommons.org/ns#"
   xmlns:dc="http://purl.org/dc/elements/1.1/">
  <sodipodi:namedview
     pagecolor="#ffffff"
     bordercolor="#666666"
     borderopacity="1"
     objecttolerance="10"
     gridtolerance="10"
     guidetolerance="10"
     inkscape:pageopacity="0"
     inkscape:pageshadow="2"
     inkscape:window-width="1920"
     inkscape:window-height="1007"
     id="namedview19"
     showgrid="true"
     inkscape:zoom="9.8124999"
     inkscape:cx="14.063694"
     inkscape:cy="29.707007"
     inkscape:window-x="0"
     inkscape:window-y="0"
     inkscape:window-maximized="1"
     inkscape:current-layer="layer1"
     inkscape:document-rotation="0"
     inkscape:pagecheckerboard="0">
    <inkscape:grid
       type="xygrid"
       id="grid868" />
  </sodipodi:namedview>
  <defs
     id="defs5455">
    <linearGradient
       inkscape:collect="always"
       id="linearGradient934">
      <stop
         style="stop-color:#ffcc00;stop-opacity:1"
         offset="0"
         id="stop930" />
      <stop
         style="stop-color:#00ffff;stop-opacity:1"
         offset="1"
         id="stop932" />
    </linearGradient>
    <linearGradient
       inkscape:collect="always"
       xlink:href="#linearGradient934"
       id="linearGradient892"
       x1="4"
       y1="12"
       x2="20"
       y2="12"
       gradientUnits="userSpaceOnUse" />
    <linearGradient
       inkscape:collect="always"
       xlink:href="#linearGradient2230"
       id="linearGradient2232"
       x1="384.57144"
       y1="515.79797"
       x2="448.57144"
       y2="515.79797"
       gradientUnits="userSpaceOnUse"
       gradientTransform="translate(-1.8e-5)" />
    <linearGradient
       inkscape:collect="always"
       id="linearGradient2230">
      <stop
         style="stop-color:#4e99ca;stop-opacity:0.80000001"
         offset="0"
         id="stop2226" />
      <stop
         style="stop-color:#20ffff;stop-opacity:0.80000001"
         offset="0.50507295"
         id="stop2332" />
      <stop
         style="stop-color:#ffaeff;stop-opacity:0.69"
         offset="1"
         id="stop2228" />
    </linearGradient>
    <linearGradient
       inkscape:collect="always"
       xlink:href="#linearGradient2230"
       id="linearGradient1111"
       gradientUnits="userSpaceOnUse"
       gradientTransform="matrix(0.87500005,0,0,0.87500005,67.88391,71.599727)"
       x1="403.07144"
       y1="520.79797"
       x2="430.5"
       y2="520.79797" />
    <linearGradient
       inkscape:collect="always"
       xlink:href="#linearGradient2230"
       id="linearGradient1113"
       gradientUnits="userSpaceOnUse"
       gradientTransform="matrix(0.87500005,0,0,0.87500005,67.88391,71.599727)"
       x1="411.08597"
       y1="520.91626"
       x2="423.2088"
       y2="520.91626" />
    <linearGradient
       inkscape:collect="always"
       xlink:href="#linearGradient2230"
       id="linearGradient1115"
       gradientUnits="userSpaceOnUse"
       gradientTransform="matrix(0.87500005,0,0,0.87500005,67.88391,71.599727)"
       x1="411.08276"
       y1="526.46552"
       x2="416.70187"
       y2="526.46552" />
    <linearGradient
       inkscape:collect="always"
       xlink:href="#linearGradient2230"
       id="linearGradient1117"
       gradientUnits="userSpaceOnUse"
       gradientTransform="matrix(0.87500005,0,0,0.87500005,67.88391,71.599727)"
       x1="417.58969"
       y1="526.46552"
       x2="423.2088"
       y2="526.46552" />
  </defs>
  <metadata
     id="metadata5458">
    <rdf:RDF>
      <cc:Work
         rdf:about="">
        <dc:format>image/svg+xml</dc:format>
        <dc:type
           rdf:resource="http://purl.org/dc/dcmitype/StillImage" />
      </cc:Work>
    </rdf:RDF>
  </metadata>
  <g
     inkscape:label="Capa 1"
     inkscape:groupmode="layer"
     id="layer1"
     transform="translate(-384.57143,-483.798)">
    <g
       id="g6"
       transform="matrix(1.25,0,0,1.25,401.00699,504.50786)"
       style="fill:url(#linearGradient892);fill-opacity:1" />
    <rect
       style="fill:#626f9d;fill-opacity:0.2;stroke:none;stroke-width:1.26075"
       id="center-3"
       width="60.099998"
       height="42"
       x="386.57138"
       y="497.79794"
       ry="3.9999959"
       rx="4.0066781" />
    <path
       d="m 442.73833,495.80768 h -29.32672 c -0.64817,0 -1.21496,-0.33361 -1.62011,-0.91817 l -2.1875,-3.33839 c -0.72899,-1.16852 -1.94446,-1.75312 -3.24023,-1.75312 h -14.98741 c -3.72689,0 -6.80495,3.17192 -6.80495,7.01111 v 38.97924 c 0,3.25524 2.59271,6.00966 5.83294,6.00966 h 25.19505 v 0 0 0 0 0 0 0 h 1.94402 v 0 0 0 0 0 0 0 0 0 h 25.19505 c 3.15951,0 5.83294,-2.67126 5.83294,-6.00966 v -33.9712 c 0,-3.33839 -2.59213,-6.00905 -5.83294,-6.00905 z m -25.19491,45.99033 v 0 h -1.94402 v 0 0 z m 29.08353,-6.00947 c 0,2.16999 -1.70156,4.00628 -3.88848,4.00628 h -52.33441 c -2.1062,0 -3.88848,-1.83629 -3.88848,-4.00628 L 386.515,522.3503 v -7.59568 c 0,-2.17001 1.78229,-4.00628 3.88848,-4.00628 h 29.32671 c 1.29634,0 2.51126,-0.66782 3.24024,-1.75312 l 2.10619,-3.33839 c 0.40518,-0.50072 0.97198,-0.91818 1.62012,-0.91818 h 15.06842 c 2.67343,0 4.86107,2.25378 4.86107,5.00835 v 10.93407 z m -4.86107,-32.9696 h -15.06842 c -1.29634,0 -2.51126,0.66781 -3.24023,1.75311 l -2.1062,3.3384 c -0.3238,0.58455 -0.97198,0.91816 -1.62011,0.91816 h -29.32651 c -1.45794,0 -2.83331,0.16967 -3.889,1.70239 v -8.733 c 0,-2 2.05601,-4 4.05601,-4 h 16.00001 l 0.0429,0.0464 2.9571,-0.0464 3.92107,0.0125 h 29.32672 c 2.10619,0 3.88848,1.83628 3.88848,4.00629 v 3.08814 c -1.29578,-1.33503 -2.99676,-2.08609 -4.94122,-2.08609 z"
       id="path64"
       sodipodi:nodetypes="csccsssssccccccccccccccccccsssccccccccccssccsssccssscccsccscccccccssscc"
       style="fill:url(#linearGradient2232);fill-opacity:1;stroke-width:0.146841" />
    <path
       fill-rule="evenodd"
       clip-rule="evenodd"
       d="m 423.57143,520.548 c 0,-0.41418 0.33582,-0.75 0.75,-0.75 0.41419,0 0.75,0.33582 0.75,0.75 0,0.41419 -0.33581,0.75 -0.75,0.75 -0.41418,0 -0.75,-0.33581 -0.75,-0.75 z m 3,0 c 0,-0.41418 0.33581,-0.75 0.75,-0.75 0.41419,0 0.75,0.33582 0.75,0.75 0,0.41419 -0.33581,0.75 -0.75,0.75 -0.41419,0 -0.75,-0.33581 -0.75,-0.75 z m 3,0 c 0,-0.41418 0.33581,-0.75 0.75,-0.75 0.41418,0 0.75,0.33582 0.75,0.75 0,0.41419 -0.33582,0.75 -0.75,0.75 -0.41419,0 -0.75,-0.33581 -0.75,-0.75 z m 15,4.125 v 10.125 c 0,1.65675 -1.34325,3 -3,3 h -18 c -1.65675,0 -3,-1.34325 -3,-3 v -8.25 c 0,-0.41419 0.33582,-0.75 0.75,-0.75 0.41419,0 0.75,0.33581 0.75,0.75 v 8.25 c 0,0.82837 0.67163,1.5 1.5,1.5 h 18 c 0.82837,0 1.5,-0.67163 1.5,-1.5 v -9.75 c 0,-0.41419 -0.33581,-0.75 -0.75,-0.75 h -19.875 c -1.03566,0 -1.875,-0.83934 -1.875,-1.875 v -2.625 c 0,-1.65675 1.34325,-3 3,-3 h 18 c 1.65675,0 3,1.34325 3,3 v 0.75 c 0,0.41419 -0.33581,0.75 -0.75,0.75 -0.41419,0 -0.75,-0.33581 -0.75,-0.75 v -0.75 c 0,-0.82837 -0.67163,-1.5 -1.5,-1.5 h -18 c -0.82837,0 -1.5,0.67163 -1.5,1.5 v 2.25 c 0,0.41419 0.33581,0.75 0.75,0.75 h 19.875 c 1.03566,0 1.875,0.83934 1.875,1.875 z"
       id="path2-7"
       style="fill:url(#linearGradient1111);fill-opacity:1.0;stroke-width:0.046875" />
    <path
       d="m 437.06781,525.86185 h -8.35982 a 1.1238207,1.1238207 0 0 0 -1.12383,1.12382 v 0.83163 a 1.1238207,1.1238207 0 0 0 1.12383,1.12381 h 8.35982 a 1.1238207,1.1238207 0 0 0 1.12382,-1.12381 v -0.83163 a 1.1238207,1.1238207 0 0 0 -1.12382,-1.12382 z m 0.5619,1.95545 a 0.56191043,0.56191043 0 0 1 -0.5619,0.5619 h -8.35982 a 0.56191043,0.56191043 0 0 1 -0.56192,-0.5619 v -0.83163 a 0.56191043,0.56191043 0 0 1 0.56192,-0.56192 h 8.35982 a 0.56191043,0.56191043 0 0 1 0.5619,0.56192 z"
       id="path6-5"
       style="fill:url(#linearGradient1113);fill-opacity:1.0;stroke-width:0.140477" />
    <path
       d="m 431.37425,529.71795 h -2.66907 a 1.1238207,1.1238207 0 0 0 -1.12383,1.12383 v 2.83062 a 1.1238207,1.1238207 0 0 0 1.12383,1.12382 h 2.66907 a 1.1238207,1.1238207 0 0 0 1.12382,-1.12382 v -2.83062 a 1.1238207,1.1238207 0 0 0 -1.12382,-1.12383 z m 0.56191,3.95304 a 0.56191043,0.56191043 0 0 1 -0.56191,0.56191 h -2.66907 a 0.56191043,0.56191043 0 0 1 -0.56192,-0.56191 v -2.82921 a 0.56191043,0.56191043 0 0 1 0.56192,-0.56192 h 2.66907 a 0.56191043,0.56191043 0 0 1 0.56191,0.56192 z"
       id="path8-3"
       style="fill:url(#linearGradient1115);fill-opacity:1.0;stroke-width:0.140477" />
    <path
       d="m 437.06781,529.71795 h -2.66908 a 1.1238207,1.1238207 0 0 0 -1.12382,1.12383 v 2.83062 a 1.1238207,1.1238207 0 0 0 1.12382,1.12382 h 2.66908 a 1.1238207,1.1238207 0 0 0 1.12382,-1.12382 v -2.83062 a 1.1238207,1.1238207 0 0 0 -1.12382,-1.12383 z m 0.5619,3.95304 a 0.56191043,0.56191043 0 0 1 -0.5619,0.56191 h -2.66908 a 0.56191043,0.56191043 0 0 1 -0.56191,-0.56191 v -2.82921 a 0.56191043,0.56191043 0 0 1 0.56191,-0.56192 h 2.66908 a 0.56191043,0.56191043 0 0 1 0.5619,0.56192 z"
       id="path10-5"
       style="fill:url(#linearGradient1117);fill-opacity:1.0;stroke-width:0.140477" />
  </g>
</svg>
