<?xml version="1.0" encoding="UTF-8" standalone="no"?>
<svg
   width="64"
   version="1.1"
   height="64"
   id="svg15"
   sodipodi:docname="folder-design.svg"
   inkscape:version="1.1.1 (3bf5ae0d25, 2021-09-20)"
   xmlns:inkscape="http://www.inkscape.org/namespaces/inkscape"
   xmlns:sodipodi="http://sodipodi.sourceforge.net/DTD/sodipodi-0.dtd"
   xmlns:xlink="http://www.w3.org/1999/xlink"
   xmlns="http://www.w3.org/2000/svg"
   xmlns:svg="http://www.w3.org/2000/svg"
   xmlns:rdf="http://www.w3.org/1999/02/22-rdf-syntax-ns#"
   xmlns:cc="http://creativecommons.org/ns#"
   xmlns:dc="http://purl.org/dc/elements/1.1/">
  <sodipodi:namedview
     pagecolor="#ffffff"
     bordercolor="#666666"
     borderopacity="1"
     objecttolerance="10"
     gridtolerance="10"
     guidetolerance="10"
     inkscape:pageopacity="0"
     inkscape:pageshadow="2"
     inkscape:window-width="1920"
     inkscape:window-height="1007"
     id="namedview17"
     showgrid="true"
     inkscape:zoom="9.8125"
     inkscape:cx="30.980892"
     inkscape:cy="31.949045"
     inkscape:window-x="0"
     inkscape:window-y="0"
     inkscape:window-maximized="1"
     inkscape:current-layer="layer1"
     inkscape:document-rotation="0"
     inkscape:pagecheckerboard="0">
    <inkscape:grid
       type="xygrid"
       id="grid850" />
  </sodipodi:namedview>
  <defs
     id="defs5455">
    <linearGradient
       inkscape:collect="always"
       id="linearGradient836">
      <stop
         style="stop-color:#ffb380;stop-opacity:1"
         offset="0"
         id="stop832" />
      <stop
         style="stop-color:#20ffff;stop-opacity:1"
         offset="0.48615947"
         id="stop1390" />
      <stop
         style="stop-color:#ffaeff;stop-opacity:1"
         offset="1"
         id="stop834" />
    </linearGradient>
    <linearGradient
       inkscape:collect="always"
       xlink:href="#linearGradient2230"
       id="linearGradient2232"
       x1="384.57144"
       y1="515.79797"
       x2="448.57144"
       y2="515.79797"
       gradientUnits="userSpaceOnUse"
       gradientTransform="translate(-2e-5)" />
    <linearGradient
       inkscape:collect="always"
       id="linearGradient2230">
      <stop
         style="stop-color:#4e99ca;stop-opacity:0.80000001"
         offset="0"
         id="stop2226" />
      <stop
         style="stop-color:#20ffff;stop-opacity:0.80000001"
         offset="0.50507295"
         id="stop2332" />
      <stop
         style="stop-color:#ffaeff;stop-opacity:0.69"
         offset="1"
         id="stop2228" />
    </linearGradient>
    <linearGradient
       inkscape:collect="always"
       xlink:href="#linearGradient836"
       id="linearGradient874-3"
       x1="7.7459998"
       y1="54.16"
       x2="25.666"
       y2="54.16"
       gradientUnits="userSpaceOnUse" />
    <linearGradient
       inkscape:collect="always"
       xlink:href="#linearGradient836"
       id="linearGradient872-3"
       x1="23.604"
       y1="74.839996"
       x2="77.240997"
       y2="74.839996"
       gradientUnits="userSpaceOnUse" />
    <linearGradient
       inkscape:collect="always"
       xlink:href="#linearGradient836"
       id="linearGradient870-5"
       x1="75.172997"
       y1="53.737999"
       x2="92.252998"
       y2="53.737999"
       gradientUnits="userSpaceOnUse" />
    <linearGradient
       inkscape:collect="always"
       xlink:href="#linearGradient836"
       id="linearGradient1251"
       gradientUnits="userSpaceOnUse"
       gradientTransform="translate(15.879084,5)"
       x1="424.37918"
       y1="526.32074"
       x2="426.59464"
       y2="526.32074" />
    <linearGradient
       inkscape:collect="always"
       xlink:href="#linearGradient836"
       id="linearGradient1253"
       gradientUnits="userSpaceOnUse"
       gradientTransform="translate(15.879084,5)"
       x1="416.75659"
       y1="519.70386"
       x2="426.59555"
       y2="519.70386" />
    <linearGradient
       inkscape:collect="always"
       xlink:href="#linearGradient836"
       id="linearGradient1255"
       gradientUnits="userSpaceOnUse"
       gradientTransform="translate(15.879084,5)"
       x1="415.01718"
       y1="510.59494"
       x2="418.61115"
       y2="510.59494" />
    <linearGradient
       inkscape:collect="always"
       xlink:href="#linearGradient836"
       id="linearGradient1257"
       gradientUnits="userSpaceOnUse"
       gradientTransform="translate(15.879084,5)"
       x1="407.18054"
       y1="519.77393"
       x2="416.80774"
       y2="519.77393" />
  </defs>
  <metadata
     id="metadata5458">
    <rdf:RDF>
      <cc:Work
         rdf:about="">
        <dc:format>image/svg+xml</dc:format>
        <dc:type
           rdf:resource="http://purl.org/dc/dcmitype/StillImage" />
      </cc:Work>
    </rdf:RDF>
  </metadata>
  <g
     inkscape:label="Capa 1"
     inkscape:groupmode="layer"
     id="layer1"
     transform="translate(-384.57143,-483.798)">
    <rect
       style="fill:#626f9d;fill-opacity:0.2;stroke:none;stroke-width:1.26075"
       id="center-3"
       width="60.099998"
       height="42"
       x="386.57141"
       y="497.798"
       ry="3.9999959"
       rx="4.0066781" />
    <path
       d="m 442.73833,495.80768 h -29.32672 c -0.64817,0 -1.21496,-0.33361 -1.62011,-0.91817 l -2.1875,-3.33839 c -0.72899,-1.16852 -1.94446,-1.75312 -3.24023,-1.75312 h -14.98741 c -3.72689,0 -6.80495,3.17192 -6.80495,7.01111 v 38.97924 c 0,3.25524 2.59271,6.00966 5.83294,6.00966 h 25.19505 v 0 0 0 0 0 0 0 h 1.94402 v 0 0 0 0 0 0 0 0 0 h 25.19505 c 3.15951,0 5.83294,-2.67126 5.83294,-6.00966 v -33.9712 c 0,-3.33839 -2.59213,-6.00905 -5.83294,-6.00905 z m -25.19491,45.99033 v 0 h -1.94402 v 0 0 z m 29.08353,-6.00947 c 0,2.16999 -1.70156,4.00628 -3.88848,4.00628 h -52.33441 c -2.1062,0 -3.88848,-1.83629 -3.88848,-4.00628 L 386.515,522.3503 v -7.59568 c 0,-2.17001 1.78229,-4.00628 3.88848,-4.00628 h 29.32671 c 1.29634,0 2.51126,-0.66782 3.24024,-1.75312 l 2.10619,-3.33839 c 0.40518,-0.50072 0.97198,-0.91818 1.62012,-0.91818 h 15.06842 c 2.67343,0 4.86107,2.25378 4.86107,5.00835 v 10.93407 z m -4.86107,-32.9696 h -15.06842 c -1.29634,0 -2.51126,0.66781 -3.24023,1.75311 l -2.1062,3.3384 c -0.3238,0.58455 -0.97198,0.91816 -1.62011,0.91816 h -29.32651 c -1.45794,0 -2.83331,0.16967 -3.889,1.70239 v -8.733 c 0,-2 2.05601,-4 4.05601,-4 h 16.00001 l 0.0429,0.0464 2.9571,-0.0464 3.92107,0.0125 h 29.32672 c 2.10619,0 3.88848,1.83628 3.88848,4.00629 v 3.08814 c -1.29578,-1.33503 -2.99676,-2.08609 -4.94122,-2.08609 z"
       id="path64"
       sodipodi:nodetypes="csccsssssccccccccccccccccccsssccccccccccssccsssccssscccsccscccccccssscc"
       style="fill:url(#linearGradient2232);fill-opacity:1;stroke-width:0.146841" />
    <polygon
       points="20.369,59.59 18.427,61.419 21.309,64.302 25.666,55.216 14.468,44.018 7.746,50.739 11.232,54.226 13.218,52.276 13.375,52.437 11.391,54.384 14.769,57.761 17.876,54.654 18.034,54.813 14.927,57.92 18.268,61.26 20.214,59.427 "
       id="polygon2-6"
       transform="matrix(0.27973006,0,0,0.27973006,418.60464,511.78534)"
       style="fill:url(#linearGradient874-3);fill-opacity:1" />
    <polygon
       points="64.219,78.771 61.175,75.728 61.333,75.568 64.378,78.613 67.763,75.229 65.838,73.34 65.995,73.181 67.922,75.07 71.233,71.758 68.161,68.687 68.32,68.527 71.392,71.6 74.832,68.16 72.872,66.309 73.026,66.146 74.991,68.002 77.241,65.751 72.862,56.688 50,79.55 27.985,57.534 23.604,66.597 25.465,68.457 27.492,66.545 27.644,66.707 25.624,68.616 29.067,72.06 32.162,68.964 32.32,69.122 29.225,72.218 32.549,75.542 34.542,73.587 34.698,73.747 32.708,75.7 36.073,79.066 39.136,76.006 39.294,76.164 36.232,79.226 39.722,82.715 41.692,80.783 41.848,80.942 39.88,82.873 43.266,86.258 46.362,83.161 46.521,83.32 43.424,86.416 46.829,89.82 48.756,87.93 48.914,88.089 46.987,89.979 50,92.992 53.463,89.529 51.654,87.753 51.811,87.594 53.621,89.371 57.028,85.964 54.012,82.949 54.17,82.79 57.187,85.806 60.57,82.422 58.675,80.563 58.832,80.402 60.729,82.263 "
       id="polygon4-2"
       transform="matrix(0.27973006,0,0,0.27973006,418.60464,511.78534)"
       style="fill:url(#linearGradient872-3);fill-opacity:1" />
    <polygon
       points="85.682,57.312 89.065,53.926 87.142,52.038 87.298,51.878 89.224,53.768 92.253,50.739 85.532,44.018 75.173,54.376 79.534,63.458 82.023,60.968 80.149,59.203 80.304,59.039 82.184,60.81 85.522,57.47 82.478,54.425 82.637,54.267 "
       id="polygon6-9"
       transform="matrix(0.27973006,0,0,0.27973006,418.60464,511.78534)"
       style="fill:url(#linearGradient870-5);fill-opacity:1" />
    <path
       d="m 441.20124,532.08283 c 0.48812,0 1.27249,0.97514 1.27249,0.97514 l -1.66803,-3.47452 -0.54743,0.54743 z"
       id="path8-1"
       style="fill:url(#linearGradient1251);fill-opacity:1;stroke-width:0.27973" />
    <path
       d="m 434.45051,516.3469 c -0.29288,0.68142 -0.97038,1.15976 -1.75754,1.15976 -0.019,0 -0.038,-8.4e-4 -0.0573,-10e-4 l 2.50134,4.48407 c 0.0154,-0.005 0.0308,-0.009 0.0462,-0.012 0.006,-10e-4 0.0115,-0.002 0.0176,-0.003 0.01,-0.002 0.019,-0.004 0.0291,-0.005 0.007,-10e-4 0.0148,-0.002 0.0224,-0.002 0.008,-8.4e-4 0.0162,-0.002 0.0241,-0.002 0.008,-5.5e-4 0.0154,-5.5e-4 0.0229,-8.4e-4 0.008,-2.8e-4 0.0162,-5.5e-4 0.0235,-5.5e-4 0.002,0 0.004,0 0.006,0 0.0271,2.7e-4 0.054,0.002 0.0811,0.005 10e-4,0 0.002,0 0.003,2.8e-4 0.0274,0.003 0.054,0.008 0.0811,0.0148 0.002,5.5e-4 0.005,10e-4 0.008,0.002 0.026,0.006 0.0523,0.0143 0.078,0.0232 0.004,10e-4 0.007,0.002 0.0103,0.004 0.0257,0.009 0.0515,0.0193 0.0767,0.0308 0.004,0.002 0.007,0.003 0.0112,0.005 0.0255,0.0118 0.0509,0.0246 0.0761,0.0383 0.004,0.002 0.007,0.004 0.0106,0.006 0.0257,0.0143 0.0515,0.0291 0.0767,0.0453 0.003,0.002 0.006,0.004 0.009,0.006 0.026,0.0168 0.0517,0.0344 0.0775,0.0529 0.002,0.002 0.004,0.003 0.006,0.005 0.0266,0.0193 0.0532,0.0397 0.0797,0.061 0,0 0,2.8e-4 2.8e-4,2.8e-4 0.0277,0.0224 0.0548,0.0453 0.0822,0.0694 0,2.7e-4 2.8e-4,2.7e-4 5.6e-4,5.6e-4 0.0266,0.0229 0.052,0.047 0.0778,0.0716 0.002,0.002 0.004,0.003 0.006,0.005 0.0246,0.0238 0.0492,0.0484 0.0738,0.073 0.002,0.003 0.005,0.005 0.007,0.008 0.0241,0.0246 0.0476,0.0495 0.0711,0.0752 0.002,0.002 0.005,0.006 0.008,0.008 0.0232,0.0252 0.0461,0.0512 0.0688,0.0775 0.003,0.002 0.005,0.006 0.008,0.008 0.0229,0.0266 0.0453,0.0532 0.0677,0.0806 0.002,0.002 0.004,0.005 0.006,0.007 0.0227,0.028 0.045,0.0554 0.0671,0.0836 8.4e-4,8.4e-4 0.002,0.002 0.003,0.003 0.0464,0.0587 0.0906,0.11805 0.13371,0.17651 2.8e-4,2.8e-4 2.8e-4,2.8e-4 5.6e-4,5.6e-4 0.0207,0.0285 0.0411,0.0571 0.0613,0.0853 0.001,0.002 0.002,0.004 0.004,0.005 0.019,0.0271 0.0378,0.0546 0.0562,0.0811 0.002,0.002 0.004,0.005 0.005,0.008 0.0176,0.0263 0.0355,0.0526 0.0523,0.078 0.002,0.002 0.004,0.005 0.006,0.008 0.0168,0.0255 0.033,0.0509 0.0489,0.0755 0.002,0.002 0.003,0.005 0.005,0.008 0.0162,0.0249 0.031,0.0492 0.0459,0.073 10e-4,0.002 0.002,0.004 0.003,0.005 0.0154,0.0243 0.0299,0.0478 0.0436,0.0708 8.4e-4,5.6e-4 0.001,0.001 0.002,0.002 0.0291,0.0476 0.0551,0.092 0.0786,0.13204 2.8e-4,2.8e-4 2.8e-4,8.4e-4 5.6e-4,10e-4 0.0112,0.0193 0.0218,0.0378 0.0319,0.0548 5.6e-4,0.002 0.002,0.003 0.002,0.005 0.01,0.0165 0.0179,0.0319 0.0263,0.0464 10e-4,0.002 0.002,0.004 0.003,0.005 0.008,0.014 0.0154,0.0269 0.0218,0.0386 5.6e-4,0.002 0.002,0.003 0.002,0.005 0.006,0.0115 0.0123,0.0221 0.0173,0.0313 5.6e-4,0.001 10e-4,0.002 0.002,0.004 0.005,0.009 0.009,0.0168 0.0126,0.0232 0,2.8e-4 2.8e-4,5.6e-4 5.6e-4,0.001 0.003,0.006 0.006,0.0115 0.008,0.0148 2.8e-4,5.6e-4 2.8e-4,8.4e-4 5.6e-4,0.002 0.001,0.002 0.002,0.004 0.002,0.004 l 3.96433,8.20616 c 0.48813,0 1.27249,0.97514 1.27249,0.97514 z"
       id="path10-2"
       style="fill:url(#linearGradient1253);fill-opacity:1;stroke-width:0.27973" />
    <path
       d="m 432.69297,513.798 c -0.99081,0 -1.79671,0.8059 -1.79671,1.79671 0,0.3105 0.0794,0.60281 0.21875,0.85793 0.28029,0.51358 0.80422,0.87583 1.41543,0.93122 0.0243,0.002 0.0484,0.004 0.0727,0.006 0.0299,10e-4 0.0599,0.002 0.0901,0.002 0.75919,0 1.409,-0.4733 1.67195,-1.14018 0.0806,-0.20364 0.12504,-0.42491 0.12504,-0.65653 -2.8e-4,-0.99105 -0.80674,-1.79695 -1.79726,-1.79695 z m 0,3.01353 c -0.67192,0 -1.21683,-0.54491 -1.21683,-1.21682 0,-0.67192 0.54463,-1.21683 1.21683,-1.21683 0.67219,0 1.2171,0.54491 1.2171,1.21683 0,0.67191 -0.54491,1.21682 -1.2171,1.21682 z"
       id="path12-7"
       style="fill:url(#linearGradient1255);fill-opacity:1;stroke-width:0.27973" />
    <path
       d="m 431.00452,516.48984 -5.17333,10.78807 -2.77157,5.78006 c 0,0 0.78464,-0.97514 1.27221,-0.97514 l 2.14553,-4.44015 1.81965,-3.76629 c 0,0 0.98521,-1.91475 1.91139,-1.91475 0.0629,0 0.12588,0.009 0.18798,0.0277 l 2.29043,-4.14923 -0.19749,-0.34827 c -0.64366,-0.0688 -1.19361,-0.45512 -1.4848,-1.00199 z"
       id="path14-0"
       style="fill:url(#linearGradient1257);fill-opacity:1;stroke-width:0.27973" />
  </g>
</svg>
