<?xml version="1.0" encoding="UTF-8" standalone="no"?>
<svg
   width="64"
   version="1.1"
   height="64"
   id="svg15"
   sodipodi:docname="folder-table.svg"
   inkscape:version="1.1.1 (3bf5ae0d25, 2021-09-20)"
   xmlns:inkscape="http://www.inkscape.org/namespaces/inkscape"
   xmlns:sodipodi="http://sodipodi.sourceforge.net/DTD/sodipodi-0.dtd"
   xmlns:xlink="http://www.w3.org/1999/xlink"
   xmlns="http://www.w3.org/2000/svg"
   xmlns:svg="http://www.w3.org/2000/svg"
   xmlns:rdf="http://www.w3.org/1999/02/22-rdf-syntax-ns#"
   xmlns:cc="http://creativecommons.org/ns#"
   xmlns:dc="http://purl.org/dc/elements/1.1/">
  <sodipodi:namedview
     pagecolor="#ffffff"
     bordercolor="#666666"
     borderopacity="1"
     objecttolerance="10"
     gridtolerance="10"
     guidetolerance="10"
     inkscape:pageopacity="0"
     inkscape:pageshadow="2"
     inkscape:window-width="1920"
     inkscape:window-height="1007"
     id="namedview17"
     showgrid="true"
     inkscape:zoom="9.8125"
     inkscape:cx="32"
     inkscape:cy="31.949045"
     inkscape:window-x="0"
     inkscape:window-y="0"
     inkscape:window-maximized="1"
     inkscape:current-layer="layer1"
     inkscape:document-rotation="0"
     inkscape:pagecheckerboard="0">
    <inkscape:grid
       type="xygrid"
       id="grid850" />
  </sodipodi:namedview>
  <defs
     id="defs5455">
    <linearGradient
       inkscape:collect="always"
       xlink:href="#linearGradient2230"
       id="linearGradient2232"
       x1="384.57144"
       y1="515.79797"
       x2="448.57144"
       y2="515.79797"
       gradientUnits="userSpaceOnUse"
       gradientTransform="translate(-1.8e-5)" />
    <linearGradient
       inkscape:collect="always"
       id="linearGradient2230">
      <stop
         style="stop-color:#4e99ca;stop-opacity:0.80000001"
         offset="0"
         id="stop2226" />
      <stop
         style="stop-color:#20ffff;stop-opacity:0.80000001"
         offset="0.50507295"
         id="stop2332" />
      <stop
         style="stop-color:#ffaeff;stop-opacity:0.69"
         offset="1"
         id="stop2228" />
    </linearGradient>
    <linearGradient
       inkscape:collect="always"
       xlink:href="#linearGradient2230"
       id="linearGradient1063"
       gradientUnits="userSpaceOnUse"
       gradientTransform="translate(15.822,4.99677)"
       x1="404.74942"
       y1="520.80121"
       x2="428.74942"
       y2="520.80121" />
    <linearGradient
       inkscape:collect="always"
       xlink:href="#linearGradient2230"
       id="linearGradient1065"
       gradientUnits="userSpaceOnUse"
       gradientTransform="translate(15.822,4.99677)"
       x1="408.76718"
       y1="520.82721"
       x2="424.86771"
       y2="520.82721" />
  </defs>
  <metadata
     id="metadata5458">
    <rdf:RDF>
      <cc:Work
         rdf:about="">
        <dc:format>image/svg+xml</dc:format>
        <dc:type
           rdf:resource="http://purl.org/dc/dcmitype/StillImage" />
      </cc:Work>
    </rdf:RDF>
  </metadata>
  <g
     inkscape:label="Capa 1"
     inkscape:groupmode="layer"
     id="layer1"
     transform="translate(-384.57143,-483.798)">
    <rect
       style="fill:#626f9d;fill-opacity:0.2;stroke:none;stroke-width:1.26075"
       id="center-3"
       width="60.099998"
       height="42"
       x="386.57138"
       y="497.79794"
       ry="3.9999959"
       rx="4.0066781" />
    <path
       d="m 442.73833,495.80768 h -29.32672 c -0.64817,0 -1.21496,-0.33361 -1.62011,-0.91817 l -2.1875,-3.33839 c -0.72899,-1.16852 -1.94446,-1.75312 -3.24023,-1.75312 h -14.98741 c -3.72689,0 -6.80495,3.17192 -6.80495,7.01111 v 38.97924 c 0,3.25524 2.59271,6.00966 5.83294,6.00966 h 25.19505 v 0 0 0 0 0 0 0 h 1.94402 v 0 0 0 0 0 0 0 0 0 h 25.19505 c 3.15951,0 5.83294,-2.67126 5.83294,-6.00966 v -33.9712 c 0,-3.33839 -2.59213,-6.00905 -5.83294,-6.00905 z m -25.19491,45.99033 v 0 h -1.94402 v 0 0 z m 29.08353,-6.00947 c 0,2.16999 -1.70156,4.00628 -3.88848,4.00628 h -52.33441 c -2.1062,0 -3.88848,-1.83629 -3.88848,-4.00628 L 386.515,522.3503 v -7.59568 c 0,-2.17001 1.78229,-4.00628 3.88848,-4.00628 h 29.32671 c 1.29634,0 2.51126,-0.66782 3.24024,-1.75312 l 2.10619,-3.33839 c 0.40518,-0.50072 0.97198,-0.91818 1.62012,-0.91818 h 15.06842 c 2.67343,0 4.86107,2.25378 4.86107,5.00835 v 10.93407 z m -4.86107,-32.9696 h -15.06842 c -1.29634,0 -2.51126,0.66781 -3.24023,1.75311 l -2.1062,3.3384 c -0.3238,0.58455 -0.97198,0.91816 -1.62011,0.91816 h -29.32651 c -1.45794,0 -2.83331,0.16967 -3.889,1.70239 v -8.733 c 0,-2 2.05601,-4 4.05601,-4 h 16.00001 l 0.0429,0.0464 2.9571,-0.0464 3.92107,0.0125 h 29.32672 c 2.10619,0 3.88848,1.83628 3.88848,4.00629 v 3.08814 c -1.29578,-1.33503 -2.99676,-2.08609 -4.94122,-2.08609 z"
       id="path64"
       sodipodi:nodetypes="csccsssssccccccccccccccccccsssccccccccccssccsssccssscccsccscccccccssscc"
       style="fill:url(#linearGradient2232);fill-opacity:1;stroke-width:0.146841" />
    <path
       fill-rule="evenodd"
       clip-rule="evenodd"
       d="m 441.14371,537.798 h -12.858 c -0.47271,0 -0.85628,-0.38465 -0.85628,-0.85715 0,-0.47378 0.38357,-0.85757 0.85628,-0.85757 h 12.858 c 0.94672,0 1.71429,-0.76757 1.71429,-1.71428 v -17.14286 c 0,-0.94672 -0.76757,-1.71386 -1.71429,-1.71386 h -17.14328 c -0.9465,0 -1.7145,0.76714 -1.7145,1.71386 v 16.28571 c 0,0.47379 -0.38336,0.85715 -0.85715,0.85715 -0.47292,0 -0.85735,-0.38336 -0.85735,-0.85715 v -16.28571 c 0,-1.89343 1.53578,-3.42814 3.429,-3.42814 h 17.14328 c 1.893,0 3.42772,1.53471 3.42772,3.42814 V 534.369 c 0,1.89342 -1.53472,3.429 -3.42772,3.429 z m -16.28593,-1.71472 c 0.47272,0 0.85715,0.38379 0.85715,0.85757 0,0.4725 -0.38443,0.85715 -0.85715,0.85715 -0.47378,0 -0.85735,-0.38465 -0.85735,-0.85715 0,-0.47378 0.38357,-0.85757 0.85735,-0.85757 z"
       id="path2-5"
       style="fill:url(#linearGradient1063);fill-opacity:1.0;stroke-width:0.0535714" />
    <path
       fill-rule="evenodd"
       clip-rule="evenodd"
       d="m 438.67697,533.8735 h -3.52181 c -0.27759,0 -0.50337,-0.22552 -0.50337,-0.50312 0,-0.27809 0.22578,-0.50312 0.50337,-0.50312 h 3.27025 c 0.69475,0 1.25781,-0.56305 1.25781,-1.2578 v -3.27026 c 0,-0.2781 0.22502,-0.50362 0.50312,-0.50362 0.2781,0 0.50312,0.22552 0.50312,0.50362 v 3.52182 c 0,1.1114 -0.90109,2.01248 -2.01249,2.01248 z m -13.58426,-11.06844 c 0.27809,0 0.50324,0.22503 0.50324,0.50309 0,0.27734 -0.22515,0.50262 -0.50324,0.50262 -0.27798,0 -0.50313,-0.22528 -0.50313,-0.50262 0,-0.27806 0.22515,-0.50309 0.50313,-0.50309 z m 15.57807,2.27458 c -0.006,0.0541 -0.0151,0.10786 -0.0266,0.16018 -0.005,0.0256 -0.0129,0.0496 -0.0192,0.0746 -0.0114,0.0437 -0.0226,0.088 -0.0369,0.13068 -0.006,0.0187 -0.0133,0.0373 -0.0202,0.056 -0.0182,0.0491 -0.0364,0.0978 -0.0584,0.14472 -0.005,0.0126 -0.0118,0.0241 -0.0175,0.0364 -0.0245,0.0511 -0.0509,0.1019 -0.0793,0.15033 -0.006,0.0104 -0.0122,0.0199 -0.0181,0.03 -0.0309,0.0501 -0.0636,0.0992 -0.0987,0.14679 -0.005,0.006 -0.0106,0.0138 -0.015,0.0202 -0.0381,0.0497 -0.0779,0.0983 -0.12016,0.14395 -0.003,0.004 -0.007,0.009 -0.0111,0.0122 -0.0457,0.0496 -0.0944,0.0967 -0.14493,0.14151 -0.35474,0.312 -0.81855,0.50312 -1.32806,0.50312 v 0.0256 c -0.0813,-0.0162 -0.16559,-0.0256 -0.25156,-0.0256 h -3.52176 c -0.69472,0 -1.25778,0.56305 -1.25778,1.25776 v 3.52182 c 0,0.0859 0.01,0.1705 0.0258,0.25156 h -0.0258 c 0,0.50951 -0.19087,0.97332 -0.50312,1.32805 -0.0448,0.0506 -0.0919,0.0993 -0.1415,0.14493 -0.003,0.003 -0.007,0.006 -0.0118,0.011 -0.046,0.0422 -0.0946,0.0821 -0.14421,0.11985 -0.006,0.005 -0.0138,0.0106 -0.0201,0.0151 -0.0477,0.0349 -0.0965,0.0678 -0.14679,0.0988 -0.0104,0.006 -0.0198,0.0126 -0.0299,0.0182 -0.0485,0.0285 -0.0993,0.0546 -0.15047,0.0791 -0.0126,0.006 -0.0241,0.0126 -0.0364,0.0177 -0.0469,0.0221 -0.0954,0.0403 -0.14458,0.0584 -0.0187,0.006 -0.0373,0.0143 -0.056,0.0202 -0.0428,0.0143 -0.087,0.0256 -0.13069,0.0369 -0.0252,0.006 -0.0491,0.0138 -0.0747,0.0192 -0.0521,0.0114 -0.10615,0.0196 -0.16005,0.0265 -0.015,0.002 -0.0288,0.005 -0.0442,0.006 -0.0716,0.009 -0.14468,0.0126 -0.21826,0.0126 h -5.03087 c -1.11148,-1.1e-4 -2.0127,-0.9012 -2.0127,-2.01259 v -5.03116 c 0,-1.11152 0.90122,-2.01261 2.0127,-2.01261 h 0.50325 3.26988 c 0.69488,0 1.25781,-0.56306 1.25781,-1.2578 v -3.52182 c 0,-0.69471 -0.56293,-1.25777 -1.25781,-1.25777 h -3.52169 c -0.69471,0 -1.25767,0.56306 -1.25767,1.25777 v 1.25781 c 0,0.27785 -0.22515,0.50312 -0.50325,0.50312 -0.27798,0 -0.50312,-0.22527 -0.50312,-0.50312 v -1.50915 c 3e-5,-1.1116 0.90125,-2.0127 2.01273,-2.0127 h 4.02507 c 0.0736,0 0.14569,0.003 0.21716,0.0118 0.0166,0.001 0.0325,0.006 0.0491,0.009 0.0529,0.006 0.10514,0.015 0.15684,0.026 0.024,0.005 0.0465,0.0126 0.0704,0.0182 0.0454,0.0114 0.0902,0.0226 0.13402,0.0373 0.018,0.006 0.0362,0.0135 0.0545,0.0199 0.049,0.0182 0.0987,0.0369 0.14615,0.0587 0.0129,0.006 0.0257,0.0118 0.0385,0.0181 0.0501,0.0239 0.0998,0.0501 0.14776,0.0784 0.0105,0.006 0.0203,0.0126 0.0305,0.0187 0.0501,0.0309 0.0993,0.0634 0.14676,0.0987 0.006,0.005 0.0139,0.0104 0.0203,0.015 0.0497,0.0378 0.0982,0.0779 0.14408,0.11983 0.003,0.003 0.007,0.007 0.012,0.011 0.0497,0.046 0.0965,0.0944 0.14137,0.14518 0.31225,0.35473 0.50325,0.81855 0.50325,1.32802 h 0.0257 c -0.0166,0.081 -0.0257,0.16534 -0.0257,0.25131 v 3.77313 c 0,1.11164 -0.90122,2.01273 -2.01223,2.01273 h -3.77367 c -0.69472,0 -1.25768,0.56318 -1.25768,1.25793 v 4.52803 c 0,0.69474 0.56293,1.2578 1.25768,1.2578 h 4.52831 c 0.69471,0 1.25768,-0.56306 1.25768,-1.2578 v -3.77422 c 0,-1.11136 0.90112,-2.01207 2.01223,-2.01207 h 3.77359 c 0.69476,0 1.25781,-0.56281 1.25781,-1.25755 v -4.52835 c 0,-0.69472 -0.56305,-1.25777 -1.25781,-1.25777 h -4.27625 c -0.27785,0 -0.50337,-0.22502 -0.50337,-0.50312 0,-0.2781 0.22552,-0.50312 0.50337,-0.50312 h 4.52777 c 1.1114,0 2.01249,0.90109 2.01249,2.0127 v 5.03093 c 0,0.0735 -0.004,0.14666 -0.0126,0.21817 -10e-4,0.0155 -0.004,0.0294 -0.006,0.0442 z"
       id="path2-3-3-3"
       style="fill:url(#linearGradient1065);fill-opacity:1.0;stroke-width:0.0314446" />
  </g>
</svg>
