<?xml version="1.0" encoding="UTF-8" standalone="no"?>
<svg
   width="64"
   version="1.1"
   height="64"
   id="svg15"
   sodipodi:docname="folder-Pop_OS.svg"
   inkscape:version="1.1.1 (3bf5ae0d25, 2021-09-20)"
   xmlns:inkscape="http://www.inkscape.org/namespaces/inkscape"
   xmlns:sodipodi="http://sodipodi.sourceforge.net/DTD/sodipodi-0.dtd"
   xmlns:xlink="http://www.w3.org/1999/xlink"
   xmlns="http://www.w3.org/2000/svg"
   xmlns:svg="http://www.w3.org/2000/svg"
   xmlns:rdf="http://www.w3.org/1999/02/22-rdf-syntax-ns#"
   xmlns:cc="http://creativecommons.org/ns#"
   xmlns:dc="http://purl.org/dc/elements/1.1/">
  <sodipodi:namedview
     pagecolor="#ffffff"
     bordercolor="#666666"
     borderopacity="1"
     objecttolerance="10"
     gridtolerance="10"
     guidetolerance="10"
     inkscape:pageopacity="0"
     inkscape:pageshadow="2"
     inkscape:window-width="1920"
     inkscape:window-height="1007"
     id="namedview17"
     showgrid="true"
     inkscape:zoom="9.8125"
     inkscape:cx="47.490446"
     inkscape:cy="31.949045"
     inkscape:window-x="0"
     inkscape:window-y="0"
     inkscape:window-maximized="1"
     inkscape:current-layer="layer1"
     inkscape:document-rotation="0"
     inkscape:pagecheckerboard="0">
    <inkscape:grid
       type="xygrid"
       id="grid850" />
  </sodipodi:namedview>
  <defs
     id="defs5455">
    <linearGradient
       inkscape:collect="always"
       xlink:href="#linearGradient2230"
       id="linearGradient926"
       x1="423.31808"
       y1="517.20392"
       x2="426.5556"
       y2="517.20392"
       gradientUnits="userSpaceOnUse"
       gradientTransform="matrix(1.1835365,0,0,1.1835501,-60.320144,-85.64503)" />
    <linearGradient
       inkscape:collect="always"
       xlink:href="#linearGradient2230"
       id="linearGradient928"
       x1="413.9173"
       y1="518.79504"
       x2="417.81851"
       y2="518.79504"
       gradientUnits="userSpaceOnUse"
       gradientTransform="matrix(1.1835365,0,0,1.1835501,-60.320144,-85.64503)" />
    <linearGradient
       inkscape:collect="always"
       xlink:href="#linearGradient2230"
       id="linearGradient930"
       x1="418.5582"
       y1="518.65289"
       x2="422.60925"
       y2="518.65289"
       gradientUnits="userSpaceOnUse"
       gradientTransform="matrix(1.1835365,0,0,1.1835501,-60.320144,-85.64503)" />
    <linearGradient
       inkscape:collect="always"
       xlink:href="#linearGradient2230"
       id="linearGradient932"
       x1="406.31744"
       y1="517.87299"
       x2="413.16266"
       y2="517.87299"
       gradientUnits="userSpaceOnUse"
       gradientTransform="matrix(1.1835365,0,0,1.1835501,-60.320144,-85.64503)" />
    <linearGradient
       inkscape:collect="always"
       xlink:href="#linearGradient2230"
       id="linearGradient934"
       x1="420.06085"
       y1="524.62439"
       x2="426.59094"
       y2="524.62439"
       gradientUnits="userSpaceOnUse"
       gradientTransform="matrix(1.1835365,0,0,1.1835501,-60.320144,-85.64503)" />
    <linearGradient
       inkscape:collect="always"
       xlink:href="#linearGradient2230"
       id="linearGradient936"
       x1="415.65665"
       y1="526.09137"
       x2="419.34311"
       y2="526.09137"
       gradientUnits="userSpaceOnUse"
       gradientTransform="matrix(1.1835365,0,0,1.1835501,-60.320144,-85.64503)" />
    <linearGradient
       inkscape:collect="always"
       xlink:href="#linearGradient2230"
       id="linearGradient2232"
       x1="384.57144"
       y1="515.79797"
       x2="448.57144"
       y2="515.79797"
       gradientUnits="userSpaceOnUse"
       gradientTransform="translate(2.0000002e-6)" />
    <linearGradient
       inkscape:collect="always"
       id="linearGradient2230">
      <stop
         style="stop-color:#4e99ca;stop-opacity:0.80000001"
         offset="0"
         id="stop2226" />
      <stop
         style="stop-color:#20ffff;stop-opacity:0.80000001"
         offset="0.50507295"
         id="stop2332" />
      <stop
         style="stop-color:#ffaeff;stop-opacity:0.69"
         offset="1"
         id="stop2228" />
    </linearGradient>
  </defs>
  <metadata
     id="metadata5458">
    <rdf:RDF>
      <cc:Work
         rdf:about="">
        <dc:format>image/svg+xml</dc:format>
        <dc:type
           rdf:resource="http://purl.org/dc/dcmitype/StillImage" />
      </cc:Work>
    </rdf:RDF>
  </metadata>
  <g
     inkscape:label="Capa 1"
     inkscape:groupmode="layer"
     id="layer1"
     transform="translate(-384.57143,-483.798)">
    <path
       style="fill:url(#linearGradient926);fill-opacity:1.0;stroke-width:0.023396"
       id="path2-3-3"
       d="m 442.01196,530.18621 c -0.0458,0.18684 -0.13883,0.35225 -0.30081,0.45631 -0.25471,0.1633 -0.56483,0.11585 -0.78473,-0.0828 -0.20597,-0.18444 -0.27545,-0.49639 -0.21067,-0.76613 0.0668,-0.28151 0.28008,-0.5298 0.55323,-0.60788 0.60873,-0.17251 0.8611,0.5037 0.74298,1.00049 z m -0.37263,-1.9203 c -0.37722,-0.15382 -0.2477,-2.17561 0.0975,-4.63006 0.0975,-0.68586 0.26394,-1.01011 0.45144,-1.1757 0.26848,-0.23394 0.75687,-0.24358 1.08775,-0.1939 0.37966,0.0545 0.74311,0.23665 1.01851,0.50853 0.24306,0.24144 0.2708,0.48715 0.18741,0.80657 -0.13644,0.50853 -0.37024,0.99568 -0.59486,1.47072 -0.052,0.11575 -0.51852,1.01685 -0.58089,1.12795 -1.12259,2.01966 -1.34713,2.21589 -1.66647,2.08589 z" />
    <path
       style="fill:url(#linearGradient928);fill-opacity:1.0;stroke-width:0.023396"
       id="path4"
       d="m 434.02426,527.35539 c 0.22216,0.96981 0.199,2.03386 0.006,2.79998 -0.17814,0.72363 -0.66189,1.37155 -1.43036,1.5891 -0.67371,0.19162 -1.4582,0.0512 -1.93977,-0.4209 -0.79156,-0.77568 -1.25447,-2.59661 -1.0485,-3.91853 0.16671,-1.06156 0.72684,-2.42153 1.95596,-2.48081 0.0801,-0.003 0.15739,-0.002 0.23593,0.003 1.25232,0.1159 1.93511,1.19438 2.21757,2.42651 z m -2.2636,2.20638 c 0.0683,0.0135 0.13878,0.0135 0.20818,-0.006 0.2338,-0.0677 0.36807,-0.31695 0.43051,-0.55807 0.0956,-0.36658 0.0817,-0.7615 -0.0441,-1.12098 -0.0636,-0.18213 -0.15486,-0.35948 -0.29631,-0.49193 -0.49751,-0.46581 -0.995,0.0181 -1.08078,0.56993 -0.0668,0.43047 0.0312,0.92941 0.29387,1.27709 0.12272,0.1608 0.29879,0.30026 0.48628,0.33338 z" />
    <path
       style="fill:url(#linearGradient930);fill-opacity:1.0;stroke-width:0.023396"
       id="path6"
       d="m 436.7347,529.41061 c -0.002,1.78995 0.17351,3.15921 -0.59726,3.32245 -0.62489,0.12998 -0.60401,-0.43042 -0.65274,-0.90104 -0.18506,-1.82316 -0.35402,-4.85236 -0.42589,-6.68539 0.0505,-0.78753 0.56719,-1.2699 1.10417,-1.38792 0.82864,-0.18215 1.71273,-0.13032 2.44653,0.3333 1.4513,0.91769 1.56704,2.60134 0.68748,3.97519 -0.48149,0.74967 -1.93735,1.29374 -2.56229,1.24623 z m 0.18509,-4.01311 c -0.0898,0.0151 -0.23836,0.0544 -0.28008,0.14636 -0.0995,0.21045 -0.0936,1.5469 0.0817,2.10723 0.0295,0.0933 0.0887,0.17963 0.18051,0.21274 0.3287,0.12304 0.625,-0.28857 0.75925,-0.53681 0.18747,-0.34523 0.24755,-0.75191 0.12955,-1.13044 -0.11138,-0.35225 -0.45595,-0.86318 -0.87025,-0.79908 z" />
    <path
       style="fill:url(#linearGradient932);fill-opacity:1.0;stroke-width:0.023396"
       id="path8"
       d="m 428.43436,526.2865 c -0.54394,1.17552 -1.44667,2.10941 -2.69646,2.57072 0.35896,0.95774 0.72436,1.90374 1.08085,2.85894 0.19919,0.51546 0.38891,1.0807 0.2152,1.58912 -0.18053,0.52028 -0.88386,0.66449 -1.39554,0.11137 -0.98387,-1.06899 -4.30978,-7.84169 -4.55509,-8.35023 -0.20849,-0.43746 -0.52063,-0.90577 -0.5117,-1.41176 0.0163,-0.76156 1.1692,-1.53251 1.72192,-1.92722 0.77332,-0.55126 1.66663,-0.92731 2.62261,-0.92944 0.74542,0 1.38185,0.20832 1.94671,0.57687 0.86556,0.56783 1.46751,1.47321 1.68983,2.4972 0.19421,0.9011 0.15264,1.82362 -0.11827,2.4147 m -2.53434,-1.28658 c -0.19451,-0.72108 -0.63435,-1.38557 -1.18761,-1.85138 -0.12004,-0.10162 -0.25005,-0.19657 -0.40008,-0.24836 -1.03703,-0.34775 -0.58799,1.42352 -0.41901,1.8706 0.23372,0.62658 0.588,1.41872 1.0623,1.8916 0.10385,0.10377 0.22689,0.19641 0.36796,0.22472 0.2153,0.0464 0.41428,-0.10921 0.52328,-0.28843 0.0887,-0.14904 0.1247,-0.32638 0.14582,-0.49889 0.0374,-0.36645 0.003,-0.74036 -0.0939,-1.09986 z" />
    <path
       style="fill:url(#linearGradient934);fill-opacity:1.0;stroke-width:0.023396"
       id="path10"
       d="m 440.83471,535.28868 c -0.003,1.03825 -0.62494,2.07634 -1.99297,2.07634 -1.36787,0 -2.00439,-1.02152 -2.00439,-2.06449 0,-1.30064 0.88648,-2.10467 2.03223,-2.10467 1.32863,0.0133 1.97672,1.01922 1.96513,2.09282 z m -1.96513,-1.43772 c -0.8587,0 -1.34026,0.61018 -1.34481,1.44253 0,0.72364 0.39575,1.40232 1.32852,1.40232 0.9328,0 1.28926,-0.73538 1.28926,-1.40941 0.0135,-0.70005 -0.35174,-1.41888 -1.27297,-1.43544 z m 2.53909,2.98197 c 0,0.15378 0.003,-0.73072 0,-0.86546 h 0.62959 l 0.0459,0.54159 c 0.20609,0.12058 0.52543,0.21048 0.78699,0.21048 0.48614,0 0.99303,-0.12544 0.99303,-0.61021 -0.0163,-0.43986 -0.58099,-0.52968 -1.03694,-0.57707 -0.77541,-0.0812 -1.40034,-0.27416 -1.40034,-1.16342 0,-0.79225 0.87719,-1.18701 1.52991,-1.18701 0.52544,-0.0134 0.89808,0.0709 1.37254,0.46097 0,0.3194 -0.003,0.50853 -0.003,0.8277 h -0.60861 l -0.0374,-0.52486 c -0.24535,-0.12071 -0.49767,-0.1538 -0.69204,-0.14899 -0.41897,0.003 -0.8657,0.20564 -0.8657,0.56513 0,0.35229 0.28934,0.44927 0.80315,0.52504 0.83797,0.11357 1.6457,0.30733 1.6457,1.22019 -0.003,0.99787 -0.92123,1.26047 -1.70817,1.26047 -0.59946,0.002 -0.97446,-0.11144 -1.44893,-0.53455 z"
       inkscape:connector-curvature="0" />
    <path
       style="fill:url(#linearGradient936);fill-opacity:1.0;stroke-width:0.023396"
       id="path12"
       d="m 435.98786,537.02457 c 0,0.1821 -0.14358,0.32863 -0.32167,0.32863 h -3.71968 c -0.17825,0 -0.32163,-0.14653 -0.32163,-0.32863 v -0.0298 c 0,-0.18216 0.14338,-0.32855 0.32163,-0.32855 h 3.71968 c 0.17809,0 0.32167,0.14639 0.32167,0.32855 z"
       inkscape:connector-curvature="0" />
    <rect
       style="fill:#626f9d;fill-opacity:0.2;stroke:none;stroke-width:1.26075"
       id="center-3"
       width="60.099998"
       height="42"
       x="386.57141"
       y="497.79797"
       ry="3.9999959"
       rx="4.0066781" />
    <path
       d="m 442.73835,495.80768 h -29.32672 c -0.64817,0 -1.21496,-0.33361 -1.62011,-0.91817 l -2.1875,-3.33839 c -0.72899,-1.16852 -1.94446,-1.75312 -3.24023,-1.75312 h -14.98741 c -3.72689,0 -6.80495,3.17192 -6.80495,7.01111 v 38.97924 c 0,3.25524 2.59271,6.00966 5.83294,6.00966 h 25.19505 v 0 0 0 0 0 0 0 h 1.94402 v 0 0 0 0 0 0 0 0 0 h 25.19505 c 3.15951,0 5.83294,-2.67126 5.83294,-6.00966 v -33.9712 c 0,-3.33839 -2.59213,-6.00905 -5.83294,-6.00905 z m -25.19491,45.99033 v 0 h -1.94402 v 0 0 z m 29.08353,-6.00947 c 0,2.16999 -1.70156,4.00628 -3.88848,4.00628 h -52.33441 c -2.1062,0 -3.88848,-1.83629 -3.88848,-4.00628 l -5.8e-4,-13.43824 v -7.59568 c 0,-2.17001 1.78229,-4.00628 3.88848,-4.00628 h 29.32671 c 1.29634,0 2.51126,-0.66782 3.24024,-1.75312 l 2.10619,-3.33839 c 0.40518,-0.50072 0.97198,-0.91818 1.62012,-0.91818 h 15.06842 c 2.67343,0 4.86107,2.25378 4.86107,5.00835 v 10.93407 z m -4.86107,-32.9696 h -15.06842 c -1.29634,0 -2.51126,0.66781 -3.24023,1.75311 l -2.1062,3.3384 c -0.3238,0.58455 -0.97198,0.91816 -1.62011,0.91816 h -29.32651 c -1.45794,0 -2.83331,0.16967 -3.889,1.70239 v -8.733 c 0,-2 2.05601,-4 4.05601,-4 h 16.00001 l 0.0429,0.0464 2.9571,-0.0464 3.92107,0.0125 h 29.32672 c 2.10619,0 3.88848,1.83628 3.88848,4.00629 v 3.08814 c -1.29578,-1.33503 -2.99676,-2.08609 -4.94122,-2.08609 z"
       id="path64"
       sodipodi:nodetypes="csccsssssccccccccccccccccccsssccccccccccssccsssccssscccsccscccccccssscc"
       style="fill:url(#linearGradient2232);fill-opacity:1;stroke-width:0.146841" />
  </g>
</svg>
