<?xml version="1.0" encoding="UTF-8" standalone="no"?>
<svg
   width="64"
   version="1.1"
   height="64"
   id="svg15"
   sodipodi:docname="folder-podcast.svg"
   inkscape:version="1.1.1 (3bf5ae0d25, 2021-09-20)"
   xmlns:inkscape="http://www.inkscape.org/namespaces/inkscape"
   xmlns:sodipodi="http://sodipodi.sourceforge.net/DTD/sodipodi-0.dtd"
   xmlns:xlink="http://www.w3.org/1999/xlink"
   xmlns="http://www.w3.org/2000/svg"
   xmlns:svg="http://www.w3.org/2000/svg"
   xmlns:rdf="http://www.w3.org/1999/02/22-rdf-syntax-ns#"
   xmlns:cc="http://creativecommons.org/ns#"
   xmlns:dc="http://purl.org/dc/elements/1.1/">
  <sodipodi:namedview
     pagecolor="#ffffff"
     bordercolor="#666666"
     borderopacity="1"
     objecttolerance="10"
     gridtolerance="10"
     guidetolerance="10"
     inkscape:pageopacity="0"
     inkscape:pageshadow="2"
     inkscape:window-width="1920"
     inkscape:window-height="1007"
     id="namedview17"
     showgrid="true"
     inkscape:zoom="9.8124999"
     inkscape:cx="13.452229"
     inkscape:cy="33.477707"
     inkscape:window-x="0"
     inkscape:window-y="0"
     inkscape:window-maximized="1"
     inkscape:current-layer="layer1"
     inkscape:pagecheckerboard="0">
    <inkscape:grid
       type="xygrid"
       id="grid874" />
  </sodipodi:namedview>
  <defs
     id="defs5455">
    <linearGradient
       inkscape:collect="always"
       id="linearGradient947">
      <stop
         style="stop-color:#ff9955;stop-opacity:1"
         offset="0"
         id="stop943" />
      <stop
         style="stop-color:#ffe6d5;stop-opacity:1"
         offset="0.53236276"
         id="stop1369" />
      <stop
         style="stop-color:#ffccaa;stop-opacity:1"
         offset="1"
         id="stop945" />
    </linearGradient>
    <linearGradient
       id="linearGradient4194">
      <stop
         style="stop-color:#b5006a"
         id="stop4196" />
      <stop
         offset="1"
         style="stop-color:#c70073"
         id="stop4198" />
    </linearGradient>
    <linearGradient
       inkscape:collect="always"
       xlink:href="#linearGradient2230"
       id="linearGradient2232"
       x1="384.57144"
       y1="515.79797"
       x2="448.57144"
       y2="515.79797"
       gradientUnits="userSpaceOnUse"
       gradientTransform="translate(1.8600002e-6)" />
    <linearGradient
       inkscape:collect="always"
       id="linearGradient2230">
      <stop
         style="stop-color:#ffccaa;stop-opacity:1"
         offset="0"
         id="stop2226" />
      <stop
         style="stop-color:#ffe6d5;stop-opacity:1"
         offset="0.50507295"
         id="stop2332" />
      <stop
         style="stop-color:#ffb3ff;stop-opacity:1"
         offset="1"
         id="stop2228" />
    </linearGradient>
    <linearGradient
       inkscape:collect="always"
       xlink:href="#linearGradient947"
       id="linearGradient949"
       x1="420.57143"
       y1="525.79811"
       x2="444.57147"
       y2="525.79811"
       gradientUnits="userSpaceOnUse" />
  </defs>
  <metadata
     id="metadata5458">
    <rdf:RDF>
      <cc:Work
         rdf:about="">
        <dc:format>image/svg+xml</dc:format>
        <dc:type
           rdf:resource="http://purl.org/dc/dcmitype/StillImage" />
      </cc:Work>
    </rdf:RDF>
  </metadata>
  <g
     inkscape:label="Capa 1"
     inkscape:groupmode="layer"
     id="layer1"
     transform="translate(-384.57143,-483.798)">
    <rect
       style="fill:#626f9d;fill-opacity:0.2;stroke:none;stroke-width:1.26075"
       id="center-3"
       width="60.099998"
       height="42"
       x="386.57141"
       y="497.79794"
       ry="3.9999959"
       rx="4.0066781" />
    <path
       d="m 442.73835,495.80768 h -29.32672 c -0.64817,0 -1.21496,-0.33361 -1.62011,-0.91817 l -2.1875,-3.33839 c -0.72899,-1.16852 -1.94446,-1.75312 -3.24023,-1.75312 h -14.98741 c -3.72689,0 -6.80495,3.17192 -6.80495,7.01111 v 38.97924 c 0,3.25524 2.59271,6.00966 5.83294,6.00966 h 25.19505 v 0 0 0 0 0 0 0 h 1.94402 v 0 0 0 0 0 0 0 0 0 h 25.19505 c 3.15951,0 5.83294,-2.67126 5.83294,-6.00966 v -33.9712 c 0,-3.33839 -2.59213,-6.00905 -5.83294,-6.00905 z m -25.19491,45.99033 v 0 h -1.94402 v 0 0 z m 29.08353,-6.00947 c 0,2.16999 -1.70156,4.00628 -3.88848,4.00628 h -52.33441 c -2.1062,0 -3.88848,-1.83629 -3.88848,-4.00628 l -5.8e-4,-13.43824 v -7.59568 c 0,-2.17001 1.78229,-4.00628 3.88848,-4.00628 h 29.32671 c 1.29634,0 2.51126,-0.66782 3.24024,-1.75312 l 2.10619,-3.33839 c 0.40518,-0.50072 0.97198,-0.91818 1.62012,-0.91818 h 15.06842 c 2.67343,0 4.86107,2.25378 4.86107,5.00835 v 10.93407 z m -4.86107,-32.9696 h -15.06842 c -1.29634,0 -2.51126,0.66781 -3.24023,1.75311 l -2.1062,3.3384 c -0.3238,0.58455 -0.97198,0.91816 -1.62011,0.91816 h -29.32651 c -1.45794,0 -2.83331,0.16967 -3.889,1.70239 v -8.733 c 0,-2 2.05601,-4 4.05601,-4 h 16.00001 l 0.0429,0.0464 2.9571,-0.0464 3.92107,0.0125 h 29.32672 c 2.10619,0 3.88848,1.83628 3.88848,4.00629 v 3.08814 c -1.29578,-1.33503 -2.99676,-2.08609 -4.94122,-2.08609 z"
       id="path64"
       sodipodi:nodetypes="csccsssssccccccccccccccccccsssccccccccccssccsssccssscccsccscccccccssscc"
       style="fill:url(#linearGradient2232);fill-opacity:1;stroke-width:0.146841;opacity:0.802" />
    <path
       clip-rule="evenodd"
       d="m 444.57147,534.79849 c 0,1.65641 -1.34324,2.99932 -2.99997,2.99932 h -1.50004 c -1.65744,0 -3.00035,-1.34291 -3.00035,-2.99932 0,-0.36839 -0.0194,-0.73166 -0.0479,-1.09246 -0.005,-0.0604 -0.007,-0.12122 -0.0132,-0.18089 -0.0323,-0.34204 -0.0784,-0.68113 -0.13552,-1.01591 -0.011,-0.0655 -0.0234,-0.12928 -0.0352,-0.19411 -0.0634,-0.33726 -0.13621,-0.67087 -0.2241,-0.99974 -0.0125,-0.048 -0.0267,-0.0934 -0.0403,-0.14063 -0.0941,-0.33881 -0.19777,-0.67349 -0.31716,-1.00161 -10e-4,-0.005 -0.004,-0.0106 -0.006,-0.0158 -0.12009,-0.32958 -0.25706,-0.65189 -0.40284,-0.96904 -0.0205,-0.0461 -0.0396,-0.0923 -0.0612,-0.13772 -0.14325,-0.30286 -0.29779,-0.59803 -0.46185,-0.88804 -0.0285,-0.0513 -0.0578,-0.10181 -0.0871,-0.15314 -0.16847,-0.28818 -0.34645,-0.57093 -0.53503,-0.8452 -0.026,-0.0377 -0.0531,-0.0754 -0.0788,-0.1124 -0.19631,-0.27942 -0.40064,-0.55265 -0.61668,-0.81595 -0.006,-0.007 -0.0132,-0.0158 -0.019,-0.0234 -0.21717,-0.26221 -0.44531,-0.51379 -0.68043,-0.75913 -0.0388,-0.0414 -0.0769,-0.0824 -0.11719,-0.12305 -0.22926,-0.23362 -0.46893,-0.4581 -0.7154,-0.6742 -0.0445,-0.0396 -0.0899,-0.0791 -0.13458,-0.11681 -0.25232,-0.21534 -0.50957,-0.42295 -0.7769,-0.61888 -0.0379,-0.0278 -0.0774,-0.0539 -0.11536,-0.0817 -0.2783,-0.2003 -0.56156,-0.39295 -0.85598,-0.57201 -0.005,-0.003 -0.009,-0.006 -0.0143,-0.009 -0.29006,-0.17653 -0.59034,-0.33877 -0.89371,-0.49439 -0.0548,-0.0278 -0.10767,-0.0564 -0.16242,-0.0831 -0.2917,-0.14391 -0.5894,-0.27506 -0.89301,-0.39811 -0.0639,-0.026 -0.12782,-0.052 -0.19261,-0.0765 -0.30852,-0.11939 -0.62146,-0.22852 -0.941,-0.32522 -0.0496,-0.015 -0.10088,-0.0285 -0.15052,-0.0428 -1.19821,-0.34828 -2.46387,-0.53906 -3.77491,-0.53906 -0.82818,0 -1.49998,0.67092 -1.49998,1.49928 v 1.50041 c 0,0.82804 0.67185,1.50004 1.49998,1.50004 0.8234,0 1.61793,0.12009 2.37561,0.32704 0.23217,0.0641 0.45993,0.13622 0.68446,0.21788 0.0135,0.004 0.0253,0.0103 0.0379,0.0143 1.11088,0.40799 2.11742,1.02833 2.97344,1.81138 0.037,0.0344 0.0758,0.0666 0.11189,0.10181 0.13458,0.12707 0.26405,0.25888 0.39019,0.3944 0.0555,0.0597 0.11095,0.11939 0.16481,0.18089 0.11259,0.126 0.22026,0.25378 0.32535,0.38671 0.0623,0.0791 0.12197,0.16149 0.18164,0.24319 0.0943,0.12858 0.19008,0.25565 0.27759,0.38822 0.0639,0.0978 0.12028,0.19846 0.18071,0.29774 0.11775,0.19519 0.2287,0.39366 0.3314,0.59803 0.0756,0.14976 0.15126,0.29925 0.21862,0.45412 0.0471,0.10655 0.0866,0.2168 0.12947,0.3263 0.0564,0.1454 0.11189,0.29076 0.16059,0.43982 0.037,0.11095 0.0697,0.22265 0.10182,0.33473 0.0454,0.15895 0.0866,0.32011 0.1236,0.48159 0.0244,0.10622 0.0487,0.21202 0.0689,0.32044 0.0346,0.18018 0.0599,0.36328 0.0833,0.54566 0.0119,0.097 0.0269,0.19191 0.0362,0.28931 0.0166,0.17691 0.0202,0.35672 0.0269,0.53583 0.0108,0.10256 0.0159,0.20615 0.0159,0.31129 0,1.65641 -1.34287,2.99932 -3.00036,2.99932 h -1.12517 -0.375 c -1.65655,0 -2.9996,-1.34291 -2.9996,-2.99932 0,-0.82842 -0.67186,-1.50041 -1.50018,-1.50041 -0.82818,0 -1.49999,0.67199 -1.49999,1.50041 0,0.82804 0.67186,1.49929 1.49999,1.49929 0.41475,0 0.75018,0.33618 0.75018,0.75004 0,0.41455 -0.33543,0.74999 -0.75018,0.74999 -1.6566,-1.9e-4 -2.99946,-1.3431 -2.99946,-2.99951 0,-1.65749 1.34286,-3.00044 2.99946,-3.00044 1.65674,0 3.00054,1.34291 3.00054,3.00044 0,0.82804 0.67087,1.49929 1.49924,1.49929 h 0.375 1.12517 c 0.82819,0 1.50018,-0.67125 1.50018,-1.49929 0,-1.13638 -0.25983,-2.20939 -0.71231,-3.17477 -0.0386,-0.0824 -0.0765,-0.16551 -0.11864,-0.24717 -0.0555,-0.10837 -0.11517,-0.21534 -0.17559,-0.32119 -0.0454,-0.0799 -0.0943,-0.15824 -0.14301,-0.23549 -0.0614,-0.0982 -0.12361,-0.19739 -0.18914,-0.29259 -0.10088,-0.14541 -0.20784,-0.28674 -0.31786,-0.42478 -0.0657,-0.0806 -0.13458,-0.15783 -0.20269,-0.2362 -0.0808,-0.0923 -0.16312,-0.18492 -0.2481,-0.27319 -0.0697,-0.0714 -0.13955,-0.14142 -0.21188,-0.21023 -0.0917,-0.0883 -0.18749,-0.1725 -0.28345,-0.25636 -0.0614,-0.0531 -0.12197,-0.10767 -0.18492,-0.15895 -0.15984,-0.12891 -0.32376,-0.25416 -0.49368,-0.37022 -0.0496,-0.0337 -0.10181,-0.0623 -0.15216,-0.0948 -0.132,-0.0849 -0.26662,-0.16917 -0.40448,-0.24647 -0.0707,-0.0396 -0.14207,-0.0765 -0.2137,-0.11353 -0.13036,-0.0681 -0.26404,-0.13116 -0.39862,-0.19195 -0.0663,-0.0293 -0.13111,-0.0604 -0.19828,-0.0883 -0.19941,-0.0813 -0.40209,-0.15712 -0.60975,-0.22265 -0.0253,-0.008 -0.0513,-0.0136 -0.0772,-0.0212 -0.18674,-0.056 -0.37776,-0.10584 -0.57018,-0.14686 -0.0716,-0.0154 -0.14559,-0.0285 -0.21867,-0.0421 -0.15637,-0.0297 -0.31532,-0.0531 -0.47517,-0.0725 -0.069,-0.008 -0.13621,-0.0168 -0.20601,-0.0234 -0.22959,-0.0209 -0.45993,-0.0352 -0.69468,-0.0352 -1.65651,-4e-5 -2.99937,-1.34333 -2.99937,-3.00049 v -1.50041 c 0,-1.65678 1.34286,-2.99969 2.99946,-2.99969 0.24389,0 0.48525,0.007 0.72656,0.0186 0.0875,0.004 0.17503,0.0125 0.26329,0.0176 0.1606,0.011 0.32119,0.0209 0.48009,0.0362 0.0833,0.008 0.16481,0.0183 0.24722,0.0285 0.15895,0.0183 0.31786,0.037 0.47517,0.0604 0.0941,0.0136 0.1875,0.0297 0.28087,0.0454 0.13369,0.022 0.26569,0.0454 0.39862,0.0707 0.10674,0.0212 0.21188,0.0428 0.31697,0.0655 0.13786,0.0297 0.27501,0.0616 0.41034,0.0952 0.0908,0.0227 0.18089,0.0454 0.27173,0.0689 0.13369,0.0362 0.26662,0.0747 0.39937,0.11353 0.096,0.0286 0.19336,0.0564 0.28931,0.0868 0.12267,0.0384 0.24225,0.0806 0.36422,0.12342 0.10509,0.0362 0.21094,0.0714 0.31439,0.11095 0.10345,0.0388 0.2069,0.0817 0.30946,0.12197 0.11189,0.0447 0.22542,0.0876 0.33638,0.13552 0.096,0.041 0.18843,0.0849 0.28345,0.12782 0.23803,0.10767 0.47259,0.2212 0.70457,0.34059 0.0723,0.037 0.14555,0.0732 0.21698,0.11171 0.12197,0.0655 0.24131,0.13476 0.3607,0.20362 0.0775,0.0436 0.15656,0.0864 0.23311,0.13294 0.12361,0.074 0.24534,0.15196 0.36731,0.22959 0.0665,0.0428 0.13383,0.0839 0.20016,0.12783 0.11863,0.078 0.23545,0.15895 0.35062,0.24023 0.0742,0.0524 0.14887,0.10509 0.22284,0.15895 0.10603,0.0776 0.21112,0.15637 0.31458,0.23545 0.0731,0.0557 0.14484,0.11278 0.21585,0.16992 0.11058,0.089 0.22045,0.17836 0.32888,0.26991 0.0571,0.0487 0.11352,0.0978 0.16992,0.14723 0.11643,0.10181 0.23291,0.20362 0.34645,0.30947 0.0381,0.0344 0.0732,0.0699 0.11025,0.10509 1.06053,1.0049 1.97646,2.16289 2.7078,3.43952 0.009,0.015 0.018,0.0311 0.0267,0.0469 0.0978,0.17175 0.19191,0.3457 0.2827,0.52148 0.0117,0.0227 0.0227,0.0447 0.0344,0.0674 0.0915,0.17911 0.18019,0.35892 0.26442,0.54238 0.004,0.009 0.008,0.0183 0.0125,0.0279 0.0883,0.19227 0.1732,0.38596 0.25303,0.58265 0,7.5e-4 0,0.002 7.5e-4,0.003 0.41273,1.01333 0.71812,2.08198 0.90234,3.19235 0.13293,0.80277 0.20615,1.62598 0.20615,2.46724 0,0.82804 0.67162,1.49929 1.49999,1.49929 h 1.49994 c 0.82837,0 1.49962,-0.67125 1.49962,-1.49929 0,-1.21438 -0.11611,-2.40096 -0.32888,-3.55375 -0.003,-0.0128 -0.004,-0.0253 -0.007,-0.0388 -0.0527,-0.28167 -0.1117,-0.56179 -0.17653,-0.83901 -0.002,-0.011 -0.004,-0.0212 -0.007,-0.0311 -0.063,-0.26662 -0.1311,-0.53175 -0.20432,-0.79396 -0.01,-0.0344 -0.019,-0.0689 -0.0293,-0.10364 -0.0747,-0.26147 -0.1538,-0.51853 -0.23878,-0.77601 -0.002,-0.005 -0.004,-0.0117 -0.005,-0.0176 -0.64162,-1.93068 -1.57621,-3.7263 -2.75248,-5.33654 -0.003,-0.006 -0.007,-0.011 -0.011,-0.0161 -0.14729,-0.20111 -0.29926,-0.39775 -0.45418,-0.59294 -0.0308,-0.0384 -0.0604,-0.0788 -0.0915,-0.11756 -0.14353,-0.17911 -0.29259,-0.35489 -0.4431,-0.52884 -0.0432,-0.0498 -0.0864,-0.0992 -0.12966,-0.14906 -0.15014,-0.17067 -0.30614,-0.33876 -0.46213,-0.50465 -0.0432,-0.0454 -0.0868,-0.0915 -0.13036,-0.13697 -0.15235,-0.1582 -0.30797,-0.3135 -0.46509,-0.46584 -0.059,-0.0564 -0.11719,-0.11278 -0.17653,-0.16917 -0.15492,-0.14611 -0.31275,-0.29077 -0.47278,-0.43284 -0.0582,-0.052 -0.11756,-0.10256 -0.17686,-0.15385 -0.15858,-0.13804 -0.31931,-0.27431 -0.48337,-0.40612 -0.0754,-0.0608 -0.15126,-0.11939 -0.22781,-0.17943 -0.1538,-0.12014 -0.30834,-0.24211 -0.46654,-0.35817 -0.0784,-0.0571 -0.15821,-0.11241 -0.23803,-0.16992 -0.16406,-0.11681 -0.32813,-0.23438 -0.49509,-0.34645 -0.0366,-0.0242 -0.0725,-0.0469 -0.10875,-0.0707 -0.4237,-0.27904 -0.85767,-0.54234 -1.30335,-0.78848 -0.0234,-0.0136 -0.0469,-0.0278 -0.0707,-0.0406 -0.13293,-0.0721 -0.26896,-0.14025 -0.40354,-0.21018 -0.1388,-0.0721 -0.27666,-0.14466 -0.41709,-0.21277 -0.132,-0.0645 -0.26752,-0.12525 -0.4012,-0.18642 -0.13622,-0.0623 -0.27061,-0.1245 -0.4087,-0.18422 -0.14541,-0.063 -0.2917,-0.12121 -0.43894,-0.18089 -0.13954,-0.0564 -0.2774,-0.1117 -0.41877,-0.16481 -0.13458,-0.0505 -0.2708,-0.0985 -0.40613,-0.1454 -0.15895,-0.0557 -0.31879,-0.11025 -0.47938,-0.16223 -0.12853,-0.0414 -0.25889,-0.0817 -0.3893,-0.12047 -0.16148,-0.0487 -0.32371,-0.0941 -0.48688,-0.13772 -0.14044,-0.0381 -0.28088,-0.0751 -0.42225,-0.1095 -0.15712,-0.0384 -0.31533,-0.074 -0.47428,-0.10912 -0.14465,-0.0322 -0.28837,-0.0634 -0.43467,-0.0919 -0.1657,-0.0319 -0.33379,-0.0623 -0.50113,-0.0897 -0.13622,-0.0238 -0.27174,-0.0472 -0.40959,-0.0674 -0.19847,-0.0285 -0.39938,-0.052 -0.59948,-0.0758 -0.10932,-0.0125 -0.21624,-0.0267 -0.32555,-0.0377 -0.22523,-0.022 -0.45318,-0.0377 -0.68024,-0.052 -0.0941,-0.006 -0.18656,-0.0154 -0.28163,-0.0194 -0.074,-0.003 -0.14887,-0.003 -0.22373,-0.006 v -0.008 c -0.18914,-0.002 -0.37757,-0.074 -0.52223,-0.21862 -0.29259,-0.29264 -0.29259,-0.76795 0,-1.06058 0.15984,-0.15966 0.37336,-0.22374 0.5819,-0.20949 11.22526,0.42145 20.19889,9.6498 20.19889,20.97879 z M 421.3209,515.29804 c -0.41381,0 -0.74924,-0.33619 -0.74924,-0.75005 0,-0.41456 0.33543,-0.74999 0.74924,-0.74999 0.41456,0 0.75019,0.33543 0.75019,0.74999 0,0.41386 -0.33563,0.75005 -0.75019,0.75005 z"
       fill-rule="evenodd"
       id="path2"
       style="fill:url(#linearGradient949);fill-opacity:1;stroke-width:0.0468746;opacity:0.797" />
  </g>
</svg>
