<?xml version="1.0" encoding="UTF-8" standalone="no"?>
<svg
   width="64"
   version="1.1"
   height="64"
   id="svg2"
   inkscape:version="1.1.1 (3bf5ae0d25, 2021-09-20)"
   sodipodi:docname="folder-gdrive.svg"
   xmlns:inkscape="http://www.inkscape.org/namespaces/inkscape"
   xmlns:sodipodi="http://sodipodi.sourceforge.net/DTD/sodipodi-0.dtd"
   xmlns:xlink="http://www.w3.org/1999/xlink"
   xmlns="http://www.w3.org/2000/svg"
   xmlns:svg="http://www.w3.org/2000/svg"
   xmlns:rdf="http://www.w3.org/1999/02/22-rdf-syntax-ns#"
   xmlns:cc="http://creativecommons.org/ns#"
   xmlns:dc="http://purl.org/dc/elements/1.1/">
  <sodipodi:namedview
     pagecolor="#ffffff"
     bordercolor="#666666"
     borderopacity="1"
     objecttolerance="10"
     gridtolerance="10"
     guidetolerance="10"
     inkscape:pageopacity="0"
     inkscape:pageshadow="2"
     inkscape:window-width="1920"
     inkscape:window-height="1007"
     id="namedview45"
     showgrid="true"
     inkscape:zoom="10.429825"
     inkscape:cx="26.941967"
     inkscape:cy="32.359124"
     inkscape:window-x="0"
     inkscape:window-y="0"
     inkscape:window-maximized="1"
     inkscape:current-layer="layer1"
     inkscape:document-rotation="0"
     inkscape:pagecheckerboard="0">
    <inkscape:grid
       type="xygrid"
       id="grid868" />
  </sodipodi:namedview>
  <defs
     id="defs5455">
    <linearGradient
       inkscape:collect="always"
       xlink:href="#linearGradient2230"
       id="linearGradient2232"
       x1="384.57144"
       y1="515.79797"
       x2="448.57144"
       y2="515.79797"
       gradientUnits="userSpaceOnUse"
       gradientTransform="translate(-1.1650391e-5)" />
    <linearGradient
       inkscape:collect="always"
       id="linearGradient2230">
      <stop
         style="stop-color:#4e99ca;stop-opacity:0.80000001"
         offset="0"
         id="stop2226" />
      <stop
         style="stop-color:#20ffff;stop-opacity:0.80000001"
         offset="0.50507295"
         id="stop2332" />
      <stop
         style="stop-color:#ffaeff;stop-opacity:0.69"
         offset="1"
         id="stop2228" />
    </linearGradient>
    <linearGradient
       inkscape:collect="always"
       xlink:href="#linearGradient2230"
       id="linearGradient1013"
       gradientUnits="userSpaceOnUse"
       gradientTransform="matrix(0.87499678,0,0,0.87499678,67.669021,71.601391)"
       x1="403.31842"
       y1="520.79797"
       x2="430.7471"
       y2="520.79797" />
  </defs>
  <metadata
     id="metadata5458">
    <rdf:RDF>
      <cc:Work
         rdf:about="">
        <dc:format>image/svg+xml</dc:format>
        <dc:type
           rdf:resource="http://purl.org/dc/dcmitype/StillImage" />
      </cc:Work>
    </rdf:RDF>
  </metadata>
  <g
     inkscape:label="Capa 1"
     inkscape:groupmode="layer"
     id="layer1"
     transform="translate(-384.57143,-483.798)">
    <rect
       style="fill:#626f9d;fill-opacity:0.2;stroke:none;stroke-width:1.26075"
       id="center-3"
       width="60.099998"
       height="42"
       x="386.57144"
       y="497.798"
       ry="3.9999959"
       rx="4.0066781" />
    <path
       d="m 442.73834,495.80768 h -29.32672 c -0.64817,0 -1.21496,-0.33361 -1.62011,-0.91817 l -2.1875,-3.33839 c -0.72899,-1.16852 -1.94446,-1.75312 -3.24023,-1.75312 h -14.98741 c -3.72689,0 -6.80495,3.17192 -6.80495,7.01111 v 38.97924 c 0,3.25524 2.59271,6.00966 5.83294,6.00966 h 25.19505 v 0 0 0 0 0 0 0 h 1.94402 v 0 0 0 0 0 0 0 0 0 h 25.19505 c 3.15951,0 5.83294,-2.67126 5.83294,-6.00966 v -33.9712 c 0,-3.33839 -2.59213,-6.00905 -5.83294,-6.00905 z m -25.19491,45.99033 v 0 h -1.94402 v 0 0 z m 29.08353,-6.00947 c 0,2.16999 -1.70156,4.00628 -3.88848,4.00628 h -52.33441 c -2.1062,0 -3.88848,-1.83629 -3.88848,-4.00628 l -5.8e-4,-13.43824 v -7.59568 c 0,-2.17001 1.78229,-4.00628 3.88848,-4.00628 h 29.32671 c 1.29634,0 2.51126,-0.66782 3.24024,-1.75312 l 2.10619,-3.33839 c 0.40518,-0.50072 0.97198,-0.91818 1.62012,-0.91818 h 15.06842 c 2.67343,0 4.86107,2.25378 4.86107,5.00835 v 10.93407 z m -4.86107,-32.9696 h -15.06842 c -1.29634,0 -2.51126,0.66781 -3.24023,1.75311 l -2.1062,3.3384 c -0.3238,0.58455 -0.97198,0.91816 -1.62011,0.91816 h -29.32651 c -1.45794,0 -2.83331,0.16967 -3.889,1.70239 v -8.733 c 0,-2 2.05601,-4 4.05601,-4 h 16.00001 l 0.0429,0.0464 2.9571,-0.0464 3.92107,0.0125 h 29.32672 c 2.10619,0 3.88848,1.83628 3.88848,4.00629 v 3.08814 c -1.29578,-1.33503 -2.99676,-2.08609 -4.94122,-2.08609 z"
       id="path64"
       sodipodi:nodetypes="csccsssssccccccccccccccccccsssccccccccccssccsssccssscccsccscccccccssscc"
       style="fill:url(#linearGradient2232);fill-opacity:1;stroke-width:0.146841" />
    <path
       fill-rule="evenodd"
       clip-rule="evenodd"
       d="m 443.71609,528.6068 -9.53641,4.01548 c -0.50056,0.19154 -1.04104,0.30104 -1.60789,0.30104 -0.56572,0 -1.10548,-0.11025 -1.60368,-0.29958 l -9.54212,-4.01769 c -0.15891,-0.0689 -0.30615,-0.16809 -0.43574,-0.29699 -0.55843,-0.5581 -0.55843,-1.46302 0,-2.02148 0.13218,-0.13182 0.28523,-0.23218 0.44565,-0.30104 l 1.19686,-0.50352 c 0.11095,-0.0667 0.23872,-0.10693 0.37644,-0.10693 0.4079,0 0.73854,0.33033 0.73854,0.73828 0,0.33071 -0.21787,0.60647 -0.5174,0.70129 l -0.37423,0.15563 c -0.11753,0.063 -0.19809,0.18492 -0.19809,0.32705 0,0.13879 0.0766,0.25888 0.19003,0.32371 l 8.50797,3.5504 c 0.0245,0.009 0.0461,0.0143 0.0707,0.0245 0.35303,0.1461 0.73892,0.22593 1.14506,0.22593 0.40204,0 0.78548,-0.0791 1.13626,-0.22265 0.0293,-0.0117 0.0553,-0.0194 0.0838,-0.0304 l 8.50337,-3.54787 c 0.11353,-0.0648 0.19008,-0.18491 0.19008,-0.32371 0,-0.14283 -0.0809,-0.26405 -0.19846,-0.32705 l -0.37496,-0.15637 c -0.29878,-0.0941 -0.51666,-0.37098 -0.51666,-0.70055 0,-0.40795 0.33067,-0.73828 0.73862,-0.73828 0.1395,0 0.2691,0.041 0.38006,0.10838 l 1.19629,0.5039 c 0.16002,0.0689 0.31125,0.16809 0.44236,0.2992 0.55841,0.55847 0.55841,1.46339 0,2.02148 -0.13037,0.1297 -0.27751,0.22894 -0.43646,0.2978 z m 0.002,-4.87644 -9.55108,4.02135 c -0.49579,0.18825 -1.0326,0.29662 -1.59506,0.29662 -0.56061,0 -1.0956,-0.10729 -1.59082,-0.29404 l -9.55681,-4.02393 c -0.1582,-0.0696 -0.30432,-0.16734 -0.43392,-0.29587 -0.55842,-0.55846 -0.55842,-1.46409 0,-2.02255 0.13036,-0.12928 0.2783,-0.22669 0.43903,-0.29738 l 9.55309,-4.02209 c 0.49492,-0.1868 1.02882,-0.29447 1.58943,-0.29447 0.56171,0 1.09744,0.10767 1.59362,0.29587 l 0.8895,0.37426 c 0.30538,0.0952 0.52805,0.37682 0.52805,0.713 0,0.41382 -0.33543,0.75037 -0.74996,0.75037 -0.12707,0 -0.2439,-0.0355 -0.34895,-0.0908 l -0.70564,-0.29442 c -0.0241,-0.009 -0.0461,-0.015 -0.0703,-0.0253 -0.35076,-0.14391 -0.7342,-0.22303 -1.13624,-0.22303 -0.40613,0 -0.79205,0.0809 -1.14507,0.22631 -0.0201,0.009 -0.0377,0.0128 -0.0582,0.0201 l -8.51645,3.55372 c -0.11424,0.064 -0.19407,0.18422 -0.19407,0.32555 0,0.1388 0.0766,0.25818 0.18896,0.32372 l 8.52006,3.55367 c 0.0201,0.009 0.0384,0.0125 0.0597,0.0208 0.35301,0.14541 0.73893,0.22632 1.14505,0.22632 0.40205,0 0.78549,-0.0791 1.13625,-0.22304 0.0249,-0.01 0.0476,-0.0165 0.0721,-0.026 l 8.51584,-3.55183 c 0.11279,-0.0655 0.18933,-0.18493 0.18933,-0.32373 0,-0.14137 -0.0798,-0.26071 -0.19444,-0.32554 l -1.1556,-0.48267 c -0.28491,-0.10256 -0.48999,-0.37172 -0.48999,-0.69215 0,-0.40758 0.33033,-0.73828 0.73824,-0.73828 0.13954,0 0.26991,0.0414 0.38118,0.10838 l 1.95248,0.8225 c 0.15896,0.0681 0.30572,0.16734 0.43538,0.29588 0.55841,0.55847 0.55841,1.46409 0,2.02256 -0.12966,0.12867 -0.27647,0.22645 -0.43467,0.29605 z m -6.2712,-3.557 c -0.41451,0 -0.75027,-0.33544 -0.75027,-0.74999 0,-0.41457 0.33576,-0.75 0.75027,-0.75 0.41339,0 0.74995,0.33543 0.74995,0.75 0,0.41455 -0.33656,0.74999 -0.74995,0.74999 z m -16.01086,10.68784 1.20201,-0.50536 c 0.10913,-0.0645 0.23508,-0.10401 0.3713,-0.10401 0.4079,0 0.73856,0.33032 0.73856,0.73828 0,0.3336 -0.22372,0.61302 -0.52837,0.70387 l -0.36327,0.15196 c -0.11752,0.0634 -0.19808,0.18422 -0.19808,0.32705 0,0.13988 0.0766,0.25927 0.19002,0.32409 l 8.52045,3.55518 c 0.0206,0.008 0.0381,0.0117 0.0582,0.0201 0.353,0.14539 0.73892,0.2263 1.14506,0.2263 0.40204,0 0.78548,-0.0798 1.13625,-0.22302 0.0242,-0.01 0.0461,-0.0158 0.0704,-0.0253 l 8.51692,-3.55335 c 0.11353,-0.0648 0.19007,-0.18422 0.19007,-0.32409 0,-0.14208 -0.0809,-0.26368 -0.19846,-0.32705 l -0.36581,-0.15197 c -0.30428,-0.0927 -0.52585,-0.37096 -0.52585,-0.70387 0,-0.40795 0.33066,-0.73827 0.73861,-0.73827 0.13434,0 0.25814,0.0384 0.36651,0.10068 l 1.20988,0.50977 c 0.16149,0.0696 0.31051,0.16808 0.44237,0.2999 0.5584,0.55847 0.5584,1.46338 0,2.02185 -0.12853,0.12853 -0.27572,0.22594 -0.43064,0.29517 l -9.55179,4.02209 c -0.49762,0.1897 -1.03481,0.29662 -1.59834,0.29662 -0.56245,0 -1.09888,-0.10838 -1.59524,-0.29587 l -9.55749,-4.02393 c -0.15633,-0.0696 -0.30098,-0.16626 -0.42877,-0.29404 -0.55842,-0.55847 -0.55842,-1.46339 0,-2.02185 0.13214,-0.13187 0.28523,-0.2311 0.44559,-0.30103 z"
       id="path2-7"
       style="fill:url(#linearGradient1013);fill-opacity:1.0;stroke-width:0.0468748" />
  </g>
</svg>
