<?xml version="1.0" encoding="UTF-8" standalone="no"?>
<svg
   width="64"
   version="1.1"
   height="64"
   id="svg19"
   sodipodi:docname="folder-image-people.svg"
   inkscape:version="1.1.1 (3bf5ae0d25, 2021-09-20)"
   xmlns:inkscape="http://www.inkscape.org/namespaces/inkscape"
   xmlns:sodipodi="http://sodipodi.sourceforge.net/DTD/sodipodi-0.dtd"
   xmlns:xlink="http://www.w3.org/1999/xlink"
   xmlns="http://www.w3.org/2000/svg"
   xmlns:svg="http://www.w3.org/2000/svg"
   xmlns:rdf="http://www.w3.org/1999/02/22-rdf-syntax-ns#"
   xmlns:cc="http://creativecommons.org/ns#"
   xmlns:dc="http://purl.org/dc/elements/1.1/">
  <sodipodi:namedview
     pagecolor="#ffffff"
     bordercolor="#666666"
     borderopacity="1"
     objecttolerance="10"
     gridtolerance="10"
     guidetolerance="10"
     inkscape:pageopacity="0"
     inkscape:pageshadow="2"
     inkscape:window-width="1920"
     inkscape:window-height="1005"
     id="namedview21"
     showgrid="true"
     inkscape:zoom="9.8124999"
     inkscape:cx="14.063694"
     inkscape:cy="30.929937"
     inkscape:window-x="0"
     inkscape:window-y="0"
     inkscape:window-maximized="1"
     inkscape:current-layer="layer1"
     inkscape:document-rotation="0"
     inkscape:pagecheckerboard="0">
    <inkscape:grid
       type="xygrid"
       id="grid874" />
  </sodipodi:namedview>
  <defs
     id="defs5455">
    <linearGradient
       inkscape:collect="always"
       id="linearGradient1087">
      <stop
         style="stop-color:#ccaaff;stop-opacity:1"
         offset="0"
         id="stop1081" />
      <stop
         style="stop-color:#20ffff;stop-opacity:0.80000001"
         offset="0.50507295"
         id="stop1083" />
      <stop
         style="stop-color:#ffaeff;stop-opacity:0.69"
         offset="1"
         id="stop1085" />
    </linearGradient>
    <linearGradient
       inkscape:collect="always"
       xlink:href="#linearGradient1087"
       id="linearGradient2232"
       x1="384.57144"
       y1="515.79797"
       x2="448.57144"
       y2="515.79797"
       gradientUnits="userSpaceOnUse" />
    <linearGradient
       inkscape:collect="always"
       id="linearGradient2230">
      <stop
         style="stop-color:#4e99ca;stop-opacity:0.80000001"
         offset="0"
         id="stop2226" />
      <stop
         style="stop-color:#20ffff;stop-opacity:0.80000001"
         offset="0.50507295"
         id="stop2332" />
      <stop
         style="stop-color:#ffaeff;stop-opacity:0.69"
         offset="1"
         id="stop2228" />
    </linearGradient>
    <linearGradient
       inkscape:collect="always"
       xlink:href="#linearGradient2230"
       id="linearGradient1041"
       gradientUnits="userSpaceOnUse"
       x1="402.04343"
       y1="520.79852"
       x2="431.58115"
       y2="520.79852"
       gradientTransform="matrix(0.8125204,0,0,0.8125204,93.902856,104.68934)" />
  </defs>
  <metadata
     id="metadata5458">
    <rdf:RDF>
      <cc:Work
         rdf:about="">
        <dc:format>image/svg+xml</dc:format>
        <dc:type
           rdf:resource="http://purl.org/dc/dcmitype/StillImage" />
      </cc:Work>
    </rdf:RDF>
  </metadata>
  <g
     inkscape:label="Capa 1"
     inkscape:groupmode="layer"
     id="layer1"
     transform="translate(-384.57143,-483.798)">
    <rect
       style="fill:#626f9d;fill-opacity:0.2;stroke:none;stroke-width:1.26075"
       id="center-3"
       width="60.099998"
       height="42"
       x="386.57147"
       y="497.79813"
       ry="3.9999959"
       rx="4.0066781" />
    <path
       d="m 442.73835,495.80768 h -29.32672 c -0.64817,0 -1.21496,-0.33361 -1.62011,-0.91817 l -2.1875,-3.33839 c -0.72899,-1.16852 -1.94446,-1.75312 -3.24023,-1.75312 h -14.98741 c -3.72689,0 -6.80495,3.17192 -6.80495,7.01111 v 38.97924 c 0,3.25524 2.59271,6.00966 5.83294,6.00966 h 25.19505 v 0 0 0 0 0 0 0 h 1.94402 v 0 0 0 0 0 0 0 0 0 h 25.19505 c 3.15951,0 5.83294,-2.67126 5.83294,-6.00966 v -33.9712 c 0,-3.33839 -2.59213,-6.00905 -5.83294,-6.00905 z m -25.19491,45.99033 v 0 h -1.94402 v 0 0 z m 29.08353,-6.00947 c 0,2.16999 -1.70156,4.00628 -3.88848,4.00628 h -52.33441 c -2.1062,0 -3.88848,-1.83629 -3.88848,-4.00628 l -5.8e-4,-13.43824 v -7.59568 c 0,-2.17001 1.78229,-4.00628 3.88848,-4.00628 h 29.32671 c 1.29634,0 2.51126,-0.66782 3.24024,-1.75312 l 2.10619,-3.33839 c 0.40518,-0.50072 0.97198,-0.91818 1.62012,-0.91818 h 15.06842 c 2.67343,0 4.86107,2.25378 4.86107,5.00835 v 10.93407 z m -4.86107,-32.9696 h -15.06842 c -1.29634,0 -2.51126,0.66781 -3.24023,1.75311 l -2.1062,3.3384 c -0.3238,0.58455 -0.97198,0.91816 -1.62011,0.91816 h -29.32651 c -1.45794,0 -2.83331,0.16967 -3.889,1.70239 v -8.733 c 0,-2 2.05601,-4 4.05601,-4 h 16.00001 l 0.0429,0.0464 2.9571,-0.0464 3.92107,0.0125 h 29.32672 c 2.10619,0 3.88848,1.83628 3.88848,4.00629 v 3.08814 c -1.29578,-1.33503 -2.99676,-2.08609 -4.94122,-2.08609 z"
       id="path64"
       sodipodi:nodetypes="csccsssssccccccccccccccccccsssccccccccccssccsssccssscccsccscccccccssscc"
       style="fill:url(#linearGradient2232);fill-opacity:1;stroke-width:0.146841" />
    <path
       d="m 441.5717,533.84855 h -0.75039 c -0.41453,0 -0.7496,-0.3362 -0.7496,-0.74928 0,-0.41457 0.33507,-0.75077 0.7496,-0.75077 h 0.75039 c 0.8276,0 1.5,-0.67089 1.5,-1.50003 v -2.24935 c 0,-0.06 -0.0117,-0.1201 -0.0289,-0.17799 -0.006,-0.022 -0.0165,-0.0432 -0.0253,-0.0659 -0.0106,-0.0257 -0.0202,-0.052 -0.0337,-0.0769 -0.171,-0.34698 -0.58998,-0.68098 -1.11288,-0.77693 -0.66907,-0.24901 -1.5637,-0.40285 -2.54988,-0.40285 -0.95805,0 -1.8285,0.15492 -2.491,0.39736 -0.33507,0.0491 -0.62987,0.19886 -0.85103,0.38711 l -0.004,-0.005 c -0.12197,0.10804 -0.28125,0.17597 -0.45704,0.17597 -0.38162,0 -0.69142,-0.31037 -0.69142,-0.69162 0,-0.27061 0.15638,-0.50246 0.38161,-0.61562 0.40652,-0.2963 0.90016,-0.55155 1.47398,-0.74163 -0.61445,-0.61159 -1.02096,-1.43262 -1.09568,-2.35041 -0.0102,-0.10145 -0.0154,-0.20364 -0.0154,-0.3069 v -2.24973 c 0,-1.6568 1.34286,-3.00008 3.00035,-3.00008 h 1.5 c 1.65636,0 2.99998,1.34333 2.99998,3.00008 v 2.24973 c 0,0.4142 -0.3362,0.75039 -0.75035,0.75039 -0.41457,0 -0.74965,-0.33619 -0.74965,-0.75039 v -2.24973 c 0,-0.82877 -0.67239,-1.50004 -1.49998,-1.50004 h -1.5 c -0.82872,0 -1.50036,0.67127 -1.50036,1.50004 v 2.24973 c 0,1.24297 1.00779,2.25043 2.24963,2.25043 2.77147,0 5.03535,1.22684 5.23129,2.78313 0.0117,0.0703 0.0194,0.14283 0.0194,0.21755 v 2.24935 c -5e-5,1.6575 -1.34366,3.00008 -3.00003,3.00008 z m -7.88485,-6.44754 c -0.008,0.026 -0.0184,0.0531 -0.0307,0.0784 -8.2e-4,7.5e-4 -8.2e-4,0.003 -0.002,0.004 h -8.1e-4 c -0.1216,0.25013 -0.37459,0.42409 -0.67122,0.42409 -0.41458,0 -0.7504,-0.3362 -0.7504,-0.7504 0,-0.1073 0.0231,-0.20986 0.0637,-0.30141 l -0.002,-8.1e-4 c 0.17687,-0.38237 0.27836,-0.80646 0.27836,-1.25582 0,-0.16697 -0.0175,-0.33034 -0.0436,-0.49074 0.0282,-0.13515 0.0436,-0.27615 0.0436,-0.42006 v -3.05323 c 0,-1.12428 -0.89538,-2.03621 -2.00021,-2.03621 h -1.99949 c -1.1052,0 -2.00058,0.91188 -2.00058,2.03621 v 3.05323 c 0,0.14391 0.0158,0.28491 0.0436,0.42006 -0.026,0.1604 -0.0436,0.32372 -0.0436,0.49074 0,1.6568 1.34361,3.00064 3.00035,3.00064 4.78199,0 8.68354,1.71023 8.97211,3.86808 0.0165,0.0835 0.0282,0.16918 0.0282,0.25637 v 1.87579 c 0,1.65685 -1.34361,2.99938 -3.00035,2.99938 h -12.0003 c -1.65647,-2e-5 -3.00008,-1.34261 -3.00008,-2.99939 v -1.8758 c 0,-0.0872 0.008,-0.16918 0.0212,-0.25051 0.0974,-0.75587 0.64122,-1.45241 1.50182,-2.04057 0.12197,-0.10331 0.27722,-0.16922 0.44931,-0.16922 0.38344,0 0.69433,0.30986 0.69433,0.69367 0,0.24535 -0.12741,0.4585 -0.3197,0.5823 l 0.005,0.007 c -0.54161,0.36178 -0.85179,0.76318 -0.85179,1.17701 v 1.8758 c 0,0.82769 0.67234,1.49933 1.49999,1.49933 h 12.0003 c 0.82873,0 1.5,-0.67164 1.5,-1.49933 v -1.8758 c 0,-1.45025 -3.35817,-2.62436 -7.49996,-2.62436 -1.20444,0 -2.29613,-0.47683 -3.10362,-1.24734 -0.21352,-0.20362 -0.40942,-0.42994 -0.57934,-0.67239 -0.16628,-0.23639 -0.31018,-0.49055 -0.42883,-0.75714 -0.005,-0.01 -0.009,-0.0184 -0.0136,-0.0279 -0.0495,-0.11316 -0.093,-0.23109 -0.13332,-0.34899 -0.009,-0.0267 -0.0206,-0.052 -0.0289,-0.0791 -0.034,-0.1051 -0.06,-0.21423 -0.0861,-0.32336 -0.01,-0.0406 -0.0224,-0.0802 -0.0311,-0.12197 -0.026,-0.1245 -0.0432,-0.25196 -0.0596,-0.37941 -0.003,-0.0242 -0.009,-0.0476 -0.0106,-0.0717 -0.0165,-0.15455 -0.0253,-0.312 -0.0253,-0.47134 0,-0.0831 0.007,-0.16298 0.0128,-0.24535 -0.006,-0.0849 -0.0128,-0.16885 -0.0128,-0.25491 v -3.49964 c 0,-1.93364 1.51172,-3.50034 3.375,-3.50034 h 2.25034 c 1.86436,0 3.37499,1.5667 3.37499,3.50034 v 3.49964 c 0,0.0861 -0.007,0.16992 -0.0125,0.25491 0.005,0.0824 0.0125,0.16224 0.0125,0.24535 0,0.64235 -0.14101,1.24991 -0.38453,1.80253 z m -8.24004,2.32239 c 0,0.41381 -0.33619,0.75006 -0.75039,0.75006 -0.41453,0 -0.7496,-0.33625 -0.7496,-0.75006 0,-0.41383 0.33507,-0.75003 0.7496,-0.75003 0.4142,0 0.75039,0.3362 0.75039,0.75003 z"
       id="path2-7"
       style="fill:url(#linearGradient1041);fill-opacity:1.0;stroke-width:0.0468762" />
  </g>
</svg>
