<?xml version="1.0" encoding="UTF-8" standalone="no"?>
<svg
   width="64"
   version="1.1"
   height="64"
   id="svg17"
   sodipodi:docname="certificate-server.svg"
   inkscape:version="1.1.1 (3bf5ae0d25, 2021-09-20)"
   xmlns:inkscape="http://www.inkscape.org/namespaces/inkscape"
   xmlns:sodipodi="http://sodipodi.sourceforge.net/DTD/sodipodi-0.dtd"
   xmlns:xlink="http://www.w3.org/1999/xlink"
   xmlns="http://www.w3.org/2000/svg"
   xmlns:svg="http://www.w3.org/2000/svg"
   xmlns:rdf="http://www.w3.org/1999/02/22-rdf-syntax-ns#"
   xmlns:cc="http://creativecommons.org/ns#"
   xmlns:dc="http://purl.org/dc/elements/1.1/">
  <sodipodi:namedview
     pagecolor="#ffffff"
     bordercolor="#666666"
     borderopacity="1"
     objecttolerance="10"
     gridtolerance="10"
     guidetolerance="10"
     inkscape:pageopacity="0"
     inkscape:pageshadow="2"
     inkscape:window-width="1920"
     inkscape:window-height="1007"
     id="namedview19"
     showgrid="true"
     inkscape:zoom="9.8125"
     inkscape:cx="30.267516"
     inkscape:cy="32.56051"
     inkscape:window-x="0"
     inkscape:window-y="0"
     inkscape:window-maximized="1"
     inkscape:current-layer="layer1"
     inkscape:document-rotation="0"
     inkscape:pagecheckerboard="0"
     inkscape:lockguides="false">
    <inkscape:grid
       type="xygrid"
       id="grid839" />
  </sodipodi:namedview>
  <defs
     id="defs5455">
    <linearGradient
       inkscape:collect="always"
       xlink:href="#linearGradient2230"
       id="linearGradient2232"
       x1="384.57144"
       y1="515.79797"
       x2="448.57144"
       y2="515.79797"
       gradientUnits="userSpaceOnUse" />
    <linearGradient
       inkscape:collect="always"
       id="linearGradient2230">
      <stop
         style="stop-color:#4e99ca;stop-opacity:0.80000001"
         offset="0"
         id="stop2226" />
      <stop
         style="stop-color:#20ffff;stop-opacity:0.80000001"
         offset="0.50507295"
         id="stop2332" />
      <stop
         style="stop-color:#ffaeff;stop-opacity:0.69"
         offset="1"
         id="stop2228" />
    </linearGradient>
    <linearGradient
       inkscape:collect="always"
       xlink:href="#linearGradient2230"
       id="linearGradient1228"
       gradientUnits="userSpaceOnUse"
       gradientTransform="translate(15.85,5)"
       x1="404.72144"
       y1="520.79797"
       x2="428.72144"
       y2="520.79797" />
  </defs>
  <metadata
     id="metadata5458">
    <rdf:RDF>
      <cc:Work
         rdf:about="">
        <dc:format>image/svg+xml</dc:format>
        <dc:type
           rdf:resource="http://purl.org/dc/dcmitype/StillImage" />
      </cc:Work>
    </rdf:RDF>
  </metadata>
  <g
     inkscape:label="Capa 1"
     inkscape:groupmode="layer"
     id="layer1"
     transform="translate(-384.57143,-483.798)">
    <g
       inkscape:label="Capa 1"
       id="layer1-1" />
    <g
       transform="matrix(0.68573713,0,0,0.74255505,382.43662,-228.64539)"
       id="g4" />
    <rect
       style="fill:#626f9d;fill-opacity:0.2;stroke:none;stroke-width:1.26075"
       id="center-3"
       width="60.099998"
       height="42"
       x="386.57147"
       y="497.79813"
       ry="3.9999959"
       rx="4.0066781" />
    <path
       d="m 442.73835,495.80768 h -29.32672 c -0.64817,0 -1.21496,-0.33361 -1.62011,-0.91817 l -2.1875,-3.33839 c -0.72899,-1.16852 -1.94446,-1.75312 -3.24023,-1.75312 h -14.98741 c -3.72689,0 -6.80495,3.17192 -6.80495,7.01111 v 38.97924 c 0,3.25524 2.59271,6.00966 5.83294,6.00966 h 25.19505 v 0 0 0 0 0 0 0 h 1.94402 v 0 0 0 0 0 0 0 0 0 h 25.19505 c 3.15951,0 5.83294,-2.67126 5.83294,-6.00966 v -33.9712 c 0,-3.33839 -2.59213,-6.00905 -5.83294,-6.00905 z m -25.19491,45.99033 v 0 h -1.94402 v 0 0 z m 29.08353,-6.00947 c 0,2.16999 -1.70156,4.00628 -3.88848,4.00628 h -52.33441 c -2.1062,0 -3.88848,-1.83629 -3.88848,-4.00628 l -5.8e-4,-13.43824 v -7.59568 c 0,-2.17001 1.78229,-4.00628 3.88848,-4.00628 h 29.32671 c 1.29634,0 2.51126,-0.66782 3.24024,-1.75312 l 2.10619,-3.33839 c 0.40518,-0.50072 0.97198,-0.91818 1.62012,-0.91818 h 15.06842 c 2.67343,0 4.86107,2.25378 4.86107,5.00835 v 10.93407 z m -4.86107,-32.9696 h -15.06842 c -1.29634,0 -2.51126,0.66781 -3.24023,1.75311 l -2.1062,3.3384 c -0.3238,0.58455 -0.97198,0.91816 -1.62011,0.91816 h -29.32651 c -1.45794,0 -2.83331,0.16967 -3.889,1.70239 v -8.733 c 0,-2 2.05601,-4 4.05601,-4 h 16.00001 l 0.0429,0.0464 2.9571,-0.0464 3.92107,0.0125 h 29.32672 c 2.10619,0 3.88848,1.83628 3.88848,4.00629 v 3.08814 c -1.29578,-1.33503 -2.99676,-2.08609 -4.94122,-2.08609 z"
       id="path64"
       sodipodi:nodetypes="csccsssssccccccccccccccccccsssccccccccccssccsssccssscccsccscccccccssscc"
       style="fill:url(#linearGradient2232);fill-opacity:1;stroke-width:0.146841" />
    <path
       d="m 431.82185,533.29795 c 0.41344,0 0.75,0.33544 0.75,0.75 0,0.41382 -0.33656,0.75 -0.75,0.75 -0.41456,0 -0.75037,-0.33618 -0.75037,-0.75 0,-0.41456 0.33586,-0.75 0.75037,-0.75 z m -0.75037,-5.25004 c 0,-0.41457 0.33581,-0.75 0.75037,-0.75 0.41344,0 0.75,0.33543 0.75,0.75 v 2.99929 c 0,0.41457 -0.33656,0.75075 -0.75,0.75075 -0.41456,0 -0.75037,-0.33618 -0.75037,-0.75075 z m 10.4999,9.75009 h -18.00033 c -1.65674,0 -2.99962,-1.344 -2.99962,-3.00005 v -6.75004 c 0,-0.41457 0.33581,-0.75 0.75038,-0.75 0.41343,0 0.75,0.33543 0.75,0.75 v 6.37504 c 0,1.03566 0.83934,1.8743 1.875,1.8743 h 17.24957 c 1.03566,0 1.8758,-0.83869 1.8758,-1.8743 v -6.75079 c 0,-1.03491 -0.84014,-1.87482 -1.8758,-1.87482 h -13.4999 -0.37467 -7.6e-4 c -1.24326,0 -2.24962,-1.00706 -2.24962,-2.24929 v -0.37575 -1.87463 c 0,-4.14225 3.35747,-7.49967 7.50042,-7.49967 4.14211,0 7.49953,3.35742 7.49953,7.49967 v 0.75 c 0,0.41456 -0.33543,0.75 -0.75,0.75 -0.41381,0 -0.75,-0.33544 -0.75,-0.75 v -0.75 c 0,-3.31383 -2.68654,-6.00042 -5.99953,-6.00042 -3.31387,0 -6.00004,2.68655 -6.00004,6.00042 v 1.12463 0.28636 0.46364 c 0,0.62147 0.50353,1.12579 1.12467,1.12579 h 0.46364 0.28636 9.7499 0.375 1.5 0.37575 1.12425 c 1.6575,0 3.00005,1.34255 3.00005,2.99982 v 7.50004 c 0,1.65605 -1.34255,3.00005 -3.00005,3.00005 z m -18.75033,-12.00066 c -0.41343,0 -0.74924,-0.33543 -0.74924,-0.75 0,-0.41343 0.33581,-0.74925 0.74924,-0.74925 0.41457,0 0.75,0.33582 0.75,0.74925 0,0.41457 -0.33543,0.75 -0.75,0.75 z"
       id="path2-7"
       style="fill:url(#linearGradient1228);fill-opacity:1.0;stroke-width:0.046875" />
  </g>
</svg>
