<?xml version="1.0" encoding="UTF-8" standalone="no"?>
<svg
   width="64"
   version="1.1"
   height="64"
   id="svg15"
   sodipodi:docname="folder-java.svg"
   inkscape:version="1.1.1 (3bf5ae0d25, 2021-09-20)"
   xmlns:inkscape="http://www.inkscape.org/namespaces/inkscape"
   xmlns:sodipodi="http://sodipodi.sourceforge.net/DTD/sodipodi-0.dtd"
   xmlns:xlink="http://www.w3.org/1999/xlink"
   xmlns="http://www.w3.org/2000/svg"
   xmlns:svg="http://www.w3.org/2000/svg"
   xmlns:rdf="http://www.w3.org/1999/02/22-rdf-syntax-ns#"
   xmlns:cc="http://creativecommons.org/ns#"
   xmlns:dc="http://purl.org/dc/elements/1.1/">
  <sodipodi:namedview
     pagecolor="#ffffff"
     bordercolor="#666666"
     borderopacity="1"
     objecttolerance="10"
     gridtolerance="10"
     guidetolerance="10"
     inkscape:pageopacity="0"
     inkscape:pageshadow="2"
     inkscape:window-width="1920"
     inkscape:window-height="1007"
     id="namedview17"
     showgrid="true"
     inkscape:zoom="9.8124999"
     inkscape:cx="27.821656"
     inkscape:cy="37.248408"
     inkscape:window-x="0"
     inkscape:window-y="0"
     inkscape:window-maximized="1"
     inkscape:current-layer="layer1"
     inkscape:pagecheckerboard="0">
    <inkscape:grid
       type="xygrid"
       id="grid898" />
  </sodipodi:namedview>
  <defs
     id="defs5455">
    <linearGradient
       inkscape:collect="always"
       id="linearGradient1171">
      <stop
         style="stop-color:#ff9955;stop-opacity:1"
         offset="0"
         id="stop1165" />
      <stop
         style="stop-color:#ffe6d5;stop-opacity:1"
         offset="0.50507295"
         id="stop1167" />
      <stop
         style="stop-color:#ffb380;stop-opacity:1"
         offset="1"
         id="stop1169" />
    </linearGradient>
    <linearGradient
       id="linearGradient4194">
      <stop
         style="stop-color:#b5006a"
         id="stop4196" />
      <stop
         offset="1"
         style="stop-color:#c70073"
         id="stop4198" />
    </linearGradient>
    <linearGradient
       inkscape:collect="always"
       xlink:href="#linearGradient2230"
       id="linearGradient2232"
       x1="384.57144"
       y1="515.79797"
       x2="448.57144"
       y2="515.79797"
       gradientUnits="userSpaceOnUse"
       gradientTransform="translate(1.8600002e-6)" />
    <linearGradient
       inkscape:collect="always"
       id="linearGradient2230">
      <stop
         style="stop-color:#e9afdd;stop-opacity:1"
         offset="0"
         id="stop2226" />
      <stop
         style="stop-color:#ffe6d5;stop-opacity:1"
         offset="0.50507295"
         id="stop2332" />
      <stop
         style="stop-color:#ffb380;stop-opacity:1"
         offset="1"
         id="stop2228" />
    </linearGradient>
    <linearGradient
       inkscape:collect="always"
       xlink:href="#linearGradient1171"
       id="linearGradient847"
       gradientUnits="userSpaceOnUse"
       x1="131.25"
       y1="280.00604"
       x2="568.75085"
       y2="280.00604"
       gradientTransform="matrix(0.0489808,0,0,0.0489808,416.6427,512.08308)" />
    <linearGradient
       inkscape:collect="always"
       xlink:href="#linearGradient1171"
       id="linearGradient849"
       gradientUnits="userSpaceOnUse"
       x1="131.25"
       y1="280.00604"
       x2="568.75085"
       y2="280.00604"
       gradientTransform="matrix(0.0489808,0,0,0.0489808,416.6427,512.08308)" />
    <linearGradient
       inkscape:collect="always"
       xlink:href="#linearGradient1171"
       id="linearGradient851"
       gradientUnits="userSpaceOnUse"
       x1="131.25"
       y1="280.00604"
       x2="568.75085"
       y2="280.00604"
       gradientTransform="matrix(0.0489808,0,0,0.0489808,416.6427,512.08308)" />
    <linearGradient
       inkscape:collect="always"
       xlink:href="#linearGradient1171"
       id="linearGradient853"
       gradientUnits="userSpaceOnUse"
       x1="131.25"
       y1="280.00604"
       x2="568.75085"
       y2="280.00604"
       gradientTransform="matrix(0.0489808,0,0,0.0489808,416.6427,512.08308)" />
    <linearGradient
       inkscape:collect="always"
       xlink:href="#linearGradient1171"
       id="linearGradient855"
       gradientUnits="userSpaceOnUse"
       x1="131.25"
       y1="280.00604"
       x2="568.75085"
       y2="280.00604"
       gradientTransform="matrix(0.0489808,0,0,0.0489808,416.6427,512.08308)" />
    <linearGradient
       inkscape:collect="always"
       xlink:href="#linearGradient1171"
       id="linearGradient857"
       gradientUnits="userSpaceOnUse"
       x1="131.25"
       y1="280.00604"
       x2="568.75085"
       y2="280.00604"
       gradientTransform="matrix(0.0489808,0,0,0.0489808,416.6427,512.08308)" />
    <linearGradient
       inkscape:collect="always"
       xlink:href="#linearGradient1171"
       id="linearGradient859"
       gradientUnits="userSpaceOnUse"
       x1="131.25"
       y1="280.00604"
       x2="568.75085"
       y2="280.00604"
       gradientTransform="matrix(0.0489808,0,0,0.0489808,416.6427,512.08308)" />
    <linearGradient
       inkscape:collect="always"
       xlink:href="#linearGradient1171"
       id="linearGradient861"
       gradientUnits="userSpaceOnUse"
       x1="131.25"
       y1="280.00604"
       x2="568.75085"
       y2="280.00604"
       gradientTransform="matrix(0.0489808,0,0,0.0489808,416.6427,512.08308)" />
  </defs>
  <metadata
     id="metadata5458">
    <rdf:RDF>
      <cc:Work
         rdf:about="">
        <dc:format>image/svg+xml</dc:format>
        <dc:type
           rdf:resource="http://purl.org/dc/dcmitype/StillImage" />
      </cc:Work>
    </rdf:RDF>
  </metadata>
  <g
     inkscape:label="Capa 1"
     inkscape:groupmode="layer"
     id="layer1"
     transform="translate(-384.57143,-483.798)">
    <rect
       style="fill:#626f9d;fill-opacity:0.2;stroke:none;stroke-width:1.26075"
       id="center-3"
       width="60.099998"
       height="42"
       x="386.57141"
       y="497.79794"
       ry="3.9999959"
       rx="4.0066781" />
    <path
       d="m 442.73835,495.80768 h -29.32672 c -0.64817,0 -1.21496,-0.33361 -1.62011,-0.91817 l -2.1875,-3.33839 c -0.72899,-1.16852 -1.94446,-1.75312 -3.24023,-1.75312 h -14.98741 c -3.72689,0 -6.80495,3.17192 -6.80495,7.01111 v 38.97924 c 0,3.25524 2.59271,6.00966 5.83294,6.00966 h 25.19505 v 0 0 0 0 0 0 0 h 1.94402 v 0 0 0 0 0 0 0 0 0 h 25.19505 c 3.15951,0 5.83294,-2.67126 5.83294,-6.00966 v -33.9712 c 0,-3.33839 -2.59213,-6.00905 -5.83294,-6.00905 z m -25.19491,45.99033 v 0 h -1.94402 v 0 0 z m 29.08353,-6.00947 c 0,2.16999 -1.70156,4.00628 -3.88848,4.00628 h -52.33441 c -2.1062,0 -3.88848,-1.83629 -3.88848,-4.00628 l -5.8e-4,-13.43824 v -7.59568 c 0,-2.17001 1.78229,-4.00628 3.88848,-4.00628 h 29.32671 c 1.29634,0 2.51126,-0.66782 3.24024,-1.75312 l 2.10619,-3.33839 c 0.40518,-0.50072 0.97198,-0.91818 1.62012,-0.91818 h 15.06842 c 2.67343,0 4.86107,2.25378 4.86107,5.00835 v 10.93407 z m -4.86107,-32.9696 h -15.06842 c -1.29634,0 -2.51126,0.66781 -3.24023,1.75311 l -2.1062,3.3384 c -0.3238,0.58455 -0.97198,0.91816 -1.62011,0.91816 h -29.32651 c -1.45794,0 -2.83331,0.16967 -3.889,1.70239 v -8.733 c 0,-2 2.05601,-4 4.05601,-4 h 16.00001 l 0.0429,0.0464 2.9571,-0.0464 3.92107,0.0125 h 29.32672 c 2.10619,0 3.88848,1.83628 3.88848,4.00629 v 3.08814 c -1.29578,-1.33503 -2.99676,-2.08609 -4.94122,-2.08609 z"
       id="path64"
       sodipodi:nodetypes="csccsssssccccccccccccccccccsssccccccccccssccsssccssscccsccscccccccssscc"
       style="fill:url(#linearGradient2232);fill-opacity:1;stroke-width:0.146841" />
    <path
       d="m 433.3574,524.94054 c -0.78982,0 -7.71448,-0.0779 -7.71448,-2.78255 0,-1.06822 1.08982,-1.85495 3.23998,-2.33962 0.46073,-0.10294 0.9203,0.18579 1.02458,0.64787 0.10428,0.46209 -0.18578,0.92069 -0.64786,1.02458 -1.0525,0.23687 -1.58463,0.5072 -1.80676,0.67138 0.5673,0.43452 2.71442,1.06401 5.90464,1.06401 1.88213,0 3.6619,-0.22271 4.88314,-0.61187 0.4479,-0.14407 0.93254,0.10543 1.07645,0.55657 0.14407,0.45116 -0.10542,0.93333 -0.55657,1.07719 -1.38258,0.43968 -3.35176,0.69244 -5.40307,0.69244 z"
       id="path2"
       style="fill:url(#linearGradient847);fill-opacity:1;stroke-width:0.0489808" />
    <path
       d="m 433.11249,528.3692 c -1.73078,0 -5.75524,-0.19593 -5.75524,-2.01243 0,-0.3951 0.19669,-0.95013 1.1342,-1.34775 0.4349,-0.18674 0.93926,0.0176 1.12426,0.45364 0.11556,0.27112 0.08,0.56999 -0.0691,0.80035 0.68632,0.19592 1.90604,0.39184 3.56605,0.39184 1.3313,0 2.58986,-0.13221 3.45256,-0.36161 0.459,-0.12552 0.92701,0.14981 1.04927,0.60692 0.12187,0.45786 -0.14982,0.9274 -0.60727,1.04887 -1.01557,0.27112 -2.39874,0.42017 -3.89456,0.42017 z"
       id="path4"
       style="fill:url(#linearGradient849);fill-opacity:1;stroke-width:0.0489808" />
    <path
       d="m 432.86759,531.79785 c -1.88978,0 -3.79621,-0.62201 -3.79621,-2.01242 0,-0.27705 0.0947,-0.80931 0.72859,-1.25896 0.38725,-0.2736 0.92162,-0.18157 1.19489,0.20435 0.22347,0.31569 0.20377,0.72991 -0.0214,1.02036 0.34344,0.15747 1.0068,0.33235 1.89418,0.33235 0.71537,0 1.40918,-0.11882 1.85574,-0.31723 0.43318,-0.19248 0.93867,0.002 1.13136,0.43528 0.19248,0.43279 -0.002,0.93925 -0.4349,1.1317 -0.67461,0.29962 -1.58075,0.46455 -2.55214,0.46455 z"
       id="path6"
       style="fill:url(#linearGradient851);fill-opacity:1;stroke-width:0.0489808" />
    <path
       d="m 432.50023,535.22651 c -0.96506,0 -9.4288,-0.0846 -9.4288,-3.00008 0,-1.3336 1.73191,-1.90927 2.30078,-2.09926 0.45039,-0.14656 0.93465,0.0937 1.08389,0.54319 0.14943,0.44868 -0.0934,0.93407 -0.54241,1.0839 -0.58797,0.19497 -0.88646,0.37003 -1.0309,0.4789 0.66222,0.51489 3.42082,1.27903 7.61749,1.27903 4.467,0 7.30402,-0.86558 7.71889,-1.37528 0.0448,-0.43107 0.40926,-0.76763 0.85256,-0.76763 0.47335,0 0.85716,0.38343 0.85716,0.85717 0,2.91548 -8.46388,3.00007 -9.4288,3.00007 z"
       id="path8"
       style="fill:url(#linearGradient853);fill-opacity:1;stroke-width:0.0489808" />
    <path
       d="m 431.77679,537.798 c -0.4349,0 -0.79555,-0.006 -1.03262,-0.0167 -0.47258,-0.0226 -0.83747,-0.42437 -0.81489,-0.89732 0.0231,-0.47374 0.42112,-0.84972 0.89772,-0.81529 0.8604,0.0411 3.6282,-0.007 5.28454,-0.0947 3.93169,-0.20434 6.2377,-1.22471 6.67265,-1.68259 0.0339,-0.375 0.31398,-0.69646 0.70278,-0.76591 0.46321,-0.0846 0.91075,0.22673 0.99475,0.69225 0.0465,0.25867 0.0293,0.65702 -0.3134,1.08982 -0.95723,1.20615 -4.2336,2.18405 -7.96721,2.379 -1.28555,0.067 -3.16519,0.11135 -4.42415,0.11135 z"
       id="path10"
       style="fill:url(#linearGradient855);fill-opacity:1;stroke-width:0.0489808" />
    <path
       d="m 440.21569,529.22636 c -0.26997,0 -0.53536,-0.12724 -0.70219,-0.3641 -0.27207,-0.38745 -0.1787,-0.92241 0.20893,-1.1945 0.0226,-0.0159 2.48367,-1.79715 3.00752,-4.80492 0.13681,-0.78349 0.0364,-1.8115 -0.36372,-2.10519 -0.29255,-0.21429 -0.93294,-0.093 -1.7566,0.33387 -0.42112,0.21754 -0.93754,0.0543 -1.15545,-0.36659 -0.21812,-0.42016 -0.054,-0.93754 0.36621,-1.15526 1.48588,-0.77086 2.68321,-0.83537 3.55914,-0.19497 1.46408,1.07317 1.08732,3.50825 1.03971,3.78279 -0.64919,3.72406 -3.58686,5.82528 -3.71162,5.91296 -0.14981,0.10542 -0.32201,0.15574 -0.49191,0.15574 z"
       id="path12"
       style="fill:url(#linearGradient857);fill-opacity:1;stroke-width:0.0489808" />
    <path
       d="m 432.79657,522.36905 c -0.22673,0 -0.45365,-0.0895 -0.62201,-0.26787 l -0.72286,-0.76243 c -0.80319,-0.84722 -0.89311,-2.15707 -0.21352,-3.11469 l 1.12636,-1.58385 c 0.1544,-0.21754 0.17908,-0.5164 0.0628,-0.76243 l -0.40543,-0.85638 c -0.20262,-0.42782 -0.0201,-0.93828 0.40773,-1.14091 0.42858,-0.20186 0.93965,-0.0209 1.14169,0.40773 l 0.40543,0.85638 c 0.38343,0.80931 0.30096,1.76291 -0.21505,2.48866 l -1.12578,1.58384 c -0.20013,0.28203 -0.17373,0.69646 0.0599,0.94347 l 0.72286,0.76244 c 0.32564,0.34325 0.31149,0.88567 -0.0321,1.21129 -0.16589,0.15689 -0.37808,0.23477 -0.58988,0.23477 z"
       id="path14"
       style="fill:url(#linearGradient859);fill-opacity:1;stroke-width:0.0489808" />
    <path
       d="m 436.15567,522.36905 c -0.21391,0 -0.42782,-0.0796 -0.59428,-0.23936 l -0.67883,-0.65281 c -0.80074,-0.77086 -0.89101,-2.01071 -0.21008,-2.88453 l 1.05808,-1.35692 c 0.1745,-0.22423 0.21716,-0.42284 0.1921,-0.47048 -0.2185,-0.42016 -0.0553,-0.93754 0.36506,-1.15605 0.41978,-0.22003 0.93788,-0.0553 1.15604,0.36411 0.362,0.69646 0.2273,1.56204 -0.36161,2.31605 l -1.05769,1.35692 c -0.14408,0.18502 -0.12475,0.43031 0.0473,0.59502 l 0.67848,0.65281 c 0.34114,0.32814 0.35166,0.87054 0.0233,1.21208 -0.16818,0.17526 -0.3928,0.26308 -0.6178,0.26308 z"
       id="path16"
       style="fill:url(#linearGradient861);fill-opacity:1;stroke-width:0.0489808" />
  </g>
</svg>
