<?xml version="1.0" encoding="UTF-8" standalone="no"?>
<svg
   width="64"
   version="1.1"
   height="64"
   id="svg15"
   sodipodi:docname="folder-KDE.svg"
   inkscape:version="1.1.1 (3bf5ae0d25, 2021-09-20)"
   xmlns:inkscape="http://www.inkscape.org/namespaces/inkscape"
   xmlns:sodipodi="http://sodipodi.sourceforge.net/DTD/sodipodi-0.dtd"
   xmlns:xlink="http://www.w3.org/1999/xlink"
   xmlns="http://www.w3.org/2000/svg"
   xmlns:svg="http://www.w3.org/2000/svg"
   xmlns:rdf="http://www.w3.org/1999/02/22-rdf-syntax-ns#"
   xmlns:cc="http://creativecommons.org/ns#"
   xmlns:dc="http://purl.org/dc/elements/1.1/">
  <sodipodi:namedview
     pagecolor="#ffffff"
     bordercolor="#666666"
     borderopacity="1"
     objecttolerance="10"
     gridtolerance="10"
     guidetolerance="10"
     inkscape:pageopacity="0"
     inkscape:pageshadow="2"
     inkscape:window-width="1920"
     inkscape:window-height="1005"
     id="namedview17"
     showgrid="true"
     inkscape:zoom="5.656854"
     inkscape:cx="27.577166"
     inkscape:cy="50.469749"
     inkscape:window-x="0"
     inkscape:window-y="0"
     inkscape:window-maximized="1"
     inkscape:current-layer="layer1"
     inkscape:document-rotation="0"
     inkscape:pagecheckerboard="0"
     showguides="false"
     inkscape:lockguides="false">
    <inkscape:grid
       type="xygrid"
       id="grid929" />
  </sodipodi:namedview>
  <defs
     id="defs5455">
    <linearGradient
       inkscape:collect="always"
       id="linearGradient956">
      <stop
         style="stop-color:#80b3ff;stop-opacity:1"
         offset="0"
         id="stop950" />
      <stop
         style="stop-color:#20ffff;stop-opacity:0.80000001"
         offset="0.50507295"
         id="stop952" />
      <stop
         style="stop-color:#80e5ff;stop-opacity:1"
         offset="1"
         id="stop954" />
    </linearGradient>
    <linearGradient
       inkscape:collect="always"
       id="linearGradient1020">
      <stop
         style="stop-color:#00ffcc;stop-opacity:0.70950371"
         offset="0"
         id="stop1014" />
      <stop
         style="stop-color:#20ffff;stop-opacity:0.80000001"
         offset="0.50507295"
         id="stop1016" />
      <stop
         style="stop-color:#ffaeff;stop-opacity:0.69"
         offset="1"
         id="stop1018" />
    </linearGradient>
    <linearGradient
       inkscape:collect="always"
       xlink:href="#linearGradient956"
       id="linearGradient2232"
       x1="384.57144"
       y1="515.79797"
       x2="448.57144"
       y2="515.79797"
       gradientUnits="userSpaceOnUse" />
    <linearGradient
       inkscape:collect="always"
       xlink:href="#linearGradient956"
       id="linearGradient1077"
       gradientUnits="userSpaceOnUse"
       gradientTransform="matrix(0.95241128,0,0,0.95241128,33.856351,31.923322)"
       x1="406.56262"
       y1="519.68927"
       x2="429.18661"
       y2="519.68927" />
    <linearGradient
       inkscape:collect="always"
       xlink:href="#linearGradient956"
       id="linearGradient1079"
       gradientUnits="userSpaceOnUse"
       gradientTransform="translate(15.097742)"
       x1="76.020905"
       y1="312.14481"
       x2="418.28314"
       y2="312.14481" />
    <linearGradient
       inkscape:collect="always"
       xlink:href="#linearGradient1020"
       id="linearGradient1081"
       gradientUnits="userSpaceOnUse"
       gradientTransform="matrix(0.08156557,0,0,0.08156557,442.32086,526.58787)"
       x1="12.000006"
       y1="20.578442"
       x2="29.156878"
       y2="20.578442" />
  </defs>
  <metadata
     id="metadata5458">
    <rdf:RDF>
      <cc:Work
         rdf:about="">
        <dc:format>image/svg+xml</dc:format>
        <dc:type
           rdf:resource="http://purl.org/dc/dcmitype/StillImage" />
      </cc:Work>
    </rdf:RDF>
  </metadata>
  <g
     inkscape:label="Capa 1"
     inkscape:groupmode="layer"
     id="layer1"
     transform="translate(-384.57143,-483.798)">
    <rect
       style="fill:#626f9d;fill-opacity:0.2;stroke:none;stroke-width:1.26075"
       id="center-3"
       width="60.099998"
       height="42"
       x="386.57147"
       y="497.798"
       ry="3.9999959"
       rx="4.0066781" />
    <path
       d="m 442.73835,495.80768 h -29.32672 c -0.64817,0 -1.21496,-0.33361 -1.62011,-0.91817 l -2.1875,-3.33839 c -0.72899,-1.16852 -1.94446,-1.75312 -3.24023,-1.75312 h -14.98741 c -3.72689,0 -6.80495,3.17192 -6.80495,7.01111 v 38.97924 c 0,3.25524 2.59271,6.00966 5.83294,6.00966 h 25.19505 v 0 0 0 0 0 0 0 h 1.94402 v 0 0 0 0 0 0 0 0 0 h 25.19505 c 3.15951,0 5.83294,-2.67126 5.83294,-6.00966 v -33.9712 c 0,-3.33839 -2.59213,-6.00905 -5.83294,-6.00905 z m -25.19491,45.99033 v 0 h -1.94402 v 0 0 z m 29.08353,-6.00947 c 0,2.16999 -1.70156,4.00628 -3.88848,4.00628 h -52.33441 c -2.1062,0 -3.88848,-1.83629 -3.88848,-4.00628 l -5.8e-4,-13.43824 v -7.59568 c 0,-2.17001 1.78229,-4.00628 3.88848,-4.00628 h 29.32671 c 1.29634,0 2.51126,-0.66782 3.24024,-1.75312 l 2.10619,-3.33839 c 0.40518,-0.50072 0.97198,-0.91818 1.62012,-0.91818 h 15.06842 c 2.67343,0 4.86107,2.25378 4.86107,5.00835 v 10.93407 z m -4.86107,-32.9696 h -15.06842 c -1.29634,0 -2.51126,0.66781 -3.24023,1.75311 l -2.1062,3.3384 c -0.3238,0.58455 -0.97198,0.91816 -1.62011,0.91816 h -29.32651 c -1.45794,0 -2.83331,0.16967 -3.889,1.70239 v -8.733 c 0,-2 2.05601,-4 4.05601,-4 h 16.00001 l 0.0429,0.0464 2.9571,-0.0464 3.92107,0.0125 h 29.32672 c 2.10619,0 3.88848,1.83628 3.88848,4.00629 v 3.08814 c -1.29578,-1.33503 -2.99676,-2.08609 -4.94122,-2.08609 z"
       id="path64"
       sodipodi:nodetypes="csccsssssccccccccccccccccccsssccccccccccssccsssccssscccsccscccccccssscc"
       style="fill:url(#linearGradient2232);fill-opacity:1;stroke-width:0.146841" />
    <path
       d="m 441.93577,530.07063 v 0 0 0 0 0 0 0 c 0.0105,0.0107 0,0 0,0 1.44457,1.27307 0.92773,2.93061 -0.19586,4.03879 -1.10668,1.10701 -2.8508,1.16319 -4.03951,0.19733 -0.0174,0.0101 -0.0369,0.0132 -0.055,0.0213 -0.008,-0.01 -0.0111,-0.0206 -0.0197,-0.0307 -0.2738,-0.27272 -0.62448,-0.52841 -1.01061,-0.36733 -0.38679,0.15964 -0.46365,0.55723 -0.46365,0.97549 0,0.0375 0.0106,0.0717 0.0225,0.10566 -0.19026,1.48988 -1.45363,2.64422 -2.99566,2.64422 -1.56967,0 -2.8596,-1.19502 -3.01223,-2.72477 -0.0162,-0.007 -0.0314,-0.0151 -0.048,-0.0213 7.6e-4,-0.008 0.005,-0.0136 0.005,-0.0213 0,-0.3857 -0.0682,-0.81438 -0.45417,-0.97398 -0.38612,-0.16042 -0.72352,0.0662 -1.0187,0.36209 -0.0175,0.0174 -0.0267,0.0395 -0.0387,0.0607 -1.18727,0.92964 -2.90106,0.86535 -3.9933,-0.2276 -1.10926,-1.10927 -1.16364,-2.85558 -0.19249,-4.04472 -0.0109,-0.0206 -0.0155,-0.0426 -0.0248,-0.0646 0.27275,-0.27269 0.5273,-0.62376 0.36731,-1.00951 -0.16037,-0.38574 -0.55865,-0.46409 -0.97658,-0.46409 -0.0275,0 -0.0515,0.0109 -0.0775,0.0166 -1.48876,-0.189 -2.64269,-1.45499 -2.64269,-2.99528 0,-1.57557 1.20318,-2.86777 2.74097,-3.01225 0.005,-0.0133 0.0126,-0.026 0.0182,-0.0387 0.38018,-0.004 0.79589,-0.0747 0.95261,-0.45378 0.15961,-0.38504 -0.0646,-0.72052 -0.35987,-1.01539 -0.96856,-1.1876 -0.91417,-2.93245 0.19434,-4.04098 1.11252,-1.11336 2.86961,-1.16467 4.05832,-0.18143 0.0125,-0.007 0.0255,-0.009 0.0379,-0.014 0.27047,0.26642 0.36553,0.34909 0.36553,0.34909 v 0 0 0 0 0 0 0 0 0 0 0 0 0 0 1.05005 0 0 0 0.67441 c 0,0 -0.44367,0.0837 -0.77992,-0.33612 l -0.47188,-0.47148 c -0.59161,-0.59123 -1.55008,-0.59123 -2.1406,0 -0.5908,0.5912 -0.5908,1.54974 0,2.1402 l 0.53503,0.53541 0.004,0.0225 c 0.35395,0.34585 0.45598,0.89275 0.20876,1.34947 -0.005,0.008 -0.0101,0.0123 -0.0133,0.019 l 0.005,0.0256 c -0.16483,0.33001 -0.30895,0.67364 -0.42717,1.02835 l -0.0228,0.0174 c -0.004,0.013 -0.005,0.0263 -0.008,0.0395 -0.16072,0.54023 -0.68797,0.86688 -1.2282,0.79962 h -0.64024 c -0.8362,0 -1.51385,0.67808 -1.51385,1.51354 0,0.83529 0.67765,1.51371 1.51385,1.51371 h 0.75602 l 0.0225,0.0166 c 0.48962,-7.6e-4 0.94297,0.31335 1.09,0.80627 0.002,0.005 0.002,0.009 0.002,0.0132 l 0.0283,0.0206 c 0.11898,0.35401 0.2616,0.69767 0.42787,1.02721 l -0.007,0.0457 c 0.006,0.009 0.0118,0.0151 0.0159,0.0244 0.26493,0.48924 0.13228,1.08638 -0.28751,1.42262 l -0.45966,0.46041 c -0.59079,0.59048 -0.59079,1.54899 0,2.14022 0.59047,0.59046 1.549,0.59046 2.14058,0 l 0.53541,-0.53502 0.0221,-0.004 c 0.3451,-0.3444 0.88605,-0.44123 1.33722,-0.19735 0.004,0.002 0.005,0.005 0.008,0.007 l 0.0488,-0.008 c 0.33,0.1648 0.67363,0.30889 1.02835,0.42714 l 0.0307,0.0395 c 0.005,0.002 0.0111,0.002 0.0151,0.004 0.4944,0.14634 0.80808,0.6016 0.80661,1.09302 l 0.005,0.007 v 0.75745 c 0,0.83582 0.67732,1.51351 1.51355,1.51351 0.83583,0 1.5139,-0.67769 1.5139,-1.51351 v -0.7575 l 0.005,-0.007 c -0.002,-0.49147 0.31227,-0.94596 0.80668,-1.09302 0.006,-0.002 0.0104,-0.002 0.0155,-0.004 l 0.0302,-0.0387 c 0.35393,-0.119 0.69721,-0.26088 1.02715,-0.42791 l 0.05,0.008 c 0.003,-0.002 0.005,-0.005 0.008,-0.007 0.45117,-0.24388 0.99215,-0.14705 1.33725,0.19735 l 0.0225,0.004 0.53541,0.53502 c 0.59047,0.59047 1.549,0.59047 2.14062,0 0.59084,-0.59123 0.9434,-1.17877 0.35256,-1.76925 v 0 0 0 0 c 0.38602,-0.17105 0.7197,-0.50745 0.91133,-1.19936 v 0 0 0 0 0 0 0 z"
       id="path2-7"
       sodipodi:nodetypes="ccccccccccccccscsccscccccccscsccccccccccccccccccccccccccccccccccccccccsssccccccccccccccccccccccsssccccccccccccccccccccccccccccccccccccc"
       style="fill:url(#linearGradient1077);fill-opacity:1.0;stroke-width:0.0472978" />
    <g
       id="g4-3-5"
       transform="matrix(0.03156615,0,0,0.03156615,427.2733,513.02573)">
      <path
         d="m 370.7276,568.14483 c -17.731,0 -34.454,-7.767 -45.88,-21.309 l -113.729,-134.789 v 96.096 c 0,33.084 -26.916,60 -60,60 -33.08397,0 -59.999951,-26.916 -59.999951,-60 v -391.998 c 0,-33.084027 26.915981,-60.000048 59.999951,-60.000048 33.084,0 60,26.916021 60,60.000048 v 96.097 L 324.8466,77.452794 c 21.335,-25.284012 59.264,-28.500012 84.55,-7.166013 12.25,10.336018 19.74,24.82204 21.094,40.792049 1.353,15.969 -3.594,31.51 -13.929,43.759 l -132.728,157.306 132.729,157.308 c 27.80759,33.25131 18.12,63.214 -7.165,84.549 -10.81,9.121 -24.543,14.144 -38.67,14.144 z m -165.398,-201.22 c 4.419,0 8.614,1.949 11.464,5.327 l 130.982,155.237 c 5.714,6.772 14.079,10.656 22.952,10.656 7.056,0 13.919,-2.512 19.324,-7.072 12.642,-10.667 14.25,-29.632 3.583,-42.275 l -140.891,-166.982 c -4.714,-5.587 -4.714,-13.759 0,-19.346 l 140.89,-166.979 c 5.168,-6.125 7.641,-13.895 6.964,-21.879 -0.676,-7.985 -4.422,-15.228005 -10.546,-20.396014 -12.643,-10.666017 -31.608,-9.059013 -42.276,3.583005 L 207.5836,262.95283 c -4.062,4.814 -10.7,6.578 -16.614,4.416 -5.916,-2.162 -9.851,-7.79 -9.851,-14.088 v -137.136 c 0,-16.542005 -13.458,-30.000022 -30,-30.000022 -16.54199,0 -29.99997,13.458017 -29.99997,30.000022 v 391.999 c 0,16.542 13.45798,30 29.99997,30 16.542,0 30,-13.458 30,-30 v -115.303 c 0,-3.541 1.252,-6.967 3.536,-9.673 l 9.21,-10.917 c 2.851,-3.377 7.045,-5.326 11.465,-5.326 z"
         id="path2-6-3"
         sodipodi:nodetypes="sccsssssscccccccsssccsccccccccccssssssssccs"
         style="fill:url(#linearGradient1079);fill-opacity:1.0" />
    </g>
    <circle
       cx="444.02283"
       cy="528.28943"
       r="1.0495572"
       id="circle4-5-5"
       style="fill:url(#linearGradient1081);fill-opacity:1;stroke-width:0.0699707" />
  </g>
</svg>
