<?xml version="1.0" encoding="UTF-8" standalone="no"?>
<svg
   width="64"
   version="1.1"
   height="64"
   id="svg17"
   sodipodi:docname="folder-print.svg"
   inkscape:version="1.1.1 (3bf5ae0d25, 2021-09-20)"
   xmlns:inkscape="http://www.inkscape.org/namespaces/inkscape"
   xmlns:sodipodi="http://sodipodi.sourceforge.net/DTD/sodipodi-0.dtd"
   xmlns:xlink="http://www.w3.org/1999/xlink"
   xmlns="http://www.w3.org/2000/svg"
   xmlns:svg="http://www.w3.org/2000/svg"
   xmlns:rdf="http://www.w3.org/1999/02/22-rdf-syntax-ns#"
   xmlns:cc="http://creativecommons.org/ns#"
   xmlns:dc="http://purl.org/dc/elements/1.1/">
  <sodipodi:namedview
     pagecolor="#ffffff"
     bordercolor="#666666"
     borderopacity="1"
     objecttolerance="10"
     gridtolerance="10"
     guidetolerance="10"
     inkscape:pageopacity="0"
     inkscape:pageshadow="2"
     inkscape:window-width="1920"
     inkscape:window-height="1007"
     id="namedview19"
     showgrid="true"
     inkscape:zoom="9.8125"
     inkscape:cx="21.401274"
     inkscape:cy="27.363057"
     inkscape:window-x="0"
     inkscape:window-y="0"
     inkscape:window-maximized="1"
     inkscape:current-layer="layer1"
     inkscape:document-rotation="0"
     inkscape:pagecheckerboard="0">
    <inkscape:grid
       type="xygrid"
       id="grid1098" />
  </sodipodi:namedview>
  <defs
     id="defs5455">
    <linearGradient
       inkscape:collect="always"
       xlink:href="#linearGradient2230"
       id="linearGradient2232"
       x1="384.57144"
       y1="515.79797"
       x2="448.57144"
       y2="515.79797"
       gradientUnits="userSpaceOnUse"
       gradientTransform="translate(-1.8e-5)" />
    <linearGradient
       inkscape:collect="always"
       id="linearGradient2230">
      <stop
         style="stop-color:#4e99ca;stop-opacity:0.80000001"
         offset="0"
         id="stop2226" />
      <stop
         style="stop-color:#20ffff;stop-opacity:0.80000001"
         offset="0.50507295"
         id="stop2332" />
      <stop
         style="stop-color:#ffaeff;stop-opacity:0.69"
         offset="1"
         id="stop2228" />
    </linearGradient>
    <linearGradient
       inkscape:collect="always"
       xlink:href="#linearGradient2230"
       id="linearGradient1013"
       gradientUnits="userSpaceOnUse"
       gradientTransform="translate(16.7,5)"
       x1="403.87143"
       y1="520.79803"
       x2="427.87137"
       y2="520.79803" />
  </defs>
  <metadata
     id="metadata5458">
    <rdf:RDF>
      <cc:Work
         rdf:about="">
        <dc:format>image/svg+xml</dc:format>
        <dc:type
           rdf:resource="http://purl.org/dc/dcmitype/StillImage" />
      </cc:Work>
    </rdf:RDF>
  </metadata>
  <g
     inkscape:label="Capa 1"
     inkscape:groupmode="layer"
     id="layer1"
     transform="translate(-384.57143,-483.798)">
    <rect
       style="fill:#626f9d;fill-opacity:0.2;stroke:none;stroke-width:1.26075"
       id="center-3"
       width="60.099998"
       height="42"
       x="386.57138"
       y="497.79794"
       ry="3.9999959"
       rx="4.0066781" />
    <path
       d="m 442.73833,495.80768 h -29.32672 c -0.64817,0 -1.21496,-0.33361 -1.62011,-0.91817 l -2.1875,-3.33839 c -0.72899,-1.16852 -1.94446,-1.75312 -3.24023,-1.75312 h -14.98741 c -3.72689,0 -6.80495,3.17192 -6.80495,7.01111 v 38.97924 c 0,3.25524 2.59271,6.00966 5.83294,6.00966 h 25.19505 v 0 0 0 0 0 0 0 h 1.94402 v 0 0 0 0 0 0 0 0 0 h 25.19505 c 3.15951,0 5.83294,-2.67126 5.83294,-6.00966 v -33.9712 c 0,-3.33839 -2.59213,-6.00905 -5.83294,-6.00905 z m -25.19491,45.99033 v 0 h -1.94402 v 0 0 z m 29.08353,-6.00947 c 0,2.16999 -1.70156,4.00628 -3.88848,4.00628 h -52.33441 c -2.1062,0 -3.88848,-1.83629 -3.88848,-4.00628 L 386.515,522.3503 v -7.59568 c 0,-2.17001 1.78229,-4.00628 3.88848,-4.00628 h 29.32671 c 1.29634,0 2.51126,-0.66782 3.24024,-1.75312 l 2.10619,-3.33839 c 0.40518,-0.50072 0.97198,-0.91818 1.62012,-0.91818 h 15.06842 c 2.67343,0 4.86107,2.25378 4.86107,5.00835 v 10.93407 z m -4.86107,-32.9696 h -15.06842 c -1.29634,0 -2.51126,0.66781 -3.24023,1.75311 l -2.1062,3.3384 c -0.3238,0.58455 -0.97198,0.91816 -1.62011,0.91816 h -29.32651 c -1.45794,0 -2.83331,0.16967 -3.889,1.70239 v -8.733 c 0,-2 2.05601,-4 4.05601,-4 h 16.00001 l 0.0429,0.0464 2.9571,-0.0464 3.92107,0.0125 h 29.32672 c 2.10619,0 3.88848,1.83628 3.88848,4.00629 v 3.08814 c -1.29578,-1.33503 -2.99676,-2.08609 -4.94122,-2.08609 z"
       id="path64"
       sodipodi:nodetypes="csccsssssccccccccccccccccccsssccccccccccssccsssccssscccsccscccccccssscc"
       style="fill:url(#linearGradient2232);fill-opacity:1;stroke-width:0.146841" />
    <path
       d="m 433.32211,530.29797 h 2.99929 c 0.41457,0 0.75,0.33619 0.75,0.75075 0,0.41307 -0.33543,0.75 -0.75,0.75 h -2.99929 c -0.41457,0 -0.75019,-0.33693 -0.75019,-0.75 -5e-5,-0.41456 0.33562,-0.75075 0.75019,-0.75075 z m -3.75099,0.75075 c 0,-0.41456 0.33581,-0.75075 0.75038,-0.75075 0.41418,0 0.75,0.33619 0.75,0.75075 0,0.41307 -0.33586,0.75 -0.75,0.75 -0.41457,0 -0.75038,-0.33693 -0.75038,-0.75 z m 6.00024,2.99925 c 0,0.41457 -0.33544,0.75 -0.75,0.75 h -6.00024 c -0.41344,0 -0.74925,-0.33543 -0.74925,-0.75 0,-0.41456 0.33581,-0.75 0.74925,-0.75 h 6.00024 c 0.41456,0 0.75,0.33544 0.75,0.75 z m 6.66412,-0.75 h -1.78833 c -1.03636,0 -1.875,-0.83934 -1.875,-1.875 v -1.5 c 0,-0.62114 -0.50465,-1.12504 -1.12575,-1.12504 h -9.7499 c -0.62147,0 -1.125,0.5039 -1.125,1.12504 v 5.25 c 0,0.62185 0.50353,1.1258 1.125,1.1258 h 9.7499 c 0.48928,0 1.12575,-0.43823 1.12575,-0.7508 v 0 c 0,-0.41381 0.33544,-0.75 0.74925,-0.75 0.41457,0 0.75,0.33619 0.75,0.75 0,0.052 -0.0117,0.10036 -0.0154,0.1516 -0.0791,1.17047 -1.04371,2.09845 -2.23387,2.09845 h -10.50032 c -1.24257,0 -2.25038,-1.00706 -2.25038,-2.25005 v -2.25 -1.49925 -2.25075 c 0,-1.24223 1.00781,-2.25004 2.25038,-2.25004 h 10.50028 c 1.24218,0 2.24925,1.00781 2.24925,2.25004 v 1.50075 c 0,0.41307 0.33543,0.75 0.75,0.75 h 0.37575 c 1.0349,0 1.87504,-0.84009 1.87504,-1.87575 v -4.87486 c 0,-0.41418 0.33544,-0.75 0.75,-0.75 0.41307,0 0.74925,0.33582 0.74925,0.75 v 5.71074 c 5e-5,0.96014 -1.34367,2.53912 -2.33592,2.53912 z m 0.0859,-10.50028 c -0.41381,0 -0.75,-0.33544 -0.75,-0.75 0,-0.41344 0.33619,-0.74925 0.75,-0.74925 0.41456,0 0.7508,0.33581 0.7508,0.74925 0,0.41456 -0.33624,0.75 -0.7508,0.75 z m -4.49925,0 h -0.75075 -9.74957 -3.37538 c -1.03566,0 -1.87462,0.8401 -1.87462,1.87505 v 4.12519 0.13771 2.11308 c 0,0.41307 0.33543,0.75 0.75,0.75 0.41343,0 0.74924,0.33544 0.74924,0.74925 0,0.41457 -0.33581,0.75 -0.74924,0.75 -0.0517,0 -0.10036,-0.0117 -0.15127,-0.0154 -1.1715,-0.0791 -2.09911,-1.04371 -2.09911,-2.23387 0,-0.11353 0.0168,-0.22045 0.0326,-0.32887 -0.019,-0.13842 -0.0326,-0.27835 -0.0326,-0.42188 v -5.99986 c 0,-1.65717 1.34362,-2.99967 2.99962,-2.99967 h 1.12576 0.37462 2.625 0.75 8.99991 c 0.62109,0 1.12575,-0.50428 1.12575,-1.12575 V 516.423 c 0,-0.62109 -0.50466,-1.12463 -1.12575,-1.12463 h -9.74986 c -0.62147,0 -1.125,0.50354 -1.125,1.12463 v 2.62505 c 0,0.41456 -0.33544,0.75 -0.75,0.75 -0.41457,0 -0.75,-0.33544 -0.75,-0.75 v -2.99968 c -5e-5,-1.24331 1.00776,-2.25037 2.25033,-2.25037 h 10.50028 c 1.24218,0 2.24925,1.00706 2.24925,2.25037 v 4.50005 c 4e-5,1.24219 -1.00702,2.24925 -2.24921,2.24925 z m -13.50103,1.50042 c 0.41456,0 0.75038,0.33582 0.75038,0.75 0,0.41457 -0.33582,0.75038 -0.75038,0.75038 -0.41348,0 -0.75,-0.33581 -0.75,-0.75038 -5e-5,-0.41418 0.33652,-0.75 0.75,-0.75 z"
       id="path2-7"
       style="fill:url(#linearGradient1013);fill-opacity:1.0;stroke-width:0.046875" />
  </g>
</svg>
