<?xml version="1.0" encoding="UTF-8" standalone="no"?>
<svg
   id="svg2"
   height="64"
   version="1.1"
   width="64"
   sodipodi:docname="folder-unlocked.svg"
   inkscape:version="1.1.1 (3bf5ae0d25, 2021-09-20)"
   xmlns:inkscape="http://www.inkscape.org/namespaces/inkscape"
   xmlns:sodipodi="http://sodipodi.sourceforge.net/DTD/sodipodi-0.dtd"
   xmlns:xlink="http://www.w3.org/1999/xlink"
   xmlns="http://www.w3.org/2000/svg"
   xmlns:svg="http://www.w3.org/2000/svg"
   xmlns:rdf="http://www.w3.org/1999/02/22-rdf-syntax-ns#"
   xmlns:cc="http://creativecommons.org/ns#"
   xmlns:dc="http://purl.org/dc/elements/1.1/">
  <sodipodi:namedview
     pagecolor="#ffffff"
     bordercolor="#666666"
     borderopacity="1"
     objecttolerance="10"
     gridtolerance="10"
     guidetolerance="10"
     inkscape:pageopacity="0"
     inkscape:pageshadow="2"
     inkscape:window-width="1920"
     inkscape:window-height="1007"
     id="namedview18"
     showgrid="true"
     inkscape:zoom="9.8124999"
     inkscape:cx="20.789809"
     inkscape:cy="42.34395"
     inkscape:window-x="0"
     inkscape:window-y="0"
     inkscape:window-maximized="1"
     inkscape:current-layer="svg2"
     inkscape:document-rotation="0"
     inkscape:pagecheckerboard="0">
    <inkscape:grid
       type="xygrid"
       id="grid964" />
  </sodipodi:namedview>
  <defs
     id="defs5455">
    <linearGradient
       gradientTransform="matrix(1 0 0 0.99967455 0 0.17645)"
       x2="0"
       gradientUnits="userSpaceOnUse"
       y2="499.78421"
       y1="541.79797"
       xlink:href="#linearGradient4172-5"
       id="linearGradient4178" />
    <linearGradient
       id="linearGradient4172-5">
      <stop
         id="stop4174-6"
         style="stop-color:#3daee9" />
      <stop
         id="stop4176-6"
         style="stop-color:#6cc1ef"
         offset="1" />
    </linearGradient>
    <linearGradient
       inkscape:collect="always"
       xlink:href="#linearGradient2230"
       id="linearGradient2232"
       x1="384.57144"
       y1="515.79797"
       x2="448.57144"
       y2="515.79797"
       gradientUnits="userSpaceOnUse"
       gradientTransform="translate(-384.57143,-483.798)" />
    <linearGradient
       inkscape:collect="always"
       id="linearGradient2230">
      <stop
         style="stop-color:#4e99ca;stop-opacity:0.80000001"
         offset="0"
         id="stop2226" />
      <stop
         style="stop-color:#20ffff;stop-opacity:0.80000001"
         offset="0.50507295"
         id="stop2332" />
      <stop
         style="stop-color:#ffaeff;stop-opacity:0.69"
         offset="1"
         id="stop2228" />
    </linearGradient>
    <linearGradient
       inkscape:collect="always"
       xlink:href="#linearGradient2230"
       id="linearGradient1418"
       gradientUnits="userSpaceOnUse"
       gradientTransform="translate(-368.72141,-478.798)"
       x1="404.72144"
       y1="520.79797"
       x2="428.72144"
       y2="520.79797" />
  </defs>
  <metadata
     id="metadata5458">
    <rdf:RDF>
      <cc:Work
         rdf:about="">
        <dc:format>image/svg+xml</dc:format>
        <dc:type
           rdf:resource="http://purl.org/dc/dcmitype/StillImage" />
      </cc:Work>
    </rdf:RDF>
  </metadata>
  <rect
     style="fill:#626f9d;fill-opacity:0.2;stroke:none;stroke-width:1.26075"
     id="center-3"
     width="60.099998"
     height="42"
     x="1.99998"
     y="13.999941"
     ry="3.9999959"
     rx="4.0066781" />
  <path
     d="M 58.16692,12.00968 H 28.8402 c -0.64817,0 -1.21496,-0.33361 -1.62011,-0.91817 L 25.03259,7.75312 C 24.3036,6.5846 23.08813,6 21.79236,6 H 6.80495 C 3.07806,6 0,9.17192 0,13.01111 v 38.97924 c 0,3.25524 2.59271,6.00966 5.83294,6.00966 h 25.19505 v 0 0 0 0 0 0 0 h 1.94402 v 0 0 0 0 0 0 0 0 0 H 58.16706 C 61.32657,58.00001 64,55.32875 64,51.99035 V 18.01915 C 64,14.68076 61.40787,12.0101 58.16706,12.0101 Z M 32.97201,58.00001 v 0 h -1.94402 v 0 0 z m 29.08353,-6.00947 c 0,2.16999 -1.70156,4.00628 -3.88848,4.00628 H 5.83265 c -2.1062,0 -3.88848,-1.83629 -3.88848,-4.00628 L 1.94359,38.5523 v -7.59568 c 0,-2.17001 1.78229,-4.00628 3.88848,-4.00628 h 29.32671 c 1.29634,0 2.51126,-0.66782 3.24024,-1.75312 l 2.10619,-3.33839 c 0.40518,-0.50072 0.97198,-0.91818 1.62012,-0.91818 h 15.06842 c 2.67343,0 4.86107,2.25378 4.86107,5.00835 V 36.88307 Z M 57.19447,19.02094 H 42.12605 c -1.29634,0 -2.51126,0.66781 -3.24023,1.75311 l -2.1062,3.3384 c -0.3238,0.58455 -0.97198,0.91816 -1.62011,0.91816 H 5.833 c -1.45794,0 -2.83331,0.16967 -3.889,1.70239 V 18 c 0,-2 2.05601,-4 4.05601,-4 h 16.00001 l 0.0429,0.0464 2.9571,-0.0464 3.92107,0.0125 h 29.32672 c 2.10619,0 3.88848,1.83628 3.88848,4.00629 v 3.08814 C 60.84051,19.7719 59.13953,19.02084 57.19507,19.02084 Z"
     id="path64"
     sodipodi:nodetypes="csccsssssccccccccccccccccccsssccccccccccssccsssccssscccsccscccccccssscc"
     style="fill:url(#linearGradient2232);fill-opacity:1;stroke-width:0.146841" />
  <path
     d="m 47.250415,49.49995 c 0.41344,0 0.75,0.33544 0.75,0.75 0,0.41382 -0.33656,0.75 -0.75,0.75 -0.41456,0 -0.75037,-0.33618 -0.75037,-0.75 0,-0.41456 0.33586,-0.75 0.75037,-0.75 z m -0.75037,-5.25004 c 0,-0.41457 0.33581,-0.75 0.75037,-0.75 0.41344,0 0.75,0.33543 0.75,0.75 v 2.99929 c 0,0.41457 -0.33656,0.75075 -0.75,0.75075 -0.41456,0 -0.75037,-0.33618 -0.75037,-0.75075 z M 56.999945,54 H 38.999615 C 37.342875,54 36,52.656 36,50.99995 v -6.75004 c 0,-0.41457 0.335805,-0.75 0.750375,-0.75 0.41343,0 0.75,0.33543 0.75,0.75 v 6.37504 c 0,1.03566 0.83934,1.8743 1.875,1.8743 h 17.24957 c 1.03566,0 1.8758,-0.83869 1.8758,-1.8743 v -6.75079 c 0,-1.03491 -0.84014,-1.87482 -1.8758,-1.87482 h -13.4999 -0.37467 -7.6e-4 c -1.24326,0 -2.24962,-1.00706 -2.24962,-2.24929 V 39.3743 37.49967 c 0,-4.14225 3.35747,-7.49967 7.50042,-7.49967 4.14211,0 7.49953,3.35742 7.49953,7.49967 v 0.75 c 0,0.41456 -0.33543,0.75 -0.75,0.75 -0.41381,0 -0.75,-0.33544 -0.75,-0.75 v -0.75 c 0,-3.31383 -2.68654,-6.00042 -5.99953,-6.00042 -3.31387,0 -6.00004,2.68655 -6.00004,6.00042 v 1.12463 0.28636 0.46364 c 0,0.62147 0.50353,1.12579 1.12467,1.12579 h 0.46364 0.28636 9.7499 0.375 1.5 0.37575 1.12425 c 1.6575,0 3.00005,1.34255 3.00005,2.99982 v 7.50004 C 59.999995,52.656 58.657445,54 56.999945,54 Z M 38.249615,41.99934 c -0.41343,0 -0.74924,-0.33543 -0.74924,-0.75 0,-0.41343 0.33581,-0.74925 0.74924,-0.74925 0.41457,0 0.75,0.33582 0.75,0.74925 0,0.41457 -0.33543,0.75 -0.75,0.75 z"
     id="path2-7"
     style="fill:url(#linearGradient1418);fill-opacity:1.0;stroke-width:0.046875" />
</svg>
