<?xml version="1.0" encoding="UTF-8" standalone="no"?>
<svg
   width="64"
   version="1.1"
   height="64"
   id="svg15"
   sodipodi:docname="folder-favorites.svg"
   inkscape:version="1.1.1 (3bf5ae0d25, 2021-09-20)"
   xmlns:inkscape="http://www.inkscape.org/namespaces/inkscape"
   xmlns:sodipodi="http://sodipodi.sourceforge.net/DTD/sodipodi-0.dtd"
   xmlns:xlink="http://www.w3.org/1999/xlink"
   xmlns="http://www.w3.org/2000/svg"
   xmlns:svg="http://www.w3.org/2000/svg"
   xmlns:rdf="http://www.w3.org/1999/02/22-rdf-syntax-ns#"
   xmlns:cc="http://creativecommons.org/ns#"
   xmlns:dc="http://purl.org/dc/elements/1.1/">
  <sodipodi:namedview
     pagecolor="#ffffff"
     bordercolor="#666666"
     borderopacity="1"
     objecttolerance="10"
     gridtolerance="10"
     guidetolerance="10"
     inkscape:pageopacity="0"
     inkscape:pageshadow="2"
     inkscape:window-width="1920"
     inkscape:window-height="1007"
     id="namedview17"
     showgrid="true"
     inkscape:zoom="9.8125004"
     inkscape:cx="33.019107"
     inkscape:cy="44.789807"
     inkscape:window-x="0"
     inkscape:window-y="0"
     inkscape:window-maximized="1"
     inkscape:current-layer="layer1"
     inkscape:document-rotation="0"
     inkscape:pagecheckerboard="0">
    <inkscape:grid
       type="xygrid"
       id="grid850" />
  </sodipodi:namedview>
  <defs
     id="defs5455">
    <linearGradient
       inkscape:collect="always"
       id="linearGradient997">
      <stop
         style="stop-color:#ffaeff;stop-opacity:0.6901961"
         offset="0"
         id="stop991" />
      <stop
         style="stop-color:#96cdfb;stop-opacity:0.80000001"
         offset="0.50507295"
         id="stop993" />
      <stop
         style="stop-color:#f7bacc;stop-opacity:0.698"
         offset="1"
         id="stop995" />
    </linearGradient>
    <linearGradient
       inkscape:collect="always"
       xlink:href="#linearGradient997"
       id="linearGradient2232"
       x1="384.57143"
       y1="515.798"
       x2="448.57143"
       y2="515.798"
       gradientUnits="userSpaceOnUse" />
    <linearGradient
       inkscape:collect="always"
       xlink:href="#linearGradient997"
       id="linearGradient2577"
       x1="403.27142"
       y1="520.79797"
       x2="430.27142"
       y2="520.79797"
       gradientUnits="userSpaceOnUse"
       gradientTransform="translate(14.29988,5.00004)" />
  </defs>
  <metadata
     id="metadata5458">
    <rdf:RDF>
      <cc:Work
         rdf:about="">
        <dc:format>image/svg+xml</dc:format>
        <dc:type
           rdf:resource="http://purl.org/dc/dcmitype/StillImage" />
      </cc:Work>
    </rdf:RDF>
  </metadata>
  <g
     inkscape:label="Capa 1"
     inkscape:groupmode="layer"
     id="layer1"
     transform="translate(-384.57143,-483.798)">
    <g
       transform="matrix(0.74351172,0,0,0.74285356,332.49565,-244.90835)"
       id="g4" />
    <rect
       style="fill:#626f9d;fill-opacity:0.2;stroke:none;stroke-width:1.26075"
       id="center-3"
       width="60.099998"
       height="42"
       x="386.57144"
       y="497.798"
       ry="3.9999959"
       rx="4.0066781" />
    <path
       d="m 442.73835,495.80768 h -29.32672 c -0.64817,0 -1.21496,-0.33361 -1.62011,-0.91817 l -2.1875,-3.33839 c -0.72899,-1.16852 -1.94446,-1.75312 -3.24023,-1.75312 h -14.98741 c -3.72689,0 -6.80495,3.17192 -6.80495,7.01111 v 38.97924 c 0,3.25524 2.59271,6.00966 5.83294,6.00966 h 25.19505 v 0 0 0 0 0 0 0 h 1.94402 v 0 0 0 0 0 0 0 0 0 h 25.19505 c 3.15951,0 5.83294,-2.67126 5.83294,-6.00966 v -33.9712 c 0,-3.33839 -2.59213,-6.00905 -5.83294,-6.00905 z m -25.19491,45.99033 v 0 h -1.94402 v 0 0 z m 29.08353,-6.00947 c 0,2.16999 -1.70156,4.00628 -3.88848,4.00628 h -52.33441 c -2.1062,0 -3.88848,-1.83629 -3.88848,-4.00628 l -5.8e-4,-13.43824 v -7.59568 c 0,-2.17001 1.78229,-4.00628 3.88848,-4.00628 h 29.32671 c 1.29634,0 2.51126,-0.66782 3.24024,-1.75312 l 2.10619,-3.33839 c 0.40518,-0.50072 0.97198,-0.91818 1.62012,-0.91818 h 15.06842 c 2.67343,0 4.86107,2.25378 4.86107,5.00835 v 10.93407 z m -4.86107,-32.9696 h -15.06842 c -1.29634,0 -2.51126,0.66781 -3.24023,1.75311 l -2.1062,3.3384 c -0.3238,0.58455 -0.97198,0.91816 -1.62011,0.91816 h -29.32651 c -1.45794,0 -2.83331,0.16967 -3.889,1.70239 v -8.733 c 0,-2 2.05601,-4 4.05601,-4 h 16.00001 l 0.0429,0.0464 2.9571,-0.0464 3.92107,0.0125 h 29.32672 c 2.10619,0 3.88848,1.83628 3.88848,4.00629 v 3.08814 c -1.29578,-1.33503 -2.99676,-2.08609 -4.94122,-2.08609 z"
       id="path64"
       sodipodi:nodetypes="csccsssssccccccccccccccccccsssccccccccccssccsssccssscccsccscccccccssscc"
       style="fill:url(#linearGradient2232);fill-opacity:1;stroke-width:0.146841" />
    <path
       d="m 423.81941,524.89247 c -0.29374,0.29329 -0.74379,0.31036 -1.07183,0.0812 l -0.0212,0.0212 -0.59762,-0.5982 c -1.64971,-1.6508 -1.64971,-4.32769 0,-5.97871 0.32972,-0.32973 0.86476,-0.32973 1.19453,0 0.33068,0.33021 0.33068,0.86569 0,1.19537 -0.98923,0.99109 -0.98923,2.59707 0,3.58722 l 0.59772,0.59812 -0.0212,0.0212 c 0.22948,0.33093 0.21248,0.77816 -0.0802,1.07242 z m 2.18463,-5.91886 c -0.33068,-0.32979 -0.33068,-0.86522 0,-1.1952 0.33,-0.3309 0.86487,-0.3309 1.19453,0 0.32997,0.32998 0.32997,0.86541 0,1.1952 -0.32966,0.3302 -0.86453,0.3302 -1.19453,0 z m 16.43789,7.81563 -5.41962,5.42266 c -0.32956,0.33003 -0.8646,0.33003 -1.19432,0 -0.33089,-0.33009 -0.33089,-0.86517 0,-1.19556 l 4.82188,-4.82521 0.597,-0.59845 c 2.09859,-2.10015 2.30979,-6.05834 0,-8.37018 -2.30943,-2.31097 -6.05398,-2.31097 -8.36346,0 l -0.59132,0.59161 v 0 c -0.30656,0.30945 -0.73147,0.50245 -1.20172,0.50245 -0.46954,0 -0.89426,-0.19296 -1.20079,-0.50245 v 0 l -0.59118,-0.59161 c -2.30926,-2.31097 -6.0543,-2.31097 -8.36353,0 -2.31025,2.31184 -2.15164,6.21817 0,8.37018 l 1.79226,1.794 8.961,8.96848 c 0.32978,0.32968 0.32978,0.86515 0,1.19555 -0.32984,0.32972 -0.86453,0.32972 -1.1945,0 l -4.77981,-4.78261 -5.97425,-5.97886 c -2.81102,-2.8131 -2.96959,-7.79033 0,-10.76216 2.96945,-2.97211 7.78438,-2.97211 10.75398,0 l 0.59753,0.59815 0.59701,-0.59815 c 2.96948,-2.97211 7.78434,-2.97211 10.75379,0 2.97016,2.97183 2.70554,8.05375 5e-5,10.76216 z m -7.51899,6.32866 c 0.32956,0.32972 0.32956,0.86516 0,1.19594 -0.32944,0.3304 -0.86476,0.3304 -1.19564,0 -0.32957,-0.33078 -0.32957,-0.86622 0,-1.19594 0.33084,-0.3304 0.86612,-0.3304 1.19564,0 z"
       id="path2"
       style="fill:url(#linearGradient2577);fill-opacity:1;stroke-width:0.052826" />
  </g>
</svg>
