<?xml version="1.0" encoding="UTF-8" standalone="no"?>
<svg
   width="64"
   version="1.1"
   height="64"
   id="svg15"
   sodipodi:docname="folder-calculate.svg"
   inkscape:version="1.1.1 (3bf5ae0d25, 2021-09-20)"
   xmlns:inkscape="http://www.inkscape.org/namespaces/inkscape"
   xmlns:sodipodi="http://sodipodi.sourceforge.net/DTD/sodipodi-0.dtd"
   xmlns:xlink="http://www.w3.org/1999/xlink"
   xmlns="http://www.w3.org/2000/svg"
   xmlns:svg="http://www.w3.org/2000/svg"
   xmlns:rdf="http://www.w3.org/1999/02/22-rdf-syntax-ns#"
   xmlns:cc="http://creativecommons.org/ns#"
   xmlns:dc="http://purl.org/dc/elements/1.1/">
  <sodipodi:namedview
     pagecolor="#ffffff"
     bordercolor="#666666"
     borderopacity="1"
     objecttolerance="10"
     gridtolerance="10"
     guidetolerance="10"
     inkscape:pageopacity="0"
     inkscape:pageshadow="2"
     inkscape:window-width="1920"
     inkscape:window-height="1007"
     id="namedview17"
     showgrid="true"
     inkscape:zoom="9.8125"
     inkscape:cx="32"
     inkscape:cy="31.949045"
     inkscape:window-x="0"
     inkscape:window-y="0"
     inkscape:window-maximized="1"
     inkscape:current-layer="layer1"
     inkscape:document-rotation="0"
     inkscape:pagecheckerboard="0">
    <inkscape:grid
       type="xygrid"
       id="grid850" />
  </sodipodi:namedview>
  <defs
     id="defs5455">
    <linearGradient
       inkscape:collect="always"
       xlink:href="#linearGradient2230"
       id="linearGradient2232"
       x1="384.57144"
       y1="515.79797"
       x2="448.57144"
       y2="515.79797"
       gradientUnits="userSpaceOnUse" />
    <linearGradient
       inkscape:collect="always"
       id="linearGradient2230">
      <stop
         style="stop-color:#4e99ca;stop-opacity:0.80000001"
         offset="0"
         id="stop2226" />
      <stop
         style="stop-color:#20ffff;stop-opacity:0.80000001"
         offset="0.50507295"
         id="stop2332" />
      <stop
         style="stop-color:#ffaeff;stop-opacity:0.69"
         offset="1"
         id="stop2228" />
    </linearGradient>
    <linearGradient
       inkscape:collect="always"
       xlink:href="#linearGradient2230"
       id="linearGradient1137"
       gradientUnits="userSpaceOnUse"
       gradientTransform="translate(16.57229,5)"
       x1="403.99915"
       y1="520.79797"
       x2="427.99915"
       y2="520.79797" />
    <linearGradient
       inkscape:collect="always"
       xlink:href="#linearGradient2230"
       id="linearGradient1139"
       gradientUnits="userSpaceOnUse"
       gradientTransform="translate(16.57229,5)"
       x1="411.22043"
       y1="520.80884"
       x2="421.04901"
       y2="520.80884" />
    <linearGradient
       inkscape:collect="always"
       xlink:href="#linearGradient2230"
       id="linearGradient1141"
       gradientUnits="userSpaceOnUse"
       gradientTransform="translate(16.57229,5)"
       x1="416.59192"
       y1="522.46368"
       x2="421.04898"
       y2="522.46368" />
    <linearGradient
       inkscape:collect="always"
       xlink:href="#linearGradient2230"
       id="linearGradient1143"
       gradientUnits="userSpaceOnUse"
       gradientTransform="translate(16.57229,5)"
       x1="416.59189"
       y1="523.81573"
       x2="418.48639"
       y2="523.81573" />
  </defs>
  <metadata
     id="metadata5458">
    <rdf:RDF>
      <cc:Work
         rdf:about="">
        <dc:format>image/svg+xml</dc:format>
        <dc:type
           rdf:resource="http://purl.org/dc/dcmitype/StillImage" />
      </cc:Work>
    </rdf:RDF>
  </metadata>
  <g
     inkscape:label="Capa 1"
     inkscape:groupmode="layer"
     id="layer1"
     transform="translate(-384.57143,-483.798)">
    <rect
       style="fill:#626f9d;fill-opacity:0.2;stroke:none;stroke-width:1.26075"
       id="center-3"
       width="60.099998"
       height="42"
       x="386.57144"
       y="497.79803"
       ry="3.9999959"
       rx="4.0066781" />
    <path
       d="m 442.73835,495.80768 h -29.32672 c -0.64817,0 -1.21496,-0.33361 -1.62011,-0.91817 l -2.1875,-3.33839 c -0.72899,-1.16852 -1.94446,-1.75312 -3.24023,-1.75312 h -14.98741 c -3.72689,0 -6.80495,3.17192 -6.80495,7.01111 v 38.97924 c 0,3.25524 2.59271,6.00966 5.83294,6.00966 h 25.19505 v 0 0 0 0 0 0 0 h 1.94402 v 0 0 0 0 0 0 0 0 0 h 25.19505 c 3.15951,0 5.83294,-2.67126 5.83294,-6.00966 v -33.9712 c 0,-3.33839 -2.59213,-6.00905 -5.83294,-6.00905 z m -25.19491,45.99033 v 0 h -1.94402 v 0 0 z m 29.08353,-6.00947 c 0,2.16999 -1.70156,4.00628 -3.88848,4.00628 h -52.33441 c -2.1062,0 -3.88848,-1.83629 -3.88848,-4.00628 l -5.8e-4,-13.43824 v -7.59568 c 0,-2.17001 1.78229,-4.00628 3.88848,-4.00628 h 29.32671 c 1.29634,0 2.51126,-0.66782 3.24024,-1.75312 l 2.10619,-3.33839 c 0.40518,-0.50072 0.97198,-0.91818 1.62012,-0.91818 h 15.06842 c 2.67343,0 4.86107,2.25378 4.86107,5.00835 v 10.93407 z m -4.86107,-32.9696 h -15.06842 c -1.29634,0 -2.51126,0.66781 -3.24023,1.75311 l -2.1062,3.3384 c -0.3238,0.58455 -0.97198,0.91816 -1.62011,0.91816 h -29.32651 c -1.45794,0 -2.83331,0.16967 -3.889,1.70239 v -8.733 c 0,-2 2.05601,-4 4.05601,-4 h 16.00001 l 0.0429,0.0464 2.9571,-0.0464 3.92107,0.0125 h 29.32672 c 2.10619,0 3.88848,1.83628 3.88848,4.00629 v 3.08814 c -1.29578,-1.33503 -2.99676,-2.08609 -4.94122,-2.08609 z"
       id="path64"
       sodipodi:nodetypes="csccsssssccccccccccccccccccsssccccccccccssccsssccssscccsccscccccccssscc"
       style="fill:url(#linearGradient2232);fill-opacity:1;stroke-width:0.146841" />
    <path
       fill-rule="evenodd"
       clip-rule="evenodd"
       d="m 441.14372,537.798 h -12.858 c -0.47272,0 -0.85629,-0.38464 -0.85629,-0.85714 0,-0.47379 0.38357,-0.85757 0.85629,-0.85757 h 12.858 c 0.94671,0 1.71428,-0.76758 1.71428,-1.71429 v -17.14286 c 0,-0.94671 -0.76757,-1.71385 -1.71428,-1.71385 h -17.14329 c -0.9465,0 -1.7145,0.76714 -1.7145,1.71385 v 16.28572 c 0,0.47378 -0.38336,0.85714 -0.85714,0.85714 -0.47293,0 -0.85736,-0.38336 -0.85736,-0.85714 v -16.28572 c 0,-1.89343 1.53579,-3.42814 3.429,-3.42814 h 17.14329 c 1.893,0 3.42771,1.53471 3.42771,3.42814 V 534.369 c 0,1.89343 -1.53471,3.429 -3.42771,3.429 z m -16.28593,-1.71471 c 0.47271,0 0.85714,0.38378 0.85714,0.85757 0,0.4725 -0.38443,0.85714 -0.85714,0.85714 -0.47379,0 -0.85736,-0.38464 -0.85736,-0.85714 0,-0.47379 0.38357,-0.85757 0.85736,-0.85757 z"
       id="path2-5"
       style="fill:url(#linearGradient1137);fill-opacity:1.0;stroke-width:0.0535714" />
    <path
       d="m 437.62131,521.86582 v 1.02858 c 0,0.0315 -0.0256,0.0571 -0.0571,0.0571 h -4.42494 c -0.0237,0 -0.0449,0.0146 -0.0534,0.0367 l -2.47384,6.45352 c -0.18092,0.472 -0.84058,0.49395 -1.05247,0.035 l -1.20286,-2.6063 c -0.009,-0.0202 -0.0296,-0.0331 -0.0519,-0.0331 h -0.45498 c -0.0315,0 -0.0571,-0.0256 -0.0571,-0.0571 v -1.02858 c 0,-0.0315 0.0256,-0.0571 0.0571,-0.0571 h 0.85715 c 0.22286,0 0.42549,0.1296 0.51886,0.332 l 0.76789,1.6639 c 0.0134,0.029 0.0551,0.0277 0.0665,-0.002 l 2.11315,-5.51247 c 0.0848,-0.22103 0.29692,-0.36697 0.5336,-0.36697 h 4.85717 c 0.0315,0 0.0571,0.0256 0.0571,0.0571 z"
       id="path2-36-3"
       style="fill:url(#linearGradient1139);fill-opacity:1.0;stroke-width:0.114286" />
    <path
       d="m 437.46714,528.84689 c 0.22834,0.244 0.20125,0.63509 -0.0698,0.84412 -0.23623,0.18229 -0.57761,0.13669 -0.7815,-0.0813 l -3.2975,-3.52493 c -0.22834,-0.24401 -0.20126,-0.63509 0.0698,-0.84412 0.23623,-0.18229 0.5776,-0.13669 0.78149,0.0813 l 1.18138,1.26286 c 0.0226,0.0241 0.0609,0.0241 0.0834,0 l 1.19818,-1.28069 c 0.22823,-0.24389 0.62012,-0.24309 0.84686,0.0134 0.1976,0.22366 0.17486,0.56731 -0.029,0.78526 l -1.23875,1.32401 c -0.0206,0.0219 -0.0206,0.0561 0,0.0781 z"
       id="path4-5"
       style="fill:url(#linearGradient1141);fill-opacity:1.0;stroke-width:0.114286" />
    <path
       d="m 435.04324,528.59786 c 0.0206,0.0219 0.0206,0.0561 0,0.0781 l -0.87361,0.93395 c -0.20389,0.21794 -0.54526,0.26343 -0.78149,0.0813 -0.27109,-0.20914 -0.29817,-0.60012 -0.0698,-0.84412 l 0.93726,-1.00184 c 0.0226,-0.0241 0.0609,-0.0241 0.0834,0 z"
       id="path6-6"
       style="fill:url(#linearGradient1143);fill-opacity:1.0;stroke-width:0.114286" />
  </g>
</svg>
