<?xml version="1.0" encoding="UTF-8" standalone="no"?>
<svg
   width="64"
   version="1.1"
   height="64"
   id="svg15"
   sodipodi:docname="folder-build.svg"
   inkscape:version="1.1.1 (3bf5ae0d25, 2021-09-20)"
   xmlns:inkscape="http://www.inkscape.org/namespaces/inkscape"
   xmlns:sodipodi="http://sodipodi.sourceforge.net/DTD/sodipodi-0.dtd"
   xmlns:xlink="http://www.w3.org/1999/xlink"
   xmlns="http://www.w3.org/2000/svg"
   xmlns:svg="http://www.w3.org/2000/svg"
   xmlns:rdf="http://www.w3.org/1999/02/22-rdf-syntax-ns#"
   xmlns:cc="http://creativecommons.org/ns#"
   xmlns:dc="http://purl.org/dc/elements/1.1/">
  <sodipodi:namedview
     pagecolor="#ffffff"
     bordercolor="#666666"
     borderopacity="1"
     objecttolerance="10"
     gridtolerance="10"
     guidetolerance="10"
     inkscape:pageopacity="0"
     inkscape:pageshadow="2"
     inkscape:window-width="1920"
     inkscape:window-height="1007"
     id="namedview17"
     showgrid="true"
     inkscape:zoom="9.8125"
     inkscape:cx="40.968153"
     inkscape:cy="31.949045"
     inkscape:window-x="0"
     inkscape:window-y="0"
     inkscape:window-maximized="1"
     inkscape:current-layer="layer1"
     inkscape:document-rotation="0"
     inkscape:pagecheckerboard="0">
    <inkscape:grid
       type="xygrid"
       id="grid850" />
  </sodipodi:namedview>
  <defs
     id="defs5455">
    <linearGradient
       inkscape:collect="always"
       xlink:href="#linearGradient2230"
       id="linearGradient2232"
       x1="384.57144"
       y1="515.79797"
       x2="448.57144"
       y2="515.79797"
       gradientUnits="userSpaceOnUse" />
    <linearGradient
       inkscape:collect="always"
       id="linearGradient2230">
      <stop
         style="stop-color:#4e99ca;stop-opacity:0.80000001"
         offset="0"
         id="stop2226" />
      <stop
         style="stop-color:#20ffff;stop-opacity:0.80000001"
         offset="0.50507295"
         id="stop2332" />
      <stop
         style="stop-color:#ffaeff;stop-opacity:0.69"
         offset="1"
         id="stop2228" />
    </linearGradient>
    <linearGradient
       inkscape:collect="always"
       xlink:href="#linearGradient2230"
       id="linearGradient1191"
       gradientUnits="userSpaceOnUse"
       gradientTransform="matrix(0.84500595,0,0,0.84500595,82.807117,86.603739)"
       x1="399.72342"
       y1="521.52008"
       x2="411.72385"
       y2="521.52008" />
    <linearGradient
       inkscape:collect="always"
       xlink:href="#linearGradient2230"
       id="linearGradient1193"
       gradientUnits="userSpaceOnUse"
       gradientTransform="matrix(0.84500595,0,0,0.84500595,82.807117,86.603739)"
       x1="416.12143"
       y1="517.82312"
       x2="428.12183"
       y2="517.82312" />
    <linearGradient
       inkscape:collect="always"
       xlink:href="#linearGradient2230"
       id="linearGradient1195"
       gradientUnits="userSpaceOnUse"
       gradientTransform="matrix(0.84500595,0,0,0.84500595,82.807117,86.603739)"
       x1="409.74146"
       y1="527.7981"
       x2="421.74188"
       y2="527.7981" />
  </defs>
  <metadata
     id="metadata5458">
    <rdf:RDF>
      <cc:Work
         rdf:about="">
        <dc:format>image/svg+xml</dc:format>
        <dc:type
           rdf:resource="http://purl.org/dc/dcmitype/StillImage" />
      </cc:Work>
    </rdf:RDF>
  </metadata>
  <g
     inkscape:label="Capa 1"
     inkscape:groupmode="layer"
     id="layer1"
     transform="translate(-384.57143,-483.798)">
    <rect
       style="fill:#626f9d;fill-opacity:0.2;stroke:none;stroke-width:1.26075"
       id="center-3"
       width="60.099998"
       height="42"
       x="386.57144"
       y="497.79803"
       ry="3.9999959"
       rx="4.0066781" />
    <path
       d="m 442.73835,495.80768 h -29.32672 c -0.64817,0 -1.21496,-0.33361 -1.62011,-0.91817 l -2.1875,-3.33839 c -0.72899,-1.16852 -1.94446,-1.75312 -3.24023,-1.75312 h -14.98741 c -3.72689,0 -6.80495,3.17192 -6.80495,7.01111 v 38.97924 c 0,3.25524 2.59271,6.00966 5.83294,6.00966 h 25.19505 v 0 0 0 0 0 0 0 h 1.94402 v 0 0 0 0 0 0 0 0 0 h 25.19505 c 3.15951,0 5.83294,-2.67126 5.83294,-6.00966 v -33.9712 c 0,-3.33839 -2.59213,-6.00905 -5.83294,-6.00905 z m -25.19491,45.99033 v 0 h -1.94402 v 0 0 z m 29.08353,-6.00947 c 0,2.16999 -1.70156,4.00628 -3.88848,4.00628 h -52.33441 c -2.1062,0 -3.88848,-1.83629 -3.88848,-4.00628 l -5.8e-4,-13.43824 v -7.59568 c 0,-2.17001 1.78229,-4.00628 3.88848,-4.00628 h 29.32671 c 1.29634,0 2.51126,-0.66782 3.24024,-1.75312 l 2.10619,-3.33839 c 0.40518,-0.50072 0.97198,-0.91818 1.62012,-0.91818 h 15.06842 c 2.67343,0 4.86107,2.25378 4.86107,5.00835 v 10.93407 z m -4.86107,-32.9696 h -15.06842 c -1.29634,0 -2.51126,0.66781 -3.24023,1.75311 l -2.1062,3.3384 c -0.3238,0.58455 -0.97198,0.91816 -1.62011,0.91816 h -29.32651 c -1.45794,0 -2.83331,0.16967 -3.889,1.70239 v -8.733 c 0,-2 2.05601,-4 4.05601,-4 h 16.00001 l 0.0429,0.0464 2.9571,-0.0464 3.92107,0.0125 h 29.32672 c 2.10619,0 3.88848,1.83628 3.88848,4.00629 v 3.08814 c -1.29578,-1.33503 -2.99676,-2.08609 -4.94122,-2.08609 z"
       id="path64"
       sodipodi:nodetypes="csccsssssccccccccccccccccccsssccccccccccssccsssccssscccsccscccccccssscc"
       style="fill:url(#linearGradient2232);fill-opacity:1;stroke-width:0.146841" />
    <path
       fill-rule="evenodd"
       clip-rule="evenodd"
       d="m 429.56213,526.03435 c 0.006,0 0.0103,-0.003 0.0127,-0.004 0.63981,0.0619 1.14065,0.60312 1.14065,1.26007 0,0.65829 -0.50149,1.19923 -1.14372,1.26142 -8.8e-4,0.004 -0.004,0.007 -0.005,0.0102 -0.006,-3.3e-4 -0.01,-0.003 -0.0129,-0.003 -0.16146,0 -0.34142,0.0297 -0.40826,0.19028 -0.0659,0.16187 0.0286,0.30298 0.15159,0.42642 0.005,0.005 0.0113,0.007 0.0133,0.011 0.40476,0.49758 0.38185,1.22733 -0.0827,1.69119 -0.46344,0.46351 -1.19372,0.48705 -1.69149,0.0832 -0.009,0.005 -0.0139,0.007 -0.0227,0.0105 -0.004,-0.005 -0.005,-0.0102 -0.01,-0.0127 -0.11464,-0.11417 -0.26147,-0.22129 -0.42317,-0.15381 -0.16193,0.0659 -0.19414,0.23333 -0.19414,0.40845 0,0.0143 0.005,0.0311 0.0109,0.0436 -0.0811,0.62384 -0.60865,1.10719 -1.25432,1.10719 -0.65728,0 -1.19737,-0.50038 -1.26135,-1.14095 -0.008,-0.003 -0.0126,-0.008 -0.0194,-0.0104 2.5e-4,-0.004 0.002,-0.007 0.002,-0.0104 0,-0.16154 -0.0295,-0.34101 -0.19014,-0.40788 -0.16168,-0.0663 -0.30297,0.0285 -0.42659,0.15162 -0.009,0.009 -0.0118,0.0154 -0.015,0.0256 -0.49714,0.38931 -1.21476,0.36238 -1.67207,-0.0952 -0.4645,-0.4645 -0.48729,-1.1957 -0.082,-1.69366 -0.005,-0.0103 -0.008,-0.0168 -0.0113,-0.0278 0.11423,-0.11419 0.22076,-0.26116 0.1538,-0.42269 -0.0663,-0.16151 -0.23392,-0.19435 -0.40893,-0.19435 -0.0125,0 -0.0211,0.005 -0.0339,0.008 -0.62338,-0.0805 -1.10656,-0.60926 -1.10656,-1.25426 0,-0.65974 0.50383,-1.20078 1.14777,-1.26131 0.002,-0.007 0.006,-0.0116 0.009,-0.015 0.15925,-0.002 0.33329,-0.0326 0.39893,-0.19005 0.0659,-0.16119 -0.0278,-0.3017 -0.15073,-0.42513 -0.40553,-0.49733 -0.38277,-1.22792 0.0827,-1.6921 0.46586,-0.46618 1.20158,-0.48769 1.69934,-0.0767 0.006,-0.003 0.0121,-0.004 0.0146,-0.007 0.11327,0.11154 0.2575,0.2127 0.41579,0.14729 0.16162,-0.0661 0.19419,-0.23393 0.19419,-0.40879 0,-6.4e-4 -3.4e-4,-8.5e-4 -3.4e-4,-0.002 0.0628,-0.64006 0.60291,-1.13984 1.25987,-1.13984 0.66084,0 1.20259,0.50534 1.26163,1.15051 0.002,4.7e-4 0.003,0.002 0.004,0.002 0,0.0372 0.002,0.0778 0.008,0.11512 h -0.005 c 0,0.17483 -0.14166,0.31701 -0.3168,0.31701 -0.17472,0 -0.3166,-0.14218 -0.3166,-0.31701 0,-0.35016 -0.28394,-0.63375 -0.63394,-0.63375 -0.35013,0 -0.63377,0.28359 -0.63377,0.63375 v 0.31701 l -0.002,0.003 c 0.007,0.20952 -0.12749,0.40507 -0.33776,0.46757 -0.006,0.002 -0.0113,0.002 -0.014,0.004 l -0.004,0.006 c -0.14823,0.0502 -0.2921,0.10925 -0.43014,0.17918 l -0.0104,-0.002 c -0.006,0.003 -0.0106,0.009 -0.0138,0.0117 -0.20498,0.11096 -0.45504,0.0568 -0.59581,-0.12039 l -0.19785,-0.19737 c -0.24768,-0.24754 -0.64903,-0.24754 -0.89629,0 -0.24743,0.24755 -0.24743,0.64897 0,0.89623 l 0.22403,0.22414 0.002,0.0109 c 0.14818,0.14477 0.19087,0.37379 0.0862,0.56502 -0.002,0.003 -0.005,0.006 -0.007,0.01 l 0.002,0.0118 c -0.0685,0.13815 -0.12936,0.28204 -0.17886,0.43059 l -0.0109,0.009 c -0.002,0.007 -0.002,0.0118 -0.004,0.0154 -0.0664,0.22622 -0.28807,0.36299 -0.51428,0.33475 h -0.2681 c -0.35012,0 -0.6339,0.284 -0.6339,0.63385 0,0.34972 0.28378,0.63381 0.6339,0.63381 h 0.31658 l 0.0109,0.008 c 0.20496,-3.2e-4 0.39483,0.13119 0.45638,0.33759 6.4e-4,0.002 6.4e-4,0.004 8.7e-4,0.007 l 0.0124,0.0103 c 0.0502,0.14821 0.10954,0.29213 0.17918,0.43013 l -0.003,0.0183 c 0.003,0.004 0.006,0.008 0.008,0.0113 0.1109,0.20488 0.0568,0.45491 -0.12036,0.5957 l -0.19247,0.19278 c -0.24741,0.24725 -0.24741,0.6486 0,0.89618 0.24722,0.24722 0.64857,0.24722 0.89629,0 l 0.22421,-0.22403 0.0109,-0.002 c 0.14452,-0.14418 0.37106,-0.18474 0.55998,-0.083 0.002,5.7e-4 0.002,0.002 0.004,0.003 l 0.0198,-0.004 c 0.13815,0.0685 0.28204,0.12935 0.43058,0.17887 l 0.0128,0.0154 c 0.002,6.1e-4 0.005,6.1e-4 0.008,0.002 0.20702,0.0607 0.33837,0.25193 0.33773,0.45768 l 0.002,0.003 v 0.31691 c 0,0.34998 0.28363,0.63375 0.63376,0.63375 0.34999,0 0.63391,-0.28377 0.63391,-0.63375 v -0.31719 l 0.002,-0.003 c -6e-4,-0.20575 0.13077,-0.39608 0.3378,-0.45766 0.003,-8.4e-4 0.005,-8.4e-4 0.008,-0.002 l 0.0125,-0.015 c 0.14822,-0.0502 0.29198,-0.10926 0.4301,-0.17919 l 0.0203,0.004 c 8.7e-4,-6.1e-4 0.002,-0.002 0.004,-0.003 0.18891,-0.10218 0.41542,-0.0607 0.5599,0.0835 l 0.0109,0.002 0.22418,0.22405 c 0.24725,0.24727 0.64861,0.24727 0.89633,0 0.24742,-0.24757 0.24742,-0.64894 0,-0.89617 l -0.19264,-0.19277 c -0.17575,-0.14083 -0.23115,-0.39085 -0.12019,-0.59571 0.002,-0.004 0.005,-0.008 0.008,-0.0113 l -0.004,-0.0205 c 0.0685,-0.13802 0.12985,-0.28004 0.17888,-0.42792 l 0.0124,-0.0109 c 4.4e-4,-0.002 7.8e-4,-0.004 8.7e-4,-0.006 0.0609,-0.2064 0.25108,-0.33763 0.45612,-0.33763 l 0.0109,-0.008 h 0.317 c 0.35018,0 0.63376,-0.2841 0.63376,-0.63387 0,-0.34983 -0.28358,-0.63374 -0.63376,-0.63374 h -0.26822 c -0.22656,0.0289 -0.44703,-0.10863 -0.51419,-0.33484 -0.002,-0.007 -0.002,-0.0125 -0.004,-0.0159 l -0.0108,-0.008 c -0.05,-0.14823 -0.10957,-0.29215 -0.17903,-0.42979 l 0.002,-0.0122 c -0.002,-0.004 -0.005,-0.006 -0.007,-0.01 -0.10351,-0.1912 -0.0601,-0.42022 0.0861,-0.56502 l 0.002,-0.0108 0.22415,-0.22418 c 0.24745,-0.24727 0.24745,-0.64859 0,-0.89616 -0.11758,-0.11728 -0.28961,-0.1843 -0.44357,-0.19032 -0.17514,0 -0.31705,-0.14172 -0.31705,-0.31686 0,-0.17517 0.14191,-0.31691 0.31705,-0.31691 0.0225,0 0.0441,0.003 0.0652,0.008 0.29797,0.0187 0.59847,0.14191 0.82525,0.36904 0.46558,0.4654 0.4877,1.19944 0.0791,1.69716 0.002,0.003 0.002,0.008 0.004,0.0113 -0.002,0.002 -0.004,0.002 -0.006,0.004 -0.11431,0.11456 -0.22123,0.26151 -0.15424,0.42351 0.0658,0.1617 0.23371,0.19416 0.40853,0.19416 z m -2.17308,-1.59493 c -0.17514,0 -0.31685,-0.142 -0.31685,-0.317 0,-0.1747 0.14171,-0.31657 0.31685,-0.31657 0.17471,0 0.31658,0.14187 0.31658,0.31657 0,0.175 -0.14187,0.317 -0.31658,0.317 z m -3.19009,5.68066 0.0238,-6.1e-4 v 0 z m 0.45441,0.17826 v 0 l 0.0183,0.0172 -0.0183,-0.0172 v 0 0 0 0 0 l 0.0183,0.0172 z"
       id="path2-75"
       sodipodi:nodetypes="scsccsccccccccscsccscccccccscsccccccccscsccccsssscccccccccccccccccccccsssccccccccccccccccccccccsssccccccccccccccccccccccsssccccccccccccssccccccsssssscccccccccccccccc"
       style="fill:url(#linearGradient1191);fill-opacity:1.0;stroke-width:0.019805" />
    <path
       fill-rule="evenodd"
       clip-rule="evenodd"
       d="m 443.41854,522.91033 c 0.006,0 0.0102,-0.003 0.0124,-0.004 0.63986,0.0617 1.14067,0.60312 1.14067,1.26005 0,0.6583 -0.5015,1.19922 -1.14369,1.26141 -8.8e-4,0.004 -0.004,0.007 -0.005,0.0102 -0.006,-3e-4 -0.01,-0.003 -0.0129,-0.003 -0.1615,0 -0.34145,0.0297 -0.40826,0.19026 -0.0659,0.16185 0.0286,0.30297 0.15161,0.42645 0.005,0.005 0.0113,0.007 0.0133,0.0113 0.40474,0.49758 0.38184,1.22726 -0.0827,1.69116 -0.46347,0.46352 -1.19372,0.48703 -1.69152,0.0833 -0.009,0.005 -0.0139,0.007 -0.0227,0.0104 -0.004,-0.005 -0.005,-0.0102 -0.01,-0.0125 -0.11466,-0.11419 -0.26148,-0.22124 -0.4232,-0.15377 -0.16197,0.0659 -0.19414,0.23328 -0.19414,0.40842 0,0.0143 0.005,0.0311 0.0109,0.0436 -0.0811,0.62384 -0.60865,1.1072 -1.25432,1.1072 -0.65727,0 -1.19741,-0.50039 -1.26132,-1.14091 -0.008,-0.003 -0.0126,-0.008 -0.0194,-0.0104 2.7e-4,-0.004 0.002,-0.007 0.002,-0.0104 0,-0.16151 -0.0295,-0.341 -0.1902,-0.40782 -0.1617,-0.0663 -0.30298,0.0286 -0.42659,0.1516 -0.009,0.009 -0.0118,0.0154 -0.015,0.0256 -0.49719,0.38928 -1.21477,0.36236 -1.67214,-0.0952 -0.46449,-0.4645 -0.48721,-1.19573 -0.0821,-1.69365 -0.005,-0.0101 -0.008,-0.0168 -0.0111,-0.0278 0.11418,-0.1142 0.22073,-0.26118 0.15378,-0.42271 -0.0663,-0.16148 -0.23394,-0.19432 -0.40892,-0.19432 -0.0127,0 -0.0211,0.005 -0.0339,0.008 -0.62341,-0.0805 -1.10658,-0.60919 -1.10658,-1.25419 0,-0.65976 0.5038,-1.20085 1.14773,-1.26128 0.002,-0.007 0.006,-0.0126 0.009,-0.015 0.15924,-0.002 0.33329,-0.0326 0.3989,-0.19003 0.0659,-0.16117 -0.0278,-0.30172 -0.15067,-0.42512 -0.40555,-0.4973 -0.38283,-1.22792 0.0828,-1.69213 0.46584,-0.46618 1.20153,-0.48768 1.69933,-0.0767 0.006,-0.003 0.0115,-0.004 0.0146,-0.007 0.11328,0.11157 0.25748,0.21272 0.41577,0.14729 0.16166,-0.0661 0.19417,-0.23396 0.19417,-0.4088 0,-5.8e-4 -2.9e-4,-8.2e-4 -2.9e-4,-0.002 0.0628,-0.64007 0.60293,-1.13984 1.25988,-1.13984 0.66083,0 1.20253,0.50531 1.26161,1.15055 0.002,3.8e-4 0.003,0.002 0.004,0.002 0,0.0369 0.002,0.0778 0.008,0.11511 h -0.005 c 0,0.17482 -0.1417,0.31699 -0.31686,0.31699 -0.17469,0 -0.31653,-0.14217 -0.31653,-0.31699 0,-0.35018 -0.28392,-0.63376 -0.63395,-0.63376 -0.35015,0 -0.63372,0.28358 -0.63372,0.63376 v 0.31699 l -0.002,0.003 c 0.007,0.20951 -0.12749,0.40507 -0.33775,0.46758 -0.006,0.002 -0.0118,0.002 -0.014,0.004 l -0.004,0.006 c -0.14821,0.0502 -0.29213,0.1093 -0.43013,0.17921 l -0.0106,-0.002 c -0.006,0.003 -0.0109,0.009 -0.0136,0.0117 -0.20502,0.11095 -0.45506,0.0567 -0.5958,-0.12037 l -0.19766,-0.19755 c -0.24767,-0.24754 -0.64903,-0.24754 -0.89628,0 -0.24736,0.24755 -0.24736,0.64899 0,0.89617 l 0.22398,0.2242 0.002,0.0109 c 0.14821,0.14476 0.19092,0.37383 0.0862,0.56504 -0.002,0.003 -0.005,0.006 -0.007,0.01 l 0.002,0.0118 c -0.0685,0.13812 -0.12937,0.28202 -0.17887,0.43054 l -0.0109,0.009 c -0.002,0.007 -0.002,0.0114 -0.004,0.0154 -0.0664,0.22618 -0.28806,0.36297 -0.51428,0.33483 h -0.26808 c -0.35018,0 -0.63391,0.2839 -0.63391,0.63371 0,0.34976 0.28373,0.63386 0.63391,0.63386 h 0.31658 l 0.0109,0.008 c 0.20498,-2.8e-4 0.39482,0.13125 0.45638,0.33764 6.7e-4,0.002 6.7e-4,0.004 8.7e-4,0.007 l 0.0124,0.0103 c 0.0502,0.14825 0.10953,0.29215 0.17917,0.43012 l -0.003,0.0183 c 0.003,0.004 0.006,0.008 0.008,0.0113 0.11093,0.2048 0.0568,0.45487 -0.12039,0.59566 l -0.19246,0.19278 c -0.2474,0.24725 -0.2474,0.64861 0,0.89617 0.24723,0.2473 0.6486,0.2473 0.89629,0 l 0.22425,-0.22401 0.0109,-0.002 c 0.14452,-0.14419 0.37102,-0.18477 0.55993,-0.0834 0.002,6.2e-4 0.002,0.002 0.004,0.003 l 0.0198,-0.004 c 0.1382,0.0685 0.28208,0.12935 0.43062,0.17884 l 0.0127,0.0154 c 0.002,5.8e-4 0.005,5.8e-4 0.008,0.002 0.20705,0.0602 0.33837,0.25191 0.33773,0.45766 l 0.002,0.003 v 0.31716 c 0,0.35 0.28364,0.63378 0.63378,0.63378 0.34999,0 0.6339,-0.28378 0.6339,-0.63378 v -0.31718 l 0.002,-0.003 c -5.9e-4,-0.20578 0.13076,-0.39614 0.33779,-0.45766 0.003,-9.1e-4 0.005,-9.1e-4 0.008,-0.002 l 0.0123,-0.015 c 0.14821,-0.0502 0.29194,-0.10921 0.43008,-0.17915 l 0.0203,0.004 c 8.5e-4,-6.3e-4 0.002,-0.002 0.004,-0.003 0.18891,-0.10213 0.41545,-0.0606 0.55993,0.0833 l 0.0111,0.002 0.22418,0.22401 c 0.2472,0.24728 0.64861,0.24728 0.89632,0 0.2474,-0.24756 0.2474,-0.64892 0,-0.89618 l -0.19264,-0.19279 c -0.17578,-0.14077 -0.23117,-0.39085 -0.12021,-0.59565 0.002,-0.004 0.005,-0.008 0.008,-0.0118 l -0.004,-0.0205 c 0.0685,-0.138 0.12984,-0.28001 0.17889,-0.42793 l 0.0126,-0.0107 c 4.4e-4,-0.002 7.4e-4,-0.004 8.2e-4,-0.006 0.0609,-0.20639 0.25116,-0.33761 0.45614,-0.33761 l 0.0109,-0.008 h 0.31698 c 0.35017,0 0.63377,-0.28405 0.63377,-0.6338 0,-0.34984 -0.2836,-0.63374 -0.63377,-0.63374 h -0.26825 c -0.22655,0.0289 -0.447,-0.10866 -0.51416,-0.33484 -0.002,-0.007 -0.002,-0.0126 -0.004,-0.0159 l -0.0107,-0.008 c -0.05,-0.14822 -0.10956,-0.29212 -0.17904,-0.42986 l 0.002,-0.0122 c -0.002,-0.004 -0.005,-0.006 -0.007,-0.01 -0.10348,-0.19128 -0.0603,-0.42021 0.0861,-0.56506 l 0.002,-0.0109 0.22422,-0.22418 c 0.24736,-0.24726 0.24736,-0.64861 0,-0.89613 -0.11764,-0.11726 -0.28967,-0.18429 -0.44363,-0.19037 -0.17514,0 -0.31704,-0.1417 -0.31704,-0.31687 0,-0.17515 0.1419,-0.31688 0.31704,-0.31688 0.0225,0 0.0441,0.003 0.0652,0.008 0.298,0.0187 0.59847,0.14185 0.82529,0.36899 0.46556,0.46542 0.48768,1.19945 0.0791,1.69722 0.002,0.003 0.002,0.008 0.004,0.0109 -0.002,0.002 -0.004,0.002 -0.006,0.004 -0.11435,0.11447 -0.22127,0.26148 -0.15426,0.42345 0.0658,0.16171 0.23371,0.19416 0.40857,0.19416 z m -2.17311,-1.59482 c -0.17514,0 -0.31688,-0.14209 -0.31688,-0.31709 0,-0.17468 0.14174,-0.31657 0.31688,-0.31657 0.17473,0 0.3166,0.14189 0.3166,0.31657 0,0.175 -0.14187,0.31709 -0.3166,0.31709 z m -3.19002,5.68062 0.0238,-6.4e-4 v 0 z m 0.45438,0.17823 v 0 l 0.0183,0.0172 -0.0183,-0.0172 v 0 0 0 0 0 l 0.0183,0.0172 z"
       id="path2-36-3"
       sodipodi:nodetypes="scsccsccccccccscsccscccccccscsccccccccscsccccsssscccccccccccccccccccccsssccccccccccccccccccccccsssccccccccccccccccccccccsssccccccccccccssccccccsssssscccccccccccccccc"
       style="fill:url(#linearGradient1193);fill-opacity:1.0;stroke-width:0.019805" />
    <path
       fill-rule="evenodd"
       clip-rule="evenodd"
       d="m 438.02744,531.3393 c 0.006,0 0.0102,-0.003 0.0129,-0.004 0.63979,0.0617 1.14063,0.60313 1.14063,1.26006 0,0.65828 -0.50147,1.19918 -1.14375,1.26139 -8.2e-4,0.004 -0.004,0.007 -0.005,0.0101 -0.006,-3e-4 -0.01,-0.003 -0.0125,-0.003 -0.16147,0 -0.34141,0.0297 -0.40826,0.19028 -0.0659,0.16187 0.0286,0.30299 0.15162,0.42642 0.005,0.005 0.0111,0.007 0.0134,0.0109 0.40474,0.49759 0.38184,1.22731 -0.083,1.69117 -0.46336,0.46353 -1.1937,0.48704 -1.69142,0.0831 -0.009,0.005 -0.0139,0.007 -0.0227,0.0104 -0.004,-0.005 -0.005,-0.0103 -0.01,-0.0126 -0.11465,-0.11424 -0.26146,-0.22128 -0.42314,-0.15379 -0.16198,0.0659 -0.19413,0.2333 -0.19413,0.40842 0,0.0143 0.005,0.0311 0.0109,0.0436 -0.0811,0.6238 -0.60865,1.10719 -1.25434,1.10719 -0.6573,0 -1.19741,-0.50038 -1.26134,-1.14092 -0.008,-0.003 -0.0127,-0.008 -0.0194,-0.0104 3e-4,-0.004 0.002,-0.007 0.002,-0.0103 0,-0.1615 -0.0295,-0.34099 -0.19018,-0.40786 -0.16171,-0.0663 -0.30295,0.0286 -0.42653,0.15162 -0.009,0.009 -0.0125,0.0154 -0.015,0.0256 -0.49714,0.38929 -1.21475,0.36241 -1.67213,-0.0952 -0.46444,-0.46454 -0.48722,-1.19577 -0.082,-1.69366 -0.005,-0.0102 -0.008,-0.0168 -0.0115,-0.0278 0.1142,-0.11421 0.22077,-0.26117 0.15378,-0.42273 -0.0663,-0.1615 -0.23392,-0.19432 -0.40893,-0.19432 -0.0124,0 -0.0211,0.005 -0.0339,0.008 -0.62334,-0.0805 -1.10655,-0.60923 -1.10655,-1.25419 0,-0.65976 0.50381,-1.20084 1.14774,-1.26133 0.002,-0.007 0.006,-0.0122 0.009,-0.015 0.15925,-0.002 0.33329,-0.0326 0.39894,-0.19006 0.0659,-0.16118 -0.0278,-0.30166 -0.15071,-0.42512 -0.40557,-0.49729 -0.38277,-1.2279 0.0822,-1.69208 0.46585,-0.46615 1.20159,-0.48767 1.69933,-0.0767 0.006,-0.003 0.0117,-0.004 0.0146,-0.007 0.1133,0.11153 0.25743,0.21271 0.41574,0.14729 0.16167,-0.0661 0.19422,-0.23393 0.19422,-0.40881 0,-5.9e-4 -3.2e-4,-8.4e-4 -3.2e-4,-0.002 0.0628,-0.64007 0.6029,-1.13987 1.25988,-1.13987 0.66083,0 1.20252,0.50534 1.26163,1.15057 0.002,4.2e-4 0.003,0.002 0.004,0.002 0,0.0368 0.002,0.0778 0.008,0.11511 h -0.005 c 0,0.17483 -0.14168,0.31703 -0.31684,0.31703 -0.17469,0 -0.31658,-0.1422 -0.31658,-0.31703 0,-0.35017 -0.28391,-0.63371 -0.63388,-0.63371 -0.35017,0 -0.63377,0.28354 -0.63377,0.63371 v 0.31703 l -0.002,0.003 c 0.007,0.20952 -0.12745,0.40506 -0.33774,0.46755 -0.006,0.002 -0.0113,0.002 -0.0139,0.004 l -0.004,0.006 c -0.1482,0.0502 -0.29209,0.10927 -0.43015,0.1792 l -0.0104,-0.002 c -0.006,0.003 -0.011,0.009 -0.0137,0.0117 -0.20502,0.11099 -0.45502,0.0567 -0.59583,-0.12036 l -0.19761,-0.19741 c -0.24772,-0.24759 -0.64907,-0.24759 -0.89632,0 -0.24741,0.24756 -0.24741,0.64891 0,0.89613 l 0.22405,0.22421 0.002,0.0109 c 0.14825,0.1448 0.19094,0.37383 0.0863,0.56506 -0.002,0.003 -0.005,0.006 -0.007,0.01 l 0.002,0.0117 c -0.0685,0.13821 -0.12933,0.28209 -0.1789,0.4306 l -0.0109,0.009 c -0.002,0.007 -0.002,0.0121 -0.004,0.0154 -0.0664,0.22623 -0.28805,0.36299 -0.51429,0.33481 h -0.26803 c -0.35015,0 -0.63394,0.28397 -0.63394,0.6338 0,0.34975 0.28379,0.63378 0.63394,0.63378 h 0.31656 l 0.0109,0.008 c 0.20503,-3.2e-4 0.39486,0.1312 0.45642,0.33761 6.2e-4,0.002 6.2e-4,0.004 8.6e-4,0.007 l 0.0122,0.01 c 0.0502,0.14823 0.10958,0.29211 0.17921,0.43013 l -0.003,0.0183 c 0.003,0.004 0.006,0.008 0.008,0.0109 0.11095,0.20486 0.0568,0.45491 -0.12037,0.59569 l -0.19249,0.19281 c -0.24741,0.24722 -0.24741,0.64859 0,0.89614 0.24725,0.24725 0.64861,0.24725 0.89636,0 l 0.22414,-0.22403 0.0109,-0.002 c 0.1445,-0.14419 0.37101,-0.18474 0.55992,-0.0831 0.002,6.5e-4 0.002,0.002 0.004,0.003 l 0.0198,-0.004 c 0.13823,0.0685 0.28212,0.12937 0.43063,0.17891 l 0.0127,0.0154 c 0.002,6.7e-4 0.005,6.7e-4 0.008,0.002 0.207,0.0607 0.33838,0.25189 0.33778,0.4577 l 0.002,0.003 v 0.31717 c 0,0.34998 0.28365,0.63374 0.63382,0.63374 0.34996,0 0.63387,-0.28376 0.63387,-0.63374 v -0.31718 l 0.002,-0.003 c -5.9e-4,-0.20582 0.1308,-0.39607 0.33779,-0.4577 0.003,-7.8e-4 0.005,-7.8e-4 0.008,-0.002 l 0.0125,-0.015 c 0.14823,-0.0502 0.29199,-0.10926 0.4301,-0.1792 l 0.0203,0.004 c 8.5e-4,-6.5e-4 0.002,-0.002 0.004,-0.003 0.1889,-0.10209 0.41545,-0.061 0.55993,0.0831 l 0.0109,0.002 0.22423,0.224 c 0.24721,0.24726 0.6486,0.24726 0.8963,0 0.24743,-0.24755 0.24743,-0.6489 0,-0.89613 l -0.19262,-0.19283 c -0.17579,-0.14077 -0.2312,-0.39081 -0.12023,-0.59567 0.002,-0.004 0.005,-0.008 0.008,-0.0118 l -0.004,-0.0205 c 0.0685,-0.138 0.12981,-0.28004 0.17886,-0.42795 l 0.0125,-0.0109 c 4.1e-4,-0.002 7.1e-4,-0.004 7.9e-4,-0.006 0.0611,-0.20641 0.25117,-0.33761 0.45615,-0.33761 l 0.0109,-0.008 h 0.31696 c 0.35017,0 0.63379,-0.28413 0.63379,-0.63386 0,-0.34985 -0.28362,-0.63378 -0.63379,-0.63378 h -0.26821 c -0.22658,0.0289 -0.44702,-0.10864 -0.51418,-0.33481 -0.002,-0.007 -0.002,-0.0121 -0.004,-0.0159 l -0.0109,-0.008 c -0.05,-0.14823 -0.10961,-0.29214 -0.17911,-0.42983 l 0.002,-0.0118 c -0.002,-0.004 -0.005,-0.006 -0.007,-0.01 -0.1035,-0.19119 -0.0605,-0.42024 0.0861,-0.56504 l 0.002,-0.0109 0.22419,-0.22421 c 0.2474,-0.24723 0.2474,-0.64858 0,-0.89613 -0.11758,-0.1173 -0.28964,-0.1843 -0.44355,-0.19035 -0.17516,0 -0.31705,-0.14169 -0.31705,-0.31682 0,-0.17519 0.14189,-0.31692 0.31705,-0.31692 0.0225,0 0.0441,0.003 0.0652,0.008 0.298,0.0187 0.59847,0.14185 0.8253,0.369 0.46555,0.46538 0.48767,1.19941 0.0791,1.69717 0.002,0.003 0.002,0.008 0.004,0.0113 -0.002,0.002 -0.004,0.002 -0.006,0.004 -0.11432,0.11451 -0.22128,0.26151 -0.15426,0.42349 0.0658,0.16168 0.23373,0.19418 0.40854,0.19418 z m -2.17311,-1.59495 c -0.17516,0 -0.31684,-0.14202 -0.31684,-0.31702 0,-0.17466 0.14168,-0.31655 0.31684,-0.31655 0.17472,0 0.3166,0.14189 0.3166,0.31655 0,0.175 -0.14188,0.31702 -0.3166,0.31702 z m -3.19006,5.68068 0.0238,-6.4e-4 v 0 z m 0.45445,0.17825 v 0 l 0.0183,0.0172 -0.0183,-0.0172 v 0 0 0 0 0 l 0.0183,0.0172 z"
       id="path2-7-5"
       sodipodi:nodetypes="scsccsccccccccscsccscccccccscsccccccccscsccccsssscccccccccccccccccccccsssccccccccccccccccccccccsssccccccccccccccccccccccsssccccccccccccssccccccsssssscccccccccccccccc"
       style="fill:url(#linearGradient1195);fill-opacity:1.0;stroke-width:0.019805" />
  </g>
</svg>
