<?xml version="1.0" encoding="UTF-8" standalone="no"?>
<svg
   width="64"
   version="1.1"
   height="64"
   id="svg15"
   sodipodi:docname="folder-Reddit.svg"
   inkscape:version="1.1.1 (3bf5ae0d25, 2021-09-20)"
   xmlns:inkscape="http://www.inkscape.org/namespaces/inkscape"
   xmlns:sodipodi="http://sodipodi.sourceforge.net/DTD/sodipodi-0.dtd"
   xmlns:xlink="http://www.w3.org/1999/xlink"
   xmlns="http://www.w3.org/2000/svg"
   xmlns:svg="http://www.w3.org/2000/svg"
   xmlns:rdf="http://www.w3.org/1999/02/22-rdf-syntax-ns#"
   xmlns:cc="http://creativecommons.org/ns#"
   xmlns:dc="http://purl.org/dc/elements/1.1/">
  <sodipodi:namedview
     pagecolor="#ffffff"
     bordercolor="#666666"
     borderopacity="1"
     objecttolerance="10"
     gridtolerance="10"
     guidetolerance="10"
     inkscape:pageopacity="0"
     inkscape:pageshadow="2"
     inkscape:window-width="1920"
     inkscape:window-height="1005"
     id="namedview17"
     showgrid="true"
     inkscape:zoom="9.8125"
     inkscape:cx="23.643312"
     inkscape:cy="40.611465"
     inkscape:window-x="0"
     inkscape:window-y="0"
     inkscape:window-maximized="1"
     inkscape:current-layer="layer1"
     inkscape:document-rotation="0"
     inkscape:pagecheckerboard="0">
    <inkscape:grid
       type="xygrid"
       id="grid940" />
  </sodipodi:namedview>
  <defs
     id="defs5455">
    <linearGradient
       inkscape:collect="always"
       id="linearGradient1525">
      <stop
         style="stop-color:#f28fad;stop-opacity:0.2"
         offset="0"
         id="stop1519" />
      <stop
         style="stop-color:#f28fad;stop-opacity:0.80000001"
         offset="0.50507295"
         id="stop1521" />
      <stop
         style="stop-color:#ffaeff;stop-opacity:0.69"
         offset="1"
         id="stop1523" />
    </linearGradient>
    <linearGradient
       inkscape:collect="always"
       xlink:href="#linearGradient2230"
       id="linearGradient2232"
       x1="384.57144"
       y1="515.79797"
       x2="448.57144"
       y2="515.79797"
       gradientUnits="userSpaceOnUse" />
    <linearGradient
       inkscape:collect="always"
       id="linearGradient2230">
      <stop
         style="stop-color:#f28fad;stop-opacity:0.80000001"
         offset="0"
         id="stop2226" />
      <stop
         style="stop-color:#20ffff;stop-opacity:0.80000001"
         offset="0.50507295"
         id="stop2332" />
      <stop
         style="stop-color:#ffaeff;stop-opacity:0.69"
         offset="1"
         id="stop2228" />
    </linearGradient>
    <linearGradient
       inkscape:collect="always"
       xlink:href="#linearGradient1525"
       id="linearGradient1112"
       gradientUnits="userSpaceOnUse"
       gradientTransform="matrix(0.87500132,0,0,0.87500132,68.022521,71.59908)"
       x1="402.91245"
       y1="520.79797"
       x2="430.34097"
       y2="520.79797" />
  </defs>
  <metadata
     id="metadata5458">
    <rdf:RDF>
      <cc:Work
         rdf:about="">
        <dc:format>image/svg+xml</dc:format>
        <dc:type
           rdf:resource="http://purl.org/dc/dcmitype/StillImage" />
      </cc:Work>
    </rdf:RDF>
  </metadata>
  <g
     inkscape:label="Capa 1"
     inkscape:groupmode="layer"
     id="layer1"
     transform="translate(-384.57143,-483.798)">
    <rect
       style="fill:#626f9d;fill-opacity:0.2;stroke:none;stroke-width:1.26075"
       id="center-3"
       width="60.099998"
       height="42"
       x="386.57144"
       y="497.798"
       ry="3.9999959"
       rx="4.0066781" />
    <path
       d="m 442.73835,495.80768 h -29.32672 c -0.64817,0 -1.21496,-0.33361 -1.62011,-0.91817 l -2.1875,-3.33839 c -0.72899,-1.16852 -1.94446,-1.75312 -3.24023,-1.75312 h -14.98741 c -3.72689,0 -6.80495,3.17192 -6.80495,7.01111 v 38.97924 c 0,3.25524 2.59271,6.00966 5.83294,6.00966 h 25.19505 v 0 0 0 0 0 0 0 h 1.94402 v 0 0 0 0 0 0 0 0 0 h 25.19505 c 3.15951,0 5.83294,-2.67126 5.83294,-6.00966 v -33.9712 c 0,-3.33839 -2.59213,-6.00905 -5.83294,-6.00905 z m -25.19491,45.99033 v 0 h -1.94402 v 0 0 z m 29.08353,-6.00947 c 0,2.16999 -1.70156,4.00628 -3.88848,4.00628 h -52.33441 c -2.1062,0 -3.88848,-1.83629 -3.88848,-4.00628 l -5.8e-4,-13.43824 v -7.59568 c 0,-2.17001 1.78229,-4.00628 3.88848,-4.00628 h 29.32671 c 1.29634,0 2.51126,-0.66782 3.24024,-1.75312 l 2.10619,-3.33839 c 0.40518,-0.50072 0.97198,-0.91818 1.62012,-0.91818 h 15.06842 c 2.67343,0 4.86107,2.25378 4.86107,5.00835 v 10.93407 z m -4.86107,-32.9696 h -15.06842 c -1.29634,0 -2.51126,0.66781 -3.24023,1.75311 l -2.1062,3.3384 c -0.3238,0.58455 -0.97198,0.91816 -1.62011,0.91816 h -29.32651 c -1.45794,0 -2.83331,0.16967 -3.889,1.70239 v -8.733 c 0,-2 2.05601,-4 4.05601,-4 h 16.00001 l 0.0429,0.0464 2.9571,-0.0464 3.92107,0.0125 h 29.32672 c 2.10619,0 3.88848,1.83628 3.88848,4.00629 v 3.08814 c -1.29578,-1.33503 -2.99676,-2.08609 -4.94122,-2.08609 z"
       id="path64"
       sodipodi:nodetypes="csccsssssccccccccccccccccccsssccccccccccssccsssccssscccsccscccccccssscc"
       style="fill:url(#linearGradient2232);fill-opacity:1;stroke-width:0.146841" />
    <path
       clip-rule="evenodd"
       d="m 435.19604,523.04448 c 0.0809,0 0.1582,0.0163 0.23072,0.0399 1.66665,0.33637 3.16187,0.95911 4.38207,1.78913 0.49552,-0.36094 1.10269,-0.57553 1.7626,-0.57553 1.65637,0 3,1.34273 3,3 0,1.12172 -0.61632,2.09804 -1.5271,2.61254 0.009,0.12928 0.0271,0.25673 0.0271,0.38746 0,4.14184 -4.7018,7.50002 -10.50002,7.50002 -5.79895,0 -10.50001,-3.35818 -10.50001,-7.50002 0,-0.13073 0.0183,-0.25818 0.0275,-0.38746 -0.91115,-0.5145 -1.52747,-1.49082 -1.52747,-2.61254 0,-1.65727 1.34287,-3 3,-3 0.65916,0 1.26746,0.21459 1.76293,0.57549 1.53441,-1.04556 3.50902,-1.75543 5.70811,-1.9847 0.008,-0.006 0.0154,-0.0145 0.029,-0.0154 0.57642,-0.0546 1.08474,-0.44456 1.27734,-1.01733 l 0.81188,-3.03005 c 0.38011,-1.05267 1.47802,-1.66626 2.57996,-1.42987 l 1.23998,0.33272 c 8.8e-4,8.7e-4 -8.7e-4,0.004 8.8e-4,0.004 0.91341,0.23549 1.58981,1.06551 1.58981,2.05354 0,0.002 8.8e-4,0.003 8.8e-4,0.004 0,0.003 -8.8e-4,0.004 -8.8e-4,0.007 0,0.82819 0.67088,1.5 1.50001,1.5 0.82837,0 1.5,-0.67181 1.5,-1.5 0,-0.2754 -0.0791,-0.53011 -0.20911,-0.75183 l 0.005,-0.003 c -0.0627,-0.11007 -0.10181,-0.23546 -0.10181,-0.37098 0,-0.41362 0.33656,-0.74981 0.75,-0.74981 0.27464,0 0.51084,0.14813 0.64195,0.36807 l 0.003,-0.002 c 0.25894,0.44367 0.40983,0.95817 0.40983,1.50914 0,1.65727 -1.34363,3 -3.00001,3 -1.65713,0 -3,-1.34273 -3,-3 0,-0.27816 -0.17615,-0.51273 -0.42187,-0.60554 l -1.20338,-0.32264 c -0.37758,-0.0865 -0.75661,0.12727 -0.87745,0.49458 l -0.78188,2.92089 c -0.36,1.15082 -1.35169,1.93818 -2.48804,2.07988 -4.36556,0.41368 -7.7274,2.90832 -7.7274,5.93284 0,3.3135 4.02905,6.00001 9.00001,6.00001 4.9702,-6e-5 9,-2.68656 9,-6.00007 0,-2.73557 -2.74805,-5.03813 -6.50171,-5.76085 l 7.5e-4,-0.005 c -0.35447,-0.0592 -0.62437,-0.36637 -0.62437,-0.73734 -6e-5,-0.41442 0.33538,-0.74986 0.74995,-0.74986 z m -11.11084,2.84986 c -0.16116,-0.059 -0.33291,-0.0963 -0.5138,-0.0963 -0.82913,0 -1.5,0.67182 -1.5,1.50001 0,0.38564 0.14906,0.7335 0.3893,1.00012 0.33984,-0.87745 0.89428,-1.6875 1.6245,-2.4038 z m 18.5973,2.4038 c 0.23987,-0.26662 0.38893,-0.61448 0.38893,-1.00012 0,-0.82819 -0.67163,-1.50001 -1.5,-1.50001 -0.18164,0 -0.3534,0.0374 -0.51455,0.0963 0.73027,0.7163 1.28541,1.52635 1.62562,2.4038 z m -7.80835,0.49988 c 0,-0.79908 0.64744,-1.44727 1.44727,-1.44727 0.79908,0 1.44652,0.64819 1.44652,1.44727 0,0.79908 -0.64744,1.44726 -1.44652,1.44726 -0.79979,0 -1.44727,-0.64818 -1.44727,-1.44726 z m -7.50001,0 c 0,-0.79908 0.64744,-1.44727 1.44727,-1.44727 0.79907,0 1.44651,0.64819 1.44651,1.44727 0,0.79908 -0.64744,1.44726 -1.44651,1.44726 -0.79978,0 -1.44727,-0.64818 -1.44727,-1.44726 z m 7.96913,3.68076 0.002,8.8e-4 c 0.13659,-0.1846 0.35377,-0.30652 0.60094,-0.30652 0.41456,0 0.74999,0.33544 0.74999,0.75 0,8.7e-4 0,0.002 0,0.003 0,0.008 -0.003,0.0161 -0.003,0.0245 -0.002,0.0443 -0.005,0.089 -0.0146,0.13074 -0.17836,0.96211 -1.94714,1.71652 -4.10743,1.71652 -2.10717,0 -3.83827,-0.71925 -4.08619,-1.64649 -0.0238,-0.0725 -0.0392,-0.14794 -0.0392,-0.22814 0,-0.41457 0.33544,-0.75001 0.75001,-0.75001 0.2728,0 0.50718,0.14724 0.63905,0.36366 l 0.007,-0.003 c 0.38633,0.44348 1.46081,0.76355 2.72901,0.76355 1.32019,0 2.43019,-0.34716 2.77186,-0.81924 z m 4.72815,-14.18077 c -0.41456,0 -0.75,-0.33544 -0.75,-0.75001 0,-0.41456 0.33544,-0.75 0.75,-0.75 0.41382,0 0.75001,0.33544 0.75001,0.75 0,0.41457 -0.33619,0.75001 -0.75001,0.75001 z"
       fill-rule="evenodd"
       id="path2-7-5"
       style="fill:url(#linearGradient1112);fill-opacity:1;stroke-width:0.046875" />
  </g>
</svg>
