<?xml version="1.0" encoding="UTF-8" standalone="no"?>
<svg
   width="64"
   version="1.1"
   height="64"
   id="svg15"
   sodipodi:docname="folder-rpm.svg"
   inkscape:version="1.1.1 (3bf5ae0d25, 2021-09-20)"
   xmlns:inkscape="http://www.inkscape.org/namespaces/inkscape"
   xmlns:sodipodi="http://sodipodi.sourceforge.net/DTD/sodipodi-0.dtd"
   xmlns:xlink="http://www.w3.org/1999/xlink"
   xmlns="http://www.w3.org/2000/svg"
   xmlns:svg="http://www.w3.org/2000/svg"
   xmlns:rdf="http://www.w3.org/1999/02/22-rdf-syntax-ns#"
   xmlns:cc="http://creativecommons.org/ns#"
   xmlns:dc="http://purl.org/dc/elements/1.1/">
  <sodipodi:namedview
     pagecolor="#ffffff"
     bordercolor="#666666"
     borderopacity="1"
     objecttolerance="10"
     gridtolerance="10"
     guidetolerance="10"
     inkscape:pageopacity="0"
     inkscape:pageshadow="2"
     inkscape:window-width="1920"
     inkscape:window-height="1007"
     id="namedview17"
     showgrid="true"
     inkscape:zoom="9.8124999"
     inkscape:cx="17.528663"
     inkscape:cy="40.203822"
     inkscape:window-x="0"
     inkscape:window-y="0"
     inkscape:window-maximized="1"
     inkscape:current-layer="layer1"
     inkscape:pagecheckerboard="0">
    <inkscape:grid
       type="xygrid"
       id="grid874" />
  </sodipodi:namedview>
  <defs
     id="defs5455">
    <linearGradient
       inkscape:collect="always"
       id="linearGradient1129">
      <stop
         style="stop-color:#ff8080;stop-opacity:1"
         offset="0"
         id="stop1123" />
      <stop
         style="stop-color:#ffaaaa;stop-opacity:1"
         offset="0.50507295"
         id="stop1125" />
      <stop
         style="stop-color:#ff99ff;stop-opacity:1"
         offset="1"
         id="stop1127" />
    </linearGradient>
    <linearGradient
       id="linearGradient4194">
      <stop
         style="stop-color:#b5006a"
         id="stop4196" />
      <stop
         offset="1"
         style="stop-color:#c70073"
         id="stop4198" />
    </linearGradient>
    <linearGradient
       inkscape:collect="always"
       xlink:href="#linearGradient1129"
       id="linearGradient2232"
       x1="384.57144"
       y1="515.79797"
       x2="448.57144"
       y2="515.79797"
       gradientUnits="userSpaceOnUse"
       gradientTransform="translate(1.8600002e-6)" />
    <linearGradient
       inkscape:collect="always"
       xlink:href="#linearGradient1129"
       id="linearGradient963"
       x1="420.57144"
       y1="525.79828"
       x2="444.57144"
       y2="525.79828"
       gradientUnits="userSpaceOnUse" />
  </defs>
  <metadata
     id="metadata5458">
    <rdf:RDF>
      <cc:Work
         rdf:about="">
        <dc:format>image/svg+xml</dc:format>
        <dc:type
           rdf:resource="http://purl.org/dc/dcmitype/StillImage" />
      </cc:Work>
    </rdf:RDF>
  </metadata>
  <g
     inkscape:label="Capa 1"
     inkscape:groupmode="layer"
     id="layer1"
     transform="translate(-384.57143,-483.798)">
    <rect
       style="fill:#626f9d;fill-opacity:0.2;stroke:none;stroke-width:1.26075"
       id="center-3"
       width="60.099998"
       height="42"
       x="386.57141"
       y="497.79794"
       ry="3.9999959"
       rx="4.0066781" />
    <path
       d="m 442.73835,495.80768 h -29.32672 c -0.64817,0 -1.21496,-0.33361 -1.62011,-0.91817 l -2.1875,-3.33839 c -0.72899,-1.16852 -1.94446,-1.75312 -3.24023,-1.75312 h -14.98741 c -3.72689,0 -6.80495,3.17192 -6.80495,7.01111 v 38.97924 c 0,3.25524 2.59271,6.00966 5.83294,6.00966 h 25.19505 v 0 0 0 0 0 0 0 h 1.94402 v 0 0 0 0 0 0 0 0 0 h 25.19505 c 3.15951,0 5.83294,-2.67126 5.83294,-6.00966 v -33.9712 c 0,-3.33839 -2.59213,-6.00905 -5.83294,-6.00905 z m -25.19491,45.99033 v 0 h -1.94402 v 0 0 z m 29.08353,-6.00947 c 0,2.16999 -1.70156,4.00628 -3.88848,4.00628 h -52.33441 c -2.1062,0 -3.88848,-1.83629 -3.88848,-4.00628 l -5.8e-4,-13.43824 v -7.59568 c 0,-2.17001 1.78229,-4.00628 3.88848,-4.00628 h 29.32671 c 1.29634,0 2.51126,-0.66782 3.24024,-1.75312 l 2.10619,-3.33839 c 0.40518,-0.50072 0.97198,-0.91818 1.62012,-0.91818 h 15.06842 c 2.67343,0 4.86107,2.25378 4.86107,5.00835 v 10.93407 z m -4.86107,-32.9696 h -15.06842 c -1.29634,0 -2.51126,0.66781 -3.24023,1.75311 l -2.1062,3.3384 c -0.3238,0.58455 -0.97198,0.91816 -1.62011,0.91816 h -29.32651 c -1.45794,0 -2.83331,0.16967 -3.889,1.70239 v -8.733 c 0,-2 2.05601,-4 4.05601,-4 h 16.00001 l 0.0429,0.0464 2.9571,-0.0464 3.92107,0.0125 h 29.32672 c 2.10619,0 3.88848,1.83628 3.88848,4.00629 v 3.08814 c -1.29578,-1.33503 -2.99676,-2.08609 -4.94122,-2.08609 z"
       id="path64"
       sodipodi:nodetypes="csccsssssccccccccccccccccccsssccccccccccssccsssccssscccsccscccccccssscc"
       style="fill:url(#linearGradient2232);fill-opacity:1;stroke-width:0.146841;opacity:0.73902434" />
    <path
       fill-rule="evenodd"
       clip-rule="evenodd"
       d="m 423.57167,525.048 c 0,-0.41419 0.33581,-0.75 0.75,-0.75 0.41419,0 0.75,0.33581 0.75,0.75 0,0.41419 -0.33581,0.75 -0.75,0.75 -0.41419,0 -0.75,-0.33581 -0.75,-0.75 z m 2.625,-5.25 c 0,-0.41419 0.33581,-0.75 0.75,-0.75 0.41419,0 0.75,0.33581 0.75,0.75 0,0.41419 -0.33581,0.75 -0.75,0.75 -0.41419,0 -0.75,-0.33581 -0.75,-0.75 z m 5.625,-2.25 c 0,-0.41419 0.33581,-0.75 0.75,-0.75 0.41419,0 0.75,0.33581 0.75,0.75 0,0.41419 -0.33581,0.75 -0.75,0.75 -0.41419,0 -0.75,-0.33581 -0.75,-0.75 z m 6.89944,2.46352 c 0.29808,0.29775 0.29808,0.78075 0,1.0785 l -4.85306,4.85339 c -0.29808,0.29775 -0.78075,0.29775 -1.0785,0 -0.2979,-0.29775 -0.2979,-0.78075 0,-1.0785 l 4.85306,-4.85339 c 0.29808,-0.29775 0.78075,-0.29775 1.0785,0 z m 2.10056,4.28648 c 0.41419,0 0.75,0.33581 0.75,0.75 0,0.41419 -0.33581,0.75 -0.75,0.75 -0.41419,0 -0.75,-0.33581 -0.75,-0.75 0,-0.41419 0.33581,-0.75 0.75,-0.75 z m -10.5,7.5 h 4.5 c 0.41419,0 0.75,0.33581 0.75,0.75 0,0.41419 -0.33581,0.75 -0.75,0.75 h -4.5 c -0.41419,0 -0.75,-0.33581 -0.75,-0.75 0,-0.41419 0.33581,-0.75 0.75,-0.75 z m 2.25,6 c -3.30689,0 -6.30122,-1.33814 -8.47172,-3.5017 -0.1507,-0.13735 -0.24703,-0.33324 -0.24703,-0.55299 0,-0.41419 0.33581,-0.75 0.75,-0.75 0.21314,0 0.40448,0.0897 0.54089,0.23255 l 0.003,-0.003 c 1.90013,1.90028 4.52513,3.07544 7.42458,3.07544 5.79895,0 10.5,-4.70105 10.5,-10.5 0,-5.79895 -4.70105,-10.5 -10.5,-10.5 -5.79895,0 -10.5,4.70105 -10.5,10.5 0,0.69398 0.0798,1.36744 0.21333,2.02148 0.2122,0.57094 0.75933,0.97852 1.40386,0.97852 h 5.97656 c 0.18825,0 0.35484,-0.0923 0.45703,-0.23438 0.004,-0.005 0.0101,-0.009 0.0176,-0.0106 0.54417,-0.75769 1.42748,-1.25499 2.43164,-1.25499 1.00416,0 1.88747,0.4973 2.43164,1.25498 0.008,0.002 0.0139,0.005 0.0176,0.0106 0.10219,0.14208 0.26878,0.23438 0.45703,0.23438 h 3.84375 c 0.41419,0 0.75,0.33581 0.75,0.75 0,0.41419 -0.33581,0.75 -0.75,0.75 h -3.94922 c -0.63942,0 -1.203,-0.32119 -1.54139,-0.81005 -0.26695,-0.41418 -0.72984,-0.68995 -1.25939,-0.68995 -0.52955,0 -0.99244,0.27577 -1.25939,0.68995 -0.33839,0.48886 -0.90178,0.81005 -1.54139,0.81005 h -6.08203 c -1.4048,0 -2.57536,-0.96938 -2.90166,-2.27306 -0.13659,-0.72216 -0.21553,-1.46485 -0.21553,-2.22694 0,-6.6277 5.37248,-12 12,-12 6.62733,0 12,5.3723 12,12 0,6.62733 -5.37267,12 -12,12 z"
       id="path2"
       style="stroke-width:0.046875;fill-opacity:1;fill:url(#linearGradient963);opacity:0.801" />
  </g>
</svg>
