<?xml version="1.0" encoding="UTF-8" standalone="no"?>
<svg
   width="64"
   version="1.1"
   height="64"
   id="svg15"
   sodipodi:docname="folder-book.svg"
   inkscape:version="1.1.1 (3bf5ae0d25, 2021-09-20)"
   xmlns:inkscape="http://www.inkscape.org/namespaces/inkscape"
   xmlns:sodipodi="http://sodipodi.sourceforge.net/DTD/sodipodi-0.dtd"
   xmlns:xlink="http://www.w3.org/1999/xlink"
   xmlns="http://www.w3.org/2000/svg"
   xmlns:svg="http://www.w3.org/2000/svg"
   xmlns:rdf="http://www.w3.org/1999/02/22-rdf-syntax-ns#"
   xmlns:cc="http://creativecommons.org/ns#"
   xmlns:dc="http://purl.org/dc/elements/1.1/">
  <sodipodi:namedview
     pagecolor="#ffffff"
     bordercolor="#666666"
     borderopacity="1"
     objecttolerance="10"
     gridtolerance="10"
     guidetolerance="10"
     inkscape:pageopacity="0"
     inkscape:pageshadow="2"
     inkscape:window-width="1920"
     inkscape:window-height="1007"
     id="namedview17"
     showgrid="true"
     inkscape:zoom="9.8124999"
     inkscape:cx="36.89172"
     inkscape:cy="46.11465"
     inkscape:window-x="0"
     inkscape:window-y="0"
     inkscape:window-maximized="1"
     inkscape:current-layer="layer1"
     inkscape:pagecheckerboard="0">
    <inkscape:grid
       type="xygrid"
       id="grid840" />
  </sodipodi:namedview>
  <defs
     id="defs5455">
    <linearGradient
       id="linearGradient4194">
      <stop
         style="stop-color:#b5006a"
         id="stop4196" />
      <stop
         offset="1"
         style="stop-color:#c70073"
         id="stop4198" />
    </linearGradient>
    <linearGradient
       inkscape:collect="always"
       xlink:href="#linearGradient2230"
       id="linearGradient2232"
       x1="384.57144"
       y1="515.79797"
       x2="448.57144"
       y2="515.79797"
       gradientUnits="userSpaceOnUse"
       gradientTransform="translate(1.8600002e-6)" />
    <linearGradient
       inkscape:collect="always"
       id="linearGradient2230">
      <stop
         style="stop-color:#4e99ca;stop-opacity:0.80000001"
         offset="0"
         id="stop2226" />
      <stop
         style="stop-color:#20ffff;stop-opacity:0.80000001"
         offset="0.50507295"
         id="stop2332" />
      <stop
         style="stop-color:#ffaeff;stop-opacity:0.69"
         offset="1"
         id="stop2228" />
    </linearGradient>
    <linearGradient
       inkscape:collect="always"
       xlink:href="#linearGradient2230"
       id="linearGradient1019"
       x1="420.57144"
       y1="527.19818"
       x2="444.57144"
       y2="527.19818"
       gradientUnits="userSpaceOnUse" />
  </defs>
  <metadata
     id="metadata5458">
    <rdf:RDF>
      <cc:Work
         rdf:about="">
        <dc:format>image/svg+xml</dc:format>
        <dc:type
           rdf:resource="http://purl.org/dc/dcmitype/StillImage" />
      </cc:Work>
    </rdf:RDF>
  </metadata>
  <g
     inkscape:label="Capa 1"
     inkscape:groupmode="layer"
     id="layer1"
     transform="translate(-384.57143,-483.798)">
    <rect
       style="fill:#626f9d;fill-opacity:0.2;stroke:none;stroke-width:1.26075"
       id="center-3"
       width="60.099998"
       height="42"
       x="386.57141"
       y="497.79794"
       ry="3.9999959"
       rx="4.0066781" />
    <path
       d="m 442.73835,495.80768 h -29.32672 c -0.64817,0 -1.21496,-0.33361 -1.62011,-0.91817 l -2.1875,-3.33839 c -0.72899,-1.16852 -1.94446,-1.75312 -3.24023,-1.75312 h -14.98741 c -3.72689,0 -6.80495,3.17192 -6.80495,7.01111 v 38.97924 c 0,3.25524 2.59271,6.00966 5.83294,6.00966 h 25.19505 v 0 0 0 0 0 0 0 h 1.94402 v 0 0 0 0 0 0 0 0 0 h 25.19505 c 3.15951,0 5.83294,-2.67126 5.83294,-6.00966 v -33.9712 c 0,-3.33839 -2.59213,-6.00905 -5.83294,-6.00905 z m -25.19491,45.99033 v 0 h -1.94402 v 0 0 z m 29.08353,-6.00947 c 0,2.16999 -1.70156,4.00628 -3.88848,4.00628 h -52.33441 c -2.1062,0 -3.88848,-1.83629 -3.88848,-4.00628 l -5.8e-4,-13.43824 v -7.59568 c 0,-2.17001 1.78229,-4.00628 3.88848,-4.00628 h 29.32671 c 1.29634,0 2.51126,-0.66782 3.24024,-1.75312 l 2.10619,-3.33839 c 0.40518,-0.50072 0.97198,-0.91818 1.62012,-0.91818 h 15.06842 c 2.67343,0 4.86107,2.25378 4.86107,5.00835 v 10.93407 z m -4.86107,-32.9696 h -15.06842 c -1.29634,0 -2.51126,0.66781 -3.24023,1.75311 l -2.1062,3.3384 c -0.3238,0.58455 -0.97198,0.91816 -1.62011,0.91816 h -29.32651 c -1.45794,0 -2.83331,0.16967 -3.889,1.70239 v -8.733 c 0,-2 2.05601,-4 4.05601,-4 h 16.00001 l 0.0429,0.0464 2.9571,-0.0464 3.92107,0.0125 h 29.32672 c 2.10619,0 3.88848,1.83628 3.88848,4.00629 v 3.08814 c -1.29578,-1.33503 -2.99676,-2.08609 -4.94122,-2.08609 z"
       id="path64"
       sodipodi:nodetypes="csccsssssccccccccccccccccccsssccccccccccssccsssccssscccsccscccccccssscc"
       style="fill:url(#linearGradient2232);fill-opacity:1;stroke-width:0.146841" />
    <path
       fill-rule="evenodd"
       clip-rule="evenodd"
       d="m 443.26283,533.92893 -8.50695,3.4558 c -0.6781,0.2656 -1.4133,0.41365 -2.1842,0.41365 -0.77735,0 -1.51915,-0.1496 -2.20075,-0.4199 l -8.4862,-3.4468 c -0.77775,-0.39731 -1.3133,-1.2012 -1.3133,-2.134 v -9.1991 -1.6004 c 0,-0.4422 0.359,-0.8 0.8,-0.8 0.4422,0 0.80035,0.3578 0.80035,0.8 v 0.6504 0.95 9.087 c 0,0.28865 0.1578,0.53555 0.3875,0.67615 l 8.1683,3.45625 c 0.0179,0.007 0.0332,0.0105 0.0511,0.0179 0.55075,0.2332 1.15701,0.36205 1.79295,0.36205 0.63186,0 1.2342,-0.1273 1.78261,-0.35775 0.0179,-0.008 0.0336,-0.0117 0.0516,-0.0187 l 8.17725,-3.45974 c 0.2297,-0.14061 0.3883,-0.3875 0.3883,-0.67616 v -5.88744 -0.95 -0.6504 c 0,-0.4414 0.3586,-0.7992 0.8,-0.7992 0.4422,0 0.8,0.3578 0.8,0.7992 v 1.60035 5.99954 c 5e-5,0.93131 -0.53354,1.73211 -1.30855,2.1313 z m 0.5086,-12.13035 c -0.44141,0 -0.80001,-0.359 -0.80001,-0.8004 0,-0.4422 0.3586,-0.8 0.80001,-0.8 0.4422,0 0.8,0.3578 0.8,0.8 0,0.4414 -0.3578,0.8004 -0.8,0.8004 z m -3.87025,9.81275 -3.77345,1.57225 v -8.9e-4 c -0.10236,0.0461 -0.2156,0.0719 -0.3344,0.0719 -0.4531,0 -0.82185,-0.3676 -0.82185,-0.8215 0,-0.35155 0.2211,-0.64845 0.53125,-0.7668 l 3.8437,-1.682 c 0.2492,-0.1344 0.42499,-0.39375 0.42499,-0.69885 v -10.47448 c 0,-0.2207 -0.17889,-0.4 -0.39999,-0.4 -0.0578,0 -0.1133,0.0125 -0.16406,0.0347 v -8e-4 l -5.41009,2.36795 c -0.25155,0.1344 -0.425,0.39375 -0.425,0.69765 v 9.4874 1.6 c 0,0.8836 -0.71701,1.6004 -1.6006,1.6004 -0.2215,0 -0.43126,-0.0449 -0.62346,-0.12655 l -5.91084,-2.46285 c -0.8621,-0.36525 -1.4656,-1.2172 -1.4656,-2.2101 v -11.20035 c 0,-0.8836 0.7168,-1.60035 1.6,-1.60035 0.21795,0 0.4242,0.0442 0.61445,0.1238 l 3.67145,1.5293 c 0.30155,0.12655 0.51405,0.425 0.51405,0.77225 0,0.4629 -0.37501,0.83785 -0.8371,0.83785 -0.13985,0 -0.2699,-0.0379 -0.38555,-0.0981 l -3.01285,-1.31835 c -8.8e-4,0 0,8e-4 -8.8e-4,8e-4 -0.05,-0.0223 -0.1047,-0.0347 -0.1629,-0.0347 -0.2219,0 -0.4004,0.17929 -0.4004,0.4 v 10.47454 c 0,0.3051 0.175,0.56445 0.42539,0.69885 l 5.41051,2.36715 c 7.9e-4,0 0,-8e-4 7.9e-4,-8e-4 0.0492,0.0223 0.1051,0.0347 0.16331,0.0347 0.2207,0 0.39999,-0.1785 0.39999,-0.4 v -10.1866 -0.4004 c 0,-0.99455 0.6047,-1.8484 1.46775,-2.2117 l 5.91715,-2.46485 c 0.1906,-0.0797 0.3969,-0.1238 0.61485,-0.1238 0.8836,0 1.6008,0.71675 1.6008,1.60035 v 11.2003 c -5e-5,0.9945 -0.60789,1.8484 -1.47115,2.21284 z"
       id="path2"
       style="stroke-width:0.05;fill-opacity:1.0;fill:url(#linearGradient1019)" />
  </g>
</svg>
