<?xml version="1.0" encoding="UTF-8" standalone="no"?>
<svg
   width="64"
   version="1.1"
   height="64"
   id="svg15"
   sodipodi:docname="folder-bookmark.svg"
   inkscape:version="1.1.1 (3bf5ae0d25, 2021-09-20)"
   xmlns:inkscape="http://www.inkscape.org/namespaces/inkscape"
   xmlns:sodipodi="http://sodipodi.sourceforge.net/DTD/sodipodi-0.dtd"
   xmlns:xlink="http://www.w3.org/1999/xlink"
   xmlns="http://www.w3.org/2000/svg"
   xmlns:svg="http://www.w3.org/2000/svg"
   xmlns:rdf="http://www.w3.org/1999/02/22-rdf-syntax-ns#"
   xmlns:cc="http://creativecommons.org/ns#"
   xmlns:dc="http://purl.org/dc/elements/1.1/">
  <sodipodi:namedview
     pagecolor="#ffffff"
     bordercolor="#666666"
     borderopacity="1"
     objecttolerance="10"
     gridtolerance="10"
     guidetolerance="10"
     inkscape:pageopacity="0"
     inkscape:pageshadow="2"
     inkscape:window-width="1920"
     inkscape:window-height="1007"
     id="namedview17"
     showgrid="true"
     inkscape:zoom="9.8125003"
     inkscape:cx="28.43312"
     inkscape:cy="26.445859"
     inkscape:window-x="0"
     inkscape:window-y="0"
     inkscape:window-maximized="1"
     inkscape:current-layer="layer1"
     inkscape:document-rotation="0"
     inkscape:pagecheckerboard="0"
     showguides="false">
    <inkscape:grid
       type="xygrid"
       id="grid850" />
  </sodipodi:namedview>
  <defs
     id="defs5455">
    <linearGradient
       inkscape:collect="always"
       id="linearGradient1218">
      <stop
         style="stop-color:#96cdfb;stop-opacity:0.80000001"
         offset="0"
         id="stop1212" />
      <stop
         style="stop-color:#00fdfd;stop-opacity:0.80000001"
         offset="0.50507295"
         id="stop1214" />
      <stop
         style="stop-color:#abe9b3;stop-opacity:0.6901961"
         offset="1"
         id="stop1216" />
    </linearGradient>
    <linearGradient
       inkscape:collect="always"
       xlink:href="#linearGradient1218"
       id="linearGradient1220"
       gradientUnits="userSpaceOnUse"
       x1="384.57143"
       y1="515.798"
       x2="448.57143"
       y2="515.798" />
    <linearGradient
       inkscape:collect="always"
       xlink:href="#linearGradient1218"
       id="linearGradient1203"
       x1="408.65643"
       y1="520.43433"
       x2="424.54642"
       y2="520.43433"
       gradientUnits="userSpaceOnUse"
       gradientTransform="matrix(0.97058717,0,0,0.97058717,32.434745,20.671099)" />
  </defs>
  <metadata
     id="metadata5458">
    <rdf:RDF>
      <cc:Work
         rdf:about="">
        <dc:format>image/svg+xml</dc:format>
        <dc:type
           rdf:resource="http://purl.org/dc/dcmitype/StillImage" />
      </cc:Work>
    </rdf:RDF>
  </metadata>
  <g
     inkscape:label="Capa 1"
     inkscape:groupmode="layer"
     id="layer1"
     transform="translate(-384.57143,-483.798)">
    <g
       transform="matrix(0.74351172,0,0,0.74285356,332.49565,-244.90835)"
       id="g4" />
    <rect
       style="fill:#626f9d;fill-opacity:0.2;stroke:none;stroke-width:1.26075"
       id="center-3"
       width="60.099998"
       height="42"
       x="386.57144"
       y="497.798"
       ry="3.9999959"
       rx="4.0066781" />
    <path
       d="m 442.73835,495.80768 h -29.32672 c -0.64817,0 -1.21496,-0.33361 -1.62011,-0.91817 l -2.1875,-3.33839 c -0.72899,-1.16852 -1.94446,-1.75312 -3.24023,-1.75312 h -14.98741 c -3.72689,0 -6.80495,3.17192 -6.80495,7.01111 v 38.97924 c 0,3.25524 2.59271,6.00966 5.83294,6.00966 h 25.19505 v 0 0 0 0 0 0 0 h 1.94402 v 0 0 0 0 0 0 0 0 0 h 25.19505 c 3.15951,0 5.83294,-2.67126 5.83294,-6.00966 v -33.9712 c 0,-3.33839 -2.59213,-6.00905 -5.83294,-6.00905 z m -25.19491,45.99033 v 0 h -1.94402 v 0 0 z m 29.08353,-6.00947 c 0,2.16999 -1.70156,4.00628 -3.88848,4.00628 h -52.33441 c -2.1062,0 -3.88848,-1.83629 -3.88848,-4.00628 l -5.8e-4,-13.43824 v -7.59568 c 0,-2.17001 1.78229,-4.00628 3.88848,-4.00628 h 29.32671 c 1.29634,0 2.51126,-0.66782 3.24024,-1.75312 l 2.10619,-3.33839 c 0.40518,-0.50072 0.97198,-0.91818 1.62012,-0.91818 h 15.06842 c 2.67343,0 4.86107,2.25378 4.86107,5.00835 v 10.93407 z m -4.86107,-32.9696 h -15.06842 c -1.29634,0 -2.51126,0.66781 -3.24023,1.75311 l -2.1062,3.3384 c -0.3238,0.58455 -0.97198,0.91816 -1.62011,0.91816 h -29.32651 c -1.45794,0 -2.83331,0.16967 -3.889,1.70239 v -8.733 c 0,-2 2.05601,-4 4.05601,-4 h 16.00001 l 0.0429,0.0464 2.9571,-0.0464 3.92107,0.0125 h 29.32672 c 2.10619,0 3.88848,1.83628 3.88848,4.00629 v 3.08814 c -1.29578,-1.33503 -2.99676,-2.08609 -4.94122,-2.08609 z"
       id="path64"
       sodipodi:nodetypes="csccsssssccccccccccccccccccsssccccccccccssccsssccssscccsccscccccccssscc"
       style="fill:url(#linearGradient1220);fill-opacity:1;stroke-width:0.146841" />
    <path
       fill-rule="evenodd"
       clip-rule="evenodd"
       d="m 438.74447,524.38956 1.46693,-0.46365 c 0.4052,-0.12819 0.84007,0.0872 0.97181,0.48151 0.13147,0.39367 -0.0903,0.81707 -0.49507,0.94524 l -1.46699,0.46359 c -0.40511,0.12786 -0.84006,-0.0877 -0.97142,-0.4819 -0.13179,-0.39405 0.0899,-0.81695 0.49474,-0.94479 z m 0.17469,2.99268 0.75385,1.00857 c 0.25033,0.33543 0.17392,0.80419 -0.17056,1.04805 -0.34454,0.24322 -0.82689,0.16888 -1.07726,-0.16627 l -0.70224,-0.93966 c -0.20972,-0.28567 -0.55199,-0.47241 -0.94022,-0.47241 -0.37386,0 -0.70521,0.17315 -0.91679,0.44089 l -0.72563,0.97118 c -0.25034,0.3351 -0.73268,0.40945 -1.07726,0.16627 -0.34448,-0.24386 -0.42089,-0.71262 -0.17057,-1.04805 l 0.71767,-0.96019 c 0.87809,-1.16458 2.55934,-1.42165 3.76198,-0.57203 0.21383,0.15084 0.39345,0.32994 0.54703,0.52365 z m -2.13643,-6.08424 c 0.42589,0 0.77117,0.3358 0.77117,0.75 v 1.17185 c 0,1.44987 -1.20829,2.62499 -2.69901,2.62499 -0.27933,0 -0.54784,-0.0439 -0.80164,-0.1208 l -1.17586,-0.37133 c -0.40474,-0.12817 -0.62653,-0.55157 -0.49512,-0.94524 0.1318,-0.39397 0.56668,-0.60975 0.97186,-0.48152 l 1.17023,0.3699 c 0.10504,0.0306 0.21534,0.0491 0.33053,0.0491 0.639,0 1.1567,-0.50389 1.1567,-1.12498 v -1.17188 c 0,-0.41422 0.34527,-0.75002 0.77114,-0.75002 z m 6.0395,16.5 c -0.45825,0 -0.87278,-0.17943 -1.17478,-0.47019 l -3.77425,-3.67019 c -0.30125,-0.29297 -0.6958,-0.35962 -1.09047,-0.35962 -0.39464,0 -0.78959,0.0665 -1.09044,0.35962 l -3.77425,3.67019 c -0.302,0.29076 -0.71661,0.47019 -1.17483,0.47019 -0.92326,0 -1.67178,-0.72804 -1.67178,-1.626 v -19.374 c 0,-1.65677 1.38111,-3 3.08454,-3 h 8.48241 c 0.42588,0 0.77115,0.3358 0.77115,0.75 0,0.41419 -0.34527,0.74999 -0.77115,0.74999 h -8.48241 c -0.85169,0 -1.54232,0.67162 -1.54232,1.50001 v 18.86721 c 0,0.20725 0.17252,0.37496 0.38561,0.37496 0.10096,0 0.19091,-0.0394 0.25977,-0.10102 l 3.34254,-3.25124 c 0.60238,-0.58599 1.39157,-0.88991 2.18116,-0.88991 0.78922,0 1.57882,0.30392 2.18124,0.88986 l 3.34281,3.25125 c 0.0683,0.0612 0.15851,0.10101 0.25943,0.10101 0.21311,0 0.3856,-0.16771 0.3856,-0.37496 V 520.548 c 0,-0.4142 0.34529,-0.75 0.7711,-0.75 0.42589,0 0.77116,0.3358 0.77116,0.75 v 15.624 c 0,0.89796 -0.74853,1.626 -1.67184,1.626 z m 0.51513,-21.37501 c -0.42587,0 -0.77115,-0.33582 -0.77115,-0.74998 0,-0.41421 0.34528,-0.75003 0.77115,-0.75003 0.42582,0 0.77116,0.33582 0.77116,0.75003 0,0.41416 -0.34534,0.74998 -0.77116,0.74998 z"
       id="path2"
       style="fill:url(#linearGradient1203);fill-opacity:1;stroke-width:0.047531" />
  </g>
</svg>
