<?xml version="1.0" encoding="UTF-8" standalone="no"?>
<svg
   width="64"
   version="1.1"
   height="64"
   id="svg17"
   sodipodi:docname="folder-pictures.svg"
   inkscape:version="1.1.1 (3bf5ae0d25, 2021-09-20)"
   xmlns:inkscape="http://www.inkscape.org/namespaces/inkscape"
   xmlns:sodipodi="http://sodipodi.sourceforge.net/DTD/sodipodi-0.dtd"
   xmlns:xlink="http://www.w3.org/1999/xlink"
   xmlns="http://www.w3.org/2000/svg"
   xmlns:svg="http://www.w3.org/2000/svg"
   xmlns:rdf="http://www.w3.org/1999/02/22-rdf-syntax-ns#"
   xmlns:cc="http://creativecommons.org/ns#"
   xmlns:dc="http://purl.org/dc/elements/1.1/">
  <sodipodi:namedview
     pagecolor="#ffffff"
     bordercolor="#666666"
     borderopacity="1"
     objecttolerance="10"
     gridtolerance="10"
     guidetolerance="10"
     inkscape:pageopacity="0"
     inkscape:pageshadow="2"
     inkscape:window-width="1920"
     inkscape:window-height="1005"
     id="namedview19"
     showgrid="true"
     inkscape:zoom="9.8125003"
     inkscape:cx="20.891719"
     inkscape:cy="25.121018"
     inkscape:window-x="0"
     inkscape:window-y="0"
     inkscape:window-maximized="1"
     inkscape:current-layer="layer1"
     inkscape:document-rotation="0"
     inkscape:lockguides="false"
     inkscape:pagecheckerboard="0">
    <inkscape:grid
       type="xygrid"
       id="grid1568" />
  </sodipodi:namedview>
  <defs
     id="defs5455">
    <linearGradient
       inkscape:collect="always"
       id="linearGradient955">
      <stop
         style="stop-color:#fae3b0;stop-opacity:0.80000001"
         offset="0"
         id="stop949" />
      <stop
         style="stop-color:#20ffff;stop-opacity:0.80000001"
         offset="0.50507295"
         id="stop951" />
      <stop
         style="stop-color:#ffaeff;stop-opacity:0.69"
         offset="1"
         id="stop953" />
    </linearGradient>
    <linearGradient
       inkscape:collect="always"
       id="linearGradient851">
      <stop
         style="stop-color:#ccff00;stop-opacity:1"
         offset="0"
         id="stop847" />
      <stop
         style="stop-color:#ffccaa;stop-opacity:1"
         offset="1"
         id="stop849" />
    </linearGradient>
    <linearGradient
       inkscape:collect="always"
       xlink:href="#linearGradient955"
       id="linearGradient1140"
       gradientUnits="userSpaceOnUse"
       x1="401.86566"
       y1="520.7981"
       x2="431.46234"
       y2="520.7981"
       gradientTransform="matrix(0.81090252,0,0,0.81090252,94.69755,105.53552)" />
    <linearGradient
       inkscape:collect="always"
       xlink:href="#linearGradient851"
       id="linearGradient1142"
       gradientUnits="userSpaceOnUse"
       x1="401.86566"
       y1="520.7981"
       x2="431.46234"
       y2="520.7981"
       gradientTransform="matrix(0.81090252,0,0,0.81090252,94.69755,105.53552)" />
    <linearGradient
       inkscape:collect="always"
       xlink:href="#linearGradient955"
       id="linearGradient957"
       gradientUnits="userSpaceOnUse"
       x1="384.57144"
       y1="515.79797"
       x2="448.57144"
       y2="515.79797" />
  </defs>
  <metadata
     id="metadata5458">
    <rdf:RDF>
      <cc:Work
         rdf:about="">
        <dc:format>image/svg+xml</dc:format>
        <dc:type
           rdf:resource="http://purl.org/dc/dcmitype/StillImage" />
      </cc:Work>
    </rdf:RDF>
  </metadata>
  <g
     inkscape:label="Capa 1"
     inkscape:groupmode="layer"
     id="layer1"
     transform="translate(-384.57143,-483.798)">
    <rect
       style="fill:#626f9d;fill-opacity:0.2;stroke:none;stroke-width:1.26075"
       id="center-3"
       width="60.099998"
       height="42"
       x="386.57147"
       y="497.798"
       ry="3.9999959"
       rx="4.0066781" />
    <path
       d="m 442.73835,495.80768 h -29.32672 c -0.64817,0 -1.21496,-0.33361 -1.62011,-0.91817 l -2.1875,-3.33839 c -0.72899,-1.16852 -1.94446,-1.75312 -3.24023,-1.75312 h -14.98741 c -3.72689,0 -6.80495,3.17192 -6.80495,7.01111 v 38.97924 c 0,3.25524 2.59271,6.00966 5.83294,6.00966 h 25.19505 v 0 0 0 0 0 0 0 h 1.94402 v 0 0 0 0 0 0 0 0 0 h 25.19505 c 3.15951,0 5.83294,-2.67126 5.83294,-6.00966 v -33.9712 c 0,-3.33839 -2.59213,-6.00905 -5.83294,-6.00905 z m -25.19491,45.99033 v 0 h -1.94402 v 0 0 z m 29.08353,-6.00947 c 0,2.16999 -1.70156,4.00628 -3.88848,4.00628 h -52.33441 c -2.1062,0 -3.88848,-1.83629 -3.88848,-4.00628 l -5.8e-4,-13.43824 v -7.59568 c 0,-2.17001 1.78229,-4.00628 3.88848,-4.00628 h 29.32671 c 1.29634,0 2.51126,-0.66782 3.24024,-1.75312 l 2.10619,-3.33839 c 0.40518,-0.50072 0.97198,-0.91818 1.62012,-0.91818 h 15.06842 c 2.67343,0 4.86107,2.25378 4.86107,5.00835 v 10.93407 z m -4.86107,-32.9696 h -15.06842 c -1.29634,0 -2.51126,0.66781 -3.24023,1.75311 l -2.1062,3.3384 c -0.3238,0.58455 -0.97198,0.91816 -1.62011,0.91816 h -29.32651 c -1.45794,0 -2.83331,0.16967 -3.889,1.70239 v -8.733 c 0,-2 2.05601,-4 4.05601,-4 h 16.00001 l 0.0429,0.0464 2.9571,-0.0464 3.92107,0.0125 h 29.32672 c 2.10619,0 3.88848,1.83628 3.88848,4.00629 v 3.08814 c -1.29578,-1.33503 -2.99676,-2.08609 -4.94122,-2.08609 z"
       id="path64"
       sodipodi:nodetypes="csccsssssccccccccccccccccccsssccccccccccssccsssccssscccsccscccccccssscc"
       style="fill:url(#linearGradient957);fill-opacity:1;stroke-width:0.146841" />
    <path
       d="m 440.805,524.10951 c -1.24049,0 -2.24594,-1.00545 -2.24594,-2.2452 0,-0.41341 0.33551,-0.74894 0.74889,-0.74894 0.41374,0 0.74815,0.33553 0.74815,0.7489 0,0.41262 0.33553,0.74815 0.7489,0.74815 0.41375,0 0.74815,0.33553 0.74815,0.74815 0,0.41342 -0.3344,0.74894 -0.74815,0.74894 z m -1.49705,9.73075 c 0,0.41374 -0.33553,0.74927 -0.74889,0.74927 -0.41263,0 -0.74816,-0.33553 -0.74816,-0.74927 0,-0.41375 0.33553,-0.74779 0.74816,-0.74779 0.41336,0 0.74889,0.33404 0.74889,0.74779 z m -2.55551,-6.29764 -0.46563,0.46456 c -0.29202,0.29221 -0.76532,0.29221 -1.05846,0 -0.29203,-0.29202 -0.29203,-0.76644 0,-1.05846 l 0.46562,-0.46493 c 1.16958,-1.16919 3.06466,-1.16919 4.23386,0 l 1.58771,1.58828 c 0.29314,0.29164 0.29314,0.76607 0,1.05846 -0.29202,0.29165 -0.76607,0.29165 -1.05846,0 l -1.58772,-1.58786 c -0.58403,-0.5852 -1.53289,-0.5852 -2.11692,-5e-5 z m 4.80071,10.04031 h -17.96423 c -1.6535,0 -2.9941,-1.33991 -2.9941,-2.9934 v -2.24633 c 0,-0.41375 0.33552,-0.74777 0.7489,-0.74777 0.41262,0 0.74814,0.33407 0.74814,0.74777 v 2.24633 c 0,0.82604 0.66994,1.49635 1.49706,1.49635 h 17.96423 c 0.82712,0 1.49706,-0.67031 1.49706,-1.49635 v -13.47416 c 0,-0.82712 -0.66994,-1.49705 -1.49706,-1.49705 h -17.96423 c -0.82712,0 -1.49706,0.66993 -1.49706,1.49705 v 7.22785 c 0,0.20688 0.16777,0.37426 0.37389,0.37426 0.0965,0 0.18021,-0.0366 0.24782,-0.0965 l 3.62384,-3.6237 c 1.1692,-1.16924 3.06465,-1.16924 4.23384,0 l 6.30254,6.30277 c 0.1506,0.13669 0.24706,0.33257 0.24706,0.5526 0,0.41224 -0.33478,0.74777 -0.74815,0.74777 -0.22769,0 -0.42909,-0.10306 -0.56579,-0.26316 l -0.006,0.006 -6.28719,-6.28737 c -0.58404,-0.58404 -1.53288,-0.58404 -2.11692,0 l -3.62862,3.6288 c -0.33735,0.32673 -0.79531,0.52995 -1.3015,0.52995 -1.03327,2e-5 -1.87097,-0.83768 -1.87097,-1.8713 v -7.22785 c 0,-1.6535 1.34061,-2.9941 2.9941,-2.9941 h 17.96424 c 1.65424,0 2.99447,1.34065 2.99447,2.9941 v 13.47411 c 0,1.65353 -1.34023,2.99345 -2.99447,2.99345 z"
       id="path2-36-7"
       style="fill:url(#linearGradient1140);fill-opacity:1.0;stroke:url(#linearGradient1142);stroke-width:0.0467828" />
  </g>
</svg>
