<?xml version="1.0" encoding="UTF-8" standalone="no"?>
<svg
   width="64"
   version="1.1"
   height="64"
   id="svg15"
   sodipodi:docname="folder-sign.svg"
   inkscape:version="1.1.1 (3bf5ae0d25, 2021-09-20)"
   xmlns:inkscape="http://www.inkscape.org/namespaces/inkscape"
   xmlns:sodipodi="http://sodipodi.sourceforge.net/DTD/sodipodi-0.dtd"
   xmlns:xlink="http://www.w3.org/1999/xlink"
   xmlns="http://www.w3.org/2000/svg"
   xmlns:svg="http://www.w3.org/2000/svg"
   xmlns:rdf="http://www.w3.org/1999/02/22-rdf-syntax-ns#"
   xmlns:cc="http://creativecommons.org/ns#"
   xmlns:dc="http://purl.org/dc/elements/1.1/">
  <sodipodi:namedview
     pagecolor="#ffffff"
     bordercolor="#666666"
     borderopacity="1"
     objecttolerance="10"
     gridtolerance="10"
     guidetolerance="10"
     inkscape:pageopacity="0"
     inkscape:pageshadow="2"
     inkscape:window-width="1920"
     inkscape:window-height="1007"
     id="namedview17"
     showgrid="true"
     inkscape:zoom="9.8125"
     inkscape:cx="21.808917"
     inkscape:cy="44.585987"
     inkscape:window-x="0"
     inkscape:window-y="0"
     inkscape:window-maximized="1"
     inkscape:current-layer="layer1"
     inkscape:document-rotation="0"
     inkscape:pagecheckerboard="0"
     inkscape:lockguides="true">
    <inkscape:grid
       type="xygrid"
       id="grid850" />
  </sodipodi:namedview>
  <defs
     id="defs5455">
    <linearGradient
       inkscape:collect="always"
       xlink:href="#linearGradient2230"
       id="linearGradient2232"
       x1="384.57144"
       y1="515.79797"
       x2="448.57144"
       y2="515.79797"
       gradientUnits="userSpaceOnUse"
       gradientTransform="translate(2.0300002e-6)" />
    <linearGradient
       inkscape:collect="always"
       id="linearGradient2230">
      <stop
         style="stop-color:#4e99ca;stop-opacity:0.80000001"
         offset="0"
         id="stop2226" />
      <stop
         style="stop-color:#20ffff;stop-opacity:0.80000001"
         offset="0.50507295"
         id="stop2332" />
      <stop
         style="stop-color:#ffaeff;stop-opacity:0.69"
         offset="1"
         id="stop2228" />
    </linearGradient>
    <linearGradient
       inkscape:collect="always"
       xlink:href="#linearGradient2230"
       id="linearGradient1199"
       gradientUnits="userSpaceOnUse"
       gradientTransform="translate(17.682965,4.638667)"
       x1="406.38843"
       y1="520.85931"
       x2="426.76584"
       y2="520.85931" />
  </defs>
  <metadata
     id="metadata5458">
    <rdf:RDF>
      <cc:Work
         rdf:about="">
        <dc:format>image/svg+xml</dc:format>
        <dc:type
           rdf:resource="http://purl.org/dc/dcmitype/StillImage" />
      </cc:Work>
    </rdf:RDF>
  </metadata>
  <g
     inkscape:label="Capa 1"
     inkscape:groupmode="layer"
     id="layer1"
     transform="translate(-384.57143,-483.798)">
    <rect
       style="fill:#626f9d;fill-opacity:0.2;stroke:none;stroke-width:1.26075"
       id="center-3"
       width="60.099998"
       height="42"
       x="386.57141"
       y="497.79791"
       ry="3.9999959"
       rx="4.0066781" />
    <path
       d="m 442.73835,495.80768 h -29.32672 c -0.64817,0 -1.21496,-0.33361 -1.62011,-0.91817 l -2.1875,-3.33839 c -0.72899,-1.16852 -1.94446,-1.75312 -3.24023,-1.75312 h -14.98741 c -3.72689,0 -6.80495,3.17192 -6.80495,7.01111 v 38.97924 c 0,3.25524 2.59271,6.00966 5.83294,6.00966 h 25.19505 v 0 0 0 0 0 0 0 h 1.94402 v 0 0 0 0 0 0 0 0 0 h 25.19505 c 3.15951,0 5.83294,-2.67126 5.83294,-6.00966 v -33.9712 c 0,-3.33839 -2.59213,-6.00905 -5.83294,-6.00905 z m -25.19491,45.99033 v 0 h -1.94402 v 0 0 z m 29.08353,-6.00947 c 0,2.16999 -1.70156,4.00628 -3.88848,4.00628 h -52.33441 c -2.1062,0 -3.88848,-1.83629 -3.88848,-4.00628 l -5.8e-4,-13.43824 v -7.59568 c 0,-2.17001 1.78229,-4.00628 3.88848,-4.00628 h 29.32671 c 1.29634,0 2.51126,-0.66782 3.24024,-1.75312 l 2.10619,-3.33839 c 0.40518,-0.50072 0.97198,-0.91818 1.62012,-0.91818 h 15.06842 c 2.67343,0 4.86107,2.25378 4.86107,5.00835 v 10.93407 z m -4.86107,-32.9696 h -15.06842 c -1.29634,0 -2.51126,0.66781 -3.24023,1.75311 l -2.1062,3.3384 c -0.3238,0.58455 -0.97198,0.91816 -1.62011,0.91816 h -29.32651 c -1.45794,0 -2.83331,0.16967 -3.889,1.70239 v -8.733 c 0,-2 2.05601,-4 4.05601,-4 h 16.00001 l 0.0429,0.0464 2.9571,-0.0464 3.92107,0.0125 h 29.32672 c 2.10619,0 3.88848,1.83628 3.88848,4.00629 v 3.08814 c -1.29578,-1.33503 -2.99676,-2.08609 -4.94122,-2.08609 z"
       id="path64"
       sodipodi:nodetypes="csccsssssccccccccccccccccccsssccccccccccssccsssccssscccsccscccccccssscc"
       style="fill:url(#linearGradient2232);fill-opacity:1;stroke-width:0.146841" />
    <path
       d="m 433.23708,530.32734 c 0.0347,0.18453 0.16346,0.33706 0.33946,0.40213 0.0325,0.012 3.2672,1.20693 4.7472,1.93733 1.64507,0.75094 2.804,1.6104 3.3608,2.02347 0.12747,0.0947 0.2224,0.16453 0.30187,0.21653 l 1.47787,2.34214 c 0.10186,0.16106 0.27507,0.34873 0.45214,0.34873 0.0971,0 0.44973,0.16107 0.538,0.10537 0.24907,-0.15706 0.0693,-0.7741 -0.088,-1.02317 l -1.45733,-2.30933 c 0.002,-0.012 0.003,-0.0224 0.006,-0.0355 0.1192,-0.76667 0.48186,-3.09973 0.0755,-5.5704 -0.15013,-1.05813 -0.83653,-3.0872 -0.8656,-3.1728 -0.0629,-0.18613 -0.22373,-0.3224 -0.41733,-0.35493 -0.19653,-0.0325 -0.39013,0.0451 -0.50987,0.20053 l -0.16106,0.20907 c 0.0883,-2.0048 -0.0787,-2.24827 -0.15894,-2.3648 -0.86053,-1.25574 -1.94,-2.33254 -3.20826,-3.19974 -0.48987,-0.33466 -1.45254,-0.92613 -1.4936,-0.9512 -0.14667,-0.0899 -0.328,-0.10346 -0.4872,-0.0365 -0.15894,0.0675 -0.2752,0.20747 -0.31254,0.37573 l -0.0456,0.20587 c -0.5832,-1.57787 -0.85386,-1.71147 -1.00186,-1.78453 -0.9528,-0.47014 -2.15094,-0.96507 -3.20774,-1.4016 -0.912,-0.3768 -1.77333,-0.7328 -2.36906,-1.0264 -1.50507,-0.68694 -2.54267,-1.30134 -3.10027,-1.6312 -0.45653,-0.26987 -0.5648,-0.33414 -0.75253,-0.33414 -0.0445,0 -0.0896,0.006 -0.13334,0.0171 -0.0861,0.0211 -0.16666,0.0632 -0.2328,0.12293 -8e-4,5.4e-4 -0.002,0.001 -0.002,0.002 -0.11867,0.10853 -0.17733,0.2584 -0.17333,0.40747 -0.005,0.0352 -0.0131,0.0848 -0.0229,0.148 -0.1192,0.76666 -0.4824,3.09973 -0.0755,5.57173 0.29546,2.08587 1.38026,5.988 5.32133,8.68267 0.43867,0.29973 0.9056,0.5984 1.38773,0.888 0.10347,0.0621 0.32587,0.19573 2.65014,0.3064 l -0.2096,0.18533 c -0.14107,0.12453 -0.20587,0.3136 -0.1712,0.49787 z m -1.76107,-1.92854 c -0.45013,-0.2712 -0.88507,-0.55013 -1.29413,-0.8296 -3.60374,-2.46373 -4.59627,-6.03946 -4.86907,-7.96346 -0.31413,-1.90854 -0.136,-3.74294 -5.3e-4,-4.7344 0.60773,0.3576 1.60693,0.9288 2.9816,1.556 0.6128,0.3024 1.49013,0.66506 2.41893,1.0488 1.06587,0.44026 2.16693,0.8952 3.0752,1.33893 0.22453,0.32107 0.75787,1.7864 1.13573,3.01813 0.0712,0.23174 0.2856,0.3824 0.5312,0.37654 0.24187,-0.01 0.4472,-0.18134 0.49947,-0.4176 l 0.29973,-1.35547 c 0.2832,0.17813 0.59974,0.3808 0.81254,0.52613 1.1416,0.78054 2.11546,1.74614 2.8952,2.87094 0.0757,0.3856 0.009,2.0768 -0.10027,3.4792 -0.0181,0.2352 0.12,0.45466 0.34027,0.5392 0.22053,0.0848 0.46986,0.0147 0.61386,-0.17227 l 0.6056,-0.78587 c 0.20027,0.65547 0.4384,1.49894 0.51414,2.03227 0.25573,1.55573 0.18453,3.06053 0.076,4.1016 l -1.53974,-2.28613 c -1.804,-2.87254 -4.08373,-5.37574 -6.77653,-7.44 l -2.7992,-2.14587 c -0.23387,-0.17893 -0.56853,-0.13467 -0.74773,0.0989 -0.17947,0.2336 -0.1352,0.56854 0.0987,0.74774 l 2.7992,2.14586 c 2.59174,1.98667 4.78614,4.396 6.532,7.17494 l 0.82694,1.22826 c -0.47627,-0.28 -1.01627,-0.57066 -1.624,-0.84773 -1.056,-0.52133 -2.92267,-1.25067 -4.0032,-1.66187 l 0.5408,-0.4784 c 0.16346,-0.1448 0.2224,-0.37466 0.14853,-0.58026 -0.0741,-0.2056 -0.26613,-0.34507 -0.48427,-0.35227 -1.44346,-0.0477 -3.16186,-0.14853 -3.50693,-0.23227 z"
       id="path2-5-2"
       style="fill:url(#linearGradient1199);fill-opacity:1.0;stroke-width:0.266667"
       sodipodi:nodetypes="ccccccscccccccscccccccccccscccccccccccccccccccccccccccccccccccccccccccccc" />
  </g>
</svg>
