<?xml version="1.0" encoding="UTF-8" standalone="no"?>
<svg
   width="64"
   version="1.1"
   height="64"
   id="svg15"
   sodipodi:docname="folder-deb.svg"
   inkscape:version="1.1.1 (3bf5ae0d25, 2021-09-20)"
   xmlns:inkscape="http://www.inkscape.org/namespaces/inkscape"
   xmlns:sodipodi="http://sodipodi.sourceforge.net/DTD/sodipodi-0.dtd"
   xmlns:xlink="http://www.w3.org/1999/xlink"
   xmlns="http://www.w3.org/2000/svg"
   xmlns:svg="http://www.w3.org/2000/svg"
   xmlns:rdf="http://www.w3.org/1999/02/22-rdf-syntax-ns#"
   xmlns:cc="http://creativecommons.org/ns#"
   xmlns:dc="http://purl.org/dc/elements/1.1/">
  <sodipodi:namedview
     pagecolor="#ffffff"
     bordercolor="#666666"
     borderopacity="1"
     objecttolerance="10"
     gridtolerance="10"
     guidetolerance="10"
     inkscape:pageopacity="0"
     inkscape:pageshadow="2"
     inkscape:window-width="1920"
     inkscape:window-height="1007"
     id="namedview17"
     showgrid="true"
     inkscape:zoom="9.8124999"
     inkscape:cx="23.643312"
     inkscape:cy="32.152867"
     inkscape:window-x="0"
     inkscape:window-y="0"
     inkscape:window-maximized="1"
     inkscape:current-layer="layer1"
     inkscape:pagecheckerboard="0">
    <inkscape:grid
       type="xygrid"
       id="grid835" />
  </sodipodi:namedview>
  <defs
     id="defs5455">
    <linearGradient
       id="linearGradient4194">
      <stop
         style="stop-color:#b5006a"
         id="stop4196" />
      <stop
         offset="1"
         style="stop-color:#c70073"
         id="stop4198" />
    </linearGradient>
    <linearGradient
       inkscape:collect="always"
       xlink:href="#linearGradient2230"
       id="linearGradient2232"
       x1="384.57144"
       y1="515.79797"
       x2="448.57144"
       y2="515.79797"
       gradientUnits="userSpaceOnUse" />
    <linearGradient
       inkscape:collect="always"
       id="linearGradient2230">
      <stop
         style="stop-color:#ff0066;stop-opacity:1"
         offset="0"
         id="stop2226" />
      <stop
         style="stop-color:#ff80b2;stop-opacity:1"
         offset="0.50507295"
         id="stop2332" />
      <stop
         style="stop-color:#ff5599;stop-opacity:1"
         offset="1"
         id="stop2228" />
    </linearGradient>
    <linearGradient
       inkscape:collect="always"
       xlink:href="#linearGradient2230"
       id="linearGradient1235"
       gradientUnits="userSpaceOnUse"
       gradientTransform="translate(18.134,5)"
       x1="406.83743"
       y1="520.80609"
       x2="426.45447"
       y2="520.80609" />
  </defs>
  <metadata
     id="metadata5458">
    <rdf:RDF>
      <cc:Work
         rdf:about="">
        <dc:format>image/svg+xml</dc:format>
        <dc:type
           rdf:resource="http://purl.org/dc/dcmitype/StillImage" />
      </cc:Work>
    </rdf:RDF>
  </metadata>
  <g
     inkscape:label="Capa 1"
     inkscape:groupmode="layer"
     id="layer1"
     transform="translate(-384.57143,-483.798)">
    <rect
       style="fill:#626f9d;fill-opacity:0.2;stroke:none;stroke-width:1.26075"
       id="center-3"
       width="60.099998"
       height="42"
       x="386.57147"
       y="497.79813"
       ry="3.9999959"
       rx="4.0066781" />
    <path
       d="m 442.73835,495.80768 h -29.32672 c -0.64817,0 -1.21496,-0.33361 -1.62011,-0.91817 l -2.1875,-3.33839 c -0.72899,-1.16852 -1.94446,-1.75312 -3.24023,-1.75312 h -14.98741 c -3.72689,0 -6.80495,3.17192 -6.80495,7.01111 v 38.97924 c 0,3.25524 2.59271,6.00966 5.83294,6.00966 h 25.19505 v 0 0 0 0 0 0 0 h 1.94402 v 0 0 0 0 0 0 0 0 0 h 25.19505 c 3.15951,0 5.83294,-2.67126 5.83294,-6.00966 v -33.9712 c 0,-3.33839 -2.59213,-6.00905 -5.83294,-6.00905 z m -25.19491,45.99033 v 0 h -1.94402 v 0 0 z m 29.08353,-6.00947 c 0,2.16999 -1.70156,4.00628 -3.88848,4.00628 h -52.33441 c -2.1062,0 -3.88848,-1.83629 -3.88848,-4.00628 l -5.8e-4,-13.43824 v -7.59568 c 0,-2.17001 1.78229,-4.00628 3.88848,-4.00628 h 29.32671 c 1.29634,0 2.51126,-0.66782 3.24024,-1.75312 l 2.10619,-3.33839 c 0.40518,-0.50072 0.97198,-0.91818 1.62012,-0.91818 h 15.06842 c 2.67343,0 4.86107,2.25378 4.86107,5.00835 v 10.93407 z m -4.86107,-32.9696 h -15.06842 c -1.29634,0 -2.51126,0.66781 -3.24023,1.75311 l -2.1062,3.3384 c -0.3238,0.58455 -0.97198,0.91816 -1.62011,0.91816 h -29.32651 c -1.45794,0 -2.83331,0.16967 -3.889,1.70239 v -8.733 c 0,-2 2.05601,-4 4.05601,-4 h 16.00001 l 0.0429,0.0464 2.9571,-0.0464 3.92107,0.0125 h 29.32672 c 2.10619,0 3.88848,1.83628 3.88848,4.00629 v 3.08814 c -1.29578,-1.33503 -2.99676,-2.08609 -4.94122,-2.08609 z"
       id="path64"
       sodipodi:nodetypes="csccsssssccccccccccccccccccsssccccccccccssccsssccssscccsccscccccccssscc"
       style="fill:url(#linearGradient2232);fill-opacity:1;stroke-width:0.146841" />
    <path
       style="color:#232629;fill:url(#linearGradient1235);fill-opacity:1.0;stroke:none;stroke-width:1.09084"
       d="m 436.42591,537.68755 c -1.30898,-0.21818 -3.1634,-0.98176 -4.25421,-1.69078 -2.50891,-1.63624 -4.15104,-3.45632 -5.16598,-5.72793 -0.32725,-0.76361 -0.52144,-1.30903 -1.09082,-3.2725 -0.10908,-0.49086 -0.29415,-1.04096 -0.36242,-1.21234 -0.11517,-0.28913 -0.12023,-0.38667 -0.0702,-1.35105 0.0477,-0.87268 0.21814,-2.18165 0.32721,-2.28639 0.0168,-0.0252 0.0536,-0.0307 0.0847,-0.0137 0.10217,0.0611 0.19736,-0.22052 0.2905,-0.86244 0.0508,-0.35169 0.13129,-0.72049 0.17825,-0.81956 0.0471,-0.0988 0.12658,-0.31774 0.17687,-0.48592 0.11575,-0.38709 0.27357,-0.68464 0.76148,-1.43559 0.21455,-0.33023 0.43761,-0.68995 0.49565,-0.79935 0.0686,-0.1287 0.14291,-0.19174 0.21141,-0.17867 0.0665,0.0128 0.17488,-0.071 0.28899,-0.22143 0.49605,-0.65474 2.8325,-2.58642 3.0487,-2.52055 0.0587,0.0185 0.30556,-0.0639 0.54789,-0.18028 0.43833,-0.21179 0.63143,-0.26082 0.63143,-0.16019 0,0.0286 -0.0641,0.095 -0.14077,0.14644 -0.13589,0.0909 -0.13315,0.0923 0.0777,0.0433 0.12042,-0.0277 0.32328,-0.0682 0.45076,-0.0892 0.15752,-0.0255 0.22154,-0.0641 0.19982,-0.11773 -0.0195,-0.0477 0.0261,-0.095 0.11234,-0.11704 0.2154,-0.0547 0.55102,-0.0464 0.55102,0.0157 0,0.0733 -0.19191,0.14753 -0.34413,0.13305 -0.10347,-0.009 -0.10914,-10e-4 -0.0307,0.0497 0.077,0.0508 0.0779,0.0627 0.005,0.0635 -0.0487,5.1e-4 -0.0725,0.0169 -0.0526,0.0344 0.02,0.0192 0.15011,-0.022 0.28994,-0.0908 0.13983,-0.0688 0.39599,-0.15366 0.56919,-0.18933 0.21321,-0.0442 0.31492,-0.0949 0.31492,-0.1576 0,-0.0801 0.0988,-0.0884 0.76649,-0.0528 0.42154,0.022 1.05769,0.0858 1.41365,0.14089 0.64713,0.10096 0.6472,0.10096 0.88838,-0.0312 0.28924,-0.15976 0.7545,-0.18053 0.87677,-0.0399 0.045,0.0514 0.16784,0.13695 0.27357,0.18941 0.17252,0.0862 0.18393,0.0865 0.11102,10e-4 -0.13849,-0.16028 -9.5e-4,-0.15619 0.53384,0.0164 1.72414,0.55412 3.12967,1.54103 4.17266,2.92981 0.24733,0.32935 0.26229,0.47748 0.0277,0.277 l -0.13405,-0.11471 0.10201,0.19218 c 0.0556,0.1054 0.10203,0.22448 0.10203,0.26396 0,0.0402 0.16581,0.33131 0.36841,0.64848 0.45672,0.71487 0.58449,0.95571 0.55385,1.04393 -0.0139,0.0386 -0.21548,-0.21394 -0.44962,-0.5595 -0.23416,-0.34556 -0.58064,-0.81113 -0.77,-1.03461 -0.28277,-0.33374 -0.35683,-0.39083 -0.41452,-0.31951 -0.0394,0.0478 -0.13295,0.0955 -0.20965,0.10589 l -0.13942,0.0197 0.13789,0.25949 c 0.0755,0.14275 0.14802,0.23054 0.16032,0.19513 0.0664,-0.18954 0.37244,0.0593 0.51185,0.41607 0.0454,0.11559 0.16541,0.35361 0.26714,0.52896 0.10128,0.17535 0.17207,0.3311 0.15645,0.3461 -0.0163,0.0158 -0.10847,-0.0323 -0.20604,-0.10668 l -0.1776,-0.13406 0.12112,0.19956 c 0.0671,0.10973 0.17817,0.24398 0.24788,0.29834 0.0877,0.0682 0.12853,0.17492 0.13242,0.34146 0.007,0.30743 0.19067,0.67064 0.29049,0.57486 0.15548,-0.14919 0.18746,-0.0553 0.14832,0.43271 -0.0284,0.35999 -0.0141,0.59725 0.0543,0.84916 0.10349,0.38246 0.0807,0.47681 -0.0705,0.29808 -0.0965,-0.11365 -0.0974,-0.11358 -0.0538,0.004 0.093,0.25287 0.16194,0.63115 0.14269,0.77963 -0.036,0.27709 -0.14434,0.16189 -0.18166,-0.19305 l -0.0361,-0.34642 -0.0105,0.36867 c -0.005,0.20278 -0.0548,0.59457 -0.11026,0.87067 -0.0548,0.27887 -0.0833,0.61685 -0.064,0.76033 0.0389,0.26994 0.0106,0.28041 -0.22393,0.0878 -0.0957,-0.0782 -0.11219,-0.0636 -0.17788,0.17141 -0.0547,0.19709 -0.0543,0.30929 0.002,0.4744 0.0415,0.1189 0.0653,0.2802 0.0524,0.35841 -0.0271,0.18048 -0.17805,0.23675 -0.17805,0.067 0,-0.21403 -0.0852,-0.13789 -0.34412,0.30897 -0.70019,1.20661 -1.80806,2.14043 -3.06199,2.58086 -0.73922,0.25972 -1.23507,0.356 -2.06868,0.40179 l -0.75086,0.0418 0.37098,0.10983 c 0.29913,0.0892 0.47479,0.1014 0.90725,0.0686 0.56657,-0.0443 1.23175,-0.16191 1.53341,-0.27197 0.12036,-0.0443 0.20169,-0.0461 0.24326,-0.006 0.0979,0.0943 -0.77327,0.4643 -1.29053,0.54817 -0.88014,0.14268 -2.05828,-0.0114 -3.09829,-0.40558 -0.70561,-0.26739 -1.75274,-0.96367 -1.59227,-1.05883 0.0299,-0.0185 0.2296,0.0729 0.44269,0.20229 0.27237,0.16528 0.38739,0.20879 0.38739,0.14653 0,-0.11759 0.0409,-0.11193 0.25669,0.0362 0.19542,0.13358 0.79645,0.38151 1.22935,0.50717 0.47189,0.13698 0.28891,-0.0286 -0.34413,-0.31228 -2.00159,-0.89553 -2.83258,-1.79127 -3.24672,-3.49975 -0.15183,-0.6265 0.0102,-1.99997 0.28783,-2.43012 0.0704,-0.10896 0.12765,-0.24305 0.12765,-0.29787 0,-0.23797 0.41348,-0.86667 0.83773,-1.27383 0.74762,-0.7175 1.52491,-1.01533 2.53396,-0.971 0.48776,0.0217 0.69608,0.0634 1.10203,0.21771 0.46042,0.17599 1.04017,0.54438 0.86261,0.54814 -0.0423,9.1e-4 -0.22474,-0.0571 -0.40668,-0.13066 -0.27657,-0.11062 -0.45392,-0.13277 -1.08164,-0.13512 -0.8815,-0.003 -1.31233,0.11672 -1.93967,0.54034 -0.88938,0.60055 -1.38394,1.29226 -1.5591,2.18062 -0.11754,0.59607 -0.12113,0.76126 -0.029,1.35254 0.0524,0.3407 0.0908,0.44066 0.15642,0.41634 0.0549,-0.0207 0.0877,0.009 0.0877,0.0824 0,0.21114 0.47876,1.06774 0.81084,1.45066 0.7992,0.92171 2.09198,1.50986 3.31867,1.50986 0.63665,0 1.15131,-0.11726 1.62506,-0.37029 0.19022,-0.10128 0.43035,-0.22584 0.53358,-0.27606 0.36426,-0.17719 0.59025,-0.37958 0.85444,-0.76526 0.14688,-0.21436 0.30659,-0.38978 0.35486,-0.38978 0.0714,0 0.0686,0.0304 -0.0171,0.16513 -0.27926,0.44233 0.37613,-0.36196 0.71557,-0.87808 l 0.38022,-0.57806 -0.042,-0.37973 c -0.0405,-0.36491 -0.0332,-0.38719 0.14793,-0.57044 0.17521,-0.17651 0.19089,-0.22876 0.21113,-0.70053 0.0186,-0.42224 0.005,-0.50993 -0.072,-0.5104 -0.0722,-4e-4 -0.1028,-0.11166 -0.13429,-0.48095 -0.0417,-0.4888 -0.45587,-2.13349 -0.55238,-2.19075 -0.0287,-0.0178 -0.11005,-0.17545 -0.17973,-0.35147 -0.23513,-0.59398 -0.64767,-1.16515 -1.29085,-1.78739 -0.92549,-0.89533 -2.09129,-1.58667 -3.1925,-1.89327 -0.9367,-0.26073 -2.52732,-0.16611 -3.66028,0.21785 -0.55297,0.18736 -1.09777,0.43547 -1.18972,0.54175 -0.0422,0.0482 -0.10181,0.0721 -0.1344,0.0526 -0.0331,-0.0204 -0.0245,-0.0738 0.0224,-0.12803 0.20873,-0.24139 -0.48388,0.20033 -0.92977,0.59299 -0.26955,0.23734 -0.49993,0.43878 -0.51194,0.44757 -0.0115,0.008 0.0411,4.6e-4 0.11655,-0.0191 0.12674,-0.0311 0.13207,-0.0234 0.0641,0.0996 -0.0444,0.0784 -0.27342,0.22099 -0.55456,0.34338 -0.47244,0.20567 -0.77798,0.43167 -1.02073,0.75505 -0.0968,0.12911 -0.10215,0.15693 -0.0257,0.12867 0.0533,-0.0202 0.0977,-0.007 0.0977,0.0273 0,0.1715 -0.16234,0.36294 -0.40285,0.4751 -0.53283,0.24839 -1.46888,1.57544 -1.97023,2.79326 -0.22346,0.54268 -0.21992,0.52384 -0.0982,0.52384 0.12805,0 0.11911,0.13956 -0.056,0.8893 -0.2562,1.09204 -0.25651,1.05707 0.0226,2.59341 0.33996,1.87188 0.53857,2.49721 0.9162,2.88467 0.0892,0.0913 0.17471,0.28423 0.2131,0.47849 0.046,0.2319 0.12277,0.38497 0.26679,0.53067 0.13131,0.13278 0.17508,0.21424 0.12464,0.2319 -0.0987,0.0342 0.21086,0.47791 0.49345,0.70615 0.14223,0.1148 0.24756,0.1534 0.36174,0.13244 0.25018,-0.0461 0.50489,0.0927 0.89627,0.48655 0.40677,0.40963 0.44752,0.51975 0.17832,0.48186 -0.1736,-0.0244 -0.17759,-0.0203 -0.0925,0.10491 0.0491,0.072 0.23043,0.24501 0.40284,0.38453 0.24218,0.19601 0.30456,0.28077 0.27414,0.37267 -0.0441,0.1322 0.0802,0.25557 0.36305,0.35908 0.17493,0.0648 0.23128,0.20255 0.0993,0.24466 -0.0405,0.0132 0.20652,0.25609 0.54746,0.54081 0.38415,0.32072 0.64255,0.49653 0.67939,0.46219 0.0972,-0.0911 0.22197,-0.0638 0.22418,0.0495 0.002,0.12295 0.11288,0.25212 0.51017,0.59671 0.25105,0.21776 0.31371,0.24513 0.46758,0.20447 0.14094,-0.0379 0.22956,-0.0137 0.42802,0.1154 0.39593,0.25685 0.63601,0.35941 0.84155,0.35941 0.20228,0 0.23108,0.0551 0.12608,0.24414 -0.055,0.0994 -0.0441,0.11614 0.0842,0.11614 0.081,0 0.3125,0.0535 0.51255,0.12008 0.45485,0.15022 0.64458,0.16041 0.5306,0.0282 -0.16842,-0.19471 0.009,-0.14151 0.61183,0.18228 0.84075,0.45244 1.26609,0.50415 2.94024,0.35734 0.24785,-0.0219 0.32846,-0.008 0.32846,0.0514 0,0.0518 -0.21504,0.13042 -0.61006,0.22214 -0.51918,0.12055 -0.79635,0.14386 -1.86142,0.15664 -0.83925,0.009 -1.41255,-0.0114 -1.74075,-0.067 z m -0.85586,-9.00159 c 0,-0.0129 -0.077,-0.0687 -0.17209,-0.12364 l -0.17208,-0.10022 0.14776,0.12363 c 0.14413,0.12067 0.19641,0.14743 0.19641,0.10021 z m 8.61475,-6.29304 c -0.0203,-0.0479 -0.0341,-0.0329 -0.0385,0.0368 -0.003,0.064 0.0115,0.0985 0.0321,0.0782 0.0211,-0.0203 0.0231,-0.0718 0.004,-0.1151 z m -14.199,-6.29766 c 0.0774,-0.0953 0.0753,-0.0973 -0.0237,-0.0228 -0.0605,0.0456 -0.10949,0.0929 -0.10949,0.10468 0,0.0493 0.0511,0.0181 0.13312,-0.0819 z m 0.71156,-0.55541 c 0.0631,-0.0666 0.0989,-0.1201 0.0811,-0.1201 -0.0178,0 -0.0814,0.0535 -0.14452,0.1201 -0.0631,0.0666 -0.0989,0.12009 -0.0811,0.12009 0.0178,0 0.0815,-0.0535 0.14452,-0.12009 z m 0.78759,-0.42211 c 0.20625,-0.0674 0.32346,-0.0783 0.36696,-0.0377 0.0439,0.0423 0.20487,0.0176 0.50526,-0.0771 0.24275,-0.076 0.4302,-0.14958 0.41659,-0.16268 -0.0144,-0.013 -0.21353,0.037 -0.44416,0.11056 -0.31678,0.10116 -0.43082,0.11665 -0.46611,0.0624 -0.0596,-0.093 -0.62905,0.0905 -0.87377,0.28045 l -0.16723,0.13011 0.17972,-0.10313 c 0.0986,-0.0562 0.31608,-0.14786 0.48274,-0.20199 z m 1.80385,-0.15244 c 0.18172,-0.0515 0.31952,-0.10422 0.30632,-0.11723 -0.0288,-0.0277 -0.67653,0.14984 -0.67653,0.18592 0,0.0363 0.005,0.0353 0.37021,-0.0689 z m 1.03758,-0.32732 0.2503,-0.0442 -0.21901,-0.005 c -0.12045,-0.003 -0.28936,0.0365 -0.37541,0.0875 -0.10086,0.0598 -0.11232,0.0766 -0.0307,0.0491 0.0691,-0.0236 0.23777,-0.0634 0.37543,-0.0875 z m 0.49699,-0.11331 c 0.0197,-0.0294 -0.0215,-0.0409 -0.0907,-0.0231 -0.14609,0.0371 -0.16459,0.077 -0.0344,0.077 0.0495,0 0.10561,-0.0245 0.12526,-0.0539 z m 2.02014,0.0186 c -0.0211,-0.0203 -0.0745,-0.0222 -0.11992,-0.004 -0.0498,0.0196 -0.0346,0.0326 0.0386,0.0362 0.0665,0.002 0.10244,-0.0106 0.0813,-0.0309 z m -0.37413,-0.0657 c -0.0605,-0.0158 -0.15876,-0.0158 -0.21898,0 -0.0605,0.0158 -0.0104,0.0272 0.1095,0.0272 0.12045,0 0.16971,-0.0115 0.10948,-0.0272 z m -0.62402,-0.0631 c -0.12814,-0.0136 -0.35341,-0.0137 -0.50054,-3.9e-4 -0.14718,0.0131 -0.0428,0.0233 0.23297,0.0235 0.27529,2e-4 0.3957,-0.009 0.26757,-0.0231 z m -0.81636,-0.0523 c -0.0211,-0.0203 -0.0745,-0.0223 -0.11993,-0.004 -0.0498,0.0196 -0.0346,0.0326 0.0386,0.0369 0.0665,0.002 0.10246,-0.0106 0.0813,-0.0309 z m -0.42353,14.43264 c -0.63735,-0.43827 -0.87347,-0.66494 -0.87347,-0.83851 0,-0.0924 0.0219,-0.16741 0.0482,-0.16741 0.0907,0 1.15569,1.06731 1.13241,1.1344 -0.0144,0.0396 -0.14205,-0.0157 -0.30717,-0.12848 z m -0.32797,-1.11274 c -0.331,-0.32101 -0.43704,-0.49366 -0.30328,-0.49366 0.0797,0 0.69629,0.67677 0.69629,0.76509 0,0.0421 -0.007,0.0753 -0.0181,0.0753 -0.009,0 -0.17861,-0.15614 -0.37543,-0.34699 z m 3.66229,-1.31403 c -0.17478,-0.068 -0.0662,-0.19306 0.21899,-0.25168 0.16346,-0.0329 0.42322,-0.11537 0.57726,-0.18155 0.15403,-0.0667 0.29116,-0.10968 0.30474,-0.0966 0.0145,0.0134 -0.0555,0.14652 -0.1549,0.29658 -0.17852,0.27118 -0.18173,0.27282 -0.52376,0.26823 -0.18926,-0.002 -0.37931,-0.0187 -0.42233,-0.0348 z m 1.87707,-1.34317 c -0.16889,-0.0657 -0.17588,-0.17602 -0.0344,-0.55359 0.12112,-0.32428 0.24673,-0.38826 0.17683,-0.0906 -0.0251,0.10716 -0.0579,0.2627 -0.0744,0.34525 l -0.0285,0.15014 0.12507,-0.13668 c 0.0738,-0.0801 0.14248,-0.27068 0.16772,-0.46468 0.0235,-0.18042 0.068,-0.31323 0.098,-0.29513 0.077,0.0461 0.0694,0.52068 -0.0153,0.83986 -0.0731,0.27883 -0.13895,0.31132 -0.4149,0.20484 z m -14.80663,-0.75363 c -0.0211,-0.0519 -0.0388,-0.25713 -0.0388,-0.45537 0,-0.26149 0.0217,-0.35355 0.0777,-0.33554 0.0932,0.029 0.1475,0.88588 0.0557,0.88588 -0.0316,0 -0.0754,-0.0432 -0.0966,-0.0951 z m 15.05246,-1.40453 c -0.0971,-0.12619 -0.12718,-0.22582 -0.0993,-0.33126 0.0559,-0.21653 0.20475,-0.18573 0.314,0.0658 0.17004,0.39047 0.0226,0.57348 -0.21438,0.26596 z m -15.06529,-0.9533 c -0.004,-0.3405 -5e-5,-0.351 0.15698,-0.34528 0.13318,0.004 0.16536,0.0393 0.18065,0.18927 0.0179,0.16999 -0.17531,0.50721 -0.28968,0.50721 -0.0237,0 -0.0455,-0.15807 -0.048,-0.3512 z m 16.21867,-7.38171 c 0.008,-0.53731 0.10268,-0.7194 0.17658,-0.34316 0.051,0.26215 -0.0148,0.72509 -0.1132,0.80414 -0.0535,0.0434 -0.0703,-0.074 -0.0641,-0.46098 z m -8.22151,-0.32204 c 0.0251,-0.0724 0.88829,-0.41166 1.04752,-0.41166 0.18705,0 -0.1485,0.22 -0.53551,0.35101 -0.43152,0.14619 -0.54641,0.1598 -0.51201,0.061 z"
       class="ColorScheme-Text"
       id="path12-7" />
  </g>
</svg>
