<?xml version="1.0" encoding="UTF-8" standalone="no"?>
<svg
   height="64"
   width="64"
   version="1.1"
   id="svg27"
   sodipodi:docname="folder-games.svg"
   inkscape:version="1.1.1 (3bf5ae0d25, 2021-09-20)"
   xmlns:inkscape="http://www.inkscape.org/namespaces/inkscape"
   xmlns:sodipodi="http://sodipodi.sourceforge.net/DTD/sodipodi-0.dtd"
   xmlns:xlink="http://www.w3.org/1999/xlink"
   xmlns="http://www.w3.org/2000/svg"
   xmlns:svg="http://www.w3.org/2000/svg"
   xmlns:rdf="http://www.w3.org/1999/02/22-rdf-syntax-ns#"
   xmlns:cc="http://creativecommons.org/ns#"
   xmlns:dc="http://purl.org/dc/elements/1.1/">
  <metadata
     id="metadata33">
    <rdf:RDF>
      <cc:Work
         rdf:about="">
        <dc:format>image/svg+xml</dc:format>
        <dc:type
           rdf:resource="http://purl.org/dc/dcmitype/StillImage" />
      </cc:Work>
    </rdf:RDF>
  </metadata>
  <defs
     id="defs31">
    <linearGradient
       inkscape:collect="always"
       id="linearGradient959">
      <stop
         style="stop-color:#abe9b3;stop-opacity:0.80000001"
         offset="0"
         id="stop953" />
      <stop
         style="stop-color:#20ffff;stop-opacity:0.80000001"
         offset="0.50507295"
         id="stop955" />
      <stop
         style="stop-color:#ffaeff;stop-opacity:0.69"
         offset="1"
         id="stop957" />
    </linearGradient>
    <linearGradient
       inkscape:collect="always"
       id="linearGradient1282">
      <stop
         style="stop-color:#55ddff;stop-opacity:1;"
         offset="0"
         id="stop1278" />
      <stop
         style="stop-color:#55ddff;stop-opacity:0;"
         offset="1"
         id="stop1280" />
    </linearGradient>
    <linearGradient
       inkscape:collect="always"
       xlink:href="#linearGradient959"
       id="linearGradient2232"
       x1="384.57144"
       y1="515.79797"
       x2="448.57144"
       y2="515.79797"
       gradientUnits="userSpaceOnUse"
       gradientTransform="translate(-384.57143,-483.798)" />
    <linearGradient
       inkscape:collect="always"
       xlink:href="#linearGradient959"
       id="linearGradient1276"
       gradientUnits="userSpaceOnUse"
       gradientTransform="matrix(0.66400751,0,0,0.66400751,26.770293,21.399813)"
       x1="13.9"
       y1="37"
       x2="50.044182"
       y2="37" />
    <linearGradient
       inkscape:collect="always"
       xlink:href="#linearGradient1282"
       id="linearGradient1284"
       x1="58.016799"
       y1="52.543789"
       x2="59.480271"
       y2="52.543789"
       gradientUnits="userSpaceOnUse" />
  </defs>
  <sodipodi:namedview
     pagecolor="#ffffff"
     bordercolor="#666666"
     borderopacity="1"
     objecttolerance="10"
     gridtolerance="10"
     guidetolerance="10"
     inkscape:pageopacity="0"
     inkscape:pageshadow="2"
     inkscape:window-width="1920"
     inkscape:window-height="1005"
     id="namedview29"
     showgrid="true"
     inkscape:zoom="8"
     inkscape:cx="12.25"
     inkscape:cy="34.0625"
     inkscape:window-x="0"
     inkscape:window-y="0"
     inkscape:window-maximized="1"
     inkscape:current-layer="svg27"
     inkscape:document-rotation="0"
     inkscape:pagecheckerboard="0">
    <inkscape:grid
       type="xygrid"
       id="grid1078" />
  </sodipodi:namedview>
  <linearGradient
     id="a"
     gradientTransform="matrix(1 0 0 .99967 0 .176)"
     gradientUnits="userSpaceOnUse"
     x2="0"
     y1="541.798"
     y2="499.784">
    <stop
       offset="0"
       stop-color="#3daee9"
       id="stop2" />
    <stop
       offset="1"
       stop-color="#6cc1ef"
       id="stop4" />
  </linearGradient>
  <g
     id="g6"
     transform="matrix(0.27217938,0,0,0.27217938,19.028642,21.95284)" />
  <rect
     style="fill:#626f9d;fill-opacity:0.2;stroke:none;stroke-width:1.26075"
     id="center-3"
     width="60.099998"
     height="42"
     x="2.0000231"
     y="14"
     ry="3.9999959"
     rx="4.0066781" />
  <path
     d="M 58.16692,12.00968 H 28.8402 c -0.64817,0 -1.21496,-0.33361 -1.62011,-0.91817 L 25.03259,7.75312 C 24.3036,6.5846 23.08813,6 21.79236,6 H 6.80495 C 3.07806,6 0,9.17192 0,13.01111 v 38.97924 c 0,3.25524 2.59271,6.00966 5.83294,6.00966 h 25.19505 v 0 0 0 0 0 0 0 h 1.94402 v 0 0 0 0 0 0 0 0 0 H 58.16706 C 61.32657,58.00001 64,55.32875 64,51.99035 V 18.01915 C 64,14.68076 61.40787,12.0101 58.16706,12.0101 Z M 32.97201,58.00001 v 0 h -1.94402 v 0 0 z m 29.08353,-6.00947 c 0,2.16999 -1.70156,4.00628 -3.88848,4.00628 H 5.83265 c -2.1062,0 -3.88848,-1.83629 -3.88848,-4.00628 L 1.94359,38.5523 v -7.59568 c 0,-2.17001 1.78229,-4.00628 3.88848,-4.00628 h 29.32671 c 1.29634,0 2.51126,-0.66782 3.24024,-1.75312 l 2.10619,-3.33839 c 0.40518,-0.50072 0.97198,-0.91818 1.62012,-0.91818 h 15.06842 c 2.67343,0 4.86107,2.25378 4.86107,5.00835 V 36.88307 Z M 57.19447,19.02094 H 42.12605 c -1.29634,0 -2.51126,0.66781 -3.24023,1.75311 l -2.1062,3.3384 c -0.3238,0.58455 -0.97198,0.91816 -1.62011,0.91816 H 5.833 c -1.45794,0 -2.83331,0.16967 -3.889,1.70239 V 18 c 0,-2 2.05601,-4 4.05601,-4 h 16.00001 l 0.0429,0.0464 2.9571,-0.0464 3.92107,0.0125 h 29.32672 c 2.10619,0 3.88848,1.83628 3.88848,4.00629 v 3.08814 C 60.84051,19.7719 59.13953,19.02084 57.19507,19.02084 Z"
     id="path64"
     sodipodi:nodetypes="csccsssssccccccccccccccccccsssccccccccccssccsssccssscccsccscccccccssscc"
     style="fill:url(#linearGradient2232);fill-opacity:1;stroke-width:0.146841" />
  <path
     d="m 59.81613,50.444364 c -0.142454,0.497679 -0.516675,0.785893 -1.014354,0.643439 -0.497864,-0.142284 -0.495763,-0.661192 -0.353493,-1.159057 0.160037,-0.559202 0.146887,-1.148256 -0.03694,-1.703241 l -2.11082,-6.367117 c -0.393127,-1.186333 -1.786695,-2.418337 -3.036569,-2.418337 h -10.81632 c -1.25006,0 -2.353508,1.232004 -2.746818,2.418337 l -2.183257,6.367117 c -0.243903,0.736081 -0.04151,1.672029 0.307134,2.372045 0.348071,0.699452 1.304774,1.507843 2.036282,1.750463 0.729313,0.241694 1.801445,0.03482 2.493215,-0.31838 0.69305,-0.353942 1.209724,-1.244507 1.454538,-1.982782 l 0.138355,-0.418772 c 0.391116,-1.179745 1.199583,-1.683178 2.442505,-1.683178 h 3.22191 c 1.243108,0 2.050929,0.503433 2.44203,1.683178 l 0.13908,0.418772 c 0.393857,1.185915 1.812325,2.449455 3.036197,2.449278 0.234926,0 0.470393,-0.02947 0.699634,-0.08693 0.502267,-0.125613 1.011302,-0.110184 1.137085,0.391885 0.125799,0.502267 -0.179443,0.866653 -0.681695,0.992451 -0.378107,0.09467 -0.766658,0.14264 -1.154839,0.14264 -0.993904,0 -1.951541,-0.312009 -2.76947,-0.90253 -0.827456,-0.597463 -1.434989,-1.426197 -1.756716,-2.396834 l -0.138792,-0.418772 c -0.136414,-0.411434 -0.519094,-0.687737 -0.952328,-0.687737 h -3.22191 c -0.433407,0 -0.8161,0.276303 -0.952514,0.687564 l -0.138792,0.418945 c -0.400819,1.209039 -1.246399,2.193952 -2.381289,2.773488 -1.142016,0.583182 -2.436759,0.683533 -3.646169,0.282529 -1.209039,-0.400819 -2.190298,-1.254819 -2.762688,-2.404714 -0.57073,-1.146423 -0.664298,-2.44354 -0.263303,-3.652579 l 2.110652,-6.367109 C 39.003684,39.313408 40.822835,38 42.882398,38 h 10.236486 c 2.059568,0 3.87889,1.313408 4.526903,3.268431 l 2.110657,6.367109 c 0.303033,0.914427 0.323721,1.885605 0.05965,2.808824 z m -7.362837,-9.069555 c -0.51764,0 -0.93731,0.419675 -0.93731,0.937495 0,0.517641 0.41967,0.937313 0.93731,0.937313 0.517827,0 0.937496,-0.419672 0.937496,-0.937313 0,-0.51782 -0.419669,-0.937495 -0.937496,-0.937495 z m 0,5.624616 c 0.517827,0 0.937496,-0.41967 0.937496,-0.937496 0,-0.517641 -0.419669,-0.93731 -0.937496,-0.93731 -0.51764,0 -0.93731,0.419669 -0.93731,0.93731 0,0.517641 0.41967,0.937496 0.93731,0.937496 z m -1.874805,-3.749808 c -0.517641,0 -0.937324,0.419681 -0.937324,0.937507 0,0.517811 0.419683,0.937495 0.937324,0.937495 0.517812,0 0.937495,-0.419684 0.937495,-0.937495 0,-0.517826 -0.419683,-0.937507 -0.937495,-0.937507 z m 3.749796,1.875002 c 0.51764,0 0.937324,-0.419684 0.937324,-0.937495 0,-0.517826 -0.419684,-0.937507 -0.937324,-0.937507 -0.517811,0 -0.937495,0.419681 -0.937495,0.937507 0,0.517626 0.419684,0.937495 0.937495,0.937495 z m -10.78049,1.874806 c 0.517825,0 0.937505,-0.41967 0.937505,-0.937496 v -0.93731 h 0.937314 c 0.517818,0 0.937495,-0.419684 0.937495,-0.937495 0,-0.517826 -0.419677,-0.937507 -0.937495,-0.937507 h -0.937314 v -0.937313 c 0,-0.51782 -0.41968,-0.937495 -0.937505,-0.937495 -0.517628,0 -0.93731,0.419675 -0.93731,0.937495 v 0.937313 h -0.937496 c -0.51764,0 -0.937495,0.419681 -0.937495,0.937507 0,0.517811 0.419855,0.937495 0.937495,0.937495 h 0.937496 v 0.93731 c 0,0.517641 0.419682,0.937496 0.93731,0.937496 z"
     id="path2-36-7"
     style="fill:url(#linearGradient1276);fill-opacity:1.0;stroke-width:0.0468755"
     sodipodi:nodetypes="cccccsscccccccsscsccccscccssccsccccssccccsssssssssssssssssssssscssscssscssscss" />
  <circle
     cx="58.748535"
     cy="52.543789"
     id="circle4-5-5"
     style="fill:url(#linearGradient1284);fill-opacity:1;stroke-width:0.0487825"
     r="0.73173571" />
</svg>
