<?xml version="1.0" encoding="UTF-8" standalone="no"?>
<svg
   width="64"
   version="1.1"
   height="64"
   id="svg15"
   sodipodi:docname="folder-android.svg"
   inkscape:version="1.1.1 (3bf5ae0d25, 2021-09-20)"
   xmlns:inkscape="http://www.inkscape.org/namespaces/inkscape"
   xmlns:sodipodi="http://sodipodi.sourceforge.net/DTD/sodipodi-0.dtd"
   xmlns:xlink="http://www.w3.org/1999/xlink"
   xmlns="http://www.w3.org/2000/svg"
   xmlns:svg="http://www.w3.org/2000/svg"
   xmlns:rdf="http://www.w3.org/1999/02/22-rdf-syntax-ns#"
   xmlns:cc="http://creativecommons.org/ns#"
   xmlns:dc="http://purl.org/dc/elements/1.1/">
  <sodipodi:namedview
     pagecolor="#ffffff"
     bordercolor="#666666"
     borderopacity="1"
     objecttolerance="10"
     gridtolerance="10"
     guidetolerance="10"
     inkscape:pageopacity="0"
     inkscape:pageshadow="2"
     inkscape:window-width="1920"
     inkscape:window-height="1007"
     id="namedview17"
     showgrid="true"
     inkscape:zoom="9.8125"
     inkscape:cx="32"
     inkscape:cy="31.949045"
     inkscape:window-x="0"
     inkscape:window-y="0"
     inkscape:window-maximized="1"
     inkscape:current-layer="layer1"
     inkscape:document-rotation="0"
     inkscape:pagecheckerboard="0">
    <inkscape:grid
       type="xygrid"
       id="grid850" />
  </sodipodi:namedview>
  <defs
     id="defs5455">
    <linearGradient
       inkscape:collect="always"
       xlink:href="#linearGradient2230"
       id="linearGradient2232"
       x1="384.57144"
       y1="515.79797"
       x2="448.57144"
       y2="515.79797"
       gradientUnits="userSpaceOnUse" />
    <linearGradient
       inkscape:collect="always"
       id="linearGradient2230">
      <stop
         style="stop-color:#4e99ca;stop-opacity:0.80000001"
         offset="0"
         id="stop2226" />
      <stop
         style="stop-color:#20ffff;stop-opacity:0.80000001"
         offset="0.50507295"
         id="stop2332" />
      <stop
         style="stop-color:#ffaeff;stop-opacity:0.69"
         offset="1"
         id="stop2228" />
    </linearGradient>
  </defs>
  <metadata
     id="metadata5458">
    <rdf:RDF>
      <cc:Work
         rdf:about="">
        <dc:format>image/svg+xml</dc:format>
        <dc:type
           rdf:resource="http://purl.org/dc/dcmitype/StillImage" />
      </cc:Work>
    </rdf:RDF>
  </metadata>
  <g
     inkscape:label="Capa 1"
     inkscape:groupmode="layer"
     id="layer1"
     transform="translate(-384.57143,-483.798)">
    <g
       transform="matrix(0.74351172,0,0,0.74285356,332.49565,-244.90835)"
       id="g4" />
    <rect
       style="fill:#626f9d;fill-opacity:0.2;stroke:none;stroke-width:1.26075"
       id="center-3"
       width="60.099998"
       height="42"
       x="386.57144"
       y="497.79797"
       ry="3.9999959"
       rx="4.0066781" />
    <path
       d="m 442.73835,495.80768 h -29.32672 c -0.64817,0 -1.21496,-0.33361 -1.62011,-0.91817 l -2.1875,-3.33839 c -0.72899,-1.16852 -1.94446,-1.75312 -3.24023,-1.75312 h -14.98741 c -3.72689,0 -6.80495,3.17192 -6.80495,7.01111 v 38.97924 c 0,3.25524 2.59271,6.00966 5.83294,6.00966 h 25.19505 v 0 0 0 0 0 0 0 h 1.94402 v 0 0 0 0 0 0 0 0 0 h 25.19505 c 3.15951,0 5.83294,-2.67126 5.83294,-6.00966 v -33.9712 c 0,-3.33839 -2.59213,-6.00905 -5.83294,-6.00905 z m -25.19491,45.99033 v 0 h -1.94402 v 0 0 z m 29.08353,-6.00947 c 0,2.16999 -1.70156,4.00628 -3.88848,4.00628 h -52.33441 c -2.1062,0 -3.88848,-1.83629 -3.88848,-4.00628 l -5.8e-4,-13.43824 v -7.59568 c 0,-2.17001 1.78229,-4.00628 3.88848,-4.00628 h 29.32671 c 1.29634,0 2.51126,-0.66782 3.24024,-1.75312 l 2.10619,-3.33839 c 0.40518,-0.50072 0.97198,-0.91818 1.62012,-0.91818 h 15.06842 c 2.67343,0 4.86107,2.25378 4.86107,5.00835 v 10.93407 z m -4.86107,-32.9696 h -15.06842 c -1.29634,0 -2.51126,0.66781 -3.24023,1.75311 l -2.1062,3.3384 c -0.3238,0.58455 -0.97198,0.91816 -1.62011,0.91816 h -29.32651 c -1.45794,0 -2.83331,0.16967 -3.889,1.70239 v -8.733 c 0,-2 2.05601,-4 4.05601,-4 h 16.00001 l 0.0429,0.0464 2.9571,-0.0464 3.92107,0.0125 h 29.32672 c 2.10619,0 3.88848,1.83628 3.88848,4.00629 v 3.08814 c -1.29578,-1.33503 -2.99676,-2.08609 -4.94122,-2.08609 z"
       id="path64"
       sodipodi:nodetypes="csccsssssccccccccccccccccccsssccccccccccssccsssccssscccsccscccccccssscc"
       style="fill:url(#linearGradient2232);fill-opacity:1;stroke-width:0.146841" />
    <path
       clip-rule="evenodd"
       d="m 437.822,519.04824 c 0,0.41456 -0.33656,0.75018 -0.75037,0.75018 -0.41457,0 -0.75,-0.33562 -0.75,-0.75018 0,-0.41456 0.33543,-0.75 0.75,-0.75 0.41381,0 0.75037,0.33544 0.75037,0.75 z m -4.50074,0 c 0,0.41456 -0.33544,0.75018 -0.75,0.75018 -0.41381,0 -0.74925,-0.33562 -0.74925,-0.75018 0,-0.41456 0.33544,-0.75 0.74925,-0.75 0.41456,0 0.75,0.33544 0.75,0.75 z m 10.59119,10.59063 -7.5e-4,-7.5e-4 c -0.13622,0.13622 -0.32447,0.2212 -0.53212,0.2212 -0.41639,0 -0.75366,-0.33727 -0.75366,-0.75365 0,-0.22266 0.0992,-0.42113 0.25416,-0.55922 0.11756,-0.13294 0.19153,-0.30614 0.19153,-0.49767 v -4.50093 c 0,-0.41362 -0.33544,-0.75 -0.75,-0.75 -0.41381,0 -0.75,0.33638 -0.75,0.75 v 4.50093 2.11227 0.13697 c 0,0.98072 -0.47278,1.84753 -1.20009,2.39503 -0.003,0.003 -0.004,0.008 -0.008,0.011 -0.17723,0.13697 -0.29259,0.35231 -0.29259,0.59437 v 2.25037 c 0,1.24181 -1.00744,2.24924 -2.24924,2.24924 -1.24294,0 -2.25037,-1.00743 -2.25037,-2.24924 v -0.0377 -1.65014 c 0,-0.31092 -0.25121,-0.5625 -0.5625,-0.5625 h -0.375 c -0.31055,0 -0.5625,0.25158 -0.5625,0.5625 v 1.65014 0.0377 c 0,1.24181 -1.00781,2.24924 -2.24962,2.24924 -1.24293,0 -2.25037,-1.00743 -2.25037,-2.24924 v -2.25037 c 0,-0.24206 -0.11428,-0.45741 -0.29259,-0.59437 -0.003,-0.003 -0.005,-0.008 -0.008,-0.011 -0.72731,-0.5475 -1.19972,-1.41431 -1.19972,-2.39503 v -0.13697 c -0.23582,0.0842 -0.48632,0.13697 -0.74999,0.13697 -1.24217,0 -2.2496,-1.00743 -2.2496,-2.24924 v -4.50093 c 0,-1.18982 0.92836,-2.15423 2.09803,-2.23424 0.0491,-0.0101 0.0992,-0.015 0.15159,-0.015 h 0.75 1.49999 3.65624 1.59375 3.00037 c 0.828,0 1.49999,-0.672 1.49999,-1.50019 0,-0.31879 -0.10181,-0.61228 -0.2706,-0.85439 -0.95616,-1.30002 -2.49244,-2.14597 -4.22971,-2.14597 -2.07459,0 -3.86643,1.20412 -4.71824,2.95072 l -0.002,-9.3e-4 c -0.12267,0.25068 -0.37828,0.42553 -0.6764,0.42553 -0.41747,0 -0.75586,-0.33891 -0.75586,-0.75605 0,-0.18492 0.0689,-0.35231 0.17943,-0.48337 0.55369,-1.06294 1.38136,-1.96031 2.38879,-2.59772 l -0.81555,-1.41266 c -0.20691,-0.35907 -0.0842,-0.81741 0.27464,-1.02502 0.3585,-0.2069 0.8174,-0.0842 1.02464,0.27483 l 0.87009,1.50693 c 0.69801,-0.24553 1.44726,-0.38179 2.23021,-0.38179 0.78187,0 1.53037,0.14044 2.22839,0.38526 l 0.87196,-1.51045 c 0.20766,-0.35906 0.66577,-0.48173 1.02502,-0.27482 0.35817,0.20765 0.48084,0.66595 0.27431,1.02501 l -0.81848,1.41689 c 0.71995,0.45501 1.35313,1.03434 1.85596,1.71974 0.35081,0.492 0.5625,1.08891 0.5625,1.73822 0,1.65655 -1.34287,2.99943 -2.99924,2.99943 h -7.50041 -0.75 -2.24999 c -0.41381,0 -0.75037,0.33637 -0.75037,0.74999 v 4.50093 c 0,0.41344 0.33656,0.75 0.75037,0.75 0.41456,0 0.75,-0.33656 0.75,-0.75 v -3.00055 c 0,-0.41382 0.33543,-0.75019 0.75,-0.75019 0.41456,0 0.74999,0.33637 0.74999,0.75019 v 5.2498 c 0,0.56174 0.312,1.04516 0.76866,1.3026 0.43907,0.2633 0.73134,0.74011 0.73134,1.28761 v 2.66052 c 0,0.41381 0.33581,0.74925 0.75037,0.74925 0.41381,0 0.74925,-0.33544 0.74925,-0.74925 v -1.87537 c 0,-1.03603 0.84009,-1.87499 1.87537,-1.87499 h 0.75 c 1.03603,0 1.875,0.83896 1.875,1.87499 v 1.87537 c 0,0.41381 0.33581,0.74925 0.75037,0.74925 0.41343,0 0.75,-0.33544 0.75,-0.74925 v -2.66052 c 0,-0.5475 0.29189,-1.02431 0.73167,-1.28761 0.45557,-0.25744 0.76757,-0.74086 0.76757,-1.3026 v -2.24925 -3.75074 -0.75019 c 0,-1.24199 1.00744,-2.24924 2.25037,-2.24924 1.24294,0 2.25037,1.00729 2.25037,2.24929 v 4.50093 c 0,0.62142 -0.25233,1.18321 -0.65953,1.59009 z"
       fill="#a4c639"
       fill-rule="evenodd"
       id="path2-3"
       style="fill:#a4c639;fill-opacity:1;stroke-width:0.0468749" />
  </g>
</svg>
