<?xml version="1.0" encoding="UTF-8" standalone="no"?>
<svg
   width="64"
   version="1.1"
   height="64"
   id="svg17"
   sodipodi:docname="network-workgroup.svg"
   inkscape:version="1.1.1 (3bf5ae0d25, 2021-09-20)"
   xmlns:inkscape="http://www.inkscape.org/namespaces/inkscape"
   xmlns:sodipodi="http://sodipodi.sourceforge.net/DTD/sodipodi-0.dtd"
   xmlns:xlink="http://www.w3.org/1999/xlink"
   xmlns="http://www.w3.org/2000/svg"
   xmlns:svg="http://www.w3.org/2000/svg"
   xmlns:rdf="http://www.w3.org/1999/02/22-rdf-syntax-ns#"
   xmlns:cc="http://creativecommons.org/ns#"
   xmlns:dc="http://purl.org/dc/elements/1.1/">
  <sodipodi:namedview
     pagecolor="#ffffff"
     bordercolor="#666666"
     borderopacity="1"
     objecttolerance="10"
     gridtolerance="10"
     guidetolerance="10"
     inkscape:pageopacity="0"
     inkscape:pageshadow="2"
     inkscape:window-width="1920"
     inkscape:window-height="1007"
     id="namedview19"
     showgrid="true"
     inkscape:zoom="9.8124999"
     inkscape:cx="8.4585988"
     inkscape:cy="41.834395"
     inkscape:window-x="0"
     inkscape:window-y="0"
     inkscape:window-maximized="1"
     inkscape:current-layer="layer1"
     inkscape:document-rotation="0"
     inkscape:pagecheckerboard="0">
    <inkscape:grid
       type="xygrid"
       id="grid876" />
  </sodipodi:namedview>
  <defs
     id="defs5455">
    <linearGradient
       inkscape:collect="always"
       id="linearGradient934">
      <stop
         style="stop-color:#ffcc00;stop-opacity:1"
         offset="0"
         id="stop930" />
      <stop
         style="stop-color:#00ffff;stop-opacity:1"
         offset="1"
         id="stop932" />
    </linearGradient>
    <linearGradient
       inkscape:collect="always"
       xlink:href="#linearGradient934"
       id="linearGradient902"
       x1="2.9999995"
       y1="1035.3622"
       x2="29"
       y2="1035.3622"
       gradientUnits="userSpaceOnUse" />
    <linearGradient
       inkscape:collect="always"
       xlink:href="#linearGradient2230"
       id="linearGradient2232"
       x1="384.57144"
       y1="515.79797"
       x2="448.57144"
       y2="515.79797"
       gradientUnits="userSpaceOnUse"
       gradientTransform="translate(2.0000002e-6)" />
    <linearGradient
       inkscape:collect="always"
       id="linearGradient2230">
      <stop
         style="stop-color:#4e99ca;stop-opacity:0.80000001"
         offset="0"
         id="stop2226" />
      <stop
         style="stop-color:#20ffff;stop-opacity:0.80000001"
         offset="0.50507295"
         id="stop2332" />
      <stop
         style="stop-color:#ffaeff;stop-opacity:0.69"
         offset="1"
         id="stop2228" />
    </linearGradient>
    <linearGradient
       inkscape:collect="always"
       xlink:href="#linearGradient2230"
       id="linearGradient1043"
       gradientUnits="userSpaceOnUse"
       gradientTransform="translate(17.4,5)"
       x1="406.17142"
       y1="520.79797"
       x2="427.17151"
       y2="520.79797" />
  </defs>
  <metadata
     id="metadata5458">
    <rdf:RDF>
      <cc:Work
         rdf:about="">
        <dc:format>image/svg+xml</dc:format>
        <dc:type
           rdf:resource="http://purl.org/dc/dcmitype/StillImage" />
      </cc:Work>
    </rdf:RDF>
  </metadata>
  <g
     inkscape:label="Capa 1"
     inkscape:groupmode="layer"
     id="layer1"
     transform="translate(-384.57143,-483.798)">
    <g
       transform="matrix(0.66666667,0,0,0.66666667,405.9691,-171.96902)"
       id="g4"
       style="fill:url(#linearGradient902);fill-opacity:1" />
    <rect
       style="fill:#626f9d;fill-opacity:0.2;stroke:none;stroke-width:1.26075"
       id="center-3"
       width="60.099998"
       height="42"
       x="386.57141"
       y="497.79797"
       ry="3.9999959"
       rx="4.0066781" />
    <path
       d="m 442.73835,495.80768 h -29.32672 c -0.64817,0 -1.21496,-0.33361 -1.62011,-0.91817 l -2.1875,-3.33839 c -0.72899,-1.16852 -1.94446,-1.75312 -3.24023,-1.75312 h -14.98741 c -3.72689,0 -6.80495,3.17192 -6.80495,7.01111 v 38.97924 c 0,3.25524 2.59271,6.00966 5.83294,6.00966 h 25.19505 v 0 0 0 0 0 0 0 h 1.94402 v 0 0 0 0 0 0 0 0 0 h 25.19505 c 3.15951,0 5.83294,-2.67126 5.83294,-6.00966 v -33.9712 c 0,-3.33839 -2.59213,-6.00905 -5.83294,-6.00905 z m -25.19491,45.99033 v 0 h -1.94402 v 0 0 z m 29.08353,-6.00947 c 0,2.16999 -1.70156,4.00628 -3.88848,4.00628 h -52.33441 c -2.1062,0 -3.88848,-1.83629 -3.88848,-4.00628 l -5.8e-4,-13.43824 v -7.59568 c 0,-2.17001 1.78229,-4.00628 3.88848,-4.00628 h 29.32671 c 1.29634,0 2.51126,-0.66782 3.24024,-1.75312 l 2.10619,-3.33839 c 0.40518,-0.50072 0.97198,-0.91818 1.62012,-0.91818 h 15.06842 c 2.67343,0 4.86107,2.25378 4.86107,5.00835 v 10.93407 z m -4.86107,-32.9696 h -15.06842 c -1.29634,0 -2.51126,0.66781 -3.24023,1.75311 l -2.1062,3.3384 c -0.3238,0.58455 -0.97198,0.91816 -1.62011,0.91816 h -29.32651 c -1.45794,0 -2.83331,0.16967 -3.889,1.70239 v -8.733 c 0,-2 2.05601,-4 4.05601,-4 h 16.00001 l 0.0429,0.0464 2.9571,-0.0464 3.92107,0.0125 h 29.32672 c 2.10619,0 3.88848,1.83628 3.88848,4.00629 v 3.08814 c -1.29578,-1.33503 -2.99676,-2.08609 -4.94122,-2.08609 z"
       id="path64"
       sodipodi:nodetypes="csccsssssccccccccccccccccccsssccccccccccssccsssccssscccsccscccccccssscc"
       style="fill:url(#linearGradient2232);fill-opacity:1;stroke-width:0.146841" />
    <path
       fill-rule="evenodd"
       clip-rule="evenodd"
       d="m 431.07148,533.29795 c 0,0.41457 -0.33544,0.75 -0.75,0.75 -0.41381,0 -0.75019,-0.33543 -0.75019,-0.75 0,-0.41456 0.33638,-0.75 0.75019,-0.75 0.41456,0 0.75,0.33544 0.75,0.75 z m -3.00038,0 c 0,0.41457 -0.33543,0.75 -0.74925,0.75 -0.41456,0 -0.75,-0.33543 -0.75,-0.75 0,-0.41456 0.33544,-0.75 0.75,-0.75 0.41382,0 0.74926,0.33544 0.74925,0.75 z m 3.00038,-15.00009 c 0,0.41456 -0.33544,0.75 -0.75,0.75 -0.41381,0 -0.75019,-0.33544 -0.75019,-0.75 0,-0.41386 0.33638,-0.75019 0.75019,-0.75019 0.41456,0 0.75,0.33633 0.75,0.75019 z m -3.00038,0 c 0,0.41456 -0.33543,0.75 -0.74925,0.75 -0.41456,0 -0.75,-0.33544 -0.75,-0.75 0,-0.41386 0.33544,-0.75019 0.75,-0.75019 0.41382,0 0.74926,0.33633 0.74925,0.75019 z m -1.49925,7.50005 c 0,-0.41457 0.33544,-0.75019 0.75,-0.75019 0.41382,0 0.74926,0.33562 0.74926,0.75019 0,0.41456 -0.33544,0.75 -0.74926,0.75 -0.41456,0 -0.75,-0.33544 -0.75,-0.75 z m 2.99944,0 c 0,-0.41457 0.33638,-0.75019 0.75019,-0.75019 0.41456,0 0.75,0.33562 0.75,0.75019 0,0.41456 -0.33544,0.75 -0.75,0.75 -0.41381,0 -0.75019,-0.33544 -0.75019,-0.75 z M 441.5711,537.798 h -14.99925 c -1.6575,0 -3.00037,-1.34325 -3.00037,-3 v -2.25005 c 0,-0.41381 0.33544,-0.75 0.75,-0.75 0.41456,0 0.75019,0.33619 0.75019,0.75 v 2.25005 c 0,0.82837 0.67106,1.50038 1.50018,1.50038 h 14.99925 c 0.82913,0 1.5,-0.67201 1.5,-1.50038 v -3.00005 c 0,-0.82837 -0.67087,-1.50037 -1.5,-1.50037 h -2.99962 -11.99963 c -0.7619,0 -1.45476,-0.28603 -1.98375,-0.75328 -0.0749,-0.0659 -0.14629,-0.13622 -0.2144,-0.20949 -0.003,-0.004 -0.007,-0.007 -0.009,-0.0103 -0.0648,-0.0703 -0.12614,-0.14353 -0.18422,-0.22045 -0.007,-0.01 -0.0136,-0.0183 -0.0211,-0.0285 -0.0513,-0.0689 -0.0983,-0.141 -0.14372,-0.21427 -0.0119,-0.0194 -0.0245,-0.0384 -0.0353,-0.0582 -0.0379,-0.0645 -0.0732,-0.13111 -0.10603,-0.19814 -0.0127,-0.026 -0.0253,-0.0531 -0.0379,-0.0802 -0.0319,-0.0689 -0.0597,-0.14025 -0.0857,-0.21239 -0.009,-0.0245 -0.0185,-0.048 -0.0269,-0.0732 -0.0244,-0.0747 -0.0454,-0.15234 -0.0639,-0.22851 -0.006,-0.0256 -0.0143,-0.0491 -0.0194,-0.0751 -0.0192,-0.0875 -0.0335,-0.17653 -0.0445,-0.26733 -0.002,-0.0143 -0.004,-0.0289 -0.006,-0.0428 -0.012,-0.10767 -0.0186,-0.21717 -0.0186,-0.32742 v -3.00019 c 0,-0.111 0.007,-0.22031 0.0185,-0.32799 7.5e-4,-0.011 0.003,-0.0211 0.005,-0.0321 0.011,-0.0932 0.0262,-0.18656 0.0454,-0.2774 0.005,-0.0262 0.0136,-0.0496 0.0194,-0.0749 0.0185,-0.0765 0.0396,-0.1538 0.0639,-0.2287 0.008,-0.0244 0.0185,-0.0471 0.0269,-0.0714 0.0269,-0.0742 0.0546,-0.14813 0.0875,-0.21863 0.0101,-0.0236 0.0218,-0.0447 0.0328,-0.0674 0.0335,-0.0707 0.0697,-0.14044 0.10931,-0.20766 0.0108,-0.0185 0.0227,-0.037 0.0344,-0.0564 0.0471,-0.0765 0.0958,-0.15141 0.14958,-0.22284 0.004,-0.005 0.007,-0.007 0.0103,-0.0127 0.12361,-0.16388 0.26405,-0.31622 0.41785,-0.45155 0.52809,-0.46509 1.2202,-0.75 1.97953,-0.75 h 14.99925 c 0.82912,0 1.5,-0.672 1.5,-1.50037 v -3.00029 c 0,-0.82818 -0.67088,-1.49929 -1.5,-1.49929 h -14.99916 c -0.82912,0 -1.50018,0.67111 -1.50018,1.49929 v 2.25038 c 0,0.41456 -0.33563,0.75 -0.75019,0.75 -0.41456,0 -0.75,-0.33544 -0.75,-0.75 v -2.25038 c 0,-1.65661 1.34287,-2.99948 3.00037,-2.99948 h 14.99925 c 1.6575,0 3.00038,1.34287 3.00038,2.99948 v 3.00038 c 0,1.65675 -1.34288,2.99967 -3.00038,2.99967 h -0.40537 -14.59388 c -0.82912,0 -1.50018,0.67181 -1.50018,1.50019 v 3.00019 c 0,0.82837 0.67106,1.50037 1.50018,1.50037 h 14.59388 0.40537 c 1.65746,0 3.00038,1.34292 3.00038,2.99967 v 3.00005 c 0,1.65675 -1.34288,3 -3.00038,3 z m 2.25038,-10.50009 c -0.41381,0 -0.75038,-0.33619 -0.75038,-0.75 v -1.50019 c 0,-0.41363 0.33657,-0.75 0.75038,-0.75 0.41456,0 0.75,0.33637 0.75,0.75 v 1.50019 c 0,0.41381 -0.33544,0.75 -0.75,0.75 z"
       id="path2-7"
       style="fill:url(#linearGradient1043);fill-opacity:1.0;stroke-width:0.046875" />
  </g>
</svg>
