<?xml version="1.0" encoding="UTF-8" standalone="no"?>
<svg
   width="22"
   height="22"
   viewBox="0 0 22 22"
   id="svg7925"
   version="1.1"
   inkscape:version="1.1.1 (3bf5ae0d25, 2021-09-20)"
   sodipodi:docname="system-file-manager.svg"
   xmlns:inkscape="http://www.inkscape.org/namespaces/inkscape"
   xmlns:sodipodi="http://sodipodi.sourceforge.net/DTD/sodipodi-0.dtd"
   xmlns:xlink="http://www.w3.org/1999/xlink"
   xmlns="http://www.w3.org/2000/svg"
   xmlns:svg="http://www.w3.org/2000/svg"
   xmlns:rdf="http://www.w3.org/1999/02/22-rdf-syntax-ns#"
   xmlns:cc="http://creativecommons.org/ns#"
   xmlns:dc="http://purl.org/dc/elements/1.1/">
  <defs
     id="defs7927">
    <linearGradient
       inkscape:collect="always"
       id="linearGradient1437">
      <stop
         style="stop-color:#00bdbd;stop-opacity:1;"
         offset="0"
         id="stop1433" />
      <stop
         style="stop-color:#80b3ff;stop-opacity:1"
         offset="1"
         id="stop1435" />
    </linearGradient>
    <linearGradient
       id="linearGradient4274"
       inkscape:collect="always">
      <stop
         id="stop4276"
         offset="0"
         style="stop-color:#ffffff;stop-opacity:1;" />
      <stop
         id="stop4278"
         offset="1"
         style="stop-color:#ffffff;stop-opacity:0.48760331" />
    </linearGradient>
    <linearGradient
       inkscape:collect="always"
       xlink:href="#linearGradient4274"
       id="linearGradient8485"
       gradientUnits="userSpaceOnUse"
       gradientTransform="matrix(0.69224711,0,0,0.69224711,-264.27155,1668.4354)"
       x1="390.57144"
       y1="498.298"
       x2="442.57144"
       y2="498.298" />
    <linearGradient
       inkscape:collect="always"
       xlink:href="#linearGradient4274"
       id="linearGradient8603-0"
       gradientUnits="userSpaceOnUse"
       gradientTransform="matrix(0.34616832,0,0,0.34616832,-135.15325,827.3248)"
       x1="390.57144"
       y1="498.298"
       x2="442.57144"
       y2="498.298" />
    <linearGradient
       xlink:href="#linearGradient1437"
       id="linearGradient4225-3"
       gradientUnits="userSpaceOnUse"
       x1="396.57101"
       y1="498.798"
       x2="426.57101"
       y2="511.798"
       gradientTransform="matrix(0.32790651,0,0,0.13075776,-151.54966,965.06875)" />
    <linearGradient
       id="linearGradient4227">
      <stop
         offset="0"
         style="stop-color:#f5f5f5;stop-opacity:1"
         id="stop21" />
      <stop
         offset="1"
         style="stop-color:#f9f9f9;stop-opacity:1"
         id="stop23" />
    </linearGradient>
    <linearGradient
       inkscape:collect="always"
       id="linearGradient2230">
      <stop
         style="stop-color:#4e99ca;stop-opacity:0.80000001"
         offset="0"
         id="stop2226" />
      <stop
         style="stop-color:#20ffff;stop-opacity:0.80000001"
         offset="0.50507295"
         id="stop2332" />
      <stop
         style="stop-color:#ffaeff;stop-opacity:0.69"
         offset="1"
         id="stop2228" />
    </linearGradient>
    <linearGradient
       inkscape:collect="always"
       xlink:href="#linearGradient2230"
       id="linearGradient2232-3"
       x1="384.57144"
       y1="515.79797"
       x2="448.57144"
       y2="515.79797"
       gradientUnits="userSpaceOnUse"
       gradientTransform="matrix(0.34374997,0,0,0.34615379,-132.19643,862.81679)" />
    <linearGradient
       inkscape:collect="always"
       xlink:href="#linearGradient2230"
       id="linearGradient972"
       x1="10"
       y1="1044.6122"
       x2="19.664917"
       y2="1044.6122"
       gradientUnits="userSpaceOnUse" />
  </defs>
  <sodipodi:namedview
     id="base"
     pagecolor="#ffffff"
     bordercolor="#666666"
     borderopacity="1.0"
     inkscape:pageopacity="0.0"
     inkscape:pageshadow="2"
     inkscape:zoom="16.000001"
     inkscape:cx="-9.0624994"
     inkscape:cy="9.7812494"
     inkscape:document-units="px"
     inkscape:current-layer="layer1"
     showgrid="true"
     units="px"
     inkscape:snap-bbox="true"
     inkscape:bbox-nodes="true"
     inkscape:object-nodes="true"
     inkscape:document-rotation="0"
     inkscape:window-width="1920"
     inkscape:window-height="1007"
     inkscape:window-x="0"
     inkscape:window-y="0"
     inkscape:window-maximized="1"
     inkscape:pagecheckerboard="0">
    <inkscape:grid
       type="xygrid"
       id="grid8605" />
  </sodipodi:namedview>
  <metadata
     id="metadata7930">
    <rdf:RDF>
      <cc:Work
         rdf:about="">
        <dc:format>image/svg+xml</dc:format>
        <dc:type
           rdf:resource="http://purl.org/dc/dcmitype/StillImage" />
      </cc:Work>
    </rdf:RDF>
  </metadata>
  <g
     inkscape:label="Livello 1"
     inkscape:groupmode="layer"
     id="layer1"
     transform="translate(0,-1030.3622)">
    <rect
       style="fill:#626f9d;fill-opacity:0.2;stroke:none;stroke-width:0.434893"
       id="center-3-3"
       width="20.659374"
       height="14.53846"
       x="0.68751436"
       y="1035.1317"
       ry="1.3846138"
       rx="1.3772955" />
    <path
       d="M 19.994874,1034.4425 H 9.91382 c -0.2228077,0 -0.4176423,-0.1155 -0.5569158,-0.3178 l -0.7519489,-1.1556 c -0.2505937,-0.4045 -0.668411,-0.6069 -1.1138315,-0.6069 H 2.3392043 C 1.0580842,1032.3622 0,1033.4602 0,1034.7892 v 13.4927 c 0,1.1268 0.89124704,2.0803 2.0050724,2.0803 h 8.6607966 v 0 0 0 0 0 0 0 h 0.668256 v 0 0 0 0 0 0 0 0 0 h 8.660803 c 1.086079,0 2.005072,-0.9247 2.005072,-2.0803 v -11.7592 c 0,-1.1556 -0.891047,-2.0801 -2.005072,-2.0801 z m -8.660749,15.9197 v 0 h -0.668256 v 0 0 z m 9.997464,-2.0802 c 0,0.7511 -0.584912,1.3868 -1.336661,1.3868 H 2.0049722 c -0.7240047,0 -1.3366616,-0.6357 -1.3366616,-1.3868 l -1.9964e-4,-4.6517 v -2.6292 c 0,-0.7512 0.61265694,-1.3869 1.33666254,-1.3869 H 12.085828 c 0.445621,0 0.863245,-0.2311 1.113833,-0.6068 l 0.724004,-1.1556 c 0.139281,-0.1733 0.33412,-0.3178 0.556916,-0.3178 h 5.17977 c 0.918992,0 1.670991,0.7801 1.670991,1.7336 v 3.7849 z m -1.670992,-11.4125 h -5.17977 c -0.445614,0 -0.863244,0.2311 -1.113826,0.6068 l -0.72401,1.1556 c -0.111302,0.2024 -0.334114,0.3178 -0.55691,0.3178 H 2.005096 c -0.5011684,0 -0.973954,0.059 -1.3368444,0.5893 v -3.023 c 0,-0.6923 0.706754,-1.3845 1.3942558,-1.3845 h 5.5000034 l 0.014773,0.016 1.0164987,-0.016 1.3478706,0.01 H 20.022709 c 0.724004,0 1.336666,0.6356 1.336666,1.3868 v 1.069 c -0.445426,-0.4621 -1.030135,-0.7221 -1.698543,-0.7221 z"
       id="path64-5"
       sodipodi:nodetypes="csccsssssccccccccccccccccccsssccccccccccssccsssccssscccsccscccccccssscc"
       style="fill:url(#linearGradient2232-3);fill-opacity:1;stroke-width:0.0506526" />
    <path
       d="m 19.586938,1043.0718 c 0.01861,-0.3837 -0.390805,-0.7792 -0.55732,-0.9224 -0.920359,-2.3286 -4.224871,-1.5147 -4.870107,-1.3299 -1.681206,-1.0682 -2.97617,0.068 -2.987753,0.081 -0.06244,0.053 -0.09013,0.141 -0.07171,0.224 0.0185,0.081 0.08096,0.1458 0.161913,0.169 0.518028,0.1479 0.908835,0.6498 1.072957,0.8927 -1.207095,1.4128 -1.251014,3.427 -1.239481,3.945 -1.5054549,1.2464 -1.029057,2.5299 -1.005978,2.5853 0.03241,0.081 0.106375,0.1388 0.194288,0.1457 0.0065,0 0.0139,0 0.02071,0 0.07861,0 0.154999,-0.043 0.196605,-0.1111 0.275201,-0.4437 0.619792,-0.7121 1.022122,-0.7976 0.719157,-0.1526 1.41754,0.3121 1.424475,0.3167 0.05309,0.038 0.120202,0.049 0.184973,0.037 0.06245,-0.017 0.117899,-0.057 0.147978,-0.1157 0.363023,-0.6684 -0.198907,-1.5193 -0.407044,-1.799 0.265887,-1.1286 0.918054,-1.783 1.429075,-2.1369 l -0.104024,0.1732 c -0.03241,0.057 -0.04156,0.1247 -0.02086,0.1873 0.0185,0.063 0.06472,0.1154 0.124917,0.1433 0.226579,0.099 0.543402,0.1086 0.945829,0.027 0.335371,-0.071 0.659093,-0.245 0.9366,-0.5017 0.363022,-0.3332 0.767762,-0.3586 0.767762,-0.3586 h 2.298676 c 0.05318,0 0.101753,-0.019 0.143368,-0.047 0.196603,-0.1549 0.252058,-0.3238 0.265887,-0.4397 0.01871,-0.1529 -0.02986,-0.2822 -0.07377,-0.3656 z m -1.625669,-0.2494 h -0.127222 c -0.127224,0 -0.231301,-0.1043 -0.231301,-0.2314 0,-0.1273 0.104077,-0.2315 0.231301,-0.2315 h 0.127222 c 0.12953,0 0.231293,0.1042 0.231293,0.2315 0,0.1271 -0.101753,0.2314 -0.231293,0.2314 z"
       id="path49"
       style="stroke-width:0.0227119;fill-opacity:1.0;fill:url(#linearGradient972)" />
  </g>
</svg>
